%TF.GenerationSoftware,KiCad,Pcbnew,(5.1.8)-1*%
%TF.CreationDate,2024-01-21T21:11:34+03:00*%
%TF.ProjectId,Regs-v3,52656773-2d76-4332-9e6b-696361645f70,rev?*%
%TF.SameCoordinates,Original*%
%TF.FileFunction,Copper,L2,Bot*%
%TF.FilePolarity,Positive*%
%FSLAX46Y46*%
G04 Gerber Fmt 4.6, Leading zero omitted, Abs format (unit mm)*
G04 Created by KiCad (PCBNEW (5.1.8)-1) date 2024-01-21 21:11:34*
%MOMM*%
%LPD*%
G01*
G04 APERTURE LIST*
%TA.AperFunction,ComponentPad*%
%ADD10R,1.700000X1.700000*%
%TD*%
%TA.AperFunction,SMDPad,CuDef*%
%ADD11R,0.900000X0.800000*%
%TD*%
%TA.AperFunction,ComponentPad*%
%ADD12O,2.100000X2.300000*%
%TD*%
%TA.AperFunction,ComponentPad*%
%ADD13R,2.100000X2.300000*%
%TD*%
%TA.AperFunction,ComponentPad*%
%ADD14C,2.600000*%
%TD*%
%TA.AperFunction,ComponentPad*%
%ADD15R,2.600000X2.600000*%
%TD*%
%TA.AperFunction,ComponentPad*%
%ADD16R,2.100000X2.100000*%
%TD*%
%TA.AperFunction,ComponentPad*%
%ADD17O,2.100000X2.100000*%
%TD*%
%TA.AperFunction,ViaPad*%
%ADD18C,1.500000*%
%TD*%
%TA.AperFunction,ViaPad*%
%ADD19C,1.400000*%
%TD*%
%TA.AperFunction,Conductor*%
%ADD20C,0.600000*%
%TD*%
%TA.AperFunction,Conductor*%
%ADD21C,0.800000*%
%TD*%
%TA.AperFunction,Conductor*%
%ADD22C,1.000000*%
%TD*%
G04 APERTURE END LIST*
D10*
%TO.P,J20,1*%
%TO.N,/~Res*%
X153670000Y-20320000D03*
%TD*%
%TO.P,J19,1*%
%TO.N,/~Res*%
X80010000Y-20320000D03*
%TD*%
%TO.P,R7,2*%
%TO.N,GND*%
%TA.AperFunction,SMDPad,CuDef*%
G36*
G01*
X109670001Y-33255000D02*
X108769999Y-33255000D01*
G75*
G02*
X108520000Y-33005001I0J249999D01*
G01*
X108520000Y-32304999D01*
G75*
G02*
X108769999Y-32055000I249999J0D01*
G01*
X109670001Y-32055000D01*
G75*
G02*
X109920000Y-32304999I0J-249999D01*
G01*
X109920000Y-33005001D01*
G75*
G02*
X109670001Y-33255000I-249999J0D01*
G01*
G37*
%TD.AperFunction*%
%TO.P,R7,1*%
%TO.N,/EXT[1]*%
%TA.AperFunction,SMDPad,CuDef*%
G36*
G01*
X109670001Y-35255000D02*
X108769999Y-35255000D01*
G75*
G02*
X108520000Y-35005001I0J249999D01*
G01*
X108520000Y-34304999D01*
G75*
G02*
X108769999Y-34055000I249999J0D01*
G01*
X109670001Y-34055000D01*
G75*
G02*
X109920000Y-34304999I0J-249999D01*
G01*
X109920000Y-35005001D01*
G75*
G02*
X109670001Y-35255000I-249999J0D01*
G01*
G37*
%TD.AperFunction*%
%TD*%
D11*
%TO.P,Q1,3*%
%TO.N,Net-(J16-Pad1)*%
X112347500Y-19367500D03*
%TO.P,Q1,2*%
%TO.N,VCC*%
X114347500Y-20317500D03*
%TO.P,Q1,1*%
%TO.N,GND*%
X114347500Y-18417500D03*
%TD*%
%TO.P,C4,2*%
%TO.N,GND*%
%TA.AperFunction,SMDPad,CuDef*%
G36*
G01*
X111807500Y-41750000D02*
X111807500Y-40800000D01*
G75*
G02*
X112057500Y-40550000I250000J0D01*
G01*
X112732500Y-40550000D01*
G75*
G02*
X112982500Y-40800000I0J-250000D01*
G01*
X112982500Y-41750000D01*
G75*
G02*
X112732500Y-42000000I-250000J0D01*
G01*
X112057500Y-42000000D01*
G75*
G02*
X111807500Y-41750000I0J250000D01*
G01*
G37*
%TD.AperFunction*%
%TO.P,C4,1*%
%TO.N,VCC*%
%TA.AperFunction,SMDPad,CuDef*%
G36*
G01*
X109732500Y-41750000D02*
X109732500Y-40800000D01*
G75*
G02*
X109982500Y-40550000I250000J0D01*
G01*
X110657500Y-40550000D01*
G75*
G02*
X110907500Y-40800000I0J-250000D01*
G01*
X110907500Y-41750000D01*
G75*
G02*
X110657500Y-42000000I-250000J0D01*
G01*
X109982500Y-42000000D01*
G75*
G02*
X109732500Y-41750000I0J250000D01*
G01*
G37*
%TD.AperFunction*%
%TD*%
%TO.P,C3,2*%
%TO.N,GND*%
%TA.AperFunction,SMDPad,CuDef*%
G36*
G01*
X82682500Y-41115000D02*
X82682500Y-40165000D01*
G75*
G02*
X82932500Y-39915000I250000J0D01*
G01*
X83607500Y-39915000D01*
G75*
G02*
X83857500Y-40165000I0J-250000D01*
G01*
X83857500Y-41115000D01*
G75*
G02*
X83607500Y-41365000I-250000J0D01*
G01*
X82932500Y-41365000D01*
G75*
G02*
X82682500Y-41115000I0J250000D01*
G01*
G37*
%TD.AperFunction*%
%TO.P,C3,1*%
%TO.N,VCC*%
%TA.AperFunction,SMDPad,CuDef*%
G36*
G01*
X80607500Y-41115000D02*
X80607500Y-40165000D01*
G75*
G02*
X80857500Y-39915000I250000J0D01*
G01*
X81532500Y-39915000D01*
G75*
G02*
X81782500Y-40165000I0J-250000D01*
G01*
X81782500Y-41115000D01*
G75*
G02*
X81532500Y-41365000I-250000J0D01*
G01*
X80857500Y-41365000D01*
G75*
G02*
X80607500Y-41115000I0J250000D01*
G01*
G37*
%TD.AperFunction*%
%TD*%
%TO.P,C2,2*%
%TO.N,GND*%
%TA.AperFunction,SMDPad,CuDef*%
G36*
G01*
X65220000Y-42385000D02*
X65220000Y-41435000D01*
G75*
G02*
X65470000Y-41185000I250000J0D01*
G01*
X66145000Y-41185000D01*
G75*
G02*
X66395000Y-41435000I0J-250000D01*
G01*
X66395000Y-42385000D01*
G75*
G02*
X66145000Y-42635000I-250000J0D01*
G01*
X65470000Y-42635000D01*
G75*
G02*
X65220000Y-42385000I0J250000D01*
G01*
G37*
%TD.AperFunction*%
%TO.P,C2,1*%
%TO.N,VCC*%
%TA.AperFunction,SMDPad,CuDef*%
G36*
G01*
X63145000Y-42385000D02*
X63145000Y-41435000D01*
G75*
G02*
X63395000Y-41185000I250000J0D01*
G01*
X64070000Y-41185000D01*
G75*
G02*
X64320000Y-41435000I0J-250000D01*
G01*
X64320000Y-42385000D01*
G75*
G02*
X64070000Y-42635000I-250000J0D01*
G01*
X63395000Y-42635000D01*
G75*
G02*
X63145000Y-42385000I0J250000D01*
G01*
G37*
%TD.AperFunction*%
%TD*%
%TO.P,C1,2*%
%TO.N,GND*%
%TA.AperFunction,SMDPad,CuDef*%
G36*
G01*
X138880000Y-42385000D02*
X138880000Y-41435000D01*
G75*
G02*
X139130000Y-41185000I250000J0D01*
G01*
X139805000Y-41185000D01*
G75*
G02*
X140055000Y-41435000I0J-250000D01*
G01*
X140055000Y-42385000D01*
G75*
G02*
X139805000Y-42635000I-250000J0D01*
G01*
X139130000Y-42635000D01*
G75*
G02*
X138880000Y-42385000I0J250000D01*
G01*
G37*
%TD.AperFunction*%
%TO.P,C1,1*%
%TO.N,VCC*%
%TA.AperFunction,SMDPad,CuDef*%
G36*
G01*
X136805000Y-42385000D02*
X136805000Y-41435000D01*
G75*
G02*
X137055000Y-41185000I250000J0D01*
G01*
X137730000Y-41185000D01*
G75*
G02*
X137980000Y-41435000I0J-250000D01*
G01*
X137980000Y-42385000D01*
G75*
G02*
X137730000Y-42635000I-250000J0D01*
G01*
X137055000Y-42635000D01*
G75*
G02*
X136805000Y-42385000I0J250000D01*
G01*
G37*
%TD.AperFunction*%
%TD*%
%TO.P,R6,2*%
%TO.N,VCC*%
%TA.AperFunction,SMDPad,CuDef*%
G36*
G01*
X121955000Y-102050001D02*
X121955000Y-101149999D01*
G75*
G02*
X122204999Y-100900000I249999J0D01*
G01*
X122905001Y-100900000D01*
G75*
G02*
X123155000Y-101149999I0J-249999D01*
G01*
X123155000Y-102050001D01*
G75*
G02*
X122905001Y-102300000I-249999J0D01*
G01*
X122204999Y-102300000D01*
G75*
G02*
X121955000Y-102050001I0J249999D01*
G01*
G37*
%TD.AperFunction*%
%TO.P,R6,1*%
%TO.N,/~Res*%
%TA.AperFunction,SMDPad,CuDef*%
G36*
G01*
X119955000Y-102050001D02*
X119955000Y-101149999D01*
G75*
G02*
X120204999Y-100900000I249999J0D01*
G01*
X120905001Y-100900000D01*
G75*
G02*
X121155000Y-101149999I0J-249999D01*
G01*
X121155000Y-102050001D01*
G75*
G02*
X120905001Y-102300000I-249999J0D01*
G01*
X120204999Y-102300000D01*
G75*
G02*
X119955000Y-102050001I0J249999D01*
G01*
G37*
%TD.AperFunction*%
%TD*%
%TO.P,R5,2*%
%TO.N,VCC*%
%TA.AperFunction,SMDPad,CuDef*%
G36*
G01*
X81832500Y-35109999D02*
X81832500Y-36010001D01*
G75*
G02*
X81582501Y-36260000I-249999J0D01*
G01*
X80882499Y-36260000D01*
G75*
G02*
X80632500Y-36010001I0J249999D01*
G01*
X80632500Y-35109999D01*
G75*
G02*
X80882499Y-34860000I249999J0D01*
G01*
X81582501Y-34860000D01*
G75*
G02*
X81832500Y-35109999I0J-249999D01*
G01*
G37*
%TD.AperFunction*%
%TO.P,R5,1*%
%TO.N,/~MUL*%
%TA.AperFunction,SMDPad,CuDef*%
G36*
G01*
X83832500Y-35109999D02*
X83832500Y-36010001D01*
G75*
G02*
X83582501Y-36260000I-249999J0D01*
G01*
X82882499Y-36260000D01*
G75*
G02*
X82632500Y-36010001I0J249999D01*
G01*
X82632500Y-35109999D01*
G75*
G02*
X82882499Y-34860000I249999J0D01*
G01*
X83582501Y-34860000D01*
G75*
G02*
X83832500Y-35109999I0J-249999D01*
G01*
G37*
%TD.AperFunction*%
%TD*%
D12*
%TO.P,J18,9*%
%TO.N,/ALU_H7*%
X63500000Y-109220000D03*
%TO.P,J18,8*%
%TO.N,Net-(J18-Pad8)*%
X66040000Y-109220000D03*
%TO.P,J18,7*%
%TO.N,Net-(J18-Pad7)*%
X68580000Y-109220000D03*
%TO.P,J18,6*%
%TO.N,Net-(J18-Pad6)*%
X71120000Y-109220000D03*
%TO.P,J18,5*%
%TO.N,Net-(J18-Pad5)*%
X73660000Y-109220000D03*
%TO.P,J18,4*%
%TO.N,Net-(J18-Pad4)*%
X76200000Y-109220000D03*
%TO.P,J18,3*%
%TO.N,Net-(J18-Pad3)*%
X78740000Y-109220000D03*
%TO.P,J18,2*%
%TO.N,/ALU_H0*%
X81280000Y-109220000D03*
D13*
%TO.P,J18,1*%
%TO.N,GND*%
X83820000Y-109220000D03*
%TD*%
D12*
%TO.P,J17,9*%
%TO.N,/L7*%
X96520000Y-109220000D03*
%TO.P,J17,8*%
%TO.N,/L6*%
X99060000Y-109220000D03*
%TO.P,J17,7*%
%TO.N,/L5*%
X101600000Y-109220000D03*
%TO.P,J17,6*%
%TO.N,/L4*%
X104140000Y-109220000D03*
%TO.P,J17,5*%
%TO.N,/L3*%
X106680000Y-109220000D03*
%TO.P,J17,4*%
%TO.N,/L2*%
X109220000Y-109220000D03*
%TO.P,J17,3*%
%TO.N,/L1*%
X111760000Y-109220000D03*
%TO.P,J17,2*%
%TO.N,/L0*%
X114300000Y-109220000D03*
D13*
%TO.P,J17,1*%
%TO.N,GND*%
X116840000Y-109220000D03*
%TD*%
D12*
%TO.P,U15,28*%
%TO.N,GND*%
X33020000Y-102870000D03*
%TO.P,U15,27*%
X35560000Y-102870000D03*
%TO.P,U15,26*%
%TO.N,VCC*%
X38100000Y-102870000D03*
%TO.P,U15,25*%
%TO.N,Net-(U14-Pad8)*%
X40640000Y-102870000D03*
%TO.P,U15,24*%
%TO.N,/H7*%
X45720000Y-102870000D03*
%TO.P,U15,23*%
%TO.N,/H6*%
X48260000Y-102870000D03*
%TO.P,U15,22*%
%TO.N,/H5*%
X50800000Y-102870000D03*
%TO.P,U15,21*%
%TO.N,/H4*%
X53340000Y-102870000D03*
%TO.P,U15,20*%
%TO.N,/H3*%
X55880000Y-102870000D03*
%TO.P,U15,19*%
%TO.N,/H2*%
X58420000Y-102870000D03*
%TO.P,U15,18*%
%TO.N,/H1*%
X60960000Y-102870000D03*
%TO.P,U15,17*%
%TO.N,/H0*%
X63500000Y-102870000D03*
%TO.P,U15,16*%
%TO.N,/ALU_H7*%
X68580000Y-102870000D03*
%TO.P,U15,15*%
%TO.N,Net-(J18-Pad8)*%
X71120000Y-102870000D03*
%TO.P,U15,14*%
%TO.N,Net-(J18-Pad7)*%
X73660000Y-102870000D03*
%TO.P,U15,13*%
%TO.N,Net-(J18-Pad6)*%
X76200000Y-102870000D03*
%TO.P,U15,12*%
%TO.N,Net-(J18-Pad5)*%
X78740000Y-102870000D03*
%TO.P,U15,11*%
%TO.N,Net-(J18-Pad4)*%
X81280000Y-102870000D03*
%TO.P,U15,10*%
%TO.N,Net-(J18-Pad3)*%
X83820000Y-102870000D03*
%TO.P,U15,9*%
%TO.N,/ALU_H0*%
X86360000Y-102870000D03*
%TO.P,U15,8*%
%TO.N,/L7*%
X91440000Y-102870000D03*
%TO.P,U15,7*%
%TO.N,/L6*%
X93980000Y-102870000D03*
%TO.P,U15,6*%
%TO.N,/L5*%
X96520000Y-102870000D03*
%TO.P,U15,5*%
%TO.N,/L4*%
X99060000Y-102870000D03*
%TO.P,U15,4*%
%TO.N,/L3*%
X101600000Y-102870000D03*
%TO.P,U15,3*%
%TO.N,/L2*%
X104140000Y-102870000D03*
%TO.P,U15,2*%
%TO.N,/L1*%
X106680000Y-102870000D03*
%TO.P,U15,1*%
%TO.N,/L0*%
X109220000Y-102870000D03*
%TD*%
D14*
%TO.P,J16,2*%
%TO.N,GND*%
X104220000Y-20320000D03*
D15*
%TO.P,J16,1*%
%TO.N,Net-(J16-Pad1)*%
X109220000Y-20320000D03*
%TD*%
D12*
%TO.P,U14,14*%
%TO.N,VCC*%
X104140000Y-38100000D03*
%TO.P,U14,7*%
%TO.N,GND*%
X119380000Y-45720000D03*
%TO.P,U14,13*%
%TO.N,/EXT[1]*%
X106680000Y-38100000D03*
%TO.P,U14,6*%
%TO.N,/~H*%
X116840000Y-45720000D03*
%TO.P,U14,12*%
%TO.N,/EXT[1]*%
X109220000Y-38100000D03*
%TO.P,U14,5*%
%TO.N,Net-(U13-Pad9)*%
X114300000Y-45720000D03*
%TO.P,U14,11*%
%TO.N,Net-(U10-Pad20)*%
X111760000Y-38100000D03*
%TO.P,U14,4*%
%TO.N,/Latch*%
X111760000Y-45720000D03*
%TO.P,U14,10*%
%TO.N,/~MUL*%
X114300000Y-38100000D03*
%TO.P,U14,3*%
%TO.N,/~L*%
X109220000Y-45720000D03*
%TO.P,U14,9*%
%TO.N,/~MUL*%
X116840000Y-38100000D03*
%TO.P,U14,2*%
%TO.N,/Latch*%
X106680000Y-45720000D03*
%TO.P,U14,8*%
%TO.N,Net-(U14-Pad8)*%
X119380000Y-38100000D03*
D13*
%TO.P,U14,1*%
%TO.N,Net-(U13-Pad10)*%
X104140000Y-45720000D03*
%TD*%
D12*
%TO.P,U13,16*%
%TO.N,VCC*%
X81280000Y-38100000D03*
%TO.P,U13,8*%
%TO.N,GND*%
X99060000Y-45720000D03*
%TO.P,U13,15*%
X83820000Y-38100000D03*
%TO.P,U13,7*%
%TO.N,/~R3*%
X96520000Y-45720000D03*
%TO.P,U13,14*%
%TO.N,/DST[0]*%
X86360000Y-38100000D03*
%TO.P,U13,6*%
%TO.N,/~R2*%
X93980000Y-45720000D03*
%TO.P,U13,13*%
%TO.N,/~MUL*%
X88900000Y-38100000D03*
%TO.P,U13,5*%
%TO.N,/~R1*%
X91440000Y-45720000D03*
%TO.P,U13,12*%
%TO.N,Net-(U13-Pad12)*%
X91440000Y-38100000D03*
%TO.P,U13,4*%
%TO.N,/~R0*%
X88900000Y-45720000D03*
%TO.P,U13,11*%
%TO.N,Net-(U13-Pad11)*%
X93980000Y-38100000D03*
%TO.P,U13,3*%
%TO.N,/DST[2]*%
X86360000Y-45720000D03*
%TO.P,U13,10*%
%TO.N,Net-(U13-Pad10)*%
X96520000Y-38100000D03*
%TO.P,U13,2*%
%TO.N,/DST[1]*%
X83820000Y-45720000D03*
%TO.P,U13,9*%
%TO.N,Net-(U13-Pad9)*%
X99060000Y-38100000D03*
D16*
%TO.P,U13,1*%
%TO.N,GND*%
X81280000Y-45720000D03*
%TD*%
%TO.P,R4,2*%
%TO.N,VCC*%
%TA.AperFunction,SMDPad,CuDef*%
G36*
G01*
X53790001Y-41240000D02*
X52889999Y-41240000D01*
G75*
G02*
X52640000Y-40990001I0J249999D01*
G01*
X52640000Y-40289999D01*
G75*
G02*
X52889999Y-40040000I249999J0D01*
G01*
X53790001Y-40040000D01*
G75*
G02*
X54040000Y-40289999I0J-249999D01*
G01*
X54040000Y-40990001D01*
G75*
G02*
X53790001Y-41240000I-249999J0D01*
G01*
G37*
%TD.AperFunction*%
%TO.P,R4,1*%
%TO.N,Net-(R4-Pad1)*%
%TA.AperFunction,SMDPad,CuDef*%
G36*
G01*
X53790001Y-43240000D02*
X52889999Y-43240000D01*
G75*
G02*
X52640000Y-42990001I0J249999D01*
G01*
X52640000Y-42289999D01*
G75*
G02*
X52889999Y-42040000I249999J0D01*
G01*
X53790001Y-42040000D01*
G75*
G02*
X54040000Y-42289999I0J-249999D01*
G01*
X54040000Y-42990001D01*
G75*
G02*
X53790001Y-43240000I-249999J0D01*
G01*
G37*
%TD.AperFunction*%
%TD*%
%TO.P,R3,2*%
%TO.N,VCC*%
%TA.AperFunction,SMDPad,CuDef*%
G36*
G01*
X127450001Y-41240000D02*
X126549999Y-41240000D01*
G75*
G02*
X126300000Y-40990001I0J249999D01*
G01*
X126300000Y-40289999D01*
G75*
G02*
X126549999Y-40040000I249999J0D01*
G01*
X127450001Y-40040000D01*
G75*
G02*
X127700000Y-40289999I0J-249999D01*
G01*
X127700000Y-40990001D01*
G75*
G02*
X127450001Y-41240000I-249999J0D01*
G01*
G37*
%TD.AperFunction*%
%TO.P,R3,1*%
%TO.N,Net-(R3-Pad1)*%
%TA.AperFunction,SMDPad,CuDef*%
G36*
G01*
X127450001Y-43240000D02*
X126549999Y-43240000D01*
G75*
G02*
X126300000Y-42990001I0J249999D01*
G01*
X126300000Y-42289999D01*
G75*
G02*
X126549999Y-42040000I249999J0D01*
G01*
X127450001Y-42040000D01*
G75*
G02*
X127700000Y-42289999I0J-249999D01*
G01*
X127700000Y-42990001D01*
G75*
G02*
X127450001Y-43240000I-249999J0D01*
G01*
G37*
%TD.AperFunction*%
%TD*%
%TO.P,J15,1*%
%TO.N,/Latch*%
X106680000Y-48260000D03*
%TD*%
%TO.P,J14,1*%
%TO.N,/EXT[1]*%
X106680000Y-35560000D03*
%TD*%
D10*
%TO.P,J13,1*%
%TO.N,/~Res*%
X116840000Y-101600000D03*
%TD*%
D16*
%TO.P,J12,1*%
%TO.N,/~MUL*%
X88900000Y-33020000D03*
%TD*%
D17*
%TO.P,J11,3*%
%TO.N,/DST[2]*%
X86360000Y-48260000D03*
%TO.P,J11,2*%
%TO.N,/DST[1]*%
X83820000Y-48260000D03*
D16*
%TO.P,J11,1*%
%TO.N,/DST[0]*%
X81280000Y-48260000D03*
%TD*%
D12*
%TO.P,J10,9*%
%TO.N,/YH|SPH.7*%
X73660000Y-20320000D03*
%TO.P,J10,8*%
%TO.N,/YH|SPH.6*%
X71120000Y-20320000D03*
%TO.P,J10,7*%
%TO.N,/YH|SPH.5*%
X68580000Y-20320000D03*
%TO.P,J10,6*%
%TO.N,/YH|SPH.4*%
X66040000Y-20320000D03*
%TO.P,J10,5*%
%TO.N,/YH|SPH.3*%
X63500000Y-20320000D03*
%TO.P,J10,4*%
%TO.N,/YH|SPH.2*%
X60960000Y-20320000D03*
%TO.P,J10,3*%
%TO.N,/YH|SPH.1*%
X58420000Y-20320000D03*
%TO.P,J10,2*%
%TO.N,/YH|SPH.0*%
X55880000Y-20320000D03*
D13*
%TO.P,J10,1*%
%TO.N,GND*%
X53340000Y-20320000D03*
%TD*%
D12*
%TO.P,U12,20*%
%TO.N,VCC*%
X53340000Y-38100000D03*
%TO.P,U12,10*%
%TO.N,GND*%
X76200000Y-45720000D03*
%TO.P,U12,19*%
%TO.N,/EXT[1]*%
X55880000Y-38100000D03*
%TO.P,U12,9*%
%TO.N,/R7.7*%
X73660000Y-45720000D03*
%TO.P,U12,18*%
%TO.N,/YH|SPH.0*%
X58420000Y-38100000D03*
%TO.P,U12,8*%
%TO.N,/R7.6*%
X71120000Y-45720000D03*
%TO.P,U12,17*%
%TO.N,/YH|SPH.1*%
X60960000Y-38100000D03*
%TO.P,U12,7*%
%TO.N,/R7.5*%
X68580000Y-45720000D03*
%TO.P,U12,16*%
%TO.N,/YH|SPH.2*%
X63500000Y-38100000D03*
%TO.P,U12,6*%
%TO.N,/R7.4*%
X66040000Y-45720000D03*
%TO.P,U12,15*%
%TO.N,/YH|SPH.3*%
X66040000Y-38100000D03*
%TO.P,U12,5*%
%TO.N,/R7.3*%
X63500000Y-45720000D03*
%TO.P,U12,14*%
%TO.N,/YH|SPH.4*%
X68580000Y-38100000D03*
%TO.P,U12,4*%
%TO.N,/R7.2*%
X60960000Y-45720000D03*
%TO.P,U12,13*%
%TO.N,/YH|SPH.5*%
X71120000Y-38100000D03*
%TO.P,U12,3*%
%TO.N,/R7.1*%
X58420000Y-45720000D03*
%TO.P,U12,12*%
%TO.N,/YH|SPH.6*%
X73660000Y-38100000D03*
%TO.P,U12,2*%
%TO.N,/R7.0*%
X55880000Y-45720000D03*
%TO.P,U12,11*%
%TO.N,/YH|SPH.7*%
X76200000Y-38100000D03*
D13*
%TO.P,U12,1*%
%TO.N,Net-(R4-Pad1)*%
X53340000Y-45720000D03*
%TD*%
D12*
%TO.P,U11,20*%
%TO.N,VCC*%
X127000000Y-38100000D03*
%TO.P,U11,10*%
%TO.N,GND*%
X149860000Y-45720000D03*
%TO.P,U11,19*%
%TO.N,/EXT[1]*%
X129540000Y-38100000D03*
%TO.P,U11,9*%
%TO.N,/R6.7*%
X147320000Y-45720000D03*
%TO.P,U11,18*%
%TO.N,/YL|SPL.0*%
X132080000Y-38100000D03*
%TO.P,U11,8*%
%TO.N,/R6.6*%
X144780000Y-45720000D03*
%TO.P,U11,17*%
%TO.N,/YL|SPL.1*%
X134620000Y-38100000D03*
%TO.P,U11,7*%
%TO.N,/R6.5*%
X142240000Y-45720000D03*
%TO.P,U11,16*%
%TO.N,/YL|SPL.2*%
X137160000Y-38100000D03*
%TO.P,U11,6*%
%TO.N,/R6.4*%
X139700000Y-45720000D03*
%TO.P,U11,15*%
%TO.N,/YL|SPL.3*%
X139700000Y-38100000D03*
%TO.P,U11,5*%
%TO.N,/R6.3*%
X137160000Y-45720000D03*
%TO.P,U11,14*%
%TO.N,/YL|SPL.4*%
X142240000Y-38100000D03*
%TO.P,U11,4*%
%TO.N,/R6.2*%
X134620000Y-45720000D03*
%TO.P,U11,13*%
%TO.N,/YL|SPL.5*%
X144780000Y-38100000D03*
%TO.P,U11,3*%
%TO.N,/R6.1*%
X132080000Y-45720000D03*
%TO.P,U11,12*%
%TO.N,/YL|SPL.6*%
X147320000Y-38100000D03*
%TO.P,U11,2*%
%TO.N,/R6.0*%
X129540000Y-45720000D03*
%TO.P,U11,11*%
%TO.N,/YL|SPL.7*%
X149860000Y-38100000D03*
D13*
%TO.P,U11,1*%
%TO.N,Net-(R3-Pad1)*%
X127000000Y-45720000D03*
%TD*%
D12*
%TO.P,J9,9*%
%TO.N,/YL|SPL.7*%
X147320000Y-20320000D03*
%TO.P,J9,8*%
%TO.N,/YL|SPL.6*%
X144780000Y-20320000D03*
%TO.P,J9,7*%
%TO.N,/YL|SPL.5*%
X142240000Y-20320000D03*
%TO.P,J9,6*%
%TO.N,/YL|SPL.4*%
X139700000Y-20320000D03*
%TO.P,J9,5*%
%TO.N,/YL|SPL.3*%
X137160000Y-20320000D03*
%TO.P,J9,4*%
%TO.N,/YL|SPL.2*%
X134620000Y-20320000D03*
%TO.P,J9,3*%
%TO.N,/YL|SPL.1*%
X132080000Y-20320000D03*
%TO.P,J9,2*%
%TO.N,/YL|SPL.0*%
X129540000Y-20320000D03*
D13*
%TO.P,J9,1*%
%TO.N,GND*%
X127000000Y-20320000D03*
%TD*%
D12*
%TO.P,J8,9*%
%TO.N,/R7.7*%
X73660000Y-53340000D03*
%TO.P,J8,8*%
%TO.N,/R7.6*%
X71120000Y-53340000D03*
%TO.P,J8,7*%
%TO.N,/R7.5*%
X68580000Y-53340000D03*
%TO.P,J8,6*%
%TO.N,/R7.4*%
X66040000Y-53340000D03*
%TO.P,J8,5*%
%TO.N,/R7.3*%
X63500000Y-53340000D03*
%TO.P,J8,4*%
%TO.N,/R7.2*%
X60960000Y-53340000D03*
%TO.P,J8,3*%
%TO.N,/R7.1*%
X58420000Y-53340000D03*
%TO.P,J8,2*%
%TO.N,/R7.0*%
X55880000Y-53340000D03*
D13*
%TO.P,J8,1*%
%TO.N,GND*%
X53340000Y-53340000D03*
%TD*%
D12*
%TO.P,J7,9*%
%TO.N,/R6.7*%
X147320000Y-53340000D03*
%TO.P,J7,8*%
%TO.N,/R6.6*%
X144780000Y-53340000D03*
%TO.P,J7,7*%
%TO.N,/R6.5*%
X142240000Y-53340000D03*
%TO.P,J7,6*%
%TO.N,/R6.4*%
X139700000Y-53340000D03*
%TO.P,J7,5*%
%TO.N,/R6.3*%
X137160000Y-53340000D03*
%TO.P,J7,4*%
%TO.N,/R6.2*%
X134620000Y-53340000D03*
%TO.P,J7,3*%
%TO.N,/R6.1*%
X132080000Y-53340000D03*
%TO.P,J7,2*%
%TO.N,/R6.0*%
X129540000Y-53340000D03*
D13*
%TO.P,J7,1*%
%TO.N,GND*%
X127000000Y-53340000D03*
%TD*%
D12*
%TO.P,J6,9*%
%TO.N,/R5.7*%
X73660000Y-66040000D03*
%TO.P,J6,8*%
%TO.N,/R5.6*%
X71120000Y-66040000D03*
%TO.P,J6,7*%
%TO.N,/R5.5*%
X68580000Y-66040000D03*
%TO.P,J6,6*%
%TO.N,/R5.4*%
X66040000Y-66040000D03*
%TO.P,J6,5*%
%TO.N,/R5.3*%
X63500000Y-66040000D03*
%TO.P,J6,4*%
%TO.N,/R5.2*%
X60960000Y-66040000D03*
%TO.P,J6,3*%
%TO.N,/R5.1*%
X58420000Y-66040000D03*
%TO.P,J6,2*%
%TO.N,/R5.0*%
X55880000Y-66040000D03*
D13*
%TO.P,J6,1*%
%TO.N,GND*%
X53340000Y-66040000D03*
%TD*%
D12*
%TO.P,J5,9*%
%TO.N,/R4.7*%
X147320000Y-66040000D03*
%TO.P,J5,8*%
%TO.N,/R4.6*%
X144780000Y-66040000D03*
%TO.P,J5,7*%
%TO.N,/R4.5*%
X142240000Y-66040000D03*
%TO.P,J5,6*%
%TO.N,/R4.4*%
X139700000Y-66040000D03*
%TO.P,J5,5*%
%TO.N,/R4.3*%
X137160000Y-66040000D03*
%TO.P,J5,4*%
%TO.N,/R4.2*%
X134620000Y-66040000D03*
%TO.P,J5,3*%
%TO.N,/R4.1*%
X132080000Y-66040000D03*
%TO.P,J5,2*%
%TO.N,/R4.0*%
X129540000Y-66040000D03*
D13*
%TO.P,J5,1*%
%TO.N,GND*%
X127000000Y-66040000D03*
%TD*%
D12*
%TO.P,J4,9*%
%TO.N,/R3.7*%
X73660000Y-78740000D03*
%TO.P,J4,8*%
%TO.N,/R3.6*%
X71120000Y-78740000D03*
%TO.P,J4,7*%
%TO.N,/R3.5*%
X68580000Y-78740000D03*
%TO.P,J4,6*%
%TO.N,/R3.4*%
X66040000Y-78740000D03*
%TO.P,J4,5*%
%TO.N,/R3.3*%
X63500000Y-78740000D03*
%TO.P,J4,4*%
%TO.N,/R3.2*%
X60960000Y-78740000D03*
%TO.P,J4,3*%
%TO.N,/R3.1*%
X58420000Y-78740000D03*
%TO.P,J4,2*%
%TO.N,/R3.0*%
X55880000Y-78740000D03*
D13*
%TO.P,J4,1*%
%TO.N,GND*%
X53340000Y-78740000D03*
%TD*%
D12*
%TO.P,J3,9*%
%TO.N,/R2.7*%
X147320000Y-78740000D03*
%TO.P,J3,8*%
%TO.N,/R2.6*%
X144780000Y-78740000D03*
%TO.P,J3,7*%
%TO.N,/R2.5*%
X142240000Y-78740000D03*
%TO.P,J3,6*%
%TO.N,/R2.4*%
X139700000Y-78740000D03*
%TO.P,J3,5*%
%TO.N,/R2.3*%
X137160000Y-78740000D03*
%TO.P,J3,4*%
%TO.N,/R2.2*%
X134620000Y-78740000D03*
%TO.P,J3,3*%
%TO.N,/R2.1*%
X132080000Y-78740000D03*
%TO.P,J3,2*%
%TO.N,/R2.0*%
X129540000Y-78740000D03*
D13*
%TO.P,J3,1*%
%TO.N,GND*%
X127000000Y-78740000D03*
%TD*%
D12*
%TO.P,J2,9*%
%TO.N,/R1.7*%
X73660000Y-91440000D03*
%TO.P,J2,8*%
%TO.N,/R1.6*%
X71120000Y-91440000D03*
%TO.P,J2,7*%
%TO.N,/R1.5*%
X68580000Y-91440000D03*
%TO.P,J2,6*%
%TO.N,/R1.4*%
X66040000Y-91440000D03*
%TO.P,J2,5*%
%TO.N,/R1.3*%
X63500000Y-91440000D03*
%TO.P,J2,4*%
%TO.N,/R1.2*%
X60960000Y-91440000D03*
%TO.P,J2,3*%
%TO.N,/R1.1*%
X58420000Y-91440000D03*
%TO.P,J2,2*%
%TO.N,/R1.0*%
X55880000Y-91440000D03*
D13*
%TO.P,J2,1*%
%TO.N,GND*%
X53340000Y-91440000D03*
%TD*%
D12*
%TO.P,J1,9*%
%TO.N,/R0.7*%
X147320000Y-91440000D03*
%TO.P,J1,8*%
%TO.N,/R0.6*%
X144780000Y-91440000D03*
%TO.P,J1,7*%
%TO.N,/R0.5*%
X142240000Y-91440000D03*
%TO.P,J1,6*%
%TO.N,/R0.4*%
X139700000Y-91440000D03*
%TO.P,J1,5*%
%TO.N,/R0.3*%
X137160000Y-91440000D03*
%TO.P,J1,4*%
%TO.N,/R0.2*%
X134620000Y-91440000D03*
%TO.P,J1,3*%
%TO.N,/R0.1*%
X132080000Y-91440000D03*
%TO.P,J1,2*%
%TO.N,/R0.0*%
X129540000Y-91440000D03*
D13*
%TO.P,J1,1*%
%TO.N,GND*%
X127000000Y-91440000D03*
%TD*%
D12*
%TO.P,U10,22*%
%TO.N,/~Res*%
X86360000Y-30480000D03*
%TO.P,U10,21*%
X83820000Y-30480000D03*
%TO.P,U10,20*%
%TO.N,Net-(U10-Pad20)*%
X81280000Y-30480000D03*
%TO.P,U10,19*%
%TO.N,/YH|SPH.7*%
X73660000Y-30480000D03*
%TO.P,U10,18*%
%TO.N,/YH|SPH.6*%
X71120000Y-30480000D03*
%TO.P,U10,17*%
%TO.N,/YH|SPH.5*%
X68580000Y-30480000D03*
%TO.P,U10,16*%
%TO.N,/YH|SPH.4*%
X66040000Y-30480000D03*
%TO.P,U10,15*%
%TO.N,/YH|SPH.3*%
X63500000Y-30480000D03*
%TO.P,U10,14*%
%TO.N,/YH|SPH.2*%
X60960000Y-30480000D03*
%TO.P,U10,13*%
%TO.N,/YH|SPH.1*%
X58420000Y-30480000D03*
%TO.P,U10,12*%
%TO.N,/YH|SPH.0*%
X55880000Y-30480000D03*
%TO.P,U10,11*%
%TO.N,VCC*%
X50800000Y-30480000D03*
%TO.P,U10,10*%
%TO.N,GND*%
X48260000Y-30480000D03*
%TO.P,U10,9*%
%TO.N,Net-(R2-Pad1)*%
X43180000Y-30480000D03*
%TO.P,U10,8*%
%TO.N,GND*%
X38100000Y-30480000D03*
%TO.P,U10,7*%
X35560000Y-30480000D03*
%TO.P,U10,6*%
X33020000Y-30480000D03*
%TO.P,U10,5*%
X30480000Y-30480000D03*
%TO.P,U10,4*%
X27940000Y-30480000D03*
%TO.P,U10,3*%
X25400000Y-30480000D03*
%TO.P,U10,2*%
X22860000Y-30480000D03*
%TO.P,U10,1*%
%TO.N,Net-(R8-Pad1)*%
X20320000Y-30480000D03*
%TD*%
%TO.P,U9,22*%
%TO.N,/~Res*%
X160020000Y-30480000D03*
%TO.P,U9,21*%
X157480000Y-30480000D03*
%TO.P,U9,20*%
%TO.N,Net-(U10-Pad20)*%
X154940000Y-30480000D03*
%TO.P,U9,19*%
%TO.N,/YL|SPL.7*%
X147320000Y-30480000D03*
%TO.P,U9,18*%
%TO.N,/YL|SPL.6*%
X144780000Y-30480000D03*
%TO.P,U9,17*%
%TO.N,/YL|SPL.5*%
X142240000Y-30480000D03*
%TO.P,U9,16*%
%TO.N,/YL|SPL.4*%
X139700000Y-30480000D03*
%TO.P,U9,15*%
%TO.N,/YL|SPL.3*%
X137160000Y-30480000D03*
%TO.P,U9,14*%
%TO.N,/YL|SPL.2*%
X134620000Y-30480000D03*
%TO.P,U9,13*%
%TO.N,/YL|SPL.1*%
X132080000Y-30480000D03*
%TO.P,U9,12*%
%TO.N,/YL|SPL.0*%
X129540000Y-30480000D03*
%TO.P,U9,11*%
%TO.N,VCC*%
X124460000Y-30480000D03*
%TO.P,U9,10*%
%TO.N,GND*%
X121920000Y-30480000D03*
%TO.P,U9,9*%
%TO.N,Net-(R1-Pad1)*%
X116840000Y-30480000D03*
%TO.P,U9,8*%
%TO.N,GND*%
X111760000Y-30480000D03*
%TO.P,U9,7*%
X109220000Y-30480000D03*
%TO.P,U9,6*%
X106680000Y-30480000D03*
%TO.P,U9,5*%
X104140000Y-30480000D03*
%TO.P,U9,4*%
X101600000Y-30480000D03*
%TO.P,U9,3*%
X99060000Y-30480000D03*
%TO.P,U9,2*%
X96520000Y-30480000D03*
%TO.P,U9,1*%
X93980000Y-30480000D03*
%TD*%
%TO.P,U1,22*%
%TO.N,/~R0*%
X160020000Y-96520000D03*
%TO.P,U1,21*%
%TO.N,/~L*%
X157480000Y-96520000D03*
%TO.P,U1,20*%
%TO.N,GND*%
X154940000Y-96520000D03*
%TO.P,U1,19*%
%TO.N,/R0.7*%
X147320000Y-96520000D03*
%TO.P,U1,18*%
%TO.N,/R0.6*%
X144780000Y-96520000D03*
%TO.P,U1,17*%
%TO.N,/R0.5*%
X142240000Y-96520000D03*
%TO.P,U1,16*%
%TO.N,/R0.4*%
X139700000Y-96520000D03*
%TO.P,U1,15*%
%TO.N,/R0.3*%
X137160000Y-96520000D03*
%TO.P,U1,14*%
%TO.N,/R0.2*%
X134620000Y-96520000D03*
%TO.P,U1,13*%
%TO.N,/R0.1*%
X132080000Y-96520000D03*
%TO.P,U1,12*%
%TO.N,/R0.0*%
X129540000Y-96520000D03*
%TO.P,U1,11*%
%TO.N,VCC*%
X124460000Y-96520000D03*
%TO.P,U1,10*%
%TO.N,GND*%
X121920000Y-96520000D03*
%TO.P,U1,9*%
%TO.N,/~Res*%
X116840000Y-96520000D03*
%TO.P,U1,8*%
%TO.N,/L0*%
X111760000Y-96520000D03*
%TO.P,U1,7*%
%TO.N,/L1*%
X109220000Y-96520000D03*
%TO.P,U1,6*%
%TO.N,/L2*%
X106680000Y-96520000D03*
%TO.P,U1,5*%
%TO.N,/L3*%
X104140000Y-96520000D03*
%TO.P,U1,4*%
%TO.N,/L4*%
X101600000Y-96520000D03*
%TO.P,U1,3*%
%TO.N,/L5*%
X99060000Y-96520000D03*
%TO.P,U1,2*%
%TO.N,/L6*%
X96520000Y-96520000D03*
%TO.P,U1,1*%
%TO.N,/L7*%
X93980000Y-96520000D03*
%TD*%
%TO.P,U8,22*%
%TO.N,/~R3*%
X86360000Y-58420000D03*
%TO.P,U8,21*%
%TO.N,/~H*%
X83820000Y-58420000D03*
%TO.P,U8,20*%
%TO.N,GND*%
X81280000Y-58420000D03*
%TO.P,U8,19*%
%TO.N,/R7.7*%
X73660000Y-58420000D03*
%TO.P,U8,18*%
%TO.N,/R7.6*%
X71120000Y-58420000D03*
%TO.P,U8,17*%
%TO.N,/R7.5*%
X68580000Y-58420000D03*
%TO.P,U8,16*%
%TO.N,/R7.4*%
X66040000Y-58420000D03*
%TO.P,U8,15*%
%TO.N,/R7.3*%
X63500000Y-58420000D03*
%TO.P,U8,14*%
%TO.N,/R7.2*%
X60960000Y-58420000D03*
%TO.P,U8,13*%
%TO.N,/R7.1*%
X58420000Y-58420000D03*
%TO.P,U8,12*%
%TO.N,/R7.0*%
X55880000Y-58420000D03*
%TO.P,U8,11*%
%TO.N,VCC*%
X50800000Y-58420000D03*
%TO.P,U8,10*%
%TO.N,GND*%
X48260000Y-58420000D03*
%TO.P,U8,9*%
%TO.N,/~Res*%
X43180000Y-58420000D03*
%TO.P,U8,8*%
%TO.N,/H0*%
X38100000Y-58420000D03*
%TO.P,U8,7*%
%TO.N,/H1*%
X35560000Y-58420000D03*
%TO.P,U8,6*%
%TO.N,/H2*%
X33020000Y-58420000D03*
%TO.P,U8,5*%
%TO.N,/H3*%
X30480000Y-58420000D03*
%TO.P,U8,4*%
%TO.N,/H4*%
X27940000Y-58420000D03*
%TO.P,U8,3*%
%TO.N,/H5*%
X25400000Y-58420000D03*
%TO.P,U8,2*%
%TO.N,/H6*%
X22860000Y-58420000D03*
%TO.P,U8,1*%
%TO.N,/H7*%
X20320000Y-58420000D03*
%TD*%
%TO.P,U6,22*%
%TO.N,/~R2*%
X86360000Y-71120000D03*
%TO.P,U6,21*%
%TO.N,/~H*%
X83820000Y-71120000D03*
%TO.P,U6,20*%
%TO.N,GND*%
X81280000Y-71120000D03*
%TO.P,U6,19*%
%TO.N,/R5.7*%
X73660000Y-71120000D03*
%TO.P,U6,18*%
%TO.N,/R5.6*%
X71120000Y-71120000D03*
%TO.P,U6,17*%
%TO.N,/R5.5*%
X68580000Y-71120000D03*
%TO.P,U6,16*%
%TO.N,/R5.4*%
X66040000Y-71120000D03*
%TO.P,U6,15*%
%TO.N,/R5.3*%
X63500000Y-71120000D03*
%TO.P,U6,14*%
%TO.N,/R5.2*%
X60960000Y-71120000D03*
%TO.P,U6,13*%
%TO.N,/R5.1*%
X58420000Y-71120000D03*
%TO.P,U6,12*%
%TO.N,/R5.0*%
X55880000Y-71120000D03*
%TO.P,U6,11*%
%TO.N,VCC*%
X50800000Y-71120000D03*
%TO.P,U6,10*%
%TO.N,GND*%
X48260000Y-71120000D03*
%TO.P,U6,9*%
%TO.N,/~Res*%
X43180000Y-71120000D03*
%TO.P,U6,8*%
%TO.N,/H0*%
X38100000Y-71120000D03*
%TO.P,U6,7*%
%TO.N,/H1*%
X35560000Y-71120000D03*
%TO.P,U6,6*%
%TO.N,/H2*%
X33020000Y-71120000D03*
%TO.P,U6,5*%
%TO.N,/H3*%
X30480000Y-71120000D03*
%TO.P,U6,4*%
%TO.N,/H4*%
X27940000Y-71120000D03*
%TO.P,U6,3*%
%TO.N,/H5*%
X25400000Y-71120000D03*
%TO.P,U6,2*%
%TO.N,/H6*%
X22860000Y-71120000D03*
%TO.P,U6,1*%
%TO.N,/H7*%
X20320000Y-71120000D03*
%TD*%
%TO.P,U4,22*%
%TO.N,/~R1*%
X86360000Y-83820000D03*
%TO.P,U4,21*%
%TO.N,/~H*%
X83820000Y-83820000D03*
%TO.P,U4,20*%
%TO.N,GND*%
X81280000Y-83820000D03*
%TO.P,U4,19*%
%TO.N,/R3.7*%
X73660000Y-83820000D03*
%TO.P,U4,18*%
%TO.N,/R3.6*%
X71120000Y-83820000D03*
%TO.P,U4,17*%
%TO.N,/R3.5*%
X68580000Y-83820000D03*
%TO.P,U4,16*%
%TO.N,/R3.4*%
X66040000Y-83820000D03*
%TO.P,U4,15*%
%TO.N,/R3.3*%
X63500000Y-83820000D03*
%TO.P,U4,14*%
%TO.N,/R3.2*%
X60960000Y-83820000D03*
%TO.P,U4,13*%
%TO.N,/R3.1*%
X58420000Y-83820000D03*
%TO.P,U4,12*%
%TO.N,/R3.0*%
X55880000Y-83820000D03*
%TO.P,U4,11*%
%TO.N,VCC*%
X50800000Y-83820000D03*
%TO.P,U4,10*%
%TO.N,GND*%
X48260000Y-83820000D03*
%TO.P,U4,9*%
%TO.N,/~Res*%
X43180000Y-83820000D03*
%TO.P,U4,8*%
%TO.N,/H0*%
X38100000Y-83820000D03*
%TO.P,U4,7*%
%TO.N,/H1*%
X35560000Y-83820000D03*
%TO.P,U4,6*%
%TO.N,/H2*%
X33020000Y-83820000D03*
%TO.P,U4,5*%
%TO.N,/H3*%
X30480000Y-83820000D03*
%TO.P,U4,4*%
%TO.N,/H4*%
X27940000Y-83820000D03*
%TO.P,U4,3*%
%TO.N,/H5*%
X25400000Y-83820000D03*
%TO.P,U4,2*%
%TO.N,/H6*%
X22860000Y-83820000D03*
%TO.P,U4,1*%
%TO.N,/H7*%
X20320000Y-83820000D03*
%TD*%
%TO.P,U2,22*%
%TO.N,/~R0*%
X86360000Y-96520000D03*
%TO.P,U2,21*%
%TO.N,/~H*%
X83820000Y-96520000D03*
%TO.P,U2,20*%
%TO.N,GND*%
X81280000Y-96520000D03*
%TO.P,U2,19*%
%TO.N,/R1.7*%
X73660000Y-96520000D03*
%TO.P,U2,18*%
%TO.N,/R1.6*%
X71120000Y-96520000D03*
%TO.P,U2,17*%
%TO.N,/R1.5*%
X68580000Y-96520000D03*
%TO.P,U2,16*%
%TO.N,/R1.4*%
X66040000Y-96520000D03*
%TO.P,U2,15*%
%TO.N,/R1.3*%
X63500000Y-96520000D03*
%TO.P,U2,14*%
%TO.N,/R1.2*%
X60960000Y-96520000D03*
%TO.P,U2,13*%
%TO.N,/R1.1*%
X58420000Y-96520000D03*
%TO.P,U2,12*%
%TO.N,/R1.0*%
X55880000Y-96520000D03*
%TO.P,U2,11*%
%TO.N,VCC*%
X50800000Y-96520000D03*
%TO.P,U2,10*%
%TO.N,GND*%
X48260000Y-96520000D03*
%TO.P,U2,9*%
%TO.N,/~Res*%
X43180000Y-96520000D03*
%TO.P,U2,8*%
%TO.N,/H0*%
X38100000Y-96520000D03*
%TO.P,U2,7*%
%TO.N,/H1*%
X35560000Y-96520000D03*
%TO.P,U2,6*%
%TO.N,/H2*%
X33020000Y-96520000D03*
%TO.P,U2,5*%
%TO.N,/H3*%
X30480000Y-96520000D03*
%TO.P,U2,4*%
%TO.N,/H4*%
X27940000Y-96520000D03*
%TO.P,U2,3*%
%TO.N,/H5*%
X25400000Y-96520000D03*
%TO.P,U2,2*%
%TO.N,/H6*%
X22860000Y-96520000D03*
%TO.P,U2,1*%
%TO.N,/H7*%
X20320000Y-96520000D03*
%TD*%
%TO.P,U7,22*%
%TO.N,/~R3*%
X160020000Y-58420000D03*
%TO.P,U7,21*%
%TO.N,/~L*%
X157480000Y-58420000D03*
%TO.P,U7,20*%
%TO.N,GND*%
X154940000Y-58420000D03*
%TO.P,U7,19*%
%TO.N,/R6.7*%
X147320000Y-58420000D03*
%TO.P,U7,18*%
%TO.N,/R6.6*%
X144780000Y-58420000D03*
%TO.P,U7,17*%
%TO.N,/R6.5*%
X142240000Y-58420000D03*
%TO.P,U7,16*%
%TO.N,/R6.4*%
X139700000Y-58420000D03*
%TO.P,U7,15*%
%TO.N,/R6.3*%
X137160000Y-58420000D03*
%TO.P,U7,14*%
%TO.N,/R6.2*%
X134620000Y-58420000D03*
%TO.P,U7,13*%
%TO.N,/R6.1*%
X132080000Y-58420000D03*
%TO.P,U7,12*%
%TO.N,/R6.0*%
X129540000Y-58420000D03*
%TO.P,U7,11*%
%TO.N,VCC*%
X124460000Y-58420000D03*
%TO.P,U7,10*%
%TO.N,GND*%
X121920000Y-58420000D03*
%TO.P,U7,9*%
%TO.N,/~Res*%
X116840000Y-58420000D03*
%TO.P,U7,8*%
%TO.N,/L0*%
X111760000Y-58420000D03*
%TO.P,U7,7*%
%TO.N,/L1*%
X109220000Y-58420000D03*
%TO.P,U7,6*%
%TO.N,/L2*%
X106680000Y-58420000D03*
%TO.P,U7,5*%
%TO.N,/L3*%
X104140000Y-58420000D03*
%TO.P,U7,4*%
%TO.N,/L4*%
X101600000Y-58420000D03*
%TO.P,U7,3*%
%TO.N,/L5*%
X99060000Y-58420000D03*
%TO.P,U7,2*%
%TO.N,/L6*%
X96520000Y-58420000D03*
%TO.P,U7,1*%
%TO.N,/L7*%
X93980000Y-58420000D03*
%TD*%
%TO.P,U5,22*%
%TO.N,/~R2*%
X160020000Y-71120000D03*
%TO.P,U5,21*%
%TO.N,/~L*%
X157480000Y-71120000D03*
%TO.P,U5,20*%
%TO.N,GND*%
X154940000Y-71120000D03*
%TO.P,U5,19*%
%TO.N,/R4.7*%
X147320000Y-71120000D03*
%TO.P,U5,18*%
%TO.N,/R4.6*%
X144780000Y-71120000D03*
%TO.P,U5,17*%
%TO.N,/R4.5*%
X142240000Y-71120000D03*
%TO.P,U5,16*%
%TO.N,/R4.4*%
X139700000Y-71120000D03*
%TO.P,U5,15*%
%TO.N,/R4.3*%
X137160000Y-71120000D03*
%TO.P,U5,14*%
%TO.N,/R4.2*%
X134620000Y-71120000D03*
%TO.P,U5,13*%
%TO.N,/R4.1*%
X132080000Y-71120000D03*
%TO.P,U5,12*%
%TO.N,/R4.0*%
X129540000Y-71120000D03*
%TO.P,U5,11*%
%TO.N,VCC*%
X124460000Y-71120000D03*
%TO.P,U5,10*%
%TO.N,GND*%
X121920000Y-71120000D03*
%TO.P,U5,9*%
%TO.N,/~Res*%
X116840000Y-71120000D03*
%TO.P,U5,8*%
%TO.N,/L0*%
X111760000Y-71120000D03*
%TO.P,U5,7*%
%TO.N,/L1*%
X109220000Y-71120000D03*
%TO.P,U5,6*%
%TO.N,/L2*%
X106680000Y-71120000D03*
%TO.P,U5,5*%
%TO.N,/L3*%
X104140000Y-71120000D03*
%TO.P,U5,4*%
%TO.N,/L4*%
X101600000Y-71120000D03*
%TO.P,U5,3*%
%TO.N,/L5*%
X99060000Y-71120000D03*
%TO.P,U5,2*%
%TO.N,/L6*%
X96520000Y-71120000D03*
%TO.P,U5,1*%
%TO.N,/L7*%
X93980000Y-71120000D03*
%TD*%
%TO.P,U3,22*%
%TO.N,/~R1*%
X160020000Y-83820000D03*
%TO.P,U3,21*%
%TO.N,/~L*%
X157480000Y-83820000D03*
%TO.P,U3,20*%
%TO.N,GND*%
X154940000Y-83820000D03*
%TO.P,U3,19*%
%TO.N,/R2.7*%
X147320000Y-83820000D03*
%TO.P,U3,18*%
%TO.N,/R2.6*%
X144780000Y-83820000D03*
%TO.P,U3,17*%
%TO.N,/R2.5*%
X142240000Y-83820000D03*
%TO.P,U3,16*%
%TO.N,/R2.4*%
X139700000Y-83820000D03*
%TO.P,U3,15*%
%TO.N,/R2.3*%
X137160000Y-83820000D03*
%TO.P,U3,14*%
%TO.N,/R2.2*%
X134620000Y-83820000D03*
%TO.P,U3,13*%
%TO.N,/R2.1*%
X132080000Y-83820000D03*
%TO.P,U3,12*%
%TO.N,/R2.0*%
X129540000Y-83820000D03*
%TO.P,U3,11*%
%TO.N,VCC*%
X124460000Y-83820000D03*
%TO.P,U3,10*%
%TO.N,GND*%
X121920000Y-83820000D03*
%TO.P,U3,9*%
%TO.N,/~Res*%
X116840000Y-83820000D03*
%TO.P,U3,8*%
%TO.N,/L0*%
X111760000Y-83820000D03*
%TO.P,U3,7*%
%TO.N,/L1*%
X109220000Y-83820000D03*
%TO.P,U3,6*%
%TO.N,/L2*%
X106680000Y-83820000D03*
%TO.P,U3,5*%
%TO.N,/L3*%
X104140000Y-83820000D03*
%TO.P,U3,4*%
%TO.N,/L4*%
X101600000Y-83820000D03*
%TO.P,U3,3*%
%TO.N,/L5*%
X99060000Y-83820000D03*
%TO.P,U3,2*%
%TO.N,/L6*%
X96520000Y-83820000D03*
%TO.P,U3,1*%
%TO.N,/L7*%
X93980000Y-83820000D03*
%TD*%
D18*
%TO.N,Net-(U10-Pad20)*%
X114300000Y-27940000D03*
D19*
%TO.N,/H3*%
X35560000Y-107950000D03*
%TO.N,/H4*%
X53340000Y-109220000D03*
X33020000Y-109220000D03*
%TO.N,/H5*%
X50800000Y-110490000D03*
X30480000Y-110490000D03*
%TO.N,/H6*%
X48260000Y-111760000D03*
X27940000Y-111760000D03*
%TO.N,/H7*%
X45720000Y-113030000D03*
D18*
X25400000Y-113030000D03*
%TO.N,VCC*%
X123825000Y-41910000D03*
X114300000Y-22860000D03*
%TO.N,/~R0*%
X88900000Y-91440000D03*
%TO.N,/~L*%
X109220000Y-55880000D03*
%TO.N,/~Res*%
X86360000Y-26035000D03*
%TO.N,/~H*%
X83820000Y-50800000D03*
%TO.N,/~R1*%
X91440000Y-78740000D03*
%TO.N,/~R2*%
X93980000Y-55880000D03*
%TO.N,/~R3*%
X96520000Y-53975000D03*
%TO.N,/~MUL*%
X116840000Y-33020000D03*
%TD*%
D20*
%TO.N,Net-(U10-Pad20)*%
X114300000Y-27940000D02*
X114300000Y-33020000D01*
X111760000Y-35560000D02*
X111760000Y-38100000D01*
X111760000Y-35560000D02*
X114300000Y-33020000D01*
D21*
%TO.N,/L0*%
X111760000Y-58420000D02*
X111760000Y-96520000D01*
D20*
X109220000Y-102870000D02*
X109220000Y-100965000D01*
X109220000Y-100965000D02*
X111760000Y-98425000D01*
X111760000Y-96520000D02*
X111760000Y-98425000D01*
X114300000Y-107950000D02*
X114300000Y-109220000D01*
X109220000Y-102870000D02*
X114300000Y-107950000D01*
D21*
%TO.N,/L1*%
X109220000Y-58420000D02*
X109220000Y-96520000D01*
D20*
X109220000Y-98425000D02*
X109220000Y-96520000D01*
X106680000Y-100965000D02*
X109220000Y-98425000D01*
X106680000Y-102870000D02*
X106680000Y-100965000D01*
X111760000Y-107950000D02*
X111760000Y-109220000D01*
X106680000Y-102870000D02*
X111760000Y-107950000D01*
D21*
%TO.N,/L2*%
X106680000Y-58420000D02*
X106680000Y-96520000D01*
D20*
X104140000Y-102870000D02*
X104140000Y-100965000D01*
X104140000Y-100965000D02*
X106680000Y-98425000D01*
X106680000Y-98425000D02*
X106680000Y-96520000D01*
X109220000Y-107950000D02*
X109220000Y-109220000D01*
X104140000Y-102870000D02*
X109220000Y-107950000D01*
D21*
%TO.N,/L3*%
X104140000Y-58420000D02*
X104140000Y-96520000D01*
D20*
X101600000Y-102870000D02*
X101600000Y-100965000D01*
X101600000Y-100965000D02*
X104140000Y-98425000D01*
X104140000Y-98425000D02*
X104140000Y-96520000D01*
X106680000Y-107950000D02*
X106680000Y-109220000D01*
X101600000Y-102870000D02*
X106680000Y-107950000D01*
D21*
%TO.N,/L4*%
X101600000Y-58420000D02*
X101600000Y-96520000D01*
D20*
X99060000Y-102870000D02*
X99060000Y-100965000D01*
X99060000Y-100965000D02*
X101600000Y-98425000D01*
X101600000Y-98425000D02*
X101600000Y-96520000D01*
X104140000Y-107950000D02*
X104140000Y-109220000D01*
X99060000Y-102870000D02*
X104140000Y-107950000D01*
D21*
%TO.N,/L5*%
X99060000Y-58420000D02*
X99060000Y-96520000D01*
D20*
X96520000Y-102870000D02*
X96520000Y-100965000D01*
X96520000Y-100965000D02*
X99060000Y-98425000D01*
X99060000Y-98425000D02*
X99060000Y-96520000D01*
X101600000Y-107950000D02*
X101600000Y-109220000D01*
X96520000Y-102870000D02*
X101600000Y-107950000D01*
D21*
%TO.N,/L6*%
X96520000Y-58420000D02*
X96520000Y-96520000D01*
D20*
X93980000Y-102870000D02*
X93980000Y-100965000D01*
X93980000Y-100965000D02*
X96520000Y-98425000D01*
X96520000Y-98425000D02*
X96520000Y-96520000D01*
X99060000Y-107950000D02*
X99060000Y-109220000D01*
X93980000Y-102870000D02*
X99060000Y-107950000D01*
D21*
%TO.N,/L7*%
X93980000Y-58420000D02*
X93980000Y-96520000D01*
D20*
X91440000Y-102870000D02*
X91440000Y-100965000D01*
X91440000Y-100965000D02*
X93980000Y-98425000D01*
X93980000Y-98425000D02*
X93980000Y-96520000D01*
X96520000Y-107950000D02*
X96520000Y-109220000D01*
X91440000Y-102870000D02*
X96520000Y-107950000D01*
D21*
%TO.N,/H0*%
X38100000Y-58420000D02*
X38100000Y-96520000D01*
D20*
X38100000Y-97790000D02*
X38100000Y-96520000D01*
X38735000Y-98425000D02*
X38100000Y-97790000D01*
X60960000Y-98425000D02*
X38735000Y-98425000D01*
X63500000Y-100965000D02*
X60960000Y-98425000D01*
X63500000Y-102870000D02*
X63500000Y-100965000D01*
D21*
%TO.N,/H1*%
X35560000Y-58420000D02*
X35560000Y-96520000D01*
D20*
X35560000Y-97790000D02*
X37465000Y-99695000D01*
X35560000Y-96520000D02*
X35560000Y-97790000D01*
X59690000Y-99695000D02*
X60960000Y-100965000D01*
X60960000Y-100965000D02*
X60960000Y-102870000D01*
X37465000Y-99695000D02*
X59690000Y-99695000D01*
D21*
%TO.N,/H2*%
X33020000Y-58420000D02*
X33020000Y-96520000D01*
D20*
X58420000Y-100965000D02*
X58420000Y-102870000D01*
X36195000Y-100965000D02*
X58420000Y-100965000D01*
X33020000Y-97790000D02*
X36195000Y-100965000D01*
X33020000Y-96520000D02*
X33020000Y-97790000D01*
D21*
%TO.N,/H3*%
X30480000Y-58420000D02*
X30480000Y-96520000D01*
D20*
X33655000Y-106680000D02*
X30480000Y-103505000D01*
X34290000Y-106680000D02*
X33655000Y-106680000D01*
X30480000Y-103505000D02*
X30480000Y-96520000D01*
X35560000Y-107950000D02*
X34290000Y-106680000D01*
D21*
%TO.N,/H4*%
X27940000Y-58420000D02*
X27940000Y-96520000D01*
D20*
X27940000Y-96520000D02*
X27940000Y-102870000D01*
X53340000Y-102870000D02*
X53340000Y-107950000D01*
X27940000Y-102870000D02*
X33020000Y-107950000D01*
X33020000Y-107950000D02*
X33020000Y-109220000D01*
X53340000Y-107950000D02*
X53340000Y-109220000D01*
D21*
%TO.N,/H5*%
X25400000Y-58420000D02*
X25400000Y-96520000D01*
D20*
X25400000Y-96520000D02*
X25400000Y-102870000D01*
X50800000Y-102870000D02*
X50800000Y-110490000D01*
X30480000Y-107950000D02*
X30480000Y-110490000D01*
X25400000Y-102870000D02*
X30480000Y-107950000D01*
X30480000Y-110490000D02*
X30480000Y-110490000D01*
D21*
%TO.N,/H6*%
X22860000Y-58420000D02*
X22860000Y-96520000D01*
D20*
X22860000Y-96520000D02*
X22860000Y-102870000D01*
X48260000Y-102870000D02*
X48260000Y-111760000D01*
X27940000Y-107950000D02*
X27940000Y-111760000D01*
X22860000Y-102870000D02*
X27940000Y-107950000D01*
D21*
%TO.N,/H7*%
X20320000Y-58420000D02*
X20320000Y-96520000D01*
D20*
X20320000Y-96520000D02*
X20320000Y-102870000D01*
X45720000Y-102870000D02*
X45720000Y-113030000D01*
X25400000Y-107950000D02*
X25400000Y-113030000D01*
X20320000Y-102870000D02*
X25400000Y-107950000D01*
X25400000Y-113030000D02*
X25400000Y-113030000D01*
D21*
%TO.N,/R0.7*%
X147320000Y-91440000D02*
X147320000Y-96520000D01*
%TO.N,/R0.6*%
X144780000Y-91440000D02*
X144780000Y-96520000D01*
%TO.N,/R0.5*%
X142240000Y-91440000D02*
X142240000Y-96520000D01*
%TO.N,/R0.4*%
X139700000Y-91440000D02*
X139700000Y-96520000D01*
%TO.N,/R0.3*%
X137160000Y-91440000D02*
X137160000Y-96520000D01*
%TO.N,/R0.2*%
X134620000Y-91440000D02*
X134620000Y-96520000D01*
%TO.N,/R0.1*%
X132080000Y-91440000D02*
X132080000Y-96520000D01*
%TO.N,/R0.0*%
X129540000Y-91440000D02*
X129540000Y-96520000D01*
%TO.N,GND*%
X22860000Y-30480000D02*
X38100000Y-30480000D01*
X38100000Y-30480000D02*
X38100000Y-30480000D01*
X81280000Y-58420000D02*
X81280000Y-93980000D01*
X154940000Y-58420000D02*
X154940000Y-93980000D01*
X121920000Y-58420000D02*
X121920000Y-88900000D01*
X127000000Y-53340000D02*
X127000000Y-88900000D01*
X48260000Y-58420000D02*
X48260000Y-93980000D01*
X53340000Y-53340000D02*
X53340000Y-91440000D01*
X48260000Y-30480000D02*
X48260000Y-58420000D01*
X121920000Y-30480000D02*
X121920000Y-40640000D01*
X48260000Y-93980000D02*
X48260000Y-96520000D01*
X81280000Y-93980000D02*
X81280000Y-96520000D01*
X121920000Y-93980000D02*
X121920000Y-96520000D01*
X154940000Y-93980000D02*
X154940000Y-96520000D01*
X48260000Y-88900000D02*
X48260000Y-88900000D01*
X93980000Y-30480000D02*
X111760000Y-30480000D01*
X121920000Y-40640000D02*
X121920000Y-58420000D01*
X154940000Y-58420000D02*
X154940000Y-45720000D01*
X154940000Y-45720000D02*
X149860000Y-45720000D01*
X111760000Y-30480000D02*
X111760000Y-30480000D01*
X127000000Y-88900000D02*
X127000000Y-91440000D01*
X121920000Y-88900000D02*
X121920000Y-93980000D01*
D22*
X104220000Y-30400000D02*
X104140000Y-30480000D01*
X104220000Y-20320000D02*
X104220000Y-30400000D01*
X127000000Y-16510000D02*
X127000000Y-20320000D01*
X104140000Y-20240000D02*
X104220000Y-20320000D01*
X104140000Y-16510000D02*
X104140000Y-20240000D01*
X104140000Y-16510000D02*
X53340000Y-16510000D01*
X53340000Y-16510000D02*
X53340000Y-20320000D01*
X48260000Y-30480000D02*
X48260000Y-16510000D01*
X48260000Y-16510000D02*
X53340000Y-16510000D01*
X38100000Y-30480000D02*
X38100000Y-20320000D01*
X41910000Y-16510000D02*
X48260000Y-16510000D01*
X38100000Y-20320000D02*
X41910000Y-16510000D01*
D20*
X33020000Y-102870000D02*
X35560000Y-102870000D01*
D21*
X88900000Y-104140000D02*
X85090000Y-107950000D01*
X87630000Y-100330000D02*
X88900000Y-101600000D01*
X85090000Y-107950000D02*
X83820000Y-109220000D01*
X82550000Y-100330000D02*
X87630000Y-100330000D01*
X81280000Y-99060000D02*
X82550000Y-100330000D01*
X88900000Y-101600000D02*
X88900000Y-104140000D01*
X81280000Y-96520000D02*
X81280000Y-99060000D01*
X116840000Y-109220000D02*
X146050000Y-109220000D01*
X154940000Y-100330000D02*
X154940000Y-96520000D01*
X146050000Y-109220000D02*
X154940000Y-100330000D01*
D20*
X139467500Y-41910000D02*
X148590000Y-41910000D01*
X149860000Y-43180000D02*
X149860000Y-45720000D01*
X148590000Y-41910000D02*
X149860000Y-43180000D01*
X65807500Y-41910000D02*
X74930000Y-41910000D01*
X74930000Y-41910000D02*
X76200000Y-43180000D01*
X121920000Y-45720000D02*
X119380000Y-45720000D01*
X81280000Y-43180000D02*
X81280000Y-45720000D01*
X76200000Y-43180000D02*
X81280000Y-43180000D01*
X76200000Y-43180000D02*
X76200000Y-45720000D01*
D21*
X101600000Y-30480000D02*
X101600000Y-45720000D01*
X101600000Y-45720000D02*
X99060000Y-45720000D01*
D22*
X81280000Y-55880000D02*
X81280000Y-58420000D01*
X76200000Y-50800000D02*
X81280000Y-55880000D01*
X76200000Y-45720000D02*
X76200000Y-50800000D01*
D20*
X114347500Y-18417500D02*
X114347500Y-16780000D01*
X114347500Y-16780000D02*
X114617500Y-16510000D01*
D22*
X114617500Y-16510000D02*
X104140000Y-16510000D01*
X127000000Y-16510000D02*
X114617500Y-16510000D01*
D20*
X116205000Y-41275000D02*
X112395000Y-41275000D01*
X117475000Y-42545000D02*
X116205000Y-41275000D01*
X117475000Y-43497500D02*
X117475000Y-42545000D01*
X119380000Y-45402500D02*
X117475000Y-43497500D01*
X119380000Y-45720000D02*
X119380000Y-45402500D01*
X99060000Y-45720000D02*
X99060000Y-43180000D01*
X83820000Y-43180000D02*
X81280000Y-43180000D01*
X83185000Y-40640000D02*
X83185000Y-43095000D01*
X84137500Y-43180000D02*
X83820000Y-43180000D01*
X84222500Y-43095000D02*
X84137500Y-43180000D01*
X99060000Y-43180000D02*
X84137500Y-43180000D01*
X83185000Y-40640000D02*
X83185000Y-39455000D01*
X109220000Y-32655000D02*
X109220000Y-30480000D01*
D22*
X101600000Y-20320000D02*
X104220000Y-20320000D01*
X97790000Y-24130000D02*
X101600000Y-20320000D01*
X78740000Y-24130000D02*
X97790000Y-24130000D01*
X78740000Y-45720000D02*
X78740000Y-24130000D01*
X76200000Y-45720000D02*
X78740000Y-45720000D01*
D20*
X83820000Y-38820000D02*
X83185000Y-39455000D01*
X83820000Y-38100000D02*
X83820000Y-38820000D01*
D22*
X107990000Y-24090000D02*
X104220000Y-20320000D01*
X108705000Y-24805000D02*
X107990000Y-24090000D01*
X119420000Y-24805000D02*
X108705000Y-24805000D01*
X121920000Y-27305000D02*
X119420000Y-24805000D01*
X121920000Y-30480000D02*
X121920000Y-27305000D01*
X154940000Y-36830000D02*
X154940000Y-45720000D01*
X150495000Y-32385000D02*
X154940000Y-36830000D01*
X150495000Y-19050000D02*
X150495000Y-32385000D01*
X147955000Y-16510000D02*
X150495000Y-19050000D01*
X127000000Y-16510000D02*
X147955000Y-16510000D01*
D21*
%TO.N,/R1.7*%
X73660000Y-91440000D02*
X73660000Y-96520000D01*
%TO.N,/R1.6*%
X71120000Y-91440000D02*
X71120000Y-96520000D01*
%TO.N,/R1.5*%
X68580000Y-91440000D02*
X68580000Y-96520000D01*
%TO.N,/R1.4*%
X66040000Y-91440000D02*
X66040000Y-96520000D01*
%TO.N,/R1.3*%
X63500000Y-91440000D02*
X63500000Y-96520000D01*
%TO.N,/R1.2*%
X60960000Y-91440000D02*
X60960000Y-96520000D01*
%TO.N,/R1.1*%
X58420000Y-91440000D02*
X58420000Y-96520000D01*
%TO.N,/R1.0*%
X55880000Y-91440000D02*
X55880000Y-96520000D01*
%TO.N,/R2.7*%
X147320000Y-78740000D02*
X147320000Y-83820000D01*
%TO.N,/R2.6*%
X144780000Y-78740000D02*
X144780000Y-83820000D01*
%TO.N,/R2.5*%
X142240000Y-78740000D02*
X142240000Y-83820000D01*
%TO.N,/R2.4*%
X139700000Y-78740000D02*
X139700000Y-83820000D01*
%TO.N,/R2.3*%
X137160000Y-78740000D02*
X137160000Y-83820000D01*
%TO.N,/R2.2*%
X134620000Y-78740000D02*
X134620000Y-83820000D01*
%TO.N,/R2.1*%
X132080000Y-78740000D02*
X132080000Y-83820000D01*
%TO.N,/R2.0*%
X129540000Y-78740000D02*
X129540000Y-83820000D01*
%TO.N,/R3.7*%
X73660000Y-78740000D02*
X73660000Y-83820000D01*
%TO.N,/R3.6*%
X71120000Y-78740000D02*
X71120000Y-83820000D01*
%TO.N,/R3.5*%
X68580000Y-78740000D02*
X68580000Y-83820000D01*
%TO.N,/R3.4*%
X66040000Y-78740000D02*
X66040000Y-83820000D01*
%TO.N,/R3.3*%
X63500000Y-78740000D02*
X63500000Y-83820000D01*
%TO.N,/R3.2*%
X60960000Y-78740000D02*
X60960000Y-83820000D01*
%TO.N,/R3.1*%
X58420000Y-78740000D02*
X58420000Y-83820000D01*
%TO.N,/R3.0*%
X55880000Y-78740000D02*
X55880000Y-83820000D01*
%TO.N,/R4.7*%
X147320000Y-66040000D02*
X147320000Y-71120000D01*
%TO.N,/R4.6*%
X144780000Y-66040000D02*
X144780000Y-71120000D01*
%TO.N,/R4.5*%
X142240000Y-66040000D02*
X142240000Y-71120000D01*
%TO.N,/R4.4*%
X139700000Y-66040000D02*
X139700000Y-71120000D01*
%TO.N,/R4.3*%
X137160000Y-66040000D02*
X137160000Y-71120000D01*
%TO.N,/R4.2*%
X134620000Y-66040000D02*
X134620000Y-71120000D01*
%TO.N,/R4.1*%
X132080000Y-66040000D02*
X132080000Y-71120000D01*
%TO.N,/R4.0*%
X129540000Y-66040000D02*
X129540000Y-71120000D01*
%TO.N,/R5.7*%
X73660000Y-66040000D02*
X73660000Y-71120000D01*
%TO.N,/R5.6*%
X71120000Y-66040000D02*
X71120000Y-71120000D01*
%TO.N,/R5.5*%
X68580000Y-66040000D02*
X68580000Y-71120000D01*
%TO.N,/R5.4*%
X66040000Y-66040000D02*
X66040000Y-71120000D01*
%TO.N,/R5.3*%
X63500000Y-66040000D02*
X63500000Y-71120000D01*
%TO.N,/R5.2*%
X60960000Y-66040000D02*
X60960000Y-71120000D01*
%TO.N,/R5.1*%
X58420000Y-66040000D02*
X58420000Y-71120000D01*
%TO.N,/R5.0*%
X55880000Y-66040000D02*
X55880000Y-71120000D01*
%TO.N,/R6.7*%
X147320000Y-45720000D02*
X147320000Y-58420000D01*
%TO.N,/R6.6*%
X144780000Y-45720000D02*
X144780000Y-58420000D01*
%TO.N,/R6.5*%
X142240000Y-45720000D02*
X142240000Y-58420000D01*
%TO.N,/R6.4*%
X139700000Y-45720000D02*
X139700000Y-58420000D01*
%TO.N,/R6.3*%
X137160000Y-45720000D02*
X137160000Y-58420000D01*
%TO.N,/R6.2*%
X134620000Y-45720000D02*
X134620000Y-58420000D01*
%TO.N,/R6.1*%
X132080000Y-45720000D02*
X132080000Y-58420000D01*
%TO.N,/R6.0*%
X129540000Y-45720000D02*
X129540000Y-58420000D01*
%TO.N,/R7.7*%
X73660000Y-45720000D02*
X73660000Y-58420000D01*
%TO.N,/R7.6*%
X71120000Y-45720000D02*
X71120000Y-58420000D01*
%TO.N,/R7.5*%
X68580000Y-45720000D02*
X68580000Y-58420000D01*
%TO.N,/R7.4*%
X66040000Y-45720000D02*
X66040000Y-58420000D01*
%TO.N,/R7.3*%
X63500000Y-45720000D02*
X63500000Y-58420000D01*
%TO.N,/R7.2*%
X60960000Y-45720000D02*
X60960000Y-58420000D01*
%TO.N,/R7.1*%
X58420000Y-45720000D02*
X58420000Y-58420000D01*
%TO.N,/R7.0*%
X55880000Y-45720000D02*
X55880000Y-58420000D01*
%TO.N,/YL|SPL.7*%
X147320000Y-20320000D02*
X147320000Y-30480000D01*
D20*
X147320000Y-30480000D02*
X147320000Y-33020000D01*
X149860000Y-38100000D02*
X149860000Y-35560000D01*
X149860000Y-35560000D02*
X147320000Y-33020000D01*
D21*
%TO.N,/YL|SPL.6*%
X144780000Y-20320000D02*
X144780000Y-30480000D01*
D20*
X144780000Y-30480000D02*
X144780000Y-33020000D01*
X147320000Y-38100000D02*
X147320000Y-35560000D01*
X147320000Y-35560000D02*
X144780000Y-33020000D01*
D21*
%TO.N,/YL|SPL.5*%
X142240000Y-20320000D02*
X142240000Y-30480000D01*
D20*
X142240000Y-33020000D02*
X142240000Y-30480000D01*
X144780000Y-38100000D02*
X144780000Y-35560000D01*
X144780000Y-35560000D02*
X142240000Y-33020000D01*
D21*
%TO.N,/YL|SPL.4*%
X139700000Y-20320000D02*
X139700000Y-30480000D01*
D20*
X139700000Y-30480000D02*
X139700000Y-33020000D01*
X142240000Y-38100000D02*
X142240000Y-35560000D01*
X142240000Y-35560000D02*
X139700000Y-33020000D01*
D21*
%TO.N,/YL|SPL.3*%
X137160000Y-20320000D02*
X137160000Y-30480000D01*
D20*
X137160000Y-30480000D02*
X137160000Y-33020000D01*
X139700000Y-38100000D02*
X139700000Y-35560000D01*
X139700000Y-35560000D02*
X137160000Y-33020000D01*
D21*
%TO.N,/YL|SPL.2*%
X134620000Y-20320000D02*
X134620000Y-30480000D01*
D20*
X134620000Y-30480000D02*
X134620000Y-33020000D01*
X137160000Y-38100000D02*
X137160000Y-35560000D01*
X137160000Y-35560000D02*
X134620000Y-33020000D01*
D21*
%TO.N,/YL|SPL.1*%
X132080000Y-20320000D02*
X132080000Y-30480000D01*
D20*
X132080000Y-30480000D02*
X132080000Y-33020000D01*
X134620000Y-38100000D02*
X134620000Y-35560000D01*
X134620000Y-35560000D02*
X132080000Y-33020000D01*
D21*
%TO.N,/YL|SPL.0*%
X129540000Y-20320000D02*
X129540000Y-30480000D01*
D20*
X129540000Y-33020000D02*
X129540000Y-30480000D01*
X132080000Y-35560000D02*
X129540000Y-33020000D01*
X132080000Y-38100000D02*
X132080000Y-35560000D01*
D21*
%TO.N,/YH|SPH.7*%
X73660000Y-20320000D02*
X73660000Y-30480000D01*
D20*
X73660000Y-33020000D02*
X73660000Y-30480000D01*
X76200000Y-35560000D02*
X73660000Y-33020000D01*
X76200000Y-38100000D02*
X76200000Y-35560000D01*
D21*
%TO.N,/YH|SPH.6*%
X71120000Y-20320000D02*
X71120000Y-30480000D01*
D20*
X71120000Y-33020000D02*
X71120000Y-30480000D01*
X73660000Y-35560000D02*
X71120000Y-33020000D01*
X73660000Y-38100000D02*
X73660000Y-35560000D01*
D21*
%TO.N,/YH|SPH.5*%
X68580000Y-20320000D02*
X68580000Y-30480000D01*
D20*
X68580000Y-33020000D02*
X68580000Y-30480000D01*
X71120000Y-35560000D02*
X68580000Y-33020000D01*
X71120000Y-38100000D02*
X71120000Y-35560000D01*
D21*
%TO.N,/YH|SPH.4*%
X66040000Y-20320000D02*
X66040000Y-30480000D01*
D20*
X66040000Y-33020000D02*
X66040000Y-30480000D01*
X68580000Y-35560000D02*
X66040000Y-33020000D01*
X68580000Y-38100000D02*
X68580000Y-35560000D01*
D21*
%TO.N,/YH|SPH.3*%
X63500000Y-20320000D02*
X63500000Y-30480000D01*
D20*
X63500000Y-33020000D02*
X63500000Y-30480000D01*
X66040000Y-35560000D02*
X63500000Y-33020000D01*
X66040000Y-38100000D02*
X66040000Y-35560000D01*
D21*
%TO.N,/YH|SPH.2*%
X60960000Y-20320000D02*
X60960000Y-30480000D01*
D20*
X60960000Y-33020000D02*
X60960000Y-30480000D01*
X63500000Y-35560000D02*
X60960000Y-33020000D01*
X63500000Y-38100000D02*
X63500000Y-35560000D01*
D21*
%TO.N,/YH|SPH.1*%
X58420000Y-20320000D02*
X58420000Y-30480000D01*
D20*
X58420000Y-33020000D02*
X58420000Y-30480000D01*
X60960000Y-35560000D02*
X58420000Y-33020000D01*
X60960000Y-38100000D02*
X60960000Y-35560000D01*
D21*
%TO.N,/YH|SPH.0*%
X55880000Y-20320000D02*
X55880000Y-30480000D01*
D20*
X55880000Y-33020000D02*
X55880000Y-30480000D01*
X58420000Y-35560000D02*
X55880000Y-33020000D01*
X58420000Y-38100000D02*
X58420000Y-35560000D01*
D21*
%TO.N,VCC*%
X124460000Y-58420000D02*
X124460000Y-96520000D01*
X50800000Y-58420000D02*
X50800000Y-96520000D01*
X124460000Y-30480000D02*
X124460000Y-38100000D01*
X127000000Y-40640000D02*
X127000000Y-38100000D01*
D20*
X53340000Y-38100000D02*
X53340000Y-40640000D01*
D21*
X50800000Y-30480000D02*
X50800000Y-33020000D01*
D20*
X50800000Y-38100000D02*
X53340000Y-38100000D01*
D21*
X124460000Y-38100000D02*
X124460000Y-41910000D01*
D20*
X124460000Y-38100000D02*
X127000000Y-38100000D01*
D21*
X50800000Y-33020000D02*
X50800000Y-40640000D01*
X124460000Y-41910000D02*
X124460000Y-58420000D01*
D20*
X122555000Y-101600000D02*
X123825000Y-101600000D01*
X123825000Y-101600000D02*
X124460000Y-100965000D01*
X124460000Y-100965000D02*
X124460000Y-96520000D01*
D22*
X114300000Y-20320000D02*
X114300000Y-22860000D01*
D20*
X81280000Y-38100000D02*
X81280000Y-40640000D01*
D21*
X50800000Y-40640000D02*
X50800000Y-58420000D01*
D20*
X110320000Y-41275000D02*
X107950000Y-41275000D01*
X107950000Y-41275000D02*
X107315000Y-40640000D01*
X81232500Y-38052500D02*
X81280000Y-38100000D01*
X81232500Y-35560000D02*
X81232500Y-38052500D01*
D22*
X120015000Y-20320000D02*
X124460000Y-24765000D01*
X124460000Y-24765000D02*
X124460000Y-30480000D01*
X114300000Y-20320000D02*
X120015000Y-20320000D01*
D20*
X104140000Y-40005000D02*
X104775000Y-40640000D01*
X104140000Y-40005000D02*
X104140000Y-38100000D01*
X104775000Y-40640000D02*
X107315000Y-40640000D01*
X123825000Y-41910000D02*
X124460000Y-41910000D01*
X59055000Y-41910000D02*
X63732500Y-41910000D01*
X57785000Y-40640000D02*
X59055000Y-41910000D01*
X53340000Y-40640000D02*
X57785000Y-40640000D01*
X132715000Y-41910000D02*
X137392500Y-41910000D01*
X131445000Y-40640000D02*
X132715000Y-41910000D01*
X127000000Y-40640000D02*
X131445000Y-40640000D01*
%TO.N,/~R0*%
X86360000Y-96520000D02*
X86360000Y-91440000D01*
X86360000Y-91440000D02*
X86360000Y-91440000D01*
X88900000Y-45720000D02*
X88900000Y-91440000D01*
X88900000Y-91440000D02*
X88900000Y-91440000D01*
X86360000Y-91440000D02*
X88900000Y-91440000D01*
D21*
%TO.N,/~L*%
X157480000Y-58420000D02*
X157480000Y-96520000D01*
D20*
X109220000Y-55880000D02*
X109220000Y-45720000D01*
D21*
%TO.N,/~Res*%
X116840000Y-96520000D02*
X116840000Y-101600000D01*
X43180000Y-58420000D02*
X43180000Y-96520000D01*
X116840000Y-58420000D02*
X116840000Y-96520000D01*
D20*
X120555000Y-101600000D02*
X116840000Y-101600000D01*
D21*
X83820000Y-30480000D02*
X86360000Y-30480000D01*
D20*
X86360000Y-30480000D02*
X86360000Y-26035000D01*
X86360000Y-26035000D02*
X86360000Y-26035000D01*
D21*
%TO.N,/~H*%
X83820000Y-58420000D02*
X83820000Y-96520000D01*
X83820000Y-58420000D02*
X83820000Y-50800000D01*
X83820000Y-55880000D02*
X83820000Y-55880000D01*
D20*
%TO.N,/~R1*%
X91440000Y-45720000D02*
X91440000Y-78740000D01*
X91440000Y-78740000D02*
X91440000Y-78740000D01*
%TO.N,/~R2*%
X93980000Y-45720000D02*
X93980000Y-55880000D01*
X93980000Y-55880000D02*
X93980000Y-55880000D01*
%TO.N,/~R3*%
X96520000Y-45720000D02*
X96520000Y-53340000D01*
X96520000Y-53340000D02*
X96520000Y-53340000D01*
X96520000Y-53340000D02*
X96520000Y-53340000D01*
%TO.N,/EXT[1]*%
X109220000Y-38100000D02*
X109220000Y-34655000D01*
%TO.N,/DST[2]*%
X86360000Y-45720000D02*
X86360000Y-48260000D01*
%TO.N,/DST[1]*%
X83820000Y-45720000D02*
X83820000Y-48260000D01*
D21*
%TO.N,/~MUL*%
X114300000Y-38100000D02*
X116840000Y-38100000D01*
D20*
X116840000Y-33020000D02*
X116840000Y-38100000D01*
X83232500Y-35560000D02*
X88900000Y-35560000D01*
X88900000Y-35560000D02*
X88900000Y-38100000D01*
X88900000Y-35560000D02*
X88900000Y-33020000D01*
X88900000Y-33020000D02*
X88900000Y-33020000D01*
D21*
%TO.N,/Latch*%
X106680000Y-45720000D02*
X106680000Y-48260000D01*
D20*
X106680000Y-45720000D02*
X106680000Y-43180000D01*
X111760000Y-45720000D02*
X111760000Y-43180000D01*
X106680000Y-43180000D02*
X111760000Y-43180000D01*
D21*
%TO.N,Net-(R3-Pad1)*%
X127000000Y-42640000D02*
X127000000Y-45720000D01*
D20*
%TO.N,Net-(R4-Pad1)*%
X53340000Y-42640000D02*
X53340000Y-45720000D01*
%TO.N,/ALU_H7*%
X63500000Y-107950000D02*
X63500000Y-109220000D01*
X68580000Y-102870000D02*
X63500000Y-107950000D01*
%TO.N,Net-(J18-Pad8)*%
X66040000Y-107950000D02*
X66040000Y-109220000D01*
X71120000Y-102870000D02*
X66040000Y-107950000D01*
%TO.N,Net-(J18-Pad7)*%
X68580000Y-107950000D02*
X68580000Y-109220000D01*
X73660000Y-102870000D02*
X68580000Y-107950000D01*
%TO.N,Net-(J18-Pad6)*%
X71120000Y-107950000D02*
X71120000Y-109220000D01*
X76200000Y-102870000D02*
X71120000Y-107950000D01*
%TO.N,Net-(J18-Pad5)*%
X73660000Y-107950000D02*
X73660000Y-109220000D01*
X78740000Y-102870000D02*
X73660000Y-107950000D01*
%TO.N,Net-(J18-Pad4)*%
X76200000Y-107950000D02*
X76200000Y-109220000D01*
X81280000Y-102870000D02*
X76200000Y-107950000D01*
%TO.N,Net-(J18-Pad3)*%
X78740000Y-107950000D02*
X78740000Y-109220000D01*
X83820000Y-102870000D02*
X78740000Y-107950000D01*
%TO.N,/ALU_H0*%
X81280000Y-107950000D02*
X81280000Y-109220000D01*
X86360000Y-102870000D02*
X81280000Y-107950000D01*
D21*
%TO.N,Net-(J16-Pad1)*%
X112347500Y-19367500D02*
X111760000Y-19367500D01*
X110807500Y-20320000D02*
X109220000Y-20320000D01*
X111760000Y-19367500D02*
X110807500Y-20320000D01*
%TD*%
M02*
