G04 #@! TF.GenerationSoftware,KiCad,Pcbnew,(5.1.8)-1*
G04 #@! TF.CreationDate,2022-10-10T00:41:52+03:00*
G04 #@! TF.ProjectId,AND,414e442e-6b69-4636-9164-5f7063625858,rev?*
G04 #@! TF.SameCoordinates,Original*
G04 #@! TF.FileFunction,Soldermask,Top*
G04 #@! TF.FilePolarity,Negative*
%FSLAX46Y46*%
G04 Gerber Fmt 4.6, Leading zero omitted, Abs format (unit mm)*
G04 Created by KiCad (PCBNEW (5.1.8)-1) date 2022-10-10 00:41:52*
%MOMM*%
%LPD*%
G01*
G04 APERTURE LIST*
%ADD10O,2.200000X2.300000*%
%ADD11R,2.200000X2.300000*%
G04 APERTURE END LIST*
D10*
X132080000Y-64135000D03*
X134620000Y-64135000D03*
X137160000Y-64135000D03*
D11*
X139700000Y-64135000D03*
D10*
X109220000Y-64135000D03*
X111760000Y-64135000D03*
X114300000Y-64135000D03*
X116840000Y-64135000D03*
X119380000Y-64135000D03*
X121920000Y-64135000D03*
X124460000Y-64135000D03*
D11*
X127000000Y-64135000D03*
D10*
X86360000Y-64135000D03*
X88900000Y-64135000D03*
X91440000Y-64135000D03*
X93980000Y-64135000D03*
X96520000Y-64135000D03*
X99060000Y-64135000D03*
X101600000Y-64135000D03*
D11*
X104140000Y-64135000D03*
D10*
X63500000Y-64135000D03*
X66040000Y-64135000D03*
X68580000Y-64135000D03*
X71120000Y-64135000D03*
X73660000Y-64135000D03*
X76200000Y-64135000D03*
X78740000Y-64135000D03*
D11*
X81280000Y-64135000D03*
G36*
G01*
X123675000Y-45250000D02*
X123975000Y-45250000D01*
G75*
G02*
X124125000Y-45400000I0J-150000D01*
G01*
X124125000Y-47000000D01*
G75*
G02*
X123975000Y-47150000I-150000J0D01*
G01*
X123675000Y-47150000D01*
G75*
G02*
X123525000Y-47000000I0J150000D01*
G01*
X123525000Y-45400000D01*
G75*
G02*
X123675000Y-45250000I150000J0D01*
G01*
G37*
G36*
G01*
X122405000Y-45250000D02*
X122705000Y-45250000D01*
G75*
G02*
X122855000Y-45400000I0J-150000D01*
G01*
X122855000Y-47000000D01*
G75*
G02*
X122705000Y-47150000I-150000J0D01*
G01*
X122405000Y-47150000D01*
G75*
G02*
X122255000Y-47000000I0J150000D01*
G01*
X122255000Y-45400000D01*
G75*
G02*
X122405000Y-45250000I150000J0D01*
G01*
G37*
G36*
G01*
X121135000Y-45250000D02*
X121435000Y-45250000D01*
G75*
G02*
X121585000Y-45400000I0J-150000D01*
G01*
X121585000Y-47000000D01*
G75*
G02*
X121435000Y-47150000I-150000J0D01*
G01*
X121135000Y-47150000D01*
G75*
G02*
X120985000Y-47000000I0J150000D01*
G01*
X120985000Y-45400000D01*
G75*
G02*
X121135000Y-45250000I150000J0D01*
G01*
G37*
G36*
G01*
X119865000Y-45250000D02*
X120165000Y-45250000D01*
G75*
G02*
X120315000Y-45400000I0J-150000D01*
G01*
X120315000Y-47000000D01*
G75*
G02*
X120165000Y-47150000I-150000J0D01*
G01*
X119865000Y-47150000D01*
G75*
G02*
X119715000Y-47000000I0J150000D01*
G01*
X119715000Y-45400000D01*
G75*
G02*
X119865000Y-45250000I150000J0D01*
G01*
G37*
G36*
G01*
X118595000Y-45250000D02*
X118895000Y-45250000D01*
G75*
G02*
X119045000Y-45400000I0J-150000D01*
G01*
X119045000Y-47000000D01*
G75*
G02*
X118895000Y-47150000I-150000J0D01*
G01*
X118595000Y-47150000D01*
G75*
G02*
X118445000Y-47000000I0J150000D01*
G01*
X118445000Y-45400000D01*
G75*
G02*
X118595000Y-45250000I150000J0D01*
G01*
G37*
G36*
G01*
X117325000Y-45250000D02*
X117625000Y-45250000D01*
G75*
G02*
X117775000Y-45400000I0J-150000D01*
G01*
X117775000Y-47000000D01*
G75*
G02*
X117625000Y-47150000I-150000J0D01*
G01*
X117325000Y-47150000D01*
G75*
G02*
X117175000Y-47000000I0J150000D01*
G01*
X117175000Y-45400000D01*
G75*
G02*
X117325000Y-45250000I150000J0D01*
G01*
G37*
G36*
G01*
X116055000Y-45250000D02*
X116355000Y-45250000D01*
G75*
G02*
X116505000Y-45400000I0J-150000D01*
G01*
X116505000Y-47000000D01*
G75*
G02*
X116355000Y-47150000I-150000J0D01*
G01*
X116055000Y-47150000D01*
G75*
G02*
X115905000Y-47000000I0J150000D01*
G01*
X115905000Y-45400000D01*
G75*
G02*
X116055000Y-45250000I150000J0D01*
G01*
G37*
G36*
G01*
X114785000Y-45250000D02*
X115085000Y-45250000D01*
G75*
G02*
X115235000Y-45400000I0J-150000D01*
G01*
X115235000Y-47000000D01*
G75*
G02*
X115085000Y-47150000I-150000J0D01*
G01*
X114785000Y-47150000D01*
G75*
G02*
X114635000Y-47000000I0J150000D01*
G01*
X114635000Y-45400000D01*
G75*
G02*
X114785000Y-45250000I150000J0D01*
G01*
G37*
G36*
G01*
X113515000Y-45250000D02*
X113815000Y-45250000D01*
G75*
G02*
X113965000Y-45400000I0J-150000D01*
G01*
X113965000Y-47000000D01*
G75*
G02*
X113815000Y-47150000I-150000J0D01*
G01*
X113515000Y-47150000D01*
G75*
G02*
X113365000Y-47000000I0J150000D01*
G01*
X113365000Y-45400000D01*
G75*
G02*
X113515000Y-45250000I150000J0D01*
G01*
G37*
G36*
G01*
X112245000Y-45250000D02*
X112545000Y-45250000D01*
G75*
G02*
X112695000Y-45400000I0J-150000D01*
G01*
X112695000Y-47000000D01*
G75*
G02*
X112545000Y-47150000I-150000J0D01*
G01*
X112245000Y-47150000D01*
G75*
G02*
X112095000Y-47000000I0J150000D01*
G01*
X112095000Y-45400000D01*
G75*
G02*
X112245000Y-45250000I150000J0D01*
G01*
G37*
G36*
G01*
X112245000Y-54450000D02*
X112545000Y-54450000D01*
G75*
G02*
X112695000Y-54600000I0J-150000D01*
G01*
X112695000Y-56200000D01*
G75*
G02*
X112545000Y-56350000I-150000J0D01*
G01*
X112245000Y-56350000D01*
G75*
G02*
X112095000Y-56200000I0J150000D01*
G01*
X112095000Y-54600000D01*
G75*
G02*
X112245000Y-54450000I150000J0D01*
G01*
G37*
G36*
G01*
X113515000Y-54450000D02*
X113815000Y-54450000D01*
G75*
G02*
X113965000Y-54600000I0J-150000D01*
G01*
X113965000Y-56200000D01*
G75*
G02*
X113815000Y-56350000I-150000J0D01*
G01*
X113515000Y-56350000D01*
G75*
G02*
X113365000Y-56200000I0J150000D01*
G01*
X113365000Y-54600000D01*
G75*
G02*
X113515000Y-54450000I150000J0D01*
G01*
G37*
G36*
G01*
X114785000Y-54450000D02*
X115085000Y-54450000D01*
G75*
G02*
X115235000Y-54600000I0J-150000D01*
G01*
X115235000Y-56200000D01*
G75*
G02*
X115085000Y-56350000I-150000J0D01*
G01*
X114785000Y-56350000D01*
G75*
G02*
X114635000Y-56200000I0J150000D01*
G01*
X114635000Y-54600000D01*
G75*
G02*
X114785000Y-54450000I150000J0D01*
G01*
G37*
G36*
G01*
X116055000Y-54450000D02*
X116355000Y-54450000D01*
G75*
G02*
X116505000Y-54600000I0J-150000D01*
G01*
X116505000Y-56200000D01*
G75*
G02*
X116355000Y-56350000I-150000J0D01*
G01*
X116055000Y-56350000D01*
G75*
G02*
X115905000Y-56200000I0J150000D01*
G01*
X115905000Y-54600000D01*
G75*
G02*
X116055000Y-54450000I150000J0D01*
G01*
G37*
G36*
G01*
X117325000Y-54450000D02*
X117625000Y-54450000D01*
G75*
G02*
X117775000Y-54600000I0J-150000D01*
G01*
X117775000Y-56200000D01*
G75*
G02*
X117625000Y-56350000I-150000J0D01*
G01*
X117325000Y-56350000D01*
G75*
G02*
X117175000Y-56200000I0J150000D01*
G01*
X117175000Y-54600000D01*
G75*
G02*
X117325000Y-54450000I150000J0D01*
G01*
G37*
G36*
G01*
X118595000Y-54450000D02*
X118895000Y-54450000D01*
G75*
G02*
X119045000Y-54600000I0J-150000D01*
G01*
X119045000Y-56200000D01*
G75*
G02*
X118895000Y-56350000I-150000J0D01*
G01*
X118595000Y-56350000D01*
G75*
G02*
X118445000Y-56200000I0J150000D01*
G01*
X118445000Y-54600000D01*
G75*
G02*
X118595000Y-54450000I150000J0D01*
G01*
G37*
G36*
G01*
X119865000Y-54450000D02*
X120165000Y-54450000D01*
G75*
G02*
X120315000Y-54600000I0J-150000D01*
G01*
X120315000Y-56200000D01*
G75*
G02*
X120165000Y-56350000I-150000J0D01*
G01*
X119865000Y-56350000D01*
G75*
G02*
X119715000Y-56200000I0J150000D01*
G01*
X119715000Y-54600000D01*
G75*
G02*
X119865000Y-54450000I150000J0D01*
G01*
G37*
G36*
G01*
X121135000Y-54450000D02*
X121435000Y-54450000D01*
G75*
G02*
X121585000Y-54600000I0J-150000D01*
G01*
X121585000Y-56200000D01*
G75*
G02*
X121435000Y-56350000I-150000J0D01*
G01*
X121135000Y-56350000D01*
G75*
G02*
X120985000Y-56200000I0J150000D01*
G01*
X120985000Y-54600000D01*
G75*
G02*
X121135000Y-54450000I150000J0D01*
G01*
G37*
G36*
G01*
X122405000Y-54450000D02*
X122705000Y-54450000D01*
G75*
G02*
X122855000Y-54600000I0J-150000D01*
G01*
X122855000Y-56200000D01*
G75*
G02*
X122705000Y-56350000I-150000J0D01*
G01*
X122405000Y-56350000D01*
G75*
G02*
X122255000Y-56200000I0J150000D01*
G01*
X122255000Y-54600000D01*
G75*
G02*
X122405000Y-54450000I150000J0D01*
G01*
G37*
G36*
G01*
X123675000Y-54450000D02*
X123975000Y-54450000D01*
G75*
G02*
X124125000Y-54600000I0J-150000D01*
G01*
X124125000Y-56200000D01*
G75*
G02*
X123975000Y-56350000I-150000J0D01*
G01*
X123675000Y-56350000D01*
G75*
G02*
X123525000Y-56200000I0J150000D01*
G01*
X123525000Y-54600000D01*
G75*
G02*
X123675000Y-54450000I150000J0D01*
G01*
G37*
G36*
G01*
X70210000Y-45870000D02*
X70210000Y-45570000D01*
G75*
G02*
X70360000Y-45420000I150000J0D01*
G01*
X72010000Y-45420000D01*
G75*
G02*
X72160000Y-45570000I0J-150000D01*
G01*
X72160000Y-45870000D01*
G75*
G02*
X72010000Y-46020000I-150000J0D01*
G01*
X70360000Y-46020000D01*
G75*
G02*
X70210000Y-45870000I0J150000D01*
G01*
G37*
G36*
G01*
X70210000Y-47140000D02*
X70210000Y-46840000D01*
G75*
G02*
X70360000Y-46690000I150000J0D01*
G01*
X72010000Y-46690000D01*
G75*
G02*
X72160000Y-46840000I0J-150000D01*
G01*
X72160000Y-47140000D01*
G75*
G02*
X72010000Y-47290000I-150000J0D01*
G01*
X70360000Y-47290000D01*
G75*
G02*
X70210000Y-47140000I0J150000D01*
G01*
G37*
G36*
G01*
X70210000Y-48410000D02*
X70210000Y-48110000D01*
G75*
G02*
X70360000Y-47960000I150000J0D01*
G01*
X72010000Y-47960000D01*
G75*
G02*
X72160000Y-48110000I0J-150000D01*
G01*
X72160000Y-48410000D01*
G75*
G02*
X72010000Y-48560000I-150000J0D01*
G01*
X70360000Y-48560000D01*
G75*
G02*
X70210000Y-48410000I0J150000D01*
G01*
G37*
G36*
G01*
X70210000Y-49680000D02*
X70210000Y-49380000D01*
G75*
G02*
X70360000Y-49230000I150000J0D01*
G01*
X72010000Y-49230000D01*
G75*
G02*
X72160000Y-49380000I0J-150000D01*
G01*
X72160000Y-49680000D01*
G75*
G02*
X72010000Y-49830000I-150000J0D01*
G01*
X70360000Y-49830000D01*
G75*
G02*
X70210000Y-49680000I0J150000D01*
G01*
G37*
G36*
G01*
X70210000Y-50950000D02*
X70210000Y-50650000D01*
G75*
G02*
X70360000Y-50500000I150000J0D01*
G01*
X72010000Y-50500000D01*
G75*
G02*
X72160000Y-50650000I0J-150000D01*
G01*
X72160000Y-50950000D01*
G75*
G02*
X72010000Y-51100000I-150000J0D01*
G01*
X70360000Y-51100000D01*
G75*
G02*
X70210000Y-50950000I0J150000D01*
G01*
G37*
G36*
G01*
X70210000Y-52220000D02*
X70210000Y-51920000D01*
G75*
G02*
X70360000Y-51770000I150000J0D01*
G01*
X72010000Y-51770000D01*
G75*
G02*
X72160000Y-51920000I0J-150000D01*
G01*
X72160000Y-52220000D01*
G75*
G02*
X72010000Y-52370000I-150000J0D01*
G01*
X70360000Y-52370000D01*
G75*
G02*
X70210000Y-52220000I0J150000D01*
G01*
G37*
G36*
G01*
X70210000Y-53490000D02*
X70210000Y-53190000D01*
G75*
G02*
X70360000Y-53040000I150000J0D01*
G01*
X72010000Y-53040000D01*
G75*
G02*
X72160000Y-53190000I0J-150000D01*
G01*
X72160000Y-53490000D01*
G75*
G02*
X72010000Y-53640000I-150000J0D01*
G01*
X70360000Y-53640000D01*
G75*
G02*
X70210000Y-53490000I0J150000D01*
G01*
G37*
G36*
G01*
X75160000Y-53490000D02*
X75160000Y-53190000D01*
G75*
G02*
X75310000Y-53040000I150000J0D01*
G01*
X76960000Y-53040000D01*
G75*
G02*
X77110000Y-53190000I0J-150000D01*
G01*
X77110000Y-53490000D01*
G75*
G02*
X76960000Y-53640000I-150000J0D01*
G01*
X75310000Y-53640000D01*
G75*
G02*
X75160000Y-53490000I0J150000D01*
G01*
G37*
G36*
G01*
X75160000Y-52220000D02*
X75160000Y-51920000D01*
G75*
G02*
X75310000Y-51770000I150000J0D01*
G01*
X76960000Y-51770000D01*
G75*
G02*
X77110000Y-51920000I0J-150000D01*
G01*
X77110000Y-52220000D01*
G75*
G02*
X76960000Y-52370000I-150000J0D01*
G01*
X75310000Y-52370000D01*
G75*
G02*
X75160000Y-52220000I0J150000D01*
G01*
G37*
G36*
G01*
X75160000Y-50950000D02*
X75160000Y-50650000D01*
G75*
G02*
X75310000Y-50500000I150000J0D01*
G01*
X76960000Y-50500000D01*
G75*
G02*
X77110000Y-50650000I0J-150000D01*
G01*
X77110000Y-50950000D01*
G75*
G02*
X76960000Y-51100000I-150000J0D01*
G01*
X75310000Y-51100000D01*
G75*
G02*
X75160000Y-50950000I0J150000D01*
G01*
G37*
G36*
G01*
X75160000Y-49680000D02*
X75160000Y-49380000D01*
G75*
G02*
X75310000Y-49230000I150000J0D01*
G01*
X76960000Y-49230000D01*
G75*
G02*
X77110000Y-49380000I0J-150000D01*
G01*
X77110000Y-49680000D01*
G75*
G02*
X76960000Y-49830000I-150000J0D01*
G01*
X75310000Y-49830000D01*
G75*
G02*
X75160000Y-49680000I0J150000D01*
G01*
G37*
G36*
G01*
X75160000Y-48410000D02*
X75160000Y-48110000D01*
G75*
G02*
X75310000Y-47960000I150000J0D01*
G01*
X76960000Y-47960000D01*
G75*
G02*
X77110000Y-48110000I0J-150000D01*
G01*
X77110000Y-48410000D01*
G75*
G02*
X76960000Y-48560000I-150000J0D01*
G01*
X75310000Y-48560000D01*
G75*
G02*
X75160000Y-48410000I0J150000D01*
G01*
G37*
G36*
G01*
X75160000Y-47140000D02*
X75160000Y-46840000D01*
G75*
G02*
X75310000Y-46690000I150000J0D01*
G01*
X76960000Y-46690000D01*
G75*
G02*
X77110000Y-46840000I0J-150000D01*
G01*
X77110000Y-47140000D01*
G75*
G02*
X76960000Y-47290000I-150000J0D01*
G01*
X75310000Y-47290000D01*
G75*
G02*
X75160000Y-47140000I0J150000D01*
G01*
G37*
G36*
G01*
X75160000Y-45870000D02*
X75160000Y-45570000D01*
G75*
G02*
X75310000Y-45420000I150000J0D01*
G01*
X76960000Y-45420000D01*
G75*
G02*
X77110000Y-45570000I0J-150000D01*
G01*
X77110000Y-45870000D01*
G75*
G02*
X76960000Y-46020000I-150000J0D01*
G01*
X75310000Y-46020000D01*
G75*
G02*
X75160000Y-45870000I0J150000D01*
G01*
G37*
G36*
G01*
X96750000Y-45870000D02*
X96750000Y-45570000D01*
G75*
G02*
X96900000Y-45420000I150000J0D01*
G01*
X98550000Y-45420000D01*
G75*
G02*
X98700000Y-45570000I0J-150000D01*
G01*
X98700000Y-45870000D01*
G75*
G02*
X98550000Y-46020000I-150000J0D01*
G01*
X96900000Y-46020000D01*
G75*
G02*
X96750000Y-45870000I0J150000D01*
G01*
G37*
G36*
G01*
X96750000Y-47140000D02*
X96750000Y-46840000D01*
G75*
G02*
X96900000Y-46690000I150000J0D01*
G01*
X98550000Y-46690000D01*
G75*
G02*
X98700000Y-46840000I0J-150000D01*
G01*
X98700000Y-47140000D01*
G75*
G02*
X98550000Y-47290000I-150000J0D01*
G01*
X96900000Y-47290000D01*
G75*
G02*
X96750000Y-47140000I0J150000D01*
G01*
G37*
G36*
G01*
X96750000Y-48410000D02*
X96750000Y-48110000D01*
G75*
G02*
X96900000Y-47960000I150000J0D01*
G01*
X98550000Y-47960000D01*
G75*
G02*
X98700000Y-48110000I0J-150000D01*
G01*
X98700000Y-48410000D01*
G75*
G02*
X98550000Y-48560000I-150000J0D01*
G01*
X96900000Y-48560000D01*
G75*
G02*
X96750000Y-48410000I0J150000D01*
G01*
G37*
G36*
G01*
X96750000Y-49680000D02*
X96750000Y-49380000D01*
G75*
G02*
X96900000Y-49230000I150000J0D01*
G01*
X98550000Y-49230000D01*
G75*
G02*
X98700000Y-49380000I0J-150000D01*
G01*
X98700000Y-49680000D01*
G75*
G02*
X98550000Y-49830000I-150000J0D01*
G01*
X96900000Y-49830000D01*
G75*
G02*
X96750000Y-49680000I0J150000D01*
G01*
G37*
G36*
G01*
X96750000Y-50950000D02*
X96750000Y-50650000D01*
G75*
G02*
X96900000Y-50500000I150000J0D01*
G01*
X98550000Y-50500000D01*
G75*
G02*
X98700000Y-50650000I0J-150000D01*
G01*
X98700000Y-50950000D01*
G75*
G02*
X98550000Y-51100000I-150000J0D01*
G01*
X96900000Y-51100000D01*
G75*
G02*
X96750000Y-50950000I0J150000D01*
G01*
G37*
G36*
G01*
X96750000Y-52220000D02*
X96750000Y-51920000D01*
G75*
G02*
X96900000Y-51770000I150000J0D01*
G01*
X98550000Y-51770000D01*
G75*
G02*
X98700000Y-51920000I0J-150000D01*
G01*
X98700000Y-52220000D01*
G75*
G02*
X98550000Y-52370000I-150000J0D01*
G01*
X96900000Y-52370000D01*
G75*
G02*
X96750000Y-52220000I0J150000D01*
G01*
G37*
G36*
G01*
X96750000Y-53490000D02*
X96750000Y-53190000D01*
G75*
G02*
X96900000Y-53040000I150000J0D01*
G01*
X98550000Y-53040000D01*
G75*
G02*
X98700000Y-53190000I0J-150000D01*
G01*
X98700000Y-53490000D01*
G75*
G02*
X98550000Y-53640000I-150000J0D01*
G01*
X96900000Y-53640000D01*
G75*
G02*
X96750000Y-53490000I0J150000D01*
G01*
G37*
G36*
G01*
X91800000Y-53490000D02*
X91800000Y-53190000D01*
G75*
G02*
X91950000Y-53040000I150000J0D01*
G01*
X93600000Y-53040000D01*
G75*
G02*
X93750000Y-53190000I0J-150000D01*
G01*
X93750000Y-53490000D01*
G75*
G02*
X93600000Y-53640000I-150000J0D01*
G01*
X91950000Y-53640000D01*
G75*
G02*
X91800000Y-53490000I0J150000D01*
G01*
G37*
G36*
G01*
X91800000Y-52220000D02*
X91800000Y-51920000D01*
G75*
G02*
X91950000Y-51770000I150000J0D01*
G01*
X93600000Y-51770000D01*
G75*
G02*
X93750000Y-51920000I0J-150000D01*
G01*
X93750000Y-52220000D01*
G75*
G02*
X93600000Y-52370000I-150000J0D01*
G01*
X91950000Y-52370000D01*
G75*
G02*
X91800000Y-52220000I0J150000D01*
G01*
G37*
G36*
G01*
X91800000Y-50950000D02*
X91800000Y-50650000D01*
G75*
G02*
X91950000Y-50500000I150000J0D01*
G01*
X93600000Y-50500000D01*
G75*
G02*
X93750000Y-50650000I0J-150000D01*
G01*
X93750000Y-50950000D01*
G75*
G02*
X93600000Y-51100000I-150000J0D01*
G01*
X91950000Y-51100000D01*
G75*
G02*
X91800000Y-50950000I0J150000D01*
G01*
G37*
G36*
G01*
X91800000Y-49680000D02*
X91800000Y-49380000D01*
G75*
G02*
X91950000Y-49230000I150000J0D01*
G01*
X93600000Y-49230000D01*
G75*
G02*
X93750000Y-49380000I0J-150000D01*
G01*
X93750000Y-49680000D01*
G75*
G02*
X93600000Y-49830000I-150000J0D01*
G01*
X91950000Y-49830000D01*
G75*
G02*
X91800000Y-49680000I0J150000D01*
G01*
G37*
G36*
G01*
X91800000Y-48410000D02*
X91800000Y-48110000D01*
G75*
G02*
X91950000Y-47960000I150000J0D01*
G01*
X93600000Y-47960000D01*
G75*
G02*
X93750000Y-48110000I0J-150000D01*
G01*
X93750000Y-48410000D01*
G75*
G02*
X93600000Y-48560000I-150000J0D01*
G01*
X91950000Y-48560000D01*
G75*
G02*
X91800000Y-48410000I0J150000D01*
G01*
G37*
G36*
G01*
X91800000Y-47140000D02*
X91800000Y-46840000D01*
G75*
G02*
X91950000Y-46690000I150000J0D01*
G01*
X93600000Y-46690000D01*
G75*
G02*
X93750000Y-46840000I0J-150000D01*
G01*
X93750000Y-47140000D01*
G75*
G02*
X93600000Y-47290000I-150000J0D01*
G01*
X91950000Y-47290000D01*
G75*
G02*
X91800000Y-47140000I0J150000D01*
G01*
G37*
G36*
G01*
X91800000Y-45870000D02*
X91800000Y-45570000D01*
G75*
G02*
X91950000Y-45420000I150000J0D01*
G01*
X93600000Y-45420000D01*
G75*
G02*
X93750000Y-45570000I0J-150000D01*
G01*
X93750000Y-45870000D01*
G75*
G02*
X93600000Y-46020000I-150000J0D01*
G01*
X91950000Y-46020000D01*
G75*
G02*
X91800000Y-45870000I0J150000D01*
G01*
G37*
G36*
G01*
X134180000Y-58895000D02*
X134180000Y-57945000D01*
G75*
G02*
X134430000Y-57695000I250000J0D01*
G01*
X135105000Y-57695000D01*
G75*
G02*
X135355000Y-57945000I0J-250000D01*
G01*
X135355000Y-58895000D01*
G75*
G02*
X135105000Y-59145000I-250000J0D01*
G01*
X134430000Y-59145000D01*
G75*
G02*
X134180000Y-58895000I0J250000D01*
G01*
G37*
G36*
G01*
X136255000Y-58895000D02*
X136255000Y-57945000D01*
G75*
G02*
X136505000Y-57695000I250000J0D01*
G01*
X137180000Y-57695000D01*
G75*
G02*
X137430000Y-57945000I0J-250000D01*
G01*
X137430000Y-58895000D01*
G75*
G02*
X137180000Y-59145000I-250000J0D01*
G01*
X136505000Y-59145000D01*
G75*
G02*
X136255000Y-58895000I0J250000D01*
G01*
G37*
G36*
G01*
X131115000Y-53155001D02*
X131115000Y-52254999D01*
G75*
G02*
X131364999Y-52005000I249999J0D01*
G01*
X132015001Y-52005000D01*
G75*
G02*
X132265000Y-52254999I0J-249999D01*
G01*
X132265000Y-53155001D01*
G75*
G02*
X132015001Y-53405000I-249999J0D01*
G01*
X131364999Y-53405000D01*
G75*
G02*
X131115000Y-53155001I0J249999D01*
G01*
G37*
G36*
G01*
X133165000Y-53155001D02*
X133165000Y-52254999D01*
G75*
G02*
X133414999Y-52005000I249999J0D01*
G01*
X134065001Y-52005000D01*
G75*
G02*
X134315000Y-52254999I0J-249999D01*
G01*
X134315000Y-53155001D01*
G75*
G02*
X134065001Y-53405000I-249999J0D01*
G01*
X133414999Y-53405000D01*
G75*
G02*
X133165000Y-53155001I0J249999D01*
G01*
G37*
G36*
G01*
X135560000Y-53155001D02*
X135560000Y-52254999D01*
G75*
G02*
X135809999Y-52005000I249999J0D01*
G01*
X136510001Y-52005000D01*
G75*
G02*
X136760000Y-52254999I0J-249999D01*
G01*
X136760000Y-53155001D01*
G75*
G02*
X136510001Y-53405000I-249999J0D01*
G01*
X135809999Y-53405000D01*
G75*
G02*
X135560000Y-53155001I0J249999D01*
G01*
G37*
G36*
G01*
X137560000Y-53155001D02*
X137560000Y-52254999D01*
G75*
G02*
X137809999Y-52005000I249999J0D01*
G01*
X138510001Y-52005000D01*
G75*
G02*
X138760000Y-52254999I0J-249999D01*
G01*
X138760000Y-53155001D01*
G75*
G02*
X138510001Y-53405000I-249999J0D01*
G01*
X137809999Y-53405000D01*
G75*
G02*
X137560000Y-53155001I0J249999D01*
G01*
G37*
M02*
