M48
INCH,TZ
T1C0.0197
T2C0.0394
%
G90
G05
T1
X26750Y-21125
X26875Y-20125
X28026Y-22375
X29158Y-17092
X31000Y-18625
X31625Y-16250
X31891Y-20026
X32000Y-19000
X32054Y-22976
X32927Y-19323
X35000Y-20250
X35625Y-18750
X35625Y-21125
X37625Y-17375
X39677Y-19250
X39875Y-21000
X45750Y-16625
X46750Y-16875
X47750Y-17125
X49500Y-19625
X50000Y-18875
T2
X34000Y-25250
X35000Y-25250
X36000Y-25250
X37000Y-25250
X38000Y-25250
X39000Y-25250
X40000Y-25250
X41000Y-25250
X52000Y-25250
X53000Y-25250
X54000Y-25250
X55000Y-25250
X25000Y-25250
X26000Y-25250
X27000Y-25250
X28000Y-25250
X29000Y-25250
X30000Y-25250
X31000Y-25250
X32000Y-25250
X43000Y-25250
X44000Y-25250
X45000Y-25250
X46000Y-25250
X47000Y-25250
X48000Y-25250
X49000Y-25250
X50000Y-25250
T0
M30
