M48
INCH,TZ
T1C0.0394
%
G90
G05
T1
X13000Y-17000
X13000Y-18000
X13000Y-19000
X13000Y-20000
X13000Y-21000
X13000Y-22000
X13000Y-23000
X13000Y-24000
X13000Y-25000
X13000Y-26000
X13000Y-27000
X13000Y-28000
X13000Y-29000
X13000Y-30000
X13000Y-31000
X13000Y-32000
X13000Y-33000
X13000Y-34000
X13000Y-35000
X13000Y-36000
X13000Y-37000
X13000Y-38000
X13000Y-39000
X13000Y-40000
X13000Y-41000
X13000Y-42000
X13000Y-43000
X13000Y-44000
X13000Y-45000
X13000Y-46000
X13000Y-47000
X13000Y-48000
X13000Y-49000
X13000Y-50000
X13000Y-51000
X13000Y-52000
X14000Y-17000
X14000Y-18000
X14000Y-19000
X14000Y-20000
X14000Y-21000
X14000Y-22000
X14000Y-23000
X14000Y-24000
X14000Y-25000
X14000Y-26000
X14000Y-27000
X14000Y-28000
X14000Y-29000
X14000Y-30000
X14000Y-31000
X14000Y-32000
X14000Y-33000
X14000Y-34000
X14000Y-35000
X14000Y-36000
X14000Y-37000
X14000Y-38000
X14000Y-39000
X14000Y-40000
X14000Y-41000
X14000Y-42000
X14000Y-43000
X14000Y-44000
X14000Y-45000
X14000Y-46000
X14000Y-47000
X14000Y-48000
X14000Y-49000
X14000Y-50000
X14000Y-51000
X14000Y-52000
X15000Y-17000
X15000Y-18000
X15000Y-19000
X15000Y-20000
X15000Y-21000
X15000Y-22000
X15000Y-23000
X15000Y-24000
X15000Y-25000
X15000Y-26000
X15000Y-27000
X15000Y-28000
X15000Y-29000
X15000Y-30000
X15000Y-31000
X15000Y-32000
X15000Y-33000
X15000Y-34000
X15000Y-35000
X15000Y-36000
X15000Y-37000
X15000Y-38000
X15000Y-39000
X15000Y-40000
X15000Y-41000
X15000Y-42000
X15000Y-43000
X15000Y-44000
X15000Y-45000
X15000Y-46000
X15000Y-47000
X15000Y-48000
X15000Y-49000
X15000Y-50000
X15000Y-51000
X15000Y-52000
X16000Y-17000
X16000Y-18000
X16000Y-19000
X16000Y-20000
X16000Y-21000
X16000Y-22000
X16000Y-23000
X16000Y-24000
X16000Y-25000
X16000Y-26000
X16000Y-27000
X16000Y-28000
X16000Y-29000
X16000Y-30000
X16000Y-31000
X16000Y-32000
X16000Y-33000
X16000Y-34000
X16000Y-35000
X16000Y-36000
X16000Y-37000
X16000Y-38000
X16000Y-39000
X16000Y-40000
X16000Y-41000
X16000Y-42000
X16000Y-43000
X16000Y-44000
X16000Y-45000
X16000Y-46000
X16000Y-47000
X16000Y-48000
X16000Y-49000
X16000Y-50000
X16000Y-51000
X16000Y-52000
X17000Y-17000
X17000Y-18000
X17000Y-19000
X17000Y-20000
X17000Y-21000
X17000Y-22000
X17000Y-23000
X17000Y-24000
X17000Y-25000
X17000Y-26000
X17000Y-27000
X17000Y-28000
X17000Y-29000
X17000Y-30000
X17000Y-31000
X17000Y-32000
X17000Y-33000
X17000Y-34000
X17000Y-35000
X17000Y-36000
X17000Y-37000
X17000Y-38000
X17000Y-39000
X17000Y-40000
X17000Y-41000
X17000Y-42000
X17000Y-43000
X17000Y-44000
X17000Y-45000
X17000Y-46000
X17000Y-47000
X17000Y-48000
X17000Y-49000
X17000Y-50000
X17000Y-51000
X17000Y-52000
X18000Y-17000
X18000Y-18000
X18000Y-19000
X18000Y-20000
X18000Y-21000
X18000Y-22000
X18000Y-23000
X18000Y-24000
X18000Y-25000
X18000Y-26000
X18000Y-27000
X18000Y-28000
X18000Y-29000
X18000Y-30000
X18000Y-31000
X18000Y-32000
X18000Y-33000
X18000Y-34000
X18000Y-35000
X18000Y-36000
X18000Y-37000
X18000Y-38000
X18000Y-39000
X18000Y-40000
X18000Y-41000
X18000Y-42000
X18000Y-43000
X18000Y-44000
X18000Y-45000
X18000Y-46000
X18000Y-47000
X18000Y-48000
X18000Y-49000
X18000Y-50000
X18000Y-51000
X18000Y-52000
X19000Y-17000
X19000Y-18000
X19000Y-19000
X19000Y-20000
X19000Y-21000
X19000Y-22000
X19000Y-23000
X19000Y-24000
X19000Y-25000
X19000Y-26000
X19000Y-27000
X19000Y-28000
X19000Y-29000
X19000Y-30000
X19000Y-31000
X19000Y-32000
X19000Y-33000
X19000Y-34000
X19000Y-35000
X19000Y-36000
X19000Y-37000
X19000Y-38000
X19000Y-39000
X19000Y-40000
X19000Y-41000
X19000Y-42000
X19000Y-43000
X19000Y-44000
X19000Y-45000
X19000Y-46000
X19000Y-47000
X19000Y-48000
X19000Y-49000
X19000Y-50000
X19000Y-51000
X19000Y-52000
X20000Y-17000
X20000Y-18000
X20000Y-19000
X20000Y-20000
X20000Y-21000
X20000Y-22000
X20000Y-23000
X20000Y-24000
X20000Y-25000
X20000Y-26000
X20000Y-27000
X20000Y-28000
X20000Y-29000
X20000Y-30000
X20000Y-31000
X20000Y-32000
X20000Y-33000
X20000Y-34000
X20000Y-35000
X20000Y-36000
X20000Y-37000
X20000Y-38000
X20000Y-39000
X20000Y-40000
X20000Y-41000
X20000Y-42000
X20000Y-43000
X20000Y-44000
X20000Y-45000
X20000Y-46000
X20000Y-47000
X20000Y-48000
X20000Y-49000
X20000Y-50000
X20000Y-51000
X20000Y-52000
X21000Y-17000
X21000Y-18000
X21000Y-19000
X21000Y-20000
X21000Y-21000
X21000Y-22000
X21000Y-23000
X21000Y-24000
X21000Y-25000
X21000Y-26000
X21000Y-27000
X21000Y-28000
X21000Y-29000
X21000Y-30000
X21000Y-31000
X21000Y-32000
X21000Y-33000
X21000Y-34000
X21000Y-35000
X21000Y-36000
X21000Y-37000
X21000Y-38000
X21000Y-39000
X21000Y-40000
X21000Y-41000
X21000Y-42000
X21000Y-43000
X21000Y-44000
X21000Y-45000
X21000Y-46000
X21000Y-47000
X21000Y-48000
X21000Y-49000
X21000Y-50000
X21000Y-51000
X21000Y-52000
X22000Y-17000
X22000Y-18000
X22000Y-19000
X22000Y-20000
X22000Y-21000
X22000Y-22000
X22000Y-23000
X22000Y-24000
X22000Y-25000
X22000Y-26000
X22000Y-27000
X22000Y-28000
X22000Y-29000
X22000Y-30000
X22000Y-31000
X22000Y-32000
X22000Y-33000
X22000Y-34000
X22000Y-35000
X22000Y-36000
X22000Y-37000
X22000Y-38000
X22000Y-39000
X22000Y-40000
X22000Y-41000
X22000Y-42000
X22000Y-43000
X22000Y-44000
X22000Y-45000
X22000Y-46000
X22000Y-47000
X22000Y-48000
X22000Y-49000
X22000Y-50000
X22000Y-51000
X22000Y-52000
X23000Y-17000
X23000Y-18000
X23000Y-19000
X23000Y-20000
X23000Y-21000
X23000Y-22000
X23000Y-23000
X23000Y-24000
X23000Y-25000
X23000Y-26000
X23000Y-27000
X23000Y-28000
X23000Y-29000
X23000Y-30000
X23000Y-31000
X23000Y-32000
X23000Y-33000
X23000Y-34000
X23000Y-35000
X23000Y-36000
X23000Y-37000
X23000Y-38000
X23000Y-39000
X23000Y-40000
X23000Y-41000
X23000Y-42000
X23000Y-43000
X23000Y-44000
X23000Y-45000
X23000Y-46000
X23000Y-47000
X23000Y-48000
X23000Y-49000
X23000Y-50000
X23000Y-51000
X23000Y-52000
X24000Y-17000
X24000Y-18000
X24000Y-19000
X24000Y-20000
X24000Y-21000
X24000Y-22000
X24000Y-23000
X24000Y-24000
X24000Y-25000
X24000Y-26000
X24000Y-27000
X24000Y-28000
X24000Y-29000
X24000Y-30000
X24000Y-31000
X24000Y-32000
X24000Y-33000
X24000Y-34000
X24000Y-35000
X24000Y-36000
X24000Y-37000
X24000Y-38000
X24000Y-39000
X24000Y-40000
X24000Y-41000
X24000Y-42000
X24000Y-43000
X24000Y-44000
X24000Y-45000
X24000Y-46000
X24000Y-47000
X24000Y-48000
X24000Y-49000
X24000Y-50000
X24000Y-51000
X24000Y-52000
X25000Y-17000
X25000Y-18000
X25000Y-19000
X25000Y-20000
X25000Y-21000
X25000Y-22000
X25000Y-23000
X25000Y-24000
X25000Y-25000
X25000Y-26000
X25000Y-27000
X25000Y-28000
X25000Y-29000
X25000Y-30000
X25000Y-31000
X25000Y-32000
X25000Y-33000
X25000Y-34000
X25000Y-35000
X25000Y-36000
X25000Y-37000
X25000Y-38000
X25000Y-39000
X25000Y-40000
X25000Y-41000
X25000Y-42000
X25000Y-43000
X25000Y-44000
X25000Y-45000
X25000Y-46000
X25000Y-47000
X25000Y-48000
X25000Y-49000
X25000Y-50000
X25000Y-51000
X25000Y-52000
X26000Y-17000
X26000Y-18000
X26000Y-19000
X26000Y-20000
X26000Y-21000
X26000Y-22000
X26000Y-23000
X26000Y-24000
X26000Y-25000
X26000Y-26000
X26000Y-27000
X26000Y-28000
X26000Y-29000
X26000Y-30000
X26000Y-31000
X26000Y-32000
X26000Y-33000
X26000Y-34000
X26000Y-35000
X26000Y-36000
X26000Y-37000
X26000Y-38000
X26000Y-39000
X26000Y-40000
X26000Y-41000
X26000Y-42000
X26000Y-43000
X26000Y-44000
X26000Y-45000
X26000Y-46000
X26000Y-47000
X26000Y-48000
X26000Y-49000
X26000Y-50000
X26000Y-51000
X26000Y-52000
X27000Y-17000
X27000Y-18000
X27000Y-19000
X27000Y-20000
X27000Y-21000
X27000Y-22000
X27000Y-23000
X27000Y-24000
X27000Y-25000
X27000Y-26000
X27000Y-27000
X27000Y-28000
X27000Y-29000
X27000Y-30000
X27000Y-31000
X27000Y-32000
X27000Y-33000
X27000Y-34000
X27000Y-35000
X27000Y-36000
X27000Y-37000
X27000Y-38000
X27000Y-39000
X27000Y-40000
X27000Y-41000
X27000Y-42000
X27000Y-43000
X27000Y-44000
X27000Y-45000
X27000Y-46000
X27000Y-47000
X27000Y-48000
X27000Y-49000
X27000Y-50000
X27000Y-51000
X27000Y-52000
X28000Y-17000
X28000Y-18000
X28000Y-19000
X28000Y-20000
X28000Y-21000
X28000Y-22000
X28000Y-23000
X28000Y-24000
X28000Y-25000
X28000Y-26000
X28000Y-27000
X28000Y-28000
X28000Y-29000
X28000Y-30000
X28000Y-31000
X28000Y-32000
X28000Y-33000
X28000Y-34000
X28000Y-35000
X28000Y-36000
X28000Y-37000
X28000Y-38000
X28000Y-39000
X28000Y-40000
X28000Y-41000
X28000Y-42000
X28000Y-43000
X28000Y-44000
X28000Y-45000
X28000Y-46000
X28000Y-47000
X28000Y-48000
X28000Y-49000
X28000Y-50000
X28000Y-51000
X28000Y-52000
X29000Y-17000
X29000Y-18000
X29000Y-19000
X29000Y-20000
X29000Y-21000
X29000Y-22000
X29000Y-23000
X29000Y-24000
X29000Y-25000
X29000Y-26000
X29000Y-27000
X29000Y-28000
X29000Y-29000
X29000Y-30000
X29000Y-31000
X29000Y-32000
X29000Y-33000
X29000Y-34000
X29000Y-35000
X29000Y-36000
X29000Y-37000
X29000Y-38000
X29000Y-39000
X29000Y-40000
X29000Y-41000
X29000Y-42000
X29000Y-43000
X29000Y-44000
X29000Y-45000
X29000Y-46000
X29000Y-47000
X29000Y-48000
X29000Y-49000
X29000Y-50000
X29000Y-51000
X29000Y-52000
X30000Y-17000
X30000Y-18000
X30000Y-19000
X30000Y-20000
X30000Y-21000
X30000Y-22000
X30000Y-23000
X30000Y-24000
X30000Y-25000
X30000Y-26000
X30000Y-27000
X30000Y-28000
X30000Y-29000
X30000Y-30000
X30000Y-31000
X30000Y-32000
X30000Y-33000
X30000Y-34000
X30000Y-35000
X30000Y-36000
X30000Y-37000
X30000Y-38000
X30000Y-39000
X30000Y-40000
X30000Y-41000
X30000Y-42000
X30000Y-43000
X30000Y-44000
X30000Y-45000
X30000Y-46000
X30000Y-47000
X30000Y-48000
X30000Y-49000
X30000Y-50000
X30000Y-51000
X30000Y-52000
X31000Y-17000
X31000Y-18000
X31000Y-19000
X31000Y-20000
X31000Y-21000
X31000Y-22000
X31000Y-23000
X31000Y-24000
X31000Y-25000
X31000Y-26000
X31000Y-27000
X31000Y-28000
X31000Y-29000
X31000Y-30000
X31000Y-31000
X31000Y-32000
X31000Y-33000
X31000Y-34000
X31000Y-35000
X31000Y-36000
X31000Y-37000
X31000Y-38000
X31000Y-39000
X31000Y-40000
X31000Y-41000
X31000Y-42000
X31000Y-43000
X31000Y-44000
X31000Y-45000
X31000Y-46000
X31000Y-47000
X31000Y-48000
X31000Y-49000
X31000Y-50000
X31000Y-51000
X31000Y-52000
X32000Y-17000
X32000Y-18000
X32000Y-19000
X32000Y-20000
X32000Y-21000
X32000Y-22000
X32000Y-23000
X32000Y-24000
X32000Y-25000
X32000Y-26000
X32000Y-27000
X32000Y-28000
X32000Y-29000
X32000Y-30000
X32000Y-31000
X32000Y-32000
X32000Y-33000
X32000Y-34000
X32000Y-35000
X32000Y-36000
X32000Y-37000
X32000Y-38000
X32000Y-39000
X32000Y-40000
X32000Y-41000
X32000Y-42000
X32000Y-43000
X32000Y-44000
X32000Y-45000
X32000Y-46000
X32000Y-47000
X32000Y-48000
X32000Y-49000
X32000Y-50000
X32000Y-51000
X32000Y-52000
X33000Y-17000
X33000Y-18000
X33000Y-19000
X33000Y-20000
X33000Y-21000
X33000Y-22000
X33000Y-23000
X33000Y-24000
X33000Y-25000
X33000Y-26000
X33000Y-27000
X33000Y-28000
X33000Y-29000
X33000Y-30000
X33000Y-31000
X33000Y-32000
X33000Y-33000
X33000Y-34000
X33000Y-35000
X33000Y-36000
X33000Y-37000
X33000Y-38000
X33000Y-39000
X33000Y-40000
X33000Y-41000
X33000Y-42000
X33000Y-43000
X33000Y-44000
X33000Y-45000
X33000Y-46000
X33000Y-47000
X33000Y-48000
X33000Y-49000
X33000Y-50000
X33000Y-51000
X33000Y-52000
X34000Y-17000
X34000Y-18000
X34000Y-19000
X34000Y-20000
X34000Y-21000
X34000Y-22000
X34000Y-23000
X34000Y-24000
X34000Y-25000
X34000Y-26000
X34000Y-27000
X34000Y-28000
X34000Y-29000
X34000Y-30000
X34000Y-31000
X34000Y-32000
X34000Y-33000
X34000Y-34000
X34000Y-35000
X34000Y-36000
X34000Y-37000
X34000Y-38000
X34000Y-39000
X34000Y-40000
X34000Y-41000
X34000Y-42000
X34000Y-43000
X34000Y-44000
X34000Y-45000
X34000Y-46000
X34000Y-47000
X34000Y-48000
X34000Y-49000
X34000Y-50000
X34000Y-51000
X34000Y-52000
X35000Y-17000
X35000Y-18000
X35000Y-19000
X35000Y-20000
X35000Y-21000
X35000Y-22000
X35000Y-23000
X35000Y-24000
X35000Y-25000
X35000Y-26000
X35000Y-27000
X35000Y-28000
X35000Y-29000
X35000Y-30000
X35000Y-31000
X35000Y-32000
X35000Y-33000
X35000Y-34000
X35000Y-35000
X35000Y-36000
X35000Y-37000
X35000Y-38000
X35000Y-39000
X35000Y-40000
X35000Y-41000
X35000Y-42000
X35000Y-43000
X35000Y-44000
X35000Y-45000
X35000Y-46000
X35000Y-47000
X35000Y-48000
X35000Y-49000
X35000Y-50000
X35000Y-51000
X35000Y-52000
X36000Y-17000
X36000Y-18000
X36000Y-19000
X36000Y-20000
X36000Y-21000
X36000Y-22000
X36000Y-23000
X36000Y-24000
X36000Y-25000
X36000Y-26000
X36000Y-27000
X36000Y-28000
X36000Y-29000
X36000Y-30000
X36000Y-31000
X36000Y-32000
X36000Y-33000
X36000Y-34000
X36000Y-35000
X36000Y-36000
X36000Y-37000
X36000Y-38000
X36000Y-39000
X36000Y-40000
X36000Y-41000
X36000Y-42000
X36000Y-43000
X36000Y-44000
X36000Y-45000
X36000Y-46000
X36000Y-47000
X36000Y-48000
X36000Y-49000
X36000Y-50000
X36000Y-51000
X36000Y-52000
X37000Y-17000
X37000Y-18000
X37000Y-19000
X37000Y-20000
X37000Y-21000
X37000Y-22000
X37000Y-23000
X37000Y-24000
X37000Y-25000
X37000Y-26000
X37000Y-27000
X37000Y-28000
X37000Y-29000
X37000Y-30000
X37000Y-31000
X37000Y-32000
X37000Y-33000
X37000Y-34000
X37000Y-35000
X37000Y-36000
X37000Y-37000
X37000Y-38000
X37000Y-39000
X37000Y-40000
X37000Y-41000
X37000Y-42000
X37000Y-43000
X37000Y-44000
X37000Y-45000
X37000Y-46000
X37000Y-47000
X37000Y-48000
X37000Y-49000
X37000Y-50000
X37000Y-51000
X37000Y-52000
X38000Y-17000
X38000Y-18000
X38000Y-19000
X38000Y-20000
X38000Y-21000
X38000Y-22000
X38000Y-23000
X38000Y-24000
X38000Y-25000
X38000Y-26000
X38000Y-27000
X38000Y-28000
X38000Y-29000
X38000Y-30000
X38000Y-31000
X38000Y-32000
X38000Y-33000
X38000Y-34000
X38000Y-35000
X38000Y-36000
X38000Y-37000
X38000Y-38000
X38000Y-39000
X38000Y-40000
X38000Y-41000
X38000Y-42000
X38000Y-43000
X38000Y-44000
X38000Y-45000
X38000Y-46000
X38000Y-47000
X38000Y-48000
X38000Y-49000
X38000Y-50000
X38000Y-51000
X38000Y-52000
X39000Y-17000
X39000Y-18000
X39000Y-19000
X39000Y-20000
X39000Y-21000
X39000Y-22000
X39000Y-23000
X39000Y-24000
X39000Y-25000
X39000Y-26000
X39000Y-27000
X39000Y-28000
X39000Y-29000
X39000Y-30000
X39000Y-31000
X39000Y-32000
X39000Y-33000
X39000Y-34000
X39000Y-35000
X39000Y-36000
X39000Y-37000
X39000Y-38000
X39000Y-39000
X39000Y-40000
X39000Y-41000
X39000Y-42000
X39000Y-43000
X39000Y-44000
X39000Y-45000
X39000Y-46000
X39000Y-47000
X39000Y-48000
X39000Y-49000
X39000Y-50000
X39000Y-51000
X39000Y-52000
X40000Y-17000
X40000Y-18000
X40000Y-19000
X40000Y-20000
X40000Y-21000
X40000Y-22000
X40000Y-23000
X40000Y-24000
X40000Y-25000
X40000Y-26000
X40000Y-27000
X40000Y-28000
X40000Y-29000
X40000Y-30000
X40000Y-31000
X40000Y-32000
X40000Y-33000
X40000Y-34000
X40000Y-35000
X40000Y-36000
X40000Y-37000
X40000Y-38000
X40000Y-39000
X40000Y-40000
X40000Y-41000
X40000Y-42000
X40000Y-43000
X40000Y-44000
X40000Y-45000
X40000Y-46000
X40000Y-47000
X40000Y-48000
X40000Y-49000
X40000Y-50000
X40000Y-51000
X40000Y-52000
X41000Y-17000
X41000Y-18000
X41000Y-19000
X41000Y-20000
X41000Y-21000
X41000Y-22000
X41000Y-23000
X41000Y-24000
X41000Y-25000
X41000Y-26000
X41000Y-27000
X41000Y-28000
X41000Y-29000
X41000Y-30000
X41000Y-31000
X41000Y-32000
X41000Y-33000
X41000Y-34000
X41000Y-35000
X41000Y-36000
X41000Y-37000
X41000Y-38000
X41000Y-39000
X41000Y-40000
X41000Y-41000
X41000Y-42000
X41000Y-43000
X41000Y-44000
X41000Y-45000
X41000Y-46000
X41000Y-47000
X41000Y-48000
X41000Y-49000
X41000Y-50000
X41000Y-51000
X41000Y-52000
X42000Y-17000
X42000Y-18000
X42000Y-19000
X42000Y-20000
X42000Y-21000
X42000Y-22000
X42000Y-23000
X42000Y-24000
X42000Y-25000
X42000Y-26000
X42000Y-27000
X42000Y-28000
X42000Y-29000
X42000Y-30000
X42000Y-31000
X42000Y-32000
X42000Y-33000
X42000Y-34000
X42000Y-35000
X42000Y-36000
X42000Y-37000
X42000Y-38000
X42000Y-39000
X42000Y-40000
X42000Y-41000
X42000Y-42000
X42000Y-43000
X42000Y-44000
X42000Y-45000
X42000Y-46000
X42000Y-47000
X42000Y-48000
X42000Y-49000
X42000Y-50000
X42000Y-51000
X42000Y-52000
X43000Y-17000
X43000Y-18000
X43000Y-19000
X43000Y-20000
X43000Y-21000
X43000Y-22000
X43000Y-23000
X43000Y-24000
X43000Y-25000
X43000Y-26000
X43000Y-27000
X43000Y-28000
X43000Y-29000
X43000Y-30000
X43000Y-31000
X43000Y-32000
X43000Y-33000
X43000Y-34000
X43000Y-35000
X43000Y-36000
X43000Y-37000
X43000Y-38000
X43000Y-39000
X43000Y-40000
X43000Y-41000
X43000Y-42000
X43000Y-43000
X43000Y-44000
X43000Y-45000
X43000Y-46000
X43000Y-47000
X43000Y-48000
X43000Y-49000
X43000Y-50000
X43000Y-51000
X43000Y-52000
X44000Y-17000
X44000Y-18000
X44000Y-19000
X44000Y-20000
X44000Y-21000
X44000Y-22000
X44000Y-23000
X44000Y-24000
X44000Y-25000
X44000Y-26000
X44000Y-27000
X44000Y-28000
X44000Y-29000
X44000Y-30000
X44000Y-31000
X44000Y-32000
X44000Y-33000
X44000Y-34000
X44000Y-35000
X44000Y-36000
X44000Y-37000
X44000Y-38000
X44000Y-39000
X44000Y-40000
X44000Y-41000
X44000Y-42000
X44000Y-43000
X44000Y-44000
X44000Y-45000
X44000Y-46000
X44000Y-47000
X44000Y-48000
X44000Y-49000
X44000Y-50000
X44000Y-51000
X44000Y-52000
X45000Y-17000
X45000Y-18000
X45000Y-19000
X45000Y-20000
X45000Y-21000
X45000Y-22000
X45000Y-23000
X45000Y-24000
X45000Y-25000
X45000Y-26000
X45000Y-27000
X45000Y-28000
X45000Y-29000
X45000Y-30000
X45000Y-31000
X45000Y-32000
X45000Y-33000
X45000Y-34000
X45000Y-35000
X45000Y-36000
X45000Y-37000
X45000Y-38000
X45000Y-39000
X45000Y-40000
X45000Y-41000
X45000Y-42000
X45000Y-43000
X45000Y-44000
X45000Y-45000
X45000Y-46000
X45000Y-47000
X45000Y-48000
X45000Y-49000
X45000Y-50000
X45000Y-51000
X45000Y-52000
X46000Y-17000
X46000Y-18000
X46000Y-19000
X46000Y-20000
X46000Y-21000
X46000Y-22000
X46000Y-23000
X46000Y-24000
X46000Y-25000
X46000Y-26000
X46000Y-27000
X46000Y-28000
X46000Y-29000
X46000Y-30000
X46000Y-31000
X46000Y-32000
X46000Y-33000
X46000Y-34000
X46000Y-35000
X46000Y-36000
X46000Y-37000
X46000Y-38000
X46000Y-39000
X46000Y-40000
X46000Y-41000
X46000Y-42000
X46000Y-43000
X46000Y-44000
X46000Y-45000
X46000Y-46000
X46000Y-47000
X46000Y-48000
X46000Y-49000
X46000Y-50000
X46000Y-51000
X46000Y-52000
X47000Y-17000
X47000Y-18000
X47000Y-19000
X47000Y-20000
X47000Y-21000
X47000Y-22000
X47000Y-23000
X47000Y-24000
X47000Y-25000
X47000Y-26000
X47000Y-27000
X47000Y-28000
X47000Y-29000
X47000Y-30000
X47000Y-31000
X47000Y-32000
X47000Y-33000
X47000Y-34000
X47000Y-35000
X47000Y-36000
X47000Y-37000
X47000Y-38000
X47000Y-39000
X47000Y-40000
X47000Y-41000
X47000Y-42000
X47000Y-43000
X47000Y-44000
X47000Y-45000
X47000Y-46000
X47000Y-47000
X47000Y-48000
X47000Y-49000
X47000Y-50000
X47000Y-51000
X47000Y-52000
X48000Y-17000
X48000Y-18000
X48000Y-19000
X48000Y-20000
X48000Y-21000
X48000Y-22000
X48000Y-23000
X48000Y-24000
X48000Y-25000
X48000Y-26000
X48000Y-27000
X48000Y-28000
X48000Y-29000
X48000Y-30000
X48000Y-31000
X48000Y-32000
X48000Y-33000
X48000Y-34000
X48000Y-35000
X48000Y-36000
X48000Y-37000
X48000Y-38000
X48000Y-39000
X48000Y-40000
X48000Y-41000
X48000Y-42000
X48000Y-43000
X48000Y-44000
X48000Y-45000
X48000Y-46000
X48000Y-47000
X48000Y-48000
X48000Y-49000
X48000Y-50000
X48000Y-51000
X48000Y-52000
X49000Y-17000
X49000Y-18000
X49000Y-19000
X49000Y-20000
X49000Y-21000
X49000Y-22000
X49000Y-23000
X49000Y-24000
X49000Y-25000
X49000Y-26000
X49000Y-27000
X49000Y-28000
X49000Y-29000
X49000Y-30000
X49000Y-31000
X49000Y-32000
X49000Y-33000
X49000Y-34000
X49000Y-35000
X49000Y-36000
X49000Y-37000
X49000Y-38000
X49000Y-39000
X49000Y-40000
X49000Y-41000
X49000Y-42000
X49000Y-43000
X49000Y-44000
X49000Y-45000
X49000Y-46000
X49000Y-47000
X49000Y-48000
X49000Y-49000
X49000Y-50000
X49000Y-51000
X49000Y-52000
X50000Y-17000
X50000Y-18000
X50000Y-19000
X50000Y-20000
X50000Y-21000
X50000Y-22000
X50000Y-23000
X50000Y-24000
X50000Y-25000
X50000Y-26000
X50000Y-27000
X50000Y-28000
X50000Y-29000
X50000Y-30000
X50000Y-31000
X50000Y-32000
X50000Y-33000
X50000Y-34000
X50000Y-35000
X50000Y-36000
X50000Y-37000
X50000Y-38000
X50000Y-39000
X50000Y-40000
X50000Y-41000
X50000Y-42000
X50000Y-43000
X50000Y-44000
X50000Y-45000
X50000Y-46000
X50000Y-47000
X50000Y-48000
X50000Y-49000
X50000Y-50000
X50000Y-51000
X50000Y-52000
X51000Y-17000
X51000Y-18000
X51000Y-19000
X51000Y-20000
X51000Y-21000
X51000Y-22000
X51000Y-23000
X51000Y-24000
X51000Y-25000
X51000Y-26000
X51000Y-27000
X51000Y-28000
X51000Y-29000
X51000Y-30000
X51000Y-31000
X51000Y-32000
X51000Y-33000
X51000Y-34000
X51000Y-35000
X51000Y-36000
X51000Y-37000
X51000Y-38000
X51000Y-39000
X51000Y-40000
X51000Y-41000
X51000Y-42000
X51000Y-43000
X51000Y-44000
X51000Y-45000
X51000Y-46000
X51000Y-47000
X51000Y-48000
X51000Y-49000
X51000Y-50000
X51000Y-51000
X51000Y-52000
X52000Y-17000
X52000Y-18000
X52000Y-19000
X52000Y-20000
X52000Y-21000
X52000Y-22000
X52000Y-23000
X52000Y-24000
X52000Y-25000
X52000Y-26000
X52000Y-27000
X52000Y-28000
X52000Y-29000
X52000Y-30000
X52000Y-31000
X52000Y-32000
X52000Y-33000
X52000Y-34000
X52000Y-35000
X52000Y-36000
X52000Y-37000
X52000Y-38000
X52000Y-39000
X52000Y-40000
X52000Y-41000
X52000Y-42000
X52000Y-43000
X52000Y-44000
X52000Y-45000
X52000Y-46000
X52000Y-47000
X52000Y-48000
X52000Y-49000
X52000Y-50000
X52000Y-51000
X52000Y-52000
X53000Y-17000
X53000Y-18000
X53000Y-19000
X53000Y-20000
X53000Y-21000
X53000Y-22000
X53000Y-23000
X53000Y-24000
X53000Y-25000
X53000Y-26000
X53000Y-27000
X53000Y-28000
X53000Y-29000
X53000Y-30000
X53000Y-31000
X53000Y-32000
X53000Y-33000
X53000Y-34000
X53000Y-35000
X53000Y-36000
X53000Y-37000
X53000Y-38000
X53000Y-39000
X53000Y-40000
X53000Y-41000
X53000Y-42000
X53000Y-43000
X53000Y-44000
X53000Y-45000
X53000Y-46000
X53000Y-47000
X53000Y-48000
X53000Y-49000
X53000Y-50000
X53000Y-51000
X53000Y-52000
X54000Y-17000
X54000Y-18000
X54000Y-19000
X54000Y-20000
X54000Y-21000
X54000Y-22000
X54000Y-23000
X54000Y-24000
X54000Y-25000
X54000Y-26000
X54000Y-27000
X54000Y-28000
X54000Y-29000
X54000Y-30000
X54000Y-31000
X54000Y-32000
X54000Y-33000
X54000Y-34000
X54000Y-35000
X54000Y-36000
X54000Y-37000
X54000Y-38000
X54000Y-39000
X54000Y-40000
X54000Y-41000
X54000Y-42000
X54000Y-43000
X54000Y-44000
X54000Y-45000
X54000Y-46000
X54000Y-47000
X54000Y-48000
X54000Y-49000
X54000Y-50000
X54000Y-51000
X54000Y-52000
X55000Y-17000
X55000Y-18000
X55000Y-19000
X55000Y-20000
X55000Y-21000
X55000Y-22000
X55000Y-23000
X55000Y-24000
X55000Y-25000
X55000Y-26000
X55000Y-27000
X55000Y-28000
X55000Y-29000
X55000Y-30000
X55000Y-31000
X55000Y-32000
X55000Y-33000
X55000Y-34000
X55000Y-35000
X55000Y-36000
X55000Y-37000
X55000Y-38000
X55000Y-39000
X55000Y-40000
X55000Y-41000
X55000Y-42000
X55000Y-43000
X55000Y-44000
X55000Y-45000
X55000Y-46000
X55000Y-47000
X55000Y-48000
X55000Y-49000
X55000Y-50000
X55000Y-51000
X55000Y-52000
X56000Y-17000
X56000Y-18000
X56000Y-19000
X56000Y-20000
X56000Y-21000
X56000Y-22000
X56000Y-23000
X56000Y-24000
X56000Y-25000
X56000Y-26000
X56000Y-27000
X56000Y-28000
X56000Y-29000
X56000Y-30000
X56000Y-31000
X56000Y-32000
X56000Y-33000
X56000Y-34000
X56000Y-35000
X56000Y-36000
X56000Y-37000
X56000Y-38000
X56000Y-39000
X56000Y-40000
X56000Y-41000
X56000Y-42000
X56000Y-43000
X56000Y-44000
X56000Y-45000
X56000Y-46000
X56000Y-47000
X56000Y-48000
X56000Y-49000
X56000Y-50000
X56000Y-51000
X56000Y-52000
X57000Y-17000
X57000Y-18000
X57000Y-19000
X57000Y-20000
X57000Y-21000
X57000Y-22000
X57000Y-23000
X57000Y-24000
X57000Y-25000
X57000Y-26000
X57000Y-27000
X57000Y-28000
X57000Y-29000
X57000Y-30000
X57000Y-31000
X57000Y-32000
X57000Y-33000
X57000Y-34000
X57000Y-35000
X57000Y-36000
X57000Y-37000
X57000Y-38000
X57000Y-39000
X57000Y-40000
X57000Y-41000
X57000Y-42000
X57000Y-43000
X57000Y-44000
X57000Y-45000
X57000Y-46000
X57000Y-47000
X57000Y-48000
X57000Y-49000
X57000Y-50000
X57000Y-51000
X57000Y-52000
X58000Y-17000
X58000Y-18000
X58000Y-19000
X58000Y-20000
X58000Y-21000
X58000Y-22000
X58000Y-23000
X58000Y-24000
X58000Y-25000
X58000Y-26000
X58000Y-27000
X58000Y-28000
X58000Y-29000
X58000Y-30000
X58000Y-31000
X58000Y-32000
X58000Y-33000
X58000Y-34000
X58000Y-35000
X58000Y-36000
X58000Y-37000
X58000Y-38000
X58000Y-39000
X58000Y-40000
X58000Y-41000
X58000Y-42000
X58000Y-43000
X58000Y-44000
X58000Y-45000
X58000Y-46000
X58000Y-47000
X58000Y-48000
X58000Y-49000
X58000Y-50000
X58000Y-51000
X58000Y-52000
X59000Y-17000
X59000Y-18000
X59000Y-19000
X59000Y-20000
X59000Y-21000
X59000Y-22000
X59000Y-23000
X59000Y-24000
X59000Y-25000
X59000Y-26000
X59000Y-27000
X59000Y-28000
X59000Y-29000
X59000Y-30000
X59000Y-31000
X59000Y-32000
X59000Y-33000
X59000Y-34000
X59000Y-35000
X59000Y-36000
X59000Y-37000
X59000Y-38000
X59000Y-39000
X59000Y-40000
X59000Y-41000
X59000Y-42000
X59000Y-43000
X59000Y-44000
X59000Y-45000
X59000Y-46000
X59000Y-47000
X59000Y-48000
X59000Y-49000
X59000Y-50000
X59000Y-51000
X59000Y-52000
X60000Y-17000
X60000Y-18000
X60000Y-19000
X60000Y-20000
X60000Y-21000
X60000Y-22000
X60000Y-23000
X60000Y-24000
X60000Y-25000
X60000Y-26000
X60000Y-27000
X60000Y-28000
X60000Y-29000
X60000Y-30000
X60000Y-31000
X60000Y-32000
X60000Y-33000
X60000Y-34000
X60000Y-35000
X60000Y-36000
X60000Y-37000
X60000Y-38000
X60000Y-39000
X60000Y-40000
X60000Y-41000
X60000Y-42000
X60000Y-43000
X60000Y-44000
X60000Y-45000
X60000Y-46000
X60000Y-47000
X60000Y-48000
X60000Y-49000
X60000Y-50000
X60000Y-51000
X60000Y-52000
X61000Y-17000
X61000Y-18000
X61000Y-19000
X61000Y-20000
X61000Y-21000
X61000Y-22000
X61000Y-23000
X61000Y-24000
X61000Y-25000
X61000Y-26000
X61000Y-27000
X61000Y-28000
X61000Y-29000
X61000Y-30000
X61000Y-31000
X61000Y-32000
X61000Y-33000
X61000Y-34000
X61000Y-35000
X61000Y-36000
X61000Y-37000
X61000Y-38000
X61000Y-39000
X61000Y-40000
X61000Y-41000
X61000Y-42000
X61000Y-43000
X61000Y-44000
X61000Y-45000
X61000Y-46000
X61000Y-47000
X61000Y-48000
X61000Y-49000
X61000Y-50000
X61000Y-51000
X61000Y-52000
X62000Y-17000
X62000Y-18000
X62000Y-19000
X62000Y-20000
X62000Y-21000
X62000Y-22000
X62000Y-23000
X62000Y-24000
X62000Y-25000
X62000Y-26000
X62000Y-27000
X62000Y-28000
X62000Y-29000
X62000Y-30000
X62000Y-31000
X62000Y-32000
X62000Y-33000
X62000Y-34000
X62000Y-35000
X62000Y-36000
X62000Y-37000
X62000Y-38000
X62000Y-39000
X62000Y-40000
X62000Y-41000
X62000Y-42000
X62000Y-43000
X62000Y-44000
X62000Y-45000
X62000Y-46000
X62000Y-47000
X62000Y-48000
X62000Y-49000
X62000Y-50000
X62000Y-51000
X62000Y-52000
X63000Y-17000
X63000Y-18000
X63000Y-19000
X63000Y-20000
X63000Y-21000
X63000Y-22000
X63000Y-23000
X63000Y-24000
X63000Y-25000
X63000Y-26000
X63000Y-27000
X63000Y-28000
X63000Y-29000
X63000Y-30000
X63000Y-31000
X63000Y-32000
X63000Y-33000
X63000Y-34000
X63000Y-35000
X63000Y-36000
X63000Y-37000
X63000Y-38000
X63000Y-39000
X63000Y-40000
X63000Y-41000
X63000Y-42000
X63000Y-43000
X63000Y-44000
X63000Y-45000
X63000Y-46000
X63000Y-47000
X63000Y-48000
X63000Y-49000
X63000Y-50000
X63000Y-51000
X63000Y-52000
X64000Y-17000
X64000Y-18000
X64000Y-19000
X64000Y-20000
X64000Y-21000
X64000Y-22000
X64000Y-23000
X64000Y-24000
X64000Y-25000
X64000Y-26000
X64000Y-27000
X64000Y-28000
X64000Y-29000
X64000Y-30000
X64000Y-31000
X64000Y-32000
X64000Y-33000
X64000Y-34000
X64000Y-35000
X64000Y-36000
X64000Y-37000
X64000Y-38000
X64000Y-39000
X64000Y-40000
X64000Y-41000
X64000Y-42000
X64000Y-43000
X64000Y-44000
X64000Y-45000
X64000Y-46000
X64000Y-47000
X64000Y-48000
X64000Y-49000
X64000Y-50000
X64000Y-51000
X64000Y-52000
X65000Y-17000
X65000Y-18000
X65000Y-19000
X65000Y-20000
X65000Y-21000
X65000Y-22000
X65000Y-23000
X65000Y-24000
X65000Y-25000
X65000Y-26000
X65000Y-27000
X65000Y-28000
X65000Y-29000
X65000Y-30000
X65000Y-31000
X65000Y-32000
X65000Y-33000
X65000Y-34000
X65000Y-35000
X65000Y-36000
X65000Y-37000
X65000Y-38000
X65000Y-39000
X65000Y-40000
X65000Y-41000
X65000Y-42000
X65000Y-43000
X65000Y-44000
X65000Y-45000
X65000Y-46000
X65000Y-47000
X65000Y-48000
X65000Y-49000
X65000Y-50000
X65000Y-51000
X65000Y-52000
X66000Y-17000
X66000Y-18000
X66000Y-19000
X66000Y-20000
X66000Y-21000
X66000Y-22000
X66000Y-23000
X66000Y-24000
X66000Y-25000
X66000Y-26000
X66000Y-27000
X66000Y-28000
X66000Y-29000
X66000Y-30000
X66000Y-31000
X66000Y-32000
X66000Y-33000
X66000Y-34000
X66000Y-35000
X66000Y-36000
X66000Y-37000
X66000Y-38000
X66000Y-39000
X66000Y-40000
X66000Y-41000
X66000Y-42000
X66000Y-43000
X66000Y-44000
X66000Y-45000
X66000Y-46000
X66000Y-47000
X66000Y-48000
X66000Y-49000
X66000Y-50000
X66000Y-51000
X66000Y-52000
X67000Y-17000
X67000Y-18000
X67000Y-19000
X67000Y-20000
X67000Y-21000
X67000Y-22000
X67000Y-23000
X67000Y-24000
X67000Y-25000
X67000Y-26000
X67000Y-27000
X67000Y-28000
X67000Y-29000
X67000Y-30000
X67000Y-31000
X67000Y-32000
X67000Y-33000
X67000Y-34000
X67000Y-35000
X67000Y-36000
X67000Y-37000
X67000Y-38000
X67000Y-39000
X67000Y-40000
X67000Y-41000
X67000Y-42000
X67000Y-43000
X67000Y-44000
X67000Y-45000
X67000Y-46000
X67000Y-47000
X67000Y-48000
X67000Y-49000
X67000Y-50000
X67000Y-51000
X67000Y-52000
X68000Y-17000
X68000Y-18000
X68000Y-19000
X68000Y-20000
X68000Y-21000
X68000Y-22000
X68000Y-23000
X68000Y-24000
X68000Y-25000
X68000Y-26000
X68000Y-27000
X68000Y-28000
X68000Y-29000
X68000Y-30000
X68000Y-31000
X68000Y-32000
X68000Y-33000
X68000Y-34000
X68000Y-35000
X68000Y-36000
X68000Y-37000
X68000Y-38000
X68000Y-39000
X68000Y-40000
X68000Y-41000
X68000Y-42000
X68000Y-43000
X68000Y-44000
X68000Y-45000
X68000Y-46000
X68000Y-47000
X68000Y-48000
X68000Y-49000
X68000Y-50000
X68000Y-51000
X68000Y-52000
X69000Y-17000
X69000Y-18000
X69000Y-19000
X69000Y-20000
X69000Y-21000
X69000Y-22000
X69000Y-23000
X69000Y-24000
X69000Y-25000
X69000Y-26000
X69000Y-27000
X69000Y-28000
X69000Y-29000
X69000Y-30000
X69000Y-31000
X69000Y-32000
X69000Y-33000
X69000Y-34000
X69000Y-35000
X69000Y-36000
X69000Y-37000
X69000Y-38000
X69000Y-39000
X69000Y-40000
X69000Y-41000
X69000Y-42000
X69000Y-43000
X69000Y-44000
X69000Y-45000
X69000Y-46000
X69000Y-47000
X69000Y-48000
X69000Y-49000
X69000Y-50000
X69000Y-51000
X69000Y-52000
X70000Y-17000
X70000Y-18000
X70000Y-19000
X70000Y-20000
X70000Y-21000
X70000Y-22000
X70000Y-23000
X70000Y-24000
X70000Y-25000
X70000Y-26000
X70000Y-27000
X70000Y-28000
X70000Y-29000
X70000Y-30000
X70000Y-31000
X70000Y-32000
X70000Y-33000
X70000Y-34000
X70000Y-35000
X70000Y-36000
X70000Y-37000
X70000Y-38000
X70000Y-39000
X70000Y-40000
X70000Y-41000
X70000Y-42000
X70000Y-43000
X70000Y-44000
X70000Y-45000
X70000Y-46000
X70000Y-47000
X70000Y-48000
X70000Y-49000
X70000Y-50000
X70000Y-51000
X70000Y-52000
T0
M30
