%TF.GenerationSoftware,KiCad,Pcbnew,(5.1.8)-1*%
%TF.CreationDate,2024-06-20T22:43:38+03:00*%
%TF.ProjectId,MUX16bit,4d555831-3662-4697-942e-6b696361645f,rev?*%
%TF.SameCoordinates,Original*%
%TF.FileFunction,Legend,Top*%
%TF.FilePolarity,Positive*%
%FSLAX46Y46*%
G04 Gerber Fmt 4.6, Leading zero omitted, Abs format (unit mm)*
G04 Created by KiCad (PCBNEW (5.1.8)-1) date 2024-06-20 22:43:38*
%MOMM*%
%LPD*%
G01*
G04 APERTURE LIST*
%ADD10C,0.200000*%
%ADD11C,0.150000*%
%ADD12C,0.250000*%
%ADD13C,0.300000*%
%ADD14C,0.120000*%
G04 APERTURE END LIST*
D10*
X90801428Y-82495714D02*
X90730000Y-82567142D01*
X90515714Y-82638571D01*
X90372857Y-82638571D01*
X90158571Y-82567142D01*
X90015714Y-82424285D01*
X89944285Y-82281428D01*
X89872857Y-81995714D01*
X89872857Y-81781428D01*
X89944285Y-81495714D01*
X90015714Y-81352857D01*
X90158571Y-81210000D01*
X90372857Y-81138571D01*
X90515714Y-81138571D01*
X90730000Y-81210000D01*
X90801428Y-81281428D01*
X91730000Y-81138571D02*
X92015714Y-81138571D01*
X92158571Y-81210000D01*
X92301428Y-81352857D01*
X92372857Y-81638571D01*
X92372857Y-82138571D01*
X92301428Y-82424285D01*
X92158571Y-82567142D01*
X92015714Y-82638571D01*
X91730000Y-82638571D01*
X91587142Y-82567142D01*
X91444285Y-82424285D01*
X91372857Y-82138571D01*
X91372857Y-81638571D01*
X91444285Y-81352857D01*
X91587142Y-81210000D01*
X91730000Y-81138571D01*
X93015714Y-82638571D02*
X93015714Y-81138571D01*
X93872857Y-82638571D01*
X93872857Y-81138571D01*
X94515714Y-82567142D02*
X94730000Y-82638571D01*
X95087142Y-82638571D01*
X95230000Y-82567142D01*
X95301428Y-82495714D01*
X95372857Y-82352857D01*
X95372857Y-82210000D01*
X95301428Y-82067142D01*
X95230000Y-81995714D01*
X95087142Y-81924285D01*
X94801428Y-81852857D01*
X94658571Y-81781428D01*
X94587142Y-81710000D01*
X94515714Y-81567142D01*
X94515714Y-81424285D01*
X94587142Y-81281428D01*
X94658571Y-81210000D01*
X94801428Y-81138571D01*
X95158571Y-81138571D01*
X95372857Y-81210000D01*
X95801428Y-81138571D02*
X96658571Y-81138571D01*
X96230000Y-82638571D02*
X96230000Y-81138571D01*
X98230000Y-81067142D02*
X96944285Y-82995714D01*
X90587142Y-83588571D02*
X90872857Y-83588571D01*
X91015714Y-83660000D01*
X91158571Y-83802857D01*
X91230000Y-84088571D01*
X91230000Y-84588571D01*
X91158571Y-84874285D01*
X91015714Y-85017142D01*
X90872857Y-85088571D01*
X90587142Y-85088571D01*
X90444285Y-85017142D01*
X90301428Y-84874285D01*
X90230000Y-84588571D01*
X90230000Y-84088571D01*
X90301428Y-83802857D01*
X90444285Y-83660000D01*
X90587142Y-83588571D01*
X92372857Y-84302857D02*
X91872857Y-84302857D01*
X91872857Y-85088571D02*
X91872857Y-83588571D01*
X92587142Y-83588571D01*
X93658571Y-84302857D02*
X93158571Y-84302857D01*
X93158571Y-85088571D02*
X93158571Y-83588571D01*
X93872857Y-83588571D01*
X94372857Y-85017142D02*
X94587142Y-85088571D01*
X94944285Y-85088571D01*
X95087142Y-85017142D01*
X95158571Y-84945714D01*
X95230000Y-84802857D01*
X95230000Y-84660000D01*
X95158571Y-84517142D01*
X95087142Y-84445714D01*
X94944285Y-84374285D01*
X94658571Y-84302857D01*
X94515714Y-84231428D01*
X94444285Y-84160000D01*
X94372857Y-84017142D01*
X94372857Y-83874285D01*
X94444285Y-83731428D01*
X94515714Y-83660000D01*
X94658571Y-83588571D01*
X95015714Y-83588571D01*
X95230000Y-83660000D01*
X95872857Y-84302857D02*
X96372857Y-84302857D01*
X96587142Y-85088571D02*
X95872857Y-85088571D01*
X95872857Y-83588571D01*
X96587142Y-83588571D01*
X97015714Y-83588571D02*
X97872857Y-83588571D01*
X97444285Y-85088571D02*
X97444285Y-83588571D01*
D11*
X83320000Y-85097857D02*
X83272380Y-85193095D01*
X83272380Y-85335952D01*
X83320000Y-85478809D01*
X83415238Y-85574047D01*
X83510476Y-85621666D01*
X83700952Y-85669285D01*
X83843809Y-85669285D01*
X84034285Y-85621666D01*
X84129523Y-85574047D01*
X84224761Y-85478809D01*
X84272380Y-85335952D01*
X84272380Y-85240714D01*
X84224761Y-85097857D01*
X84177142Y-85050238D01*
X83843809Y-85050238D01*
X83843809Y-85240714D01*
X83605714Y-84621666D02*
X84272380Y-84621666D01*
X83700952Y-84621666D02*
X83653333Y-84574047D01*
X83605714Y-84478809D01*
X83605714Y-84335952D01*
X83653333Y-84240714D01*
X83748571Y-84193095D01*
X84272380Y-84193095D01*
X84272380Y-83288333D02*
X83272380Y-83288333D01*
X84224761Y-83288333D02*
X84272380Y-83383571D01*
X84272380Y-83574047D01*
X84224761Y-83669285D01*
X84177142Y-83716904D01*
X84081904Y-83764523D01*
X83796190Y-83764523D01*
X83700952Y-83716904D01*
X83653333Y-83669285D01*
X83605714Y-83574047D01*
X83605714Y-83383571D01*
X83653333Y-83288333D01*
X103806666Y-84542380D02*
X104473333Y-84542380D01*
X104044761Y-85542380D01*
X86312380Y-84542380D02*
X86407619Y-84542380D01*
X86502857Y-84590000D01*
X86550476Y-84637619D01*
X86598095Y-84732857D01*
X86645714Y-84923333D01*
X86645714Y-85161428D01*
X86598095Y-85351904D01*
X86550476Y-85447142D01*
X86502857Y-85494761D01*
X86407619Y-85542380D01*
X86312380Y-85542380D01*
X86217142Y-85494761D01*
X86169523Y-85447142D01*
X86121904Y-85351904D01*
X86074285Y-85161428D01*
X86074285Y-84923333D01*
X86121904Y-84732857D01*
X86169523Y-84637619D01*
X86217142Y-84590000D01*
X86312380Y-84542380D01*
D10*
X132200000Y-106930000D02*
X132914285Y-106930000D01*
X132057142Y-107358571D02*
X132557142Y-105858571D01*
X133057142Y-107358571D01*
X134200000Y-107358571D02*
X134200000Y-105858571D01*
X134200000Y-107287142D02*
X134057142Y-107358571D01*
X133771428Y-107358571D01*
X133628571Y-107287142D01*
X133557142Y-107215714D01*
X133485714Y-107072857D01*
X133485714Y-106644285D01*
X133557142Y-106501428D01*
X133628571Y-106430000D01*
X133771428Y-106358571D01*
X134057142Y-106358571D01*
X134200000Y-106430000D01*
X135557142Y-107358571D02*
X135557142Y-105858571D01*
X135557142Y-107287142D02*
X135414285Y-107358571D01*
X135128571Y-107358571D01*
X134985714Y-107287142D01*
X134914285Y-107215714D01*
X134842857Y-107072857D01*
X134842857Y-106644285D01*
X134914285Y-106501428D01*
X134985714Y-106430000D01*
X135128571Y-106358571D01*
X135414285Y-106358571D01*
X135557142Y-106430000D01*
X136271428Y-107358571D02*
X136271428Y-106358571D01*
X136271428Y-106644285D02*
X136342857Y-106501428D01*
X136414285Y-106430000D01*
X136557142Y-106358571D01*
X136700000Y-106358571D01*
X138628571Y-105858571D02*
X138914285Y-105858571D01*
X139057142Y-105930000D01*
X139200000Y-106072857D01*
X139271428Y-106358571D01*
X139271428Y-106858571D01*
X139200000Y-107144285D01*
X139057142Y-107287142D01*
X138914285Y-107358571D01*
X138628571Y-107358571D01*
X138485714Y-107287142D01*
X138342857Y-107144285D01*
X138271428Y-106858571D01*
X138271428Y-106358571D01*
X138342857Y-106072857D01*
X138485714Y-105930000D01*
X138628571Y-105858571D01*
X139771428Y-106358571D02*
X140128571Y-107358571D01*
X140485714Y-106358571D01*
X141628571Y-107287142D02*
X141485714Y-107358571D01*
X141200000Y-107358571D01*
X141057142Y-107287142D01*
X140985714Y-107144285D01*
X140985714Y-106572857D01*
X141057142Y-106430000D01*
X141200000Y-106358571D01*
X141485714Y-106358571D01*
X141628571Y-106430000D01*
X141700000Y-106572857D01*
X141700000Y-106715714D01*
X140985714Y-106858571D01*
X142342857Y-107358571D02*
X142342857Y-106358571D01*
X142342857Y-106644285D02*
X142414285Y-106501428D01*
X142485714Y-106430000D01*
X142628571Y-106358571D01*
X142771428Y-106358571D01*
X143057142Y-106358571D02*
X143628571Y-106358571D01*
X143271428Y-107358571D02*
X143271428Y-106072857D01*
X143342857Y-105930000D01*
X143485714Y-105858571D01*
X143628571Y-105858571D01*
X144342857Y-107358571D02*
X144200000Y-107287142D01*
X144128571Y-107144285D01*
X144128571Y-105858571D01*
X145128571Y-107358571D02*
X144985714Y-107287142D01*
X144914285Y-107215714D01*
X144842857Y-107072857D01*
X144842857Y-106644285D01*
X144914285Y-106501428D01*
X144985714Y-106430000D01*
X145128571Y-106358571D01*
X145342857Y-106358571D01*
X145485714Y-106430000D01*
X145557142Y-106501428D01*
X145628571Y-106644285D01*
X145628571Y-107072857D01*
X145557142Y-107215714D01*
X145485714Y-107287142D01*
X145342857Y-107358571D01*
X145128571Y-107358571D01*
X146128571Y-106358571D02*
X146414285Y-107358571D01*
X146700000Y-106644285D01*
X146985714Y-107358571D01*
X147271428Y-106358571D01*
X59726428Y-100437142D02*
X60869285Y-100437142D01*
X60297857Y-101008571D02*
X60297857Y-99865714D01*
X62369285Y-101008571D02*
X61512142Y-101008571D01*
X61940714Y-101008571D02*
X61940714Y-99508571D01*
X61797857Y-99722857D01*
X61655000Y-99865714D01*
X61512142Y-99937142D01*
X64083571Y-99437142D02*
X62797857Y-101365714D01*
X65440714Y-100865714D02*
X65369285Y-100937142D01*
X65155000Y-101008571D01*
X65012142Y-101008571D01*
X64797857Y-100937142D01*
X64655000Y-100794285D01*
X64583571Y-100651428D01*
X64512142Y-100365714D01*
X64512142Y-100151428D01*
X64583571Y-99865714D01*
X64655000Y-99722857D01*
X64797857Y-99580000D01*
X65012142Y-99508571D01*
X65155000Y-99508571D01*
X65369285Y-99580000D01*
X65440714Y-99651428D01*
X66369285Y-99508571D02*
X66655000Y-99508571D01*
X66797857Y-99580000D01*
X66940714Y-99722857D01*
X67012142Y-100008571D01*
X67012142Y-100508571D01*
X66940714Y-100794285D01*
X66797857Y-100937142D01*
X66655000Y-101008571D01*
X66369285Y-101008571D01*
X66226428Y-100937142D01*
X66083571Y-100794285D01*
X66012142Y-100508571D01*
X66012142Y-100008571D01*
X66083571Y-99722857D01*
X66226428Y-99580000D01*
X66369285Y-99508571D01*
X67655000Y-101008571D02*
X67655000Y-99508571D01*
X68512142Y-101008571D01*
X68512142Y-99508571D01*
X69155000Y-100937142D02*
X69369285Y-101008571D01*
X69726428Y-101008571D01*
X69869285Y-100937142D01*
X69940714Y-100865714D01*
X70012142Y-100722857D01*
X70012142Y-100580000D01*
X69940714Y-100437142D01*
X69869285Y-100365714D01*
X69726428Y-100294285D01*
X69440714Y-100222857D01*
X69297857Y-100151428D01*
X69226428Y-100080000D01*
X69155000Y-99937142D01*
X69155000Y-99794285D01*
X69226428Y-99651428D01*
X69297857Y-99580000D01*
X69440714Y-99508571D01*
X69797857Y-99508571D01*
X70012142Y-99580000D01*
X70440714Y-99508571D02*
X71297857Y-99508571D01*
X70869285Y-101008571D02*
X70869285Y-99508571D01*
X142986428Y-50137142D02*
X143200714Y-50208571D01*
X143557857Y-50208571D01*
X143700714Y-50137142D01*
X143772142Y-50065714D01*
X143843571Y-49922857D01*
X143843571Y-49780000D01*
X143772142Y-49637142D01*
X143700714Y-49565714D01*
X143557857Y-49494285D01*
X143272142Y-49422857D01*
X143129285Y-49351428D01*
X143057857Y-49280000D01*
X142986428Y-49137142D01*
X142986428Y-48994285D01*
X143057857Y-48851428D01*
X143129285Y-48780000D01*
X143272142Y-48708571D01*
X143629285Y-48708571D01*
X143843571Y-48780000D01*
X144272142Y-48708571D02*
X145129285Y-48708571D01*
X144700714Y-50208571D02*
X144700714Y-48708571D01*
X145629285Y-49422857D02*
X146129285Y-49422857D01*
X146343571Y-50208571D02*
X145629285Y-50208571D01*
X145629285Y-48708571D01*
X146343571Y-48708571D01*
X146986428Y-50208571D02*
X146986428Y-48708571D01*
X147557857Y-48708571D01*
X147700714Y-48780000D01*
X147772142Y-48851428D01*
X147843571Y-48994285D01*
X147843571Y-49208571D01*
X147772142Y-49351428D01*
X147700714Y-49422857D01*
X147557857Y-49494285D01*
X146986428Y-49494285D01*
X111760000Y-110490000D02*
X111760000Y-12700000D01*
D12*
X129270238Y-44386190D02*
X129175000Y-44290952D01*
X129079761Y-44100476D01*
X129079761Y-43624285D01*
X129175000Y-43433809D01*
X129270238Y-43338571D01*
X129460714Y-43243333D01*
X129651190Y-43243333D01*
X129936904Y-43338571D01*
X131079761Y-44481428D01*
X131079761Y-43243333D01*
X129079761Y-42576666D02*
X129079761Y-41243333D01*
X131079761Y-42100476D01*
X129079761Y-40671904D02*
X129079761Y-39433809D01*
X129841666Y-40100476D01*
X129841666Y-39814761D01*
X129936904Y-39624285D01*
X130032142Y-39529047D01*
X130222619Y-39433809D01*
X130698809Y-39433809D01*
X130889285Y-39529047D01*
X130984523Y-39624285D01*
X131079761Y-39814761D01*
X131079761Y-40386190D01*
X130984523Y-40576666D01*
X130889285Y-40671904D01*
D11*
X101052380Y-69897619D02*
X101052380Y-69802380D01*
X101100000Y-69707142D01*
X101147619Y-69659523D01*
X101242857Y-69611904D01*
X101433333Y-69564285D01*
X101671428Y-69564285D01*
X101861904Y-69611904D01*
X101957142Y-69659523D01*
X102004761Y-69707142D01*
X102052380Y-69802380D01*
X102052380Y-69897619D01*
X102004761Y-69992857D01*
X101957142Y-70040476D01*
X101861904Y-70088095D01*
X101671428Y-70135714D01*
X101433333Y-70135714D01*
X101242857Y-70088095D01*
X101147619Y-70040476D01*
X101100000Y-69992857D01*
X101052380Y-69897619D01*
X102052380Y-31940476D02*
X102052380Y-32511904D01*
X102052380Y-32226190D02*
X101052380Y-32226190D01*
X101195238Y-32321428D01*
X101290476Y-32416666D01*
X101338095Y-32511904D01*
X101052380Y-31035714D02*
X101052380Y-31511904D01*
X101528571Y-31559523D01*
X101480952Y-31511904D01*
X101433333Y-31416666D01*
X101433333Y-31178571D01*
X101480952Y-31083333D01*
X101528571Y-31035714D01*
X101623809Y-30988095D01*
X101861904Y-30988095D01*
X101957142Y-31035714D01*
X102004761Y-31083333D01*
X102052380Y-31178571D01*
X102052380Y-31416666D01*
X102004761Y-31511904D01*
X101957142Y-31559523D01*
X29662380Y-30670476D02*
X29662380Y-31241904D01*
X29662380Y-30956190D02*
X28662380Y-30956190D01*
X28805238Y-31051428D01*
X28900476Y-31146666D01*
X28948095Y-31241904D01*
X28662380Y-29765714D02*
X28662380Y-30241904D01*
X29138571Y-30289523D01*
X29090952Y-30241904D01*
X29043333Y-30146666D01*
X29043333Y-29908571D01*
X29090952Y-29813333D01*
X29138571Y-29765714D01*
X29233809Y-29718095D01*
X29471904Y-29718095D01*
X29567142Y-29765714D01*
X29614761Y-29813333D01*
X29662380Y-29908571D01*
X29662380Y-30146666D01*
X29614761Y-30241904D01*
X29567142Y-30289523D01*
X28662380Y-68627619D02*
X28662380Y-68532380D01*
X28710000Y-68437142D01*
X28757619Y-68389523D01*
X28852857Y-68341904D01*
X29043333Y-68294285D01*
X29281428Y-68294285D01*
X29471904Y-68341904D01*
X29567142Y-68389523D01*
X29614761Y-68437142D01*
X29662380Y-68532380D01*
X29662380Y-68627619D01*
X29614761Y-68722857D01*
X29567142Y-68770476D01*
X29471904Y-68818095D01*
X29281428Y-68865714D01*
X29043333Y-68865714D01*
X28852857Y-68818095D01*
X28757619Y-68770476D01*
X28710000Y-68722857D01*
X28662380Y-68627619D01*
X96020000Y-73032857D02*
X95972380Y-73128095D01*
X95972380Y-73270952D01*
X96020000Y-73413809D01*
X96115238Y-73509047D01*
X96210476Y-73556666D01*
X96400952Y-73604285D01*
X96543809Y-73604285D01*
X96734285Y-73556666D01*
X96829523Y-73509047D01*
X96924761Y-73413809D01*
X96972380Y-73270952D01*
X96972380Y-73175714D01*
X96924761Y-73032857D01*
X96877142Y-72985238D01*
X96543809Y-72985238D01*
X96543809Y-73175714D01*
X96305714Y-72556666D02*
X96972380Y-72556666D01*
X96400952Y-72556666D02*
X96353333Y-72509047D01*
X96305714Y-72413809D01*
X96305714Y-72270952D01*
X96353333Y-72175714D01*
X96448571Y-72128095D01*
X96972380Y-72128095D01*
X96972380Y-71223333D02*
X95972380Y-71223333D01*
X96924761Y-71223333D02*
X96972380Y-71318571D01*
X96972380Y-71509047D01*
X96924761Y-71604285D01*
X96877142Y-71651904D01*
X96781904Y-71699523D01*
X96496190Y-71699523D01*
X96400952Y-71651904D01*
X96353333Y-71604285D01*
X96305714Y-71509047D01*
X96305714Y-71318571D01*
X96353333Y-71223333D01*
X101100000Y-73032857D02*
X101052380Y-73128095D01*
X101052380Y-73270952D01*
X101100000Y-73413809D01*
X101195238Y-73509047D01*
X101290476Y-73556666D01*
X101480952Y-73604285D01*
X101623809Y-73604285D01*
X101814285Y-73556666D01*
X101909523Y-73509047D01*
X102004761Y-73413809D01*
X102052380Y-73270952D01*
X102052380Y-73175714D01*
X102004761Y-73032857D01*
X101957142Y-72985238D01*
X101623809Y-72985238D01*
X101623809Y-73175714D01*
X101385714Y-72556666D02*
X102052380Y-72556666D01*
X101480952Y-72556666D02*
X101433333Y-72509047D01*
X101385714Y-72413809D01*
X101385714Y-72270952D01*
X101433333Y-72175714D01*
X101528571Y-72128095D01*
X102052380Y-72128095D01*
X102052380Y-71223333D02*
X101052380Y-71223333D01*
X102004761Y-71223333D02*
X102052380Y-71318571D01*
X102052380Y-71509047D01*
X102004761Y-71604285D01*
X101957142Y-71651904D01*
X101861904Y-71699523D01*
X101576190Y-71699523D01*
X101480952Y-71651904D01*
X101433333Y-71604285D01*
X101385714Y-71509047D01*
X101385714Y-71318571D01*
X101433333Y-71223333D01*
X35060000Y-73032857D02*
X35012380Y-73128095D01*
X35012380Y-73270952D01*
X35060000Y-73413809D01*
X35155238Y-73509047D01*
X35250476Y-73556666D01*
X35440952Y-73604285D01*
X35583809Y-73604285D01*
X35774285Y-73556666D01*
X35869523Y-73509047D01*
X35964761Y-73413809D01*
X36012380Y-73270952D01*
X36012380Y-73175714D01*
X35964761Y-73032857D01*
X35917142Y-72985238D01*
X35583809Y-72985238D01*
X35583809Y-73175714D01*
X35345714Y-72556666D02*
X36012380Y-72556666D01*
X35440952Y-72556666D02*
X35393333Y-72509047D01*
X35345714Y-72413809D01*
X35345714Y-72270952D01*
X35393333Y-72175714D01*
X35488571Y-72128095D01*
X36012380Y-72128095D01*
X36012380Y-71223333D02*
X35012380Y-71223333D01*
X35964761Y-71223333D02*
X36012380Y-71318571D01*
X36012380Y-71509047D01*
X35964761Y-71604285D01*
X35917142Y-71651904D01*
X35821904Y-71699523D01*
X35536190Y-71699523D01*
X35440952Y-71651904D01*
X35393333Y-71604285D01*
X35345714Y-71509047D01*
X35345714Y-71318571D01*
X35393333Y-71223333D01*
X28710000Y-71762857D02*
X28662380Y-71858095D01*
X28662380Y-72000952D01*
X28710000Y-72143809D01*
X28805238Y-72239047D01*
X28900476Y-72286666D01*
X29090952Y-72334285D01*
X29233809Y-72334285D01*
X29424285Y-72286666D01*
X29519523Y-72239047D01*
X29614761Y-72143809D01*
X29662380Y-72000952D01*
X29662380Y-71905714D01*
X29614761Y-71762857D01*
X29567142Y-71715238D01*
X29233809Y-71715238D01*
X29233809Y-71905714D01*
X28995714Y-71286666D02*
X29662380Y-71286666D01*
X29090952Y-71286666D02*
X29043333Y-71239047D01*
X28995714Y-71143809D01*
X28995714Y-71000952D01*
X29043333Y-70905714D01*
X29138571Y-70858095D01*
X29662380Y-70858095D01*
X29662380Y-69953333D02*
X28662380Y-69953333D01*
X29614761Y-69953333D02*
X29662380Y-70048571D01*
X29662380Y-70239047D01*
X29614761Y-70334285D01*
X29567142Y-70381904D01*
X29471904Y-70429523D01*
X29186190Y-70429523D01*
X29090952Y-70381904D01*
X29043333Y-70334285D01*
X28995714Y-70239047D01*
X28995714Y-70048571D01*
X29043333Y-69953333D01*
X17280000Y-73032857D02*
X17232380Y-73128095D01*
X17232380Y-73270952D01*
X17280000Y-73413809D01*
X17375238Y-73509047D01*
X17470476Y-73556666D01*
X17660952Y-73604285D01*
X17803809Y-73604285D01*
X17994285Y-73556666D01*
X18089523Y-73509047D01*
X18184761Y-73413809D01*
X18232380Y-73270952D01*
X18232380Y-73175714D01*
X18184761Y-73032857D01*
X18137142Y-72985238D01*
X17803809Y-72985238D01*
X17803809Y-73175714D01*
X17565714Y-72556666D02*
X18232380Y-72556666D01*
X17660952Y-72556666D02*
X17613333Y-72509047D01*
X17565714Y-72413809D01*
X17565714Y-72270952D01*
X17613333Y-72175714D01*
X17708571Y-72128095D01*
X18232380Y-72128095D01*
X18232380Y-71223333D02*
X17232380Y-71223333D01*
X18184761Y-71223333D02*
X18232380Y-71318571D01*
X18232380Y-71509047D01*
X18184761Y-71604285D01*
X18137142Y-71651904D01*
X18041904Y-71699523D01*
X17756190Y-71699523D01*
X17660952Y-71651904D01*
X17613333Y-71604285D01*
X17565714Y-71509047D01*
X17565714Y-71318571D01*
X17613333Y-71223333D01*
D12*
X129270238Y-72326190D02*
X129175000Y-72230952D01*
X129079761Y-72040476D01*
X129079761Y-71564285D01*
X129175000Y-71373809D01*
X129270238Y-71278571D01*
X129460714Y-71183333D01*
X129651190Y-71183333D01*
X129936904Y-71278571D01*
X131079761Y-72421428D01*
X131079761Y-71183333D01*
X129079761Y-70516666D02*
X129079761Y-69183333D01*
X131079761Y-70040476D01*
X129079761Y-68611904D02*
X129079761Y-67373809D01*
X129841666Y-68040476D01*
X129841666Y-67754761D01*
X129936904Y-67564285D01*
X130032142Y-67469047D01*
X130222619Y-67373809D01*
X130698809Y-67373809D01*
X130889285Y-67469047D01*
X130984523Y-67564285D01*
X131079761Y-67754761D01*
X131079761Y-68326190D01*
X130984523Y-68516666D01*
X130889285Y-68611904D01*
D13*
X37048571Y-78783571D02*
X36191428Y-78783571D01*
X36620000Y-78783571D02*
X36620000Y-77283571D01*
X36477142Y-77497857D01*
X36334285Y-77640714D01*
X36191428Y-77712142D01*
X38334285Y-77283571D02*
X38048571Y-77283571D01*
X37905714Y-77355000D01*
X37834285Y-77426428D01*
X37691428Y-77640714D01*
X37620000Y-77926428D01*
X37620000Y-78497857D01*
X37691428Y-78640714D01*
X37762857Y-78712142D01*
X37905714Y-78783571D01*
X38191428Y-78783571D01*
X38334285Y-78712142D01*
X38405714Y-78640714D01*
X38477142Y-78497857D01*
X38477142Y-78140714D01*
X38405714Y-77997857D01*
X38334285Y-77926428D01*
X38191428Y-77855000D01*
X37905714Y-77855000D01*
X37762857Y-77926428D01*
X37691428Y-77997857D01*
X37620000Y-78140714D01*
X40262857Y-78783571D02*
X40262857Y-77283571D01*
X40262857Y-77855000D02*
X40405714Y-77783571D01*
X40691428Y-77783571D01*
X40834285Y-77855000D01*
X40905714Y-77926428D01*
X40977142Y-78069285D01*
X40977142Y-78497857D01*
X40905714Y-78640714D01*
X40834285Y-78712142D01*
X40691428Y-78783571D01*
X40405714Y-78783571D01*
X40262857Y-78712142D01*
X41620000Y-78783571D02*
X41620000Y-77783571D01*
X41620000Y-77283571D02*
X41548571Y-77355000D01*
X41620000Y-77426428D01*
X41691428Y-77355000D01*
X41620000Y-77283571D01*
X41620000Y-77426428D01*
X42120000Y-77783571D02*
X42691428Y-77783571D01*
X42334285Y-77283571D02*
X42334285Y-78569285D01*
X42405714Y-78712142D01*
X42548571Y-78783571D01*
X42691428Y-78783571D01*
X34227380Y-81804761D02*
X34227380Y-79804761D01*
X34894047Y-81233333D01*
X35560714Y-79804761D01*
X35560714Y-81804761D01*
X36513095Y-79804761D02*
X36513095Y-81423809D01*
X36608333Y-81614285D01*
X36703571Y-81709523D01*
X36894047Y-81804761D01*
X37275000Y-81804761D01*
X37465476Y-81709523D01*
X37560714Y-81614285D01*
X37655952Y-81423809D01*
X37655952Y-79804761D01*
X38417857Y-79804761D02*
X39751190Y-81804761D01*
X39751190Y-79804761D02*
X38417857Y-81804761D01*
X41370238Y-80471428D02*
X41370238Y-81804761D01*
X40894047Y-79709523D02*
X40417857Y-81138095D01*
X41655952Y-81138095D01*
X42417857Y-81614285D02*
X42513095Y-81709523D01*
X42417857Y-81804761D01*
X42322619Y-81709523D01*
X42417857Y-81614285D01*
X42417857Y-81804761D01*
X42417857Y-80566666D02*
X42513095Y-80661904D01*
X42417857Y-80757142D01*
X42322619Y-80661904D01*
X42417857Y-80566666D01*
X42417857Y-80757142D01*
X44417857Y-81804761D02*
X43275000Y-81804761D01*
X43846428Y-81804761D02*
X43846428Y-79804761D01*
X43655952Y-80090476D01*
X43465476Y-80280952D01*
X43275000Y-80376190D01*
X48417857Y-81804761D02*
X48322619Y-81804761D01*
X48132142Y-81709523D01*
X47846428Y-81423809D01*
X47370238Y-80852380D01*
X47179761Y-80566666D01*
X47084523Y-80280952D01*
X47084523Y-80090476D01*
X47179761Y-79900000D01*
X47370238Y-79804761D01*
X47465476Y-79804761D01*
X47655952Y-79900000D01*
X47751190Y-80090476D01*
X47751190Y-80185714D01*
X47655952Y-80376190D01*
X47560714Y-80471428D01*
X46989285Y-80852380D01*
X46894047Y-80947619D01*
X46798809Y-81138095D01*
X46798809Y-81423809D01*
X46894047Y-81614285D01*
X46989285Y-81709523D01*
X47179761Y-81804761D01*
X47465476Y-81804761D01*
X47655952Y-81709523D01*
X47751190Y-81614285D01*
X48036904Y-81233333D01*
X48132142Y-80947619D01*
X48132142Y-80757142D01*
X29370238Y-84533333D02*
X30322619Y-84533333D01*
X29179761Y-85104761D02*
X29846428Y-83104761D01*
X30513095Y-85104761D01*
X32036904Y-85104761D02*
X32036904Y-83104761D01*
X32036904Y-85009523D02*
X31846428Y-85104761D01*
X31465476Y-85104761D01*
X31275000Y-85009523D01*
X31179761Y-84914285D01*
X31084523Y-84723809D01*
X31084523Y-84152380D01*
X31179761Y-83961904D01*
X31275000Y-83866666D01*
X31465476Y-83771428D01*
X31846428Y-83771428D01*
X32036904Y-83866666D01*
X33846428Y-85104761D02*
X33846428Y-83104761D01*
X33846428Y-85009523D02*
X33655952Y-85104761D01*
X33275000Y-85104761D01*
X33084523Y-85009523D01*
X32989285Y-84914285D01*
X32894047Y-84723809D01*
X32894047Y-84152380D01*
X32989285Y-83961904D01*
X33084523Y-83866666D01*
X33275000Y-83771428D01*
X33655952Y-83771428D01*
X33846428Y-83866666D01*
X34798809Y-85104761D02*
X34798809Y-83771428D01*
X34798809Y-84152380D02*
X34894047Y-83961904D01*
X34989285Y-83866666D01*
X35179761Y-83771428D01*
X35370238Y-83771428D01*
X36798809Y-85009523D02*
X36608333Y-85104761D01*
X36227380Y-85104761D01*
X36036904Y-85009523D01*
X35941666Y-84819047D01*
X35941666Y-84057142D01*
X36036904Y-83866666D01*
X36227380Y-83771428D01*
X36608333Y-83771428D01*
X36798809Y-83866666D01*
X36894047Y-84057142D01*
X36894047Y-84247619D01*
X35941666Y-84438095D01*
X37655952Y-85009523D02*
X37846428Y-85104761D01*
X38227380Y-85104761D01*
X38417857Y-85009523D01*
X38513095Y-84819047D01*
X38513095Y-84723809D01*
X38417857Y-84533333D01*
X38227380Y-84438095D01*
X37941666Y-84438095D01*
X37751190Y-84342857D01*
X37655952Y-84152380D01*
X37655952Y-84057142D01*
X37751190Y-83866666D01*
X37941666Y-83771428D01*
X38227380Y-83771428D01*
X38417857Y-83866666D01*
X39275000Y-85009523D02*
X39465476Y-85104761D01*
X39846428Y-85104761D01*
X40036904Y-85009523D01*
X40132142Y-84819047D01*
X40132142Y-84723809D01*
X40036904Y-84533333D01*
X39846428Y-84438095D01*
X39560714Y-84438095D01*
X39370238Y-84342857D01*
X39275000Y-84152380D01*
X39275000Y-84057142D01*
X39370238Y-83866666D01*
X39560714Y-83771428D01*
X39846428Y-83771428D01*
X40036904Y-83866666D01*
X43655952Y-84914285D02*
X43560714Y-85009523D01*
X43275000Y-85104761D01*
X43084523Y-85104761D01*
X42798809Y-85009523D01*
X42608333Y-84819047D01*
X42513095Y-84628571D01*
X42417857Y-84247619D01*
X42417857Y-83961904D01*
X42513095Y-83580952D01*
X42608333Y-83390476D01*
X42798809Y-83200000D01*
X43084523Y-83104761D01*
X43275000Y-83104761D01*
X43560714Y-83200000D01*
X43655952Y-83295238D01*
X44798809Y-85104761D02*
X44608333Y-85009523D01*
X44513095Y-84914285D01*
X44417857Y-84723809D01*
X44417857Y-84152380D01*
X44513095Y-83961904D01*
X44608333Y-83866666D01*
X44798809Y-83771428D01*
X45084523Y-83771428D01*
X45275000Y-83866666D01*
X45370238Y-83961904D01*
X45465476Y-84152380D01*
X45465476Y-84723809D01*
X45370238Y-84914285D01*
X45275000Y-85009523D01*
X45084523Y-85104761D01*
X44798809Y-85104761D01*
X47179761Y-83771428D02*
X47179761Y-85104761D01*
X46322619Y-83771428D02*
X46322619Y-84819047D01*
X46417857Y-85009523D01*
X46608333Y-85104761D01*
X46894047Y-85104761D01*
X47084523Y-85009523D01*
X47179761Y-84914285D01*
X48132142Y-83771428D02*
X48132142Y-85104761D01*
X48132142Y-83961904D02*
X48227380Y-83866666D01*
X48417857Y-83771428D01*
X48703571Y-83771428D01*
X48894047Y-83866666D01*
X48989285Y-84057142D01*
X48989285Y-85104761D01*
X49655952Y-83771428D02*
X50417857Y-83771428D01*
X49941666Y-83104761D02*
X49941666Y-84819047D01*
X50036904Y-85009523D01*
X50227380Y-85104761D01*
X50417857Y-85104761D01*
X51846428Y-85009523D02*
X51655952Y-85104761D01*
X51275000Y-85104761D01*
X51084523Y-85009523D01*
X50989285Y-84819047D01*
X50989285Y-84057142D01*
X51084523Y-83866666D01*
X51275000Y-83771428D01*
X51655952Y-83771428D01*
X51846428Y-83866666D01*
X51941666Y-84057142D01*
X51941666Y-84247619D01*
X50989285Y-84438095D01*
X52798809Y-85104761D02*
X52798809Y-83771428D01*
X52798809Y-84152380D02*
X52894047Y-83961904D01*
X52989285Y-83866666D01*
X53179761Y-83771428D01*
X53370238Y-83771428D01*
X35719285Y-86808571D02*
X36719285Y-86808571D01*
X36076428Y-88308571D01*
X37933571Y-87308571D02*
X37933571Y-88308571D01*
X37576428Y-86737142D02*
X37219285Y-87808571D01*
X38147857Y-87808571D01*
X38719285Y-88308571D02*
X38719285Y-86808571D01*
X38719285Y-87522857D02*
X39576428Y-87522857D01*
X39576428Y-88308571D02*
X39576428Y-86808571D01*
X41147857Y-88165714D02*
X41076428Y-88237142D01*
X40862142Y-88308571D01*
X40719285Y-88308571D01*
X40505000Y-88237142D01*
X40362142Y-88094285D01*
X40290714Y-87951428D01*
X40219285Y-87665714D01*
X40219285Y-87451428D01*
X40290714Y-87165714D01*
X40362142Y-87022857D01*
X40505000Y-86880000D01*
X40719285Y-86808571D01*
X40862142Y-86808571D01*
X41076428Y-86880000D01*
X41147857Y-86951428D01*
X41790714Y-88308571D02*
X41790714Y-86808571D01*
X42362142Y-86808571D01*
X42505000Y-86880000D01*
X42576428Y-86951428D01*
X42647857Y-87094285D01*
X42647857Y-87308571D01*
X42576428Y-87451428D01*
X42505000Y-87522857D01*
X42362142Y-87594285D01*
X41790714Y-87594285D01*
X43290714Y-86808571D02*
X43290714Y-88022857D01*
X43362142Y-88165714D01*
X43433571Y-88237142D01*
X43576428Y-88308571D01*
X43862142Y-88308571D01*
X44005000Y-88237142D01*
X44076428Y-88165714D01*
X44147857Y-88022857D01*
X44147857Y-86808571D01*
D11*
X18232380Y-31940476D02*
X18232380Y-32511904D01*
X18232380Y-32226190D02*
X17232380Y-32226190D01*
X17375238Y-32321428D01*
X17470476Y-32416666D01*
X17518095Y-32511904D01*
X17232380Y-31035714D02*
X17232380Y-31511904D01*
X17708571Y-31559523D01*
X17660952Y-31511904D01*
X17613333Y-31416666D01*
X17613333Y-31178571D01*
X17660952Y-31083333D01*
X17708571Y-31035714D01*
X17803809Y-30988095D01*
X18041904Y-30988095D01*
X18137142Y-31035714D01*
X18184761Y-31083333D01*
X18232380Y-31178571D01*
X18232380Y-31416666D01*
X18184761Y-31511904D01*
X18137142Y-31559523D01*
X17232380Y-69897619D02*
X17232380Y-69802380D01*
X17280000Y-69707142D01*
X17327619Y-69659523D01*
X17422857Y-69611904D01*
X17613333Y-69564285D01*
X17851428Y-69564285D01*
X18041904Y-69611904D01*
X18137142Y-69659523D01*
X18184761Y-69707142D01*
X18232380Y-69802380D01*
X18232380Y-69897619D01*
X18184761Y-69992857D01*
X18137142Y-70040476D01*
X18041904Y-70088095D01*
X17851428Y-70135714D01*
X17613333Y-70135714D01*
X17422857Y-70088095D01*
X17327619Y-70040476D01*
X17280000Y-69992857D01*
X17232380Y-69897619D01*
D10*
X14418571Y-28805000D02*
X14418571Y-28519285D01*
X14490000Y-28376428D01*
X14632857Y-28233571D01*
X14918571Y-28162142D01*
X15418571Y-28162142D01*
X15704285Y-28233571D01*
X15847142Y-28376428D01*
X15918571Y-28519285D01*
X15918571Y-28805000D01*
X15847142Y-28947857D01*
X15704285Y-29090714D01*
X15418571Y-29162142D01*
X14918571Y-29162142D01*
X14632857Y-29090714D01*
X14490000Y-28947857D01*
X14418571Y-28805000D01*
X14418571Y-27519285D02*
X15632857Y-27519285D01*
X15775714Y-27447857D01*
X15847142Y-27376428D01*
X15918571Y-27233571D01*
X15918571Y-26947857D01*
X15847142Y-26805000D01*
X15775714Y-26733571D01*
X15632857Y-26662142D01*
X14418571Y-26662142D01*
X14418571Y-26162142D02*
X14418571Y-25305000D01*
X15918571Y-25733571D02*
X14418571Y-25733571D01*
X92051428Y-18522142D02*
X93194285Y-18522142D01*
X92622857Y-19093571D02*
X92622857Y-17950714D01*
X94622857Y-17593571D02*
X93908571Y-17593571D01*
X93837142Y-18307857D01*
X93908571Y-18236428D01*
X94051428Y-18165000D01*
X94408571Y-18165000D01*
X94551428Y-18236428D01*
X94622857Y-18307857D01*
X94694285Y-18450714D01*
X94694285Y-18807857D01*
X94622857Y-18950714D01*
X94551428Y-19022142D01*
X94408571Y-19093571D01*
X94051428Y-19093571D01*
X93908571Y-19022142D01*
X93837142Y-18950714D01*
X95122857Y-17593571D02*
X95622857Y-19093571D01*
X96122857Y-17593571D01*
X108255714Y-17665000D02*
X108112857Y-17593571D01*
X107898571Y-17593571D01*
X107684285Y-17665000D01*
X107541428Y-17807857D01*
X107470000Y-17950714D01*
X107398571Y-18236428D01*
X107398571Y-18450714D01*
X107470000Y-18736428D01*
X107541428Y-18879285D01*
X107684285Y-19022142D01*
X107898571Y-19093571D01*
X108041428Y-19093571D01*
X108255714Y-19022142D01*
X108327142Y-18950714D01*
X108327142Y-18450714D01*
X108041428Y-18450714D01*
X108970000Y-18093571D02*
X108970000Y-19093571D01*
X108970000Y-18236428D02*
X109041428Y-18165000D01*
X109184285Y-18093571D01*
X109398571Y-18093571D01*
X109541428Y-18165000D01*
X109612857Y-18307857D01*
X109612857Y-19093571D01*
X110970000Y-19093571D02*
X110970000Y-17593571D01*
X110970000Y-19022142D02*
X110827142Y-19093571D01*
X110541428Y-19093571D01*
X110398571Y-19022142D01*
X110327142Y-18950714D01*
X110255714Y-18807857D01*
X110255714Y-18379285D01*
X110327142Y-18236428D01*
X110398571Y-18165000D01*
X110541428Y-18093571D01*
X110827142Y-18093571D01*
X110970000Y-18165000D01*
X76327142Y-25372142D02*
X76541428Y-25443571D01*
X76898571Y-25443571D01*
X77041428Y-25372142D01*
X77112857Y-25300714D01*
X77184285Y-25157857D01*
X77184285Y-25015000D01*
X77112857Y-24872142D01*
X77041428Y-24800714D01*
X76898571Y-24729285D01*
X76612857Y-24657857D01*
X76470000Y-24586428D01*
X76398571Y-24515000D01*
X76327142Y-24372142D01*
X76327142Y-24229285D01*
X76398571Y-24086428D01*
X76470000Y-24015000D01*
X76612857Y-23943571D01*
X76970000Y-23943571D01*
X77184285Y-24015000D01*
X78112857Y-23943571D02*
X78255714Y-23943571D01*
X78398571Y-24015000D01*
X78470000Y-24086428D01*
X78541428Y-24229285D01*
X78612857Y-24515000D01*
X78612857Y-24872142D01*
X78541428Y-25157857D01*
X78470000Y-25300714D01*
X78398571Y-25372142D01*
X78255714Y-25443571D01*
X78112857Y-25443571D01*
X77970000Y-25372142D01*
X77898571Y-25300714D01*
X77827142Y-25157857D01*
X77755714Y-24872142D01*
X77755714Y-24515000D01*
X77827142Y-24229285D01*
X77898571Y-24086428D01*
X77970000Y-24015000D01*
X78112857Y-23943571D01*
X79331428Y-23425000D02*
X80688571Y-23425000D01*
X79688571Y-24657857D02*
X80188571Y-24657857D01*
X80402857Y-25443571D02*
X79688571Y-25443571D01*
X79688571Y-23943571D01*
X80402857Y-23943571D01*
X81407142Y-25372142D02*
X81621428Y-25443571D01*
X81978571Y-25443571D01*
X82121428Y-25372142D01*
X82192857Y-25300714D01*
X82264285Y-25157857D01*
X82264285Y-25015000D01*
X82192857Y-24872142D01*
X82121428Y-24800714D01*
X81978571Y-24729285D01*
X81692857Y-24657857D01*
X81550000Y-24586428D01*
X81478571Y-24515000D01*
X81407142Y-24372142D01*
X81407142Y-24229285D01*
X81478571Y-24086428D01*
X81550000Y-24015000D01*
X81692857Y-23943571D01*
X82050000Y-23943571D01*
X82264285Y-24015000D01*
X83692857Y-25443571D02*
X82835714Y-25443571D01*
X83264285Y-25443571D02*
X83264285Y-23943571D01*
X83121428Y-24157857D01*
X82978571Y-24300714D01*
X82835714Y-24372142D01*
X104818571Y-28332857D02*
X103318571Y-28332857D01*
X103318571Y-27975714D01*
X103390000Y-27761428D01*
X103532857Y-27618571D01*
X103675714Y-27547142D01*
X103961428Y-27475714D01*
X104175714Y-27475714D01*
X104461428Y-27547142D01*
X104604285Y-27618571D01*
X104747142Y-27761428D01*
X104818571Y-27975714D01*
X104818571Y-28332857D01*
X99595714Y-28745714D02*
X99667142Y-28817142D01*
X99738571Y-29031428D01*
X99738571Y-29174285D01*
X99667142Y-29388571D01*
X99524285Y-29531428D01*
X99381428Y-29602857D01*
X99095714Y-29674285D01*
X98881428Y-29674285D01*
X98595714Y-29602857D01*
X98452857Y-29531428D01*
X98310000Y-29388571D01*
X98238571Y-29174285D01*
X98238571Y-29031428D01*
X98310000Y-28817142D01*
X98381428Y-28745714D01*
X32912857Y-28467857D02*
X32984285Y-28253571D01*
X33055714Y-28182142D01*
X33198571Y-28110714D01*
X33412857Y-28110714D01*
X33555714Y-28182142D01*
X33627142Y-28253571D01*
X33698571Y-28396428D01*
X33698571Y-28967857D01*
X32198571Y-28967857D01*
X32198571Y-28467857D01*
X32270000Y-28325000D01*
X32341428Y-28253571D01*
X32484285Y-28182142D01*
X32627142Y-28182142D01*
X32770000Y-28253571D01*
X32841428Y-28325000D01*
X32912857Y-28467857D01*
X32912857Y-28967857D01*
X26920000Y-28297142D02*
X26920000Y-27582857D01*
X27348571Y-28440000D02*
X25848571Y-27940000D01*
X27348571Y-27440000D01*
D11*
X96972380Y-31940476D02*
X96972380Y-32511904D01*
X96972380Y-32226190D02*
X95972380Y-32226190D01*
X96115238Y-32321428D01*
X96210476Y-32416666D01*
X96258095Y-32511904D01*
X95972380Y-31035714D02*
X95972380Y-31511904D01*
X96448571Y-31559523D01*
X96400952Y-31511904D01*
X96353333Y-31416666D01*
X96353333Y-31178571D01*
X96400952Y-31083333D01*
X96448571Y-31035714D01*
X96543809Y-30988095D01*
X96781904Y-30988095D01*
X96877142Y-31035714D01*
X96924761Y-31083333D01*
X96972380Y-31178571D01*
X96972380Y-31416666D01*
X96924761Y-31511904D01*
X96877142Y-31559523D01*
X95972380Y-69897619D02*
X95972380Y-69802380D01*
X96020000Y-69707142D01*
X96067619Y-69659523D01*
X96162857Y-69611904D01*
X96353333Y-69564285D01*
X96591428Y-69564285D01*
X96781904Y-69611904D01*
X96877142Y-69659523D01*
X96924761Y-69707142D01*
X96972380Y-69802380D01*
X96972380Y-69897619D01*
X96924761Y-69992857D01*
X96877142Y-70040476D01*
X96781904Y-70088095D01*
X96591428Y-70135714D01*
X96353333Y-70135714D01*
X96162857Y-70088095D01*
X96067619Y-70040476D01*
X96020000Y-69992857D01*
X95972380Y-69897619D01*
X36012380Y-31940476D02*
X36012380Y-32511904D01*
X36012380Y-32226190D02*
X35012380Y-32226190D01*
X35155238Y-32321428D01*
X35250476Y-32416666D01*
X35298095Y-32511904D01*
X35012380Y-31035714D02*
X35012380Y-31511904D01*
X35488571Y-31559523D01*
X35440952Y-31511904D01*
X35393333Y-31416666D01*
X35393333Y-31178571D01*
X35440952Y-31083333D01*
X35488571Y-31035714D01*
X35583809Y-30988095D01*
X35821904Y-30988095D01*
X35917142Y-31035714D01*
X35964761Y-31083333D01*
X36012380Y-31178571D01*
X36012380Y-31416666D01*
X35964761Y-31511904D01*
X35917142Y-31559523D01*
X35012380Y-69897619D02*
X35012380Y-69802380D01*
X35060000Y-69707142D01*
X35107619Y-69659523D01*
X35202857Y-69611904D01*
X35393333Y-69564285D01*
X35631428Y-69564285D01*
X35821904Y-69611904D01*
X35917142Y-69659523D01*
X35964761Y-69707142D01*
X36012380Y-69802380D01*
X36012380Y-69897619D01*
X35964761Y-69992857D01*
X35917142Y-70040476D01*
X35821904Y-70088095D01*
X35631428Y-70135714D01*
X35393333Y-70135714D01*
X35202857Y-70088095D01*
X35107619Y-70040476D01*
X35060000Y-69992857D01*
X35012380Y-69897619D01*
D14*
%TO.C,J11*%
X138370000Y-48200000D02*
X139700000Y-48200000D01*
X138370000Y-49530000D02*
X138370000Y-48200000D01*
X138370000Y-50800000D02*
X141030000Y-50800000D01*
X141030000Y-50800000D02*
X141030000Y-50860000D01*
X138370000Y-50800000D02*
X138370000Y-50860000D01*
X138370000Y-50860000D02*
X141030000Y-50860000D01*
%TO.C,J10*%
X72330000Y-99000000D02*
X73660000Y-99000000D01*
X72330000Y-100330000D02*
X72330000Y-99000000D01*
X72330000Y-101600000D02*
X74990000Y-101600000D01*
X74990000Y-101600000D02*
X74990000Y-101660000D01*
X72330000Y-101600000D02*
X72330000Y-101660000D01*
X72330000Y-101660000D02*
X74990000Y-101660000D01*
D11*
%TO.C,U9*%
X142240000Y-19685000D02*
X142240000Y-76200000D01*
X107950000Y-19685000D02*
X142240000Y-19685000D01*
X107950000Y-76200000D02*
X107950000Y-19685000D01*
X142240000Y-76200000D02*
X107950000Y-76200000D01*
%TO.C,U8*%
X95250000Y-35560000D02*
X36830000Y-35560000D01*
X95250000Y-29210000D02*
X95250000Y-35560000D01*
X36830000Y-29210000D02*
X95250000Y-29210000D01*
X36830000Y-35560000D02*
X36830000Y-29210000D01*
%TO.C,U7*%
X95250000Y-40640000D02*
X36830000Y-40640000D01*
X95250000Y-34290000D02*
X95250000Y-40640000D01*
X36830000Y-34290000D02*
X95250000Y-34290000D01*
X36830000Y-40640000D02*
X36830000Y-34290000D01*
%TO.C,U6*%
X95250000Y-45720000D02*
X36830000Y-45720000D01*
X95250000Y-39370000D02*
X95250000Y-45720000D01*
X36830000Y-39370000D02*
X95250000Y-39370000D01*
X36830000Y-45720000D02*
X36830000Y-39370000D01*
%TO.C,U5*%
X95250000Y-50800000D02*
X36830000Y-50800000D01*
X95250000Y-44450000D02*
X95250000Y-50800000D01*
X36830000Y-44450000D02*
X95250000Y-44450000D01*
X36830000Y-50800000D02*
X36830000Y-44450000D01*
%TO.C,U4*%
X95250000Y-55880000D02*
X36830000Y-55880000D01*
X95250000Y-49530000D02*
X95250000Y-55880000D01*
X36830000Y-49530000D02*
X95250000Y-49530000D01*
X36830000Y-55880000D02*
X36830000Y-49530000D01*
%TO.C,U3*%
X95250000Y-60960000D02*
X36830000Y-60960000D01*
X95250000Y-54610000D02*
X95250000Y-60960000D01*
X36830000Y-54610000D02*
X95250000Y-54610000D01*
X36830000Y-60960000D02*
X36830000Y-54610000D01*
%TO.C,U2*%
X95250000Y-66040000D02*
X36830000Y-66040000D01*
X95250000Y-59690000D02*
X95250000Y-66040000D01*
X36830000Y-59690000D02*
X95250000Y-59690000D01*
X36830000Y-66040000D02*
X36830000Y-59690000D01*
%TO.C,U1*%
X95250000Y-71120000D02*
X36830000Y-71120000D01*
X95250000Y-64770000D02*
X95250000Y-71120000D01*
X36830000Y-64770000D02*
X95250000Y-64770000D01*
X36830000Y-71120000D02*
X36830000Y-64770000D01*
D14*
%TO.C,J9*%
X82490000Y-86300000D02*
X82490000Y-88960000D01*
X102870000Y-86300000D02*
X82490000Y-86300000D01*
X102870000Y-88960000D02*
X82490000Y-88960000D01*
X102870000Y-86300000D02*
X102870000Y-88960000D01*
X104140000Y-86300000D02*
X105470000Y-86300000D01*
X105470000Y-86300000D02*
X105470000Y-87630000D01*
%TO.C,U14*%
X129175000Y-22800000D02*
X127525000Y-22800000D01*
X127525000Y-22800000D02*
X127525000Y-48320000D01*
X127525000Y-48320000D02*
X132825000Y-48320000D01*
X132825000Y-48320000D02*
X132825000Y-22800000D01*
X132825000Y-22800000D02*
X131175000Y-22800000D01*
X131175000Y-22800000D02*
G75*
G02*
X129175000Y-22800000I-1000000J0D01*
G01*
%TO.C,U13*%
X129175000Y-50740000D02*
X127525000Y-50740000D01*
X127525000Y-50740000D02*
X127525000Y-76260000D01*
X127525000Y-76260000D02*
X132825000Y-76260000D01*
X132825000Y-76260000D02*
X132825000Y-50740000D01*
X132825000Y-50740000D02*
X131175000Y-50740000D01*
X131175000Y-50740000D02*
G75*
G02*
X129175000Y-50740000I-1000000J0D01*
G01*
D11*
%TO.C,U12*%
X162560000Y-105410000D02*
X78740000Y-105410000D01*
X162560000Y-97790000D02*
X162560000Y-105410000D01*
X78740000Y-97790000D02*
X162560000Y-97790000D01*
X78740000Y-105410000D02*
X78740000Y-97790000D01*
%TO.C,U11*%
X139700000Y-97790000D02*
X55880000Y-97790000D01*
X139700000Y-90170000D02*
X139700000Y-97790000D01*
X55880000Y-90170000D02*
X139700000Y-90170000D01*
X55880000Y-97790000D02*
X55880000Y-90170000D01*
D14*
%TO.C,J5*%
X13910000Y-33020000D02*
X16570000Y-33020000D01*
X13910000Y-33020000D02*
X13910000Y-73720000D01*
X13910000Y-73720000D02*
X16570000Y-73720000D01*
X16570000Y-33020000D02*
X16570000Y-73720000D01*
X16570000Y-30420000D02*
X16570000Y-31750000D01*
X15240000Y-30420000D02*
X16570000Y-30420000D01*
%TO.C,J4*%
X102810000Y-31750000D02*
X105470000Y-31750000D01*
X102810000Y-31750000D02*
X102810000Y-72450000D01*
X102810000Y-72450000D02*
X105470000Y-72450000D01*
X105470000Y-31750000D02*
X105470000Y-72450000D01*
X105470000Y-29150000D02*
X105470000Y-30480000D01*
X104140000Y-29150000D02*
X105470000Y-29150000D01*
%TO.C,J3*%
X97730000Y-33020000D02*
X100390000Y-33020000D01*
X97730000Y-33020000D02*
X97730000Y-73720000D01*
X97730000Y-73720000D02*
X100390000Y-73720000D01*
X100390000Y-33020000D02*
X100390000Y-73720000D01*
X100390000Y-30420000D02*
X100390000Y-31750000D01*
X99060000Y-30420000D02*
X100390000Y-30420000D01*
%TO.C,J2*%
X31690000Y-33020000D02*
X34350000Y-33020000D01*
X31690000Y-33020000D02*
X31690000Y-73720000D01*
X31690000Y-73720000D02*
X34350000Y-73720000D01*
X34350000Y-33020000D02*
X34350000Y-73720000D01*
X34350000Y-30420000D02*
X34350000Y-31750000D01*
X33020000Y-30420000D02*
X34350000Y-30420000D01*
%TO.C,J1*%
X25340000Y-31750000D02*
X28000000Y-31750000D01*
X25340000Y-31750000D02*
X25340000Y-72450000D01*
X25340000Y-72450000D02*
X28000000Y-72450000D01*
X28000000Y-31750000D02*
X28000000Y-72450000D01*
X28000000Y-29150000D02*
X28000000Y-30480000D01*
X26670000Y-29150000D02*
X28000000Y-29150000D01*
%TO.C,J8*%
X106940000Y-13750000D02*
X106540000Y-13750000D01*
X106940000Y-14390000D02*
X106940000Y-13750000D01*
X100398000Y-18058000D02*
X100793000Y-17662000D01*
X97752000Y-20704000D02*
X98132000Y-20324000D01*
X100147000Y-17776000D02*
X100527000Y-17396000D01*
X97486000Y-20438000D02*
X97881000Y-20042000D01*
X105688000Y-17769000D02*
X105794000Y-17662000D01*
X102752000Y-20704000D02*
X102859000Y-20597000D01*
X105422000Y-17503000D02*
X105528000Y-17396000D01*
X102486000Y-20438000D02*
X102593000Y-20331000D01*
X96580000Y-23110000D02*
X96580000Y-13990000D01*
X106700000Y-23110000D02*
X106700000Y-13990000D01*
X106700000Y-13990000D02*
X96580000Y-13990000D01*
X106700000Y-23110000D02*
X96580000Y-23110000D01*
X106700000Y-15550000D02*
X96580000Y-15550000D01*
X106700000Y-14450000D02*
X96580000Y-14450000D01*
X101320000Y-19050000D02*
G75*
G03*
X101320000Y-19050000I-2180000J0D01*
G01*
X106320000Y-19050000D02*
G75*
G03*
X106320000Y-19050000I-2180000J0D01*
G01*
%TO.C,J7*%
X76140000Y-28635000D02*
X76140000Y-27305000D01*
X77470000Y-28635000D02*
X76140000Y-28635000D01*
X78740000Y-28635000D02*
X78740000Y-25975000D01*
X78740000Y-25975000D02*
X83880000Y-25975000D01*
X78740000Y-28635000D02*
X83880000Y-28635000D01*
X83880000Y-28635000D02*
X83880000Y-25975000D01*
%TO.C,J6*%
X130870000Y-108010000D02*
X129540000Y-108010000D01*
X130870000Y-106680000D02*
X130870000Y-108010000D01*
X130870000Y-105410000D02*
X128210000Y-105410000D01*
X128210000Y-105410000D02*
X128210000Y-105350000D01*
X130870000Y-105410000D02*
X130870000Y-105350000D01*
X130870000Y-105350000D02*
X128210000Y-105350000D01*
%TO.C,U9*%
D11*
X123698095Y-76922380D02*
X123698095Y-77731904D01*
X123745714Y-77827142D01*
X123793333Y-77874761D01*
X123888571Y-77922380D01*
X124079047Y-77922380D01*
X124174285Y-77874761D01*
X124221904Y-77827142D01*
X124269523Y-77731904D01*
X124269523Y-76922380D01*
X124793333Y-77922380D02*
X124983809Y-77922380D01*
X125079047Y-77874761D01*
X125126666Y-77827142D01*
X125221904Y-77684285D01*
X125269523Y-77493809D01*
X125269523Y-77112857D01*
X125221904Y-77017619D01*
X125174285Y-76970000D01*
X125079047Y-76922380D01*
X124888571Y-76922380D01*
X124793333Y-76970000D01*
X124745714Y-77017619D01*
X124698095Y-77112857D01*
X124698095Y-77350952D01*
X124745714Y-77446190D01*
X124793333Y-77493809D01*
X124888571Y-77541428D01*
X125079047Y-77541428D01*
X125174285Y-77493809D01*
X125221904Y-77446190D01*
X125269523Y-77350952D01*
%TO.C,U8*%
X48982380Y-32511904D02*
X49791904Y-32511904D01*
X49887142Y-32464285D01*
X49934761Y-32416666D01*
X49982380Y-32321428D01*
X49982380Y-32130952D01*
X49934761Y-32035714D01*
X49887142Y-31988095D01*
X49791904Y-31940476D01*
X48982380Y-31940476D01*
X49410952Y-31321428D02*
X49363333Y-31416666D01*
X49315714Y-31464285D01*
X49220476Y-31511904D01*
X49172857Y-31511904D01*
X49077619Y-31464285D01*
X49030000Y-31416666D01*
X48982380Y-31321428D01*
X48982380Y-31130952D01*
X49030000Y-31035714D01*
X49077619Y-30988095D01*
X49172857Y-30940476D01*
X49220476Y-30940476D01*
X49315714Y-30988095D01*
X49363333Y-31035714D01*
X49410952Y-31130952D01*
X49410952Y-31321428D01*
X49458571Y-31416666D01*
X49506190Y-31464285D01*
X49601428Y-31511904D01*
X49791904Y-31511904D01*
X49887142Y-31464285D01*
X49934761Y-31416666D01*
X49982380Y-31321428D01*
X49982380Y-31130952D01*
X49934761Y-31035714D01*
X49887142Y-30988095D01*
X49791904Y-30940476D01*
X49601428Y-30940476D01*
X49506190Y-30988095D01*
X49458571Y-31035714D01*
X49410952Y-31130952D01*
%TO.C,U7*%
X48982380Y-38861904D02*
X49791904Y-38861904D01*
X49887142Y-38814285D01*
X49934761Y-38766666D01*
X49982380Y-38671428D01*
X49982380Y-38480952D01*
X49934761Y-38385714D01*
X49887142Y-38338095D01*
X49791904Y-38290476D01*
X48982380Y-38290476D01*
X48982380Y-37909523D02*
X48982380Y-37242857D01*
X49982380Y-37671428D01*
%TO.C,U6*%
X48982380Y-43941904D02*
X49791904Y-43941904D01*
X49887142Y-43894285D01*
X49934761Y-43846666D01*
X49982380Y-43751428D01*
X49982380Y-43560952D01*
X49934761Y-43465714D01*
X49887142Y-43418095D01*
X49791904Y-43370476D01*
X48982380Y-43370476D01*
X48982380Y-42465714D02*
X48982380Y-42656190D01*
X49030000Y-42751428D01*
X49077619Y-42799047D01*
X49220476Y-42894285D01*
X49410952Y-42941904D01*
X49791904Y-42941904D01*
X49887142Y-42894285D01*
X49934761Y-42846666D01*
X49982380Y-42751428D01*
X49982380Y-42560952D01*
X49934761Y-42465714D01*
X49887142Y-42418095D01*
X49791904Y-42370476D01*
X49553809Y-42370476D01*
X49458571Y-42418095D01*
X49410952Y-42465714D01*
X49363333Y-42560952D01*
X49363333Y-42751428D01*
X49410952Y-42846666D01*
X49458571Y-42894285D01*
X49553809Y-42941904D01*
%TO.C,U5*%
X48982380Y-49021904D02*
X49791904Y-49021904D01*
X49887142Y-48974285D01*
X49934761Y-48926666D01*
X49982380Y-48831428D01*
X49982380Y-48640952D01*
X49934761Y-48545714D01*
X49887142Y-48498095D01*
X49791904Y-48450476D01*
X48982380Y-48450476D01*
X48982380Y-47498095D02*
X48982380Y-47974285D01*
X49458571Y-48021904D01*
X49410952Y-47974285D01*
X49363333Y-47879047D01*
X49363333Y-47640952D01*
X49410952Y-47545714D01*
X49458571Y-47498095D01*
X49553809Y-47450476D01*
X49791904Y-47450476D01*
X49887142Y-47498095D01*
X49934761Y-47545714D01*
X49982380Y-47640952D01*
X49982380Y-47879047D01*
X49934761Y-47974285D01*
X49887142Y-48021904D01*
%TO.C,U4*%
X48982380Y-54101904D02*
X49791904Y-54101904D01*
X49887142Y-54054285D01*
X49934761Y-54006666D01*
X49982380Y-53911428D01*
X49982380Y-53720952D01*
X49934761Y-53625714D01*
X49887142Y-53578095D01*
X49791904Y-53530476D01*
X48982380Y-53530476D01*
X49315714Y-52625714D02*
X49982380Y-52625714D01*
X48934761Y-52863809D02*
X49649047Y-53101904D01*
X49649047Y-52482857D01*
%TO.C,U3*%
X48982380Y-59181904D02*
X49791904Y-59181904D01*
X49887142Y-59134285D01*
X49934761Y-59086666D01*
X49982380Y-58991428D01*
X49982380Y-58800952D01*
X49934761Y-58705714D01*
X49887142Y-58658095D01*
X49791904Y-58610476D01*
X48982380Y-58610476D01*
X48982380Y-58229523D02*
X48982380Y-57610476D01*
X49363333Y-57943809D01*
X49363333Y-57800952D01*
X49410952Y-57705714D01*
X49458571Y-57658095D01*
X49553809Y-57610476D01*
X49791904Y-57610476D01*
X49887142Y-57658095D01*
X49934761Y-57705714D01*
X49982380Y-57800952D01*
X49982380Y-58086666D01*
X49934761Y-58181904D01*
X49887142Y-58229523D01*
%TO.C,U2*%
X48982380Y-64261904D02*
X49791904Y-64261904D01*
X49887142Y-64214285D01*
X49934761Y-64166666D01*
X49982380Y-64071428D01*
X49982380Y-63880952D01*
X49934761Y-63785714D01*
X49887142Y-63738095D01*
X49791904Y-63690476D01*
X48982380Y-63690476D01*
X49077619Y-63261904D02*
X49030000Y-63214285D01*
X48982380Y-63119047D01*
X48982380Y-62880952D01*
X49030000Y-62785714D01*
X49077619Y-62738095D01*
X49172857Y-62690476D01*
X49268095Y-62690476D01*
X49410952Y-62738095D01*
X49982380Y-63309523D01*
X49982380Y-62690476D01*
%TO.C,U1*%
X48982380Y-69341904D02*
X49791904Y-69341904D01*
X49887142Y-69294285D01*
X49934761Y-69246666D01*
X49982380Y-69151428D01*
X49982380Y-68960952D01*
X49934761Y-68865714D01*
X49887142Y-68818095D01*
X49791904Y-68770476D01*
X48982380Y-68770476D01*
X49982380Y-67770476D02*
X49982380Y-68341904D01*
X49982380Y-68056190D02*
X48982380Y-68056190D01*
X49125238Y-68151428D01*
X49220476Y-68246666D01*
X49268095Y-68341904D01*
%TO.C,U14*%
X128936904Y-21042380D02*
X128936904Y-21851904D01*
X128984523Y-21947142D01*
X129032142Y-21994761D01*
X129127380Y-22042380D01*
X129317857Y-22042380D01*
X129413095Y-21994761D01*
X129460714Y-21947142D01*
X129508333Y-21851904D01*
X129508333Y-21042380D01*
X130508333Y-22042380D02*
X129936904Y-22042380D01*
X130222619Y-22042380D02*
X130222619Y-21042380D01*
X130127380Y-21185238D01*
X130032142Y-21280476D01*
X129936904Y-21328095D01*
X131365476Y-21375714D02*
X131365476Y-22042380D01*
X131127380Y-20994761D02*
X130889285Y-21709047D01*
X131508333Y-21709047D01*
%TO.C,U13*%
X128936904Y-76922380D02*
X128936904Y-77731904D01*
X128984523Y-77827142D01*
X129032142Y-77874761D01*
X129127380Y-77922380D01*
X129317857Y-77922380D01*
X129413095Y-77874761D01*
X129460714Y-77827142D01*
X129508333Y-77731904D01*
X129508333Y-76922380D01*
X130508333Y-77922380D02*
X129936904Y-77922380D01*
X130222619Y-77922380D02*
X130222619Y-76922380D01*
X130127380Y-77065238D01*
X130032142Y-77160476D01*
X129936904Y-77208095D01*
X130841666Y-76922380D02*
X131460714Y-76922380D01*
X131127380Y-77303333D01*
X131270238Y-77303333D01*
X131365476Y-77350952D01*
X131413095Y-77398571D01*
X131460714Y-77493809D01*
X131460714Y-77731904D01*
X131413095Y-77827142D01*
X131365476Y-77874761D01*
X131270238Y-77922380D01*
X130984523Y-77922380D01*
X130889285Y-77874761D01*
X130841666Y-77827142D01*
%TO.C,U12*%
X76287380Y-102838095D02*
X77096904Y-102838095D01*
X77192142Y-102790476D01*
X77239761Y-102742857D01*
X77287380Y-102647619D01*
X77287380Y-102457142D01*
X77239761Y-102361904D01*
X77192142Y-102314285D01*
X77096904Y-102266666D01*
X76287380Y-102266666D01*
X77287380Y-101266666D02*
X77287380Y-101838095D01*
X77287380Y-101552380D02*
X76287380Y-101552380D01*
X76430238Y-101647619D01*
X76525476Y-101742857D01*
X76573095Y-101838095D01*
X76382619Y-100885714D02*
X76335000Y-100838095D01*
X76287380Y-100742857D01*
X76287380Y-100504761D01*
X76335000Y-100409523D01*
X76382619Y-100361904D01*
X76477857Y-100314285D01*
X76573095Y-100314285D01*
X76715952Y-100361904D01*
X77287380Y-100933333D01*
X77287380Y-100314285D01*
%TO.C,U11*%
X53427380Y-95218095D02*
X54236904Y-95218095D01*
X54332142Y-95170476D01*
X54379761Y-95122857D01*
X54427380Y-95027619D01*
X54427380Y-94837142D01*
X54379761Y-94741904D01*
X54332142Y-94694285D01*
X54236904Y-94646666D01*
X53427380Y-94646666D01*
X54427380Y-93646666D02*
X54427380Y-94218095D01*
X54427380Y-93932380D02*
X53427380Y-93932380D01*
X53570238Y-94027619D01*
X53665476Y-94122857D01*
X53713095Y-94218095D01*
X54427380Y-92694285D02*
X54427380Y-93265714D01*
X54427380Y-92980000D02*
X53427380Y-92980000D01*
X53570238Y-93075238D01*
X53665476Y-93170476D01*
X53713095Y-93265714D01*
%TD*%
M02*
