M48
METRIC
T1C1.000
%
G90
G05
T1
X25.4Y-24.13
X27.94Y-24.13
X30.48Y-24.13
X33.02Y-24.13
X35.56Y-24.13
X38.1Y-24.13
X40.64Y-24.13
X43.18Y-24.13
X71.12Y-24.13
X73.66Y-24.13
X76.2Y-24.13
X78.74Y-24.13
X2.54Y-24.13
X5.08Y-24.13
X7.62Y-24.13
X10.16Y-24.13
X12.7Y-24.13
X15.24Y-24.13
X17.78Y-24.13
X20.32Y-24.13
X48.26Y-24.13
X50.8Y-24.13
X53.34Y-24.13
X55.88Y-24.13
X58.42Y-24.13
X60.96Y-24.13
X63.5Y-24.13
X66.04Y-24.13
T0
M30
