%TF.GenerationSoftware,KiCad,Pcbnew,(5.1.8)-1*%
%TF.CreationDate,2024-01-14T12:38:51+03:00*%
%TF.ProjectId,Toggle,546f6767-6c65-42e6-9b69-6361645f7063,rev?*%
%TF.SameCoordinates,Original*%
%TF.FileFunction,Soldermask,Top*%
%TF.FilePolarity,Negative*%
%FSLAX46Y46*%
G04 Gerber Fmt 4.6, Leading zero omitted, Abs format (unit mm)*
G04 Created by KiCad (PCBNEW (5.1.8)-1) date 2024-01-14 12:38:51*
%MOMM*%
%LPD*%
G01*
G04 APERTURE LIST*
%ADD10R,2.100000X1.500000*%
%ADD11O,2.100000X1.500000*%
%ADD12R,1.800000X1.500000*%
%ADD13O,1.800000X1.500000*%
G04 APERTURE END LIST*
D10*
%TO.C,J1*%
X12700000Y-13335000D03*
D11*
X12700000Y-15875000D03*
X12700000Y-18415000D03*
X12700000Y-20955000D03*
X12700000Y-23495000D03*
X12700000Y-26035000D03*
X12700000Y-28575000D03*
%TD*%
%TO.C,J2*%
X60960000Y-13335000D03*
X60960000Y-15875000D03*
X60960000Y-18415000D03*
X60960000Y-20955000D03*
X60960000Y-23495000D03*
X60960000Y-26035000D03*
D10*
X60960000Y-28575000D03*
%TD*%
D12*
%TO.C,U1*%
X33020000Y-14605000D03*
D13*
X40640000Y-29845000D03*
X33020000Y-17145000D03*
X40640000Y-27305000D03*
X33020000Y-19685000D03*
X40640000Y-24765000D03*
X33020000Y-22225000D03*
X40640000Y-22225000D03*
X33020000Y-24765000D03*
X40640000Y-19685000D03*
X33020000Y-27305000D03*
X40640000Y-17145000D03*
X33020000Y-29845000D03*
X40640000Y-14605000D03*
%TD*%
%TO.C,U2*%
X25400000Y-14605000D03*
X17780000Y-29845000D03*
X25400000Y-17145000D03*
X17780000Y-27305000D03*
X25400000Y-19685000D03*
X17780000Y-24765000D03*
X25400000Y-22225000D03*
X17780000Y-22225000D03*
X25400000Y-24765000D03*
X17780000Y-19685000D03*
X25400000Y-27305000D03*
X17780000Y-17145000D03*
X25400000Y-29845000D03*
D12*
X17780000Y-14605000D03*
%TD*%
%TO.C,U3*%
X48260000Y-12065000D03*
D13*
X55880000Y-29845000D03*
X48260000Y-14605000D03*
X55880000Y-27305000D03*
X48260000Y-17145000D03*
X55880000Y-24765000D03*
X48260000Y-19685000D03*
X55880000Y-22225000D03*
X48260000Y-22225000D03*
X55880000Y-19685000D03*
X48260000Y-24765000D03*
X55880000Y-17145000D03*
X48260000Y-27305000D03*
X55880000Y-14605000D03*
X48260000Y-29845000D03*
X55880000Y-12065000D03*
%TD*%
M02*
