%TF.GenerationSoftware,KiCad,Pcbnew,(5.1.8)-1*%
%TF.CreationDate,2024-01-14T12:38:51+03:00*%
%TF.ProjectId,Toggle,546f6767-6c65-42e6-9b69-6361645f7063,rev?*%
%TF.SameCoordinates,Original*%
%TF.FileFunction,Legend,Top*%
%TF.FilePolarity,Positive*%
%FSLAX46Y46*%
G04 Gerber Fmt 4.6, Leading zero omitted, Abs format (unit mm)*
G04 Created by KiCad (PCBNEW (5.1.8)-1) date 2024-01-14 12:38:51*
%MOMM*%
%LPD*%
G01*
G04 APERTURE LIST*
%ADD10C,0.250000*%
%ADD11C,0.150000*%
%ADD12C,0.120000*%
G04 APERTURE END LIST*
D10*
X11430714Y-31924761D02*
X12764047Y-31924761D01*
X11906904Y-33924761D01*
X14383095Y-32591428D02*
X14383095Y-33924761D01*
X13906904Y-31829523D02*
X13430714Y-33258095D01*
X14668809Y-33258095D01*
X15430714Y-33924761D02*
X15430714Y-31924761D01*
X15430714Y-32877142D02*
X16573571Y-32877142D01*
X16573571Y-33924761D02*
X16573571Y-31924761D01*
X18668809Y-33734285D02*
X18573571Y-33829523D01*
X18287857Y-33924761D01*
X18097380Y-33924761D01*
X17811666Y-33829523D01*
X17621190Y-33639047D01*
X17525952Y-33448571D01*
X17430714Y-33067619D01*
X17430714Y-32781904D01*
X17525952Y-32400952D01*
X17621190Y-32210476D01*
X17811666Y-32020000D01*
X18097380Y-31924761D01*
X18287857Y-31924761D01*
X18573571Y-32020000D01*
X18668809Y-32115238D01*
X19525952Y-33924761D02*
X19525952Y-31924761D01*
X20287857Y-31924761D01*
X20478333Y-32020000D01*
X20573571Y-32115238D01*
X20668809Y-32305714D01*
X20668809Y-32591428D01*
X20573571Y-32781904D01*
X20478333Y-32877142D01*
X20287857Y-32972380D01*
X19525952Y-32972380D01*
X21525952Y-31924761D02*
X21525952Y-33543809D01*
X21621190Y-33734285D01*
X21716428Y-33829523D01*
X21906904Y-33924761D01*
X22287857Y-33924761D01*
X22478333Y-33829523D01*
X22573571Y-33734285D01*
X22668809Y-33543809D01*
X22668809Y-31924761D01*
X42339285Y-31289761D02*
X43482142Y-31289761D01*
X42910714Y-33289761D02*
X42910714Y-31289761D01*
X44434523Y-33289761D02*
X44244047Y-33194523D01*
X44148809Y-33099285D01*
X44053571Y-32908809D01*
X44053571Y-32337380D01*
X44148809Y-32146904D01*
X44244047Y-32051666D01*
X44434523Y-31956428D01*
X44720238Y-31956428D01*
X44910714Y-32051666D01*
X45005952Y-32146904D01*
X45101190Y-32337380D01*
X45101190Y-32908809D01*
X45005952Y-33099285D01*
X44910714Y-33194523D01*
X44720238Y-33289761D01*
X44434523Y-33289761D01*
X46815476Y-31956428D02*
X46815476Y-33575476D01*
X46720238Y-33765952D01*
X46625000Y-33861190D01*
X46434523Y-33956428D01*
X46148809Y-33956428D01*
X45958333Y-33861190D01*
X46815476Y-33194523D02*
X46625000Y-33289761D01*
X46244047Y-33289761D01*
X46053571Y-33194523D01*
X45958333Y-33099285D01*
X45863095Y-32908809D01*
X45863095Y-32337380D01*
X45958333Y-32146904D01*
X46053571Y-32051666D01*
X46244047Y-31956428D01*
X46625000Y-31956428D01*
X46815476Y-32051666D01*
X48625000Y-31956428D02*
X48625000Y-33575476D01*
X48529761Y-33765952D01*
X48434523Y-33861190D01*
X48244047Y-33956428D01*
X47958333Y-33956428D01*
X47767857Y-33861190D01*
X48625000Y-33194523D02*
X48434523Y-33289761D01*
X48053571Y-33289761D01*
X47863095Y-33194523D01*
X47767857Y-33099285D01*
X47672619Y-32908809D01*
X47672619Y-32337380D01*
X47767857Y-32146904D01*
X47863095Y-32051666D01*
X48053571Y-31956428D01*
X48434523Y-31956428D01*
X48625000Y-32051666D01*
X49863095Y-33289761D02*
X49672619Y-33194523D01*
X49577380Y-33004047D01*
X49577380Y-31289761D01*
X51386904Y-33194523D02*
X51196428Y-33289761D01*
X50815476Y-33289761D01*
X50625000Y-33194523D01*
X50529761Y-33004047D01*
X50529761Y-32242142D01*
X50625000Y-32051666D01*
X50815476Y-31956428D01*
X51196428Y-31956428D01*
X51386904Y-32051666D01*
X51482142Y-32242142D01*
X51482142Y-32432619D01*
X50529761Y-32623095D01*
X52339285Y-33289761D02*
X52339285Y-31956428D01*
X52339285Y-32337380D02*
X52434523Y-32146904D01*
X52529761Y-32051666D01*
X52720238Y-31956428D01*
X52910714Y-31956428D01*
D11*
X57229523Y-12787380D02*
X57562857Y-13787380D01*
X57896190Y-12787380D01*
X58658095Y-13739761D02*
X58562857Y-13787380D01*
X58372380Y-13787380D01*
X58277142Y-13739761D01*
X58229523Y-13692142D01*
X58181904Y-13596904D01*
X58181904Y-13311190D01*
X58229523Y-13215952D01*
X58277142Y-13168333D01*
X58372380Y-13120714D01*
X58562857Y-13120714D01*
X58658095Y-13168333D01*
X59515238Y-13739761D02*
X59420000Y-13787380D01*
X59229523Y-13787380D01*
X59134285Y-13739761D01*
X59086666Y-13692142D01*
X59039047Y-13596904D01*
X59039047Y-13311190D01*
X59086666Y-13215952D01*
X59134285Y-13168333D01*
X59229523Y-13120714D01*
X59420000Y-13120714D01*
X59515238Y-13168333D01*
X58324761Y-16422619D02*
X58229523Y-16375000D01*
X58134285Y-16279761D01*
X57991428Y-16136904D01*
X57896190Y-16089285D01*
X57800952Y-16089285D01*
X57848571Y-16327380D02*
X57753333Y-16279761D01*
X57658095Y-16184523D01*
X57610476Y-15994047D01*
X57610476Y-15660714D01*
X57658095Y-15470238D01*
X57753333Y-15375000D01*
X57848571Y-15327380D01*
X58039047Y-15327380D01*
X58134285Y-15375000D01*
X58229523Y-15470238D01*
X58277142Y-15660714D01*
X58277142Y-15994047D01*
X58229523Y-16184523D01*
X58134285Y-16279761D01*
X58039047Y-16327380D01*
X57848571Y-16327380D01*
X58896190Y-15327380D02*
X58991428Y-15327380D01*
X59086666Y-15375000D01*
X59134285Y-15422619D01*
X59181904Y-15517857D01*
X59229523Y-15708333D01*
X59229523Y-15946428D01*
X59181904Y-16136904D01*
X59134285Y-16232142D01*
X59086666Y-16279761D01*
X58991428Y-16327380D01*
X58896190Y-16327380D01*
X58800952Y-16279761D01*
X58753333Y-16232142D01*
X58705714Y-16136904D01*
X58658095Y-15946428D01*
X58658095Y-15708333D01*
X58705714Y-15517857D01*
X58753333Y-15422619D01*
X58800952Y-15375000D01*
X58896190Y-15327380D01*
X58324761Y-18962619D02*
X58229523Y-18915000D01*
X58134285Y-18819761D01*
X57991428Y-18676904D01*
X57896190Y-18629285D01*
X57800952Y-18629285D01*
X57848571Y-18867380D02*
X57753333Y-18819761D01*
X57658095Y-18724523D01*
X57610476Y-18534047D01*
X57610476Y-18200714D01*
X57658095Y-18010238D01*
X57753333Y-17915000D01*
X57848571Y-17867380D01*
X58039047Y-17867380D01*
X58134285Y-17915000D01*
X58229523Y-18010238D01*
X58277142Y-18200714D01*
X58277142Y-18534047D01*
X58229523Y-18724523D01*
X58134285Y-18819761D01*
X58039047Y-18867380D01*
X57848571Y-18867380D01*
X59229523Y-18867380D02*
X58658095Y-18867380D01*
X58943809Y-18867380D02*
X58943809Y-17867380D01*
X58848571Y-18010238D01*
X58753333Y-18105476D01*
X58658095Y-18153095D01*
X57229523Y-20407380D02*
X57800952Y-20407380D01*
X57515238Y-21407380D02*
X57515238Y-20407380D01*
X58277142Y-21407380D02*
X58181904Y-21359761D01*
X58134285Y-21312142D01*
X58086666Y-21216904D01*
X58086666Y-20931190D01*
X58134285Y-20835952D01*
X58181904Y-20788333D01*
X58277142Y-20740714D01*
X58420000Y-20740714D01*
X58515238Y-20788333D01*
X58562857Y-20835952D01*
X58610476Y-20931190D01*
X58610476Y-21216904D01*
X58562857Y-21312142D01*
X58515238Y-21359761D01*
X58420000Y-21407380D01*
X58277142Y-21407380D01*
X59467619Y-20740714D02*
X59467619Y-21550238D01*
X59420000Y-21645476D01*
X59372380Y-21693095D01*
X59277142Y-21740714D01*
X59134285Y-21740714D01*
X59039047Y-21693095D01*
X59467619Y-21359761D02*
X59372380Y-21407380D01*
X59181904Y-21407380D01*
X59086666Y-21359761D01*
X59039047Y-21312142D01*
X58991428Y-21216904D01*
X58991428Y-20931190D01*
X59039047Y-20835952D01*
X59086666Y-20788333D01*
X59181904Y-20740714D01*
X59372380Y-20740714D01*
X59467619Y-20788333D01*
X58324761Y-24042619D02*
X58229523Y-23995000D01*
X58134285Y-23899761D01*
X57991428Y-23756904D01*
X57896190Y-23709285D01*
X57800952Y-23709285D01*
X57848571Y-23947380D02*
X57753333Y-23899761D01*
X57658095Y-23804523D01*
X57610476Y-23614047D01*
X57610476Y-23280714D01*
X57658095Y-23090238D01*
X57753333Y-22995000D01*
X57848571Y-22947380D01*
X58039047Y-22947380D01*
X58134285Y-22995000D01*
X58229523Y-23090238D01*
X58277142Y-23280714D01*
X58277142Y-23614047D01*
X58229523Y-23804523D01*
X58134285Y-23899761D01*
X58039047Y-23947380D01*
X57848571Y-23947380D01*
X58658095Y-23042619D02*
X58705714Y-22995000D01*
X58800952Y-22947380D01*
X59039047Y-22947380D01*
X59134285Y-22995000D01*
X59181904Y-23042619D01*
X59229523Y-23137857D01*
X59229523Y-23233095D01*
X59181904Y-23375952D01*
X58610476Y-23947380D01*
X59229523Y-23947380D01*
X58324761Y-26582619D02*
X58229523Y-26535000D01*
X58134285Y-26439761D01*
X57991428Y-26296904D01*
X57896190Y-26249285D01*
X57800952Y-26249285D01*
X57848571Y-26487380D02*
X57753333Y-26439761D01*
X57658095Y-26344523D01*
X57610476Y-26154047D01*
X57610476Y-25820714D01*
X57658095Y-25630238D01*
X57753333Y-25535000D01*
X57848571Y-25487380D01*
X58039047Y-25487380D01*
X58134285Y-25535000D01*
X58229523Y-25630238D01*
X58277142Y-25820714D01*
X58277142Y-26154047D01*
X58229523Y-26344523D01*
X58134285Y-26439761D01*
X58039047Y-26487380D01*
X57848571Y-26487380D01*
X58610476Y-25487380D02*
X59229523Y-25487380D01*
X58896190Y-25868333D01*
X59039047Y-25868333D01*
X59134285Y-25915952D01*
X59181904Y-25963571D01*
X59229523Y-26058809D01*
X59229523Y-26296904D01*
X59181904Y-26392142D01*
X59134285Y-26439761D01*
X59039047Y-26487380D01*
X58753333Y-26487380D01*
X58658095Y-26439761D01*
X58610476Y-26392142D01*
X58729523Y-28932142D02*
X58681904Y-28979761D01*
X58539047Y-29027380D01*
X58443809Y-29027380D01*
X58300952Y-28979761D01*
X58205714Y-28884523D01*
X58158095Y-28789285D01*
X58110476Y-28598809D01*
X58110476Y-28455952D01*
X58158095Y-28265476D01*
X58205714Y-28170238D01*
X58300952Y-28075000D01*
X58443809Y-28027380D01*
X58539047Y-28027380D01*
X58681904Y-28075000D01*
X58729523Y-28122619D01*
X14597142Y-28075000D02*
X14501904Y-28027380D01*
X14359047Y-28027380D01*
X14216190Y-28075000D01*
X14120952Y-28170238D01*
X14073333Y-28265476D01*
X14025714Y-28455952D01*
X14025714Y-28598809D01*
X14073333Y-28789285D01*
X14120952Y-28884523D01*
X14216190Y-28979761D01*
X14359047Y-29027380D01*
X14454285Y-29027380D01*
X14597142Y-28979761D01*
X14644761Y-28932142D01*
X14644761Y-28598809D01*
X14454285Y-28598809D01*
X15073333Y-28360714D02*
X15073333Y-29027380D01*
X15073333Y-28455952D02*
X15120952Y-28408333D01*
X15216190Y-28360714D01*
X15359047Y-28360714D01*
X15454285Y-28408333D01*
X15501904Y-28503571D01*
X15501904Y-29027380D01*
X16406666Y-29027380D02*
X16406666Y-28027380D01*
X16406666Y-28979761D02*
X16311428Y-29027380D01*
X16120952Y-29027380D01*
X16025714Y-28979761D01*
X15978095Y-28932142D01*
X15930476Y-28836904D01*
X15930476Y-28551190D01*
X15978095Y-28455952D01*
X16025714Y-28408333D01*
X16120952Y-28360714D01*
X16311428Y-28360714D01*
X16406666Y-28408333D01*
X14501904Y-26487380D02*
X14501904Y-25487380D01*
X14740000Y-25487380D01*
X14882857Y-25535000D01*
X14978095Y-25630238D01*
X15025714Y-25725476D01*
X15073333Y-25915952D01*
X15073333Y-26058809D01*
X15025714Y-26249285D01*
X14978095Y-26344523D01*
X14882857Y-26439761D01*
X14740000Y-26487380D01*
X14501904Y-26487380D01*
X15406666Y-25487380D02*
X16025714Y-25487380D01*
X15692380Y-25868333D01*
X15835238Y-25868333D01*
X15930476Y-25915952D01*
X15978095Y-25963571D01*
X16025714Y-26058809D01*
X16025714Y-26296904D01*
X15978095Y-26392142D01*
X15930476Y-26439761D01*
X15835238Y-26487380D01*
X15549523Y-26487380D01*
X15454285Y-26439761D01*
X15406666Y-26392142D01*
X14501904Y-23947380D02*
X14501904Y-22947380D01*
X14740000Y-22947380D01*
X14882857Y-22995000D01*
X14978095Y-23090238D01*
X15025714Y-23185476D01*
X15073333Y-23375952D01*
X15073333Y-23518809D01*
X15025714Y-23709285D01*
X14978095Y-23804523D01*
X14882857Y-23899761D01*
X14740000Y-23947380D01*
X14501904Y-23947380D01*
X15454285Y-23042619D02*
X15501904Y-22995000D01*
X15597142Y-22947380D01*
X15835238Y-22947380D01*
X15930476Y-22995000D01*
X15978095Y-23042619D01*
X16025714Y-23137857D01*
X16025714Y-23233095D01*
X15978095Y-23375952D01*
X15406666Y-23947380D01*
X16025714Y-23947380D01*
X14501904Y-18867380D02*
X14501904Y-17867380D01*
X14740000Y-17867380D01*
X14882857Y-17915000D01*
X14978095Y-18010238D01*
X15025714Y-18105476D01*
X15073333Y-18295952D01*
X15073333Y-18438809D01*
X15025714Y-18629285D01*
X14978095Y-18724523D01*
X14882857Y-18819761D01*
X14740000Y-18867380D01*
X14501904Y-18867380D01*
X16025714Y-18867380D02*
X15454285Y-18867380D01*
X15740000Y-18867380D02*
X15740000Y-17867380D01*
X15644761Y-18010238D01*
X15549523Y-18105476D01*
X15454285Y-18153095D01*
X14501904Y-16327380D02*
X14501904Y-15327380D01*
X14740000Y-15327380D01*
X14882857Y-15375000D01*
X14978095Y-15470238D01*
X15025714Y-15565476D01*
X15073333Y-15755952D01*
X15073333Y-15898809D01*
X15025714Y-16089285D01*
X14978095Y-16184523D01*
X14882857Y-16279761D01*
X14740000Y-16327380D01*
X14501904Y-16327380D01*
X15692380Y-15327380D02*
X15787619Y-15327380D01*
X15882857Y-15375000D01*
X15930476Y-15422619D01*
X15978095Y-15517857D01*
X16025714Y-15708333D01*
X16025714Y-15946428D01*
X15978095Y-16136904D01*
X15930476Y-16232142D01*
X15882857Y-16279761D01*
X15787619Y-16327380D01*
X15692380Y-16327380D01*
X15597142Y-16279761D01*
X15549523Y-16232142D01*
X15501904Y-16136904D01*
X15454285Y-15946428D01*
X15454285Y-15708333D01*
X15501904Y-15517857D01*
X15549523Y-15422619D01*
X15597142Y-15375000D01*
X15692380Y-15327380D01*
X14168571Y-12420000D02*
X15311428Y-12420000D01*
X14406666Y-13787380D02*
X14406666Y-12787380D01*
X14740000Y-13501666D01*
X15073333Y-12787380D01*
X15073333Y-13787380D01*
X15311428Y-12420000D02*
X16311428Y-12420000D01*
X16120952Y-13787380D02*
X15787619Y-13311190D01*
X15549523Y-13787380D02*
X15549523Y-12787380D01*
X15930476Y-12787380D01*
X16025714Y-12835000D01*
X16073333Y-12882619D01*
X16120952Y-12977857D01*
X16120952Y-13120714D01*
X16073333Y-13215952D01*
X16025714Y-13263571D01*
X15930476Y-13311190D01*
X15549523Y-13311190D01*
D10*
X52974761Y-26733333D02*
X52974761Y-27876190D01*
X52974761Y-27304761D02*
X50974761Y-27304761D01*
X51260476Y-27495238D01*
X51450952Y-27685714D01*
X51546190Y-27876190D01*
X50974761Y-26066666D02*
X50974761Y-24733333D01*
X52974761Y-25590476D01*
X50974761Y-23019047D02*
X50974761Y-23971428D01*
X51927142Y-24066666D01*
X51831904Y-23971428D01*
X51736666Y-23780952D01*
X51736666Y-23304761D01*
X51831904Y-23114285D01*
X51927142Y-23019047D01*
X52117619Y-22923809D01*
X52593809Y-22923809D01*
X52784285Y-23019047D01*
X52879523Y-23114285D01*
X52974761Y-23304761D01*
X52974761Y-23780952D01*
X52879523Y-23971428D01*
X52784285Y-24066666D01*
X35734761Y-26447619D02*
X35734761Y-26257142D01*
X35830000Y-26066666D01*
X35925238Y-25971428D01*
X36115714Y-25876190D01*
X36496666Y-25780952D01*
X36972857Y-25780952D01*
X37353809Y-25876190D01*
X37544285Y-25971428D01*
X37639523Y-26066666D01*
X37734761Y-26257142D01*
X37734761Y-26447619D01*
X37639523Y-26638095D01*
X37544285Y-26733333D01*
X37353809Y-26828571D01*
X36972857Y-26923809D01*
X36496666Y-26923809D01*
X36115714Y-26828571D01*
X35925238Y-26733333D01*
X35830000Y-26638095D01*
X35734761Y-26447619D01*
X36591904Y-24638095D02*
X36496666Y-24828571D01*
X36401428Y-24923809D01*
X36210952Y-25019047D01*
X36115714Y-25019047D01*
X35925238Y-24923809D01*
X35830000Y-24828571D01*
X35734761Y-24638095D01*
X35734761Y-24257142D01*
X35830000Y-24066666D01*
X35925238Y-23971428D01*
X36115714Y-23876190D01*
X36210952Y-23876190D01*
X36401428Y-23971428D01*
X36496666Y-24066666D01*
X36591904Y-24257142D01*
X36591904Y-24638095D01*
X36687142Y-24828571D01*
X36782380Y-24923809D01*
X36972857Y-25019047D01*
X37353809Y-25019047D01*
X37544285Y-24923809D01*
X37639523Y-24828571D01*
X37734761Y-24638095D01*
X37734761Y-24257142D01*
X37639523Y-24066666D01*
X37544285Y-23971428D01*
X37353809Y-23876190D01*
X36972857Y-23876190D01*
X36782380Y-23971428D01*
X36687142Y-24066666D01*
X36591904Y-24257142D01*
X21351904Y-26542857D02*
X21256666Y-26733333D01*
X21161428Y-26828571D01*
X20970952Y-26923809D01*
X20875714Y-26923809D01*
X20685238Y-26828571D01*
X20590000Y-26733333D01*
X20494761Y-26542857D01*
X20494761Y-26161904D01*
X20590000Y-25971428D01*
X20685238Y-25876190D01*
X20875714Y-25780952D01*
X20970952Y-25780952D01*
X21161428Y-25876190D01*
X21256666Y-25971428D01*
X21351904Y-26161904D01*
X21351904Y-26542857D01*
X21447142Y-26733333D01*
X21542380Y-26828571D01*
X21732857Y-26923809D01*
X22113809Y-26923809D01*
X22304285Y-26828571D01*
X22399523Y-26733333D01*
X22494761Y-26542857D01*
X22494761Y-26161904D01*
X22399523Y-25971428D01*
X22304285Y-25876190D01*
X22113809Y-25780952D01*
X21732857Y-25780952D01*
X21542380Y-25876190D01*
X21447142Y-25971428D01*
X21351904Y-26161904D01*
X20494761Y-24066666D02*
X20494761Y-24447619D01*
X20590000Y-24638095D01*
X20685238Y-24733333D01*
X20970952Y-24923809D01*
X21351904Y-25019047D01*
X22113809Y-25019047D01*
X22304285Y-24923809D01*
X22399523Y-24828571D01*
X22494761Y-24638095D01*
X22494761Y-24257142D01*
X22399523Y-24066666D01*
X22304285Y-23971428D01*
X22113809Y-23876190D01*
X21637619Y-23876190D01*
X21447142Y-23971428D01*
X21351904Y-24066666D01*
X21256666Y-24257142D01*
X21256666Y-24638095D01*
X21351904Y-24828571D01*
X21447142Y-24923809D01*
X21637619Y-25019047D01*
D12*
%TO.C,U1*%
X39480000Y-13275000D02*
X37830000Y-13275000D01*
X39480000Y-31175000D02*
X39480000Y-13275000D01*
X34180000Y-31175000D02*
X39480000Y-31175000D01*
X34180000Y-13275000D02*
X34180000Y-31175000D01*
X35830000Y-13275000D02*
X34180000Y-13275000D01*
X37830000Y-13275000D02*
G75*
G02*
X35830000Y-13275000I-1000000J0D01*
G01*
%TO.C,U2*%
X20590000Y-13275000D02*
X18940000Y-13275000D01*
X18940000Y-13275000D02*
X18940000Y-31175000D01*
X18940000Y-31175000D02*
X24240000Y-31175000D01*
X24240000Y-31175000D02*
X24240000Y-13275000D01*
X24240000Y-13275000D02*
X22590000Y-13275000D01*
X22590000Y-13275000D02*
G75*
G02*
X20590000Y-13275000I-1000000J0D01*
G01*
%TO.C,U3*%
X54720000Y-10735000D02*
X53070000Y-10735000D01*
X54720000Y-31175000D02*
X54720000Y-10735000D01*
X49420000Y-31175000D02*
X54720000Y-31175000D01*
X49420000Y-10735000D02*
X49420000Y-31175000D01*
X51070000Y-10735000D02*
X49420000Y-10735000D01*
X53070000Y-10735000D02*
G75*
G02*
X51070000Y-10735000I-1000000J0D01*
G01*
%TO.C,U1*%
D11*
X36068095Y-11727380D02*
X36068095Y-12536904D01*
X36115714Y-12632142D01*
X36163333Y-12679761D01*
X36258571Y-12727380D01*
X36449047Y-12727380D01*
X36544285Y-12679761D01*
X36591904Y-12632142D01*
X36639523Y-12536904D01*
X36639523Y-11727380D01*
X37639523Y-12727380D02*
X37068095Y-12727380D01*
X37353809Y-12727380D02*
X37353809Y-11727380D01*
X37258571Y-11870238D01*
X37163333Y-11965476D01*
X37068095Y-12013095D01*
%TO.C,U2*%
X20828095Y-11727380D02*
X20828095Y-12536904D01*
X20875714Y-12632142D01*
X20923333Y-12679761D01*
X21018571Y-12727380D01*
X21209047Y-12727380D01*
X21304285Y-12679761D01*
X21351904Y-12632142D01*
X21399523Y-12536904D01*
X21399523Y-11727380D01*
X21828095Y-11822619D02*
X21875714Y-11775000D01*
X21970952Y-11727380D01*
X22209047Y-11727380D01*
X22304285Y-11775000D01*
X22351904Y-11822619D01*
X22399523Y-11917857D01*
X22399523Y-12013095D01*
X22351904Y-12155952D01*
X21780476Y-12727380D01*
X22399523Y-12727380D01*
%TO.C,U3*%
X44323095Y-10882380D02*
X44323095Y-11691904D01*
X44370714Y-11787142D01*
X44418333Y-11834761D01*
X44513571Y-11882380D01*
X44704047Y-11882380D01*
X44799285Y-11834761D01*
X44846904Y-11787142D01*
X44894523Y-11691904D01*
X44894523Y-10882380D01*
X45275476Y-10882380D02*
X45894523Y-10882380D01*
X45561190Y-11263333D01*
X45704047Y-11263333D01*
X45799285Y-11310952D01*
X45846904Y-11358571D01*
X45894523Y-11453809D01*
X45894523Y-11691904D01*
X45846904Y-11787142D01*
X45799285Y-11834761D01*
X45704047Y-11882380D01*
X45418333Y-11882380D01*
X45323095Y-11834761D01*
X45275476Y-11787142D01*
%TD*%
M02*
