%TF.GenerationSoftware,KiCad,Pcbnew,(5.1.8)-1*%
%TF.CreationDate,2024-01-21T21:11:34+03:00*%
%TF.ProjectId,Regs-v3,52656773-2d76-4332-9e6b-696361645f70,rev?*%
%TF.SameCoordinates,Original*%
%TF.FileFunction,Legend,Bot*%
%TF.FilePolarity,Positive*%
%FSLAX46Y46*%
G04 Gerber Fmt 4.6, Leading zero omitted, Abs format (unit mm)*
G04 Created by KiCad (PCBNEW (5.1.8)-1) date 2024-01-21 21:11:34*
%MOMM*%
%LPD*%
G01*
G04 APERTURE LIST*
%ADD10C,0.300000*%
%ADD11C,0.150000*%
%ADD12C,0.120000*%
G04 APERTURE END LIST*
D10*
X69135000Y-23447380D02*
X69135000Y-24399761D01*
X69801666Y-22399761D02*
X69135000Y-23447380D01*
X68468333Y-22399761D01*
X67801666Y-24399761D02*
X67801666Y-22399761D01*
X67801666Y-23352142D02*
X66658809Y-23352142D01*
X66658809Y-24399761D02*
X66658809Y-22399761D01*
X65230238Y-25066428D02*
X65230238Y-22209285D01*
X63896904Y-24304523D02*
X63611190Y-24399761D01*
X63135000Y-24399761D01*
X62944523Y-24304523D01*
X62849285Y-24209285D01*
X62754047Y-24018809D01*
X62754047Y-23828333D01*
X62849285Y-23637857D01*
X62944523Y-23542619D01*
X63135000Y-23447380D01*
X63515952Y-23352142D01*
X63706428Y-23256904D01*
X63801666Y-23161666D01*
X63896904Y-22971190D01*
X63896904Y-22780714D01*
X63801666Y-22590238D01*
X63706428Y-22495000D01*
X63515952Y-22399761D01*
X63039761Y-22399761D01*
X62754047Y-22495000D01*
X61896904Y-24399761D02*
X61896904Y-22399761D01*
X61135000Y-22399761D01*
X60944523Y-22495000D01*
X60849285Y-22590238D01*
X60754047Y-22780714D01*
X60754047Y-23066428D01*
X60849285Y-23256904D01*
X60944523Y-23352142D01*
X61135000Y-23447380D01*
X61896904Y-23447380D01*
X59896904Y-24399761D02*
X59896904Y-22399761D01*
X59896904Y-23352142D02*
X58754047Y-23352142D01*
X58754047Y-24399761D02*
X58754047Y-22399761D01*
X142953809Y-23447380D02*
X142953809Y-24399761D01*
X143620476Y-22399761D02*
X142953809Y-23447380D01*
X142287142Y-22399761D01*
X140668095Y-24399761D02*
X141620476Y-24399761D01*
X141620476Y-22399761D01*
X139525238Y-25066428D02*
X139525238Y-22209285D01*
X138191904Y-24304523D02*
X137906190Y-24399761D01*
X137430000Y-24399761D01*
X137239523Y-24304523D01*
X137144285Y-24209285D01*
X137049047Y-24018809D01*
X137049047Y-23828333D01*
X137144285Y-23637857D01*
X137239523Y-23542619D01*
X137430000Y-23447380D01*
X137810952Y-23352142D01*
X138001428Y-23256904D01*
X138096666Y-23161666D01*
X138191904Y-22971190D01*
X138191904Y-22780714D01*
X138096666Y-22590238D01*
X138001428Y-22495000D01*
X137810952Y-22399761D01*
X137334761Y-22399761D01*
X137049047Y-22495000D01*
X136191904Y-24399761D02*
X136191904Y-22399761D01*
X135430000Y-22399761D01*
X135239523Y-22495000D01*
X135144285Y-22590238D01*
X135049047Y-22780714D01*
X135049047Y-23066428D01*
X135144285Y-23256904D01*
X135239523Y-23352142D01*
X135430000Y-23447380D01*
X136191904Y-23447380D01*
X133239523Y-24399761D02*
X134191904Y-24399761D01*
X134191904Y-22399761D01*
X151463333Y-92344761D02*
X152130000Y-91392380D01*
X152606190Y-92344761D02*
X152606190Y-90344761D01*
X151844285Y-90344761D01*
X151653809Y-90440000D01*
X151558571Y-90535238D01*
X151463333Y-90725714D01*
X151463333Y-91011428D01*
X151558571Y-91201904D01*
X151653809Y-91297142D01*
X151844285Y-91392380D01*
X152606190Y-91392380D01*
X150225238Y-90344761D02*
X150034761Y-90344761D01*
X149844285Y-90440000D01*
X149749047Y-90535238D01*
X149653809Y-90725714D01*
X149558571Y-91106666D01*
X149558571Y-91582857D01*
X149653809Y-91963809D01*
X149749047Y-92154285D01*
X149844285Y-92249523D01*
X150034761Y-92344761D01*
X150225238Y-92344761D01*
X150415714Y-92249523D01*
X150510952Y-92154285D01*
X150606190Y-91963809D01*
X150701428Y-91582857D01*
X150701428Y-91106666D01*
X150606190Y-90725714D01*
X150510952Y-90535238D01*
X150415714Y-90440000D01*
X150225238Y-90344761D01*
X151463333Y-79644761D02*
X152130000Y-78692380D01*
X152606190Y-79644761D02*
X152606190Y-77644761D01*
X151844285Y-77644761D01*
X151653809Y-77740000D01*
X151558571Y-77835238D01*
X151463333Y-78025714D01*
X151463333Y-78311428D01*
X151558571Y-78501904D01*
X151653809Y-78597142D01*
X151844285Y-78692380D01*
X152606190Y-78692380D01*
X150701428Y-77835238D02*
X150606190Y-77740000D01*
X150415714Y-77644761D01*
X149939523Y-77644761D01*
X149749047Y-77740000D01*
X149653809Y-77835238D01*
X149558571Y-78025714D01*
X149558571Y-78216190D01*
X149653809Y-78501904D01*
X150796666Y-79644761D01*
X149558571Y-79644761D01*
X151463333Y-66944761D02*
X152130000Y-65992380D01*
X152606190Y-66944761D02*
X152606190Y-64944761D01*
X151844285Y-64944761D01*
X151653809Y-65040000D01*
X151558571Y-65135238D01*
X151463333Y-65325714D01*
X151463333Y-65611428D01*
X151558571Y-65801904D01*
X151653809Y-65897142D01*
X151844285Y-65992380D01*
X152606190Y-65992380D01*
X149749047Y-65611428D02*
X149749047Y-66944761D01*
X150225238Y-64849523D02*
X150701428Y-66278095D01*
X149463333Y-66278095D01*
X151463333Y-54244761D02*
X152130000Y-53292380D01*
X152606190Y-54244761D02*
X152606190Y-52244761D01*
X151844285Y-52244761D01*
X151653809Y-52340000D01*
X151558571Y-52435238D01*
X151463333Y-52625714D01*
X151463333Y-52911428D01*
X151558571Y-53101904D01*
X151653809Y-53197142D01*
X151844285Y-53292380D01*
X152606190Y-53292380D01*
X149749047Y-52244761D02*
X150130000Y-52244761D01*
X150320476Y-52340000D01*
X150415714Y-52435238D01*
X150606190Y-52720952D01*
X150701428Y-53101904D01*
X150701428Y-53863809D01*
X150606190Y-54054285D01*
X150510952Y-54149523D01*
X150320476Y-54244761D01*
X149939523Y-54244761D01*
X149749047Y-54149523D01*
X149653809Y-54054285D01*
X149558571Y-53863809D01*
X149558571Y-53387619D01*
X149653809Y-53197142D01*
X149749047Y-53101904D01*
X149939523Y-53006666D01*
X150320476Y-53006666D01*
X150510952Y-53101904D01*
X150606190Y-53197142D01*
X150701428Y-53387619D01*
X77803333Y-54244761D02*
X78470000Y-53292380D01*
X78946190Y-54244761D02*
X78946190Y-52244761D01*
X78184285Y-52244761D01*
X77993809Y-52340000D01*
X77898571Y-52435238D01*
X77803333Y-52625714D01*
X77803333Y-52911428D01*
X77898571Y-53101904D01*
X77993809Y-53197142D01*
X78184285Y-53292380D01*
X78946190Y-53292380D01*
X77136666Y-52244761D02*
X75803333Y-52244761D01*
X76660476Y-54244761D01*
X77803333Y-66944761D02*
X78470000Y-65992380D01*
X78946190Y-66944761D02*
X78946190Y-64944761D01*
X78184285Y-64944761D01*
X77993809Y-65040000D01*
X77898571Y-65135238D01*
X77803333Y-65325714D01*
X77803333Y-65611428D01*
X77898571Y-65801904D01*
X77993809Y-65897142D01*
X78184285Y-65992380D01*
X78946190Y-65992380D01*
X75993809Y-64944761D02*
X76946190Y-64944761D01*
X77041428Y-65897142D01*
X76946190Y-65801904D01*
X76755714Y-65706666D01*
X76279523Y-65706666D01*
X76089047Y-65801904D01*
X75993809Y-65897142D01*
X75898571Y-66087619D01*
X75898571Y-66563809D01*
X75993809Y-66754285D01*
X76089047Y-66849523D01*
X76279523Y-66944761D01*
X76755714Y-66944761D01*
X76946190Y-66849523D01*
X77041428Y-66754285D01*
X77803333Y-79644761D02*
X78470000Y-78692380D01*
X78946190Y-79644761D02*
X78946190Y-77644761D01*
X78184285Y-77644761D01*
X77993809Y-77740000D01*
X77898571Y-77835238D01*
X77803333Y-78025714D01*
X77803333Y-78311428D01*
X77898571Y-78501904D01*
X77993809Y-78597142D01*
X78184285Y-78692380D01*
X78946190Y-78692380D01*
X77136666Y-77644761D02*
X75898571Y-77644761D01*
X76565238Y-78406666D01*
X76279523Y-78406666D01*
X76089047Y-78501904D01*
X75993809Y-78597142D01*
X75898571Y-78787619D01*
X75898571Y-79263809D01*
X75993809Y-79454285D01*
X76089047Y-79549523D01*
X76279523Y-79644761D01*
X76850952Y-79644761D01*
X77041428Y-79549523D01*
X77136666Y-79454285D01*
X77485833Y-92344761D02*
X78152500Y-91392380D01*
X78628690Y-92344761D02*
X78628690Y-90344761D01*
X77866785Y-90344761D01*
X77676309Y-90440000D01*
X77581071Y-90535238D01*
X77485833Y-90725714D01*
X77485833Y-91011428D01*
X77581071Y-91201904D01*
X77676309Y-91297142D01*
X77866785Y-91392380D01*
X78628690Y-91392380D01*
X75581071Y-92344761D02*
X76723928Y-92344761D01*
X76152500Y-92344761D02*
X76152500Y-90344761D01*
X76342976Y-90630476D01*
X76533452Y-90820952D01*
X76723928Y-90916190D01*
D11*
X110092976Y-22629880D02*
X109759642Y-23629880D01*
X109426309Y-22629880D01*
X108664404Y-23582261D02*
X108759642Y-23629880D01*
X108950119Y-23629880D01*
X109045357Y-23582261D01*
X109092976Y-23534642D01*
X109140595Y-23439404D01*
X109140595Y-23153690D01*
X109092976Y-23058452D01*
X109045357Y-23010833D01*
X108950119Y-22963214D01*
X108759642Y-22963214D01*
X108664404Y-23010833D01*
X107807261Y-23582261D02*
X107902500Y-23629880D01*
X108092976Y-23629880D01*
X108188214Y-23582261D01*
X108235833Y-23534642D01*
X108283452Y-23439404D01*
X108283452Y-23153690D01*
X108235833Y-23058452D01*
X108188214Y-23010833D01*
X108092976Y-22963214D01*
X107902500Y-22963214D01*
X107807261Y-23010833D01*
X104782857Y-22677500D02*
X104878095Y-22629880D01*
X105020952Y-22629880D01*
X105163809Y-22677500D01*
X105259047Y-22772738D01*
X105306666Y-22867976D01*
X105354285Y-23058452D01*
X105354285Y-23201309D01*
X105306666Y-23391785D01*
X105259047Y-23487023D01*
X105163809Y-23582261D01*
X105020952Y-23629880D01*
X104925714Y-23629880D01*
X104782857Y-23582261D01*
X104735238Y-23534642D01*
X104735238Y-23201309D01*
X104925714Y-23201309D01*
X104306666Y-22963214D02*
X104306666Y-23629880D01*
X104306666Y-23058452D02*
X104259047Y-23010833D01*
X104163809Y-22963214D01*
X104020952Y-22963214D01*
X103925714Y-23010833D01*
X103878095Y-23106071D01*
X103878095Y-23629880D01*
X102973333Y-23629880D02*
X102973333Y-22629880D01*
X102973333Y-23582261D02*
X103068571Y-23629880D01*
X103259047Y-23629880D01*
X103354285Y-23582261D01*
X103401904Y-23534642D01*
X103449523Y-23439404D01*
X103449523Y-23153690D01*
X103401904Y-23058452D01*
X103354285Y-23010833D01*
X103259047Y-22963214D01*
X103068571Y-22963214D01*
X102973333Y-23010833D01*
X53347857Y-93480000D02*
X53443095Y-93432380D01*
X53585952Y-93432380D01*
X53728809Y-93480000D01*
X53824047Y-93575238D01*
X53871666Y-93670476D01*
X53919285Y-93860952D01*
X53919285Y-94003809D01*
X53871666Y-94194285D01*
X53824047Y-94289523D01*
X53728809Y-94384761D01*
X53585952Y-94432380D01*
X53490714Y-94432380D01*
X53347857Y-94384761D01*
X53300238Y-94337142D01*
X53300238Y-94003809D01*
X53490714Y-94003809D01*
X52871666Y-93765714D02*
X52871666Y-94432380D01*
X52871666Y-93860952D02*
X52824047Y-93813333D01*
X52728809Y-93765714D01*
X52585952Y-93765714D01*
X52490714Y-93813333D01*
X52443095Y-93908571D01*
X52443095Y-94432380D01*
X51538333Y-94432380D02*
X51538333Y-93432380D01*
X51538333Y-94384761D02*
X51633571Y-94432380D01*
X51824047Y-94432380D01*
X51919285Y-94384761D01*
X51966904Y-94337142D01*
X52014523Y-94241904D01*
X52014523Y-93956190D01*
X51966904Y-93860952D01*
X51919285Y-93813333D01*
X51824047Y-93765714D01*
X51633571Y-93765714D01*
X51538333Y-93813333D01*
X73993333Y-93432380D02*
X73326666Y-93432380D01*
X73755238Y-94432380D01*
X55927619Y-93432380D02*
X55832380Y-93432380D01*
X55737142Y-93480000D01*
X55689523Y-93527619D01*
X55641904Y-93622857D01*
X55594285Y-93813333D01*
X55594285Y-94051428D01*
X55641904Y-94241904D01*
X55689523Y-94337142D01*
X55737142Y-94384761D01*
X55832380Y-94432380D01*
X55927619Y-94432380D01*
X56022857Y-94384761D01*
X56070476Y-94337142D01*
X56118095Y-94241904D01*
X56165714Y-94051428D01*
X56165714Y-93813333D01*
X56118095Y-93622857D01*
X56070476Y-93527619D01*
X56022857Y-93480000D01*
X55927619Y-93432380D01*
X53347857Y-80780000D02*
X53443095Y-80732380D01*
X53585952Y-80732380D01*
X53728809Y-80780000D01*
X53824047Y-80875238D01*
X53871666Y-80970476D01*
X53919285Y-81160952D01*
X53919285Y-81303809D01*
X53871666Y-81494285D01*
X53824047Y-81589523D01*
X53728809Y-81684761D01*
X53585952Y-81732380D01*
X53490714Y-81732380D01*
X53347857Y-81684761D01*
X53300238Y-81637142D01*
X53300238Y-81303809D01*
X53490714Y-81303809D01*
X52871666Y-81065714D02*
X52871666Y-81732380D01*
X52871666Y-81160952D02*
X52824047Y-81113333D01*
X52728809Y-81065714D01*
X52585952Y-81065714D01*
X52490714Y-81113333D01*
X52443095Y-81208571D01*
X52443095Y-81732380D01*
X51538333Y-81732380D02*
X51538333Y-80732380D01*
X51538333Y-81684761D02*
X51633571Y-81732380D01*
X51824047Y-81732380D01*
X51919285Y-81684761D01*
X51966904Y-81637142D01*
X52014523Y-81541904D01*
X52014523Y-81256190D01*
X51966904Y-81160952D01*
X51919285Y-81113333D01*
X51824047Y-81065714D01*
X51633571Y-81065714D01*
X51538333Y-81113333D01*
X73993333Y-80732380D02*
X73326666Y-80732380D01*
X73755238Y-81732380D01*
X55927619Y-80732380D02*
X55832380Y-80732380D01*
X55737142Y-80780000D01*
X55689523Y-80827619D01*
X55641904Y-80922857D01*
X55594285Y-81113333D01*
X55594285Y-81351428D01*
X55641904Y-81541904D01*
X55689523Y-81637142D01*
X55737142Y-81684761D01*
X55832380Y-81732380D01*
X55927619Y-81732380D01*
X56022857Y-81684761D01*
X56070476Y-81637142D01*
X56118095Y-81541904D01*
X56165714Y-81351428D01*
X56165714Y-81113333D01*
X56118095Y-80922857D01*
X56070476Y-80827619D01*
X56022857Y-80780000D01*
X55927619Y-80732380D01*
X53347857Y-68080000D02*
X53443095Y-68032380D01*
X53585952Y-68032380D01*
X53728809Y-68080000D01*
X53824047Y-68175238D01*
X53871666Y-68270476D01*
X53919285Y-68460952D01*
X53919285Y-68603809D01*
X53871666Y-68794285D01*
X53824047Y-68889523D01*
X53728809Y-68984761D01*
X53585952Y-69032380D01*
X53490714Y-69032380D01*
X53347857Y-68984761D01*
X53300238Y-68937142D01*
X53300238Y-68603809D01*
X53490714Y-68603809D01*
X52871666Y-68365714D02*
X52871666Y-69032380D01*
X52871666Y-68460952D02*
X52824047Y-68413333D01*
X52728809Y-68365714D01*
X52585952Y-68365714D01*
X52490714Y-68413333D01*
X52443095Y-68508571D01*
X52443095Y-69032380D01*
X51538333Y-69032380D02*
X51538333Y-68032380D01*
X51538333Y-68984761D02*
X51633571Y-69032380D01*
X51824047Y-69032380D01*
X51919285Y-68984761D01*
X51966904Y-68937142D01*
X52014523Y-68841904D01*
X52014523Y-68556190D01*
X51966904Y-68460952D01*
X51919285Y-68413333D01*
X51824047Y-68365714D01*
X51633571Y-68365714D01*
X51538333Y-68413333D01*
X73993333Y-68032380D02*
X73326666Y-68032380D01*
X73755238Y-69032380D01*
X55927619Y-68032380D02*
X55832380Y-68032380D01*
X55737142Y-68080000D01*
X55689523Y-68127619D01*
X55641904Y-68222857D01*
X55594285Y-68413333D01*
X55594285Y-68651428D01*
X55641904Y-68841904D01*
X55689523Y-68937142D01*
X55737142Y-68984761D01*
X55832380Y-69032380D01*
X55927619Y-69032380D01*
X56022857Y-68984761D01*
X56070476Y-68937142D01*
X56118095Y-68841904D01*
X56165714Y-68651428D01*
X56165714Y-68413333D01*
X56118095Y-68222857D01*
X56070476Y-68127619D01*
X56022857Y-68080000D01*
X55927619Y-68032380D01*
X53347857Y-55380000D02*
X53443095Y-55332380D01*
X53585952Y-55332380D01*
X53728809Y-55380000D01*
X53824047Y-55475238D01*
X53871666Y-55570476D01*
X53919285Y-55760952D01*
X53919285Y-55903809D01*
X53871666Y-56094285D01*
X53824047Y-56189523D01*
X53728809Y-56284761D01*
X53585952Y-56332380D01*
X53490714Y-56332380D01*
X53347857Y-56284761D01*
X53300238Y-56237142D01*
X53300238Y-55903809D01*
X53490714Y-55903809D01*
X52871666Y-55665714D02*
X52871666Y-56332380D01*
X52871666Y-55760952D02*
X52824047Y-55713333D01*
X52728809Y-55665714D01*
X52585952Y-55665714D01*
X52490714Y-55713333D01*
X52443095Y-55808571D01*
X52443095Y-56332380D01*
X51538333Y-56332380D02*
X51538333Y-55332380D01*
X51538333Y-56284761D02*
X51633571Y-56332380D01*
X51824047Y-56332380D01*
X51919285Y-56284761D01*
X51966904Y-56237142D01*
X52014523Y-56141904D01*
X52014523Y-55856190D01*
X51966904Y-55760952D01*
X51919285Y-55713333D01*
X51824047Y-55665714D01*
X51633571Y-55665714D01*
X51538333Y-55713333D01*
X73993333Y-55332380D02*
X73326666Y-55332380D01*
X73755238Y-56332380D01*
X55927619Y-55332380D02*
X55832380Y-55332380D01*
X55737142Y-55380000D01*
X55689523Y-55427619D01*
X55641904Y-55522857D01*
X55594285Y-55713333D01*
X55594285Y-55951428D01*
X55641904Y-56141904D01*
X55689523Y-56237142D01*
X55737142Y-56284761D01*
X55832380Y-56332380D01*
X55927619Y-56332380D01*
X56022857Y-56284761D01*
X56070476Y-56237142D01*
X56118095Y-56141904D01*
X56165714Y-55951428D01*
X56165714Y-55713333D01*
X56118095Y-55522857D01*
X56070476Y-55427619D01*
X56022857Y-55380000D01*
X55927619Y-55332380D01*
X53347857Y-22360000D02*
X53443095Y-22312380D01*
X53585952Y-22312380D01*
X53728809Y-22360000D01*
X53824047Y-22455238D01*
X53871666Y-22550476D01*
X53919285Y-22740952D01*
X53919285Y-22883809D01*
X53871666Y-23074285D01*
X53824047Y-23169523D01*
X53728809Y-23264761D01*
X53585952Y-23312380D01*
X53490714Y-23312380D01*
X53347857Y-23264761D01*
X53300238Y-23217142D01*
X53300238Y-22883809D01*
X53490714Y-22883809D01*
X52871666Y-22645714D02*
X52871666Y-23312380D01*
X52871666Y-22740952D02*
X52824047Y-22693333D01*
X52728809Y-22645714D01*
X52585952Y-22645714D01*
X52490714Y-22693333D01*
X52443095Y-22788571D01*
X52443095Y-23312380D01*
X51538333Y-23312380D02*
X51538333Y-22312380D01*
X51538333Y-23264761D02*
X51633571Y-23312380D01*
X51824047Y-23312380D01*
X51919285Y-23264761D01*
X51966904Y-23217142D01*
X52014523Y-23121904D01*
X52014523Y-22836190D01*
X51966904Y-22740952D01*
X51919285Y-22693333D01*
X51824047Y-22645714D01*
X51633571Y-22645714D01*
X51538333Y-22693333D01*
X73993333Y-22312380D02*
X73326666Y-22312380D01*
X73755238Y-23312380D01*
X55927619Y-22312380D02*
X55832380Y-22312380D01*
X55737142Y-22360000D01*
X55689523Y-22407619D01*
X55641904Y-22502857D01*
X55594285Y-22693333D01*
X55594285Y-22931428D01*
X55641904Y-23121904D01*
X55689523Y-23217142D01*
X55737142Y-23264761D01*
X55832380Y-23312380D01*
X55927619Y-23312380D01*
X56022857Y-23264761D01*
X56070476Y-23217142D01*
X56118095Y-23121904D01*
X56165714Y-22931428D01*
X56165714Y-22693333D01*
X56118095Y-22502857D01*
X56070476Y-22407619D01*
X56022857Y-22360000D01*
X55927619Y-22312380D01*
X127007857Y-22360000D02*
X127103095Y-22312380D01*
X127245952Y-22312380D01*
X127388809Y-22360000D01*
X127484047Y-22455238D01*
X127531666Y-22550476D01*
X127579285Y-22740952D01*
X127579285Y-22883809D01*
X127531666Y-23074285D01*
X127484047Y-23169523D01*
X127388809Y-23264761D01*
X127245952Y-23312380D01*
X127150714Y-23312380D01*
X127007857Y-23264761D01*
X126960238Y-23217142D01*
X126960238Y-22883809D01*
X127150714Y-22883809D01*
X126531666Y-22645714D02*
X126531666Y-23312380D01*
X126531666Y-22740952D02*
X126484047Y-22693333D01*
X126388809Y-22645714D01*
X126245952Y-22645714D01*
X126150714Y-22693333D01*
X126103095Y-22788571D01*
X126103095Y-23312380D01*
X125198333Y-23312380D02*
X125198333Y-22312380D01*
X125198333Y-23264761D02*
X125293571Y-23312380D01*
X125484047Y-23312380D01*
X125579285Y-23264761D01*
X125626904Y-23217142D01*
X125674523Y-23121904D01*
X125674523Y-22836190D01*
X125626904Y-22740952D01*
X125579285Y-22693333D01*
X125484047Y-22645714D01*
X125293571Y-22645714D01*
X125198333Y-22693333D01*
X147653333Y-22312380D02*
X146986666Y-22312380D01*
X147415238Y-23312380D01*
X129587619Y-22312380D02*
X129492380Y-22312380D01*
X129397142Y-22360000D01*
X129349523Y-22407619D01*
X129301904Y-22502857D01*
X129254285Y-22693333D01*
X129254285Y-22931428D01*
X129301904Y-23121904D01*
X129349523Y-23217142D01*
X129397142Y-23264761D01*
X129492380Y-23312380D01*
X129587619Y-23312380D01*
X129682857Y-23264761D01*
X129730476Y-23217142D01*
X129778095Y-23121904D01*
X129825714Y-22931428D01*
X129825714Y-22693333D01*
X129778095Y-22502857D01*
X129730476Y-22407619D01*
X129682857Y-22360000D01*
X129587619Y-22312380D01*
X127007857Y-55380000D02*
X127103095Y-55332380D01*
X127245952Y-55332380D01*
X127388809Y-55380000D01*
X127484047Y-55475238D01*
X127531666Y-55570476D01*
X127579285Y-55760952D01*
X127579285Y-55903809D01*
X127531666Y-56094285D01*
X127484047Y-56189523D01*
X127388809Y-56284761D01*
X127245952Y-56332380D01*
X127150714Y-56332380D01*
X127007857Y-56284761D01*
X126960238Y-56237142D01*
X126960238Y-55903809D01*
X127150714Y-55903809D01*
X126531666Y-55665714D02*
X126531666Y-56332380D01*
X126531666Y-55760952D02*
X126484047Y-55713333D01*
X126388809Y-55665714D01*
X126245952Y-55665714D01*
X126150714Y-55713333D01*
X126103095Y-55808571D01*
X126103095Y-56332380D01*
X125198333Y-56332380D02*
X125198333Y-55332380D01*
X125198333Y-56284761D02*
X125293571Y-56332380D01*
X125484047Y-56332380D01*
X125579285Y-56284761D01*
X125626904Y-56237142D01*
X125674523Y-56141904D01*
X125674523Y-55856190D01*
X125626904Y-55760952D01*
X125579285Y-55713333D01*
X125484047Y-55665714D01*
X125293571Y-55665714D01*
X125198333Y-55713333D01*
X147653333Y-55332380D02*
X146986666Y-55332380D01*
X147415238Y-56332380D01*
X129587619Y-55332380D02*
X129492380Y-55332380D01*
X129397142Y-55380000D01*
X129349523Y-55427619D01*
X129301904Y-55522857D01*
X129254285Y-55713333D01*
X129254285Y-55951428D01*
X129301904Y-56141904D01*
X129349523Y-56237142D01*
X129397142Y-56284761D01*
X129492380Y-56332380D01*
X129587619Y-56332380D01*
X129682857Y-56284761D01*
X129730476Y-56237142D01*
X129778095Y-56141904D01*
X129825714Y-55951428D01*
X129825714Y-55713333D01*
X129778095Y-55522857D01*
X129730476Y-55427619D01*
X129682857Y-55380000D01*
X129587619Y-55332380D01*
X127007857Y-68080000D02*
X127103095Y-68032380D01*
X127245952Y-68032380D01*
X127388809Y-68080000D01*
X127484047Y-68175238D01*
X127531666Y-68270476D01*
X127579285Y-68460952D01*
X127579285Y-68603809D01*
X127531666Y-68794285D01*
X127484047Y-68889523D01*
X127388809Y-68984761D01*
X127245952Y-69032380D01*
X127150714Y-69032380D01*
X127007857Y-68984761D01*
X126960238Y-68937142D01*
X126960238Y-68603809D01*
X127150714Y-68603809D01*
X126531666Y-68365714D02*
X126531666Y-69032380D01*
X126531666Y-68460952D02*
X126484047Y-68413333D01*
X126388809Y-68365714D01*
X126245952Y-68365714D01*
X126150714Y-68413333D01*
X126103095Y-68508571D01*
X126103095Y-69032380D01*
X125198333Y-69032380D02*
X125198333Y-68032380D01*
X125198333Y-68984761D02*
X125293571Y-69032380D01*
X125484047Y-69032380D01*
X125579285Y-68984761D01*
X125626904Y-68937142D01*
X125674523Y-68841904D01*
X125674523Y-68556190D01*
X125626904Y-68460952D01*
X125579285Y-68413333D01*
X125484047Y-68365714D01*
X125293571Y-68365714D01*
X125198333Y-68413333D01*
X147653333Y-68032380D02*
X146986666Y-68032380D01*
X147415238Y-69032380D01*
X129587619Y-68032380D02*
X129492380Y-68032380D01*
X129397142Y-68080000D01*
X129349523Y-68127619D01*
X129301904Y-68222857D01*
X129254285Y-68413333D01*
X129254285Y-68651428D01*
X129301904Y-68841904D01*
X129349523Y-68937142D01*
X129397142Y-68984761D01*
X129492380Y-69032380D01*
X129587619Y-69032380D01*
X129682857Y-68984761D01*
X129730476Y-68937142D01*
X129778095Y-68841904D01*
X129825714Y-68651428D01*
X129825714Y-68413333D01*
X129778095Y-68222857D01*
X129730476Y-68127619D01*
X129682857Y-68080000D01*
X129587619Y-68032380D01*
X127007857Y-80780000D02*
X127103095Y-80732380D01*
X127245952Y-80732380D01*
X127388809Y-80780000D01*
X127484047Y-80875238D01*
X127531666Y-80970476D01*
X127579285Y-81160952D01*
X127579285Y-81303809D01*
X127531666Y-81494285D01*
X127484047Y-81589523D01*
X127388809Y-81684761D01*
X127245952Y-81732380D01*
X127150714Y-81732380D01*
X127007857Y-81684761D01*
X126960238Y-81637142D01*
X126960238Y-81303809D01*
X127150714Y-81303809D01*
X126531666Y-81065714D02*
X126531666Y-81732380D01*
X126531666Y-81160952D02*
X126484047Y-81113333D01*
X126388809Y-81065714D01*
X126245952Y-81065714D01*
X126150714Y-81113333D01*
X126103095Y-81208571D01*
X126103095Y-81732380D01*
X125198333Y-81732380D02*
X125198333Y-80732380D01*
X125198333Y-81684761D02*
X125293571Y-81732380D01*
X125484047Y-81732380D01*
X125579285Y-81684761D01*
X125626904Y-81637142D01*
X125674523Y-81541904D01*
X125674523Y-81256190D01*
X125626904Y-81160952D01*
X125579285Y-81113333D01*
X125484047Y-81065714D01*
X125293571Y-81065714D01*
X125198333Y-81113333D01*
X147653333Y-80732380D02*
X146986666Y-80732380D01*
X147415238Y-81732380D01*
X129587619Y-80732380D02*
X129492380Y-80732380D01*
X129397142Y-80780000D01*
X129349523Y-80827619D01*
X129301904Y-80922857D01*
X129254285Y-81113333D01*
X129254285Y-81351428D01*
X129301904Y-81541904D01*
X129349523Y-81637142D01*
X129397142Y-81684761D01*
X129492380Y-81732380D01*
X129587619Y-81732380D01*
X129682857Y-81684761D01*
X129730476Y-81637142D01*
X129778095Y-81541904D01*
X129825714Y-81351428D01*
X129825714Y-81113333D01*
X129778095Y-80922857D01*
X129730476Y-80827619D01*
X129682857Y-80780000D01*
X129587619Y-80732380D01*
X127007857Y-93480000D02*
X127103095Y-93432380D01*
X127245952Y-93432380D01*
X127388809Y-93480000D01*
X127484047Y-93575238D01*
X127531666Y-93670476D01*
X127579285Y-93860952D01*
X127579285Y-94003809D01*
X127531666Y-94194285D01*
X127484047Y-94289523D01*
X127388809Y-94384761D01*
X127245952Y-94432380D01*
X127150714Y-94432380D01*
X127007857Y-94384761D01*
X126960238Y-94337142D01*
X126960238Y-94003809D01*
X127150714Y-94003809D01*
X126531666Y-93765714D02*
X126531666Y-94432380D01*
X126531666Y-93860952D02*
X126484047Y-93813333D01*
X126388809Y-93765714D01*
X126245952Y-93765714D01*
X126150714Y-93813333D01*
X126103095Y-93908571D01*
X126103095Y-94432380D01*
X125198333Y-94432380D02*
X125198333Y-93432380D01*
X125198333Y-94384761D02*
X125293571Y-94432380D01*
X125484047Y-94432380D01*
X125579285Y-94384761D01*
X125626904Y-94337142D01*
X125674523Y-94241904D01*
X125674523Y-93956190D01*
X125626904Y-93860952D01*
X125579285Y-93813333D01*
X125484047Y-93765714D01*
X125293571Y-93765714D01*
X125198333Y-93813333D01*
X147653333Y-93432380D02*
X146986666Y-93432380D01*
X147415238Y-94432380D01*
X129587619Y-93432380D02*
X129492380Y-93432380D01*
X129397142Y-93480000D01*
X129349523Y-93527619D01*
X129301904Y-93622857D01*
X129254285Y-93813333D01*
X129254285Y-94051428D01*
X129301904Y-94241904D01*
X129349523Y-94337142D01*
X129397142Y-94384761D01*
X129492380Y-94432380D01*
X129587619Y-94432380D01*
X129682857Y-94384761D01*
X129730476Y-94337142D01*
X129778095Y-94241904D01*
X129825714Y-94051428D01*
X129825714Y-93813333D01*
X129778095Y-93622857D01*
X129730476Y-93527619D01*
X129682857Y-93480000D01*
X129587619Y-93432380D01*
D12*
%TO.C,R7*%
X109955000Y-33882064D02*
X109955000Y-33427936D01*
X108485000Y-33882064D02*
X108485000Y-33427936D01*
%TO.C,Q1*%
X112587500Y-20947500D02*
X112587500Y-20017500D01*
X112587500Y-17787500D02*
X112587500Y-18717500D01*
X112587500Y-17787500D02*
X114747500Y-17787500D01*
X112587500Y-20947500D02*
X114047500Y-20947500D01*
%TO.C,C4*%
X111096248Y-42010000D02*
X111618752Y-42010000D01*
X111096248Y-40540000D02*
X111618752Y-40540000D01*
%TO.C,C3*%
X81971248Y-41375000D02*
X82493752Y-41375000D01*
X81971248Y-39905000D02*
X82493752Y-39905000D01*
%TO.C,C2*%
X64508748Y-42645000D02*
X65031252Y-42645000D01*
X64508748Y-41175000D02*
X65031252Y-41175000D01*
%TO.C,C1*%
X138168748Y-42645000D02*
X138691252Y-42645000D01*
X138168748Y-41175000D02*
X138691252Y-41175000D01*
%TO.C,R6*%
X121327936Y-102335000D02*
X121782064Y-102335000D01*
X121327936Y-100865000D02*
X121782064Y-100865000D01*
%TO.C,R5*%
X82459564Y-34825000D02*
X82005436Y-34825000D01*
X82459564Y-36295000D02*
X82005436Y-36295000D01*
%TO.C,R4*%
X52605000Y-41867064D02*
X52605000Y-41412936D01*
X54075000Y-41867064D02*
X54075000Y-41412936D01*
%TO.C,R3*%
X126265000Y-41867064D02*
X126265000Y-41412936D01*
X127735000Y-41867064D02*
X127735000Y-41412936D01*
%TO.C,J10*%
X52010000Y-18990000D02*
X52010000Y-20320000D01*
X53340000Y-18990000D02*
X52010000Y-18990000D01*
X54610000Y-18990000D02*
X54610000Y-21650000D01*
X54610000Y-21650000D02*
X74990000Y-21650000D01*
X54610000Y-18990000D02*
X74990000Y-18990000D01*
X74990000Y-18990000D02*
X74990000Y-21650000D01*
%TO.C,J9*%
X148650000Y-18990000D02*
X148650000Y-21650000D01*
X128270000Y-18990000D02*
X148650000Y-18990000D01*
X128270000Y-21650000D02*
X148650000Y-21650000D01*
X128270000Y-18990000D02*
X128270000Y-21650000D01*
X127000000Y-18990000D02*
X125670000Y-18990000D01*
X125670000Y-18990000D02*
X125670000Y-20320000D01*
%TO.C,J8*%
X74990000Y-52010000D02*
X74990000Y-54670000D01*
X54610000Y-52010000D02*
X74990000Y-52010000D01*
X54610000Y-54670000D02*
X74990000Y-54670000D01*
X54610000Y-52010000D02*
X54610000Y-54670000D01*
X53340000Y-52010000D02*
X52010000Y-52010000D01*
X52010000Y-52010000D02*
X52010000Y-53340000D01*
%TO.C,J7*%
X148650000Y-52010000D02*
X148650000Y-54670000D01*
X128270000Y-52010000D02*
X148650000Y-52010000D01*
X128270000Y-54670000D02*
X148650000Y-54670000D01*
X128270000Y-52010000D02*
X128270000Y-54670000D01*
X127000000Y-52010000D02*
X125670000Y-52010000D01*
X125670000Y-52010000D02*
X125670000Y-53340000D01*
%TO.C,J6*%
X74990000Y-64710000D02*
X74990000Y-67370000D01*
X54610000Y-64710000D02*
X74990000Y-64710000D01*
X54610000Y-67370000D02*
X74990000Y-67370000D01*
X54610000Y-64710000D02*
X54610000Y-67370000D01*
X53340000Y-64710000D02*
X52010000Y-64710000D01*
X52010000Y-64710000D02*
X52010000Y-66040000D01*
%TO.C,J5*%
X148650000Y-64710000D02*
X148650000Y-67370000D01*
X128270000Y-64710000D02*
X148650000Y-64710000D01*
X128270000Y-67370000D02*
X148650000Y-67370000D01*
X128270000Y-64710000D02*
X128270000Y-67370000D01*
X127000000Y-64710000D02*
X125670000Y-64710000D01*
X125670000Y-64710000D02*
X125670000Y-66040000D01*
%TO.C,J4*%
X74990000Y-77410000D02*
X74990000Y-80070000D01*
X54610000Y-77410000D02*
X74990000Y-77410000D01*
X54610000Y-80070000D02*
X74990000Y-80070000D01*
X54610000Y-77410000D02*
X54610000Y-80070000D01*
X53340000Y-77410000D02*
X52010000Y-77410000D01*
X52010000Y-77410000D02*
X52010000Y-78740000D01*
%TO.C,J3*%
X148650000Y-77410000D02*
X148650000Y-80070000D01*
X128270000Y-77410000D02*
X148650000Y-77410000D01*
X128270000Y-80070000D02*
X148650000Y-80070000D01*
X128270000Y-77410000D02*
X128270000Y-80070000D01*
X127000000Y-77410000D02*
X125670000Y-77410000D01*
X125670000Y-77410000D02*
X125670000Y-78740000D01*
%TO.C,J2*%
X74990000Y-90110000D02*
X74990000Y-92770000D01*
X54610000Y-90110000D02*
X74990000Y-90110000D01*
X54610000Y-92770000D02*
X74990000Y-92770000D01*
X54610000Y-90110000D02*
X54610000Y-92770000D01*
X53340000Y-90110000D02*
X52010000Y-90110000D01*
X52010000Y-90110000D02*
X52010000Y-91440000D01*
%TO.C,J1*%
X148650000Y-90110000D02*
X148650000Y-92770000D01*
X128270000Y-90110000D02*
X148650000Y-90110000D01*
X128270000Y-92770000D02*
X148650000Y-92770000D01*
X128270000Y-90110000D02*
X128270000Y-92770000D01*
X127000000Y-90110000D02*
X125670000Y-90110000D01*
X125670000Y-90110000D02*
X125670000Y-91440000D01*
%TO.C,R7*%
D11*
X111322380Y-33488333D02*
X110846190Y-33155000D01*
X111322380Y-32916904D02*
X110322380Y-32916904D01*
X110322380Y-33297857D01*
X110370000Y-33393095D01*
X110417619Y-33440714D01*
X110512857Y-33488333D01*
X110655714Y-33488333D01*
X110750952Y-33440714D01*
X110798571Y-33393095D01*
X110846190Y-33297857D01*
X110846190Y-32916904D01*
X110322380Y-33821666D02*
X110322380Y-34488333D01*
X111322380Y-34059761D01*
%TO.C,Q1*%
X113442738Y-17415119D02*
X113537976Y-17367500D01*
X113633214Y-17272261D01*
X113776071Y-17129404D01*
X113871309Y-17081785D01*
X113966547Y-17081785D01*
X113918928Y-17319880D02*
X114014166Y-17272261D01*
X114109404Y-17177023D01*
X114157023Y-16986547D01*
X114157023Y-16653214D01*
X114109404Y-16462738D01*
X114014166Y-16367500D01*
X113918928Y-16319880D01*
X113728452Y-16319880D01*
X113633214Y-16367500D01*
X113537976Y-16462738D01*
X113490357Y-16653214D01*
X113490357Y-16986547D01*
X113537976Y-17177023D01*
X113633214Y-17272261D01*
X113728452Y-17319880D01*
X113918928Y-17319880D01*
X112537976Y-17319880D02*
X113109404Y-17319880D01*
X112823690Y-17319880D02*
X112823690Y-16319880D01*
X112918928Y-16462738D01*
X113014166Y-16557976D01*
X113109404Y-16605595D01*
%TO.C,C4*%
X114466666Y-41632142D02*
X114514285Y-41679761D01*
X114657142Y-41727380D01*
X114752380Y-41727380D01*
X114895238Y-41679761D01*
X114990476Y-41584523D01*
X115038095Y-41489285D01*
X115085714Y-41298809D01*
X115085714Y-41155952D01*
X115038095Y-40965476D01*
X114990476Y-40870238D01*
X114895238Y-40775000D01*
X114752380Y-40727380D01*
X114657142Y-40727380D01*
X114514285Y-40775000D01*
X114466666Y-40822619D01*
X113609523Y-41060714D02*
X113609523Y-41727380D01*
X113847619Y-40679761D02*
X114085714Y-41394047D01*
X113466666Y-41394047D01*
%TO.C,C3*%
X85256666Y-40997142D02*
X85304285Y-41044761D01*
X85447142Y-41092380D01*
X85542380Y-41092380D01*
X85685238Y-41044761D01*
X85780476Y-40949523D01*
X85828095Y-40854285D01*
X85875714Y-40663809D01*
X85875714Y-40520952D01*
X85828095Y-40330476D01*
X85780476Y-40235238D01*
X85685238Y-40140000D01*
X85542380Y-40092380D01*
X85447142Y-40092380D01*
X85304285Y-40140000D01*
X85256666Y-40187619D01*
X84923333Y-40092380D02*
X84304285Y-40092380D01*
X84637619Y-40473333D01*
X84494761Y-40473333D01*
X84399523Y-40520952D01*
X84351904Y-40568571D01*
X84304285Y-40663809D01*
X84304285Y-40901904D01*
X84351904Y-40997142D01*
X84399523Y-41044761D01*
X84494761Y-41092380D01*
X84780476Y-41092380D01*
X84875714Y-41044761D01*
X84923333Y-40997142D01*
%TO.C,C2*%
X68111666Y-42267142D02*
X68159285Y-42314761D01*
X68302142Y-42362380D01*
X68397380Y-42362380D01*
X68540238Y-42314761D01*
X68635476Y-42219523D01*
X68683095Y-42124285D01*
X68730714Y-41933809D01*
X68730714Y-41790952D01*
X68683095Y-41600476D01*
X68635476Y-41505238D01*
X68540238Y-41410000D01*
X68397380Y-41362380D01*
X68302142Y-41362380D01*
X68159285Y-41410000D01*
X68111666Y-41457619D01*
X67730714Y-41457619D02*
X67683095Y-41410000D01*
X67587857Y-41362380D01*
X67349761Y-41362380D01*
X67254523Y-41410000D01*
X67206904Y-41457619D01*
X67159285Y-41552857D01*
X67159285Y-41648095D01*
X67206904Y-41790952D01*
X67778333Y-42362380D01*
X67159285Y-42362380D01*
%TO.C,C1*%
X141771666Y-42267142D02*
X141819285Y-42314761D01*
X141962142Y-42362380D01*
X142057380Y-42362380D01*
X142200238Y-42314761D01*
X142295476Y-42219523D01*
X142343095Y-42124285D01*
X142390714Y-41933809D01*
X142390714Y-41790952D01*
X142343095Y-41600476D01*
X142295476Y-41505238D01*
X142200238Y-41410000D01*
X142057380Y-41362380D01*
X141962142Y-41362380D01*
X141819285Y-41410000D01*
X141771666Y-41457619D01*
X140819285Y-42362380D02*
X141390714Y-42362380D01*
X141105000Y-42362380D02*
X141105000Y-41362380D01*
X141200238Y-41505238D01*
X141295476Y-41600476D01*
X141390714Y-41648095D01*
%TO.C,R6*%
X121721666Y-103702380D02*
X122055000Y-103226190D01*
X122293095Y-103702380D02*
X122293095Y-102702380D01*
X121912142Y-102702380D01*
X121816904Y-102750000D01*
X121769285Y-102797619D01*
X121721666Y-102892857D01*
X121721666Y-103035714D01*
X121769285Y-103130952D01*
X121816904Y-103178571D01*
X121912142Y-103226190D01*
X122293095Y-103226190D01*
X120864523Y-102702380D02*
X121055000Y-102702380D01*
X121150238Y-102750000D01*
X121197857Y-102797619D01*
X121293095Y-102940476D01*
X121340714Y-103130952D01*
X121340714Y-103511904D01*
X121293095Y-103607142D01*
X121245476Y-103654761D01*
X121150238Y-103702380D01*
X120959761Y-103702380D01*
X120864523Y-103654761D01*
X120816904Y-103607142D01*
X120769285Y-103511904D01*
X120769285Y-103273809D01*
X120816904Y-103178571D01*
X120864523Y-103130952D01*
X120959761Y-103083333D01*
X121150238Y-103083333D01*
X121245476Y-103130952D01*
X121293095Y-103178571D01*
X121340714Y-103273809D01*
%TO.C,R5*%
X85304166Y-36012380D02*
X85637500Y-35536190D01*
X85875595Y-36012380D02*
X85875595Y-35012380D01*
X85494642Y-35012380D01*
X85399404Y-35060000D01*
X85351785Y-35107619D01*
X85304166Y-35202857D01*
X85304166Y-35345714D01*
X85351785Y-35440952D01*
X85399404Y-35488571D01*
X85494642Y-35536190D01*
X85875595Y-35536190D01*
X84399404Y-35012380D02*
X84875595Y-35012380D01*
X84923214Y-35488571D01*
X84875595Y-35440952D01*
X84780357Y-35393333D01*
X84542261Y-35393333D01*
X84447023Y-35440952D01*
X84399404Y-35488571D01*
X84351785Y-35583809D01*
X84351785Y-35821904D01*
X84399404Y-35917142D01*
X84447023Y-35964761D01*
X84542261Y-36012380D01*
X84780357Y-36012380D01*
X84875595Y-35964761D01*
X84923214Y-35917142D01*
%TO.C,R4*%
X55442380Y-41473333D02*
X54966190Y-41140000D01*
X55442380Y-40901904D02*
X54442380Y-40901904D01*
X54442380Y-41282857D01*
X54490000Y-41378095D01*
X54537619Y-41425714D01*
X54632857Y-41473333D01*
X54775714Y-41473333D01*
X54870952Y-41425714D01*
X54918571Y-41378095D01*
X54966190Y-41282857D01*
X54966190Y-40901904D01*
X54775714Y-42330476D02*
X55442380Y-42330476D01*
X54394761Y-42092380D02*
X55109047Y-41854285D01*
X55109047Y-42473333D01*
%TO.C,R3*%
X129102380Y-41473333D02*
X128626190Y-41140000D01*
X129102380Y-40901904D02*
X128102380Y-40901904D01*
X128102380Y-41282857D01*
X128150000Y-41378095D01*
X128197619Y-41425714D01*
X128292857Y-41473333D01*
X128435714Y-41473333D01*
X128530952Y-41425714D01*
X128578571Y-41378095D01*
X128626190Y-41282857D01*
X128626190Y-40901904D01*
X128102380Y-41806666D02*
X128102380Y-42425714D01*
X128483333Y-42092380D01*
X128483333Y-42235238D01*
X128530952Y-42330476D01*
X128578571Y-42378095D01*
X128673809Y-42425714D01*
X128911904Y-42425714D01*
X129007142Y-42378095D01*
X129054761Y-42330476D01*
X129102380Y-42235238D01*
X129102380Y-41949523D01*
X129054761Y-41854285D01*
X129007142Y-41806666D01*
%TD*%
M02*
