%TF.GenerationSoftware,KiCad,Pcbnew,(5.1.8)-1*%
%TF.CreationDate,2024-01-21T21:11:34+03:00*%
%TF.ProjectId,Regs-v3,52656773-2d76-4332-9e6b-696361645f70,rev?*%
%TF.SameCoordinates,Original*%
%TF.FileFunction,Soldermask,Bot*%
%TF.FilePolarity,Negative*%
%FSLAX46Y46*%
G04 Gerber Fmt 4.6, Leading zero omitted, Abs format (unit mm)*
G04 Created by KiCad (PCBNEW (5.1.8)-1) date 2024-01-21 21:11:34*
%MOMM*%
%LPD*%
G01*
G04 APERTURE LIST*
%ADD10R,1.700000X1.700000*%
%ADD11R,0.900000X0.800000*%
%ADD12O,2.100000X2.300000*%
%ADD13R,2.100000X2.300000*%
%ADD14C,2.600000*%
%ADD15R,2.600000X2.600000*%
%ADD16R,2.100000X2.100000*%
%ADD17O,2.100000X2.100000*%
%ADD18C,3.200000*%
G04 APERTURE END LIST*
D10*
%TO.C,J20*%
X153670000Y-20320000D03*
%TD*%
%TO.C,J19*%
X80010000Y-20320000D03*
%TD*%
%TO.C,R7*%
G36*
G01*
X109670001Y-33255000D02*
X108769999Y-33255000D01*
G75*
G02*
X108520000Y-33005001I0J249999D01*
G01*
X108520000Y-32304999D01*
G75*
G02*
X108769999Y-32055000I249999J0D01*
G01*
X109670001Y-32055000D01*
G75*
G02*
X109920000Y-32304999I0J-249999D01*
G01*
X109920000Y-33005001D01*
G75*
G02*
X109670001Y-33255000I-249999J0D01*
G01*
G37*
G36*
G01*
X109670001Y-35255000D02*
X108769999Y-35255000D01*
G75*
G02*
X108520000Y-35005001I0J249999D01*
G01*
X108520000Y-34304999D01*
G75*
G02*
X108769999Y-34055000I249999J0D01*
G01*
X109670001Y-34055000D01*
G75*
G02*
X109920000Y-34304999I0J-249999D01*
G01*
X109920000Y-35005001D01*
G75*
G02*
X109670001Y-35255000I-249999J0D01*
G01*
G37*
%TD*%
D11*
%TO.C,Q1*%
X112347500Y-19367500D03*
X114347500Y-20317500D03*
X114347500Y-18417500D03*
%TD*%
%TO.C,C4*%
G36*
G01*
X111807500Y-41750000D02*
X111807500Y-40800000D01*
G75*
G02*
X112057500Y-40550000I250000J0D01*
G01*
X112732500Y-40550000D01*
G75*
G02*
X112982500Y-40800000I0J-250000D01*
G01*
X112982500Y-41750000D01*
G75*
G02*
X112732500Y-42000000I-250000J0D01*
G01*
X112057500Y-42000000D01*
G75*
G02*
X111807500Y-41750000I0J250000D01*
G01*
G37*
G36*
G01*
X109732500Y-41750000D02*
X109732500Y-40800000D01*
G75*
G02*
X109982500Y-40550000I250000J0D01*
G01*
X110657500Y-40550000D01*
G75*
G02*
X110907500Y-40800000I0J-250000D01*
G01*
X110907500Y-41750000D01*
G75*
G02*
X110657500Y-42000000I-250000J0D01*
G01*
X109982500Y-42000000D01*
G75*
G02*
X109732500Y-41750000I0J250000D01*
G01*
G37*
%TD*%
%TO.C,C3*%
G36*
G01*
X82682500Y-41115000D02*
X82682500Y-40165000D01*
G75*
G02*
X82932500Y-39915000I250000J0D01*
G01*
X83607500Y-39915000D01*
G75*
G02*
X83857500Y-40165000I0J-250000D01*
G01*
X83857500Y-41115000D01*
G75*
G02*
X83607500Y-41365000I-250000J0D01*
G01*
X82932500Y-41365000D01*
G75*
G02*
X82682500Y-41115000I0J250000D01*
G01*
G37*
G36*
G01*
X80607500Y-41115000D02*
X80607500Y-40165000D01*
G75*
G02*
X80857500Y-39915000I250000J0D01*
G01*
X81532500Y-39915000D01*
G75*
G02*
X81782500Y-40165000I0J-250000D01*
G01*
X81782500Y-41115000D01*
G75*
G02*
X81532500Y-41365000I-250000J0D01*
G01*
X80857500Y-41365000D01*
G75*
G02*
X80607500Y-41115000I0J250000D01*
G01*
G37*
%TD*%
%TO.C,C2*%
G36*
G01*
X65220000Y-42385000D02*
X65220000Y-41435000D01*
G75*
G02*
X65470000Y-41185000I250000J0D01*
G01*
X66145000Y-41185000D01*
G75*
G02*
X66395000Y-41435000I0J-250000D01*
G01*
X66395000Y-42385000D01*
G75*
G02*
X66145000Y-42635000I-250000J0D01*
G01*
X65470000Y-42635000D01*
G75*
G02*
X65220000Y-42385000I0J250000D01*
G01*
G37*
G36*
G01*
X63145000Y-42385000D02*
X63145000Y-41435000D01*
G75*
G02*
X63395000Y-41185000I250000J0D01*
G01*
X64070000Y-41185000D01*
G75*
G02*
X64320000Y-41435000I0J-250000D01*
G01*
X64320000Y-42385000D01*
G75*
G02*
X64070000Y-42635000I-250000J0D01*
G01*
X63395000Y-42635000D01*
G75*
G02*
X63145000Y-42385000I0J250000D01*
G01*
G37*
%TD*%
%TO.C,C1*%
G36*
G01*
X138880000Y-42385000D02*
X138880000Y-41435000D01*
G75*
G02*
X139130000Y-41185000I250000J0D01*
G01*
X139805000Y-41185000D01*
G75*
G02*
X140055000Y-41435000I0J-250000D01*
G01*
X140055000Y-42385000D01*
G75*
G02*
X139805000Y-42635000I-250000J0D01*
G01*
X139130000Y-42635000D01*
G75*
G02*
X138880000Y-42385000I0J250000D01*
G01*
G37*
G36*
G01*
X136805000Y-42385000D02*
X136805000Y-41435000D01*
G75*
G02*
X137055000Y-41185000I250000J0D01*
G01*
X137730000Y-41185000D01*
G75*
G02*
X137980000Y-41435000I0J-250000D01*
G01*
X137980000Y-42385000D01*
G75*
G02*
X137730000Y-42635000I-250000J0D01*
G01*
X137055000Y-42635000D01*
G75*
G02*
X136805000Y-42385000I0J250000D01*
G01*
G37*
%TD*%
%TO.C,R6*%
G36*
G01*
X121955000Y-102050001D02*
X121955000Y-101149999D01*
G75*
G02*
X122204999Y-100900000I249999J0D01*
G01*
X122905001Y-100900000D01*
G75*
G02*
X123155000Y-101149999I0J-249999D01*
G01*
X123155000Y-102050001D01*
G75*
G02*
X122905001Y-102300000I-249999J0D01*
G01*
X122204999Y-102300000D01*
G75*
G02*
X121955000Y-102050001I0J249999D01*
G01*
G37*
G36*
G01*
X119955000Y-102050001D02*
X119955000Y-101149999D01*
G75*
G02*
X120204999Y-100900000I249999J0D01*
G01*
X120905001Y-100900000D01*
G75*
G02*
X121155000Y-101149999I0J-249999D01*
G01*
X121155000Y-102050001D01*
G75*
G02*
X120905001Y-102300000I-249999J0D01*
G01*
X120204999Y-102300000D01*
G75*
G02*
X119955000Y-102050001I0J249999D01*
G01*
G37*
%TD*%
%TO.C,R5*%
G36*
G01*
X81832500Y-35109999D02*
X81832500Y-36010001D01*
G75*
G02*
X81582501Y-36260000I-249999J0D01*
G01*
X80882499Y-36260000D01*
G75*
G02*
X80632500Y-36010001I0J249999D01*
G01*
X80632500Y-35109999D01*
G75*
G02*
X80882499Y-34860000I249999J0D01*
G01*
X81582501Y-34860000D01*
G75*
G02*
X81832500Y-35109999I0J-249999D01*
G01*
G37*
G36*
G01*
X83832500Y-35109999D02*
X83832500Y-36010001D01*
G75*
G02*
X83582501Y-36260000I-249999J0D01*
G01*
X82882499Y-36260000D01*
G75*
G02*
X82632500Y-36010001I0J249999D01*
G01*
X82632500Y-35109999D01*
G75*
G02*
X82882499Y-34860000I249999J0D01*
G01*
X83582501Y-34860000D01*
G75*
G02*
X83832500Y-35109999I0J-249999D01*
G01*
G37*
%TD*%
D12*
%TO.C,J18*%
X63500000Y-109220000D03*
X66040000Y-109220000D03*
X68580000Y-109220000D03*
X71120000Y-109220000D03*
X73660000Y-109220000D03*
X76200000Y-109220000D03*
X78740000Y-109220000D03*
X81280000Y-109220000D03*
D13*
X83820000Y-109220000D03*
%TD*%
D12*
%TO.C,J17*%
X96520000Y-109220000D03*
X99060000Y-109220000D03*
X101600000Y-109220000D03*
X104140000Y-109220000D03*
X106680000Y-109220000D03*
X109220000Y-109220000D03*
X111760000Y-109220000D03*
X114300000Y-109220000D03*
D13*
X116840000Y-109220000D03*
%TD*%
D12*
%TO.C,U15*%
X33020000Y-102870000D03*
X35560000Y-102870000D03*
X38100000Y-102870000D03*
X40640000Y-102870000D03*
X45720000Y-102870000D03*
X48260000Y-102870000D03*
X50800000Y-102870000D03*
X53340000Y-102870000D03*
X55880000Y-102870000D03*
X58420000Y-102870000D03*
X60960000Y-102870000D03*
X63500000Y-102870000D03*
X68580000Y-102870000D03*
X71120000Y-102870000D03*
X73660000Y-102870000D03*
X76200000Y-102870000D03*
X78740000Y-102870000D03*
X81280000Y-102870000D03*
X83820000Y-102870000D03*
X86360000Y-102870000D03*
X91440000Y-102870000D03*
X93980000Y-102870000D03*
X96520000Y-102870000D03*
X99060000Y-102870000D03*
X101600000Y-102870000D03*
X104140000Y-102870000D03*
X106680000Y-102870000D03*
X109220000Y-102870000D03*
%TD*%
D14*
%TO.C,J16*%
X104220000Y-20320000D03*
D15*
X109220000Y-20320000D03*
%TD*%
D12*
%TO.C,U14*%
X104140000Y-38100000D03*
X119380000Y-45720000D03*
X106680000Y-38100000D03*
X116840000Y-45720000D03*
X109220000Y-38100000D03*
X114300000Y-45720000D03*
X111760000Y-38100000D03*
X111760000Y-45720000D03*
X114300000Y-38100000D03*
X109220000Y-45720000D03*
X116840000Y-38100000D03*
X106680000Y-45720000D03*
X119380000Y-38100000D03*
D13*
X104140000Y-45720000D03*
%TD*%
D12*
%TO.C,U13*%
X81280000Y-38100000D03*
X99060000Y-45720000D03*
X83820000Y-38100000D03*
X96520000Y-45720000D03*
X86360000Y-38100000D03*
X93980000Y-45720000D03*
X88900000Y-38100000D03*
X91440000Y-45720000D03*
X91440000Y-38100000D03*
X88900000Y-45720000D03*
X93980000Y-38100000D03*
X86360000Y-45720000D03*
X96520000Y-38100000D03*
X83820000Y-45720000D03*
X99060000Y-38100000D03*
D16*
X81280000Y-45720000D03*
%TD*%
%TO.C,R4*%
G36*
G01*
X53790001Y-41240000D02*
X52889999Y-41240000D01*
G75*
G02*
X52640000Y-40990001I0J249999D01*
G01*
X52640000Y-40289999D01*
G75*
G02*
X52889999Y-40040000I249999J0D01*
G01*
X53790001Y-40040000D01*
G75*
G02*
X54040000Y-40289999I0J-249999D01*
G01*
X54040000Y-40990001D01*
G75*
G02*
X53790001Y-41240000I-249999J0D01*
G01*
G37*
G36*
G01*
X53790001Y-43240000D02*
X52889999Y-43240000D01*
G75*
G02*
X52640000Y-42990001I0J249999D01*
G01*
X52640000Y-42289999D01*
G75*
G02*
X52889999Y-42040000I249999J0D01*
G01*
X53790001Y-42040000D01*
G75*
G02*
X54040000Y-42289999I0J-249999D01*
G01*
X54040000Y-42990001D01*
G75*
G02*
X53790001Y-43240000I-249999J0D01*
G01*
G37*
%TD*%
%TO.C,R3*%
G36*
G01*
X127450001Y-41240000D02*
X126549999Y-41240000D01*
G75*
G02*
X126300000Y-40990001I0J249999D01*
G01*
X126300000Y-40289999D01*
G75*
G02*
X126549999Y-40040000I249999J0D01*
G01*
X127450001Y-40040000D01*
G75*
G02*
X127700000Y-40289999I0J-249999D01*
G01*
X127700000Y-40990001D01*
G75*
G02*
X127450001Y-41240000I-249999J0D01*
G01*
G37*
G36*
G01*
X127450001Y-43240000D02*
X126549999Y-43240000D01*
G75*
G02*
X126300000Y-42990001I0J249999D01*
G01*
X126300000Y-42289999D01*
G75*
G02*
X126549999Y-42040000I249999J0D01*
G01*
X127450001Y-42040000D01*
G75*
G02*
X127700000Y-42289999I0J-249999D01*
G01*
X127700000Y-42990001D01*
G75*
G02*
X127450001Y-43240000I-249999J0D01*
G01*
G37*
%TD*%
%TO.C,J15*%
X106680000Y-48260000D03*
%TD*%
%TO.C,J14*%
X106680000Y-35560000D03*
%TD*%
D10*
%TO.C,J13*%
X116840000Y-101600000D03*
%TD*%
D16*
%TO.C,J12*%
X88900000Y-33020000D03*
%TD*%
D17*
%TO.C,J11*%
X86360000Y-48260000D03*
X83820000Y-48260000D03*
D16*
X81280000Y-48260000D03*
%TD*%
D12*
%TO.C,J10*%
X73660000Y-20320000D03*
X71120000Y-20320000D03*
X68580000Y-20320000D03*
X66040000Y-20320000D03*
X63500000Y-20320000D03*
X60960000Y-20320000D03*
X58420000Y-20320000D03*
X55880000Y-20320000D03*
D13*
X53340000Y-20320000D03*
%TD*%
D12*
%TO.C,U12*%
X53340000Y-38100000D03*
X76200000Y-45720000D03*
X55880000Y-38100000D03*
X73660000Y-45720000D03*
X58420000Y-38100000D03*
X71120000Y-45720000D03*
X60960000Y-38100000D03*
X68580000Y-45720000D03*
X63500000Y-38100000D03*
X66040000Y-45720000D03*
X66040000Y-38100000D03*
X63500000Y-45720000D03*
X68580000Y-38100000D03*
X60960000Y-45720000D03*
X71120000Y-38100000D03*
X58420000Y-45720000D03*
X73660000Y-38100000D03*
X55880000Y-45720000D03*
X76200000Y-38100000D03*
D13*
X53340000Y-45720000D03*
%TD*%
D12*
%TO.C,U11*%
X127000000Y-38100000D03*
X149860000Y-45720000D03*
X129540000Y-38100000D03*
X147320000Y-45720000D03*
X132080000Y-38100000D03*
X144780000Y-45720000D03*
X134620000Y-38100000D03*
X142240000Y-45720000D03*
X137160000Y-38100000D03*
X139700000Y-45720000D03*
X139700000Y-38100000D03*
X137160000Y-45720000D03*
X142240000Y-38100000D03*
X134620000Y-45720000D03*
X144780000Y-38100000D03*
X132080000Y-45720000D03*
X147320000Y-38100000D03*
X129540000Y-45720000D03*
X149860000Y-38100000D03*
D13*
X127000000Y-45720000D03*
%TD*%
D12*
%TO.C,J9*%
X147320000Y-20320000D03*
X144780000Y-20320000D03*
X142240000Y-20320000D03*
X139700000Y-20320000D03*
X137160000Y-20320000D03*
X134620000Y-20320000D03*
X132080000Y-20320000D03*
X129540000Y-20320000D03*
D13*
X127000000Y-20320000D03*
%TD*%
D12*
%TO.C,J8*%
X73660000Y-53340000D03*
X71120000Y-53340000D03*
X68580000Y-53340000D03*
X66040000Y-53340000D03*
X63500000Y-53340000D03*
X60960000Y-53340000D03*
X58420000Y-53340000D03*
X55880000Y-53340000D03*
D13*
X53340000Y-53340000D03*
%TD*%
D12*
%TO.C,J7*%
X147320000Y-53340000D03*
X144780000Y-53340000D03*
X142240000Y-53340000D03*
X139700000Y-53340000D03*
X137160000Y-53340000D03*
X134620000Y-53340000D03*
X132080000Y-53340000D03*
X129540000Y-53340000D03*
D13*
X127000000Y-53340000D03*
%TD*%
D12*
%TO.C,J6*%
X73660000Y-66040000D03*
X71120000Y-66040000D03*
X68580000Y-66040000D03*
X66040000Y-66040000D03*
X63500000Y-66040000D03*
X60960000Y-66040000D03*
X58420000Y-66040000D03*
X55880000Y-66040000D03*
D13*
X53340000Y-66040000D03*
%TD*%
D12*
%TO.C,J5*%
X147320000Y-66040000D03*
X144780000Y-66040000D03*
X142240000Y-66040000D03*
X139700000Y-66040000D03*
X137160000Y-66040000D03*
X134620000Y-66040000D03*
X132080000Y-66040000D03*
X129540000Y-66040000D03*
D13*
X127000000Y-66040000D03*
%TD*%
D12*
%TO.C,J4*%
X73660000Y-78740000D03*
X71120000Y-78740000D03*
X68580000Y-78740000D03*
X66040000Y-78740000D03*
X63500000Y-78740000D03*
X60960000Y-78740000D03*
X58420000Y-78740000D03*
X55880000Y-78740000D03*
D13*
X53340000Y-78740000D03*
%TD*%
D12*
%TO.C,J3*%
X147320000Y-78740000D03*
X144780000Y-78740000D03*
X142240000Y-78740000D03*
X139700000Y-78740000D03*
X137160000Y-78740000D03*
X134620000Y-78740000D03*
X132080000Y-78740000D03*
X129540000Y-78740000D03*
D13*
X127000000Y-78740000D03*
%TD*%
D12*
%TO.C,J2*%
X73660000Y-91440000D03*
X71120000Y-91440000D03*
X68580000Y-91440000D03*
X66040000Y-91440000D03*
X63500000Y-91440000D03*
X60960000Y-91440000D03*
X58420000Y-91440000D03*
X55880000Y-91440000D03*
D13*
X53340000Y-91440000D03*
%TD*%
D12*
%TO.C,J1*%
X147320000Y-91440000D03*
X144780000Y-91440000D03*
X142240000Y-91440000D03*
X139700000Y-91440000D03*
X137160000Y-91440000D03*
X134620000Y-91440000D03*
X132080000Y-91440000D03*
X129540000Y-91440000D03*
D13*
X127000000Y-91440000D03*
%TD*%
D12*
%TO.C,U10*%
X86360000Y-30480000D03*
X83820000Y-30480000D03*
X81280000Y-30480000D03*
X73660000Y-30480000D03*
X71120000Y-30480000D03*
X68580000Y-30480000D03*
X66040000Y-30480000D03*
X63500000Y-30480000D03*
X60960000Y-30480000D03*
X58420000Y-30480000D03*
X55880000Y-30480000D03*
X50800000Y-30480000D03*
X48260000Y-30480000D03*
X43180000Y-30480000D03*
X38100000Y-30480000D03*
X35560000Y-30480000D03*
X33020000Y-30480000D03*
X30480000Y-30480000D03*
X27940000Y-30480000D03*
X25400000Y-30480000D03*
X22860000Y-30480000D03*
X20320000Y-30480000D03*
%TD*%
%TO.C,U9*%
X160020000Y-30480000D03*
X157480000Y-30480000D03*
X154940000Y-30480000D03*
X147320000Y-30480000D03*
X144780000Y-30480000D03*
X142240000Y-30480000D03*
X139700000Y-30480000D03*
X137160000Y-30480000D03*
X134620000Y-30480000D03*
X132080000Y-30480000D03*
X129540000Y-30480000D03*
X124460000Y-30480000D03*
X121920000Y-30480000D03*
X116840000Y-30480000D03*
X111760000Y-30480000D03*
X109220000Y-30480000D03*
X106680000Y-30480000D03*
X104140000Y-30480000D03*
X101600000Y-30480000D03*
X99060000Y-30480000D03*
X96520000Y-30480000D03*
X93980000Y-30480000D03*
%TD*%
D18*
%TO.C,H6*%
X160020000Y-109220000D03*
%TD*%
%TO.C,H4*%
X160020000Y-20320000D03*
%TD*%
%TO.C,H2*%
X90170000Y-109220000D03*
%TD*%
%TO.C,H5*%
X90170000Y-20320000D03*
%TD*%
%TO.C,H3*%
X20320000Y-109220000D03*
%TD*%
%TO.C,H1*%
X20320000Y-20320000D03*
%TD*%
D12*
%TO.C,U1*%
X160020000Y-96520000D03*
X157480000Y-96520000D03*
X154940000Y-96520000D03*
X147320000Y-96520000D03*
X144780000Y-96520000D03*
X142240000Y-96520000D03*
X139700000Y-96520000D03*
X137160000Y-96520000D03*
X134620000Y-96520000D03*
X132080000Y-96520000D03*
X129540000Y-96520000D03*
X124460000Y-96520000D03*
X121920000Y-96520000D03*
X116840000Y-96520000D03*
X111760000Y-96520000D03*
X109220000Y-96520000D03*
X106680000Y-96520000D03*
X104140000Y-96520000D03*
X101600000Y-96520000D03*
X99060000Y-96520000D03*
X96520000Y-96520000D03*
X93980000Y-96520000D03*
%TD*%
%TO.C,U8*%
X86360000Y-58420000D03*
X83820000Y-58420000D03*
X81280000Y-58420000D03*
X73660000Y-58420000D03*
X71120000Y-58420000D03*
X68580000Y-58420000D03*
X66040000Y-58420000D03*
X63500000Y-58420000D03*
X60960000Y-58420000D03*
X58420000Y-58420000D03*
X55880000Y-58420000D03*
X50800000Y-58420000D03*
X48260000Y-58420000D03*
X43180000Y-58420000D03*
X38100000Y-58420000D03*
X35560000Y-58420000D03*
X33020000Y-58420000D03*
X30480000Y-58420000D03*
X27940000Y-58420000D03*
X25400000Y-58420000D03*
X22860000Y-58420000D03*
X20320000Y-58420000D03*
%TD*%
%TO.C,U6*%
X86360000Y-71120000D03*
X83820000Y-71120000D03*
X81280000Y-71120000D03*
X73660000Y-71120000D03*
X71120000Y-71120000D03*
X68580000Y-71120000D03*
X66040000Y-71120000D03*
X63500000Y-71120000D03*
X60960000Y-71120000D03*
X58420000Y-71120000D03*
X55880000Y-71120000D03*
X50800000Y-71120000D03*
X48260000Y-71120000D03*
X43180000Y-71120000D03*
X38100000Y-71120000D03*
X35560000Y-71120000D03*
X33020000Y-71120000D03*
X30480000Y-71120000D03*
X27940000Y-71120000D03*
X25400000Y-71120000D03*
X22860000Y-71120000D03*
X20320000Y-71120000D03*
%TD*%
%TO.C,U4*%
X86360000Y-83820000D03*
X83820000Y-83820000D03*
X81280000Y-83820000D03*
X73660000Y-83820000D03*
X71120000Y-83820000D03*
X68580000Y-83820000D03*
X66040000Y-83820000D03*
X63500000Y-83820000D03*
X60960000Y-83820000D03*
X58420000Y-83820000D03*
X55880000Y-83820000D03*
X50800000Y-83820000D03*
X48260000Y-83820000D03*
X43180000Y-83820000D03*
X38100000Y-83820000D03*
X35560000Y-83820000D03*
X33020000Y-83820000D03*
X30480000Y-83820000D03*
X27940000Y-83820000D03*
X25400000Y-83820000D03*
X22860000Y-83820000D03*
X20320000Y-83820000D03*
%TD*%
%TO.C,U2*%
X86360000Y-96520000D03*
X83820000Y-96520000D03*
X81280000Y-96520000D03*
X73660000Y-96520000D03*
X71120000Y-96520000D03*
X68580000Y-96520000D03*
X66040000Y-96520000D03*
X63500000Y-96520000D03*
X60960000Y-96520000D03*
X58420000Y-96520000D03*
X55880000Y-96520000D03*
X50800000Y-96520000D03*
X48260000Y-96520000D03*
X43180000Y-96520000D03*
X38100000Y-96520000D03*
X35560000Y-96520000D03*
X33020000Y-96520000D03*
X30480000Y-96520000D03*
X27940000Y-96520000D03*
X25400000Y-96520000D03*
X22860000Y-96520000D03*
X20320000Y-96520000D03*
%TD*%
%TO.C,U7*%
X160020000Y-58420000D03*
X157480000Y-58420000D03*
X154940000Y-58420000D03*
X147320000Y-58420000D03*
X144780000Y-58420000D03*
X142240000Y-58420000D03*
X139700000Y-58420000D03*
X137160000Y-58420000D03*
X134620000Y-58420000D03*
X132080000Y-58420000D03*
X129540000Y-58420000D03*
X124460000Y-58420000D03*
X121920000Y-58420000D03*
X116840000Y-58420000D03*
X111760000Y-58420000D03*
X109220000Y-58420000D03*
X106680000Y-58420000D03*
X104140000Y-58420000D03*
X101600000Y-58420000D03*
X99060000Y-58420000D03*
X96520000Y-58420000D03*
X93980000Y-58420000D03*
%TD*%
%TO.C,U5*%
X160020000Y-71120000D03*
X157480000Y-71120000D03*
X154940000Y-71120000D03*
X147320000Y-71120000D03*
X144780000Y-71120000D03*
X142240000Y-71120000D03*
X139700000Y-71120000D03*
X137160000Y-71120000D03*
X134620000Y-71120000D03*
X132080000Y-71120000D03*
X129540000Y-71120000D03*
X124460000Y-71120000D03*
X121920000Y-71120000D03*
X116840000Y-71120000D03*
X111760000Y-71120000D03*
X109220000Y-71120000D03*
X106680000Y-71120000D03*
X104140000Y-71120000D03*
X101600000Y-71120000D03*
X99060000Y-71120000D03*
X96520000Y-71120000D03*
X93980000Y-71120000D03*
%TD*%
%TO.C,U3*%
X160020000Y-83820000D03*
X157480000Y-83820000D03*
X154940000Y-83820000D03*
X147320000Y-83820000D03*
X144780000Y-83820000D03*
X142240000Y-83820000D03*
X139700000Y-83820000D03*
X137160000Y-83820000D03*
X134620000Y-83820000D03*
X132080000Y-83820000D03*
X129540000Y-83820000D03*
X124460000Y-83820000D03*
X121920000Y-83820000D03*
X116840000Y-83820000D03*
X111760000Y-83820000D03*
X109220000Y-83820000D03*
X106680000Y-83820000D03*
X104140000Y-83820000D03*
X101600000Y-83820000D03*
X99060000Y-83820000D03*
X96520000Y-83820000D03*
X93980000Y-83820000D03*
%TD*%
M02*
