%TF.GenerationSoftware,KiCad,Pcbnew,(5.1.8)-1*%
%TF.CreationDate,2022-12-02T00:18:40+03:00*%
%TF.ProjectId,MUX8x1-v4,4d555838-7831-42d7-9634-2e6b69636164,rev?*%
%TF.SameCoordinates,Original*%
%TF.FileFunction,Legend,Top*%
%TF.FilePolarity,Positive*%
%FSLAX46Y46*%
G04 Gerber Fmt 4.6, Leading zero omitted, Abs format (unit mm)*
G04 Created by KiCad (PCBNEW (5.1.8)-1) date 2022-12-02 00:18:40*
%MOMM*%
%LPD*%
G01*
G04 APERTURE LIST*
%ADD10C,0.150000*%
%ADD11C,0.300000*%
%ADD12C,0.120000*%
G04 APERTURE END LIST*
D10*
X32567619Y-72745000D02*
X33472380Y-72745000D01*
X32805714Y-73588571D02*
X33139047Y-73588571D01*
X33281904Y-74112380D02*
X32805714Y-74112380D01*
X32805714Y-73112380D01*
X33281904Y-73112380D01*
X103012857Y-41838571D02*
X102679523Y-41838571D01*
X102679523Y-42362380D02*
X102679523Y-41362380D01*
X103155714Y-41362380D01*
X74715714Y-41838571D02*
X75049047Y-41838571D01*
X75191904Y-42362380D02*
X74715714Y-42362380D01*
X74715714Y-41362380D01*
X75191904Y-41362380D01*
X47299523Y-38457142D02*
X47251904Y-38504761D01*
X47109047Y-38552380D01*
X47013809Y-38552380D01*
X46870952Y-38504761D01*
X46775714Y-38409523D01*
X46728095Y-38314285D01*
X46680476Y-38123809D01*
X46680476Y-37980952D01*
X46728095Y-37790476D01*
X46775714Y-37695238D01*
X46870952Y-37600000D01*
X47013809Y-37552380D01*
X47109047Y-37552380D01*
X47251904Y-37600000D01*
X47299523Y-37647619D01*
D11*
X72414285Y-80688571D02*
X72414285Y-79188571D01*
X72914285Y-80260000D01*
X73414285Y-79188571D01*
X73414285Y-80688571D01*
X74128571Y-79188571D02*
X74128571Y-80402857D01*
X74200000Y-80545714D01*
X74271428Y-80617142D01*
X74414285Y-80688571D01*
X74700000Y-80688571D01*
X74842857Y-80617142D01*
X74914285Y-80545714D01*
X74985714Y-80402857D01*
X74985714Y-79188571D01*
X75557142Y-79188571D02*
X76557142Y-80688571D01*
X76557142Y-79188571D02*
X75557142Y-80688571D01*
X77342857Y-79831428D02*
X77200000Y-79760000D01*
X77128571Y-79688571D01*
X77057142Y-79545714D01*
X77057142Y-79474285D01*
X77128571Y-79331428D01*
X77200000Y-79260000D01*
X77342857Y-79188571D01*
X77628571Y-79188571D01*
X77771428Y-79260000D01*
X77842857Y-79331428D01*
X77914285Y-79474285D01*
X77914285Y-79545714D01*
X77842857Y-79688571D01*
X77771428Y-79760000D01*
X77628571Y-79831428D01*
X77342857Y-79831428D01*
X77200000Y-79902857D01*
X77128571Y-79974285D01*
X77057142Y-80117142D01*
X77057142Y-80402857D01*
X77128571Y-80545714D01*
X77200000Y-80617142D01*
X77342857Y-80688571D01*
X77628571Y-80688571D01*
X77771428Y-80617142D01*
X77842857Y-80545714D01*
X77914285Y-80402857D01*
X77914285Y-80117142D01*
X77842857Y-79974285D01*
X77771428Y-79902857D01*
X77628571Y-79831428D01*
X78557142Y-80545714D02*
X78628571Y-80617142D01*
X78557142Y-80688571D01*
X78485714Y-80617142D01*
X78557142Y-80545714D01*
X78557142Y-80688571D01*
X78557142Y-79760000D02*
X78628571Y-79831428D01*
X78557142Y-79902857D01*
X78485714Y-79831428D01*
X78557142Y-79760000D01*
X78557142Y-79902857D01*
X80057142Y-80688571D02*
X79200000Y-80688571D01*
X79628571Y-80688571D02*
X79628571Y-79188571D01*
X79485714Y-79402857D01*
X79342857Y-79545714D01*
X79200000Y-79617142D01*
X52864285Y-79188571D02*
X53864285Y-79188571D01*
X53221428Y-80688571D01*
X55078571Y-79688571D02*
X55078571Y-80688571D01*
X54721428Y-79117142D02*
X54364285Y-80188571D01*
X55292857Y-80188571D01*
X55864285Y-80688571D02*
X55864285Y-79188571D01*
X55864285Y-79902857D02*
X56721428Y-79902857D01*
X56721428Y-80688571D02*
X56721428Y-79188571D01*
X58292857Y-80545714D02*
X58221428Y-80617142D01*
X58007142Y-80688571D01*
X57864285Y-80688571D01*
X57650000Y-80617142D01*
X57507142Y-80474285D01*
X57435714Y-80331428D01*
X57364285Y-80045714D01*
X57364285Y-79831428D01*
X57435714Y-79545714D01*
X57507142Y-79402857D01*
X57650000Y-79260000D01*
X57864285Y-79188571D01*
X58007142Y-79188571D01*
X58221428Y-79260000D01*
X58292857Y-79331428D01*
X58935714Y-80688571D02*
X58935714Y-79188571D01*
X59507142Y-79188571D01*
X59650000Y-79260000D01*
X59721428Y-79331428D01*
X59792857Y-79474285D01*
X59792857Y-79688571D01*
X59721428Y-79831428D01*
X59650000Y-79902857D01*
X59507142Y-79974285D01*
X58935714Y-79974285D01*
X60435714Y-79188571D02*
X60435714Y-80402857D01*
X60507142Y-80545714D01*
X60578571Y-80617142D01*
X60721428Y-80688571D01*
X61007142Y-80688571D01*
X61150000Y-80617142D01*
X61221428Y-80545714D01*
X61292857Y-80402857D01*
X61292857Y-79188571D01*
D10*
X30218095Y-57602380D02*
X30218095Y-56602380D01*
X30456190Y-56602380D01*
X30599047Y-56650000D01*
X30694285Y-56745238D01*
X30741904Y-56840476D01*
X30789523Y-57030952D01*
X30789523Y-57173809D01*
X30741904Y-57364285D01*
X30694285Y-57459523D01*
X30599047Y-57554761D01*
X30456190Y-57602380D01*
X30218095Y-57602380D01*
X30241904Y-108116666D02*
X30718095Y-108116666D01*
X30146666Y-108402380D02*
X30480000Y-107402380D01*
X30813333Y-108402380D01*
X75191904Y-120150000D02*
X75096666Y-120102380D01*
X74953809Y-120102380D01*
X74810952Y-120150000D01*
X74715714Y-120245238D01*
X74668095Y-120340476D01*
X74620476Y-120530952D01*
X74620476Y-120673809D01*
X74668095Y-120864285D01*
X74715714Y-120959523D01*
X74810952Y-121054761D01*
X74953809Y-121102380D01*
X75049047Y-121102380D01*
X75191904Y-121054761D01*
X75239523Y-121007142D01*
X75239523Y-120673809D01*
X75049047Y-120673809D01*
X47061428Y-124388571D02*
X47204285Y-124436190D01*
X47251904Y-124483809D01*
X47299523Y-124579047D01*
X47299523Y-124721904D01*
X47251904Y-124817142D01*
X47204285Y-124864761D01*
X47109047Y-124912380D01*
X46728095Y-124912380D01*
X46728095Y-123912380D01*
X47061428Y-123912380D01*
X47156666Y-123960000D01*
X47204285Y-124007619D01*
X47251904Y-124102857D01*
X47251904Y-124198095D01*
X47204285Y-124293333D01*
X47156666Y-124340952D01*
X47061428Y-124388571D01*
X46728095Y-124388571D01*
X30146666Y-116292380D02*
X30813333Y-116292380D01*
X30384761Y-117292380D01*
X30432380Y-98512380D02*
X30527619Y-98512380D01*
X30622857Y-98560000D01*
X30670476Y-98607619D01*
X30718095Y-98702857D01*
X30765714Y-98893333D01*
X30765714Y-99131428D01*
X30718095Y-99321904D01*
X30670476Y-99417142D01*
X30622857Y-99464761D01*
X30527619Y-99512380D01*
X30432380Y-99512380D01*
X30337142Y-99464761D01*
X30289523Y-99417142D01*
X30241904Y-99321904D01*
X30194285Y-99131428D01*
X30194285Y-98893333D01*
X30241904Y-98702857D01*
X30289523Y-98607619D01*
X30337142Y-98560000D01*
X30432380Y-98512380D01*
X30432380Y-47712380D02*
X30527619Y-47712380D01*
X30622857Y-47760000D01*
X30670476Y-47807619D01*
X30718095Y-47902857D01*
X30765714Y-48093333D01*
X30765714Y-48331428D01*
X30718095Y-48521904D01*
X30670476Y-48617142D01*
X30622857Y-48664761D01*
X30527619Y-48712380D01*
X30432380Y-48712380D01*
X30337142Y-48664761D01*
X30289523Y-48617142D01*
X30241904Y-48521904D01*
X30194285Y-48331428D01*
X30194285Y-48093333D01*
X30241904Y-47902857D01*
X30289523Y-47807619D01*
X30337142Y-47760000D01*
X30432380Y-47712380D01*
X30146666Y-65492380D02*
X30813333Y-65492380D01*
X30384761Y-66492380D01*
X38052380Y-37552380D02*
X38147619Y-37552380D01*
X38242857Y-37600000D01*
X38290476Y-37647619D01*
X38338095Y-37742857D01*
X38385714Y-37933333D01*
X38385714Y-38171428D01*
X38338095Y-38361904D01*
X38290476Y-38457142D01*
X38242857Y-38504761D01*
X38147619Y-38552380D01*
X38052380Y-38552380D01*
X37957142Y-38504761D01*
X37909523Y-38457142D01*
X37861904Y-38361904D01*
X37814285Y-38171428D01*
X37814285Y-37933333D01*
X37861904Y-37742857D01*
X37909523Y-37647619D01*
X37957142Y-37600000D01*
X38052380Y-37552380D01*
X55546666Y-37552380D02*
X56213333Y-37552380D01*
X55784761Y-38552380D01*
X65992380Y-41362380D02*
X66087619Y-41362380D01*
X66182857Y-41410000D01*
X66230476Y-41457619D01*
X66278095Y-41552857D01*
X66325714Y-41743333D01*
X66325714Y-41981428D01*
X66278095Y-42171904D01*
X66230476Y-42267142D01*
X66182857Y-42314761D01*
X66087619Y-42362380D01*
X65992380Y-42362380D01*
X65897142Y-42314761D01*
X65849523Y-42267142D01*
X65801904Y-42171904D01*
X65754285Y-41981428D01*
X65754285Y-41743333D01*
X65801904Y-41552857D01*
X65849523Y-41457619D01*
X65897142Y-41410000D01*
X65992380Y-41362380D01*
X83486666Y-41362380D02*
X84153333Y-41362380D01*
X83724761Y-42362380D01*
X93932380Y-41362380D02*
X94027619Y-41362380D01*
X94122857Y-41410000D01*
X94170476Y-41457619D01*
X94218095Y-41552857D01*
X94265714Y-41743333D01*
X94265714Y-41981428D01*
X94218095Y-42171904D01*
X94170476Y-42267142D01*
X94122857Y-42314761D01*
X94027619Y-42362380D01*
X93932380Y-42362380D01*
X93837142Y-42314761D01*
X93789523Y-42267142D01*
X93741904Y-42171904D01*
X93694285Y-41981428D01*
X93694285Y-41743333D01*
X93741904Y-41552857D01*
X93789523Y-41457619D01*
X93837142Y-41410000D01*
X93932380Y-41362380D01*
X111426666Y-41362380D02*
X112093333Y-41362380D01*
X111664761Y-42362380D01*
X38052380Y-123912380D02*
X38147619Y-123912380D01*
X38242857Y-123960000D01*
X38290476Y-124007619D01*
X38338095Y-124102857D01*
X38385714Y-124293333D01*
X38385714Y-124531428D01*
X38338095Y-124721904D01*
X38290476Y-124817142D01*
X38242857Y-124864761D01*
X38147619Y-124912380D01*
X38052380Y-124912380D01*
X37957142Y-124864761D01*
X37909523Y-124817142D01*
X37861904Y-124721904D01*
X37814285Y-124531428D01*
X37814285Y-124293333D01*
X37861904Y-124102857D01*
X37909523Y-124007619D01*
X37957142Y-123960000D01*
X38052380Y-123912380D01*
X55546666Y-123912380D02*
X56213333Y-123912380D01*
X55784761Y-124912380D01*
X65992380Y-120102380D02*
X66087619Y-120102380D01*
X66182857Y-120150000D01*
X66230476Y-120197619D01*
X66278095Y-120292857D01*
X66325714Y-120483333D01*
X66325714Y-120721428D01*
X66278095Y-120911904D01*
X66230476Y-121007142D01*
X66182857Y-121054761D01*
X66087619Y-121102380D01*
X65992380Y-121102380D01*
X65897142Y-121054761D01*
X65849523Y-121007142D01*
X65801904Y-120911904D01*
X65754285Y-120721428D01*
X65754285Y-120483333D01*
X65801904Y-120292857D01*
X65849523Y-120197619D01*
X65897142Y-120150000D01*
X65992380Y-120102380D01*
X83486666Y-120102380D02*
X84153333Y-120102380D01*
X83724761Y-121102380D01*
X111426666Y-120102380D02*
X112093333Y-120102380D01*
X111664761Y-121102380D01*
X93932380Y-120102380D02*
X94027619Y-120102380D01*
X94122857Y-120150000D01*
X94170476Y-120197619D01*
X94218095Y-120292857D01*
X94265714Y-120483333D01*
X94265714Y-120721428D01*
X94218095Y-120911904D01*
X94170476Y-121007142D01*
X94122857Y-121054761D01*
X94027619Y-121102380D01*
X93932380Y-121102380D01*
X93837142Y-121054761D01*
X93789523Y-121007142D01*
X93741904Y-120911904D01*
X93694285Y-120721428D01*
X93694285Y-120483333D01*
X93741904Y-120292857D01*
X93789523Y-120197619D01*
X93837142Y-120150000D01*
X93932380Y-120102380D01*
X101314285Y-121102380D02*
X101314285Y-120102380D01*
X101314285Y-120578571D02*
X101885714Y-120578571D01*
X101885714Y-121102380D02*
X101885714Y-120102380D01*
X98298095Y-114704761D02*
X98440952Y-114752380D01*
X98679047Y-114752380D01*
X98774285Y-114704761D01*
X98821904Y-114657142D01*
X98869523Y-114561904D01*
X98869523Y-114466666D01*
X98821904Y-114371428D01*
X98774285Y-114323809D01*
X98679047Y-114276190D01*
X98488571Y-114228571D01*
X98393333Y-114180952D01*
X98345714Y-114133333D01*
X98298095Y-114038095D01*
X98298095Y-113942857D01*
X98345714Y-113847619D01*
X98393333Y-113800000D01*
X98488571Y-113752380D01*
X98726666Y-113752380D01*
X98869523Y-113800000D01*
X99250476Y-113847619D02*
X99298095Y-113800000D01*
X99393333Y-113752380D01*
X99631428Y-113752380D01*
X99726666Y-113800000D01*
X99774285Y-113847619D01*
X99821904Y-113942857D01*
X99821904Y-114038095D01*
X99774285Y-114180952D01*
X99202857Y-114752380D01*
X99821904Y-114752380D01*
X100838095Y-114704761D02*
X100980952Y-114752380D01*
X101219047Y-114752380D01*
X101314285Y-114704761D01*
X101361904Y-114657142D01*
X101409523Y-114561904D01*
X101409523Y-114466666D01*
X101361904Y-114371428D01*
X101314285Y-114323809D01*
X101219047Y-114276190D01*
X101028571Y-114228571D01*
X100933333Y-114180952D01*
X100885714Y-114133333D01*
X100838095Y-114038095D01*
X100838095Y-113942857D01*
X100885714Y-113847619D01*
X100933333Y-113800000D01*
X101028571Y-113752380D01*
X101266666Y-113752380D01*
X101409523Y-113800000D01*
X102361904Y-114752380D02*
X101790476Y-114752380D01*
X102076190Y-114752380D02*
X102076190Y-113752380D01*
X101980952Y-113895238D01*
X101885714Y-113990476D01*
X101790476Y-114038095D01*
X103378095Y-114704761D02*
X103520952Y-114752380D01*
X103759047Y-114752380D01*
X103854285Y-114704761D01*
X103901904Y-114657142D01*
X103949523Y-114561904D01*
X103949523Y-114466666D01*
X103901904Y-114371428D01*
X103854285Y-114323809D01*
X103759047Y-114276190D01*
X103568571Y-114228571D01*
X103473333Y-114180952D01*
X103425714Y-114133333D01*
X103378095Y-114038095D01*
X103378095Y-113942857D01*
X103425714Y-113847619D01*
X103473333Y-113800000D01*
X103568571Y-113752380D01*
X103806666Y-113752380D01*
X103949523Y-113800000D01*
X104568571Y-113752380D02*
X104663809Y-113752380D01*
X104759047Y-113800000D01*
X104806666Y-113847619D01*
X104854285Y-113942857D01*
X104901904Y-114133333D01*
X104901904Y-114371428D01*
X104854285Y-114561904D01*
X104806666Y-114657142D01*
X104759047Y-114704761D01*
X104663809Y-114752380D01*
X104568571Y-114752380D01*
X104473333Y-114704761D01*
X104425714Y-114657142D01*
X104378095Y-114561904D01*
X104330476Y-114371428D01*
X104330476Y-114133333D01*
X104378095Y-113942857D01*
X104425714Y-113847619D01*
X104473333Y-113800000D01*
X104568571Y-113752380D01*
X115649523Y-112482380D02*
X115982857Y-113482380D01*
X116316190Y-112482380D01*
X117078095Y-113434761D02*
X116982857Y-113482380D01*
X116792380Y-113482380D01*
X116697142Y-113434761D01*
X116649523Y-113387142D01*
X116601904Y-113291904D01*
X116601904Y-113006190D01*
X116649523Y-112910952D01*
X116697142Y-112863333D01*
X116792380Y-112815714D01*
X116982857Y-112815714D01*
X117078095Y-112863333D01*
X117935238Y-113434761D02*
X117840000Y-113482380D01*
X117649523Y-113482380D01*
X117554285Y-113434761D01*
X117506666Y-113387142D01*
X117459047Y-113291904D01*
X117459047Y-113006190D01*
X117506666Y-112910952D01*
X117554285Y-112863333D01*
X117649523Y-112815714D01*
X117840000Y-112815714D01*
X117935238Y-112863333D01*
X116197142Y-99830000D02*
X116101904Y-99782380D01*
X115959047Y-99782380D01*
X115816190Y-99830000D01*
X115720952Y-99925238D01*
X115673333Y-100020476D01*
X115625714Y-100210952D01*
X115625714Y-100353809D01*
X115673333Y-100544285D01*
X115720952Y-100639523D01*
X115816190Y-100734761D01*
X115959047Y-100782380D01*
X116054285Y-100782380D01*
X116197142Y-100734761D01*
X116244761Y-100687142D01*
X116244761Y-100353809D01*
X116054285Y-100353809D01*
X116673333Y-100115714D02*
X116673333Y-100782380D01*
X116673333Y-100210952D02*
X116720952Y-100163333D01*
X116816190Y-100115714D01*
X116959047Y-100115714D01*
X117054285Y-100163333D01*
X117101904Y-100258571D01*
X117101904Y-100782380D01*
X118006666Y-100782380D02*
X118006666Y-99782380D01*
X118006666Y-100734761D02*
X117911428Y-100782380D01*
X117720952Y-100782380D01*
X117625714Y-100734761D01*
X117578095Y-100687142D01*
X117530476Y-100591904D01*
X117530476Y-100306190D01*
X117578095Y-100210952D01*
X117625714Y-100163333D01*
X117720952Y-100115714D01*
X117911428Y-100115714D01*
X118006666Y-100163333D01*
X111212380Y-73993333D02*
X111212380Y-73326666D01*
X112212380Y-73755238D01*
X111212380Y-91487619D02*
X111212380Y-91392380D01*
X111260000Y-91297142D01*
X111307619Y-91249523D01*
X111402857Y-91201904D01*
X111593333Y-91154285D01*
X111831428Y-91154285D01*
X112021904Y-91201904D01*
X112117142Y-91249523D01*
X112164761Y-91297142D01*
X112212380Y-91392380D01*
X112212380Y-91487619D01*
X112164761Y-91582857D01*
X112117142Y-91630476D01*
X112021904Y-91678095D01*
X111831428Y-91725714D01*
X111593333Y-91725714D01*
X111402857Y-91678095D01*
X111307619Y-91630476D01*
X111260000Y-91582857D01*
X111212380Y-91487619D01*
X111212380Y-82915000D02*
X111212380Y-82724523D01*
X111260000Y-82629285D01*
X111355238Y-82534047D01*
X111545714Y-82486428D01*
X111879047Y-82486428D01*
X112069523Y-82534047D01*
X112164761Y-82629285D01*
X112212380Y-82724523D01*
X112212380Y-82915000D01*
X112164761Y-83010238D01*
X112069523Y-83105476D01*
X111879047Y-83153095D01*
X111545714Y-83153095D01*
X111355238Y-83105476D01*
X111260000Y-83010238D01*
X111212380Y-82915000D01*
X111212380Y-82057857D02*
X112021904Y-82057857D01*
X112117142Y-82010238D01*
X112164761Y-81962619D01*
X112212380Y-81867380D01*
X112212380Y-81676904D01*
X112164761Y-81581666D01*
X112117142Y-81534047D01*
X112021904Y-81486428D01*
X111212380Y-81486428D01*
X111212380Y-81153095D02*
X111212380Y-80581666D01*
X112212380Y-80867380D02*
X111212380Y-80867380D01*
D12*
%TO.C,J21*%
X116780000Y-69790000D02*
X118110000Y-69790000D01*
X116780000Y-71120000D02*
X116780000Y-69790000D01*
X116780000Y-72390000D02*
X119440000Y-72390000D01*
X119440000Y-72390000D02*
X119440000Y-92770000D01*
X116780000Y-72390000D02*
X116780000Y-92770000D01*
X116780000Y-92770000D02*
X119440000Y-92770000D01*
%TO.C,J19*%
X112970000Y-69790000D02*
X114300000Y-69790000D01*
X112970000Y-71120000D02*
X112970000Y-69790000D01*
X112970000Y-72390000D02*
X115630000Y-72390000D01*
X115630000Y-72390000D02*
X115630000Y-92770000D01*
X112970000Y-72390000D02*
X112970000Y-92770000D01*
X112970000Y-92770000D02*
X115630000Y-92770000D01*
%TO.C,J18*%
X90110000Y-124520000D02*
X90110000Y-123190000D01*
X91440000Y-124520000D02*
X90110000Y-124520000D01*
X92710000Y-124520000D02*
X92710000Y-121860000D01*
X92710000Y-121860000D02*
X113090000Y-121860000D01*
X92710000Y-124520000D02*
X113090000Y-124520000D01*
X113090000Y-124520000D02*
X113090000Y-121860000D01*
%TO.C,J16*%
X90110000Y-128330000D02*
X90110000Y-127000000D01*
X91440000Y-128330000D02*
X90110000Y-128330000D01*
X92710000Y-128330000D02*
X92710000Y-125670000D01*
X92710000Y-125670000D02*
X113090000Y-125670000D01*
X92710000Y-128330000D02*
X113090000Y-128330000D01*
X113090000Y-128330000D02*
X113090000Y-125670000D01*
%TO.C,J15*%
X26610000Y-44390000D02*
X27940000Y-44390000D01*
X26610000Y-45720000D02*
X26610000Y-44390000D01*
X26610000Y-46990000D02*
X29270000Y-46990000D01*
X29270000Y-46990000D02*
X29270000Y-67370000D01*
X26610000Y-46990000D02*
X26610000Y-67370000D01*
X26610000Y-67370000D02*
X29270000Y-67370000D01*
%TO.C,J14*%
X62170000Y-128330000D02*
X62170000Y-127000000D01*
X63500000Y-128330000D02*
X62170000Y-128330000D01*
X64770000Y-128330000D02*
X64770000Y-125670000D01*
X64770000Y-125670000D02*
X85150000Y-125670000D01*
X64770000Y-128330000D02*
X85150000Y-128330000D01*
X85150000Y-128330000D02*
X85150000Y-125670000D01*
%TO.C,J12*%
X62170000Y-124520000D02*
X62170000Y-123190000D01*
X63500000Y-124520000D02*
X62170000Y-124520000D01*
X64770000Y-124520000D02*
X64770000Y-121860000D01*
X64770000Y-121860000D02*
X85150000Y-121860000D01*
X64770000Y-124520000D02*
X85150000Y-124520000D01*
X85150000Y-124520000D02*
X85150000Y-121860000D01*
%TO.C,J11*%
X34230000Y-36890000D02*
X34230000Y-35560000D01*
X35560000Y-36890000D02*
X34230000Y-36890000D01*
X36830000Y-36890000D02*
X36830000Y-34230000D01*
X36830000Y-34230000D02*
X57210000Y-34230000D01*
X36830000Y-36890000D02*
X57210000Y-36890000D01*
X57210000Y-36890000D02*
X57210000Y-34230000D01*
%TO.C,J8*%
X90110000Y-36930000D02*
X90110000Y-35600000D01*
X91440000Y-36930000D02*
X90110000Y-36930000D01*
X92710000Y-36930000D02*
X92710000Y-34270000D01*
X92710000Y-34270000D02*
X113090000Y-34270000D01*
X92710000Y-36930000D02*
X113090000Y-36930000D01*
X113090000Y-36930000D02*
X113090000Y-34270000D01*
%TO.C,J6*%
X90110000Y-40700000D02*
X90110000Y-39370000D01*
X91440000Y-40700000D02*
X90110000Y-40700000D01*
X92710000Y-40700000D02*
X92710000Y-38040000D01*
X92710000Y-38040000D02*
X113090000Y-38040000D01*
X92710000Y-40700000D02*
X113090000Y-40700000D01*
X113090000Y-40700000D02*
X113090000Y-38040000D01*
%TO.C,J5*%
X34230000Y-128330000D02*
X34230000Y-127000000D01*
X35560000Y-128330000D02*
X34230000Y-128330000D01*
X36830000Y-128330000D02*
X36830000Y-125670000D01*
X36830000Y-125670000D02*
X57210000Y-125670000D01*
X36830000Y-128330000D02*
X57210000Y-128330000D01*
X57210000Y-128330000D02*
X57210000Y-125670000D01*
%TO.C,J4*%
X62170000Y-36890000D02*
X62170000Y-35560000D01*
X63500000Y-36890000D02*
X62170000Y-36890000D01*
X64770000Y-36890000D02*
X64770000Y-34230000D01*
X64770000Y-34230000D02*
X85150000Y-34230000D01*
X64770000Y-36890000D02*
X85150000Y-36890000D01*
X85150000Y-36890000D02*
X85150000Y-34230000D01*
%TO.C,J2*%
X62170000Y-40700000D02*
X62170000Y-39370000D01*
X63500000Y-40700000D02*
X62170000Y-40700000D01*
X64770000Y-40700000D02*
X64770000Y-38040000D01*
X64770000Y-38040000D02*
X85150000Y-38040000D01*
X64770000Y-40700000D02*
X85150000Y-40700000D01*
X85150000Y-40700000D02*
X85150000Y-38040000D01*
%TO.C,J1*%
X26610000Y-95190000D02*
X27940000Y-95190000D01*
X26610000Y-96520000D02*
X26610000Y-95190000D01*
X26610000Y-97790000D02*
X29270000Y-97790000D01*
X29270000Y-97790000D02*
X29270000Y-118170000D01*
X26610000Y-97790000D02*
X26610000Y-118170000D01*
X26610000Y-118170000D02*
X29270000Y-118170000D01*
%TO.C,C8*%
X97790000Y-104130000D02*
X97790000Y-100340000D01*
X97790000Y-91210000D02*
X97790000Y-95000000D01*
X99460000Y-100340000D02*
X99460000Y-95000000D01*
X96120000Y-100340000D02*
X99460000Y-100340000D01*
X96120000Y-95000000D02*
X96120000Y-100340000D01*
X99460000Y-95000000D02*
X96120000Y-95000000D01*
%TO.C,C7*%
X97790000Y-68570000D02*
X97790000Y-64780000D01*
X97790000Y-55650000D02*
X97790000Y-59440000D01*
X99460000Y-64780000D02*
X99460000Y-59440000D01*
X96120000Y-64780000D02*
X99460000Y-64780000D01*
X96120000Y-59440000D02*
X96120000Y-64780000D01*
X99460000Y-59440000D02*
X96120000Y-59440000D01*
%TO.C,C6*%
X80010000Y-104130000D02*
X80010000Y-100340000D01*
X80010000Y-91210000D02*
X80010000Y-95000000D01*
X81680000Y-100340000D02*
X81680000Y-95000000D01*
X78340000Y-100340000D02*
X81680000Y-100340000D01*
X78340000Y-95000000D02*
X78340000Y-100340000D01*
X81680000Y-95000000D02*
X78340000Y-95000000D01*
%TO.C,C5*%
X80010000Y-68570000D02*
X80010000Y-64780000D01*
X80010000Y-55650000D02*
X80010000Y-59440000D01*
X81680000Y-64780000D02*
X81680000Y-59440000D01*
X78340000Y-64780000D02*
X81680000Y-64780000D01*
X78340000Y-59440000D02*
X78340000Y-64780000D01*
X81680000Y-59440000D02*
X78340000Y-59440000D01*
%TO.C,C4*%
X62230000Y-104130000D02*
X62230000Y-100340000D01*
X62230000Y-91210000D02*
X62230000Y-95000000D01*
X63900000Y-100340000D02*
X63900000Y-95000000D01*
X60560000Y-100340000D02*
X63900000Y-100340000D01*
X60560000Y-95000000D02*
X60560000Y-100340000D01*
X63900000Y-95000000D02*
X60560000Y-95000000D01*
%TO.C,C3*%
X62230000Y-68570000D02*
X62230000Y-64780000D01*
X62230000Y-55650000D02*
X62230000Y-59440000D01*
X63900000Y-64780000D02*
X63900000Y-59440000D01*
X60560000Y-64780000D02*
X63900000Y-64780000D01*
X60560000Y-59440000D02*
X60560000Y-64780000D01*
X63900000Y-59440000D02*
X60560000Y-59440000D01*
%TO.C,C2*%
X44450000Y-104130000D02*
X44450000Y-100340000D01*
X44450000Y-91210000D02*
X44450000Y-95000000D01*
X46120000Y-100340000D02*
X46120000Y-95000000D01*
X42780000Y-100340000D02*
X46120000Y-100340000D01*
X42780000Y-95000000D02*
X42780000Y-100340000D01*
X46120000Y-95000000D02*
X42780000Y-95000000D01*
%TO.C,C1*%
X44450000Y-68570000D02*
X44450000Y-64780000D01*
X44450000Y-55650000D02*
X44450000Y-59440000D01*
X46120000Y-64780000D02*
X46120000Y-59440000D01*
X42780000Y-64780000D02*
X46120000Y-64780000D01*
X42780000Y-59440000D02*
X42780000Y-64780000D01*
X46120000Y-59440000D02*
X42780000Y-59440000D01*
%TO.C,U8*%
X102930000Y-87510000D02*
X92650000Y-87510000D01*
X102930000Y-108070000D02*
X102930000Y-87510000D01*
X92650000Y-108070000D02*
X102930000Y-108070000D01*
X92650000Y-87510000D02*
X92650000Y-108070000D01*
X100440000Y-87570000D02*
X98790000Y-87570000D01*
X100440000Y-108010000D02*
X100440000Y-87570000D01*
X95140000Y-108010000D02*
X100440000Y-108010000D01*
X95140000Y-87570000D02*
X95140000Y-108010000D01*
X96790000Y-87570000D02*
X95140000Y-87570000D01*
X98790000Y-87570000D02*
G75*
G02*
X96790000Y-87570000I-1000000J0D01*
G01*
%TO.C,U7*%
X102930000Y-51950000D02*
X92650000Y-51950000D01*
X102930000Y-72510000D02*
X102930000Y-51950000D01*
X92650000Y-72510000D02*
X102930000Y-72510000D01*
X92650000Y-51950000D02*
X92650000Y-72510000D01*
X100440000Y-52010000D02*
X98790000Y-52010000D01*
X100440000Y-72450000D02*
X100440000Y-52010000D01*
X95140000Y-72450000D02*
X100440000Y-72450000D01*
X95140000Y-52010000D02*
X95140000Y-72450000D01*
X96790000Y-52010000D02*
X95140000Y-52010000D01*
X98790000Y-52010000D02*
G75*
G02*
X96790000Y-52010000I-1000000J0D01*
G01*
%TO.C,U6*%
X85150000Y-87510000D02*
X74870000Y-87510000D01*
X85150000Y-108070000D02*
X85150000Y-87510000D01*
X74870000Y-108070000D02*
X85150000Y-108070000D01*
X74870000Y-87510000D02*
X74870000Y-108070000D01*
X82660000Y-87570000D02*
X81010000Y-87570000D01*
X82660000Y-108010000D02*
X82660000Y-87570000D01*
X77360000Y-108010000D02*
X82660000Y-108010000D01*
X77360000Y-87570000D02*
X77360000Y-108010000D01*
X79010000Y-87570000D02*
X77360000Y-87570000D01*
X81010000Y-87570000D02*
G75*
G02*
X79010000Y-87570000I-1000000J0D01*
G01*
%TO.C,U5*%
X85150000Y-51950000D02*
X74870000Y-51950000D01*
X85150000Y-72510000D02*
X85150000Y-51950000D01*
X74870000Y-72510000D02*
X85150000Y-72510000D01*
X74870000Y-51950000D02*
X74870000Y-72510000D01*
X82660000Y-52010000D02*
X81010000Y-52010000D01*
X82660000Y-72450000D02*
X82660000Y-52010000D01*
X77360000Y-72450000D02*
X82660000Y-72450000D01*
X77360000Y-52010000D02*
X77360000Y-72450000D01*
X79010000Y-52010000D02*
X77360000Y-52010000D01*
X81010000Y-52010000D02*
G75*
G02*
X79010000Y-52010000I-1000000J0D01*
G01*
%TO.C,U4*%
X67370000Y-87510000D02*
X57090000Y-87510000D01*
X67370000Y-108070000D02*
X67370000Y-87510000D01*
X57090000Y-108070000D02*
X67370000Y-108070000D01*
X57090000Y-87510000D02*
X57090000Y-108070000D01*
X64880000Y-87570000D02*
X63230000Y-87570000D01*
X64880000Y-108010000D02*
X64880000Y-87570000D01*
X59580000Y-108010000D02*
X64880000Y-108010000D01*
X59580000Y-87570000D02*
X59580000Y-108010000D01*
X61230000Y-87570000D02*
X59580000Y-87570000D01*
X63230000Y-87570000D02*
G75*
G02*
X61230000Y-87570000I-1000000J0D01*
G01*
%TO.C,U3*%
X67370000Y-51950000D02*
X57090000Y-51950000D01*
X67370000Y-72510000D02*
X67370000Y-51950000D01*
X57090000Y-72510000D02*
X67370000Y-72510000D01*
X57090000Y-51950000D02*
X57090000Y-72510000D01*
X64880000Y-52010000D02*
X63230000Y-52010000D01*
X64880000Y-72450000D02*
X64880000Y-52010000D01*
X59580000Y-72450000D02*
X64880000Y-72450000D01*
X59580000Y-52010000D02*
X59580000Y-72450000D01*
X61230000Y-52010000D02*
X59580000Y-52010000D01*
X63230000Y-52010000D02*
G75*
G02*
X61230000Y-52010000I-1000000J0D01*
G01*
%TO.C,U2*%
X49590000Y-87510000D02*
X39310000Y-87510000D01*
X49590000Y-108070000D02*
X49590000Y-87510000D01*
X39310000Y-108070000D02*
X49590000Y-108070000D01*
X39310000Y-87510000D02*
X39310000Y-108070000D01*
X47100000Y-87570000D02*
X45450000Y-87570000D01*
X47100000Y-108010000D02*
X47100000Y-87570000D01*
X41800000Y-108010000D02*
X47100000Y-108010000D01*
X41800000Y-87570000D02*
X41800000Y-108010000D01*
X43450000Y-87570000D02*
X41800000Y-87570000D01*
X45450000Y-87570000D02*
G75*
G02*
X43450000Y-87570000I-1000000J0D01*
G01*
%TO.C,U1*%
X49590000Y-51950000D02*
X39310000Y-51950000D01*
X49590000Y-72510000D02*
X49590000Y-51950000D01*
X39310000Y-72510000D02*
X49590000Y-72510000D01*
X39310000Y-51950000D02*
X39310000Y-72510000D01*
X47100000Y-52010000D02*
X45450000Y-52010000D01*
X47100000Y-72450000D02*
X47100000Y-52010000D01*
X41800000Y-72450000D02*
X47100000Y-72450000D01*
X41800000Y-52010000D02*
X41800000Y-72450000D01*
X43450000Y-52010000D02*
X41800000Y-52010000D01*
X45450000Y-52010000D02*
G75*
G02*
X43450000Y-52010000I-1000000J0D01*
G01*
%TO.C,J20*%
X29150000Y-72330000D02*
X30480000Y-72330000D01*
X29150000Y-73660000D02*
X29150000Y-72330000D01*
X29150000Y-74930000D02*
X31810000Y-74930000D01*
X31810000Y-74930000D02*
X31810000Y-74990000D01*
X29150000Y-74930000D02*
X29150000Y-74990000D01*
X29150000Y-74990000D02*
X31810000Y-74990000D01*
%TO.C,J10*%
X105470000Y-110430000D02*
X105470000Y-111760000D01*
X104140000Y-110430000D02*
X105470000Y-110430000D01*
X102870000Y-110430000D02*
X102870000Y-113090000D01*
X102870000Y-113090000D02*
X97730000Y-113090000D01*
X102870000Y-110430000D02*
X97730000Y-110430000D01*
X97730000Y-110430000D02*
X97730000Y-113090000D01*
%TO.C,J9*%
X121740000Y-112020000D02*
X121740000Y-111520000D01*
X121000000Y-112020000D02*
X121740000Y-112020000D01*
X117863000Y-105447000D02*
X117909000Y-105494000D01*
X115565000Y-103150000D02*
X115601000Y-103185000D01*
X118079000Y-105254000D02*
X118114000Y-105289000D01*
X115771000Y-102945000D02*
X115817000Y-102992000D01*
X111579000Y-101660000D02*
X121500000Y-101660000D01*
X111579000Y-111780000D02*
X121500000Y-111780000D01*
X121500000Y-111780000D02*
X121500000Y-101660000D01*
X111579000Y-111780000D02*
X111579000Y-101660000D01*
X114539000Y-111780000D02*
X114539000Y-101660000D01*
X119440000Y-111780000D02*
X119440000Y-101660000D01*
X120940000Y-111780000D02*
X120940000Y-101660000D01*
X118520000Y-104220000D02*
G75*
G03*
X118520000Y-104220000I-1680000J0D01*
G01*
X118520253Y-109191195D02*
G75*
G02*
X118375000Y-109904000I-1680253J-28805D01*
G01*
X117523042Y-110755426D02*
G75*
G02*
X116156000Y-110755000I-683042J1535426D01*
G01*
X115304574Y-109903042D02*
G75*
G02*
X115305000Y-108536000I1535426J683042D01*
G01*
X116156958Y-107684574D02*
G75*
G02*
X117524000Y-107685000I683042J-1535426D01*
G01*
X118374756Y-108536682D02*
G75*
G02*
X118520000Y-109220000I-1534756J-683318D01*
G01*
%TO.C,J21*%
D10*
X117300476Y-68242380D02*
X117300476Y-68956666D01*
X117252857Y-69099523D01*
X117157619Y-69194761D01*
X117014761Y-69242380D01*
X116919523Y-69242380D01*
X117729047Y-68337619D02*
X117776666Y-68290000D01*
X117871904Y-68242380D01*
X118110000Y-68242380D01*
X118205238Y-68290000D01*
X118252857Y-68337619D01*
X118300476Y-68432857D01*
X118300476Y-68528095D01*
X118252857Y-68670952D01*
X117681428Y-69242380D01*
X118300476Y-69242380D01*
X119252857Y-69242380D02*
X118681428Y-69242380D01*
X118967142Y-69242380D02*
X118967142Y-68242380D01*
X118871904Y-68385238D01*
X118776666Y-68480476D01*
X118681428Y-68528095D01*
%TO.C,J19*%
X113490476Y-68242380D02*
X113490476Y-68956666D01*
X113442857Y-69099523D01*
X113347619Y-69194761D01*
X113204761Y-69242380D01*
X113109523Y-69242380D01*
X114490476Y-69242380D02*
X113919047Y-69242380D01*
X114204761Y-69242380D02*
X114204761Y-68242380D01*
X114109523Y-68385238D01*
X114014285Y-68480476D01*
X113919047Y-68528095D01*
X114966666Y-69242380D02*
X115157142Y-69242380D01*
X115252380Y-69194761D01*
X115300000Y-69147142D01*
X115395238Y-69004285D01*
X115442857Y-68813809D01*
X115442857Y-68432857D01*
X115395238Y-68337619D01*
X115347619Y-68290000D01*
X115252380Y-68242380D01*
X115061904Y-68242380D01*
X114966666Y-68290000D01*
X114919047Y-68337619D01*
X114871428Y-68432857D01*
X114871428Y-68670952D01*
X114919047Y-68766190D01*
X114966666Y-68813809D01*
X115061904Y-68861428D01*
X115252380Y-68861428D01*
X115347619Y-68813809D01*
X115395238Y-68766190D01*
X115442857Y-68670952D01*
%TO.C,J18*%
X88562380Y-123999523D02*
X89276666Y-123999523D01*
X89419523Y-124047142D01*
X89514761Y-124142380D01*
X89562380Y-124285238D01*
X89562380Y-124380476D01*
X89562380Y-122999523D02*
X89562380Y-123570952D01*
X89562380Y-123285238D02*
X88562380Y-123285238D01*
X88705238Y-123380476D01*
X88800476Y-123475714D01*
X88848095Y-123570952D01*
X88990952Y-122428095D02*
X88943333Y-122523333D01*
X88895714Y-122570952D01*
X88800476Y-122618571D01*
X88752857Y-122618571D01*
X88657619Y-122570952D01*
X88610000Y-122523333D01*
X88562380Y-122428095D01*
X88562380Y-122237619D01*
X88610000Y-122142380D01*
X88657619Y-122094761D01*
X88752857Y-122047142D01*
X88800476Y-122047142D01*
X88895714Y-122094761D01*
X88943333Y-122142380D01*
X88990952Y-122237619D01*
X88990952Y-122428095D01*
X89038571Y-122523333D01*
X89086190Y-122570952D01*
X89181428Y-122618571D01*
X89371904Y-122618571D01*
X89467142Y-122570952D01*
X89514761Y-122523333D01*
X89562380Y-122428095D01*
X89562380Y-122237619D01*
X89514761Y-122142380D01*
X89467142Y-122094761D01*
X89371904Y-122047142D01*
X89181428Y-122047142D01*
X89086190Y-122094761D01*
X89038571Y-122142380D01*
X88990952Y-122237619D01*
%TO.C,J16*%
X88562380Y-127809523D02*
X89276666Y-127809523D01*
X89419523Y-127857142D01*
X89514761Y-127952380D01*
X89562380Y-128095238D01*
X89562380Y-128190476D01*
X89562380Y-126809523D02*
X89562380Y-127380952D01*
X89562380Y-127095238D02*
X88562380Y-127095238D01*
X88705238Y-127190476D01*
X88800476Y-127285714D01*
X88848095Y-127380952D01*
X88562380Y-125952380D02*
X88562380Y-126142857D01*
X88610000Y-126238095D01*
X88657619Y-126285714D01*
X88800476Y-126380952D01*
X88990952Y-126428571D01*
X89371904Y-126428571D01*
X89467142Y-126380952D01*
X89514761Y-126333333D01*
X89562380Y-126238095D01*
X89562380Y-126047619D01*
X89514761Y-125952380D01*
X89467142Y-125904761D01*
X89371904Y-125857142D01*
X89133809Y-125857142D01*
X89038571Y-125904761D01*
X88990952Y-125952380D01*
X88943333Y-126047619D01*
X88943333Y-126238095D01*
X88990952Y-126333333D01*
X89038571Y-126380952D01*
X89133809Y-126428571D01*
%TO.C,J15*%
X27130476Y-42842380D02*
X27130476Y-43556666D01*
X27082857Y-43699523D01*
X26987619Y-43794761D01*
X26844761Y-43842380D01*
X26749523Y-43842380D01*
X28130476Y-43842380D02*
X27559047Y-43842380D01*
X27844761Y-43842380D02*
X27844761Y-42842380D01*
X27749523Y-42985238D01*
X27654285Y-43080476D01*
X27559047Y-43128095D01*
X29035238Y-42842380D02*
X28559047Y-42842380D01*
X28511428Y-43318571D01*
X28559047Y-43270952D01*
X28654285Y-43223333D01*
X28892380Y-43223333D01*
X28987619Y-43270952D01*
X29035238Y-43318571D01*
X29082857Y-43413809D01*
X29082857Y-43651904D01*
X29035238Y-43747142D01*
X28987619Y-43794761D01*
X28892380Y-43842380D01*
X28654285Y-43842380D01*
X28559047Y-43794761D01*
X28511428Y-43747142D01*
%TO.C,J14*%
X60622380Y-127809523D02*
X61336666Y-127809523D01*
X61479523Y-127857142D01*
X61574761Y-127952380D01*
X61622380Y-128095238D01*
X61622380Y-128190476D01*
X61622380Y-126809523D02*
X61622380Y-127380952D01*
X61622380Y-127095238D02*
X60622380Y-127095238D01*
X60765238Y-127190476D01*
X60860476Y-127285714D01*
X60908095Y-127380952D01*
X60955714Y-125952380D02*
X61622380Y-125952380D01*
X60574761Y-126190476D02*
X61289047Y-126428571D01*
X61289047Y-125809523D01*
%TO.C,J12*%
X60622380Y-123999523D02*
X61336666Y-123999523D01*
X61479523Y-124047142D01*
X61574761Y-124142380D01*
X61622380Y-124285238D01*
X61622380Y-124380476D01*
X61622380Y-122999523D02*
X61622380Y-123570952D01*
X61622380Y-123285238D02*
X60622380Y-123285238D01*
X60765238Y-123380476D01*
X60860476Y-123475714D01*
X60908095Y-123570952D01*
X60717619Y-122618571D02*
X60670000Y-122570952D01*
X60622380Y-122475714D01*
X60622380Y-122237619D01*
X60670000Y-122142380D01*
X60717619Y-122094761D01*
X60812857Y-122047142D01*
X60908095Y-122047142D01*
X61050952Y-122094761D01*
X61622380Y-122666190D01*
X61622380Y-122047142D01*
%TO.C,J11*%
X32682380Y-36369523D02*
X33396666Y-36369523D01*
X33539523Y-36417142D01*
X33634761Y-36512380D01*
X33682380Y-36655238D01*
X33682380Y-36750476D01*
X33682380Y-35369523D02*
X33682380Y-35940952D01*
X33682380Y-35655238D02*
X32682380Y-35655238D01*
X32825238Y-35750476D01*
X32920476Y-35845714D01*
X32968095Y-35940952D01*
X33682380Y-34417142D02*
X33682380Y-34988571D01*
X33682380Y-34702857D02*
X32682380Y-34702857D01*
X32825238Y-34798095D01*
X32920476Y-34893333D01*
X32968095Y-34988571D01*
%TO.C,J8*%
X88562380Y-35933333D02*
X89276666Y-35933333D01*
X89419523Y-35980952D01*
X89514761Y-36076190D01*
X89562380Y-36219047D01*
X89562380Y-36314285D01*
X88990952Y-35314285D02*
X88943333Y-35409523D01*
X88895714Y-35457142D01*
X88800476Y-35504761D01*
X88752857Y-35504761D01*
X88657619Y-35457142D01*
X88610000Y-35409523D01*
X88562380Y-35314285D01*
X88562380Y-35123809D01*
X88610000Y-35028571D01*
X88657619Y-34980952D01*
X88752857Y-34933333D01*
X88800476Y-34933333D01*
X88895714Y-34980952D01*
X88943333Y-35028571D01*
X88990952Y-35123809D01*
X88990952Y-35314285D01*
X89038571Y-35409523D01*
X89086190Y-35457142D01*
X89181428Y-35504761D01*
X89371904Y-35504761D01*
X89467142Y-35457142D01*
X89514761Y-35409523D01*
X89562380Y-35314285D01*
X89562380Y-35123809D01*
X89514761Y-35028571D01*
X89467142Y-34980952D01*
X89371904Y-34933333D01*
X89181428Y-34933333D01*
X89086190Y-34980952D01*
X89038571Y-35028571D01*
X88990952Y-35123809D01*
%TO.C,J6*%
X88562380Y-39703333D02*
X89276666Y-39703333D01*
X89419523Y-39750952D01*
X89514761Y-39846190D01*
X89562380Y-39989047D01*
X89562380Y-40084285D01*
X88562380Y-38798571D02*
X88562380Y-38989047D01*
X88610000Y-39084285D01*
X88657619Y-39131904D01*
X88800476Y-39227142D01*
X88990952Y-39274761D01*
X89371904Y-39274761D01*
X89467142Y-39227142D01*
X89514761Y-39179523D01*
X89562380Y-39084285D01*
X89562380Y-38893809D01*
X89514761Y-38798571D01*
X89467142Y-38750952D01*
X89371904Y-38703333D01*
X89133809Y-38703333D01*
X89038571Y-38750952D01*
X88990952Y-38798571D01*
X88943333Y-38893809D01*
X88943333Y-39084285D01*
X88990952Y-39179523D01*
X89038571Y-39227142D01*
X89133809Y-39274761D01*
%TO.C,J5*%
X32682380Y-127333333D02*
X33396666Y-127333333D01*
X33539523Y-127380952D01*
X33634761Y-127476190D01*
X33682380Y-127619047D01*
X33682380Y-127714285D01*
X32682380Y-126380952D02*
X32682380Y-126857142D01*
X33158571Y-126904761D01*
X33110952Y-126857142D01*
X33063333Y-126761904D01*
X33063333Y-126523809D01*
X33110952Y-126428571D01*
X33158571Y-126380952D01*
X33253809Y-126333333D01*
X33491904Y-126333333D01*
X33587142Y-126380952D01*
X33634761Y-126428571D01*
X33682380Y-126523809D01*
X33682380Y-126761904D01*
X33634761Y-126857142D01*
X33587142Y-126904761D01*
%TO.C,J4*%
X60622380Y-35893333D02*
X61336666Y-35893333D01*
X61479523Y-35940952D01*
X61574761Y-36036190D01*
X61622380Y-36179047D01*
X61622380Y-36274285D01*
X60955714Y-34988571D02*
X61622380Y-34988571D01*
X60574761Y-35226666D02*
X61289047Y-35464761D01*
X61289047Y-34845714D01*
%TO.C,J2*%
X60622380Y-39703333D02*
X61336666Y-39703333D01*
X61479523Y-39750952D01*
X61574761Y-39846190D01*
X61622380Y-39989047D01*
X61622380Y-40084285D01*
X60717619Y-39274761D02*
X60670000Y-39227142D01*
X60622380Y-39131904D01*
X60622380Y-38893809D01*
X60670000Y-38798571D01*
X60717619Y-38750952D01*
X60812857Y-38703333D01*
X60908095Y-38703333D01*
X61050952Y-38750952D01*
X61622380Y-39322380D01*
X61622380Y-38703333D01*
%TO.C,J1*%
X27606666Y-93642380D02*
X27606666Y-94356666D01*
X27559047Y-94499523D01*
X27463809Y-94594761D01*
X27320952Y-94642380D01*
X27225714Y-94642380D01*
X28606666Y-94642380D02*
X28035238Y-94642380D01*
X28320952Y-94642380D02*
X28320952Y-93642380D01*
X28225714Y-93785238D01*
X28130476Y-93880476D01*
X28035238Y-93928095D01*
%TO.C,C8*%
X100817142Y-97836666D02*
X100864761Y-97884285D01*
X100912380Y-98027142D01*
X100912380Y-98122380D01*
X100864761Y-98265238D01*
X100769523Y-98360476D01*
X100674285Y-98408095D01*
X100483809Y-98455714D01*
X100340952Y-98455714D01*
X100150476Y-98408095D01*
X100055238Y-98360476D01*
X99960000Y-98265238D01*
X99912380Y-98122380D01*
X99912380Y-98027142D01*
X99960000Y-97884285D01*
X100007619Y-97836666D01*
X100340952Y-97265238D02*
X100293333Y-97360476D01*
X100245714Y-97408095D01*
X100150476Y-97455714D01*
X100102857Y-97455714D01*
X100007619Y-97408095D01*
X99960000Y-97360476D01*
X99912380Y-97265238D01*
X99912380Y-97074761D01*
X99960000Y-96979523D01*
X100007619Y-96931904D01*
X100102857Y-96884285D01*
X100150476Y-96884285D01*
X100245714Y-96931904D01*
X100293333Y-96979523D01*
X100340952Y-97074761D01*
X100340952Y-97265238D01*
X100388571Y-97360476D01*
X100436190Y-97408095D01*
X100531428Y-97455714D01*
X100721904Y-97455714D01*
X100817142Y-97408095D01*
X100864761Y-97360476D01*
X100912380Y-97265238D01*
X100912380Y-97074761D01*
X100864761Y-96979523D01*
X100817142Y-96931904D01*
X100721904Y-96884285D01*
X100531428Y-96884285D01*
X100436190Y-96931904D01*
X100388571Y-96979523D01*
X100340952Y-97074761D01*
%TO.C,C7*%
X100817142Y-62276666D02*
X100864761Y-62324285D01*
X100912380Y-62467142D01*
X100912380Y-62562380D01*
X100864761Y-62705238D01*
X100769523Y-62800476D01*
X100674285Y-62848095D01*
X100483809Y-62895714D01*
X100340952Y-62895714D01*
X100150476Y-62848095D01*
X100055238Y-62800476D01*
X99960000Y-62705238D01*
X99912380Y-62562380D01*
X99912380Y-62467142D01*
X99960000Y-62324285D01*
X100007619Y-62276666D01*
X99912380Y-61943333D02*
X99912380Y-61276666D01*
X100912380Y-61705238D01*
%TO.C,C6*%
X83037142Y-97836666D02*
X83084761Y-97884285D01*
X83132380Y-98027142D01*
X83132380Y-98122380D01*
X83084761Y-98265238D01*
X82989523Y-98360476D01*
X82894285Y-98408095D01*
X82703809Y-98455714D01*
X82560952Y-98455714D01*
X82370476Y-98408095D01*
X82275238Y-98360476D01*
X82180000Y-98265238D01*
X82132380Y-98122380D01*
X82132380Y-98027142D01*
X82180000Y-97884285D01*
X82227619Y-97836666D01*
X82132380Y-96979523D02*
X82132380Y-97170000D01*
X82180000Y-97265238D01*
X82227619Y-97312857D01*
X82370476Y-97408095D01*
X82560952Y-97455714D01*
X82941904Y-97455714D01*
X83037142Y-97408095D01*
X83084761Y-97360476D01*
X83132380Y-97265238D01*
X83132380Y-97074761D01*
X83084761Y-96979523D01*
X83037142Y-96931904D01*
X82941904Y-96884285D01*
X82703809Y-96884285D01*
X82608571Y-96931904D01*
X82560952Y-96979523D01*
X82513333Y-97074761D01*
X82513333Y-97265238D01*
X82560952Y-97360476D01*
X82608571Y-97408095D01*
X82703809Y-97455714D01*
%TO.C,C5*%
X83037142Y-62276666D02*
X83084761Y-62324285D01*
X83132380Y-62467142D01*
X83132380Y-62562380D01*
X83084761Y-62705238D01*
X82989523Y-62800476D01*
X82894285Y-62848095D01*
X82703809Y-62895714D01*
X82560952Y-62895714D01*
X82370476Y-62848095D01*
X82275238Y-62800476D01*
X82180000Y-62705238D01*
X82132380Y-62562380D01*
X82132380Y-62467142D01*
X82180000Y-62324285D01*
X82227619Y-62276666D01*
X82132380Y-61371904D02*
X82132380Y-61848095D01*
X82608571Y-61895714D01*
X82560952Y-61848095D01*
X82513333Y-61752857D01*
X82513333Y-61514761D01*
X82560952Y-61419523D01*
X82608571Y-61371904D01*
X82703809Y-61324285D01*
X82941904Y-61324285D01*
X83037142Y-61371904D01*
X83084761Y-61419523D01*
X83132380Y-61514761D01*
X83132380Y-61752857D01*
X83084761Y-61848095D01*
X83037142Y-61895714D01*
%TO.C,C4*%
X65257142Y-97836666D02*
X65304761Y-97884285D01*
X65352380Y-98027142D01*
X65352380Y-98122380D01*
X65304761Y-98265238D01*
X65209523Y-98360476D01*
X65114285Y-98408095D01*
X64923809Y-98455714D01*
X64780952Y-98455714D01*
X64590476Y-98408095D01*
X64495238Y-98360476D01*
X64400000Y-98265238D01*
X64352380Y-98122380D01*
X64352380Y-98027142D01*
X64400000Y-97884285D01*
X64447619Y-97836666D01*
X64685714Y-96979523D02*
X65352380Y-96979523D01*
X64304761Y-97217619D02*
X65019047Y-97455714D01*
X65019047Y-96836666D01*
%TO.C,C3*%
X65257142Y-62276666D02*
X65304761Y-62324285D01*
X65352380Y-62467142D01*
X65352380Y-62562380D01*
X65304761Y-62705238D01*
X65209523Y-62800476D01*
X65114285Y-62848095D01*
X64923809Y-62895714D01*
X64780952Y-62895714D01*
X64590476Y-62848095D01*
X64495238Y-62800476D01*
X64400000Y-62705238D01*
X64352380Y-62562380D01*
X64352380Y-62467142D01*
X64400000Y-62324285D01*
X64447619Y-62276666D01*
X64352380Y-61943333D02*
X64352380Y-61324285D01*
X64733333Y-61657619D01*
X64733333Y-61514761D01*
X64780952Y-61419523D01*
X64828571Y-61371904D01*
X64923809Y-61324285D01*
X65161904Y-61324285D01*
X65257142Y-61371904D01*
X65304761Y-61419523D01*
X65352380Y-61514761D01*
X65352380Y-61800476D01*
X65304761Y-61895714D01*
X65257142Y-61943333D01*
%TO.C,C2*%
X47477142Y-97836666D02*
X47524761Y-97884285D01*
X47572380Y-98027142D01*
X47572380Y-98122380D01*
X47524761Y-98265238D01*
X47429523Y-98360476D01*
X47334285Y-98408095D01*
X47143809Y-98455714D01*
X47000952Y-98455714D01*
X46810476Y-98408095D01*
X46715238Y-98360476D01*
X46620000Y-98265238D01*
X46572380Y-98122380D01*
X46572380Y-98027142D01*
X46620000Y-97884285D01*
X46667619Y-97836666D01*
X46667619Y-97455714D02*
X46620000Y-97408095D01*
X46572380Y-97312857D01*
X46572380Y-97074761D01*
X46620000Y-96979523D01*
X46667619Y-96931904D01*
X46762857Y-96884285D01*
X46858095Y-96884285D01*
X47000952Y-96931904D01*
X47572380Y-97503333D01*
X47572380Y-96884285D01*
%TO.C,C1*%
X47477142Y-62276666D02*
X47524761Y-62324285D01*
X47572380Y-62467142D01*
X47572380Y-62562380D01*
X47524761Y-62705238D01*
X47429523Y-62800476D01*
X47334285Y-62848095D01*
X47143809Y-62895714D01*
X47000952Y-62895714D01*
X46810476Y-62848095D01*
X46715238Y-62800476D01*
X46620000Y-62705238D01*
X46572380Y-62562380D01*
X46572380Y-62467142D01*
X46620000Y-62324285D01*
X46667619Y-62276666D01*
X47572380Y-61324285D02*
X47572380Y-61895714D01*
X47572380Y-61610000D02*
X46572380Y-61610000D01*
X46715238Y-61705238D01*
X46810476Y-61800476D01*
X46858095Y-61895714D01*
%TO.C,U8*%
X97028095Y-86022380D02*
X97028095Y-86831904D01*
X97075714Y-86927142D01*
X97123333Y-86974761D01*
X97218571Y-87022380D01*
X97409047Y-87022380D01*
X97504285Y-86974761D01*
X97551904Y-86927142D01*
X97599523Y-86831904D01*
X97599523Y-86022380D01*
X98218571Y-86450952D02*
X98123333Y-86403333D01*
X98075714Y-86355714D01*
X98028095Y-86260476D01*
X98028095Y-86212857D01*
X98075714Y-86117619D01*
X98123333Y-86070000D01*
X98218571Y-86022380D01*
X98409047Y-86022380D01*
X98504285Y-86070000D01*
X98551904Y-86117619D01*
X98599523Y-86212857D01*
X98599523Y-86260476D01*
X98551904Y-86355714D01*
X98504285Y-86403333D01*
X98409047Y-86450952D01*
X98218571Y-86450952D01*
X98123333Y-86498571D01*
X98075714Y-86546190D01*
X98028095Y-86641428D01*
X98028095Y-86831904D01*
X98075714Y-86927142D01*
X98123333Y-86974761D01*
X98218571Y-87022380D01*
X98409047Y-87022380D01*
X98504285Y-86974761D01*
X98551904Y-86927142D01*
X98599523Y-86831904D01*
X98599523Y-86641428D01*
X98551904Y-86546190D01*
X98504285Y-86498571D01*
X98409047Y-86450952D01*
%TO.C,U7*%
X97028095Y-50462380D02*
X97028095Y-51271904D01*
X97075714Y-51367142D01*
X97123333Y-51414761D01*
X97218571Y-51462380D01*
X97409047Y-51462380D01*
X97504285Y-51414761D01*
X97551904Y-51367142D01*
X97599523Y-51271904D01*
X97599523Y-50462380D01*
X97980476Y-50462380D02*
X98647142Y-50462380D01*
X98218571Y-51462380D01*
%TO.C,U6*%
X79248095Y-86022380D02*
X79248095Y-86831904D01*
X79295714Y-86927142D01*
X79343333Y-86974761D01*
X79438571Y-87022380D01*
X79629047Y-87022380D01*
X79724285Y-86974761D01*
X79771904Y-86927142D01*
X79819523Y-86831904D01*
X79819523Y-86022380D01*
X80724285Y-86022380D02*
X80533809Y-86022380D01*
X80438571Y-86070000D01*
X80390952Y-86117619D01*
X80295714Y-86260476D01*
X80248095Y-86450952D01*
X80248095Y-86831904D01*
X80295714Y-86927142D01*
X80343333Y-86974761D01*
X80438571Y-87022380D01*
X80629047Y-87022380D01*
X80724285Y-86974761D01*
X80771904Y-86927142D01*
X80819523Y-86831904D01*
X80819523Y-86593809D01*
X80771904Y-86498571D01*
X80724285Y-86450952D01*
X80629047Y-86403333D01*
X80438571Y-86403333D01*
X80343333Y-86450952D01*
X80295714Y-86498571D01*
X80248095Y-86593809D01*
%TO.C,U5*%
X79248095Y-50462380D02*
X79248095Y-51271904D01*
X79295714Y-51367142D01*
X79343333Y-51414761D01*
X79438571Y-51462380D01*
X79629047Y-51462380D01*
X79724285Y-51414761D01*
X79771904Y-51367142D01*
X79819523Y-51271904D01*
X79819523Y-50462380D01*
X80771904Y-50462380D02*
X80295714Y-50462380D01*
X80248095Y-50938571D01*
X80295714Y-50890952D01*
X80390952Y-50843333D01*
X80629047Y-50843333D01*
X80724285Y-50890952D01*
X80771904Y-50938571D01*
X80819523Y-51033809D01*
X80819523Y-51271904D01*
X80771904Y-51367142D01*
X80724285Y-51414761D01*
X80629047Y-51462380D01*
X80390952Y-51462380D01*
X80295714Y-51414761D01*
X80248095Y-51367142D01*
%TO.C,U4*%
X61468095Y-86022380D02*
X61468095Y-86831904D01*
X61515714Y-86927142D01*
X61563333Y-86974761D01*
X61658571Y-87022380D01*
X61849047Y-87022380D01*
X61944285Y-86974761D01*
X61991904Y-86927142D01*
X62039523Y-86831904D01*
X62039523Y-86022380D01*
X62944285Y-86355714D02*
X62944285Y-87022380D01*
X62706190Y-85974761D02*
X62468095Y-86689047D01*
X63087142Y-86689047D01*
%TO.C,U3*%
X61468095Y-50462380D02*
X61468095Y-51271904D01*
X61515714Y-51367142D01*
X61563333Y-51414761D01*
X61658571Y-51462380D01*
X61849047Y-51462380D01*
X61944285Y-51414761D01*
X61991904Y-51367142D01*
X62039523Y-51271904D01*
X62039523Y-50462380D01*
X62420476Y-50462380D02*
X63039523Y-50462380D01*
X62706190Y-50843333D01*
X62849047Y-50843333D01*
X62944285Y-50890952D01*
X62991904Y-50938571D01*
X63039523Y-51033809D01*
X63039523Y-51271904D01*
X62991904Y-51367142D01*
X62944285Y-51414761D01*
X62849047Y-51462380D01*
X62563333Y-51462380D01*
X62468095Y-51414761D01*
X62420476Y-51367142D01*
%TO.C,U2*%
X43688095Y-86022380D02*
X43688095Y-86831904D01*
X43735714Y-86927142D01*
X43783333Y-86974761D01*
X43878571Y-87022380D01*
X44069047Y-87022380D01*
X44164285Y-86974761D01*
X44211904Y-86927142D01*
X44259523Y-86831904D01*
X44259523Y-86022380D01*
X44688095Y-86117619D02*
X44735714Y-86070000D01*
X44830952Y-86022380D01*
X45069047Y-86022380D01*
X45164285Y-86070000D01*
X45211904Y-86117619D01*
X45259523Y-86212857D01*
X45259523Y-86308095D01*
X45211904Y-86450952D01*
X44640476Y-87022380D01*
X45259523Y-87022380D01*
%TO.C,U1*%
X43688095Y-50462380D02*
X43688095Y-51271904D01*
X43735714Y-51367142D01*
X43783333Y-51414761D01*
X43878571Y-51462380D01*
X44069047Y-51462380D01*
X44164285Y-51414761D01*
X44211904Y-51367142D01*
X44259523Y-51271904D01*
X44259523Y-50462380D01*
X45259523Y-51462380D02*
X44688095Y-51462380D01*
X44973809Y-51462380D02*
X44973809Y-50462380D01*
X44878571Y-50605238D01*
X44783333Y-50700476D01*
X44688095Y-50748095D01*
%TO.C,J20*%
X29670476Y-70782380D02*
X29670476Y-71496666D01*
X29622857Y-71639523D01*
X29527619Y-71734761D01*
X29384761Y-71782380D01*
X29289523Y-71782380D01*
X30099047Y-70877619D02*
X30146666Y-70830000D01*
X30241904Y-70782380D01*
X30480000Y-70782380D01*
X30575238Y-70830000D01*
X30622857Y-70877619D01*
X30670476Y-70972857D01*
X30670476Y-71068095D01*
X30622857Y-71210952D01*
X30051428Y-71782380D01*
X30670476Y-71782380D01*
X31289523Y-70782380D02*
X31384761Y-70782380D01*
X31480000Y-70830000D01*
X31527619Y-70877619D01*
X31575238Y-70972857D01*
X31622857Y-71163333D01*
X31622857Y-71401428D01*
X31575238Y-71591904D01*
X31527619Y-71687142D01*
X31480000Y-71734761D01*
X31384761Y-71782380D01*
X31289523Y-71782380D01*
X31194285Y-71734761D01*
X31146666Y-71687142D01*
X31099047Y-71591904D01*
X31051428Y-71401428D01*
X31051428Y-71163333D01*
X31099047Y-70972857D01*
X31146666Y-70877619D01*
X31194285Y-70830000D01*
X31289523Y-70782380D01*
%TO.C,J10*%
X105922380Y-112569523D02*
X106636666Y-112569523D01*
X106779523Y-112617142D01*
X106874761Y-112712380D01*
X106922380Y-112855238D01*
X106922380Y-112950476D01*
X106922380Y-111569523D02*
X106922380Y-112140952D01*
X106922380Y-111855238D02*
X105922380Y-111855238D01*
X106065238Y-111950476D01*
X106160476Y-112045714D01*
X106208095Y-112140952D01*
X105922380Y-110950476D02*
X105922380Y-110855238D01*
X105970000Y-110760000D01*
X106017619Y-110712380D01*
X106112857Y-110664761D01*
X106303333Y-110617142D01*
X106541428Y-110617142D01*
X106731904Y-110664761D01*
X106827142Y-110712380D01*
X106874761Y-110760000D01*
X106922380Y-110855238D01*
X106922380Y-110950476D01*
X106874761Y-111045714D01*
X106827142Y-111093333D01*
X106731904Y-111140952D01*
X106541428Y-111188571D01*
X106303333Y-111188571D01*
X106112857Y-111140952D01*
X106017619Y-111093333D01*
X105970000Y-111045714D01*
X105922380Y-110950476D01*
%TO.C,J9*%
X110032380Y-107053333D02*
X110746666Y-107053333D01*
X110889523Y-107100952D01*
X110984761Y-107196190D01*
X111032380Y-107339047D01*
X111032380Y-107434285D01*
X111032380Y-106529523D02*
X111032380Y-106339047D01*
X110984761Y-106243809D01*
X110937142Y-106196190D01*
X110794285Y-106100952D01*
X110603809Y-106053333D01*
X110222857Y-106053333D01*
X110127619Y-106100952D01*
X110080000Y-106148571D01*
X110032380Y-106243809D01*
X110032380Y-106434285D01*
X110080000Y-106529523D01*
X110127619Y-106577142D01*
X110222857Y-106624761D01*
X110460952Y-106624761D01*
X110556190Y-106577142D01*
X110603809Y-106529523D01*
X110651428Y-106434285D01*
X110651428Y-106243809D01*
X110603809Y-106148571D01*
X110556190Y-106100952D01*
X110460952Y-106053333D01*
%TD*%
M02*
