%TF.GenerationSoftware,KiCad,Pcbnew,(5.1.8)-1*%
%TF.CreationDate,2022-12-02T00:18:40+03:00*%
%TF.ProjectId,MUX8x1-v4,4d555838-7831-42d7-9634-2e6b69636164,rev?*%
%TF.SameCoordinates,Original*%
%TF.FileFunction,Copper,L1,Top*%
%TF.FilePolarity,Positive*%
%FSLAX46Y46*%
G04 Gerber Fmt 4.6, Leading zero omitted, Abs format (unit mm)*
G04 Created by KiCad (PCBNEW (5.1.8)-1) date 2022-12-02 00:18:40*
%MOMM*%
%LPD*%
G01*
G04 APERTURE LIST*
%TA.AperFunction,ComponentPad*%
%ADD10O,1.700000X1.700000*%
%TD*%
%TA.AperFunction,ComponentPad*%
%ADD11R,1.700000X1.700000*%
%TD*%
%TA.AperFunction,ComponentPad*%
%ADD12O,1.800000X1.500000*%
%TD*%
%TA.AperFunction,ComponentPad*%
%ADD13O,1.500000X1.800000*%
%TD*%
%TA.AperFunction,ComponentPad*%
%ADD14O,1.600000X1.600000*%
%TD*%
%TA.AperFunction,ComponentPad*%
%ADD15C,1.600000*%
%TD*%
%TA.AperFunction,ComponentPad*%
%ADD16R,1.800000X1.500000*%
%TD*%
%TA.AperFunction,ComponentPad*%
%ADD17R,1.500000X1.800000*%
%TD*%
%TA.AperFunction,ComponentPad*%
%ADD18C,2.600000*%
%TD*%
%TA.AperFunction,ComponentPad*%
%ADD19R,2.600000X2.600000*%
%TD*%
%TA.AperFunction,ViaPad*%
%ADD20C,1.200000*%
%TD*%
%TA.AperFunction,ViaPad*%
%ADD21C,1.500000*%
%TD*%
%TA.AperFunction,Conductor*%
%ADD22C,0.500000*%
%TD*%
G04 APERTURE END LIST*
D10*
%TO.P,J21,9*%
%TO.N,/O7*%
X118110000Y-91440000D03*
%TO.P,J21,8*%
%TO.N,/O6*%
X118110000Y-88900000D03*
%TO.P,J21,7*%
%TO.N,/O5*%
X118110000Y-86360000D03*
%TO.P,J21,6*%
%TO.N,/O4*%
X118110000Y-83820000D03*
%TO.P,J21,5*%
%TO.N,/O3*%
X118110000Y-81280000D03*
%TO.P,J21,4*%
%TO.N,/O2*%
X118110000Y-78740000D03*
%TO.P,J21,3*%
%TO.N,/O1*%
X118110000Y-76200000D03*
%TO.P,J21,2*%
%TO.N,/O0*%
X118110000Y-73660000D03*
D11*
%TO.P,J21,1*%
%TO.N,GND*%
X118110000Y-71120000D03*
%TD*%
D10*
%TO.P,J19,9*%
%TO.N,/O7*%
X114300000Y-91440000D03*
%TO.P,J19,8*%
%TO.N,/O6*%
X114300000Y-88900000D03*
%TO.P,J19,7*%
%TO.N,/O5*%
X114300000Y-86360000D03*
%TO.P,J19,6*%
%TO.N,/O4*%
X114300000Y-83820000D03*
%TO.P,J19,5*%
%TO.N,/O3*%
X114300000Y-81280000D03*
%TO.P,J19,4*%
%TO.N,/O2*%
X114300000Y-78740000D03*
%TO.P,J19,3*%
%TO.N,/O1*%
X114300000Y-76200000D03*
%TO.P,J19,2*%
%TO.N,/O0*%
X114300000Y-73660000D03*
D11*
%TO.P,J19,1*%
%TO.N,GND*%
X114300000Y-71120000D03*
%TD*%
D10*
%TO.P,J18,9*%
%TO.N,/H7*%
X111760000Y-123190000D03*
%TO.P,J18,8*%
%TO.N,/H6*%
X109220000Y-123190000D03*
%TO.P,J18,7*%
%TO.N,/H5*%
X106680000Y-123190000D03*
%TO.P,J18,6*%
%TO.N,/H4*%
X104140000Y-123190000D03*
%TO.P,J18,5*%
%TO.N,/H3*%
X101600000Y-123190000D03*
%TO.P,J18,4*%
%TO.N,/H2*%
X99060000Y-123190000D03*
%TO.P,J18,3*%
%TO.N,/H1*%
X96520000Y-123190000D03*
%TO.P,J18,2*%
%TO.N,/H0*%
X93980000Y-123190000D03*
D11*
%TO.P,J18,1*%
%TO.N,GND*%
X91440000Y-123190000D03*
%TD*%
D10*
%TO.P,J16,9*%
%TO.N,/H7*%
X111760000Y-127000000D03*
%TO.P,J16,8*%
%TO.N,/H6*%
X109220000Y-127000000D03*
%TO.P,J16,7*%
%TO.N,/H5*%
X106680000Y-127000000D03*
%TO.P,J16,6*%
%TO.N,/H4*%
X104140000Y-127000000D03*
%TO.P,J16,5*%
%TO.N,/H3*%
X101600000Y-127000000D03*
%TO.P,J16,4*%
%TO.N,/H2*%
X99060000Y-127000000D03*
%TO.P,J16,3*%
%TO.N,/H1*%
X96520000Y-127000000D03*
%TO.P,J16,2*%
%TO.N,/H0*%
X93980000Y-127000000D03*
D11*
%TO.P,J16,1*%
%TO.N,GND*%
X91440000Y-127000000D03*
%TD*%
D10*
%TO.P,J15,9*%
%TO.N,/D7*%
X27940000Y-66040000D03*
%TO.P,J15,8*%
%TO.N,/D6*%
X27940000Y-63500000D03*
%TO.P,J15,7*%
%TO.N,/D5*%
X27940000Y-60960000D03*
%TO.P,J15,6*%
%TO.N,/D4*%
X27940000Y-58420000D03*
%TO.P,J15,5*%
%TO.N,/D3*%
X27940000Y-55880000D03*
%TO.P,J15,4*%
%TO.N,/D2*%
X27940000Y-53340000D03*
D12*
%TO.P,J15,3*%
%TO.N,/D1*%
X27940000Y-50800000D03*
%TO.P,J15,2*%
%TO.N,/D0*%
X27940000Y-48260000D03*
D11*
%TO.P,J15,1*%
%TO.N,GND*%
X27940000Y-45720000D03*
%TD*%
D10*
%TO.P,J14,9*%
%TO.N,/G7*%
X83820000Y-127000000D03*
%TO.P,J14,8*%
%TO.N,/G6*%
X81280000Y-127000000D03*
%TO.P,J14,7*%
%TO.N,/G5*%
X78740000Y-127000000D03*
%TO.P,J14,6*%
%TO.N,/G4*%
X76200000Y-127000000D03*
%TO.P,J14,5*%
%TO.N,/G3*%
X73660000Y-127000000D03*
%TO.P,J14,4*%
%TO.N,/G2*%
X71120000Y-127000000D03*
%TO.P,J14,3*%
%TO.N,/G1*%
X68580000Y-127000000D03*
%TO.P,J14,2*%
%TO.N,/G0*%
X66040000Y-127000000D03*
D11*
%TO.P,J14,1*%
%TO.N,GND*%
X63500000Y-127000000D03*
%TD*%
D10*
%TO.P,J12,9*%
%TO.N,/G7*%
X83820000Y-123190000D03*
%TO.P,J12,8*%
%TO.N,/G6*%
X81280000Y-123190000D03*
%TO.P,J12,7*%
%TO.N,/G5*%
X78740000Y-123190000D03*
%TO.P,J12,6*%
%TO.N,/G4*%
X76200000Y-123190000D03*
%TO.P,J12,5*%
%TO.N,/G3*%
X73660000Y-123190000D03*
%TO.P,J12,4*%
%TO.N,/G2*%
X71120000Y-123190000D03*
%TO.P,J12,3*%
%TO.N,/G1*%
X68580000Y-123190000D03*
%TO.P,J12,2*%
%TO.N,/G0*%
X66040000Y-123190000D03*
D11*
%TO.P,J12,1*%
%TO.N,GND*%
X63500000Y-123190000D03*
%TD*%
D10*
%TO.P,J11,9*%
%TO.N,/C7*%
X55880000Y-35560000D03*
%TO.P,J11,8*%
%TO.N,/C6*%
X53340000Y-35560000D03*
%TO.P,J11,7*%
%TO.N,/C5*%
X50800000Y-35560000D03*
%TO.P,J11,6*%
%TO.N,/C4*%
X48260000Y-35560000D03*
%TO.P,J11,5*%
%TO.N,/C3*%
X45720000Y-35560000D03*
%TO.P,J11,4*%
%TO.N,/C2*%
X43180000Y-35560000D03*
%TO.P,J11,3*%
%TO.N,/C1*%
X40640000Y-35560000D03*
%TO.P,J11,2*%
%TO.N,/C0*%
X38100000Y-35560000D03*
D11*
%TO.P,J11,1*%
%TO.N,GND*%
X35560000Y-35560000D03*
%TD*%
D10*
%TO.P,J8,9*%
%TO.N,/F7*%
X111760000Y-35600000D03*
%TO.P,J8,8*%
%TO.N,/F6*%
X109220000Y-35600000D03*
%TO.P,J8,7*%
%TO.N,/F5*%
X106680000Y-35600000D03*
%TO.P,J8,6*%
%TO.N,/F4*%
X104140000Y-35600000D03*
%TO.P,J8,5*%
%TO.N,/F3*%
X101600000Y-35600000D03*
%TO.P,J8,4*%
%TO.N,/F2*%
X99060000Y-35600000D03*
%TO.P,J8,3*%
%TO.N,/F1*%
X96520000Y-35600000D03*
%TO.P,J8,2*%
%TO.N,/F0*%
X93980000Y-35600000D03*
D11*
%TO.P,J8,1*%
%TO.N,GND*%
X91440000Y-35600000D03*
%TD*%
D10*
%TO.P,J6,9*%
%TO.N,/F7*%
X111760000Y-39370000D03*
%TO.P,J6,8*%
%TO.N,/F6*%
X109220000Y-39370000D03*
%TO.P,J6,7*%
%TO.N,/F5*%
X106680000Y-39370000D03*
%TO.P,J6,6*%
%TO.N,/F4*%
X104140000Y-39370000D03*
%TO.P,J6,5*%
%TO.N,/F3*%
X101600000Y-39370000D03*
%TO.P,J6,4*%
%TO.N,/F2*%
X99060000Y-39370000D03*
%TO.P,J6,3*%
%TO.N,/F1*%
X96520000Y-39370000D03*
%TO.P,J6,2*%
%TO.N,/F0*%
X93980000Y-39370000D03*
D11*
%TO.P,J6,1*%
%TO.N,GND*%
X91440000Y-39370000D03*
%TD*%
D10*
%TO.P,J5,9*%
%TO.N,/B7*%
X55880000Y-127000000D03*
%TO.P,J5,8*%
%TO.N,/B6*%
X53340000Y-127000000D03*
%TO.P,J5,7*%
%TO.N,/B5*%
X50800000Y-127000000D03*
%TO.P,J5,6*%
%TO.N,/B4*%
X48260000Y-127000000D03*
%TO.P,J5,5*%
%TO.N,/B3*%
X45720000Y-127000000D03*
%TO.P,J5,4*%
%TO.N,/B2*%
X43180000Y-127000000D03*
%TO.P,J5,3*%
%TO.N,/B1*%
X40640000Y-127000000D03*
%TO.P,J5,2*%
%TO.N,/B0*%
X38100000Y-127000000D03*
D11*
%TO.P,J5,1*%
%TO.N,GND*%
X35560000Y-127000000D03*
%TD*%
D10*
%TO.P,J4,9*%
%TO.N,/E7*%
X83820000Y-35560000D03*
%TO.P,J4,8*%
%TO.N,/E6*%
X81280000Y-35560000D03*
%TO.P,J4,7*%
%TO.N,/E5*%
X78740000Y-35560000D03*
%TO.P,J4,6*%
%TO.N,/E4*%
X76200000Y-35560000D03*
%TO.P,J4,5*%
%TO.N,/E3*%
X73660000Y-35560000D03*
%TO.P,J4,4*%
%TO.N,/E2*%
X71120000Y-35560000D03*
%TO.P,J4,3*%
%TO.N,/E1*%
X68580000Y-35560000D03*
%TO.P,J4,2*%
%TO.N,/E0*%
X66040000Y-35560000D03*
D11*
%TO.P,J4,1*%
%TO.N,GND*%
X63500000Y-35560000D03*
%TD*%
D10*
%TO.P,J2,9*%
%TO.N,/E7*%
X83820000Y-39370000D03*
D13*
%TO.P,J2,8*%
%TO.N,/E6*%
X81280000Y-39370000D03*
%TO.P,J2,7*%
%TO.N,/E5*%
X78740000Y-39370000D03*
D10*
%TO.P,J2,6*%
%TO.N,/E4*%
X76200000Y-39370000D03*
%TO.P,J2,5*%
%TO.N,/E3*%
X73660000Y-39370000D03*
%TO.P,J2,4*%
%TO.N,/E2*%
X71120000Y-39370000D03*
%TO.P,J2,3*%
%TO.N,/E1*%
X68580000Y-39370000D03*
%TO.P,J2,2*%
%TO.N,/E0*%
X66040000Y-39370000D03*
D11*
%TO.P,J2,1*%
%TO.N,GND*%
X63500000Y-39370000D03*
%TD*%
D10*
%TO.P,J1,9*%
%TO.N,/A7*%
X27940000Y-116840000D03*
%TO.P,J1,8*%
%TO.N,/A6*%
X27940000Y-114300000D03*
%TO.P,J1,7*%
%TO.N,/A5*%
X27940000Y-111760000D03*
%TO.P,J1,6*%
%TO.N,/A4*%
X27940000Y-109220000D03*
%TO.P,J1,5*%
%TO.N,/A3*%
X27940000Y-106680000D03*
%TO.P,J1,4*%
%TO.N,/A2*%
X27940000Y-104140000D03*
%TO.P,J1,3*%
%TO.N,/A1*%
X27940000Y-101600000D03*
%TO.P,J1,2*%
%TO.N,/A0*%
X27940000Y-99060000D03*
D11*
%TO.P,J1,1*%
%TO.N,GND*%
X27940000Y-96520000D03*
%TD*%
D14*
%TO.P,C8,2*%
%TO.N,GND*%
X97790000Y-105170000D03*
D15*
%TO.P,C8,1*%
%TO.N,VCC*%
X97790000Y-90170000D03*
%TD*%
D14*
%TO.P,C7,2*%
%TO.N,GND*%
X97790000Y-69610000D03*
D15*
%TO.P,C7,1*%
%TO.N,VCC*%
X97790000Y-54610000D03*
%TD*%
D14*
%TO.P,C6,2*%
%TO.N,GND*%
X80010000Y-105170000D03*
D15*
%TO.P,C6,1*%
%TO.N,VCC*%
X80010000Y-90170000D03*
%TD*%
D14*
%TO.P,C5,2*%
%TO.N,GND*%
X80010000Y-69610000D03*
D15*
%TO.P,C5,1*%
%TO.N,VCC*%
X80010000Y-54610000D03*
%TD*%
D14*
%TO.P,C4,2*%
%TO.N,GND*%
X62230000Y-105170000D03*
D15*
%TO.P,C4,1*%
%TO.N,VCC*%
X62230000Y-90170000D03*
%TD*%
D14*
%TO.P,C3,2*%
%TO.N,GND*%
X62230000Y-69610000D03*
D15*
%TO.P,C3,1*%
%TO.N,VCC*%
X62230000Y-54610000D03*
%TD*%
D14*
%TO.P,C2,2*%
%TO.N,GND*%
X44450000Y-105170000D03*
D15*
%TO.P,C2,1*%
%TO.N,VCC*%
X44450000Y-90170000D03*
%TD*%
D14*
%TO.P,C1,2*%
%TO.N,GND*%
X44450000Y-69610000D03*
D15*
%TO.P,C1,1*%
%TO.N,VCC*%
X44450000Y-54610000D03*
%TD*%
D12*
%TO.P,U8,16*%
%TO.N,VCC*%
X101600000Y-88900000D03*
%TO.P,U8,8*%
%TO.N,GND*%
X93980000Y-106680000D03*
%TO.P,U8,15*%
%TO.N,/E7*%
X101600000Y-91440000D03*
%TO.P,U8,7*%
%TO.N,/~E*%
X93980000Y-104140000D03*
%TO.P,U8,14*%
%TO.N,/F7*%
X101600000Y-93980000D03*
%TO.P,U8,6*%
%TO.N,Net-(U8-Pad6)*%
X93980000Y-101600000D03*
%TO.P,U8,13*%
%TO.N,/G7*%
X101600000Y-96520000D03*
%TO.P,U8,5*%
%TO.N,/O7*%
X93980000Y-99060000D03*
%TO.P,U8,12*%
%TO.N,/H7*%
X101600000Y-99060000D03*
%TO.P,U8,4*%
%TO.N,/A7*%
X93980000Y-96520000D03*
%TO.P,U8,11*%
%TO.N,/S0*%
X101600000Y-101600000D03*
%TO.P,U8,3*%
%TO.N,/B7*%
X93980000Y-93980000D03*
%TO.P,U8,10*%
%TO.N,/S1*%
X101600000Y-104140000D03*
%TO.P,U8,2*%
%TO.N,/C7*%
X93980000Y-91440000D03*
%TO.P,U8,9*%
%TO.N,/S2*%
X101600000Y-106680000D03*
D16*
%TO.P,U8,1*%
%TO.N,/D7*%
X93980000Y-88900000D03*
%TD*%
D12*
%TO.P,U7,16*%
%TO.N,VCC*%
X101600000Y-53340000D03*
%TO.P,U7,8*%
%TO.N,GND*%
X93980000Y-71120000D03*
%TO.P,U7,15*%
%TO.N,/E6*%
X101600000Y-55880000D03*
%TO.P,U7,7*%
%TO.N,/~E*%
X93980000Y-68580000D03*
%TO.P,U7,14*%
%TO.N,/F6*%
X101600000Y-58420000D03*
%TO.P,U7,6*%
%TO.N,Net-(U7-Pad6)*%
X93980000Y-66040000D03*
%TO.P,U7,13*%
%TO.N,/G6*%
X101600000Y-60960000D03*
%TO.P,U7,5*%
%TO.N,/O6*%
X93980000Y-63500000D03*
%TO.P,U7,12*%
%TO.N,/H6*%
X101600000Y-63500000D03*
%TO.P,U7,4*%
%TO.N,/A6*%
X93980000Y-60960000D03*
%TO.P,U7,11*%
%TO.N,/S0*%
X101600000Y-66040000D03*
%TO.P,U7,3*%
%TO.N,/B6*%
X93980000Y-58420000D03*
%TO.P,U7,10*%
%TO.N,/S1*%
X101600000Y-68580000D03*
%TO.P,U7,2*%
%TO.N,/C6*%
X93980000Y-55880000D03*
%TO.P,U7,9*%
%TO.N,/S2*%
X101600000Y-71120000D03*
D16*
%TO.P,U7,1*%
%TO.N,/D6*%
X93980000Y-53340000D03*
%TD*%
D12*
%TO.P,U6,16*%
%TO.N,VCC*%
X83820000Y-88900000D03*
%TO.P,U6,8*%
%TO.N,GND*%
X76200000Y-106680000D03*
%TO.P,U6,15*%
%TO.N,/E5*%
X83820000Y-91440000D03*
%TO.P,U6,7*%
%TO.N,/~E*%
X76200000Y-104140000D03*
%TO.P,U6,14*%
%TO.N,/F5*%
X83820000Y-93980000D03*
%TO.P,U6,6*%
%TO.N,Net-(U6-Pad6)*%
X76200000Y-101600000D03*
%TO.P,U6,13*%
%TO.N,/G5*%
X83820000Y-96520000D03*
%TO.P,U6,5*%
%TO.N,/O5*%
X76200000Y-99060000D03*
%TO.P,U6,12*%
%TO.N,/H5*%
X83820000Y-99060000D03*
%TO.P,U6,4*%
%TO.N,/A5*%
X76200000Y-96520000D03*
%TO.P,U6,11*%
%TO.N,/S0*%
X83820000Y-101600000D03*
%TO.P,U6,3*%
%TO.N,/B5*%
X76200000Y-93980000D03*
%TO.P,U6,10*%
%TO.N,/S1*%
X83820000Y-104140000D03*
%TO.P,U6,2*%
%TO.N,/C5*%
X76200000Y-91440000D03*
%TO.P,U6,9*%
%TO.N,/S2*%
X83820000Y-106680000D03*
D16*
%TO.P,U6,1*%
%TO.N,/D5*%
X76200000Y-88900000D03*
%TD*%
D12*
%TO.P,U5,16*%
%TO.N,VCC*%
X83820000Y-53340000D03*
%TO.P,U5,8*%
%TO.N,GND*%
X76200000Y-71120000D03*
%TO.P,U5,15*%
%TO.N,/E4*%
X83820000Y-55880000D03*
%TO.P,U5,7*%
%TO.N,/~E*%
X76200000Y-68580000D03*
%TO.P,U5,14*%
%TO.N,/F4*%
X83820000Y-58420000D03*
%TO.P,U5,6*%
%TO.N,Net-(U5-Pad6)*%
X76200000Y-66040000D03*
%TO.P,U5,13*%
%TO.N,/G4*%
X83820000Y-60960000D03*
%TO.P,U5,5*%
%TO.N,/O4*%
X76200000Y-63500000D03*
%TO.P,U5,12*%
%TO.N,/H4*%
X83820000Y-63500000D03*
%TO.P,U5,4*%
%TO.N,/A4*%
X76200000Y-60960000D03*
%TO.P,U5,11*%
%TO.N,/S0*%
X83820000Y-66040000D03*
%TO.P,U5,3*%
%TO.N,/B4*%
X76200000Y-58420000D03*
%TO.P,U5,10*%
%TO.N,/S1*%
X83820000Y-68580000D03*
%TO.P,U5,2*%
%TO.N,/C4*%
X76200000Y-55880000D03*
%TO.P,U5,9*%
%TO.N,/S2*%
X83820000Y-71120000D03*
D16*
%TO.P,U5,1*%
%TO.N,/D4*%
X76200000Y-53340000D03*
%TD*%
D12*
%TO.P,U4,16*%
%TO.N,VCC*%
X66040000Y-88900000D03*
%TO.P,U4,8*%
%TO.N,GND*%
X58420000Y-106680000D03*
%TO.P,U4,15*%
%TO.N,/E3*%
X66040000Y-91440000D03*
%TO.P,U4,7*%
%TO.N,/~E*%
X58420000Y-104140000D03*
%TO.P,U4,14*%
%TO.N,/F3*%
X66040000Y-93980000D03*
%TO.P,U4,6*%
%TO.N,Net-(U4-Pad6)*%
X58420000Y-101600000D03*
%TO.P,U4,13*%
%TO.N,/G3*%
X66040000Y-96520000D03*
%TO.P,U4,5*%
%TO.N,/O3*%
X58420000Y-99060000D03*
%TO.P,U4,12*%
%TO.N,/H3*%
X66040000Y-99060000D03*
%TO.P,U4,4*%
%TO.N,/A3*%
X58420000Y-96520000D03*
%TO.P,U4,11*%
%TO.N,/S0*%
X66040000Y-101600000D03*
%TO.P,U4,3*%
%TO.N,/B3*%
X58420000Y-93980000D03*
%TO.P,U4,10*%
%TO.N,/S1*%
X66040000Y-104140000D03*
%TO.P,U4,2*%
%TO.N,/C3*%
X58420000Y-91440000D03*
%TO.P,U4,9*%
%TO.N,/S2*%
X66040000Y-106680000D03*
D16*
%TO.P,U4,1*%
%TO.N,/D3*%
X58420000Y-88900000D03*
%TD*%
D12*
%TO.P,U3,16*%
%TO.N,VCC*%
X66040000Y-53340000D03*
%TO.P,U3,8*%
%TO.N,GND*%
X58420000Y-71120000D03*
%TO.P,U3,15*%
%TO.N,/E2*%
X66040000Y-55880000D03*
%TO.P,U3,7*%
%TO.N,/~E*%
X58420000Y-68580000D03*
%TO.P,U3,14*%
%TO.N,/F2*%
X66040000Y-58420000D03*
%TO.P,U3,6*%
%TO.N,Net-(U3-Pad6)*%
X58420000Y-66040000D03*
%TO.P,U3,13*%
%TO.N,/G2*%
X66040000Y-60960000D03*
%TO.P,U3,5*%
%TO.N,/O2*%
X58420000Y-63500000D03*
%TO.P,U3,12*%
%TO.N,/H2*%
X66040000Y-63500000D03*
%TO.P,U3,4*%
%TO.N,/A2*%
X58420000Y-60960000D03*
%TO.P,U3,11*%
%TO.N,/S0*%
X66040000Y-66040000D03*
%TO.P,U3,3*%
%TO.N,/B2*%
X58420000Y-58420000D03*
%TO.P,U3,10*%
%TO.N,/S1*%
X66040000Y-68580000D03*
%TO.P,U3,2*%
%TO.N,/C2*%
X58420000Y-55880000D03*
%TO.P,U3,9*%
%TO.N,/S2*%
X66040000Y-71120000D03*
D16*
%TO.P,U3,1*%
%TO.N,/D2*%
X58420000Y-53340000D03*
%TD*%
D12*
%TO.P,U2,16*%
%TO.N,VCC*%
X48260000Y-88900000D03*
%TO.P,U2,8*%
%TO.N,GND*%
X40640000Y-106680000D03*
%TO.P,U2,15*%
%TO.N,/E1*%
X48260000Y-91440000D03*
%TO.P,U2,7*%
%TO.N,/~E*%
X40640000Y-104140000D03*
%TO.P,U2,14*%
%TO.N,/F1*%
X48260000Y-93980000D03*
%TO.P,U2,6*%
%TO.N,Net-(U2-Pad6)*%
X40640000Y-101600000D03*
%TO.P,U2,13*%
%TO.N,/G1*%
X48260000Y-96520000D03*
%TO.P,U2,5*%
%TO.N,/O1*%
X40640000Y-99060000D03*
%TO.P,U2,12*%
%TO.N,/H1*%
X48260000Y-99060000D03*
%TO.P,U2,4*%
%TO.N,/A1*%
X40640000Y-96520000D03*
%TO.P,U2,11*%
%TO.N,/S0*%
X48260000Y-101600000D03*
%TO.P,U2,3*%
%TO.N,/B1*%
X40640000Y-93980000D03*
%TO.P,U2,10*%
%TO.N,/S1*%
X48260000Y-104140000D03*
%TO.P,U2,2*%
%TO.N,/C1*%
X40640000Y-91440000D03*
%TO.P,U2,9*%
%TO.N,/S2*%
X48260000Y-106680000D03*
D16*
%TO.P,U2,1*%
%TO.N,/D1*%
X40640000Y-88900000D03*
%TD*%
D12*
%TO.P,U1,16*%
%TO.N,VCC*%
X48260000Y-53340000D03*
%TO.P,U1,8*%
%TO.N,GND*%
X40640000Y-71120000D03*
%TO.P,U1,15*%
%TO.N,/E0*%
X48260000Y-55880000D03*
%TO.P,U1,7*%
%TO.N,/~E*%
X40640000Y-68580000D03*
%TO.P,U1,14*%
%TO.N,/F0*%
X48260000Y-58420000D03*
%TO.P,U1,6*%
%TO.N,Net-(U1-Pad6)*%
X40640000Y-66040000D03*
%TO.P,U1,13*%
%TO.N,/G0*%
X48260000Y-60960000D03*
%TO.P,U1,5*%
%TO.N,/O0*%
X40640000Y-63500000D03*
%TO.P,U1,12*%
%TO.N,/H0*%
X48260000Y-63500000D03*
%TO.P,U1,4*%
%TO.N,/A0*%
X40640000Y-60960000D03*
%TO.P,U1,11*%
%TO.N,/S0*%
X48260000Y-66040000D03*
%TO.P,U1,3*%
%TO.N,/B0*%
X40640000Y-58420000D03*
%TO.P,U1,10*%
%TO.N,/S1*%
X48260000Y-68580000D03*
%TO.P,U1,2*%
%TO.N,/C0*%
X40640000Y-55880000D03*
%TO.P,U1,9*%
%TO.N,/S2*%
X48260000Y-71120000D03*
D16*
%TO.P,U1,1*%
%TO.N,/D0*%
X40640000Y-53340000D03*
%TD*%
D11*
%TO.P,J20,1*%
%TO.N,/~E*%
X30480000Y-73660000D03*
%TD*%
D13*
%TO.P,J10,3*%
%TO.N,/S2*%
X99060000Y-111760000D03*
%TO.P,J10,2*%
%TO.N,/S1*%
X101600000Y-111760000D03*
D17*
%TO.P,J10,1*%
%TO.N,/S0*%
X104140000Y-111760000D03*
%TD*%
D18*
%TO.P,J9,2*%
%TO.N,GND*%
X116840000Y-104220000D03*
D19*
%TO.P,J9,1*%
%TO.N,VCC*%
X116840000Y-109220000D03*
%TD*%
D20*
%TO.N,GND*%
X34290000Y-77470000D03*
%TO.N,/A7*%
X93980000Y-110490000D03*
%TO.N,/A6*%
X90767200Y-106629900D03*
%TO.N,/A5*%
X74318000Y-108359600D03*
%TO.N,/A4*%
X74242300Y-86587600D03*
%TO.N,/A2*%
X55705300Y-94078000D03*
D21*
%TO.N,/E7*%
X109220000Y-50165000D03*
%TO.N,/E5*%
X81280000Y-48895000D03*
%TO.N,/E3*%
X71120000Y-55880000D03*
D20*
%TO.N,/B7*%
X91929200Y-111760000D03*
%TO.N,/B6*%
X89535000Y-109855000D03*
%TO.N,/B5*%
X76200000Y-112395000D03*
%TO.N,/B4*%
X73711200Y-111160600D03*
%TO.N,/B3*%
X58943100Y-111656700D03*
%TO.N,/B2*%
X55106700Y-111832800D03*
D21*
%TO.N,/C5*%
X71120000Y-48260000D03*
%TO.N,/C4*%
X70772100Y-50800000D03*
D20*
%TO.N,/C3*%
X60406500Y-49530000D03*
D21*
%TO.N,/G5*%
X81761300Y-117628700D03*
%TO.N,/G4*%
X85284800Y-116205000D03*
D20*
%TO.N,/G1*%
X55705300Y-96520000D03*
%TO.N,/H5*%
X88015300Y-99075200D03*
D21*
%TO.N,/O4*%
X109220000Y-68580000D03*
%TD*%
D22*
%TO.N,/A7*%
X29290000Y-116840000D02*
X27940000Y-116840000D01*
X72482200Y-110110300D02*
X72199600Y-110392900D01*
X86221400Y-110110300D02*
X72482200Y-110110300D01*
X35737100Y-110392900D02*
X29290000Y-116840000D01*
X72199600Y-110392900D02*
X35737100Y-110392900D01*
X91699150Y-108325850D02*
X91757500Y-108267500D01*
X88005850Y-108325850D02*
X91699150Y-108325850D01*
X93980000Y-110490000D02*
X91757500Y-108267500D01*
X88005850Y-108325850D02*
X86221400Y-110110300D01*
%TO.N,/A6*%
X90767200Y-106629900D02*
X88154300Y-106629900D01*
X88154300Y-106629900D02*
X85374200Y-109410000D01*
X85374200Y-109410000D02*
X72192000Y-109410000D01*
X72192000Y-109410000D02*
X71952000Y-109650000D01*
X71952000Y-109650000D02*
X33940000Y-109650000D01*
X33940000Y-109650000D02*
X29290000Y-114300000D01*
X27940000Y-114300000D02*
X29290000Y-114300000D01*
%TO.N,/A5*%
X74318000Y-108359600D02*
X72251900Y-108359600D01*
X72251900Y-108359600D02*
X71826900Y-108784600D01*
X71826900Y-108784600D02*
X32265400Y-108784600D01*
X32265400Y-108784600D02*
X29290000Y-111760000D01*
X27940000Y-111760000D02*
X29290000Y-111760000D01*
%TO.N,/A4*%
X26670000Y-109220000D02*
X27940000Y-109220000D01*
X74242300Y-86587600D02*
X63893700Y-86587600D01*
X63893700Y-86587600D02*
X60363700Y-90117600D01*
X46037500Y-88265000D02*
X42545000Y-88265000D01*
X60363700Y-90117600D02*
X47241700Y-90117600D01*
X47241700Y-90117600D02*
X46665800Y-89541700D01*
X42545000Y-88265000D02*
X42157900Y-88652100D01*
X46665800Y-89541700D02*
X46665800Y-88893300D01*
X46665800Y-88893300D02*
X46037500Y-88265000D01*
X42157900Y-88652100D02*
X42157900Y-90100400D01*
X42157900Y-90100400D02*
X30549600Y-90100400D01*
X26035000Y-94615000D02*
X26035000Y-108585000D01*
X26035000Y-108585000D02*
X26670000Y-109220000D01*
X30549600Y-90100400D02*
X26035000Y-94615000D01*
%TO.N,/A3*%
X27940000Y-106680000D02*
X29290000Y-106680000D01*
X47617400Y-97770000D02*
X42517400Y-102870000D01*
X42517400Y-102870000D02*
X33100000Y-102870000D01*
X33100000Y-102870000D02*
X29290000Y-106680000D01*
X57785000Y-96520000D02*
X56535000Y-97770000D01*
X58420000Y-96520000D02*
X57785000Y-96520000D01*
X56535000Y-97770000D02*
X47617400Y-97770000D01*
%TO.N,/A2*%
X27940000Y-104140000D02*
X29290000Y-104140000D01*
X55705300Y-94078000D02*
X54533300Y-95250000D01*
X54533300Y-95250000D02*
X47620800Y-95250000D01*
X47620800Y-95250000D02*
X42540800Y-100330000D01*
X42540800Y-100330000D02*
X33100000Y-100330000D01*
X33100000Y-100330000D02*
X29290000Y-104140000D01*
%TO.N,/A1*%
X27940000Y-101600000D02*
X29290000Y-101600000D01*
X40640000Y-96520000D02*
X34370000Y-96520000D01*
X34370000Y-96520000D02*
X29290000Y-101600000D01*
%TO.N,/E7*%
X106680000Y-47625000D02*
X109220000Y-50165000D01*
X102033650Y-42978650D02*
X106680000Y-47625000D01*
X85523650Y-42978650D02*
X102033650Y-42978650D01*
X83820000Y-41275000D02*
X85523650Y-42978650D01*
X83820000Y-39370000D02*
X83820000Y-41275000D01*
%TO.N,/E6*%
X103505000Y-55880000D02*
X101600000Y-55880000D01*
X104140000Y-48895000D02*
X104140000Y-55245000D01*
X100330000Y-45085000D02*
X104140000Y-48895000D01*
X104140000Y-55245000D02*
X103505000Y-55880000D01*
X85090000Y-45085000D02*
X100330000Y-45085000D01*
X81280000Y-41275000D02*
X85090000Y-45085000D01*
X81280000Y-39370000D02*
X81280000Y-41275000D01*
%TO.N,/E5*%
X78740000Y-46355000D02*
X78740000Y-45720000D01*
X81280000Y-48895000D02*
X78740000Y-46355000D01*
X78740000Y-45720000D02*
X78740000Y-39370000D01*
%TO.N,/E4*%
X85730000Y-50805000D02*
X86995000Y-52070000D01*
X86995000Y-52070000D02*
X86995000Y-55245000D01*
X86360000Y-55880000D02*
X83820000Y-55880000D01*
X86995000Y-55245000D02*
X86360000Y-55880000D01*
X80650000Y-50805000D02*
X85730000Y-50805000D01*
X76200000Y-46355000D02*
X80650000Y-50805000D01*
X76200000Y-46355000D02*
X76200000Y-39370000D01*
%TO.N,/E3*%
X71120000Y-55880000D02*
X71120000Y-55880000D01*
X73660000Y-45720000D02*
X74930000Y-46990000D01*
X74930000Y-46990000D02*
X74930000Y-51435000D01*
X73660000Y-39370000D02*
X73660000Y-45720000D01*
X71120000Y-55880000D02*
X72390000Y-54610000D01*
X72390000Y-54610000D02*
X72390000Y-53975000D01*
X74930000Y-51435000D02*
X72390000Y-53975000D01*
%TO.N,/E2*%
X68580000Y-55880000D02*
X66040000Y-55880000D01*
X73025000Y-51435000D02*
X68580000Y-55880000D01*
X73025000Y-46990000D02*
X73025000Y-51435000D01*
X71120000Y-45085000D02*
X73025000Y-46990000D01*
X71120000Y-39370000D02*
X71120000Y-45085000D01*
%TO.N,/B7*%
X57230000Y-127000000D02*
X55880000Y-127000000D01*
X63677300Y-120552700D02*
X57230000Y-127000000D01*
X73757300Y-120552700D02*
X63677300Y-120552700D01*
X80200400Y-114109600D02*
X73757300Y-120552700D01*
X89579600Y-114109600D02*
X80200400Y-114109600D01*
X91929200Y-111760000D02*
X89579600Y-114109600D01*
%TO.N,/B6*%
X86995000Y-112395000D02*
X89535000Y-109855000D01*
X79717900Y-112395000D02*
X86995000Y-112395000D01*
X74637900Y-117475000D02*
X79717900Y-112395000D01*
X62865000Y-117475000D02*
X74637900Y-117475000D01*
X53340000Y-127000000D02*
X62865000Y-117475000D01*
%TO.N,/B5*%
X73660000Y-114935000D02*
X76200000Y-112395000D01*
X62865000Y-114935000D02*
X73660000Y-114935000D01*
X50800000Y-127000000D02*
X62865000Y-114935000D01*
%TO.N,/B4*%
X71841800Y-113030000D02*
X73711200Y-111160600D01*
X62230000Y-113030000D02*
X71841800Y-113030000D01*
X48260000Y-127000000D02*
X62230000Y-113030000D01*
%TO.N,/B3*%
X45720000Y-127000000D02*
X45720000Y-125650000D01*
X58943100Y-111656700D02*
X58943100Y-112426900D01*
X58943100Y-112426900D02*
X45720000Y-125650000D01*
%TO.N,/B2*%
X43180000Y-127000000D02*
X43180000Y-125650000D01*
X55106700Y-111832800D02*
X55106700Y-113723300D01*
X55106700Y-113723300D02*
X43180000Y-125650000D01*
%TO.N,/C6*%
X95250000Y-55880000D02*
X93980000Y-55880000D01*
X95885000Y-55245000D02*
X95250000Y-55880000D01*
X95885000Y-49530000D02*
X95885000Y-55245000D01*
X94615000Y-48260000D02*
X95885000Y-49530000D01*
X83820000Y-48260000D02*
X94615000Y-48260000D01*
X79960100Y-44400100D02*
X83820000Y-48260000D01*
X78816300Y-37574200D02*
X79960100Y-38718000D01*
X55354200Y-37574200D02*
X78816300Y-37574200D01*
X79960100Y-38718000D02*
X79960100Y-44400100D01*
X53340000Y-35560000D02*
X55354200Y-37574200D01*
%TO.N,/C5*%
X62230000Y-46990000D02*
X50800000Y-35560000D01*
X69850000Y-46990000D02*
X62230000Y-46990000D01*
X71120000Y-48260000D02*
X69850000Y-46990000D01*
%TO.N,/C4*%
X69502100Y-49530000D02*
X70772100Y-50800000D01*
X62230000Y-49530000D02*
X69502100Y-49530000D01*
X48260000Y-35560000D02*
X62230000Y-49530000D01*
%TO.N,/C3*%
X54650000Y-43855000D02*
X60490000Y-49695000D01*
X52665000Y-43855000D02*
X54650000Y-43855000D01*
X45720000Y-36910000D02*
X52665000Y-43855000D01*
X45720000Y-35560000D02*
X45720000Y-36910000D01*
%TO.N,/C2*%
X43180000Y-38735000D02*
X43180000Y-35560000D01*
X49628850Y-45183850D02*
X43180000Y-38735000D01*
X52606150Y-45183850D02*
X49628850Y-45183850D01*
X60325000Y-52070000D02*
X58201350Y-49946350D01*
X57368650Y-49946350D02*
X52606150Y-45183850D01*
X60325000Y-55245000D02*
X60325000Y-52070000D01*
X58201350Y-49946350D02*
X57368650Y-49946350D01*
X59690000Y-55880000D02*
X60325000Y-55245000D01*
X58420000Y-55880000D02*
X59690000Y-55880000D01*
%TO.N,/G7*%
X105410000Y-96520000D02*
X101600000Y-96520000D01*
X106680000Y-97790000D02*
X105410000Y-96520000D01*
X102870000Y-117475000D02*
X106680000Y-113665000D01*
X106680000Y-113665000D02*
X106680000Y-97790000D01*
X89535000Y-117475000D02*
X102870000Y-117475000D01*
X83820000Y-123190000D02*
X89535000Y-117475000D01*
%TO.N,/G6*%
X81280000Y-124540000D02*
X81280000Y-123190000D01*
X81835000Y-125095000D02*
X81280000Y-124540000D01*
X86200000Y-125095000D02*
X81835000Y-125095000D01*
X86280000Y-125015000D02*
X86200000Y-125095000D01*
X86280000Y-123270000D02*
X86280000Y-125015000D01*
X104775000Y-118745000D02*
X90805000Y-118745000D01*
X109052550Y-103337550D02*
X109052550Y-114467450D01*
X109052550Y-114467450D02*
X104775000Y-118745000D01*
X120137000Y-92253100D02*
X109052550Y-103337550D01*
X120137000Y-66162000D02*
X120137000Y-92253100D01*
X90805000Y-118745000D02*
X86280000Y-123270000D01*
X114935000Y-60960000D02*
X120137000Y-66162000D01*
X101600000Y-60960000D02*
X114935000Y-60960000D01*
%TO.N,/G5*%
X78740000Y-121840000D02*
X81761300Y-118818700D01*
X81761300Y-118818700D02*
X81761300Y-118613300D01*
X78740000Y-123190000D02*
X78740000Y-121840000D01*
X81761300Y-117628700D02*
X81761300Y-118613300D01*
%TO.N,/G4*%
X76200000Y-121840000D02*
X76200000Y-123190000D01*
X76200000Y-120650000D02*
X76200000Y-121840000D01*
X80645000Y-116205000D02*
X76200000Y-120650000D01*
X85284800Y-116205000D02*
X80645000Y-116205000D01*
%TO.N,/G1*%
X48260000Y-96520000D02*
X55705300Y-96520000D01*
%TO.N,/D7*%
X29845000Y-66040000D02*
X27940000Y-66040000D01*
X40967500Y-77162500D02*
X29845000Y-66040000D01*
X93980000Y-87650000D02*
X83492500Y-77162500D01*
X83492500Y-77162500D02*
X40967500Y-77162500D01*
X93980000Y-88900000D02*
X93980000Y-87650000D01*
%TO.N,/D6*%
X88265000Y-57150000D02*
X92075000Y-53340000D01*
X74930000Y-57150000D02*
X88265000Y-57150000D01*
X72390000Y-59690000D02*
X74930000Y-57150000D01*
X33100000Y-59690000D02*
X72390000Y-59690000D01*
X92075000Y-53340000D02*
X93980000Y-53340000D01*
X29290000Y-63500000D02*
X33100000Y-59690000D01*
X27940000Y-63500000D02*
X29290000Y-63500000D01*
%TO.N,/D5*%
X76200000Y-83185000D02*
X76200000Y-87059800D01*
X75071600Y-82056600D02*
X76200000Y-83185000D01*
X33796600Y-82056600D02*
X75071600Y-82056600D01*
X26625100Y-74885100D02*
X33796600Y-82056600D01*
X26625100Y-62274900D02*
X26625100Y-74885100D01*
X76200000Y-87059800D02*
X76200000Y-88900000D01*
X27940000Y-60960000D02*
X26625100Y-62274900D01*
%TO.N,/D4*%
X74295000Y-55880000D02*
X74295000Y-53975000D01*
X72390000Y-57785000D02*
X74295000Y-55880000D01*
X69215000Y-57785000D02*
X72390000Y-57785000D01*
X74930000Y-53340000D02*
X76200000Y-53340000D01*
X68610400Y-57180400D02*
X69215000Y-57785000D01*
X30529600Y-57180400D02*
X68610400Y-57180400D01*
X29290000Y-58420000D02*
X30529600Y-57180400D01*
X74295000Y-53975000D02*
X74930000Y-53340000D01*
X27940000Y-58420000D02*
X29290000Y-58420000D01*
%TO.N,/D3*%
X50772600Y-88900000D02*
X58420000Y-88900000D01*
X33655000Y-84455000D02*
X46327600Y-84455000D01*
X25918610Y-76718610D02*
X33655000Y-84455000D01*
X46327600Y-84455000D02*
X50772600Y-88900000D01*
X25918610Y-67108890D02*
X25918610Y-76718610D01*
X25924700Y-57895300D02*
X25924700Y-67102800D01*
X25924700Y-67102800D02*
X25918610Y-67108890D01*
X27940000Y-55880000D02*
X25924700Y-57895300D01*
%TO.N,/D2*%
X57020000Y-53340000D02*
X58420000Y-53340000D01*
X54480000Y-50800000D02*
X57020000Y-53340000D01*
X29290000Y-53340000D02*
X31830000Y-50800000D01*
X31830000Y-50800000D02*
X54480000Y-50800000D01*
X27940000Y-53340000D02*
X29290000Y-53340000D01*
%TO.N,/D1*%
X35560000Y-88900000D02*
X40640000Y-88900000D01*
X25218600Y-78558600D02*
X35560000Y-88900000D01*
X25218600Y-53521400D02*
X25218600Y-78558600D01*
X27940000Y-50800000D02*
X25218600Y-53521400D01*
%TO.N,/H5*%
X83820000Y-99060000D02*
X88000100Y-99060000D01*
X88000100Y-99060000D02*
X88015300Y-99075200D01*
%TO.N,/S2*%
X83820000Y-106680000D02*
X83820000Y-107930000D01*
X48260000Y-106680000D02*
X48260000Y-107930000D01*
X66040000Y-107671800D02*
X65781800Y-107930000D01*
X65781800Y-107930000D02*
X48260000Y-107930000D01*
X83820000Y-107930000D02*
X75373900Y-107930000D01*
X75373900Y-107930000D02*
X74753200Y-107309300D01*
X74753200Y-107309300D02*
X66402500Y-107309300D01*
X66402500Y-107309300D02*
X66040000Y-107671800D01*
X66040000Y-106680000D02*
X66040000Y-107671800D01*
X66064800Y-72320400D02*
X66040000Y-72345200D01*
X66040000Y-71120000D02*
X66040000Y-72345200D01*
X83820000Y-72170000D02*
X83820000Y-72320400D01*
X101550400Y-72320400D02*
X101600000Y-72370000D01*
X101600000Y-71120000D02*
X101600000Y-72370000D01*
X83820000Y-71120000D02*
X83820000Y-72170000D01*
X48260000Y-71120000D02*
X48260000Y-72390000D01*
X48260000Y-72390000D02*
X48895000Y-73025000D01*
X48895000Y-73025000D02*
X66040000Y-73025000D01*
X66040000Y-73025000D02*
X66040000Y-72345200D01*
X66040000Y-73025000D02*
X83820000Y-73025000D01*
X83820000Y-73025000D02*
X83820000Y-72320400D01*
X83820000Y-73025000D02*
X101600000Y-73025000D01*
X101600000Y-73025000D02*
X101600000Y-72370000D01*
X85220000Y-106680000D02*
X83820000Y-106680000D01*
X86490000Y-105410000D02*
X85220000Y-106680000D01*
X95250000Y-105410000D02*
X86490000Y-105410000D01*
X95895000Y-106055000D02*
X95250000Y-105410000D01*
X95895000Y-109845000D02*
X95895000Y-106055000D01*
X97810000Y-111760000D02*
X95895000Y-109845000D01*
X99060000Y-111760000D02*
X97810000Y-111760000D01*
%TO.N,/S1*%
X83820000Y-104140000D02*
X83820000Y-102890000D01*
X51435000Y-68580000D02*
X52685000Y-67330000D01*
X48260000Y-68580000D02*
X51435000Y-68580000D01*
X100330000Y-68580000D02*
X99080000Y-67330000D01*
X101600000Y-68580000D02*
X100330000Y-68580000D01*
X85130000Y-68580000D02*
X86380000Y-67330000D01*
X83820000Y-68580000D02*
X85130000Y-68580000D01*
X86380000Y-67330000D02*
X99080000Y-67330000D01*
X82550000Y-68580000D02*
X81300000Y-67330000D01*
X83820000Y-68580000D02*
X82550000Y-68580000D01*
X100290000Y-104140000D02*
X99040000Y-102890000D01*
X101600000Y-104140000D02*
X100290000Y-104140000D01*
X99040000Y-102890000D02*
X83820000Y-102890000D01*
X67985000Y-104140000D02*
X69235000Y-102890000D01*
X66040000Y-104140000D02*
X67985000Y-104140000D01*
X69235000Y-102890000D02*
X83820000Y-102890000D01*
X64770000Y-104140000D02*
X63520000Y-102890000D01*
X66040000Y-104140000D02*
X64770000Y-104140000D01*
X50800000Y-104140000D02*
X52050000Y-102890000D01*
X48260000Y-104140000D02*
X50800000Y-104140000D01*
X52050000Y-102890000D02*
X63520000Y-102890000D01*
X68580000Y-68580000D02*
X69830000Y-67330000D01*
X66040000Y-68580000D02*
X68580000Y-68580000D01*
X81300000Y-67330000D02*
X69830000Y-67330000D01*
X64770000Y-68580000D02*
X63520000Y-67330000D01*
X66040000Y-68580000D02*
X64770000Y-68580000D01*
X52685000Y-67330000D02*
X63520000Y-67330000D01*
%TO.N,/S0*%
X83820000Y-101600000D02*
X83820000Y-100350000D01*
X50800000Y-66040000D02*
X52050000Y-64790000D01*
X48260000Y-66040000D02*
X50800000Y-66040000D01*
X82550000Y-66040000D02*
X81349600Y-64839600D01*
X83820000Y-66040000D02*
X82550000Y-66040000D01*
X100290000Y-101600000D02*
X99040000Y-100350000D01*
X101600000Y-101600000D02*
X100290000Y-101600000D01*
X99040000Y-100350000D02*
X83820000Y-100350000D01*
X68620000Y-101600000D02*
X69870000Y-100350000D01*
X66040000Y-101600000D02*
X68620000Y-101600000D01*
X69870000Y-100350000D02*
X83820000Y-100350000D01*
X64095000Y-101600000D02*
X62845000Y-100350000D01*
X66040000Y-101600000D02*
X64095000Y-101600000D01*
X50800000Y-101600000D02*
X52050000Y-100350000D01*
X48260000Y-101600000D02*
X50800000Y-101600000D01*
X52050000Y-100350000D02*
X62845000Y-100350000D01*
X68580000Y-66040000D02*
X69780400Y-64839600D01*
X66040000Y-66040000D02*
X68580000Y-66040000D01*
X69780400Y-64839600D02*
X81349600Y-64839600D01*
X66040000Y-66040000D02*
X64730000Y-66040000D01*
X64730000Y-66040000D02*
X63480000Y-64790000D01*
X52050000Y-64790000D02*
X63480000Y-64790000D01*
X98425000Y-66040000D02*
X101600000Y-66040000D01*
X97224600Y-64839600D02*
X98425000Y-66040000D01*
X86290400Y-64839600D02*
X97224600Y-64839600D01*
X85090000Y-66040000D02*
X86290400Y-64839600D01*
X83820000Y-66040000D02*
X85090000Y-66040000D01*
%TO.N,/O7*%
X114300000Y-91440000D02*
X118110000Y-91440000D01*
X114300000Y-91440000D02*
X111125000Y-91440000D01*
X111125000Y-91440000D02*
X107315000Y-95250000D01*
X107315000Y-95250000D02*
X99695000Y-95250000D01*
X95885000Y-99060000D02*
X93980000Y-99060000D01*
X99695000Y-95250000D02*
X95885000Y-99060000D01*
%TO.N,/O6*%
X114300000Y-88900000D02*
X118110000Y-88900000D01*
%TO.N,/O5*%
X114300000Y-86360000D02*
X118110000Y-86360000D01*
X100370000Y-92670000D02*
X97790000Y-95250000D01*
X106640000Y-92670000D02*
X100370000Y-92670000D01*
X112950000Y-86360000D02*
X106640000Y-92670000D01*
X114300000Y-86360000D02*
X112950000Y-86360000D01*
X78105000Y-99060000D02*
X81915000Y-95250000D01*
X76200000Y-99060000D02*
X78105000Y-99060000D01*
X97790000Y-95250000D02*
X81915000Y-95250000D01*
%TO.N,/O4*%
X114300000Y-83820000D02*
X118110000Y-83820000D01*
X109220000Y-66675000D02*
X109220000Y-68580000D01*
X107315000Y-64770000D02*
X109220000Y-66675000D01*
X99695000Y-64770000D02*
X107315000Y-64770000D01*
X97175000Y-62250000D02*
X99695000Y-64770000D01*
X79990000Y-62250000D02*
X97175000Y-62250000D01*
X78740000Y-63500000D02*
X79990000Y-62250000D01*
X76200000Y-63500000D02*
X78740000Y-63500000D01*
%TO.N,/O3*%
X64774700Y-92705300D02*
X58420000Y-99060000D01*
X114300000Y-81280000D02*
X112950000Y-81280000D01*
X114300000Y-81280000D02*
X118110000Y-81280000D01*
X99695000Y-89535000D02*
X99695000Y-87630000D01*
X99690300Y-89539700D02*
X99695000Y-89535000D01*
X106045000Y-81280000D02*
X112950000Y-81280000D01*
X99695000Y-87630000D02*
X106045000Y-81280000D01*
X98420300Y-92705300D02*
X99690300Y-91435300D01*
X99690300Y-91435300D02*
X99690300Y-89539700D01*
X98420300Y-92705300D02*
X64774700Y-92705300D01*
%TO.N,/O2*%
X118110000Y-78740000D02*
X115650000Y-78740000D01*
X114300000Y-78740000D02*
X115650000Y-78740000D01*
X119436600Y-77413400D02*
X118110000Y-78740000D01*
X119436600Y-68001600D02*
X119436600Y-77413400D01*
X113665000Y-62230000D02*
X119436600Y-68001600D01*
X99695000Y-62230000D02*
X113665000Y-62230000D01*
X97221400Y-59756400D02*
X99695000Y-62230000D01*
X74863600Y-59756400D02*
X97221400Y-59756400D01*
X72390000Y-62230000D02*
X74863600Y-59756400D01*
X60960000Y-63500000D02*
X62230000Y-62230000D01*
X58420000Y-63500000D02*
X60960000Y-63500000D01*
X62230000Y-62230000D02*
X72390000Y-62230000D01*
%TO.N,/O1*%
X114300000Y-76200000D02*
X118110000Y-76200000D01*
X46920400Y-92779600D02*
X61788000Y-92779600D01*
X61788000Y-92779600D02*
X64467300Y-90100300D01*
X64467300Y-90100300D02*
X77286600Y-90100300D01*
X77286600Y-90100300D02*
X78492900Y-88894000D01*
X78492900Y-88894000D02*
X80901600Y-88894000D01*
X80901600Y-88894000D02*
X82108000Y-90100400D01*
X82108000Y-90100400D02*
X95122700Y-90100400D01*
X95122700Y-90100400D02*
X109023100Y-76200000D01*
X109023100Y-76200000D02*
X114300000Y-76200000D01*
X40640000Y-99060000D02*
X41910000Y-99060000D01*
X43180000Y-97790000D02*
X43180000Y-96520000D01*
X41910000Y-99060000D02*
X43180000Y-97790000D01*
X43180000Y-96520000D02*
X46920400Y-92779600D01*
%TO.N,/O0*%
X114300000Y-73660000D02*
X118110000Y-73660000D01*
X38735000Y-63500000D02*
X40640000Y-63500000D01*
X37782500Y-64452500D02*
X38735000Y-63500000D01*
X40640000Y-74930000D02*
X37782500Y-72072500D01*
X105410000Y-74930000D02*
X40640000Y-74930000D01*
X106680000Y-73660000D02*
X105410000Y-74930000D01*
X37782500Y-72072500D02*
X37782500Y-64452500D01*
X114300000Y-73660000D02*
X106680000Y-73660000D01*
%TO.N,/~E*%
X64230200Y-105390000D02*
X62705400Y-103865200D01*
X62705400Y-103865200D02*
X60094800Y-103865200D01*
X60094800Y-103865200D02*
X59820000Y-104140000D01*
X77600000Y-104140000D02*
X77820400Y-103919600D01*
X77820400Y-103919600D02*
X80560600Y-103919600D01*
X80560600Y-103919600D02*
X81989100Y-105348100D01*
X81989100Y-105348100D02*
X85069700Y-105348100D01*
X85069700Y-105348100D02*
X86277800Y-104140000D01*
X86277800Y-104140000D02*
X93980000Y-104140000D01*
X40640000Y-104140000D02*
X42040000Y-104140000D01*
X42040000Y-104140000D02*
X42307000Y-103873000D01*
X42307000Y-103873000D02*
X44973800Y-103873000D01*
X44973800Y-103873000D02*
X46490800Y-105390000D01*
X76200000Y-104140000D02*
X77600000Y-104140000D01*
X40640000Y-68580000D02*
X42040000Y-68580000D01*
X42040000Y-68580000D02*
X42260500Y-68359500D01*
X42260500Y-68359500D02*
X45137800Y-68359500D01*
X45137800Y-68359500D02*
X46608300Y-69830000D01*
X58420000Y-68580000D02*
X59820000Y-68580000D01*
X59820000Y-68580000D02*
X60070000Y-68330000D01*
X60070000Y-68330000D02*
X62802200Y-68330000D01*
X62802200Y-68330000D02*
X64302200Y-69830000D01*
X58420000Y-104140000D02*
X59820000Y-104140000D01*
X76200000Y-68580000D02*
X77600000Y-68580000D01*
X77600000Y-68580000D02*
X77850000Y-68330000D01*
X77850000Y-68330000D02*
X80582200Y-68330000D01*
X80582200Y-68330000D02*
X82082200Y-69830000D01*
X55880000Y-68580000D02*
X54630000Y-69830000D01*
X58420000Y-68580000D02*
X55880000Y-68580000D01*
X46608300Y-69830000D02*
X54630000Y-69830000D01*
X73025000Y-68580000D02*
X71775000Y-69830000D01*
X76200000Y-68580000D02*
X73025000Y-68580000D01*
X64302200Y-69830000D02*
X71775000Y-69830000D01*
X92075000Y-68580000D02*
X90825000Y-69830000D01*
X93980000Y-68580000D02*
X92075000Y-68580000D01*
X82082200Y-69830000D02*
X90825000Y-69830000D01*
X73620000Y-104140000D02*
X72370000Y-105390000D01*
X76200000Y-104140000D02*
X73620000Y-104140000D01*
X72370000Y-105390000D02*
X64230200Y-105390000D01*
X56475000Y-104140000D02*
X55225000Y-105390000D01*
X58420000Y-104140000D02*
X56475000Y-104140000D01*
X46490800Y-105390000D02*
X55225000Y-105390000D01*
%TD*%
M02*
