%TF.GenerationSoftware,KiCad,Pcbnew,(5.1.8)-1*%
%TF.CreationDate,2022-12-02T00:18:40+03:00*%
%TF.ProjectId,MUX8x1-v4,4d555838-7831-42d7-9634-2e6b69636164,rev?*%
%TF.SameCoordinates,Original*%
%TF.FileFunction,Soldermask,Bot*%
%TF.FilePolarity,Negative*%
%FSLAX46Y46*%
G04 Gerber Fmt 4.6, Leading zero omitted, Abs format (unit mm)*
G04 Created by KiCad (PCBNEW (5.1.8)-1) date 2022-12-02 00:18:40*
%MOMM*%
%LPD*%
G01*
G04 APERTURE LIST*
%ADD10O,1.700000X1.700000*%
%ADD11R,1.700000X1.700000*%
%ADD12O,1.800000X1.500000*%
%ADD13O,1.500000X1.800000*%
%ADD14O,1.600000X1.600000*%
%ADD15C,1.600000*%
%ADD16R,1.800000X1.500000*%
%ADD17R,1.500000X1.800000*%
%ADD18C,2.600000*%
%ADD19R,2.600000X2.600000*%
%ADD20C,3.200000*%
G04 APERTURE END LIST*
D10*
%TO.C,J21*%
X118110000Y-91440000D03*
X118110000Y-88900000D03*
X118110000Y-86360000D03*
X118110000Y-83820000D03*
X118110000Y-81280000D03*
X118110000Y-78740000D03*
X118110000Y-76200000D03*
X118110000Y-73660000D03*
D11*
X118110000Y-71120000D03*
%TD*%
D10*
%TO.C,J19*%
X114300000Y-91440000D03*
X114300000Y-88900000D03*
X114300000Y-86360000D03*
X114300000Y-83820000D03*
X114300000Y-81280000D03*
X114300000Y-78740000D03*
X114300000Y-76200000D03*
X114300000Y-73660000D03*
D11*
X114300000Y-71120000D03*
%TD*%
D10*
%TO.C,J18*%
X111760000Y-123190000D03*
X109220000Y-123190000D03*
X106680000Y-123190000D03*
X104140000Y-123190000D03*
X101600000Y-123190000D03*
X99060000Y-123190000D03*
X96520000Y-123190000D03*
X93980000Y-123190000D03*
D11*
X91440000Y-123190000D03*
%TD*%
D10*
%TO.C,J16*%
X111760000Y-127000000D03*
X109220000Y-127000000D03*
X106680000Y-127000000D03*
X104140000Y-127000000D03*
X101600000Y-127000000D03*
X99060000Y-127000000D03*
X96520000Y-127000000D03*
X93980000Y-127000000D03*
D11*
X91440000Y-127000000D03*
%TD*%
D10*
%TO.C,J15*%
X27940000Y-66040000D03*
X27940000Y-63500000D03*
X27940000Y-60960000D03*
X27940000Y-58420000D03*
X27940000Y-55880000D03*
X27940000Y-53340000D03*
D12*
X27940000Y-50800000D03*
X27940000Y-48260000D03*
D11*
X27940000Y-45720000D03*
%TD*%
D10*
%TO.C,J14*%
X83820000Y-127000000D03*
X81280000Y-127000000D03*
X78740000Y-127000000D03*
X76200000Y-127000000D03*
X73660000Y-127000000D03*
X71120000Y-127000000D03*
X68580000Y-127000000D03*
X66040000Y-127000000D03*
D11*
X63500000Y-127000000D03*
%TD*%
D10*
%TO.C,J12*%
X83820000Y-123190000D03*
X81280000Y-123190000D03*
X78740000Y-123190000D03*
X76200000Y-123190000D03*
X73660000Y-123190000D03*
X71120000Y-123190000D03*
X68580000Y-123190000D03*
X66040000Y-123190000D03*
D11*
X63500000Y-123190000D03*
%TD*%
D10*
%TO.C,J11*%
X55880000Y-35560000D03*
X53340000Y-35560000D03*
X50800000Y-35560000D03*
X48260000Y-35560000D03*
X45720000Y-35560000D03*
X43180000Y-35560000D03*
X40640000Y-35560000D03*
X38100000Y-35560000D03*
D11*
X35560000Y-35560000D03*
%TD*%
D10*
%TO.C,J8*%
X111760000Y-35600000D03*
X109220000Y-35600000D03*
X106680000Y-35600000D03*
X104140000Y-35600000D03*
X101600000Y-35600000D03*
X99060000Y-35600000D03*
X96520000Y-35600000D03*
X93980000Y-35600000D03*
D11*
X91440000Y-35600000D03*
%TD*%
D10*
%TO.C,J6*%
X111760000Y-39370000D03*
X109220000Y-39370000D03*
X106680000Y-39370000D03*
X104140000Y-39370000D03*
X101600000Y-39370000D03*
X99060000Y-39370000D03*
X96520000Y-39370000D03*
X93980000Y-39370000D03*
D11*
X91440000Y-39370000D03*
%TD*%
D10*
%TO.C,J5*%
X55880000Y-127000000D03*
X53340000Y-127000000D03*
X50800000Y-127000000D03*
X48260000Y-127000000D03*
X45720000Y-127000000D03*
X43180000Y-127000000D03*
X40640000Y-127000000D03*
X38100000Y-127000000D03*
D11*
X35560000Y-127000000D03*
%TD*%
D10*
%TO.C,J4*%
X83820000Y-35560000D03*
X81280000Y-35560000D03*
X78740000Y-35560000D03*
X76200000Y-35560000D03*
X73660000Y-35560000D03*
X71120000Y-35560000D03*
X68580000Y-35560000D03*
X66040000Y-35560000D03*
D11*
X63500000Y-35560000D03*
%TD*%
D10*
%TO.C,J2*%
X83820000Y-39370000D03*
D13*
X81280000Y-39370000D03*
X78740000Y-39370000D03*
D10*
X76200000Y-39370000D03*
X73660000Y-39370000D03*
X71120000Y-39370000D03*
X68580000Y-39370000D03*
X66040000Y-39370000D03*
D11*
X63500000Y-39370000D03*
%TD*%
D10*
%TO.C,J1*%
X27940000Y-116840000D03*
X27940000Y-114300000D03*
X27940000Y-111760000D03*
X27940000Y-109220000D03*
X27940000Y-106680000D03*
X27940000Y-104140000D03*
X27940000Y-101600000D03*
X27940000Y-99060000D03*
D11*
X27940000Y-96520000D03*
%TD*%
D14*
%TO.C,C8*%
X97790000Y-105170000D03*
D15*
X97790000Y-90170000D03*
%TD*%
D14*
%TO.C,C7*%
X97790000Y-69610000D03*
D15*
X97790000Y-54610000D03*
%TD*%
D14*
%TO.C,C6*%
X80010000Y-105170000D03*
D15*
X80010000Y-90170000D03*
%TD*%
D14*
%TO.C,C5*%
X80010000Y-69610000D03*
D15*
X80010000Y-54610000D03*
%TD*%
D14*
%TO.C,C4*%
X62230000Y-105170000D03*
D15*
X62230000Y-90170000D03*
%TD*%
D14*
%TO.C,C3*%
X62230000Y-69610000D03*
D15*
X62230000Y-54610000D03*
%TD*%
D14*
%TO.C,C2*%
X44450000Y-105170000D03*
D15*
X44450000Y-90170000D03*
%TD*%
D14*
%TO.C,C1*%
X44450000Y-69610000D03*
D15*
X44450000Y-54610000D03*
%TD*%
D12*
%TO.C,U8*%
X101600000Y-88900000D03*
X93980000Y-106680000D03*
X101600000Y-91440000D03*
X93980000Y-104140000D03*
X101600000Y-93980000D03*
X93980000Y-101600000D03*
X101600000Y-96520000D03*
X93980000Y-99060000D03*
X101600000Y-99060000D03*
X93980000Y-96520000D03*
X101600000Y-101600000D03*
X93980000Y-93980000D03*
X101600000Y-104140000D03*
X93980000Y-91440000D03*
X101600000Y-106680000D03*
D16*
X93980000Y-88900000D03*
%TD*%
D12*
%TO.C,U7*%
X101600000Y-53340000D03*
X93980000Y-71120000D03*
X101600000Y-55880000D03*
X93980000Y-68580000D03*
X101600000Y-58420000D03*
X93980000Y-66040000D03*
X101600000Y-60960000D03*
X93980000Y-63500000D03*
X101600000Y-63500000D03*
X93980000Y-60960000D03*
X101600000Y-66040000D03*
X93980000Y-58420000D03*
X101600000Y-68580000D03*
X93980000Y-55880000D03*
X101600000Y-71120000D03*
D16*
X93980000Y-53340000D03*
%TD*%
D12*
%TO.C,U6*%
X83820000Y-88900000D03*
X76200000Y-106680000D03*
X83820000Y-91440000D03*
X76200000Y-104140000D03*
X83820000Y-93980000D03*
X76200000Y-101600000D03*
X83820000Y-96520000D03*
X76200000Y-99060000D03*
X83820000Y-99060000D03*
X76200000Y-96520000D03*
X83820000Y-101600000D03*
X76200000Y-93980000D03*
X83820000Y-104140000D03*
X76200000Y-91440000D03*
X83820000Y-106680000D03*
D16*
X76200000Y-88900000D03*
%TD*%
D12*
%TO.C,U5*%
X83820000Y-53340000D03*
X76200000Y-71120000D03*
X83820000Y-55880000D03*
X76200000Y-68580000D03*
X83820000Y-58420000D03*
X76200000Y-66040000D03*
X83820000Y-60960000D03*
X76200000Y-63500000D03*
X83820000Y-63500000D03*
X76200000Y-60960000D03*
X83820000Y-66040000D03*
X76200000Y-58420000D03*
X83820000Y-68580000D03*
X76200000Y-55880000D03*
X83820000Y-71120000D03*
D16*
X76200000Y-53340000D03*
%TD*%
D12*
%TO.C,U4*%
X66040000Y-88900000D03*
X58420000Y-106680000D03*
X66040000Y-91440000D03*
X58420000Y-104140000D03*
X66040000Y-93980000D03*
X58420000Y-101600000D03*
X66040000Y-96520000D03*
X58420000Y-99060000D03*
X66040000Y-99060000D03*
X58420000Y-96520000D03*
X66040000Y-101600000D03*
X58420000Y-93980000D03*
X66040000Y-104140000D03*
X58420000Y-91440000D03*
X66040000Y-106680000D03*
D16*
X58420000Y-88900000D03*
%TD*%
D12*
%TO.C,U3*%
X66040000Y-53340000D03*
X58420000Y-71120000D03*
X66040000Y-55880000D03*
X58420000Y-68580000D03*
X66040000Y-58420000D03*
X58420000Y-66040000D03*
X66040000Y-60960000D03*
X58420000Y-63500000D03*
X66040000Y-63500000D03*
X58420000Y-60960000D03*
X66040000Y-66040000D03*
X58420000Y-58420000D03*
X66040000Y-68580000D03*
X58420000Y-55880000D03*
X66040000Y-71120000D03*
D16*
X58420000Y-53340000D03*
%TD*%
D12*
%TO.C,U2*%
X48260000Y-88900000D03*
X40640000Y-106680000D03*
X48260000Y-91440000D03*
X40640000Y-104140000D03*
X48260000Y-93980000D03*
X40640000Y-101600000D03*
X48260000Y-96520000D03*
X40640000Y-99060000D03*
X48260000Y-99060000D03*
X40640000Y-96520000D03*
X48260000Y-101600000D03*
X40640000Y-93980000D03*
X48260000Y-104140000D03*
X40640000Y-91440000D03*
X48260000Y-106680000D03*
D16*
X40640000Y-88900000D03*
%TD*%
D12*
%TO.C,U1*%
X48260000Y-53340000D03*
X40640000Y-71120000D03*
X48260000Y-55880000D03*
X40640000Y-68580000D03*
X48260000Y-58420000D03*
X40640000Y-66040000D03*
X48260000Y-60960000D03*
X40640000Y-63500000D03*
X48260000Y-63500000D03*
X40640000Y-60960000D03*
X48260000Y-66040000D03*
X40640000Y-58420000D03*
X48260000Y-68580000D03*
X40640000Y-55880000D03*
X48260000Y-71120000D03*
D16*
X40640000Y-53340000D03*
%TD*%
%TO.C,R1*%
G36*
G01*
X33839999Y-75012500D02*
X34740001Y-75012500D01*
G75*
G02*
X34990000Y-75262499I0J-249999D01*
G01*
X34990000Y-75962501D01*
G75*
G02*
X34740001Y-76212500I-249999J0D01*
G01*
X33839999Y-76212500D01*
G75*
G02*
X33590000Y-75962501I0J249999D01*
G01*
X33590000Y-75262499D01*
G75*
G02*
X33839999Y-75012500I249999J0D01*
G01*
G37*
G36*
G01*
X33839999Y-73012500D02*
X34740001Y-73012500D01*
G75*
G02*
X34990000Y-73262499I0J-249999D01*
G01*
X34990000Y-73962501D01*
G75*
G02*
X34740001Y-74212500I-249999J0D01*
G01*
X33839999Y-74212500D01*
G75*
G02*
X33590000Y-73962501I0J249999D01*
G01*
X33590000Y-73262499D01*
G75*
G02*
X33839999Y-73012500I249999J0D01*
G01*
G37*
%TD*%
D11*
%TO.C,J20*%
X30480000Y-73660000D03*
%TD*%
D13*
%TO.C,J10*%
X99060000Y-111760000D03*
X101600000Y-111760000D03*
D17*
X104140000Y-111760000D03*
%TD*%
D18*
%TO.C,J9*%
X116840000Y-104220000D03*
D19*
X116840000Y-109220000D03*
%TD*%
D20*
%TO.C,H4*%
X119380000Y-127000000D03*
%TD*%
%TO.C,H3*%
X119380000Y-35560000D03*
%TD*%
%TO.C,H2*%
X27940000Y-127000000D03*
%TD*%
%TO.C,H1*%
X27940000Y-35560000D03*
%TD*%
M02*
