M48
METRIC
T1C0.500
T2C1.000
%
G90
G05
T1
X65.722Y-53.34
X65.722Y-74.295
T2
X50.8Y-55.88
X50.8Y-58.42
X50.8Y-60.96
X50.8Y-63.5
X50.8Y-66.04
X50.8Y-68.58
X50.8Y-71.12
X50.8Y-73.66
X50.8Y-76.2
X71.12Y-27.94
X71.12Y-30.48
X71.12Y-33.02
X71.12Y-35.56
X71.12Y-38.1
X71.12Y-40.64
X71.12Y-43.18
X71.12Y-45.72
X71.12Y-48.26
X53.975Y-79.375
X67.945Y-79.375
X50.8Y-27.94
X50.8Y-30.48
X50.8Y-33.02
X50.8Y-35.56
X50.8Y-38.1
X50.8Y-40.64
X50.8Y-43.18
X50.8Y-45.72
X50.8Y-48.26
X71.12Y-55.88
X71.12Y-58.42
X71.12Y-60.96
X71.12Y-63.5
X71.12Y-66.04
X71.12Y-68.58
X71.12Y-71.12
X71.12Y-73.66
X71.12Y-76.2
T0
M30
