%TF.GenerationSoftware,KiCad,Pcbnew,(5.1.8)-1*%
%TF.CreationDate,2024-07-21T13:57:18+03:00*%
%TF.ProjectId,STACK16,53544143-4b31-4362-9e6b-696361645f70,rev?*%
%TF.SameCoordinates,Original*%
%TF.FileFunction,Legend,Top*%
%TF.FilePolarity,Positive*%
%FSLAX46Y46*%
G04 Gerber Fmt 4.6, Leading zero omitted, Abs format (unit mm)*
G04 Created by KiCad (PCBNEW (5.1.8)-1) date 2024-07-21 13:57:18*
%MOMM*%
%LPD*%
G01*
G04 APERTURE LIST*
%ADD10C,0.150000*%
%ADD11C,0.250000*%
%ADD12C,0.120000*%
G04 APERTURE END LIST*
D10*
X69032380Y-68817738D02*
X68032380Y-68817738D01*
X68032380Y-68579642D01*
X68080000Y-68436785D01*
X68175238Y-68341547D01*
X68270476Y-68293928D01*
X68460952Y-68246309D01*
X68603809Y-68246309D01*
X68794285Y-68293928D01*
X68889523Y-68341547D01*
X68984761Y-68436785D01*
X69032380Y-68579642D01*
X69032380Y-68817738D01*
X69032380Y-67389166D02*
X68508571Y-67389166D01*
X68413333Y-67436785D01*
X68365714Y-67532023D01*
X68365714Y-67722500D01*
X68413333Y-67817738D01*
X68984761Y-67389166D02*
X69032380Y-67484404D01*
X69032380Y-67722500D01*
X68984761Y-67817738D01*
X68889523Y-67865357D01*
X68794285Y-67865357D01*
X68699047Y-67817738D01*
X68651428Y-67722500D01*
X68651428Y-67484404D01*
X68603809Y-67389166D01*
X68365714Y-67055833D02*
X68365714Y-66674880D01*
X68032380Y-66912976D02*
X68889523Y-66912976D01*
X68984761Y-66865357D01*
X69032380Y-66770119D01*
X69032380Y-66674880D01*
X69032380Y-65912976D02*
X68508571Y-65912976D01*
X68413333Y-65960595D01*
X68365714Y-66055833D01*
X68365714Y-66246309D01*
X68413333Y-66341547D01*
X68984761Y-65912976D02*
X69032380Y-66008214D01*
X69032380Y-66246309D01*
X68984761Y-66341547D01*
X68889523Y-66389166D01*
X68794285Y-66389166D01*
X68699047Y-66341547D01*
X68651428Y-66246309D01*
X68651428Y-66008214D01*
X68603809Y-65912976D01*
X68032380Y-64484404D02*
X68032380Y-64293928D01*
X68080000Y-64198690D01*
X68175238Y-64103452D01*
X68365714Y-64055833D01*
X68699047Y-64055833D01*
X68889523Y-64103452D01*
X68984761Y-64198690D01*
X69032380Y-64293928D01*
X69032380Y-64484404D01*
X68984761Y-64579642D01*
X68889523Y-64674880D01*
X68699047Y-64722500D01*
X68365714Y-64722500D01*
X68175238Y-64674880D01*
X68080000Y-64579642D01*
X68032380Y-64484404D01*
X68365714Y-63198690D02*
X69032380Y-63198690D01*
X68365714Y-63627261D02*
X68889523Y-63627261D01*
X68984761Y-63579642D01*
X69032380Y-63484404D01*
X69032380Y-63341547D01*
X68984761Y-63246309D01*
X68937142Y-63198690D01*
X68365714Y-62865357D02*
X68365714Y-62484404D01*
X68032380Y-62722500D02*
X68889523Y-62722500D01*
X68984761Y-62674880D01*
X69032380Y-62579642D01*
X69032380Y-62484404D01*
X53792380Y-68563809D02*
X52792380Y-68563809D01*
X52792380Y-68325714D01*
X52840000Y-68182857D01*
X52935238Y-68087619D01*
X53030476Y-68040000D01*
X53220952Y-67992380D01*
X53363809Y-67992380D01*
X53554285Y-68040000D01*
X53649523Y-68087619D01*
X53744761Y-68182857D01*
X53792380Y-68325714D01*
X53792380Y-68563809D01*
X53792380Y-67135238D02*
X53268571Y-67135238D01*
X53173333Y-67182857D01*
X53125714Y-67278095D01*
X53125714Y-67468571D01*
X53173333Y-67563809D01*
X53744761Y-67135238D02*
X53792380Y-67230476D01*
X53792380Y-67468571D01*
X53744761Y-67563809D01*
X53649523Y-67611428D01*
X53554285Y-67611428D01*
X53459047Y-67563809D01*
X53411428Y-67468571D01*
X53411428Y-67230476D01*
X53363809Y-67135238D01*
X53125714Y-66801904D02*
X53125714Y-66420952D01*
X52792380Y-66659047D02*
X53649523Y-66659047D01*
X53744761Y-66611428D01*
X53792380Y-66516190D01*
X53792380Y-66420952D01*
X53792380Y-65659047D02*
X53268571Y-65659047D01*
X53173333Y-65706666D01*
X53125714Y-65801904D01*
X53125714Y-65992380D01*
X53173333Y-66087619D01*
X53744761Y-65659047D02*
X53792380Y-65754285D01*
X53792380Y-65992380D01*
X53744761Y-66087619D01*
X53649523Y-66135238D01*
X53554285Y-66135238D01*
X53459047Y-66087619D01*
X53411428Y-65992380D01*
X53411428Y-65754285D01*
X53363809Y-65659047D01*
X53792380Y-64420952D02*
X52792380Y-64420952D01*
X53125714Y-63944761D02*
X53792380Y-63944761D01*
X53220952Y-63944761D02*
X53173333Y-63897142D01*
X53125714Y-63801904D01*
X53125714Y-63659047D01*
X53173333Y-63563809D01*
X53268571Y-63516190D01*
X53792380Y-63516190D01*
X66754523Y-47712380D02*
X67087857Y-48712380D01*
X67421190Y-47712380D01*
X68183095Y-48664761D02*
X68087857Y-48712380D01*
X67897380Y-48712380D01*
X67802142Y-48664761D01*
X67754523Y-48617142D01*
X67706904Y-48521904D01*
X67706904Y-48236190D01*
X67754523Y-48140952D01*
X67802142Y-48093333D01*
X67897380Y-48045714D01*
X68087857Y-48045714D01*
X68183095Y-48093333D01*
X69040238Y-48664761D02*
X68945000Y-48712380D01*
X68754523Y-48712380D01*
X68659285Y-48664761D01*
X68611666Y-48617142D01*
X68564047Y-48521904D01*
X68564047Y-48236190D01*
X68611666Y-48140952D01*
X68659285Y-48093333D01*
X68754523Y-48045714D01*
X68945000Y-48045714D01*
X69040238Y-48093333D01*
X49522142Y-77605000D02*
X49426904Y-77557380D01*
X49284047Y-77557380D01*
X49141190Y-77605000D01*
X49045952Y-77700238D01*
X48998333Y-77795476D01*
X48950714Y-77985952D01*
X48950714Y-78128809D01*
X48998333Y-78319285D01*
X49045952Y-78414523D01*
X49141190Y-78509761D01*
X49284047Y-78557380D01*
X49379285Y-78557380D01*
X49522142Y-78509761D01*
X49569761Y-78462142D01*
X49569761Y-78128809D01*
X49379285Y-78128809D01*
X49998333Y-77890714D02*
X49998333Y-78557380D01*
X49998333Y-77985952D02*
X50045952Y-77938333D01*
X50141190Y-77890714D01*
X50284047Y-77890714D01*
X50379285Y-77938333D01*
X50426904Y-78033571D01*
X50426904Y-78557380D01*
X51331666Y-78557380D02*
X51331666Y-77557380D01*
X51331666Y-78509761D02*
X51236428Y-78557380D01*
X51045952Y-78557380D01*
X50950714Y-78509761D01*
X50903095Y-78462142D01*
X50855476Y-78366904D01*
X50855476Y-78081190D01*
X50903095Y-77985952D01*
X50950714Y-77938333D01*
X51045952Y-77890714D01*
X51236428Y-77890714D01*
X51331666Y-77938333D01*
D11*
X59864761Y-67468571D02*
X59864761Y-68420952D01*
X60817142Y-68516190D01*
X60721904Y-68420952D01*
X60626666Y-68230476D01*
X60626666Y-67754285D01*
X60721904Y-67563809D01*
X60817142Y-67468571D01*
X61007619Y-67373333D01*
X61483809Y-67373333D01*
X61674285Y-67468571D01*
X61769523Y-67563809D01*
X61864761Y-67754285D01*
X61864761Y-68230476D01*
X61769523Y-68420952D01*
X61674285Y-68516190D01*
X59864761Y-66706666D02*
X59864761Y-65373333D01*
X61864761Y-66230476D01*
X60531428Y-63754285D02*
X61864761Y-63754285D01*
X59769523Y-64230476D02*
X61198095Y-64706666D01*
X61198095Y-63468571D01*
D10*
X68643523Y-74112380D02*
X68072095Y-74112380D01*
X68357809Y-74112380D02*
X68357809Y-73112380D01*
X68262571Y-73255238D01*
X68167333Y-73350476D01*
X68072095Y-73398095D01*
X69548285Y-73112380D02*
X69072095Y-73112380D01*
X69024476Y-73588571D01*
X69072095Y-73540952D01*
X69167333Y-73493333D01*
X69405428Y-73493333D01*
X69500666Y-73540952D01*
X69548285Y-73588571D01*
X69595904Y-73683809D01*
X69595904Y-73921904D01*
X69548285Y-74017142D01*
X69500666Y-74064761D01*
X69405428Y-74112380D01*
X69167333Y-74112380D01*
X69072095Y-74064761D01*
X69024476Y-74017142D01*
X52895523Y-74112380D02*
X52324095Y-74112380D01*
X52609809Y-74112380D02*
X52609809Y-73112380D01*
X52514571Y-73255238D01*
X52419333Y-73350476D01*
X52324095Y-73398095D01*
X53800285Y-73112380D02*
X53324095Y-73112380D01*
X53276476Y-73588571D01*
X53324095Y-73540952D01*
X53419333Y-73493333D01*
X53657428Y-73493333D01*
X53752666Y-73540952D01*
X53800285Y-73588571D01*
X53847904Y-73683809D01*
X53847904Y-73921904D01*
X53800285Y-74017142D01*
X53752666Y-74064761D01*
X53657428Y-74112380D01*
X53419333Y-74112380D01*
X53324095Y-74064761D01*
X53276476Y-74017142D01*
X69119761Y-55760952D02*
X69024523Y-55713333D01*
X68976904Y-55665714D01*
X68929285Y-55570476D01*
X68929285Y-55522857D01*
X68976904Y-55427619D01*
X69024523Y-55380000D01*
X69119761Y-55332380D01*
X69310238Y-55332380D01*
X69405476Y-55380000D01*
X69453095Y-55427619D01*
X69500714Y-55522857D01*
X69500714Y-55570476D01*
X69453095Y-55665714D01*
X69405476Y-55713333D01*
X69310238Y-55760952D01*
X69119761Y-55760952D01*
X69024523Y-55808571D01*
X68976904Y-55856190D01*
X68929285Y-55951428D01*
X68929285Y-56141904D01*
X68976904Y-56237142D01*
X69024523Y-56284761D01*
X69119761Y-56332380D01*
X69310238Y-56332380D01*
X69405476Y-56284761D01*
X69453095Y-56237142D01*
X69500714Y-56141904D01*
X69500714Y-55951428D01*
X69453095Y-55856190D01*
X69405476Y-55808571D01*
X69310238Y-55760952D01*
X52609761Y-55760952D02*
X52514523Y-55713333D01*
X52466904Y-55665714D01*
X52419285Y-55570476D01*
X52419285Y-55522857D01*
X52466904Y-55427619D01*
X52514523Y-55380000D01*
X52609761Y-55332380D01*
X52800238Y-55332380D01*
X52895476Y-55380000D01*
X52943095Y-55427619D01*
X52990714Y-55522857D01*
X52990714Y-55570476D01*
X52943095Y-55665714D01*
X52895476Y-55713333D01*
X52800238Y-55760952D01*
X52609761Y-55760952D01*
X52514523Y-55808571D01*
X52466904Y-55856190D01*
X52419285Y-55951428D01*
X52419285Y-56141904D01*
X52466904Y-56237142D01*
X52514523Y-56284761D01*
X52609761Y-56332380D01*
X52800238Y-56332380D01*
X52895476Y-56284761D01*
X52943095Y-56237142D01*
X52990714Y-56141904D01*
X52990714Y-55951428D01*
X52943095Y-55856190D01*
X52895476Y-55808571D01*
X52800238Y-55760952D01*
D11*
X59864761Y-39528571D02*
X59864761Y-40480952D01*
X60817142Y-40576190D01*
X60721904Y-40480952D01*
X60626666Y-40290476D01*
X60626666Y-39814285D01*
X60721904Y-39623809D01*
X60817142Y-39528571D01*
X61007619Y-39433333D01*
X61483809Y-39433333D01*
X61674285Y-39528571D01*
X61769523Y-39623809D01*
X61864761Y-39814285D01*
X61864761Y-40290476D01*
X61769523Y-40480952D01*
X61674285Y-40576190D01*
X59864761Y-38766666D02*
X59864761Y-37433333D01*
X61864761Y-38290476D01*
X60531428Y-35814285D02*
X61864761Y-35814285D01*
X59769523Y-36290476D02*
X61198095Y-36766666D01*
X61198095Y-35528571D01*
D10*
X68881666Y-45172380D02*
X69548333Y-45172380D01*
X69119761Y-46172380D01*
X52371666Y-45172380D02*
X53038333Y-45172380D01*
X52609761Y-46172380D01*
X69167380Y-27392380D02*
X69262619Y-27392380D01*
X69357857Y-27440000D01*
X69405476Y-27487619D01*
X69453095Y-27582857D01*
X69500714Y-27773333D01*
X69500714Y-28011428D01*
X69453095Y-28201904D01*
X69405476Y-28297142D01*
X69357857Y-28344761D01*
X69262619Y-28392380D01*
X69167380Y-28392380D01*
X69072142Y-28344761D01*
X69024523Y-28297142D01*
X68976904Y-28201904D01*
X68929285Y-28011428D01*
X68929285Y-27773333D01*
X68976904Y-27582857D01*
X69024523Y-27487619D01*
X69072142Y-27440000D01*
X69167380Y-27392380D01*
X52657380Y-27392380D02*
X52752619Y-27392380D01*
X52847857Y-27440000D01*
X52895476Y-27487619D01*
X52943095Y-27582857D01*
X52990714Y-27773333D01*
X52990714Y-28011428D01*
X52943095Y-28201904D01*
X52895476Y-28297142D01*
X52847857Y-28344761D01*
X52752619Y-28392380D01*
X52657380Y-28392380D01*
X52562142Y-28344761D01*
X52514523Y-28297142D01*
X52466904Y-28201904D01*
X52419285Y-28011428D01*
X52419285Y-27773333D01*
X52466904Y-27582857D01*
X52514523Y-27487619D01*
X52562142Y-27440000D01*
X52657380Y-27392380D01*
X69032380Y-41195238D02*
X68032380Y-41195238D01*
X68032380Y-40957142D01*
X68080000Y-40814285D01*
X68175238Y-40719047D01*
X68270476Y-40671428D01*
X68460952Y-40623809D01*
X68603809Y-40623809D01*
X68794285Y-40671428D01*
X68889523Y-40719047D01*
X68984761Y-40814285D01*
X69032380Y-40957142D01*
X69032380Y-41195238D01*
X69032380Y-39766666D02*
X68508571Y-39766666D01*
X68413333Y-39814285D01*
X68365714Y-39909523D01*
X68365714Y-40100000D01*
X68413333Y-40195238D01*
X68984761Y-39766666D02*
X69032380Y-39861904D01*
X69032380Y-40100000D01*
X68984761Y-40195238D01*
X68889523Y-40242857D01*
X68794285Y-40242857D01*
X68699047Y-40195238D01*
X68651428Y-40100000D01*
X68651428Y-39861904D01*
X68603809Y-39766666D01*
X68365714Y-39433333D02*
X68365714Y-39052380D01*
X68032380Y-39290476D02*
X68889523Y-39290476D01*
X68984761Y-39242857D01*
X69032380Y-39147619D01*
X69032380Y-39052380D01*
X69032380Y-38290476D02*
X68508571Y-38290476D01*
X68413333Y-38338095D01*
X68365714Y-38433333D01*
X68365714Y-38623809D01*
X68413333Y-38719047D01*
X68984761Y-38290476D02*
X69032380Y-38385714D01*
X69032380Y-38623809D01*
X68984761Y-38719047D01*
X68889523Y-38766666D01*
X68794285Y-38766666D01*
X68699047Y-38719047D01*
X68651428Y-38623809D01*
X68651428Y-38385714D01*
X68603809Y-38290476D01*
X68032380Y-36861904D02*
X68032380Y-36671428D01*
X68080000Y-36576190D01*
X68175238Y-36480952D01*
X68365714Y-36433333D01*
X68699047Y-36433333D01*
X68889523Y-36480952D01*
X68984761Y-36576190D01*
X69032380Y-36671428D01*
X69032380Y-36861904D01*
X68984761Y-36957142D01*
X68889523Y-37052380D01*
X68699047Y-37100000D01*
X68365714Y-37100000D01*
X68175238Y-37052380D01*
X68080000Y-36957142D01*
X68032380Y-36861904D01*
X68365714Y-35576190D02*
X69032380Y-35576190D01*
X68365714Y-36004761D02*
X68889523Y-36004761D01*
X68984761Y-35957142D01*
X69032380Y-35861904D01*
X69032380Y-35719047D01*
X68984761Y-35623809D01*
X68937142Y-35576190D01*
X68365714Y-35242857D02*
X68365714Y-34861904D01*
X68032380Y-35100000D02*
X68889523Y-35100000D01*
X68984761Y-35052380D01*
X69032380Y-34957142D01*
X69032380Y-34861904D01*
X53792380Y-40623809D02*
X52792380Y-40623809D01*
X52792380Y-40385714D01*
X52840000Y-40242857D01*
X52935238Y-40147619D01*
X53030476Y-40100000D01*
X53220952Y-40052380D01*
X53363809Y-40052380D01*
X53554285Y-40100000D01*
X53649523Y-40147619D01*
X53744761Y-40242857D01*
X53792380Y-40385714D01*
X53792380Y-40623809D01*
X53792380Y-39195238D02*
X53268571Y-39195238D01*
X53173333Y-39242857D01*
X53125714Y-39338095D01*
X53125714Y-39528571D01*
X53173333Y-39623809D01*
X53744761Y-39195238D02*
X53792380Y-39290476D01*
X53792380Y-39528571D01*
X53744761Y-39623809D01*
X53649523Y-39671428D01*
X53554285Y-39671428D01*
X53459047Y-39623809D01*
X53411428Y-39528571D01*
X53411428Y-39290476D01*
X53363809Y-39195238D01*
X53125714Y-38861904D02*
X53125714Y-38480952D01*
X52792380Y-38719047D02*
X53649523Y-38719047D01*
X53744761Y-38671428D01*
X53792380Y-38576190D01*
X53792380Y-38480952D01*
X53792380Y-37719047D02*
X53268571Y-37719047D01*
X53173333Y-37766666D01*
X53125714Y-37861904D01*
X53125714Y-38052380D01*
X53173333Y-38147619D01*
X53744761Y-37719047D02*
X53792380Y-37814285D01*
X53792380Y-38052380D01*
X53744761Y-38147619D01*
X53649523Y-38195238D01*
X53554285Y-38195238D01*
X53459047Y-38147619D01*
X53411428Y-38052380D01*
X53411428Y-37814285D01*
X53363809Y-37719047D01*
X53792380Y-36480952D02*
X52792380Y-36480952D01*
X53125714Y-36004761D02*
X53792380Y-36004761D01*
X53220952Y-36004761D02*
X53173333Y-35957142D01*
X53125714Y-35861904D01*
X53125714Y-35719047D01*
X53173333Y-35623809D01*
X53268571Y-35576190D01*
X53792380Y-35576190D01*
X66754523Y-75652380D02*
X67087857Y-76652380D01*
X67421190Y-75652380D01*
X68183095Y-76604761D02*
X68087857Y-76652380D01*
X67897380Y-76652380D01*
X67802142Y-76604761D01*
X67754523Y-76557142D01*
X67706904Y-76461904D01*
X67706904Y-76176190D01*
X67754523Y-76080952D01*
X67802142Y-76033333D01*
X67897380Y-75985714D01*
X68087857Y-75985714D01*
X68183095Y-76033333D01*
X69040238Y-76604761D02*
X68945000Y-76652380D01*
X68754523Y-76652380D01*
X68659285Y-76604761D01*
X68611666Y-76557142D01*
X68564047Y-76461904D01*
X68564047Y-76176190D01*
X68611666Y-76080952D01*
X68659285Y-76033333D01*
X68754523Y-75985714D01*
X68945000Y-75985714D01*
X69040238Y-76033333D01*
X52697142Y-47760000D02*
X52601904Y-47712380D01*
X52459047Y-47712380D01*
X52316190Y-47760000D01*
X52220952Y-47855238D01*
X52173333Y-47950476D01*
X52125714Y-48140952D01*
X52125714Y-48283809D01*
X52173333Y-48474285D01*
X52220952Y-48569523D01*
X52316190Y-48664761D01*
X52459047Y-48712380D01*
X52554285Y-48712380D01*
X52697142Y-48664761D01*
X52744761Y-48617142D01*
X52744761Y-48283809D01*
X52554285Y-48283809D01*
X53173333Y-48045714D02*
X53173333Y-48712380D01*
X53173333Y-48140952D02*
X53220952Y-48093333D01*
X53316190Y-48045714D01*
X53459047Y-48045714D01*
X53554285Y-48093333D01*
X53601904Y-48188571D01*
X53601904Y-48712380D01*
X54506666Y-48712380D02*
X54506666Y-47712380D01*
X54506666Y-48664761D02*
X54411428Y-48712380D01*
X54220952Y-48712380D01*
X54125714Y-48664761D01*
X54078095Y-48617142D01*
X54030476Y-48521904D01*
X54030476Y-48236190D01*
X54078095Y-48140952D01*
X54125714Y-48093333D01*
X54220952Y-48045714D01*
X54411428Y-48045714D01*
X54506666Y-48093333D01*
X65532023Y-79097142D02*
X65484404Y-79144761D01*
X65341547Y-79192380D01*
X65246309Y-79192380D01*
X65103452Y-79144761D01*
X65008214Y-79049523D01*
X64960595Y-78954285D01*
X64912976Y-78763809D01*
X64912976Y-78620952D01*
X64960595Y-78430476D01*
X65008214Y-78335238D01*
X65103452Y-78240000D01*
X65246309Y-78192380D01*
X65341547Y-78192380D01*
X65484404Y-78240000D01*
X65532023Y-78287619D01*
X65960595Y-79192380D02*
X65960595Y-78192380D01*
X66341547Y-78192380D01*
X66436785Y-78240000D01*
X66484404Y-78287619D01*
X66532023Y-78382857D01*
X66532023Y-78525714D01*
X66484404Y-78620952D01*
X66436785Y-78668571D01*
X66341547Y-78716190D01*
X65960595Y-78716190D01*
X55538809Y-77825000D02*
X56586428Y-77825000D01*
X55967380Y-78192380D02*
X56157857Y-78192380D01*
X56253095Y-78240000D01*
X56348333Y-78335238D01*
X56395952Y-78525714D01*
X56395952Y-78859047D01*
X56348333Y-79049523D01*
X56253095Y-79144761D01*
X56157857Y-79192380D01*
X55967380Y-79192380D01*
X55872142Y-79144761D01*
X55776904Y-79049523D01*
X55729285Y-78859047D01*
X55729285Y-78525714D01*
X55776904Y-78335238D01*
X55872142Y-78240000D01*
X55967380Y-78192380D01*
X56586428Y-77825000D02*
X57491190Y-77825000D01*
X56824523Y-78668571D02*
X57157857Y-78668571D01*
X57300714Y-79192380D02*
X56824523Y-79192380D01*
X56824523Y-78192380D01*
X57300714Y-78192380D01*
D12*
%TO.C,U2*%
X57960000Y-72570000D02*
X63960000Y-72570000D01*
X55960000Y-59510000D02*
X60960000Y-59510000D01*
%TO.C,R17*%
X75427064Y-74395000D02*
X74972936Y-74395000D01*
X75427064Y-72925000D02*
X74972936Y-72925000D01*
%TO.C,R16*%
X75427064Y-71855000D02*
X74972936Y-71855000D01*
X75427064Y-70385000D02*
X74972936Y-70385000D01*
%TO.C,R15*%
X75427064Y-69315000D02*
X74972936Y-69315000D01*
X75427064Y-67845000D02*
X74972936Y-67845000D01*
%TO.C,R14*%
X75427064Y-66775000D02*
X74972936Y-66775000D01*
X75427064Y-65305000D02*
X74972936Y-65305000D01*
%TO.C,R13*%
X75427064Y-64235000D02*
X74972936Y-64235000D01*
X75427064Y-62765000D02*
X74972936Y-62765000D01*
%TO.C,R12*%
X75427064Y-61695000D02*
X74972936Y-61695000D01*
X75427064Y-60225000D02*
X74972936Y-60225000D01*
%TO.C,R11*%
X75427064Y-59155000D02*
X74972936Y-59155000D01*
X75427064Y-57685000D02*
X74972936Y-57685000D01*
%TO.C,R10*%
X75427064Y-56615000D02*
X74972936Y-56615000D01*
X75427064Y-55145000D02*
X74972936Y-55145000D01*
%TO.C,D16*%
X78910000Y-74620000D02*
X81770000Y-74620000D01*
X81770000Y-74620000D02*
X81770000Y-72700000D01*
X81770000Y-72700000D02*
X78910000Y-72700000D01*
%TO.C,D15*%
X78910000Y-72080000D02*
X81770000Y-72080000D01*
X81770000Y-72080000D02*
X81770000Y-70160000D01*
X81770000Y-70160000D02*
X78910000Y-70160000D01*
%TO.C,D14*%
X78910000Y-69540000D02*
X81770000Y-69540000D01*
X81770000Y-69540000D02*
X81770000Y-67620000D01*
X81770000Y-67620000D02*
X78910000Y-67620000D01*
%TO.C,D13*%
X78910000Y-67000000D02*
X81770000Y-67000000D01*
X81770000Y-67000000D02*
X81770000Y-65080000D01*
X81770000Y-65080000D02*
X78910000Y-65080000D01*
%TO.C,D12*%
X78910000Y-64460000D02*
X81770000Y-64460000D01*
X81770000Y-64460000D02*
X81770000Y-62540000D01*
X81770000Y-62540000D02*
X78910000Y-62540000D01*
%TO.C,D11*%
X78910000Y-61920000D02*
X81770000Y-61920000D01*
X81770000Y-61920000D02*
X81770000Y-60000000D01*
X81770000Y-60000000D02*
X78910000Y-60000000D01*
%TO.C,D10*%
X78910000Y-59380000D02*
X81770000Y-59380000D01*
X81770000Y-59380000D02*
X81770000Y-57460000D01*
X81770000Y-57460000D02*
X78910000Y-57460000D01*
%TO.C,D9*%
X78910000Y-56840000D02*
X81770000Y-56840000D01*
X81770000Y-56840000D02*
X81770000Y-54920000D01*
X81770000Y-54920000D02*
X78910000Y-54920000D01*
%TO.C,C2*%
X62723752Y-56615000D02*
X62201248Y-56615000D01*
X62723752Y-55145000D02*
X62201248Y-55145000D01*
%TO.C,R9*%
X62272936Y-26570000D02*
X62727064Y-26570000D01*
X62272936Y-28040000D02*
X62727064Y-28040000D01*
%TO.C,J4*%
X55245000Y-78105000D02*
X55245000Y-79375000D01*
X53975000Y-78105000D02*
X55245000Y-78105000D01*
X53595000Y-80485000D02*
X53595000Y-80815000D01*
X54355000Y-80485000D02*
X54355000Y-80815000D01*
X53695000Y-83475000D02*
X53695000Y-89475000D01*
X53815000Y-83475000D02*
X53815000Y-89475000D01*
X53935000Y-83475000D02*
X53935000Y-89475000D01*
X54055000Y-83475000D02*
X54055000Y-89475000D01*
X54175000Y-83475000D02*
X54175000Y-89475000D01*
X54295000Y-83475000D02*
X54295000Y-89475000D01*
X53595000Y-89475000D02*
X53595000Y-83475000D01*
X54355000Y-89475000D02*
X53595000Y-89475000D01*
X54355000Y-83475000D02*
X54355000Y-89475000D01*
X55305000Y-83475000D02*
X55305000Y-80815000D01*
X52645000Y-83475000D02*
X55305000Y-83475000D01*
X52645000Y-80815000D02*
X52645000Y-83475000D01*
X55305000Y-80815000D02*
X52645000Y-80815000D01*
%TO.C,J3*%
X69215000Y-78105000D02*
X69215000Y-79375000D01*
X67945000Y-78105000D02*
X69215000Y-78105000D01*
X67565000Y-80485000D02*
X67565000Y-80815000D01*
X68325000Y-80485000D02*
X68325000Y-80815000D01*
X67665000Y-83475000D02*
X67665000Y-89475000D01*
X67785000Y-83475000D02*
X67785000Y-89475000D01*
X67905000Y-83475000D02*
X67905000Y-89475000D01*
X68025000Y-83475000D02*
X68025000Y-89475000D01*
X68145000Y-83475000D02*
X68145000Y-89475000D01*
X68265000Y-83475000D02*
X68265000Y-89475000D01*
X67565000Y-89475000D02*
X67565000Y-83475000D01*
X68325000Y-89475000D02*
X67565000Y-89475000D01*
X68325000Y-83475000D02*
X68325000Y-89475000D01*
X69275000Y-83475000D02*
X69275000Y-80815000D01*
X66615000Y-83475000D02*
X69275000Y-83475000D01*
X66615000Y-80815000D02*
X66615000Y-83475000D01*
X69275000Y-80815000D02*
X66615000Y-80815000D01*
%TO.C,C1*%
X62723752Y-29110000D02*
X62201248Y-29110000D01*
X62723752Y-30580000D02*
X62201248Y-30580000D01*
%TO.C,D1*%
X81770000Y-26980000D02*
X78910000Y-26980000D01*
X81770000Y-28900000D02*
X81770000Y-26980000D01*
X78910000Y-28900000D02*
X81770000Y-28900000D01*
%TO.C,D2*%
X81770000Y-29520000D02*
X78910000Y-29520000D01*
X81770000Y-31440000D02*
X81770000Y-29520000D01*
X78910000Y-31440000D02*
X81770000Y-31440000D01*
%TO.C,D3*%
X78910000Y-33980000D02*
X81770000Y-33980000D01*
X81770000Y-33980000D02*
X81770000Y-32060000D01*
X81770000Y-32060000D02*
X78910000Y-32060000D01*
%TO.C,D4*%
X81770000Y-34600000D02*
X78910000Y-34600000D01*
X81770000Y-36520000D02*
X81770000Y-34600000D01*
X78910000Y-36520000D02*
X81770000Y-36520000D01*
%TO.C,D5*%
X78910000Y-39060000D02*
X81770000Y-39060000D01*
X81770000Y-39060000D02*
X81770000Y-37140000D01*
X81770000Y-37140000D02*
X78910000Y-37140000D01*
%TO.C,D6*%
X78910000Y-41600000D02*
X81770000Y-41600000D01*
X81770000Y-41600000D02*
X81770000Y-39680000D01*
X81770000Y-39680000D02*
X78910000Y-39680000D01*
%TO.C,D7*%
X78910000Y-44140000D02*
X81770000Y-44140000D01*
X81770000Y-44140000D02*
X81770000Y-42220000D01*
X81770000Y-42220000D02*
X78910000Y-42220000D01*
%TO.C,D8*%
X81770000Y-44760000D02*
X78910000Y-44760000D01*
X81770000Y-46680000D02*
X81770000Y-44760000D01*
X78910000Y-46680000D02*
X81770000Y-46680000D01*
%TO.C,R1*%
X75427064Y-27205000D02*
X74972936Y-27205000D01*
X75427064Y-28675000D02*
X74972936Y-28675000D01*
%TO.C,R2*%
X75427064Y-29745000D02*
X74972936Y-29745000D01*
X75427064Y-31215000D02*
X74972936Y-31215000D01*
%TO.C,R3*%
X75427064Y-33755000D02*
X74972936Y-33755000D01*
X75427064Y-32285000D02*
X74972936Y-32285000D01*
%TO.C,R4*%
X75427064Y-36295000D02*
X74972936Y-36295000D01*
X75427064Y-34825000D02*
X74972936Y-34825000D01*
%TO.C,R5*%
X75427064Y-37365000D02*
X74972936Y-37365000D01*
X75427064Y-38835000D02*
X74972936Y-38835000D01*
%TO.C,R6*%
X75427064Y-41375000D02*
X74972936Y-41375000D01*
X75427064Y-39905000D02*
X74972936Y-39905000D01*
%TO.C,R7*%
X75427064Y-43915000D02*
X74972936Y-43915000D01*
X75427064Y-42445000D02*
X74972936Y-42445000D01*
%TO.C,R8*%
X75427064Y-44985000D02*
X74972936Y-44985000D01*
X75427064Y-46455000D02*
X74972936Y-46455000D01*
%TO.C,U1*%
X55960000Y-31570000D02*
X60960000Y-31570000D01*
X57960000Y-44630000D02*
X63960000Y-44630000D01*
%TO.C,U2*%
D10*
X59563095Y-58072380D02*
X59563095Y-58881904D01*
X59610714Y-58977142D01*
X59658333Y-59024761D01*
X59753571Y-59072380D01*
X59944047Y-59072380D01*
X60039285Y-59024761D01*
X60086904Y-58977142D01*
X60134523Y-58881904D01*
X60134523Y-58072380D01*
X60563095Y-58167619D02*
X60610714Y-58120000D01*
X60705952Y-58072380D01*
X60944047Y-58072380D01*
X61039285Y-58120000D01*
X61086904Y-58167619D01*
X61134523Y-58262857D01*
X61134523Y-58358095D01*
X61086904Y-58500952D01*
X60515476Y-59072380D01*
X61134523Y-59072380D01*
%TO.C,R17*%
X73350380Y-74174285D02*
X72874190Y-74440952D01*
X73350380Y-74631428D02*
X72350380Y-74631428D01*
X72350380Y-74326666D01*
X72398000Y-74250476D01*
X72445619Y-74212380D01*
X72540857Y-74174285D01*
X72683714Y-74174285D01*
X72778952Y-74212380D01*
X72826571Y-74250476D01*
X72874190Y-74326666D01*
X72874190Y-74631428D01*
X73350380Y-73412380D02*
X73350380Y-73869523D01*
X73350380Y-73640952D02*
X72350380Y-73640952D01*
X72493238Y-73717142D01*
X72588476Y-73793333D01*
X72636095Y-73869523D01*
X72350380Y-73145714D02*
X72350380Y-72612380D01*
X73350380Y-72955238D01*
%TO.C,R16*%
X73350380Y-71634285D02*
X72874190Y-71900952D01*
X73350380Y-72091428D02*
X72350380Y-72091428D01*
X72350380Y-71786666D01*
X72398000Y-71710476D01*
X72445619Y-71672380D01*
X72540857Y-71634285D01*
X72683714Y-71634285D01*
X72778952Y-71672380D01*
X72826571Y-71710476D01*
X72874190Y-71786666D01*
X72874190Y-72091428D01*
X73350380Y-70872380D02*
X73350380Y-71329523D01*
X73350380Y-71100952D02*
X72350380Y-71100952D01*
X72493238Y-71177142D01*
X72588476Y-71253333D01*
X72636095Y-71329523D01*
X72350380Y-70186666D02*
X72350380Y-70339047D01*
X72398000Y-70415238D01*
X72445619Y-70453333D01*
X72588476Y-70529523D01*
X72778952Y-70567619D01*
X73159904Y-70567619D01*
X73255142Y-70529523D01*
X73302761Y-70491428D01*
X73350380Y-70415238D01*
X73350380Y-70262857D01*
X73302761Y-70186666D01*
X73255142Y-70148571D01*
X73159904Y-70110476D01*
X72921809Y-70110476D01*
X72826571Y-70148571D01*
X72778952Y-70186666D01*
X72731333Y-70262857D01*
X72731333Y-70415238D01*
X72778952Y-70491428D01*
X72826571Y-70529523D01*
X72921809Y-70567619D01*
%TO.C,R15*%
X73350380Y-69094285D02*
X72874190Y-69360952D01*
X73350380Y-69551428D02*
X72350380Y-69551428D01*
X72350380Y-69246666D01*
X72398000Y-69170476D01*
X72445619Y-69132380D01*
X72540857Y-69094285D01*
X72683714Y-69094285D01*
X72778952Y-69132380D01*
X72826571Y-69170476D01*
X72874190Y-69246666D01*
X72874190Y-69551428D01*
X73350380Y-68332380D02*
X73350380Y-68789523D01*
X73350380Y-68560952D02*
X72350380Y-68560952D01*
X72493238Y-68637142D01*
X72588476Y-68713333D01*
X72636095Y-68789523D01*
X72350380Y-67608571D02*
X72350380Y-67989523D01*
X72826571Y-68027619D01*
X72778952Y-67989523D01*
X72731333Y-67913333D01*
X72731333Y-67722857D01*
X72778952Y-67646666D01*
X72826571Y-67608571D01*
X72921809Y-67570476D01*
X73159904Y-67570476D01*
X73255142Y-67608571D01*
X73302761Y-67646666D01*
X73350380Y-67722857D01*
X73350380Y-67913333D01*
X73302761Y-67989523D01*
X73255142Y-68027619D01*
%TO.C,R14*%
X73350380Y-66554285D02*
X72874190Y-66820952D01*
X73350380Y-67011428D02*
X72350380Y-67011428D01*
X72350380Y-66706666D01*
X72398000Y-66630476D01*
X72445619Y-66592380D01*
X72540857Y-66554285D01*
X72683714Y-66554285D01*
X72778952Y-66592380D01*
X72826571Y-66630476D01*
X72874190Y-66706666D01*
X72874190Y-67011428D01*
X73350380Y-65792380D02*
X73350380Y-66249523D01*
X73350380Y-66020952D02*
X72350380Y-66020952D01*
X72493238Y-66097142D01*
X72588476Y-66173333D01*
X72636095Y-66249523D01*
X72683714Y-65106666D02*
X73350380Y-65106666D01*
X72302761Y-65297142D02*
X73017047Y-65487619D01*
X73017047Y-64992380D01*
%TO.C,R13*%
X73350380Y-64014285D02*
X72874190Y-64280952D01*
X73350380Y-64471428D02*
X72350380Y-64471428D01*
X72350380Y-64166666D01*
X72398000Y-64090476D01*
X72445619Y-64052380D01*
X72540857Y-64014285D01*
X72683714Y-64014285D01*
X72778952Y-64052380D01*
X72826571Y-64090476D01*
X72874190Y-64166666D01*
X72874190Y-64471428D01*
X73350380Y-63252380D02*
X73350380Y-63709523D01*
X73350380Y-63480952D02*
X72350380Y-63480952D01*
X72493238Y-63557142D01*
X72588476Y-63633333D01*
X72636095Y-63709523D01*
X72350380Y-62985714D02*
X72350380Y-62490476D01*
X72731333Y-62757142D01*
X72731333Y-62642857D01*
X72778952Y-62566666D01*
X72826571Y-62528571D01*
X72921809Y-62490476D01*
X73159904Y-62490476D01*
X73255142Y-62528571D01*
X73302761Y-62566666D01*
X73350380Y-62642857D01*
X73350380Y-62871428D01*
X73302761Y-62947619D01*
X73255142Y-62985714D01*
%TO.C,R12*%
X73350380Y-61474285D02*
X72874190Y-61740952D01*
X73350380Y-61931428D02*
X72350380Y-61931428D01*
X72350380Y-61626666D01*
X72398000Y-61550476D01*
X72445619Y-61512380D01*
X72540857Y-61474285D01*
X72683714Y-61474285D01*
X72778952Y-61512380D01*
X72826571Y-61550476D01*
X72874190Y-61626666D01*
X72874190Y-61931428D01*
X73350380Y-60712380D02*
X73350380Y-61169523D01*
X73350380Y-60940952D02*
X72350380Y-60940952D01*
X72493238Y-61017142D01*
X72588476Y-61093333D01*
X72636095Y-61169523D01*
X72445619Y-60407619D02*
X72398000Y-60369523D01*
X72350380Y-60293333D01*
X72350380Y-60102857D01*
X72398000Y-60026666D01*
X72445619Y-59988571D01*
X72540857Y-59950476D01*
X72636095Y-59950476D01*
X72778952Y-59988571D01*
X73350380Y-60445714D01*
X73350380Y-59950476D01*
%TO.C,R11*%
X73350380Y-58934285D02*
X72874190Y-59200952D01*
X73350380Y-59391428D02*
X72350380Y-59391428D01*
X72350380Y-59086666D01*
X72398000Y-59010476D01*
X72445619Y-58972380D01*
X72540857Y-58934285D01*
X72683714Y-58934285D01*
X72778952Y-58972380D01*
X72826571Y-59010476D01*
X72874190Y-59086666D01*
X72874190Y-59391428D01*
X73350380Y-58172380D02*
X73350380Y-58629523D01*
X73350380Y-58400952D02*
X72350380Y-58400952D01*
X72493238Y-58477142D01*
X72588476Y-58553333D01*
X72636095Y-58629523D01*
X73350380Y-57410476D02*
X73350380Y-57867619D01*
X73350380Y-57639047D02*
X72350380Y-57639047D01*
X72493238Y-57715238D01*
X72588476Y-57791428D01*
X72636095Y-57867619D01*
%TO.C,R10*%
X73350380Y-56394285D02*
X72874190Y-56660952D01*
X73350380Y-56851428D02*
X72350380Y-56851428D01*
X72350380Y-56546666D01*
X72398000Y-56470476D01*
X72445619Y-56432380D01*
X72540857Y-56394285D01*
X72683714Y-56394285D01*
X72778952Y-56432380D01*
X72826571Y-56470476D01*
X72874190Y-56546666D01*
X72874190Y-56851428D01*
X73350380Y-55632380D02*
X73350380Y-56089523D01*
X73350380Y-55860952D02*
X72350380Y-55860952D01*
X72493238Y-55937142D01*
X72588476Y-56013333D01*
X72636095Y-56089523D01*
X72350380Y-55137142D02*
X72350380Y-55060952D01*
X72398000Y-54984761D01*
X72445619Y-54946666D01*
X72540857Y-54908571D01*
X72731333Y-54870476D01*
X72969428Y-54870476D01*
X73159904Y-54908571D01*
X73255142Y-54946666D01*
X73302761Y-54984761D01*
X73350380Y-55060952D01*
X73350380Y-55137142D01*
X73302761Y-55213333D01*
X73255142Y-55251428D01*
X73159904Y-55289523D01*
X72969428Y-55327619D01*
X72731333Y-55327619D01*
X72540857Y-55289523D01*
X72445619Y-55251428D01*
X72398000Y-55213333D01*
X72350380Y-55137142D01*
%TO.C,D16*%
X77949380Y-74631428D02*
X76949380Y-74631428D01*
X76949380Y-74440952D01*
X76997000Y-74326666D01*
X77092238Y-74250476D01*
X77187476Y-74212380D01*
X77377952Y-74174285D01*
X77520809Y-74174285D01*
X77711285Y-74212380D01*
X77806523Y-74250476D01*
X77901761Y-74326666D01*
X77949380Y-74440952D01*
X77949380Y-74631428D01*
X77949380Y-73412380D02*
X77949380Y-73869523D01*
X77949380Y-73640952D02*
X76949380Y-73640952D01*
X77092238Y-73717142D01*
X77187476Y-73793333D01*
X77235095Y-73869523D01*
X76949380Y-72726666D02*
X76949380Y-72879047D01*
X76997000Y-72955238D01*
X77044619Y-72993333D01*
X77187476Y-73069523D01*
X77377952Y-73107619D01*
X77758904Y-73107619D01*
X77854142Y-73069523D01*
X77901761Y-73031428D01*
X77949380Y-72955238D01*
X77949380Y-72802857D01*
X77901761Y-72726666D01*
X77854142Y-72688571D01*
X77758904Y-72650476D01*
X77520809Y-72650476D01*
X77425571Y-72688571D01*
X77377952Y-72726666D01*
X77330333Y-72802857D01*
X77330333Y-72955238D01*
X77377952Y-73031428D01*
X77425571Y-73069523D01*
X77520809Y-73107619D01*
%TO.C,D15*%
X77949380Y-72091428D02*
X76949380Y-72091428D01*
X76949380Y-71900952D01*
X76997000Y-71786666D01*
X77092238Y-71710476D01*
X77187476Y-71672380D01*
X77377952Y-71634285D01*
X77520809Y-71634285D01*
X77711285Y-71672380D01*
X77806523Y-71710476D01*
X77901761Y-71786666D01*
X77949380Y-71900952D01*
X77949380Y-72091428D01*
X77949380Y-70872380D02*
X77949380Y-71329523D01*
X77949380Y-71100952D02*
X76949380Y-71100952D01*
X77092238Y-71177142D01*
X77187476Y-71253333D01*
X77235095Y-71329523D01*
X76949380Y-70148571D02*
X76949380Y-70529523D01*
X77425571Y-70567619D01*
X77377952Y-70529523D01*
X77330333Y-70453333D01*
X77330333Y-70262857D01*
X77377952Y-70186666D01*
X77425571Y-70148571D01*
X77520809Y-70110476D01*
X77758904Y-70110476D01*
X77854142Y-70148571D01*
X77901761Y-70186666D01*
X77949380Y-70262857D01*
X77949380Y-70453333D01*
X77901761Y-70529523D01*
X77854142Y-70567619D01*
%TO.C,D14*%
X77949380Y-69551428D02*
X76949380Y-69551428D01*
X76949380Y-69360952D01*
X76997000Y-69246666D01*
X77092238Y-69170476D01*
X77187476Y-69132380D01*
X77377952Y-69094285D01*
X77520809Y-69094285D01*
X77711285Y-69132380D01*
X77806523Y-69170476D01*
X77901761Y-69246666D01*
X77949380Y-69360952D01*
X77949380Y-69551428D01*
X77949380Y-68332380D02*
X77949380Y-68789523D01*
X77949380Y-68560952D02*
X76949380Y-68560952D01*
X77092238Y-68637142D01*
X77187476Y-68713333D01*
X77235095Y-68789523D01*
X77282714Y-67646666D02*
X77949380Y-67646666D01*
X76901761Y-67837142D02*
X77616047Y-68027619D01*
X77616047Y-67532380D01*
%TO.C,D13*%
X77949380Y-67011428D02*
X76949380Y-67011428D01*
X76949380Y-66820952D01*
X76997000Y-66706666D01*
X77092238Y-66630476D01*
X77187476Y-66592380D01*
X77377952Y-66554285D01*
X77520809Y-66554285D01*
X77711285Y-66592380D01*
X77806523Y-66630476D01*
X77901761Y-66706666D01*
X77949380Y-66820952D01*
X77949380Y-67011428D01*
X77949380Y-65792380D02*
X77949380Y-66249523D01*
X77949380Y-66020952D02*
X76949380Y-66020952D01*
X77092238Y-66097142D01*
X77187476Y-66173333D01*
X77235095Y-66249523D01*
X76949380Y-65525714D02*
X76949380Y-65030476D01*
X77330333Y-65297142D01*
X77330333Y-65182857D01*
X77377952Y-65106666D01*
X77425571Y-65068571D01*
X77520809Y-65030476D01*
X77758904Y-65030476D01*
X77854142Y-65068571D01*
X77901761Y-65106666D01*
X77949380Y-65182857D01*
X77949380Y-65411428D01*
X77901761Y-65487619D01*
X77854142Y-65525714D01*
%TO.C,D12*%
X77949380Y-64471428D02*
X76949380Y-64471428D01*
X76949380Y-64280952D01*
X76997000Y-64166666D01*
X77092238Y-64090476D01*
X77187476Y-64052380D01*
X77377952Y-64014285D01*
X77520809Y-64014285D01*
X77711285Y-64052380D01*
X77806523Y-64090476D01*
X77901761Y-64166666D01*
X77949380Y-64280952D01*
X77949380Y-64471428D01*
X77949380Y-63252380D02*
X77949380Y-63709523D01*
X77949380Y-63480952D02*
X76949380Y-63480952D01*
X77092238Y-63557142D01*
X77187476Y-63633333D01*
X77235095Y-63709523D01*
X77044619Y-62947619D02*
X76997000Y-62909523D01*
X76949380Y-62833333D01*
X76949380Y-62642857D01*
X76997000Y-62566666D01*
X77044619Y-62528571D01*
X77139857Y-62490476D01*
X77235095Y-62490476D01*
X77377952Y-62528571D01*
X77949380Y-62985714D01*
X77949380Y-62490476D01*
%TO.C,D11*%
X77949380Y-61931428D02*
X76949380Y-61931428D01*
X76949380Y-61740952D01*
X76997000Y-61626666D01*
X77092238Y-61550476D01*
X77187476Y-61512380D01*
X77377952Y-61474285D01*
X77520809Y-61474285D01*
X77711285Y-61512380D01*
X77806523Y-61550476D01*
X77901761Y-61626666D01*
X77949380Y-61740952D01*
X77949380Y-61931428D01*
X77949380Y-60712380D02*
X77949380Y-61169523D01*
X77949380Y-60940952D02*
X76949380Y-60940952D01*
X77092238Y-61017142D01*
X77187476Y-61093333D01*
X77235095Y-61169523D01*
X77949380Y-59950476D02*
X77949380Y-60407619D01*
X77949380Y-60179047D02*
X76949380Y-60179047D01*
X77092238Y-60255238D01*
X77187476Y-60331428D01*
X77235095Y-60407619D01*
%TO.C,D10*%
X77949380Y-59391428D02*
X76949380Y-59391428D01*
X76949380Y-59200952D01*
X76997000Y-59086666D01*
X77092238Y-59010476D01*
X77187476Y-58972380D01*
X77377952Y-58934285D01*
X77520809Y-58934285D01*
X77711285Y-58972380D01*
X77806523Y-59010476D01*
X77901761Y-59086666D01*
X77949380Y-59200952D01*
X77949380Y-59391428D01*
X77949380Y-58172380D02*
X77949380Y-58629523D01*
X77949380Y-58400952D02*
X76949380Y-58400952D01*
X77092238Y-58477142D01*
X77187476Y-58553333D01*
X77235095Y-58629523D01*
X76949380Y-57677142D02*
X76949380Y-57600952D01*
X76997000Y-57524761D01*
X77044619Y-57486666D01*
X77139857Y-57448571D01*
X77330333Y-57410476D01*
X77568428Y-57410476D01*
X77758904Y-57448571D01*
X77854142Y-57486666D01*
X77901761Y-57524761D01*
X77949380Y-57600952D01*
X77949380Y-57677142D01*
X77901761Y-57753333D01*
X77854142Y-57791428D01*
X77758904Y-57829523D01*
X77568428Y-57867619D01*
X77330333Y-57867619D01*
X77139857Y-57829523D01*
X77044619Y-57791428D01*
X76997000Y-57753333D01*
X76949380Y-57677142D01*
%TO.C,D9*%
X77949380Y-56470476D02*
X76949380Y-56470476D01*
X76949380Y-56280000D01*
X76997000Y-56165714D01*
X77092238Y-56089523D01*
X77187476Y-56051428D01*
X77377952Y-56013333D01*
X77520809Y-56013333D01*
X77711285Y-56051428D01*
X77806523Y-56089523D01*
X77901761Y-56165714D01*
X77949380Y-56280000D01*
X77949380Y-56470476D01*
X77949380Y-55632380D02*
X77949380Y-55480000D01*
X77901761Y-55403809D01*
X77854142Y-55365714D01*
X77711285Y-55289523D01*
X77520809Y-55251428D01*
X77139857Y-55251428D01*
X77044619Y-55289523D01*
X76997000Y-55327619D01*
X76949380Y-55403809D01*
X76949380Y-55556190D01*
X76997000Y-55632380D01*
X77044619Y-55670476D01*
X77139857Y-55708571D01*
X77377952Y-55708571D01*
X77473190Y-55670476D01*
X77520809Y-55632380D01*
X77568428Y-55556190D01*
X77568428Y-55403809D01*
X77520809Y-55327619D01*
X77473190Y-55289523D01*
X77377952Y-55251428D01*
%TO.C,C2*%
X59523333Y-56237142D02*
X59475714Y-56284761D01*
X59332857Y-56332380D01*
X59237619Y-56332380D01*
X59094761Y-56284761D01*
X58999523Y-56189523D01*
X58951904Y-56094285D01*
X58904285Y-55903809D01*
X58904285Y-55760952D01*
X58951904Y-55570476D01*
X58999523Y-55475238D01*
X59094761Y-55380000D01*
X59237619Y-55332380D01*
X59332857Y-55332380D01*
X59475714Y-55380000D01*
X59523333Y-55427619D01*
X59904285Y-55427619D02*
X59951904Y-55380000D01*
X60047142Y-55332380D01*
X60285238Y-55332380D01*
X60380476Y-55380000D01*
X60428095Y-55427619D01*
X60475714Y-55522857D01*
X60475714Y-55618095D01*
X60428095Y-55760952D01*
X59856666Y-56332380D01*
X60475714Y-56332380D01*
%TO.C,R9*%
X59523333Y-27757380D02*
X59190000Y-27281190D01*
X58951904Y-27757380D02*
X58951904Y-26757380D01*
X59332857Y-26757380D01*
X59428095Y-26805000D01*
X59475714Y-26852619D01*
X59523333Y-26947857D01*
X59523333Y-27090714D01*
X59475714Y-27185952D01*
X59428095Y-27233571D01*
X59332857Y-27281190D01*
X58951904Y-27281190D01*
X59999523Y-27757380D02*
X60190000Y-27757380D01*
X60285238Y-27709761D01*
X60332857Y-27662142D01*
X60428095Y-27519285D01*
X60475714Y-27328809D01*
X60475714Y-26947857D01*
X60428095Y-26852619D01*
X60380476Y-26805000D01*
X60285238Y-26757380D01*
X60094761Y-26757380D01*
X59999523Y-26805000D01*
X59951904Y-26852619D01*
X59904285Y-26947857D01*
X59904285Y-27185952D01*
X59951904Y-27281190D01*
X59999523Y-27328809D01*
X60094761Y-27376428D01*
X60285238Y-27376428D01*
X60380476Y-27328809D01*
X60428095Y-27281190D01*
X60475714Y-27185952D01*
%TO.C,C1*%
X59523333Y-30202142D02*
X59475714Y-30249761D01*
X59332857Y-30297380D01*
X59237619Y-30297380D01*
X59094761Y-30249761D01*
X58999523Y-30154523D01*
X58951904Y-30059285D01*
X58904285Y-29868809D01*
X58904285Y-29725952D01*
X58951904Y-29535476D01*
X58999523Y-29440238D01*
X59094761Y-29345000D01*
X59237619Y-29297380D01*
X59332857Y-29297380D01*
X59475714Y-29345000D01*
X59523333Y-29392619D01*
X60475714Y-30297380D02*
X59904285Y-30297380D01*
X60190000Y-30297380D02*
X60190000Y-29297380D01*
X60094761Y-29440238D01*
X59999523Y-29535476D01*
X59904285Y-29583095D01*
%TO.C,D1*%
X77949380Y-28678095D02*
X76949380Y-28678095D01*
X76949380Y-28440000D01*
X76997000Y-28297142D01*
X77092238Y-28201904D01*
X77187476Y-28154285D01*
X77377952Y-28106666D01*
X77520809Y-28106666D01*
X77711285Y-28154285D01*
X77806523Y-28201904D01*
X77901761Y-28297142D01*
X77949380Y-28440000D01*
X77949380Y-28678095D01*
X77949380Y-27154285D02*
X77949380Y-27725714D01*
X77949380Y-27440000D02*
X76949380Y-27440000D01*
X77092238Y-27535238D01*
X77187476Y-27630476D01*
X77235095Y-27725714D01*
%TO.C,D2*%
X77949380Y-31218095D02*
X76949380Y-31218095D01*
X76949380Y-30980000D01*
X76997000Y-30837142D01*
X77092238Y-30741904D01*
X77187476Y-30694285D01*
X77377952Y-30646666D01*
X77520809Y-30646666D01*
X77711285Y-30694285D01*
X77806523Y-30741904D01*
X77901761Y-30837142D01*
X77949380Y-30980000D01*
X77949380Y-31218095D01*
X77044619Y-30265714D02*
X76997000Y-30218095D01*
X76949380Y-30122857D01*
X76949380Y-29884761D01*
X76997000Y-29789523D01*
X77044619Y-29741904D01*
X77139857Y-29694285D01*
X77235095Y-29694285D01*
X77377952Y-29741904D01*
X77949380Y-30313333D01*
X77949380Y-29694285D01*
%TO.C,D3*%
X77949380Y-33758095D02*
X76949380Y-33758095D01*
X76949380Y-33520000D01*
X76997000Y-33377142D01*
X77092238Y-33281904D01*
X77187476Y-33234285D01*
X77377952Y-33186666D01*
X77520809Y-33186666D01*
X77711285Y-33234285D01*
X77806523Y-33281904D01*
X77901761Y-33377142D01*
X77949380Y-33520000D01*
X77949380Y-33758095D01*
X76949380Y-32853333D02*
X76949380Y-32234285D01*
X77330333Y-32567619D01*
X77330333Y-32424761D01*
X77377952Y-32329523D01*
X77425571Y-32281904D01*
X77520809Y-32234285D01*
X77758904Y-32234285D01*
X77854142Y-32281904D01*
X77901761Y-32329523D01*
X77949380Y-32424761D01*
X77949380Y-32710476D01*
X77901761Y-32805714D01*
X77854142Y-32853333D01*
%TO.C,D4*%
X77949380Y-36298095D02*
X76949380Y-36298095D01*
X76949380Y-36060000D01*
X76997000Y-35917142D01*
X77092238Y-35821904D01*
X77187476Y-35774285D01*
X77377952Y-35726666D01*
X77520809Y-35726666D01*
X77711285Y-35774285D01*
X77806523Y-35821904D01*
X77901761Y-35917142D01*
X77949380Y-36060000D01*
X77949380Y-36298095D01*
X77282714Y-34869523D02*
X77949380Y-34869523D01*
X76901761Y-35107619D02*
X77616047Y-35345714D01*
X77616047Y-34726666D01*
%TO.C,D5*%
X77949380Y-38838095D02*
X76949380Y-38838095D01*
X76949380Y-38600000D01*
X76997000Y-38457142D01*
X77092238Y-38361904D01*
X77187476Y-38314285D01*
X77377952Y-38266666D01*
X77520809Y-38266666D01*
X77711285Y-38314285D01*
X77806523Y-38361904D01*
X77901761Y-38457142D01*
X77949380Y-38600000D01*
X77949380Y-38838095D01*
X76949380Y-37361904D02*
X76949380Y-37838095D01*
X77425571Y-37885714D01*
X77377952Y-37838095D01*
X77330333Y-37742857D01*
X77330333Y-37504761D01*
X77377952Y-37409523D01*
X77425571Y-37361904D01*
X77520809Y-37314285D01*
X77758904Y-37314285D01*
X77854142Y-37361904D01*
X77901761Y-37409523D01*
X77949380Y-37504761D01*
X77949380Y-37742857D01*
X77901761Y-37838095D01*
X77854142Y-37885714D01*
%TO.C,D6*%
X77949380Y-41378095D02*
X76949380Y-41378095D01*
X76949380Y-41140000D01*
X76997000Y-40997142D01*
X77092238Y-40901904D01*
X77187476Y-40854285D01*
X77377952Y-40806666D01*
X77520809Y-40806666D01*
X77711285Y-40854285D01*
X77806523Y-40901904D01*
X77901761Y-40997142D01*
X77949380Y-41140000D01*
X77949380Y-41378095D01*
X76949380Y-39949523D02*
X76949380Y-40140000D01*
X76997000Y-40235238D01*
X77044619Y-40282857D01*
X77187476Y-40378095D01*
X77377952Y-40425714D01*
X77758904Y-40425714D01*
X77854142Y-40378095D01*
X77901761Y-40330476D01*
X77949380Y-40235238D01*
X77949380Y-40044761D01*
X77901761Y-39949523D01*
X77854142Y-39901904D01*
X77758904Y-39854285D01*
X77520809Y-39854285D01*
X77425571Y-39901904D01*
X77377952Y-39949523D01*
X77330333Y-40044761D01*
X77330333Y-40235238D01*
X77377952Y-40330476D01*
X77425571Y-40378095D01*
X77520809Y-40425714D01*
%TO.C,D7*%
X77949380Y-43918095D02*
X76949380Y-43918095D01*
X76949380Y-43680000D01*
X76997000Y-43537142D01*
X77092238Y-43441904D01*
X77187476Y-43394285D01*
X77377952Y-43346666D01*
X77520809Y-43346666D01*
X77711285Y-43394285D01*
X77806523Y-43441904D01*
X77901761Y-43537142D01*
X77949380Y-43680000D01*
X77949380Y-43918095D01*
X76949380Y-43013333D02*
X76949380Y-42346666D01*
X77949380Y-42775238D01*
%TO.C,D8*%
X77949380Y-46458095D02*
X76949380Y-46458095D01*
X76949380Y-46220000D01*
X76997000Y-46077142D01*
X77092238Y-45981904D01*
X77187476Y-45934285D01*
X77377952Y-45886666D01*
X77520809Y-45886666D01*
X77711285Y-45934285D01*
X77806523Y-45981904D01*
X77901761Y-46077142D01*
X77949380Y-46220000D01*
X77949380Y-46458095D01*
X77377952Y-45315238D02*
X77330333Y-45410476D01*
X77282714Y-45458095D01*
X77187476Y-45505714D01*
X77139857Y-45505714D01*
X77044619Y-45458095D01*
X76997000Y-45410476D01*
X76949380Y-45315238D01*
X76949380Y-45124761D01*
X76997000Y-45029523D01*
X77044619Y-44981904D01*
X77139857Y-44934285D01*
X77187476Y-44934285D01*
X77282714Y-44981904D01*
X77330333Y-45029523D01*
X77377952Y-45124761D01*
X77377952Y-45315238D01*
X77425571Y-45410476D01*
X77473190Y-45458095D01*
X77568428Y-45505714D01*
X77758904Y-45505714D01*
X77854142Y-45458095D01*
X77901761Y-45410476D01*
X77949380Y-45315238D01*
X77949380Y-45124761D01*
X77901761Y-45029523D01*
X77854142Y-44981904D01*
X77758904Y-44934285D01*
X77568428Y-44934285D01*
X77473190Y-44981904D01*
X77425571Y-45029523D01*
X77377952Y-45124761D01*
%TO.C,R1*%
X73350380Y-28106666D02*
X72874190Y-28440000D01*
X73350380Y-28678095D02*
X72350380Y-28678095D01*
X72350380Y-28297142D01*
X72398000Y-28201904D01*
X72445619Y-28154285D01*
X72540857Y-28106666D01*
X72683714Y-28106666D01*
X72778952Y-28154285D01*
X72826571Y-28201904D01*
X72874190Y-28297142D01*
X72874190Y-28678095D01*
X73350380Y-27154285D02*
X73350380Y-27725714D01*
X73350380Y-27440000D02*
X72350380Y-27440000D01*
X72493238Y-27535238D01*
X72588476Y-27630476D01*
X72636095Y-27725714D01*
%TO.C,R2*%
X73255380Y-30646666D02*
X72779190Y-30980000D01*
X73255380Y-31218095D02*
X72255380Y-31218095D01*
X72255380Y-30837142D01*
X72303000Y-30741904D01*
X72350619Y-30694285D01*
X72445857Y-30646666D01*
X72588714Y-30646666D01*
X72683952Y-30694285D01*
X72731571Y-30741904D01*
X72779190Y-30837142D01*
X72779190Y-31218095D01*
X72350619Y-30265714D02*
X72303000Y-30218095D01*
X72255380Y-30122857D01*
X72255380Y-29884761D01*
X72303000Y-29789523D01*
X72350619Y-29741904D01*
X72445857Y-29694285D01*
X72541095Y-29694285D01*
X72683952Y-29741904D01*
X73255380Y-30313333D01*
X73255380Y-29694285D01*
%TO.C,R3*%
X73255380Y-33186666D02*
X72779190Y-33520000D01*
X73255380Y-33758095D02*
X72255380Y-33758095D01*
X72255380Y-33377142D01*
X72303000Y-33281904D01*
X72350619Y-33234285D01*
X72445857Y-33186666D01*
X72588714Y-33186666D01*
X72683952Y-33234285D01*
X72731571Y-33281904D01*
X72779190Y-33377142D01*
X72779190Y-33758095D01*
X72255380Y-32853333D02*
X72255380Y-32234285D01*
X72636333Y-32567619D01*
X72636333Y-32424761D01*
X72683952Y-32329523D01*
X72731571Y-32281904D01*
X72826809Y-32234285D01*
X73064904Y-32234285D01*
X73160142Y-32281904D01*
X73207761Y-32329523D01*
X73255380Y-32424761D01*
X73255380Y-32710476D01*
X73207761Y-32805714D01*
X73160142Y-32853333D01*
%TO.C,R4*%
X73255380Y-35726666D02*
X72779190Y-36060000D01*
X73255380Y-36298095D02*
X72255380Y-36298095D01*
X72255380Y-35917142D01*
X72303000Y-35821904D01*
X72350619Y-35774285D01*
X72445857Y-35726666D01*
X72588714Y-35726666D01*
X72683952Y-35774285D01*
X72731571Y-35821904D01*
X72779190Y-35917142D01*
X72779190Y-36298095D01*
X72588714Y-34869523D02*
X73255380Y-34869523D01*
X72207761Y-35107619D02*
X72922047Y-35345714D01*
X72922047Y-34726666D01*
%TO.C,R5*%
X73350380Y-38266666D02*
X72874190Y-38600000D01*
X73350380Y-38838095D02*
X72350380Y-38838095D01*
X72350380Y-38457142D01*
X72398000Y-38361904D01*
X72445619Y-38314285D01*
X72540857Y-38266666D01*
X72683714Y-38266666D01*
X72778952Y-38314285D01*
X72826571Y-38361904D01*
X72874190Y-38457142D01*
X72874190Y-38838095D01*
X72350380Y-37361904D02*
X72350380Y-37838095D01*
X72826571Y-37885714D01*
X72778952Y-37838095D01*
X72731333Y-37742857D01*
X72731333Y-37504761D01*
X72778952Y-37409523D01*
X72826571Y-37361904D01*
X72921809Y-37314285D01*
X73159904Y-37314285D01*
X73255142Y-37361904D01*
X73302761Y-37409523D01*
X73350380Y-37504761D01*
X73350380Y-37742857D01*
X73302761Y-37838095D01*
X73255142Y-37885714D01*
%TO.C,R6*%
X73350380Y-40806666D02*
X72874190Y-41140000D01*
X73350380Y-41378095D02*
X72350380Y-41378095D01*
X72350380Y-40997142D01*
X72398000Y-40901904D01*
X72445619Y-40854285D01*
X72540857Y-40806666D01*
X72683714Y-40806666D01*
X72778952Y-40854285D01*
X72826571Y-40901904D01*
X72874190Y-40997142D01*
X72874190Y-41378095D01*
X72350380Y-39949523D02*
X72350380Y-40140000D01*
X72398000Y-40235238D01*
X72445619Y-40282857D01*
X72588476Y-40378095D01*
X72778952Y-40425714D01*
X73159904Y-40425714D01*
X73255142Y-40378095D01*
X73302761Y-40330476D01*
X73350380Y-40235238D01*
X73350380Y-40044761D01*
X73302761Y-39949523D01*
X73255142Y-39901904D01*
X73159904Y-39854285D01*
X72921809Y-39854285D01*
X72826571Y-39901904D01*
X72778952Y-39949523D01*
X72731333Y-40044761D01*
X72731333Y-40235238D01*
X72778952Y-40330476D01*
X72826571Y-40378095D01*
X72921809Y-40425714D01*
%TO.C,R7*%
X73350380Y-43346666D02*
X72874190Y-43680000D01*
X73350380Y-43918095D02*
X72350380Y-43918095D01*
X72350380Y-43537142D01*
X72398000Y-43441904D01*
X72445619Y-43394285D01*
X72540857Y-43346666D01*
X72683714Y-43346666D01*
X72778952Y-43394285D01*
X72826571Y-43441904D01*
X72874190Y-43537142D01*
X72874190Y-43918095D01*
X72350380Y-43013333D02*
X72350380Y-42346666D01*
X73350380Y-42775238D01*
%TO.C,R8*%
X73350380Y-45886666D02*
X72874190Y-46220000D01*
X73350380Y-46458095D02*
X72350380Y-46458095D01*
X72350380Y-46077142D01*
X72398000Y-45981904D01*
X72445619Y-45934285D01*
X72540857Y-45886666D01*
X72683714Y-45886666D01*
X72778952Y-45934285D01*
X72826571Y-45981904D01*
X72874190Y-46077142D01*
X72874190Y-46458095D01*
X72778952Y-45315238D02*
X72731333Y-45410476D01*
X72683714Y-45458095D01*
X72588476Y-45505714D01*
X72540857Y-45505714D01*
X72445619Y-45458095D01*
X72398000Y-45410476D01*
X72350380Y-45315238D01*
X72350380Y-45124761D01*
X72398000Y-45029523D01*
X72445619Y-44981904D01*
X72540857Y-44934285D01*
X72588476Y-44934285D01*
X72683714Y-44981904D01*
X72731333Y-45029523D01*
X72778952Y-45124761D01*
X72778952Y-45315238D01*
X72826571Y-45410476D01*
X72874190Y-45458095D01*
X72969428Y-45505714D01*
X73159904Y-45505714D01*
X73255142Y-45458095D01*
X73302761Y-45410476D01*
X73350380Y-45315238D01*
X73350380Y-45124761D01*
X73302761Y-45029523D01*
X73255142Y-44981904D01*
X73159904Y-44934285D01*
X72969428Y-44934285D01*
X72874190Y-44981904D01*
X72826571Y-45029523D01*
X72778952Y-45124761D01*
%TO.C,U1*%
X59563095Y-45172380D02*
X59563095Y-45981904D01*
X59610714Y-46077142D01*
X59658333Y-46124761D01*
X59753571Y-46172380D01*
X59944047Y-46172380D01*
X60039285Y-46124761D01*
X60086904Y-46077142D01*
X60134523Y-45981904D01*
X60134523Y-45172380D01*
X61134523Y-46172380D02*
X60563095Y-46172380D01*
X60848809Y-46172380D02*
X60848809Y-45172380D01*
X60753571Y-45315238D01*
X60658333Y-45410476D01*
X60563095Y-45458095D01*
%TD*%
M02*
