%TF.GenerationSoftware,KiCad,Pcbnew,(5.1.8)-1*%
%TF.CreationDate,2024-06-18T22:34:24+03:00*%
%TF.ProjectId,STACK16,53544143-4b31-4362-9e6b-696361645f70,rev?*%
%TF.SameCoordinates,Original*%
%TF.FileFunction,Copper,L1,Top*%
%TF.FilePolarity,Positive*%
%FSLAX46Y46*%
G04 Gerber Fmt 4.6, Leading zero omitted, Abs format (unit mm)*
G04 Created by KiCad (PCBNEW (5.1.8)-1) date 2024-06-18 22:34:24*
%MOMM*%
%LPD*%
G01*
G04 APERTURE LIST*
%TA.AperFunction,NonConductor*%
%ADD10C,0.250000*%
%TD*%
%TA.AperFunction,NonConductor*%
%ADD11C,0.200000*%
%TD*%
%TA.AperFunction,SMDPad,CuDef*%
%ADD12R,1.500000X0.600000*%
%TD*%
%TA.AperFunction,ComponentPad*%
%ADD13O,2.100000X1.500000*%
%TD*%
%TA.AperFunction,ComponentPad*%
%ADD14O,2.300000X2.100000*%
%TD*%
%TA.AperFunction,ComponentPad*%
%ADD15R,2.300000X2.100000*%
%TD*%
%TA.AperFunction,ComponentPad*%
%ADD16R,1.800000X1.700000*%
%TD*%
%TA.AperFunction,ComponentPad*%
%ADD17R,1.800000X1.500000*%
%TD*%
%TA.AperFunction,ViaPad*%
%ADD18C,1.500000*%
%TD*%
%TA.AperFunction,Conductor*%
%ADD19C,0.500000*%
%TD*%
G04 APERTURE END LIST*
D10*
X71072857Y-52748571D02*
X70215714Y-52748571D01*
X70644285Y-52748571D02*
X70644285Y-51248571D01*
X70501428Y-51462857D01*
X70358571Y-51605714D01*
X70215714Y-51677142D01*
X71930000Y-51891428D02*
X71787142Y-51820000D01*
X71715714Y-51748571D01*
X71644285Y-51605714D01*
X71644285Y-51534285D01*
X71715714Y-51391428D01*
X71787142Y-51320000D01*
X71930000Y-51248571D01*
X72215714Y-51248571D01*
X72358571Y-51320000D01*
X72430000Y-51391428D01*
X72501428Y-51534285D01*
X72501428Y-51605714D01*
X72430000Y-51748571D01*
X72358571Y-51820000D01*
X72215714Y-51891428D01*
X71930000Y-51891428D01*
X71787142Y-51962857D01*
X71715714Y-52034285D01*
X71644285Y-52177142D01*
X71644285Y-52462857D01*
X71715714Y-52605714D01*
X71787142Y-52677142D01*
X71930000Y-52748571D01*
X72215714Y-52748571D01*
X72358571Y-52677142D01*
X72430000Y-52605714D01*
X72501428Y-52462857D01*
X72501428Y-52177142D01*
X72430000Y-52034285D01*
X72358571Y-51962857D01*
X72215714Y-51891428D01*
X73144285Y-52605714D02*
X73215714Y-52677142D01*
X73144285Y-52748571D01*
X73072857Y-52677142D01*
X73144285Y-52605714D01*
X73144285Y-52748571D01*
X74144285Y-51248571D02*
X74287142Y-51248571D01*
X74430000Y-51320000D01*
X74501428Y-51391428D01*
X74572857Y-51534285D01*
X74644285Y-51820000D01*
X74644285Y-52177142D01*
X74572857Y-52462857D01*
X74501428Y-52605714D01*
X74430000Y-52677142D01*
X74287142Y-52748571D01*
X74144285Y-52748571D01*
X74001428Y-52677142D01*
X73930000Y-52605714D01*
X73858571Y-52462857D01*
X73787142Y-52177142D01*
X73787142Y-51820000D01*
X73858571Y-51534285D01*
X73930000Y-51391428D01*
X74001428Y-51320000D01*
X74144285Y-51248571D01*
X75930000Y-51248571D02*
X75644285Y-51248571D01*
X75501428Y-51320000D01*
X75430000Y-51391428D01*
X75287142Y-51605714D01*
X75215714Y-51891428D01*
X75215714Y-52462857D01*
X75287142Y-52605714D01*
X75358571Y-52677142D01*
X75501428Y-52748571D01*
X75787142Y-52748571D01*
X75930000Y-52677142D01*
X76001428Y-52605714D01*
X76072857Y-52462857D01*
X76072857Y-52105714D01*
X76001428Y-51962857D01*
X75930000Y-51891428D01*
X75787142Y-51820000D01*
X75501428Y-51820000D01*
X75358571Y-51891428D01*
X75287142Y-51962857D01*
X75215714Y-52105714D01*
X76715714Y-52605714D02*
X76787142Y-52677142D01*
X76715714Y-52748571D01*
X76644285Y-52677142D01*
X76715714Y-52605714D01*
X76715714Y-52748571D01*
X77358571Y-51391428D02*
X77430000Y-51320000D01*
X77572857Y-51248571D01*
X77930000Y-51248571D01*
X78072857Y-51320000D01*
X78144285Y-51391428D01*
X78215714Y-51534285D01*
X78215714Y-51677142D01*
X78144285Y-51891428D01*
X77287142Y-52748571D01*
X78215714Y-52748571D01*
X79501428Y-51748571D02*
X79501428Y-52748571D01*
X79144285Y-51177142D02*
X78787142Y-52248571D01*
X79715714Y-52248571D01*
D11*
X75148571Y-77468333D02*
X74291428Y-77468333D01*
X74720000Y-77468333D02*
X74720000Y-76068333D01*
X74577142Y-76268333D01*
X74434285Y-76401666D01*
X74291428Y-76468333D01*
X76434285Y-76068333D02*
X76148571Y-76068333D01*
X76005714Y-76135000D01*
X75934285Y-76201666D01*
X75791428Y-76401666D01*
X75720000Y-76668333D01*
X75720000Y-77201666D01*
X75791428Y-77335000D01*
X75862857Y-77401666D01*
X76005714Y-77468333D01*
X76291428Y-77468333D01*
X76434285Y-77401666D01*
X76505714Y-77335000D01*
X76577142Y-77201666D01*
X76577142Y-76868333D01*
X76505714Y-76735000D01*
X76434285Y-76668333D01*
X76291428Y-76601666D01*
X76005714Y-76601666D01*
X75862857Y-76668333D01*
X75791428Y-76735000D01*
X75720000Y-76868333D01*
X78362857Y-77468333D02*
X78362857Y-76068333D01*
X78362857Y-76601666D02*
X78505714Y-76535000D01*
X78791428Y-76535000D01*
X78934285Y-76601666D01*
X79005714Y-76668333D01*
X79077142Y-76801666D01*
X79077142Y-77201666D01*
X79005714Y-77335000D01*
X78934285Y-77401666D01*
X78791428Y-77468333D01*
X78505714Y-77468333D01*
X78362857Y-77401666D01*
X79720000Y-77468333D02*
X79720000Y-76535000D01*
X79720000Y-76068333D02*
X79648571Y-76135000D01*
X79720000Y-76201666D01*
X79791428Y-76135000D01*
X79720000Y-76068333D01*
X79720000Y-76201666D01*
X80220000Y-76535000D02*
X80791428Y-76535000D01*
X80434285Y-76068333D02*
X80434285Y-77268333D01*
X80505714Y-77401666D01*
X80648571Y-77468333D01*
X80791428Y-77468333D01*
X74684285Y-79306666D02*
X74898571Y-79373333D01*
X75255714Y-79373333D01*
X75398571Y-79306666D01*
X75470000Y-79240000D01*
X75541428Y-79106666D01*
X75541428Y-78973333D01*
X75470000Y-78840000D01*
X75398571Y-78773333D01*
X75255714Y-78706666D01*
X74970000Y-78640000D01*
X74827142Y-78573333D01*
X74755714Y-78506666D01*
X74684285Y-78373333D01*
X74684285Y-78240000D01*
X74755714Y-78106666D01*
X74827142Y-78040000D01*
X74970000Y-77973333D01*
X75327142Y-77973333D01*
X75541428Y-78040000D01*
X75970000Y-78440000D02*
X76541428Y-78440000D01*
X76184285Y-77973333D02*
X76184285Y-79173333D01*
X76255714Y-79306666D01*
X76398571Y-79373333D01*
X76541428Y-79373333D01*
X77684285Y-79373333D02*
X77684285Y-78640000D01*
X77612857Y-78506666D01*
X77470000Y-78440000D01*
X77184285Y-78440000D01*
X77041428Y-78506666D01*
X77684285Y-79306666D02*
X77541428Y-79373333D01*
X77184285Y-79373333D01*
X77041428Y-79306666D01*
X76970000Y-79173333D01*
X76970000Y-79040000D01*
X77041428Y-78906666D01*
X77184285Y-78840000D01*
X77541428Y-78840000D01*
X77684285Y-78773333D01*
X79041428Y-79306666D02*
X78898571Y-79373333D01*
X78612857Y-79373333D01*
X78470000Y-79306666D01*
X78398571Y-79240000D01*
X78327142Y-79106666D01*
X78327142Y-78706666D01*
X78398571Y-78573333D01*
X78470000Y-78506666D01*
X78612857Y-78440000D01*
X78898571Y-78440000D01*
X79041428Y-78506666D01*
X79684285Y-79373333D02*
X79684285Y-77973333D01*
X79827142Y-78840000D02*
X80255714Y-79373333D01*
X80255714Y-78440000D02*
X79684285Y-78973333D01*
D12*
%TO.P,U2,20*%
%TO.N,VCC*%
X65710000Y-60325000D03*
%TO.P,U2,19*%
%TO.N,/Q8*%
X65710000Y-61595000D03*
%TO.P,U2,18*%
%TO.N,/Q9*%
X65710000Y-62865000D03*
%TO.P,U2,17*%
%TO.N,/Q10*%
X65710000Y-64135000D03*
%TO.P,U2,16*%
%TO.N,/Q11*%
X65710000Y-65405000D03*
%TO.P,U2,15*%
%TO.N,/Q12*%
X65710000Y-66675000D03*
%TO.P,U2,14*%
%TO.N,/Q13*%
X65710000Y-67945000D03*
%TO.P,U2,13*%
%TO.N,/Q14*%
X65710000Y-69215000D03*
%TO.P,U2,12*%
%TO.N,/Q15*%
X65710000Y-70485000D03*
%TO.P,U2,11*%
%TO.N,/CP*%
X65710000Y-71755000D03*
%TO.P,U2,10*%
%TO.N,GND*%
X56210000Y-71755000D03*
%TO.P,U2,9*%
%TO.N,/D15*%
X56210000Y-70485000D03*
%TO.P,U2,8*%
%TO.N,Net-(J5-Pad7)*%
X56210000Y-69215000D03*
%TO.P,U2,7*%
%TO.N,Net-(J5-Pad6)*%
X56210000Y-67945000D03*
%TO.P,U2,1*%
%TO.N,/~OE*%
X56210000Y-60325000D03*
%TO.P,U2,2*%
%TO.N,/D8*%
X56210000Y-61595000D03*
%TO.P,U2,3*%
%TO.N,Net-(J5-Pad2)*%
X56210000Y-62865000D03*
%TO.P,U2,4*%
%TO.N,Net-(J5-Pad3)*%
X56210000Y-64135000D03*
%TO.P,U2,5*%
%TO.N,Net-(J5-Pad4)*%
X56210000Y-65405000D03*
%TO.P,U2,6*%
%TO.N,Net-(J5-Pad5)*%
X56210000Y-66675000D03*
%TD*%
%TO.P,R17,2*%
%TO.N,/Q15*%
%TA.AperFunction,SMDPad,CuDef*%
G36*
G01*
X74800000Y-73209999D02*
X74800000Y-74110001D01*
G75*
G02*
X74550001Y-74360000I-249999J0D01*
G01*
X73849999Y-74360000D01*
G75*
G02*
X73600000Y-74110001I0J249999D01*
G01*
X73600000Y-73209999D01*
G75*
G02*
X73849999Y-72960000I249999J0D01*
G01*
X74550001Y-72960000D01*
G75*
G02*
X74800000Y-73209999I0J-249999D01*
G01*
G37*
%TD.AperFunction*%
%TO.P,R17,1*%
%TO.N,Net-(D16-Pad2)*%
%TA.AperFunction,SMDPad,CuDef*%
G36*
G01*
X76800000Y-73209999D02*
X76800000Y-74110001D01*
G75*
G02*
X76550001Y-74360000I-249999J0D01*
G01*
X75849999Y-74360000D01*
G75*
G02*
X75600000Y-74110001I0J249999D01*
G01*
X75600000Y-73209999D01*
G75*
G02*
X75849999Y-72960000I249999J0D01*
G01*
X76550001Y-72960000D01*
G75*
G02*
X76800000Y-73209999I0J-249999D01*
G01*
G37*
%TD.AperFunction*%
%TD*%
%TO.P,R16,2*%
%TO.N,/Q14*%
%TA.AperFunction,SMDPad,CuDef*%
G36*
G01*
X74800000Y-70669999D02*
X74800000Y-71570001D01*
G75*
G02*
X74550001Y-71820000I-249999J0D01*
G01*
X73849999Y-71820000D01*
G75*
G02*
X73600000Y-71570001I0J249999D01*
G01*
X73600000Y-70669999D01*
G75*
G02*
X73849999Y-70420000I249999J0D01*
G01*
X74550001Y-70420000D01*
G75*
G02*
X74800000Y-70669999I0J-249999D01*
G01*
G37*
%TD.AperFunction*%
%TO.P,R16,1*%
%TO.N,Net-(D15-Pad2)*%
%TA.AperFunction,SMDPad,CuDef*%
G36*
G01*
X76800000Y-70669999D02*
X76800000Y-71570001D01*
G75*
G02*
X76550001Y-71820000I-249999J0D01*
G01*
X75849999Y-71820000D01*
G75*
G02*
X75600000Y-71570001I0J249999D01*
G01*
X75600000Y-70669999D01*
G75*
G02*
X75849999Y-70420000I249999J0D01*
G01*
X76550001Y-70420000D01*
G75*
G02*
X76800000Y-70669999I0J-249999D01*
G01*
G37*
%TD.AperFunction*%
%TD*%
%TO.P,R15,2*%
%TO.N,/Q13*%
%TA.AperFunction,SMDPad,CuDef*%
G36*
G01*
X74800000Y-68129999D02*
X74800000Y-69030001D01*
G75*
G02*
X74550001Y-69280000I-249999J0D01*
G01*
X73849999Y-69280000D01*
G75*
G02*
X73600000Y-69030001I0J249999D01*
G01*
X73600000Y-68129999D01*
G75*
G02*
X73849999Y-67880000I249999J0D01*
G01*
X74550001Y-67880000D01*
G75*
G02*
X74800000Y-68129999I0J-249999D01*
G01*
G37*
%TD.AperFunction*%
%TO.P,R15,1*%
%TO.N,Net-(D14-Pad2)*%
%TA.AperFunction,SMDPad,CuDef*%
G36*
G01*
X76800000Y-68129999D02*
X76800000Y-69030001D01*
G75*
G02*
X76550001Y-69280000I-249999J0D01*
G01*
X75849999Y-69280000D01*
G75*
G02*
X75600000Y-69030001I0J249999D01*
G01*
X75600000Y-68129999D01*
G75*
G02*
X75849999Y-67880000I249999J0D01*
G01*
X76550001Y-67880000D01*
G75*
G02*
X76800000Y-68129999I0J-249999D01*
G01*
G37*
%TD.AperFunction*%
%TD*%
%TO.P,R14,2*%
%TO.N,/Q12*%
%TA.AperFunction,SMDPad,CuDef*%
G36*
G01*
X74800000Y-65589999D02*
X74800000Y-66490001D01*
G75*
G02*
X74550001Y-66740000I-249999J0D01*
G01*
X73849999Y-66740000D01*
G75*
G02*
X73600000Y-66490001I0J249999D01*
G01*
X73600000Y-65589999D01*
G75*
G02*
X73849999Y-65340000I249999J0D01*
G01*
X74550001Y-65340000D01*
G75*
G02*
X74800000Y-65589999I0J-249999D01*
G01*
G37*
%TD.AperFunction*%
%TO.P,R14,1*%
%TO.N,Net-(D13-Pad2)*%
%TA.AperFunction,SMDPad,CuDef*%
G36*
G01*
X76800000Y-65589999D02*
X76800000Y-66490001D01*
G75*
G02*
X76550001Y-66740000I-249999J0D01*
G01*
X75849999Y-66740000D01*
G75*
G02*
X75600000Y-66490001I0J249999D01*
G01*
X75600000Y-65589999D01*
G75*
G02*
X75849999Y-65340000I249999J0D01*
G01*
X76550001Y-65340000D01*
G75*
G02*
X76800000Y-65589999I0J-249999D01*
G01*
G37*
%TD.AperFunction*%
%TD*%
%TO.P,R13,2*%
%TO.N,/Q11*%
%TA.AperFunction,SMDPad,CuDef*%
G36*
G01*
X74800000Y-63049999D02*
X74800000Y-63950001D01*
G75*
G02*
X74550001Y-64200000I-249999J0D01*
G01*
X73849999Y-64200000D01*
G75*
G02*
X73600000Y-63950001I0J249999D01*
G01*
X73600000Y-63049999D01*
G75*
G02*
X73849999Y-62800000I249999J0D01*
G01*
X74550001Y-62800000D01*
G75*
G02*
X74800000Y-63049999I0J-249999D01*
G01*
G37*
%TD.AperFunction*%
%TO.P,R13,1*%
%TO.N,Net-(D12-Pad2)*%
%TA.AperFunction,SMDPad,CuDef*%
G36*
G01*
X76800000Y-63049999D02*
X76800000Y-63950001D01*
G75*
G02*
X76550001Y-64200000I-249999J0D01*
G01*
X75849999Y-64200000D01*
G75*
G02*
X75600000Y-63950001I0J249999D01*
G01*
X75600000Y-63049999D01*
G75*
G02*
X75849999Y-62800000I249999J0D01*
G01*
X76550001Y-62800000D01*
G75*
G02*
X76800000Y-63049999I0J-249999D01*
G01*
G37*
%TD.AperFunction*%
%TD*%
%TO.P,R12,2*%
%TO.N,/Q10*%
%TA.AperFunction,SMDPad,CuDef*%
G36*
G01*
X74800000Y-60509999D02*
X74800000Y-61410001D01*
G75*
G02*
X74550001Y-61660000I-249999J0D01*
G01*
X73849999Y-61660000D01*
G75*
G02*
X73600000Y-61410001I0J249999D01*
G01*
X73600000Y-60509999D01*
G75*
G02*
X73849999Y-60260000I249999J0D01*
G01*
X74550001Y-60260000D01*
G75*
G02*
X74800000Y-60509999I0J-249999D01*
G01*
G37*
%TD.AperFunction*%
%TO.P,R12,1*%
%TO.N,Net-(D11-Pad2)*%
%TA.AperFunction,SMDPad,CuDef*%
G36*
G01*
X76800000Y-60509999D02*
X76800000Y-61410001D01*
G75*
G02*
X76550001Y-61660000I-249999J0D01*
G01*
X75849999Y-61660000D01*
G75*
G02*
X75600000Y-61410001I0J249999D01*
G01*
X75600000Y-60509999D01*
G75*
G02*
X75849999Y-60260000I249999J0D01*
G01*
X76550001Y-60260000D01*
G75*
G02*
X76800000Y-60509999I0J-249999D01*
G01*
G37*
%TD.AperFunction*%
%TD*%
%TO.P,R11,2*%
%TO.N,/Q9*%
%TA.AperFunction,SMDPad,CuDef*%
G36*
G01*
X74800000Y-57969999D02*
X74800000Y-58870001D01*
G75*
G02*
X74550001Y-59120000I-249999J0D01*
G01*
X73849999Y-59120000D01*
G75*
G02*
X73600000Y-58870001I0J249999D01*
G01*
X73600000Y-57969999D01*
G75*
G02*
X73849999Y-57720000I249999J0D01*
G01*
X74550001Y-57720000D01*
G75*
G02*
X74800000Y-57969999I0J-249999D01*
G01*
G37*
%TD.AperFunction*%
%TO.P,R11,1*%
%TO.N,Net-(D10-Pad2)*%
%TA.AperFunction,SMDPad,CuDef*%
G36*
G01*
X76800000Y-57969999D02*
X76800000Y-58870001D01*
G75*
G02*
X76550001Y-59120000I-249999J0D01*
G01*
X75849999Y-59120000D01*
G75*
G02*
X75600000Y-58870001I0J249999D01*
G01*
X75600000Y-57969999D01*
G75*
G02*
X75849999Y-57720000I249999J0D01*
G01*
X76550001Y-57720000D01*
G75*
G02*
X76800000Y-57969999I0J-249999D01*
G01*
G37*
%TD.AperFunction*%
%TD*%
%TO.P,R10,2*%
%TO.N,/Q8*%
%TA.AperFunction,SMDPad,CuDef*%
G36*
G01*
X74800000Y-55429999D02*
X74800000Y-56330001D01*
G75*
G02*
X74550001Y-56580000I-249999J0D01*
G01*
X73849999Y-56580000D01*
G75*
G02*
X73600000Y-56330001I0J249999D01*
G01*
X73600000Y-55429999D01*
G75*
G02*
X73849999Y-55180000I249999J0D01*
G01*
X74550001Y-55180000D01*
G75*
G02*
X74800000Y-55429999I0J-249999D01*
G01*
G37*
%TD.AperFunction*%
%TO.P,R10,1*%
%TO.N,Net-(D9-Pad2)*%
%TA.AperFunction,SMDPad,CuDef*%
G36*
G01*
X76800000Y-55429999D02*
X76800000Y-56330001D01*
G75*
G02*
X76550001Y-56580000I-249999J0D01*
G01*
X75849999Y-56580000D01*
G75*
G02*
X75600000Y-56330001I0J249999D01*
G01*
X75600000Y-55429999D01*
G75*
G02*
X75849999Y-55180000I249999J0D01*
G01*
X76550001Y-55180000D01*
G75*
G02*
X76800000Y-55429999I0J-249999D01*
G01*
G37*
%TD.AperFunction*%
%TD*%
D13*
%TO.P,J6,9*%
%TO.N,VCC*%
X71120000Y-76200000D03*
%TO.P,J6,8*%
%TO.N,/Q15*%
X71120000Y-73660000D03*
D14*
%TO.P,J6,7*%
%TO.N,/Q14*%
X71120000Y-71120000D03*
%TO.P,J6,6*%
%TO.N,/Q13*%
X71120000Y-68580000D03*
%TO.P,J6,5*%
%TO.N,/Q12*%
X71120000Y-66040000D03*
%TO.P,J6,4*%
%TO.N,/Q11*%
X71120000Y-63500000D03*
%TO.P,J6,3*%
%TO.N,/Q10*%
X71120000Y-60960000D03*
%TO.P,J6,2*%
%TO.N,/Q9*%
X71120000Y-58420000D03*
D15*
%TO.P,J6,1*%
%TO.N,/Q8*%
X71120000Y-55880000D03*
%TD*%
D14*
%TO.P,J5,9*%
%TO.N,GND*%
X50800000Y-76200000D03*
%TO.P,J5,8*%
%TO.N,/D15*%
X50800000Y-73660000D03*
%TO.P,J5,7*%
%TO.N,Net-(J5-Pad7)*%
X50800000Y-71120000D03*
%TO.P,J5,6*%
%TO.N,Net-(J5-Pad6)*%
X50800000Y-68580000D03*
%TO.P,J5,5*%
%TO.N,Net-(J5-Pad5)*%
X50800000Y-66040000D03*
%TO.P,J5,4*%
%TO.N,Net-(J5-Pad4)*%
X50800000Y-63500000D03*
%TO.P,J5,3*%
%TO.N,Net-(J5-Pad3)*%
X50800000Y-60960000D03*
%TO.P,J5,2*%
%TO.N,Net-(J5-Pad2)*%
X50800000Y-58420000D03*
D15*
%TO.P,J5,1*%
%TO.N,/D8*%
X50800000Y-55880000D03*
%TD*%
%TO.P,D16,2*%
%TO.N,Net-(D16-Pad2)*%
%TA.AperFunction,SMDPad,CuDef*%
G36*
G01*
X79460000Y-73209999D02*
X79460000Y-74110001D01*
G75*
G02*
X79210001Y-74360000I-249999J0D01*
G01*
X78559999Y-74360000D01*
G75*
G02*
X78310000Y-74110001I0J249999D01*
G01*
X78310000Y-73209999D01*
G75*
G02*
X78559999Y-72960000I249999J0D01*
G01*
X79210001Y-72960000D01*
G75*
G02*
X79460000Y-73209999I0J-249999D01*
G01*
G37*
%TD.AperFunction*%
%TO.P,D16,1*%
%TO.N,GND*%
%TA.AperFunction,SMDPad,CuDef*%
G36*
G01*
X81510000Y-73209999D02*
X81510000Y-74110001D01*
G75*
G02*
X81260001Y-74360000I-249999J0D01*
G01*
X80609999Y-74360000D01*
G75*
G02*
X80360000Y-74110001I0J249999D01*
G01*
X80360000Y-73209999D01*
G75*
G02*
X80609999Y-72960000I249999J0D01*
G01*
X81260001Y-72960000D01*
G75*
G02*
X81510000Y-73209999I0J-249999D01*
G01*
G37*
%TD.AperFunction*%
%TD*%
%TO.P,D15,2*%
%TO.N,Net-(D15-Pad2)*%
%TA.AperFunction,SMDPad,CuDef*%
G36*
G01*
X79460000Y-70669999D02*
X79460000Y-71570001D01*
G75*
G02*
X79210001Y-71820000I-249999J0D01*
G01*
X78559999Y-71820000D01*
G75*
G02*
X78310000Y-71570001I0J249999D01*
G01*
X78310000Y-70669999D01*
G75*
G02*
X78559999Y-70420000I249999J0D01*
G01*
X79210001Y-70420000D01*
G75*
G02*
X79460000Y-70669999I0J-249999D01*
G01*
G37*
%TD.AperFunction*%
%TO.P,D15,1*%
%TO.N,GND*%
%TA.AperFunction,SMDPad,CuDef*%
G36*
G01*
X81510000Y-70669999D02*
X81510000Y-71570001D01*
G75*
G02*
X81260001Y-71820000I-249999J0D01*
G01*
X80609999Y-71820000D01*
G75*
G02*
X80360000Y-71570001I0J249999D01*
G01*
X80360000Y-70669999D01*
G75*
G02*
X80609999Y-70420000I249999J0D01*
G01*
X81260001Y-70420000D01*
G75*
G02*
X81510000Y-70669999I0J-249999D01*
G01*
G37*
%TD.AperFunction*%
%TD*%
%TO.P,D14,2*%
%TO.N,Net-(D14-Pad2)*%
%TA.AperFunction,SMDPad,CuDef*%
G36*
G01*
X79460000Y-68129999D02*
X79460000Y-69030001D01*
G75*
G02*
X79210001Y-69280000I-249999J0D01*
G01*
X78559999Y-69280000D01*
G75*
G02*
X78310000Y-69030001I0J249999D01*
G01*
X78310000Y-68129999D01*
G75*
G02*
X78559999Y-67880000I249999J0D01*
G01*
X79210001Y-67880000D01*
G75*
G02*
X79460000Y-68129999I0J-249999D01*
G01*
G37*
%TD.AperFunction*%
%TO.P,D14,1*%
%TO.N,GND*%
%TA.AperFunction,SMDPad,CuDef*%
G36*
G01*
X81510000Y-68129999D02*
X81510000Y-69030001D01*
G75*
G02*
X81260001Y-69280000I-249999J0D01*
G01*
X80609999Y-69280000D01*
G75*
G02*
X80360000Y-69030001I0J249999D01*
G01*
X80360000Y-68129999D01*
G75*
G02*
X80609999Y-67880000I249999J0D01*
G01*
X81260001Y-67880000D01*
G75*
G02*
X81510000Y-68129999I0J-249999D01*
G01*
G37*
%TD.AperFunction*%
%TD*%
%TO.P,D13,2*%
%TO.N,Net-(D13-Pad2)*%
%TA.AperFunction,SMDPad,CuDef*%
G36*
G01*
X79460000Y-65589999D02*
X79460000Y-66490001D01*
G75*
G02*
X79210001Y-66740000I-249999J0D01*
G01*
X78559999Y-66740000D01*
G75*
G02*
X78310000Y-66490001I0J249999D01*
G01*
X78310000Y-65589999D01*
G75*
G02*
X78559999Y-65340000I249999J0D01*
G01*
X79210001Y-65340000D01*
G75*
G02*
X79460000Y-65589999I0J-249999D01*
G01*
G37*
%TD.AperFunction*%
%TO.P,D13,1*%
%TO.N,GND*%
%TA.AperFunction,SMDPad,CuDef*%
G36*
G01*
X81510000Y-65589999D02*
X81510000Y-66490001D01*
G75*
G02*
X81260001Y-66740000I-249999J0D01*
G01*
X80609999Y-66740000D01*
G75*
G02*
X80360000Y-66490001I0J249999D01*
G01*
X80360000Y-65589999D01*
G75*
G02*
X80609999Y-65340000I249999J0D01*
G01*
X81260001Y-65340000D01*
G75*
G02*
X81510000Y-65589999I0J-249999D01*
G01*
G37*
%TD.AperFunction*%
%TD*%
%TO.P,D12,2*%
%TO.N,Net-(D12-Pad2)*%
%TA.AperFunction,SMDPad,CuDef*%
G36*
G01*
X79460000Y-63049999D02*
X79460000Y-63950001D01*
G75*
G02*
X79210001Y-64200000I-249999J0D01*
G01*
X78559999Y-64200000D01*
G75*
G02*
X78310000Y-63950001I0J249999D01*
G01*
X78310000Y-63049999D01*
G75*
G02*
X78559999Y-62800000I249999J0D01*
G01*
X79210001Y-62800000D01*
G75*
G02*
X79460000Y-63049999I0J-249999D01*
G01*
G37*
%TD.AperFunction*%
%TO.P,D12,1*%
%TO.N,GND*%
%TA.AperFunction,SMDPad,CuDef*%
G36*
G01*
X81510000Y-63049999D02*
X81510000Y-63950001D01*
G75*
G02*
X81260001Y-64200000I-249999J0D01*
G01*
X80609999Y-64200000D01*
G75*
G02*
X80360000Y-63950001I0J249999D01*
G01*
X80360000Y-63049999D01*
G75*
G02*
X80609999Y-62800000I249999J0D01*
G01*
X81260001Y-62800000D01*
G75*
G02*
X81510000Y-63049999I0J-249999D01*
G01*
G37*
%TD.AperFunction*%
%TD*%
%TO.P,D11,2*%
%TO.N,Net-(D11-Pad2)*%
%TA.AperFunction,SMDPad,CuDef*%
G36*
G01*
X79460000Y-60509999D02*
X79460000Y-61410001D01*
G75*
G02*
X79210001Y-61660000I-249999J0D01*
G01*
X78559999Y-61660000D01*
G75*
G02*
X78310000Y-61410001I0J249999D01*
G01*
X78310000Y-60509999D01*
G75*
G02*
X78559999Y-60260000I249999J0D01*
G01*
X79210001Y-60260000D01*
G75*
G02*
X79460000Y-60509999I0J-249999D01*
G01*
G37*
%TD.AperFunction*%
%TO.P,D11,1*%
%TO.N,GND*%
%TA.AperFunction,SMDPad,CuDef*%
G36*
G01*
X81510000Y-60509999D02*
X81510000Y-61410001D01*
G75*
G02*
X81260001Y-61660000I-249999J0D01*
G01*
X80609999Y-61660000D01*
G75*
G02*
X80360000Y-61410001I0J249999D01*
G01*
X80360000Y-60509999D01*
G75*
G02*
X80609999Y-60260000I249999J0D01*
G01*
X81260001Y-60260000D01*
G75*
G02*
X81510000Y-60509999I0J-249999D01*
G01*
G37*
%TD.AperFunction*%
%TD*%
%TO.P,D10,2*%
%TO.N,Net-(D10-Pad2)*%
%TA.AperFunction,SMDPad,CuDef*%
G36*
G01*
X79460000Y-57969999D02*
X79460000Y-58870001D01*
G75*
G02*
X79210001Y-59120000I-249999J0D01*
G01*
X78559999Y-59120000D01*
G75*
G02*
X78310000Y-58870001I0J249999D01*
G01*
X78310000Y-57969999D01*
G75*
G02*
X78559999Y-57720000I249999J0D01*
G01*
X79210001Y-57720000D01*
G75*
G02*
X79460000Y-57969999I0J-249999D01*
G01*
G37*
%TD.AperFunction*%
%TO.P,D10,1*%
%TO.N,GND*%
%TA.AperFunction,SMDPad,CuDef*%
G36*
G01*
X81510000Y-57969999D02*
X81510000Y-58870001D01*
G75*
G02*
X81260001Y-59120000I-249999J0D01*
G01*
X80609999Y-59120000D01*
G75*
G02*
X80360000Y-58870001I0J249999D01*
G01*
X80360000Y-57969999D01*
G75*
G02*
X80609999Y-57720000I249999J0D01*
G01*
X81260001Y-57720000D01*
G75*
G02*
X81510000Y-57969999I0J-249999D01*
G01*
G37*
%TD.AperFunction*%
%TD*%
%TO.P,D9,2*%
%TO.N,Net-(D9-Pad2)*%
%TA.AperFunction,SMDPad,CuDef*%
G36*
G01*
X79460000Y-55429999D02*
X79460000Y-56330001D01*
G75*
G02*
X79210001Y-56580000I-249999J0D01*
G01*
X78559999Y-56580000D01*
G75*
G02*
X78310000Y-56330001I0J249999D01*
G01*
X78310000Y-55429999D01*
G75*
G02*
X78559999Y-55180000I249999J0D01*
G01*
X79210001Y-55180000D01*
G75*
G02*
X79460000Y-55429999I0J-249999D01*
G01*
G37*
%TD.AperFunction*%
%TO.P,D9,1*%
%TO.N,GND*%
%TA.AperFunction,SMDPad,CuDef*%
G36*
G01*
X81510000Y-55429999D02*
X81510000Y-56330001D01*
G75*
G02*
X81260001Y-56580000I-249999J0D01*
G01*
X80609999Y-56580000D01*
G75*
G02*
X80360000Y-56330001I0J249999D01*
G01*
X80360000Y-55429999D01*
G75*
G02*
X80609999Y-55180000I249999J0D01*
G01*
X81260001Y-55180000D01*
G75*
G02*
X81510000Y-55429999I0J-249999D01*
G01*
G37*
%TD.AperFunction*%
%TD*%
%TO.P,C2,2*%
%TO.N,GND*%
%TA.AperFunction,SMDPad,CuDef*%
G36*
G01*
X62012500Y-55405000D02*
X62012500Y-56355000D01*
G75*
G02*
X61762500Y-56605000I-250000J0D01*
G01*
X61087500Y-56605000D01*
G75*
G02*
X60837500Y-56355000I0J250000D01*
G01*
X60837500Y-55405000D01*
G75*
G02*
X61087500Y-55155000I250000J0D01*
G01*
X61762500Y-55155000D01*
G75*
G02*
X62012500Y-55405000I0J-250000D01*
G01*
G37*
%TD.AperFunction*%
%TO.P,C2,1*%
%TO.N,VCC*%
%TA.AperFunction,SMDPad,CuDef*%
G36*
G01*
X64087500Y-55405000D02*
X64087500Y-56355000D01*
G75*
G02*
X63837500Y-56605000I-250000J0D01*
G01*
X63162500Y-56605000D01*
G75*
G02*
X62912500Y-56355000I0J250000D01*
G01*
X62912500Y-55405000D01*
G75*
G02*
X63162500Y-55155000I250000J0D01*
G01*
X63837500Y-55155000D01*
G75*
G02*
X64087500Y-55405000I0J-250000D01*
G01*
G37*
%TD.AperFunction*%
%TD*%
%TO.P,R9,2*%
%TO.N,VCC*%
%TA.AperFunction,SMDPad,CuDef*%
G36*
G01*
X62900000Y-27755001D02*
X62900000Y-26854999D01*
G75*
G02*
X63149999Y-26605000I249999J0D01*
G01*
X63850001Y-26605000D01*
G75*
G02*
X64100000Y-26854999I0J-249999D01*
G01*
X64100000Y-27755001D01*
G75*
G02*
X63850001Y-28005000I-249999J0D01*
G01*
X63149999Y-28005000D01*
G75*
G02*
X62900000Y-27755001I0J249999D01*
G01*
G37*
%TD.AperFunction*%
%TO.P,R9,1*%
%TO.N,/~OE*%
%TA.AperFunction,SMDPad,CuDef*%
G36*
G01*
X60900000Y-27755001D02*
X60900000Y-26854999D01*
G75*
G02*
X61149999Y-26605000I249999J0D01*
G01*
X61850001Y-26605000D01*
G75*
G02*
X62100000Y-26854999I0J-249999D01*
G01*
X62100000Y-27755001D01*
G75*
G02*
X61850001Y-28005000I-249999J0D01*
G01*
X61149999Y-28005000D01*
G75*
G02*
X60900000Y-27755001I0J249999D01*
G01*
G37*
%TD.AperFunction*%
%TD*%
D16*
%TO.P,J4,1*%
%TO.N,/~OE*%
X53975000Y-79375000D03*
%TD*%
D17*
%TO.P,J3,1*%
%TO.N,/CP*%
X67945000Y-79375000D03*
%TD*%
%TO.P,C1,1*%
%TO.N,VCC*%
%TA.AperFunction,SMDPad,CuDef*%
G36*
G01*
X64087500Y-29370000D02*
X64087500Y-30320000D01*
G75*
G02*
X63837500Y-30570000I-250000J0D01*
G01*
X63162500Y-30570000D01*
G75*
G02*
X62912500Y-30320000I0J250000D01*
G01*
X62912500Y-29370000D01*
G75*
G02*
X63162500Y-29120000I250000J0D01*
G01*
X63837500Y-29120000D01*
G75*
G02*
X64087500Y-29370000I0J-250000D01*
G01*
G37*
%TD.AperFunction*%
%TO.P,C1,2*%
%TO.N,GND*%
%TA.AperFunction,SMDPad,CuDef*%
G36*
G01*
X62012500Y-29370000D02*
X62012500Y-30320000D01*
G75*
G02*
X61762500Y-30570000I-250000J0D01*
G01*
X61087500Y-30570000D01*
G75*
G02*
X60837500Y-30320000I0J250000D01*
G01*
X60837500Y-29370000D01*
G75*
G02*
X61087500Y-29120000I250000J0D01*
G01*
X61762500Y-29120000D01*
G75*
G02*
X62012500Y-29370000I0J-250000D01*
G01*
G37*
%TD.AperFunction*%
%TD*%
%TO.P,D1,1*%
%TO.N,GND*%
%TA.AperFunction,SMDPad,CuDef*%
G36*
G01*
X81510000Y-27489999D02*
X81510000Y-28390001D01*
G75*
G02*
X81260001Y-28640000I-249999J0D01*
G01*
X80609999Y-28640000D01*
G75*
G02*
X80360000Y-28390001I0J249999D01*
G01*
X80360000Y-27489999D01*
G75*
G02*
X80609999Y-27240000I249999J0D01*
G01*
X81260001Y-27240000D01*
G75*
G02*
X81510000Y-27489999I0J-249999D01*
G01*
G37*
%TD.AperFunction*%
%TO.P,D1,2*%
%TO.N,Net-(D1-Pad2)*%
%TA.AperFunction,SMDPad,CuDef*%
G36*
G01*
X79460000Y-27489999D02*
X79460000Y-28390001D01*
G75*
G02*
X79210001Y-28640000I-249999J0D01*
G01*
X78559999Y-28640000D01*
G75*
G02*
X78310000Y-28390001I0J249999D01*
G01*
X78310000Y-27489999D01*
G75*
G02*
X78559999Y-27240000I249999J0D01*
G01*
X79210001Y-27240000D01*
G75*
G02*
X79460000Y-27489999I0J-249999D01*
G01*
G37*
%TD.AperFunction*%
%TD*%
%TO.P,D2,1*%
%TO.N,GND*%
%TA.AperFunction,SMDPad,CuDef*%
G36*
G01*
X81510000Y-30029999D02*
X81510000Y-30930001D01*
G75*
G02*
X81260001Y-31180000I-249999J0D01*
G01*
X80609999Y-31180000D01*
G75*
G02*
X80360000Y-30930001I0J249999D01*
G01*
X80360000Y-30029999D01*
G75*
G02*
X80609999Y-29780000I249999J0D01*
G01*
X81260001Y-29780000D01*
G75*
G02*
X81510000Y-30029999I0J-249999D01*
G01*
G37*
%TD.AperFunction*%
%TO.P,D2,2*%
%TO.N,Net-(D2-Pad2)*%
%TA.AperFunction,SMDPad,CuDef*%
G36*
G01*
X79460000Y-30029999D02*
X79460000Y-30930001D01*
G75*
G02*
X79210001Y-31180000I-249999J0D01*
G01*
X78559999Y-31180000D01*
G75*
G02*
X78310000Y-30930001I0J249999D01*
G01*
X78310000Y-30029999D01*
G75*
G02*
X78559999Y-29780000I249999J0D01*
G01*
X79210001Y-29780000D01*
G75*
G02*
X79460000Y-30029999I0J-249999D01*
G01*
G37*
%TD.AperFunction*%
%TD*%
%TO.P,D3,2*%
%TO.N,Net-(D3-Pad2)*%
%TA.AperFunction,SMDPad,CuDef*%
G36*
G01*
X79460000Y-32569999D02*
X79460000Y-33470001D01*
G75*
G02*
X79210001Y-33720000I-249999J0D01*
G01*
X78559999Y-33720000D01*
G75*
G02*
X78310000Y-33470001I0J249999D01*
G01*
X78310000Y-32569999D01*
G75*
G02*
X78559999Y-32320000I249999J0D01*
G01*
X79210001Y-32320000D01*
G75*
G02*
X79460000Y-32569999I0J-249999D01*
G01*
G37*
%TD.AperFunction*%
%TO.P,D3,1*%
%TO.N,GND*%
%TA.AperFunction,SMDPad,CuDef*%
G36*
G01*
X81510000Y-32569999D02*
X81510000Y-33470001D01*
G75*
G02*
X81260001Y-33720000I-249999J0D01*
G01*
X80609999Y-33720000D01*
G75*
G02*
X80360000Y-33470001I0J249999D01*
G01*
X80360000Y-32569999D01*
G75*
G02*
X80609999Y-32320000I249999J0D01*
G01*
X81260001Y-32320000D01*
G75*
G02*
X81510000Y-32569999I0J-249999D01*
G01*
G37*
%TD.AperFunction*%
%TD*%
%TO.P,D4,1*%
%TO.N,GND*%
%TA.AperFunction,SMDPad,CuDef*%
G36*
G01*
X81510000Y-35109999D02*
X81510000Y-36010001D01*
G75*
G02*
X81260001Y-36260000I-249999J0D01*
G01*
X80609999Y-36260000D01*
G75*
G02*
X80360000Y-36010001I0J249999D01*
G01*
X80360000Y-35109999D01*
G75*
G02*
X80609999Y-34860000I249999J0D01*
G01*
X81260001Y-34860000D01*
G75*
G02*
X81510000Y-35109999I0J-249999D01*
G01*
G37*
%TD.AperFunction*%
%TO.P,D4,2*%
%TO.N,Net-(D4-Pad2)*%
%TA.AperFunction,SMDPad,CuDef*%
G36*
G01*
X79460000Y-35109999D02*
X79460000Y-36010001D01*
G75*
G02*
X79210001Y-36260000I-249999J0D01*
G01*
X78559999Y-36260000D01*
G75*
G02*
X78310000Y-36010001I0J249999D01*
G01*
X78310000Y-35109999D01*
G75*
G02*
X78559999Y-34860000I249999J0D01*
G01*
X79210001Y-34860000D01*
G75*
G02*
X79460000Y-35109999I0J-249999D01*
G01*
G37*
%TD.AperFunction*%
%TD*%
%TO.P,D5,2*%
%TO.N,Net-(D5-Pad2)*%
%TA.AperFunction,SMDPad,CuDef*%
G36*
G01*
X79460000Y-37649999D02*
X79460000Y-38550001D01*
G75*
G02*
X79210001Y-38800000I-249999J0D01*
G01*
X78559999Y-38800000D01*
G75*
G02*
X78310000Y-38550001I0J249999D01*
G01*
X78310000Y-37649999D01*
G75*
G02*
X78559999Y-37400000I249999J0D01*
G01*
X79210001Y-37400000D01*
G75*
G02*
X79460000Y-37649999I0J-249999D01*
G01*
G37*
%TD.AperFunction*%
%TO.P,D5,1*%
%TO.N,GND*%
%TA.AperFunction,SMDPad,CuDef*%
G36*
G01*
X81510000Y-37649999D02*
X81510000Y-38550001D01*
G75*
G02*
X81260001Y-38800000I-249999J0D01*
G01*
X80609999Y-38800000D01*
G75*
G02*
X80360000Y-38550001I0J249999D01*
G01*
X80360000Y-37649999D01*
G75*
G02*
X80609999Y-37400000I249999J0D01*
G01*
X81260001Y-37400000D01*
G75*
G02*
X81510000Y-37649999I0J-249999D01*
G01*
G37*
%TD.AperFunction*%
%TD*%
%TO.P,D6,2*%
%TO.N,Net-(D6-Pad2)*%
%TA.AperFunction,SMDPad,CuDef*%
G36*
G01*
X79460000Y-40189999D02*
X79460000Y-41090001D01*
G75*
G02*
X79210001Y-41340000I-249999J0D01*
G01*
X78559999Y-41340000D01*
G75*
G02*
X78310000Y-41090001I0J249999D01*
G01*
X78310000Y-40189999D01*
G75*
G02*
X78559999Y-39940000I249999J0D01*
G01*
X79210001Y-39940000D01*
G75*
G02*
X79460000Y-40189999I0J-249999D01*
G01*
G37*
%TD.AperFunction*%
%TO.P,D6,1*%
%TO.N,GND*%
%TA.AperFunction,SMDPad,CuDef*%
G36*
G01*
X81510000Y-40189999D02*
X81510000Y-41090001D01*
G75*
G02*
X81260001Y-41340000I-249999J0D01*
G01*
X80609999Y-41340000D01*
G75*
G02*
X80360000Y-41090001I0J249999D01*
G01*
X80360000Y-40189999D01*
G75*
G02*
X80609999Y-39940000I249999J0D01*
G01*
X81260001Y-39940000D01*
G75*
G02*
X81510000Y-40189999I0J-249999D01*
G01*
G37*
%TD.AperFunction*%
%TD*%
%TO.P,D7,2*%
%TO.N,Net-(D7-Pad2)*%
%TA.AperFunction,SMDPad,CuDef*%
G36*
G01*
X79460000Y-42729999D02*
X79460000Y-43630001D01*
G75*
G02*
X79210001Y-43880000I-249999J0D01*
G01*
X78559999Y-43880000D01*
G75*
G02*
X78310000Y-43630001I0J249999D01*
G01*
X78310000Y-42729999D01*
G75*
G02*
X78559999Y-42480000I249999J0D01*
G01*
X79210001Y-42480000D01*
G75*
G02*
X79460000Y-42729999I0J-249999D01*
G01*
G37*
%TD.AperFunction*%
%TO.P,D7,1*%
%TO.N,GND*%
%TA.AperFunction,SMDPad,CuDef*%
G36*
G01*
X81510000Y-42729999D02*
X81510000Y-43630001D01*
G75*
G02*
X81260001Y-43880000I-249999J0D01*
G01*
X80609999Y-43880000D01*
G75*
G02*
X80360000Y-43630001I0J249999D01*
G01*
X80360000Y-42729999D01*
G75*
G02*
X80609999Y-42480000I249999J0D01*
G01*
X81260001Y-42480000D01*
G75*
G02*
X81510000Y-42729999I0J-249999D01*
G01*
G37*
%TD.AperFunction*%
%TD*%
%TO.P,D8,1*%
%TO.N,GND*%
%TA.AperFunction,SMDPad,CuDef*%
G36*
G01*
X81510000Y-45269999D02*
X81510000Y-46170001D01*
G75*
G02*
X81260001Y-46420000I-249999J0D01*
G01*
X80609999Y-46420000D01*
G75*
G02*
X80360000Y-46170001I0J249999D01*
G01*
X80360000Y-45269999D01*
G75*
G02*
X80609999Y-45020000I249999J0D01*
G01*
X81260001Y-45020000D01*
G75*
G02*
X81510000Y-45269999I0J-249999D01*
G01*
G37*
%TD.AperFunction*%
%TO.P,D8,2*%
%TO.N,Net-(D8-Pad2)*%
%TA.AperFunction,SMDPad,CuDef*%
G36*
G01*
X79460000Y-45269999D02*
X79460000Y-46170001D01*
G75*
G02*
X79210001Y-46420000I-249999J0D01*
G01*
X78559999Y-46420000D01*
G75*
G02*
X78310000Y-46170001I0J249999D01*
G01*
X78310000Y-45269999D01*
G75*
G02*
X78559999Y-45020000I249999J0D01*
G01*
X79210001Y-45020000D01*
G75*
G02*
X79460000Y-45269999I0J-249999D01*
G01*
G37*
%TD.AperFunction*%
%TD*%
D14*
%TO.P,J1,9*%
%TO.N,VCC*%
X71120000Y-48260000D03*
%TO.P,J1,8*%
%TO.N,/Q7*%
X71120000Y-45720000D03*
%TO.P,J1,7*%
%TO.N,/Q6*%
X71120000Y-43180000D03*
%TO.P,J1,6*%
%TO.N,/Q5*%
X71120000Y-40640000D03*
%TO.P,J1,5*%
%TO.N,/Q4*%
X71120000Y-38100000D03*
%TO.P,J1,4*%
%TO.N,/Q3*%
X71120000Y-35560000D03*
%TO.P,J1,3*%
%TO.N,/Q2*%
X71120000Y-33020000D03*
%TO.P,J1,2*%
%TO.N,/Q1*%
X71120000Y-30480000D03*
D15*
%TO.P,J1,1*%
%TO.N,/Q0*%
X71120000Y-27940000D03*
%TD*%
%TO.P,J2,1*%
%TO.N,/D0*%
X50800000Y-27940000D03*
D14*
%TO.P,J2,2*%
%TO.N,Net-(J2-Pad2)*%
X50800000Y-30480000D03*
%TO.P,J2,3*%
%TO.N,Net-(J2-Pad3)*%
X50800000Y-33020000D03*
%TO.P,J2,4*%
%TO.N,Net-(J2-Pad4)*%
X50800000Y-35560000D03*
%TO.P,J2,5*%
%TO.N,Net-(J2-Pad5)*%
X50800000Y-38100000D03*
%TO.P,J2,6*%
%TO.N,Net-(J2-Pad6)*%
X50800000Y-40640000D03*
%TO.P,J2,7*%
%TO.N,Net-(J2-Pad7)*%
X50800000Y-43180000D03*
%TO.P,J2,8*%
%TO.N,/D7*%
X50800000Y-45720000D03*
%TO.P,J2,9*%
%TO.N,GND*%
X50800000Y-48260000D03*
%TD*%
%TO.P,R1,1*%
%TO.N,Net-(D1-Pad2)*%
%TA.AperFunction,SMDPad,CuDef*%
G36*
G01*
X76800000Y-27489999D02*
X76800000Y-28390001D01*
G75*
G02*
X76550001Y-28640000I-249999J0D01*
G01*
X75849999Y-28640000D01*
G75*
G02*
X75600000Y-28390001I0J249999D01*
G01*
X75600000Y-27489999D01*
G75*
G02*
X75849999Y-27240000I249999J0D01*
G01*
X76550001Y-27240000D01*
G75*
G02*
X76800000Y-27489999I0J-249999D01*
G01*
G37*
%TD.AperFunction*%
%TO.P,R1,2*%
%TO.N,/Q0*%
%TA.AperFunction,SMDPad,CuDef*%
G36*
G01*
X74800000Y-27489999D02*
X74800000Y-28390001D01*
G75*
G02*
X74550001Y-28640000I-249999J0D01*
G01*
X73849999Y-28640000D01*
G75*
G02*
X73600000Y-28390001I0J249999D01*
G01*
X73600000Y-27489999D01*
G75*
G02*
X73849999Y-27240000I249999J0D01*
G01*
X74550001Y-27240000D01*
G75*
G02*
X74800000Y-27489999I0J-249999D01*
G01*
G37*
%TD.AperFunction*%
%TD*%
%TO.P,R2,1*%
%TO.N,Net-(D2-Pad2)*%
%TA.AperFunction,SMDPad,CuDef*%
G36*
G01*
X76800000Y-30029999D02*
X76800000Y-30930001D01*
G75*
G02*
X76550001Y-31180000I-249999J0D01*
G01*
X75849999Y-31180000D01*
G75*
G02*
X75600000Y-30930001I0J249999D01*
G01*
X75600000Y-30029999D01*
G75*
G02*
X75849999Y-29780000I249999J0D01*
G01*
X76550001Y-29780000D01*
G75*
G02*
X76800000Y-30029999I0J-249999D01*
G01*
G37*
%TD.AperFunction*%
%TO.P,R2,2*%
%TO.N,/Q1*%
%TA.AperFunction,SMDPad,CuDef*%
G36*
G01*
X74800000Y-30029999D02*
X74800000Y-30930001D01*
G75*
G02*
X74550001Y-31180000I-249999J0D01*
G01*
X73849999Y-31180000D01*
G75*
G02*
X73600000Y-30930001I0J249999D01*
G01*
X73600000Y-30029999D01*
G75*
G02*
X73849999Y-29780000I249999J0D01*
G01*
X74550001Y-29780000D01*
G75*
G02*
X74800000Y-30029999I0J-249999D01*
G01*
G37*
%TD.AperFunction*%
%TD*%
%TO.P,R3,2*%
%TO.N,/Q2*%
%TA.AperFunction,SMDPad,CuDef*%
G36*
G01*
X74800000Y-32569999D02*
X74800000Y-33470001D01*
G75*
G02*
X74550001Y-33720000I-249999J0D01*
G01*
X73849999Y-33720000D01*
G75*
G02*
X73600000Y-33470001I0J249999D01*
G01*
X73600000Y-32569999D01*
G75*
G02*
X73849999Y-32320000I249999J0D01*
G01*
X74550001Y-32320000D01*
G75*
G02*
X74800000Y-32569999I0J-249999D01*
G01*
G37*
%TD.AperFunction*%
%TO.P,R3,1*%
%TO.N,Net-(D3-Pad2)*%
%TA.AperFunction,SMDPad,CuDef*%
G36*
G01*
X76800000Y-32569999D02*
X76800000Y-33470001D01*
G75*
G02*
X76550001Y-33720000I-249999J0D01*
G01*
X75849999Y-33720000D01*
G75*
G02*
X75600000Y-33470001I0J249999D01*
G01*
X75600000Y-32569999D01*
G75*
G02*
X75849999Y-32320000I249999J0D01*
G01*
X76550001Y-32320000D01*
G75*
G02*
X76800000Y-32569999I0J-249999D01*
G01*
G37*
%TD.AperFunction*%
%TD*%
%TO.P,R4,2*%
%TO.N,/Q3*%
%TA.AperFunction,SMDPad,CuDef*%
G36*
G01*
X74800000Y-35109999D02*
X74800000Y-36010001D01*
G75*
G02*
X74550001Y-36260000I-249999J0D01*
G01*
X73849999Y-36260000D01*
G75*
G02*
X73600000Y-36010001I0J249999D01*
G01*
X73600000Y-35109999D01*
G75*
G02*
X73849999Y-34860000I249999J0D01*
G01*
X74550001Y-34860000D01*
G75*
G02*
X74800000Y-35109999I0J-249999D01*
G01*
G37*
%TD.AperFunction*%
%TO.P,R4,1*%
%TO.N,Net-(D4-Pad2)*%
%TA.AperFunction,SMDPad,CuDef*%
G36*
G01*
X76800000Y-35109999D02*
X76800000Y-36010001D01*
G75*
G02*
X76550001Y-36260000I-249999J0D01*
G01*
X75849999Y-36260000D01*
G75*
G02*
X75600000Y-36010001I0J249999D01*
G01*
X75600000Y-35109999D01*
G75*
G02*
X75849999Y-34860000I249999J0D01*
G01*
X76550001Y-34860000D01*
G75*
G02*
X76800000Y-35109999I0J-249999D01*
G01*
G37*
%TD.AperFunction*%
%TD*%
%TO.P,R5,1*%
%TO.N,Net-(D5-Pad2)*%
%TA.AperFunction,SMDPad,CuDef*%
G36*
G01*
X76800000Y-37649999D02*
X76800000Y-38550001D01*
G75*
G02*
X76550001Y-38800000I-249999J0D01*
G01*
X75849999Y-38800000D01*
G75*
G02*
X75600000Y-38550001I0J249999D01*
G01*
X75600000Y-37649999D01*
G75*
G02*
X75849999Y-37400000I249999J0D01*
G01*
X76550001Y-37400000D01*
G75*
G02*
X76800000Y-37649999I0J-249999D01*
G01*
G37*
%TD.AperFunction*%
%TO.P,R5,2*%
%TO.N,/Q4*%
%TA.AperFunction,SMDPad,CuDef*%
G36*
G01*
X74800000Y-37649999D02*
X74800000Y-38550001D01*
G75*
G02*
X74550001Y-38800000I-249999J0D01*
G01*
X73849999Y-38800000D01*
G75*
G02*
X73600000Y-38550001I0J249999D01*
G01*
X73600000Y-37649999D01*
G75*
G02*
X73849999Y-37400000I249999J0D01*
G01*
X74550001Y-37400000D01*
G75*
G02*
X74800000Y-37649999I0J-249999D01*
G01*
G37*
%TD.AperFunction*%
%TD*%
%TO.P,R6,2*%
%TO.N,/Q5*%
%TA.AperFunction,SMDPad,CuDef*%
G36*
G01*
X74800000Y-40189999D02*
X74800000Y-41090001D01*
G75*
G02*
X74550001Y-41340000I-249999J0D01*
G01*
X73849999Y-41340000D01*
G75*
G02*
X73600000Y-41090001I0J249999D01*
G01*
X73600000Y-40189999D01*
G75*
G02*
X73849999Y-39940000I249999J0D01*
G01*
X74550001Y-39940000D01*
G75*
G02*
X74800000Y-40189999I0J-249999D01*
G01*
G37*
%TD.AperFunction*%
%TO.P,R6,1*%
%TO.N,Net-(D6-Pad2)*%
%TA.AperFunction,SMDPad,CuDef*%
G36*
G01*
X76800000Y-40189999D02*
X76800000Y-41090001D01*
G75*
G02*
X76550001Y-41340000I-249999J0D01*
G01*
X75849999Y-41340000D01*
G75*
G02*
X75600000Y-41090001I0J249999D01*
G01*
X75600000Y-40189999D01*
G75*
G02*
X75849999Y-39940000I249999J0D01*
G01*
X76550001Y-39940000D01*
G75*
G02*
X76800000Y-40189999I0J-249999D01*
G01*
G37*
%TD.AperFunction*%
%TD*%
%TO.P,R7,2*%
%TO.N,/Q6*%
%TA.AperFunction,SMDPad,CuDef*%
G36*
G01*
X74800000Y-42729999D02*
X74800000Y-43630001D01*
G75*
G02*
X74550001Y-43880000I-249999J0D01*
G01*
X73849999Y-43880000D01*
G75*
G02*
X73600000Y-43630001I0J249999D01*
G01*
X73600000Y-42729999D01*
G75*
G02*
X73849999Y-42480000I249999J0D01*
G01*
X74550001Y-42480000D01*
G75*
G02*
X74800000Y-42729999I0J-249999D01*
G01*
G37*
%TD.AperFunction*%
%TO.P,R7,1*%
%TO.N,Net-(D7-Pad2)*%
%TA.AperFunction,SMDPad,CuDef*%
G36*
G01*
X76800000Y-42729999D02*
X76800000Y-43630001D01*
G75*
G02*
X76550001Y-43880000I-249999J0D01*
G01*
X75849999Y-43880000D01*
G75*
G02*
X75600000Y-43630001I0J249999D01*
G01*
X75600000Y-42729999D01*
G75*
G02*
X75849999Y-42480000I249999J0D01*
G01*
X76550001Y-42480000D01*
G75*
G02*
X76800000Y-42729999I0J-249999D01*
G01*
G37*
%TD.AperFunction*%
%TD*%
%TO.P,R8,1*%
%TO.N,Net-(D8-Pad2)*%
%TA.AperFunction,SMDPad,CuDef*%
G36*
G01*
X76800000Y-45269999D02*
X76800000Y-46170001D01*
G75*
G02*
X76550001Y-46420000I-249999J0D01*
G01*
X75849999Y-46420000D01*
G75*
G02*
X75600000Y-46170001I0J249999D01*
G01*
X75600000Y-45269999D01*
G75*
G02*
X75849999Y-45020000I249999J0D01*
G01*
X76550001Y-45020000D01*
G75*
G02*
X76800000Y-45269999I0J-249999D01*
G01*
G37*
%TD.AperFunction*%
%TO.P,R8,2*%
%TO.N,/Q7*%
%TA.AperFunction,SMDPad,CuDef*%
G36*
G01*
X74800000Y-45269999D02*
X74800000Y-46170001D01*
G75*
G02*
X74550001Y-46420000I-249999J0D01*
G01*
X73849999Y-46420000D01*
G75*
G02*
X73600000Y-46170001I0J249999D01*
G01*
X73600000Y-45269999D01*
G75*
G02*
X73849999Y-45020000I249999J0D01*
G01*
X74550001Y-45020000D01*
G75*
G02*
X74800000Y-45269999I0J-249999D01*
G01*
G37*
%TD.AperFunction*%
%TD*%
D12*
%TO.P,U1,6*%
%TO.N,Net-(J2-Pad5)*%
X56210000Y-38735000D03*
%TO.P,U1,5*%
%TO.N,Net-(J2-Pad4)*%
X56210000Y-37465000D03*
%TO.P,U1,4*%
%TO.N,Net-(J2-Pad3)*%
X56210000Y-36195000D03*
%TO.P,U1,3*%
%TO.N,Net-(J2-Pad2)*%
X56210000Y-34925000D03*
%TO.P,U1,2*%
%TO.N,/D0*%
X56210000Y-33655000D03*
%TO.P,U1,1*%
%TO.N,/~OE*%
X56210000Y-32385000D03*
%TO.P,U1,7*%
%TO.N,Net-(J2-Pad6)*%
X56210000Y-40005000D03*
%TO.P,U1,8*%
%TO.N,Net-(J2-Pad7)*%
X56210000Y-41275000D03*
%TO.P,U1,9*%
%TO.N,/D7*%
X56210000Y-42545000D03*
%TO.P,U1,10*%
%TO.N,GND*%
X56210000Y-43815000D03*
%TO.P,U1,11*%
%TO.N,/CP*%
X65710000Y-43815000D03*
%TO.P,U1,12*%
%TO.N,/Q7*%
X65710000Y-42545000D03*
%TO.P,U1,13*%
%TO.N,/Q6*%
X65710000Y-41275000D03*
%TO.P,U1,14*%
%TO.N,/Q5*%
X65710000Y-40005000D03*
%TO.P,U1,15*%
%TO.N,/Q4*%
X65710000Y-38735000D03*
%TO.P,U1,16*%
%TO.N,/Q3*%
X65710000Y-37465000D03*
%TO.P,U1,17*%
%TO.N,/Q2*%
X65710000Y-36195000D03*
%TO.P,U1,18*%
%TO.N,/Q1*%
X65710000Y-34925000D03*
%TO.P,U1,19*%
%TO.N,/Q0*%
X65710000Y-33655000D03*
%TO.P,U1,20*%
%TO.N,VCC*%
X65710000Y-32385000D03*
%TD*%
D18*
%TO.N,/CP*%
X65722500Y-74295000D03*
X65722500Y-53340000D03*
%TD*%
D19*
%TO.N,VCC*%
X63500000Y-27305000D02*
X63500000Y-29845000D01*
X63500000Y-32385000D02*
X65710000Y-32385000D01*
X63500000Y-55880000D02*
X63500000Y-32385000D01*
X63500000Y-32385000D02*
X63500000Y-29845000D01*
X65722500Y-55880000D02*
X65722500Y-60312500D01*
X63500000Y-55880000D02*
X65722500Y-55880000D01*
X65722500Y-60312500D02*
X65710000Y-60325000D01*
X66675000Y-55880000D02*
X65722500Y-55880000D01*
X67945000Y-54610000D02*
X66675000Y-55880000D01*
X67945000Y-49530000D02*
X67945000Y-54610000D01*
X69215000Y-48260000D02*
X67945000Y-49530000D01*
X71120000Y-48260000D02*
X69215000Y-48260000D01*
X63500000Y-55880000D02*
X63500000Y-75565000D01*
X64135000Y-76200000D02*
X71120000Y-76200000D01*
X63500000Y-75565000D02*
X64135000Y-76200000D01*
%TO.N,GND*%
X56210000Y-71755000D02*
X55245000Y-71755000D01*
X55245000Y-71755000D02*
X50800000Y-76200000D01*
X55245000Y-43815000D02*
X50800000Y-48260000D01*
X56210000Y-43815000D02*
X55245000Y-43815000D01*
X80962500Y-73660000D02*
X80962500Y-27940000D01*
X61425000Y-29845000D02*
X61425000Y-55880000D01*
X56210000Y-43815000D02*
X61425000Y-43815000D01*
X61425000Y-57955000D02*
X61425000Y-55880000D01*
X59690000Y-59690000D02*
X61425000Y-57955000D01*
X56515000Y-71755000D02*
X56210000Y-71755000D01*
X59690000Y-71755000D02*
X56515000Y-71755000D01*
X59690000Y-71755000D02*
X59690000Y-59690000D01*
X60484990Y-80804990D02*
X59690000Y-80010000D01*
X59690000Y-80010000D02*
X59690000Y-71755000D01*
X80485010Y-80804990D02*
X60484990Y-80804990D01*
X81915000Y-79375000D02*
X80485010Y-80804990D01*
X80935000Y-74585000D02*
X81915000Y-75565000D01*
X81915000Y-75565000D02*
X81915000Y-79375000D01*
X80935000Y-73660000D02*
X80935000Y-74585000D01*
%TO.N,Net-(D1-Pad2)*%
X76200000Y-27940000D02*
X78985000Y-27940000D01*
%TO.N,Net-(D2-Pad2)*%
X76295000Y-30480000D02*
X78985000Y-30480000D01*
%TO.N,Net-(D3-Pad2)*%
X76295000Y-33020000D02*
X78985000Y-33020000D01*
%TO.N,Net-(D4-Pad2)*%
X76295000Y-35560000D02*
X78985000Y-35560000D01*
%TO.N,Net-(D5-Pad2)*%
X76200000Y-38100000D02*
X78985000Y-38100000D01*
%TO.N,Net-(D6-Pad2)*%
X76200000Y-40640000D02*
X78985000Y-40640000D01*
%TO.N,Net-(D7-Pad2)*%
X76200000Y-43180000D02*
X78985000Y-43180000D01*
%TO.N,Net-(D8-Pad2)*%
X76200000Y-45720000D02*
X78985000Y-45720000D01*
%TO.N,/Q7*%
X69215000Y-45720000D02*
X71120000Y-45720000D01*
X67310000Y-43815000D02*
X69215000Y-45720000D01*
X71120000Y-45720000D02*
X74200000Y-45720000D01*
X66992500Y-42545000D02*
X67310000Y-42862500D01*
X65710000Y-42545000D02*
X66992500Y-42545000D01*
X67310000Y-42862500D02*
X67310000Y-43815000D01*
%TO.N,/Q6*%
X67945000Y-41275000D02*
X65710000Y-41275000D01*
X69850000Y-43180000D02*
X67945000Y-41275000D01*
X74200000Y-43180000D02*
X69850000Y-43180000D01*
%TO.N,/Q5*%
X68580000Y-40005000D02*
X65710000Y-40005000D01*
X69215000Y-40640000D02*
X68580000Y-40005000D01*
X74200000Y-40640000D02*
X69215000Y-40640000D01*
%TO.N,/Q4*%
X68262500Y-38735000D02*
X65710000Y-38735000D01*
X68897500Y-38100000D02*
X68262500Y-38735000D01*
X74200000Y-38100000D02*
X68897500Y-38100000D01*
%TO.N,/Q3*%
X67945000Y-37465000D02*
X65710000Y-37465000D01*
X69850000Y-35560000D02*
X67945000Y-37465000D01*
X74295000Y-35560000D02*
X69850000Y-35560000D01*
%TO.N,/Q2*%
X69215000Y-34607500D02*
X67627500Y-36195000D01*
X69215000Y-33655000D02*
X69215000Y-34607500D01*
X67627500Y-36195000D02*
X65710000Y-36195000D01*
X69850000Y-33020000D02*
X69215000Y-33655000D01*
X74295000Y-33020000D02*
X69850000Y-33020000D01*
%TO.N,/Q1*%
X69850000Y-30480000D02*
X74295000Y-30480000D01*
X68262500Y-32067500D02*
X69850000Y-30480000D01*
X68262500Y-33972500D02*
X68262500Y-32067500D01*
X67310000Y-34925000D02*
X68262500Y-33972500D01*
X65710000Y-34925000D02*
X67310000Y-34925000D01*
%TO.N,/Q0*%
X74200000Y-27940000D02*
X69850000Y-27940000D01*
X67310000Y-30480000D02*
X69850000Y-27940000D01*
X66992500Y-33655000D02*
X67310000Y-33337500D01*
X67310000Y-30480000D02*
X67310000Y-33337500D01*
X66992500Y-33655000D02*
X65710000Y-33655000D01*
%TO.N,/D0*%
X54960000Y-33655000D02*
X54610000Y-33305000D01*
X56210000Y-33655000D02*
X54960000Y-33655000D01*
X54610000Y-33305000D02*
X54610000Y-30480000D01*
X52070000Y-27940000D02*
X50800000Y-27940000D01*
X54610000Y-30480000D02*
X52070000Y-27940000D01*
%TO.N,Net-(J2-Pad2)*%
X54960000Y-34925000D02*
X53340000Y-33305000D01*
X56210000Y-34925000D02*
X54960000Y-34925000D01*
X53340000Y-33305000D02*
X53340000Y-31750000D01*
X52070000Y-30480000D02*
X50800000Y-30480000D01*
X53340000Y-31750000D02*
X52070000Y-30480000D01*
%TO.N,Net-(J2-Pad3)*%
X56210000Y-36195000D02*
X54610000Y-36195000D01*
X51435000Y-33020000D02*
X50800000Y-33020000D01*
X54610000Y-36195000D02*
X51435000Y-33020000D01*
%TO.N,Net-(J2-Pad4)*%
X56210000Y-37465000D02*
X53975000Y-37465000D01*
X52070000Y-35560000D02*
X50800000Y-35560000D01*
X53975000Y-37465000D02*
X52070000Y-35560000D01*
%TO.N,Net-(J2-Pad5)*%
X52705000Y-38100000D02*
X50800000Y-38100000D01*
X53340000Y-38735000D02*
X52705000Y-38100000D01*
X56210000Y-38735000D02*
X53340000Y-38735000D01*
%TO.N,Net-(J2-Pad6)*%
X52705000Y-40640000D02*
X50800000Y-40640000D01*
X53340000Y-40005000D02*
X52705000Y-40640000D01*
X56210000Y-40005000D02*
X53340000Y-40005000D01*
%TO.N,Net-(J2-Pad7)*%
X56210000Y-41275000D02*
X53975000Y-41275000D01*
X52070000Y-43180000D02*
X50800000Y-43180000D01*
X53975000Y-41275000D02*
X52070000Y-43180000D01*
%TO.N,/CP*%
X65722500Y-43815000D02*
X65722500Y-53340000D01*
X65710000Y-74282500D02*
X65722500Y-74295000D01*
X65710000Y-71755000D02*
X65710000Y-74282500D01*
X65722500Y-74295000D02*
X67310000Y-74295000D01*
X67310000Y-74295000D02*
X67945000Y-74930000D01*
X67945000Y-74930000D02*
X72390000Y-74930000D01*
X67945000Y-79375000D02*
X72390000Y-79375000D01*
X72390000Y-74930000D02*
X73025000Y-75565000D01*
X73025000Y-75565000D02*
X73025000Y-78740000D01*
X73025000Y-78740000D02*
X72390000Y-79375000D01*
%TO.N,/~OE*%
X56210000Y-32385000D02*
X56210000Y-30810000D01*
X55880000Y-30480000D02*
X55880000Y-27940000D01*
X56210000Y-30810000D02*
X55880000Y-30480000D01*
X61500000Y-27305000D02*
X59055000Y-27305000D01*
X58420000Y-27940000D02*
X55880000Y-27940000D01*
X59055000Y-27305000D02*
X58420000Y-27940000D01*
X56210000Y-56210000D02*
X56210000Y-60325000D01*
X53340000Y-53340000D02*
X56210000Y-56210000D01*
X48895000Y-53340000D02*
X53340000Y-53340000D01*
X48895000Y-26035000D02*
X48895000Y-53340000D01*
X55880000Y-27940000D02*
X53975000Y-26035000D01*
X53975000Y-26035000D02*
X48895000Y-26035000D01*
X48895000Y-78105000D02*
X48895000Y-53340000D01*
X50165000Y-79375000D02*
X48895000Y-78105000D01*
X53975000Y-79375000D02*
X50165000Y-79375000D01*
%TO.N,/D7*%
X56210000Y-42545000D02*
X54610000Y-42545000D01*
X51435000Y-45720000D02*
X50800000Y-45720000D01*
X54610000Y-42545000D02*
X51435000Y-45720000D01*
%TO.N,Net-(D9-Pad2)*%
X76200000Y-55880000D02*
X78885000Y-55880000D01*
%TO.N,Net-(D10-Pad2)*%
X76200000Y-58420000D02*
X78885000Y-58420000D01*
%TO.N,Net-(D11-Pad2)*%
X76200000Y-60960000D02*
X78885000Y-60960000D01*
%TO.N,Net-(D12-Pad2)*%
X76200000Y-63500000D02*
X78885000Y-63500000D01*
%TO.N,Net-(D13-Pad2)*%
X76200000Y-66040000D02*
X78885000Y-66040000D01*
%TO.N,Net-(D14-Pad2)*%
X76200000Y-68580000D02*
X78885000Y-68580000D01*
%TO.N,Net-(D15-Pad2)*%
X76200000Y-71120000D02*
X78885000Y-71120000D01*
%TO.N,Net-(D16-Pad2)*%
X76200000Y-73660000D02*
X78885000Y-73660000D01*
%TO.N,/D15*%
X56210000Y-70485000D02*
X54610000Y-70485000D01*
X51435000Y-73660000D02*
X50800000Y-73660000D01*
X54610000Y-70485000D02*
X51435000Y-73660000D01*
%TO.N,Net-(J5-Pad7)*%
X56210000Y-69215000D02*
X53975000Y-69215000D01*
X52070000Y-71120000D02*
X50800000Y-71120000D01*
X53975000Y-69215000D02*
X52070000Y-71120000D01*
%TO.N,Net-(J5-Pad6)*%
X53340000Y-67945000D02*
X52705000Y-68580000D01*
X56210000Y-67945000D02*
X53340000Y-67945000D01*
X52705000Y-68580000D02*
X50800000Y-68580000D01*
%TO.N,Net-(J5-Pad5)*%
X52705000Y-66040000D02*
X50800000Y-66040000D01*
X56210000Y-66675000D02*
X53340000Y-66675000D01*
X53340000Y-66675000D02*
X52705000Y-66040000D01*
%TO.N,Net-(J5-Pad4)*%
X53975000Y-65405000D02*
X52070000Y-63500000D01*
X52070000Y-63500000D02*
X50800000Y-63500000D01*
X56210000Y-65405000D02*
X53975000Y-65405000D01*
%TO.N,Net-(J5-Pad3)*%
X56210000Y-64135000D02*
X54610000Y-64135000D01*
X51435000Y-60960000D02*
X50800000Y-60960000D01*
X54610000Y-64135000D02*
X51435000Y-60960000D01*
%TO.N,Net-(J5-Pad2)*%
X53340000Y-59690000D02*
X52070000Y-58420000D01*
X54960000Y-62865000D02*
X53340000Y-61245000D01*
X53340000Y-61245000D02*
X53340000Y-59690000D01*
X56210000Y-62865000D02*
X54960000Y-62865000D01*
X52070000Y-58420000D02*
X50800000Y-58420000D01*
%TO.N,/D8*%
X54960000Y-61595000D02*
X54610000Y-61245000D01*
X52070000Y-55880000D02*
X50800000Y-55880000D01*
X56210000Y-61595000D02*
X54960000Y-61595000D01*
X54610000Y-61245000D02*
X54610000Y-58420000D01*
X54610000Y-58420000D02*
X52070000Y-55880000D01*
%TO.N,/Q15*%
X65710000Y-70485000D02*
X66675000Y-70485000D01*
X66675000Y-70485000D02*
X67310000Y-71120000D01*
X71120000Y-73660000D02*
X74200000Y-73660000D01*
X67310000Y-71755000D02*
X69215000Y-73660000D01*
X67310000Y-71120000D02*
X67310000Y-71755000D01*
X71120000Y-73660000D02*
X69215000Y-73660000D01*
%TO.N,/Q14*%
X66960000Y-69215000D02*
X68580000Y-70835000D01*
X65710000Y-69215000D02*
X66960000Y-69215000D01*
X68865000Y-71120000D02*
X68580000Y-70835000D01*
X74200000Y-71120000D02*
X68865000Y-71120000D01*
%TO.N,/Q13*%
X68262500Y-67945000D02*
X67310000Y-67945000D01*
X67310000Y-67945000D02*
X65710000Y-67945000D01*
X68897500Y-68580000D02*
X68262500Y-67945000D01*
X74200000Y-68580000D02*
X68897500Y-68580000D01*
%TO.N,/Q12*%
X67945000Y-66675000D02*
X65710000Y-66675000D01*
X68262500Y-66675000D02*
X67945000Y-66675000D01*
X68897500Y-66040000D02*
X68262500Y-66675000D01*
X74200000Y-66040000D02*
X68897500Y-66040000D01*
%TO.N,/Q11*%
X67627500Y-65405000D02*
X65710000Y-65405000D01*
X67945000Y-65405000D02*
X67627500Y-65405000D01*
X69850000Y-63500000D02*
X67945000Y-65405000D01*
X74200000Y-63500000D02*
X69850000Y-63500000D01*
%TO.N,/Q10*%
X70485000Y-60960000D02*
X74200000Y-60960000D01*
X69215000Y-61595000D02*
X69850000Y-60960000D01*
X69215000Y-62547500D02*
X69215000Y-61595000D01*
X69850000Y-60960000D02*
X70485000Y-60960000D01*
X67627500Y-64135000D02*
X69215000Y-62547500D01*
X65710000Y-64135000D02*
X67627500Y-64135000D01*
%TO.N,/Q9*%
X68262500Y-59372500D02*
X69215000Y-58420000D01*
X69215000Y-58420000D02*
X74200000Y-58420000D01*
X67310000Y-62865000D02*
X68262500Y-61912500D01*
X68262500Y-61912500D02*
X68262500Y-59372500D01*
X65710000Y-62865000D02*
X67310000Y-62865000D01*
%TO.N,/Q8*%
X67310000Y-57785000D02*
X69215000Y-55880000D01*
X69215000Y-55880000D02*
X74200000Y-55880000D01*
X67310000Y-61277500D02*
X67310000Y-57785000D01*
X66992500Y-61595000D02*
X67310000Y-61277500D01*
X65710000Y-61595000D02*
X66992500Y-61595000D01*
%TD*%
M02*
