%TF.GenerationSoftware,KiCad,Pcbnew,(5.1.8)-1*%
%TF.CreationDate,2025-08-13T23:43:51+03:00*%
%TF.ProjectId,Regs-v6,52656773-2d76-4362-9e6b-696361645f70,rev?*%
%TF.SameCoordinates,Original*%
%TF.FileFunction,Copper,L1,Top*%
%TF.FilePolarity,Positive*%
%FSLAX46Y46*%
G04 Gerber Fmt 4.6, Leading zero omitted, Abs format (unit mm)*
G04 Created by KiCad (PCBNEW (5.1.8)-1) date 2025-08-13 23:43:51*
%MOMM*%
%LPD*%
G01*
G04 APERTURE LIST*
%TA.AperFunction,NonConductor*%
%ADD10C,0.300000*%
%TD*%
%TA.AperFunction,NonConductor*%
%ADD11C,0.500000*%
%TD*%
%TA.AperFunction,ComponentPad*%
%ADD12R,1.700000X1.700000*%
%TD*%
%TA.AperFunction,ComponentPad*%
%ADD13C,1.800000*%
%TD*%
%TA.AperFunction,ComponentPad*%
%ADD14R,1.800000X1.800000*%
%TD*%
%TA.AperFunction,ComponentPad*%
%ADD15O,2.000000X1.500000*%
%TD*%
%TA.AperFunction,ComponentPad*%
%ADD16O,1.700000X1.700000*%
%TD*%
%TA.AperFunction,ComponentPad*%
%ADD17R,2.000000X1.500000*%
%TD*%
%TA.AperFunction,ComponentPad*%
%ADD18O,2.200000X2.100000*%
%TD*%
%TA.AperFunction,ComponentPad*%
%ADD19R,2.200000X2.100000*%
%TD*%
%TA.AperFunction,ComponentPad*%
%ADD20O,1.900000X1.900000*%
%TD*%
%TA.AperFunction,ComponentPad*%
%ADD21O,1.900000X1.500000*%
%TD*%
%TA.AperFunction,ComponentPad*%
%ADD22C,2.600000*%
%TD*%
%TA.AperFunction,ComponentPad*%
%ADD23R,2.600000X2.600000*%
%TD*%
%TA.AperFunction,ComponentPad*%
%ADD24O,1.500000X1.800000*%
%TD*%
%TA.AperFunction,ComponentPad*%
%ADD25R,1.500000X2.000000*%
%TD*%
%TA.AperFunction,ComponentPad*%
%ADD26R,1.500000X1.800000*%
%TD*%
%TA.AperFunction,ComponentPad*%
%ADD27R,2.000000X2.000000*%
%TD*%
%TA.AperFunction,ComponentPad*%
%ADD28O,2.000000X2.200000*%
%TD*%
%TA.AperFunction,ComponentPad*%
%ADD29R,2.000000X2.200000*%
%TD*%
%TA.AperFunction,ViaPad*%
%ADD30C,1.500000*%
%TD*%
%TA.AperFunction,Conductor*%
%ADD31C,0.500000*%
%TD*%
%TA.AperFunction,Conductor*%
%ADD32C,0.600000*%
%TD*%
G04 APERTURE END LIST*
D10*
X141557857Y-109898571D02*
X140700714Y-109898571D01*
X141129285Y-109898571D02*
X141129285Y-108398571D01*
X140986428Y-108612857D01*
X140843571Y-108755714D01*
X140700714Y-108827142D01*
X142057857Y-108398571D02*
X142986428Y-108398571D01*
X142486428Y-108970000D01*
X142700714Y-108970000D01*
X142843571Y-109041428D01*
X142915000Y-109112857D01*
X142986428Y-109255714D01*
X142986428Y-109612857D01*
X142915000Y-109755714D01*
X142843571Y-109827142D01*
X142700714Y-109898571D01*
X142272142Y-109898571D01*
X142129285Y-109827142D01*
X142057857Y-109755714D01*
X143629285Y-109755714D02*
X143700714Y-109827142D01*
X143629285Y-109898571D01*
X143557857Y-109827142D01*
X143629285Y-109755714D01*
X143629285Y-109898571D01*
X144629285Y-108398571D02*
X144772142Y-108398571D01*
X144915000Y-108470000D01*
X144986428Y-108541428D01*
X145057857Y-108684285D01*
X145129285Y-108970000D01*
X145129285Y-109327142D01*
X145057857Y-109612857D01*
X144986428Y-109755714D01*
X144915000Y-109827142D01*
X144772142Y-109898571D01*
X144629285Y-109898571D01*
X144486428Y-109827142D01*
X144415000Y-109755714D01*
X144343571Y-109612857D01*
X144272142Y-109327142D01*
X144272142Y-108970000D01*
X144343571Y-108684285D01*
X144415000Y-108541428D01*
X144486428Y-108470000D01*
X144629285Y-108398571D01*
X145986428Y-109041428D02*
X145843571Y-108970000D01*
X145772142Y-108898571D01*
X145700714Y-108755714D01*
X145700714Y-108684285D01*
X145772142Y-108541428D01*
X145843571Y-108470000D01*
X145986428Y-108398571D01*
X146272142Y-108398571D01*
X146415000Y-108470000D01*
X146486428Y-108541428D01*
X146557857Y-108684285D01*
X146557857Y-108755714D01*
X146486428Y-108898571D01*
X146415000Y-108970000D01*
X146272142Y-109041428D01*
X145986428Y-109041428D01*
X145843571Y-109112857D01*
X145772142Y-109184285D01*
X145700714Y-109327142D01*
X145700714Y-109612857D01*
X145772142Y-109755714D01*
X145843571Y-109827142D01*
X145986428Y-109898571D01*
X146272142Y-109898571D01*
X146415000Y-109827142D01*
X146486428Y-109755714D01*
X146557857Y-109612857D01*
X146557857Y-109327142D01*
X146486428Y-109184285D01*
X146415000Y-109112857D01*
X146272142Y-109041428D01*
X147200714Y-109755714D02*
X147272142Y-109827142D01*
X147200714Y-109898571D01*
X147129285Y-109827142D01*
X147200714Y-109755714D01*
X147200714Y-109898571D01*
X147843571Y-108541428D02*
X147915000Y-108470000D01*
X148057857Y-108398571D01*
X148415000Y-108398571D01*
X148557857Y-108470000D01*
X148629285Y-108541428D01*
X148700714Y-108684285D01*
X148700714Y-108827142D01*
X148629285Y-109041428D01*
X147772142Y-109898571D01*
X148700714Y-109898571D01*
X150057857Y-108398571D02*
X149343571Y-108398571D01*
X149272142Y-109112857D01*
X149343571Y-109041428D01*
X149486428Y-108970000D01*
X149843571Y-108970000D01*
X149986428Y-109041428D01*
X150057857Y-109112857D01*
X150129285Y-109255714D01*
X150129285Y-109612857D01*
X150057857Y-109755714D01*
X149986428Y-109827142D01*
X149843571Y-109898571D01*
X149486428Y-109898571D01*
X149343571Y-109827142D01*
X149272142Y-109755714D01*
D11*
X139486428Y-101687142D02*
X138486428Y-100258571D01*
X137772142Y-101687142D02*
X137772142Y-98687142D01*
X138915000Y-98687142D01*
X139200714Y-98830000D01*
X139343571Y-98972857D01*
X139486428Y-99258571D01*
X139486428Y-99687142D01*
X139343571Y-99972857D01*
X139200714Y-100115714D01*
X138915000Y-100258571D01*
X137772142Y-100258571D01*
X140772142Y-100115714D02*
X141772142Y-100115714D01*
X142200714Y-101687142D02*
X140772142Y-101687142D01*
X140772142Y-98687142D01*
X142200714Y-98687142D01*
X145057857Y-98830000D02*
X144772142Y-98687142D01*
X144343571Y-98687142D01*
X143915000Y-98830000D01*
X143629285Y-99115714D01*
X143486428Y-99401428D01*
X143343571Y-99972857D01*
X143343571Y-100401428D01*
X143486428Y-100972857D01*
X143629285Y-101258571D01*
X143915000Y-101544285D01*
X144343571Y-101687142D01*
X144629285Y-101687142D01*
X145057857Y-101544285D01*
X145200714Y-101401428D01*
X145200714Y-100401428D01*
X144629285Y-100401428D01*
X146343571Y-101544285D02*
X146772142Y-101687142D01*
X147486428Y-101687142D01*
X147772142Y-101544285D01*
X147915000Y-101401428D01*
X148057857Y-101115714D01*
X148057857Y-100830000D01*
X147915000Y-100544285D01*
X147772142Y-100401428D01*
X147486428Y-100258571D01*
X146915000Y-100115714D01*
X146629285Y-99972857D01*
X146486428Y-99830000D01*
X146343571Y-99544285D01*
X146343571Y-99258571D01*
X146486428Y-98972857D01*
X146629285Y-98830000D01*
X146915000Y-98687142D01*
X147629285Y-98687142D01*
X148057857Y-98830000D01*
X149057857Y-99687142D02*
X149772142Y-101687142D01*
X150486428Y-99687142D01*
X152915000Y-98687142D02*
X152343571Y-98687142D01*
X152057857Y-98830000D01*
X151915000Y-98972857D01*
X151629285Y-99401428D01*
X151486428Y-99972857D01*
X151486428Y-101115714D01*
X151629285Y-101401428D01*
X151772142Y-101544285D01*
X152057857Y-101687142D01*
X152629285Y-101687142D01*
X152915000Y-101544285D01*
X153057857Y-101401428D01*
X153200714Y-101115714D01*
X153200714Y-100401428D01*
X153057857Y-100115714D01*
X152915000Y-99972857D01*
X152629285Y-99830000D01*
X152057857Y-99830000D01*
X151772142Y-99972857D01*
X151629285Y-100115714D01*
X151486428Y-100401428D01*
D10*
X141129285Y-104588571D02*
X142129285Y-104588571D01*
X141486428Y-106088571D01*
X143343571Y-105088571D02*
X143343571Y-106088571D01*
X142986428Y-104517142D02*
X142629285Y-105588571D01*
X143557857Y-105588571D01*
X144129285Y-106088571D02*
X144129285Y-104588571D01*
X144129285Y-105302857D02*
X144986428Y-105302857D01*
X144986428Y-106088571D02*
X144986428Y-104588571D01*
X146557857Y-105945714D02*
X146486428Y-106017142D01*
X146272142Y-106088571D01*
X146129285Y-106088571D01*
X145915000Y-106017142D01*
X145772142Y-105874285D01*
X145700714Y-105731428D01*
X145629285Y-105445714D01*
X145629285Y-105231428D01*
X145700714Y-104945714D01*
X145772142Y-104802857D01*
X145915000Y-104660000D01*
X146129285Y-104588571D01*
X146272142Y-104588571D01*
X146486428Y-104660000D01*
X146557857Y-104731428D01*
X147200714Y-106088571D02*
X147200714Y-104588571D01*
X147772142Y-104588571D01*
X147915000Y-104660000D01*
X147986428Y-104731428D01*
X148057857Y-104874285D01*
X148057857Y-105088571D01*
X147986428Y-105231428D01*
X147915000Y-105302857D01*
X147772142Y-105374285D01*
X147200714Y-105374285D01*
X148700714Y-104588571D02*
X148700714Y-105802857D01*
X148772142Y-105945714D01*
X148843571Y-106017142D01*
X148986428Y-106088571D01*
X149272142Y-106088571D01*
X149415000Y-106017142D01*
X149486428Y-105945714D01*
X149557857Y-105802857D01*
X149557857Y-104588571D01*
D12*
%TO.P,J24,1*%
%TO.N,/~Res*%
X69850000Y-67310000D03*
%TD*%
%TO.P,J23,1*%
%TO.N,/~Res*%
X123190000Y-67310000D03*
%TD*%
%TO.P,J22,1*%
%TO.N,/~Res*%
X31750000Y-67310000D03*
%TD*%
%TO.P,J21,1*%
%TO.N,/~Res*%
X105410000Y-67310000D03*
%TD*%
%TO.P,J10,1*%
%TO.N,/~Res*%
X140970000Y-67310000D03*
%TD*%
%TO.P,J9,1*%
%TO.N,/~Res*%
X121920000Y-93980000D03*
%TD*%
D13*
%TO.P,D1,2*%
%TO.N,VCC*%
X96202500Y-97790000D03*
D14*
%TO.P,D1,1*%
%TO.N,Net-(D1-Pad1)*%
X93662500Y-97790000D03*
%TD*%
D15*
%TO.P,J8,15*%
%TO.N,/R7.7*%
X16510000Y-26670000D03*
%TO.P,J8,14*%
%TO.N,Net-(J8-Pad14)*%
X16510000Y-29210000D03*
%TO.P,J8,13*%
%TO.N,/R7.6*%
X16510000Y-31750000D03*
D16*
%TO.P,J8,12*%
%TO.N,Net-(J8-Pad12)*%
X16510000Y-34290000D03*
%TO.P,J8,11*%
%TO.N,/R7.5*%
X16510000Y-36830000D03*
%TO.P,J8,10*%
%TO.N,Net-(J8-Pad10)*%
X16510000Y-39370000D03*
%TO.P,J8,9*%
%TO.N,/R7.4*%
X16510000Y-41910000D03*
%TO.P,J8,8*%
%TO.N,Net-(J8-Pad8)*%
X16510000Y-44450000D03*
%TO.P,J8,7*%
%TO.N,/R7.3*%
X16510000Y-46990000D03*
%TO.P,J8,6*%
%TO.N,Net-(J8-Pad6)*%
X16510000Y-49530000D03*
%TO.P,J8,5*%
%TO.N,/R7.2*%
X16510000Y-52070000D03*
%TO.P,J8,4*%
%TO.N,Net-(J8-Pad4)*%
X16510000Y-54610000D03*
%TO.P,J8,3*%
%TO.N,/R7.1*%
X16510000Y-57150000D03*
D15*
%TO.P,J8,2*%
%TO.N,Net-(J8-Pad2)*%
X16510000Y-59690000D03*
D12*
%TO.P,J8,1*%
%TO.N,/R7.0*%
X16510000Y-62230000D03*
%TD*%
D15*
%TO.P,J7,15*%
%TO.N,/R6.7*%
X34290000Y-26670000D03*
%TO.P,J7,14*%
%TO.N,Net-(J7-Pad14)*%
X34290000Y-29210000D03*
%TO.P,J7,13*%
%TO.N,/R6.6*%
X34290000Y-31750000D03*
%TO.P,J7,12*%
%TO.N,Net-(J7-Pad12)*%
X34290000Y-34290000D03*
D16*
%TO.P,J7,11*%
%TO.N,/R6.5*%
X34290000Y-36830000D03*
%TO.P,J7,10*%
%TO.N,Net-(J7-Pad10)*%
X34290000Y-39370000D03*
%TO.P,J7,9*%
%TO.N,/R6.4*%
X34290000Y-41910000D03*
%TO.P,J7,8*%
%TO.N,Net-(J7-Pad8)*%
X34290000Y-44450000D03*
%TO.P,J7,7*%
%TO.N,/R6.3*%
X34290000Y-46990000D03*
%TO.P,J7,6*%
%TO.N,Net-(J7-Pad6)*%
X34290000Y-49530000D03*
%TO.P,J7,5*%
%TO.N,/R6.2*%
X34290000Y-52070000D03*
%TO.P,J7,4*%
%TO.N,Net-(J7-Pad4)*%
X34290000Y-54610000D03*
%TO.P,J7,3*%
%TO.N,/R6.1*%
X34290000Y-57150000D03*
D15*
%TO.P,J7,2*%
%TO.N,Net-(J7-Pad2)*%
X34290000Y-59690000D03*
D17*
%TO.P,J7,1*%
%TO.N,/R6.0*%
X34290000Y-62230000D03*
%TD*%
D15*
%TO.P,J6,15*%
%TO.N,/R5.7*%
X52070000Y-26670000D03*
%TO.P,J6,14*%
%TO.N,Net-(J6-Pad14)*%
X52070000Y-29210000D03*
%TO.P,J6,13*%
%TO.N,/R5.6*%
X52070000Y-31750000D03*
%TO.P,J6,12*%
%TO.N,Net-(J6-Pad12)*%
X52070000Y-34290000D03*
D16*
%TO.P,J6,11*%
%TO.N,/R5.5*%
X52070000Y-36830000D03*
%TO.P,J6,10*%
%TO.N,Net-(J6-Pad10)*%
X52070000Y-39370000D03*
%TO.P,J6,9*%
%TO.N,/R5.4*%
X52070000Y-41910000D03*
%TO.P,J6,8*%
%TO.N,Net-(J6-Pad8)*%
X52070000Y-44450000D03*
%TO.P,J6,7*%
%TO.N,/R5.3*%
X52070000Y-46990000D03*
%TO.P,J6,6*%
%TO.N,Net-(J6-Pad6)*%
X52070000Y-49530000D03*
%TO.P,J6,5*%
%TO.N,/R5.2*%
X52070000Y-52070000D03*
%TO.P,J6,4*%
%TO.N,Net-(J6-Pad4)*%
X52070000Y-54610000D03*
%TO.P,J6,3*%
%TO.N,/R5.1*%
X52070000Y-57150000D03*
D15*
%TO.P,J6,2*%
%TO.N,Net-(J6-Pad2)*%
X52070000Y-59690000D03*
D17*
%TO.P,J6,1*%
%TO.N,/R5.0*%
X52070000Y-62230000D03*
%TD*%
D15*
%TO.P,J5,15*%
%TO.N,/R4.7*%
X69850000Y-26670000D03*
%TO.P,J5,14*%
%TO.N,Net-(J5-Pad14)*%
X69850000Y-29210000D03*
%TO.P,J5,13*%
%TO.N,/R4.6*%
X69850000Y-31750000D03*
%TO.P,J5,12*%
%TO.N,Net-(J5-Pad12)*%
X69850000Y-34290000D03*
D16*
%TO.P,J5,11*%
%TO.N,/R4.5*%
X69850000Y-36830000D03*
%TO.P,J5,10*%
%TO.N,Net-(J5-Pad10)*%
X69850000Y-39370000D03*
%TO.P,J5,9*%
%TO.N,/R4.4*%
X69850000Y-41910000D03*
%TO.P,J5,8*%
%TO.N,Net-(J5-Pad8)*%
X69850000Y-44450000D03*
%TO.P,J5,7*%
%TO.N,/R4.3*%
X69850000Y-46990000D03*
%TO.P,J5,6*%
%TO.N,Net-(J5-Pad6)*%
X69850000Y-49530000D03*
%TO.P,J5,5*%
%TO.N,/R4.2*%
X69850000Y-52070000D03*
%TO.P,J5,4*%
%TO.N,Net-(J5-Pad4)*%
X69850000Y-54610000D03*
%TO.P,J5,3*%
%TO.N,/R4.1*%
X69850000Y-57150000D03*
D15*
%TO.P,J5,2*%
%TO.N,Net-(J5-Pad2)*%
X69850000Y-59690000D03*
D17*
%TO.P,J5,1*%
%TO.N,/R4.0*%
X69850000Y-62230000D03*
%TD*%
D15*
%TO.P,J4,15*%
%TO.N,/R3.7*%
X87630000Y-26670000D03*
%TO.P,J4,14*%
%TO.N,Net-(J4-Pad14)*%
X87630000Y-29210000D03*
%TO.P,J4,13*%
%TO.N,/R3.6*%
X87630000Y-31750000D03*
%TO.P,J4,12*%
%TO.N,Net-(J4-Pad12)*%
X87630000Y-34290000D03*
D16*
%TO.P,J4,11*%
%TO.N,/R3.5*%
X87630000Y-36830000D03*
%TO.P,J4,10*%
%TO.N,Net-(J4-Pad10)*%
X87630000Y-39370000D03*
%TO.P,J4,9*%
%TO.N,/R3.4*%
X87630000Y-41910000D03*
%TO.P,J4,8*%
%TO.N,Net-(J4-Pad8)*%
X87630000Y-44450000D03*
%TO.P,J4,7*%
%TO.N,/R3.3*%
X87630000Y-46990000D03*
%TO.P,J4,6*%
%TO.N,Net-(J4-Pad6)*%
X87630000Y-49530000D03*
%TO.P,J4,5*%
%TO.N,/R3.2*%
X87630000Y-52070000D03*
%TO.P,J4,4*%
%TO.N,Net-(J4-Pad4)*%
X87630000Y-54610000D03*
%TO.P,J4,3*%
%TO.N,/R3.1*%
X87630000Y-57150000D03*
D15*
%TO.P,J4,2*%
%TO.N,Net-(J4-Pad2)*%
X87630000Y-59690000D03*
D17*
%TO.P,J4,1*%
%TO.N,/R3.0*%
X87630000Y-62230000D03*
%TD*%
D15*
%TO.P,J3,15*%
%TO.N,/R2.7*%
X105410000Y-26670000D03*
%TO.P,J3,14*%
%TO.N,Net-(J3-Pad14)*%
X105410000Y-29210000D03*
%TO.P,J3,13*%
%TO.N,/R2.6*%
X105410000Y-31750000D03*
%TO.P,J3,12*%
%TO.N,Net-(J3-Pad12)*%
X105410000Y-34290000D03*
D16*
%TO.P,J3,11*%
%TO.N,/R2.5*%
X105410000Y-36830000D03*
%TO.P,J3,10*%
%TO.N,Net-(J3-Pad10)*%
X105410000Y-39370000D03*
%TO.P,J3,9*%
%TO.N,/R2.4*%
X105410000Y-41910000D03*
%TO.P,J3,8*%
%TO.N,Net-(J3-Pad8)*%
X105410000Y-44450000D03*
%TO.P,J3,7*%
%TO.N,/R2.3*%
X105410000Y-46990000D03*
%TO.P,J3,6*%
%TO.N,Net-(J3-Pad6)*%
X105410000Y-49530000D03*
%TO.P,J3,5*%
%TO.N,/R2.2*%
X105410000Y-52070000D03*
%TO.P,J3,4*%
%TO.N,Net-(J3-Pad4)*%
X105410000Y-54610000D03*
%TO.P,J3,3*%
%TO.N,/R2.1*%
X105410000Y-57150000D03*
D15*
%TO.P,J3,2*%
%TO.N,Net-(J3-Pad2)*%
X105410000Y-59690000D03*
D17*
%TO.P,J3,1*%
%TO.N,/R2.0*%
X105410000Y-62230000D03*
%TD*%
D15*
%TO.P,J2,15*%
%TO.N,/R1.7*%
X123190000Y-26670000D03*
%TO.P,J2,14*%
%TO.N,Net-(J2-Pad14)*%
X123190000Y-29210000D03*
%TO.P,J2,13*%
%TO.N,/R1.6*%
X123190000Y-31750000D03*
%TO.P,J2,12*%
%TO.N,Net-(J2-Pad12)*%
X123190000Y-34290000D03*
D16*
%TO.P,J2,11*%
%TO.N,/R1.5*%
X123190000Y-36830000D03*
%TO.P,J2,10*%
%TO.N,Net-(J2-Pad10)*%
X123190000Y-39370000D03*
%TO.P,J2,9*%
%TO.N,/R1.4*%
X123190000Y-41910000D03*
%TO.P,J2,8*%
%TO.N,Net-(J2-Pad8)*%
X123190000Y-44450000D03*
%TO.P,J2,7*%
%TO.N,/R1.3*%
X123190000Y-46990000D03*
%TO.P,J2,6*%
%TO.N,Net-(J2-Pad6)*%
X123190000Y-49530000D03*
%TO.P,J2,5*%
%TO.N,/R1.2*%
X123190000Y-52070000D03*
%TO.P,J2,4*%
%TO.N,Net-(J2-Pad4)*%
X123190000Y-54610000D03*
%TO.P,J2,3*%
%TO.N,/R1.1*%
X123190000Y-57150000D03*
D15*
%TO.P,J2,2*%
%TO.N,Net-(J2-Pad2)*%
X123190000Y-59690000D03*
D17*
%TO.P,J2,1*%
%TO.N,/R1.0*%
X123190000Y-62230000D03*
%TD*%
D15*
%TO.P,J1,15*%
%TO.N,/R0.7*%
X140970000Y-26670000D03*
%TO.P,J1,14*%
%TO.N,Net-(J1-Pad14)*%
X140970000Y-29210000D03*
%TO.P,J1,13*%
%TO.N,/R0.6*%
X140970000Y-31750000D03*
%TO.P,J1,12*%
%TO.N,Net-(J1-Pad12)*%
X140970000Y-34290000D03*
D16*
%TO.P,J1,11*%
%TO.N,/R0.5*%
X140970000Y-36830000D03*
%TO.P,J1,10*%
%TO.N,Net-(J1-Pad10)*%
X140970000Y-39370000D03*
%TO.P,J1,9*%
%TO.N,/R0.4*%
X140970000Y-41910000D03*
%TO.P,J1,8*%
%TO.N,Net-(J1-Pad8)*%
X140970000Y-44450000D03*
%TO.P,J1,7*%
%TO.N,/R0.3*%
X140970000Y-46990000D03*
%TO.P,J1,6*%
%TO.N,Net-(J1-Pad6)*%
X140970000Y-49530000D03*
%TO.P,J1,5*%
%TO.N,/R0.2*%
X140970000Y-52070000D03*
%TO.P,J1,4*%
%TO.N,Net-(J1-Pad4)*%
X140970000Y-54610000D03*
%TO.P,J1,3*%
%TO.N,/R0.1*%
X140970000Y-57150000D03*
D15*
%TO.P,J1,2*%
%TO.N,Net-(J1-Pad2)*%
X140970000Y-59690000D03*
D17*
%TO.P,J1,1*%
%TO.N,/R0.0*%
X140970000Y-62230000D03*
%TD*%
D12*
%TO.P,J19,1*%
%TO.N,/~Res*%
X35560000Y-67310000D03*
%TD*%
%TO.P,J20,1*%
%TO.N,/~Res*%
X52070000Y-67310000D03*
%TD*%
D15*
%TO.P,U19,22*%
%TO.N,/~R3*%
X22860000Y-24130000D03*
%TO.P,U19,21*%
%TO.N,/~H*%
X22860000Y-26670000D03*
%TO.P,U19,20*%
%TO.N,/~Bank1*%
X22860000Y-29210000D03*
%TO.P,U19,19*%
%TO.N,/R7.7*%
X22860000Y-36830000D03*
%TO.P,U19,18*%
%TO.N,/R7.6*%
X22860000Y-39370000D03*
%TO.P,U19,17*%
%TO.N,/R7.5*%
X22860000Y-41910000D03*
%TO.P,U19,16*%
%TO.N,/R7.4*%
X22860000Y-44450000D03*
%TO.P,U19,15*%
%TO.N,/R7.3*%
X22860000Y-46990000D03*
%TO.P,U19,14*%
%TO.N,/R7.2*%
X22860000Y-49530000D03*
%TO.P,U19,13*%
%TO.N,/R7.1*%
X22860000Y-52070000D03*
%TO.P,U19,12*%
%TO.N,/R7.0*%
X22860000Y-54610000D03*
%TO.P,U19,11*%
%TO.N,VCC*%
X22860000Y-59690000D03*
%TO.P,U19,10*%
%TO.N,GND*%
X22860000Y-62230000D03*
%TO.P,U19,9*%
%TO.N,/~Res*%
X22860000Y-67310000D03*
%TO.P,U19,8*%
%TO.N,/H0*%
X22860000Y-72390000D03*
%TO.P,U19,7*%
%TO.N,/H1*%
X22860000Y-74930000D03*
%TO.P,U19,6*%
%TO.N,/H2*%
X22860000Y-77470000D03*
%TO.P,U19,5*%
%TO.N,/H3*%
X22860000Y-80010000D03*
%TO.P,U19,4*%
%TO.N,/H4*%
X22860000Y-82550000D03*
%TO.P,U19,3*%
%TO.N,/H5*%
X22860000Y-85090000D03*
%TO.P,U19,2*%
%TO.N,/H6*%
X22860000Y-87630000D03*
%TO.P,U19,1*%
%TO.N,/H7*%
X22860000Y-90170000D03*
%TD*%
%TO.P,U18,22*%
%TO.N,/~R3*%
X40640000Y-24130000D03*
%TO.P,U18,21*%
%TO.N,/~L*%
X40640000Y-26670000D03*
%TO.P,U18,20*%
%TO.N,/~Bank1*%
X40640000Y-29210000D03*
%TO.P,U18,19*%
%TO.N,/R6.7*%
X40640000Y-36830000D03*
%TO.P,U18,18*%
%TO.N,/R6.6*%
X40640000Y-39370000D03*
%TO.P,U18,17*%
%TO.N,/R6.5*%
X40640000Y-41910000D03*
%TO.P,U18,16*%
%TO.N,/R6.4*%
X40640000Y-44450000D03*
%TO.P,U18,15*%
%TO.N,/R6.3*%
X40640000Y-46990000D03*
%TO.P,U18,14*%
%TO.N,/R6.2*%
X40640000Y-49530000D03*
%TO.P,U18,13*%
%TO.N,/R6.1*%
X40640000Y-52070000D03*
%TO.P,U18,12*%
%TO.N,/R6.0*%
X40640000Y-54610000D03*
%TO.P,U18,11*%
%TO.N,VCC*%
X40640000Y-59690000D03*
%TO.P,U18,10*%
%TO.N,GND*%
X40640000Y-62230000D03*
%TO.P,U18,9*%
%TO.N,/~Res*%
X40640000Y-67310000D03*
%TO.P,U18,8*%
%TO.N,/L0*%
X40640000Y-72390000D03*
%TO.P,U18,7*%
%TO.N,/L1*%
X40640000Y-74930000D03*
%TO.P,U18,6*%
%TO.N,/L2*%
X40640000Y-77470000D03*
%TO.P,U18,5*%
%TO.N,/L3*%
X40640000Y-80010000D03*
%TO.P,U18,4*%
%TO.N,/L4*%
X40640000Y-82550000D03*
%TO.P,U18,3*%
%TO.N,/L5*%
X40640000Y-85090000D03*
%TO.P,U18,2*%
%TO.N,/L6*%
X40640000Y-87630000D03*
%TO.P,U18,1*%
%TO.N,/L7*%
X40640000Y-90170000D03*
%TD*%
%TO.P,U17,22*%
%TO.N,/~R2*%
X58420000Y-24130000D03*
%TO.P,U17,21*%
%TO.N,/~H*%
X58420000Y-26670000D03*
%TO.P,U17,20*%
%TO.N,/~Bank1*%
X58420000Y-29210000D03*
%TO.P,U17,19*%
%TO.N,/R5.7*%
X58420000Y-36830000D03*
%TO.P,U17,18*%
%TO.N,/R5.6*%
X58420000Y-39370000D03*
%TO.P,U17,17*%
%TO.N,/R5.5*%
X58420000Y-41910000D03*
%TO.P,U17,16*%
%TO.N,/R5.4*%
X58420000Y-44450000D03*
%TO.P,U17,15*%
%TO.N,/R5.3*%
X58420000Y-46990000D03*
%TO.P,U17,14*%
%TO.N,/R5.2*%
X58420000Y-49530000D03*
%TO.P,U17,13*%
%TO.N,/R5.1*%
X58420000Y-52070000D03*
%TO.P,U17,12*%
%TO.N,/R5.0*%
X58420000Y-54610000D03*
%TO.P,U17,11*%
%TO.N,VCC*%
X58420000Y-59690000D03*
%TO.P,U17,10*%
%TO.N,GND*%
X58420000Y-62230000D03*
%TO.P,U17,9*%
%TO.N,/~Res*%
X58420000Y-67310000D03*
%TO.P,U17,8*%
%TO.N,/H0*%
X58420000Y-72390000D03*
%TO.P,U17,7*%
%TO.N,/H1*%
X58420000Y-74930000D03*
%TO.P,U17,6*%
%TO.N,/H2*%
X58420000Y-77470000D03*
%TO.P,U17,5*%
%TO.N,/H3*%
X58420000Y-80010000D03*
%TO.P,U17,4*%
%TO.N,/H4*%
X58420000Y-82550000D03*
%TO.P,U17,3*%
%TO.N,/H5*%
X58420000Y-85090000D03*
%TO.P,U17,2*%
%TO.N,/H6*%
X58420000Y-87630000D03*
%TO.P,U17,1*%
%TO.N,/H7*%
X58420000Y-90170000D03*
%TD*%
%TO.P,U16,22*%
%TO.N,/~R2*%
X76200000Y-24130000D03*
%TO.P,U16,21*%
%TO.N,/~L*%
X76200000Y-26670000D03*
%TO.P,U16,20*%
%TO.N,/~Bank1*%
X76200000Y-29210000D03*
%TO.P,U16,19*%
%TO.N,/R4.7*%
X76200000Y-36830000D03*
%TO.P,U16,18*%
%TO.N,/R4.6*%
X76200000Y-39370000D03*
%TO.P,U16,17*%
%TO.N,/R4.5*%
X76200000Y-41910000D03*
%TO.P,U16,16*%
%TO.N,/R4.4*%
X76200000Y-44450000D03*
%TO.P,U16,15*%
%TO.N,/R4.3*%
X76200000Y-46990000D03*
%TO.P,U16,14*%
%TO.N,/R4.2*%
X76200000Y-49530000D03*
%TO.P,U16,13*%
%TO.N,/R4.1*%
X76200000Y-52070000D03*
%TO.P,U16,12*%
%TO.N,/R4.0*%
X76200000Y-54610000D03*
%TO.P,U16,11*%
%TO.N,VCC*%
X76200000Y-59690000D03*
%TO.P,U16,10*%
%TO.N,GND*%
X76200000Y-62230000D03*
%TO.P,U16,9*%
%TO.N,/~Res*%
X76200000Y-67310000D03*
%TO.P,U16,8*%
%TO.N,/L0*%
X76200000Y-72390000D03*
%TO.P,U16,7*%
%TO.N,/L1*%
X76200000Y-74930000D03*
%TO.P,U16,6*%
%TO.N,/L2*%
X76200000Y-77470000D03*
%TO.P,U16,5*%
%TO.N,/L3*%
X76200000Y-80010000D03*
%TO.P,U16,4*%
%TO.N,/L4*%
X76200000Y-82550000D03*
%TO.P,U16,3*%
%TO.N,/L5*%
X76200000Y-85090000D03*
%TO.P,U16,2*%
%TO.N,/L6*%
X76200000Y-87630000D03*
%TO.P,U16,1*%
%TO.N,/L7*%
X76200000Y-90170000D03*
%TD*%
%TO.P,U12,22*%
%TO.N,/~R1*%
X93980000Y-24130000D03*
%TO.P,U12,21*%
%TO.N,/~H*%
X93980000Y-26670000D03*
%TO.P,U12,20*%
%TO.N,/~Bank1*%
X93980000Y-29210000D03*
%TO.P,U12,19*%
%TO.N,/R3.7*%
X93980000Y-36830000D03*
%TO.P,U12,18*%
%TO.N,/R3.6*%
X93980000Y-39370000D03*
%TO.P,U12,17*%
%TO.N,/R3.5*%
X93980000Y-41910000D03*
%TO.P,U12,16*%
%TO.N,/R3.4*%
X93980000Y-44450000D03*
%TO.P,U12,15*%
%TO.N,/R3.3*%
X93980000Y-46990000D03*
%TO.P,U12,14*%
%TO.N,/R3.2*%
X93980000Y-49530000D03*
%TO.P,U12,13*%
%TO.N,/R3.1*%
X93980000Y-52070000D03*
%TO.P,U12,12*%
%TO.N,/R3.0*%
X93980000Y-54610000D03*
%TO.P,U12,11*%
%TO.N,VCC*%
X93980000Y-59690000D03*
%TO.P,U12,10*%
%TO.N,GND*%
X93980000Y-62230000D03*
%TO.P,U12,9*%
%TO.N,/~Res*%
X93980000Y-67310000D03*
%TO.P,U12,8*%
%TO.N,/H0*%
X93980000Y-72390000D03*
%TO.P,U12,7*%
%TO.N,/H1*%
X93980000Y-74930000D03*
%TO.P,U12,6*%
%TO.N,/H2*%
X93980000Y-77470000D03*
%TO.P,U12,5*%
%TO.N,/H3*%
X93980000Y-80010000D03*
%TO.P,U12,4*%
%TO.N,/H4*%
X93980000Y-82550000D03*
%TO.P,U12,3*%
%TO.N,/H5*%
X93980000Y-85090000D03*
%TO.P,U12,2*%
%TO.N,/H6*%
X93980000Y-87630000D03*
%TO.P,U12,1*%
%TO.N,/H7*%
X93980000Y-90170000D03*
%TD*%
%TO.P,U11,22*%
%TO.N,/~R1*%
X111760000Y-24130000D03*
%TO.P,U11,21*%
%TO.N,/~L*%
X111760000Y-26670000D03*
%TO.P,U11,20*%
%TO.N,/~Bank1*%
X111760000Y-29210000D03*
%TO.P,U11,19*%
%TO.N,/R2.7*%
X111760000Y-36830000D03*
%TO.P,U11,18*%
%TO.N,/R2.6*%
X111760000Y-39370000D03*
%TO.P,U11,17*%
%TO.N,/R2.5*%
X111760000Y-41910000D03*
%TO.P,U11,16*%
%TO.N,/R2.4*%
X111760000Y-44450000D03*
%TO.P,U11,15*%
%TO.N,/R2.3*%
X111760000Y-46990000D03*
%TO.P,U11,14*%
%TO.N,/R2.2*%
X111760000Y-49530000D03*
%TO.P,U11,13*%
%TO.N,/R2.1*%
X111760000Y-52070000D03*
%TO.P,U11,12*%
%TO.N,/R2.0*%
X111760000Y-54610000D03*
%TO.P,U11,11*%
%TO.N,VCC*%
X111760000Y-59690000D03*
%TO.P,U11,10*%
%TO.N,GND*%
X111760000Y-62230000D03*
%TO.P,U11,9*%
%TO.N,/~Res*%
X111760000Y-67310000D03*
%TO.P,U11,8*%
%TO.N,/L0*%
X111760000Y-72390000D03*
%TO.P,U11,7*%
%TO.N,/L1*%
X111760000Y-74930000D03*
%TO.P,U11,6*%
%TO.N,/L2*%
X111760000Y-77470000D03*
%TO.P,U11,5*%
%TO.N,/L3*%
X111760000Y-80010000D03*
%TO.P,U11,4*%
%TO.N,/L4*%
X111760000Y-82550000D03*
%TO.P,U11,3*%
%TO.N,/L5*%
X111760000Y-85090000D03*
%TO.P,U11,2*%
%TO.N,/L6*%
X111760000Y-87630000D03*
%TO.P,U11,1*%
%TO.N,/L7*%
X111760000Y-90170000D03*
%TD*%
%TO.P,U10,22*%
%TO.N,/~R0*%
X129540000Y-24130000D03*
%TO.P,U10,21*%
%TO.N,/~H*%
X129540000Y-26670000D03*
%TO.P,U10,20*%
%TO.N,/~Bank1*%
X129540000Y-29210000D03*
%TO.P,U10,19*%
%TO.N,/R1.7*%
X129540000Y-36830000D03*
%TO.P,U10,18*%
%TO.N,/R1.6*%
X129540000Y-39370000D03*
%TO.P,U10,17*%
%TO.N,/R1.5*%
X129540000Y-41910000D03*
%TO.P,U10,16*%
%TO.N,/R1.4*%
X129540000Y-44450000D03*
%TO.P,U10,15*%
%TO.N,/R1.3*%
X129540000Y-46990000D03*
%TO.P,U10,14*%
%TO.N,/R1.2*%
X129540000Y-49530000D03*
%TO.P,U10,13*%
%TO.N,/R1.1*%
X129540000Y-52070000D03*
%TO.P,U10,12*%
%TO.N,/R1.0*%
X129540000Y-54610000D03*
%TO.P,U10,11*%
%TO.N,VCC*%
X129540000Y-59690000D03*
%TO.P,U10,10*%
%TO.N,GND*%
X129540000Y-62230000D03*
%TO.P,U10,9*%
%TO.N,/~Res*%
X129540000Y-67310000D03*
%TO.P,U10,8*%
%TO.N,/H0*%
X129540000Y-72390000D03*
%TO.P,U10,7*%
%TO.N,/H1*%
X129540000Y-74930000D03*
%TO.P,U10,6*%
%TO.N,/H2*%
X129540000Y-77470000D03*
%TO.P,U10,5*%
%TO.N,/H3*%
X129540000Y-80010000D03*
%TO.P,U10,4*%
%TO.N,/H4*%
X129540000Y-82550000D03*
%TO.P,U10,3*%
%TO.N,/H5*%
X129540000Y-85090000D03*
%TO.P,U10,2*%
%TO.N,/H6*%
X129540000Y-87630000D03*
%TO.P,U10,1*%
%TO.N,/H7*%
X129540000Y-90170000D03*
%TD*%
%TO.P,U9,22*%
%TO.N,/~R0*%
X147320000Y-24130000D03*
%TO.P,U9,21*%
%TO.N,/~L*%
X147320000Y-26670000D03*
%TO.P,U9,20*%
%TO.N,/~Bank1*%
X147320000Y-29210000D03*
%TO.P,U9,19*%
%TO.N,/R0.7*%
X147320000Y-36830000D03*
%TO.P,U9,18*%
%TO.N,/R0.6*%
X147320000Y-39370000D03*
%TO.P,U9,17*%
%TO.N,/R0.5*%
X147320000Y-41910000D03*
%TO.P,U9,16*%
%TO.N,/R0.4*%
X147320000Y-44450000D03*
%TO.P,U9,15*%
%TO.N,/R0.3*%
X147320000Y-46990000D03*
%TO.P,U9,14*%
%TO.N,/R0.2*%
X147320000Y-49530000D03*
%TO.P,U9,13*%
%TO.N,/R0.1*%
X147320000Y-52070000D03*
%TO.P,U9,12*%
%TO.N,/R0.0*%
X147320000Y-54610000D03*
%TO.P,U9,11*%
%TO.N,VCC*%
X147320000Y-59690000D03*
%TO.P,U9,10*%
%TO.N,GND*%
X147320000Y-62230000D03*
%TO.P,U9,9*%
%TO.N,/~Res*%
X147320000Y-67310000D03*
%TO.P,U9,8*%
%TO.N,/L0*%
X147320000Y-72390000D03*
%TO.P,U9,7*%
%TO.N,/L1*%
X147320000Y-74930000D03*
%TO.P,U9,6*%
%TO.N,/L2*%
X147320000Y-77470000D03*
%TO.P,U9,5*%
%TO.N,/L3*%
X147320000Y-80010000D03*
%TO.P,U9,4*%
%TO.N,/L4*%
X147320000Y-82550000D03*
%TO.P,U9,3*%
%TO.N,/L5*%
X147320000Y-85090000D03*
%TO.P,U9,2*%
%TO.N,/L6*%
X147320000Y-87630000D03*
%TO.P,U9,1*%
%TO.N,/L7*%
X147320000Y-90170000D03*
%TD*%
D18*
%TO.P,J18,9*%
%TO.N,/ALU_H7*%
X170815000Y-77470000D03*
%TO.P,J18,8*%
%TO.N,Net-(J18-Pad8)*%
X170815000Y-74930000D03*
%TO.P,J18,7*%
%TO.N,Net-(J18-Pad7)*%
X170815000Y-72390000D03*
%TO.P,J18,6*%
%TO.N,Net-(J18-Pad6)*%
X170815000Y-69850000D03*
%TO.P,J18,5*%
%TO.N,Net-(J18-Pad5)*%
X170815000Y-67310000D03*
%TO.P,J18,4*%
%TO.N,Net-(J18-Pad4)*%
X170815000Y-64770000D03*
%TO.P,J18,3*%
%TO.N,Net-(J18-Pad3)*%
X170815000Y-62230000D03*
%TO.P,J18,2*%
%TO.N,/ALU_H0*%
X170815000Y-59690000D03*
D19*
%TO.P,J18,1*%
%TO.N,GND*%
X170815000Y-57150000D03*
%TD*%
D18*
%TO.P,J17,9*%
%TO.N,/L7*%
X170815000Y-102870000D03*
%TO.P,J17,8*%
%TO.N,/L6*%
X170815000Y-100330000D03*
%TO.P,J17,7*%
%TO.N,/L5*%
X170815000Y-97790000D03*
%TO.P,J17,6*%
%TO.N,/L4*%
X170815000Y-95250000D03*
%TO.P,J17,5*%
%TO.N,/L3*%
X170815000Y-92710000D03*
%TO.P,J17,4*%
%TO.N,/L2*%
X170815000Y-90170000D03*
%TO.P,J17,3*%
%TO.N,/L1*%
X170815000Y-87630000D03*
%TO.P,J17,2*%
%TO.N,/L0*%
X170815000Y-85090000D03*
D19*
%TO.P,J17,1*%
%TO.N,GND*%
X170815000Y-82550000D03*
%TD*%
D20*
%TO.P,U15,28*%
%TO.N,GND*%
X162560000Y-24130000D03*
%TO.P,U15,27*%
X162560000Y-26670000D03*
%TO.P,U15,26*%
%TO.N,VCC*%
X162560000Y-29210000D03*
%TO.P,U15,25*%
%TO.N,Net-(U14-Pad11)*%
X162560000Y-31750000D03*
%TO.P,U15,24*%
%TO.N,/H0*%
X162560000Y-36830000D03*
%TO.P,U15,23*%
%TO.N,/H1*%
X162560000Y-39370000D03*
%TO.P,U15,22*%
%TO.N,/H2*%
X162560000Y-41910000D03*
%TO.P,U15,21*%
%TO.N,/H3*%
X162560000Y-44450000D03*
%TO.P,U15,20*%
%TO.N,/H4*%
X162560000Y-46990000D03*
%TO.P,U15,19*%
%TO.N,/H5*%
X162560000Y-49530000D03*
%TO.P,U15,18*%
%TO.N,/H6*%
X162560000Y-52070000D03*
%TO.P,U15,17*%
%TO.N,/H7*%
X162560000Y-54610000D03*
%TO.P,U15,16*%
%TO.N,/ALU_H0*%
X162560000Y-59690000D03*
%TO.P,U15,15*%
%TO.N,Net-(J18-Pad3)*%
X162560000Y-62230000D03*
%TO.P,U15,14*%
%TO.N,Net-(J18-Pad4)*%
X162560000Y-64770000D03*
%TO.P,U15,13*%
%TO.N,Net-(J18-Pad5)*%
X162560000Y-67310000D03*
%TO.P,U15,12*%
%TO.N,Net-(J18-Pad6)*%
X162560000Y-69850000D03*
%TO.P,U15,11*%
%TO.N,Net-(J18-Pad7)*%
X162560000Y-72390000D03*
%TO.P,U15,10*%
%TO.N,Net-(J18-Pad8)*%
X162560000Y-74930000D03*
%TO.P,U15,9*%
%TO.N,/ALU_H7*%
X162560000Y-77470000D03*
%TO.P,U15,8*%
%TO.N,/L0*%
X162560000Y-82550000D03*
D21*
%TO.P,U15,7*%
%TO.N,/L1*%
X162560000Y-85090000D03*
%TO.P,U15,6*%
%TO.N,/L2*%
X162560000Y-87630000D03*
D20*
%TO.P,U15,5*%
%TO.N,/L3*%
X162560000Y-90170000D03*
%TO.P,U15,4*%
%TO.N,/L4*%
X162560000Y-92710000D03*
%TO.P,U15,3*%
%TO.N,/L5*%
X162560000Y-95250000D03*
%TO.P,U15,2*%
%TO.N,/L6*%
X162560000Y-97790000D03*
%TO.P,U15,1*%
%TO.N,/L7*%
X162560000Y-100330000D03*
%TD*%
D22*
%TO.P,J16,2*%
%TO.N,GND*%
X39290000Y-105410000D03*
D23*
%TO.P,J16,1*%
%TO.N,Net-(J16-Pad1)*%
X34290000Y-105410000D03*
%TD*%
D24*
%TO.P,U14,14*%
%TO.N,VCC*%
X102870000Y-97790000D03*
%TO.P,U14,7*%
%TO.N,GND*%
X118110000Y-105410000D03*
%TO.P,U14,13*%
%TO.N,/~MUL*%
X105410000Y-97790000D03*
%TO.P,U14,6*%
%TO.N,/~H*%
X115570000Y-105410000D03*
%TO.P,U14,12*%
%TO.N,/~MUL*%
X107950000Y-97790000D03*
%TO.P,U14,5*%
%TO.N,Net-(U13-Pad9)*%
X113030000Y-105410000D03*
%TO.P,U14,11*%
%TO.N,Net-(U14-Pad11)*%
X110490000Y-97790000D03*
%TO.P,U14,4*%
%TO.N,/Latch*%
X110490000Y-105410000D03*
%TO.P,U14,10*%
%TO.N,/~Bank0*%
X113030000Y-97790000D03*
%TO.P,U14,3*%
%TO.N,/~L*%
X107950000Y-105410000D03*
%TO.P,U14,9*%
%TO.N,/~Bank0*%
X115570000Y-97790000D03*
%TO.P,U14,2*%
%TO.N,/Latch*%
X105410000Y-105410000D03*
%TO.P,U14,8*%
%TO.N,/~Bank1*%
X118110000Y-97790000D03*
D25*
%TO.P,U14,1*%
%TO.N,Net-(U13-Pad10)*%
X102870000Y-105410000D03*
%TD*%
D24*
%TO.P,U13,16*%
%TO.N,VCC*%
X49530000Y-97790000D03*
%TO.P,U13,8*%
%TO.N,GND*%
X67310000Y-105410000D03*
%TO.P,U13,15*%
X52070000Y-97790000D03*
%TO.P,U13,7*%
%TO.N,/~R3*%
X64770000Y-105410000D03*
%TO.P,U13,14*%
%TO.N,/DST[0]*%
X54610000Y-97790000D03*
%TO.P,U13,6*%
%TO.N,/~R2*%
X62230000Y-105410000D03*
%TO.P,U13,13*%
%TO.N,/~MUL*%
X57150000Y-97790000D03*
%TO.P,U13,5*%
%TO.N,/~R1*%
X59690000Y-105410000D03*
%TO.P,U13,12*%
%TO.N,Net-(U13-Pad12)*%
X59690000Y-97790000D03*
%TO.P,U13,4*%
%TO.N,/~R0*%
X57150000Y-105410000D03*
%TO.P,U13,11*%
%TO.N,Net-(U13-Pad11)*%
X62230000Y-97790000D03*
%TO.P,U13,3*%
%TO.N,/DST[2]*%
X54610000Y-105410000D03*
%TO.P,U13,10*%
%TO.N,Net-(U13-Pad10)*%
X64770000Y-97790000D03*
%TO.P,U13,2*%
%TO.N,/DST[1]*%
X52070000Y-105410000D03*
%TO.P,U13,9*%
%TO.N,Net-(U13-Pad9)*%
X67310000Y-97790000D03*
D26*
%TO.P,U13,1*%
%TO.N,GND*%
X49530000Y-105410000D03*
%TD*%
D12*
%TO.P,J15,1*%
%TO.N,/Latch*%
X105410000Y-109220000D03*
%TD*%
%TO.P,J14,1*%
%TO.N,/~Bank0*%
X126047500Y-102235000D03*
%TD*%
%TO.P,J13,1*%
%TO.N,/~Res*%
X87630000Y-67310000D03*
%TD*%
D27*
%TO.P,J12,1*%
%TO.N,/~MUL*%
X78105000Y-100330000D03*
%TD*%
D28*
%TO.P,J11,3*%
%TO.N,/DST[2]*%
X54610000Y-109220000D03*
%TO.P,J11,2*%
%TO.N,/DST[1]*%
X52070000Y-109220000D03*
D29*
%TO.P,J11,1*%
%TO.N,/DST[0]*%
X49530000Y-109220000D03*
%TD*%
D15*
%TO.P,U1,22*%
%TO.N,/~R0*%
X152400000Y-24130000D03*
%TO.P,U1,21*%
%TO.N,/~L*%
X152400000Y-26670000D03*
%TO.P,U1,20*%
%TO.N,/~Bank0*%
X152400000Y-29210000D03*
%TO.P,U1,19*%
%TO.N,/R0.7*%
X152400000Y-36830000D03*
%TO.P,U1,18*%
%TO.N,/R0.6*%
X152400000Y-39370000D03*
%TO.P,U1,17*%
%TO.N,/R0.5*%
X152400000Y-41910000D03*
%TO.P,U1,16*%
%TO.N,/R0.4*%
X152400000Y-44450000D03*
%TO.P,U1,15*%
%TO.N,/R0.3*%
X152400000Y-46990000D03*
%TO.P,U1,14*%
%TO.N,/R0.2*%
X152400000Y-49530000D03*
%TO.P,U1,13*%
%TO.N,/R0.1*%
X152400000Y-52070000D03*
%TO.P,U1,12*%
%TO.N,/R0.0*%
X152400000Y-54610000D03*
%TO.P,U1,11*%
%TO.N,VCC*%
X152400000Y-59690000D03*
%TO.P,U1,10*%
%TO.N,GND*%
X152400000Y-62230000D03*
%TO.P,U1,9*%
%TO.N,/~Res*%
X152400000Y-67310000D03*
%TO.P,U1,8*%
%TO.N,/L0*%
X152400000Y-72390000D03*
%TO.P,U1,7*%
%TO.N,/L1*%
X152400000Y-74930000D03*
%TO.P,U1,6*%
%TO.N,/L2*%
X152400000Y-77470000D03*
%TO.P,U1,5*%
%TO.N,/L3*%
X152400000Y-80010000D03*
%TO.P,U1,4*%
%TO.N,/L4*%
X152400000Y-82550000D03*
%TO.P,U1,3*%
%TO.N,/L5*%
X152400000Y-85090000D03*
%TO.P,U1,2*%
%TO.N,/L6*%
X152400000Y-87630000D03*
%TO.P,U1,1*%
%TO.N,/L7*%
X152400000Y-90170000D03*
%TD*%
%TO.P,U8,22*%
%TO.N,/~R3*%
X27940000Y-24130000D03*
%TO.P,U8,21*%
%TO.N,/~H*%
X27940000Y-26670000D03*
%TO.P,U8,20*%
%TO.N,/~Bank0*%
X27940000Y-29210000D03*
%TO.P,U8,19*%
%TO.N,/R7.7*%
X27940000Y-36830000D03*
%TO.P,U8,18*%
%TO.N,/R7.6*%
X27940000Y-39370000D03*
%TO.P,U8,17*%
%TO.N,/R7.5*%
X27940000Y-41910000D03*
%TO.P,U8,16*%
%TO.N,/R7.4*%
X27940000Y-44450000D03*
%TO.P,U8,15*%
%TO.N,/R7.3*%
X27940000Y-46990000D03*
%TO.P,U8,14*%
%TO.N,/R7.2*%
X27940000Y-49530000D03*
%TO.P,U8,13*%
%TO.N,/R7.1*%
X27940000Y-52070000D03*
%TO.P,U8,12*%
%TO.N,/R7.0*%
X27940000Y-54610000D03*
%TO.P,U8,11*%
%TO.N,VCC*%
X27940000Y-59690000D03*
%TO.P,U8,10*%
%TO.N,GND*%
X27940000Y-62230000D03*
%TO.P,U8,9*%
%TO.N,/~Res*%
X27940000Y-67310000D03*
%TO.P,U8,8*%
%TO.N,/H0*%
X27940000Y-72390000D03*
%TO.P,U8,7*%
%TO.N,/H1*%
X27940000Y-74930000D03*
%TO.P,U8,6*%
%TO.N,/H2*%
X27940000Y-77470000D03*
%TO.P,U8,5*%
%TO.N,/H3*%
X27940000Y-80010000D03*
%TO.P,U8,4*%
%TO.N,/H4*%
X27940000Y-82550000D03*
%TO.P,U8,3*%
%TO.N,/H5*%
X27940000Y-85090000D03*
%TO.P,U8,2*%
%TO.N,/H6*%
X27940000Y-87630000D03*
%TO.P,U8,1*%
%TO.N,/H7*%
X27940000Y-90170000D03*
%TD*%
%TO.P,U6,22*%
%TO.N,/~R2*%
X63500000Y-24130000D03*
%TO.P,U6,21*%
%TO.N,/~H*%
X63500000Y-26670000D03*
%TO.P,U6,20*%
%TO.N,/~Bank0*%
X63500000Y-29210000D03*
%TO.P,U6,19*%
%TO.N,/R5.7*%
X63500000Y-36830000D03*
%TO.P,U6,18*%
%TO.N,/R5.6*%
X63500000Y-39370000D03*
%TO.P,U6,17*%
%TO.N,/R5.5*%
X63500000Y-41910000D03*
%TO.P,U6,16*%
%TO.N,/R5.4*%
X63500000Y-44450000D03*
%TO.P,U6,15*%
%TO.N,/R5.3*%
X63500000Y-46990000D03*
%TO.P,U6,14*%
%TO.N,/R5.2*%
X63500000Y-49530000D03*
%TO.P,U6,13*%
%TO.N,/R5.1*%
X63500000Y-52070000D03*
%TO.P,U6,12*%
%TO.N,/R5.0*%
X63500000Y-54610000D03*
%TO.P,U6,11*%
%TO.N,VCC*%
X63500000Y-59690000D03*
%TO.P,U6,10*%
%TO.N,GND*%
X63500000Y-62230000D03*
%TO.P,U6,9*%
%TO.N,/~Res*%
X63500000Y-67310000D03*
%TO.P,U6,8*%
%TO.N,/H0*%
X63500000Y-72390000D03*
%TO.P,U6,7*%
%TO.N,/H1*%
X63500000Y-74930000D03*
%TO.P,U6,6*%
%TO.N,/H2*%
X63500000Y-77470000D03*
%TO.P,U6,5*%
%TO.N,/H3*%
X63500000Y-80010000D03*
%TO.P,U6,4*%
%TO.N,/H4*%
X63500000Y-82550000D03*
%TO.P,U6,3*%
%TO.N,/H5*%
X63500000Y-85090000D03*
%TO.P,U6,2*%
%TO.N,/H6*%
X63500000Y-87630000D03*
%TO.P,U6,1*%
%TO.N,/H7*%
X63500000Y-90170000D03*
%TD*%
%TO.P,U4,22*%
%TO.N,/~R1*%
X99060000Y-24130000D03*
%TO.P,U4,21*%
%TO.N,/~H*%
X99060000Y-26670000D03*
%TO.P,U4,20*%
%TO.N,/~Bank0*%
X99060000Y-29210000D03*
%TO.P,U4,19*%
%TO.N,/R3.7*%
X99060000Y-36830000D03*
%TO.P,U4,18*%
%TO.N,/R3.6*%
X99060000Y-39370000D03*
%TO.P,U4,17*%
%TO.N,/R3.5*%
X99060000Y-41910000D03*
%TO.P,U4,16*%
%TO.N,/R3.4*%
X99060000Y-44450000D03*
%TO.P,U4,15*%
%TO.N,/R3.3*%
X99060000Y-46990000D03*
%TO.P,U4,14*%
%TO.N,/R3.2*%
X99060000Y-49530000D03*
%TO.P,U4,13*%
%TO.N,/R3.1*%
X99060000Y-52070000D03*
%TO.P,U4,12*%
%TO.N,/R3.0*%
X99060000Y-54610000D03*
%TO.P,U4,11*%
%TO.N,VCC*%
X99060000Y-59690000D03*
%TO.P,U4,10*%
%TO.N,GND*%
X99060000Y-62230000D03*
%TO.P,U4,9*%
%TO.N,/~Res*%
X99060000Y-67310000D03*
%TO.P,U4,8*%
%TO.N,/H0*%
X99060000Y-72390000D03*
%TO.P,U4,7*%
%TO.N,/H1*%
X99060000Y-74930000D03*
%TO.P,U4,6*%
%TO.N,/H2*%
X99060000Y-77470000D03*
%TO.P,U4,5*%
%TO.N,/H3*%
X99060000Y-80010000D03*
%TO.P,U4,4*%
%TO.N,/H4*%
X99060000Y-82550000D03*
%TO.P,U4,3*%
%TO.N,/H5*%
X99060000Y-85090000D03*
%TO.P,U4,2*%
%TO.N,/H6*%
X99060000Y-87630000D03*
%TO.P,U4,1*%
%TO.N,/H7*%
X99060000Y-90170000D03*
%TD*%
%TO.P,U2,22*%
%TO.N,/~R0*%
X134620000Y-24130000D03*
%TO.P,U2,21*%
%TO.N,/~H*%
X134620000Y-26670000D03*
%TO.P,U2,20*%
%TO.N,/~Bank0*%
X134620000Y-29210000D03*
%TO.P,U2,19*%
%TO.N,/R1.7*%
X134620000Y-36830000D03*
%TO.P,U2,18*%
%TO.N,/R1.6*%
X134620000Y-39370000D03*
%TO.P,U2,17*%
%TO.N,/R1.5*%
X134620000Y-41910000D03*
%TO.P,U2,16*%
%TO.N,/R1.4*%
X134620000Y-44450000D03*
%TO.P,U2,15*%
%TO.N,/R1.3*%
X134620000Y-46990000D03*
%TO.P,U2,14*%
%TO.N,/R1.2*%
X134620000Y-49530000D03*
%TO.P,U2,13*%
%TO.N,/R1.1*%
X134620000Y-52070000D03*
%TO.P,U2,12*%
%TO.N,/R1.0*%
X134620000Y-54610000D03*
%TO.P,U2,11*%
%TO.N,VCC*%
X134620000Y-59690000D03*
%TO.P,U2,10*%
%TO.N,GND*%
X134620000Y-62230000D03*
%TO.P,U2,9*%
%TO.N,/~Res*%
X134620000Y-67310000D03*
%TO.P,U2,8*%
%TO.N,/H0*%
X134620000Y-72390000D03*
%TO.P,U2,7*%
%TO.N,/H1*%
X134620000Y-74930000D03*
%TO.P,U2,6*%
%TO.N,/H2*%
X134620000Y-77470000D03*
%TO.P,U2,5*%
%TO.N,/H3*%
X134620000Y-80010000D03*
%TO.P,U2,4*%
%TO.N,/H4*%
X134620000Y-82550000D03*
%TO.P,U2,3*%
%TO.N,/H5*%
X134620000Y-85090000D03*
%TO.P,U2,2*%
%TO.N,/H6*%
X134620000Y-87630000D03*
%TO.P,U2,1*%
%TO.N,/H7*%
X134620000Y-90170000D03*
%TD*%
%TO.P,U7,22*%
%TO.N,/~R3*%
X45720000Y-24130000D03*
%TO.P,U7,21*%
%TO.N,/~L*%
X45720000Y-26670000D03*
%TO.P,U7,20*%
%TO.N,/~Bank0*%
X45720000Y-29210000D03*
%TO.P,U7,19*%
%TO.N,/R6.7*%
X45720000Y-36830000D03*
%TO.P,U7,18*%
%TO.N,/R6.6*%
X45720000Y-39370000D03*
%TO.P,U7,17*%
%TO.N,/R6.5*%
X45720000Y-41910000D03*
%TO.P,U7,16*%
%TO.N,/R6.4*%
X45720000Y-44450000D03*
%TO.P,U7,15*%
%TO.N,/R6.3*%
X45720000Y-46990000D03*
%TO.P,U7,14*%
%TO.N,/R6.2*%
X45720000Y-49530000D03*
%TO.P,U7,13*%
%TO.N,/R6.1*%
X45720000Y-52070000D03*
%TO.P,U7,12*%
%TO.N,/R6.0*%
X45720000Y-54610000D03*
%TO.P,U7,11*%
%TO.N,VCC*%
X45720000Y-59690000D03*
%TO.P,U7,10*%
%TO.N,GND*%
X45720000Y-62230000D03*
%TO.P,U7,9*%
%TO.N,/~Res*%
X45720000Y-67310000D03*
%TO.P,U7,8*%
%TO.N,/L0*%
X45720000Y-72390000D03*
%TO.P,U7,7*%
%TO.N,/L1*%
X45720000Y-74930000D03*
%TO.P,U7,6*%
%TO.N,/L2*%
X45720000Y-77470000D03*
%TO.P,U7,5*%
%TO.N,/L3*%
X45720000Y-80010000D03*
%TO.P,U7,4*%
%TO.N,/L4*%
X45720000Y-82550000D03*
%TO.P,U7,3*%
%TO.N,/L5*%
X45720000Y-85090000D03*
%TO.P,U7,2*%
%TO.N,/L6*%
X45720000Y-87630000D03*
%TO.P,U7,1*%
%TO.N,/L7*%
X45720000Y-90170000D03*
%TD*%
%TO.P,U5,22*%
%TO.N,/~R2*%
X81280000Y-24130000D03*
%TO.P,U5,21*%
%TO.N,/~L*%
X81280000Y-26670000D03*
%TO.P,U5,20*%
%TO.N,/~Bank0*%
X81280000Y-29210000D03*
%TO.P,U5,19*%
%TO.N,/R4.7*%
X81280000Y-36830000D03*
%TO.P,U5,18*%
%TO.N,/R4.6*%
X81280000Y-39370000D03*
%TO.P,U5,17*%
%TO.N,/R4.5*%
X81280000Y-41910000D03*
%TO.P,U5,16*%
%TO.N,/R4.4*%
X81280000Y-44450000D03*
%TO.P,U5,15*%
%TO.N,/R4.3*%
X81280000Y-46990000D03*
%TO.P,U5,14*%
%TO.N,/R4.2*%
X81280000Y-49530000D03*
%TO.P,U5,13*%
%TO.N,/R4.1*%
X81280000Y-52070000D03*
%TO.P,U5,12*%
%TO.N,/R4.0*%
X81280000Y-54610000D03*
%TO.P,U5,11*%
%TO.N,VCC*%
X81280000Y-59690000D03*
%TO.P,U5,10*%
%TO.N,GND*%
X81280000Y-62230000D03*
%TO.P,U5,9*%
%TO.N,/~Res*%
X81280000Y-67310000D03*
%TO.P,U5,8*%
%TO.N,/L0*%
X81280000Y-72390000D03*
%TO.P,U5,7*%
%TO.N,/L1*%
X81280000Y-74930000D03*
%TO.P,U5,6*%
%TO.N,/L2*%
X81280000Y-77470000D03*
%TO.P,U5,5*%
%TO.N,/L3*%
X81280000Y-80010000D03*
%TO.P,U5,4*%
%TO.N,/L4*%
X81280000Y-82550000D03*
%TO.P,U5,3*%
%TO.N,/L5*%
X81280000Y-85090000D03*
%TO.P,U5,2*%
%TO.N,/L6*%
X81280000Y-87630000D03*
%TO.P,U5,1*%
%TO.N,/L7*%
X81280000Y-90170000D03*
%TD*%
%TO.P,U3,22*%
%TO.N,/~R1*%
X116840000Y-24130000D03*
%TO.P,U3,21*%
%TO.N,/~L*%
X116840000Y-26670000D03*
%TO.P,U3,20*%
%TO.N,/~Bank0*%
X116840000Y-29210000D03*
%TO.P,U3,19*%
%TO.N,/R2.7*%
X116840000Y-36830000D03*
%TO.P,U3,18*%
%TO.N,/R2.6*%
X116840000Y-39370000D03*
%TO.P,U3,17*%
%TO.N,/R2.5*%
X116840000Y-41910000D03*
%TO.P,U3,16*%
%TO.N,/R2.4*%
X116840000Y-44450000D03*
%TO.P,U3,15*%
%TO.N,/R2.3*%
X116840000Y-46990000D03*
%TO.P,U3,14*%
%TO.N,/R2.2*%
X116840000Y-49530000D03*
%TO.P,U3,13*%
%TO.N,/R2.1*%
X116840000Y-52070000D03*
%TO.P,U3,12*%
%TO.N,/R2.0*%
X116840000Y-54610000D03*
%TO.P,U3,11*%
%TO.N,VCC*%
X116840000Y-59690000D03*
%TO.P,U3,10*%
%TO.N,GND*%
X116840000Y-62230000D03*
%TO.P,U3,9*%
%TO.N,/~Res*%
X116840000Y-67310000D03*
%TO.P,U3,8*%
%TO.N,/L0*%
X116840000Y-72390000D03*
%TO.P,U3,7*%
%TO.N,/L1*%
X116840000Y-74930000D03*
%TO.P,U3,6*%
%TO.N,/L2*%
X116840000Y-77470000D03*
%TO.P,U3,5*%
%TO.N,/L3*%
X116840000Y-80010000D03*
%TO.P,U3,4*%
%TO.N,/L4*%
X116840000Y-82550000D03*
%TO.P,U3,3*%
%TO.N,/L5*%
X116840000Y-85090000D03*
%TO.P,U3,2*%
%TO.N,/L6*%
X116840000Y-87630000D03*
%TO.P,U3,1*%
%TO.N,/L7*%
X116840000Y-90170000D03*
%TD*%
D30*
%TO.N,/H0*%
X137795000Y-72390000D03*
%TO.N,/H1*%
X137795000Y-74930000D03*
%TO.N,/H2*%
X137795000Y-77470000D03*
%TO.N,/H3*%
X137795000Y-80010000D03*
%TO.N,/H4*%
X137795000Y-82550000D03*
%TO.N,/H5*%
X137795000Y-85090000D03*
%TO.N,/H6*%
X137795000Y-87630000D03*
%TO.N,/H7*%
X137795000Y-90170000D03*
%TO.N,/R0.7*%
X144462500Y-30797500D03*
%TO.N,/R0.6*%
X144145000Y-34290000D03*
%TO.N,/R0.5*%
X143510000Y-40640000D03*
%TO.N,/R0.4*%
X143510000Y-44450000D03*
%TO.N,/R0.3*%
X144145000Y-46990000D03*
%TO.N,/R0.2*%
X143510000Y-49530000D03*
%TO.N,/R0.1*%
X143510000Y-53340000D03*
%TO.N,/R0.0*%
X144145000Y-58420000D03*
%TO.N,/R1.7*%
X127000000Y-31115000D03*
%TO.N,/R1.6*%
X126365000Y-34290000D03*
%TO.N,/R1.5*%
X125730000Y-40640000D03*
%TO.N,/R1.4*%
X125730000Y-44450000D03*
%TO.N,/R1.3*%
X126365000Y-46990000D03*
%TO.N,/R1.2*%
X125730000Y-49530000D03*
%TO.N,/R1.1*%
X125730000Y-53340000D03*
%TO.N,/R1.0*%
X126365000Y-58420000D03*
%TO.N,/R2.7*%
X111760000Y-33655000D03*
%TO.N,/R2.6*%
X108585000Y-34290000D03*
%TO.N,/R2.5*%
X107950000Y-40640000D03*
%TO.N,/R2.4*%
X107950000Y-44450000D03*
%TO.N,/R2.3*%
X108585000Y-46990000D03*
%TO.N,/R2.2*%
X107950000Y-49530000D03*
%TO.N,/R2.1*%
X107950000Y-53340000D03*
%TO.N,/R2.0*%
X108585000Y-58420000D03*
%TO.N,/R3.7*%
X93980000Y-33655000D03*
%TO.N,/R3.6*%
X90805000Y-34290000D03*
%TO.N,/R3.5*%
X90170000Y-40640000D03*
%TO.N,/R3.4*%
X90170000Y-44450000D03*
%TO.N,/R3.3*%
X90805000Y-46990000D03*
%TO.N,/R3.2*%
X90170000Y-49530000D03*
%TO.N,/R3.1*%
X90170000Y-53340000D03*
%TO.N,/R3.0*%
X90805000Y-58420000D03*
%TO.N,/R4.7*%
X76200000Y-33655000D03*
%TO.N,/R4.6*%
X73025000Y-34290000D03*
%TO.N,/R4.5*%
X72390000Y-40640000D03*
%TO.N,/R4.4*%
X72390000Y-44450000D03*
%TO.N,/R4.3*%
X73025000Y-46990000D03*
%TO.N,/R4.2*%
X72390000Y-49530000D03*
%TO.N,/R4.1*%
X72390000Y-53340000D03*
%TO.N,/R4.0*%
X73025000Y-58420000D03*
%TO.N,/R5.7*%
X58420000Y-33655000D03*
%TO.N,/R5.6*%
X55245000Y-34290000D03*
%TO.N,/R5.5*%
X54610000Y-40640000D03*
%TO.N,/R5.4*%
X54610000Y-44450000D03*
%TO.N,/R5.3*%
X55245000Y-46990000D03*
%TO.N,/R5.2*%
X54610000Y-49530000D03*
%TO.N,/R5.1*%
X54610000Y-53340000D03*
%TO.N,/R5.0*%
X55245000Y-58420000D03*
%TO.N,/R6.7*%
X40640000Y-33655000D03*
%TO.N,/R6.6*%
X37465000Y-34290000D03*
%TO.N,/R6.5*%
X36830000Y-40640000D03*
%TO.N,/R6.4*%
X36830000Y-44450000D03*
%TO.N,/R6.3*%
X37465000Y-46990000D03*
%TO.N,/R6.2*%
X36830000Y-49530000D03*
%TO.N,/R6.1*%
X36830000Y-53340000D03*
%TO.N,/R6.0*%
X37465000Y-58420000D03*
%TO.N,/R7.7*%
X20955000Y-31750000D03*
%TO.N,/R7.6*%
X19685000Y-34290000D03*
%TO.N,/R7.5*%
X19050000Y-40640000D03*
%TO.N,/R7.4*%
X19050000Y-44450000D03*
%TO.N,/R7.3*%
X19685000Y-46990000D03*
%TO.N,/R7.2*%
X19050000Y-49530000D03*
%TO.N,/R7.1*%
X19050000Y-53340000D03*
%TO.N,/R7.0*%
X19685000Y-58420000D03*
%TO.N,VCC*%
X27940000Y-97790000D03*
X38735000Y-97790000D03*
%TO.N,/~R0*%
X102870000Y-22225000D03*
%TO.N,/~L*%
X138747500Y-24130000D03*
X132080000Y-105410000D03*
%TO.N,/~Res*%
X109220000Y-67310000D03*
X109220000Y-93980000D03*
%TO.N,/~H*%
X126365000Y-106680000D03*
X137160000Y-26670000D03*
%TO.N,/~R1*%
X78740000Y-22225000D03*
%TO.N,/~R2*%
X60960000Y-24130000D03*
%TO.N,/~R3*%
X48895000Y-24130000D03*
%TO.N,/DST[0]*%
X54610000Y-99695000D03*
X54610000Y-103505000D03*
%TO.N,/~Bank0*%
X132080000Y-29210000D03*
X30480000Y-29210000D03*
X30480000Y-33020000D03*
X47625000Y-29210000D03*
X47625000Y-33020000D03*
X65405000Y-29210000D03*
X118745000Y-33020000D03*
X118745000Y-29210000D03*
X83185000Y-29210000D03*
X83185000Y-33020000D03*
X65405000Y-33020000D03*
X100965000Y-29210000D03*
X100965000Y-33020000D03*
%TO.N,/~Bank1*%
X114300000Y-31115000D03*
X86360000Y-96520000D03*
%TO.N,Net-(U14-Pad11)*%
X152400000Y-95250000D03*
%TD*%
D31*
%TO.N,/H0*%
X161290000Y-36830000D02*
X162560000Y-36830000D01*
X154940000Y-43180000D02*
X161290000Y-36830000D01*
X151130000Y-43180000D02*
X154940000Y-43180000D01*
X150495000Y-43815000D02*
X151130000Y-43180000D01*
X150495000Y-69850000D02*
X150495000Y-43815000D01*
X149225000Y-71120000D02*
X150495000Y-69850000D01*
X141605000Y-71120000D02*
X149225000Y-71120000D01*
X140335000Y-72390000D02*
X141605000Y-71120000D01*
X137795000Y-72390000D02*
X140335000Y-72390000D01*
%TO.N,/H1*%
X140335000Y-74930000D02*
X137795000Y-74930000D01*
X141605000Y-73660000D02*
X140335000Y-74930000D01*
X154305000Y-73660000D02*
X141605000Y-73660000D01*
X154305000Y-46355000D02*
X154305000Y-73660000D01*
X161290000Y-39370000D02*
X154305000Y-46355000D01*
X162560000Y-39370000D02*
X161290000Y-39370000D01*
%TO.N,/H2*%
X161290000Y-41910000D02*
X162560000Y-41910000D01*
X155575000Y-47625000D02*
X161290000Y-41910000D01*
X155575000Y-74295000D02*
X155575000Y-47625000D01*
X153670000Y-76200000D02*
X155575000Y-74295000D01*
X141605000Y-76200000D02*
X153670000Y-76200000D01*
X140335000Y-77470000D02*
X141605000Y-76200000D01*
X137795000Y-77470000D02*
X140335000Y-77470000D01*
%TO.N,/H3*%
X161290000Y-44450000D02*
X162560000Y-44450000D01*
X156845000Y-48895000D02*
X161290000Y-44450000D01*
X140335000Y-80010000D02*
X141605000Y-78740000D01*
X137795000Y-80010000D02*
X140335000Y-80010000D01*
X153670000Y-78740000D02*
X156845000Y-75565000D01*
X156845000Y-75565000D02*
X156845000Y-48895000D01*
X141605000Y-78740000D02*
X153670000Y-78740000D01*
%TO.N,/H4*%
X161290000Y-46990000D02*
X162560000Y-46990000D01*
X158115000Y-50165000D02*
X161290000Y-46990000D01*
X140335000Y-82550000D02*
X141605000Y-81280000D01*
X137795000Y-82550000D02*
X140335000Y-82550000D01*
X153670000Y-81280000D02*
X158115000Y-76835000D01*
X158115000Y-76835000D02*
X158115000Y-50165000D01*
X141605000Y-81280000D02*
X153670000Y-81280000D01*
%TO.N,/H5*%
X161290000Y-49530000D02*
X162560000Y-49530000D01*
X159385000Y-51435000D02*
X161290000Y-49530000D01*
X159385000Y-78105000D02*
X159385000Y-51435000D01*
X153670000Y-83820000D02*
X159385000Y-78105000D01*
X141605000Y-83820000D02*
X153670000Y-83820000D01*
X140335000Y-85090000D02*
X141605000Y-83820000D01*
X137795000Y-85090000D02*
X140335000Y-85090000D01*
%TO.N,/H6*%
X161290000Y-52070000D02*
X162560000Y-52070000D01*
X160655000Y-52705000D02*
X161290000Y-52070000D01*
X160655000Y-79375000D02*
X160655000Y-52705000D01*
X153670000Y-86360000D02*
X160655000Y-79375000D01*
X141605000Y-86360000D02*
X153670000Y-86360000D01*
X140335000Y-87630000D02*
X141605000Y-86360000D01*
X137795000Y-87630000D02*
X140335000Y-87630000D01*
%TO.N,/H7*%
X164465000Y-55245000D02*
X163830000Y-54610000D01*
X164465000Y-78105000D02*
X164465000Y-55245000D01*
X153670000Y-88900000D02*
X164465000Y-78105000D01*
X141605000Y-88900000D02*
X153670000Y-88900000D01*
X163830000Y-54610000D02*
X162560000Y-54610000D01*
X140335000Y-90170000D02*
X141605000Y-88900000D01*
X137795000Y-90170000D02*
X140335000Y-90170000D01*
%TO.N,/R0.7*%
X140970000Y-26670000D02*
X143510000Y-26670000D01*
X143510000Y-29845000D02*
X144462500Y-30797500D01*
X143510000Y-26670000D02*
X143510000Y-29845000D01*
%TO.N,/R0.6*%
X142240000Y-31750000D02*
X144145000Y-33655000D01*
X144145000Y-33655000D02*
X144145000Y-34290000D01*
X140970000Y-31750000D02*
X142240000Y-31750000D01*
%TO.N,/R0.5*%
X140970000Y-36830000D02*
X142875000Y-36830000D01*
X142875000Y-36830000D02*
X142875000Y-40005000D01*
X142875000Y-40005000D02*
X143510000Y-40640000D01*
%TO.N,/R0.4*%
X140970000Y-41910000D02*
X143510000Y-44450000D01*
%TO.N,/R0.3*%
X140970000Y-46990000D02*
X144145000Y-46990000D01*
%TO.N,/R0.2*%
X140970000Y-52070000D02*
X143510000Y-49530000D01*
%TO.N,/R0.1*%
X142875000Y-53975000D02*
X143510000Y-53340000D01*
X142875000Y-57150000D02*
X142875000Y-53975000D01*
X140970000Y-57150000D02*
X142875000Y-57150000D01*
%TO.N,/R0.0*%
X142240000Y-62230000D02*
X144145000Y-60325000D01*
X144145000Y-59690000D02*
X144145000Y-58420000D01*
X140970000Y-62230000D02*
X142240000Y-62230000D01*
X144145000Y-59690000D02*
X144145000Y-60325000D01*
%TO.N,/R1.7*%
X123190000Y-26670000D02*
X125730000Y-26670000D01*
X125730000Y-26670000D02*
X125730000Y-29845000D01*
X125730000Y-29845000D02*
X127000000Y-31115000D01*
%TO.N,/R1.6*%
X123190000Y-31750000D02*
X124460000Y-31750000D01*
X124460000Y-31750000D02*
X126365000Y-33655000D01*
X126365000Y-33655000D02*
X126365000Y-34290000D01*
X126365000Y-34290000D02*
X126365000Y-34290000D01*
%TO.N,/R1.5*%
X123190000Y-36830000D02*
X125095000Y-36830000D01*
X125095000Y-36830000D02*
X125095000Y-40005000D01*
X125095000Y-40005000D02*
X125730000Y-40640000D01*
X125730000Y-40640000D02*
X125730000Y-40640000D01*
%TO.N,/R1.4*%
X123190000Y-41910000D02*
X125730000Y-44450000D01*
X125730000Y-44450000D02*
X125730000Y-44450000D01*
%TO.N,/R1.3*%
X123190000Y-46990000D02*
X126365000Y-46990000D01*
X126365000Y-46990000D02*
X126365000Y-46990000D01*
%TO.N,/R1.2*%
X123190000Y-52070000D02*
X125730000Y-49530000D01*
X125730000Y-49530000D02*
X125730000Y-49530000D01*
%TO.N,/R1.1*%
X123190000Y-57150000D02*
X125095000Y-57150000D01*
X125095000Y-57150000D02*
X125095000Y-53975000D01*
X125095000Y-53975000D02*
X125730000Y-53340000D01*
X125730000Y-53340000D02*
X125730000Y-53340000D01*
%TO.N,/R1.0*%
X123190000Y-62230000D02*
X124460000Y-62230000D01*
X124460000Y-62230000D02*
X126365000Y-60325000D01*
X126365000Y-60325000D02*
X126365000Y-58420000D01*
X126365000Y-58420000D02*
X126365000Y-58420000D01*
%TO.N,/R2.7*%
X105410000Y-26670000D02*
X107950000Y-26670000D01*
X107950000Y-26670000D02*
X107950000Y-29845000D01*
X107950000Y-29845000D02*
X109855000Y-31750000D01*
X111760000Y-33655000D02*
X109855000Y-31750000D01*
%TO.N,/R2.6*%
X105410000Y-31750000D02*
X106680000Y-31750000D01*
X106680000Y-31750000D02*
X108585000Y-33655000D01*
X108585000Y-33655000D02*
X108585000Y-34290000D01*
X108585000Y-34290000D02*
X108585000Y-34290000D01*
%TO.N,/R2.5*%
X105410000Y-36830000D02*
X107315000Y-36830000D01*
X107315000Y-36830000D02*
X107315000Y-40005000D01*
X107315000Y-40005000D02*
X107950000Y-40640000D01*
X107950000Y-40640000D02*
X107950000Y-40640000D01*
%TO.N,/R2.4*%
X105410000Y-41910000D02*
X107950000Y-44450000D01*
X107950000Y-44450000D02*
X107950000Y-44450000D01*
%TO.N,/R2.3*%
X105410000Y-46990000D02*
X108585000Y-46990000D01*
X108585000Y-46990000D02*
X108585000Y-46990000D01*
%TO.N,/R2.2*%
X105410000Y-52070000D02*
X107950000Y-49530000D01*
X107950000Y-49530000D02*
X107950000Y-49530000D01*
%TO.N,/R2.1*%
X105410000Y-57150000D02*
X107315000Y-57150000D01*
X107315000Y-57150000D02*
X107315000Y-53975000D01*
X107315000Y-53975000D02*
X107950000Y-53340000D01*
X107950000Y-53340000D02*
X107950000Y-53340000D01*
%TO.N,/R2.0*%
X105410000Y-62230000D02*
X106680000Y-62230000D01*
X106680000Y-62230000D02*
X108585000Y-60325000D01*
X108585000Y-60325000D02*
X108585000Y-58420000D01*
X108585000Y-58420000D02*
X108585000Y-58420000D01*
%TO.N,/R3.7*%
X87630000Y-26670000D02*
X90170000Y-26670000D01*
X90170000Y-26670000D02*
X90170000Y-29845000D01*
X90170000Y-29845000D02*
X92075000Y-31750000D01*
X92075000Y-31750000D02*
X92075000Y-31750000D01*
X93980000Y-33655000D02*
X92075000Y-31750000D01*
%TO.N,/R3.6*%
X87630000Y-31750000D02*
X88900000Y-31750000D01*
X88900000Y-31750000D02*
X90805000Y-33655000D01*
X90805000Y-33655000D02*
X90805000Y-34290000D01*
X90805000Y-34290000D02*
X90805000Y-34290000D01*
%TO.N,/R3.5*%
X87630000Y-36830000D02*
X89535000Y-36830000D01*
X89535000Y-36830000D02*
X89535000Y-40005000D01*
X89535000Y-40005000D02*
X90170000Y-40640000D01*
X90170000Y-40640000D02*
X90170000Y-40640000D01*
%TO.N,/R3.4*%
X87630000Y-41910000D02*
X90170000Y-44450000D01*
X90170000Y-44450000D02*
X90170000Y-44450000D01*
%TO.N,/R3.3*%
X87630000Y-46990000D02*
X90805000Y-46990000D01*
X90805000Y-46990000D02*
X90805000Y-46990000D01*
%TO.N,/R3.2*%
X87630000Y-52070000D02*
X90170000Y-49530000D01*
X90170000Y-49530000D02*
X90170000Y-49530000D01*
%TO.N,/R3.1*%
X87630000Y-57150000D02*
X89535000Y-57150000D01*
X89535000Y-57150000D02*
X89535000Y-53975000D01*
X89535000Y-53975000D02*
X90170000Y-53340000D01*
X90170000Y-53340000D02*
X90170000Y-53340000D01*
%TO.N,/R3.0*%
X87630000Y-62230000D02*
X88900000Y-62230000D01*
X88900000Y-62230000D02*
X90805000Y-60325000D01*
X90805000Y-60325000D02*
X90805000Y-58420000D01*
X90805000Y-58420000D02*
X90805000Y-58420000D01*
%TO.N,/R4.7*%
X69850000Y-26670000D02*
X72390000Y-26670000D01*
X72390000Y-26670000D02*
X72390000Y-29845000D01*
X72390000Y-29845000D02*
X74295000Y-31750000D01*
X74295000Y-31750000D02*
X74295000Y-31750000D01*
X76200000Y-33655000D02*
X74295000Y-31750000D01*
%TO.N,/R4.6*%
X69850000Y-31750000D02*
X71120000Y-31750000D01*
X71120000Y-31750000D02*
X73025000Y-33655000D01*
X73025000Y-33655000D02*
X73025000Y-34290000D01*
X73025000Y-34290000D02*
X73025000Y-34290000D01*
%TO.N,/R4.5*%
X69850000Y-36830000D02*
X71755000Y-36830000D01*
X71755000Y-36830000D02*
X71755000Y-40005000D01*
X71755000Y-40005000D02*
X72390000Y-40640000D01*
X72390000Y-40640000D02*
X72390000Y-40640000D01*
%TO.N,/R4.4*%
X69850000Y-41910000D02*
X72390000Y-44450000D01*
X72390000Y-44450000D02*
X72390000Y-44450000D01*
%TO.N,/R4.3*%
X69850000Y-46990000D02*
X73025000Y-46990000D01*
X73025000Y-46990000D02*
X73025000Y-46990000D01*
%TO.N,/R4.2*%
X69850000Y-52070000D02*
X72390000Y-49530000D01*
X72390000Y-49530000D02*
X72390000Y-49530000D01*
%TO.N,/R4.1*%
X69850000Y-57150000D02*
X71755000Y-57150000D01*
X71755000Y-57150000D02*
X71755000Y-53975000D01*
X71755000Y-53975000D02*
X72390000Y-53340000D01*
X72390000Y-53340000D02*
X72390000Y-53340000D01*
%TO.N,/R4.0*%
X69850000Y-62230000D02*
X71120000Y-62230000D01*
X71120000Y-62230000D02*
X73025000Y-60325000D01*
X73025000Y-60325000D02*
X73025000Y-58420000D01*
X73025000Y-58420000D02*
X73025000Y-58420000D01*
%TO.N,/R5.7*%
X52070000Y-26670000D02*
X54610000Y-26670000D01*
X54610000Y-26670000D02*
X54610000Y-29845000D01*
X54610000Y-29845000D02*
X56515000Y-31750000D01*
X56515000Y-31750000D02*
X56515000Y-31750000D01*
X58420000Y-33655000D02*
X56515000Y-31750000D01*
%TO.N,/R5.6*%
X52070000Y-31750000D02*
X53340000Y-31750000D01*
X53340000Y-31750000D02*
X55245000Y-33655000D01*
X55245000Y-33655000D02*
X55245000Y-34290000D01*
X55245000Y-34290000D02*
X55245000Y-34290000D01*
%TO.N,/R5.5*%
X52070000Y-36830000D02*
X53975000Y-36830000D01*
X53975000Y-36830000D02*
X53975000Y-40005000D01*
X53975000Y-40005000D02*
X54610000Y-40640000D01*
X54610000Y-40640000D02*
X54610000Y-40640000D01*
%TO.N,/R5.4*%
X52070000Y-41910000D02*
X54610000Y-44450000D01*
X54610000Y-44450000D02*
X54610000Y-44450000D01*
%TO.N,/R5.3*%
X52070000Y-46990000D02*
X55245000Y-46990000D01*
X55245000Y-46990000D02*
X55245000Y-46990000D01*
%TO.N,/R5.2*%
X52070000Y-52070000D02*
X54610000Y-49530000D01*
X54610000Y-49530000D02*
X54610000Y-49530000D01*
%TO.N,/R5.1*%
X52070000Y-57150000D02*
X53975000Y-57150000D01*
X53975000Y-57150000D02*
X53975000Y-53975000D01*
X53975000Y-53975000D02*
X54610000Y-53340000D01*
X54610000Y-53340000D02*
X54610000Y-53340000D01*
%TO.N,/R5.0*%
X52070000Y-62230000D02*
X53340000Y-62230000D01*
X53340000Y-62230000D02*
X55245000Y-60325000D01*
X55245000Y-60325000D02*
X55245000Y-58420000D01*
X55245000Y-58420000D02*
X55245000Y-58420000D01*
%TO.N,/R6.7*%
X34290000Y-26670000D02*
X36830000Y-26670000D01*
X36830000Y-26670000D02*
X36830000Y-29845000D01*
X36830000Y-29845000D02*
X38735000Y-31750000D01*
X38735000Y-31750000D02*
X38735000Y-31750000D01*
X40640000Y-33655000D02*
X38735000Y-31750000D01*
%TO.N,/R6.6*%
X34290000Y-31750000D02*
X35560000Y-31750000D01*
X35560000Y-31750000D02*
X37465000Y-33655000D01*
X37465000Y-33655000D02*
X37465000Y-34290000D01*
X37465000Y-34290000D02*
X37465000Y-34290000D01*
%TO.N,/R6.5*%
X34290000Y-36830000D02*
X36195000Y-36830000D01*
X36195000Y-36830000D02*
X36195000Y-40005000D01*
X36195000Y-40005000D02*
X36830000Y-40640000D01*
X36830000Y-40640000D02*
X36830000Y-40640000D01*
%TO.N,/R6.4*%
X34290000Y-41910000D02*
X36830000Y-44450000D01*
X36830000Y-44450000D02*
X36830000Y-44450000D01*
%TO.N,/R6.3*%
X34290000Y-46990000D02*
X37465000Y-46990000D01*
X37465000Y-46990000D02*
X37465000Y-46990000D01*
%TO.N,/R6.2*%
X34290000Y-52070000D02*
X36830000Y-49530000D01*
X36830000Y-49530000D02*
X36830000Y-49530000D01*
%TO.N,/R6.1*%
X34290000Y-57150000D02*
X36195000Y-57150000D01*
X36195000Y-57150000D02*
X36195000Y-53975000D01*
X36195000Y-53975000D02*
X36830000Y-53340000D01*
X36830000Y-53340000D02*
X36830000Y-53340000D01*
%TO.N,/R6.0*%
X34290000Y-62230000D02*
X35560000Y-62230000D01*
X35560000Y-62230000D02*
X37465000Y-60325000D01*
X37465000Y-60325000D02*
X37465000Y-58420000D01*
X37465000Y-58420000D02*
X37465000Y-58420000D01*
%TO.N,/R7.7*%
X16510000Y-26670000D02*
X19050000Y-26670000D01*
X19050000Y-26670000D02*
X19050000Y-29845000D01*
X19050000Y-29845000D02*
X20955000Y-31750000D01*
X20955000Y-31750000D02*
X20955000Y-31750000D01*
%TO.N,/R7.6*%
X16510000Y-31750000D02*
X17780000Y-31750000D01*
X17780000Y-31750000D02*
X19685000Y-33655000D01*
X19685000Y-33655000D02*
X19685000Y-34290000D01*
X19685000Y-34290000D02*
X19685000Y-34290000D01*
%TO.N,/R7.5*%
X16510000Y-36830000D02*
X18415000Y-36830000D01*
X18415000Y-36830000D02*
X18415000Y-40005000D01*
X18415000Y-40005000D02*
X19050000Y-40640000D01*
X19050000Y-40640000D02*
X19050000Y-40640000D01*
%TO.N,/R7.4*%
X16510000Y-41910000D02*
X19050000Y-44450000D01*
X19050000Y-44450000D02*
X19050000Y-44450000D01*
%TO.N,/R7.3*%
X16510000Y-46990000D02*
X19685000Y-46990000D01*
X19685000Y-46990000D02*
X19685000Y-46990000D01*
%TO.N,/R7.2*%
X16510000Y-52070000D02*
X19050000Y-49530000D01*
X19050000Y-49530000D02*
X19050000Y-49530000D01*
%TO.N,/R7.1*%
X16510000Y-57150000D02*
X18415000Y-57150000D01*
X18415000Y-57150000D02*
X18415000Y-53975000D01*
X18415000Y-53975000D02*
X19050000Y-53340000D01*
X19050000Y-53340000D02*
X19050000Y-53340000D01*
%TO.N,/R7.0*%
X16510000Y-62230000D02*
X17780000Y-62230000D01*
X17780000Y-62230000D02*
X19685000Y-60325000D01*
X19685000Y-60325000D02*
X19685000Y-58420000D01*
X19685000Y-58420000D02*
X19685000Y-58420000D01*
D32*
%TO.N,VCC*%
X27940000Y-97790000D02*
X38735000Y-97790000D01*
D31*
%TO.N,/~R0*%
X60325000Y-109855000D02*
X57150000Y-106680000D01*
X66040000Y-109855000D02*
X60325000Y-109855000D01*
X69215000Y-106680000D02*
X66040000Y-109855000D01*
X69215000Y-104140000D02*
X69215000Y-106680000D01*
X68262500Y-103187500D02*
X69215000Y-104140000D01*
X67627500Y-103187500D02*
X68262500Y-103187500D01*
X63500000Y-99060000D02*
X67627500Y-103187500D01*
X57150000Y-106680000D02*
X57150000Y-105410000D01*
X67310000Y-93345000D02*
X64770000Y-95885000D01*
X64770000Y-95885000D02*
X64135000Y-95885000D01*
X63500000Y-96520000D02*
X64135000Y-95885000D01*
X63500000Y-96520000D02*
X63500000Y-99060000D01*
X67945000Y-92710000D02*
X67310000Y-93345000D01*
X78105000Y-92710000D02*
X67945000Y-92710000D01*
D32*
X100965000Y-92710000D02*
X78105000Y-92710000D01*
X102870000Y-90805000D02*
X100965000Y-92710000D01*
X102870000Y-22225000D02*
X102870000Y-90805000D01*
%TO.N,/~L*%
X136525000Y-69215000D02*
X138747500Y-66992500D01*
X138747500Y-66992500D02*
X138747500Y-24130000D01*
X132080000Y-70485000D02*
X133350000Y-69215000D01*
X133350000Y-69215000D02*
X136525000Y-69215000D01*
X132080000Y-105410000D02*
X132080000Y-70485000D01*
%TO.N,/~Res*%
X109220000Y-67310000D02*
X109220000Y-93980000D01*
%TO.N,/~H*%
X133985000Y-65405000D02*
X128270000Y-65405000D01*
X137160000Y-62230000D02*
X133985000Y-65405000D01*
X128270000Y-65405000D02*
X127635000Y-66040000D01*
X137160000Y-26670000D02*
X137160000Y-62230000D01*
X127635000Y-95250000D02*
X128905000Y-96520000D01*
X127635000Y-66040000D02*
X127635000Y-95250000D01*
X128905000Y-96520000D02*
X128905000Y-104140000D01*
X128905000Y-104140000D02*
X126365000Y-106680000D01*
%TO.N,/~R1*%
X68580000Y-88900000D02*
X68580000Y-71120000D01*
X68580000Y-71120000D02*
X69850000Y-69850000D01*
D31*
X68580000Y-90170000D02*
X68580000Y-88900000D01*
X64135000Y-94615000D02*
X68580000Y-90170000D01*
X62230000Y-94615000D02*
X64135000Y-94615000D01*
X60960000Y-95885000D02*
X62230000Y-94615000D01*
X66040000Y-104140000D02*
X60960000Y-99060000D01*
X60960000Y-99060000D02*
X60960000Y-95885000D01*
X66040000Y-107315000D02*
X66040000Y-104140000D01*
X64770000Y-108585000D02*
X66040000Y-107315000D01*
X60960000Y-108585000D02*
X64770000Y-108585000D01*
X59690000Y-107315000D02*
X60960000Y-108585000D01*
X59690000Y-105410000D02*
X59690000Y-107315000D01*
D32*
X77470000Y-69850000D02*
X78740000Y-68580000D01*
X78740000Y-22225000D02*
X78740000Y-68580000D01*
X69850000Y-69850000D02*
X77470000Y-69850000D01*
D31*
%TO.N,/~R2*%
X58420000Y-95885000D02*
X60960000Y-93345000D01*
X58420000Y-99695000D02*
X58420000Y-95885000D01*
X62230000Y-103505000D02*
X58420000Y-99695000D01*
X62230000Y-105410000D02*
X62230000Y-103505000D01*
D32*
X60960000Y-24130000D02*
X60960000Y-93345000D01*
%TO.N,/~R3*%
X48895000Y-27305000D02*
X48895000Y-24130000D01*
X49530000Y-27940000D02*
X48895000Y-27305000D01*
X49530000Y-34290000D02*
X49530000Y-27940000D01*
X48895000Y-34925000D02*
X49530000Y-34290000D01*
D31*
X55880000Y-96520000D02*
X53340000Y-93980000D01*
X55880000Y-99060000D02*
X55880000Y-96520000D01*
X60960000Y-106680000D02*
X60960000Y-104140000D01*
X60960000Y-104140000D02*
X55880000Y-99060000D01*
X64135000Y-107315000D02*
X61595000Y-107315000D01*
X61595000Y-107315000D02*
X60960000Y-106680000D01*
X64770000Y-106680000D02*
X64135000Y-107315000D01*
X64770000Y-105410000D02*
X64770000Y-106680000D01*
X53340000Y-93980000D02*
X49530000Y-90170000D01*
X49530000Y-90170000D02*
X48895000Y-89535000D01*
D32*
X48895000Y-89535000D02*
X48895000Y-34925000D01*
D31*
%TO.N,/DST[0]*%
X54610000Y-99695000D02*
X54610000Y-103505000D01*
X54610000Y-103505000D02*
X54610000Y-103505000D01*
%TO.N,Net-(U13-Pad10)*%
X100965000Y-105410000D02*
X102870000Y-105410000D01*
X98425000Y-102870000D02*
X100965000Y-105410000D01*
X71755000Y-102870000D02*
X98425000Y-102870000D01*
X70485000Y-101600000D02*
X71755000Y-102870000D01*
X68580000Y-101600000D02*
X70485000Y-101600000D01*
X64770000Y-97790000D02*
X68580000Y-101600000D01*
%TO.N,Net-(U13-Pad9)*%
X80010000Y-97790000D02*
X67310000Y-97790000D01*
X83185000Y-100965000D02*
X80010000Y-97790000D01*
X111125000Y-100965000D02*
X83185000Y-100965000D01*
X113030000Y-102870000D02*
X111125000Y-100965000D01*
X113030000Y-105410000D02*
X113030000Y-102870000D01*
%TO.N,/~Bank0*%
X30480000Y-29210000D02*
X30480000Y-33020000D01*
X30480000Y-33020000D02*
X30480000Y-33020000D01*
X47625000Y-29210000D02*
X47625000Y-33020000D01*
X118745000Y-29210000D02*
X118745000Y-33020000D01*
X83185000Y-29210000D02*
X83185000Y-33020000D01*
X65405000Y-29210000D02*
X65405000Y-33020000D01*
X100965000Y-29210000D02*
X100965000Y-33020000D01*
D32*
X126047500Y-65087500D02*
X126047500Y-102235000D01*
X127000000Y-64135000D02*
X126047500Y-65087500D01*
X130175000Y-64135000D02*
X127000000Y-64135000D01*
X132080000Y-62230000D02*
X130175000Y-64135000D01*
X132080000Y-29210000D02*
X132080000Y-62230000D01*
%TO.N,/~Bank1*%
X114300000Y-92075000D02*
X114300000Y-31115000D01*
X118110000Y-95885000D02*
X114300000Y-92075000D01*
X118110000Y-97790000D02*
X118110000Y-95885000D01*
D31*
X86995000Y-95885000D02*
X86360000Y-96520000D01*
X110490000Y-95885000D02*
X86995000Y-95885000D01*
X114300000Y-92075000D02*
X110490000Y-95885000D01*
%TO.N,Net-(U14-Pad11)*%
X162560000Y-33655000D02*
X162560000Y-31750000D01*
X164465000Y-35560000D02*
X162560000Y-33655000D01*
X165735000Y-53340000D02*
X164465000Y-52070000D01*
X164465000Y-52070000D02*
X164465000Y-35560000D01*
X152400000Y-95250000D02*
X161290000Y-86360000D01*
X163830000Y-86360000D02*
X165735000Y-84455000D01*
X165735000Y-84455000D02*
X165735000Y-53340000D01*
X161290000Y-86360000D02*
X163830000Y-86360000D01*
%TD*%
M02*
