%TF.GenerationSoftware,KiCad,Pcbnew,(5.1.8)-1*%
%TF.CreationDate,2025-08-13T23:43:51+03:00*%
%TF.ProjectId,Regs-v6,52656773-2d76-4362-9e6b-696361645f70,rev?*%
%TF.SameCoordinates,Original*%
%TF.FileFunction,Soldermask,Bot*%
%TF.FilePolarity,Negative*%
%FSLAX46Y46*%
G04 Gerber Fmt 4.6, Leading zero omitted, Abs format (unit mm)*
G04 Created by KiCad (PCBNEW (5.1.8)-1) date 2025-08-13 23:43:51*
%MOMM*%
%LPD*%
G01*
G04 APERTURE LIST*
%ADD10R,1.700000X1.700000*%
%ADD11C,1.800000*%
%ADD12R,1.800000X1.800000*%
%ADD13O,2.000000X1.500000*%
%ADD14O,1.700000X1.700000*%
%ADD15R,2.000000X1.500000*%
%ADD16R,0.800000X0.900000*%
%ADD17O,2.200000X2.100000*%
%ADD18R,2.200000X2.100000*%
%ADD19O,1.900000X1.900000*%
%ADD20O,1.900000X1.500000*%
%ADD21C,2.600000*%
%ADD22R,2.600000X2.600000*%
%ADD23O,1.500000X1.800000*%
%ADD24R,1.500000X2.000000*%
%ADD25R,1.500000X1.800000*%
%ADD26R,2.000000X2.000000*%
%ADD27O,2.000000X2.200000*%
%ADD28R,2.000000X2.200000*%
%ADD29C,3.200000*%
G04 APERTURE END LIST*
%TO.C,R2*%
G36*
G01*
X99244999Y-99460000D02*
X100145001Y-99460000D01*
G75*
G02*
X100395000Y-99709999I0J-249999D01*
G01*
X100395000Y-100410001D01*
G75*
G02*
X100145001Y-100660000I-249999J0D01*
G01*
X99244999Y-100660000D01*
G75*
G02*
X98995000Y-100410001I0J249999D01*
G01*
X98995000Y-99709999D01*
G75*
G02*
X99244999Y-99460000I249999J0D01*
G01*
G37*
G36*
G01*
X99244999Y-97460000D02*
X100145001Y-97460000D01*
G75*
G02*
X100395000Y-97709999I0J-249999D01*
G01*
X100395000Y-98410001D01*
G75*
G02*
X100145001Y-98660000I-249999J0D01*
G01*
X99244999Y-98660000D01*
G75*
G02*
X98995000Y-98410001I0J249999D01*
G01*
X98995000Y-97709999D01*
G75*
G02*
X99244999Y-97460000I249999J0D01*
G01*
G37*
%TD*%
%TO.C,R1*%
G36*
G01*
X89135000Y-97339999D02*
X89135000Y-98240001D01*
G75*
G02*
X88885001Y-98490000I-249999J0D01*
G01*
X88184999Y-98490000D01*
G75*
G02*
X87935000Y-98240001I0J249999D01*
G01*
X87935000Y-97339999D01*
G75*
G02*
X88184999Y-97090000I249999J0D01*
G01*
X88885001Y-97090000D01*
G75*
G02*
X89135000Y-97339999I0J-249999D01*
G01*
G37*
G36*
G01*
X91135000Y-97339999D02*
X91135000Y-98240001D01*
G75*
G02*
X90885001Y-98490000I-249999J0D01*
G01*
X90184999Y-98490000D01*
G75*
G02*
X89935000Y-98240001I0J249999D01*
G01*
X89935000Y-97339999D01*
G75*
G02*
X90184999Y-97090000I249999J0D01*
G01*
X90885001Y-97090000D01*
G75*
G02*
X91135000Y-97339999I0J-249999D01*
G01*
G37*
%TD*%
D10*
%TO.C,J24*%
X69850000Y-67310000D03*
%TD*%
%TO.C,J23*%
X123190000Y-67310000D03*
%TD*%
%TO.C,J22*%
X31750000Y-67310000D03*
%TD*%
%TO.C,J21*%
X105410000Y-67310000D03*
%TD*%
%TO.C,J10*%
X140970000Y-67310000D03*
%TD*%
%TO.C,J9*%
X121920000Y-93980000D03*
%TD*%
D11*
%TO.C,D1*%
X96202500Y-97790000D03*
D12*
X93662500Y-97790000D03*
%TD*%
D13*
%TO.C,J8*%
X16510000Y-26670000D03*
X16510000Y-29210000D03*
X16510000Y-31750000D03*
D14*
X16510000Y-34290000D03*
X16510000Y-36830000D03*
X16510000Y-39370000D03*
X16510000Y-41910000D03*
X16510000Y-44450000D03*
X16510000Y-46990000D03*
X16510000Y-49530000D03*
X16510000Y-52070000D03*
X16510000Y-54610000D03*
X16510000Y-57150000D03*
D13*
X16510000Y-59690000D03*
D10*
X16510000Y-62230000D03*
%TD*%
D13*
%TO.C,J7*%
X34290000Y-26670000D03*
X34290000Y-29210000D03*
X34290000Y-31750000D03*
X34290000Y-34290000D03*
D14*
X34290000Y-36830000D03*
X34290000Y-39370000D03*
X34290000Y-41910000D03*
X34290000Y-44450000D03*
X34290000Y-46990000D03*
X34290000Y-49530000D03*
X34290000Y-52070000D03*
X34290000Y-54610000D03*
X34290000Y-57150000D03*
D13*
X34290000Y-59690000D03*
D15*
X34290000Y-62230000D03*
%TD*%
D13*
%TO.C,J6*%
X52070000Y-26670000D03*
X52070000Y-29210000D03*
X52070000Y-31750000D03*
X52070000Y-34290000D03*
D14*
X52070000Y-36830000D03*
X52070000Y-39370000D03*
X52070000Y-41910000D03*
X52070000Y-44450000D03*
X52070000Y-46990000D03*
X52070000Y-49530000D03*
X52070000Y-52070000D03*
X52070000Y-54610000D03*
X52070000Y-57150000D03*
D13*
X52070000Y-59690000D03*
D15*
X52070000Y-62230000D03*
%TD*%
D13*
%TO.C,J5*%
X69850000Y-26670000D03*
X69850000Y-29210000D03*
X69850000Y-31750000D03*
X69850000Y-34290000D03*
D14*
X69850000Y-36830000D03*
X69850000Y-39370000D03*
X69850000Y-41910000D03*
X69850000Y-44450000D03*
X69850000Y-46990000D03*
X69850000Y-49530000D03*
X69850000Y-52070000D03*
X69850000Y-54610000D03*
X69850000Y-57150000D03*
D13*
X69850000Y-59690000D03*
D15*
X69850000Y-62230000D03*
%TD*%
D13*
%TO.C,J4*%
X87630000Y-26670000D03*
X87630000Y-29210000D03*
X87630000Y-31750000D03*
X87630000Y-34290000D03*
D14*
X87630000Y-36830000D03*
X87630000Y-39370000D03*
X87630000Y-41910000D03*
X87630000Y-44450000D03*
X87630000Y-46990000D03*
X87630000Y-49530000D03*
X87630000Y-52070000D03*
X87630000Y-54610000D03*
X87630000Y-57150000D03*
D13*
X87630000Y-59690000D03*
D15*
X87630000Y-62230000D03*
%TD*%
D13*
%TO.C,J3*%
X105410000Y-26670000D03*
X105410000Y-29210000D03*
X105410000Y-31750000D03*
X105410000Y-34290000D03*
D14*
X105410000Y-36830000D03*
X105410000Y-39370000D03*
X105410000Y-41910000D03*
X105410000Y-44450000D03*
X105410000Y-46990000D03*
X105410000Y-49530000D03*
X105410000Y-52070000D03*
X105410000Y-54610000D03*
X105410000Y-57150000D03*
D13*
X105410000Y-59690000D03*
D15*
X105410000Y-62230000D03*
%TD*%
D13*
%TO.C,J2*%
X123190000Y-26670000D03*
X123190000Y-29210000D03*
X123190000Y-31750000D03*
X123190000Y-34290000D03*
D14*
X123190000Y-36830000D03*
X123190000Y-39370000D03*
X123190000Y-41910000D03*
X123190000Y-44450000D03*
X123190000Y-46990000D03*
X123190000Y-49530000D03*
X123190000Y-52070000D03*
X123190000Y-54610000D03*
X123190000Y-57150000D03*
D13*
X123190000Y-59690000D03*
D15*
X123190000Y-62230000D03*
%TD*%
D13*
%TO.C,J1*%
X140970000Y-26670000D03*
X140970000Y-29210000D03*
X140970000Y-31750000D03*
X140970000Y-34290000D03*
D14*
X140970000Y-36830000D03*
X140970000Y-39370000D03*
X140970000Y-41910000D03*
X140970000Y-44450000D03*
X140970000Y-46990000D03*
X140970000Y-49530000D03*
X140970000Y-52070000D03*
X140970000Y-54610000D03*
X140970000Y-57150000D03*
D13*
X140970000Y-59690000D03*
D15*
X140970000Y-62230000D03*
%TD*%
D10*
%TO.C,J19*%
X35560000Y-67310000D03*
%TD*%
%TO.C,J20*%
X52070000Y-67310000D03*
%TD*%
%TO.C,R5*%
G36*
G01*
X75380001Y-98660000D02*
X74479999Y-98660000D01*
G75*
G02*
X74230000Y-98410001I0J249999D01*
G01*
X74230000Y-97709999D01*
G75*
G02*
X74479999Y-97460000I249999J0D01*
G01*
X75380001Y-97460000D01*
G75*
G02*
X75630000Y-97709999I0J-249999D01*
G01*
X75630000Y-98410001D01*
G75*
G02*
X75380001Y-98660000I-249999J0D01*
G01*
G37*
G36*
G01*
X75380001Y-100660000D02*
X74479999Y-100660000D01*
G75*
G02*
X74230000Y-100410001I0J249999D01*
G01*
X74230000Y-99709999D01*
G75*
G02*
X74479999Y-99460000I249999J0D01*
G01*
X75380001Y-99460000D01*
G75*
G02*
X75630000Y-99709999I0J-249999D01*
G01*
X75630000Y-100410001D01*
G75*
G02*
X75380001Y-100660000I-249999J0D01*
G01*
G37*
%TD*%
D13*
%TO.C,U19*%
X22860000Y-24130000D03*
X22860000Y-26670000D03*
X22860000Y-29210000D03*
X22860000Y-36830000D03*
X22860000Y-39370000D03*
X22860000Y-41910000D03*
X22860000Y-44450000D03*
X22860000Y-46990000D03*
X22860000Y-49530000D03*
X22860000Y-52070000D03*
X22860000Y-54610000D03*
X22860000Y-59690000D03*
X22860000Y-62230000D03*
X22860000Y-67310000D03*
X22860000Y-72390000D03*
X22860000Y-74930000D03*
X22860000Y-77470000D03*
X22860000Y-80010000D03*
X22860000Y-82550000D03*
X22860000Y-85090000D03*
X22860000Y-87630000D03*
X22860000Y-90170000D03*
%TD*%
%TO.C,U18*%
X40640000Y-24130000D03*
X40640000Y-26670000D03*
X40640000Y-29210000D03*
X40640000Y-36830000D03*
X40640000Y-39370000D03*
X40640000Y-41910000D03*
X40640000Y-44450000D03*
X40640000Y-46990000D03*
X40640000Y-49530000D03*
X40640000Y-52070000D03*
X40640000Y-54610000D03*
X40640000Y-59690000D03*
X40640000Y-62230000D03*
X40640000Y-67310000D03*
X40640000Y-72390000D03*
X40640000Y-74930000D03*
X40640000Y-77470000D03*
X40640000Y-80010000D03*
X40640000Y-82550000D03*
X40640000Y-85090000D03*
X40640000Y-87630000D03*
X40640000Y-90170000D03*
%TD*%
%TO.C,U17*%
X58420000Y-24130000D03*
X58420000Y-26670000D03*
X58420000Y-29210000D03*
X58420000Y-36830000D03*
X58420000Y-39370000D03*
X58420000Y-41910000D03*
X58420000Y-44450000D03*
X58420000Y-46990000D03*
X58420000Y-49530000D03*
X58420000Y-52070000D03*
X58420000Y-54610000D03*
X58420000Y-59690000D03*
X58420000Y-62230000D03*
X58420000Y-67310000D03*
X58420000Y-72390000D03*
X58420000Y-74930000D03*
X58420000Y-77470000D03*
X58420000Y-80010000D03*
X58420000Y-82550000D03*
X58420000Y-85090000D03*
X58420000Y-87630000D03*
X58420000Y-90170000D03*
%TD*%
%TO.C,U16*%
X76200000Y-24130000D03*
X76200000Y-26670000D03*
X76200000Y-29210000D03*
X76200000Y-36830000D03*
X76200000Y-39370000D03*
X76200000Y-41910000D03*
X76200000Y-44450000D03*
X76200000Y-46990000D03*
X76200000Y-49530000D03*
X76200000Y-52070000D03*
X76200000Y-54610000D03*
X76200000Y-59690000D03*
X76200000Y-62230000D03*
X76200000Y-67310000D03*
X76200000Y-72390000D03*
X76200000Y-74930000D03*
X76200000Y-77470000D03*
X76200000Y-80010000D03*
X76200000Y-82550000D03*
X76200000Y-85090000D03*
X76200000Y-87630000D03*
X76200000Y-90170000D03*
%TD*%
%TO.C,U12*%
X93980000Y-24130000D03*
X93980000Y-26670000D03*
X93980000Y-29210000D03*
X93980000Y-36830000D03*
X93980000Y-39370000D03*
X93980000Y-41910000D03*
X93980000Y-44450000D03*
X93980000Y-46990000D03*
X93980000Y-49530000D03*
X93980000Y-52070000D03*
X93980000Y-54610000D03*
X93980000Y-59690000D03*
X93980000Y-62230000D03*
X93980000Y-67310000D03*
X93980000Y-72390000D03*
X93980000Y-74930000D03*
X93980000Y-77470000D03*
X93980000Y-80010000D03*
X93980000Y-82550000D03*
X93980000Y-85090000D03*
X93980000Y-87630000D03*
X93980000Y-90170000D03*
%TD*%
%TO.C,U11*%
X111760000Y-24130000D03*
X111760000Y-26670000D03*
X111760000Y-29210000D03*
X111760000Y-36830000D03*
X111760000Y-39370000D03*
X111760000Y-41910000D03*
X111760000Y-44450000D03*
X111760000Y-46990000D03*
X111760000Y-49530000D03*
X111760000Y-52070000D03*
X111760000Y-54610000D03*
X111760000Y-59690000D03*
X111760000Y-62230000D03*
X111760000Y-67310000D03*
X111760000Y-72390000D03*
X111760000Y-74930000D03*
X111760000Y-77470000D03*
X111760000Y-80010000D03*
X111760000Y-82550000D03*
X111760000Y-85090000D03*
X111760000Y-87630000D03*
X111760000Y-90170000D03*
%TD*%
%TO.C,U10*%
X129540000Y-24130000D03*
X129540000Y-26670000D03*
X129540000Y-29210000D03*
X129540000Y-36830000D03*
X129540000Y-39370000D03*
X129540000Y-41910000D03*
X129540000Y-44450000D03*
X129540000Y-46990000D03*
X129540000Y-49530000D03*
X129540000Y-52070000D03*
X129540000Y-54610000D03*
X129540000Y-59690000D03*
X129540000Y-62230000D03*
X129540000Y-67310000D03*
X129540000Y-72390000D03*
X129540000Y-74930000D03*
X129540000Y-77470000D03*
X129540000Y-80010000D03*
X129540000Y-82550000D03*
X129540000Y-85090000D03*
X129540000Y-87630000D03*
X129540000Y-90170000D03*
%TD*%
%TO.C,U9*%
X147320000Y-24130000D03*
X147320000Y-26670000D03*
X147320000Y-29210000D03*
X147320000Y-36830000D03*
X147320000Y-39370000D03*
X147320000Y-41910000D03*
X147320000Y-44450000D03*
X147320000Y-46990000D03*
X147320000Y-49530000D03*
X147320000Y-52070000D03*
X147320000Y-54610000D03*
X147320000Y-59690000D03*
X147320000Y-62230000D03*
X147320000Y-67310000D03*
X147320000Y-72390000D03*
X147320000Y-74930000D03*
X147320000Y-77470000D03*
X147320000Y-80010000D03*
X147320000Y-82550000D03*
X147320000Y-85090000D03*
X147320000Y-87630000D03*
X147320000Y-90170000D03*
%TD*%
%TO.C,R7*%
G36*
G01*
X119932500Y-102419999D02*
X119932500Y-103320001D01*
G75*
G02*
X119682501Y-103570000I-249999J0D01*
G01*
X118982499Y-103570000D01*
G75*
G02*
X118732500Y-103320001I0J249999D01*
G01*
X118732500Y-102419999D01*
G75*
G02*
X118982499Y-102170000I249999J0D01*
G01*
X119682501Y-102170000D01*
G75*
G02*
X119932500Y-102419999I0J-249999D01*
G01*
G37*
G36*
G01*
X121932500Y-102419999D02*
X121932500Y-103320001D01*
G75*
G02*
X121682501Y-103570000I-249999J0D01*
G01*
X120982499Y-103570000D01*
G75*
G02*
X120732500Y-103320001I0J249999D01*
G01*
X120732500Y-102419999D01*
G75*
G02*
X120982499Y-102170000I249999J0D01*
G01*
X121682501Y-102170000D01*
G75*
G02*
X121932500Y-102419999I0J-249999D01*
G01*
G37*
%TD*%
D16*
%TO.C,Q1*%
X34290000Y-99742500D03*
X35240000Y-97742500D03*
X33340000Y-97742500D03*
%TD*%
%TO.C,C4*%
G36*
G01*
X102395000Y-101415000D02*
X103345000Y-101415000D01*
G75*
G02*
X103595000Y-101665000I0J-250000D01*
G01*
X103595000Y-102340000D01*
G75*
G02*
X103345000Y-102590000I-250000J0D01*
G01*
X102395000Y-102590000D01*
G75*
G02*
X102145000Y-102340000I0J250000D01*
G01*
X102145000Y-101665000D01*
G75*
G02*
X102395000Y-101415000I250000J0D01*
G01*
G37*
G36*
G01*
X102395000Y-99340000D02*
X103345000Y-99340000D01*
G75*
G02*
X103595000Y-99590000I0J-250000D01*
G01*
X103595000Y-100265000D01*
G75*
G02*
X103345000Y-100515000I-250000J0D01*
G01*
X102395000Y-100515000D01*
G75*
G02*
X102145000Y-100265000I0J250000D01*
G01*
X102145000Y-99590000D01*
G75*
G02*
X102395000Y-99340000I250000J0D01*
G01*
G37*
%TD*%
%TO.C,C3*%
G36*
G01*
X49055000Y-101097500D02*
X50005000Y-101097500D01*
G75*
G02*
X50255000Y-101347500I0J-250000D01*
G01*
X50255000Y-102022500D01*
G75*
G02*
X50005000Y-102272500I-250000J0D01*
G01*
X49055000Y-102272500D01*
G75*
G02*
X48805000Y-102022500I0J250000D01*
G01*
X48805000Y-101347500D01*
G75*
G02*
X49055000Y-101097500I250000J0D01*
G01*
G37*
G36*
G01*
X49055000Y-99022500D02*
X50005000Y-99022500D01*
G75*
G02*
X50255000Y-99272500I0J-250000D01*
G01*
X50255000Y-99947500D01*
G75*
G02*
X50005000Y-100197500I-250000J0D01*
G01*
X49055000Y-100197500D01*
G75*
G02*
X48805000Y-99947500I0J250000D01*
G01*
X48805000Y-99272500D01*
G75*
G02*
X49055000Y-99022500I250000J0D01*
G01*
G37*
%TD*%
%TO.C,C2*%
G36*
G01*
X131605000Y-61410000D02*
X132555000Y-61410000D01*
G75*
G02*
X132805000Y-61660000I0J-250000D01*
G01*
X132805000Y-62335000D01*
G75*
G02*
X132555000Y-62585000I-250000J0D01*
G01*
X131605000Y-62585000D01*
G75*
G02*
X131355000Y-62335000I0J250000D01*
G01*
X131355000Y-61660000D01*
G75*
G02*
X131605000Y-61410000I250000J0D01*
G01*
G37*
G36*
G01*
X131605000Y-59335000D02*
X132555000Y-59335000D01*
G75*
G02*
X132805000Y-59585000I0J-250000D01*
G01*
X132805000Y-60260000D01*
G75*
G02*
X132555000Y-60510000I-250000J0D01*
G01*
X131605000Y-60510000D01*
G75*
G02*
X131355000Y-60260000I0J250000D01*
G01*
X131355000Y-59585000D01*
G75*
G02*
X131605000Y-59335000I250000J0D01*
G01*
G37*
%TD*%
%TO.C,C1*%
G36*
G01*
X42705000Y-61410000D02*
X43655000Y-61410000D01*
G75*
G02*
X43905000Y-61660000I0J-250000D01*
G01*
X43905000Y-62335000D01*
G75*
G02*
X43655000Y-62585000I-250000J0D01*
G01*
X42705000Y-62585000D01*
G75*
G02*
X42455000Y-62335000I0J250000D01*
G01*
X42455000Y-61660000D01*
G75*
G02*
X42705000Y-61410000I250000J0D01*
G01*
G37*
G36*
G01*
X42705000Y-59335000D02*
X43655000Y-59335000D01*
G75*
G02*
X43905000Y-59585000I0J-250000D01*
G01*
X43905000Y-60260000D01*
G75*
G02*
X43655000Y-60510000I-250000J0D01*
G01*
X42705000Y-60510000D01*
G75*
G02*
X42455000Y-60260000I0J250000D01*
G01*
X42455000Y-59585000D01*
G75*
G02*
X42705000Y-59335000I250000J0D01*
G01*
G37*
%TD*%
%TO.C,R6*%
G36*
G01*
X105010000Y-94164999D02*
X105010000Y-95065001D01*
G75*
G02*
X104760001Y-95315000I-249999J0D01*
G01*
X104059999Y-95315000D01*
G75*
G02*
X103810000Y-95065001I0J249999D01*
G01*
X103810000Y-94164999D01*
G75*
G02*
X104059999Y-93915000I249999J0D01*
G01*
X104760001Y-93915000D01*
G75*
G02*
X105010000Y-94164999I0J-249999D01*
G01*
G37*
G36*
G01*
X107010000Y-94164999D02*
X107010000Y-95065001D01*
G75*
G02*
X106760001Y-95315000I-249999J0D01*
G01*
X106059999Y-95315000D01*
G75*
G02*
X105810000Y-95065001I0J249999D01*
G01*
X105810000Y-94164999D01*
G75*
G02*
X106059999Y-93915000I249999J0D01*
G01*
X106760001Y-93915000D01*
G75*
G02*
X107010000Y-94164999I0J-249999D01*
G01*
G37*
%TD*%
D17*
%TO.C,J18*%
X170815000Y-77470000D03*
X170815000Y-74930000D03*
X170815000Y-72390000D03*
X170815000Y-69850000D03*
X170815000Y-67310000D03*
X170815000Y-64770000D03*
X170815000Y-62230000D03*
X170815000Y-59690000D03*
D18*
X170815000Y-57150000D03*
%TD*%
D17*
%TO.C,J17*%
X170815000Y-102870000D03*
X170815000Y-100330000D03*
X170815000Y-97790000D03*
X170815000Y-95250000D03*
X170815000Y-92710000D03*
X170815000Y-90170000D03*
X170815000Y-87630000D03*
X170815000Y-85090000D03*
D18*
X170815000Y-82550000D03*
%TD*%
D19*
%TO.C,U15*%
X162560000Y-24130000D03*
X162560000Y-26670000D03*
X162560000Y-29210000D03*
X162560000Y-31750000D03*
X162560000Y-36830000D03*
X162560000Y-39370000D03*
X162560000Y-41910000D03*
X162560000Y-44450000D03*
X162560000Y-46990000D03*
X162560000Y-49530000D03*
X162560000Y-52070000D03*
X162560000Y-54610000D03*
X162560000Y-59690000D03*
X162560000Y-62230000D03*
X162560000Y-64770000D03*
X162560000Y-67310000D03*
X162560000Y-69850000D03*
X162560000Y-72390000D03*
X162560000Y-74930000D03*
X162560000Y-77470000D03*
X162560000Y-82550000D03*
D20*
X162560000Y-85090000D03*
X162560000Y-87630000D03*
D19*
X162560000Y-90170000D03*
X162560000Y-92710000D03*
X162560000Y-95250000D03*
X162560000Y-97790000D03*
X162560000Y-100330000D03*
%TD*%
D21*
%TO.C,J16*%
X39290000Y-105410000D03*
D22*
X34290000Y-105410000D03*
%TD*%
D23*
%TO.C,U14*%
X102870000Y-97790000D03*
X118110000Y-105410000D03*
X105410000Y-97790000D03*
X115570000Y-105410000D03*
X107950000Y-97790000D03*
X113030000Y-105410000D03*
X110490000Y-97790000D03*
X110490000Y-105410000D03*
X113030000Y-97790000D03*
X107950000Y-105410000D03*
X115570000Y-97790000D03*
X105410000Y-105410000D03*
X118110000Y-97790000D03*
D24*
X102870000Y-105410000D03*
%TD*%
D23*
%TO.C,U13*%
X49530000Y-97790000D03*
X67310000Y-105410000D03*
X52070000Y-97790000D03*
X64770000Y-105410000D03*
X54610000Y-97790000D03*
X62230000Y-105410000D03*
X57150000Y-97790000D03*
X59690000Y-105410000D03*
X59690000Y-97790000D03*
X57150000Y-105410000D03*
X62230000Y-97790000D03*
X54610000Y-105410000D03*
X64770000Y-97790000D03*
X52070000Y-105410000D03*
X67310000Y-97790000D03*
D25*
X49530000Y-105410000D03*
%TD*%
D10*
%TO.C,J15*%
X105410000Y-109220000D03*
%TD*%
%TO.C,J14*%
X126047500Y-102235000D03*
%TD*%
%TO.C,J13*%
X87630000Y-67310000D03*
%TD*%
D26*
%TO.C,J12*%
X78105000Y-100330000D03*
%TD*%
D27*
%TO.C,J11*%
X54610000Y-109220000D03*
X52070000Y-109220000D03*
D28*
X49530000Y-109220000D03*
%TD*%
D29*
%TO.C,H6*%
X162560000Y-106680000D03*
%TD*%
%TO.C,H4*%
X162560000Y-17780000D03*
%TD*%
%TO.C,H2*%
X92710000Y-106680000D03*
%TD*%
%TO.C,H5*%
X92710000Y-17780000D03*
%TD*%
%TO.C,H3*%
X22860000Y-106680000D03*
%TD*%
%TO.C,H1*%
X22860000Y-17780000D03*
%TD*%
D13*
%TO.C,U1*%
X152400000Y-24130000D03*
X152400000Y-26670000D03*
X152400000Y-29210000D03*
X152400000Y-36830000D03*
X152400000Y-39370000D03*
X152400000Y-41910000D03*
X152400000Y-44450000D03*
X152400000Y-46990000D03*
X152400000Y-49530000D03*
X152400000Y-52070000D03*
X152400000Y-54610000D03*
X152400000Y-59690000D03*
X152400000Y-62230000D03*
X152400000Y-67310000D03*
X152400000Y-72390000D03*
X152400000Y-74930000D03*
X152400000Y-77470000D03*
X152400000Y-80010000D03*
X152400000Y-82550000D03*
X152400000Y-85090000D03*
X152400000Y-87630000D03*
X152400000Y-90170000D03*
%TD*%
%TO.C,U8*%
X27940000Y-24130000D03*
X27940000Y-26670000D03*
X27940000Y-29210000D03*
X27940000Y-36830000D03*
X27940000Y-39370000D03*
X27940000Y-41910000D03*
X27940000Y-44450000D03*
X27940000Y-46990000D03*
X27940000Y-49530000D03*
X27940000Y-52070000D03*
X27940000Y-54610000D03*
X27940000Y-59690000D03*
X27940000Y-62230000D03*
X27940000Y-67310000D03*
X27940000Y-72390000D03*
X27940000Y-74930000D03*
X27940000Y-77470000D03*
X27940000Y-80010000D03*
X27940000Y-82550000D03*
X27940000Y-85090000D03*
X27940000Y-87630000D03*
X27940000Y-90170000D03*
%TD*%
%TO.C,U6*%
X63500000Y-24130000D03*
X63500000Y-26670000D03*
X63500000Y-29210000D03*
X63500000Y-36830000D03*
X63500000Y-39370000D03*
X63500000Y-41910000D03*
X63500000Y-44450000D03*
X63500000Y-46990000D03*
X63500000Y-49530000D03*
X63500000Y-52070000D03*
X63500000Y-54610000D03*
X63500000Y-59690000D03*
X63500000Y-62230000D03*
X63500000Y-67310000D03*
X63500000Y-72390000D03*
X63500000Y-74930000D03*
X63500000Y-77470000D03*
X63500000Y-80010000D03*
X63500000Y-82550000D03*
X63500000Y-85090000D03*
X63500000Y-87630000D03*
X63500000Y-90170000D03*
%TD*%
%TO.C,U4*%
X99060000Y-24130000D03*
X99060000Y-26670000D03*
X99060000Y-29210000D03*
X99060000Y-36830000D03*
X99060000Y-39370000D03*
X99060000Y-41910000D03*
X99060000Y-44450000D03*
X99060000Y-46990000D03*
X99060000Y-49530000D03*
X99060000Y-52070000D03*
X99060000Y-54610000D03*
X99060000Y-59690000D03*
X99060000Y-62230000D03*
X99060000Y-67310000D03*
X99060000Y-72390000D03*
X99060000Y-74930000D03*
X99060000Y-77470000D03*
X99060000Y-80010000D03*
X99060000Y-82550000D03*
X99060000Y-85090000D03*
X99060000Y-87630000D03*
X99060000Y-90170000D03*
%TD*%
%TO.C,U2*%
X134620000Y-24130000D03*
X134620000Y-26670000D03*
X134620000Y-29210000D03*
X134620000Y-36830000D03*
X134620000Y-39370000D03*
X134620000Y-41910000D03*
X134620000Y-44450000D03*
X134620000Y-46990000D03*
X134620000Y-49530000D03*
X134620000Y-52070000D03*
X134620000Y-54610000D03*
X134620000Y-59690000D03*
X134620000Y-62230000D03*
X134620000Y-67310000D03*
X134620000Y-72390000D03*
X134620000Y-74930000D03*
X134620000Y-77470000D03*
X134620000Y-80010000D03*
X134620000Y-82550000D03*
X134620000Y-85090000D03*
X134620000Y-87630000D03*
X134620000Y-90170000D03*
%TD*%
%TO.C,U7*%
X45720000Y-24130000D03*
X45720000Y-26670000D03*
X45720000Y-29210000D03*
X45720000Y-36830000D03*
X45720000Y-39370000D03*
X45720000Y-41910000D03*
X45720000Y-44450000D03*
X45720000Y-46990000D03*
X45720000Y-49530000D03*
X45720000Y-52070000D03*
X45720000Y-54610000D03*
X45720000Y-59690000D03*
X45720000Y-62230000D03*
X45720000Y-67310000D03*
X45720000Y-72390000D03*
X45720000Y-74930000D03*
X45720000Y-77470000D03*
X45720000Y-80010000D03*
X45720000Y-82550000D03*
X45720000Y-85090000D03*
X45720000Y-87630000D03*
X45720000Y-90170000D03*
%TD*%
%TO.C,U5*%
X81280000Y-24130000D03*
X81280000Y-26670000D03*
X81280000Y-29210000D03*
X81280000Y-36830000D03*
X81280000Y-39370000D03*
X81280000Y-41910000D03*
X81280000Y-44450000D03*
X81280000Y-46990000D03*
X81280000Y-49530000D03*
X81280000Y-52070000D03*
X81280000Y-54610000D03*
X81280000Y-59690000D03*
X81280000Y-62230000D03*
X81280000Y-67310000D03*
X81280000Y-72390000D03*
X81280000Y-74930000D03*
X81280000Y-77470000D03*
X81280000Y-80010000D03*
X81280000Y-82550000D03*
X81280000Y-85090000D03*
X81280000Y-87630000D03*
X81280000Y-90170000D03*
%TD*%
%TO.C,U3*%
X116840000Y-24130000D03*
X116840000Y-26670000D03*
X116840000Y-29210000D03*
X116840000Y-36830000D03*
X116840000Y-39370000D03*
X116840000Y-41910000D03*
X116840000Y-44450000D03*
X116840000Y-46990000D03*
X116840000Y-49530000D03*
X116840000Y-52070000D03*
X116840000Y-54610000D03*
X116840000Y-59690000D03*
X116840000Y-62230000D03*
X116840000Y-67310000D03*
X116840000Y-72390000D03*
X116840000Y-74930000D03*
X116840000Y-77470000D03*
X116840000Y-80010000D03*
X116840000Y-82550000D03*
X116840000Y-85090000D03*
X116840000Y-87630000D03*
X116840000Y-90170000D03*
%TD*%
M02*
