G04 #@! TF.GenerationSoftware,KiCad,Pcbnew,(5.1.8)-1*
G04 #@! TF.CreationDate,2023-07-12T22:57:21+03:00*
G04 #@! TF.ProjectId,INV,494e562e-6b69-4636-9164-5f7063625858,rev?*
G04 #@! TF.SameCoordinates,PX48ab840PY2455c20*
G04 #@! TF.FileFunction,Legend,Top*
G04 #@! TF.FilePolarity,Positive*
%FSLAX46Y46*%
G04 Gerber Fmt 4.6, Leading zero omitted, Abs format (unit mm)*
G04 Created by KiCad (PCBNEW (5.1.8)-1) date 2023-07-12 22:57:21*
%MOMM*%
%LPD*%
G01*
G04 APERTURE LIST*
%ADD10C,0.250000*%
%ADD11C,0.150000*%
%ADD12C,0.200000*%
%ADD13C,0.120000*%
G04 APERTURE END LIST*
D10*
X12588904Y-8762857D02*
X12493666Y-8953333D01*
X12398428Y-9048571D01*
X12207952Y-9143809D01*
X12112714Y-9143809D01*
X11922238Y-9048571D01*
X11827000Y-8953333D01*
X11731761Y-8762857D01*
X11731761Y-8381904D01*
X11827000Y-8191428D01*
X11922238Y-8096190D01*
X12112714Y-8000952D01*
X12207952Y-8000952D01*
X12398428Y-8096190D01*
X12493666Y-8191428D01*
X12588904Y-8381904D01*
X12588904Y-8762857D01*
X12684142Y-8953333D01*
X12779380Y-9048571D01*
X12969857Y-9143809D01*
X13350809Y-9143809D01*
X13541285Y-9048571D01*
X13636523Y-8953333D01*
X13731761Y-8762857D01*
X13731761Y-8381904D01*
X13636523Y-8191428D01*
X13541285Y-8096190D01*
X13350809Y-8000952D01*
X12969857Y-8000952D01*
X12779380Y-8096190D01*
X12684142Y-8191428D01*
X12588904Y-8381904D01*
X11731761Y-6286666D02*
X11731761Y-6667619D01*
X11827000Y-6858095D01*
X11922238Y-6953333D01*
X12207952Y-7143809D01*
X12588904Y-7239047D01*
X13350809Y-7239047D01*
X13541285Y-7143809D01*
X13636523Y-7048571D01*
X13731761Y-6858095D01*
X13731761Y-6477142D01*
X13636523Y-6286666D01*
X13541285Y-6191428D01*
X13350809Y-6096190D01*
X12874619Y-6096190D01*
X12684142Y-6191428D01*
X12588904Y-6286666D01*
X12493666Y-6477142D01*
X12493666Y-6858095D01*
X12588904Y-7048571D01*
X12684142Y-7143809D01*
X12874619Y-7239047D01*
X12588904Y-20192857D02*
X12493666Y-20383333D01*
X12398428Y-20478571D01*
X12207952Y-20573809D01*
X12112714Y-20573809D01*
X11922238Y-20478571D01*
X11827000Y-20383333D01*
X11731761Y-20192857D01*
X11731761Y-19811904D01*
X11827000Y-19621428D01*
X11922238Y-19526190D01*
X12112714Y-19430952D01*
X12207952Y-19430952D01*
X12398428Y-19526190D01*
X12493666Y-19621428D01*
X12588904Y-19811904D01*
X12588904Y-20192857D01*
X12684142Y-20383333D01*
X12779380Y-20478571D01*
X12969857Y-20573809D01*
X13350809Y-20573809D01*
X13541285Y-20478571D01*
X13636523Y-20383333D01*
X13731761Y-20192857D01*
X13731761Y-19811904D01*
X13636523Y-19621428D01*
X13541285Y-19526190D01*
X13350809Y-19430952D01*
X12969857Y-19430952D01*
X12779380Y-19526190D01*
X12684142Y-19621428D01*
X12588904Y-19811904D01*
X11731761Y-17716666D02*
X11731761Y-18097619D01*
X11827000Y-18288095D01*
X11922238Y-18383333D01*
X12207952Y-18573809D01*
X12588904Y-18669047D01*
X13350809Y-18669047D01*
X13541285Y-18573809D01*
X13636523Y-18478571D01*
X13731761Y-18288095D01*
X13731761Y-17907142D01*
X13636523Y-17716666D01*
X13541285Y-17621428D01*
X13350809Y-17526190D01*
X12874619Y-17526190D01*
X12684142Y-17621428D01*
X12588904Y-17716666D01*
X12493666Y-17907142D01*
X12493666Y-18288095D01*
X12588904Y-18478571D01*
X12684142Y-18573809D01*
X12874619Y-18669047D01*
X27035238Y-16446190D02*
X26940000Y-16350952D01*
X26844761Y-16160476D01*
X26844761Y-15684285D01*
X26940000Y-15493809D01*
X27035238Y-15398571D01*
X27225714Y-15303333D01*
X27416190Y-15303333D01*
X27701904Y-15398571D01*
X28844761Y-16541428D01*
X28844761Y-15303333D01*
X27511428Y-13589047D02*
X28844761Y-13589047D01*
X26749523Y-14065238D02*
X28178095Y-14541428D01*
X28178095Y-13303333D01*
X26844761Y-11589047D02*
X26844761Y-12541428D01*
X27797142Y-12636666D01*
X27701904Y-12541428D01*
X27606666Y-12350952D01*
X27606666Y-11874761D01*
X27701904Y-11684285D01*
X27797142Y-11589047D01*
X27987619Y-11493809D01*
X28463809Y-11493809D01*
X28654285Y-11589047D01*
X28749523Y-11684285D01*
X28844761Y-11874761D01*
X28844761Y-12350952D01*
X28749523Y-12541428D01*
X28654285Y-12636666D01*
D11*
X33448809Y-25852380D02*
X33448809Y-24852380D01*
X33925000Y-25852380D02*
X33925000Y-24852380D01*
X34496428Y-25852380D01*
X34496428Y-24852380D01*
X34829761Y-24852380D02*
X35163095Y-25852380D01*
X35496428Y-24852380D01*
X35829761Y-25852380D02*
X35829761Y-24852380D01*
X35829761Y-25328571D02*
X36401190Y-25328571D01*
X36401190Y-25852380D02*
X36401190Y-24852380D01*
X3722857Y-2992380D02*
X3722857Y-1992380D01*
X4199047Y-2992380D02*
X4199047Y-1992380D01*
X4770476Y-2992380D01*
X4770476Y-1992380D01*
X5103809Y-1992380D02*
X5437142Y-2992380D01*
X5770476Y-1992380D01*
X6580000Y-2992380D02*
X6103809Y-2992380D01*
X6103809Y-1992380D01*
X35226666Y-22312380D02*
X35893333Y-22312380D01*
X35464761Y-23312380D01*
X35512380Y-4532380D02*
X35607619Y-4532380D01*
X35702857Y-4580000D01*
X35750476Y-4627619D01*
X35798095Y-4722857D01*
X35845714Y-4913333D01*
X35845714Y-5151428D01*
X35798095Y-5341904D01*
X35750476Y-5437142D01*
X35702857Y-5484761D01*
X35607619Y-5532380D01*
X35512380Y-5532380D01*
X35417142Y-5484761D01*
X35369523Y-5437142D01*
X35321904Y-5341904D01*
X35274285Y-5151428D01*
X35274285Y-4913333D01*
X35321904Y-4722857D01*
X35369523Y-4627619D01*
X35417142Y-4580000D01*
X35512380Y-4532380D01*
X4111666Y-22312380D02*
X4778333Y-22312380D01*
X4349761Y-23312380D01*
X4397380Y-4532380D02*
X4492619Y-4532380D01*
X4587857Y-4580000D01*
X4635476Y-4627619D01*
X4683095Y-4722857D01*
X4730714Y-4913333D01*
X4730714Y-5151428D01*
X4683095Y-5341904D01*
X4635476Y-5437142D01*
X4587857Y-5484761D01*
X4492619Y-5532380D01*
X4397380Y-5532380D01*
X4302142Y-5484761D01*
X4254523Y-5437142D01*
X4206904Y-5341904D01*
X4159285Y-5151428D01*
X4159285Y-4913333D01*
X4206904Y-4722857D01*
X4254523Y-4627619D01*
X4302142Y-4580000D01*
X4397380Y-4532380D01*
D12*
X34738571Y-15470000D02*
X34738571Y-15184285D01*
X34810000Y-15041428D01*
X34952857Y-14898571D01*
X35238571Y-14827142D01*
X35738571Y-14827142D01*
X36024285Y-14898571D01*
X36167142Y-15041428D01*
X36238571Y-15184285D01*
X36238571Y-15470000D01*
X36167142Y-15612857D01*
X36024285Y-15755714D01*
X35738571Y-15827142D01*
X35238571Y-15827142D01*
X34952857Y-15755714D01*
X34810000Y-15612857D01*
X34738571Y-15470000D01*
X34738571Y-14184285D02*
X35952857Y-14184285D01*
X36095714Y-14112857D01*
X36167142Y-14041428D01*
X36238571Y-13898571D01*
X36238571Y-13612857D01*
X36167142Y-13470000D01*
X36095714Y-13398571D01*
X35952857Y-13327142D01*
X34738571Y-13327142D01*
X34738571Y-12827142D02*
X34738571Y-11970000D01*
X36238571Y-12398571D02*
X34738571Y-12398571D01*
X5758571Y-14755714D02*
X4258571Y-14755714D01*
X5758571Y-14041428D02*
X4258571Y-14041428D01*
X5758571Y-13184285D01*
X4258571Y-13184285D01*
D11*
X6024642Y-25662000D02*
X5929404Y-25614380D01*
X5786547Y-25614380D01*
X5643690Y-25662000D01*
X5548452Y-25757238D01*
X5500833Y-25852476D01*
X5453214Y-26042952D01*
X5453214Y-26185809D01*
X5500833Y-26376285D01*
X5548452Y-26471523D01*
X5643690Y-26566761D01*
X5786547Y-26614380D01*
X5881785Y-26614380D01*
X6024642Y-26566761D01*
X6072261Y-26519142D01*
X6072261Y-26185809D01*
X5881785Y-26185809D01*
X6500833Y-25947714D02*
X6500833Y-26614380D01*
X6500833Y-26042952D02*
X6548452Y-25995333D01*
X6643690Y-25947714D01*
X6786547Y-25947714D01*
X6881785Y-25995333D01*
X6929404Y-26090571D01*
X6929404Y-26614380D01*
X7834166Y-26614380D02*
X7834166Y-25614380D01*
X7834166Y-26566761D02*
X7738928Y-26614380D01*
X7548452Y-26614380D01*
X7453214Y-26566761D01*
X7405595Y-26519142D01*
X7357976Y-26423904D01*
X7357976Y-26138190D01*
X7405595Y-26042952D01*
X7453214Y-25995333D01*
X7548452Y-25947714D01*
X7738928Y-25947714D01*
X7834166Y-25995333D01*
X34369523Y-1992380D02*
X34702857Y-2992380D01*
X35036190Y-1992380D01*
X35798095Y-2944761D02*
X35702857Y-2992380D01*
X35512380Y-2992380D01*
X35417142Y-2944761D01*
X35369523Y-2897142D01*
X35321904Y-2801904D01*
X35321904Y-2516190D01*
X35369523Y-2420952D01*
X35417142Y-2373333D01*
X35512380Y-2325714D01*
X35702857Y-2325714D01*
X35798095Y-2373333D01*
X36655238Y-2944761D02*
X36560000Y-2992380D01*
X36369523Y-2992380D01*
X36274285Y-2944761D01*
X36226666Y-2897142D01*
X36179047Y-2801904D01*
X36179047Y-2516190D01*
X36226666Y-2420952D01*
X36274285Y-2373333D01*
X36369523Y-2325714D01*
X36560000Y-2325714D01*
X36655238Y-2373333D01*
D13*
X28201252Y-6450000D02*
X27678748Y-6450000D01*
X28201252Y-4980000D02*
X27678748Y-4980000D01*
X24230000Y-5037064D02*
X24230000Y-4582936D01*
X22760000Y-5037064D02*
X22760000Y-4582936D01*
X27940000Y-20480000D02*
X31800000Y-20480000D01*
X31800000Y-20480000D02*
X31800000Y-20245000D01*
X27940000Y-20480000D02*
X24080000Y-20480000D01*
X24080000Y-20480000D02*
X24080000Y-20245000D01*
X27940000Y-7460000D02*
X31800000Y-7460000D01*
X31800000Y-7460000D02*
X31800000Y-7695000D01*
X27940000Y-7460000D02*
X24080000Y-7460000D01*
X24080000Y-7460000D02*
X24080000Y-7695000D01*
X24080000Y-7695000D02*
X22390000Y-7695000D01*
X12700000Y-3185000D02*
X9250000Y-3185000D01*
X12700000Y-3185000D02*
X14650000Y-3185000D01*
X12700000Y-12055000D02*
X10750000Y-12055000D01*
X12700000Y-12055000D02*
X14650000Y-12055000D01*
X12700000Y-23485000D02*
X14650000Y-23485000D01*
X12700000Y-23485000D02*
X10750000Y-23485000D01*
X12700000Y-14615000D02*
X14650000Y-14615000D01*
X12700000Y-14615000D02*
X9250000Y-14615000D01*
D11*
X30948333Y-6072142D02*
X30900714Y-6119761D01*
X30757857Y-6167380D01*
X30662619Y-6167380D01*
X30519761Y-6119761D01*
X30424523Y-6024523D01*
X30376904Y-5929285D01*
X30329285Y-5738809D01*
X30329285Y-5595952D01*
X30376904Y-5405476D01*
X30424523Y-5310238D01*
X30519761Y-5215000D01*
X30662619Y-5167380D01*
X30757857Y-5167380D01*
X30900714Y-5215000D01*
X30948333Y-5262619D01*
X31900714Y-6167380D02*
X31329285Y-6167380D01*
X31615000Y-6167380D02*
X31615000Y-5167380D01*
X31519761Y-5310238D01*
X31424523Y-5405476D01*
X31329285Y-5453095D01*
X22297380Y-4976666D02*
X21821190Y-5310000D01*
X22297380Y-5548095D02*
X21297380Y-5548095D01*
X21297380Y-5167142D01*
X21345000Y-5071904D01*
X21392619Y-5024285D01*
X21487857Y-4976666D01*
X21630714Y-4976666D01*
X21725952Y-5024285D01*
X21773571Y-5071904D01*
X21821190Y-5167142D01*
X21821190Y-5548095D01*
X22297380Y-4024285D02*
X22297380Y-4595714D01*
X22297380Y-4310000D02*
X21297380Y-4310000D01*
X21440238Y-4405238D01*
X21535476Y-4500476D01*
X21583095Y-4595714D01*
X24638095Y-6072380D02*
X24638095Y-6881904D01*
X24685714Y-6977142D01*
X24733333Y-7024761D01*
X24828571Y-7072380D01*
X25019047Y-7072380D01*
X25114285Y-7024761D01*
X25161904Y-6977142D01*
X25209523Y-6881904D01*
X25209523Y-6072380D01*
X25590476Y-6072380D02*
X26209523Y-6072380D01*
X25876190Y-6453333D01*
X26019047Y-6453333D01*
X26114285Y-6500952D01*
X26161904Y-6548571D01*
X26209523Y-6643809D01*
X26209523Y-6881904D01*
X26161904Y-6977142D01*
X26114285Y-7024761D01*
X26019047Y-7072380D01*
X25733333Y-7072380D01*
X25638095Y-7024761D01*
X25590476Y-6977142D01*
X11938095Y-1792380D02*
X11938095Y-2601904D01*
X11985714Y-2697142D01*
X12033333Y-2744761D01*
X12128571Y-2792380D01*
X12319047Y-2792380D01*
X12414285Y-2744761D01*
X12461904Y-2697142D01*
X12509523Y-2601904D01*
X12509523Y-1792380D01*
X13509523Y-2792380D02*
X12938095Y-2792380D01*
X13223809Y-2792380D02*
X13223809Y-1792380D01*
X13128571Y-1935238D01*
X13033333Y-2030476D01*
X12938095Y-2078095D01*
X11938095Y-13222380D02*
X11938095Y-14031904D01*
X11985714Y-14127142D01*
X12033333Y-14174761D01*
X12128571Y-14222380D01*
X12319047Y-14222380D01*
X12414285Y-14174761D01*
X12461904Y-14127142D01*
X12509523Y-14031904D01*
X12509523Y-13222380D01*
X12938095Y-13317619D02*
X12985714Y-13270000D01*
X13080952Y-13222380D01*
X13319047Y-13222380D01*
X13414285Y-13270000D01*
X13461904Y-13317619D01*
X13509523Y-13412857D01*
X13509523Y-13508095D01*
X13461904Y-13650952D01*
X12890476Y-14222380D01*
X13509523Y-14222380D01*
M02*
