%TF.GenerationSoftware,KiCad,Pcbnew,(5.1.8)-1*%
%TF.CreationDate,2024-01-29T23:39:16+03:00*%
%TF.ProjectId,ROM,524f4d2e-6b69-4636-9164-5f7063625858,rev?*%
%TF.SameCoordinates,Original*%
%TF.FileFunction,Legend,Top*%
%TF.FilePolarity,Positive*%
%FSLAX46Y46*%
G04 Gerber Fmt 4.6, Leading zero omitted, Abs format (unit mm)*
G04 Created by KiCad (PCBNEW (5.1.8)-1) date 2024-01-29 23:39:16*
%MOMM*%
%LPD*%
G01*
G04 APERTURE LIST*
%ADD10C,0.250000*%
%ADD11C,0.150000*%
%ADD12C,0.300000*%
%ADD13C,0.400000*%
%ADD14C,0.120000*%
G04 APERTURE END LIST*
D10*
X73834761Y-25177619D02*
X73834761Y-24987142D01*
X73930000Y-24796666D01*
X74025238Y-24701428D01*
X74215714Y-24606190D01*
X74596666Y-24510952D01*
X75072857Y-24510952D01*
X75453809Y-24606190D01*
X75644285Y-24701428D01*
X75739523Y-24796666D01*
X75834761Y-24987142D01*
X75834761Y-25177619D01*
X75739523Y-25368095D01*
X75644285Y-25463333D01*
X75453809Y-25558571D01*
X75072857Y-25653809D01*
X74596666Y-25653809D01*
X74215714Y-25558571D01*
X74025238Y-25463333D01*
X73930000Y-25368095D01*
X73834761Y-25177619D01*
X73834761Y-23272857D02*
X73834761Y-23082380D01*
X73930000Y-22891904D01*
X74025238Y-22796666D01*
X74215714Y-22701428D01*
X74596666Y-22606190D01*
X75072857Y-22606190D01*
X75453809Y-22701428D01*
X75644285Y-22796666D01*
X75739523Y-22891904D01*
X75834761Y-23082380D01*
X75834761Y-23272857D01*
X75739523Y-23463333D01*
X75644285Y-23558571D01*
X75453809Y-23653809D01*
X75072857Y-23749047D01*
X74596666Y-23749047D01*
X74215714Y-23653809D01*
X74025238Y-23558571D01*
X73930000Y-23463333D01*
X73834761Y-23272857D01*
D11*
X11422142Y-75700000D02*
X11326904Y-75652380D01*
X11184047Y-75652380D01*
X11041190Y-75700000D01*
X10945952Y-75795238D01*
X10898333Y-75890476D01*
X10850714Y-76080952D01*
X10850714Y-76223809D01*
X10898333Y-76414285D01*
X10945952Y-76509523D01*
X11041190Y-76604761D01*
X11184047Y-76652380D01*
X11279285Y-76652380D01*
X11422142Y-76604761D01*
X11469761Y-76557142D01*
X11469761Y-76223809D01*
X11279285Y-76223809D01*
X11898333Y-75985714D02*
X11898333Y-76652380D01*
X11898333Y-76080952D02*
X11945952Y-76033333D01*
X12041190Y-75985714D01*
X12184047Y-75985714D01*
X12279285Y-76033333D01*
X12326904Y-76128571D01*
X12326904Y-76652380D01*
X13231666Y-76652380D02*
X13231666Y-75652380D01*
X13231666Y-76604761D02*
X13136428Y-76652380D01*
X12945952Y-76652380D01*
X12850714Y-76604761D01*
X12803095Y-76557142D01*
X12755476Y-76461904D01*
X12755476Y-76176190D01*
X12803095Y-76080952D01*
X12850714Y-76033333D01*
X12945952Y-75985714D01*
X13136428Y-75985714D01*
X13231666Y-76033333D01*
D12*
X127794285Y-17593571D02*
X128794285Y-17593571D01*
X128151428Y-19093571D01*
X130008571Y-18093571D02*
X130008571Y-19093571D01*
X129651428Y-17522142D02*
X129294285Y-18593571D01*
X130222857Y-18593571D01*
X130794285Y-19093571D02*
X130794285Y-17593571D01*
X130794285Y-18307857D02*
X131651428Y-18307857D01*
X131651428Y-19093571D02*
X131651428Y-17593571D01*
X133222857Y-18950714D02*
X133151428Y-19022142D01*
X132937142Y-19093571D01*
X132794285Y-19093571D01*
X132580000Y-19022142D01*
X132437142Y-18879285D01*
X132365714Y-18736428D01*
X132294285Y-18450714D01*
X132294285Y-18236428D01*
X132365714Y-17950714D01*
X132437142Y-17807857D01*
X132580000Y-17665000D01*
X132794285Y-17593571D01*
X132937142Y-17593571D01*
X133151428Y-17665000D01*
X133222857Y-17736428D01*
X133865714Y-19093571D02*
X133865714Y-17593571D01*
X134437142Y-17593571D01*
X134580000Y-17665000D01*
X134651428Y-17736428D01*
X134722857Y-17879285D01*
X134722857Y-18093571D01*
X134651428Y-18236428D01*
X134580000Y-18307857D01*
X134437142Y-18379285D01*
X133865714Y-18379285D01*
X135365714Y-17593571D02*
X135365714Y-18807857D01*
X135437142Y-18950714D01*
X135508571Y-19022142D01*
X135651428Y-19093571D01*
X135937142Y-19093571D01*
X136080000Y-19022142D01*
X136151428Y-18950714D01*
X136222857Y-18807857D01*
X136222857Y-17593571D01*
D10*
X99425238Y-88836190D02*
X99330000Y-88740952D01*
X99234761Y-88550476D01*
X99234761Y-88074285D01*
X99330000Y-87883809D01*
X99425238Y-87788571D01*
X99615714Y-87693333D01*
X99806190Y-87693333D01*
X100091904Y-87788571D01*
X101234761Y-88931428D01*
X101234761Y-87693333D01*
X99901428Y-85979047D02*
X101234761Y-85979047D01*
X99139523Y-86455238D02*
X100568095Y-86931428D01*
X100568095Y-85693333D01*
X99234761Y-83979047D02*
X99234761Y-84931428D01*
X100187142Y-85026666D01*
X100091904Y-84931428D01*
X99996666Y-84740952D01*
X99996666Y-84264761D01*
X100091904Y-84074285D01*
X100187142Y-83979047D01*
X100377619Y-83883809D01*
X100853809Y-83883809D01*
X101044285Y-83979047D01*
X101139523Y-84074285D01*
X101234761Y-84264761D01*
X101234761Y-84740952D01*
X101139523Y-84931428D01*
X101044285Y-85026666D01*
X142605238Y-50736190D02*
X142510000Y-50640952D01*
X142414761Y-50450476D01*
X142414761Y-49974285D01*
X142510000Y-49783809D01*
X142605238Y-49688571D01*
X142795714Y-49593333D01*
X142986190Y-49593333D01*
X143271904Y-49688571D01*
X144414761Y-50831428D01*
X144414761Y-49593333D01*
X143081428Y-47879047D02*
X144414761Y-47879047D01*
X142319523Y-48355238D02*
X143748095Y-48831428D01*
X143748095Y-47593333D01*
X142414761Y-45879047D02*
X142414761Y-46831428D01*
X143367142Y-46926666D01*
X143271904Y-46831428D01*
X143176666Y-46640952D01*
X143176666Y-46164761D01*
X143271904Y-45974285D01*
X143367142Y-45879047D01*
X143557619Y-45783809D01*
X144033809Y-45783809D01*
X144224285Y-45879047D01*
X144319523Y-45974285D01*
X144414761Y-46164761D01*
X144414761Y-46640952D01*
X144319523Y-46831428D01*
X144224285Y-46926666D01*
X89265238Y-48196190D02*
X89170000Y-48100952D01*
X89074761Y-47910476D01*
X89074761Y-47434285D01*
X89170000Y-47243809D01*
X89265238Y-47148571D01*
X89455714Y-47053333D01*
X89646190Y-47053333D01*
X89931904Y-47148571D01*
X91074761Y-48291428D01*
X91074761Y-47053333D01*
X89741428Y-45339047D02*
X91074761Y-45339047D01*
X88979523Y-45815238D02*
X90408095Y-46291428D01*
X90408095Y-45053333D01*
X89074761Y-43339047D02*
X89074761Y-44291428D01*
X90027142Y-44386666D01*
X89931904Y-44291428D01*
X89836666Y-44100952D01*
X89836666Y-43624761D01*
X89931904Y-43434285D01*
X90027142Y-43339047D01*
X90217619Y-43243809D01*
X90693809Y-43243809D01*
X90884285Y-43339047D01*
X90979523Y-43434285D01*
X91074761Y-43624761D01*
X91074761Y-44100952D01*
X90979523Y-44291428D01*
X90884285Y-44386666D01*
X73834761Y-47148571D02*
X73834761Y-48100952D01*
X74787142Y-48196190D01*
X74691904Y-48100952D01*
X74596666Y-47910476D01*
X74596666Y-47434285D01*
X74691904Y-47243809D01*
X74787142Y-47148571D01*
X74977619Y-47053333D01*
X75453809Y-47053333D01*
X75644285Y-47148571D01*
X75739523Y-47243809D01*
X75834761Y-47434285D01*
X75834761Y-47910476D01*
X75739523Y-48100952D01*
X75644285Y-48196190D01*
X73834761Y-46386666D02*
X73834761Y-45053333D01*
X75834761Y-45910476D01*
X73834761Y-44481904D02*
X73834761Y-43243809D01*
X74596666Y-43910476D01*
X74596666Y-43624761D01*
X74691904Y-43434285D01*
X74787142Y-43339047D01*
X74977619Y-43243809D01*
X75453809Y-43243809D01*
X75644285Y-43339047D01*
X75739523Y-43434285D01*
X75834761Y-43624761D01*
X75834761Y-44196190D01*
X75739523Y-44386666D01*
X75644285Y-44481904D01*
X73834761Y-87788571D02*
X73834761Y-88740952D01*
X74787142Y-88836190D01*
X74691904Y-88740952D01*
X74596666Y-88550476D01*
X74596666Y-88074285D01*
X74691904Y-87883809D01*
X74787142Y-87788571D01*
X74977619Y-87693333D01*
X75453809Y-87693333D01*
X75644285Y-87788571D01*
X75739523Y-87883809D01*
X75834761Y-88074285D01*
X75834761Y-88550476D01*
X75739523Y-88740952D01*
X75644285Y-88836190D01*
X73834761Y-87026666D02*
X73834761Y-85693333D01*
X75834761Y-86550476D01*
X73834761Y-85121904D02*
X73834761Y-83883809D01*
X74596666Y-84550476D01*
X74596666Y-84264761D01*
X74691904Y-84074285D01*
X74787142Y-83979047D01*
X74977619Y-83883809D01*
X75453809Y-83883809D01*
X75644285Y-83979047D01*
X75739523Y-84074285D01*
X75834761Y-84264761D01*
X75834761Y-84836190D01*
X75739523Y-85026666D01*
X75644285Y-85121904D01*
X35893333Y-59308095D02*
X35893333Y-58355714D01*
X36464761Y-59498571D02*
X34464761Y-58831904D01*
X36464761Y-58165238D01*
X36464761Y-57498571D02*
X34464761Y-57498571D01*
X35893333Y-56831904D01*
X34464761Y-56165238D01*
X36464761Y-56165238D01*
X34655238Y-55308095D02*
X34560000Y-55212857D01*
X34464761Y-55022380D01*
X34464761Y-54546190D01*
X34560000Y-54355714D01*
X34655238Y-54260476D01*
X34845714Y-54165238D01*
X35036190Y-54165238D01*
X35321904Y-54260476D01*
X36464761Y-55403333D01*
X36464761Y-54165238D01*
X36464761Y-53212857D02*
X36464761Y-52831904D01*
X36369523Y-52641428D01*
X36274285Y-52546190D01*
X35988571Y-52355714D01*
X35607619Y-52260476D01*
X34845714Y-52260476D01*
X34655238Y-52355714D01*
X34560000Y-52450952D01*
X34464761Y-52641428D01*
X34464761Y-53022380D01*
X34560000Y-53212857D01*
X34655238Y-53308095D01*
X34845714Y-53403333D01*
X35321904Y-53403333D01*
X35512380Y-53308095D01*
X35607619Y-53212857D01*
X35702857Y-53022380D01*
X35702857Y-52641428D01*
X35607619Y-52450952D01*
X35512380Y-52355714D01*
X35321904Y-52260476D01*
X35417142Y-50736666D02*
X35417142Y-51403333D01*
X36464761Y-51403333D02*
X34464761Y-51403333D01*
X34464761Y-50450952D01*
X34655238Y-49784285D02*
X34560000Y-49689047D01*
X34464761Y-49498571D01*
X34464761Y-49022380D01*
X34560000Y-48831904D01*
X34655238Y-48736666D01*
X34845714Y-48641428D01*
X35036190Y-48641428D01*
X35321904Y-48736666D01*
X36464761Y-49879523D01*
X36464761Y-48641428D01*
X34464761Y-47403333D02*
X34464761Y-47212857D01*
X34560000Y-47022380D01*
X34655238Y-46927142D01*
X34845714Y-46831904D01*
X35226666Y-46736666D01*
X35702857Y-46736666D01*
X36083809Y-46831904D01*
X36274285Y-46927142D01*
X36369523Y-47022380D01*
X36464761Y-47212857D01*
X36464761Y-47403333D01*
X36369523Y-47593809D01*
X36274285Y-47689047D01*
X36083809Y-47784285D01*
X35702857Y-47879523D01*
X35226666Y-47879523D01*
X34845714Y-47784285D01*
X34655238Y-47689047D01*
X34560000Y-47593809D01*
X34464761Y-47403333D01*
X34464761Y-45498571D02*
X34464761Y-45308095D01*
X34560000Y-45117619D01*
X34655238Y-45022380D01*
X34845714Y-44927142D01*
X35226666Y-44831904D01*
X35702857Y-44831904D01*
X36083809Y-44927142D01*
X36274285Y-45022380D01*
X36369523Y-45117619D01*
X36464761Y-45308095D01*
X36464761Y-45498571D01*
X36369523Y-45689047D01*
X36274285Y-45784285D01*
X36083809Y-45879523D01*
X35702857Y-45974761D01*
X35226666Y-45974761D01*
X34845714Y-45879523D01*
X34655238Y-45784285D01*
X34560000Y-45689047D01*
X34464761Y-45498571D01*
D11*
X105394285Y-33091428D02*
X106156190Y-33091428D01*
X105775238Y-33472380D02*
X105775238Y-32710476D01*
X107108571Y-32472380D02*
X106632380Y-32472380D01*
X106584761Y-32948571D01*
X106632380Y-32900952D01*
X106727619Y-32853333D01*
X106965714Y-32853333D01*
X107060952Y-32900952D01*
X107108571Y-32948571D01*
X107156190Y-33043809D01*
X107156190Y-33281904D01*
X107108571Y-33377142D01*
X107060952Y-33424761D01*
X106965714Y-33472380D01*
X106727619Y-33472380D01*
X106632380Y-33424761D01*
X106584761Y-33377142D01*
X107441904Y-32472380D02*
X107775238Y-33472380D01*
X108108571Y-32472380D01*
D12*
X110189285Y-77264761D02*
X110570238Y-77264761D01*
X110760714Y-77360000D01*
X110951190Y-77550476D01*
X111046428Y-77931428D01*
X111046428Y-78598095D01*
X110951190Y-78979047D01*
X110760714Y-79169523D01*
X110570238Y-79264761D01*
X110189285Y-79264761D01*
X109998809Y-79169523D01*
X109808333Y-78979047D01*
X109713095Y-78598095D01*
X109713095Y-77931428D01*
X109808333Y-77550476D01*
X109998809Y-77360000D01*
X110189285Y-77264761D01*
X111903571Y-79264761D02*
X111903571Y-77264761D01*
X112665476Y-77264761D01*
X112855952Y-77360000D01*
X112951190Y-77455238D01*
X113046428Y-77645714D01*
X113046428Y-77931428D01*
X112951190Y-78121904D01*
X112855952Y-78217142D01*
X112665476Y-78312380D01*
X111903571Y-78312380D01*
X113903571Y-78217142D02*
X114570238Y-78217142D01*
X114855952Y-79264761D02*
X113903571Y-79264761D01*
X113903571Y-77264761D01*
X114855952Y-77264761D01*
X116855952Y-79264761D02*
X116189285Y-78312380D01*
X115713095Y-79264761D02*
X115713095Y-77264761D01*
X116475000Y-77264761D01*
X116665476Y-77360000D01*
X116760714Y-77455238D01*
X116855952Y-77645714D01*
X116855952Y-77931428D01*
X116760714Y-78121904D01*
X116665476Y-78217142D01*
X116475000Y-78312380D01*
X115713095Y-78312380D01*
X117617857Y-78693333D02*
X118570238Y-78693333D01*
X117427380Y-79264761D02*
X118094047Y-77264761D01*
X118760714Y-79264761D01*
X119141666Y-77264761D02*
X120284523Y-77264761D01*
X119713095Y-79264761D02*
X119713095Y-77264761D01*
X120951190Y-79264761D02*
X120951190Y-77264761D01*
X122284523Y-77264761D02*
X122665476Y-77264761D01*
X122855952Y-77360000D01*
X123046428Y-77550476D01*
X123141666Y-77931428D01*
X123141666Y-78598095D01*
X123046428Y-78979047D01*
X122855952Y-79169523D01*
X122665476Y-79264761D01*
X122284523Y-79264761D01*
X122094047Y-79169523D01*
X121903571Y-78979047D01*
X121808333Y-78598095D01*
X121808333Y-77931428D01*
X121903571Y-77550476D01*
X122094047Y-77360000D01*
X122284523Y-77264761D01*
X123998809Y-79264761D02*
X123998809Y-77264761D01*
X125141666Y-79264761D01*
X125141666Y-77264761D01*
X115141666Y-82374285D02*
X115046428Y-82469523D01*
X114760714Y-82564761D01*
X114570238Y-82564761D01*
X114284523Y-82469523D01*
X114094047Y-82279047D01*
X113998809Y-82088571D01*
X113903571Y-81707619D01*
X113903571Y-81421904D01*
X113998809Y-81040952D01*
X114094047Y-80850476D01*
X114284523Y-80660000D01*
X114570238Y-80564761D01*
X114760714Y-80564761D01*
X115046428Y-80660000D01*
X115141666Y-80755238D01*
X116379761Y-80564761D02*
X116760714Y-80564761D01*
X116951190Y-80660000D01*
X117141666Y-80850476D01*
X117236904Y-81231428D01*
X117236904Y-81898095D01*
X117141666Y-82279047D01*
X116951190Y-82469523D01*
X116760714Y-82564761D01*
X116379761Y-82564761D01*
X116189285Y-82469523D01*
X115998809Y-82279047D01*
X115903571Y-81898095D01*
X115903571Y-81231428D01*
X115998809Y-80850476D01*
X116189285Y-80660000D01*
X116379761Y-80564761D01*
X118094047Y-82564761D02*
X118094047Y-80564761D01*
X118570238Y-80564761D01*
X118855952Y-80660000D01*
X119046428Y-80850476D01*
X119141666Y-81040952D01*
X119236904Y-81421904D01*
X119236904Y-81707619D01*
X119141666Y-82088571D01*
X119046428Y-82279047D01*
X118855952Y-82469523D01*
X118570238Y-82564761D01*
X118094047Y-82564761D01*
X120094047Y-81517142D02*
X120760714Y-81517142D01*
X121046428Y-82564761D02*
X120094047Y-82564761D01*
X120094047Y-80564761D01*
X121046428Y-80564761D01*
X156924285Y-60975476D02*
X157019523Y-61070714D01*
X157114761Y-61356428D01*
X157114761Y-61546904D01*
X157019523Y-61832619D01*
X156829047Y-62023095D01*
X156638571Y-62118333D01*
X156257619Y-62213571D01*
X155971904Y-62213571D01*
X155590952Y-62118333D01*
X155400476Y-62023095D01*
X155210000Y-61832619D01*
X155114761Y-61546904D01*
X155114761Y-61356428D01*
X155210000Y-61070714D01*
X155305238Y-60975476D01*
X155114761Y-59737380D02*
X155114761Y-59356428D01*
X155210000Y-59165952D01*
X155400476Y-58975476D01*
X155781428Y-58880238D01*
X156448095Y-58880238D01*
X156829047Y-58975476D01*
X157019523Y-59165952D01*
X157114761Y-59356428D01*
X157114761Y-59737380D01*
X157019523Y-59927857D01*
X156829047Y-60118333D01*
X156448095Y-60213571D01*
X155781428Y-60213571D01*
X155400476Y-60118333D01*
X155210000Y-59927857D01*
X155114761Y-59737380D01*
X157114761Y-58023095D02*
X155114761Y-58023095D01*
X157114761Y-56880238D01*
X155114761Y-56880238D01*
X157019523Y-56023095D02*
X157114761Y-55737380D01*
X157114761Y-55261190D01*
X157019523Y-55070714D01*
X156924285Y-54975476D01*
X156733809Y-54880238D01*
X156543333Y-54880238D01*
X156352857Y-54975476D01*
X156257619Y-55070714D01*
X156162380Y-55261190D01*
X156067142Y-55642142D01*
X155971904Y-55832619D01*
X155876666Y-55927857D01*
X155686190Y-56023095D01*
X155495714Y-56023095D01*
X155305238Y-55927857D01*
X155210000Y-55832619D01*
X155114761Y-55642142D01*
X155114761Y-55165952D01*
X155210000Y-54880238D01*
X155114761Y-54308809D02*
X155114761Y-53165952D01*
X157114761Y-53737380D02*
X155114761Y-53737380D01*
X104124523Y-41989285D02*
X104029285Y-42084523D01*
X103743571Y-42179761D01*
X103553095Y-42179761D01*
X103267380Y-42084523D01*
X103076904Y-41894047D01*
X102981666Y-41703571D01*
X102886428Y-41322619D01*
X102886428Y-41036904D01*
X102981666Y-40655952D01*
X103076904Y-40465476D01*
X103267380Y-40275000D01*
X103553095Y-40179761D01*
X103743571Y-40179761D01*
X104029285Y-40275000D01*
X104124523Y-40370238D01*
X105362619Y-40179761D02*
X105743571Y-40179761D01*
X105934047Y-40275000D01*
X106124523Y-40465476D01*
X106219761Y-40846428D01*
X106219761Y-41513095D01*
X106124523Y-41894047D01*
X105934047Y-42084523D01*
X105743571Y-42179761D01*
X105362619Y-42179761D01*
X105172142Y-42084523D01*
X104981666Y-41894047D01*
X104886428Y-41513095D01*
X104886428Y-40846428D01*
X104981666Y-40465476D01*
X105172142Y-40275000D01*
X105362619Y-40179761D01*
X107076904Y-42179761D02*
X107076904Y-40179761D01*
X108219761Y-42179761D01*
X108219761Y-40179761D01*
X109076904Y-42084523D02*
X109362619Y-42179761D01*
X109838809Y-42179761D01*
X110029285Y-42084523D01*
X110124523Y-41989285D01*
X110219761Y-41798809D01*
X110219761Y-41608333D01*
X110124523Y-41417857D01*
X110029285Y-41322619D01*
X109838809Y-41227380D01*
X109457857Y-41132142D01*
X109267380Y-41036904D01*
X109172142Y-40941666D01*
X109076904Y-40751190D01*
X109076904Y-40560714D01*
X109172142Y-40370238D01*
X109267380Y-40275000D01*
X109457857Y-40179761D01*
X109934047Y-40179761D01*
X110219761Y-40275000D01*
X110791190Y-40179761D02*
X111934047Y-40179761D01*
X111362619Y-42179761D02*
X111362619Y-40179761D01*
D13*
X33410000Y-25926428D02*
X33267142Y-26069285D01*
X32838571Y-26212142D01*
X32552857Y-26212142D01*
X32124285Y-26069285D01*
X31838571Y-25783571D01*
X31695714Y-25497857D01*
X31552857Y-24926428D01*
X31552857Y-24497857D01*
X31695714Y-23926428D01*
X31838571Y-23640714D01*
X32124285Y-23355000D01*
X32552857Y-23212142D01*
X32838571Y-23212142D01*
X33267142Y-23355000D01*
X33410000Y-23497857D01*
X35124285Y-26212142D02*
X34838571Y-26069285D01*
X34695714Y-25926428D01*
X34552857Y-25640714D01*
X34552857Y-24783571D01*
X34695714Y-24497857D01*
X34838571Y-24355000D01*
X35124285Y-24212142D01*
X35552857Y-24212142D01*
X35838571Y-24355000D01*
X35981428Y-24497857D01*
X36124285Y-24783571D01*
X36124285Y-25640714D01*
X35981428Y-25926428D01*
X35838571Y-26069285D01*
X35552857Y-26212142D01*
X35124285Y-26212142D01*
X37410000Y-26212142D02*
X37410000Y-24212142D01*
X37410000Y-24497857D02*
X37552857Y-24355000D01*
X37838571Y-24212142D01*
X38267142Y-24212142D01*
X38552857Y-24355000D01*
X38695714Y-24640714D01*
X38695714Y-26212142D01*
X38695714Y-24640714D02*
X38838571Y-24355000D01*
X39124285Y-24212142D01*
X39552857Y-24212142D01*
X39838571Y-24355000D01*
X39981428Y-24640714D01*
X39981428Y-26212142D01*
X41410000Y-26212142D02*
X41410000Y-24212142D01*
X41410000Y-24497857D02*
X41552857Y-24355000D01*
X41838571Y-24212142D01*
X42267142Y-24212142D01*
X42552857Y-24355000D01*
X42695714Y-24640714D01*
X42695714Y-26212142D01*
X42695714Y-24640714D02*
X42838571Y-24355000D01*
X43124285Y-24212142D01*
X43552857Y-24212142D01*
X43838571Y-24355000D01*
X43981428Y-24640714D01*
X43981428Y-26212142D01*
X46695714Y-26212142D02*
X46695714Y-24640714D01*
X46552857Y-24355000D01*
X46267142Y-24212142D01*
X45695714Y-24212142D01*
X45410000Y-24355000D01*
X46695714Y-26069285D02*
X46410000Y-26212142D01*
X45695714Y-26212142D01*
X45410000Y-26069285D01*
X45267142Y-25783571D01*
X45267142Y-25497857D01*
X45410000Y-25212142D01*
X45695714Y-25069285D01*
X46410000Y-25069285D01*
X46695714Y-24926428D01*
X48124285Y-24212142D02*
X48124285Y-26212142D01*
X48124285Y-24497857D02*
X48267142Y-24355000D01*
X48552857Y-24212142D01*
X48981428Y-24212142D01*
X49267142Y-24355000D01*
X49410000Y-24640714D01*
X49410000Y-26212142D01*
X52124285Y-26212142D02*
X52124285Y-23212142D01*
X52124285Y-26069285D02*
X51838571Y-26212142D01*
X51267142Y-26212142D01*
X50981428Y-26069285D01*
X50838571Y-25926428D01*
X50695714Y-25640714D01*
X50695714Y-24783571D01*
X50838571Y-24497857D01*
X50981428Y-24355000D01*
X51267142Y-24212142D01*
X51838571Y-24212142D01*
X52124285Y-24355000D01*
X39552857Y-31112142D02*
X38552857Y-29683571D01*
X37838571Y-31112142D02*
X37838571Y-28112142D01*
X38981428Y-28112142D01*
X39267142Y-28255000D01*
X39410000Y-28397857D01*
X39552857Y-28683571D01*
X39552857Y-29112142D01*
X39410000Y-29397857D01*
X39267142Y-29540714D01*
X38981428Y-29683571D01*
X37838571Y-29683571D01*
X41410000Y-28112142D02*
X41981428Y-28112142D01*
X42267142Y-28255000D01*
X42552857Y-28540714D01*
X42695714Y-29112142D01*
X42695714Y-30112142D01*
X42552857Y-30683571D01*
X42267142Y-30969285D01*
X41981428Y-31112142D01*
X41410000Y-31112142D01*
X41124285Y-30969285D01*
X40838571Y-30683571D01*
X40695714Y-30112142D01*
X40695714Y-29112142D01*
X40838571Y-28540714D01*
X41124285Y-28255000D01*
X41410000Y-28112142D01*
X43981428Y-31112142D02*
X43981428Y-28112142D01*
X44981428Y-30255000D01*
X45981428Y-28112142D01*
X45981428Y-31112142D01*
D11*
X126992142Y-106180000D02*
X126896904Y-106132380D01*
X126754047Y-106132380D01*
X126611190Y-106180000D01*
X126515952Y-106275238D01*
X126468333Y-106370476D01*
X126420714Y-106560952D01*
X126420714Y-106703809D01*
X126468333Y-106894285D01*
X126515952Y-106989523D01*
X126611190Y-107084761D01*
X126754047Y-107132380D01*
X126849285Y-107132380D01*
X126992142Y-107084761D01*
X127039761Y-107037142D01*
X127039761Y-106703809D01*
X126849285Y-106703809D01*
X127468333Y-106465714D02*
X127468333Y-107132380D01*
X127468333Y-106560952D02*
X127515952Y-106513333D01*
X127611190Y-106465714D01*
X127754047Y-106465714D01*
X127849285Y-106513333D01*
X127896904Y-106608571D01*
X127896904Y-107132380D01*
X128801666Y-107132380D02*
X128801666Y-106132380D01*
X128801666Y-107084761D02*
X128706428Y-107132380D01*
X128515952Y-107132380D01*
X128420714Y-107084761D01*
X128373095Y-107037142D01*
X128325476Y-106941904D01*
X128325476Y-106656190D01*
X128373095Y-106560952D01*
X128420714Y-106513333D01*
X128515952Y-106465714D01*
X128706428Y-106465714D01*
X128801666Y-106513333D01*
X11088809Y-72745000D02*
X12088809Y-72745000D01*
X11898333Y-74017142D02*
X11850714Y-74064761D01*
X11707857Y-74112380D01*
X11612619Y-74112380D01*
X11469761Y-74064761D01*
X11374523Y-73969523D01*
X11326904Y-73874285D01*
X11279285Y-73683809D01*
X11279285Y-73540952D01*
X11326904Y-73350476D01*
X11374523Y-73255238D01*
X11469761Y-73160000D01*
X11612619Y-73112380D01*
X11707857Y-73112380D01*
X11850714Y-73160000D01*
X11898333Y-73207619D01*
X12088809Y-72745000D02*
X13041190Y-72745000D01*
X12279285Y-74064761D02*
X12422142Y-74112380D01*
X12660238Y-74112380D01*
X12755476Y-74064761D01*
X12803095Y-74017142D01*
X12850714Y-73921904D01*
X12850714Y-73826666D01*
X12803095Y-73731428D01*
X12755476Y-73683809D01*
X12660238Y-73636190D01*
X12469761Y-73588571D01*
X12374523Y-73540952D01*
X12326904Y-73493333D01*
X12279285Y-73398095D01*
X12279285Y-73302857D01*
X12326904Y-73207619D01*
X12374523Y-73160000D01*
X12469761Y-73112380D01*
X12707857Y-73112380D01*
X12850714Y-73160000D01*
X62698333Y-23534642D02*
X62650714Y-23582261D01*
X62507857Y-23629880D01*
X62412619Y-23629880D01*
X62269761Y-23582261D01*
X62174523Y-23487023D01*
X62126904Y-23391785D01*
X62079285Y-23201309D01*
X62079285Y-23058452D01*
X62126904Y-22867976D01*
X62174523Y-22772738D01*
X62269761Y-22677500D01*
X62412619Y-22629880D01*
X62507857Y-22629880D01*
X62650714Y-22677500D01*
X62698333Y-22725119D01*
X63650714Y-23629880D02*
X63079285Y-23629880D01*
X63365000Y-23629880D02*
X63365000Y-22629880D01*
X63269761Y-22772738D01*
X63174523Y-22867976D01*
X63079285Y-22915595D01*
X154432142Y-42265000D02*
X155241666Y-42265000D01*
X155146428Y-43632380D02*
X154670238Y-43632380D01*
X154670238Y-42632380D01*
X155241666Y-42265000D02*
X156241666Y-42265000D01*
X155479761Y-43632380D02*
X155479761Y-42632380D01*
X155717857Y-42632380D01*
X155860714Y-42680000D01*
X155955952Y-42775238D01*
X156003571Y-42870476D01*
X156051190Y-43060952D01*
X156051190Y-43203809D01*
X156003571Y-43394285D01*
X155955952Y-43489523D01*
X155860714Y-43584761D01*
X155717857Y-43632380D01*
X155479761Y-43632380D01*
X156241666Y-42265000D02*
X156717857Y-42265000D01*
X156479761Y-43632380D02*
X156479761Y-42632380D01*
X154448095Y-48664761D02*
X154590952Y-48712380D01*
X154829047Y-48712380D01*
X154924285Y-48664761D01*
X154971904Y-48617142D01*
X155019523Y-48521904D01*
X155019523Y-48426666D01*
X154971904Y-48331428D01*
X154924285Y-48283809D01*
X154829047Y-48236190D01*
X154638571Y-48188571D01*
X154543333Y-48140952D01*
X154495714Y-48093333D01*
X154448095Y-47998095D01*
X154448095Y-47902857D01*
X154495714Y-47807619D01*
X154543333Y-47760000D01*
X154638571Y-47712380D01*
X154876666Y-47712380D01*
X155019523Y-47760000D01*
X156019523Y-48712380D02*
X155686190Y-48236190D01*
X155448095Y-48712380D02*
X155448095Y-47712380D01*
X155829047Y-47712380D01*
X155924285Y-47760000D01*
X155971904Y-47807619D01*
X156019523Y-47902857D01*
X156019523Y-48045714D01*
X155971904Y-48140952D01*
X155924285Y-48188571D01*
X155829047Y-48236190D01*
X155448095Y-48236190D01*
X157019523Y-48617142D02*
X156971904Y-48664761D01*
X156829047Y-48712380D01*
X156733809Y-48712380D01*
X156590952Y-48664761D01*
X156495714Y-48569523D01*
X156448095Y-48474285D01*
X156400476Y-48283809D01*
X156400476Y-48140952D01*
X156448095Y-47950476D01*
X156495714Y-47855238D01*
X156590952Y-47760000D01*
X156733809Y-47712380D01*
X156829047Y-47712380D01*
X156971904Y-47760000D01*
X157019523Y-47807619D01*
X157352857Y-47712380D02*
X158019523Y-47712380D01*
X157590952Y-48712380D01*
X154932142Y-68080000D02*
X154836904Y-68032380D01*
X154694047Y-68032380D01*
X154551190Y-68080000D01*
X154455952Y-68175238D01*
X154408333Y-68270476D01*
X154360714Y-68460952D01*
X154360714Y-68603809D01*
X154408333Y-68794285D01*
X154455952Y-68889523D01*
X154551190Y-68984761D01*
X154694047Y-69032380D01*
X154789285Y-69032380D01*
X154932142Y-68984761D01*
X154979761Y-68937142D01*
X154979761Y-68603809D01*
X154789285Y-68603809D01*
X155408333Y-68365714D02*
X155408333Y-69032380D01*
X155408333Y-68460952D02*
X155455952Y-68413333D01*
X155551190Y-68365714D01*
X155694047Y-68365714D01*
X155789285Y-68413333D01*
X155836904Y-68508571D01*
X155836904Y-69032380D01*
X156741666Y-69032380D02*
X156741666Y-68032380D01*
X156741666Y-68984761D02*
X156646428Y-69032380D01*
X156455952Y-69032380D01*
X156360714Y-68984761D01*
X156313095Y-68937142D01*
X156265476Y-68841904D01*
X156265476Y-68556190D01*
X156313095Y-68460952D01*
X156360714Y-68413333D01*
X156455952Y-68365714D01*
X156646428Y-68365714D01*
X156741666Y-68413333D01*
X154448095Y-66444761D02*
X154590952Y-66492380D01*
X154829047Y-66492380D01*
X154924285Y-66444761D01*
X154971904Y-66397142D01*
X155019523Y-66301904D01*
X155019523Y-66206666D01*
X154971904Y-66111428D01*
X154924285Y-66063809D01*
X154829047Y-66016190D01*
X154638571Y-65968571D01*
X154543333Y-65920952D01*
X154495714Y-65873333D01*
X154448095Y-65778095D01*
X154448095Y-65682857D01*
X154495714Y-65587619D01*
X154543333Y-65540000D01*
X154638571Y-65492380D01*
X154876666Y-65492380D01*
X155019523Y-65540000D01*
X156019523Y-66492380D02*
X155686190Y-66016190D01*
X155448095Y-66492380D02*
X155448095Y-65492380D01*
X155829047Y-65492380D01*
X155924285Y-65540000D01*
X155971904Y-65587619D01*
X156019523Y-65682857D01*
X156019523Y-65825714D01*
X155971904Y-65920952D01*
X155924285Y-65968571D01*
X155829047Y-66016190D01*
X155448095Y-66016190D01*
X157019523Y-66397142D02*
X156971904Y-66444761D01*
X156829047Y-66492380D01*
X156733809Y-66492380D01*
X156590952Y-66444761D01*
X156495714Y-66349523D01*
X156448095Y-66254285D01*
X156400476Y-66063809D01*
X156400476Y-65920952D01*
X156448095Y-65730476D01*
X156495714Y-65635238D01*
X156590952Y-65540000D01*
X156733809Y-65492380D01*
X156829047Y-65492380D01*
X156971904Y-65540000D01*
X157019523Y-65587619D01*
X157638571Y-65492380D02*
X157733809Y-65492380D01*
X157829047Y-65540000D01*
X157876666Y-65587619D01*
X157924285Y-65682857D01*
X157971904Y-65873333D01*
X157971904Y-66111428D01*
X157924285Y-66301904D01*
X157876666Y-66397142D01*
X157829047Y-66444761D01*
X157733809Y-66492380D01*
X157638571Y-66492380D01*
X157543333Y-66444761D01*
X157495714Y-66397142D01*
X157448095Y-66301904D01*
X157400476Y-66111428D01*
X157400476Y-65873333D01*
X157448095Y-65682857D01*
X157495714Y-65587619D01*
X157543333Y-65540000D01*
X157638571Y-65492380D01*
X116895714Y-46077142D02*
X116848095Y-46124761D01*
X116705238Y-46172380D01*
X116610000Y-46172380D01*
X116467142Y-46124761D01*
X116371904Y-46029523D01*
X116324285Y-45934285D01*
X116276666Y-45743809D01*
X116276666Y-45600952D01*
X116324285Y-45410476D01*
X116371904Y-45315238D01*
X116467142Y-45220000D01*
X116610000Y-45172380D01*
X116705238Y-45172380D01*
X116848095Y-45220000D01*
X116895714Y-45267619D01*
X117514761Y-45172380D02*
X117705238Y-45172380D01*
X117800476Y-45220000D01*
X117895714Y-45315238D01*
X117943333Y-45505714D01*
X117943333Y-45839047D01*
X117895714Y-46029523D01*
X117800476Y-46124761D01*
X117705238Y-46172380D01*
X117514761Y-46172380D01*
X117419523Y-46124761D01*
X117324285Y-46029523D01*
X117276666Y-45839047D01*
X117276666Y-45505714D01*
X117324285Y-45315238D01*
X117419523Y-45220000D01*
X117514761Y-45172380D01*
X118371904Y-46172380D02*
X118371904Y-45172380D01*
X118943333Y-46172380D01*
X118943333Y-45172380D01*
X119324285Y-45172380D02*
X119990952Y-45172380D01*
X119562380Y-46172380D01*
X117467142Y-65540000D02*
X117371904Y-65492380D01*
X117229047Y-65492380D01*
X117086190Y-65540000D01*
X116990952Y-65635238D01*
X116943333Y-65730476D01*
X116895714Y-65920952D01*
X116895714Y-66063809D01*
X116943333Y-66254285D01*
X116990952Y-66349523D01*
X117086190Y-66444761D01*
X117229047Y-66492380D01*
X117324285Y-66492380D01*
X117467142Y-66444761D01*
X117514761Y-66397142D01*
X117514761Y-66063809D01*
X117324285Y-66063809D01*
X117943333Y-65825714D02*
X117943333Y-66492380D01*
X117943333Y-65920952D02*
X117990952Y-65873333D01*
X118086190Y-65825714D01*
X118229047Y-65825714D01*
X118324285Y-65873333D01*
X118371904Y-65968571D01*
X118371904Y-66492380D01*
X119276666Y-66492380D02*
X119276666Y-65492380D01*
X119276666Y-66444761D02*
X119181428Y-66492380D01*
X118990952Y-66492380D01*
X118895714Y-66444761D01*
X118848095Y-66397142D01*
X118800476Y-66301904D01*
X118800476Y-66016190D01*
X118848095Y-65920952D01*
X118895714Y-65873333D01*
X118990952Y-65825714D01*
X119181428Y-65825714D01*
X119276666Y-65873333D01*
X116895714Y-63857142D02*
X116848095Y-63904761D01*
X116705238Y-63952380D01*
X116610000Y-63952380D01*
X116467142Y-63904761D01*
X116371904Y-63809523D01*
X116324285Y-63714285D01*
X116276666Y-63523809D01*
X116276666Y-63380952D01*
X116324285Y-63190476D01*
X116371904Y-63095238D01*
X116467142Y-63000000D01*
X116610000Y-62952380D01*
X116705238Y-62952380D01*
X116848095Y-63000000D01*
X116895714Y-63047619D01*
X117514761Y-62952380D02*
X117705238Y-62952380D01*
X117800476Y-63000000D01*
X117895714Y-63095238D01*
X117943333Y-63285714D01*
X117943333Y-63619047D01*
X117895714Y-63809523D01*
X117800476Y-63904761D01*
X117705238Y-63952380D01*
X117514761Y-63952380D01*
X117419523Y-63904761D01*
X117324285Y-63809523D01*
X117276666Y-63619047D01*
X117276666Y-63285714D01*
X117324285Y-63095238D01*
X117419523Y-63000000D01*
X117514761Y-62952380D01*
X118371904Y-63952380D02*
X118371904Y-62952380D01*
X118943333Y-63952380D01*
X118943333Y-62952380D01*
X119610000Y-62952380D02*
X119705238Y-62952380D01*
X119800476Y-63000000D01*
X119848095Y-63047619D01*
X119895714Y-63142857D01*
X119943333Y-63333333D01*
X119943333Y-63571428D01*
X119895714Y-63761904D01*
X119848095Y-63857142D01*
X119800476Y-63904761D01*
X119705238Y-63952380D01*
X119610000Y-63952380D01*
X119514761Y-63904761D01*
X119467142Y-63857142D01*
X119419523Y-63761904D01*
X119371904Y-63571428D01*
X119371904Y-63333333D01*
X119419523Y-63142857D01*
X119467142Y-63047619D01*
X119514761Y-63000000D01*
X119610000Y-62952380D01*
X127079523Y-86717142D02*
X127031904Y-86764761D01*
X126889047Y-86812380D01*
X126793809Y-86812380D01*
X126650952Y-86764761D01*
X126555714Y-86669523D01*
X126508095Y-86574285D01*
X126460476Y-86383809D01*
X126460476Y-86240952D01*
X126508095Y-86050476D01*
X126555714Y-85955238D01*
X126650952Y-85860000D01*
X126793809Y-85812380D01*
X126889047Y-85812380D01*
X127031904Y-85860000D01*
X127079523Y-85907619D01*
X127698571Y-85812380D02*
X127889047Y-85812380D01*
X127984285Y-85860000D01*
X128079523Y-85955238D01*
X128127142Y-86145714D01*
X128127142Y-86479047D01*
X128079523Y-86669523D01*
X127984285Y-86764761D01*
X127889047Y-86812380D01*
X127698571Y-86812380D01*
X127603333Y-86764761D01*
X127508095Y-86669523D01*
X127460476Y-86479047D01*
X127460476Y-86145714D01*
X127508095Y-85955238D01*
X127603333Y-85860000D01*
X127698571Y-85812380D01*
X128555714Y-86812380D02*
X128555714Y-85812380D01*
X128936666Y-85812380D01*
X129031904Y-85860000D01*
X129079523Y-85907619D01*
X129127142Y-86002857D01*
X129127142Y-86145714D01*
X129079523Y-86240952D01*
X129031904Y-86288571D01*
X128936666Y-86336190D01*
X128555714Y-86336190D01*
X129460476Y-85812380D02*
X130127142Y-85812380D01*
X129698571Y-86812380D01*
X127079523Y-104497142D02*
X127031904Y-104544761D01*
X126889047Y-104592380D01*
X126793809Y-104592380D01*
X126650952Y-104544761D01*
X126555714Y-104449523D01*
X126508095Y-104354285D01*
X126460476Y-104163809D01*
X126460476Y-104020952D01*
X126508095Y-103830476D01*
X126555714Y-103735238D01*
X126650952Y-103640000D01*
X126793809Y-103592380D01*
X126889047Y-103592380D01*
X127031904Y-103640000D01*
X127079523Y-103687619D01*
X127698571Y-103592380D02*
X127889047Y-103592380D01*
X127984285Y-103640000D01*
X128079523Y-103735238D01*
X128127142Y-103925714D01*
X128127142Y-104259047D01*
X128079523Y-104449523D01*
X127984285Y-104544761D01*
X127889047Y-104592380D01*
X127698571Y-104592380D01*
X127603333Y-104544761D01*
X127508095Y-104449523D01*
X127460476Y-104259047D01*
X127460476Y-103925714D01*
X127508095Y-103735238D01*
X127603333Y-103640000D01*
X127698571Y-103592380D01*
X128555714Y-104592380D02*
X128555714Y-103592380D01*
X128936666Y-103592380D01*
X129031904Y-103640000D01*
X129079523Y-103687619D01*
X129127142Y-103782857D01*
X129127142Y-103925714D01*
X129079523Y-104020952D01*
X129031904Y-104068571D01*
X128936666Y-104116190D01*
X128555714Y-104116190D01*
X129746190Y-103592380D02*
X129841428Y-103592380D01*
X129936666Y-103640000D01*
X129984285Y-103687619D01*
X130031904Y-103782857D01*
X130079523Y-103973333D01*
X130079523Y-104211428D01*
X130031904Y-104401904D01*
X129984285Y-104497142D01*
X129936666Y-104544761D01*
X129841428Y-104592380D01*
X129746190Y-104592380D01*
X129650952Y-104544761D01*
X129603333Y-104497142D01*
X129555714Y-104401904D01*
X129508095Y-104211428D01*
X129508095Y-103973333D01*
X129555714Y-103782857D01*
X129603333Y-103687619D01*
X129650952Y-103640000D01*
X129746190Y-103592380D01*
X99052142Y-24265000D02*
X98956904Y-24217380D01*
X98814047Y-24217380D01*
X98671190Y-24265000D01*
X98575952Y-24360238D01*
X98528333Y-24455476D01*
X98480714Y-24645952D01*
X98480714Y-24788809D01*
X98528333Y-24979285D01*
X98575952Y-25074523D01*
X98671190Y-25169761D01*
X98814047Y-25217380D01*
X98909285Y-25217380D01*
X99052142Y-25169761D01*
X99099761Y-25122142D01*
X99099761Y-24788809D01*
X98909285Y-24788809D01*
X99528333Y-24550714D02*
X99528333Y-25217380D01*
X99528333Y-24645952D02*
X99575952Y-24598333D01*
X99671190Y-24550714D01*
X99814047Y-24550714D01*
X99909285Y-24598333D01*
X99956904Y-24693571D01*
X99956904Y-25217380D01*
X100861666Y-25217380D02*
X100861666Y-24217380D01*
X100861666Y-25169761D02*
X100766428Y-25217380D01*
X100575952Y-25217380D01*
X100480714Y-25169761D01*
X100433095Y-25122142D01*
X100385476Y-25026904D01*
X100385476Y-24741190D01*
X100433095Y-24645952D01*
X100480714Y-24598333D01*
X100575952Y-24550714D01*
X100766428Y-24550714D01*
X100861666Y-24598333D01*
X112474523Y-24217380D02*
X112807857Y-25217380D01*
X113141190Y-24217380D01*
X113903095Y-25169761D02*
X113807857Y-25217380D01*
X113617380Y-25217380D01*
X113522142Y-25169761D01*
X113474523Y-25122142D01*
X113426904Y-25026904D01*
X113426904Y-24741190D01*
X113474523Y-24645952D01*
X113522142Y-24598333D01*
X113617380Y-24550714D01*
X113807857Y-24550714D01*
X113903095Y-24598333D01*
X114760238Y-25169761D02*
X114665000Y-25217380D01*
X114474523Y-25217380D01*
X114379285Y-25169761D01*
X114331666Y-25122142D01*
X114284047Y-25026904D01*
X114284047Y-24741190D01*
X114331666Y-24645952D01*
X114379285Y-24598333D01*
X114474523Y-24550714D01*
X114665000Y-24550714D01*
X114760238Y-24598333D01*
X11350714Y-43346666D02*
X11826904Y-43346666D01*
X11255476Y-43632380D02*
X11588809Y-42632380D01*
X11922142Y-43632380D01*
X12398333Y-43060952D02*
X12303095Y-43013333D01*
X12255476Y-42965714D01*
X12207857Y-42870476D01*
X12207857Y-42822857D01*
X12255476Y-42727619D01*
X12303095Y-42680000D01*
X12398333Y-42632380D01*
X12588809Y-42632380D01*
X12684047Y-42680000D01*
X12731666Y-42727619D01*
X12779285Y-42822857D01*
X12779285Y-42870476D01*
X12731666Y-42965714D01*
X12684047Y-43013333D01*
X12588809Y-43060952D01*
X12398333Y-43060952D01*
X12303095Y-43108571D01*
X12255476Y-43156190D01*
X12207857Y-43251428D01*
X12207857Y-43441904D01*
X12255476Y-43537142D01*
X12303095Y-43584761D01*
X12398333Y-43632380D01*
X12588809Y-43632380D01*
X12684047Y-43584761D01*
X12731666Y-43537142D01*
X12779285Y-43441904D01*
X12779285Y-43251428D01*
X12731666Y-43156190D01*
X12684047Y-43108571D01*
X12588809Y-43060952D01*
X10874523Y-25566666D02*
X11350714Y-25566666D01*
X10779285Y-25852380D02*
X11112619Y-24852380D01*
X11445952Y-25852380D01*
X12303095Y-25852380D02*
X11731666Y-25852380D01*
X12017380Y-25852380D02*
X12017380Y-24852380D01*
X11922142Y-24995238D01*
X11826904Y-25090476D01*
X11731666Y-25138095D01*
X13207857Y-24852380D02*
X12731666Y-24852380D01*
X12684047Y-25328571D01*
X12731666Y-25280952D01*
X12826904Y-25233333D01*
X13065000Y-25233333D01*
X13160238Y-25280952D01*
X13207857Y-25328571D01*
X13255476Y-25423809D01*
X13255476Y-25661904D01*
X13207857Y-25757142D01*
X13160238Y-25804761D01*
X13065000Y-25852380D01*
X12826904Y-25852380D01*
X12731666Y-25804761D01*
X12684047Y-25757142D01*
X11422142Y-68080000D02*
X11326904Y-68032380D01*
X11184047Y-68032380D01*
X11041190Y-68080000D01*
X10945952Y-68175238D01*
X10898333Y-68270476D01*
X10850714Y-68460952D01*
X10850714Y-68603809D01*
X10898333Y-68794285D01*
X10945952Y-68889523D01*
X11041190Y-68984761D01*
X11184047Y-69032380D01*
X11279285Y-69032380D01*
X11422142Y-68984761D01*
X11469761Y-68937142D01*
X11469761Y-68603809D01*
X11279285Y-68603809D01*
X11898333Y-68365714D02*
X11898333Y-69032380D01*
X11898333Y-68460952D02*
X11945952Y-68413333D01*
X12041190Y-68365714D01*
X12184047Y-68365714D01*
X12279285Y-68413333D01*
X12326904Y-68508571D01*
X12326904Y-69032380D01*
X13231666Y-69032380D02*
X13231666Y-68032380D01*
X13231666Y-68984761D02*
X13136428Y-69032380D01*
X12945952Y-69032380D01*
X12850714Y-68984761D01*
X12803095Y-68937142D01*
X12755476Y-68841904D01*
X12755476Y-68556190D01*
X12803095Y-68460952D01*
X12850714Y-68413333D01*
X12945952Y-68365714D01*
X13136428Y-68365714D01*
X13231666Y-68413333D01*
X11422142Y-22360000D02*
X11326904Y-22312380D01*
X11184047Y-22312380D01*
X11041190Y-22360000D01*
X10945952Y-22455238D01*
X10898333Y-22550476D01*
X10850714Y-22740952D01*
X10850714Y-22883809D01*
X10898333Y-23074285D01*
X10945952Y-23169523D01*
X11041190Y-23264761D01*
X11184047Y-23312380D01*
X11279285Y-23312380D01*
X11422142Y-23264761D01*
X11469761Y-23217142D01*
X11469761Y-22883809D01*
X11279285Y-22883809D01*
X11898333Y-22645714D02*
X11898333Y-23312380D01*
X11898333Y-22740952D02*
X11945952Y-22693333D01*
X12041190Y-22645714D01*
X12184047Y-22645714D01*
X12279285Y-22693333D01*
X12326904Y-22788571D01*
X12326904Y-23312380D01*
X13231666Y-23312380D02*
X13231666Y-22312380D01*
X13231666Y-23264761D02*
X13136428Y-23312380D01*
X12945952Y-23312380D01*
X12850714Y-23264761D01*
X12803095Y-23217142D01*
X12755476Y-23121904D01*
X12755476Y-22836190D01*
X12803095Y-22740952D01*
X12850714Y-22693333D01*
X12945952Y-22645714D01*
X13136428Y-22645714D01*
X13231666Y-22693333D01*
X11350714Y-48426666D02*
X11826904Y-48426666D01*
X11255476Y-48712380D02*
X11588809Y-47712380D01*
X11922142Y-48712380D01*
X12160238Y-47712380D02*
X12826904Y-47712380D01*
X12398333Y-48712380D01*
X11668214Y-66206666D02*
X12144404Y-66206666D01*
X11572976Y-66492380D02*
X11906309Y-65492380D01*
X12239642Y-66492380D01*
X12763452Y-65492380D02*
X12858690Y-65492380D01*
X12953928Y-65540000D01*
X13001547Y-65587619D01*
X13049166Y-65682857D01*
X13096785Y-65873333D01*
X13096785Y-66111428D01*
X13049166Y-66301904D01*
X13001547Y-66397142D01*
X12953928Y-66444761D01*
X12858690Y-66492380D01*
X12763452Y-66492380D01*
X12668214Y-66444761D01*
X12620595Y-66397142D01*
X12572976Y-66301904D01*
X12525357Y-66111428D01*
X12525357Y-65873333D01*
X12572976Y-65682857D01*
X12620595Y-65587619D01*
X12668214Y-65540000D01*
X12763452Y-65492380D01*
D14*
%TO.C,J14*%
X13910000Y-77530000D02*
X16570000Y-77530000D01*
X13910000Y-77470000D02*
X13910000Y-77530000D01*
X16570000Y-77470000D02*
X16570000Y-77530000D01*
X13910000Y-77470000D02*
X16570000Y-77470000D01*
X13910000Y-76200000D02*
X13910000Y-74870000D01*
X13910000Y-74870000D02*
X15240000Y-74870000D01*
%TO.C,C1*%
X33641000Y-68460000D02*
X35005000Y-68460000D01*
X29765000Y-68460000D02*
X31129000Y-68460000D01*
X33641000Y-76200000D02*
X35005000Y-76200000D01*
X29765000Y-76200000D02*
X31129000Y-76200000D01*
X35005000Y-76200000D02*
X35005000Y-68460000D01*
X29765000Y-76200000D02*
X29765000Y-68460000D01*
%TO.C,J13*%
X115630000Y-67370000D02*
X114300000Y-67370000D01*
X115630000Y-66040000D02*
X115630000Y-67370000D01*
X115630000Y-64770000D02*
X112970000Y-64770000D01*
X112970000Y-64770000D02*
X112970000Y-44390000D01*
X115630000Y-64770000D02*
X115630000Y-44390000D01*
X115630000Y-44390000D02*
X112970000Y-44390000D01*
%TO.C,RN3*%
X131950000Y-64770000D02*
X134750000Y-64770000D01*
X131950000Y-44280000D02*
X131950000Y-67480000D01*
X134750000Y-44280000D02*
X131950000Y-44280000D01*
X134750000Y-67480000D02*
X134750000Y-44280000D01*
X131950000Y-67480000D02*
X134750000Y-67480000D01*
%TO.C,BAR2*%
X130950000Y-39230000D02*
X130950000Y-64910000D01*
X120510000Y-39230000D02*
X130950000Y-39230000D01*
X120510000Y-64910000D02*
X120510000Y-39230000D01*
X130950000Y-64910000D02*
X120510000Y-64910000D01*
X120220000Y-38940000D02*
X120220000Y-40640000D01*
X121920000Y-38940000D02*
X120220000Y-38940000D01*
%TO.C,BAR1*%
X141110000Y-79870000D02*
X141110000Y-105550000D01*
X130670000Y-79870000D02*
X141110000Y-79870000D01*
X130670000Y-105550000D02*
X130670000Y-79870000D01*
X141110000Y-105550000D02*
X130670000Y-105550000D01*
X130380000Y-79580000D02*
X130380000Y-81280000D01*
X132080000Y-79580000D02*
X130380000Y-79580000D01*
%TO.C,RN2*%
X142110000Y-108120000D02*
X144910000Y-108120000D01*
X144910000Y-108120000D02*
X144910000Y-84920000D01*
X144910000Y-84920000D02*
X142110000Y-84920000D01*
X142110000Y-84920000D02*
X142110000Y-108120000D01*
X142110000Y-105410000D02*
X144910000Y-105410000D01*
%TO.C,RN1*%
X21720000Y-21420000D02*
X18920000Y-21420000D01*
X18920000Y-21420000D02*
X18920000Y-44620000D01*
X18920000Y-44620000D02*
X21720000Y-44620000D01*
X21720000Y-44620000D02*
X21720000Y-21420000D01*
X21720000Y-24130000D02*
X18920000Y-24130000D01*
%TO.C,U1*%
X42020000Y-39310000D02*
X36560000Y-39310000D01*
X42020000Y-95250000D02*
X42020000Y-39310000D01*
X29100000Y-95250000D02*
X42020000Y-95250000D01*
X29100000Y-39310000D02*
X29100000Y-95250000D01*
X34560000Y-39310000D02*
X29100000Y-39310000D01*
X36560000Y-39310000D02*
G75*
G02*
X34560000Y-39310000I-1000000J0D01*
G01*
%TO.C,J12*%
X16570000Y-44510000D02*
X15240000Y-44510000D01*
X16570000Y-43180000D02*
X16570000Y-44510000D01*
X16570000Y-41910000D02*
X13910000Y-41910000D01*
X13910000Y-41910000D02*
X13910000Y-21530000D01*
X16570000Y-41910000D02*
X16570000Y-21530000D01*
X16570000Y-21530000D02*
X13910000Y-21530000D01*
%TO.C,J3*%
X16570000Y-69910000D02*
X15240000Y-69910000D01*
X16570000Y-68580000D02*
X16570000Y-69910000D01*
X16570000Y-67310000D02*
X13910000Y-67310000D01*
X13910000Y-67310000D02*
X13910000Y-46930000D01*
X16570000Y-67310000D02*
X16570000Y-46930000D01*
X16570000Y-46930000D02*
X13910000Y-46930000D01*
%TO.C,J11*%
X151070000Y-41850000D02*
X152400000Y-41850000D01*
X151070000Y-43180000D02*
X151070000Y-41850000D01*
X151070000Y-44450000D02*
X153730000Y-44450000D01*
X153730000Y-44450000D02*
X153730000Y-44510000D01*
X151070000Y-44450000D02*
X151070000Y-44510000D01*
X151070000Y-44510000D02*
X153730000Y-44510000D01*
%TO.C,J10*%
X64710000Y-21530000D02*
X66040000Y-21530000D01*
X64710000Y-22860000D02*
X64710000Y-21530000D01*
X64710000Y-24130000D02*
X67370000Y-24130000D01*
X67370000Y-24130000D02*
X67370000Y-24190000D01*
X64710000Y-24130000D02*
X64710000Y-24190000D01*
X64710000Y-24190000D02*
X67370000Y-24190000D01*
%TO.C,J9*%
X13910000Y-72330000D02*
X15240000Y-72330000D01*
X13910000Y-73660000D02*
X13910000Y-72330000D01*
X13910000Y-74930000D02*
X16570000Y-74930000D01*
X16570000Y-74930000D02*
X16570000Y-74990000D01*
X13910000Y-74930000D02*
X13910000Y-74990000D01*
X13910000Y-74990000D02*
X16570000Y-74990000D01*
%TO.C,J8*%
X108010000Y-44390000D02*
X105350000Y-44390000D01*
X108010000Y-64770000D02*
X108010000Y-44390000D01*
X105350000Y-64770000D02*
X105350000Y-44390000D01*
X108010000Y-64770000D02*
X105350000Y-64770000D01*
X108010000Y-66040000D02*
X108010000Y-67370000D01*
X108010000Y-67370000D02*
X106680000Y-67370000D01*
%TO.C,J7*%
X100390000Y-44390000D02*
X97730000Y-44390000D01*
X100390000Y-64770000D02*
X100390000Y-44390000D01*
X97730000Y-64770000D02*
X97730000Y-44390000D01*
X100390000Y-64770000D02*
X97730000Y-64770000D01*
X100390000Y-66040000D02*
X100390000Y-67370000D01*
X100390000Y-67370000D02*
X99060000Y-67370000D01*
%TO.C,J6*%
X125790000Y-85030000D02*
X123130000Y-85030000D01*
X125790000Y-105410000D02*
X125790000Y-85030000D01*
X123130000Y-105410000D02*
X123130000Y-85030000D01*
X125790000Y-105410000D02*
X123130000Y-105410000D01*
X125790000Y-106680000D02*
X125790000Y-108010000D01*
X125790000Y-108010000D02*
X124460000Y-108010000D01*
%TO.C,J5*%
X118170000Y-85030000D02*
X115510000Y-85030000D01*
X118170000Y-105410000D02*
X118170000Y-85030000D01*
X115510000Y-105410000D02*
X115510000Y-85030000D01*
X118170000Y-105410000D02*
X115510000Y-105410000D01*
X118170000Y-106680000D02*
X118170000Y-108010000D01*
X118170000Y-108010000D02*
X116840000Y-108010000D01*
%TO.C,J4*%
X112020000Y-22640000D02*
X111620000Y-22640000D01*
X112020000Y-23280000D02*
X112020000Y-22640000D01*
X105478000Y-26948000D02*
X105873000Y-26552000D01*
X102832000Y-29594000D02*
X103212000Y-29214000D01*
X105227000Y-26666000D02*
X105607000Y-26286000D01*
X102566000Y-29328000D02*
X102961000Y-28932000D01*
X110768000Y-26659000D02*
X110874000Y-26552000D01*
X107832000Y-29594000D02*
X107939000Y-29487000D01*
X110502000Y-26393000D02*
X110608000Y-26286000D01*
X107566000Y-29328000D02*
X107673000Y-29221000D01*
X101660000Y-32000000D02*
X101660000Y-22880000D01*
X111780000Y-32000000D02*
X111780000Y-22880000D01*
X111780000Y-22880000D02*
X101660000Y-22880000D01*
X111780000Y-32000000D02*
X101660000Y-32000000D01*
X111780000Y-24440000D02*
X101660000Y-24440000D01*
X111780000Y-23340000D02*
X101660000Y-23340000D01*
X106400000Y-27940000D02*
G75*
G03*
X106400000Y-27940000I-2180000J0D01*
G01*
X111400000Y-27940000D02*
G75*
G03*
X111400000Y-27940000I-2180000J0D01*
G01*
%TO.C,J2*%
X153730000Y-69910000D02*
X152400000Y-69910000D01*
X153730000Y-68580000D02*
X153730000Y-69910000D01*
X153730000Y-67310000D02*
X151070000Y-67310000D01*
X151070000Y-67310000D02*
X151070000Y-46930000D01*
X153730000Y-67310000D02*
X153730000Y-46930000D01*
X153730000Y-46930000D02*
X151070000Y-46930000D01*
%TO.C,J1*%
X110550000Y-108010000D02*
X109220000Y-108010000D01*
X110550000Y-106680000D02*
X110550000Y-108010000D01*
X110550000Y-105410000D02*
X107890000Y-105410000D01*
X107890000Y-105410000D02*
X107890000Y-85030000D01*
X110550000Y-105410000D02*
X110550000Y-85030000D01*
X110550000Y-85030000D02*
X107890000Y-85030000D01*
%TO.C,U7*%
X102980000Y-79950000D02*
X101330000Y-79950000D01*
X102980000Y-105470000D02*
X102980000Y-79950000D01*
X97680000Y-105470000D02*
X102980000Y-105470000D01*
X97680000Y-79950000D02*
X97680000Y-105470000D01*
X99330000Y-79950000D02*
X97680000Y-79950000D01*
X101330000Y-79950000D02*
G75*
G02*
X99330000Y-79950000I-1000000J0D01*
G01*
%TO.C,U6*%
X77580000Y-18990000D02*
X75930000Y-18990000D01*
X77580000Y-36890000D02*
X77580000Y-18990000D01*
X72280000Y-36890000D02*
X77580000Y-36890000D01*
X72280000Y-18990000D02*
X72280000Y-36890000D01*
X73930000Y-18990000D02*
X72280000Y-18990000D01*
X75930000Y-18990000D02*
G75*
G02*
X73930000Y-18990000I-1000000J0D01*
G01*
%TO.C,U5*%
X146160000Y-41850000D02*
X144510000Y-41850000D01*
X146160000Y-67370000D02*
X146160000Y-41850000D01*
X140860000Y-67370000D02*
X146160000Y-67370000D01*
X140860000Y-41850000D02*
X140860000Y-67370000D01*
X142510000Y-41850000D02*
X140860000Y-41850000D01*
X144510000Y-41850000D02*
G75*
G02*
X142510000Y-41850000I-1000000J0D01*
G01*
%TO.C,U4*%
X92820000Y-39310000D02*
X91170000Y-39310000D01*
X92820000Y-64830000D02*
X92820000Y-39310000D01*
X87520000Y-64830000D02*
X92820000Y-64830000D01*
X87520000Y-39310000D02*
X87520000Y-64830000D01*
X89170000Y-39310000D02*
X87520000Y-39310000D01*
X91170000Y-39310000D02*
G75*
G02*
X89170000Y-39310000I-1000000J0D01*
G01*
%TO.C,U3*%
X77580000Y-39310000D02*
X75930000Y-39310000D01*
X77580000Y-64830000D02*
X77580000Y-39310000D01*
X72280000Y-64830000D02*
X77580000Y-64830000D01*
X72280000Y-39310000D02*
X72280000Y-64830000D01*
X73930000Y-39310000D02*
X72280000Y-39310000D01*
X75930000Y-39310000D02*
G75*
G02*
X73930000Y-39310000I-1000000J0D01*
G01*
%TO.C,U2*%
X77580000Y-79950000D02*
X75930000Y-79950000D01*
X77580000Y-105470000D02*
X77580000Y-79950000D01*
X72280000Y-105470000D02*
X77580000Y-105470000D01*
X72280000Y-79950000D02*
X72280000Y-105470000D01*
X73930000Y-79950000D02*
X72280000Y-79950000D01*
X75930000Y-79950000D02*
G75*
G02*
X73930000Y-79950000I-1000000J0D01*
G01*
%TO.C,C1*%
D11*
X28992142Y-72496666D02*
X29039761Y-72544285D01*
X29087380Y-72687142D01*
X29087380Y-72782380D01*
X29039761Y-72925238D01*
X28944523Y-73020476D01*
X28849285Y-73068095D01*
X28658809Y-73115714D01*
X28515952Y-73115714D01*
X28325476Y-73068095D01*
X28230238Y-73020476D01*
X28135000Y-72925238D01*
X28087380Y-72782380D01*
X28087380Y-72687142D01*
X28135000Y-72544285D01*
X28182619Y-72496666D01*
X29087380Y-71544285D02*
X29087380Y-72115714D01*
X29087380Y-71830000D02*
X28087380Y-71830000D01*
X28230238Y-71925238D01*
X28325476Y-72020476D01*
X28373095Y-72115714D01*
%TO.C,RN3*%
X132659523Y-43632380D02*
X132326190Y-43156190D01*
X132088095Y-43632380D02*
X132088095Y-42632380D01*
X132469047Y-42632380D01*
X132564285Y-42680000D01*
X132611904Y-42727619D01*
X132659523Y-42822857D01*
X132659523Y-42965714D01*
X132611904Y-43060952D01*
X132564285Y-43108571D01*
X132469047Y-43156190D01*
X132088095Y-43156190D01*
X133088095Y-43632380D02*
X133088095Y-42632380D01*
X133659523Y-43632380D01*
X133659523Y-42632380D01*
X134040476Y-42632380D02*
X134659523Y-42632380D01*
X134326190Y-43013333D01*
X134469047Y-43013333D01*
X134564285Y-43060952D01*
X134611904Y-43108571D01*
X134659523Y-43203809D01*
X134659523Y-43441904D01*
X134611904Y-43537142D01*
X134564285Y-43584761D01*
X134469047Y-43632380D01*
X134183333Y-43632380D01*
X134088095Y-43584761D01*
X134040476Y-43537142D01*
%TO.C,BAR2*%
X121116666Y-37918571D02*
X121259523Y-37966190D01*
X121307142Y-38013809D01*
X121354761Y-38109047D01*
X121354761Y-38251904D01*
X121307142Y-38347142D01*
X121259523Y-38394761D01*
X121164285Y-38442380D01*
X120783333Y-38442380D01*
X120783333Y-37442380D01*
X121116666Y-37442380D01*
X121211904Y-37490000D01*
X121259523Y-37537619D01*
X121307142Y-37632857D01*
X121307142Y-37728095D01*
X121259523Y-37823333D01*
X121211904Y-37870952D01*
X121116666Y-37918571D01*
X120783333Y-37918571D01*
X121735714Y-38156666D02*
X122211904Y-38156666D01*
X121640476Y-38442380D02*
X121973809Y-37442380D01*
X122307142Y-38442380D01*
X123211904Y-38442380D02*
X122878571Y-37966190D01*
X122640476Y-38442380D02*
X122640476Y-37442380D01*
X123021428Y-37442380D01*
X123116666Y-37490000D01*
X123164285Y-37537619D01*
X123211904Y-37632857D01*
X123211904Y-37775714D01*
X123164285Y-37870952D01*
X123116666Y-37918571D01*
X123021428Y-37966190D01*
X122640476Y-37966190D01*
X123592857Y-37537619D02*
X123640476Y-37490000D01*
X123735714Y-37442380D01*
X123973809Y-37442380D01*
X124069047Y-37490000D01*
X124116666Y-37537619D01*
X124164285Y-37632857D01*
X124164285Y-37728095D01*
X124116666Y-37870952D01*
X123545238Y-38442380D01*
X124164285Y-38442380D01*
%TO.C,BAR1*%
X131276666Y-78558571D02*
X131419523Y-78606190D01*
X131467142Y-78653809D01*
X131514761Y-78749047D01*
X131514761Y-78891904D01*
X131467142Y-78987142D01*
X131419523Y-79034761D01*
X131324285Y-79082380D01*
X130943333Y-79082380D01*
X130943333Y-78082380D01*
X131276666Y-78082380D01*
X131371904Y-78130000D01*
X131419523Y-78177619D01*
X131467142Y-78272857D01*
X131467142Y-78368095D01*
X131419523Y-78463333D01*
X131371904Y-78510952D01*
X131276666Y-78558571D01*
X130943333Y-78558571D01*
X131895714Y-78796666D02*
X132371904Y-78796666D01*
X131800476Y-79082380D02*
X132133809Y-78082380D01*
X132467142Y-79082380D01*
X133371904Y-79082380D02*
X133038571Y-78606190D01*
X132800476Y-79082380D02*
X132800476Y-78082380D01*
X133181428Y-78082380D01*
X133276666Y-78130000D01*
X133324285Y-78177619D01*
X133371904Y-78272857D01*
X133371904Y-78415714D01*
X133324285Y-78510952D01*
X133276666Y-78558571D01*
X133181428Y-78606190D01*
X132800476Y-78606190D01*
X134324285Y-79082380D02*
X133752857Y-79082380D01*
X134038571Y-79082380D02*
X134038571Y-78082380D01*
X133943333Y-78225238D01*
X133848095Y-78320476D01*
X133752857Y-78368095D01*
%TO.C,RN2*%
X142819523Y-84272380D02*
X142486190Y-83796190D01*
X142248095Y-84272380D02*
X142248095Y-83272380D01*
X142629047Y-83272380D01*
X142724285Y-83320000D01*
X142771904Y-83367619D01*
X142819523Y-83462857D01*
X142819523Y-83605714D01*
X142771904Y-83700952D01*
X142724285Y-83748571D01*
X142629047Y-83796190D01*
X142248095Y-83796190D01*
X143248095Y-84272380D02*
X143248095Y-83272380D01*
X143819523Y-84272380D01*
X143819523Y-83272380D01*
X144248095Y-83367619D02*
X144295714Y-83320000D01*
X144390952Y-83272380D01*
X144629047Y-83272380D01*
X144724285Y-83320000D01*
X144771904Y-83367619D01*
X144819523Y-83462857D01*
X144819523Y-83558095D01*
X144771904Y-83700952D01*
X144200476Y-84272380D01*
X144819523Y-84272380D01*
%TO.C,RN1*%
X23172380Y-34980476D02*
X22696190Y-35313809D01*
X23172380Y-35551904D02*
X22172380Y-35551904D01*
X22172380Y-35170952D01*
X22220000Y-35075714D01*
X22267619Y-35028095D01*
X22362857Y-34980476D01*
X22505714Y-34980476D01*
X22600952Y-35028095D01*
X22648571Y-35075714D01*
X22696190Y-35170952D01*
X22696190Y-35551904D01*
X23172380Y-34551904D02*
X22172380Y-34551904D01*
X23172380Y-33980476D01*
X22172380Y-33980476D01*
X23172380Y-32980476D02*
X23172380Y-33551904D01*
X23172380Y-33266190D02*
X22172380Y-33266190D01*
X22315238Y-33361428D01*
X22410476Y-33456666D01*
X22458095Y-33551904D01*
%TO.C,U1*%
X34798095Y-37762380D02*
X34798095Y-38571904D01*
X34845714Y-38667142D01*
X34893333Y-38714761D01*
X34988571Y-38762380D01*
X35179047Y-38762380D01*
X35274285Y-38714761D01*
X35321904Y-38667142D01*
X35369523Y-38571904D01*
X35369523Y-37762380D01*
X36369523Y-38762380D02*
X35798095Y-38762380D01*
X36083809Y-38762380D02*
X36083809Y-37762380D01*
X35988571Y-37905238D01*
X35893333Y-38000476D01*
X35798095Y-38048095D01*
%TO.C,U7*%
X99568095Y-78402380D02*
X99568095Y-79211904D01*
X99615714Y-79307142D01*
X99663333Y-79354761D01*
X99758571Y-79402380D01*
X99949047Y-79402380D01*
X100044285Y-79354761D01*
X100091904Y-79307142D01*
X100139523Y-79211904D01*
X100139523Y-78402380D01*
X100520476Y-78402380D02*
X101187142Y-78402380D01*
X100758571Y-79402380D01*
%TO.C,U6*%
X74168095Y-17442380D02*
X74168095Y-18251904D01*
X74215714Y-18347142D01*
X74263333Y-18394761D01*
X74358571Y-18442380D01*
X74549047Y-18442380D01*
X74644285Y-18394761D01*
X74691904Y-18347142D01*
X74739523Y-18251904D01*
X74739523Y-17442380D01*
X75644285Y-17442380D02*
X75453809Y-17442380D01*
X75358571Y-17490000D01*
X75310952Y-17537619D01*
X75215714Y-17680476D01*
X75168095Y-17870952D01*
X75168095Y-18251904D01*
X75215714Y-18347142D01*
X75263333Y-18394761D01*
X75358571Y-18442380D01*
X75549047Y-18442380D01*
X75644285Y-18394761D01*
X75691904Y-18347142D01*
X75739523Y-18251904D01*
X75739523Y-18013809D01*
X75691904Y-17918571D01*
X75644285Y-17870952D01*
X75549047Y-17823333D01*
X75358571Y-17823333D01*
X75263333Y-17870952D01*
X75215714Y-17918571D01*
X75168095Y-18013809D01*
%TO.C,U5*%
X142748095Y-40302380D02*
X142748095Y-41111904D01*
X142795714Y-41207142D01*
X142843333Y-41254761D01*
X142938571Y-41302380D01*
X143129047Y-41302380D01*
X143224285Y-41254761D01*
X143271904Y-41207142D01*
X143319523Y-41111904D01*
X143319523Y-40302380D01*
X144271904Y-40302380D02*
X143795714Y-40302380D01*
X143748095Y-40778571D01*
X143795714Y-40730952D01*
X143890952Y-40683333D01*
X144129047Y-40683333D01*
X144224285Y-40730952D01*
X144271904Y-40778571D01*
X144319523Y-40873809D01*
X144319523Y-41111904D01*
X144271904Y-41207142D01*
X144224285Y-41254761D01*
X144129047Y-41302380D01*
X143890952Y-41302380D01*
X143795714Y-41254761D01*
X143748095Y-41207142D01*
%TO.C,U4*%
X89408095Y-37762380D02*
X89408095Y-38571904D01*
X89455714Y-38667142D01*
X89503333Y-38714761D01*
X89598571Y-38762380D01*
X89789047Y-38762380D01*
X89884285Y-38714761D01*
X89931904Y-38667142D01*
X89979523Y-38571904D01*
X89979523Y-37762380D01*
X90884285Y-38095714D02*
X90884285Y-38762380D01*
X90646190Y-37714761D02*
X90408095Y-38429047D01*
X91027142Y-38429047D01*
%TO.C,U3*%
X74168095Y-37762380D02*
X74168095Y-38571904D01*
X74215714Y-38667142D01*
X74263333Y-38714761D01*
X74358571Y-38762380D01*
X74549047Y-38762380D01*
X74644285Y-38714761D01*
X74691904Y-38667142D01*
X74739523Y-38571904D01*
X74739523Y-37762380D01*
X75120476Y-37762380D02*
X75739523Y-37762380D01*
X75406190Y-38143333D01*
X75549047Y-38143333D01*
X75644285Y-38190952D01*
X75691904Y-38238571D01*
X75739523Y-38333809D01*
X75739523Y-38571904D01*
X75691904Y-38667142D01*
X75644285Y-38714761D01*
X75549047Y-38762380D01*
X75263333Y-38762380D01*
X75168095Y-38714761D01*
X75120476Y-38667142D01*
%TO.C,U2*%
X74168095Y-78402380D02*
X74168095Y-79211904D01*
X74215714Y-79307142D01*
X74263333Y-79354761D01*
X74358571Y-79402380D01*
X74549047Y-79402380D01*
X74644285Y-79354761D01*
X74691904Y-79307142D01*
X74739523Y-79211904D01*
X74739523Y-78402380D01*
X75168095Y-78497619D02*
X75215714Y-78450000D01*
X75310952Y-78402380D01*
X75549047Y-78402380D01*
X75644285Y-78450000D01*
X75691904Y-78497619D01*
X75739523Y-78592857D01*
X75739523Y-78688095D01*
X75691904Y-78830952D01*
X75120476Y-79402380D01*
X75739523Y-79402380D01*
%TD*%
M02*
