%TF.GenerationSoftware,KiCad,Pcbnew,(5.1.8)-1*%
%TF.CreationDate,2024-01-29T23:39:16+03:00*%
%TF.ProjectId,ROM,524f4d2e-6b69-4636-9164-5f7063625858,rev?*%
%TF.SameCoordinates,Original*%
%TF.FileFunction,Copper,L2,Bot*%
%TF.FilePolarity,Positive*%
%FSLAX46Y46*%
G04 Gerber Fmt 4.6, Leading zero omitted, Abs format (unit mm)*
G04 Created by KiCad (PCBNEW (5.1.8)-1) date 2024-01-29 23:39:16*
%MOMM*%
%LPD*%
G01*
G04 APERTURE LIST*
%TA.AperFunction,NonConductor*%
%ADD10C,0.300000*%
%TD*%
%TA.AperFunction,SMDPad,CuDef*%
%ADD11R,0.900000X0.800000*%
%TD*%
%TA.AperFunction,ComponentPad*%
%ADD12R,1.700000X1.700000*%
%TD*%
%TA.AperFunction,ComponentPad*%
%ADD13C,2.000000*%
%TD*%
%TA.AperFunction,ComponentPad*%
%ADD14O,1.700000X1.700000*%
%TD*%
%TA.AperFunction,ComponentPad*%
%ADD15O,1.800000X1.500000*%
%TD*%
%TA.AperFunction,ComponentPad*%
%ADD16R,1.800000X1.500000*%
%TD*%
%TA.AperFunction,ComponentPad*%
%ADD17O,2.000000X1.500000*%
%TD*%
%TA.AperFunction,ComponentPad*%
%ADD18R,2.000000X1.500000*%
%TD*%
%TA.AperFunction,ComponentPad*%
%ADD19O,1.600000X1.600000*%
%TD*%
%TA.AperFunction,ComponentPad*%
%ADD20R,1.600000X1.600000*%
%TD*%
%TA.AperFunction,ComponentPad*%
%ADD21C,2.600000*%
%TD*%
%TA.AperFunction,ComponentPad*%
%ADD22R,2.600000X2.600000*%
%TD*%
%TA.AperFunction,ViaPad*%
%ADD23C,1.500000*%
%TD*%
%TA.AperFunction,Conductor*%
%ADD24C,0.800000*%
%TD*%
%TA.AperFunction,Conductor*%
%ADD25C,0.500000*%
%TD*%
%TA.AperFunction,Conductor*%
%ADD26C,1.000000*%
%TD*%
%TA.AperFunction,Conductor*%
%ADD27C,0.600000*%
%TD*%
G04 APERTURE END LIST*
D10*
X121943571Y-29952142D02*
X120800714Y-29952142D01*
X121372142Y-30523571D02*
X121372142Y-29380714D01*
X119372142Y-29023571D02*
X120086428Y-29023571D01*
X120157857Y-29737857D01*
X120086428Y-29666428D01*
X119943571Y-29595000D01*
X119586428Y-29595000D01*
X119443571Y-29666428D01*
X119372142Y-29737857D01*
X119300714Y-29880714D01*
X119300714Y-30237857D01*
X119372142Y-30380714D01*
X119443571Y-30452142D01*
X119586428Y-30523571D01*
X119943571Y-30523571D01*
X120086428Y-30452142D01*
X120157857Y-30380714D01*
X118872142Y-29023571D02*
X118372142Y-30523571D01*
X117872142Y-29023571D01*
D11*
%TO.P,Q1,3*%
%TO.N,Net-(J4-Pad1)*%
X113300000Y-27940000D03*
%TO.P,Q1,2*%
%TO.N,VCC*%
X115300000Y-28890000D03*
%TO.P,Q1,1*%
%TO.N,GND*%
X115300000Y-26990000D03*
%TD*%
D12*
%TO.P,J14,1*%
%TO.N,GND*%
X15240000Y-76200000D03*
%TD*%
%TO.P,C7,2*%
%TO.N,GND*%
%TA.AperFunction,SMDPad,CuDef*%
G36*
G01*
X144305000Y-46805000D02*
X145255000Y-46805000D01*
G75*
G02*
X145505000Y-47055000I0J-250000D01*
G01*
X145505000Y-47730000D01*
G75*
G02*
X145255000Y-47980000I-250000J0D01*
G01*
X144305000Y-47980000D01*
G75*
G02*
X144055000Y-47730000I0J250000D01*
G01*
X144055000Y-47055000D01*
G75*
G02*
X144305000Y-46805000I250000J0D01*
G01*
G37*
%TD.AperFunction*%
%TO.P,C7,1*%
%TO.N,VCC*%
%TA.AperFunction,SMDPad,CuDef*%
G36*
G01*
X144305000Y-44730000D02*
X145255000Y-44730000D01*
G75*
G02*
X145505000Y-44980000I0J-250000D01*
G01*
X145505000Y-45655000D01*
G75*
G02*
X145255000Y-45905000I-250000J0D01*
G01*
X144305000Y-45905000D01*
G75*
G02*
X144055000Y-45655000I0J250000D01*
G01*
X144055000Y-44980000D01*
G75*
G02*
X144305000Y-44730000I250000J0D01*
G01*
G37*
%TD.AperFunction*%
%TD*%
%TO.P,C6,2*%
%TO.N,GND*%
%TA.AperFunction,SMDPad,CuDef*%
G36*
G01*
X75750000Y-17940000D02*
X75750000Y-18890000D01*
G75*
G02*
X75500000Y-19140000I-250000J0D01*
G01*
X74825000Y-19140000D01*
G75*
G02*
X74575000Y-18890000I0J250000D01*
G01*
X74575000Y-17940000D01*
G75*
G02*
X74825000Y-17690000I250000J0D01*
G01*
X75500000Y-17690000D01*
G75*
G02*
X75750000Y-17940000I0J-250000D01*
G01*
G37*
%TD.AperFunction*%
%TO.P,C6,1*%
%TO.N,VCC*%
%TA.AperFunction,SMDPad,CuDef*%
G36*
G01*
X77825000Y-17940000D02*
X77825000Y-18890000D01*
G75*
G02*
X77575000Y-19140000I-250000J0D01*
G01*
X76900000Y-19140000D01*
G75*
G02*
X76650000Y-18890000I0J250000D01*
G01*
X76650000Y-17940000D01*
G75*
G02*
X76900000Y-17690000I250000J0D01*
G01*
X77575000Y-17690000D01*
G75*
G02*
X77825000Y-17940000I0J-250000D01*
G01*
G37*
%TD.AperFunction*%
%TD*%
%TO.P,C5,2*%
%TO.N,GND*%
%TA.AperFunction,SMDPad,CuDef*%
G36*
G01*
X100172500Y-84820000D02*
X101122500Y-84820000D01*
G75*
G02*
X101372500Y-85070000I0J-250000D01*
G01*
X101372500Y-85745000D01*
G75*
G02*
X101122500Y-85995000I-250000J0D01*
G01*
X100172500Y-85995000D01*
G75*
G02*
X99922500Y-85745000I0J250000D01*
G01*
X99922500Y-85070000D01*
G75*
G02*
X100172500Y-84820000I250000J0D01*
G01*
G37*
%TD.AperFunction*%
%TO.P,C5,1*%
%TO.N,VCC*%
%TA.AperFunction,SMDPad,CuDef*%
G36*
G01*
X100172500Y-82745000D02*
X101122500Y-82745000D01*
G75*
G02*
X101372500Y-82995000I0J-250000D01*
G01*
X101372500Y-83670000D01*
G75*
G02*
X101122500Y-83920000I-250000J0D01*
G01*
X100172500Y-83920000D01*
G75*
G02*
X99922500Y-83670000I0J250000D01*
G01*
X99922500Y-82995000D01*
G75*
G02*
X100172500Y-82745000I250000J0D01*
G01*
G37*
%TD.AperFunction*%
%TD*%
%TO.P,C4,2*%
%TO.N,GND*%
%TA.AperFunction,SMDPad,CuDef*%
G36*
G01*
X90012500Y-44265000D02*
X90962500Y-44265000D01*
G75*
G02*
X91212500Y-44515000I0J-250000D01*
G01*
X91212500Y-45190000D01*
G75*
G02*
X90962500Y-45440000I-250000J0D01*
G01*
X90012500Y-45440000D01*
G75*
G02*
X89762500Y-45190000I0J250000D01*
G01*
X89762500Y-44515000D01*
G75*
G02*
X90012500Y-44265000I250000J0D01*
G01*
G37*
%TD.AperFunction*%
%TO.P,C4,1*%
%TO.N,VCC*%
%TA.AperFunction,SMDPad,CuDef*%
G36*
G01*
X90012500Y-42190000D02*
X90962500Y-42190000D01*
G75*
G02*
X91212500Y-42440000I0J-250000D01*
G01*
X91212500Y-43115000D01*
G75*
G02*
X90962500Y-43365000I-250000J0D01*
G01*
X90012500Y-43365000D01*
G75*
G02*
X89762500Y-43115000I0J250000D01*
G01*
X89762500Y-42440000D01*
G75*
G02*
X90012500Y-42190000I250000J0D01*
G01*
G37*
%TD.AperFunction*%
%TD*%
%TO.P,C3,2*%
%TO.N,GND*%
%TA.AperFunction,SMDPad,CuDef*%
G36*
G01*
X75347500Y-38895000D02*
X75347500Y-39845000D01*
G75*
G02*
X75097500Y-40095000I-250000J0D01*
G01*
X74422500Y-40095000D01*
G75*
G02*
X74172500Y-39845000I0J250000D01*
G01*
X74172500Y-38895000D01*
G75*
G02*
X74422500Y-38645000I250000J0D01*
G01*
X75097500Y-38645000D01*
G75*
G02*
X75347500Y-38895000I0J-250000D01*
G01*
G37*
%TD.AperFunction*%
%TO.P,C3,1*%
%TO.N,VCC*%
%TA.AperFunction,SMDPad,CuDef*%
G36*
G01*
X77422500Y-38895000D02*
X77422500Y-39845000D01*
G75*
G02*
X77172500Y-40095000I-250000J0D01*
G01*
X76497500Y-40095000D01*
G75*
G02*
X76247500Y-39845000I0J250000D01*
G01*
X76247500Y-38895000D01*
G75*
G02*
X76497500Y-38645000I250000J0D01*
G01*
X77172500Y-38645000D01*
G75*
G02*
X77422500Y-38895000I0J-250000D01*
G01*
G37*
%TD.AperFunction*%
%TD*%
%TO.P,C2,2*%
%TO.N,GND*%
%TA.AperFunction,SMDPad,CuDef*%
G36*
G01*
X75517500Y-78900000D02*
X75517500Y-79850000D01*
G75*
G02*
X75267500Y-80100000I-250000J0D01*
G01*
X74592500Y-80100000D01*
G75*
G02*
X74342500Y-79850000I0J250000D01*
G01*
X74342500Y-78900000D01*
G75*
G02*
X74592500Y-78650000I250000J0D01*
G01*
X75267500Y-78650000D01*
G75*
G02*
X75517500Y-78900000I0J-250000D01*
G01*
G37*
%TD.AperFunction*%
%TO.P,C2,1*%
%TO.N,VCC*%
%TA.AperFunction,SMDPad,CuDef*%
G36*
G01*
X77592500Y-78900000D02*
X77592500Y-79850000D01*
G75*
G02*
X77342500Y-80100000I-250000J0D01*
G01*
X76667500Y-80100000D01*
G75*
G02*
X76417500Y-79850000I0J250000D01*
G01*
X76417500Y-78900000D01*
G75*
G02*
X76667500Y-78650000I250000J0D01*
G01*
X77342500Y-78650000D01*
G75*
G02*
X77592500Y-78900000I0J-250000D01*
G01*
G37*
%TD.AperFunction*%
%TD*%
D13*
%TO.P,C1,2*%
%TO.N,GND*%
X32385000Y-68580000D03*
%TO.P,C1,1*%
%TO.N,VCC*%
X32385000Y-76080000D03*
%TD*%
D14*
%TO.P,J13,9*%
%TO.N,/CNST7*%
X114300000Y-45720000D03*
%TO.P,J13,8*%
%TO.N,/CNST6*%
X114300000Y-48260000D03*
%TO.P,J13,7*%
%TO.N,/CNST5*%
X114300000Y-50800000D03*
%TO.P,J13,6*%
%TO.N,/CNST4*%
X114300000Y-53340000D03*
%TO.P,J13,5*%
%TO.N,/CNST3*%
X114300000Y-55880000D03*
%TO.P,J13,4*%
%TO.N,/CNST2*%
X114300000Y-58420000D03*
%TO.P,J13,3*%
%TO.N,/CNST1*%
X114300000Y-60960000D03*
%TO.P,J13,2*%
%TO.N,/CNST0*%
X114300000Y-63500000D03*
D12*
%TO.P,J13,1*%
%TO.N,GND*%
X114300000Y-66040000D03*
%TD*%
D15*
%TO.P,RN3,9*%
%TO.N,Net-(BAR2-Pad18)*%
X133350000Y-45720000D03*
%TO.P,RN3,8*%
%TO.N,Net-(BAR2-Pad17)*%
X133350000Y-48260000D03*
%TO.P,RN3,7*%
%TO.N,Net-(BAR2-Pad16)*%
X133350000Y-50800000D03*
%TO.P,RN3,6*%
%TO.N,Net-(BAR2-Pad15)*%
X133350000Y-53340000D03*
%TO.P,RN3,5*%
%TO.N,Net-(BAR2-Pad14)*%
X133350000Y-55880000D03*
%TO.P,RN3,4*%
%TO.N,Net-(BAR2-Pad13)*%
X133350000Y-58420000D03*
%TO.P,RN3,3*%
%TO.N,Net-(BAR2-Pad12)*%
X133350000Y-60960000D03*
%TO.P,RN3,2*%
%TO.N,Net-(BAR2-Pad11)*%
X133350000Y-63500000D03*
D16*
%TO.P,RN3,1*%
%TO.N,GND*%
X133350000Y-66040000D03*
%TD*%
D17*
%TO.P,BAR2,20*%
%TO.N,N/C*%
X129540000Y-40640000D03*
%TO.P,BAR2,19*%
X129540000Y-43180000D03*
%TO.P,BAR2,18*%
%TO.N,Net-(BAR2-Pad18)*%
X129540000Y-45720000D03*
%TO.P,BAR2,17*%
%TO.N,Net-(BAR2-Pad17)*%
X129540000Y-48260000D03*
%TO.P,BAR2,9*%
%TO.N,/CNST1*%
X121920000Y-60960000D03*
%TO.P,BAR2,10*%
%TO.N,/CNST0*%
X121920000Y-63500000D03*
%TO.P,BAR2,11*%
%TO.N,Net-(BAR2-Pad11)*%
X129540000Y-63500000D03*
%TO.P,BAR2,12*%
%TO.N,Net-(BAR2-Pad12)*%
X129540000Y-60960000D03*
%TO.P,BAR2,8*%
%TO.N,/CNST2*%
X121920000Y-58420000D03*
%TO.P,BAR2,7*%
%TO.N,/CNST3*%
X121920000Y-55880000D03*
%TO.P,BAR2,6*%
%TO.N,/CNST4*%
X121920000Y-53340000D03*
%TO.P,BAR2,5*%
%TO.N,/CNST5*%
X121920000Y-50800000D03*
%TO.P,BAR2,16*%
%TO.N,Net-(BAR2-Pad16)*%
X129540000Y-50800000D03*
%TO.P,BAR2,15*%
%TO.N,Net-(BAR2-Pad15)*%
X129540000Y-53340000D03*
%TO.P,BAR2,14*%
%TO.N,Net-(BAR2-Pad14)*%
X129540000Y-55880000D03*
%TO.P,BAR2,13*%
%TO.N,Net-(BAR2-Pad13)*%
X129540000Y-58420000D03*
%TO.P,BAR2,4*%
%TO.N,/CNST6*%
X121920000Y-48260000D03*
%TO.P,BAR2,3*%
%TO.N,/CNST7*%
X121920000Y-45720000D03*
%TO.P,BAR2,2*%
%TO.N,N/C*%
X121920000Y-43180000D03*
D18*
%TO.P,BAR2,1*%
X121920000Y-40640000D03*
%TD*%
D17*
%TO.P,BAR1,20*%
%TO.N,N/C*%
X139700000Y-81280000D03*
%TO.P,BAR1,19*%
X139700000Y-83820000D03*
%TO.P,BAR1,18*%
%TO.N,Net-(BAR1-Pad18)*%
X139700000Y-86360000D03*
%TO.P,BAR1,17*%
%TO.N,Net-(BAR1-Pad17)*%
X139700000Y-88900000D03*
%TO.P,BAR1,9*%
%TO.N,/COP1*%
X132080000Y-101600000D03*
%TO.P,BAR1,10*%
%TO.N,/COP0*%
X132080000Y-104140000D03*
%TO.P,BAR1,11*%
%TO.N,Net-(BAR1-Pad11)*%
X139700000Y-104140000D03*
%TO.P,BAR1,12*%
%TO.N,Net-(BAR1-Pad12)*%
X139700000Y-101600000D03*
%TO.P,BAR1,8*%
%TO.N,/COP2*%
X132080000Y-99060000D03*
%TO.P,BAR1,7*%
%TO.N,/COP3*%
X132080000Y-96520000D03*
%TO.P,BAR1,6*%
%TO.N,/COP4*%
X132080000Y-93980000D03*
%TO.P,BAR1,5*%
%TO.N,/COP5*%
X132080000Y-91440000D03*
%TO.P,BAR1,16*%
%TO.N,Net-(BAR1-Pad16)*%
X139700000Y-91440000D03*
%TO.P,BAR1,15*%
%TO.N,Net-(BAR1-Pad15)*%
X139700000Y-93980000D03*
%TO.P,BAR1,14*%
%TO.N,Net-(BAR1-Pad14)*%
X139700000Y-96520000D03*
%TO.P,BAR1,13*%
%TO.N,Net-(BAR1-Pad13)*%
X139700000Y-99060000D03*
%TO.P,BAR1,4*%
%TO.N,/COP6*%
X132080000Y-88900000D03*
%TO.P,BAR1,3*%
%TO.N,/COP7*%
X132080000Y-86360000D03*
%TO.P,BAR1,2*%
%TO.N,N/C*%
X132080000Y-83820000D03*
D18*
%TO.P,BAR1,1*%
X132080000Y-81280000D03*
%TD*%
D15*
%TO.P,RN2,9*%
%TO.N,Net-(BAR1-Pad18)*%
X143510000Y-86360000D03*
%TO.P,RN2,8*%
%TO.N,Net-(BAR1-Pad17)*%
X143510000Y-88900000D03*
%TO.P,RN2,7*%
%TO.N,Net-(BAR1-Pad16)*%
X143510000Y-91440000D03*
%TO.P,RN2,6*%
%TO.N,Net-(BAR1-Pad15)*%
X143510000Y-93980000D03*
%TO.P,RN2,5*%
%TO.N,Net-(BAR1-Pad14)*%
X143510000Y-96520000D03*
%TO.P,RN2,4*%
%TO.N,Net-(BAR1-Pad13)*%
X143510000Y-99060000D03*
%TO.P,RN2,3*%
%TO.N,Net-(BAR1-Pad12)*%
X143510000Y-101600000D03*
%TO.P,RN2,2*%
%TO.N,Net-(BAR1-Pad11)*%
X143510000Y-104140000D03*
D16*
%TO.P,RN2,1*%
%TO.N,GND*%
X143510000Y-106680000D03*
%TD*%
%TO.P,R6,2*%
%TO.N,VCC*%
%TA.AperFunction,SMDPad,CuDef*%
G36*
G01*
X150310001Y-44050000D02*
X149409999Y-44050000D01*
G75*
G02*
X149160000Y-43800001I0J249999D01*
G01*
X149160000Y-43099999D01*
G75*
G02*
X149409999Y-42850000I249999J0D01*
G01*
X150310001Y-42850000D01*
G75*
G02*
X150560000Y-43099999I0J-249999D01*
G01*
X150560000Y-43800001D01*
G75*
G02*
X150310001Y-44050000I-249999J0D01*
G01*
G37*
%TD.AperFunction*%
%TO.P,R6,1*%
%TO.N,/~LDI*%
%TA.AperFunction,SMDPad,CuDef*%
G36*
G01*
X150310001Y-46050000D02*
X149409999Y-46050000D01*
G75*
G02*
X149160000Y-45800001I0J249999D01*
G01*
X149160000Y-45099999D01*
G75*
G02*
X149409999Y-44850000I249999J0D01*
G01*
X150310001Y-44850000D01*
G75*
G02*
X150560000Y-45099999I0J-249999D01*
G01*
X150560000Y-45800001D01*
G75*
G02*
X150310001Y-46050000I-249999J0D01*
G01*
G37*
%TD.AperFunction*%
%TD*%
D19*
%TO.P,RN1,9*%
%TO.N,/A8*%
X20320000Y-43180000D03*
%TO.P,RN1,8*%
%TO.N,/A9*%
X20320000Y-40640000D03*
%TO.P,RN1,7*%
%TO.N,/A10*%
X20320000Y-38100000D03*
%TO.P,RN1,6*%
%TO.N,/A11*%
X20320000Y-35560000D03*
%TO.P,RN1,5*%
%TO.N,/A12*%
X20320000Y-33020000D03*
%TO.P,RN1,4*%
%TO.N,/A13*%
X20320000Y-30480000D03*
%TO.P,RN1,3*%
%TO.N,/A14*%
X20320000Y-27940000D03*
%TO.P,RN1,2*%
%TO.N,/A15*%
X20320000Y-25400000D03*
D20*
%TO.P,RN1,1*%
%TO.N,GND*%
X20320000Y-22860000D03*
%TD*%
D15*
%TO.P,U1,24*%
%TO.N,/D4*%
X43180000Y-91440000D03*
%TO.P,U1,23*%
%TO.N,VCC*%
X43180000Y-93980000D03*
%TO.P,U1,22*%
%TO.N,/D11*%
X27940000Y-93980000D03*
%TO.P,U1,21*%
%TO.N,/D3*%
X27940000Y-91440000D03*
%TO.P,U1,44*%
%TO.N,Net-(R1-Pad1)*%
X43180000Y-40640000D03*
%TO.P,U1,20*%
%TO.N,/D10*%
X27940000Y-88900000D03*
%TO.P,U1,43*%
%TO.N,Net-(R1-Pad1)*%
X43180000Y-43180000D03*
%TO.P,U1,19*%
%TO.N,/D2*%
X27940000Y-86360000D03*
%TO.P,U1,42*%
%TO.N,/A8*%
X43180000Y-45720000D03*
%TO.P,U1,18*%
%TO.N,/D9*%
X27940000Y-83820000D03*
%TO.P,U1,41*%
%TO.N,/A9*%
X43180000Y-48260000D03*
%TO.P,U1,17*%
%TO.N,/D1*%
X27940000Y-81280000D03*
%TO.P,U1,40*%
%TO.N,/A10*%
X43180000Y-50800000D03*
%TO.P,U1,16*%
%TO.N,/D8*%
X27940000Y-78740000D03*
%TO.P,U1,39*%
%TO.N,/A11*%
X43180000Y-53340000D03*
%TO.P,U1,15*%
%TO.N,/D0*%
X27940000Y-76200000D03*
%TO.P,U1,38*%
%TO.N,/A12*%
X43180000Y-55880000D03*
%TO.P,U1,14*%
%TO.N,/~RD*%
X27940000Y-73660000D03*
%TO.P,U1,37*%
%TO.N,/A13*%
X43180000Y-58420000D03*
%TO.P,U1,13*%
%TO.N,GND*%
X27940000Y-71120000D03*
%TO.P,U1,36*%
%TO.N,/A14*%
X43180000Y-60960000D03*
%TO.P,U1,12*%
%TO.N,/~CS*%
X27940000Y-68580000D03*
%TO.P,U1,35*%
%TO.N,/A15*%
X43180000Y-63500000D03*
%TO.P,U1,11*%
%TO.N,/A0*%
X27940000Y-66040000D03*
%TO.P,U1,34*%
%TO.N,GND*%
X43180000Y-66040000D03*
%TO.P,U1,10*%
%TO.N,/A1*%
X27940000Y-63500000D03*
%TO.P,U1,33*%
%TO.N,Net-(R2-Pad1)*%
X43180000Y-68580000D03*
%TO.P,U1,9*%
%TO.N,/A2*%
X27940000Y-60960000D03*
%TO.P,U1,32*%
%TO.N,GND*%
X43180000Y-71120000D03*
%TO.P,U1,8*%
%TO.N,/A3*%
X27940000Y-58420000D03*
%TO.P,U1,31*%
%TO.N,/D15*%
X43180000Y-73660000D03*
%TO.P,U1,7*%
%TO.N,/A4*%
X27940000Y-55880000D03*
%TO.P,U1,30*%
%TO.N,/D7*%
X43180000Y-76200000D03*
%TO.P,U1,6*%
%TO.N,/A5*%
X27940000Y-53340000D03*
%TO.P,U1,29*%
%TO.N,/D14*%
X43180000Y-78740000D03*
%TO.P,U1,5*%
%TO.N,/A6*%
X27940000Y-50800000D03*
%TO.P,U1,28*%
%TO.N,/D6*%
X43180000Y-81280000D03*
%TO.P,U1,4*%
%TO.N,/A7*%
X27940000Y-48260000D03*
%TO.P,U1,27*%
%TO.N,/D13*%
X43180000Y-83820000D03*
%TO.P,U1,3*%
%TO.N,Net-(U1-Pad3)*%
X27940000Y-45720000D03*
%TO.P,U1,26*%
%TO.N,/D5*%
X43180000Y-86360000D03*
%TO.P,U1,2*%
%TO.N,Net-(U1-Pad2)*%
X27940000Y-43180000D03*
%TO.P,U1,25*%
%TO.N,/D12*%
X43180000Y-88900000D03*
D16*
%TO.P,U1,1*%
%TO.N,Net-(U1-Pad1)*%
X27940000Y-40640000D03*
%TD*%
D14*
%TO.P,J12,9*%
%TO.N,GND*%
X15240000Y-22860000D03*
%TO.P,J12,8*%
%TO.N,/A15*%
X15240000Y-25400000D03*
%TO.P,J12,7*%
%TO.N,/A14*%
X15240000Y-27940000D03*
%TO.P,J12,6*%
%TO.N,/A13*%
X15240000Y-30480000D03*
%TO.P,J12,5*%
%TO.N,/A12*%
X15240000Y-33020000D03*
%TO.P,J12,4*%
%TO.N,/A11*%
X15240000Y-35560000D03*
%TO.P,J12,3*%
%TO.N,/A10*%
X15240000Y-38100000D03*
%TO.P,J12,2*%
%TO.N,/A9*%
X15240000Y-40640000D03*
D12*
%TO.P,J12,1*%
%TO.N,/A8*%
X15240000Y-43180000D03*
%TD*%
D14*
%TO.P,J3,9*%
%TO.N,/A7*%
X15240000Y-48260000D03*
%TO.P,J3,8*%
%TO.N,/A6*%
X15240000Y-50800000D03*
%TO.P,J3,7*%
%TO.N,/A5*%
X15240000Y-53340000D03*
%TO.P,J3,6*%
%TO.N,/A4*%
X15240000Y-55880000D03*
%TO.P,J3,5*%
%TO.N,/A3*%
X15240000Y-58420000D03*
%TO.P,J3,4*%
%TO.N,/A2*%
X15240000Y-60960000D03*
%TO.P,J3,3*%
%TO.N,/A1*%
X15240000Y-63500000D03*
%TO.P,J3,2*%
%TO.N,/A0*%
X15240000Y-66040000D03*
D12*
%TO.P,J3,1*%
%TO.N,GND*%
X15240000Y-68580000D03*
%TD*%
%TO.P,J11,1*%
%TO.N,/~LDI*%
X152400000Y-43180000D03*
%TD*%
%TO.P,J10,1*%
%TO.N,/C1*%
X66040000Y-22860000D03*
%TD*%
%TO.P,J9,1*%
%TO.N,/~CS*%
X15240000Y-73660000D03*
%TD*%
%TO.P,R5,2*%
%TO.N,VCC*%
%TA.AperFunction,SMDPad,CuDef*%
G36*
G01*
X144180000Y-43630001D02*
X144180000Y-42729999D01*
G75*
G02*
X144429999Y-42480000I249999J0D01*
G01*
X145130001Y-42480000D01*
G75*
G02*
X145380000Y-42729999I0J-249999D01*
G01*
X145380000Y-43630001D01*
G75*
G02*
X145130001Y-43880000I-249999J0D01*
G01*
X144429999Y-43880000D01*
G75*
G02*
X144180000Y-43630001I0J249999D01*
G01*
G37*
%TD.AperFunction*%
%TO.P,R5,1*%
%TO.N,Net-(R5-Pad1)*%
%TA.AperFunction,SMDPad,CuDef*%
G36*
G01*
X142180000Y-43630001D02*
X142180000Y-42729999D01*
G75*
G02*
X142429999Y-42480000I249999J0D01*
G01*
X143130001Y-42480000D01*
G75*
G02*
X143380000Y-42729999I0J-249999D01*
G01*
X143380000Y-43630001D01*
G75*
G02*
X143130001Y-43880000I-249999J0D01*
G01*
X142429999Y-43880000D01*
G75*
G02*
X142180000Y-43630001I0J249999D01*
G01*
G37*
%TD.AperFunction*%
%TD*%
%TO.P,R4,2*%
%TO.N,VCC*%
%TA.AperFunction,SMDPad,CuDef*%
G36*
G01*
X89935000Y-41090001D02*
X89935000Y-40189999D01*
G75*
G02*
X90184999Y-39940000I249999J0D01*
G01*
X90885001Y-39940000D01*
G75*
G02*
X91135000Y-40189999I0J-249999D01*
G01*
X91135000Y-41090001D01*
G75*
G02*
X90885001Y-41340000I-249999J0D01*
G01*
X90184999Y-41340000D01*
G75*
G02*
X89935000Y-41090001I0J249999D01*
G01*
G37*
%TD.AperFunction*%
%TO.P,R4,1*%
%TO.N,Net-(R4-Pad1)*%
%TA.AperFunction,SMDPad,CuDef*%
G36*
G01*
X87935000Y-41090001D02*
X87935000Y-40189999D01*
G75*
G02*
X88184999Y-39940000I249999J0D01*
G01*
X88885001Y-39940000D01*
G75*
G02*
X89135000Y-40189999I0J-249999D01*
G01*
X89135000Y-41090001D01*
G75*
G02*
X88885001Y-41340000I-249999J0D01*
G01*
X88184999Y-41340000D01*
G75*
G02*
X87935000Y-41090001I0J249999D01*
G01*
G37*
%TD.AperFunction*%
%TD*%
%TO.P,R3,2*%
%TO.N,VCC*%
%TA.AperFunction,SMDPad,CuDef*%
G36*
G01*
X100095000Y-81730001D02*
X100095000Y-80829999D01*
G75*
G02*
X100344999Y-80580000I249999J0D01*
G01*
X101045001Y-80580000D01*
G75*
G02*
X101295000Y-80829999I0J-249999D01*
G01*
X101295000Y-81730001D01*
G75*
G02*
X101045001Y-81980000I-249999J0D01*
G01*
X100344999Y-81980000D01*
G75*
G02*
X100095000Y-81730001I0J249999D01*
G01*
G37*
%TD.AperFunction*%
%TO.P,R3,1*%
%TO.N,Net-(R3-Pad1)*%
%TA.AperFunction,SMDPad,CuDef*%
G36*
G01*
X98095000Y-81730001D02*
X98095000Y-80829999D01*
G75*
G02*
X98344999Y-80580000I249999J0D01*
G01*
X99045001Y-80580000D01*
G75*
G02*
X99295000Y-80829999I0J-249999D01*
G01*
X99295000Y-81730001D01*
G75*
G02*
X99045001Y-81980000I-249999J0D01*
G01*
X98344999Y-81980000D01*
G75*
G02*
X98095000Y-81730001I0J249999D01*
G01*
G37*
%TD.AperFunction*%
%TD*%
D14*
%TO.P,J8,9*%
%TO.N,/CNST7*%
X106680000Y-45720000D03*
%TO.P,J8,8*%
%TO.N,/CNST6*%
X106680000Y-48260000D03*
%TO.P,J8,7*%
%TO.N,/CNST5*%
X106680000Y-50800000D03*
%TO.P,J8,6*%
%TO.N,/CNST4*%
X106680000Y-53340000D03*
%TO.P,J8,5*%
%TO.N,/CNST3*%
X106680000Y-55880000D03*
%TO.P,J8,4*%
%TO.N,/CNST2*%
X106680000Y-58420000D03*
%TO.P,J8,3*%
%TO.N,/CNST1*%
X106680000Y-60960000D03*
%TO.P,J8,2*%
%TO.N,/CNST0*%
X106680000Y-63500000D03*
D12*
%TO.P,J8,1*%
%TO.N,GND*%
X106680000Y-66040000D03*
%TD*%
D14*
%TO.P,J7,9*%
%TO.N,/CNST7*%
X99060000Y-45720000D03*
%TO.P,J7,8*%
%TO.N,/CNST6*%
X99060000Y-48260000D03*
%TO.P,J7,7*%
%TO.N,/CNST5*%
X99060000Y-50800000D03*
%TO.P,J7,6*%
%TO.N,/CNST4*%
X99060000Y-53340000D03*
%TO.P,J7,5*%
%TO.N,/CNST3*%
X99060000Y-55880000D03*
%TO.P,J7,4*%
%TO.N,/CNST2*%
X99060000Y-58420000D03*
%TO.P,J7,3*%
%TO.N,/CNST1*%
X99060000Y-60960000D03*
%TO.P,J7,2*%
%TO.N,/CNST0*%
X99060000Y-63500000D03*
D12*
%TO.P,J7,1*%
%TO.N,GND*%
X99060000Y-66040000D03*
%TD*%
D14*
%TO.P,J6,9*%
%TO.N,/COP7*%
X124460000Y-86360000D03*
%TO.P,J6,8*%
%TO.N,/COP6*%
X124460000Y-88900000D03*
%TO.P,J6,7*%
%TO.N,/COP5*%
X124460000Y-91440000D03*
%TO.P,J6,6*%
%TO.N,/COP4*%
X124460000Y-93980000D03*
%TO.P,J6,5*%
%TO.N,/COP3*%
X124460000Y-96520000D03*
%TO.P,J6,4*%
%TO.N,/COP2*%
X124460000Y-99060000D03*
%TO.P,J6,3*%
%TO.N,/COP1*%
X124460000Y-101600000D03*
%TO.P,J6,2*%
%TO.N,/COP0*%
X124460000Y-104140000D03*
D12*
%TO.P,J6,1*%
%TO.N,GND*%
X124460000Y-106680000D03*
%TD*%
D14*
%TO.P,J5,9*%
%TO.N,/COP7*%
X116840000Y-86360000D03*
%TO.P,J5,8*%
%TO.N,/COP6*%
X116840000Y-88900000D03*
%TO.P,J5,7*%
%TO.N,/COP5*%
X116840000Y-91440000D03*
%TO.P,J5,6*%
%TO.N,/COP4*%
X116840000Y-93980000D03*
%TO.P,J5,5*%
%TO.N,/COP3*%
X116840000Y-96520000D03*
%TO.P,J5,4*%
%TO.N,/COP2*%
X116840000Y-99060000D03*
%TO.P,J5,3*%
%TO.N,/COP1*%
X116840000Y-101600000D03*
%TO.P,J5,2*%
%TO.N,/COP0*%
X116840000Y-104140000D03*
D12*
%TO.P,J5,1*%
%TO.N,GND*%
X116840000Y-106680000D03*
%TD*%
D21*
%TO.P,J4,2*%
%TO.N,GND*%
X104220000Y-27940000D03*
D22*
%TO.P,J4,1*%
%TO.N,Net-(J4-Pad1)*%
X109220000Y-27940000D03*
%TD*%
D14*
%TO.P,J2,9*%
%TO.N,/BUS7*%
X152400000Y-48260000D03*
%TO.P,J2,8*%
%TO.N,/BUS6*%
X152400000Y-50800000D03*
%TO.P,J2,7*%
%TO.N,/BUS5*%
X152400000Y-53340000D03*
%TO.P,J2,6*%
%TO.N,/BUS4*%
X152400000Y-55880000D03*
%TO.P,J2,5*%
%TO.N,/BUS3*%
X152400000Y-58420000D03*
%TO.P,J2,4*%
%TO.N,/BUS2*%
X152400000Y-60960000D03*
%TO.P,J2,3*%
%TO.N,/BUS1*%
X152400000Y-63500000D03*
%TO.P,J2,2*%
%TO.N,/BUS0*%
X152400000Y-66040000D03*
D12*
%TO.P,J2,1*%
%TO.N,GND*%
X152400000Y-68580000D03*
%TD*%
D14*
%TO.P,J1,9*%
%TO.N,/COP7*%
X109220000Y-86360000D03*
%TO.P,J1,8*%
%TO.N,/COP6*%
X109220000Y-88900000D03*
%TO.P,J1,7*%
%TO.N,/COP5*%
X109220000Y-91440000D03*
%TO.P,J1,6*%
%TO.N,/COP4*%
X109220000Y-93980000D03*
%TO.P,J1,5*%
%TO.N,/COP3*%
X109220000Y-96520000D03*
%TO.P,J1,4*%
%TO.N,/COP2*%
X109220000Y-99060000D03*
%TO.P,J1,3*%
%TO.N,/COP1*%
X109220000Y-101600000D03*
%TO.P,J1,2*%
%TO.N,/COP0*%
X109220000Y-104140000D03*
D12*
%TO.P,J1,1*%
%TO.N,GND*%
X109220000Y-106680000D03*
%TD*%
D19*
%TO.P,U7,20*%
%TO.N,VCC*%
X104140000Y-81280000D03*
%TO.P,U7,10*%
%TO.N,GND*%
X96520000Y-104140000D03*
%TO.P,U7,19*%
X104140000Y-83820000D03*
%TO.P,U7,9*%
%TO.N,Net-(U2-Pad12)*%
X96520000Y-101600000D03*
%TO.P,U7,18*%
%TO.N,/COP7*%
X104140000Y-86360000D03*
%TO.P,U7,8*%
%TO.N,Net-(U2-Pad13)*%
X96520000Y-99060000D03*
%TO.P,U7,17*%
%TO.N,/COP6*%
X104140000Y-88900000D03*
%TO.P,U7,7*%
%TO.N,Net-(U2-Pad14)*%
X96520000Y-96520000D03*
%TO.P,U7,16*%
%TO.N,/COP5*%
X104140000Y-91440000D03*
%TO.P,U7,6*%
%TO.N,Net-(U2-Pad15)*%
X96520000Y-93980000D03*
%TO.P,U7,15*%
%TO.N,/COP4*%
X104140000Y-93980000D03*
%TO.P,U7,5*%
%TO.N,Net-(U2-Pad16)*%
X96520000Y-91440000D03*
%TO.P,U7,14*%
%TO.N,/COP3*%
X104140000Y-96520000D03*
%TO.P,U7,4*%
%TO.N,Net-(U2-Pad17)*%
X96520000Y-88900000D03*
%TO.P,U7,13*%
%TO.N,/COP2*%
X104140000Y-99060000D03*
%TO.P,U7,3*%
%TO.N,Net-(U2-Pad18)*%
X96520000Y-86360000D03*
%TO.P,U7,12*%
%TO.N,/COP1*%
X104140000Y-101600000D03*
%TO.P,U7,2*%
%TO.N,Net-(U2-Pad19)*%
X96520000Y-83820000D03*
%TO.P,U7,11*%
%TO.N,/COP0*%
X104140000Y-104140000D03*
D20*
%TO.P,U7,1*%
%TO.N,Net-(R3-Pad1)*%
X96520000Y-81280000D03*
%TD*%
D19*
%TO.P,U6,14*%
%TO.N,VCC*%
X78740000Y-20320000D03*
%TO.P,U6,7*%
%TO.N,GND*%
X71120000Y-35560000D03*
%TO.P,U6,13*%
X78740000Y-22860000D03*
%TO.P,U6,6*%
%TO.N,/~RD*%
X71120000Y-33020000D03*
%TO.P,U6,12*%
%TO.N,GND*%
X78740000Y-25400000D03*
%TO.P,U6,5*%
%TO.N,/LT*%
X71120000Y-30480000D03*
%TO.P,U6,11*%
%TO.N,Net-(U6-Pad11)*%
X78740000Y-27940000D03*
%TO.P,U6,4*%
%TO.N,/LT*%
X71120000Y-27940000D03*
%TO.P,U6,10*%
%TO.N,GND*%
X78740000Y-30480000D03*
%TO.P,U6,3*%
%TO.N,/LT*%
X71120000Y-25400000D03*
%TO.P,U6,9*%
%TO.N,GND*%
X78740000Y-33020000D03*
%TO.P,U6,2*%
%TO.N,/C1*%
X71120000Y-22860000D03*
%TO.P,U6,8*%
%TO.N,Net-(U6-Pad8)*%
X78740000Y-35560000D03*
D20*
%TO.P,U6,1*%
%TO.N,/C1*%
X71120000Y-20320000D03*
%TD*%
D19*
%TO.P,U5,20*%
%TO.N,VCC*%
X147320000Y-43180000D03*
%TO.P,U5,10*%
%TO.N,GND*%
X139700000Y-66040000D03*
%TO.P,U5,19*%
%TO.N,/~LDI*%
X147320000Y-45720000D03*
%TO.P,U5,9*%
%TO.N,/CNST0*%
X139700000Y-63500000D03*
%TO.P,U5,18*%
%TO.N,/BUS7*%
X147320000Y-48260000D03*
%TO.P,U5,8*%
%TO.N,/CNST1*%
X139700000Y-60960000D03*
%TO.P,U5,17*%
%TO.N,/BUS6*%
X147320000Y-50800000D03*
%TO.P,U5,7*%
%TO.N,/CNST2*%
X139700000Y-58420000D03*
%TO.P,U5,16*%
%TO.N,/BUS5*%
X147320000Y-53340000D03*
%TO.P,U5,6*%
%TO.N,/CNST3*%
X139700000Y-55880000D03*
%TO.P,U5,15*%
%TO.N,/BUS4*%
X147320000Y-55880000D03*
%TO.P,U5,5*%
%TO.N,/CNST4*%
X139700000Y-53340000D03*
%TO.P,U5,14*%
%TO.N,/BUS3*%
X147320000Y-58420000D03*
%TO.P,U5,4*%
%TO.N,/CNST5*%
X139700000Y-50800000D03*
%TO.P,U5,13*%
%TO.N,/BUS2*%
X147320000Y-60960000D03*
%TO.P,U5,3*%
%TO.N,/CNST6*%
X139700000Y-48260000D03*
%TO.P,U5,12*%
%TO.N,/BUS1*%
X147320000Y-63500000D03*
%TO.P,U5,2*%
%TO.N,/CNST7*%
X139700000Y-45720000D03*
%TO.P,U5,11*%
%TO.N,/BUS0*%
X147320000Y-66040000D03*
D20*
%TO.P,U5,1*%
%TO.N,Net-(R5-Pad1)*%
X139700000Y-43180000D03*
%TD*%
D19*
%TO.P,U4,20*%
%TO.N,VCC*%
X93980000Y-40640000D03*
%TO.P,U4,10*%
%TO.N,GND*%
X86360000Y-63500000D03*
%TO.P,U4,19*%
X93980000Y-43180000D03*
%TO.P,U4,9*%
%TO.N,Net-(U3-Pad12)*%
X86360000Y-60960000D03*
%TO.P,U4,18*%
%TO.N,/CNST7*%
X93980000Y-45720000D03*
%TO.P,U4,8*%
%TO.N,Net-(U3-Pad13)*%
X86360000Y-58420000D03*
%TO.P,U4,17*%
%TO.N,/CNST6*%
X93980000Y-48260000D03*
%TO.P,U4,7*%
%TO.N,Net-(U3-Pad14)*%
X86360000Y-55880000D03*
%TO.P,U4,16*%
%TO.N,/CNST5*%
X93980000Y-50800000D03*
%TO.P,U4,6*%
%TO.N,Net-(U3-Pad15)*%
X86360000Y-53340000D03*
%TO.P,U4,15*%
%TO.N,/CNST4*%
X93980000Y-53340000D03*
%TO.P,U4,5*%
%TO.N,Net-(U3-Pad16)*%
X86360000Y-50800000D03*
%TO.P,U4,14*%
%TO.N,/CNST3*%
X93980000Y-55880000D03*
%TO.P,U4,4*%
%TO.N,Net-(U3-Pad17)*%
X86360000Y-48260000D03*
%TO.P,U4,13*%
%TO.N,/CNST2*%
X93980000Y-58420000D03*
%TO.P,U4,3*%
%TO.N,Net-(U3-Pad18)*%
X86360000Y-45720000D03*
%TO.P,U4,12*%
%TO.N,/CNST1*%
X93980000Y-60960000D03*
%TO.P,U4,2*%
%TO.N,Net-(U3-Pad19)*%
X86360000Y-43180000D03*
%TO.P,U4,11*%
%TO.N,/CNST0*%
X93980000Y-63500000D03*
D20*
%TO.P,U4,1*%
%TO.N,Net-(R4-Pad1)*%
X86360000Y-40640000D03*
%TD*%
%TO.P,R2,2*%
%TO.N,VCC*%
%TA.AperFunction,SMDPad,CuDef*%
G36*
G01*
X38700000Y-68129999D02*
X38700000Y-69030001D01*
G75*
G02*
X38450001Y-69280000I-249999J0D01*
G01*
X37749999Y-69280000D01*
G75*
G02*
X37500000Y-69030001I0J249999D01*
G01*
X37500000Y-68129999D01*
G75*
G02*
X37749999Y-67880000I249999J0D01*
G01*
X38450001Y-67880000D01*
G75*
G02*
X38700000Y-68129999I0J-249999D01*
G01*
G37*
%TD.AperFunction*%
%TO.P,R2,1*%
%TO.N,Net-(R2-Pad1)*%
%TA.AperFunction,SMDPad,CuDef*%
G36*
G01*
X40700000Y-68129999D02*
X40700000Y-69030001D01*
G75*
G02*
X40450001Y-69280000I-249999J0D01*
G01*
X39749999Y-69280000D01*
G75*
G02*
X39500000Y-69030001I0J249999D01*
G01*
X39500000Y-68129999D01*
G75*
G02*
X39749999Y-67880000I249999J0D01*
G01*
X40450001Y-67880000D01*
G75*
G02*
X40700000Y-68129999I0J-249999D01*
G01*
G37*
%TD.AperFunction*%
%TD*%
%TO.P,R1,2*%
%TO.N,VCC*%
%TA.AperFunction,SMDPad,CuDef*%
G36*
G01*
X38700000Y-42729999D02*
X38700000Y-43630001D01*
G75*
G02*
X38450001Y-43880000I-249999J0D01*
G01*
X37749999Y-43880000D01*
G75*
G02*
X37500000Y-43630001I0J249999D01*
G01*
X37500000Y-42729999D01*
G75*
G02*
X37749999Y-42480000I249999J0D01*
G01*
X38450001Y-42480000D01*
G75*
G02*
X38700000Y-42729999I0J-249999D01*
G01*
G37*
%TD.AperFunction*%
%TO.P,R1,1*%
%TO.N,Net-(R1-Pad1)*%
%TA.AperFunction,SMDPad,CuDef*%
G36*
G01*
X40700000Y-42729999D02*
X40700000Y-43630001D01*
G75*
G02*
X40450001Y-43880000I-249999J0D01*
G01*
X39749999Y-43880000D01*
G75*
G02*
X39500000Y-43630001I0J249999D01*
G01*
X39500000Y-42729999D01*
G75*
G02*
X39749999Y-42480000I249999J0D01*
G01*
X40450001Y-42480000D01*
G75*
G02*
X40700000Y-42729999I0J-249999D01*
G01*
G37*
%TD.AperFunction*%
%TD*%
D19*
%TO.P,U3,20*%
%TO.N,VCC*%
X78740000Y-40640000D03*
%TO.P,U3,10*%
%TO.N,GND*%
X71120000Y-63500000D03*
%TO.P,U3,19*%
%TO.N,Net-(U3-Pad19)*%
X78740000Y-43180000D03*
%TO.P,U3,9*%
%TO.N,/D8*%
X71120000Y-60960000D03*
%TO.P,U3,18*%
%TO.N,Net-(U3-Pad18)*%
X78740000Y-45720000D03*
%TO.P,U3,8*%
%TO.N,/D9*%
X71120000Y-58420000D03*
%TO.P,U3,17*%
%TO.N,Net-(U3-Pad17)*%
X78740000Y-48260000D03*
%TO.P,U3,7*%
%TO.N,/D10*%
X71120000Y-55880000D03*
%TO.P,U3,16*%
%TO.N,Net-(U3-Pad16)*%
X78740000Y-50800000D03*
%TO.P,U3,6*%
%TO.N,/D11*%
X71120000Y-53340000D03*
%TO.P,U3,15*%
%TO.N,Net-(U3-Pad15)*%
X78740000Y-53340000D03*
%TO.P,U3,5*%
%TO.N,/D12*%
X71120000Y-50800000D03*
%TO.P,U3,14*%
%TO.N,Net-(U3-Pad14)*%
X78740000Y-55880000D03*
%TO.P,U3,4*%
%TO.N,/D13*%
X71120000Y-48260000D03*
%TO.P,U3,13*%
%TO.N,Net-(U3-Pad13)*%
X78740000Y-58420000D03*
%TO.P,U3,3*%
%TO.N,/D14*%
X71120000Y-45720000D03*
%TO.P,U3,12*%
%TO.N,Net-(U3-Pad12)*%
X78740000Y-60960000D03*
%TO.P,U3,2*%
%TO.N,/D15*%
X71120000Y-43180000D03*
%TO.P,U3,11*%
%TO.N,/LT*%
X78740000Y-63500000D03*
D20*
%TO.P,U3,1*%
%TO.N,GND*%
X71120000Y-40640000D03*
%TD*%
D19*
%TO.P,U2,20*%
%TO.N,VCC*%
X78740000Y-81280000D03*
%TO.P,U2,10*%
%TO.N,GND*%
X71120000Y-104140000D03*
%TO.P,U2,19*%
%TO.N,Net-(U2-Pad19)*%
X78740000Y-83820000D03*
%TO.P,U2,9*%
%TO.N,/D0*%
X71120000Y-101600000D03*
%TO.P,U2,18*%
%TO.N,Net-(U2-Pad18)*%
X78740000Y-86360000D03*
%TO.P,U2,8*%
%TO.N,/D1*%
X71120000Y-99060000D03*
%TO.P,U2,17*%
%TO.N,Net-(U2-Pad17)*%
X78740000Y-88900000D03*
%TO.P,U2,7*%
%TO.N,/D2*%
X71120000Y-96520000D03*
%TO.P,U2,16*%
%TO.N,Net-(U2-Pad16)*%
X78740000Y-91440000D03*
%TO.P,U2,6*%
%TO.N,/D3*%
X71120000Y-93980000D03*
%TO.P,U2,15*%
%TO.N,Net-(U2-Pad15)*%
X78740000Y-93980000D03*
%TO.P,U2,5*%
%TO.N,/D4*%
X71120000Y-91440000D03*
%TO.P,U2,14*%
%TO.N,Net-(U2-Pad14)*%
X78740000Y-96520000D03*
%TO.P,U2,4*%
%TO.N,/D5*%
X71120000Y-88900000D03*
%TO.P,U2,13*%
%TO.N,Net-(U2-Pad13)*%
X78740000Y-99060000D03*
%TO.P,U2,3*%
%TO.N,/D6*%
X71120000Y-86360000D03*
%TO.P,U2,12*%
%TO.N,Net-(U2-Pad12)*%
X78740000Y-101600000D03*
%TO.P,U2,2*%
%TO.N,/D7*%
X71120000Y-83820000D03*
%TO.P,U2,11*%
%TO.N,/LT*%
X78740000Y-104140000D03*
D20*
%TO.P,U2,1*%
%TO.N,GND*%
X71120000Y-81280000D03*
%TD*%
D23*
%TO.N,/D7*%
X49530000Y-80010000D03*
X62230000Y-80010000D03*
%TO.N,/D6*%
X50165000Y-85090000D03*
X62230000Y-85090000D03*
%TO.N,/D5*%
X62230000Y-88900000D03*
X50165000Y-88900000D03*
%TO.N,/D4*%
X50165000Y-92710000D03*
X62230000Y-92710000D03*
%TO.N,VCC*%
X35560000Y-68580000D03*
X35560000Y-74295000D03*
X49530000Y-76200000D03*
X66675000Y-76200000D03*
%TO.N,/D3*%
X50165000Y-95885000D03*
X62230000Y-95885000D03*
%TO.N,/D2*%
X62230000Y-99060000D03*
X55245000Y-99060000D03*
%TO.N,/LT*%
X76200000Y-30480000D03*
X76200000Y-67310000D03*
X76200000Y-41910000D03*
X76200000Y-82550000D03*
%TD*%
D24*
%TO.N,GND*%
X15240000Y-22860000D02*
X20320000Y-22860000D01*
X116840000Y-106680000D02*
X109220000Y-106680000D01*
X101600000Y-66040000D02*
X106680000Y-66040000D01*
X99060000Y-66040000D02*
X101600000Y-66040000D01*
X124460000Y-106680000D02*
X116840000Y-106680000D01*
X86360000Y-66040000D02*
X96520000Y-66040000D01*
X86360000Y-63500000D02*
X86360000Y-66040000D01*
D25*
X106680000Y-66040000D02*
X114300000Y-66040000D01*
D24*
X78740000Y-33020000D02*
X81280000Y-33020000D01*
D25*
X78740000Y-25400000D02*
X81280000Y-25400000D01*
D24*
X133350000Y-66040000D02*
X137160000Y-66040000D01*
X114300000Y-66040000D02*
X133350000Y-66040000D01*
X137160000Y-66040000D02*
X139700000Y-66040000D01*
X124460000Y-106680000D02*
X143510000Y-106680000D01*
X78740000Y-22860000D02*
X81280000Y-22860000D01*
X81280000Y-30480000D02*
X81280000Y-33020000D01*
X73660000Y-33020000D02*
X78740000Y-33020000D01*
X73660000Y-33020000D02*
X73660000Y-35560000D01*
D25*
X152400000Y-68580000D02*
X137160000Y-68580000D01*
X137160000Y-68580000D02*
X137160000Y-66040000D01*
X81280000Y-30480000D02*
X78740000Y-30480000D01*
X71120000Y-104140000D02*
X73660000Y-104140000D01*
D24*
X73660000Y-81280000D02*
X73660000Y-104140000D01*
D25*
X71120000Y-81280000D02*
X73660000Y-81280000D01*
D24*
X109220000Y-106680000D02*
X96520000Y-106680000D01*
X96520000Y-66040000D02*
X99060000Y-66040000D01*
D26*
X104220000Y-27940000D02*
X81280000Y-27940000D01*
D24*
X81280000Y-27940000D02*
X81280000Y-30480000D01*
X81280000Y-22860000D02*
X81280000Y-27940000D01*
X12700000Y-68580000D02*
X15240000Y-68580000D01*
X12700000Y-22860000D02*
X12700000Y-68580000D01*
X15240000Y-22860000D02*
X12700000Y-22860000D01*
X12700000Y-68580000D02*
X12700000Y-76200000D01*
X12700000Y-76200000D02*
X20955000Y-76200000D01*
X26035000Y-71120000D02*
X27940000Y-71120000D01*
X20955000Y-76200000D02*
X26035000Y-71120000D01*
X43180000Y-71120000D02*
X45085000Y-71120000D01*
X46990000Y-69215000D02*
X46990000Y-66040000D01*
X45085000Y-71120000D02*
X46990000Y-69215000D01*
X46990000Y-66040000D02*
X43180000Y-66040000D01*
D27*
X71120000Y-63500000D02*
X73660000Y-63500000D01*
D24*
X73660000Y-63500000D02*
X73660000Y-66040000D01*
D27*
X71120000Y-40640000D02*
X73660000Y-40640000D01*
D24*
X73660000Y-40640000D02*
X73660000Y-63500000D01*
D27*
X71120000Y-35560000D02*
X73660000Y-35560000D01*
D24*
X73025000Y-78740000D02*
X73660000Y-79375000D01*
X65405000Y-78740000D02*
X73025000Y-78740000D01*
X73660000Y-81280000D02*
X73660000Y-79375000D01*
X70802500Y-73342500D02*
X73660000Y-70485000D01*
X73660000Y-66040000D02*
X73660000Y-70485000D01*
X65722500Y-73342500D02*
X70802500Y-73342500D01*
X64135000Y-74930000D02*
X64135000Y-77470000D01*
X64135000Y-77470000D02*
X65405000Y-78740000D01*
X65722500Y-73342500D02*
X64135000Y-74930000D01*
D27*
X32385000Y-68580000D02*
X32385000Y-71120000D01*
D24*
X32385000Y-71120000D02*
X43180000Y-71120000D01*
X27940000Y-71120000D02*
X32385000Y-71120000D01*
X51435000Y-66040000D02*
X46990000Y-66040000D01*
X55245000Y-34290000D02*
X55245000Y-62230000D01*
X59055000Y-30480000D02*
X55245000Y-34290000D01*
X59055000Y-21590000D02*
X59055000Y-30480000D01*
X55245000Y-62230000D02*
X51435000Y-66040000D01*
X63500000Y-17145000D02*
X59055000Y-21590000D01*
X72390000Y-17145000D02*
X63500000Y-17145000D01*
X73660000Y-18415000D02*
X72390000Y-17145000D01*
X73660000Y-22860000D02*
X73660000Y-18415000D01*
X78740000Y-22860000D02*
X73660000Y-22860000D01*
D27*
X75162500Y-18415000D02*
X73660000Y-18415000D01*
X74760000Y-39370000D02*
X73660000Y-39370000D01*
D24*
X73660000Y-39370000D02*
X73660000Y-40640000D01*
X73660000Y-35560000D02*
X73660000Y-39370000D01*
D27*
X74930000Y-79375000D02*
X73660000Y-79375000D01*
X92075000Y-44132500D02*
X93027500Y-43180000D01*
X93980000Y-43180000D02*
X93027500Y-43180000D01*
X91990000Y-44852500D02*
X92075000Y-44767500D01*
X90487500Y-44852500D02*
X91990000Y-44852500D01*
X92075000Y-44132500D02*
X92075000Y-44767500D01*
X104140000Y-83820000D02*
X102235000Y-83820000D01*
X102235000Y-85407500D02*
X100647500Y-85407500D01*
X102235000Y-83820000D02*
X102235000Y-85407500D01*
X144780000Y-47392500D02*
X144780000Y-50800000D01*
X144780000Y-50800000D02*
X143510000Y-52070000D01*
X143510000Y-52070000D02*
X143510000Y-65405000D01*
X142875000Y-66040000D02*
X139700000Y-66040000D01*
X143510000Y-65405000D02*
X142875000Y-66040000D01*
X89535000Y-63500000D02*
X90170000Y-62865000D01*
X90170000Y-62865000D02*
X90170000Y-48895000D01*
X86360000Y-63500000D02*
X89535000Y-63500000D01*
X99060000Y-104140000D02*
X96520000Y-104140000D01*
X100330000Y-102870000D02*
X99060000Y-104140000D01*
X100330000Y-89535000D02*
X100330000Y-102870000D01*
X100647500Y-89217500D02*
X100330000Y-89535000D01*
X100647500Y-85407500D02*
X100647500Y-89217500D01*
X90487500Y-48577500D02*
X90170000Y-48895000D01*
X90487500Y-44852500D02*
X90487500Y-48577500D01*
D24*
X82550000Y-66040000D02*
X78105000Y-70485000D01*
X86360000Y-66040000D02*
X82550000Y-66040000D01*
X73660000Y-70485000D02*
X78105000Y-70485000D01*
X96520000Y-104140000D02*
X96520000Y-106680000D01*
X95885000Y-107315000D02*
X96520000Y-106680000D01*
X73660000Y-106680000D02*
X74930000Y-107950000D01*
X73660000Y-104140000D02*
X73660000Y-106680000D01*
X95250000Y-107950000D02*
X95885000Y-107315000D01*
X74930000Y-107950000D02*
X95250000Y-107950000D01*
D27*
X104775000Y-24130000D02*
X104220000Y-24685000D01*
X114300000Y-24130000D02*
X104775000Y-24130000D01*
X115300000Y-25130000D02*
X114300000Y-24130000D01*
X104220000Y-24685000D02*
X104220000Y-27940000D01*
X115300000Y-26990000D02*
X115300000Y-25130000D01*
D25*
%TO.N,/D15*%
X69215000Y-43180000D02*
X71120000Y-43180000D01*
X58420000Y-53975000D02*
X69215000Y-43180000D01*
X58420000Y-64770000D02*
X58420000Y-53975000D01*
X49530000Y-73660000D02*
X58420000Y-64770000D01*
X43180000Y-73660000D02*
X49530000Y-73660000D01*
%TO.N,/D7*%
X45720000Y-76200000D02*
X49530000Y-80010000D01*
X43180000Y-76200000D02*
X45720000Y-76200000D01*
X62230000Y-80010000D02*
X64135000Y-80010000D01*
X67945000Y-83820000D02*
X71120000Y-83820000D01*
X64135000Y-80010000D02*
X67945000Y-83820000D01*
%TO.N,/D14*%
X69215000Y-45720000D02*
X71120000Y-45720000D01*
X59690000Y-55245000D02*
X69215000Y-45720000D01*
X59690000Y-65405000D02*
X59690000Y-55245000D01*
X51435000Y-73660000D02*
X59690000Y-65405000D01*
X48895000Y-82550000D02*
X50800000Y-82550000D01*
X45085000Y-78740000D02*
X48895000Y-82550000D01*
X51435000Y-81915000D02*
X51435000Y-73660000D01*
X50800000Y-82550000D02*
X51435000Y-81915000D01*
X43180000Y-78740000D02*
X45085000Y-78740000D01*
%TO.N,/D6*%
X45085000Y-81280000D02*
X43180000Y-81280000D01*
X48895000Y-85090000D02*
X45085000Y-81280000D01*
X50165000Y-85090000D02*
X48895000Y-85090000D01*
X62230000Y-85090000D02*
X64770000Y-85090000D01*
X64770000Y-85090000D02*
X66040000Y-86360000D01*
X71120000Y-86360000D02*
X66040000Y-86360000D01*
%TO.N,/D13*%
X60960000Y-56515000D02*
X69215000Y-48260000D01*
X60960000Y-66040000D02*
X60960000Y-56515000D01*
X52705000Y-86360000D02*
X52705000Y-74295000D01*
X69215000Y-48260000D02*
X71120000Y-48260000D01*
X52070000Y-86995000D02*
X52705000Y-86360000D01*
X48260000Y-86995000D02*
X52070000Y-86995000D01*
X45085000Y-83820000D02*
X48260000Y-86995000D01*
X52705000Y-74295000D02*
X60960000Y-66040000D01*
X43180000Y-83820000D02*
X45085000Y-83820000D01*
%TO.N,/D5*%
X62230000Y-88900000D02*
X71120000Y-88900000D01*
X44450000Y-86360000D02*
X43180000Y-86360000D01*
X45085000Y-86360000D02*
X44450000Y-86360000D01*
X47625000Y-88900000D02*
X45085000Y-86360000D01*
X50165000Y-88900000D02*
X47625000Y-88900000D01*
%TO.N,/D12*%
X69215000Y-50800000D02*
X71120000Y-50800000D01*
X62230000Y-57785000D02*
X69215000Y-50800000D01*
X62230000Y-66675000D02*
X62230000Y-57785000D01*
X53975000Y-74930000D02*
X62230000Y-66675000D01*
X53975000Y-89535000D02*
X53975000Y-74930000D01*
X46990000Y-90805000D02*
X52705000Y-90805000D01*
X45085000Y-88900000D02*
X46990000Y-90805000D01*
X52705000Y-90805000D02*
X53975000Y-89535000D01*
X43180000Y-88900000D02*
X45085000Y-88900000D01*
%TO.N,/D4*%
X64770000Y-92710000D02*
X66040000Y-91440000D01*
X62230000Y-92710000D02*
X64770000Y-92710000D01*
X71120000Y-91440000D02*
X66040000Y-91440000D01*
X46355000Y-92710000D02*
X45085000Y-91440000D01*
X50165000Y-92710000D02*
X46355000Y-92710000D01*
X43180000Y-91440000D02*
X45085000Y-91440000D01*
D27*
%TO.N,VCC*%
X116840000Y-38100000D02*
X147320000Y-38100000D01*
X147320000Y-38100000D02*
X147320000Y-43180000D01*
X93980000Y-38100000D02*
X116840000Y-38100000D01*
D25*
X90535000Y-40640000D02*
X93980000Y-40640000D01*
X100695000Y-81280000D02*
X104140000Y-81280000D01*
X147320000Y-43180000D02*
X149590000Y-43180000D01*
X149590000Y-43180000D02*
X149860000Y-43450000D01*
X144780000Y-43180000D02*
X147320000Y-43180000D01*
X78740000Y-20320000D02*
X111760000Y-20320000D01*
X38100000Y-43180000D02*
X38100000Y-68580000D01*
X38100000Y-68580000D02*
X35560000Y-68580000D01*
X35560000Y-68580000D02*
X35560000Y-68580000D01*
X35560000Y-74295000D02*
X35560000Y-74295000D01*
D24*
X158115000Y-37465000D02*
X148590000Y-27940000D01*
X158115000Y-70485000D02*
X158115000Y-37465000D01*
X153670000Y-74930000D02*
X158115000Y-70485000D01*
X97790000Y-74930000D02*
X153670000Y-74930000D01*
D27*
X83820000Y-38100000D02*
X93980000Y-38100000D01*
X35560000Y-75565000D02*
X35560000Y-74295000D01*
D25*
X49530000Y-76200000D02*
X49530000Y-76200000D01*
D27*
X83185000Y-38100000D02*
X83820000Y-38100000D01*
X80645000Y-40640000D02*
X83185000Y-38100000D01*
X78740000Y-40640000D02*
X80645000Y-40640000D01*
X93980000Y-38100000D02*
X93980000Y-40640000D01*
D24*
X97790000Y-74930000D02*
X93980000Y-74930000D01*
X104140000Y-74930000D02*
X104140000Y-81280000D01*
X93980000Y-74930000D02*
X78740000Y-74930000D01*
X73660000Y-74930000D02*
X78740000Y-74930000D01*
X72390000Y-76200000D02*
X73660000Y-74930000D01*
X66675000Y-76200000D02*
X72390000Y-76200000D01*
D27*
X32385000Y-76080000D02*
X33535000Y-76080000D01*
X34290000Y-76835000D02*
X35560000Y-76835000D01*
X33535000Y-76080000D02*
X34290000Y-76835000D01*
X35560000Y-76835000D02*
X35560000Y-75565000D01*
X40640000Y-93980000D02*
X43180000Y-93980000D01*
X38100000Y-91440000D02*
X40640000Y-93980000D01*
X38100000Y-79375000D02*
X38100000Y-91440000D01*
X35560000Y-76835000D02*
X38100000Y-79375000D01*
X39370000Y-75565000D02*
X40005000Y-74930000D01*
X35560000Y-75565000D02*
X39370000Y-75565000D01*
X40005000Y-74930000D02*
X41275000Y-74930000D01*
X44450000Y-74930000D02*
X48260000Y-74930000D01*
D25*
X40005000Y-74930000D02*
X44450000Y-74930000D01*
D27*
X48260000Y-74930000D02*
X49530000Y-76200000D01*
X77237500Y-18415000D02*
X78740000Y-18415000D01*
X78740000Y-18415000D02*
X78740000Y-20320000D01*
X76835000Y-39370000D02*
X78740000Y-39370000D01*
X78740000Y-39370000D02*
X78740000Y-40640000D01*
X77005000Y-79375000D02*
X78740000Y-79375000D01*
X78740000Y-79375000D02*
X78740000Y-81280000D01*
D24*
X78740000Y-74930000D02*
X78740000Y-79375000D01*
D27*
X90535000Y-42730000D02*
X90487500Y-42777500D01*
X90535000Y-40640000D02*
X90535000Y-42730000D01*
X100695000Y-83285000D02*
X100647500Y-83332500D01*
X100695000Y-81280000D02*
X100695000Y-83285000D01*
X144780000Y-43180000D02*
X144780000Y-45317500D01*
X116840000Y-28892500D02*
X115302500Y-28892500D01*
X115302500Y-28892500D02*
X115300000Y-28890000D01*
D24*
X116840000Y-38100000D02*
X116840000Y-28892500D01*
X116840000Y-28892500D02*
X116840000Y-27940000D01*
D27*
X111760000Y-20320000D02*
X116205000Y-20320000D01*
X117475000Y-21590000D02*
X117475000Y-27940000D01*
X116205000Y-20320000D02*
X117475000Y-21590000D01*
D24*
X117475000Y-27940000D02*
X116840000Y-27940000D01*
X148590000Y-27940000D02*
X117475000Y-27940000D01*
D25*
%TO.N,/D11*%
X55245000Y-75565000D02*
X63500000Y-67310000D01*
X55245000Y-93980000D02*
X55245000Y-75565000D01*
X63500000Y-59055000D02*
X69215000Y-53340000D01*
X51117500Y-98107500D02*
X55245000Y-93980000D01*
X29527500Y-98107500D02*
X51117500Y-98107500D01*
X27940000Y-96520000D02*
X29527500Y-98107500D01*
X69215000Y-53340000D02*
X71120000Y-53340000D01*
X63500000Y-67310000D02*
X63500000Y-59055000D01*
X27940000Y-93980000D02*
X27940000Y-96520000D01*
%TO.N,/D3*%
X27940000Y-91440000D02*
X31750000Y-91440000D01*
X31750000Y-91440000D02*
X36195000Y-95885000D01*
X36195000Y-95885000D02*
X50165000Y-95885000D01*
X50165000Y-95885000D02*
X50165000Y-95885000D01*
X62230000Y-95885000D02*
X62230000Y-95885000D01*
X66675000Y-93980000D02*
X71120000Y-93980000D01*
X64770000Y-95885000D02*
X66675000Y-93980000D01*
X62230000Y-95885000D02*
X64770000Y-95885000D01*
%TO.N,/D10*%
X64770000Y-67945000D02*
X64770000Y-60325000D01*
X64770000Y-60325000D02*
X69215000Y-55880000D01*
X56515000Y-76200000D02*
X64770000Y-67945000D01*
X51435000Y-99695000D02*
X56515000Y-94615000D01*
X69215000Y-55880000D02*
X71120000Y-55880000D01*
X27940000Y-99695000D02*
X51435000Y-99695000D01*
X25400000Y-97155000D02*
X27940000Y-99695000D01*
X56515000Y-94615000D02*
X56515000Y-76200000D01*
X25400000Y-89535000D02*
X25400000Y-97155000D01*
X26035000Y-88900000D02*
X25400000Y-89535000D01*
X27940000Y-88900000D02*
X26035000Y-88900000D01*
%TO.N,/D2*%
X24765000Y-86360000D02*
X27940000Y-86360000D01*
X24130000Y-86995000D02*
X24765000Y-86360000D01*
X24130000Y-97790000D02*
X24130000Y-86995000D01*
X27305000Y-100965000D02*
X24130000Y-97790000D01*
X48895000Y-100965000D02*
X27305000Y-100965000D01*
X69850000Y-96520000D02*
X71120000Y-96520000D01*
X48895000Y-100965000D02*
X53340000Y-100965000D01*
X53340000Y-100965000D02*
X55245000Y-99060000D01*
X55245000Y-99060000D02*
X55245000Y-99060000D01*
X62230000Y-99060000D02*
X64770000Y-99060000D01*
X67310000Y-96520000D02*
X69850000Y-96520000D01*
X64770000Y-99060000D02*
X67310000Y-96520000D01*
%TO.N,/D9*%
X69215000Y-58420000D02*
X71120000Y-58420000D01*
X66040000Y-61595000D02*
X69215000Y-58420000D01*
X66040000Y-68580000D02*
X66040000Y-61595000D01*
X55880000Y-102235000D02*
X57785000Y-100330000D01*
X57785000Y-76835000D02*
X66040000Y-68580000D01*
X26670000Y-102235000D02*
X55880000Y-102235000D01*
X22860000Y-98425000D02*
X26670000Y-102235000D01*
X22860000Y-84455000D02*
X22860000Y-98425000D01*
X23495000Y-83820000D02*
X22860000Y-84455000D01*
X57785000Y-100330000D02*
X57785000Y-76835000D01*
X27940000Y-83820000D02*
X23495000Y-83820000D01*
%TO.N,/D1*%
X29210000Y-77470000D02*
X29845000Y-78105000D01*
X24765000Y-77470000D02*
X29210000Y-77470000D01*
X29845000Y-78105000D02*
X29845000Y-80645000D01*
X20320000Y-81915000D02*
X24765000Y-77470000D01*
X20320000Y-99695000D02*
X20320000Y-81915000D01*
X25400000Y-104775000D02*
X20320000Y-99695000D01*
X29210000Y-81280000D02*
X27940000Y-81280000D01*
X61595000Y-104775000D02*
X25400000Y-104775000D01*
X29845000Y-80645000D02*
X29210000Y-81280000D01*
X67310000Y-99060000D02*
X61595000Y-104775000D01*
X71120000Y-99060000D02*
X67310000Y-99060000D01*
%TO.N,/D8*%
X69215000Y-60960000D02*
X71120000Y-60960000D01*
X59055000Y-77470000D02*
X67310000Y-69215000D01*
X59055000Y-101600000D02*
X59055000Y-77470000D01*
X26035000Y-103505000D02*
X57150000Y-103505000D01*
X57150000Y-103505000D02*
X59055000Y-101600000D01*
X21590000Y-99060000D02*
X26035000Y-103505000D01*
X67310000Y-62865000D02*
X69215000Y-60960000D01*
X21590000Y-83185000D02*
X21590000Y-99060000D01*
X67310000Y-69215000D02*
X67310000Y-62865000D01*
X26035000Y-78740000D02*
X21590000Y-83185000D01*
X27940000Y-78740000D02*
X26035000Y-78740000D01*
%TO.N,/D0*%
X68580000Y-101600000D02*
X71120000Y-101600000D01*
X64135000Y-106045000D02*
X68580000Y-101600000D01*
X24765000Y-106045000D02*
X64135000Y-106045000D01*
X19050000Y-100330000D02*
X24765000Y-106045000D01*
X19050000Y-81280000D02*
X19050000Y-100330000D01*
X24130000Y-76200000D02*
X19050000Y-81280000D01*
X27940000Y-76200000D02*
X24130000Y-76200000D01*
%TO.N,Net-(U2-Pad19)*%
X78740000Y-83820000D02*
X96520000Y-83820000D01*
%TO.N,Net-(U2-Pad18)*%
X78740000Y-86360000D02*
X96520000Y-86360000D01*
%TO.N,Net-(U2-Pad17)*%
X78740000Y-88900000D02*
X96520000Y-88900000D01*
%TO.N,Net-(U2-Pad16)*%
X78740000Y-91440000D02*
X96520000Y-91440000D01*
%TO.N,Net-(U2-Pad15)*%
X78740000Y-93980000D02*
X96520000Y-93980000D01*
%TO.N,Net-(U2-Pad14)*%
X78740000Y-96520000D02*
X96520000Y-96520000D01*
%TO.N,Net-(U2-Pad13)*%
X78740000Y-99060000D02*
X80645000Y-99060000D01*
X80645000Y-99060000D02*
X81280000Y-98425000D01*
X81280000Y-98425000D02*
X88900000Y-98425000D01*
X88900000Y-98425000D02*
X89535000Y-99060000D01*
X89535000Y-99060000D02*
X96520000Y-99060000D01*
%TO.N,Net-(U2-Pad12)*%
X78740000Y-101600000D02*
X80645000Y-101600000D01*
X80645000Y-101600000D02*
X82550000Y-99695000D01*
X82550000Y-99695000D02*
X87630000Y-99695000D01*
X87630000Y-99695000D02*
X89535000Y-101600000D01*
X89535000Y-101600000D02*
X96520000Y-101600000D01*
%TO.N,Net-(U3-Pad19)*%
X78740000Y-43180000D02*
X86360000Y-43180000D01*
%TO.N,Net-(U3-Pad18)*%
X78740000Y-45720000D02*
X86360000Y-45720000D01*
%TO.N,Net-(U3-Pad17)*%
X78740000Y-48260000D02*
X86360000Y-48260000D01*
%TO.N,Net-(U3-Pad16)*%
X78740000Y-50800000D02*
X86360000Y-50800000D01*
%TO.N,Net-(U3-Pad15)*%
X78740000Y-53340000D02*
X86360000Y-53340000D01*
%TO.N,Net-(U3-Pad14)*%
X78740000Y-55880000D02*
X86360000Y-55880000D01*
%TO.N,Net-(U3-Pad13)*%
X78740000Y-58420000D02*
X86360000Y-58420000D01*
%TO.N,Net-(U3-Pad12)*%
X78740000Y-60960000D02*
X86360000Y-60960000D01*
%TO.N,Net-(R1-Pad1)*%
X43180000Y-40640000D02*
X43180000Y-43180000D01*
X40100000Y-43180000D02*
X43180000Y-43180000D01*
%TO.N,Net-(R2-Pad1)*%
X40100000Y-68580000D02*
X43180000Y-68580000D01*
%TO.N,/A1*%
X15240000Y-63500000D02*
X27940000Y-63500000D01*
%TO.N,/A2*%
X15240000Y-60960000D02*
X27940000Y-60960000D01*
%TO.N,/A3*%
X15240000Y-58420000D02*
X27940000Y-58420000D01*
%TO.N,/A4*%
X15240000Y-55880000D02*
X27940000Y-55880000D01*
%TO.N,/A5*%
X15240000Y-53340000D02*
X27940000Y-53340000D01*
%TO.N,/A6*%
X15240000Y-50800000D02*
X27940000Y-50800000D01*
%TO.N,/A7*%
X15240000Y-48260000D02*
X27940000Y-48260000D01*
%TO.N,/A8*%
X20320000Y-43180000D02*
X15240000Y-43180000D01*
X44450000Y-45720000D02*
X43180000Y-45720000D01*
X45085000Y-45085000D02*
X44450000Y-45720000D01*
X45085000Y-34925000D02*
X45085000Y-45085000D01*
X44450000Y-34290000D02*
X45085000Y-34925000D01*
X31115000Y-34290000D02*
X44450000Y-34290000D01*
X26035000Y-39370000D02*
X31115000Y-34290000D01*
X26035000Y-40005000D02*
X26035000Y-39370000D01*
X22860000Y-43180000D02*
X26035000Y-40005000D01*
X20320000Y-43180000D02*
X22860000Y-43180000D01*
%TO.N,/A9*%
X15240000Y-40640000D02*
X20320000Y-40640000D01*
X46355000Y-34290000D02*
X46355000Y-47625000D01*
X45085000Y-33020000D02*
X46355000Y-34290000D01*
X46355000Y-47625000D02*
X45720000Y-48260000D01*
X30480000Y-33020000D02*
X45085000Y-33020000D01*
X45720000Y-48260000D02*
X43180000Y-48260000D01*
X22860000Y-40640000D02*
X30480000Y-33020000D01*
X20320000Y-40640000D02*
X22860000Y-40640000D01*
%TO.N,/A10*%
X15240000Y-38100000D02*
X20320000Y-38100000D01*
X47625000Y-50165000D02*
X46990000Y-50800000D01*
X47625000Y-33655000D02*
X47625000Y-50165000D01*
X45720000Y-31750000D02*
X47625000Y-33655000D01*
X46990000Y-50800000D02*
X43180000Y-50800000D01*
X29210000Y-31750000D02*
X45720000Y-31750000D01*
X22860000Y-38100000D02*
X29210000Y-31750000D01*
X20320000Y-38100000D02*
X22860000Y-38100000D01*
%TO.N,/A11*%
X15240000Y-35560000D02*
X20320000Y-35560000D01*
X48260000Y-53340000D02*
X43180000Y-53340000D01*
X48895000Y-52705000D02*
X48260000Y-53340000D01*
X48895000Y-33020000D02*
X48895000Y-52705000D01*
X46355000Y-30480000D02*
X48895000Y-33020000D01*
X27940000Y-30480000D02*
X46355000Y-30480000D01*
X22860000Y-35560000D02*
X27940000Y-30480000D01*
X20320000Y-35560000D02*
X22860000Y-35560000D01*
%TO.N,/~RD*%
X30480000Y-73660000D02*
X27940000Y-73660000D01*
X31750000Y-72390000D02*
X30480000Y-73660000D01*
X47625000Y-72390000D02*
X31750000Y-72390000D01*
X57150000Y-62865000D02*
X47625000Y-72390000D01*
X67945000Y-33020000D02*
X57150000Y-43815000D01*
X57150000Y-43815000D02*
X57150000Y-62865000D01*
X71120000Y-33020000D02*
X67945000Y-33020000D01*
%TO.N,/A12*%
X15240000Y-33020000D02*
X20320000Y-33020000D01*
X48895000Y-55880000D02*
X43180000Y-55880000D01*
X50165000Y-32385000D02*
X50165000Y-54610000D01*
X46990000Y-29210000D02*
X50165000Y-32385000D01*
X50165000Y-54610000D02*
X48895000Y-55880000D01*
X22860000Y-33020000D02*
X26670000Y-29210000D01*
X26670000Y-29210000D02*
X46990000Y-29210000D01*
X20320000Y-33020000D02*
X22860000Y-33020000D01*
%TO.N,/A13*%
X15240000Y-30480000D02*
X20320000Y-30480000D01*
X50165000Y-58420000D02*
X43180000Y-58420000D01*
X51435000Y-57150000D02*
X50165000Y-58420000D01*
X51435000Y-31750000D02*
X51435000Y-57150000D01*
X47625000Y-27940000D02*
X51435000Y-31750000D01*
X22860000Y-30480000D02*
X25400000Y-27940000D01*
X25400000Y-27940000D02*
X47625000Y-27940000D01*
X20320000Y-30480000D02*
X22860000Y-30480000D01*
%TO.N,/~CS*%
X25400000Y-68580000D02*
X27940000Y-68580000D01*
X15240000Y-73660000D02*
X20320000Y-73660000D01*
X20320000Y-73660000D02*
X25400000Y-68580000D01*
%TO.N,/A14*%
X15240000Y-27940000D02*
X20320000Y-27940000D01*
X50165000Y-60960000D02*
X43180000Y-60960000D01*
X52705000Y-58420000D02*
X50165000Y-60960000D01*
X52705000Y-31115000D02*
X52705000Y-58420000D01*
X24130000Y-26670000D02*
X48260000Y-26670000D01*
X22860000Y-27940000D02*
X24130000Y-26670000D01*
X48260000Y-26670000D02*
X52705000Y-31115000D01*
X20320000Y-27940000D02*
X22860000Y-27940000D01*
%TO.N,/A0*%
X15240000Y-66040000D02*
X27940000Y-66040000D01*
%TO.N,/A15*%
X15240000Y-25400000D02*
X20320000Y-25400000D01*
X50165000Y-63500000D02*
X43180000Y-63500000D01*
X53975000Y-59690000D02*
X50165000Y-63500000D01*
X53975000Y-30480000D02*
X53975000Y-59690000D01*
X48895000Y-25400000D02*
X53975000Y-30480000D01*
X20320000Y-25400000D02*
X48895000Y-25400000D01*
%TO.N,/LT*%
X71120000Y-30480000D02*
X76200000Y-30480000D01*
X71120000Y-27940000D02*
X71120000Y-30480000D01*
X71120000Y-25400000D02*
X71120000Y-27940000D01*
X78740000Y-63500000D02*
X76200000Y-63500000D01*
X78740000Y-104140000D02*
X76200000Y-104140000D01*
X76200000Y-104140000D02*
X76200000Y-82550000D01*
X76200000Y-63500000D02*
X76200000Y-67310000D01*
X76200000Y-41910000D02*
X76200000Y-63500000D01*
%TO.N,/COP7*%
X109220000Y-86360000D02*
X116840000Y-86360000D01*
X104140000Y-86360000D02*
X109220000Y-86360000D01*
X124460000Y-86360000D02*
X132080000Y-86360000D01*
X116840000Y-86360000D02*
X124460000Y-86360000D01*
%TO.N,/COP6*%
X109220000Y-88900000D02*
X116840000Y-88900000D01*
X104140000Y-88900000D02*
X109220000Y-88900000D01*
X124460000Y-88900000D02*
X132080000Y-88900000D01*
X116840000Y-88900000D02*
X124460000Y-88900000D01*
%TO.N,/COP5*%
X109220000Y-91440000D02*
X116840000Y-91440000D01*
X104140000Y-91440000D02*
X109220000Y-91440000D01*
X124460000Y-91440000D02*
X132080000Y-91440000D01*
X116840000Y-91440000D02*
X124460000Y-91440000D01*
%TO.N,/COP4*%
X109220000Y-93980000D02*
X116840000Y-93980000D01*
X104140000Y-93980000D02*
X109220000Y-93980000D01*
X124460000Y-93980000D02*
X132080000Y-93980000D01*
X116840000Y-93980000D02*
X124460000Y-93980000D01*
%TO.N,/COP3*%
X109220000Y-96520000D02*
X116840000Y-96520000D01*
X104140000Y-96520000D02*
X109220000Y-96520000D01*
X124460000Y-96520000D02*
X132080000Y-96520000D01*
X116840000Y-96520000D02*
X124460000Y-96520000D01*
%TO.N,/COP2*%
X109220000Y-99060000D02*
X116840000Y-99060000D01*
X104140000Y-99060000D02*
X109220000Y-99060000D01*
X124460000Y-99060000D02*
X132080000Y-99060000D01*
X116840000Y-99060000D02*
X124460000Y-99060000D01*
%TO.N,/COP1*%
X109220000Y-101600000D02*
X116840000Y-101600000D01*
X104140000Y-101600000D02*
X109220000Y-101600000D01*
X124460000Y-101600000D02*
X132080000Y-101600000D01*
X116840000Y-101600000D02*
X124460000Y-101600000D01*
%TO.N,/COP0*%
X109220000Y-104140000D02*
X116840000Y-104140000D01*
X104140000Y-104140000D02*
X109220000Y-104140000D01*
X124460000Y-104140000D02*
X132080000Y-104140000D01*
X116840000Y-104140000D02*
X124460000Y-104140000D01*
%TO.N,/BUS7*%
X147320000Y-48260000D02*
X152400000Y-48260000D01*
%TO.N,/BUS6*%
X147320000Y-50800000D02*
X152400000Y-50800000D01*
%TO.N,/BUS5*%
X147320000Y-53340000D02*
X152400000Y-53340000D01*
%TO.N,/BUS4*%
X147320000Y-55880000D02*
X152400000Y-55880000D01*
%TO.N,/BUS3*%
X147320000Y-58420000D02*
X152400000Y-58420000D01*
%TO.N,/BUS2*%
X147320000Y-60960000D02*
X152400000Y-60960000D01*
%TO.N,/BUS1*%
X147320000Y-63500000D02*
X152400000Y-63500000D01*
%TO.N,/BUS0*%
X147320000Y-66040000D02*
X152400000Y-66040000D01*
%TO.N,/CNST7*%
X114300000Y-45720000D02*
X121920000Y-45720000D01*
X106680000Y-45720000D02*
X114300000Y-45720000D01*
X99060000Y-45720000D02*
X106680000Y-45720000D01*
X93980000Y-45720000D02*
X99060000Y-45720000D01*
X139700000Y-45720000D02*
X137160000Y-45720000D01*
X137160000Y-45720000D02*
X135890000Y-44450000D01*
X135890000Y-44450000D02*
X125730000Y-44450000D01*
X125730000Y-44450000D02*
X124460000Y-45720000D01*
X124460000Y-45720000D02*
X121920000Y-45720000D01*
%TO.N,/CNST6*%
X114300000Y-48260000D02*
X121920000Y-48260000D01*
X106680000Y-48260000D02*
X114300000Y-48260000D01*
X121920000Y-48260000D02*
X124460000Y-48260000D01*
X124460000Y-48260000D02*
X125730000Y-46990000D01*
X125730000Y-46990000D02*
X135890000Y-46990000D01*
X135890000Y-46990000D02*
X137160000Y-48260000D01*
X137160000Y-48260000D02*
X139700000Y-48260000D01*
X99060000Y-48260000D02*
X106680000Y-48260000D01*
X93980000Y-48260000D02*
X99060000Y-48260000D01*
%TO.N,/CNST5*%
X114300000Y-50800000D02*
X121920000Y-50800000D01*
X106680000Y-50800000D02*
X114300000Y-50800000D01*
X121920000Y-50800000D02*
X124460000Y-50800000D01*
X124460000Y-50800000D02*
X125730000Y-49530000D01*
X125730000Y-49530000D02*
X135890000Y-49530000D01*
X135890000Y-49530000D02*
X137160000Y-50800000D01*
X137160000Y-50800000D02*
X139700000Y-50800000D01*
X99060000Y-50800000D02*
X106680000Y-50800000D01*
X93980000Y-50800000D02*
X99060000Y-50800000D01*
%TO.N,/CNST4*%
X114300000Y-53340000D02*
X121920000Y-53340000D01*
X106680000Y-53340000D02*
X114300000Y-53340000D01*
X121920000Y-53340000D02*
X124460000Y-53340000D01*
X124460000Y-53340000D02*
X125730000Y-52070000D01*
X125730000Y-52070000D02*
X135890000Y-52070000D01*
X135890000Y-52070000D02*
X137160000Y-53340000D01*
X137160000Y-53340000D02*
X139700000Y-53340000D01*
X99060000Y-53340000D02*
X106680000Y-53340000D01*
X93980000Y-53340000D02*
X99060000Y-53340000D01*
%TO.N,/CNST3*%
X114300000Y-55880000D02*
X121920000Y-55880000D01*
X106680000Y-55880000D02*
X114300000Y-55880000D01*
X121920000Y-55880000D02*
X124460000Y-55880000D01*
X124460000Y-55880000D02*
X125730000Y-54610000D01*
X125730000Y-54610000D02*
X135890000Y-54610000D01*
X135890000Y-54610000D02*
X137160000Y-55880000D01*
X137160000Y-55880000D02*
X139700000Y-55880000D01*
X99060000Y-55880000D02*
X106680000Y-55880000D01*
X93980000Y-55880000D02*
X99060000Y-55880000D01*
%TO.N,/CNST2*%
X114300000Y-58420000D02*
X121920000Y-58420000D01*
X106680000Y-58420000D02*
X114300000Y-58420000D01*
X121920000Y-58420000D02*
X124460000Y-58420000D01*
X124460000Y-58420000D02*
X125730000Y-57150000D01*
X125730000Y-57150000D02*
X135890000Y-57150000D01*
X135890000Y-57150000D02*
X137160000Y-58420000D01*
X137160000Y-58420000D02*
X139700000Y-58420000D01*
X99060000Y-58420000D02*
X106680000Y-58420000D01*
X93980000Y-58420000D02*
X99060000Y-58420000D01*
%TO.N,/CNST1*%
X114300000Y-60960000D02*
X121920000Y-60960000D01*
X106680000Y-60960000D02*
X114300000Y-60960000D01*
X121920000Y-60960000D02*
X124460000Y-60960000D01*
X124460000Y-60960000D02*
X125730000Y-59690000D01*
X125730000Y-59690000D02*
X135890000Y-59690000D01*
X135890000Y-59690000D02*
X137160000Y-60960000D01*
X137160000Y-60960000D02*
X139700000Y-60960000D01*
X99060000Y-60960000D02*
X106680000Y-60960000D01*
X93980000Y-60960000D02*
X99060000Y-60960000D01*
%TO.N,/CNST0*%
X114300000Y-63500000D02*
X121920000Y-63500000D01*
X106680000Y-63500000D02*
X114300000Y-63500000D01*
X121920000Y-63500000D02*
X124460000Y-63500000D01*
X124460000Y-63500000D02*
X125730000Y-62230000D01*
X125730000Y-62230000D02*
X135890000Y-62230000D01*
X135890000Y-62230000D02*
X137160000Y-63500000D01*
X137160000Y-63500000D02*
X139700000Y-63500000D01*
X99060000Y-63500000D02*
X106680000Y-63500000D01*
X93980000Y-63500000D02*
X99060000Y-63500000D01*
%TO.N,/~LDI*%
X149860000Y-45720000D02*
X149860000Y-45450000D01*
X152400000Y-43180000D02*
X152400000Y-45720000D01*
X152400000Y-45720000D02*
X149860000Y-45720000D01*
X147320000Y-45720000D02*
X149860000Y-45720000D01*
%TO.N,Net-(R3-Pad1)*%
X98742500Y-81280000D02*
X96567500Y-81280000D01*
%TO.N,Net-(R4-Pad1)*%
X88535000Y-40640000D02*
X86360000Y-40640000D01*
%TO.N,Net-(R5-Pad1)*%
X142780000Y-43180000D02*
X139700000Y-43180000D01*
%TO.N,Net-(BAR1-Pad18)*%
X139700000Y-86360000D02*
X143510000Y-86360000D01*
%TO.N,Net-(BAR1-Pad17)*%
X139700000Y-88900000D02*
X143510000Y-88900000D01*
%TO.N,Net-(BAR1-Pad16)*%
X139700000Y-91440000D02*
X143510000Y-91440000D01*
%TO.N,Net-(BAR1-Pad15)*%
X139700000Y-93980000D02*
X143510000Y-93980000D01*
%TO.N,Net-(BAR1-Pad14)*%
X139700000Y-96520000D02*
X143510000Y-96520000D01*
%TO.N,Net-(BAR1-Pad13)*%
X139700000Y-99060000D02*
X143510000Y-99060000D01*
%TO.N,Net-(BAR1-Pad12)*%
X139700000Y-101600000D02*
X143510000Y-101600000D01*
%TO.N,Net-(BAR1-Pad11)*%
X143510000Y-104140000D02*
X139700000Y-104140000D01*
%TO.N,Net-(BAR2-Pad18)*%
X129540000Y-45720000D02*
X133350000Y-45720000D01*
%TO.N,Net-(BAR2-Pad17)*%
X129540000Y-48260000D02*
X133350000Y-48260000D01*
%TO.N,Net-(BAR2-Pad11)*%
X129540000Y-63500000D02*
X133350000Y-63500000D01*
%TO.N,Net-(BAR2-Pad12)*%
X129540000Y-60960000D02*
X133350000Y-60960000D01*
%TO.N,Net-(BAR2-Pad16)*%
X129540000Y-50800000D02*
X133350000Y-50800000D01*
%TO.N,Net-(BAR2-Pad15)*%
X129540000Y-53340000D02*
X133350000Y-53340000D01*
%TO.N,Net-(BAR2-Pad14)*%
X129540000Y-55880000D02*
X133350000Y-55880000D01*
%TO.N,Net-(BAR2-Pad13)*%
X129540000Y-58420000D02*
X133350000Y-58420000D01*
%TO.N,/C1*%
X71120000Y-20320000D02*
X71120000Y-22860000D01*
X66040000Y-22860000D02*
X71120000Y-22860000D01*
D27*
%TO.N,Net-(J4-Pad1)*%
X109220000Y-27940000D02*
X113300000Y-27940000D01*
%TD*%
M02*
