%TF.GenerationSoftware,KiCad,Pcbnew,(5.1.8)-1*%
%TF.CreationDate,2024-08-14T23:24:58+03:00*%
%TF.ProjectId,ROM,524f4d2e-6b69-4636-9164-5f7063625858,rev?*%
%TF.SameCoordinates,Original*%
%TF.FileFunction,Copper,L1,Top*%
%TF.FilePolarity,Positive*%
%FSLAX46Y46*%
G04 Gerber Fmt 4.6, Leading zero omitted, Abs format (unit mm)*
G04 Created by KiCad (PCBNEW (5.1.8)-1) date 2024-08-14 23:24:58*
%MOMM*%
%LPD*%
G01*
G04 APERTURE LIST*
%TA.AperFunction,ComponentPad*%
%ADD10C,2.000000*%
%TD*%
%TA.AperFunction,ComponentPad*%
%ADD11C,2.400000*%
%TD*%
%TA.AperFunction,ComponentPad*%
%ADD12R,1.700000X1.700000*%
%TD*%
%TA.AperFunction,ComponentPad*%
%ADD13O,2.000000X2.000000*%
%TD*%
%TA.AperFunction,ComponentPad*%
%ADD14R,2.000000X2.000000*%
%TD*%
%TA.AperFunction,ComponentPad*%
%ADD15O,1.800000X1.500000*%
%TD*%
%TA.AperFunction,ComponentPad*%
%ADD16R,1.800000X1.500000*%
%TD*%
%TA.AperFunction,ComponentPad*%
%ADD17O,2.000000X1.500000*%
%TD*%
%TA.AperFunction,ComponentPad*%
%ADD18R,2.000000X1.500000*%
%TD*%
%TA.AperFunction,ComponentPad*%
%ADD19O,1.600000X1.600000*%
%TD*%
%TA.AperFunction,ComponentPad*%
%ADD20R,1.600000X1.600000*%
%TD*%
%TA.AperFunction,ComponentPad*%
%ADD21O,1.500000X1.800000*%
%TD*%
%TA.AperFunction,ComponentPad*%
%ADD22R,1.500000X1.800000*%
%TD*%
%TA.AperFunction,ComponentPad*%
%ADD23C,2.600000*%
%TD*%
%TA.AperFunction,ComponentPad*%
%ADD24R,2.600000X2.600000*%
%TD*%
%TA.AperFunction,ComponentPad*%
%ADD25O,1.700000X1.700000*%
%TD*%
%TA.AperFunction,ViaPad*%
%ADD26C,1.500000*%
%TD*%
%TA.AperFunction,Conductor*%
%ADD27C,0.800000*%
%TD*%
%TA.AperFunction,Conductor*%
%ADD28C,0.500000*%
%TD*%
G04 APERTURE END LIST*
D10*
%TO.P,C7,2*%
%TO.N,GND*%
X143510000Y-36710000D03*
%TO.P,C7,1*%
%TO.N,VCC*%
X143510000Y-29210000D03*
%TD*%
%TO.P,C6,2*%
%TO.N,GND*%
X55760000Y-22860000D03*
%TO.P,C6,1*%
%TO.N,VCC*%
X48260000Y-22860000D03*
%TD*%
%TO.P,C5,2*%
%TO.N,GND*%
X100647500Y-88780000D03*
%TO.P,C5,1*%
%TO.N,VCC*%
X100647500Y-81280000D03*
%TD*%
%TO.P,C4,2*%
%TO.N,GND*%
X90170000Y-34170000D03*
%TO.P,C4,1*%
%TO.N,VCC*%
X90170000Y-26670000D03*
%TD*%
%TO.P,C3,2*%
%TO.N,GND*%
X74930000Y-34170000D03*
%TO.P,C3,1*%
%TO.N,VCC*%
X74930000Y-26670000D03*
%TD*%
%TO.P,C2,2*%
%TO.N,GND*%
X74930000Y-88780000D03*
%TO.P,C2,1*%
%TO.N,VCC*%
X74930000Y-81280000D03*
%TD*%
D11*
%TO.P,C1,2*%
%TO.N,GND*%
X47350000Y-65405000D03*
%TO.P,C1,1*%
%TO.N,VCC*%
X69850000Y-65405000D03*
%TD*%
D12*
%TO.P,J14,1*%
%TO.N,GND*%
X13970000Y-50800000D03*
%TD*%
D13*
%TO.P,J13,9*%
%TO.N,/CNST7*%
X114300000Y-31750000D03*
%TO.P,J13,8*%
%TO.N,/CNST6*%
X114300000Y-34290000D03*
%TO.P,J13,7*%
%TO.N,/CNST5*%
X114300000Y-36830000D03*
%TO.P,J13,6*%
%TO.N,/CNST4*%
X114300000Y-39370000D03*
%TO.P,J13,5*%
%TO.N,/CNST3*%
X114300000Y-41910000D03*
%TO.P,J13,4*%
%TO.N,/CNST2*%
X114300000Y-44450000D03*
%TO.P,J13,3*%
%TO.N,/CNST1*%
X114300000Y-46990000D03*
%TO.P,J13,2*%
%TO.N,/CNST0*%
X114300000Y-49530000D03*
D14*
%TO.P,J13,1*%
%TO.N,GND*%
X114300000Y-52070000D03*
%TD*%
D15*
%TO.P,RN3,9*%
%TO.N,Net-(BAR2-Pad18)*%
X133350000Y-31750000D03*
%TO.P,RN3,8*%
%TO.N,Net-(BAR2-Pad17)*%
X133350000Y-34290000D03*
%TO.P,RN3,7*%
%TO.N,Net-(BAR2-Pad16)*%
X133350000Y-36830000D03*
%TO.P,RN3,6*%
%TO.N,Net-(BAR2-Pad15)*%
X133350000Y-39370000D03*
%TO.P,RN3,5*%
%TO.N,Net-(BAR2-Pad14)*%
X133350000Y-41910000D03*
%TO.P,RN3,4*%
%TO.N,Net-(BAR2-Pad13)*%
X133350000Y-44450000D03*
%TO.P,RN3,3*%
%TO.N,Net-(BAR2-Pad12)*%
X133350000Y-46990000D03*
%TO.P,RN3,2*%
%TO.N,Net-(BAR2-Pad11)*%
X133350000Y-49530000D03*
D16*
%TO.P,RN3,1*%
%TO.N,GND*%
X133350000Y-52070000D03*
%TD*%
D17*
%TO.P,BAR2,20*%
%TO.N,N/C*%
X129540000Y-26670000D03*
%TO.P,BAR2,19*%
X129540000Y-29210000D03*
%TO.P,BAR2,18*%
%TO.N,Net-(BAR2-Pad18)*%
X129540000Y-31750000D03*
%TO.P,BAR2,17*%
%TO.N,Net-(BAR2-Pad17)*%
X129540000Y-34290000D03*
%TO.P,BAR2,9*%
%TO.N,/CNST1*%
X121920000Y-46990000D03*
%TO.P,BAR2,10*%
%TO.N,/CNST0*%
X121920000Y-49530000D03*
%TO.P,BAR2,11*%
%TO.N,Net-(BAR2-Pad11)*%
X129540000Y-49530000D03*
%TO.P,BAR2,12*%
%TO.N,Net-(BAR2-Pad12)*%
X129540000Y-46990000D03*
%TO.P,BAR2,8*%
%TO.N,/CNST2*%
X121920000Y-44450000D03*
%TO.P,BAR2,7*%
%TO.N,/CNST3*%
X121920000Y-41910000D03*
%TO.P,BAR2,6*%
%TO.N,/CNST4*%
X121920000Y-39370000D03*
%TO.P,BAR2,5*%
%TO.N,/CNST5*%
X121920000Y-36830000D03*
%TO.P,BAR2,16*%
%TO.N,Net-(BAR2-Pad16)*%
X129540000Y-36830000D03*
%TO.P,BAR2,15*%
%TO.N,Net-(BAR2-Pad15)*%
X129540000Y-39370000D03*
%TO.P,BAR2,14*%
%TO.N,Net-(BAR2-Pad14)*%
X129540000Y-41910000D03*
%TO.P,BAR2,13*%
%TO.N,Net-(BAR2-Pad13)*%
X129540000Y-44450000D03*
%TO.P,BAR2,4*%
%TO.N,/CNST6*%
X121920000Y-34290000D03*
%TO.P,BAR2,3*%
%TO.N,/CNST7*%
X121920000Y-31750000D03*
%TO.P,BAR2,2*%
%TO.N,N/C*%
X121920000Y-29210000D03*
D18*
%TO.P,BAR2,1*%
X121920000Y-26670000D03*
%TD*%
D17*
%TO.P,BAR1,20*%
%TO.N,N/C*%
X139700000Y-81280000D03*
%TO.P,BAR1,19*%
X139700000Y-83820000D03*
%TO.P,BAR1,18*%
%TO.N,Net-(BAR1-Pad18)*%
X139700000Y-86360000D03*
%TO.P,BAR1,17*%
%TO.N,Net-(BAR1-Pad17)*%
X139700000Y-88900000D03*
%TO.P,BAR1,9*%
%TO.N,/COP1*%
X132080000Y-101600000D03*
%TO.P,BAR1,10*%
%TO.N,/COP0*%
X132080000Y-104140000D03*
%TO.P,BAR1,11*%
%TO.N,Net-(BAR1-Pad11)*%
X139700000Y-104140000D03*
%TO.P,BAR1,12*%
%TO.N,Net-(BAR1-Pad12)*%
X139700000Y-101600000D03*
%TO.P,BAR1,8*%
%TO.N,/COP2*%
X132080000Y-99060000D03*
%TO.P,BAR1,7*%
%TO.N,/COP3*%
X132080000Y-96520000D03*
%TO.P,BAR1,6*%
%TO.N,/COP4*%
X132080000Y-93980000D03*
%TO.P,BAR1,5*%
%TO.N,/COP5*%
X132080000Y-91440000D03*
%TO.P,BAR1,16*%
%TO.N,Net-(BAR1-Pad16)*%
X139700000Y-91440000D03*
%TO.P,BAR1,15*%
%TO.N,Net-(BAR1-Pad15)*%
X139700000Y-93980000D03*
%TO.P,BAR1,14*%
%TO.N,Net-(BAR1-Pad14)*%
X139700000Y-96520000D03*
%TO.P,BAR1,13*%
%TO.N,Net-(BAR1-Pad13)*%
X139700000Y-99060000D03*
%TO.P,BAR1,4*%
%TO.N,/COP6*%
X132080000Y-88900000D03*
%TO.P,BAR1,3*%
%TO.N,/COP7*%
X132080000Y-86360000D03*
%TO.P,BAR1,2*%
%TO.N,N/C*%
X132080000Y-83820000D03*
D18*
%TO.P,BAR1,1*%
X132080000Y-81280000D03*
%TD*%
D15*
%TO.P,RN2,9*%
%TO.N,Net-(BAR1-Pad18)*%
X143510000Y-86360000D03*
%TO.P,RN2,8*%
%TO.N,Net-(BAR1-Pad17)*%
X143510000Y-88900000D03*
%TO.P,RN2,7*%
%TO.N,Net-(BAR1-Pad16)*%
X143510000Y-91440000D03*
%TO.P,RN2,6*%
%TO.N,Net-(BAR1-Pad15)*%
X143510000Y-93980000D03*
%TO.P,RN2,5*%
%TO.N,Net-(BAR1-Pad14)*%
X143510000Y-96520000D03*
%TO.P,RN2,4*%
%TO.N,Net-(BAR1-Pad13)*%
X143510000Y-99060000D03*
%TO.P,RN2,3*%
%TO.N,Net-(BAR1-Pad12)*%
X143510000Y-101600000D03*
%TO.P,RN2,2*%
%TO.N,Net-(BAR1-Pad11)*%
X143510000Y-104140000D03*
D16*
%TO.P,RN2,1*%
%TO.N,GND*%
X143510000Y-106680000D03*
%TD*%
D19*
%TO.P,RN1,9*%
%TO.N,/A15*%
X19050000Y-25400000D03*
%TO.P,RN1,8*%
%TO.N,/A14*%
X19050000Y-27940000D03*
%TO.P,RN1,7*%
%TO.N,/A13*%
X19050000Y-30480000D03*
%TO.P,RN1,6*%
%TO.N,/A12*%
X19050000Y-33020000D03*
%TO.P,RN1,5*%
%TO.N,/A11*%
X19050000Y-35560000D03*
%TO.P,RN1,4*%
%TO.N,/A10*%
X19050000Y-38100000D03*
%TO.P,RN1,3*%
%TO.N,/A9*%
X19050000Y-40640000D03*
%TO.P,RN1,2*%
%TO.N,/A8*%
X19050000Y-43180000D03*
D20*
%TO.P,RN1,1*%
%TO.N,GND*%
X19050000Y-45720000D03*
%TD*%
D21*
%TO.P,U1,24*%
%TO.N,/D4*%
X67310000Y-57785000D03*
%TO.P,U1,23*%
%TO.N,VCC*%
X69850000Y-57785000D03*
%TO.P,U1,22*%
%TO.N,/D11*%
X69850000Y-73025000D03*
%TO.P,U1,21*%
%TO.N,/D3*%
X67310000Y-73025000D03*
%TO.P,U1,44*%
%TO.N,Net-(R1-Pad1)*%
X16510000Y-57785000D03*
%TO.P,U1,20*%
%TO.N,/D10*%
X64770000Y-73025000D03*
%TO.P,U1,43*%
%TO.N,Net-(R1-Pad1)*%
X19050000Y-57785000D03*
%TO.P,U1,19*%
%TO.N,/D2*%
X62230000Y-73025000D03*
%TO.P,U1,42*%
%TO.N,/A8*%
X21590000Y-57785000D03*
%TO.P,U1,18*%
%TO.N,/D9*%
X59690000Y-73025000D03*
%TO.P,U1,41*%
%TO.N,/A9*%
X24130000Y-57785000D03*
%TO.P,U1,17*%
%TO.N,/D1*%
X57150000Y-73025000D03*
%TO.P,U1,40*%
%TO.N,/A10*%
X26670000Y-57785000D03*
%TO.P,U1,16*%
%TO.N,/D8*%
X54610000Y-73025000D03*
%TO.P,U1,39*%
%TO.N,/A11*%
X29210000Y-57785000D03*
%TO.P,U1,15*%
%TO.N,/D0*%
X52070000Y-73025000D03*
%TO.P,U1,38*%
%TO.N,/A12*%
X31750000Y-57785000D03*
%TO.P,U1,14*%
%TO.N,/~RD*%
X49530000Y-73025000D03*
%TO.P,U1,37*%
%TO.N,/A13*%
X34290000Y-57785000D03*
%TO.P,U1,13*%
%TO.N,GND*%
X46990000Y-73025000D03*
%TO.P,U1,36*%
%TO.N,/A14*%
X36830000Y-57785000D03*
%TO.P,U1,12*%
%TO.N,/~CS*%
X44450000Y-73025000D03*
%TO.P,U1,35*%
%TO.N,/A15*%
X39370000Y-57785000D03*
%TO.P,U1,11*%
%TO.N,/A0*%
X41910000Y-73025000D03*
%TO.P,U1,34*%
%TO.N,GND*%
X41910000Y-57785000D03*
%TO.P,U1,10*%
%TO.N,/A1*%
X39370000Y-73025000D03*
%TO.P,U1,33*%
%TO.N,Net-(R2-Pad1)*%
X44450000Y-57785000D03*
%TO.P,U1,9*%
%TO.N,/A2*%
X36830000Y-73025000D03*
%TO.P,U1,32*%
%TO.N,GND*%
X46990000Y-57785000D03*
%TO.P,U1,8*%
%TO.N,/A3*%
X34290000Y-73025000D03*
%TO.P,U1,31*%
%TO.N,/D15*%
X49530000Y-57785000D03*
%TO.P,U1,7*%
%TO.N,/A4*%
X31750000Y-73025000D03*
%TO.P,U1,30*%
%TO.N,/D7*%
X52070000Y-57785000D03*
%TO.P,U1,6*%
%TO.N,/A5*%
X29210000Y-73025000D03*
%TO.P,U1,29*%
%TO.N,/D14*%
X54610000Y-57785000D03*
%TO.P,U1,5*%
%TO.N,/A6*%
X26670000Y-73025000D03*
%TO.P,U1,28*%
%TO.N,/D6*%
X57150000Y-57785000D03*
%TO.P,U1,4*%
%TO.N,/A7*%
X24130000Y-73025000D03*
%TO.P,U1,27*%
%TO.N,/D13*%
X59690000Y-57785000D03*
%TO.P,U1,3*%
%TO.N,Net-(U1-Pad3)*%
X21590000Y-73025000D03*
%TO.P,U1,26*%
%TO.N,/D5*%
X62230000Y-57785000D03*
%TO.P,U1,2*%
%TO.N,Net-(U1-Pad2)*%
X19050000Y-73025000D03*
%TO.P,U1,25*%
%TO.N,/D12*%
X64770000Y-57785000D03*
D22*
%TO.P,U1,1*%
%TO.N,Net-(U1-Pad1)*%
X16510000Y-73025000D03*
%TD*%
D13*
%TO.P,J12,9*%
%TO.N,/A15*%
X13970000Y-25400000D03*
%TO.P,J12,8*%
%TO.N,/A14*%
X13970000Y-27940000D03*
%TO.P,J12,7*%
%TO.N,/A13*%
X13970000Y-30480000D03*
%TO.P,J12,6*%
%TO.N,/A12*%
X13970000Y-33020000D03*
%TO.P,J12,5*%
%TO.N,/A11*%
X13970000Y-35560000D03*
%TO.P,J12,4*%
%TO.N,/A10*%
X13970000Y-38100000D03*
%TO.P,J12,3*%
%TO.N,/A9*%
X13970000Y-40640000D03*
%TO.P,J12,2*%
%TO.N,/A8*%
X13970000Y-43180000D03*
D14*
%TO.P,J12,1*%
%TO.N,GND*%
X13970000Y-45720000D03*
%TD*%
D13*
%TO.P,J3,9*%
%TO.N,/A7*%
X13970000Y-78740000D03*
%TO.P,J3,8*%
%TO.N,/A6*%
X13970000Y-81280000D03*
%TO.P,J3,7*%
%TO.N,/A5*%
X13970000Y-83820000D03*
%TO.P,J3,6*%
%TO.N,/A4*%
X13970000Y-86360000D03*
%TO.P,J3,5*%
%TO.N,/A3*%
X13970000Y-88900000D03*
%TO.P,J3,4*%
%TO.N,/A2*%
X13970000Y-91440000D03*
%TO.P,J3,3*%
%TO.N,/A1*%
X13970000Y-93980000D03*
%TO.P,J3,2*%
%TO.N,/A0*%
X13970000Y-96520000D03*
D14*
%TO.P,J3,1*%
%TO.N,GND*%
X13970000Y-99060000D03*
%TD*%
%TO.P,J11,1*%
%TO.N,/~LDI*%
X152400000Y-29210000D03*
%TD*%
%TO.P,J10,1*%
%TO.N,/C1*%
X50800000Y-31750000D03*
%TD*%
D12*
%TO.P,J9,1*%
%TO.N,/~CS*%
X13970000Y-53340000D03*
%TD*%
D13*
%TO.P,J8,9*%
%TO.N,/CNST7*%
X106680000Y-31750000D03*
%TO.P,J8,8*%
%TO.N,/CNST6*%
X106680000Y-34290000D03*
%TO.P,J8,7*%
%TO.N,/CNST5*%
X106680000Y-36830000D03*
%TO.P,J8,6*%
%TO.N,/CNST4*%
X106680000Y-39370000D03*
%TO.P,J8,5*%
%TO.N,/CNST3*%
X106680000Y-41910000D03*
%TO.P,J8,4*%
%TO.N,/CNST2*%
X106680000Y-44450000D03*
%TO.P,J8,3*%
%TO.N,/CNST1*%
X106680000Y-46990000D03*
%TO.P,J8,2*%
%TO.N,/CNST0*%
X106680000Y-49530000D03*
D14*
%TO.P,J8,1*%
%TO.N,GND*%
X106680000Y-52070000D03*
%TD*%
D13*
%TO.P,J7,9*%
%TO.N,/CNST7*%
X99060000Y-31750000D03*
%TO.P,J7,8*%
%TO.N,/CNST6*%
X99060000Y-34290000D03*
%TO.P,J7,7*%
%TO.N,/CNST5*%
X99060000Y-36830000D03*
%TO.P,J7,6*%
%TO.N,/CNST4*%
X99060000Y-39370000D03*
%TO.P,J7,5*%
%TO.N,/CNST3*%
X99060000Y-41910000D03*
%TO.P,J7,4*%
%TO.N,/CNST2*%
X99060000Y-44450000D03*
%TO.P,J7,3*%
%TO.N,/CNST1*%
X99060000Y-46990000D03*
%TO.P,J7,2*%
%TO.N,/CNST0*%
X99060000Y-49530000D03*
D14*
%TO.P,J7,1*%
%TO.N,GND*%
X99060000Y-52070000D03*
%TD*%
D13*
%TO.P,J6,9*%
%TO.N,/COP7*%
X124460000Y-86360000D03*
%TO.P,J6,8*%
%TO.N,/COP6*%
X124460000Y-88900000D03*
%TO.P,J6,7*%
%TO.N,/COP5*%
X124460000Y-91440000D03*
%TO.P,J6,6*%
%TO.N,/COP4*%
X124460000Y-93980000D03*
%TO.P,J6,5*%
%TO.N,/COP3*%
X124460000Y-96520000D03*
%TO.P,J6,4*%
%TO.N,/COP2*%
X124460000Y-99060000D03*
%TO.P,J6,3*%
%TO.N,/COP1*%
X124460000Y-101600000D03*
%TO.P,J6,2*%
%TO.N,/COP0*%
X124460000Y-104140000D03*
D14*
%TO.P,J6,1*%
%TO.N,GND*%
X124460000Y-106680000D03*
%TD*%
D13*
%TO.P,J5,9*%
%TO.N,/COP7*%
X116840000Y-86360000D03*
%TO.P,J5,8*%
%TO.N,/COP6*%
X116840000Y-88900000D03*
%TO.P,J5,7*%
%TO.N,/COP5*%
X116840000Y-91440000D03*
%TO.P,J5,6*%
%TO.N,/COP4*%
X116840000Y-93980000D03*
%TO.P,J5,5*%
%TO.N,/COP3*%
X116840000Y-96520000D03*
%TO.P,J5,4*%
%TO.N,/COP2*%
X116840000Y-99060000D03*
%TO.P,J5,3*%
%TO.N,/COP1*%
X116840000Y-101600000D03*
%TO.P,J5,2*%
%TO.N,/COP0*%
X116840000Y-104140000D03*
D14*
%TO.P,J5,1*%
%TO.N,GND*%
X116840000Y-106680000D03*
%TD*%
D23*
%TO.P,J4,2*%
%TO.N,GND*%
X104220000Y-20320000D03*
D24*
%TO.P,J4,1*%
%TO.N,Net-(J4-Pad1)*%
X109220000Y-20320000D03*
%TD*%
D13*
%TO.P,J2,9*%
%TO.N,/BUS7*%
X152400000Y-34290000D03*
%TO.P,J2,8*%
%TO.N,/BUS6*%
X152400000Y-36830000D03*
%TO.P,J2,7*%
%TO.N,/BUS5*%
X152400000Y-39370000D03*
%TO.P,J2,6*%
%TO.N,/BUS4*%
X152400000Y-41910000D03*
%TO.P,J2,5*%
%TO.N,/BUS3*%
X152400000Y-44450000D03*
%TO.P,J2,4*%
%TO.N,/BUS2*%
X152400000Y-46990000D03*
%TO.P,J2,3*%
%TO.N,/BUS1*%
X152400000Y-49530000D03*
%TO.P,J2,2*%
%TO.N,/BUS0*%
X152400000Y-52070000D03*
D14*
%TO.P,J2,1*%
%TO.N,GND*%
X152400000Y-54610000D03*
%TD*%
D13*
%TO.P,J1,9*%
%TO.N,/COP7*%
X109220000Y-86360000D03*
%TO.P,J1,8*%
%TO.N,/COP6*%
X109220000Y-88900000D03*
%TO.P,J1,7*%
%TO.N,/COP5*%
X109220000Y-91440000D03*
%TO.P,J1,6*%
%TO.N,/COP4*%
X109220000Y-93980000D03*
%TO.P,J1,5*%
%TO.N,/COP3*%
X109220000Y-96520000D03*
%TO.P,J1,4*%
%TO.N,/COP2*%
X109220000Y-99060000D03*
%TO.P,J1,3*%
%TO.N,/COP1*%
X109220000Y-101600000D03*
%TO.P,J1,2*%
%TO.N,/COP0*%
X109220000Y-104140000D03*
D14*
%TO.P,J1,1*%
%TO.N,GND*%
X109220000Y-106680000D03*
%TD*%
D25*
%TO.P,U7,20*%
%TO.N,VCC*%
X104140000Y-81280000D03*
%TO.P,U7,10*%
%TO.N,GND*%
X96520000Y-104140000D03*
%TO.P,U7,19*%
X104140000Y-83820000D03*
%TO.P,U7,9*%
%TO.N,Net-(U2-Pad12)*%
X96520000Y-101600000D03*
%TO.P,U7,18*%
%TO.N,/COP7*%
X104140000Y-86360000D03*
%TO.P,U7,8*%
%TO.N,Net-(U2-Pad13)*%
X96520000Y-99060000D03*
%TO.P,U7,17*%
%TO.N,/COP6*%
X104140000Y-88900000D03*
%TO.P,U7,7*%
%TO.N,Net-(U2-Pad14)*%
X96520000Y-96520000D03*
%TO.P,U7,16*%
%TO.N,/COP5*%
X104140000Y-91440000D03*
%TO.P,U7,6*%
%TO.N,Net-(U2-Pad15)*%
X96520000Y-93980000D03*
%TO.P,U7,15*%
%TO.N,/COP4*%
X104140000Y-93980000D03*
%TO.P,U7,5*%
%TO.N,Net-(U2-Pad16)*%
X96520000Y-91440000D03*
%TO.P,U7,14*%
%TO.N,/COP3*%
X104140000Y-96520000D03*
%TO.P,U7,4*%
%TO.N,Net-(U2-Pad17)*%
X96520000Y-88900000D03*
%TO.P,U7,13*%
%TO.N,/COP2*%
X104140000Y-99060000D03*
%TO.P,U7,3*%
%TO.N,Net-(U2-Pad18)*%
X96520000Y-86360000D03*
%TO.P,U7,12*%
%TO.N,/COP1*%
X104140000Y-101600000D03*
%TO.P,U7,2*%
%TO.N,Net-(U2-Pad19)*%
X96520000Y-83820000D03*
%TO.P,U7,11*%
%TO.N,/COP0*%
X104140000Y-104140000D03*
D12*
%TO.P,U7,1*%
%TO.N,Net-(R3-Pad1)*%
X96520000Y-81280000D03*
%TD*%
D21*
%TO.P,U6,14*%
%TO.N,VCC*%
X48260000Y-19050000D03*
D19*
%TO.P,U6,7*%
%TO.N,GND*%
X63500000Y-26670000D03*
D21*
%TO.P,U6,13*%
X50800000Y-19050000D03*
D19*
%TO.P,U6,6*%
%TO.N,/~RD*%
X60960000Y-26670000D03*
%TO.P,U6,12*%
%TO.N,GND*%
X53340000Y-19050000D03*
%TO.P,U6,5*%
%TO.N,/LT*%
X58420000Y-26670000D03*
%TO.P,U6,11*%
%TO.N,Net-(U6-Pad11)*%
X55880000Y-19050000D03*
%TO.P,U6,4*%
%TO.N,/LT*%
X55880000Y-26670000D03*
%TO.P,U6,10*%
%TO.N,GND*%
X58420000Y-19050000D03*
%TO.P,U6,3*%
%TO.N,/LT*%
X53340000Y-26670000D03*
%TO.P,U6,9*%
%TO.N,GND*%
X60960000Y-19050000D03*
%TO.P,U6,2*%
%TO.N,/C1*%
X50800000Y-26670000D03*
%TO.P,U6,8*%
%TO.N,Net-(U6-Pad8)*%
X63500000Y-19050000D03*
D20*
%TO.P,U6,1*%
%TO.N,/C1*%
X48260000Y-26670000D03*
%TD*%
D25*
%TO.P,U5,20*%
%TO.N,VCC*%
X147320000Y-29210000D03*
%TO.P,U5,10*%
%TO.N,GND*%
X139700000Y-52070000D03*
%TO.P,U5,19*%
%TO.N,/~LDI*%
X147320000Y-31750000D03*
%TO.P,U5,9*%
%TO.N,/CNST0*%
X139700000Y-49530000D03*
%TO.P,U5,18*%
%TO.N,/BUS7*%
X147320000Y-34290000D03*
%TO.P,U5,8*%
%TO.N,/CNST1*%
X139700000Y-46990000D03*
%TO.P,U5,17*%
%TO.N,/BUS6*%
X147320000Y-36830000D03*
%TO.P,U5,7*%
%TO.N,/CNST2*%
X139700000Y-44450000D03*
%TO.P,U5,16*%
%TO.N,/BUS5*%
X147320000Y-39370000D03*
%TO.P,U5,6*%
%TO.N,/CNST3*%
X139700000Y-41910000D03*
%TO.P,U5,15*%
%TO.N,/BUS4*%
X147320000Y-41910000D03*
%TO.P,U5,5*%
%TO.N,/CNST4*%
X139700000Y-39370000D03*
%TO.P,U5,14*%
%TO.N,/BUS3*%
X147320000Y-44450000D03*
%TO.P,U5,4*%
%TO.N,/CNST5*%
X139700000Y-36830000D03*
%TO.P,U5,13*%
%TO.N,/BUS2*%
X147320000Y-46990000D03*
%TO.P,U5,3*%
%TO.N,/CNST6*%
X139700000Y-34290000D03*
%TO.P,U5,12*%
%TO.N,/BUS1*%
X147320000Y-49530000D03*
%TO.P,U5,2*%
%TO.N,/CNST7*%
X139700000Y-31750000D03*
%TO.P,U5,11*%
%TO.N,/BUS0*%
X147320000Y-52070000D03*
D12*
%TO.P,U5,1*%
%TO.N,Net-(R5-Pad1)*%
X139700000Y-29210000D03*
%TD*%
D25*
%TO.P,U4,20*%
%TO.N,VCC*%
X93980000Y-26670000D03*
%TO.P,U4,10*%
%TO.N,GND*%
X86360000Y-49530000D03*
%TO.P,U4,19*%
X93980000Y-29210000D03*
%TO.P,U4,9*%
%TO.N,Net-(U3-Pad12)*%
X86360000Y-46990000D03*
%TO.P,U4,18*%
%TO.N,/CNST7*%
X93980000Y-31750000D03*
%TO.P,U4,8*%
%TO.N,Net-(U3-Pad13)*%
X86360000Y-44450000D03*
%TO.P,U4,17*%
%TO.N,/CNST6*%
X93980000Y-34290000D03*
%TO.P,U4,7*%
%TO.N,Net-(U3-Pad14)*%
X86360000Y-41910000D03*
%TO.P,U4,16*%
%TO.N,/CNST5*%
X93980000Y-36830000D03*
%TO.P,U4,6*%
%TO.N,Net-(U3-Pad15)*%
X86360000Y-39370000D03*
%TO.P,U4,15*%
%TO.N,/CNST4*%
X93980000Y-39370000D03*
%TO.P,U4,5*%
%TO.N,Net-(U3-Pad16)*%
X86360000Y-36830000D03*
%TO.P,U4,14*%
%TO.N,/CNST3*%
X93980000Y-41910000D03*
%TO.P,U4,4*%
%TO.N,Net-(U3-Pad17)*%
X86360000Y-34290000D03*
%TO.P,U4,13*%
%TO.N,/CNST2*%
X93980000Y-44450000D03*
%TO.P,U4,3*%
%TO.N,Net-(U3-Pad18)*%
X86360000Y-31750000D03*
%TO.P,U4,12*%
%TO.N,/CNST1*%
X93980000Y-46990000D03*
%TO.P,U4,2*%
%TO.N,Net-(U3-Pad19)*%
X86360000Y-29210000D03*
%TO.P,U4,11*%
%TO.N,/CNST0*%
X93980000Y-49530000D03*
D12*
%TO.P,U4,1*%
%TO.N,Net-(R4-Pad1)*%
X86360000Y-26670000D03*
%TD*%
D25*
%TO.P,U3,20*%
%TO.N,VCC*%
X78740000Y-26670000D03*
%TO.P,U3,10*%
%TO.N,GND*%
X71120000Y-49530000D03*
%TO.P,U3,19*%
%TO.N,Net-(U3-Pad19)*%
X78740000Y-29210000D03*
%TO.P,U3,9*%
%TO.N,/D8*%
X71120000Y-46990000D03*
%TO.P,U3,18*%
%TO.N,Net-(U3-Pad18)*%
X78740000Y-31750000D03*
%TO.P,U3,8*%
%TO.N,/D9*%
X71120000Y-44450000D03*
%TO.P,U3,17*%
%TO.N,Net-(U3-Pad17)*%
X78740000Y-34290000D03*
%TO.P,U3,7*%
%TO.N,/D10*%
X71120000Y-41910000D03*
%TO.P,U3,16*%
%TO.N,Net-(U3-Pad16)*%
X78740000Y-36830000D03*
%TO.P,U3,6*%
%TO.N,/D11*%
X71120000Y-39370000D03*
%TO.P,U3,15*%
%TO.N,Net-(U3-Pad15)*%
X78740000Y-39370000D03*
%TO.P,U3,5*%
%TO.N,/D12*%
X71120000Y-36830000D03*
%TO.P,U3,14*%
%TO.N,Net-(U3-Pad14)*%
X78740000Y-41910000D03*
%TO.P,U3,4*%
%TO.N,/D13*%
X71120000Y-34290000D03*
%TO.P,U3,13*%
%TO.N,Net-(U3-Pad13)*%
X78740000Y-44450000D03*
%TO.P,U3,3*%
%TO.N,/D14*%
X71120000Y-31750000D03*
%TO.P,U3,12*%
%TO.N,Net-(U3-Pad12)*%
X78740000Y-46990000D03*
%TO.P,U3,2*%
%TO.N,/D15*%
X71120000Y-29210000D03*
%TO.P,U3,11*%
%TO.N,/LT*%
X78740000Y-49530000D03*
D12*
%TO.P,U3,1*%
%TO.N,GND*%
X71120000Y-26670000D03*
%TD*%
D25*
%TO.P,U2,20*%
%TO.N,VCC*%
X78740000Y-81280000D03*
%TO.P,U2,10*%
%TO.N,GND*%
X71120000Y-104140000D03*
%TO.P,U2,19*%
%TO.N,Net-(U2-Pad19)*%
X78740000Y-83820000D03*
%TO.P,U2,9*%
%TO.N,/D0*%
X71120000Y-101600000D03*
%TO.P,U2,18*%
%TO.N,Net-(U2-Pad18)*%
X78740000Y-86360000D03*
%TO.P,U2,8*%
%TO.N,/D1*%
X71120000Y-99060000D03*
%TO.P,U2,17*%
%TO.N,Net-(U2-Pad17)*%
X78740000Y-88900000D03*
%TO.P,U2,7*%
%TO.N,/D2*%
X71120000Y-96520000D03*
%TO.P,U2,16*%
%TO.N,Net-(U2-Pad16)*%
X78740000Y-91440000D03*
%TO.P,U2,6*%
%TO.N,/D3*%
X71120000Y-93980000D03*
%TO.P,U2,15*%
%TO.N,Net-(U2-Pad15)*%
X78740000Y-93980000D03*
%TO.P,U2,5*%
%TO.N,/D4*%
X71120000Y-91440000D03*
%TO.P,U2,14*%
%TO.N,Net-(U2-Pad14)*%
X78740000Y-96520000D03*
%TO.P,U2,4*%
%TO.N,/D5*%
X71120000Y-88900000D03*
%TO.P,U2,13*%
%TO.N,Net-(U2-Pad13)*%
X78740000Y-99060000D03*
%TO.P,U2,3*%
%TO.N,/D6*%
X71120000Y-86360000D03*
%TO.P,U2,12*%
%TO.N,Net-(U2-Pad12)*%
X78740000Y-101600000D03*
%TO.P,U2,2*%
%TO.N,/D7*%
X71120000Y-83820000D03*
%TO.P,U2,11*%
%TO.N,/LT*%
X78740000Y-104140000D03*
D12*
%TO.P,U2,1*%
%TO.N,GND*%
X71120000Y-81280000D03*
%TD*%
D26*
%TO.N,GND*%
X90170000Y-52070000D03*
X90170000Y-107950000D03*
%TO.N,/D7*%
X54610000Y-83820000D03*
%TO.N,/D6*%
X59690000Y-86360000D03*
%TO.N,/D5*%
X64770000Y-88900000D03*
%TO.N,VCC*%
X41910000Y-62865000D03*
X69850000Y-62865000D03*
%TO.N,/D10*%
X62230000Y-41910000D03*
%TO.N,/D9*%
X57150000Y-44450000D03*
%TO.N,/D8*%
X52070000Y-46990000D03*
%TO.N,/LT*%
X80645000Y-104140000D03*
X80645000Y-49530000D03*
X81915000Y-23495000D03*
X81915000Y-49530000D03*
%TD*%
D27*
%TO.N,GND*%
X90170000Y-52070000D02*
X90170000Y-107950000D01*
X90170000Y-107950000D02*
X90170000Y-107950000D01*
D28*
%TO.N,/D7*%
X54610000Y-83820000D02*
X71120000Y-83820000D01*
%TO.N,/D6*%
X59690000Y-86360000D02*
X71120000Y-86360000D01*
%TO.N,/D5*%
X64770000Y-88900000D02*
X71120000Y-88900000D01*
%TO.N,VCC*%
X41910000Y-62865000D02*
X69850000Y-62865000D01*
%TO.N,/D10*%
X62230000Y-41910000D02*
X71120000Y-41910000D01*
%TO.N,/D9*%
X57150000Y-44450000D02*
X71120000Y-44450000D01*
%TO.N,/D8*%
X52070000Y-46990000D02*
X71120000Y-46990000D01*
%TO.N,/LT*%
X80645000Y-104140000D02*
X80645000Y-49530000D01*
X80645000Y-49530000D02*
X80645000Y-49530000D01*
X81915000Y-23495000D02*
X81915000Y-49530000D01*
X81915000Y-49530000D02*
X81915000Y-49530000D01*
%TD*%
M02*
