%TF.GenerationSoftware,KiCad,Pcbnew,(5.1.8)-1*%
%TF.CreationDate,2024-01-29T23:39:16+03:00*%
%TF.ProjectId,ROM,524f4d2e-6b69-4636-9164-5f7063625858,rev?*%
%TF.SameCoordinates,Original*%
%TF.FileFunction,Soldermask,Bot*%
%TF.FilePolarity,Negative*%
%FSLAX46Y46*%
G04 Gerber Fmt 4.6, Leading zero omitted, Abs format (unit mm)*
G04 Created by KiCad (PCBNEW (5.1.8)-1) date 2024-01-29 23:39:16*
%MOMM*%
%LPD*%
G01*
G04 APERTURE LIST*
%ADD10R,0.900000X0.800000*%
%ADD11C,3.200000*%
%ADD12R,1.700000X1.700000*%
%ADD13C,2.000000*%
%ADD14O,1.700000X1.700000*%
%ADD15O,1.800000X1.500000*%
%ADD16R,1.800000X1.500000*%
%ADD17O,2.000000X1.500000*%
%ADD18R,2.000000X1.500000*%
%ADD19O,1.600000X1.600000*%
%ADD20R,1.600000X1.600000*%
%ADD21C,2.600000*%
%ADD22R,2.600000X2.600000*%
G04 APERTURE END LIST*
D10*
%TO.C,Q1*%
X113300000Y-27940000D03*
X115300000Y-28890000D03*
X115300000Y-26990000D03*
%TD*%
D11*
%TO.C,H6*%
X85090000Y-104140000D03*
%TD*%
%TO.C,H5*%
X85090000Y-15240000D03*
%TD*%
D12*
%TO.C,J14*%
X15240000Y-76200000D03*
%TD*%
%TO.C,C7*%
G36*
G01*
X144305000Y-46805000D02*
X145255000Y-46805000D01*
G75*
G02*
X145505000Y-47055000I0J-250000D01*
G01*
X145505000Y-47730000D01*
G75*
G02*
X145255000Y-47980000I-250000J0D01*
G01*
X144305000Y-47980000D01*
G75*
G02*
X144055000Y-47730000I0J250000D01*
G01*
X144055000Y-47055000D01*
G75*
G02*
X144305000Y-46805000I250000J0D01*
G01*
G37*
G36*
G01*
X144305000Y-44730000D02*
X145255000Y-44730000D01*
G75*
G02*
X145505000Y-44980000I0J-250000D01*
G01*
X145505000Y-45655000D01*
G75*
G02*
X145255000Y-45905000I-250000J0D01*
G01*
X144305000Y-45905000D01*
G75*
G02*
X144055000Y-45655000I0J250000D01*
G01*
X144055000Y-44980000D01*
G75*
G02*
X144305000Y-44730000I250000J0D01*
G01*
G37*
%TD*%
%TO.C,C6*%
G36*
G01*
X75750000Y-17940000D02*
X75750000Y-18890000D01*
G75*
G02*
X75500000Y-19140000I-250000J0D01*
G01*
X74825000Y-19140000D01*
G75*
G02*
X74575000Y-18890000I0J250000D01*
G01*
X74575000Y-17940000D01*
G75*
G02*
X74825000Y-17690000I250000J0D01*
G01*
X75500000Y-17690000D01*
G75*
G02*
X75750000Y-17940000I0J-250000D01*
G01*
G37*
G36*
G01*
X77825000Y-17940000D02*
X77825000Y-18890000D01*
G75*
G02*
X77575000Y-19140000I-250000J0D01*
G01*
X76900000Y-19140000D01*
G75*
G02*
X76650000Y-18890000I0J250000D01*
G01*
X76650000Y-17940000D01*
G75*
G02*
X76900000Y-17690000I250000J0D01*
G01*
X77575000Y-17690000D01*
G75*
G02*
X77825000Y-17940000I0J-250000D01*
G01*
G37*
%TD*%
%TO.C,C5*%
G36*
G01*
X100172500Y-84820000D02*
X101122500Y-84820000D01*
G75*
G02*
X101372500Y-85070000I0J-250000D01*
G01*
X101372500Y-85745000D01*
G75*
G02*
X101122500Y-85995000I-250000J0D01*
G01*
X100172500Y-85995000D01*
G75*
G02*
X99922500Y-85745000I0J250000D01*
G01*
X99922500Y-85070000D01*
G75*
G02*
X100172500Y-84820000I250000J0D01*
G01*
G37*
G36*
G01*
X100172500Y-82745000D02*
X101122500Y-82745000D01*
G75*
G02*
X101372500Y-82995000I0J-250000D01*
G01*
X101372500Y-83670000D01*
G75*
G02*
X101122500Y-83920000I-250000J0D01*
G01*
X100172500Y-83920000D01*
G75*
G02*
X99922500Y-83670000I0J250000D01*
G01*
X99922500Y-82995000D01*
G75*
G02*
X100172500Y-82745000I250000J0D01*
G01*
G37*
%TD*%
%TO.C,C4*%
G36*
G01*
X90012500Y-44265000D02*
X90962500Y-44265000D01*
G75*
G02*
X91212500Y-44515000I0J-250000D01*
G01*
X91212500Y-45190000D01*
G75*
G02*
X90962500Y-45440000I-250000J0D01*
G01*
X90012500Y-45440000D01*
G75*
G02*
X89762500Y-45190000I0J250000D01*
G01*
X89762500Y-44515000D01*
G75*
G02*
X90012500Y-44265000I250000J0D01*
G01*
G37*
G36*
G01*
X90012500Y-42190000D02*
X90962500Y-42190000D01*
G75*
G02*
X91212500Y-42440000I0J-250000D01*
G01*
X91212500Y-43115000D01*
G75*
G02*
X90962500Y-43365000I-250000J0D01*
G01*
X90012500Y-43365000D01*
G75*
G02*
X89762500Y-43115000I0J250000D01*
G01*
X89762500Y-42440000D01*
G75*
G02*
X90012500Y-42190000I250000J0D01*
G01*
G37*
%TD*%
%TO.C,C3*%
G36*
G01*
X75347500Y-38895000D02*
X75347500Y-39845000D01*
G75*
G02*
X75097500Y-40095000I-250000J0D01*
G01*
X74422500Y-40095000D01*
G75*
G02*
X74172500Y-39845000I0J250000D01*
G01*
X74172500Y-38895000D01*
G75*
G02*
X74422500Y-38645000I250000J0D01*
G01*
X75097500Y-38645000D01*
G75*
G02*
X75347500Y-38895000I0J-250000D01*
G01*
G37*
G36*
G01*
X77422500Y-38895000D02*
X77422500Y-39845000D01*
G75*
G02*
X77172500Y-40095000I-250000J0D01*
G01*
X76497500Y-40095000D01*
G75*
G02*
X76247500Y-39845000I0J250000D01*
G01*
X76247500Y-38895000D01*
G75*
G02*
X76497500Y-38645000I250000J0D01*
G01*
X77172500Y-38645000D01*
G75*
G02*
X77422500Y-38895000I0J-250000D01*
G01*
G37*
%TD*%
%TO.C,C2*%
G36*
G01*
X75517500Y-78900000D02*
X75517500Y-79850000D01*
G75*
G02*
X75267500Y-80100000I-250000J0D01*
G01*
X74592500Y-80100000D01*
G75*
G02*
X74342500Y-79850000I0J250000D01*
G01*
X74342500Y-78900000D01*
G75*
G02*
X74592500Y-78650000I250000J0D01*
G01*
X75267500Y-78650000D01*
G75*
G02*
X75517500Y-78900000I0J-250000D01*
G01*
G37*
G36*
G01*
X77592500Y-78900000D02*
X77592500Y-79850000D01*
G75*
G02*
X77342500Y-80100000I-250000J0D01*
G01*
X76667500Y-80100000D01*
G75*
G02*
X76417500Y-79850000I0J250000D01*
G01*
X76417500Y-78900000D01*
G75*
G02*
X76667500Y-78650000I250000J0D01*
G01*
X77342500Y-78650000D01*
G75*
G02*
X77592500Y-78900000I0J-250000D01*
G01*
G37*
%TD*%
D13*
%TO.C,C1*%
X32385000Y-68580000D03*
X32385000Y-76080000D03*
%TD*%
D14*
%TO.C,J13*%
X114300000Y-45720000D03*
X114300000Y-48260000D03*
X114300000Y-50800000D03*
X114300000Y-53340000D03*
X114300000Y-55880000D03*
X114300000Y-58420000D03*
X114300000Y-60960000D03*
X114300000Y-63500000D03*
D12*
X114300000Y-66040000D03*
%TD*%
D15*
%TO.C,RN3*%
X133350000Y-45720000D03*
X133350000Y-48260000D03*
X133350000Y-50800000D03*
X133350000Y-53340000D03*
X133350000Y-55880000D03*
X133350000Y-58420000D03*
X133350000Y-60960000D03*
X133350000Y-63500000D03*
D16*
X133350000Y-66040000D03*
%TD*%
D17*
%TO.C,BAR2*%
X129540000Y-40640000D03*
X129540000Y-43180000D03*
X129540000Y-45720000D03*
X129540000Y-48260000D03*
X121920000Y-60960000D03*
X121920000Y-63500000D03*
X129540000Y-63500000D03*
X129540000Y-60960000D03*
X121920000Y-58420000D03*
X121920000Y-55880000D03*
X121920000Y-53340000D03*
X121920000Y-50800000D03*
X129540000Y-50800000D03*
X129540000Y-53340000D03*
X129540000Y-55880000D03*
X129540000Y-58420000D03*
X121920000Y-48260000D03*
X121920000Y-45720000D03*
X121920000Y-43180000D03*
D18*
X121920000Y-40640000D03*
%TD*%
D17*
%TO.C,BAR1*%
X139700000Y-81280000D03*
X139700000Y-83820000D03*
X139700000Y-86360000D03*
X139700000Y-88900000D03*
X132080000Y-101600000D03*
X132080000Y-104140000D03*
X139700000Y-104140000D03*
X139700000Y-101600000D03*
X132080000Y-99060000D03*
X132080000Y-96520000D03*
X132080000Y-93980000D03*
X132080000Y-91440000D03*
X139700000Y-91440000D03*
X139700000Y-93980000D03*
X139700000Y-96520000D03*
X139700000Y-99060000D03*
X132080000Y-88900000D03*
X132080000Y-86360000D03*
X132080000Y-83820000D03*
D18*
X132080000Y-81280000D03*
%TD*%
D15*
%TO.C,RN2*%
X143510000Y-86360000D03*
X143510000Y-88900000D03*
X143510000Y-91440000D03*
X143510000Y-93980000D03*
X143510000Y-96520000D03*
X143510000Y-99060000D03*
X143510000Y-101600000D03*
X143510000Y-104140000D03*
D16*
X143510000Y-106680000D03*
%TD*%
%TO.C,R6*%
G36*
G01*
X150310001Y-44050000D02*
X149409999Y-44050000D01*
G75*
G02*
X149160000Y-43800001I0J249999D01*
G01*
X149160000Y-43099999D01*
G75*
G02*
X149409999Y-42850000I249999J0D01*
G01*
X150310001Y-42850000D01*
G75*
G02*
X150560000Y-43099999I0J-249999D01*
G01*
X150560000Y-43800001D01*
G75*
G02*
X150310001Y-44050000I-249999J0D01*
G01*
G37*
G36*
G01*
X150310001Y-46050000D02*
X149409999Y-46050000D01*
G75*
G02*
X149160000Y-45800001I0J249999D01*
G01*
X149160000Y-45099999D01*
G75*
G02*
X149409999Y-44850000I249999J0D01*
G01*
X150310001Y-44850000D01*
G75*
G02*
X150560000Y-45099999I0J-249999D01*
G01*
X150560000Y-45800001D01*
G75*
G02*
X150310001Y-46050000I-249999J0D01*
G01*
G37*
%TD*%
D19*
%TO.C,RN1*%
X20320000Y-43180000D03*
X20320000Y-40640000D03*
X20320000Y-38100000D03*
X20320000Y-35560000D03*
X20320000Y-33020000D03*
X20320000Y-30480000D03*
X20320000Y-27940000D03*
X20320000Y-25400000D03*
D20*
X20320000Y-22860000D03*
%TD*%
D15*
%TO.C,U1*%
X43180000Y-91440000D03*
X43180000Y-93980000D03*
X27940000Y-93980000D03*
X27940000Y-91440000D03*
X43180000Y-40640000D03*
X27940000Y-88900000D03*
X43180000Y-43180000D03*
X27940000Y-86360000D03*
X43180000Y-45720000D03*
X27940000Y-83820000D03*
X43180000Y-48260000D03*
X27940000Y-81280000D03*
X43180000Y-50800000D03*
X27940000Y-78740000D03*
X43180000Y-53340000D03*
X27940000Y-76200000D03*
X43180000Y-55880000D03*
X27940000Y-73660000D03*
X43180000Y-58420000D03*
X27940000Y-71120000D03*
X43180000Y-60960000D03*
X27940000Y-68580000D03*
X43180000Y-63500000D03*
X27940000Y-66040000D03*
X43180000Y-66040000D03*
X27940000Y-63500000D03*
X43180000Y-68580000D03*
X27940000Y-60960000D03*
X43180000Y-71120000D03*
X27940000Y-58420000D03*
X43180000Y-73660000D03*
X27940000Y-55880000D03*
X43180000Y-76200000D03*
X27940000Y-53340000D03*
X43180000Y-78740000D03*
X27940000Y-50800000D03*
X43180000Y-81280000D03*
X27940000Y-48260000D03*
X43180000Y-83820000D03*
X27940000Y-45720000D03*
X43180000Y-86360000D03*
X27940000Y-43180000D03*
X43180000Y-88900000D03*
D16*
X27940000Y-40640000D03*
%TD*%
D11*
%TO.C,H4*%
X154940000Y-104140000D03*
%TD*%
%TO.C,H3*%
X15240000Y-104140000D03*
%TD*%
%TO.C,H2*%
X154940000Y-15240000D03*
%TD*%
%TO.C,H1*%
X15240000Y-15240000D03*
%TD*%
D14*
%TO.C,J12*%
X15240000Y-22860000D03*
X15240000Y-25400000D03*
X15240000Y-27940000D03*
X15240000Y-30480000D03*
X15240000Y-33020000D03*
X15240000Y-35560000D03*
X15240000Y-38100000D03*
X15240000Y-40640000D03*
D12*
X15240000Y-43180000D03*
%TD*%
D14*
%TO.C,J3*%
X15240000Y-48260000D03*
X15240000Y-50800000D03*
X15240000Y-53340000D03*
X15240000Y-55880000D03*
X15240000Y-58420000D03*
X15240000Y-60960000D03*
X15240000Y-63500000D03*
X15240000Y-66040000D03*
D12*
X15240000Y-68580000D03*
%TD*%
%TO.C,J11*%
X152400000Y-43180000D03*
%TD*%
%TO.C,J10*%
X66040000Y-22860000D03*
%TD*%
%TO.C,J9*%
X15240000Y-73660000D03*
%TD*%
%TO.C,R5*%
G36*
G01*
X144180000Y-43630001D02*
X144180000Y-42729999D01*
G75*
G02*
X144429999Y-42480000I249999J0D01*
G01*
X145130001Y-42480000D01*
G75*
G02*
X145380000Y-42729999I0J-249999D01*
G01*
X145380000Y-43630001D01*
G75*
G02*
X145130001Y-43880000I-249999J0D01*
G01*
X144429999Y-43880000D01*
G75*
G02*
X144180000Y-43630001I0J249999D01*
G01*
G37*
G36*
G01*
X142180000Y-43630001D02*
X142180000Y-42729999D01*
G75*
G02*
X142429999Y-42480000I249999J0D01*
G01*
X143130001Y-42480000D01*
G75*
G02*
X143380000Y-42729999I0J-249999D01*
G01*
X143380000Y-43630001D01*
G75*
G02*
X143130001Y-43880000I-249999J0D01*
G01*
X142429999Y-43880000D01*
G75*
G02*
X142180000Y-43630001I0J249999D01*
G01*
G37*
%TD*%
%TO.C,R4*%
G36*
G01*
X89935000Y-41090001D02*
X89935000Y-40189999D01*
G75*
G02*
X90184999Y-39940000I249999J0D01*
G01*
X90885001Y-39940000D01*
G75*
G02*
X91135000Y-40189999I0J-249999D01*
G01*
X91135000Y-41090001D01*
G75*
G02*
X90885001Y-41340000I-249999J0D01*
G01*
X90184999Y-41340000D01*
G75*
G02*
X89935000Y-41090001I0J249999D01*
G01*
G37*
G36*
G01*
X87935000Y-41090001D02*
X87935000Y-40189999D01*
G75*
G02*
X88184999Y-39940000I249999J0D01*
G01*
X88885001Y-39940000D01*
G75*
G02*
X89135000Y-40189999I0J-249999D01*
G01*
X89135000Y-41090001D01*
G75*
G02*
X88885001Y-41340000I-249999J0D01*
G01*
X88184999Y-41340000D01*
G75*
G02*
X87935000Y-41090001I0J249999D01*
G01*
G37*
%TD*%
%TO.C,R3*%
G36*
G01*
X100095000Y-81730001D02*
X100095000Y-80829999D01*
G75*
G02*
X100344999Y-80580000I249999J0D01*
G01*
X101045001Y-80580000D01*
G75*
G02*
X101295000Y-80829999I0J-249999D01*
G01*
X101295000Y-81730001D01*
G75*
G02*
X101045001Y-81980000I-249999J0D01*
G01*
X100344999Y-81980000D01*
G75*
G02*
X100095000Y-81730001I0J249999D01*
G01*
G37*
G36*
G01*
X98095000Y-81730001D02*
X98095000Y-80829999D01*
G75*
G02*
X98344999Y-80580000I249999J0D01*
G01*
X99045001Y-80580000D01*
G75*
G02*
X99295000Y-80829999I0J-249999D01*
G01*
X99295000Y-81730001D01*
G75*
G02*
X99045001Y-81980000I-249999J0D01*
G01*
X98344999Y-81980000D01*
G75*
G02*
X98095000Y-81730001I0J249999D01*
G01*
G37*
%TD*%
D14*
%TO.C,J8*%
X106680000Y-45720000D03*
X106680000Y-48260000D03*
X106680000Y-50800000D03*
X106680000Y-53340000D03*
X106680000Y-55880000D03*
X106680000Y-58420000D03*
X106680000Y-60960000D03*
X106680000Y-63500000D03*
D12*
X106680000Y-66040000D03*
%TD*%
D14*
%TO.C,J7*%
X99060000Y-45720000D03*
X99060000Y-48260000D03*
X99060000Y-50800000D03*
X99060000Y-53340000D03*
X99060000Y-55880000D03*
X99060000Y-58420000D03*
X99060000Y-60960000D03*
X99060000Y-63500000D03*
D12*
X99060000Y-66040000D03*
%TD*%
D14*
%TO.C,J6*%
X124460000Y-86360000D03*
X124460000Y-88900000D03*
X124460000Y-91440000D03*
X124460000Y-93980000D03*
X124460000Y-96520000D03*
X124460000Y-99060000D03*
X124460000Y-101600000D03*
X124460000Y-104140000D03*
D12*
X124460000Y-106680000D03*
%TD*%
D14*
%TO.C,J5*%
X116840000Y-86360000D03*
X116840000Y-88900000D03*
X116840000Y-91440000D03*
X116840000Y-93980000D03*
X116840000Y-96520000D03*
X116840000Y-99060000D03*
X116840000Y-101600000D03*
X116840000Y-104140000D03*
D12*
X116840000Y-106680000D03*
%TD*%
D21*
%TO.C,J4*%
X104220000Y-27940000D03*
D22*
X109220000Y-27940000D03*
%TD*%
D14*
%TO.C,J2*%
X152400000Y-48260000D03*
X152400000Y-50800000D03*
X152400000Y-53340000D03*
X152400000Y-55880000D03*
X152400000Y-58420000D03*
X152400000Y-60960000D03*
X152400000Y-63500000D03*
X152400000Y-66040000D03*
D12*
X152400000Y-68580000D03*
%TD*%
D14*
%TO.C,J1*%
X109220000Y-86360000D03*
X109220000Y-88900000D03*
X109220000Y-91440000D03*
X109220000Y-93980000D03*
X109220000Y-96520000D03*
X109220000Y-99060000D03*
X109220000Y-101600000D03*
X109220000Y-104140000D03*
D12*
X109220000Y-106680000D03*
%TD*%
D19*
%TO.C,U7*%
X104140000Y-81280000D03*
X96520000Y-104140000D03*
X104140000Y-83820000D03*
X96520000Y-101600000D03*
X104140000Y-86360000D03*
X96520000Y-99060000D03*
X104140000Y-88900000D03*
X96520000Y-96520000D03*
X104140000Y-91440000D03*
X96520000Y-93980000D03*
X104140000Y-93980000D03*
X96520000Y-91440000D03*
X104140000Y-96520000D03*
X96520000Y-88900000D03*
X104140000Y-99060000D03*
X96520000Y-86360000D03*
X104140000Y-101600000D03*
X96520000Y-83820000D03*
X104140000Y-104140000D03*
D20*
X96520000Y-81280000D03*
%TD*%
D19*
%TO.C,U6*%
X78740000Y-20320000D03*
X71120000Y-35560000D03*
X78740000Y-22860000D03*
X71120000Y-33020000D03*
X78740000Y-25400000D03*
X71120000Y-30480000D03*
X78740000Y-27940000D03*
X71120000Y-27940000D03*
X78740000Y-30480000D03*
X71120000Y-25400000D03*
X78740000Y-33020000D03*
X71120000Y-22860000D03*
X78740000Y-35560000D03*
D20*
X71120000Y-20320000D03*
%TD*%
D19*
%TO.C,U5*%
X147320000Y-43180000D03*
X139700000Y-66040000D03*
X147320000Y-45720000D03*
X139700000Y-63500000D03*
X147320000Y-48260000D03*
X139700000Y-60960000D03*
X147320000Y-50800000D03*
X139700000Y-58420000D03*
X147320000Y-53340000D03*
X139700000Y-55880000D03*
X147320000Y-55880000D03*
X139700000Y-53340000D03*
X147320000Y-58420000D03*
X139700000Y-50800000D03*
X147320000Y-60960000D03*
X139700000Y-48260000D03*
X147320000Y-63500000D03*
X139700000Y-45720000D03*
X147320000Y-66040000D03*
D20*
X139700000Y-43180000D03*
%TD*%
D19*
%TO.C,U4*%
X93980000Y-40640000D03*
X86360000Y-63500000D03*
X93980000Y-43180000D03*
X86360000Y-60960000D03*
X93980000Y-45720000D03*
X86360000Y-58420000D03*
X93980000Y-48260000D03*
X86360000Y-55880000D03*
X93980000Y-50800000D03*
X86360000Y-53340000D03*
X93980000Y-53340000D03*
X86360000Y-50800000D03*
X93980000Y-55880000D03*
X86360000Y-48260000D03*
X93980000Y-58420000D03*
X86360000Y-45720000D03*
X93980000Y-60960000D03*
X86360000Y-43180000D03*
X93980000Y-63500000D03*
D20*
X86360000Y-40640000D03*
%TD*%
%TO.C,R2*%
G36*
G01*
X38700000Y-68129999D02*
X38700000Y-69030001D01*
G75*
G02*
X38450001Y-69280000I-249999J0D01*
G01*
X37749999Y-69280000D01*
G75*
G02*
X37500000Y-69030001I0J249999D01*
G01*
X37500000Y-68129999D01*
G75*
G02*
X37749999Y-67880000I249999J0D01*
G01*
X38450001Y-67880000D01*
G75*
G02*
X38700000Y-68129999I0J-249999D01*
G01*
G37*
G36*
G01*
X40700000Y-68129999D02*
X40700000Y-69030001D01*
G75*
G02*
X40450001Y-69280000I-249999J0D01*
G01*
X39749999Y-69280000D01*
G75*
G02*
X39500000Y-69030001I0J249999D01*
G01*
X39500000Y-68129999D01*
G75*
G02*
X39749999Y-67880000I249999J0D01*
G01*
X40450001Y-67880000D01*
G75*
G02*
X40700000Y-68129999I0J-249999D01*
G01*
G37*
%TD*%
%TO.C,R1*%
G36*
G01*
X38700000Y-42729999D02*
X38700000Y-43630001D01*
G75*
G02*
X38450001Y-43880000I-249999J0D01*
G01*
X37749999Y-43880000D01*
G75*
G02*
X37500000Y-43630001I0J249999D01*
G01*
X37500000Y-42729999D01*
G75*
G02*
X37749999Y-42480000I249999J0D01*
G01*
X38450001Y-42480000D01*
G75*
G02*
X38700000Y-42729999I0J-249999D01*
G01*
G37*
G36*
G01*
X40700000Y-42729999D02*
X40700000Y-43630001D01*
G75*
G02*
X40450001Y-43880000I-249999J0D01*
G01*
X39749999Y-43880000D01*
G75*
G02*
X39500000Y-43630001I0J249999D01*
G01*
X39500000Y-42729999D01*
G75*
G02*
X39749999Y-42480000I249999J0D01*
G01*
X40450001Y-42480000D01*
G75*
G02*
X40700000Y-42729999I0J-249999D01*
G01*
G37*
%TD*%
D19*
%TO.C,U3*%
X78740000Y-40640000D03*
X71120000Y-63500000D03*
X78740000Y-43180000D03*
X71120000Y-60960000D03*
X78740000Y-45720000D03*
X71120000Y-58420000D03*
X78740000Y-48260000D03*
X71120000Y-55880000D03*
X78740000Y-50800000D03*
X71120000Y-53340000D03*
X78740000Y-53340000D03*
X71120000Y-50800000D03*
X78740000Y-55880000D03*
X71120000Y-48260000D03*
X78740000Y-58420000D03*
X71120000Y-45720000D03*
X78740000Y-60960000D03*
X71120000Y-43180000D03*
X78740000Y-63500000D03*
D20*
X71120000Y-40640000D03*
%TD*%
D19*
%TO.C,U2*%
X78740000Y-81280000D03*
X71120000Y-104140000D03*
X78740000Y-83820000D03*
X71120000Y-101600000D03*
X78740000Y-86360000D03*
X71120000Y-99060000D03*
X78740000Y-88900000D03*
X71120000Y-96520000D03*
X78740000Y-91440000D03*
X71120000Y-93980000D03*
X78740000Y-93980000D03*
X71120000Y-91440000D03*
X78740000Y-96520000D03*
X71120000Y-88900000D03*
X78740000Y-99060000D03*
X71120000Y-86360000D03*
X78740000Y-101600000D03*
X71120000Y-83820000D03*
X78740000Y-104140000D03*
D20*
X71120000Y-81280000D03*
%TD*%
M02*
