%TF.GenerationSoftware,KiCad,Pcbnew,(5.1.8)-1*%
%TF.CreationDate,2024-01-29T23:39:16+03:00*%
%TF.ProjectId,ROM,524f4d2e-6b69-4636-9164-5f7063625858,rev?*%
%TF.SameCoordinates,Original*%
%TF.FileFunction,Copper,L1,Top*%
%TF.FilePolarity,Positive*%
%FSLAX46Y46*%
G04 Gerber Fmt 4.6, Leading zero omitted, Abs format (unit mm)*
G04 Created by KiCad (PCBNEW (5.1.8)-1) date 2024-01-29 23:39:16*
%MOMM*%
%LPD*%
G01*
G04 APERTURE LIST*
%TA.AperFunction,NonConductor*%
%ADD10C,0.300000*%
%TD*%
%TA.AperFunction,NonConductor*%
%ADD11C,0.400000*%
%TD*%
%TA.AperFunction,ComponentPad*%
%ADD12R,1.700000X1.700000*%
%TD*%
%TA.AperFunction,ComponentPad*%
%ADD13C,2.000000*%
%TD*%
%TA.AperFunction,ComponentPad*%
%ADD14O,1.700000X1.700000*%
%TD*%
%TA.AperFunction,ComponentPad*%
%ADD15O,1.800000X1.500000*%
%TD*%
%TA.AperFunction,ComponentPad*%
%ADD16R,1.800000X1.500000*%
%TD*%
%TA.AperFunction,ComponentPad*%
%ADD17O,2.000000X1.500000*%
%TD*%
%TA.AperFunction,ComponentPad*%
%ADD18R,2.000000X1.500000*%
%TD*%
%TA.AperFunction,ComponentPad*%
%ADD19O,1.600000X1.600000*%
%TD*%
%TA.AperFunction,ComponentPad*%
%ADD20R,1.600000X1.600000*%
%TD*%
%TA.AperFunction,ComponentPad*%
%ADD21C,2.600000*%
%TD*%
%TA.AperFunction,ComponentPad*%
%ADD22R,2.600000X2.600000*%
%TD*%
%TA.AperFunction,ViaPad*%
%ADD23C,1.500000*%
%TD*%
%TA.AperFunction,Conductor*%
%ADD24C,0.500000*%
%TD*%
G04 APERTURE END LIST*
D10*
X127365714Y-21546428D02*
X127437142Y-21475000D01*
X127580000Y-21403571D01*
X127937142Y-21403571D01*
X128080000Y-21475000D01*
X128151428Y-21546428D01*
X128222857Y-21689285D01*
X128222857Y-21832142D01*
X128151428Y-22046428D01*
X127294285Y-22903571D01*
X128222857Y-22903571D01*
X128937142Y-22903571D02*
X129222857Y-22903571D01*
X129365714Y-22832142D01*
X129437142Y-22760714D01*
X129580000Y-22546428D01*
X129651428Y-22260714D01*
X129651428Y-21689285D01*
X129580000Y-21546428D01*
X129508571Y-21475000D01*
X129365714Y-21403571D01*
X129080000Y-21403571D01*
X128937142Y-21475000D01*
X128865714Y-21546428D01*
X128794285Y-21689285D01*
X128794285Y-22046428D01*
X128865714Y-22189285D01*
X128937142Y-22260714D01*
X129080000Y-22332142D01*
X129365714Y-22332142D01*
X129508571Y-22260714D01*
X129580000Y-22189285D01*
X129651428Y-22046428D01*
X130294285Y-22760714D02*
X130365714Y-22832142D01*
X130294285Y-22903571D01*
X130222857Y-22832142D01*
X130294285Y-22760714D01*
X130294285Y-22903571D01*
X131294285Y-21403571D02*
X131437142Y-21403571D01*
X131580000Y-21475000D01*
X131651428Y-21546428D01*
X131722857Y-21689285D01*
X131794285Y-21975000D01*
X131794285Y-22332142D01*
X131722857Y-22617857D01*
X131651428Y-22760714D01*
X131580000Y-22832142D01*
X131437142Y-22903571D01*
X131294285Y-22903571D01*
X131151428Y-22832142D01*
X131080000Y-22760714D01*
X131008571Y-22617857D01*
X130937142Y-22332142D01*
X130937142Y-21975000D01*
X131008571Y-21689285D01*
X131080000Y-21546428D01*
X131151428Y-21475000D01*
X131294285Y-21403571D01*
X133222857Y-22903571D02*
X132365714Y-22903571D01*
X132794285Y-22903571D02*
X132794285Y-21403571D01*
X132651428Y-21617857D01*
X132508571Y-21760714D01*
X132365714Y-21832142D01*
X133865714Y-22760714D02*
X133937142Y-22832142D01*
X133865714Y-22903571D01*
X133794285Y-22832142D01*
X133865714Y-22760714D01*
X133865714Y-22903571D01*
X134508571Y-21546428D02*
X134580000Y-21475000D01*
X134722857Y-21403571D01*
X135080000Y-21403571D01*
X135222857Y-21475000D01*
X135294285Y-21546428D01*
X135365714Y-21689285D01*
X135365714Y-21832142D01*
X135294285Y-22046428D01*
X134437142Y-22903571D01*
X135365714Y-22903571D01*
X136651428Y-21903571D02*
X136651428Y-22903571D01*
X136294285Y-21332142D02*
X135937142Y-22403571D01*
X136865714Y-22403571D01*
X127794285Y-17593571D02*
X128794285Y-17593571D01*
X128151428Y-19093571D01*
X130008571Y-18093571D02*
X130008571Y-19093571D01*
X129651428Y-17522142D02*
X129294285Y-18593571D01*
X130222857Y-18593571D01*
X130794285Y-19093571D02*
X130794285Y-17593571D01*
X130794285Y-18307857D02*
X131651428Y-18307857D01*
X131651428Y-19093571D02*
X131651428Y-17593571D01*
X133222857Y-18950714D02*
X133151428Y-19022142D01*
X132937142Y-19093571D01*
X132794285Y-19093571D01*
X132580000Y-19022142D01*
X132437142Y-18879285D01*
X132365714Y-18736428D01*
X132294285Y-18450714D01*
X132294285Y-18236428D01*
X132365714Y-17950714D01*
X132437142Y-17807857D01*
X132580000Y-17665000D01*
X132794285Y-17593571D01*
X132937142Y-17593571D01*
X133151428Y-17665000D01*
X133222857Y-17736428D01*
X133865714Y-19093571D02*
X133865714Y-17593571D01*
X134437142Y-17593571D01*
X134580000Y-17665000D01*
X134651428Y-17736428D01*
X134722857Y-17879285D01*
X134722857Y-18093571D01*
X134651428Y-18236428D01*
X134580000Y-18307857D01*
X134437142Y-18379285D01*
X133865714Y-18379285D01*
X135365714Y-17593571D02*
X135365714Y-18807857D01*
X135437142Y-18950714D01*
X135508571Y-19022142D01*
X135651428Y-19093571D01*
X135937142Y-19093571D01*
X136080000Y-19022142D01*
X136151428Y-18950714D01*
X136222857Y-18807857D01*
X136222857Y-17593571D01*
D11*
X33410000Y-25926428D02*
X33267142Y-26069285D01*
X32838571Y-26212142D01*
X32552857Y-26212142D01*
X32124285Y-26069285D01*
X31838571Y-25783571D01*
X31695714Y-25497857D01*
X31552857Y-24926428D01*
X31552857Y-24497857D01*
X31695714Y-23926428D01*
X31838571Y-23640714D01*
X32124285Y-23355000D01*
X32552857Y-23212142D01*
X32838571Y-23212142D01*
X33267142Y-23355000D01*
X33410000Y-23497857D01*
X35124285Y-26212142D02*
X34838571Y-26069285D01*
X34695714Y-25926428D01*
X34552857Y-25640714D01*
X34552857Y-24783571D01*
X34695714Y-24497857D01*
X34838571Y-24355000D01*
X35124285Y-24212142D01*
X35552857Y-24212142D01*
X35838571Y-24355000D01*
X35981428Y-24497857D01*
X36124285Y-24783571D01*
X36124285Y-25640714D01*
X35981428Y-25926428D01*
X35838571Y-26069285D01*
X35552857Y-26212142D01*
X35124285Y-26212142D01*
X37410000Y-26212142D02*
X37410000Y-24212142D01*
X37410000Y-24497857D02*
X37552857Y-24355000D01*
X37838571Y-24212142D01*
X38267142Y-24212142D01*
X38552857Y-24355000D01*
X38695714Y-24640714D01*
X38695714Y-26212142D01*
X38695714Y-24640714D02*
X38838571Y-24355000D01*
X39124285Y-24212142D01*
X39552857Y-24212142D01*
X39838571Y-24355000D01*
X39981428Y-24640714D01*
X39981428Y-26212142D01*
X41410000Y-26212142D02*
X41410000Y-24212142D01*
X41410000Y-24497857D02*
X41552857Y-24355000D01*
X41838571Y-24212142D01*
X42267142Y-24212142D01*
X42552857Y-24355000D01*
X42695714Y-24640714D01*
X42695714Y-26212142D01*
X42695714Y-24640714D02*
X42838571Y-24355000D01*
X43124285Y-24212142D01*
X43552857Y-24212142D01*
X43838571Y-24355000D01*
X43981428Y-24640714D01*
X43981428Y-26212142D01*
X46695714Y-26212142D02*
X46695714Y-24640714D01*
X46552857Y-24355000D01*
X46267142Y-24212142D01*
X45695714Y-24212142D01*
X45410000Y-24355000D01*
X46695714Y-26069285D02*
X46410000Y-26212142D01*
X45695714Y-26212142D01*
X45410000Y-26069285D01*
X45267142Y-25783571D01*
X45267142Y-25497857D01*
X45410000Y-25212142D01*
X45695714Y-25069285D01*
X46410000Y-25069285D01*
X46695714Y-24926428D01*
X48124285Y-24212142D02*
X48124285Y-26212142D01*
X48124285Y-24497857D02*
X48267142Y-24355000D01*
X48552857Y-24212142D01*
X48981428Y-24212142D01*
X49267142Y-24355000D01*
X49410000Y-24640714D01*
X49410000Y-26212142D01*
X52124285Y-26212142D02*
X52124285Y-23212142D01*
X52124285Y-26069285D02*
X51838571Y-26212142D01*
X51267142Y-26212142D01*
X50981428Y-26069285D01*
X50838571Y-25926428D01*
X50695714Y-25640714D01*
X50695714Y-24783571D01*
X50838571Y-24497857D01*
X50981428Y-24355000D01*
X51267142Y-24212142D01*
X51838571Y-24212142D01*
X52124285Y-24355000D01*
X39552857Y-31112142D02*
X38552857Y-29683571D01*
X37838571Y-31112142D02*
X37838571Y-28112142D01*
X38981428Y-28112142D01*
X39267142Y-28255000D01*
X39410000Y-28397857D01*
X39552857Y-28683571D01*
X39552857Y-29112142D01*
X39410000Y-29397857D01*
X39267142Y-29540714D01*
X38981428Y-29683571D01*
X37838571Y-29683571D01*
X41410000Y-28112142D02*
X41981428Y-28112142D01*
X42267142Y-28255000D01*
X42552857Y-28540714D01*
X42695714Y-29112142D01*
X42695714Y-30112142D01*
X42552857Y-30683571D01*
X42267142Y-30969285D01*
X41981428Y-31112142D01*
X41410000Y-31112142D01*
X41124285Y-30969285D01*
X40838571Y-30683571D01*
X40695714Y-30112142D01*
X40695714Y-29112142D01*
X40838571Y-28540714D01*
X41124285Y-28255000D01*
X41410000Y-28112142D01*
X43981428Y-31112142D02*
X43981428Y-28112142D01*
X44981428Y-30255000D01*
X45981428Y-28112142D01*
X45981428Y-31112142D01*
D12*
%TO.P,J14,1*%
%TO.N,GND*%
X15240000Y-76200000D03*
%TD*%
D13*
%TO.P,C1,2*%
%TO.N,GND*%
X32385000Y-68580000D03*
%TO.P,C1,1*%
%TO.N,VCC*%
X32385000Y-76080000D03*
%TD*%
D14*
%TO.P,J13,9*%
%TO.N,/CNST7*%
X114300000Y-45720000D03*
%TO.P,J13,8*%
%TO.N,/CNST6*%
X114300000Y-48260000D03*
%TO.P,J13,7*%
%TO.N,/CNST5*%
X114300000Y-50800000D03*
%TO.P,J13,6*%
%TO.N,/CNST4*%
X114300000Y-53340000D03*
%TO.P,J13,5*%
%TO.N,/CNST3*%
X114300000Y-55880000D03*
%TO.P,J13,4*%
%TO.N,/CNST2*%
X114300000Y-58420000D03*
%TO.P,J13,3*%
%TO.N,/CNST1*%
X114300000Y-60960000D03*
%TO.P,J13,2*%
%TO.N,/CNST0*%
X114300000Y-63500000D03*
D12*
%TO.P,J13,1*%
%TO.N,GND*%
X114300000Y-66040000D03*
%TD*%
D15*
%TO.P,RN3,9*%
%TO.N,Net-(BAR2-Pad18)*%
X133350000Y-45720000D03*
%TO.P,RN3,8*%
%TO.N,Net-(BAR2-Pad17)*%
X133350000Y-48260000D03*
%TO.P,RN3,7*%
%TO.N,Net-(BAR2-Pad16)*%
X133350000Y-50800000D03*
%TO.P,RN3,6*%
%TO.N,Net-(BAR2-Pad15)*%
X133350000Y-53340000D03*
%TO.P,RN3,5*%
%TO.N,Net-(BAR2-Pad14)*%
X133350000Y-55880000D03*
%TO.P,RN3,4*%
%TO.N,Net-(BAR2-Pad13)*%
X133350000Y-58420000D03*
%TO.P,RN3,3*%
%TO.N,Net-(BAR2-Pad12)*%
X133350000Y-60960000D03*
%TO.P,RN3,2*%
%TO.N,Net-(BAR2-Pad11)*%
X133350000Y-63500000D03*
D16*
%TO.P,RN3,1*%
%TO.N,GND*%
X133350000Y-66040000D03*
%TD*%
D17*
%TO.P,BAR2,20*%
%TO.N,N/C*%
X129540000Y-40640000D03*
%TO.P,BAR2,19*%
X129540000Y-43180000D03*
%TO.P,BAR2,18*%
%TO.N,Net-(BAR2-Pad18)*%
X129540000Y-45720000D03*
%TO.P,BAR2,17*%
%TO.N,Net-(BAR2-Pad17)*%
X129540000Y-48260000D03*
%TO.P,BAR2,9*%
%TO.N,/CNST1*%
X121920000Y-60960000D03*
%TO.P,BAR2,10*%
%TO.N,/CNST0*%
X121920000Y-63500000D03*
%TO.P,BAR2,11*%
%TO.N,Net-(BAR2-Pad11)*%
X129540000Y-63500000D03*
%TO.P,BAR2,12*%
%TO.N,Net-(BAR2-Pad12)*%
X129540000Y-60960000D03*
%TO.P,BAR2,8*%
%TO.N,/CNST2*%
X121920000Y-58420000D03*
%TO.P,BAR2,7*%
%TO.N,/CNST3*%
X121920000Y-55880000D03*
%TO.P,BAR2,6*%
%TO.N,/CNST4*%
X121920000Y-53340000D03*
%TO.P,BAR2,5*%
%TO.N,/CNST5*%
X121920000Y-50800000D03*
%TO.P,BAR2,16*%
%TO.N,Net-(BAR2-Pad16)*%
X129540000Y-50800000D03*
%TO.P,BAR2,15*%
%TO.N,Net-(BAR2-Pad15)*%
X129540000Y-53340000D03*
%TO.P,BAR2,14*%
%TO.N,Net-(BAR2-Pad14)*%
X129540000Y-55880000D03*
%TO.P,BAR2,13*%
%TO.N,Net-(BAR2-Pad13)*%
X129540000Y-58420000D03*
%TO.P,BAR2,4*%
%TO.N,/CNST6*%
X121920000Y-48260000D03*
%TO.P,BAR2,3*%
%TO.N,/CNST7*%
X121920000Y-45720000D03*
%TO.P,BAR2,2*%
%TO.N,N/C*%
X121920000Y-43180000D03*
D18*
%TO.P,BAR2,1*%
X121920000Y-40640000D03*
%TD*%
D17*
%TO.P,BAR1,20*%
%TO.N,N/C*%
X139700000Y-81280000D03*
%TO.P,BAR1,19*%
X139700000Y-83820000D03*
%TO.P,BAR1,18*%
%TO.N,Net-(BAR1-Pad18)*%
X139700000Y-86360000D03*
%TO.P,BAR1,17*%
%TO.N,Net-(BAR1-Pad17)*%
X139700000Y-88900000D03*
%TO.P,BAR1,9*%
%TO.N,/COP1*%
X132080000Y-101600000D03*
%TO.P,BAR1,10*%
%TO.N,/COP0*%
X132080000Y-104140000D03*
%TO.P,BAR1,11*%
%TO.N,Net-(BAR1-Pad11)*%
X139700000Y-104140000D03*
%TO.P,BAR1,12*%
%TO.N,Net-(BAR1-Pad12)*%
X139700000Y-101600000D03*
%TO.P,BAR1,8*%
%TO.N,/COP2*%
X132080000Y-99060000D03*
%TO.P,BAR1,7*%
%TO.N,/COP3*%
X132080000Y-96520000D03*
%TO.P,BAR1,6*%
%TO.N,/COP4*%
X132080000Y-93980000D03*
%TO.P,BAR1,5*%
%TO.N,/COP5*%
X132080000Y-91440000D03*
%TO.P,BAR1,16*%
%TO.N,Net-(BAR1-Pad16)*%
X139700000Y-91440000D03*
%TO.P,BAR1,15*%
%TO.N,Net-(BAR1-Pad15)*%
X139700000Y-93980000D03*
%TO.P,BAR1,14*%
%TO.N,Net-(BAR1-Pad14)*%
X139700000Y-96520000D03*
%TO.P,BAR1,13*%
%TO.N,Net-(BAR1-Pad13)*%
X139700000Y-99060000D03*
%TO.P,BAR1,4*%
%TO.N,/COP6*%
X132080000Y-88900000D03*
%TO.P,BAR1,3*%
%TO.N,/COP7*%
X132080000Y-86360000D03*
%TO.P,BAR1,2*%
%TO.N,N/C*%
X132080000Y-83820000D03*
D18*
%TO.P,BAR1,1*%
X132080000Y-81280000D03*
%TD*%
D15*
%TO.P,RN2,9*%
%TO.N,Net-(BAR1-Pad18)*%
X143510000Y-86360000D03*
%TO.P,RN2,8*%
%TO.N,Net-(BAR1-Pad17)*%
X143510000Y-88900000D03*
%TO.P,RN2,7*%
%TO.N,Net-(BAR1-Pad16)*%
X143510000Y-91440000D03*
%TO.P,RN2,6*%
%TO.N,Net-(BAR1-Pad15)*%
X143510000Y-93980000D03*
%TO.P,RN2,5*%
%TO.N,Net-(BAR1-Pad14)*%
X143510000Y-96520000D03*
%TO.P,RN2,4*%
%TO.N,Net-(BAR1-Pad13)*%
X143510000Y-99060000D03*
%TO.P,RN2,3*%
%TO.N,Net-(BAR1-Pad12)*%
X143510000Y-101600000D03*
%TO.P,RN2,2*%
%TO.N,Net-(BAR1-Pad11)*%
X143510000Y-104140000D03*
D16*
%TO.P,RN2,1*%
%TO.N,GND*%
X143510000Y-106680000D03*
%TD*%
D19*
%TO.P,RN1,9*%
%TO.N,/A8*%
X20320000Y-43180000D03*
%TO.P,RN1,8*%
%TO.N,/A9*%
X20320000Y-40640000D03*
%TO.P,RN1,7*%
%TO.N,/A10*%
X20320000Y-38100000D03*
%TO.P,RN1,6*%
%TO.N,/A11*%
X20320000Y-35560000D03*
%TO.P,RN1,5*%
%TO.N,/A12*%
X20320000Y-33020000D03*
%TO.P,RN1,4*%
%TO.N,/A13*%
X20320000Y-30480000D03*
%TO.P,RN1,3*%
%TO.N,/A14*%
X20320000Y-27940000D03*
%TO.P,RN1,2*%
%TO.N,/A15*%
X20320000Y-25400000D03*
D20*
%TO.P,RN1,1*%
%TO.N,GND*%
X20320000Y-22860000D03*
%TD*%
D15*
%TO.P,U1,24*%
%TO.N,/D4*%
X43180000Y-91440000D03*
%TO.P,U1,23*%
%TO.N,VCC*%
X43180000Y-93980000D03*
%TO.P,U1,22*%
%TO.N,/D11*%
X27940000Y-93980000D03*
%TO.P,U1,21*%
%TO.N,/D3*%
X27940000Y-91440000D03*
%TO.P,U1,44*%
%TO.N,Net-(R1-Pad1)*%
X43180000Y-40640000D03*
%TO.P,U1,20*%
%TO.N,/D10*%
X27940000Y-88900000D03*
%TO.P,U1,43*%
%TO.N,Net-(R1-Pad1)*%
X43180000Y-43180000D03*
%TO.P,U1,19*%
%TO.N,/D2*%
X27940000Y-86360000D03*
%TO.P,U1,42*%
%TO.N,/A8*%
X43180000Y-45720000D03*
%TO.P,U1,18*%
%TO.N,/D9*%
X27940000Y-83820000D03*
%TO.P,U1,41*%
%TO.N,/A9*%
X43180000Y-48260000D03*
%TO.P,U1,17*%
%TO.N,/D1*%
X27940000Y-81280000D03*
%TO.P,U1,40*%
%TO.N,/A10*%
X43180000Y-50800000D03*
%TO.P,U1,16*%
%TO.N,/D8*%
X27940000Y-78740000D03*
%TO.P,U1,39*%
%TO.N,/A11*%
X43180000Y-53340000D03*
%TO.P,U1,15*%
%TO.N,/D0*%
X27940000Y-76200000D03*
%TO.P,U1,38*%
%TO.N,/A12*%
X43180000Y-55880000D03*
%TO.P,U1,14*%
%TO.N,/~RD*%
X27940000Y-73660000D03*
%TO.P,U1,37*%
%TO.N,/A13*%
X43180000Y-58420000D03*
%TO.P,U1,13*%
%TO.N,GND*%
X27940000Y-71120000D03*
%TO.P,U1,36*%
%TO.N,/A14*%
X43180000Y-60960000D03*
%TO.P,U1,12*%
%TO.N,/~CS*%
X27940000Y-68580000D03*
%TO.P,U1,35*%
%TO.N,/A15*%
X43180000Y-63500000D03*
%TO.P,U1,11*%
%TO.N,/A0*%
X27940000Y-66040000D03*
%TO.P,U1,34*%
%TO.N,GND*%
X43180000Y-66040000D03*
%TO.P,U1,10*%
%TO.N,/A1*%
X27940000Y-63500000D03*
%TO.P,U1,33*%
%TO.N,Net-(R2-Pad1)*%
X43180000Y-68580000D03*
%TO.P,U1,9*%
%TO.N,/A2*%
X27940000Y-60960000D03*
%TO.P,U1,32*%
%TO.N,GND*%
X43180000Y-71120000D03*
%TO.P,U1,8*%
%TO.N,/A3*%
X27940000Y-58420000D03*
%TO.P,U1,31*%
%TO.N,/D15*%
X43180000Y-73660000D03*
%TO.P,U1,7*%
%TO.N,/A4*%
X27940000Y-55880000D03*
%TO.P,U1,30*%
%TO.N,/D7*%
X43180000Y-76200000D03*
%TO.P,U1,6*%
%TO.N,/A5*%
X27940000Y-53340000D03*
%TO.P,U1,29*%
%TO.N,/D14*%
X43180000Y-78740000D03*
%TO.P,U1,5*%
%TO.N,/A6*%
X27940000Y-50800000D03*
%TO.P,U1,28*%
%TO.N,/D6*%
X43180000Y-81280000D03*
%TO.P,U1,4*%
%TO.N,/A7*%
X27940000Y-48260000D03*
%TO.P,U1,27*%
%TO.N,/D13*%
X43180000Y-83820000D03*
%TO.P,U1,3*%
%TO.N,Net-(U1-Pad3)*%
X27940000Y-45720000D03*
%TO.P,U1,26*%
%TO.N,/D5*%
X43180000Y-86360000D03*
%TO.P,U1,2*%
%TO.N,Net-(U1-Pad2)*%
X27940000Y-43180000D03*
%TO.P,U1,25*%
%TO.N,/D12*%
X43180000Y-88900000D03*
D16*
%TO.P,U1,1*%
%TO.N,Net-(U1-Pad1)*%
X27940000Y-40640000D03*
%TD*%
D14*
%TO.P,J12,9*%
%TO.N,GND*%
X15240000Y-22860000D03*
%TO.P,J12,8*%
%TO.N,/A15*%
X15240000Y-25400000D03*
%TO.P,J12,7*%
%TO.N,/A14*%
X15240000Y-27940000D03*
%TO.P,J12,6*%
%TO.N,/A13*%
X15240000Y-30480000D03*
%TO.P,J12,5*%
%TO.N,/A12*%
X15240000Y-33020000D03*
%TO.P,J12,4*%
%TO.N,/A11*%
X15240000Y-35560000D03*
%TO.P,J12,3*%
%TO.N,/A10*%
X15240000Y-38100000D03*
%TO.P,J12,2*%
%TO.N,/A9*%
X15240000Y-40640000D03*
D12*
%TO.P,J12,1*%
%TO.N,/A8*%
X15240000Y-43180000D03*
%TD*%
D14*
%TO.P,J3,9*%
%TO.N,/A7*%
X15240000Y-48260000D03*
%TO.P,J3,8*%
%TO.N,/A6*%
X15240000Y-50800000D03*
%TO.P,J3,7*%
%TO.N,/A5*%
X15240000Y-53340000D03*
%TO.P,J3,6*%
%TO.N,/A4*%
X15240000Y-55880000D03*
%TO.P,J3,5*%
%TO.N,/A3*%
X15240000Y-58420000D03*
%TO.P,J3,4*%
%TO.N,/A2*%
X15240000Y-60960000D03*
%TO.P,J3,3*%
%TO.N,/A1*%
X15240000Y-63500000D03*
%TO.P,J3,2*%
%TO.N,/A0*%
X15240000Y-66040000D03*
D12*
%TO.P,J3,1*%
%TO.N,GND*%
X15240000Y-68580000D03*
%TD*%
%TO.P,J11,1*%
%TO.N,/~LDI*%
X152400000Y-43180000D03*
%TD*%
%TO.P,J10,1*%
%TO.N,/C1*%
X66040000Y-22860000D03*
%TD*%
%TO.P,J9,1*%
%TO.N,/~CS*%
X15240000Y-73660000D03*
%TD*%
D14*
%TO.P,J8,9*%
%TO.N,/CNST7*%
X106680000Y-45720000D03*
%TO.P,J8,8*%
%TO.N,/CNST6*%
X106680000Y-48260000D03*
%TO.P,J8,7*%
%TO.N,/CNST5*%
X106680000Y-50800000D03*
%TO.P,J8,6*%
%TO.N,/CNST4*%
X106680000Y-53340000D03*
%TO.P,J8,5*%
%TO.N,/CNST3*%
X106680000Y-55880000D03*
%TO.P,J8,4*%
%TO.N,/CNST2*%
X106680000Y-58420000D03*
%TO.P,J8,3*%
%TO.N,/CNST1*%
X106680000Y-60960000D03*
%TO.P,J8,2*%
%TO.N,/CNST0*%
X106680000Y-63500000D03*
D12*
%TO.P,J8,1*%
%TO.N,GND*%
X106680000Y-66040000D03*
%TD*%
D14*
%TO.P,J7,9*%
%TO.N,/CNST7*%
X99060000Y-45720000D03*
%TO.P,J7,8*%
%TO.N,/CNST6*%
X99060000Y-48260000D03*
%TO.P,J7,7*%
%TO.N,/CNST5*%
X99060000Y-50800000D03*
%TO.P,J7,6*%
%TO.N,/CNST4*%
X99060000Y-53340000D03*
%TO.P,J7,5*%
%TO.N,/CNST3*%
X99060000Y-55880000D03*
%TO.P,J7,4*%
%TO.N,/CNST2*%
X99060000Y-58420000D03*
%TO.P,J7,3*%
%TO.N,/CNST1*%
X99060000Y-60960000D03*
%TO.P,J7,2*%
%TO.N,/CNST0*%
X99060000Y-63500000D03*
D12*
%TO.P,J7,1*%
%TO.N,GND*%
X99060000Y-66040000D03*
%TD*%
D14*
%TO.P,J6,9*%
%TO.N,/COP7*%
X124460000Y-86360000D03*
%TO.P,J6,8*%
%TO.N,/COP6*%
X124460000Y-88900000D03*
%TO.P,J6,7*%
%TO.N,/COP5*%
X124460000Y-91440000D03*
%TO.P,J6,6*%
%TO.N,/COP4*%
X124460000Y-93980000D03*
%TO.P,J6,5*%
%TO.N,/COP3*%
X124460000Y-96520000D03*
%TO.P,J6,4*%
%TO.N,/COP2*%
X124460000Y-99060000D03*
%TO.P,J6,3*%
%TO.N,/COP1*%
X124460000Y-101600000D03*
%TO.P,J6,2*%
%TO.N,/COP0*%
X124460000Y-104140000D03*
D12*
%TO.P,J6,1*%
%TO.N,GND*%
X124460000Y-106680000D03*
%TD*%
D14*
%TO.P,J5,9*%
%TO.N,/COP7*%
X116840000Y-86360000D03*
%TO.P,J5,8*%
%TO.N,/COP6*%
X116840000Y-88900000D03*
%TO.P,J5,7*%
%TO.N,/COP5*%
X116840000Y-91440000D03*
%TO.P,J5,6*%
%TO.N,/COP4*%
X116840000Y-93980000D03*
%TO.P,J5,5*%
%TO.N,/COP3*%
X116840000Y-96520000D03*
%TO.P,J5,4*%
%TO.N,/COP2*%
X116840000Y-99060000D03*
%TO.P,J5,3*%
%TO.N,/COP1*%
X116840000Y-101600000D03*
%TO.P,J5,2*%
%TO.N,/COP0*%
X116840000Y-104140000D03*
D12*
%TO.P,J5,1*%
%TO.N,GND*%
X116840000Y-106680000D03*
%TD*%
D21*
%TO.P,J4,2*%
%TO.N,GND*%
X104220000Y-27940000D03*
D22*
%TO.P,J4,1*%
%TO.N,Net-(J4-Pad1)*%
X109220000Y-27940000D03*
%TD*%
D14*
%TO.P,J2,9*%
%TO.N,/BUS7*%
X152400000Y-48260000D03*
%TO.P,J2,8*%
%TO.N,/BUS6*%
X152400000Y-50800000D03*
%TO.P,J2,7*%
%TO.N,/BUS5*%
X152400000Y-53340000D03*
%TO.P,J2,6*%
%TO.N,/BUS4*%
X152400000Y-55880000D03*
%TO.P,J2,5*%
%TO.N,/BUS3*%
X152400000Y-58420000D03*
%TO.P,J2,4*%
%TO.N,/BUS2*%
X152400000Y-60960000D03*
%TO.P,J2,3*%
%TO.N,/BUS1*%
X152400000Y-63500000D03*
%TO.P,J2,2*%
%TO.N,/BUS0*%
X152400000Y-66040000D03*
D12*
%TO.P,J2,1*%
%TO.N,GND*%
X152400000Y-68580000D03*
%TD*%
D14*
%TO.P,J1,9*%
%TO.N,/COP7*%
X109220000Y-86360000D03*
%TO.P,J1,8*%
%TO.N,/COP6*%
X109220000Y-88900000D03*
%TO.P,J1,7*%
%TO.N,/COP5*%
X109220000Y-91440000D03*
%TO.P,J1,6*%
%TO.N,/COP4*%
X109220000Y-93980000D03*
%TO.P,J1,5*%
%TO.N,/COP3*%
X109220000Y-96520000D03*
%TO.P,J1,4*%
%TO.N,/COP2*%
X109220000Y-99060000D03*
%TO.P,J1,3*%
%TO.N,/COP1*%
X109220000Y-101600000D03*
%TO.P,J1,2*%
%TO.N,/COP0*%
X109220000Y-104140000D03*
D12*
%TO.P,J1,1*%
%TO.N,GND*%
X109220000Y-106680000D03*
%TD*%
D19*
%TO.P,U7,20*%
%TO.N,VCC*%
X104140000Y-81280000D03*
%TO.P,U7,10*%
%TO.N,GND*%
X96520000Y-104140000D03*
%TO.P,U7,19*%
X104140000Y-83820000D03*
%TO.P,U7,9*%
%TO.N,Net-(U2-Pad12)*%
X96520000Y-101600000D03*
%TO.P,U7,18*%
%TO.N,/COP7*%
X104140000Y-86360000D03*
%TO.P,U7,8*%
%TO.N,Net-(U2-Pad13)*%
X96520000Y-99060000D03*
%TO.P,U7,17*%
%TO.N,/COP6*%
X104140000Y-88900000D03*
%TO.P,U7,7*%
%TO.N,Net-(U2-Pad14)*%
X96520000Y-96520000D03*
%TO.P,U7,16*%
%TO.N,/COP5*%
X104140000Y-91440000D03*
%TO.P,U7,6*%
%TO.N,Net-(U2-Pad15)*%
X96520000Y-93980000D03*
%TO.P,U7,15*%
%TO.N,/COP4*%
X104140000Y-93980000D03*
%TO.P,U7,5*%
%TO.N,Net-(U2-Pad16)*%
X96520000Y-91440000D03*
%TO.P,U7,14*%
%TO.N,/COP3*%
X104140000Y-96520000D03*
%TO.P,U7,4*%
%TO.N,Net-(U2-Pad17)*%
X96520000Y-88900000D03*
%TO.P,U7,13*%
%TO.N,/COP2*%
X104140000Y-99060000D03*
%TO.P,U7,3*%
%TO.N,Net-(U2-Pad18)*%
X96520000Y-86360000D03*
%TO.P,U7,12*%
%TO.N,/COP1*%
X104140000Y-101600000D03*
%TO.P,U7,2*%
%TO.N,Net-(U2-Pad19)*%
X96520000Y-83820000D03*
%TO.P,U7,11*%
%TO.N,/COP0*%
X104140000Y-104140000D03*
D20*
%TO.P,U7,1*%
%TO.N,Net-(R3-Pad1)*%
X96520000Y-81280000D03*
%TD*%
D19*
%TO.P,U6,14*%
%TO.N,VCC*%
X78740000Y-20320000D03*
%TO.P,U6,7*%
%TO.N,GND*%
X71120000Y-35560000D03*
%TO.P,U6,13*%
X78740000Y-22860000D03*
%TO.P,U6,6*%
%TO.N,/~RD*%
X71120000Y-33020000D03*
%TO.P,U6,12*%
%TO.N,GND*%
X78740000Y-25400000D03*
%TO.P,U6,5*%
%TO.N,/LT*%
X71120000Y-30480000D03*
%TO.P,U6,11*%
%TO.N,Net-(U6-Pad11)*%
X78740000Y-27940000D03*
%TO.P,U6,4*%
%TO.N,/LT*%
X71120000Y-27940000D03*
%TO.P,U6,10*%
%TO.N,GND*%
X78740000Y-30480000D03*
%TO.P,U6,3*%
%TO.N,/LT*%
X71120000Y-25400000D03*
%TO.P,U6,9*%
%TO.N,GND*%
X78740000Y-33020000D03*
%TO.P,U6,2*%
%TO.N,/C1*%
X71120000Y-22860000D03*
%TO.P,U6,8*%
%TO.N,Net-(U6-Pad8)*%
X78740000Y-35560000D03*
D20*
%TO.P,U6,1*%
%TO.N,/C1*%
X71120000Y-20320000D03*
%TD*%
D19*
%TO.P,U5,20*%
%TO.N,VCC*%
X147320000Y-43180000D03*
%TO.P,U5,10*%
%TO.N,GND*%
X139700000Y-66040000D03*
%TO.P,U5,19*%
%TO.N,/~LDI*%
X147320000Y-45720000D03*
%TO.P,U5,9*%
%TO.N,/CNST0*%
X139700000Y-63500000D03*
%TO.P,U5,18*%
%TO.N,/BUS7*%
X147320000Y-48260000D03*
%TO.P,U5,8*%
%TO.N,/CNST1*%
X139700000Y-60960000D03*
%TO.P,U5,17*%
%TO.N,/BUS6*%
X147320000Y-50800000D03*
%TO.P,U5,7*%
%TO.N,/CNST2*%
X139700000Y-58420000D03*
%TO.P,U5,16*%
%TO.N,/BUS5*%
X147320000Y-53340000D03*
%TO.P,U5,6*%
%TO.N,/CNST3*%
X139700000Y-55880000D03*
%TO.P,U5,15*%
%TO.N,/BUS4*%
X147320000Y-55880000D03*
%TO.P,U5,5*%
%TO.N,/CNST4*%
X139700000Y-53340000D03*
%TO.P,U5,14*%
%TO.N,/BUS3*%
X147320000Y-58420000D03*
%TO.P,U5,4*%
%TO.N,/CNST5*%
X139700000Y-50800000D03*
%TO.P,U5,13*%
%TO.N,/BUS2*%
X147320000Y-60960000D03*
%TO.P,U5,3*%
%TO.N,/CNST6*%
X139700000Y-48260000D03*
%TO.P,U5,12*%
%TO.N,/BUS1*%
X147320000Y-63500000D03*
%TO.P,U5,2*%
%TO.N,/CNST7*%
X139700000Y-45720000D03*
%TO.P,U5,11*%
%TO.N,/BUS0*%
X147320000Y-66040000D03*
D20*
%TO.P,U5,1*%
%TO.N,Net-(R5-Pad1)*%
X139700000Y-43180000D03*
%TD*%
D19*
%TO.P,U4,20*%
%TO.N,VCC*%
X93980000Y-40640000D03*
%TO.P,U4,10*%
%TO.N,GND*%
X86360000Y-63500000D03*
%TO.P,U4,19*%
X93980000Y-43180000D03*
%TO.P,U4,9*%
%TO.N,Net-(U3-Pad12)*%
X86360000Y-60960000D03*
%TO.P,U4,18*%
%TO.N,/CNST7*%
X93980000Y-45720000D03*
%TO.P,U4,8*%
%TO.N,Net-(U3-Pad13)*%
X86360000Y-58420000D03*
%TO.P,U4,17*%
%TO.N,/CNST6*%
X93980000Y-48260000D03*
%TO.P,U4,7*%
%TO.N,Net-(U3-Pad14)*%
X86360000Y-55880000D03*
%TO.P,U4,16*%
%TO.N,/CNST5*%
X93980000Y-50800000D03*
%TO.P,U4,6*%
%TO.N,Net-(U3-Pad15)*%
X86360000Y-53340000D03*
%TO.P,U4,15*%
%TO.N,/CNST4*%
X93980000Y-53340000D03*
%TO.P,U4,5*%
%TO.N,Net-(U3-Pad16)*%
X86360000Y-50800000D03*
%TO.P,U4,14*%
%TO.N,/CNST3*%
X93980000Y-55880000D03*
%TO.P,U4,4*%
%TO.N,Net-(U3-Pad17)*%
X86360000Y-48260000D03*
%TO.P,U4,13*%
%TO.N,/CNST2*%
X93980000Y-58420000D03*
%TO.P,U4,3*%
%TO.N,Net-(U3-Pad18)*%
X86360000Y-45720000D03*
%TO.P,U4,12*%
%TO.N,/CNST1*%
X93980000Y-60960000D03*
%TO.P,U4,2*%
%TO.N,Net-(U3-Pad19)*%
X86360000Y-43180000D03*
%TO.P,U4,11*%
%TO.N,/CNST0*%
X93980000Y-63500000D03*
D20*
%TO.P,U4,1*%
%TO.N,Net-(R4-Pad1)*%
X86360000Y-40640000D03*
%TD*%
D19*
%TO.P,U3,20*%
%TO.N,VCC*%
X78740000Y-40640000D03*
%TO.P,U3,10*%
%TO.N,GND*%
X71120000Y-63500000D03*
%TO.P,U3,19*%
%TO.N,Net-(U3-Pad19)*%
X78740000Y-43180000D03*
%TO.P,U3,9*%
%TO.N,/D8*%
X71120000Y-60960000D03*
%TO.P,U3,18*%
%TO.N,Net-(U3-Pad18)*%
X78740000Y-45720000D03*
%TO.P,U3,8*%
%TO.N,/D9*%
X71120000Y-58420000D03*
%TO.P,U3,17*%
%TO.N,Net-(U3-Pad17)*%
X78740000Y-48260000D03*
%TO.P,U3,7*%
%TO.N,/D10*%
X71120000Y-55880000D03*
%TO.P,U3,16*%
%TO.N,Net-(U3-Pad16)*%
X78740000Y-50800000D03*
%TO.P,U3,6*%
%TO.N,/D11*%
X71120000Y-53340000D03*
%TO.P,U3,15*%
%TO.N,Net-(U3-Pad15)*%
X78740000Y-53340000D03*
%TO.P,U3,5*%
%TO.N,/D12*%
X71120000Y-50800000D03*
%TO.P,U3,14*%
%TO.N,Net-(U3-Pad14)*%
X78740000Y-55880000D03*
%TO.P,U3,4*%
%TO.N,/D13*%
X71120000Y-48260000D03*
%TO.P,U3,13*%
%TO.N,Net-(U3-Pad13)*%
X78740000Y-58420000D03*
%TO.P,U3,3*%
%TO.N,/D14*%
X71120000Y-45720000D03*
%TO.P,U3,12*%
%TO.N,Net-(U3-Pad12)*%
X78740000Y-60960000D03*
%TO.P,U3,2*%
%TO.N,/D15*%
X71120000Y-43180000D03*
%TO.P,U3,11*%
%TO.N,/LT*%
X78740000Y-63500000D03*
D20*
%TO.P,U3,1*%
%TO.N,GND*%
X71120000Y-40640000D03*
%TD*%
D19*
%TO.P,U2,20*%
%TO.N,VCC*%
X78740000Y-81280000D03*
%TO.P,U2,10*%
%TO.N,GND*%
X71120000Y-104140000D03*
%TO.P,U2,19*%
%TO.N,Net-(U2-Pad19)*%
X78740000Y-83820000D03*
%TO.P,U2,9*%
%TO.N,/D0*%
X71120000Y-101600000D03*
%TO.P,U2,18*%
%TO.N,Net-(U2-Pad18)*%
X78740000Y-86360000D03*
%TO.P,U2,8*%
%TO.N,/D1*%
X71120000Y-99060000D03*
%TO.P,U2,17*%
%TO.N,Net-(U2-Pad17)*%
X78740000Y-88900000D03*
%TO.P,U2,7*%
%TO.N,/D2*%
X71120000Y-96520000D03*
%TO.P,U2,16*%
%TO.N,Net-(U2-Pad16)*%
X78740000Y-91440000D03*
%TO.P,U2,6*%
%TO.N,/D3*%
X71120000Y-93980000D03*
%TO.P,U2,15*%
%TO.N,Net-(U2-Pad15)*%
X78740000Y-93980000D03*
%TO.P,U2,5*%
%TO.N,/D4*%
X71120000Y-91440000D03*
%TO.P,U2,14*%
%TO.N,Net-(U2-Pad14)*%
X78740000Y-96520000D03*
%TO.P,U2,4*%
%TO.N,/D5*%
X71120000Y-88900000D03*
%TO.P,U2,13*%
%TO.N,Net-(U2-Pad13)*%
X78740000Y-99060000D03*
%TO.P,U2,3*%
%TO.N,/D6*%
X71120000Y-86360000D03*
%TO.P,U2,12*%
%TO.N,Net-(U2-Pad12)*%
X78740000Y-101600000D03*
%TO.P,U2,2*%
%TO.N,/D7*%
X71120000Y-83820000D03*
%TO.P,U2,11*%
%TO.N,/LT*%
X78740000Y-104140000D03*
D20*
%TO.P,U2,1*%
%TO.N,GND*%
X71120000Y-81280000D03*
%TD*%
D23*
%TO.N,/D7*%
X49530000Y-80010000D03*
X62230000Y-80010000D03*
%TO.N,/D6*%
X50165000Y-85090000D03*
X62230000Y-85090000D03*
%TO.N,/D5*%
X62230000Y-88900000D03*
X50165000Y-88900000D03*
%TO.N,/D4*%
X50165000Y-92710000D03*
X62230000Y-92710000D03*
%TO.N,VCC*%
X35560000Y-68580000D03*
X35560000Y-74295000D03*
X49530000Y-76200000D03*
X66675000Y-76200000D03*
%TO.N,/D3*%
X50165000Y-95885000D03*
X62230000Y-95885000D03*
%TO.N,/D2*%
X62230000Y-99060000D03*
X55245000Y-99060000D03*
%TO.N,/LT*%
X76200000Y-30480000D03*
X76200000Y-67310000D03*
X76200000Y-41910000D03*
X76200000Y-82550000D03*
%TD*%
D24*
%TO.N,/D7*%
X49530000Y-80010000D02*
X49530000Y-80010000D01*
X49530000Y-80010000D02*
X62230000Y-80010000D01*
X62230000Y-80010000D02*
X62230000Y-80010000D01*
%TO.N,/D6*%
X50165000Y-85090000D02*
X62230000Y-85090000D01*
%TO.N,/D5*%
X50165000Y-88900000D02*
X50165000Y-88900000D01*
X50165000Y-88900000D02*
X62230000Y-88900000D01*
%TO.N,/D4*%
X50165000Y-92710000D02*
X50165000Y-92710000D01*
X62230000Y-92710000D02*
X62230000Y-92710000D01*
X50165000Y-92710000D02*
X62230000Y-92710000D01*
%TO.N,VCC*%
X35560000Y-68580000D02*
X35560000Y-74295000D01*
X49530000Y-76200000D02*
X66675000Y-76200000D01*
X63500000Y-76200000D02*
X63500000Y-76200000D01*
%TO.N,/D3*%
X50165000Y-95885000D02*
X62230000Y-95885000D01*
%TO.N,/D2*%
X55245000Y-99060000D02*
X62230000Y-99060000D01*
%TO.N,/LT*%
X76200000Y-30480000D02*
X76200000Y-35560000D01*
X76200000Y-35560000D02*
X76200000Y-41910000D01*
X76200000Y-67310000D02*
X76200000Y-77470000D01*
X76200000Y-82550000D02*
X76200000Y-77470000D01*
%TD*%
M02*
