%TF.GenerationSoftware,KiCad,Pcbnew,(5.1.8)-1*%
%TF.CreationDate,2024-01-29T23:39:16+03:00*%
%TF.ProjectId,ROM,524f4d2e-6b69-4636-9164-5f7063625858,rev?*%
%TF.SameCoordinates,Original*%
%TF.FileFunction,Legend,Bot*%
%TF.FilePolarity,Positive*%
%FSLAX46Y46*%
G04 Gerber Fmt 4.6, Leading zero omitted, Abs format (unit mm)*
G04 Created by KiCad (PCBNEW (5.1.8)-1) date 2024-01-29 23:39:16*
%MOMM*%
%LPD*%
G01*
G04 APERTURE LIST*
%ADD10C,0.150000*%
%ADD11C,0.120000*%
G04 APERTURE END LIST*
D10*
X115490476Y-30567380D02*
X115966666Y-30567380D01*
X116014285Y-31043571D01*
X115966666Y-30995952D01*
X115871428Y-30948333D01*
X115633333Y-30948333D01*
X115538095Y-30995952D01*
X115490476Y-31043571D01*
X115442857Y-31138809D01*
X115442857Y-31376904D01*
X115490476Y-31472142D01*
X115538095Y-31519761D01*
X115633333Y-31567380D01*
X115871428Y-31567380D01*
X115966666Y-31519761D01*
X116014285Y-31472142D01*
X115061904Y-30662619D02*
X115014285Y-30615000D01*
X114919047Y-30567380D01*
X114680952Y-30567380D01*
X114585714Y-30615000D01*
X114538095Y-30662619D01*
X114490476Y-30757857D01*
X114490476Y-30853095D01*
X114538095Y-30995952D01*
X115109523Y-31567380D01*
X114490476Y-31567380D01*
X113871428Y-30567380D02*
X113776190Y-30567380D01*
X113680952Y-30615000D01*
X113633333Y-30662619D01*
X113585714Y-30757857D01*
X113538095Y-30948333D01*
X113538095Y-31186428D01*
X113585714Y-31376904D01*
X113633333Y-31472142D01*
X113680952Y-31519761D01*
X113776190Y-31567380D01*
X113871428Y-31567380D01*
X113966666Y-31519761D01*
X114014285Y-31472142D01*
X114061904Y-31376904D01*
X114109523Y-31186428D01*
X114109523Y-30948333D01*
X114061904Y-30757857D01*
X114014285Y-30662619D01*
X113966666Y-30615000D01*
X113871428Y-30567380D01*
X113204761Y-30567380D02*
X112585714Y-30567380D01*
X112919047Y-30948333D01*
X112776190Y-30948333D01*
X112680952Y-30995952D01*
X112633333Y-31043571D01*
X112585714Y-31138809D01*
X112585714Y-31376904D01*
X112633333Y-31472142D01*
X112680952Y-31519761D01*
X112776190Y-31567380D01*
X113061904Y-31567380D01*
X113157142Y-31519761D01*
X113204761Y-31472142D01*
D11*
%TO.C,Q1*%
X113540000Y-29520000D02*
X113540000Y-28590000D01*
X113540000Y-26360000D02*
X113540000Y-27290000D01*
X113540000Y-26360000D02*
X115700000Y-26360000D01*
X113540000Y-29520000D02*
X115000000Y-29520000D01*
%TO.C,C7*%
X145515000Y-46093748D02*
X145515000Y-46616252D01*
X144045000Y-46093748D02*
X144045000Y-46616252D01*
%TO.C,C6*%
X76461252Y-17680000D02*
X75938748Y-17680000D01*
X76461252Y-19150000D02*
X75938748Y-19150000D01*
%TO.C,C5*%
X99912500Y-84108748D02*
X99912500Y-84631252D01*
X101382500Y-84108748D02*
X101382500Y-84631252D01*
%TO.C,C4*%
X89752500Y-43553748D02*
X89752500Y-44076252D01*
X91222500Y-43553748D02*
X91222500Y-44076252D01*
%TO.C,C3*%
X76058752Y-38635000D02*
X75536248Y-38635000D01*
X76058752Y-40105000D02*
X75536248Y-40105000D01*
%TO.C,C2*%
X76228752Y-78640000D02*
X75706248Y-78640000D01*
X76228752Y-80110000D02*
X75706248Y-80110000D01*
%TO.C,R6*%
X149125000Y-44677064D02*
X149125000Y-44222936D01*
X150595000Y-44677064D02*
X150595000Y-44222936D01*
%TO.C,R5*%
X143552936Y-43915000D02*
X144007064Y-43915000D01*
X143552936Y-42445000D02*
X144007064Y-42445000D01*
%TO.C,R4*%
X89307936Y-41375000D02*
X89762064Y-41375000D01*
X89307936Y-39905000D02*
X89762064Y-39905000D01*
%TO.C,R3*%
X99467936Y-82015000D02*
X99922064Y-82015000D01*
X99467936Y-80545000D02*
X99922064Y-80545000D01*
%TO.C,R2*%
X39327064Y-69315000D02*
X38872936Y-69315000D01*
X39327064Y-67845000D02*
X38872936Y-67845000D01*
%TO.C,R1*%
X39327064Y-43915000D02*
X38872936Y-43915000D01*
X39327064Y-42445000D02*
X38872936Y-42445000D01*
%TO.C,Q1*%
D10*
X114395238Y-25987619D02*
X114490476Y-25940000D01*
X114585714Y-25844761D01*
X114728571Y-25701904D01*
X114823809Y-25654285D01*
X114919047Y-25654285D01*
X114871428Y-25892380D02*
X114966666Y-25844761D01*
X115061904Y-25749523D01*
X115109523Y-25559047D01*
X115109523Y-25225714D01*
X115061904Y-25035238D01*
X114966666Y-24940000D01*
X114871428Y-24892380D01*
X114680952Y-24892380D01*
X114585714Y-24940000D01*
X114490476Y-25035238D01*
X114442857Y-25225714D01*
X114442857Y-25559047D01*
X114490476Y-25749523D01*
X114585714Y-25844761D01*
X114680952Y-25892380D01*
X114871428Y-25892380D01*
X113490476Y-25892380D02*
X114061904Y-25892380D01*
X113776190Y-25892380D02*
X113776190Y-24892380D01*
X113871428Y-25035238D01*
X113966666Y-25130476D01*
X114061904Y-25178095D01*
%TO.C,C7*%
X145137142Y-49363333D02*
X145184761Y-49315714D01*
X145232380Y-49172857D01*
X145232380Y-49077619D01*
X145184761Y-48934761D01*
X145089523Y-48839523D01*
X144994285Y-48791904D01*
X144803809Y-48744285D01*
X144660952Y-48744285D01*
X144470476Y-48791904D01*
X144375238Y-48839523D01*
X144280000Y-48934761D01*
X144232380Y-49077619D01*
X144232380Y-49172857D01*
X144280000Y-49315714D01*
X144327619Y-49363333D01*
X144232380Y-49696666D02*
X144232380Y-50363333D01*
X145232380Y-49934761D01*
%TO.C,C6*%
X76366666Y-17092142D02*
X76414285Y-17139761D01*
X76557142Y-17187380D01*
X76652380Y-17187380D01*
X76795238Y-17139761D01*
X76890476Y-17044523D01*
X76938095Y-16949285D01*
X76985714Y-16758809D01*
X76985714Y-16615952D01*
X76938095Y-16425476D01*
X76890476Y-16330238D01*
X76795238Y-16235000D01*
X76652380Y-16187380D01*
X76557142Y-16187380D01*
X76414285Y-16235000D01*
X76366666Y-16282619D01*
X75509523Y-16187380D02*
X75700000Y-16187380D01*
X75795238Y-16235000D01*
X75842857Y-16282619D01*
X75938095Y-16425476D01*
X75985714Y-16615952D01*
X75985714Y-16996904D01*
X75938095Y-17092142D01*
X75890476Y-17139761D01*
X75795238Y-17187380D01*
X75604761Y-17187380D01*
X75509523Y-17139761D01*
X75461904Y-17092142D01*
X75414285Y-16996904D01*
X75414285Y-16758809D01*
X75461904Y-16663571D01*
X75509523Y-16615952D01*
X75604761Y-16568333D01*
X75795238Y-16568333D01*
X75890476Y-16615952D01*
X75938095Y-16663571D01*
X75985714Y-16758809D01*
%TO.C,C5*%
X101004642Y-87145833D02*
X101052261Y-87098214D01*
X101099880Y-86955357D01*
X101099880Y-86860119D01*
X101052261Y-86717261D01*
X100957023Y-86622023D01*
X100861785Y-86574404D01*
X100671309Y-86526785D01*
X100528452Y-86526785D01*
X100337976Y-86574404D01*
X100242738Y-86622023D01*
X100147500Y-86717261D01*
X100099880Y-86860119D01*
X100099880Y-86955357D01*
X100147500Y-87098214D01*
X100195119Y-87145833D01*
X100099880Y-88050595D02*
X100099880Y-87574404D01*
X100576071Y-87526785D01*
X100528452Y-87574404D01*
X100480833Y-87669642D01*
X100480833Y-87907738D01*
X100528452Y-88002976D01*
X100576071Y-88050595D01*
X100671309Y-88098214D01*
X100909404Y-88098214D01*
X101004642Y-88050595D01*
X101052261Y-88002976D01*
X101099880Y-87907738D01*
X101099880Y-87669642D01*
X101052261Y-87574404D01*
X101004642Y-87526785D01*
%TO.C,C4*%
X90844642Y-46188333D02*
X90892261Y-46140714D01*
X90939880Y-45997857D01*
X90939880Y-45902619D01*
X90892261Y-45759761D01*
X90797023Y-45664523D01*
X90701785Y-45616904D01*
X90511309Y-45569285D01*
X90368452Y-45569285D01*
X90177976Y-45616904D01*
X90082738Y-45664523D01*
X89987500Y-45759761D01*
X89939880Y-45902619D01*
X89939880Y-45997857D01*
X89987500Y-46140714D01*
X90035119Y-46188333D01*
X90273214Y-47045476D02*
X90939880Y-47045476D01*
X89892261Y-46807380D02*
X90606547Y-46569285D01*
X90606547Y-47188333D01*
%TO.C,C3*%
X75964166Y-38047142D02*
X76011785Y-38094761D01*
X76154642Y-38142380D01*
X76249880Y-38142380D01*
X76392738Y-38094761D01*
X76487976Y-37999523D01*
X76535595Y-37904285D01*
X76583214Y-37713809D01*
X76583214Y-37570952D01*
X76535595Y-37380476D01*
X76487976Y-37285238D01*
X76392738Y-37190000D01*
X76249880Y-37142380D01*
X76154642Y-37142380D01*
X76011785Y-37190000D01*
X75964166Y-37237619D01*
X75630833Y-37142380D02*
X75011785Y-37142380D01*
X75345119Y-37523333D01*
X75202261Y-37523333D01*
X75107023Y-37570952D01*
X75059404Y-37618571D01*
X75011785Y-37713809D01*
X75011785Y-37951904D01*
X75059404Y-38047142D01*
X75107023Y-38094761D01*
X75202261Y-38142380D01*
X75487976Y-38142380D01*
X75583214Y-38094761D01*
X75630833Y-38047142D01*
%TO.C,C2*%
X76134166Y-78052142D02*
X76181785Y-78099761D01*
X76324642Y-78147380D01*
X76419880Y-78147380D01*
X76562738Y-78099761D01*
X76657976Y-78004523D01*
X76705595Y-77909285D01*
X76753214Y-77718809D01*
X76753214Y-77575952D01*
X76705595Y-77385476D01*
X76657976Y-77290238D01*
X76562738Y-77195000D01*
X76419880Y-77147380D01*
X76324642Y-77147380D01*
X76181785Y-77195000D01*
X76134166Y-77242619D01*
X75753214Y-77242619D02*
X75705595Y-77195000D01*
X75610357Y-77147380D01*
X75372261Y-77147380D01*
X75277023Y-77195000D01*
X75229404Y-77242619D01*
X75181785Y-77337857D01*
X75181785Y-77433095D01*
X75229404Y-77575952D01*
X75800833Y-78147380D01*
X75181785Y-78147380D01*
%TO.C,R6*%
X150312380Y-47458333D02*
X149836190Y-47125000D01*
X150312380Y-46886904D02*
X149312380Y-46886904D01*
X149312380Y-47267857D01*
X149360000Y-47363095D01*
X149407619Y-47410714D01*
X149502857Y-47458333D01*
X149645714Y-47458333D01*
X149740952Y-47410714D01*
X149788571Y-47363095D01*
X149836190Y-47267857D01*
X149836190Y-46886904D01*
X149312380Y-48315476D02*
X149312380Y-48125000D01*
X149360000Y-48029761D01*
X149407619Y-47982142D01*
X149550476Y-47886904D01*
X149740952Y-47839285D01*
X150121904Y-47839285D01*
X150217142Y-47886904D01*
X150264761Y-47934523D01*
X150312380Y-48029761D01*
X150312380Y-48220238D01*
X150264761Y-48315476D01*
X150217142Y-48363095D01*
X150121904Y-48410714D01*
X149883809Y-48410714D01*
X149788571Y-48363095D01*
X149740952Y-48315476D01*
X149693333Y-48220238D01*
X149693333Y-48029761D01*
X149740952Y-47934523D01*
X149788571Y-47886904D01*
X149883809Y-47839285D01*
%TO.C,R5*%
X143676666Y-41727380D02*
X144010000Y-41251190D01*
X144248095Y-41727380D02*
X144248095Y-40727380D01*
X143867142Y-40727380D01*
X143771904Y-40775000D01*
X143724285Y-40822619D01*
X143676666Y-40917857D01*
X143676666Y-41060714D01*
X143724285Y-41155952D01*
X143771904Y-41203571D01*
X143867142Y-41251190D01*
X144248095Y-41251190D01*
X142771904Y-40727380D02*
X143248095Y-40727380D01*
X143295714Y-41203571D01*
X143248095Y-41155952D01*
X143152857Y-41108333D01*
X142914761Y-41108333D01*
X142819523Y-41155952D01*
X142771904Y-41203571D01*
X142724285Y-41298809D01*
X142724285Y-41536904D01*
X142771904Y-41632142D01*
X142819523Y-41679761D01*
X142914761Y-41727380D01*
X143152857Y-41727380D01*
X143248095Y-41679761D01*
X143295714Y-41632142D01*
%TO.C,R4*%
X90019166Y-39187380D02*
X90352500Y-38711190D01*
X90590595Y-39187380D02*
X90590595Y-38187380D01*
X90209642Y-38187380D01*
X90114404Y-38235000D01*
X90066785Y-38282619D01*
X90019166Y-38377857D01*
X90019166Y-38520714D01*
X90066785Y-38615952D01*
X90114404Y-38663571D01*
X90209642Y-38711190D01*
X90590595Y-38711190D01*
X89162023Y-38520714D02*
X89162023Y-39187380D01*
X89400119Y-38139761D02*
X89638214Y-38854047D01*
X89019166Y-38854047D01*
%TO.C,R3*%
X99861666Y-79827380D02*
X100195000Y-79351190D01*
X100433095Y-79827380D02*
X100433095Y-78827380D01*
X100052142Y-78827380D01*
X99956904Y-78875000D01*
X99909285Y-78922619D01*
X99861666Y-79017857D01*
X99861666Y-79160714D01*
X99909285Y-79255952D01*
X99956904Y-79303571D01*
X100052142Y-79351190D01*
X100433095Y-79351190D01*
X99528333Y-78827380D02*
X98909285Y-78827380D01*
X99242619Y-79208333D01*
X99099761Y-79208333D01*
X99004523Y-79255952D01*
X98956904Y-79303571D01*
X98909285Y-79398809D01*
X98909285Y-79636904D01*
X98956904Y-79732142D01*
X99004523Y-79779761D01*
X99099761Y-79827380D01*
X99385476Y-79827380D01*
X99480714Y-79779761D01*
X99528333Y-79732142D01*
%TO.C,R2*%
X39266666Y-67382380D02*
X39600000Y-66906190D01*
X39838095Y-67382380D02*
X39838095Y-66382380D01*
X39457142Y-66382380D01*
X39361904Y-66430000D01*
X39314285Y-66477619D01*
X39266666Y-66572857D01*
X39266666Y-66715714D01*
X39314285Y-66810952D01*
X39361904Y-66858571D01*
X39457142Y-66906190D01*
X39838095Y-66906190D01*
X38885714Y-66477619D02*
X38838095Y-66430000D01*
X38742857Y-66382380D01*
X38504761Y-66382380D01*
X38409523Y-66430000D01*
X38361904Y-66477619D01*
X38314285Y-66572857D01*
X38314285Y-66668095D01*
X38361904Y-66810952D01*
X38933333Y-67382380D01*
X38314285Y-67382380D01*
%TO.C,R1*%
X39266666Y-41982380D02*
X39600000Y-41506190D01*
X39838095Y-41982380D02*
X39838095Y-40982380D01*
X39457142Y-40982380D01*
X39361904Y-41030000D01*
X39314285Y-41077619D01*
X39266666Y-41172857D01*
X39266666Y-41315714D01*
X39314285Y-41410952D01*
X39361904Y-41458571D01*
X39457142Y-41506190D01*
X39838095Y-41506190D01*
X38314285Y-41982380D02*
X38885714Y-41982380D01*
X38600000Y-41982380D02*
X38600000Y-40982380D01*
X38695238Y-41125238D01*
X38790476Y-41220476D01*
X38885714Y-41268095D01*
%TD*%
M02*
