M48
METRIC
T1C0.500
T2C0.800
T3C0.900
T4C1.000
T5C1.200
T6C1.300
T7C3.200
%
G90
G05
T1
X41.91Y-62.865
X52.07Y-46.99
X54.61Y-83.82
X57.15Y-44.45
X59.69Y-86.36
X62.23Y-41.91
X64.77Y-88.9
X69.85Y-62.865
X80.645Y-49.53
X80.645Y-104.14
X81.915Y-23.495
X81.915Y-49.53
X90.17Y-52.07
X90.17Y-107.95
T2
X133.35Y-31.75
X133.35Y-34.29
X133.35Y-36.83
X133.35Y-39.37
X133.35Y-41.91
X133.35Y-44.45
X133.35Y-46.99
X133.35Y-49.53
X133.35Y-52.07
X96.52Y-81.28
X96.52Y-83.82
X96.52Y-86.36
X96.52Y-88.9
X96.52Y-91.44
X96.52Y-93.98
X96.52Y-96.52
X96.52Y-99.06
X96.52Y-101.6
X96.52Y-104.14
X104.14Y-81.28
X104.14Y-83.82
X104.14Y-86.36
X104.14Y-88.9
X104.14Y-91.44
X104.14Y-93.98
X104.14Y-96.52
X104.14Y-99.06
X104.14Y-101.6
X104.14Y-104.14
X16.51Y-57.785
X16.51Y-73.025
X19.05Y-57.785
X19.05Y-73.025
X21.59Y-57.785
X21.59Y-73.025
X24.13Y-57.785
X24.13Y-73.025
X26.67Y-57.785
X26.67Y-73.025
X29.21Y-57.785
X29.21Y-73.025
X31.75Y-57.785
X31.75Y-73.025
X34.29Y-57.785
X34.29Y-73.025
X36.83Y-57.785
X36.83Y-73.025
X39.37Y-57.785
X39.37Y-73.025
X41.91Y-57.785
X41.91Y-73.025
X44.45Y-57.785
X44.45Y-73.025
X46.99Y-57.785
X46.99Y-73.025
X49.53Y-57.785
X49.53Y-73.025
X52.07Y-57.785
X52.07Y-73.025
X54.61Y-57.785
X54.61Y-73.025
X57.15Y-57.785
X57.15Y-73.025
X59.69Y-57.785
X59.69Y-73.025
X62.23Y-57.785
X62.23Y-73.025
X64.77Y-57.785
X64.77Y-73.025
X67.31Y-57.785
X67.31Y-73.025
X69.85Y-57.785
X69.85Y-73.025
X86.36Y-26.67
X86.36Y-29.21
X86.36Y-31.75
X86.36Y-34.29
X86.36Y-36.83
X86.36Y-39.37
X86.36Y-41.91
X86.36Y-44.45
X86.36Y-46.99
X86.36Y-49.53
X93.98Y-26.67
X93.98Y-29.21
X93.98Y-31.75
X93.98Y-34.29
X93.98Y-36.83
X93.98Y-39.37
X93.98Y-41.91
X93.98Y-44.45
X93.98Y-46.99
X93.98Y-49.53
X19.05Y-25.4
X19.05Y-27.94
X19.05Y-30.48
X19.05Y-33.02
X19.05Y-35.56
X19.05Y-38.1
X19.05Y-40.64
X19.05Y-43.18
X19.05Y-45.72
X71.12Y-81.28
X71.12Y-83.82
X71.12Y-86.36
X71.12Y-88.9
X71.12Y-91.44
X71.12Y-93.98
X71.12Y-96.52
X71.12Y-99.06
X71.12Y-101.6
X71.12Y-104.14
X78.74Y-81.28
X78.74Y-83.82
X78.74Y-86.36
X78.74Y-88.9
X78.74Y-91.44
X78.74Y-93.98
X78.74Y-96.52
X78.74Y-99.06
X78.74Y-101.6
X78.74Y-104.14
X48.26Y-19.05
X48.26Y-26.67
X50.8Y-19.05
X50.8Y-26.67
X53.34Y-19.05
X53.34Y-26.67
X55.88Y-19.05
X55.88Y-26.67
X58.42Y-19.05
X58.42Y-26.67
X60.96Y-19.05
X60.96Y-26.67
X63.5Y-19.05
X63.5Y-26.67
X143.51Y-86.36
X143.51Y-88.9
X143.51Y-91.44
X143.51Y-93.98
X143.51Y-96.52
X143.51Y-99.06
X143.51Y-101.6
X143.51Y-104.14
X143.51Y-106.68
X71.12Y-26.67
X71.12Y-29.21
X71.12Y-31.75
X71.12Y-34.29
X71.12Y-36.83
X71.12Y-39.37
X71.12Y-41.91
X71.12Y-44.45
X71.12Y-46.99
X71.12Y-49.53
X78.74Y-26.67
X78.74Y-29.21
X78.74Y-31.75
X78.74Y-34.29
X78.74Y-36.83
X78.74Y-39.37
X78.74Y-41.91
X78.74Y-44.45
X78.74Y-46.99
X78.74Y-49.53
X139.7Y-29.21
X139.7Y-31.75
X139.7Y-34.29
X139.7Y-36.83
X139.7Y-39.37
X139.7Y-41.91
X139.7Y-44.45
X139.7Y-46.99
X139.7Y-49.53
X139.7Y-52.07
X147.32Y-29.21
X147.32Y-31.75
X147.32Y-34.29
X147.32Y-36.83
X147.32Y-39.37
X147.32Y-41.91
X147.32Y-44.45
X147.32Y-46.99
X147.32Y-49.53
X147.32Y-52.07
T3
X121.92Y-26.67
X121.92Y-29.21
X121.92Y-31.75
X121.92Y-34.29
X121.92Y-36.83
X121.92Y-39.37
X121.92Y-41.91
X121.92Y-44.45
X121.92Y-46.99
X121.92Y-49.53
X129.54Y-26.67
X129.54Y-29.21
X129.54Y-31.75
X129.54Y-34.29
X129.54Y-36.83
X129.54Y-39.37
X129.54Y-41.91
X129.54Y-44.45
X129.54Y-46.99
X129.54Y-49.53
X132.08Y-81.28
X132.08Y-83.82
X132.08Y-86.36
X132.08Y-88.9
X132.08Y-91.44
X132.08Y-93.98
X132.08Y-96.52
X132.08Y-99.06
X132.08Y-101.6
X132.08Y-104.14
X139.7Y-81.28
X139.7Y-83.82
X139.7Y-86.36
X139.7Y-88.9
X139.7Y-91.44
X139.7Y-93.98
X139.7Y-96.52
X139.7Y-99.06
X139.7Y-101.6
X139.7Y-104.14
T4
X13.97Y-25.4
X13.97Y-27.94
X13.97Y-30.48
X13.97Y-33.02
X13.97Y-35.56
X13.97Y-38.1
X13.97Y-40.64
X13.97Y-43.18
X13.97Y-45.72
X13.97Y-53.34
X74.93Y-26.67
X74.93Y-34.17
X13.97Y-78.74
X13.97Y-81.28
X13.97Y-83.82
X13.97Y-86.36
X13.97Y-88.9
X13.97Y-91.44
X13.97Y-93.98
X13.97Y-96.52
X13.97Y-99.06
X13.97Y-50.8
X74.93Y-81.28
X74.93Y-88.78
X90.17Y-26.67
X90.17Y-34.17
X106.68Y-31.75
X106.68Y-34.29
X106.68Y-36.83
X106.68Y-39.37
X106.68Y-41.91
X106.68Y-44.45
X106.68Y-46.99
X106.68Y-49.53
X106.68Y-52.07
X143.51Y-29.21
X143.51Y-36.71
X152.4Y-29.21
X116.84Y-86.36
X116.84Y-88.9
X116.84Y-91.44
X116.84Y-93.98
X116.84Y-96.52
X116.84Y-99.06
X116.84Y-101.6
X116.84Y-104.14
X116.84Y-106.68
X99.06Y-31.75
X99.06Y-34.29
X99.06Y-36.83
X99.06Y-39.37
X99.06Y-41.91
X99.06Y-44.45
X99.06Y-46.99
X99.06Y-49.53
X99.06Y-52.07
X152.4Y-34.29
X152.4Y-36.83
X152.4Y-39.37
X152.4Y-41.91
X152.4Y-44.45
X152.4Y-46.99
X152.4Y-49.53
X152.4Y-52.07
X152.4Y-54.61
X114.3Y-31.75
X114.3Y-34.29
X114.3Y-36.83
X114.3Y-39.37
X114.3Y-41.91
X114.3Y-44.45
X114.3Y-46.99
X114.3Y-49.53
X114.3Y-52.07
X100.647Y-81.28
X100.647Y-88.78
X124.46Y-86.36
X124.46Y-88.9
X124.46Y-91.44
X124.46Y-93.98
X124.46Y-96.52
X124.46Y-99.06
X124.46Y-101.6
X124.46Y-104.14
X124.46Y-106.68
X109.22Y-86.36
X109.22Y-88.9
X109.22Y-91.44
X109.22Y-93.98
X109.22Y-96.52
X109.22Y-99.06
X109.22Y-101.6
X109.22Y-104.14
X109.22Y-106.68
X48.26Y-22.86
X55.76Y-22.86
X50.8Y-31.75
T5
X47.35Y-65.405
X69.85Y-65.405
T6
X104.22Y-20.32
X109.22Y-20.32
T7
X85.09Y-104.14
X154.94Y-15.24
X85.09Y-15.24
X15.24Y-15.24
X154.94Y-104.14
X15.24Y-104.14
T0
M30
