%TF.GenerationSoftware,KiCad,Pcbnew,(5.1.8)-1*%
%TF.CreationDate,2023-08-11T23:22:33+03:00*%
%TF.ProjectId,MUX8x1-v5,4d555838-7831-42d7-9635-2e6b69636164,rev?*%
%TF.SameCoordinates,Original*%
%TF.FileFunction,Copper,L1,Top*%
%TF.FilePolarity,Positive*%
%FSLAX46Y46*%
G04 Gerber Fmt 4.6, Leading zero omitted, Abs format (unit mm)*
G04 Created by KiCad (PCBNEW (5.1.8)-1) date 2023-08-11 23:22:33*
%MOMM*%
%LPD*%
G01*
G04 APERTURE LIST*
%TA.AperFunction,NonConductor*%
%ADD10C,0.300000*%
%TD*%
%TA.AperFunction,ComponentPad*%
%ADD11R,1.700000X1.700000*%
%TD*%
%TA.AperFunction,ComponentPad*%
%ADD12O,1.500000X1.600000*%
%TD*%
%TA.AperFunction,ComponentPad*%
%ADD13O,1.600000X1.600000*%
%TD*%
%TA.AperFunction,ComponentPad*%
%ADD14R,1.600000X1.600000*%
%TD*%
%TA.AperFunction,ComponentPad*%
%ADD15O,2.200000X2.200000*%
%TD*%
%TA.AperFunction,ComponentPad*%
%ADD16R,2.200000X2.200000*%
%TD*%
%TA.AperFunction,ComponentPad*%
%ADD17O,1.500000X1.800000*%
%TD*%
%TA.AperFunction,ComponentPad*%
%ADD18R,1.500000X1.800000*%
%TD*%
%TA.AperFunction,ComponentPad*%
%ADD19O,1.800000X1.500000*%
%TD*%
%TA.AperFunction,ComponentPad*%
%ADD20R,1.800000X1.500000*%
%TD*%
%TA.AperFunction,ComponentPad*%
%ADD21C,2.600000*%
%TD*%
%TA.AperFunction,ComponentPad*%
%ADD22R,2.600000X2.600000*%
%TD*%
%TA.AperFunction,ViaPad*%
%ADD23C,1.200000*%
%TD*%
%TA.AperFunction,ViaPad*%
%ADD24C,1.500000*%
%TD*%
%TA.AperFunction,Conductor*%
%ADD25C,0.500000*%
%TD*%
G04 APERTURE END LIST*
D10*
X58214285Y-125773571D02*
X57357142Y-125773571D01*
X57785714Y-125773571D02*
X57785714Y-124273571D01*
X57642857Y-124487857D01*
X57500000Y-124630714D01*
X57357142Y-124702142D01*
X59642857Y-125773571D02*
X58785714Y-125773571D01*
X59214285Y-125773571D02*
X59214285Y-124273571D01*
X59071428Y-124487857D01*
X58928571Y-124630714D01*
X58785714Y-124702142D01*
X60285714Y-125630714D02*
X60357142Y-125702142D01*
X60285714Y-125773571D01*
X60214285Y-125702142D01*
X60285714Y-125630714D01*
X60285714Y-125773571D01*
X61285714Y-124273571D02*
X61428571Y-124273571D01*
X61571428Y-124345000D01*
X61642857Y-124416428D01*
X61714285Y-124559285D01*
X61785714Y-124845000D01*
X61785714Y-125202142D01*
X61714285Y-125487857D01*
X61642857Y-125630714D01*
X61571428Y-125702142D01*
X61428571Y-125773571D01*
X61285714Y-125773571D01*
X61142857Y-125702142D01*
X61071428Y-125630714D01*
X61000000Y-125487857D01*
X60928571Y-125202142D01*
X60928571Y-124845000D01*
X61000000Y-124559285D01*
X61071428Y-124416428D01*
X61142857Y-124345000D01*
X61285714Y-124273571D01*
X62642857Y-124916428D02*
X62500000Y-124845000D01*
X62428571Y-124773571D01*
X62357142Y-124630714D01*
X62357142Y-124559285D01*
X62428571Y-124416428D01*
X62500000Y-124345000D01*
X62642857Y-124273571D01*
X62928571Y-124273571D01*
X63071428Y-124345000D01*
X63142857Y-124416428D01*
X63214285Y-124559285D01*
X63214285Y-124630714D01*
X63142857Y-124773571D01*
X63071428Y-124845000D01*
X62928571Y-124916428D01*
X62642857Y-124916428D01*
X62500000Y-124987857D01*
X62428571Y-125059285D01*
X62357142Y-125202142D01*
X62357142Y-125487857D01*
X62428571Y-125630714D01*
X62500000Y-125702142D01*
X62642857Y-125773571D01*
X62928571Y-125773571D01*
X63071428Y-125702142D01*
X63142857Y-125630714D01*
X63214285Y-125487857D01*
X63214285Y-125202142D01*
X63142857Y-125059285D01*
X63071428Y-124987857D01*
X62928571Y-124916428D01*
X63857142Y-125630714D02*
X63928571Y-125702142D01*
X63857142Y-125773571D01*
X63785714Y-125702142D01*
X63857142Y-125630714D01*
X63857142Y-125773571D01*
X64500000Y-124416428D02*
X64571428Y-124345000D01*
X64714285Y-124273571D01*
X65071428Y-124273571D01*
X65214285Y-124345000D01*
X65285714Y-124416428D01*
X65357142Y-124559285D01*
X65357142Y-124702142D01*
X65285714Y-124916428D01*
X64428571Y-125773571D01*
X65357142Y-125773571D01*
X66285714Y-124273571D02*
X66428571Y-124273571D01*
X66571428Y-124345000D01*
X66642857Y-124416428D01*
X66714285Y-124559285D01*
X66785714Y-124845000D01*
X66785714Y-125202142D01*
X66714285Y-125487857D01*
X66642857Y-125630714D01*
X66571428Y-125702142D01*
X66428571Y-125773571D01*
X66285714Y-125773571D01*
X66142857Y-125702142D01*
X66071428Y-125630714D01*
X66000000Y-125487857D01*
X65928571Y-125202142D01*
X65928571Y-124845000D01*
X66000000Y-124559285D01*
X66071428Y-124416428D01*
X66142857Y-124345000D01*
X66285714Y-124273571D01*
X67357142Y-124416428D02*
X67428571Y-124345000D01*
X67571428Y-124273571D01*
X67928571Y-124273571D01*
X68071428Y-124345000D01*
X68142857Y-124416428D01*
X68214285Y-124559285D01*
X68214285Y-124702142D01*
X68142857Y-124916428D01*
X67285714Y-125773571D01*
X68214285Y-125773571D01*
X68714285Y-124273571D02*
X69642857Y-124273571D01*
X69142857Y-124845000D01*
X69357142Y-124845000D01*
X69500000Y-124916428D01*
X69571428Y-124987857D01*
X69642857Y-125130714D01*
X69642857Y-125487857D01*
X69571428Y-125630714D01*
X69500000Y-125702142D01*
X69357142Y-125773571D01*
X68928571Y-125773571D01*
X68785714Y-125702142D01*
X68714285Y-125630714D01*
X59214285Y-120463571D02*
X60214285Y-120463571D01*
X59571428Y-121963571D01*
X61428571Y-120963571D02*
X61428571Y-121963571D01*
X61071428Y-120392142D02*
X60714285Y-121463571D01*
X61642857Y-121463571D01*
X62214285Y-121963571D02*
X62214285Y-120463571D01*
X62214285Y-121177857D02*
X63071428Y-121177857D01*
X63071428Y-121963571D02*
X63071428Y-120463571D01*
X64642857Y-121820714D02*
X64571428Y-121892142D01*
X64357142Y-121963571D01*
X64214285Y-121963571D01*
X64000000Y-121892142D01*
X63857142Y-121749285D01*
X63785714Y-121606428D01*
X63714285Y-121320714D01*
X63714285Y-121106428D01*
X63785714Y-120820714D01*
X63857142Y-120677857D01*
X64000000Y-120535000D01*
X64214285Y-120463571D01*
X64357142Y-120463571D01*
X64571428Y-120535000D01*
X64642857Y-120606428D01*
X65285714Y-121963571D02*
X65285714Y-120463571D01*
X65857142Y-120463571D01*
X66000000Y-120535000D01*
X66071428Y-120606428D01*
X66142857Y-120749285D01*
X66142857Y-120963571D01*
X66071428Y-121106428D01*
X66000000Y-121177857D01*
X65857142Y-121249285D01*
X65285714Y-121249285D01*
X66785714Y-120463571D02*
X66785714Y-121677857D01*
X66857142Y-121820714D01*
X66928571Y-121892142D01*
X67071428Y-121963571D01*
X67357142Y-121963571D01*
X67500000Y-121892142D01*
X67571428Y-121820714D01*
X67642857Y-121677857D01*
X67642857Y-120463571D01*
D11*
%TO.P,J13,1*%
%TO.N,/~EL*%
X151130000Y-104140000D03*
%TD*%
%TO.P,R6,2*%
%TO.N,/S2*%
%TA.AperFunction,SMDPad,CuDef*%
G36*
G01*
X142690001Y-117980000D02*
X141789999Y-117980000D01*
G75*
G02*
X141540000Y-117730001I0J249999D01*
G01*
X141540000Y-117029999D01*
G75*
G02*
X141789999Y-116780000I249999J0D01*
G01*
X142690001Y-116780000D01*
G75*
G02*
X142940000Y-117029999I0J-249999D01*
G01*
X142940000Y-117730001D01*
G75*
G02*
X142690001Y-117980000I-249999J0D01*
G01*
G37*
%TD.AperFunction*%
%TO.P,R6,1*%
%TO.N,Net-(D3-Pad2)*%
%TA.AperFunction,SMDPad,CuDef*%
G36*
G01*
X142690001Y-119980000D02*
X141789999Y-119980000D01*
G75*
G02*
X141540000Y-119730001I0J249999D01*
G01*
X141540000Y-119029999D01*
G75*
G02*
X141789999Y-118780000I249999J0D01*
G01*
X142690001Y-118780000D01*
G75*
G02*
X142940000Y-119029999I0J-249999D01*
G01*
X142940000Y-119730001D01*
G75*
G02*
X142690001Y-119980000I-249999J0D01*
G01*
G37*
%TD.AperFunction*%
%TD*%
%TO.P,R5,2*%
%TO.N,/S1*%
%TA.AperFunction,SMDPad,CuDef*%
G36*
G01*
X145230001Y-117980000D02*
X144329999Y-117980000D01*
G75*
G02*
X144080000Y-117730001I0J249999D01*
G01*
X144080000Y-117029999D01*
G75*
G02*
X144329999Y-116780000I249999J0D01*
G01*
X145230001Y-116780000D01*
G75*
G02*
X145480000Y-117029999I0J-249999D01*
G01*
X145480000Y-117730001D01*
G75*
G02*
X145230001Y-117980000I-249999J0D01*
G01*
G37*
%TD.AperFunction*%
%TO.P,R5,1*%
%TO.N,Net-(D2-Pad2)*%
%TA.AperFunction,SMDPad,CuDef*%
G36*
G01*
X145230001Y-119980000D02*
X144329999Y-119980000D01*
G75*
G02*
X144080000Y-119730001I0J249999D01*
G01*
X144080000Y-119029999D01*
G75*
G02*
X144329999Y-118780000I249999J0D01*
G01*
X145230001Y-118780000D01*
G75*
G02*
X145480000Y-119029999I0J-249999D01*
G01*
X145480000Y-119730001D01*
G75*
G02*
X145230001Y-119980000I-249999J0D01*
G01*
G37*
%TD.AperFunction*%
%TD*%
%TO.P,R4,2*%
%TO.N,/S0*%
%TA.AperFunction,SMDPad,CuDef*%
G36*
G01*
X147770001Y-117980000D02*
X146869999Y-117980000D01*
G75*
G02*
X146620000Y-117730001I0J249999D01*
G01*
X146620000Y-117029999D01*
G75*
G02*
X146869999Y-116780000I249999J0D01*
G01*
X147770001Y-116780000D01*
G75*
G02*
X148020000Y-117029999I0J-249999D01*
G01*
X148020000Y-117730001D01*
G75*
G02*
X147770001Y-117980000I-249999J0D01*
G01*
G37*
%TD.AperFunction*%
%TO.P,R4,1*%
%TO.N,Net-(D1-Pad2)*%
%TA.AperFunction,SMDPad,CuDef*%
G36*
G01*
X147770001Y-119980000D02*
X146869999Y-119980000D01*
G75*
G02*
X146620000Y-119730001I0J249999D01*
G01*
X146620000Y-119029999D01*
G75*
G02*
X146869999Y-118780000I249999J0D01*
G01*
X147770001Y-118780000D01*
G75*
G02*
X148020000Y-119029999I0J-249999D01*
G01*
X148020000Y-119730001D01*
G75*
G02*
X147770001Y-119980000I-249999J0D01*
G01*
G37*
%TD.AperFunction*%
%TD*%
%TO.P,D3,2*%
%TO.N,Net-(D3-Pad2)*%
%TA.AperFunction,SMDPad,CuDef*%
G36*
G01*
X142690001Y-123765000D02*
X141789999Y-123765000D01*
G75*
G02*
X141540000Y-123515001I0J249999D01*
G01*
X141540000Y-122864999D01*
G75*
G02*
X141789999Y-122615000I249999J0D01*
G01*
X142690001Y-122615000D01*
G75*
G02*
X142940000Y-122864999I0J-249999D01*
G01*
X142940000Y-123515001D01*
G75*
G02*
X142690001Y-123765000I-249999J0D01*
G01*
G37*
%TD.AperFunction*%
%TO.P,D3,1*%
%TO.N,GND*%
%TA.AperFunction,SMDPad,CuDef*%
G36*
G01*
X142690001Y-125815000D02*
X141789999Y-125815000D01*
G75*
G02*
X141540000Y-125565001I0J249999D01*
G01*
X141540000Y-124914999D01*
G75*
G02*
X141789999Y-124665000I249999J0D01*
G01*
X142690001Y-124665000D01*
G75*
G02*
X142940000Y-124914999I0J-249999D01*
G01*
X142940000Y-125565001D01*
G75*
G02*
X142690001Y-125815000I-249999J0D01*
G01*
G37*
%TD.AperFunction*%
%TD*%
%TO.P,D2,2*%
%TO.N,Net-(D2-Pad2)*%
%TA.AperFunction,SMDPad,CuDef*%
G36*
G01*
X145230001Y-123765000D02*
X144329999Y-123765000D01*
G75*
G02*
X144080000Y-123515001I0J249999D01*
G01*
X144080000Y-122864999D01*
G75*
G02*
X144329999Y-122615000I249999J0D01*
G01*
X145230001Y-122615000D01*
G75*
G02*
X145480000Y-122864999I0J-249999D01*
G01*
X145480000Y-123515001D01*
G75*
G02*
X145230001Y-123765000I-249999J0D01*
G01*
G37*
%TD.AperFunction*%
%TO.P,D2,1*%
%TO.N,GND*%
%TA.AperFunction,SMDPad,CuDef*%
G36*
G01*
X145230001Y-125815000D02*
X144329999Y-125815000D01*
G75*
G02*
X144080000Y-125565001I0J249999D01*
G01*
X144080000Y-124914999D01*
G75*
G02*
X144329999Y-124665000I249999J0D01*
G01*
X145230001Y-124665000D01*
G75*
G02*
X145480000Y-124914999I0J-249999D01*
G01*
X145480000Y-125565001D01*
G75*
G02*
X145230001Y-125815000I-249999J0D01*
G01*
G37*
%TD.AperFunction*%
%TD*%
%TO.P,D1,2*%
%TO.N,Net-(D1-Pad2)*%
%TA.AperFunction,SMDPad,CuDef*%
G36*
G01*
X147770001Y-123765000D02*
X146869999Y-123765000D01*
G75*
G02*
X146620000Y-123515001I0J249999D01*
G01*
X146620000Y-122864999D01*
G75*
G02*
X146869999Y-122615000I249999J0D01*
G01*
X147770001Y-122615000D01*
G75*
G02*
X148020000Y-122864999I0J-249999D01*
G01*
X148020000Y-123515001D01*
G75*
G02*
X147770001Y-123765000I-249999J0D01*
G01*
G37*
%TD.AperFunction*%
%TO.P,D1,1*%
%TO.N,GND*%
%TA.AperFunction,SMDPad,CuDef*%
G36*
G01*
X147770001Y-125815000D02*
X146869999Y-125815000D01*
G75*
G02*
X146620000Y-125565001I0J249999D01*
G01*
X146620000Y-124914999D01*
G75*
G02*
X146869999Y-124665000I249999J0D01*
G01*
X147770001Y-124665000D01*
G75*
G02*
X148020000Y-124914999I0J-249999D01*
G01*
X148020000Y-125565001D01*
G75*
G02*
X147770001Y-125815000I-249999J0D01*
G01*
G37*
%TD.AperFunction*%
%TD*%
D12*
%TO.P,C9,2*%
%TO.N,GND*%
X137160000Y-93105000D03*
%TO.P,C9,1*%
%TO.N,VCC*%
X137160000Y-78105000D03*
%TD*%
D13*
%TO.P,U9,20*%
%TO.N,VCC*%
X140970000Y-71120000D03*
%TO.P,U9,10*%
%TO.N,GND*%
X133350000Y-93980000D03*
%TO.P,U9,19*%
%TO.N,/~OE*%
X140970000Y-73660000D03*
%TO.P,U9,9*%
%TO.N,/O0*%
X133350000Y-91440000D03*
%TO.P,U9,18*%
%TO.N,/BUS7*%
X140970000Y-76200000D03*
%TO.P,U9,8*%
%TO.N,/O1*%
X133350000Y-88900000D03*
%TO.P,U9,17*%
%TO.N,/BUS6*%
X140970000Y-78740000D03*
%TO.P,U9,7*%
%TO.N,/O2*%
X133350000Y-86360000D03*
%TO.P,U9,16*%
%TO.N,/BUS5*%
X140970000Y-81280000D03*
%TO.P,U9,6*%
%TO.N,/O3*%
X133350000Y-83820000D03*
%TO.P,U9,15*%
%TO.N,/BUS4*%
X140970000Y-83820000D03*
%TO.P,U9,5*%
%TO.N,/O4*%
X133350000Y-81280000D03*
%TO.P,U9,14*%
%TO.N,/BUS3*%
X140970000Y-86360000D03*
%TO.P,U9,4*%
%TO.N,/O5*%
X133350000Y-78740000D03*
%TO.P,U9,13*%
%TO.N,/BUS2*%
X140970000Y-88900000D03*
%TO.P,U9,3*%
%TO.N,/O6*%
X133350000Y-76200000D03*
%TO.P,U9,12*%
%TO.N,/BUS1*%
X140970000Y-91440000D03*
%TO.P,U9,2*%
%TO.N,/O7*%
X133350000Y-73660000D03*
%TO.P,U9,11*%
%TO.N,/BUS0*%
X140970000Y-93980000D03*
D14*
%TO.P,U9,1*%
%TO.N,Net-(R2-Pad1)*%
X133350000Y-71120000D03*
%TD*%
D11*
%TO.P,J7,1*%
%TO.N,/~OE*%
X151130000Y-71120000D03*
%TD*%
D15*
%TO.P,J3,9*%
%TO.N,/BUS7*%
X147320000Y-76200000D03*
%TO.P,J3,8*%
%TO.N,/BUS6*%
X147320000Y-78740000D03*
%TO.P,J3,7*%
%TO.N,/BUS5*%
X147320000Y-81280000D03*
%TO.P,J3,6*%
%TO.N,/BUS4*%
X147320000Y-83820000D03*
%TO.P,J3,5*%
%TO.N,/BUS3*%
X147320000Y-86360000D03*
%TO.P,J3,4*%
%TO.N,/BUS2*%
X147320000Y-88900000D03*
%TO.P,J3,3*%
%TO.N,/BUS1*%
X147320000Y-91440000D03*
%TO.P,J3,2*%
%TO.N,/BUS0*%
X147320000Y-93980000D03*
D16*
%TO.P,J3,1*%
%TO.N,GND*%
X147320000Y-96520000D03*
%TD*%
D15*
%TO.P,J21,9*%
%TO.N,/BUS7*%
X151130000Y-76200000D03*
%TO.P,J21,8*%
%TO.N,/BUS6*%
X151130000Y-78740000D03*
%TO.P,J21,7*%
%TO.N,/BUS5*%
X151130000Y-81280000D03*
%TO.P,J21,6*%
%TO.N,/BUS4*%
X151130000Y-83820000D03*
%TO.P,J21,5*%
%TO.N,/BUS3*%
X151130000Y-86360000D03*
%TO.P,J21,4*%
%TO.N,/BUS2*%
X151130000Y-88900000D03*
%TO.P,J21,3*%
%TO.N,/BUS1*%
X151130000Y-91440000D03*
%TO.P,J21,2*%
%TO.N,/BUS0*%
X151130000Y-93980000D03*
D16*
%TO.P,J21,1*%
%TO.N,GND*%
X151130000Y-96520000D03*
%TD*%
D17*
%TO.P,J18,9*%
%TO.N,/H7*%
X93980000Y-129540000D03*
%TO.P,J18,8*%
%TO.N,/H6*%
X91440000Y-129540000D03*
%TO.P,J18,7*%
%TO.N,/H5*%
X88900000Y-129540000D03*
%TO.P,J18,6*%
%TO.N,/H4*%
X86360000Y-129540000D03*
%TO.P,J18,5*%
%TO.N,/H3*%
X83820000Y-129540000D03*
%TO.P,J18,4*%
%TO.N,/H2*%
X81280000Y-129540000D03*
%TO.P,J18,3*%
%TO.N,/H1*%
X78740000Y-129540000D03*
%TO.P,J18,2*%
%TO.N,/H0*%
X76200000Y-129540000D03*
D18*
%TO.P,J18,1*%
%TO.N,GND*%
X73660000Y-129540000D03*
%TD*%
D17*
%TO.P,J16,9*%
%TO.N,/H7*%
X93980000Y-133350000D03*
%TO.P,J16,8*%
%TO.N,/H6*%
X91440000Y-133350000D03*
%TO.P,J16,7*%
%TO.N,/H5*%
X88900000Y-133350000D03*
%TO.P,J16,6*%
%TO.N,/H4*%
X86360000Y-133350000D03*
%TO.P,J16,5*%
%TO.N,/H3*%
X83820000Y-133350000D03*
%TO.P,J16,4*%
%TO.N,/H2*%
X81280000Y-133350000D03*
%TO.P,J16,3*%
%TO.N,/H1*%
X78740000Y-133350000D03*
%TO.P,J16,2*%
%TO.N,/H0*%
X76200000Y-133350000D03*
D18*
%TO.P,J16,1*%
%TO.N,GND*%
X73660000Y-133350000D03*
%TD*%
D17*
%TO.P,J15,9*%
%TO.N,/D7*%
X93980000Y-49530000D03*
%TO.P,J15,8*%
%TO.N,/D6*%
X91440000Y-49530000D03*
%TO.P,J15,7*%
%TO.N,/D5*%
X88900000Y-49530000D03*
%TO.P,J15,6*%
%TO.N,/D4*%
X86360000Y-49530000D03*
%TO.P,J15,5*%
%TO.N,/D3*%
X83820000Y-49530000D03*
%TO.P,J15,4*%
%TO.N,/D2*%
X81280000Y-49530000D03*
%TO.P,J15,3*%
%TO.N,/D1*%
X78740000Y-49530000D03*
%TO.P,J15,2*%
%TO.N,/D0*%
X76200000Y-49530000D03*
D18*
%TO.P,J15,1*%
%TO.N,GND*%
X73660000Y-49530000D03*
%TD*%
D17*
%TO.P,J14,9*%
%TO.N,/G7*%
X135890000Y-133350000D03*
%TO.P,J14,8*%
%TO.N,/G6*%
X133350000Y-133350000D03*
%TO.P,J14,7*%
%TO.N,/G5*%
X130810000Y-133350000D03*
%TO.P,J14,6*%
%TO.N,/G4*%
X128270000Y-133350000D03*
%TO.P,J14,5*%
%TO.N,/G3*%
X125730000Y-133350000D03*
%TO.P,J14,4*%
%TO.N,/G2*%
X123190000Y-133350000D03*
%TO.P,J14,3*%
%TO.N,/G1*%
X120650000Y-133350000D03*
%TO.P,J14,2*%
%TO.N,/G0*%
X118110000Y-133350000D03*
D18*
%TO.P,J14,1*%
%TO.N,GND*%
X115570000Y-133350000D03*
%TD*%
D17*
%TO.P,J12,9*%
%TO.N,/G7*%
X135890000Y-129540000D03*
%TO.P,J12,8*%
%TO.N,/G6*%
X133350000Y-129540000D03*
%TO.P,J12,7*%
%TO.N,/G5*%
X130810000Y-129540000D03*
%TO.P,J12,6*%
%TO.N,/G4*%
X128270000Y-129540000D03*
%TO.P,J12,5*%
%TO.N,/G3*%
X125730000Y-129540000D03*
%TO.P,J12,4*%
%TO.N,/G2*%
X123190000Y-129540000D03*
%TO.P,J12,3*%
%TO.N,/G1*%
X120650000Y-129540000D03*
%TO.P,J12,2*%
%TO.N,/G0*%
X118110000Y-129540000D03*
D18*
%TO.P,J12,1*%
%TO.N,GND*%
X115570000Y-129540000D03*
%TD*%
D17*
%TO.P,J11,9*%
%TO.N,/C7*%
X135890000Y-49530000D03*
%TO.P,J11,8*%
%TO.N,/C6*%
X133350000Y-49530000D03*
%TO.P,J11,7*%
%TO.N,/C5*%
X130810000Y-49530000D03*
%TO.P,J11,6*%
%TO.N,/C4*%
X128270000Y-49530000D03*
%TO.P,J11,5*%
%TO.N,/C3*%
X125730000Y-49530000D03*
%TO.P,J11,4*%
%TO.N,/C2*%
X123190000Y-49530000D03*
%TO.P,J11,3*%
%TO.N,/C1*%
X120650000Y-49530000D03*
%TO.P,J11,2*%
%TO.N,/C0*%
X118110000Y-49530000D03*
D18*
%TO.P,J11,1*%
%TO.N,GND*%
X115570000Y-49530000D03*
%TD*%
D17*
%TO.P,J8,9*%
%TO.N,/F7*%
X93980000Y-116880000D03*
%TO.P,J8,8*%
%TO.N,/F6*%
X91440000Y-116880000D03*
%TO.P,J8,7*%
%TO.N,/F5*%
X88900000Y-116880000D03*
%TO.P,J8,6*%
%TO.N,/F4*%
X86360000Y-116880000D03*
%TO.P,J8,5*%
%TO.N,/F3*%
X83820000Y-116880000D03*
%TO.P,J8,4*%
%TO.N,/F2*%
X81280000Y-116880000D03*
%TO.P,J8,3*%
%TO.N,/F1*%
X78740000Y-116880000D03*
%TO.P,J8,2*%
%TO.N,/F0*%
X76200000Y-116880000D03*
D18*
%TO.P,J8,1*%
%TO.N,GND*%
X73660000Y-116880000D03*
%TD*%
D17*
%TO.P,J6,9*%
%TO.N,/F7*%
X93980000Y-120650000D03*
%TO.P,J6,8*%
%TO.N,/F6*%
X91440000Y-120650000D03*
%TO.P,J6,7*%
%TO.N,/F5*%
X88900000Y-120650000D03*
%TO.P,J6,6*%
%TO.N,/F4*%
X86360000Y-120650000D03*
%TO.P,J6,5*%
%TO.N,/F3*%
X83820000Y-120650000D03*
%TO.P,J6,4*%
%TO.N,/F2*%
X81280000Y-120650000D03*
%TO.P,J6,3*%
%TO.N,/F1*%
X78740000Y-120650000D03*
%TO.P,J6,2*%
%TO.N,/F0*%
X76200000Y-120650000D03*
D18*
%TO.P,J6,1*%
%TO.N,GND*%
X73660000Y-120650000D03*
%TD*%
D17*
%TO.P,J5,9*%
%TO.N,/B7*%
X93980000Y-43180000D03*
%TO.P,J5,8*%
%TO.N,/B6*%
X91440000Y-43180000D03*
%TO.P,J5,7*%
%TO.N,/B5*%
X88900000Y-43180000D03*
%TO.P,J5,6*%
%TO.N,/B4*%
X86360000Y-43180000D03*
%TO.P,J5,5*%
%TO.N,/B3*%
X83820000Y-43180000D03*
%TO.P,J5,4*%
%TO.N,/B2*%
X81280000Y-43180000D03*
%TO.P,J5,3*%
%TO.N,/B1*%
X78740000Y-43180000D03*
%TO.P,J5,2*%
%TO.N,/B0*%
X76200000Y-43180000D03*
D18*
%TO.P,J5,1*%
%TO.N,GND*%
X73660000Y-43180000D03*
%TD*%
D17*
%TO.P,J4,9*%
%TO.N,/E7*%
X135890000Y-116840000D03*
%TO.P,J4,8*%
%TO.N,/E6*%
X133350000Y-116840000D03*
%TO.P,J4,7*%
%TO.N,/E5*%
X130810000Y-116840000D03*
%TO.P,J4,6*%
%TO.N,/E4*%
X128270000Y-116840000D03*
%TO.P,J4,5*%
%TO.N,/E3*%
X125730000Y-116840000D03*
%TO.P,J4,4*%
%TO.N,/E2*%
X123190000Y-116840000D03*
%TO.P,J4,3*%
%TO.N,/E1*%
X120650000Y-116840000D03*
%TO.P,J4,2*%
%TO.N,/E0*%
X118110000Y-116840000D03*
D18*
%TO.P,J4,1*%
%TO.N,GND*%
X115570000Y-116840000D03*
%TD*%
D17*
%TO.P,J2,9*%
%TO.N,/E7*%
X135890000Y-120650000D03*
%TO.P,J2,8*%
%TO.N,/E6*%
X133350000Y-120650000D03*
%TO.P,J2,7*%
%TO.N,/E5*%
X130810000Y-120650000D03*
%TO.P,J2,6*%
%TO.N,/E4*%
X128270000Y-120650000D03*
%TO.P,J2,5*%
%TO.N,/E3*%
X125730000Y-120650000D03*
%TO.P,J2,4*%
%TO.N,/E2*%
X123190000Y-120650000D03*
%TO.P,J2,3*%
%TO.N,/E1*%
X120650000Y-120650000D03*
%TO.P,J2,2*%
%TO.N,/E0*%
X118110000Y-120650000D03*
D18*
%TO.P,J2,1*%
%TO.N,GND*%
X115570000Y-120650000D03*
%TD*%
D17*
%TO.P,J1,9*%
%TO.N,/A7*%
X135890000Y-43180000D03*
%TO.P,J1,8*%
%TO.N,/A6*%
X133350000Y-43180000D03*
%TO.P,J1,7*%
%TO.N,/A5*%
X130810000Y-43180000D03*
%TO.P,J1,6*%
%TO.N,/A4*%
X128270000Y-43180000D03*
%TO.P,J1,5*%
%TO.N,/A3*%
X125730000Y-43180000D03*
%TO.P,J1,4*%
%TO.N,/A2*%
X123190000Y-43180000D03*
%TO.P,J1,3*%
%TO.N,/A1*%
X120650000Y-43180000D03*
%TO.P,J1,2*%
%TO.N,/A0*%
X118110000Y-43180000D03*
D18*
%TO.P,J1,1*%
%TO.N,GND*%
X115570000Y-43180000D03*
%TD*%
D12*
%TO.P,C8,2*%
%TO.N,GND*%
X119380000Y-75960000D03*
%TO.P,C8,1*%
%TO.N,VCC*%
X119380000Y-60960000D03*
%TD*%
%TO.P,C7,2*%
%TO.N,GND*%
X101600000Y-75960000D03*
%TO.P,C7,1*%
%TO.N,VCC*%
X101600000Y-60960000D03*
%TD*%
%TO.P,C6,2*%
%TO.N,GND*%
X83820000Y-75960000D03*
%TO.P,C6,1*%
%TO.N,VCC*%
X83820000Y-60960000D03*
%TD*%
%TO.P,C5,2*%
%TO.N,GND*%
X66040000Y-75960000D03*
%TO.P,C5,1*%
%TO.N,VCC*%
X66040000Y-60960000D03*
%TD*%
%TO.P,C4,2*%
%TO.N,GND*%
X119380000Y-103265000D03*
%TO.P,C4,1*%
%TO.N,VCC*%
X119380000Y-88265000D03*
%TD*%
%TO.P,C3,2*%
%TO.N,GND*%
X101600000Y-103900000D03*
%TO.P,C3,1*%
%TO.N,VCC*%
X101600000Y-88900000D03*
%TD*%
%TO.P,C2,2*%
%TO.N,GND*%
X83820000Y-103900000D03*
%TO.P,C2,1*%
%TO.N,VCC*%
X83820000Y-88900000D03*
%TD*%
%TO.P,C1,2*%
%TO.N,GND*%
X66040000Y-103900000D03*
%TO.P,C1,1*%
%TO.N,VCC*%
X66040000Y-88900000D03*
%TD*%
D19*
%TO.P,U8,16*%
%TO.N,VCC*%
X123190000Y-59690000D03*
%TO.P,U8,8*%
%TO.N,GND*%
X115570000Y-77470000D03*
%TO.P,U8,15*%
%TO.N,/E7*%
X123190000Y-62230000D03*
%TO.P,U8,7*%
%TO.N,/~EH*%
X115570000Y-74930000D03*
%TO.P,U8,14*%
%TO.N,/F7*%
X123190000Y-64770000D03*
%TO.P,U8,6*%
%TO.N,Net-(U8-Pad6)*%
X115570000Y-72390000D03*
%TO.P,U8,13*%
%TO.N,/G7*%
X123190000Y-67310000D03*
%TO.P,U8,5*%
%TO.N,/O7*%
X115570000Y-69850000D03*
%TO.P,U8,12*%
%TO.N,/H7*%
X123190000Y-69850000D03*
%TO.P,U8,4*%
%TO.N,/A7*%
X115570000Y-67310000D03*
%TO.P,U8,11*%
%TO.N,/S0*%
X123190000Y-72390000D03*
%TO.P,U8,3*%
%TO.N,/B7*%
X115570000Y-64770000D03*
%TO.P,U8,10*%
%TO.N,/S1*%
X123190000Y-74930000D03*
%TO.P,U8,2*%
%TO.N,/C7*%
X115570000Y-62230000D03*
%TO.P,U8,9*%
%TO.N,/S2*%
X123190000Y-77470000D03*
D20*
%TO.P,U8,1*%
%TO.N,/D7*%
X115570000Y-59690000D03*
%TD*%
D19*
%TO.P,U7,16*%
%TO.N,VCC*%
X105410000Y-59690000D03*
%TO.P,U7,8*%
%TO.N,GND*%
X97790000Y-77470000D03*
%TO.P,U7,15*%
%TO.N,/E6*%
X105410000Y-62230000D03*
%TO.P,U7,7*%
%TO.N,/~EH*%
X97790000Y-74930000D03*
%TO.P,U7,14*%
%TO.N,/F6*%
X105410000Y-64770000D03*
%TO.P,U7,6*%
%TO.N,Net-(U7-Pad6)*%
X97790000Y-72390000D03*
%TO.P,U7,13*%
%TO.N,/G6*%
X105410000Y-67310000D03*
%TO.P,U7,5*%
%TO.N,/O6*%
X97790000Y-69850000D03*
%TO.P,U7,12*%
%TO.N,/H6*%
X105410000Y-69850000D03*
%TO.P,U7,4*%
%TO.N,/A6*%
X97790000Y-67310000D03*
%TO.P,U7,11*%
%TO.N,/S0*%
X105410000Y-72390000D03*
%TO.P,U7,3*%
%TO.N,/B6*%
X97790000Y-64770000D03*
%TO.P,U7,10*%
%TO.N,/S1*%
X105410000Y-74930000D03*
%TO.P,U7,2*%
%TO.N,/C6*%
X97790000Y-62230000D03*
%TO.P,U7,9*%
%TO.N,/S2*%
X105410000Y-77470000D03*
D20*
%TO.P,U7,1*%
%TO.N,/D6*%
X97790000Y-59690000D03*
%TD*%
D19*
%TO.P,U6,16*%
%TO.N,VCC*%
X87630000Y-59690000D03*
%TO.P,U6,8*%
%TO.N,GND*%
X80010000Y-77470000D03*
%TO.P,U6,15*%
%TO.N,/E5*%
X87630000Y-62230000D03*
%TO.P,U6,7*%
%TO.N,/~EH*%
X80010000Y-74930000D03*
%TO.P,U6,14*%
%TO.N,/F5*%
X87630000Y-64770000D03*
%TO.P,U6,6*%
%TO.N,Net-(U6-Pad6)*%
X80010000Y-72390000D03*
%TO.P,U6,13*%
%TO.N,/G5*%
X87630000Y-67310000D03*
%TO.P,U6,5*%
%TO.N,/O5*%
X80010000Y-69850000D03*
%TO.P,U6,12*%
%TO.N,/H5*%
X87630000Y-69850000D03*
%TO.P,U6,4*%
%TO.N,/A5*%
X80010000Y-67310000D03*
%TO.P,U6,11*%
%TO.N,/S0*%
X87630000Y-72390000D03*
%TO.P,U6,3*%
%TO.N,/B5*%
X80010000Y-64770000D03*
%TO.P,U6,10*%
%TO.N,/S1*%
X87630000Y-74930000D03*
%TO.P,U6,2*%
%TO.N,/C5*%
X80010000Y-62230000D03*
%TO.P,U6,9*%
%TO.N,/S2*%
X87630000Y-77470000D03*
D20*
%TO.P,U6,1*%
%TO.N,/D5*%
X80010000Y-59690000D03*
%TD*%
D19*
%TO.P,U5,16*%
%TO.N,VCC*%
X69850000Y-59690000D03*
%TO.P,U5,8*%
%TO.N,GND*%
X62230000Y-77470000D03*
%TO.P,U5,15*%
%TO.N,/E4*%
X69850000Y-62230000D03*
%TO.P,U5,7*%
%TO.N,/~EH*%
X62230000Y-74930000D03*
%TO.P,U5,14*%
%TO.N,/F4*%
X69850000Y-64770000D03*
%TO.P,U5,6*%
%TO.N,Net-(U5-Pad6)*%
X62230000Y-72390000D03*
%TO.P,U5,13*%
%TO.N,/G4*%
X69850000Y-67310000D03*
%TO.P,U5,5*%
%TO.N,/O4*%
X62230000Y-69850000D03*
%TO.P,U5,12*%
%TO.N,/H4*%
X69850000Y-69850000D03*
%TO.P,U5,4*%
%TO.N,/A4*%
X62230000Y-67310000D03*
%TO.P,U5,11*%
%TO.N,/S0*%
X69850000Y-72390000D03*
%TO.P,U5,3*%
%TO.N,/B4*%
X62230000Y-64770000D03*
%TO.P,U5,10*%
%TO.N,/S1*%
X69850000Y-74930000D03*
%TO.P,U5,2*%
%TO.N,/C4*%
X62230000Y-62230000D03*
%TO.P,U5,9*%
%TO.N,/S2*%
X69850000Y-77470000D03*
D20*
%TO.P,U5,1*%
%TO.N,/D4*%
X62230000Y-59690000D03*
%TD*%
D19*
%TO.P,U4,16*%
%TO.N,VCC*%
X123190000Y-87630000D03*
%TO.P,U4,8*%
%TO.N,GND*%
X115570000Y-105410000D03*
%TO.P,U4,15*%
%TO.N,/E3*%
X123190000Y-90170000D03*
%TO.P,U4,7*%
%TO.N,/~EL*%
X115570000Y-102870000D03*
%TO.P,U4,14*%
%TO.N,/F3*%
X123190000Y-92710000D03*
%TO.P,U4,6*%
%TO.N,Net-(U4-Pad6)*%
X115570000Y-100330000D03*
%TO.P,U4,13*%
%TO.N,/G3*%
X123190000Y-95250000D03*
%TO.P,U4,5*%
%TO.N,/O3*%
X115570000Y-97790000D03*
%TO.P,U4,12*%
%TO.N,/H3*%
X123190000Y-97790000D03*
%TO.P,U4,4*%
%TO.N,/A3*%
X115570000Y-95250000D03*
%TO.P,U4,11*%
%TO.N,/S0*%
X123190000Y-100330000D03*
%TO.P,U4,3*%
%TO.N,/B3*%
X115570000Y-92710000D03*
%TO.P,U4,10*%
%TO.N,/S1*%
X123190000Y-102870000D03*
%TO.P,U4,2*%
%TO.N,/C3*%
X115570000Y-90170000D03*
%TO.P,U4,9*%
%TO.N,/S2*%
X123190000Y-105410000D03*
D20*
%TO.P,U4,1*%
%TO.N,/D3*%
X115570000Y-87630000D03*
%TD*%
D19*
%TO.P,U3,16*%
%TO.N,VCC*%
X105410000Y-87630000D03*
%TO.P,U3,8*%
%TO.N,GND*%
X97790000Y-105410000D03*
%TO.P,U3,15*%
%TO.N,/E2*%
X105410000Y-90170000D03*
%TO.P,U3,7*%
%TO.N,/~EL*%
X97790000Y-102870000D03*
%TO.P,U3,14*%
%TO.N,/F2*%
X105410000Y-92710000D03*
%TO.P,U3,6*%
%TO.N,Net-(U3-Pad6)*%
X97790000Y-100330000D03*
%TO.P,U3,13*%
%TO.N,/G2*%
X105410000Y-95250000D03*
%TO.P,U3,5*%
%TO.N,/O2*%
X97790000Y-97790000D03*
%TO.P,U3,12*%
%TO.N,/H2*%
X105410000Y-97790000D03*
%TO.P,U3,4*%
%TO.N,/A2*%
X97790000Y-95250000D03*
%TO.P,U3,11*%
%TO.N,/S0*%
X105410000Y-100330000D03*
%TO.P,U3,3*%
%TO.N,/B2*%
X97790000Y-92710000D03*
%TO.P,U3,10*%
%TO.N,/S1*%
X105410000Y-102870000D03*
%TO.P,U3,2*%
%TO.N,/C2*%
X97790000Y-90170000D03*
%TO.P,U3,9*%
%TO.N,/S2*%
X105410000Y-105410000D03*
D20*
%TO.P,U3,1*%
%TO.N,/D2*%
X97790000Y-87630000D03*
%TD*%
D19*
%TO.P,U2,16*%
%TO.N,VCC*%
X87630000Y-87630000D03*
%TO.P,U2,8*%
%TO.N,GND*%
X80010000Y-105410000D03*
%TO.P,U2,15*%
%TO.N,/E1*%
X87630000Y-90170000D03*
%TO.P,U2,7*%
%TO.N,/~EL*%
X80010000Y-102870000D03*
%TO.P,U2,14*%
%TO.N,/F1*%
X87630000Y-92710000D03*
%TO.P,U2,6*%
%TO.N,Net-(U2-Pad6)*%
X80010000Y-100330000D03*
%TO.P,U2,13*%
%TO.N,/G1*%
X87630000Y-95250000D03*
%TO.P,U2,5*%
%TO.N,/O1*%
X80010000Y-97790000D03*
%TO.P,U2,12*%
%TO.N,/H1*%
X87630000Y-97790000D03*
%TO.P,U2,4*%
%TO.N,/A1*%
X80010000Y-95250000D03*
%TO.P,U2,11*%
%TO.N,/S0*%
X87630000Y-100330000D03*
%TO.P,U2,3*%
%TO.N,/B1*%
X80010000Y-92710000D03*
%TO.P,U2,10*%
%TO.N,/S1*%
X87630000Y-102870000D03*
%TO.P,U2,2*%
%TO.N,/C1*%
X80010000Y-90170000D03*
%TO.P,U2,9*%
%TO.N,/S2*%
X87630000Y-105410000D03*
D20*
%TO.P,U2,1*%
%TO.N,/D1*%
X80010000Y-87630000D03*
%TD*%
D19*
%TO.P,U1,16*%
%TO.N,VCC*%
X69850000Y-87630000D03*
%TO.P,U1,8*%
%TO.N,GND*%
X62230000Y-105410000D03*
%TO.P,U1,15*%
%TO.N,/E0*%
X69850000Y-90170000D03*
%TO.P,U1,7*%
%TO.N,/~EL*%
X62230000Y-102870000D03*
%TO.P,U1,14*%
%TO.N,/F0*%
X69850000Y-92710000D03*
%TO.P,U1,6*%
%TO.N,Net-(U1-Pad6)*%
X62230000Y-100330000D03*
%TO.P,U1,13*%
%TO.N,/G0*%
X69850000Y-95250000D03*
%TO.P,U1,5*%
%TO.N,/O0*%
X62230000Y-97790000D03*
%TO.P,U1,12*%
%TO.N,/H0*%
X69850000Y-97790000D03*
%TO.P,U1,4*%
%TO.N,/A0*%
X62230000Y-95250000D03*
%TO.P,U1,11*%
%TO.N,/S0*%
X69850000Y-100330000D03*
%TO.P,U1,3*%
%TO.N,/B0*%
X62230000Y-92710000D03*
%TO.P,U1,10*%
%TO.N,/S1*%
X69850000Y-102870000D03*
%TO.P,U1,2*%
%TO.N,/C0*%
X62230000Y-90170000D03*
%TO.P,U1,9*%
%TO.N,/S2*%
X69850000Y-105410000D03*
D20*
%TO.P,U1,1*%
%TO.N,/D0*%
X62230000Y-87630000D03*
%TD*%
D11*
%TO.P,J20,1*%
%TO.N,/~EH*%
X151130000Y-64770000D03*
%TD*%
D19*
%TO.P,J10,3*%
%TO.N,/S2*%
X151130000Y-114300000D03*
%TO.P,J10,2*%
%TO.N,/S1*%
X151130000Y-111760000D03*
D20*
%TO.P,J10,1*%
%TO.N,/S0*%
X151130000Y-109220000D03*
%TD*%
D21*
%TO.P,J9,2*%
%TO.N,GND*%
X147320000Y-54690000D03*
D22*
%TO.P,J9,1*%
%TO.N,VCC*%
X147320000Y-59690000D03*
%TD*%
D23*
%TO.N,GND*%
X146163000Y-126360000D03*
X147320000Y-67441700D03*
%TO.N,/A1*%
X75565000Y-55880000D03*
%TO.N,/E6*%
X111991700Y-107730700D03*
%TO.N,/E5*%
X92054300Y-114269300D03*
%TO.N,/E2*%
X127000000Y-91440000D03*
%TO.N,/E1*%
X91756200Y-107662100D03*
%TO.N,/B7*%
X106868200Y-56467500D03*
D24*
%TO.N,/B5*%
X93345000Y-56515000D03*
%TO.N,/B3*%
X95591300Y-89193700D03*
D23*
%TO.N,/F3*%
X101670200Y-114859600D03*
%TO.N,/F2*%
X96097300Y-111673300D03*
%TO.N,/C2*%
X113030000Y-92469100D03*
D24*
%TO.N,/C1*%
X85090000Y-66040000D03*
D23*
%TO.N,/G6*%
X109820100Y-110490000D03*
%TO.N,/G5*%
X92835400Y-108658500D03*
%TO.N,/G3*%
X127000000Y-95250000D03*
%TO.N,/G2*%
X103505000Y-109855000D03*
%TO.N,/G1*%
X90058700Y-107455800D03*
%TO.N,/D7*%
X105064500Y-56451600D03*
%TO.N,/D5*%
X80010000Y-53340000D03*
%TO.N,/D3*%
X99683300Y-83829600D03*
%TO.N,/H6*%
X97091500Y-116445200D03*
D24*
%TO.N,/H5*%
X86251700Y-113138300D03*
D23*
%TO.N,/H4*%
X83624900Y-123255400D03*
%TO.N,/O5*%
X80010000Y-80010000D03*
%TO.N,/O2*%
X106238600Y-83676500D03*
%TD*%
D25*
%TO.N,GND*%
X146163000Y-125240000D02*
X147320000Y-125240000D01*
X146163000Y-126360000D02*
X146163000Y-125240000D01*
X142240000Y-125240000D02*
X144780000Y-125240000D01*
X144780000Y-125240000D02*
X146163000Y-125240000D01*
%TO.N,/A5*%
X82550000Y-67310000D02*
X80010000Y-67310000D01*
X95885000Y-66040000D02*
X93345000Y-68580000D01*
X127635000Y-66040000D02*
X95885000Y-66040000D01*
X137795000Y-47625000D02*
X137795000Y-55880000D01*
X93345000Y-68580000D02*
X83820000Y-68580000D01*
X136535850Y-46365850D02*
X137795000Y-47625000D01*
X132090850Y-46365850D02*
X136535850Y-46365850D01*
X83820000Y-68580000D02*
X82550000Y-67310000D01*
X130810000Y-45085000D02*
X132090850Y-46365850D01*
X137795000Y-55880000D02*
X127635000Y-66040000D01*
X130810000Y-43180000D02*
X130810000Y-45085000D01*
%TO.N,/A4*%
X60325000Y-67310000D02*
X62230000Y-67310000D01*
X59690000Y-66675000D02*
X60325000Y-67310000D01*
X128270000Y-45085000D02*
X127276200Y-46078800D01*
X127276200Y-46078800D02*
X100606200Y-46078800D01*
X100606200Y-46078800D02*
X94163500Y-52521500D01*
X94163500Y-52521500D02*
X89718500Y-52521500D01*
X76200000Y-57785000D02*
X66675000Y-57785000D01*
X89718500Y-52521500D02*
X86360000Y-55880000D01*
X128270000Y-43180000D02*
X128270000Y-45085000D01*
X86360000Y-55880000D02*
X78105000Y-55880000D01*
X66675000Y-57785000D02*
X63569600Y-60890400D01*
X63569600Y-60890400D02*
X60394600Y-60890400D01*
X78105000Y-55880000D02*
X76200000Y-57785000D01*
X60394600Y-60890400D02*
X59690000Y-61595000D01*
X59690000Y-61595000D02*
X59690000Y-66675000D01*
%TO.N,/A1*%
X120650000Y-44450000D02*
X120650000Y-43180000D01*
X92779990Y-47555010D02*
X94956500Y-45378500D01*
X91922600Y-51587400D02*
X92779990Y-50730010D01*
X94956500Y-45378500D02*
X119721500Y-45378500D01*
X88747600Y-51587400D02*
X91922600Y-51587400D01*
X85569600Y-54765400D02*
X88747600Y-51587400D01*
X119721500Y-45378500D02*
X120650000Y-44450000D01*
X76679600Y-54765400D02*
X85569600Y-54765400D01*
X92779990Y-50730010D02*
X92779990Y-47555010D01*
X75565000Y-55880000D02*
X76679600Y-54765400D01*
%TO.N,/A0*%
X118110000Y-41910000D02*
X118110000Y-43180000D01*
X116840000Y-40640000D02*
X118110000Y-41910000D01*
X57785000Y-54610000D02*
X71755000Y-40640000D01*
X57785000Y-92710000D02*
X57785000Y-54610000D01*
X60325000Y-95250000D02*
X57785000Y-92710000D01*
X71755000Y-40640000D02*
X116840000Y-40640000D01*
X62230000Y-95250000D02*
X60325000Y-95250000D01*
%TO.N,/E6*%
X133350000Y-116840000D02*
X133350000Y-113665000D01*
X113481000Y-109220000D02*
X111991700Y-107730700D01*
X128905000Y-109220000D02*
X113481000Y-109220000D01*
X133350000Y-113665000D02*
X128905000Y-109220000D01*
%TO.N,/E5*%
X96919400Y-114269300D02*
X92054300Y-114269300D01*
X113563600Y-130913500D02*
X96919400Y-114269300D01*
X133878400Y-130913500D02*
X113563600Y-130913500D01*
X134550700Y-130241200D02*
X133878400Y-130913500D01*
X134550700Y-125660700D02*
X134550700Y-130241200D01*
X130810000Y-121920000D02*
X134550700Y-125660700D01*
X130810000Y-120650000D02*
X130810000Y-121920000D01*
%TO.N,/E2*%
X114242700Y-91382700D02*
X126942700Y-91382700D01*
X126942700Y-91382700D02*
X127000000Y-91440000D01*
X113030000Y-90170000D02*
X114242700Y-91382700D01*
X105410000Y-90170000D02*
X113030000Y-90170000D01*
%TO.N,/E1*%
X91810100Y-107608200D02*
X91756200Y-107662100D01*
X109513200Y-107608200D02*
X91810100Y-107608200D01*
X112408950Y-110503950D02*
X109513200Y-107608200D01*
X116853950Y-110503950D02*
X112408950Y-110503950D01*
X120650000Y-114300000D02*
X116853950Y-110503950D01*
X120650000Y-116840000D02*
X120650000Y-114300000D01*
%TO.N,/B7*%
X110607850Y-60207150D02*
X106868200Y-56467500D01*
X110607850Y-61712850D02*
X110607850Y-60207150D01*
X113665000Y-64770000D02*
X110607850Y-61712850D01*
X115570000Y-64770000D02*
X113665000Y-64770000D01*
%TO.N,/B5*%
X93345000Y-57150000D02*
X93345000Y-56515000D01*
X89535000Y-60960000D02*
X93345000Y-57150000D01*
X86360000Y-60960000D02*
X89535000Y-60960000D01*
X84772500Y-62547500D02*
X86360000Y-60960000D01*
X84137500Y-62547500D02*
X84772500Y-62547500D01*
X81915000Y-64770000D02*
X84137500Y-62547500D01*
X80010000Y-64770000D02*
X81915000Y-64770000D01*
%TO.N,/B3*%
X102166600Y-96451600D02*
X111828400Y-96451600D01*
X99694800Y-93979800D02*
X102166600Y-96451600D01*
X95591300Y-93051300D02*
X96519800Y-93979800D01*
X96519800Y-93979800D02*
X99694800Y-93979800D01*
X95591300Y-92381400D02*
X95591300Y-93051300D01*
X95591300Y-92381400D02*
X95591300Y-89193700D01*
X115570000Y-92710000D02*
X114935000Y-92710000D01*
X113982500Y-93662500D02*
X113982500Y-94297500D01*
X114935000Y-92710000D02*
X113982500Y-93662500D01*
X111828400Y-96451600D02*
X113982500Y-94297500D01*
%TO.N,/F3*%
X94426000Y-113219000D02*
X100029600Y-113219000D01*
X93919500Y-112712500D02*
X94426000Y-113219000D01*
X100029600Y-113219000D02*
X101670200Y-114859600D01*
X88582500Y-112712500D02*
X93919500Y-112712500D01*
X84455000Y-111125000D02*
X86995000Y-111125000D01*
X83820000Y-111760000D02*
X84455000Y-111125000D01*
X86995000Y-111125000D02*
X88582500Y-112712500D01*
X83820000Y-116880000D02*
X83820000Y-111760000D01*
%TO.N,/F2*%
X89448300Y-111673300D02*
X96097300Y-111673300D01*
X87630000Y-109855000D02*
X89448300Y-111673300D01*
X82550000Y-109855000D02*
X87630000Y-109855000D01*
X81280000Y-111125000D02*
X82550000Y-109855000D01*
X81280000Y-116880000D02*
X81280000Y-111125000D01*
%TO.N,/F1*%
X85050000Y-92710000D02*
X87630000Y-92710000D01*
X78740000Y-116880000D02*
X78740000Y-114935000D01*
X78081450Y-114276450D02*
X66016450Y-114276450D01*
X78740000Y-114935000D02*
X78081450Y-114276450D01*
X65087500Y-97472500D02*
X68560000Y-94000000D01*
X58420000Y-106680000D02*
X58420000Y-100330000D01*
X58420000Y-100330000D02*
X59690000Y-99060000D01*
X59690000Y-99060000D02*
X64135000Y-99060000D01*
X64135000Y-99060000D02*
X65087500Y-98107500D01*
X65087500Y-98107500D02*
X65087500Y-97472500D01*
X68560000Y-94000000D02*
X68560000Y-93960000D01*
X66016450Y-114276450D02*
X58420000Y-106680000D01*
X83800000Y-93960000D02*
X85050000Y-92710000D01*
X68560000Y-93960000D02*
X83800000Y-93960000D01*
%TO.N,/C7*%
X116840000Y-62230000D02*
X115570000Y-62230000D01*
X117475000Y-61595000D02*
X116840000Y-62230000D01*
X117475000Y-57785000D02*
X117475000Y-61595000D01*
X119339200Y-55920800D02*
X117475000Y-57785000D01*
X132039200Y-55920800D02*
X119339200Y-55920800D01*
X135890000Y-52070000D02*
X132039200Y-55920800D01*
X135890000Y-49530000D02*
X135890000Y-52070000D01*
%TO.N,/C6*%
X99060000Y-62230000D02*
X97790000Y-62230000D01*
X99695000Y-57785000D02*
X99695000Y-61595000D01*
X99695000Y-61595000D02*
X99060000Y-62230000D01*
X103804700Y-53675300D02*
X99695000Y-57785000D01*
X131109700Y-53675300D02*
X103804700Y-53675300D01*
X133350000Y-51435000D02*
X131109700Y-53675300D01*
X133350000Y-49530000D02*
X133350000Y-51435000D01*
%TO.N,/C5*%
X130810000Y-50800000D02*
X130810000Y-49530000D01*
X121920000Y-50800000D02*
X122555000Y-51435000D01*
X121925650Y-50159350D02*
X121920000Y-50165000D01*
X121920000Y-50153700D02*
X121925650Y-50159350D01*
X80010000Y-62230000D02*
X81280000Y-62230000D01*
X121150000Y-48172300D02*
X121920000Y-48942300D01*
X81280000Y-62230000D02*
X81815750Y-61694250D01*
X81815750Y-61694250D02*
X81815750Y-60225750D01*
X84038250Y-58003250D02*
X88046750Y-58003250D01*
X90170000Y-55880000D02*
X90182600Y-55880000D01*
X88046750Y-58003250D02*
X90170000Y-55880000D01*
X122555000Y-51435000D02*
X130175000Y-51435000D01*
X91128800Y-54933800D02*
X96378100Y-54933800D01*
X130175000Y-51435000D02*
X130810000Y-50800000D01*
X90182600Y-55880000D02*
X91128800Y-54933800D01*
X81815750Y-60225750D02*
X84038250Y-58003250D01*
X96378100Y-54933800D02*
X103139600Y-48172300D01*
X103139600Y-48172300D02*
X121150000Y-48172300D01*
X121920000Y-50165000D02*
X121920000Y-50800000D01*
X121920000Y-48942300D02*
X121920000Y-50153700D01*
%TO.N,/C4*%
X127635000Y-46990000D02*
X128270000Y-47625000D01*
X102235000Y-46990000D02*
X127635000Y-46990000D01*
X128270000Y-47625000D02*
X128270000Y-49530000D01*
X95573250Y-53651750D02*
X102235000Y-46990000D01*
X86995000Y-57150000D02*
X90493250Y-53651750D01*
X78740000Y-57150000D02*
X86995000Y-57150000D01*
X90493250Y-53651750D02*
X95573250Y-53651750D01*
X65405000Y-63500000D02*
X72390000Y-63500000D01*
X72390000Y-63500000D02*
X78740000Y-57150000D01*
X64135000Y-62230000D02*
X65405000Y-63500000D01*
X62230000Y-62230000D02*
X64135000Y-62230000D01*
%TO.N,/C2*%
X103505000Y-93980000D02*
X111863200Y-93980000D01*
X99695000Y-90170000D02*
X103505000Y-93980000D01*
X97790000Y-90170000D02*
X99695000Y-90170000D01*
X113030000Y-92813200D02*
X113030000Y-92469100D01*
X111863200Y-93980000D02*
X113030000Y-92813200D01*
%TO.N,/C1*%
X94539350Y-62940650D02*
X91440000Y-66040000D01*
X94539350Y-59614350D02*
X94539350Y-62940650D01*
X101632800Y-52520900D02*
X94539350Y-59614350D01*
X119564100Y-52520900D02*
X101632800Y-52520900D01*
X120650000Y-51435000D02*
X119564100Y-52520900D01*
X120650000Y-49530000D02*
X120650000Y-51435000D01*
X91440000Y-66040000D02*
X85090000Y-66040000D01*
%TO.N,/C0*%
X118110000Y-50800000D02*
X118110000Y-49530000D01*
X117446600Y-51463400D02*
X118110000Y-50800000D01*
X62230000Y-90170000D02*
X60325000Y-90170000D01*
X60325000Y-90170000D02*
X59055000Y-88900000D01*
X59690000Y-68580000D02*
X73868800Y-68580000D01*
X73868800Y-68580000D02*
X76408800Y-66040000D01*
X59055000Y-69215000D02*
X59690000Y-68580000D01*
X92951450Y-59931450D02*
X101419500Y-51463400D01*
X82550000Y-66040000D02*
X85090000Y-63500000D01*
X76408800Y-66040000D02*
X82550000Y-66040000D01*
X85090000Y-63500000D02*
X90805000Y-63500000D01*
X90805000Y-63500000D02*
X92951450Y-61353550D01*
X59055000Y-88900000D02*
X59055000Y-69215000D01*
X101419500Y-51463400D02*
X117446600Y-51463400D01*
X92951450Y-61353550D02*
X92951450Y-59931450D01*
%TO.N,/G6*%
X129540000Y-123190000D02*
X133350000Y-127000000D01*
X120650000Y-123190000D02*
X129540000Y-123190000D01*
X133350000Y-127000000D02*
X133350000Y-129540000D01*
X119380000Y-121920000D02*
X120650000Y-123190000D01*
X119380000Y-114935000D02*
X119380000Y-121920000D01*
X116940100Y-112495100D02*
X119380000Y-114935000D01*
X111860100Y-112495100D02*
X116940100Y-112495100D01*
X109820100Y-110455100D02*
X111860100Y-112495100D01*
%TO.N,/G5*%
X110350700Y-114795700D02*
X105483500Y-109928500D01*
X116065700Y-114795700D02*
X110350700Y-114795700D01*
X116840000Y-115570000D02*
X116065700Y-114795700D01*
X105483500Y-108658500D02*
X92835400Y-108658500D01*
X116840000Y-121920000D02*
X116840000Y-115570000D01*
X119380000Y-124460000D02*
X116840000Y-121920000D01*
X105483500Y-109928500D02*
X105483500Y-108658500D01*
X127635000Y-124460000D02*
X119380000Y-124460000D01*
X130810000Y-127635000D02*
X127635000Y-124460000D01*
X130810000Y-129540000D02*
X130810000Y-127635000D01*
%TO.N,/G3*%
X123190000Y-95250000D02*
X127000000Y-95250000D01*
%TO.N,/G2*%
X123190000Y-127000000D02*
X123190000Y-129540000D01*
X122160650Y-125970650D02*
X123190000Y-127000000D01*
X118504350Y-125970650D02*
X122160650Y-125970650D01*
X103505000Y-110971300D02*
X118504350Y-125970650D01*
X103505000Y-109855000D02*
X103505000Y-110971300D01*
%TO.N,/G1*%
X120650000Y-128270000D02*
X120650000Y-129540000D01*
X118115100Y-127629900D02*
X120009900Y-127629900D01*
X100407800Y-109922600D02*
X118115100Y-127629900D01*
X91507600Y-109922600D02*
X100407800Y-109922600D01*
X90058700Y-108473700D02*
X91507600Y-109922600D01*
X120009900Y-127629900D02*
X120650000Y-128270000D01*
X90058700Y-107455800D02*
X90058700Y-108473700D01*
%TO.N,/G0*%
X98962900Y-110623000D02*
X116860000Y-128520100D01*
X69850000Y-95250000D02*
X68580000Y-95250000D01*
X116860000Y-128520100D02*
X116860000Y-129540000D01*
X68580000Y-95250000D02*
X66357500Y-97472500D01*
X116860000Y-129540000D02*
X118110000Y-129540000D01*
X66357500Y-97472500D02*
X66357500Y-98742500D01*
X59690000Y-103505000D02*
X60325000Y-104140000D01*
X63500000Y-101600000D02*
X60325000Y-101600000D01*
X63923700Y-104140000D02*
X68474350Y-108690650D01*
X60325000Y-101600000D02*
X59690000Y-102235000D01*
X88104650Y-108690650D02*
X90037000Y-110623000D01*
X66357500Y-98742500D02*
X63500000Y-101600000D01*
X59690000Y-102235000D02*
X59690000Y-103505000D01*
X60325000Y-104140000D02*
X63923700Y-104140000D01*
X68474350Y-108690650D02*
X88104650Y-108690650D01*
X90037000Y-110623000D02*
X98962900Y-110623000D01*
%TO.N,/D7*%
X115570000Y-58440000D02*
X112547100Y-55417100D01*
X112547100Y-55417100D02*
X106099000Y-55417100D01*
X106099000Y-55417100D02*
X105064500Y-56451600D01*
X115570000Y-59690000D02*
X115570000Y-58440000D01*
%TO.N,/D5*%
X85090000Y-53340000D02*
X88900000Y-49530000D01*
X80010000Y-53340000D02*
X85090000Y-53340000D01*
%TO.N,/D4*%
X86360000Y-47625000D02*
X86360000Y-49530000D01*
X85725000Y-46990000D02*
X86360000Y-47625000D01*
X70485000Y-46990000D02*
X85725000Y-46990000D01*
X62230000Y-55245000D02*
X70485000Y-46990000D01*
X62230000Y-59690000D02*
X62230000Y-55245000D01*
%TO.N,/D3*%
X114170000Y-87630000D02*
X115570000Y-87630000D01*
X112969600Y-86429600D02*
X114170000Y-87630000D01*
X104209600Y-86429600D02*
X112969600Y-86429600D01*
X101609600Y-83829600D02*
X104209600Y-86429600D01*
X99683300Y-83829600D02*
X101609600Y-83829600D01*
%TO.N,/H6*%
X91440000Y-128270000D02*
X97091500Y-122618500D01*
X91440000Y-129540000D02*
X91440000Y-128270000D01*
X97091500Y-122618500D02*
X97091500Y-116445200D01*
%TO.N,/H5*%
X87650000Y-125710000D02*
X87650000Y-114536600D01*
X88900000Y-126960000D02*
X87650000Y-125710000D01*
X87650000Y-114536600D02*
X86251700Y-113138300D01*
X88900000Y-129540000D02*
X88900000Y-126960000D01*
%TO.N,/H4*%
X86360000Y-129540000D02*
X86360000Y-125990500D01*
X86360000Y-125990500D02*
X83624900Y-123255400D01*
%TO.N,/S2*%
X123190000Y-105410000D02*
X130270000Y-105410000D01*
X130270000Y-105410000D02*
X142240000Y-117380000D01*
X123190000Y-77470000D02*
X121964000Y-78696400D01*
X121964000Y-78696400D02*
X109811000Y-78696400D01*
X109811000Y-78696400D02*
X108585000Y-77470000D01*
X108585000Y-77470000D02*
X105410000Y-77470000D01*
X87630000Y-105410000D02*
X87590000Y-105410000D01*
X87590000Y-105410000D02*
X86340000Y-106660000D01*
X86340000Y-106660000D02*
X73680000Y-106660000D01*
X73680000Y-106660000D02*
X72430000Y-105410000D01*
X72430000Y-105410000D02*
X69850000Y-105410000D01*
X105410000Y-77470000D02*
X104160000Y-78720000D01*
X104160000Y-78720000D02*
X92055000Y-78720000D01*
X92055000Y-78720000D02*
X90805000Y-77470000D01*
X90805000Y-77470000D02*
X87630000Y-77470000D01*
X69850000Y-77470000D02*
X73025000Y-77470000D01*
X73025000Y-77470000D02*
X74295000Y-78740000D01*
X74295000Y-78740000D02*
X86360000Y-78740000D01*
X86360000Y-78740000D02*
X87630000Y-77470000D01*
X121940000Y-106660000D02*
X123190000Y-105410000D01*
X113010000Y-106660000D02*
X121940000Y-106660000D01*
X111760000Y-105410000D02*
X113010000Y-106660000D01*
X105410000Y-105410000D02*
X111760000Y-105410000D01*
X142240000Y-115570000D02*
X142240000Y-117380000D01*
X143510000Y-114300000D02*
X142240000Y-115570000D01*
X151130000Y-114300000D02*
X143510000Y-114300000D01*
X104210000Y-106610000D02*
X105410000Y-105410000D01*
X95320000Y-106610000D02*
X104210000Y-106610000D01*
X94120000Y-105410000D02*
X95320000Y-106610000D01*
X87630000Y-105410000D02*
X94120000Y-105410000D01*
%TO.N,/S1*%
X69850000Y-102870000D02*
X72430000Y-102870000D01*
X72430000Y-102870000D02*
X73680000Y-104120000D01*
X73680000Y-104120000D02*
X81260000Y-104120000D01*
X81260000Y-104120000D02*
X82550000Y-105410000D01*
X82550000Y-105410000D02*
X85090000Y-105410000D01*
X85090000Y-105410000D02*
X87630000Y-102870000D01*
X123190000Y-102870000D02*
X133350000Y-102870000D01*
X133350000Y-102870000D02*
X142240000Y-111760000D01*
X142240000Y-111760000D02*
X151130000Y-111760000D01*
X87630000Y-102870000D02*
X90170000Y-102870000D01*
X90170000Y-102870000D02*
X91440000Y-104140000D01*
X91440000Y-104140000D02*
X99060000Y-104140000D01*
X99060000Y-104140000D02*
X100330000Y-105410000D01*
X100330000Y-105410000D02*
X102870000Y-105410000D01*
X102870000Y-105410000D02*
X105410000Y-102870000D01*
X105410000Y-102870000D02*
X108625000Y-102870000D01*
X108625000Y-102870000D02*
X108625000Y-102910000D01*
X116840000Y-104140000D02*
X118110000Y-105410000D01*
X118110000Y-105410000D02*
X120650000Y-105410000D01*
X120650000Y-105410000D02*
X123190000Y-102870000D01*
X105410000Y-74930000D02*
X108585000Y-74930000D01*
X108585000Y-74930000D02*
X109855000Y-76200000D01*
X109855000Y-76200000D02*
X116840000Y-76200000D01*
X116840000Y-76200000D02*
X118110000Y-77470000D01*
X118110000Y-77470000D02*
X120650000Y-77470000D01*
X120650000Y-77470000D02*
X123190000Y-74930000D01*
X69850000Y-74930000D02*
X73025000Y-74930000D01*
X73025000Y-74930000D02*
X74295000Y-76200000D01*
X74295000Y-76200000D02*
X81280000Y-76200000D01*
X81280000Y-76200000D02*
X82550000Y-77470000D01*
X82550000Y-77470000D02*
X85090000Y-77470000D01*
X85090000Y-77470000D02*
X87630000Y-74930000D01*
X87630000Y-74930000D02*
X90805000Y-74930000D01*
X90805000Y-74930000D02*
X92075000Y-76200000D01*
X92075000Y-76200000D02*
X99060000Y-76200000D01*
X99060000Y-76200000D02*
X100330000Y-77470000D01*
X100330000Y-77470000D02*
X102870000Y-77470000D01*
X102870000Y-77470000D02*
X105410000Y-74930000D01*
X151905000Y-116302000D02*
X152718000Y-115490000D01*
X152718000Y-115490000D02*
X152718000Y-112476000D01*
X152718000Y-112476000D02*
X152002000Y-111760000D01*
X152002000Y-111760000D02*
X151130000Y-111760000D01*
X111800000Y-102910000D02*
X113030000Y-104140000D01*
X108625000Y-102910000D02*
X111800000Y-102910000D01*
X113030000Y-104140000D02*
X116840000Y-104140000D01*
X144780000Y-117380000D02*
X144780000Y-116205000D01*
X144780000Y-116205000D02*
X145415000Y-115570000D01*
X149031000Y-115570000D02*
X149763000Y-116302000D01*
X145415000Y-115570000D02*
X149031000Y-115570000D01*
X149763000Y-116302000D02*
X151905000Y-116302000D01*
%TO.N,/S0*%
X123190000Y-100330000D02*
X152400000Y-100330000D01*
X152400000Y-100330000D02*
X153670000Y-101600000D01*
X153670000Y-101600000D02*
X153670000Y-109220000D01*
X87630000Y-100330000D02*
X90170000Y-100330000D01*
X90170000Y-100330000D02*
X91420000Y-99080000D01*
X91420000Y-99080000D02*
X102890000Y-99080000D01*
X102890000Y-99080000D02*
X104140000Y-100330000D01*
X104140000Y-100330000D02*
X105410000Y-100330000D01*
X87630000Y-100330000D02*
X86360000Y-100330000D01*
X86360000Y-100330000D02*
X85110000Y-99080000D01*
X85110000Y-99080000D02*
X73640000Y-99080000D01*
X73640000Y-99080000D02*
X72390000Y-100330000D01*
X72390000Y-100330000D02*
X69850000Y-100330000D01*
X105410000Y-72390000D02*
X105410000Y-72389700D01*
X105410000Y-72389700D02*
X108585000Y-72389700D01*
X108585000Y-72389700D02*
X109835000Y-71140000D01*
X109835000Y-71140000D02*
X119995000Y-71140000D01*
X119995000Y-71140000D02*
X121245000Y-72390000D01*
X121245000Y-72390000D02*
X123190000Y-72390000D01*
X87630000Y-72390000D02*
X90845000Y-72390000D01*
X90845000Y-72390000D02*
X92095000Y-71140000D01*
X92095000Y-71140000D02*
X102850000Y-71140000D01*
X102850000Y-71140000D02*
X104100000Y-72390000D01*
X104100000Y-72390000D02*
X105410000Y-72390000D01*
X69850000Y-72390000D02*
X73025000Y-72390000D01*
X73025000Y-72390000D02*
X74275000Y-71140000D01*
X74275000Y-71140000D02*
X85070000Y-71140000D01*
X85070000Y-71140000D02*
X86320000Y-72390000D01*
X86320000Y-72390000D02*
X87630000Y-72390000D01*
X147320000Y-117380000D02*
X152495000Y-117380000D01*
X152495000Y-117380000D02*
X153670000Y-116205000D01*
X153670000Y-116205000D02*
X153670000Y-109220000D01*
X151130000Y-109220000D02*
X153670000Y-109220000D01*
X123190000Y-100330000D02*
X118705000Y-100330000D01*
X118705000Y-100330000D02*
X117455000Y-99080000D01*
X117455000Y-99080000D02*
X109835000Y-99080000D01*
X109835000Y-99080000D02*
X108585000Y-100330000D01*
X108585000Y-100330000D02*
X105410000Y-100330000D01*
%TO.N,/O6*%
X133350000Y-76200000D02*
X134650000Y-76200000D01*
X128827700Y-68600000D02*
X133988000Y-63439700D01*
X133988000Y-63439700D02*
X152183800Y-63439700D01*
X152183800Y-63439700D02*
X152430400Y-63686300D01*
X152430400Y-63686300D02*
X152430400Y-65846900D01*
X152430400Y-65846900D02*
X143366900Y-74910400D01*
X143366900Y-74910400D02*
X135939600Y-74910400D01*
X135939600Y-74910400D02*
X134650000Y-76200000D01*
X100370000Y-69850000D02*
X101620000Y-68600000D01*
X97790000Y-69850000D02*
X100370000Y-69850000D01*
X101620000Y-68600000D02*
X128827700Y-68600000D01*
%TO.N,/O5*%
X132050000Y-78740000D02*
X133350000Y-78740000D01*
X130780000Y-80010000D02*
X132050000Y-78740000D01*
X80010000Y-80010000D02*
X130780000Y-80010000D01*
%TO.N,/O4*%
X62230000Y-81280000D02*
X132050000Y-81280000D01*
X60325000Y-79375000D02*
X62230000Y-81280000D01*
X132050000Y-81280000D02*
X133350000Y-81280000D01*
X60325000Y-70485000D02*
X60325000Y-79375000D01*
X60960000Y-69850000D02*
X60325000Y-70485000D01*
X62230000Y-69850000D02*
X60960000Y-69850000D01*
%TO.N,/O3*%
X117475000Y-97790000D02*
X118725000Y-96540000D01*
X115570000Y-97790000D02*
X117475000Y-97790000D01*
X118725000Y-96540000D02*
X132586500Y-96540000D01*
X133350000Y-83820000D02*
X137160000Y-83820000D01*
X137160000Y-83820000D02*
X139065000Y-85725000D01*
X132606500Y-96520000D02*
X132586500Y-96540000D01*
X137795000Y-96520000D02*
X139065000Y-95250000D01*
X139065000Y-85725000D02*
X139065000Y-95250000D01*
X137795000Y-96520000D02*
X132606500Y-96520000D01*
%TO.N,/O2*%
X132050000Y-86360000D02*
X129366500Y-83676500D01*
X129366500Y-83676500D02*
X106238600Y-83676500D01*
X133350000Y-86360000D02*
X132050000Y-86360000D01*
%TO.N,/O1*%
X135255000Y-89535000D02*
X134620000Y-88900000D01*
X135255000Y-92075000D02*
X135255000Y-89535000D01*
X131445000Y-92710000D02*
X134620000Y-92710000D01*
X92046350Y-92681350D02*
X92046350Y-88928650D01*
X92046350Y-88928650D02*
X95250000Y-85725000D01*
X82550000Y-97790000D02*
X83800000Y-96540000D01*
X100965000Y-85725000D02*
X104206200Y-88966200D01*
X134620000Y-88900000D02*
X133350000Y-88900000D01*
X83800000Y-96540000D02*
X88187700Y-96540000D01*
X88187700Y-96540000D02*
X92046350Y-92681350D01*
X117408800Y-88966200D02*
X117992900Y-89550300D01*
X127635000Y-88900000D02*
X131445000Y-92710000D01*
X95250000Y-85725000D02*
X100965000Y-85725000D01*
X104206200Y-88966200D02*
X117408800Y-88966200D01*
X134620000Y-92710000D02*
X135255000Y-92075000D01*
X117992900Y-89550300D02*
X120796600Y-89550300D01*
X80010000Y-97790000D02*
X82550000Y-97790000D01*
X120796600Y-89550300D02*
X121446900Y-88900000D01*
X121446900Y-88900000D02*
X127635000Y-88900000D01*
%TO.N,/O0*%
X132050000Y-91440000D02*
X133350000Y-91440000D01*
X125336900Y-84726900D02*
X132050000Y-91440000D01*
X104411900Y-84726900D02*
X125336900Y-84726900D01*
X68357700Y-82772300D02*
X102457300Y-82772300D01*
X64135000Y-86995000D02*
X68357700Y-82772300D01*
X102457300Y-82772300D02*
X104411900Y-84726900D01*
X64135000Y-97155000D02*
X64135000Y-86995000D01*
X63500000Y-97790000D02*
X64135000Y-97155000D01*
X62230000Y-97790000D02*
X63500000Y-97790000D01*
%TO.N,Net-(D1-Pad2)*%
X147320000Y-123190000D02*
X147320000Y-119380000D01*
%TO.N,Net-(D2-Pad2)*%
X144780000Y-123190000D02*
X144780000Y-119380000D01*
%TO.N,Net-(D3-Pad2)*%
X142240000Y-123190000D02*
X142240000Y-119380000D01*
%TO.N,/~EL*%
X115570000Y-102870000D02*
X116840000Y-102870000D01*
X116840000Y-102870000D02*
X118110000Y-101600000D01*
X118110000Y-101600000D02*
X139700000Y-101600000D01*
X139700000Y-101600000D02*
X142240000Y-104140000D01*
X142240000Y-104140000D02*
X151130000Y-104140000D01*
X97790000Y-102870000D02*
X92710000Y-102870000D01*
X92710000Y-102870000D02*
X91440000Y-101600000D01*
X91440000Y-101600000D02*
X81915000Y-101600000D01*
X81915000Y-101600000D02*
X80645000Y-102870000D01*
X80645000Y-102870000D02*
X80010000Y-102870000D01*
X74930000Y-102870000D02*
X80010000Y-102870000D01*
X73660000Y-101600000D02*
X74930000Y-102870000D01*
X65405000Y-101600000D02*
X73660000Y-101600000D01*
X64135000Y-102870000D02*
X65405000Y-101600000D01*
X62230000Y-102870000D02*
X64135000Y-102870000D01*
X113665000Y-102870000D02*
X115570000Y-102870000D01*
X112395000Y-101600000D02*
X113665000Y-102870000D01*
X100330000Y-101600000D02*
X112395000Y-101600000D01*
X99060000Y-102870000D02*
X100330000Y-101600000D01*
X97790000Y-102870000D02*
X99060000Y-102870000D01*
%TO.N,/~EH*%
X151130000Y-64770000D02*
X134620000Y-64770000D01*
X134620000Y-64770000D02*
X125730000Y-73660000D01*
X125730000Y-73660000D02*
X118110000Y-73660000D01*
X118110000Y-73660000D02*
X116840000Y-74930000D01*
X116840000Y-74930000D02*
X115570000Y-74930000D01*
X115570000Y-74930000D02*
X111125000Y-74930000D01*
X111125000Y-74930000D02*
X109855000Y-73660000D01*
X109855000Y-73660000D02*
X100330000Y-73660000D01*
X100330000Y-73660000D02*
X99060000Y-74930000D01*
X99060000Y-74930000D02*
X97790000Y-74930000D01*
X97790000Y-74930000D02*
X93345000Y-74930000D01*
X93345000Y-74930000D02*
X92075000Y-73660000D01*
X92075000Y-73660000D02*
X82550000Y-73660000D01*
X82550000Y-73660000D02*
X81280000Y-74930000D01*
X81280000Y-74930000D02*
X80010000Y-74930000D01*
X80010000Y-74930000D02*
X76200000Y-74930000D01*
X76200000Y-74930000D02*
X74930000Y-73660000D01*
X74930000Y-73660000D02*
X64770000Y-73660000D01*
X64770000Y-73660000D02*
X63500000Y-74930000D01*
X63500000Y-74930000D02*
X62230000Y-74930000D01*
%TD*%
M02*
