%TF.GenerationSoftware,KiCad,Pcbnew,(5.1.8)-1*%
%TF.CreationDate,2024-06-20T22:43:38+03:00*%
%TF.ProjectId,MUX16bit,4d555831-3662-4697-942e-6b696361645f,rev?*%
%TF.SameCoordinates,Original*%
%TF.FileFunction,Soldermask,Top*%
%TF.FilePolarity,Negative*%
%FSLAX46Y46*%
G04 Gerber Fmt 4.6, Leading zero omitted, Abs format (unit mm)*
G04 Created by KiCad (PCBNEW (5.1.8)-1) date 2024-06-20 22:43:38*
%MOMM*%
%LPD*%
G01*
G04 APERTURE LIST*
%ADD10R,1.700000X1.700000*%
%ADD11O,1.800000X1.500000*%
%ADD12O,1.600000X1.524000*%
%ADD13O,1.500000X2.300000*%
%ADD14R,1.500000X2.300000*%
%ADD15O,2.000000X1.500000*%
%ADD16R,2.000000X1.500000*%
%ADD17O,1.500000X2.200000*%
%ADD18C,3.200000*%
%ADD19O,1.800000X2.000000*%
%ADD20R,1.800000X2.000000*%
%ADD21C,2.600000*%
%ADD22R,2.600000X2.600000*%
%ADD23O,2.000000X2.000000*%
%ADD24R,2.000000X2.000000*%
G04 APERTURE END LIST*
D10*
%TO.C,J11*%
X139700000Y-49530000D03*
%TD*%
%TO.C,J10*%
X73660000Y-100330000D03*
%TD*%
D11*
%TO.C,U9*%
X122555000Y-22225000D03*
X136525000Y-22225000D03*
X119380000Y-73660000D03*
X119380000Y-71120000D03*
X119380000Y-68580000D03*
X119380000Y-66040000D03*
X119380000Y-63500000D03*
X119380000Y-60960000D03*
X119380000Y-58420000D03*
X119380000Y-55880000D03*
X119380000Y-53340000D03*
X119380000Y-45720000D03*
X119380000Y-43180000D03*
X119380000Y-40640000D03*
X119380000Y-38100000D03*
X119380000Y-35560000D03*
X119380000Y-33020000D03*
X119380000Y-30480000D03*
X119380000Y-27940000D03*
X119380000Y-25400000D03*
X139700000Y-25400000D03*
X139700000Y-27940000D03*
X139700000Y-30480000D03*
X139700000Y-33020000D03*
X139700000Y-35560000D03*
X139700000Y-38100000D03*
X139700000Y-40640000D03*
X139700000Y-43180000D03*
X139700000Y-45720000D03*
X139700000Y-53340000D03*
X139700000Y-55880000D03*
X139700000Y-58420000D03*
X139700000Y-60960000D03*
X139700000Y-63500000D03*
X139700000Y-66040000D03*
X139700000Y-68580000D03*
X139700000Y-71120000D03*
X139700000Y-73660000D03*
%TD*%
D12*
%TO.C,U8*%
X92710000Y-33020000D03*
X90170000Y-33020000D03*
X87630000Y-33020000D03*
X85090000Y-33020000D03*
X82550000Y-33020000D03*
X80010000Y-33020000D03*
X77470000Y-33020000D03*
X67310000Y-33020000D03*
X64770000Y-33020000D03*
X54610000Y-33020000D03*
X52070000Y-33020000D03*
X46990000Y-33020000D03*
X44450000Y-33020000D03*
X41910000Y-33020000D03*
X39370000Y-33020000D03*
%TD*%
%TO.C,U7*%
X92710000Y-38100000D03*
X90170000Y-38100000D03*
X87630000Y-38100000D03*
X85090000Y-38100000D03*
X82550000Y-38100000D03*
X80010000Y-38100000D03*
X77470000Y-38100000D03*
X67310000Y-38100000D03*
X64770000Y-38100000D03*
X54610000Y-38100000D03*
X52070000Y-38100000D03*
X46990000Y-38100000D03*
X44450000Y-38100000D03*
X41910000Y-38100000D03*
X39370000Y-38100000D03*
%TD*%
%TO.C,U6*%
X92710000Y-43180000D03*
X90170000Y-43180000D03*
X87630000Y-43180000D03*
X85090000Y-43180000D03*
X82550000Y-43180000D03*
X80010000Y-43180000D03*
X77470000Y-43180000D03*
X67310000Y-43180000D03*
X64770000Y-43180000D03*
X54610000Y-43180000D03*
X52070000Y-43180000D03*
X46990000Y-43180000D03*
X44450000Y-43180000D03*
X41910000Y-43180000D03*
X39370000Y-43180000D03*
%TD*%
%TO.C,U5*%
X92710000Y-48260000D03*
X90170000Y-48260000D03*
X87630000Y-48260000D03*
X85090000Y-48260000D03*
X82550000Y-48260000D03*
X80010000Y-48260000D03*
X77470000Y-48260000D03*
X67310000Y-48260000D03*
X64770000Y-48260000D03*
X54610000Y-48260000D03*
X52070000Y-48260000D03*
X46990000Y-48260000D03*
X44450000Y-48260000D03*
X41910000Y-48260000D03*
X39370000Y-48260000D03*
%TD*%
%TO.C,U4*%
X92710000Y-53340000D03*
X90170000Y-53340000D03*
X87630000Y-53340000D03*
X85090000Y-53340000D03*
X82550000Y-53340000D03*
X80010000Y-53340000D03*
X77470000Y-53340000D03*
X67310000Y-53340000D03*
X64770000Y-53340000D03*
X54610000Y-53340000D03*
X52070000Y-53340000D03*
X46990000Y-53340000D03*
X44450000Y-53340000D03*
X41910000Y-53340000D03*
X39370000Y-53340000D03*
%TD*%
%TO.C,U3*%
X92710000Y-58420000D03*
X90170000Y-58420000D03*
X87630000Y-58420000D03*
X85090000Y-58420000D03*
X82550000Y-58420000D03*
X80010000Y-58420000D03*
X77470000Y-58420000D03*
X67310000Y-58420000D03*
X64770000Y-58420000D03*
X54610000Y-58420000D03*
X52070000Y-58420000D03*
X46990000Y-58420000D03*
X44450000Y-58420000D03*
X41910000Y-58420000D03*
X39370000Y-58420000D03*
%TD*%
%TO.C,U2*%
X92710000Y-63500000D03*
X90170000Y-63500000D03*
X87630000Y-63500000D03*
X85090000Y-63500000D03*
X82550000Y-63500000D03*
X80010000Y-63500000D03*
X77470000Y-63500000D03*
X67310000Y-63500000D03*
X64770000Y-63500000D03*
X54610000Y-63500000D03*
X52070000Y-63500000D03*
X46990000Y-63500000D03*
X44450000Y-63500000D03*
X41910000Y-63500000D03*
X39370000Y-63500000D03*
%TD*%
%TO.C,U1*%
X92710000Y-68580000D03*
X90170000Y-68580000D03*
X87630000Y-68580000D03*
X85090000Y-68580000D03*
X82550000Y-68580000D03*
X80010000Y-68580000D03*
X77470000Y-68580000D03*
X67310000Y-68580000D03*
X64770000Y-68580000D03*
X54610000Y-68580000D03*
X52070000Y-68580000D03*
X46990000Y-68580000D03*
X44450000Y-68580000D03*
X41910000Y-68580000D03*
X39370000Y-68580000D03*
%TD*%
D13*
%TO.C,J9*%
X83820000Y-87630000D03*
X86360000Y-87630000D03*
X88900000Y-87630000D03*
X91440000Y-87630000D03*
X93980000Y-87630000D03*
X96520000Y-87630000D03*
X99060000Y-87630000D03*
X101600000Y-87630000D03*
D14*
X104140000Y-87630000D03*
%TD*%
D15*
%TO.C,U14*%
X133985000Y-24130000D03*
X126365000Y-46990000D03*
X133985000Y-26670000D03*
X126365000Y-44450000D03*
X133985000Y-29210000D03*
X126365000Y-41910000D03*
X133985000Y-31750000D03*
X126365000Y-39370000D03*
X133985000Y-34290000D03*
X126365000Y-36830000D03*
X133985000Y-36830000D03*
X126365000Y-34290000D03*
X133985000Y-39370000D03*
X126365000Y-31750000D03*
X133985000Y-41910000D03*
X126365000Y-29210000D03*
X133985000Y-44450000D03*
X126365000Y-26670000D03*
X133985000Y-46990000D03*
D16*
X126365000Y-24130000D03*
%TD*%
D15*
%TO.C,U13*%
X133985000Y-52070000D03*
X126365000Y-74930000D03*
X133985000Y-54610000D03*
X126365000Y-72390000D03*
X133985000Y-57150000D03*
X126365000Y-69850000D03*
X133985000Y-59690000D03*
X126365000Y-67310000D03*
X133985000Y-62230000D03*
X126365000Y-64770000D03*
X133985000Y-64770000D03*
X126365000Y-62230000D03*
X133985000Y-67310000D03*
X126365000Y-59690000D03*
X133985000Y-69850000D03*
X126365000Y-57150000D03*
X133985000Y-72390000D03*
X126365000Y-54610000D03*
X133985000Y-74930000D03*
D16*
X126365000Y-52070000D03*
%TD*%
D17*
%TO.C,U12*%
X160020000Y-100330000D03*
X157480000Y-100330000D03*
X152400000Y-100330000D03*
X149860000Y-100330000D03*
X147320000Y-100330000D03*
X144780000Y-100330000D03*
X142240000Y-100330000D03*
X139700000Y-100330000D03*
X137160000Y-100330000D03*
X134620000Y-100330000D03*
X132080000Y-100330000D03*
X127000000Y-100330000D03*
X124460000Y-100330000D03*
X121920000Y-100330000D03*
X119380000Y-100330000D03*
X116840000Y-100330000D03*
X114300000Y-100330000D03*
X111760000Y-100330000D03*
X109220000Y-100330000D03*
X104140000Y-100330000D03*
X101600000Y-100330000D03*
X99060000Y-100330000D03*
X96520000Y-100330000D03*
X93980000Y-100330000D03*
X91440000Y-100330000D03*
X88900000Y-100330000D03*
X86360000Y-100330000D03*
X81280000Y-100330000D03*
%TD*%
%TO.C,U11*%
X137160000Y-92710000D03*
X134620000Y-92710000D03*
X129540000Y-92710000D03*
X127000000Y-92710000D03*
X124460000Y-92710000D03*
X121920000Y-92710000D03*
X119380000Y-92710000D03*
X116840000Y-92710000D03*
X114300000Y-92710000D03*
X111760000Y-92710000D03*
X109220000Y-92710000D03*
X104140000Y-92710000D03*
X101600000Y-92710000D03*
X99060000Y-92710000D03*
X96520000Y-92710000D03*
X93980000Y-92710000D03*
X91440000Y-92710000D03*
X88900000Y-92710000D03*
X86360000Y-92710000D03*
X81280000Y-92710000D03*
X78740000Y-92710000D03*
X76200000Y-92710000D03*
X73660000Y-92710000D03*
X71120000Y-92710000D03*
X68580000Y-92710000D03*
X66040000Y-92710000D03*
X63500000Y-92710000D03*
X58420000Y-92710000D03*
%TD*%
D18*
%TO.C,H6*%
X87630000Y-106680000D03*
%TD*%
%TO.C,H5*%
X87630000Y-17780000D03*
%TD*%
D19*
%TO.C,J5*%
X15240000Y-72390000D03*
X15240000Y-69850000D03*
X15240000Y-67310000D03*
X15240000Y-64770000D03*
X15240000Y-62230000D03*
X15240000Y-59690000D03*
X15240000Y-57150000D03*
X15240000Y-54610000D03*
X15240000Y-52070000D03*
X15240000Y-49530000D03*
X15240000Y-46990000D03*
X15240000Y-44450000D03*
X15240000Y-41910000D03*
X15240000Y-39370000D03*
X15240000Y-36830000D03*
X15240000Y-34290000D03*
D20*
X15240000Y-31750000D03*
%TD*%
D15*
%TO.C,J4*%
X104140000Y-71120000D03*
X104140000Y-68580000D03*
X104140000Y-66040000D03*
X104140000Y-63500000D03*
X104140000Y-60960000D03*
X104140000Y-58420000D03*
X104140000Y-55880000D03*
X104140000Y-53340000D03*
X104140000Y-50800000D03*
X104140000Y-48260000D03*
X104140000Y-45720000D03*
X104140000Y-43180000D03*
X104140000Y-40640000D03*
X104140000Y-38100000D03*
X104140000Y-35560000D03*
X104140000Y-33020000D03*
D16*
X104140000Y-30480000D03*
%TD*%
D15*
%TO.C,J3*%
X99060000Y-72390000D03*
X99060000Y-69850000D03*
X99060000Y-67310000D03*
X99060000Y-64770000D03*
X99060000Y-62230000D03*
X99060000Y-59690000D03*
X99060000Y-57150000D03*
X99060000Y-54610000D03*
X99060000Y-52070000D03*
X99060000Y-49530000D03*
X99060000Y-46990000D03*
X99060000Y-44450000D03*
X99060000Y-41910000D03*
X99060000Y-39370000D03*
X99060000Y-36830000D03*
X99060000Y-34290000D03*
D16*
X99060000Y-31750000D03*
%TD*%
D15*
%TO.C,J2*%
X33020000Y-72390000D03*
X33020000Y-69850000D03*
X33020000Y-67310000D03*
X33020000Y-64770000D03*
X33020000Y-62230000D03*
X33020000Y-59690000D03*
X33020000Y-57150000D03*
X33020000Y-54610000D03*
X33020000Y-52070000D03*
X33020000Y-49530000D03*
X33020000Y-46990000D03*
X33020000Y-44450000D03*
X33020000Y-41910000D03*
X33020000Y-39370000D03*
X33020000Y-36830000D03*
X33020000Y-34290000D03*
D16*
X33020000Y-31750000D03*
%TD*%
D15*
%TO.C,J1*%
X26670000Y-71120000D03*
X26670000Y-68580000D03*
X26670000Y-66040000D03*
X26670000Y-63500000D03*
X26670000Y-60960000D03*
X26670000Y-58420000D03*
X26670000Y-55880000D03*
X26670000Y-53340000D03*
X26670000Y-50800000D03*
X26670000Y-48260000D03*
X26670000Y-45720000D03*
X26670000Y-43180000D03*
X26670000Y-40640000D03*
X26670000Y-38100000D03*
X26670000Y-35560000D03*
X26670000Y-33020000D03*
D16*
X26670000Y-30480000D03*
%TD*%
D18*
%TO.C,H4*%
X157480000Y-17780000D03*
%TD*%
%TO.C,H3*%
X17780000Y-17780000D03*
%TD*%
%TO.C,H2*%
X157480000Y-106680000D03*
%TD*%
%TO.C,H1*%
X17780000Y-106680000D03*
%TD*%
D21*
%TO.C,J8*%
X99140000Y-19050000D03*
D22*
X104140000Y-19050000D03*
%TD*%
D23*
%TO.C,J7*%
X82550000Y-27305000D03*
X80010000Y-27305000D03*
D24*
X77470000Y-27305000D03*
%TD*%
D10*
%TO.C,J6*%
X129540000Y-106680000D03*
%TD*%
M02*
