%TF.GenerationSoftware,KiCad,Pcbnew,(5.1.8)-1*%
%TF.CreationDate,2023-01-12T00:15:59+03:00*%
%TF.ProjectId,273,3237332e-6b69-4636-9164-5f7063625858,rev?*%
%TF.SameCoordinates,Original*%
%TF.FileFunction,Copper,L1,Top*%
%TF.FilePolarity,Positive*%
%FSLAX46Y46*%
G04 Gerber Fmt 4.6, Leading zero omitted, Abs format (unit mm)*
G04 Created by KiCad (PCBNEW (5.1.8)-1) date 2023-01-12 00:15:59*
%MOMM*%
%LPD*%
G01*
G04 APERTURE LIST*
%TA.AperFunction,NonConductor*%
%ADD10C,0.300000*%
%TD*%
%TA.AperFunction,ComponentPad*%
%ADD11R,2.300000X2.100000*%
%TD*%
%TA.AperFunction,ComponentPad*%
%ADD12O,2.300000X2.100000*%
%TD*%
%TA.AperFunction,ComponentPad*%
%ADD13R,2.000000X1.500000*%
%TD*%
%TA.AperFunction,ComponentPad*%
%ADD14O,2.000000X1.500000*%
%TD*%
%TA.AperFunction,ViaPad*%
%ADD15C,0.800000*%
%TD*%
%TA.AperFunction,Conductor*%
%ADD16C,0.250000*%
%TD*%
%TA.AperFunction,Conductor*%
%ADD17C,0.600000*%
%TD*%
%TA.AperFunction,Conductor*%
%ADD18C,0.500000*%
%TD*%
G04 APERTURE END LIST*
D10*
X78152857Y-55201428D02*
X78224285Y-55130000D01*
X78367142Y-55058571D01*
X78724285Y-55058571D01*
X78867142Y-55130000D01*
X78938571Y-55201428D01*
X79010000Y-55344285D01*
X79010000Y-55487142D01*
X78938571Y-55701428D01*
X78081428Y-56558571D01*
X79010000Y-56558571D01*
X79510000Y-55058571D02*
X80510000Y-55058571D01*
X79867142Y-56558571D01*
X80938571Y-55058571D02*
X81867142Y-55058571D01*
X81367142Y-55630000D01*
X81581428Y-55630000D01*
X81724285Y-55701428D01*
X81795714Y-55772857D01*
X81867142Y-55915714D01*
X81867142Y-56272857D01*
X81795714Y-56415714D01*
X81724285Y-56487142D01*
X81581428Y-56558571D01*
X81152857Y-56558571D01*
X81010000Y-56487142D01*
X80938571Y-56415714D01*
%TO.P,D8,2*%
%TO.N,/Q7*%
%TA.AperFunction,SMDPad,CuDef*%
G36*
G01*
X92260000Y-52889999D02*
X92260000Y-53790001D01*
G75*
G02*
X92010001Y-54040000I-249999J0D01*
G01*
X91359999Y-54040000D01*
G75*
G02*
X91110000Y-53790001I0J249999D01*
G01*
X91110000Y-52889999D01*
G75*
G02*
X91359999Y-52640000I249999J0D01*
G01*
X92010001Y-52640000D01*
G75*
G02*
X92260000Y-52889999I0J-249999D01*
G01*
G37*
%TD.AperFunction*%
%TO.P,D8,1*%
%TO.N,Net-(D8-Pad1)*%
%TA.AperFunction,SMDPad,CuDef*%
G36*
G01*
X94310000Y-52889999D02*
X94310000Y-53790001D01*
G75*
G02*
X94060001Y-54040000I-249999J0D01*
G01*
X93409999Y-54040000D01*
G75*
G02*
X93160000Y-53790001I0J249999D01*
G01*
X93160000Y-52889999D01*
G75*
G02*
X93409999Y-52640000I249999J0D01*
G01*
X94060001Y-52640000D01*
G75*
G02*
X94310000Y-52889999I0J-249999D01*
G01*
G37*
%TD.AperFunction*%
%TD*%
%TO.P,D7,2*%
%TO.N,/Q6*%
%TA.AperFunction,SMDPad,CuDef*%
G36*
G01*
X92260000Y-50349999D02*
X92260000Y-51250001D01*
G75*
G02*
X92010001Y-51500000I-249999J0D01*
G01*
X91359999Y-51500000D01*
G75*
G02*
X91110000Y-51250001I0J249999D01*
G01*
X91110000Y-50349999D01*
G75*
G02*
X91359999Y-50100000I249999J0D01*
G01*
X92010001Y-50100000D01*
G75*
G02*
X92260000Y-50349999I0J-249999D01*
G01*
G37*
%TD.AperFunction*%
%TO.P,D7,1*%
%TO.N,Net-(D7-Pad1)*%
%TA.AperFunction,SMDPad,CuDef*%
G36*
G01*
X94310000Y-50349999D02*
X94310000Y-51250001D01*
G75*
G02*
X94060001Y-51500000I-249999J0D01*
G01*
X93409999Y-51500000D01*
G75*
G02*
X93160000Y-51250001I0J249999D01*
G01*
X93160000Y-50349999D01*
G75*
G02*
X93409999Y-50100000I249999J0D01*
G01*
X94060001Y-50100000D01*
G75*
G02*
X94310000Y-50349999I0J-249999D01*
G01*
G37*
%TD.AperFunction*%
%TD*%
%TO.P,D6,2*%
%TO.N,/Q5*%
%TA.AperFunction,SMDPad,CuDef*%
G36*
G01*
X92260000Y-47809999D02*
X92260000Y-48710001D01*
G75*
G02*
X92010001Y-48960000I-249999J0D01*
G01*
X91359999Y-48960000D01*
G75*
G02*
X91110000Y-48710001I0J249999D01*
G01*
X91110000Y-47809999D01*
G75*
G02*
X91359999Y-47560000I249999J0D01*
G01*
X92010001Y-47560000D01*
G75*
G02*
X92260000Y-47809999I0J-249999D01*
G01*
G37*
%TD.AperFunction*%
%TO.P,D6,1*%
%TO.N,Net-(D6-Pad1)*%
%TA.AperFunction,SMDPad,CuDef*%
G36*
G01*
X94310000Y-47809999D02*
X94310000Y-48710001D01*
G75*
G02*
X94060001Y-48960000I-249999J0D01*
G01*
X93409999Y-48960000D01*
G75*
G02*
X93160000Y-48710001I0J249999D01*
G01*
X93160000Y-47809999D01*
G75*
G02*
X93409999Y-47560000I249999J0D01*
G01*
X94060001Y-47560000D01*
G75*
G02*
X94310000Y-47809999I0J-249999D01*
G01*
G37*
%TD.AperFunction*%
%TD*%
%TO.P,D5,2*%
%TO.N,/Q4*%
%TA.AperFunction,SMDPad,CuDef*%
G36*
G01*
X92260000Y-45269999D02*
X92260000Y-46170001D01*
G75*
G02*
X92010001Y-46420000I-249999J0D01*
G01*
X91359999Y-46420000D01*
G75*
G02*
X91110000Y-46170001I0J249999D01*
G01*
X91110000Y-45269999D01*
G75*
G02*
X91359999Y-45020000I249999J0D01*
G01*
X92010001Y-45020000D01*
G75*
G02*
X92260000Y-45269999I0J-249999D01*
G01*
G37*
%TD.AperFunction*%
%TO.P,D5,1*%
%TO.N,Net-(D5-Pad1)*%
%TA.AperFunction,SMDPad,CuDef*%
G36*
G01*
X94310000Y-45269999D02*
X94310000Y-46170001D01*
G75*
G02*
X94060001Y-46420000I-249999J0D01*
G01*
X93409999Y-46420000D01*
G75*
G02*
X93160000Y-46170001I0J249999D01*
G01*
X93160000Y-45269999D01*
G75*
G02*
X93409999Y-45020000I249999J0D01*
G01*
X94060001Y-45020000D01*
G75*
G02*
X94310000Y-45269999I0J-249999D01*
G01*
G37*
%TD.AperFunction*%
%TD*%
%TO.P,D4,2*%
%TO.N,/Q3*%
%TA.AperFunction,SMDPad,CuDef*%
G36*
G01*
X92260000Y-42729999D02*
X92260000Y-43630001D01*
G75*
G02*
X92010001Y-43880000I-249999J0D01*
G01*
X91359999Y-43880000D01*
G75*
G02*
X91110000Y-43630001I0J249999D01*
G01*
X91110000Y-42729999D01*
G75*
G02*
X91359999Y-42480000I249999J0D01*
G01*
X92010001Y-42480000D01*
G75*
G02*
X92260000Y-42729999I0J-249999D01*
G01*
G37*
%TD.AperFunction*%
%TO.P,D4,1*%
%TO.N,Net-(D4-Pad1)*%
%TA.AperFunction,SMDPad,CuDef*%
G36*
G01*
X94310000Y-42729999D02*
X94310000Y-43630001D01*
G75*
G02*
X94060001Y-43880000I-249999J0D01*
G01*
X93409999Y-43880000D01*
G75*
G02*
X93160000Y-43630001I0J249999D01*
G01*
X93160000Y-42729999D01*
G75*
G02*
X93409999Y-42480000I249999J0D01*
G01*
X94060001Y-42480000D01*
G75*
G02*
X94310000Y-42729999I0J-249999D01*
G01*
G37*
%TD.AperFunction*%
%TD*%
%TO.P,D3,2*%
%TO.N,/Q2*%
%TA.AperFunction,SMDPad,CuDef*%
G36*
G01*
X92260000Y-40189999D02*
X92260000Y-41090001D01*
G75*
G02*
X92010001Y-41340000I-249999J0D01*
G01*
X91359999Y-41340000D01*
G75*
G02*
X91110000Y-41090001I0J249999D01*
G01*
X91110000Y-40189999D01*
G75*
G02*
X91359999Y-39940000I249999J0D01*
G01*
X92010001Y-39940000D01*
G75*
G02*
X92260000Y-40189999I0J-249999D01*
G01*
G37*
%TD.AperFunction*%
%TO.P,D3,1*%
%TO.N,Net-(D3-Pad1)*%
%TA.AperFunction,SMDPad,CuDef*%
G36*
G01*
X94310000Y-40189999D02*
X94310000Y-41090001D01*
G75*
G02*
X94060001Y-41340000I-249999J0D01*
G01*
X93409999Y-41340000D01*
G75*
G02*
X93160000Y-41090001I0J249999D01*
G01*
X93160000Y-40189999D01*
G75*
G02*
X93409999Y-39940000I249999J0D01*
G01*
X94060001Y-39940000D01*
G75*
G02*
X94310000Y-40189999I0J-249999D01*
G01*
G37*
%TD.AperFunction*%
%TD*%
%TO.P,D2,2*%
%TO.N,/Q1*%
%TA.AperFunction,SMDPad,CuDef*%
G36*
G01*
X92260000Y-37649999D02*
X92260000Y-38550001D01*
G75*
G02*
X92010001Y-38800000I-249999J0D01*
G01*
X91359999Y-38800000D01*
G75*
G02*
X91110000Y-38550001I0J249999D01*
G01*
X91110000Y-37649999D01*
G75*
G02*
X91359999Y-37400000I249999J0D01*
G01*
X92010001Y-37400000D01*
G75*
G02*
X92260000Y-37649999I0J-249999D01*
G01*
G37*
%TD.AperFunction*%
%TO.P,D2,1*%
%TO.N,Net-(D2-Pad1)*%
%TA.AperFunction,SMDPad,CuDef*%
G36*
G01*
X94310000Y-37649999D02*
X94310000Y-38550001D01*
G75*
G02*
X94060001Y-38800000I-249999J0D01*
G01*
X93409999Y-38800000D01*
G75*
G02*
X93160000Y-38550001I0J249999D01*
G01*
X93160000Y-37649999D01*
G75*
G02*
X93409999Y-37400000I249999J0D01*
G01*
X94060001Y-37400000D01*
G75*
G02*
X94310000Y-37649999I0J-249999D01*
G01*
G37*
%TD.AperFunction*%
%TD*%
%TO.P,D1,2*%
%TO.N,/Q0*%
%TA.AperFunction,SMDPad,CuDef*%
G36*
G01*
X92260000Y-35109999D02*
X92260000Y-36010001D01*
G75*
G02*
X92010001Y-36260000I-249999J0D01*
G01*
X91359999Y-36260000D01*
G75*
G02*
X91110000Y-36010001I0J249999D01*
G01*
X91110000Y-35109999D01*
G75*
G02*
X91359999Y-34860000I249999J0D01*
G01*
X92010001Y-34860000D01*
G75*
G02*
X92260000Y-35109999I0J-249999D01*
G01*
G37*
%TD.AperFunction*%
%TO.P,D1,1*%
%TO.N,Net-(D1-Pad1)*%
%TA.AperFunction,SMDPad,CuDef*%
G36*
G01*
X94310000Y-35109999D02*
X94310000Y-36010001D01*
G75*
G02*
X94060001Y-36260000I-249999J0D01*
G01*
X93409999Y-36260000D01*
G75*
G02*
X93160000Y-36010001I0J249999D01*
G01*
X93160000Y-35109999D01*
G75*
G02*
X93409999Y-34860000I249999J0D01*
G01*
X94060001Y-34860000D01*
G75*
G02*
X94310000Y-35109999I0J-249999D01*
G01*
G37*
%TD.AperFunction*%
%TD*%
D11*
%TO.P,J1,1*%
%TO.N,/~MR*%
X72390000Y-33020000D03*
D12*
%TO.P,J1,2*%
%TO.N,/D0*%
X72390000Y-35560000D03*
%TO.P,J1,3*%
%TO.N,/D1*%
X72390000Y-38100000D03*
%TO.P,J1,4*%
%TO.N,/D2*%
X72390000Y-40640000D03*
%TO.P,J1,5*%
%TO.N,/D3*%
X72390000Y-43180000D03*
%TO.P,J1,6*%
%TO.N,/D4*%
X72390000Y-45720000D03*
%TO.P,J1,7*%
%TO.N,/D5*%
X72390000Y-48260000D03*
%TO.P,J1,8*%
%TO.N,/D6*%
X72390000Y-50800000D03*
%TO.P,J1,9*%
%TO.N,/D7*%
X72390000Y-53340000D03*
%TO.P,J1,10*%
%TO.N,/GND*%
X72390000Y-55880000D03*
%TD*%
%TO.P,J2,10*%
%TO.N,/CP*%
X87630000Y-55880000D03*
%TO.P,J2,9*%
%TO.N,/Q7*%
X87630000Y-53340000D03*
%TO.P,J2,8*%
%TO.N,/Q6*%
X87630000Y-50800000D03*
%TO.P,J2,7*%
%TO.N,/Q5*%
X87630000Y-48260000D03*
%TO.P,J2,6*%
%TO.N,/Q4*%
X87630000Y-45720000D03*
%TO.P,J2,5*%
%TO.N,/Q3*%
X87630000Y-43180000D03*
%TO.P,J2,4*%
%TO.N,/Q2*%
X87630000Y-40640000D03*
%TO.P,J2,3*%
%TO.N,/Q1*%
X87630000Y-38100000D03*
%TO.P,J2,2*%
%TO.N,/Q0*%
X87630000Y-35560000D03*
D11*
%TO.P,J2,1*%
%TO.N,/VCC*%
X87630000Y-33020000D03*
%TD*%
D13*
%TO.P,U1,1*%
%TO.N,/~MR*%
X76200000Y-33020000D03*
D14*
%TO.P,U1,11*%
%TO.N,/CP*%
X83820000Y-55880000D03*
%TO.P,U1,2*%
%TO.N,/Q1*%
X76200000Y-35560000D03*
%TO.P,U1,12*%
%TO.N,/Q7*%
X83820000Y-53340000D03*
%TO.P,U1,3*%
%TO.N,/D1*%
X76200000Y-38100000D03*
%TO.P,U1,13*%
%TO.N,/D7*%
X83820000Y-50800000D03*
%TO.P,U1,4*%
%TO.N,/D2*%
X76200000Y-40640000D03*
%TO.P,U1,14*%
%TO.N,/D4*%
X83820000Y-48260000D03*
%TO.P,U1,5*%
%TO.N,/Q2*%
X76200000Y-43180000D03*
%TO.P,U1,15*%
%TO.N,/Q4*%
X83820000Y-45720000D03*
%TO.P,U1,6*%
%TO.N,/Q5*%
X76200000Y-45720000D03*
%TO.P,U1,16*%
%TO.N,/Q3*%
X83820000Y-43180000D03*
%TO.P,U1,7*%
%TO.N,/D5*%
X76200000Y-48260000D03*
%TO.P,U1,17*%
%TO.N,/D3*%
X83820000Y-40640000D03*
%TO.P,U1,8*%
%TO.N,/D6*%
X76200000Y-50800000D03*
%TO.P,U1,18*%
%TO.N,/D0*%
X83820000Y-38100000D03*
%TO.P,U1,9*%
%TO.N,/Q6*%
X76200000Y-53340000D03*
%TO.P,U1,19*%
%TO.N,/Q0*%
X83820000Y-35560000D03*
%TO.P,U1,10*%
%TO.N,/GND*%
X76200000Y-55880000D03*
%TO.P,U1,20*%
%TO.N,/VCC*%
X83820000Y-33020000D03*
%TD*%
D15*
%TO.N,Net-(D1-Pad1)*%
X95250000Y-35560000D03*
%TO.N,Net-(D2-Pad1)*%
X95250000Y-38100000D03*
%TO.N,Net-(D3-Pad1)*%
X95250000Y-40640000D03*
%TO.N,Net-(D4-Pad1)*%
X95250000Y-43180000D03*
%TO.N,Net-(D5-Pad1)*%
X95250000Y-45720000D03*
%TO.N,Net-(D6-Pad1)*%
X95250000Y-48260000D03*
%TO.N,Net-(D7-Pad1)*%
X95250000Y-50800000D03*
%TO.N,Net-(D8-Pad1)*%
X95250000Y-53340000D03*
%TD*%
D16*
%TO.N,*%
X85902800Y-30848300D02*
X85902800Y-32118300D01*
X85267800Y-31483300D02*
X86537800Y-31483300D01*
X73342500Y-57785000D02*
X74612500Y-57785000D01*
X73977500Y-56515000D02*
X73977500Y-57785000D01*
D17*
%TO.N,/~MR*%
X72390000Y-33020000D02*
X76200000Y-33020000D01*
D18*
%TO.N,/D0*%
X80010000Y-38100000D02*
X83820000Y-38100000D01*
X74930000Y-36830000D02*
X78740000Y-36830000D01*
X73660000Y-35560000D02*
X74930000Y-36830000D01*
X78740000Y-36830000D02*
X80010000Y-38100000D01*
X72390000Y-35560000D02*
X73660000Y-35560000D01*
%TO.N,/D1*%
X72390000Y-38100000D02*
X76200000Y-38100000D01*
%TO.N,/D2*%
X72390000Y-40640000D02*
X76200000Y-40640000D01*
%TO.N,/D3*%
X80010000Y-40640000D02*
X83820000Y-40640000D01*
X78740000Y-41910000D02*
X80010000Y-40640000D01*
X74930000Y-41910000D02*
X78740000Y-41910000D01*
X73660000Y-43180000D02*
X74930000Y-41910000D01*
X72390000Y-43180000D02*
X73660000Y-43180000D01*
%TO.N,/D4*%
X80010000Y-48260000D02*
X83820000Y-48260000D01*
X78740000Y-46990000D02*
X80010000Y-48260000D01*
X74930000Y-46990000D02*
X78740000Y-46990000D01*
X73660000Y-45720000D02*
X74930000Y-46990000D01*
X72390000Y-45720000D02*
X73660000Y-45720000D01*
%TO.N,/D5*%
X72390000Y-48260000D02*
X76200000Y-48260000D01*
%TO.N,/D6*%
X72390000Y-50800000D02*
X76200000Y-50800000D01*
%TO.N,/D7*%
X80010000Y-50800000D02*
X83820000Y-50800000D01*
X78740000Y-52070000D02*
X80010000Y-50800000D01*
X74930000Y-52070000D02*
X78740000Y-52070000D01*
X73660000Y-53340000D02*
X74930000Y-52070000D01*
X72390000Y-53340000D02*
X73660000Y-53340000D01*
D17*
%TO.N,/GND*%
X72390000Y-55880000D02*
X76200000Y-55880000D01*
%TO.N,/CP*%
X83820000Y-55880000D02*
X87630000Y-55880000D01*
D18*
%TO.N,/Q7*%
X83820000Y-53340000D02*
X87630000Y-53340000D01*
X87630000Y-53340000D02*
X91685000Y-53340000D01*
%TO.N,/Q6*%
X81280000Y-52070000D02*
X80010000Y-53340000D01*
X80010000Y-53340000D02*
X76200000Y-53340000D01*
X85090000Y-52070000D02*
X81280000Y-52070000D01*
X86360000Y-50800000D02*
X85090000Y-52070000D01*
X87630000Y-50800000D02*
X86360000Y-50800000D01*
X87630000Y-50800000D02*
X91685000Y-50800000D01*
%TO.N,/Q5*%
X80010000Y-45720000D02*
X76200000Y-45720000D01*
X81280000Y-46990000D02*
X80010000Y-45720000D01*
X85090000Y-46990000D02*
X81280000Y-46990000D01*
X86360000Y-48260000D02*
X85090000Y-46990000D01*
X87630000Y-48260000D02*
X86360000Y-48260000D01*
X87630000Y-48260000D02*
X91685000Y-48260000D01*
%TO.N,/Q4*%
X83820000Y-45720000D02*
X87630000Y-45720000D01*
X87630000Y-45720000D02*
X91685000Y-45720000D01*
%TO.N,/Q3*%
X83820000Y-43180000D02*
X87630000Y-43180000D01*
X87630000Y-43180000D02*
X91685000Y-43180000D01*
%TO.N,/Q2*%
X81280000Y-41910000D02*
X80010000Y-43180000D01*
X85090000Y-41910000D02*
X81280000Y-41910000D01*
X80010000Y-43180000D02*
X76200000Y-43180000D01*
X86360000Y-40640000D02*
X85090000Y-41910000D01*
X87630000Y-40640000D02*
X86360000Y-40640000D01*
X87630000Y-40640000D02*
X91685000Y-40640000D01*
%TO.N,/Q1*%
X80010000Y-35560000D02*
X81280000Y-36830000D01*
X76200000Y-35560000D02*
X80010000Y-35560000D01*
X87630000Y-38100000D02*
X86360000Y-38100000D01*
X86360000Y-38100000D02*
X85090000Y-36830000D01*
X81280000Y-36830000D02*
X85090000Y-36830000D01*
X87630000Y-38100000D02*
X91685000Y-38100000D01*
%TO.N,/Q0*%
X83820000Y-35560000D02*
X87630000Y-35560000D01*
X87630000Y-35560000D02*
X91685000Y-35560000D01*
D17*
%TO.N,/VCC*%
X83820000Y-33020000D02*
X87630000Y-33020000D01*
D18*
%TO.N,Net-(D1-Pad1)*%
X93735000Y-35560000D02*
X95250000Y-35560000D01*
%TO.N,Net-(D2-Pad1)*%
X93735000Y-38100000D02*
X95250000Y-38100000D01*
%TO.N,Net-(D3-Pad1)*%
X93735000Y-40640000D02*
X95250000Y-40640000D01*
%TO.N,Net-(D4-Pad1)*%
X93735000Y-43180000D02*
X95250000Y-43180000D01*
%TO.N,Net-(D5-Pad1)*%
X93735000Y-45720000D02*
X95250000Y-45720000D01*
%TO.N,Net-(D6-Pad1)*%
X93735000Y-48260000D02*
X95250000Y-48260000D01*
%TO.N,Net-(D7-Pad1)*%
X93735000Y-50800000D02*
X95250000Y-50800000D01*
%TO.N,Net-(D8-Pad1)*%
X93735000Y-53340000D02*
X95250000Y-53340000D01*
%TD*%
M02*
