%TF.GenerationSoftware,KiCad,Pcbnew,(5.1.8)-1*%
%TF.CreationDate,2023-01-12T00:15:59+03:00*%
%TF.ProjectId,273,3237332e-6b69-4636-9164-5f7063625858,rev?*%
%TF.SameCoordinates,Original*%
%TF.FileFunction,Soldermask,Top*%
%TF.FilePolarity,Negative*%
%FSLAX46Y46*%
G04 Gerber Fmt 4.6, Leading zero omitted, Abs format (unit mm)*
G04 Created by KiCad (PCBNEW (5.1.8)-1) date 2023-01-12 00:15:59*
%MOMM*%
%LPD*%
G01*
G04 APERTURE LIST*
%ADD10R,2.300000X2.100000*%
%ADD11O,2.300000X2.100000*%
%ADD12R,2.000000X1.500000*%
%ADD13O,2.000000X1.500000*%
G04 APERTURE END LIST*
%TO.C,D8*%
G36*
G01*
X92260000Y-52889999D02*
X92260000Y-53790001D01*
G75*
G02*
X92010001Y-54040000I-249999J0D01*
G01*
X91359999Y-54040000D01*
G75*
G02*
X91110000Y-53790001I0J249999D01*
G01*
X91110000Y-52889999D01*
G75*
G02*
X91359999Y-52640000I249999J0D01*
G01*
X92010001Y-52640000D01*
G75*
G02*
X92260000Y-52889999I0J-249999D01*
G01*
G37*
G36*
G01*
X94310000Y-52889999D02*
X94310000Y-53790001D01*
G75*
G02*
X94060001Y-54040000I-249999J0D01*
G01*
X93409999Y-54040000D01*
G75*
G02*
X93160000Y-53790001I0J249999D01*
G01*
X93160000Y-52889999D01*
G75*
G02*
X93409999Y-52640000I249999J0D01*
G01*
X94060001Y-52640000D01*
G75*
G02*
X94310000Y-52889999I0J-249999D01*
G01*
G37*
%TD*%
%TO.C,D7*%
G36*
G01*
X92260000Y-50349999D02*
X92260000Y-51250001D01*
G75*
G02*
X92010001Y-51500000I-249999J0D01*
G01*
X91359999Y-51500000D01*
G75*
G02*
X91110000Y-51250001I0J249999D01*
G01*
X91110000Y-50349999D01*
G75*
G02*
X91359999Y-50100000I249999J0D01*
G01*
X92010001Y-50100000D01*
G75*
G02*
X92260000Y-50349999I0J-249999D01*
G01*
G37*
G36*
G01*
X94310000Y-50349999D02*
X94310000Y-51250001D01*
G75*
G02*
X94060001Y-51500000I-249999J0D01*
G01*
X93409999Y-51500000D01*
G75*
G02*
X93160000Y-51250001I0J249999D01*
G01*
X93160000Y-50349999D01*
G75*
G02*
X93409999Y-50100000I249999J0D01*
G01*
X94060001Y-50100000D01*
G75*
G02*
X94310000Y-50349999I0J-249999D01*
G01*
G37*
%TD*%
%TO.C,D6*%
G36*
G01*
X92260000Y-47809999D02*
X92260000Y-48710001D01*
G75*
G02*
X92010001Y-48960000I-249999J0D01*
G01*
X91359999Y-48960000D01*
G75*
G02*
X91110000Y-48710001I0J249999D01*
G01*
X91110000Y-47809999D01*
G75*
G02*
X91359999Y-47560000I249999J0D01*
G01*
X92010001Y-47560000D01*
G75*
G02*
X92260000Y-47809999I0J-249999D01*
G01*
G37*
G36*
G01*
X94310000Y-47809999D02*
X94310000Y-48710001D01*
G75*
G02*
X94060001Y-48960000I-249999J0D01*
G01*
X93409999Y-48960000D01*
G75*
G02*
X93160000Y-48710001I0J249999D01*
G01*
X93160000Y-47809999D01*
G75*
G02*
X93409999Y-47560000I249999J0D01*
G01*
X94060001Y-47560000D01*
G75*
G02*
X94310000Y-47809999I0J-249999D01*
G01*
G37*
%TD*%
%TO.C,D5*%
G36*
G01*
X92260000Y-45269999D02*
X92260000Y-46170001D01*
G75*
G02*
X92010001Y-46420000I-249999J0D01*
G01*
X91359999Y-46420000D01*
G75*
G02*
X91110000Y-46170001I0J249999D01*
G01*
X91110000Y-45269999D01*
G75*
G02*
X91359999Y-45020000I249999J0D01*
G01*
X92010001Y-45020000D01*
G75*
G02*
X92260000Y-45269999I0J-249999D01*
G01*
G37*
G36*
G01*
X94310000Y-45269999D02*
X94310000Y-46170001D01*
G75*
G02*
X94060001Y-46420000I-249999J0D01*
G01*
X93409999Y-46420000D01*
G75*
G02*
X93160000Y-46170001I0J249999D01*
G01*
X93160000Y-45269999D01*
G75*
G02*
X93409999Y-45020000I249999J0D01*
G01*
X94060001Y-45020000D01*
G75*
G02*
X94310000Y-45269999I0J-249999D01*
G01*
G37*
%TD*%
%TO.C,D4*%
G36*
G01*
X92260000Y-42729999D02*
X92260000Y-43630001D01*
G75*
G02*
X92010001Y-43880000I-249999J0D01*
G01*
X91359999Y-43880000D01*
G75*
G02*
X91110000Y-43630001I0J249999D01*
G01*
X91110000Y-42729999D01*
G75*
G02*
X91359999Y-42480000I249999J0D01*
G01*
X92010001Y-42480000D01*
G75*
G02*
X92260000Y-42729999I0J-249999D01*
G01*
G37*
G36*
G01*
X94310000Y-42729999D02*
X94310000Y-43630001D01*
G75*
G02*
X94060001Y-43880000I-249999J0D01*
G01*
X93409999Y-43880000D01*
G75*
G02*
X93160000Y-43630001I0J249999D01*
G01*
X93160000Y-42729999D01*
G75*
G02*
X93409999Y-42480000I249999J0D01*
G01*
X94060001Y-42480000D01*
G75*
G02*
X94310000Y-42729999I0J-249999D01*
G01*
G37*
%TD*%
%TO.C,D3*%
G36*
G01*
X92260000Y-40189999D02*
X92260000Y-41090001D01*
G75*
G02*
X92010001Y-41340000I-249999J0D01*
G01*
X91359999Y-41340000D01*
G75*
G02*
X91110000Y-41090001I0J249999D01*
G01*
X91110000Y-40189999D01*
G75*
G02*
X91359999Y-39940000I249999J0D01*
G01*
X92010001Y-39940000D01*
G75*
G02*
X92260000Y-40189999I0J-249999D01*
G01*
G37*
G36*
G01*
X94310000Y-40189999D02*
X94310000Y-41090001D01*
G75*
G02*
X94060001Y-41340000I-249999J0D01*
G01*
X93409999Y-41340000D01*
G75*
G02*
X93160000Y-41090001I0J249999D01*
G01*
X93160000Y-40189999D01*
G75*
G02*
X93409999Y-39940000I249999J0D01*
G01*
X94060001Y-39940000D01*
G75*
G02*
X94310000Y-40189999I0J-249999D01*
G01*
G37*
%TD*%
%TO.C,D2*%
G36*
G01*
X92260000Y-37649999D02*
X92260000Y-38550001D01*
G75*
G02*
X92010001Y-38800000I-249999J0D01*
G01*
X91359999Y-38800000D01*
G75*
G02*
X91110000Y-38550001I0J249999D01*
G01*
X91110000Y-37649999D01*
G75*
G02*
X91359999Y-37400000I249999J0D01*
G01*
X92010001Y-37400000D01*
G75*
G02*
X92260000Y-37649999I0J-249999D01*
G01*
G37*
G36*
G01*
X94310000Y-37649999D02*
X94310000Y-38550001D01*
G75*
G02*
X94060001Y-38800000I-249999J0D01*
G01*
X93409999Y-38800000D01*
G75*
G02*
X93160000Y-38550001I0J249999D01*
G01*
X93160000Y-37649999D01*
G75*
G02*
X93409999Y-37400000I249999J0D01*
G01*
X94060001Y-37400000D01*
G75*
G02*
X94310000Y-37649999I0J-249999D01*
G01*
G37*
%TD*%
%TO.C,D1*%
G36*
G01*
X92260000Y-35109999D02*
X92260000Y-36010001D01*
G75*
G02*
X92010001Y-36260000I-249999J0D01*
G01*
X91359999Y-36260000D01*
G75*
G02*
X91110000Y-36010001I0J249999D01*
G01*
X91110000Y-35109999D01*
G75*
G02*
X91359999Y-34860000I249999J0D01*
G01*
X92010001Y-34860000D01*
G75*
G02*
X92260000Y-35109999I0J-249999D01*
G01*
G37*
G36*
G01*
X94310000Y-35109999D02*
X94310000Y-36010001D01*
G75*
G02*
X94060001Y-36260000I-249999J0D01*
G01*
X93409999Y-36260000D01*
G75*
G02*
X93160000Y-36010001I0J249999D01*
G01*
X93160000Y-35109999D01*
G75*
G02*
X93409999Y-34860000I249999J0D01*
G01*
X94060001Y-34860000D01*
G75*
G02*
X94310000Y-35109999I0J-249999D01*
G01*
G37*
%TD*%
D10*
%TO.C,J1*%
X72390000Y-33020000D03*
D11*
X72390000Y-35560000D03*
X72390000Y-38100000D03*
X72390000Y-40640000D03*
X72390000Y-43180000D03*
X72390000Y-45720000D03*
X72390000Y-48260000D03*
X72390000Y-50800000D03*
X72390000Y-53340000D03*
X72390000Y-55880000D03*
%TD*%
%TO.C,J2*%
X87630000Y-55880000D03*
X87630000Y-53340000D03*
X87630000Y-50800000D03*
X87630000Y-48260000D03*
X87630000Y-45720000D03*
X87630000Y-43180000D03*
X87630000Y-40640000D03*
X87630000Y-38100000D03*
X87630000Y-35560000D03*
D10*
X87630000Y-33020000D03*
%TD*%
D12*
%TO.C,U1*%
X76200000Y-33020000D03*
D13*
X83820000Y-55880000D03*
X76200000Y-35560000D03*
X83820000Y-53340000D03*
X76200000Y-38100000D03*
X83820000Y-50800000D03*
X76200000Y-40640000D03*
X83820000Y-48260000D03*
X76200000Y-43180000D03*
X83820000Y-45720000D03*
X76200000Y-45720000D03*
X83820000Y-43180000D03*
X76200000Y-48260000D03*
X83820000Y-40640000D03*
X76200000Y-50800000D03*
X83820000Y-38100000D03*
X76200000Y-53340000D03*
X83820000Y-35560000D03*
X76200000Y-55880000D03*
X83820000Y-33020000D03*
%TD*%
M02*
