M48
INCH,TZ
T1C0.0157
T2C0.0315
T3C0.0394
%
G90
G05
T1
X37500Y-14000
X37500Y-15000
X37500Y-16000
X37500Y-17000
X37500Y-18000
X37500Y-19000
X37500Y-20000
X37500Y-21000
T2
X30000Y-13000
X30000Y-14000
X30000Y-15000
X30000Y-16000
X30000Y-17000
X30000Y-18000
X30000Y-19000
X30000Y-20000
X30000Y-21000
X30000Y-22000
X33000Y-13000
X33000Y-14000
X33000Y-15000
X33000Y-16000
X33000Y-17000
X33000Y-18000
X33000Y-19000
X33000Y-20000
X33000Y-21000
X33000Y-22000
T3
X34500Y-13000
X34500Y-14000
X34500Y-15000
X34500Y-16000
X34500Y-17000
X34500Y-18000
X34500Y-19000
X34500Y-20000
X34500Y-21000
X34500Y-22000
X28500Y-13000
X28500Y-14000
X28500Y-15000
X28500Y-16000
X28500Y-17000
X28500Y-18000
X28500Y-19000
X28500Y-20000
X28500Y-21000
X28500Y-22000
T0
M30
