%TF.GenerationSoftware,KiCad,Pcbnew,(5.1.8)-1*%
%TF.CreationDate,2024-07-21T13:57:18+03:00*%
%TF.ProjectId,STACK16,53544143-4b31-4362-9e6b-696361645f70,rev?*%
%TF.SameCoordinates,Original*%
%TF.FileFunction,Legend,Bot*%
%TF.FilePolarity,Positive*%
%FSLAX46Y46*%
G04 Gerber Fmt 4.6, Leading zero omitted, Abs format (unit mm)*
G04 Created by KiCad (PCBNEW (5.1.8)-1) date 2024-07-21 13:57:18*
%MOMM*%
%LPD*%
G01*
G04 APERTURE LIST*
%ADD10C,0.120000*%
G04 APERTURE END LIST*
D10*
%TO.C,J6*%
X72450000Y-77530000D02*
X69790000Y-77530000D01*
X72450000Y-57150000D02*
X72450000Y-77530000D01*
X69790000Y-57150000D02*
X69790000Y-77530000D01*
X72450000Y-57150000D02*
X69790000Y-57150000D01*
X72450000Y-55880000D02*
X72450000Y-54550000D01*
X72450000Y-54550000D02*
X71120000Y-54550000D01*
%TO.C,J5*%
X52130000Y-77530000D02*
X49470000Y-77530000D01*
X52130000Y-57150000D02*
X52130000Y-77530000D01*
X49470000Y-57150000D02*
X49470000Y-77530000D01*
X52130000Y-57150000D02*
X49470000Y-57150000D01*
X52130000Y-55880000D02*
X52130000Y-54550000D01*
X52130000Y-54550000D02*
X50800000Y-54550000D01*
%TO.C,J1*%
X72450000Y-49590000D02*
X69790000Y-49590000D01*
X72450000Y-29210000D02*
X72450000Y-49590000D01*
X69790000Y-29210000D02*
X69790000Y-49590000D01*
X72450000Y-29210000D02*
X69790000Y-29210000D01*
X72450000Y-27940000D02*
X72450000Y-26610000D01*
X72450000Y-26610000D02*
X71120000Y-26610000D01*
%TO.C,J2*%
X52130000Y-26610000D02*
X50800000Y-26610000D01*
X52130000Y-27940000D02*
X52130000Y-26610000D01*
X52130000Y-29210000D02*
X49470000Y-29210000D01*
X49470000Y-29210000D02*
X49470000Y-49590000D01*
X52130000Y-29210000D02*
X52130000Y-49590000D01*
X52130000Y-49590000D02*
X49470000Y-49590000D01*
%TD*%
M02*
