M48
METRIC
T1C0.500
T2C0.800
T3C1.000
T4C1.300
T5C3.200
%
G90
G05
T1
X75.565Y-55.88
X80.01Y-53.34
X80.01Y-80.01
X83.625Y-123.255
X85.09Y-66.04
X86.252Y-113.138
X90.059Y-107.456
X91.756Y-107.662
X92.054Y-114.269
X92.835Y-108.658
X93.345Y-56.515
X95.591Y-89.194
X96.097Y-111.673
X97.091Y-116.445
X99.683Y-83.83
X101.67Y-114.86
X103.505Y-109.855
X105.064Y-56.452
X106.239Y-83.676
X106.868Y-56.467
X109.82Y-110.49
X111.992Y-107.731
X113.03Y-92.469
X127.0Y-91.44
X127.0Y-95.25
X146.163Y-126.36
X147.32Y-67.442
T2
X133.35Y-71.12
X133.35Y-73.66
X133.35Y-76.2
X133.35Y-78.74
X133.35Y-81.28
X133.35Y-83.82
X133.35Y-86.36
X133.35Y-88.9
X133.35Y-91.44
X133.35Y-93.98
X140.97Y-71.12
X140.97Y-73.66
X140.97Y-76.2
X140.97Y-78.74
X140.97Y-81.28
X140.97Y-83.82
X140.97Y-86.36
X140.97Y-88.9
X140.97Y-91.44
X140.97Y-93.98
X66.04Y-88.9
X66.04Y-103.9
X101.6Y-88.9
X101.6Y-103.9
X62.23Y-87.63
X62.23Y-90.17
X62.23Y-92.71
X62.23Y-95.25
X62.23Y-97.79
X62.23Y-100.33
X62.23Y-102.87
X62.23Y-105.41
X69.85Y-87.63
X69.85Y-90.17
X69.85Y-92.71
X69.85Y-95.25
X69.85Y-97.79
X69.85Y-100.33
X69.85Y-102.87
X69.85Y-105.41
X83.82Y-60.96
X83.82Y-75.96
X83.82Y-88.9
X83.82Y-103.9
X137.16Y-78.105
X137.16Y-93.105
X80.01Y-87.63
X80.01Y-90.17
X80.01Y-92.71
X80.01Y-95.25
X80.01Y-97.79
X80.01Y-100.33
X80.01Y-102.87
X80.01Y-105.41
X87.63Y-87.63
X87.63Y-90.17
X87.63Y-92.71
X87.63Y-95.25
X87.63Y-97.79
X87.63Y-100.33
X87.63Y-102.87
X87.63Y-105.41
X101.6Y-60.96
X101.6Y-75.96
X119.38Y-88.265
X119.38Y-103.265
X62.23Y-59.69
X62.23Y-62.23
X62.23Y-64.77
X62.23Y-67.31
X62.23Y-69.85
X62.23Y-72.39
X62.23Y-74.93
X62.23Y-77.47
X69.85Y-59.69
X69.85Y-62.23
X69.85Y-64.77
X69.85Y-67.31
X69.85Y-69.85
X69.85Y-72.39
X69.85Y-74.93
X69.85Y-77.47
X97.79Y-87.63
X97.79Y-90.17
X97.79Y-92.71
X97.79Y-95.25
X97.79Y-97.79
X97.79Y-100.33
X97.79Y-102.87
X97.79Y-105.41
X105.41Y-87.63
X105.41Y-90.17
X105.41Y-92.71
X105.41Y-95.25
X105.41Y-97.79
X105.41Y-100.33
X105.41Y-102.87
X105.41Y-105.41
X115.57Y-87.63
X115.57Y-90.17
X115.57Y-92.71
X115.57Y-95.25
X115.57Y-97.79
X115.57Y-100.33
X115.57Y-102.87
X115.57Y-105.41
X123.19Y-87.63
X123.19Y-90.17
X123.19Y-92.71
X123.19Y-95.25
X123.19Y-97.79
X123.19Y-100.33
X123.19Y-102.87
X123.19Y-105.41
X66.04Y-60.96
X66.04Y-75.96
X80.01Y-59.69
X80.01Y-62.23
X80.01Y-64.77
X80.01Y-67.31
X80.01Y-69.85
X80.01Y-72.39
X80.01Y-74.93
X80.01Y-77.47
X87.63Y-59.69
X87.63Y-62.23
X87.63Y-64.77
X87.63Y-67.31
X87.63Y-69.85
X87.63Y-72.39
X87.63Y-74.93
X87.63Y-77.47
X115.57Y-59.69
X115.57Y-62.23
X115.57Y-64.77
X115.57Y-67.31
X115.57Y-69.85
X115.57Y-72.39
X115.57Y-74.93
X115.57Y-77.47
X123.19Y-59.69
X123.19Y-62.23
X123.19Y-64.77
X123.19Y-67.31
X123.19Y-69.85
X123.19Y-72.39
X123.19Y-74.93
X123.19Y-77.47
X97.79Y-59.69
X97.79Y-62.23
X97.79Y-64.77
X97.79Y-67.31
X97.79Y-69.85
X97.79Y-72.39
X97.79Y-74.93
X97.79Y-77.47
X105.41Y-59.69
X105.41Y-62.23
X105.41Y-64.77
X105.41Y-67.31
X105.41Y-69.85
X105.41Y-72.39
X105.41Y-74.93
X105.41Y-77.47
X119.38Y-60.96
X119.38Y-75.96
T3
X151.13Y-71.12
X115.57Y-43.18
X118.11Y-43.18
X120.65Y-43.18
X123.19Y-43.18
X125.73Y-43.18
X128.27Y-43.18
X130.81Y-43.18
X133.35Y-43.18
X135.89Y-43.18
X73.66Y-43.18
X76.2Y-43.18
X78.74Y-43.18
X81.28Y-43.18
X83.82Y-43.18
X86.36Y-43.18
X88.9Y-43.18
X91.44Y-43.18
X93.98Y-43.18
X115.57Y-116.84
X118.11Y-116.84
X120.65Y-116.84
X123.19Y-116.84
X125.73Y-116.84
X128.27Y-116.84
X130.81Y-116.84
X133.35Y-116.84
X135.89Y-116.84
X73.66Y-116.88
X76.2Y-116.88
X78.74Y-116.88
X81.28Y-116.88
X83.82Y-116.88
X86.36Y-116.88
X88.9Y-116.88
X91.44Y-116.88
X93.98Y-116.88
X115.57Y-49.53
X118.11Y-49.53
X120.65Y-49.53
X123.19Y-49.53
X125.73Y-49.53
X128.27Y-49.53
X130.81Y-49.53
X133.35Y-49.53
X135.89Y-49.53
X73.66Y-49.53
X76.2Y-49.53
X78.74Y-49.53
X81.28Y-49.53
X83.82Y-49.53
X86.36Y-49.53
X88.9Y-49.53
X91.44Y-49.53
X93.98Y-49.53
X151.13Y-109.22
X151.13Y-111.76
X151.13Y-114.3
X115.57Y-120.65
X118.11Y-120.65
X120.65Y-120.65
X123.19Y-120.65
X125.73Y-120.65
X128.27Y-120.65
X130.81Y-120.65
X133.35Y-120.65
X135.89Y-120.65
X115.57Y-129.54
X118.11Y-129.54
X120.65Y-129.54
X123.19Y-129.54
X125.73Y-129.54
X128.27Y-129.54
X130.81Y-129.54
X133.35Y-129.54
X135.89Y-129.54
X73.66Y-133.35
X76.2Y-133.35
X78.74Y-133.35
X81.28Y-133.35
X83.82Y-133.35
X86.36Y-133.35
X88.9Y-133.35
X91.44Y-133.35
X93.98Y-133.35
X151.13Y-104.14
X73.66Y-120.65
X76.2Y-120.65
X78.74Y-120.65
X81.28Y-120.65
X83.82Y-120.65
X86.36Y-120.65
X88.9Y-120.65
X91.44Y-120.65
X93.98Y-120.65
X115.57Y-133.35
X118.11Y-133.35
X120.65Y-133.35
X123.19Y-133.35
X125.73Y-133.35
X128.27Y-133.35
X130.81Y-133.35
X133.35Y-133.35
X135.89Y-133.35
X147.32Y-76.2
X147.32Y-78.74
X147.32Y-81.28
X147.32Y-83.82
X147.32Y-86.36
X147.32Y-88.9
X147.32Y-91.44
X147.32Y-93.98
X147.32Y-96.52
X151.13Y-76.2
X151.13Y-78.74
X151.13Y-81.28
X151.13Y-83.82
X151.13Y-86.36
X151.13Y-88.9
X151.13Y-91.44
X151.13Y-93.98
X151.13Y-96.52
X151.13Y-64.77
X73.66Y-129.54
X76.2Y-129.54
X78.74Y-129.54
X81.28Y-129.54
X83.82Y-129.54
X86.36Y-129.54
X88.9Y-129.54
X91.44Y-129.54
X93.98Y-129.54
T4
X147.32Y-54.69
X147.32Y-59.69
T5
X149.86Y-43.18
X60.96Y-43.18
X60.96Y-132.08
X149.86Y-132.08
T0
M30
