%TF.GenerationSoftware,KiCad,Pcbnew,(5.1.8)-1*%
%TF.CreationDate,2024-03-21T22:43:26+03:00*%
%TF.ProjectId,Regs-v4,52656773-2d76-4342-9e6b-696361645f70,rev?*%
%TF.SameCoordinates,Original*%
%TF.FileFunction,Soldermask,Top*%
%TF.FilePolarity,Negative*%
%FSLAX46Y46*%
G04 Gerber Fmt 4.6, Leading zero omitted, Abs format (unit mm)*
G04 Created by KiCad (PCBNEW (5.1.8)-1) date 2024-03-21 22:43:26*
%MOMM*%
%LPD*%
G01*
G04 APERTURE LIST*
%ADD10C,2.200000*%
%ADD11R,1.700000X1.700000*%
%ADD12O,2.100000X2.200000*%
%ADD13R,2.100000X2.200000*%
%ADD14O,1.800000X2.000000*%
%ADD15C,2.600000*%
%ADD16R,2.600000X2.600000*%
%ADD17O,1.500000X1.800000*%
%ADD18R,1.800000X2.000000*%
%ADD19R,1.500000X1.800000*%
%ADD20R,2.000000X2.000000*%
%ADD21C,3.200000*%
G04 APERTURE END LIST*
D10*
%TO.C,U19*%
X86360000Y-36830000D03*
X83820000Y-36830000D03*
X81280000Y-36830000D03*
X73660000Y-36830000D03*
X71120000Y-36830000D03*
X68580000Y-36830000D03*
X66040000Y-36830000D03*
X63500000Y-36830000D03*
X60960000Y-36830000D03*
X58420000Y-36830000D03*
X55880000Y-36830000D03*
X50800000Y-36830000D03*
X48260000Y-36830000D03*
X43180000Y-36830000D03*
X38100000Y-36830000D03*
X35560000Y-36830000D03*
X33020000Y-36830000D03*
X30480000Y-36830000D03*
X27940000Y-36830000D03*
X25400000Y-36830000D03*
X22860000Y-36830000D03*
X20320000Y-36830000D03*
%TD*%
%TO.C,U18*%
X160020000Y-36830000D03*
X157480000Y-36830000D03*
X154940000Y-36830000D03*
X147320000Y-36830000D03*
X144780000Y-36830000D03*
X142240000Y-36830000D03*
X139700000Y-36830000D03*
X137160000Y-36830000D03*
X134620000Y-36830000D03*
X132080000Y-36830000D03*
X129540000Y-36830000D03*
X124460000Y-36830000D03*
X121920000Y-36830000D03*
X116840000Y-36830000D03*
X111760000Y-36830000D03*
X109220000Y-36830000D03*
X106680000Y-36830000D03*
X104140000Y-36830000D03*
X101600000Y-36830000D03*
X99060000Y-36830000D03*
X96520000Y-36830000D03*
X93980000Y-36830000D03*
%TD*%
%TO.C,U17*%
X86360000Y-54610000D03*
X83820000Y-54610000D03*
X81280000Y-54610000D03*
X73660000Y-54610000D03*
X71120000Y-54610000D03*
X68580000Y-54610000D03*
X66040000Y-54610000D03*
X63500000Y-54610000D03*
X60960000Y-54610000D03*
X58420000Y-54610000D03*
X55880000Y-54610000D03*
X50800000Y-54610000D03*
X48260000Y-54610000D03*
X43180000Y-54610000D03*
X38100000Y-54610000D03*
X35560000Y-54610000D03*
X33020000Y-54610000D03*
X30480000Y-54610000D03*
X27940000Y-54610000D03*
X25400000Y-54610000D03*
X22860000Y-54610000D03*
X20320000Y-54610000D03*
%TD*%
%TO.C,U16*%
X160020000Y-54610000D03*
X157480000Y-54610000D03*
X154940000Y-54610000D03*
X147320000Y-54610000D03*
X144780000Y-54610000D03*
X142240000Y-54610000D03*
X139700000Y-54610000D03*
X137160000Y-54610000D03*
X134620000Y-54610000D03*
X132080000Y-54610000D03*
X129540000Y-54610000D03*
X124460000Y-54610000D03*
X121920000Y-54610000D03*
X116840000Y-54610000D03*
X111760000Y-54610000D03*
X109220000Y-54610000D03*
X106680000Y-54610000D03*
X104140000Y-54610000D03*
X101600000Y-54610000D03*
X99060000Y-54610000D03*
X96520000Y-54610000D03*
X93980000Y-54610000D03*
%TD*%
%TO.C,U12*%
X86360000Y-72390000D03*
X83820000Y-72390000D03*
X81280000Y-72390000D03*
X73660000Y-72390000D03*
X71120000Y-72390000D03*
X68580000Y-72390000D03*
X66040000Y-72390000D03*
X63500000Y-72390000D03*
X60960000Y-72390000D03*
X58420000Y-72390000D03*
X55880000Y-72390000D03*
X50800000Y-72390000D03*
X48260000Y-72390000D03*
X43180000Y-72390000D03*
X38100000Y-72390000D03*
X35560000Y-72390000D03*
X33020000Y-72390000D03*
X30480000Y-72390000D03*
X27940000Y-72390000D03*
X25400000Y-72390000D03*
X22860000Y-72390000D03*
X20320000Y-72390000D03*
%TD*%
%TO.C,U11*%
X160020000Y-72390000D03*
X157480000Y-72390000D03*
X154940000Y-72390000D03*
X147320000Y-72390000D03*
X144780000Y-72390000D03*
X142240000Y-72390000D03*
X139700000Y-72390000D03*
X137160000Y-72390000D03*
X134620000Y-72390000D03*
X132080000Y-72390000D03*
X129540000Y-72390000D03*
X124460000Y-72390000D03*
X121920000Y-72390000D03*
X116840000Y-72390000D03*
X111760000Y-72390000D03*
X109220000Y-72390000D03*
X106680000Y-72390000D03*
X104140000Y-72390000D03*
X101600000Y-72390000D03*
X99060000Y-72390000D03*
X96520000Y-72390000D03*
X93980000Y-72390000D03*
%TD*%
%TO.C,U10*%
X86360000Y-90170000D03*
X83820000Y-90170000D03*
X81280000Y-90170000D03*
X73660000Y-90170000D03*
X71120000Y-90170000D03*
X68580000Y-90170000D03*
X66040000Y-90170000D03*
X63500000Y-90170000D03*
X60960000Y-90170000D03*
X58420000Y-90170000D03*
X55880000Y-90170000D03*
X50800000Y-90170000D03*
X48260000Y-90170000D03*
X43180000Y-90170000D03*
X38100000Y-90170000D03*
X35560000Y-90170000D03*
X33020000Y-90170000D03*
X30480000Y-90170000D03*
X27940000Y-90170000D03*
X25400000Y-90170000D03*
X22860000Y-90170000D03*
X20320000Y-90170000D03*
%TD*%
%TO.C,U9*%
X160020000Y-90170000D03*
X157480000Y-90170000D03*
X154940000Y-90170000D03*
X147320000Y-90170000D03*
X144780000Y-90170000D03*
X142240000Y-90170000D03*
X139700000Y-90170000D03*
X137160000Y-90170000D03*
X134620000Y-90170000D03*
X132080000Y-90170000D03*
X129540000Y-90170000D03*
X124460000Y-90170000D03*
X121920000Y-90170000D03*
X116840000Y-90170000D03*
X111760000Y-90170000D03*
X109220000Y-90170000D03*
X106680000Y-90170000D03*
X104140000Y-90170000D03*
X101600000Y-90170000D03*
X99060000Y-90170000D03*
X96520000Y-90170000D03*
X93980000Y-90170000D03*
%TD*%
D11*
%TO.C,J20*%
X124460000Y-104140000D03*
%TD*%
%TO.C,J19*%
X120650000Y-104140000D03*
%TD*%
D12*
%TO.C,J18*%
X63500000Y-109220000D03*
X66040000Y-109220000D03*
X68580000Y-109220000D03*
X71120000Y-109220000D03*
X73660000Y-109220000D03*
X76200000Y-109220000D03*
X78740000Y-109220000D03*
X81280000Y-109220000D03*
D13*
X83820000Y-109220000D03*
%TD*%
D12*
%TO.C,J17*%
X96520000Y-109220000D03*
X99060000Y-109220000D03*
X101600000Y-109220000D03*
X104140000Y-109220000D03*
X106680000Y-109220000D03*
X109220000Y-109220000D03*
X111760000Y-109220000D03*
X114300000Y-109220000D03*
D13*
X116840000Y-109220000D03*
%TD*%
D14*
%TO.C,U15*%
X33020000Y-102870000D03*
X35560000Y-102870000D03*
X38100000Y-102870000D03*
X40640000Y-102870000D03*
X45720000Y-102870000D03*
X48260000Y-102870000D03*
X50800000Y-102870000D03*
X53340000Y-102870000D03*
X55880000Y-102870000D03*
X58420000Y-102870000D03*
X60960000Y-102870000D03*
X63500000Y-102870000D03*
X68580000Y-102870000D03*
X71120000Y-102870000D03*
X73660000Y-102870000D03*
X76200000Y-102870000D03*
X78740000Y-102870000D03*
X81280000Y-102870000D03*
X83820000Y-102870000D03*
X86360000Y-102870000D03*
X91440000Y-102870000D03*
X93980000Y-102870000D03*
X96520000Y-102870000D03*
X99060000Y-102870000D03*
X101600000Y-102870000D03*
X104140000Y-102870000D03*
X106680000Y-102870000D03*
X109220000Y-102870000D03*
%TD*%
D15*
%TO.C,J16*%
X104220000Y-20320000D03*
D16*
X109220000Y-20320000D03*
%TD*%
D17*
%TO.C,U14*%
X58420000Y-17780000D03*
X73660000Y-25400000D03*
X60960000Y-17780000D03*
X71120000Y-25400000D03*
X63500000Y-17780000D03*
D14*
X68580000Y-25400000D03*
X66040000Y-17780000D03*
D17*
X66040000Y-25400000D03*
X68580000Y-17780000D03*
X63500000Y-25400000D03*
X71120000Y-17780000D03*
X60960000Y-25400000D03*
X73660000Y-17780000D03*
D18*
X58420000Y-25400000D03*
%TD*%
D17*
%TO.C,U13*%
X28575000Y-19685000D03*
X46355000Y-27305000D03*
X31115000Y-19685000D03*
X43815000Y-27305000D03*
X33655000Y-19685000D03*
X41275000Y-27305000D03*
X36195000Y-19685000D03*
X38735000Y-27305000D03*
X38735000Y-19685000D03*
X36195000Y-27305000D03*
X41275000Y-19685000D03*
X33655000Y-27305000D03*
D14*
X43815000Y-19685000D03*
D17*
X31115000Y-27305000D03*
D14*
X46355000Y-19685000D03*
D19*
X28575000Y-27305000D03*
%TD*%
D11*
%TO.C,J15*%
X55245000Y-25400000D03*
%TD*%
%TO.C,J14*%
X78105000Y-18415000D03*
%TD*%
%TO.C,J13*%
X116840000Y-104140000D03*
%TD*%
D20*
%TO.C,J12*%
X50165000Y-17780000D03*
%TD*%
D12*
%TO.C,J11*%
X33655000Y-30480000D03*
X31115000Y-30480000D03*
D13*
X28575000Y-30480000D03*
%TD*%
D12*
%TO.C,J8*%
X73660000Y-31750000D03*
X71120000Y-31750000D03*
X68580000Y-31750000D03*
X66040000Y-31750000D03*
X63500000Y-31750000D03*
X60960000Y-31750000D03*
X58420000Y-31750000D03*
X55880000Y-31750000D03*
D13*
X53340000Y-31750000D03*
%TD*%
D12*
%TO.C,J7*%
X147320000Y-31750000D03*
X144780000Y-31750000D03*
X142240000Y-31750000D03*
X139700000Y-31750000D03*
X137160000Y-31750000D03*
X134620000Y-31750000D03*
X132080000Y-31750000D03*
X129540000Y-31750000D03*
D13*
X127000000Y-31750000D03*
%TD*%
D12*
%TO.C,J6*%
X73660000Y-49530000D03*
X71120000Y-49530000D03*
X68580000Y-49530000D03*
X66040000Y-49530000D03*
X63500000Y-49530000D03*
X60960000Y-49530000D03*
X58420000Y-49530000D03*
X55880000Y-49530000D03*
D13*
X53340000Y-49530000D03*
%TD*%
D12*
%TO.C,J5*%
X147320000Y-49530000D03*
X144780000Y-49530000D03*
X142240000Y-49530000D03*
X139700000Y-49530000D03*
X137160000Y-49530000D03*
X134620000Y-49530000D03*
X132080000Y-49530000D03*
X129540000Y-49530000D03*
D13*
X127000000Y-49530000D03*
%TD*%
D12*
%TO.C,J4*%
X73660000Y-67310000D03*
X71120000Y-67310000D03*
X68580000Y-67310000D03*
X66040000Y-67310000D03*
X63500000Y-67310000D03*
X60960000Y-67310000D03*
X58420000Y-67310000D03*
X55880000Y-67310000D03*
D13*
X53340000Y-67310000D03*
%TD*%
D12*
%TO.C,J3*%
X147320000Y-67310000D03*
X144780000Y-67310000D03*
X142240000Y-67310000D03*
X139700000Y-67310000D03*
X137160000Y-67310000D03*
X134620000Y-67310000D03*
X132080000Y-67310000D03*
X129540000Y-67310000D03*
D13*
X127000000Y-67310000D03*
%TD*%
D12*
%TO.C,J2*%
X73660000Y-85090000D03*
X71120000Y-85090000D03*
X68580000Y-85090000D03*
X66040000Y-85090000D03*
X63500000Y-85090000D03*
X60960000Y-85090000D03*
X58420000Y-85090000D03*
X55880000Y-85090000D03*
D13*
X53340000Y-85090000D03*
%TD*%
D12*
%TO.C,J1*%
X147320000Y-85090000D03*
X144780000Y-85090000D03*
X142240000Y-85090000D03*
X139700000Y-85090000D03*
X137160000Y-85090000D03*
X134620000Y-85090000D03*
X132080000Y-85090000D03*
X129540000Y-85090000D03*
D13*
X127000000Y-85090000D03*
%TD*%
D21*
%TO.C,H6*%
X160020000Y-109220000D03*
%TD*%
%TO.C,H4*%
X160020000Y-20320000D03*
%TD*%
%TO.C,H2*%
X90170000Y-109220000D03*
%TD*%
%TO.C,H5*%
X90170000Y-20320000D03*
%TD*%
%TO.C,H3*%
X20320000Y-109220000D03*
%TD*%
%TO.C,H1*%
X20320000Y-20320000D03*
%TD*%
D10*
%TO.C,U1*%
X160020000Y-96520000D03*
X157480000Y-96520000D03*
X154940000Y-96520000D03*
X147320000Y-96520000D03*
X144780000Y-96520000D03*
X142240000Y-96520000D03*
X139700000Y-96520000D03*
X137160000Y-96520000D03*
X134620000Y-96520000D03*
X132080000Y-96520000D03*
X129540000Y-96520000D03*
X124460000Y-96520000D03*
X121920000Y-96520000D03*
X116840000Y-96520000D03*
X111760000Y-96520000D03*
X109220000Y-96520000D03*
X106680000Y-96520000D03*
X104140000Y-96520000D03*
X101600000Y-96520000D03*
X99060000Y-96520000D03*
X96520000Y-96520000D03*
X93980000Y-96520000D03*
%TD*%
%TO.C,U8*%
X86360000Y-43180000D03*
X83820000Y-43180000D03*
X81280000Y-43180000D03*
X73660000Y-43180000D03*
X71120000Y-43180000D03*
X68580000Y-43180000D03*
X66040000Y-43180000D03*
X63500000Y-43180000D03*
X60960000Y-43180000D03*
X58420000Y-43180000D03*
X55880000Y-43180000D03*
X50800000Y-43180000D03*
X48260000Y-43180000D03*
X43180000Y-43180000D03*
X38100000Y-43180000D03*
X35560000Y-43180000D03*
X33020000Y-43180000D03*
X30480000Y-43180000D03*
X27940000Y-43180000D03*
X25400000Y-43180000D03*
X22860000Y-43180000D03*
X20320000Y-43180000D03*
%TD*%
%TO.C,U6*%
X86360000Y-60960000D03*
X83820000Y-60960000D03*
X81280000Y-60960000D03*
X73660000Y-60960000D03*
X71120000Y-60960000D03*
X68580000Y-60960000D03*
X66040000Y-60960000D03*
X63500000Y-60960000D03*
X60960000Y-60960000D03*
X58420000Y-60960000D03*
X55880000Y-60960000D03*
X50800000Y-60960000D03*
X48260000Y-60960000D03*
X43180000Y-60960000D03*
X38100000Y-60960000D03*
X35560000Y-60960000D03*
X33020000Y-60960000D03*
X30480000Y-60960000D03*
X27940000Y-60960000D03*
X25400000Y-60960000D03*
X22860000Y-60960000D03*
X20320000Y-60960000D03*
%TD*%
%TO.C,U4*%
X86360000Y-78740000D03*
X83820000Y-78740000D03*
X81280000Y-78740000D03*
X73660000Y-78740000D03*
X71120000Y-78740000D03*
X68580000Y-78740000D03*
X66040000Y-78740000D03*
X63500000Y-78740000D03*
X60960000Y-78740000D03*
X58420000Y-78740000D03*
X55880000Y-78740000D03*
X50800000Y-78740000D03*
X48260000Y-78740000D03*
X43180000Y-78740000D03*
X38100000Y-78740000D03*
X35560000Y-78740000D03*
X33020000Y-78740000D03*
X30480000Y-78740000D03*
X27940000Y-78740000D03*
X25400000Y-78740000D03*
X22860000Y-78740000D03*
X20320000Y-78740000D03*
%TD*%
%TO.C,U2*%
X86360000Y-96520000D03*
X83820000Y-96520000D03*
X81280000Y-96520000D03*
X73660000Y-96520000D03*
X71120000Y-96520000D03*
X68580000Y-96520000D03*
X66040000Y-96520000D03*
X63500000Y-96520000D03*
X60960000Y-96520000D03*
X58420000Y-96520000D03*
X55880000Y-96520000D03*
X50800000Y-96520000D03*
X48260000Y-96520000D03*
X43180000Y-96520000D03*
X38100000Y-96520000D03*
X35560000Y-96520000D03*
X33020000Y-96520000D03*
X30480000Y-96520000D03*
X27940000Y-96520000D03*
X25400000Y-96520000D03*
X22860000Y-96520000D03*
X20320000Y-96520000D03*
%TD*%
%TO.C,U7*%
X160020000Y-43180000D03*
X157480000Y-43180000D03*
X154940000Y-43180000D03*
X147320000Y-43180000D03*
X144780000Y-43180000D03*
X142240000Y-43180000D03*
X139700000Y-43180000D03*
X137160000Y-43180000D03*
X134620000Y-43180000D03*
X132080000Y-43180000D03*
X129540000Y-43180000D03*
X124460000Y-43180000D03*
X121920000Y-43180000D03*
X116840000Y-43180000D03*
X111760000Y-43180000D03*
X109220000Y-43180000D03*
X106680000Y-43180000D03*
X104140000Y-43180000D03*
X101600000Y-43180000D03*
X99060000Y-43180000D03*
X96520000Y-43180000D03*
X93980000Y-43180000D03*
%TD*%
%TO.C,U5*%
X160020000Y-60960000D03*
X157480000Y-60960000D03*
X154940000Y-60960000D03*
X147320000Y-60960000D03*
X144780000Y-60960000D03*
X142240000Y-60960000D03*
X139700000Y-60960000D03*
X137160000Y-60960000D03*
X134620000Y-60960000D03*
X132080000Y-60960000D03*
X129540000Y-60960000D03*
X124460000Y-60960000D03*
X121920000Y-60960000D03*
X116840000Y-60960000D03*
X111760000Y-60960000D03*
X109220000Y-60960000D03*
X106680000Y-60960000D03*
X104140000Y-60960000D03*
X101600000Y-60960000D03*
X99060000Y-60960000D03*
X96520000Y-60960000D03*
X93980000Y-60960000D03*
%TD*%
%TO.C,U3*%
X160020000Y-78740000D03*
X157480000Y-78740000D03*
X154940000Y-78740000D03*
X147320000Y-78740000D03*
X144780000Y-78740000D03*
X142240000Y-78740000D03*
X139700000Y-78740000D03*
X137160000Y-78740000D03*
X134620000Y-78740000D03*
X132080000Y-78740000D03*
X129540000Y-78740000D03*
X124460000Y-78740000D03*
X121920000Y-78740000D03*
X116840000Y-78740000D03*
X111760000Y-78740000D03*
X109220000Y-78740000D03*
X106680000Y-78740000D03*
X104140000Y-78740000D03*
X101600000Y-78740000D03*
X99060000Y-78740000D03*
X96520000Y-78740000D03*
X93980000Y-78740000D03*
%TD*%
M02*
