%TF.GenerationSoftware,KiCad,Pcbnew,(5.1.8)-1*%
%TF.CreationDate,2024-03-21T22:43:26+03:00*%
%TF.ProjectId,Regs-v4,52656773-2d76-4342-9e6b-696361645f70,rev?*%
%TF.SameCoordinates,Original*%
%TF.FileFunction,Legend,Top*%
%TF.FilePolarity,Positive*%
%FSLAX46Y46*%
G04 Gerber Fmt 4.6, Leading zero omitted, Abs format (unit mm)*
G04 Created by KiCad (PCBNEW (5.1.8)-1) date 2024-03-21 22:43:26*
%MOMM*%
%LPD*%
G01*
G04 APERTURE LIST*
%ADD10C,0.300000*%
%ADD11C,0.150000*%
%ADD12C,0.250000*%
%ADD13C,0.500000*%
%ADD14C,0.120000*%
G04 APERTURE END LIST*
D10*
X90979523Y-37766428D02*
X91074761Y-37480714D01*
X91074761Y-37004523D01*
X90979523Y-36814047D01*
X90884285Y-36718809D01*
X90693809Y-36623571D01*
X90503333Y-36623571D01*
X90312857Y-36718809D01*
X90217619Y-36814047D01*
X90122380Y-37004523D01*
X90027142Y-37385476D01*
X89931904Y-37575952D01*
X89836666Y-37671190D01*
X89646190Y-37766428D01*
X89455714Y-37766428D01*
X89265238Y-37671190D01*
X89170000Y-37575952D01*
X89074761Y-37385476D01*
X89074761Y-36909285D01*
X89170000Y-36623571D01*
X91074761Y-35766428D02*
X89074761Y-35766428D01*
X89074761Y-35004523D01*
X89170000Y-34814047D01*
X89265238Y-34718809D01*
X89455714Y-34623571D01*
X89741428Y-34623571D01*
X89931904Y-34718809D01*
X90027142Y-34814047D01*
X90122380Y-35004523D01*
X90122380Y-35766428D01*
X89074761Y-54641666D02*
X89074761Y-53308333D01*
X91074761Y-54641666D01*
X91074761Y-53308333D01*
D11*
X119316666Y-100685000D02*
X120316666Y-100685000D01*
X120126190Y-102052380D02*
X119792857Y-101576190D01*
X119554761Y-102052380D02*
X119554761Y-101052380D01*
X119935714Y-101052380D01*
X120030952Y-101100000D01*
X120078571Y-101147619D01*
X120126190Y-101242857D01*
X120126190Y-101385714D01*
X120078571Y-101480952D01*
X120030952Y-101528571D01*
X119935714Y-101576190D01*
X119554761Y-101576190D01*
X120316666Y-100685000D02*
X121173809Y-100685000D01*
X120935714Y-102004761D02*
X120840476Y-102052380D01*
X120650000Y-102052380D01*
X120554761Y-102004761D01*
X120507142Y-101909523D01*
X120507142Y-101528571D01*
X120554761Y-101433333D01*
X120650000Y-101385714D01*
X120840476Y-101385714D01*
X120935714Y-101433333D01*
X120983333Y-101528571D01*
X120983333Y-101623809D01*
X120507142Y-101719047D01*
X121173809Y-100685000D02*
X121983333Y-100685000D01*
X121364285Y-102004761D02*
X121459523Y-102052380D01*
X121650000Y-102052380D01*
X121745238Y-102004761D01*
X121792857Y-101909523D01*
X121792857Y-101861904D01*
X121745238Y-101766666D01*
X121650000Y-101719047D01*
X121507142Y-101719047D01*
X121411904Y-101671428D01*
X121364285Y-101576190D01*
X121364285Y-101528571D01*
X121411904Y-101433333D01*
X121507142Y-101385714D01*
X121650000Y-101385714D01*
X121745238Y-101433333D01*
X123126666Y-100685000D02*
X124126666Y-100685000D01*
X123936190Y-102052380D02*
X123602857Y-101576190D01*
X123364761Y-102052380D02*
X123364761Y-101052380D01*
X123745714Y-101052380D01*
X123840952Y-101100000D01*
X123888571Y-101147619D01*
X123936190Y-101242857D01*
X123936190Y-101385714D01*
X123888571Y-101480952D01*
X123840952Y-101528571D01*
X123745714Y-101576190D01*
X123364761Y-101576190D01*
X124126666Y-100685000D02*
X124983809Y-100685000D01*
X124745714Y-102004761D02*
X124650476Y-102052380D01*
X124460000Y-102052380D01*
X124364761Y-102004761D01*
X124317142Y-101909523D01*
X124317142Y-101528571D01*
X124364761Y-101433333D01*
X124460000Y-101385714D01*
X124650476Y-101385714D01*
X124745714Y-101433333D01*
X124793333Y-101528571D01*
X124793333Y-101623809D01*
X124317142Y-101719047D01*
X124983809Y-100685000D02*
X125793333Y-100685000D01*
X125174285Y-102004761D02*
X125269523Y-102052380D01*
X125460000Y-102052380D01*
X125555238Y-102004761D01*
X125602857Y-101909523D01*
X125602857Y-101861904D01*
X125555238Y-101766666D01*
X125460000Y-101719047D01*
X125317142Y-101719047D01*
X125221904Y-101671428D01*
X125174285Y-101576190D01*
X125174285Y-101528571D01*
X125221904Y-101433333D01*
X125317142Y-101385714D01*
X125460000Y-101385714D01*
X125555238Y-101433333D01*
X105394285Y-27058928D02*
X106156190Y-27058928D01*
X105775238Y-27439880D02*
X105775238Y-26677976D01*
X107108571Y-26439880D02*
X106632380Y-26439880D01*
X106584761Y-26916071D01*
X106632380Y-26868452D01*
X106727619Y-26820833D01*
X106965714Y-26820833D01*
X107060952Y-26868452D01*
X107108571Y-26916071D01*
X107156190Y-27011309D01*
X107156190Y-27249404D01*
X107108571Y-27344642D01*
X107060952Y-27392261D01*
X106965714Y-27439880D01*
X106727619Y-27439880D01*
X106632380Y-27392261D01*
X106584761Y-27344642D01*
X107441904Y-26439880D02*
X107775238Y-27439880D01*
X108108571Y-26439880D01*
X49927023Y-93432380D02*
X50260357Y-94432380D01*
X50593690Y-93432380D01*
X51355595Y-94384761D02*
X51260357Y-94432380D01*
X51069880Y-94432380D01*
X50974642Y-94384761D01*
X50927023Y-94337142D01*
X50879404Y-94241904D01*
X50879404Y-93956190D01*
X50927023Y-93860952D01*
X50974642Y-93813333D01*
X51069880Y-93765714D01*
X51260357Y-93765714D01*
X51355595Y-93813333D01*
X52212738Y-94384761D02*
X52117500Y-94432380D01*
X51927023Y-94432380D01*
X51831785Y-94384761D01*
X51784166Y-94337142D01*
X51736547Y-94241904D01*
X51736547Y-93956190D01*
X51784166Y-93860952D01*
X51831785Y-93813333D01*
X51927023Y-93765714D01*
X52117500Y-93765714D01*
X52212738Y-93813333D01*
X47299642Y-93480000D02*
X47204404Y-93432380D01*
X47061547Y-93432380D01*
X46918690Y-93480000D01*
X46823452Y-93575238D01*
X46775833Y-93670476D01*
X46728214Y-93860952D01*
X46728214Y-94003809D01*
X46775833Y-94194285D01*
X46823452Y-94289523D01*
X46918690Y-94384761D01*
X47061547Y-94432380D01*
X47156785Y-94432380D01*
X47299642Y-94384761D01*
X47347261Y-94337142D01*
X47347261Y-94003809D01*
X47156785Y-94003809D01*
X47775833Y-93765714D02*
X47775833Y-94432380D01*
X47775833Y-93860952D02*
X47823452Y-93813333D01*
X47918690Y-93765714D01*
X48061547Y-93765714D01*
X48156785Y-93813333D01*
X48204404Y-93908571D01*
X48204404Y-94432380D01*
X49109166Y-94432380D02*
X49109166Y-93432380D01*
X49109166Y-94384761D02*
X49013928Y-94432380D01*
X48823452Y-94432380D01*
X48728214Y-94384761D01*
X48680595Y-94337142D01*
X48632976Y-94241904D01*
X48632976Y-93956190D01*
X48680595Y-93860952D01*
X48728214Y-93813333D01*
X48823452Y-93765714D01*
X49013928Y-93765714D01*
X49109166Y-93813333D01*
X28392380Y-94138690D02*
X27392380Y-94138690D01*
X27725714Y-93233928D02*
X28392380Y-93233928D01*
X27344761Y-93472023D02*
X28059047Y-93710119D01*
X28059047Y-93091071D01*
X25852380Y-94138690D02*
X24852380Y-94138690D01*
X24852380Y-93186309D02*
X24852380Y-93662500D01*
X25328571Y-93710119D01*
X25280952Y-93662500D01*
X25233333Y-93567261D01*
X25233333Y-93329166D01*
X25280952Y-93233928D01*
X25328571Y-93186309D01*
X25423809Y-93138690D01*
X25661904Y-93138690D01*
X25757142Y-93186309D01*
X25804761Y-93233928D01*
X25852380Y-93329166D01*
X25852380Y-93567261D01*
X25804761Y-93662500D01*
X25757142Y-93710119D01*
X43116666Y-93065000D02*
X44116666Y-93065000D01*
X43926190Y-94432380D02*
X43592857Y-93956190D01*
X43354761Y-94432380D02*
X43354761Y-93432380D01*
X43735714Y-93432380D01*
X43830952Y-93480000D01*
X43878571Y-93527619D01*
X43926190Y-93622857D01*
X43926190Y-93765714D01*
X43878571Y-93860952D01*
X43830952Y-93908571D01*
X43735714Y-93956190D01*
X43354761Y-93956190D01*
X44116666Y-93065000D02*
X44973809Y-93065000D01*
X44735714Y-94384761D02*
X44640476Y-94432380D01*
X44450000Y-94432380D01*
X44354761Y-94384761D01*
X44307142Y-94289523D01*
X44307142Y-93908571D01*
X44354761Y-93813333D01*
X44450000Y-93765714D01*
X44640476Y-93765714D01*
X44735714Y-93813333D01*
X44783333Y-93908571D01*
X44783333Y-94003809D01*
X44307142Y-94099047D01*
X44973809Y-93065000D02*
X45783333Y-93065000D01*
X45164285Y-94384761D02*
X45259523Y-94432380D01*
X45450000Y-94432380D01*
X45545238Y-94384761D01*
X45592857Y-94289523D01*
X45592857Y-94241904D01*
X45545238Y-94146666D01*
X45450000Y-94099047D01*
X45307142Y-94099047D01*
X45211904Y-94051428D01*
X45164285Y-93956190D01*
X45164285Y-93908571D01*
X45211904Y-93813333D01*
X45307142Y-93765714D01*
X45450000Y-93765714D01*
X45545238Y-93813333D01*
X70572380Y-94551428D02*
X70572380Y-94360952D01*
X70620000Y-94265714D01*
X70715238Y-94170476D01*
X70905714Y-94122857D01*
X71239047Y-94122857D01*
X71429523Y-94170476D01*
X71524761Y-94265714D01*
X71572380Y-94360952D01*
X71572380Y-94551428D01*
X71524761Y-94646666D01*
X71429523Y-94741904D01*
X71239047Y-94789523D01*
X70905714Y-94789523D01*
X70715238Y-94741904D01*
X70620000Y-94646666D01*
X70572380Y-94551428D01*
X70572380Y-93265714D02*
X70572380Y-93456190D01*
X70620000Y-93551428D01*
X70667619Y-93599047D01*
X70810476Y-93694285D01*
X71000952Y-93741904D01*
X71381904Y-93741904D01*
X71477142Y-93694285D01*
X71524761Y-93646666D01*
X71572380Y-93551428D01*
X71572380Y-93360952D01*
X71524761Y-93265714D01*
X71477142Y-93218095D01*
X71381904Y-93170476D01*
X71143809Y-93170476D01*
X71048571Y-93218095D01*
X71000952Y-93265714D01*
X70953333Y-93360952D01*
X70953333Y-93551428D01*
X71000952Y-93646666D01*
X71048571Y-93694285D01*
X71143809Y-93741904D01*
X65492380Y-94551428D02*
X65492380Y-94360952D01*
X65540000Y-94265714D01*
X65635238Y-94170476D01*
X65825714Y-94122857D01*
X66159047Y-94122857D01*
X66349523Y-94170476D01*
X66444761Y-94265714D01*
X66492380Y-94360952D01*
X66492380Y-94551428D01*
X66444761Y-94646666D01*
X66349523Y-94741904D01*
X66159047Y-94789523D01*
X65825714Y-94789523D01*
X65635238Y-94741904D01*
X65540000Y-94646666D01*
X65492380Y-94551428D01*
X65825714Y-93265714D02*
X66492380Y-93265714D01*
X65444761Y-93503809D02*
X66159047Y-93741904D01*
X66159047Y-93122857D01*
X38552380Y-94138690D02*
X37552380Y-94138690D01*
X37552380Y-93472023D02*
X37552380Y-93376785D01*
X37600000Y-93281547D01*
X37647619Y-93233928D01*
X37742857Y-93186309D01*
X37933333Y-93138690D01*
X38171428Y-93138690D01*
X38361904Y-93186309D01*
X38457142Y-93233928D01*
X38504761Y-93281547D01*
X38552380Y-93376785D01*
X38552380Y-93472023D01*
X38504761Y-93567261D01*
X38457142Y-93614880D01*
X38361904Y-93662500D01*
X38171428Y-93710119D01*
X37933333Y-93710119D01*
X37742857Y-93662500D01*
X37647619Y-93614880D01*
X37600000Y-93567261D01*
X37552380Y-93472023D01*
X23312380Y-94138690D02*
X22312380Y-94138690D01*
X22312380Y-93233928D02*
X22312380Y-93424404D01*
X22360000Y-93519642D01*
X22407619Y-93567261D01*
X22550476Y-93662500D01*
X22740952Y-93710119D01*
X23121904Y-93710119D01*
X23217142Y-93662500D01*
X23264761Y-93614880D01*
X23312380Y-93519642D01*
X23312380Y-93329166D01*
X23264761Y-93233928D01*
X23217142Y-93186309D01*
X23121904Y-93138690D01*
X22883809Y-93138690D01*
X22788571Y-93186309D01*
X22740952Y-93233928D01*
X22693333Y-93329166D01*
X22693333Y-93519642D01*
X22740952Y-93614880D01*
X22788571Y-93662500D01*
X22883809Y-93710119D01*
X82905000Y-95194285D02*
X82905000Y-94194285D01*
X84177142Y-94384761D02*
X84224761Y-94432380D01*
X84272380Y-94575238D01*
X84272380Y-94670476D01*
X84224761Y-94813333D01*
X84129523Y-94908571D01*
X84034285Y-94956190D01*
X83843809Y-95003809D01*
X83700952Y-95003809D01*
X83510476Y-94956190D01*
X83415238Y-94908571D01*
X83320000Y-94813333D01*
X83272380Y-94670476D01*
X83272380Y-94575238D01*
X83320000Y-94432380D01*
X83367619Y-94384761D01*
X82905000Y-94194285D02*
X82905000Y-93289523D01*
X84272380Y-93813333D02*
X84224761Y-93908571D01*
X84177142Y-93956190D01*
X84081904Y-94003809D01*
X83796190Y-94003809D01*
X83700952Y-93956190D01*
X83653333Y-93908571D01*
X83605714Y-93813333D01*
X83605714Y-93670476D01*
X83653333Y-93575238D01*
X83700952Y-93527619D01*
X83796190Y-93480000D01*
X84081904Y-93480000D01*
X84177142Y-93527619D01*
X84224761Y-93575238D01*
X84272380Y-93670476D01*
X84272380Y-93813333D01*
X82905000Y-93289523D02*
X82905000Y-92765714D01*
X84272380Y-92908571D02*
X84224761Y-93003809D01*
X84129523Y-93051428D01*
X83272380Y-93051428D01*
X73112380Y-94551428D02*
X73112380Y-94360952D01*
X73160000Y-94265714D01*
X73255238Y-94170476D01*
X73445714Y-94122857D01*
X73779047Y-94122857D01*
X73969523Y-94170476D01*
X74064761Y-94265714D01*
X74112380Y-94360952D01*
X74112380Y-94551428D01*
X74064761Y-94646666D01*
X73969523Y-94741904D01*
X73779047Y-94789523D01*
X73445714Y-94789523D01*
X73255238Y-94741904D01*
X73160000Y-94646666D01*
X73112380Y-94551428D01*
X73112380Y-93789523D02*
X73112380Y-93122857D01*
X74112380Y-93551428D01*
X57872380Y-94551428D02*
X57872380Y-94360952D01*
X57920000Y-94265714D01*
X58015238Y-94170476D01*
X58205714Y-94122857D01*
X58539047Y-94122857D01*
X58729523Y-94170476D01*
X58824761Y-94265714D01*
X58872380Y-94360952D01*
X58872380Y-94551428D01*
X58824761Y-94646666D01*
X58729523Y-94741904D01*
X58539047Y-94789523D01*
X58205714Y-94789523D01*
X58015238Y-94741904D01*
X57920000Y-94646666D01*
X57872380Y-94551428D01*
X58872380Y-93170476D02*
X58872380Y-93741904D01*
X58872380Y-93456190D02*
X57872380Y-93456190D01*
X58015238Y-93551428D01*
X58110476Y-93646666D01*
X58158095Y-93741904D01*
X68032380Y-94551428D02*
X68032380Y-94360952D01*
X68080000Y-94265714D01*
X68175238Y-94170476D01*
X68365714Y-94122857D01*
X68699047Y-94122857D01*
X68889523Y-94170476D01*
X68984761Y-94265714D01*
X69032380Y-94360952D01*
X69032380Y-94551428D01*
X68984761Y-94646666D01*
X68889523Y-94741904D01*
X68699047Y-94789523D01*
X68365714Y-94789523D01*
X68175238Y-94741904D01*
X68080000Y-94646666D01*
X68032380Y-94551428D01*
X68032380Y-93218095D02*
X68032380Y-93694285D01*
X68508571Y-93741904D01*
X68460952Y-93694285D01*
X68413333Y-93599047D01*
X68413333Y-93360952D01*
X68460952Y-93265714D01*
X68508571Y-93218095D01*
X68603809Y-93170476D01*
X68841904Y-93170476D01*
X68937142Y-93218095D01*
X68984761Y-93265714D01*
X69032380Y-93360952D01*
X69032380Y-93599047D01*
X68984761Y-93694285D01*
X68937142Y-93741904D01*
X33472380Y-94138690D02*
X32472380Y-94138690D01*
X32567619Y-93710119D02*
X32520000Y-93662500D01*
X32472380Y-93567261D01*
X32472380Y-93329166D01*
X32520000Y-93233928D01*
X32567619Y-93186309D01*
X32662857Y-93138690D01*
X32758095Y-93138690D01*
X32900952Y-93186309D01*
X33472380Y-93757738D01*
X33472380Y-93138690D01*
X60412380Y-94551428D02*
X60412380Y-94360952D01*
X60460000Y-94265714D01*
X60555238Y-94170476D01*
X60745714Y-94122857D01*
X61079047Y-94122857D01*
X61269523Y-94170476D01*
X61364761Y-94265714D01*
X61412380Y-94360952D01*
X61412380Y-94551428D01*
X61364761Y-94646666D01*
X61269523Y-94741904D01*
X61079047Y-94789523D01*
X60745714Y-94789523D01*
X60555238Y-94741904D01*
X60460000Y-94646666D01*
X60412380Y-94551428D01*
X60507619Y-93741904D02*
X60460000Y-93694285D01*
X60412380Y-93599047D01*
X60412380Y-93360952D01*
X60460000Y-93265714D01*
X60507619Y-93218095D01*
X60602857Y-93170476D01*
X60698095Y-93170476D01*
X60840952Y-93218095D01*
X61412380Y-93789523D01*
X61412380Y-93170476D01*
X80365000Y-94956190D02*
X80365000Y-93956190D01*
X81637142Y-94146666D02*
X81684761Y-94194285D01*
X81732380Y-94337142D01*
X81732380Y-94432380D01*
X81684761Y-94575238D01*
X81589523Y-94670476D01*
X81494285Y-94718095D01*
X81303809Y-94765714D01*
X81160952Y-94765714D01*
X80970476Y-94718095D01*
X80875238Y-94670476D01*
X80780000Y-94575238D01*
X80732380Y-94432380D01*
X80732380Y-94337142D01*
X80780000Y-94194285D01*
X80827619Y-94146666D01*
X80365000Y-93956190D02*
X80365000Y-93003809D01*
X81684761Y-93765714D02*
X81732380Y-93622857D01*
X81732380Y-93384761D01*
X81684761Y-93289523D01*
X81637142Y-93241904D01*
X81541904Y-93194285D01*
X81446666Y-93194285D01*
X81351428Y-93241904D01*
X81303809Y-93289523D01*
X81256190Y-93384761D01*
X81208571Y-93575238D01*
X81160952Y-93670476D01*
X81113333Y-93718095D01*
X81018095Y-93765714D01*
X80922857Y-93765714D01*
X80827619Y-93718095D01*
X80780000Y-93670476D01*
X80732380Y-93575238D01*
X80732380Y-93337142D01*
X80780000Y-93194285D01*
X30932380Y-94138690D02*
X29932380Y-94138690D01*
X29932380Y-93757738D02*
X29932380Y-93138690D01*
X30313333Y-93472023D01*
X30313333Y-93329166D01*
X30360952Y-93233928D01*
X30408571Y-93186309D01*
X30503809Y-93138690D01*
X30741904Y-93138690D01*
X30837142Y-93186309D01*
X30884761Y-93233928D01*
X30932380Y-93329166D01*
X30932380Y-93614880D01*
X30884761Y-93710119D01*
X30837142Y-93757738D01*
X85445000Y-95456190D02*
X85445000Y-94456190D01*
X86812380Y-94646666D02*
X86336190Y-94980000D01*
X86812380Y-95218095D02*
X85812380Y-95218095D01*
X85812380Y-94837142D01*
X85860000Y-94741904D01*
X85907619Y-94694285D01*
X86002857Y-94646666D01*
X86145714Y-94646666D01*
X86240952Y-94694285D01*
X86288571Y-94741904D01*
X86336190Y-94837142D01*
X86336190Y-95218095D01*
X85445000Y-94456190D02*
X85445000Y-93551428D01*
X86812380Y-94075238D02*
X86764761Y-94170476D01*
X86717142Y-94218095D01*
X86621904Y-94265714D01*
X86336190Y-94265714D01*
X86240952Y-94218095D01*
X86193333Y-94170476D01*
X86145714Y-94075238D01*
X86145714Y-93932380D01*
X86193333Y-93837142D01*
X86240952Y-93789523D01*
X86336190Y-93741904D01*
X86621904Y-93741904D01*
X86717142Y-93789523D01*
X86764761Y-93837142D01*
X86812380Y-93932380D01*
X86812380Y-94075238D01*
X85445000Y-93551428D02*
X85445000Y-92503809D01*
X86145714Y-93408571D02*
X86812380Y-93218095D01*
X86336190Y-93027619D01*
X86812380Y-92837142D01*
X86145714Y-92646666D01*
X55332380Y-94551428D02*
X55332380Y-94360952D01*
X55380000Y-94265714D01*
X55475238Y-94170476D01*
X55665714Y-94122857D01*
X55999047Y-94122857D01*
X56189523Y-94170476D01*
X56284761Y-94265714D01*
X56332380Y-94360952D01*
X56332380Y-94551428D01*
X56284761Y-94646666D01*
X56189523Y-94741904D01*
X55999047Y-94789523D01*
X55665714Y-94789523D01*
X55475238Y-94741904D01*
X55380000Y-94646666D01*
X55332380Y-94551428D01*
X55332380Y-93503809D02*
X55332380Y-93408571D01*
X55380000Y-93313333D01*
X55427619Y-93265714D01*
X55522857Y-93218095D01*
X55713333Y-93170476D01*
X55951428Y-93170476D01*
X56141904Y-93218095D01*
X56237142Y-93265714D01*
X56284761Y-93313333D01*
X56332380Y-93408571D01*
X56332380Y-93503809D01*
X56284761Y-93599047D01*
X56237142Y-93646666D01*
X56141904Y-93694285D01*
X55951428Y-93741904D01*
X55713333Y-93741904D01*
X55522857Y-93694285D01*
X55427619Y-93646666D01*
X55380000Y-93599047D01*
X55332380Y-93503809D01*
X36012380Y-94138690D02*
X35012380Y-94138690D01*
X36012380Y-93138690D02*
X36012380Y-93710119D01*
X36012380Y-93424404D02*
X35012380Y-93424404D01*
X35155238Y-93519642D01*
X35250476Y-93614880D01*
X35298095Y-93710119D01*
X20772380Y-94138690D02*
X19772380Y-94138690D01*
X19772380Y-93757738D02*
X19772380Y-93091071D01*
X20772380Y-93519642D01*
X62952380Y-94551428D02*
X62952380Y-94360952D01*
X63000000Y-94265714D01*
X63095238Y-94170476D01*
X63285714Y-94122857D01*
X63619047Y-94122857D01*
X63809523Y-94170476D01*
X63904761Y-94265714D01*
X63952380Y-94360952D01*
X63952380Y-94551428D01*
X63904761Y-94646666D01*
X63809523Y-94741904D01*
X63619047Y-94789523D01*
X63285714Y-94789523D01*
X63095238Y-94741904D01*
X63000000Y-94646666D01*
X62952380Y-94551428D01*
X62952380Y-93789523D02*
X62952380Y-93170476D01*
X63333333Y-93503809D01*
X63333333Y-93360952D01*
X63380952Y-93265714D01*
X63428571Y-93218095D01*
X63523809Y-93170476D01*
X63761904Y-93170476D01*
X63857142Y-93218095D01*
X63904761Y-93265714D01*
X63952380Y-93360952D01*
X63952380Y-93646666D01*
X63904761Y-93741904D01*
X63857142Y-93789523D01*
X94432380Y-94773690D02*
X93432380Y-94773690D01*
X93432380Y-94392738D02*
X93432380Y-93726071D01*
X94432380Y-94154642D01*
X96972380Y-94773690D02*
X95972380Y-94773690D01*
X95972380Y-93868928D02*
X95972380Y-94059404D01*
X96020000Y-94154642D01*
X96067619Y-94202261D01*
X96210476Y-94297500D01*
X96400952Y-94345119D01*
X96781904Y-94345119D01*
X96877142Y-94297500D01*
X96924761Y-94249880D01*
X96972380Y-94154642D01*
X96972380Y-93964166D01*
X96924761Y-93868928D01*
X96877142Y-93821309D01*
X96781904Y-93773690D01*
X96543809Y-93773690D01*
X96448571Y-93821309D01*
X96400952Y-93868928D01*
X96353333Y-93964166D01*
X96353333Y-94154642D01*
X96400952Y-94249880D01*
X96448571Y-94297500D01*
X96543809Y-94345119D01*
X99512380Y-94773690D02*
X98512380Y-94773690D01*
X98512380Y-93821309D02*
X98512380Y-94297500D01*
X98988571Y-94345119D01*
X98940952Y-94297500D01*
X98893333Y-94202261D01*
X98893333Y-93964166D01*
X98940952Y-93868928D01*
X98988571Y-93821309D01*
X99083809Y-93773690D01*
X99321904Y-93773690D01*
X99417142Y-93821309D01*
X99464761Y-93868928D01*
X99512380Y-93964166D01*
X99512380Y-94202261D01*
X99464761Y-94297500D01*
X99417142Y-94345119D01*
X102052380Y-94773690D02*
X101052380Y-94773690D01*
X101385714Y-93868928D02*
X102052380Y-93868928D01*
X101004761Y-94107023D02*
X101719047Y-94345119D01*
X101719047Y-93726071D01*
X104592380Y-94773690D02*
X103592380Y-94773690D01*
X103592380Y-94392738D02*
X103592380Y-93773690D01*
X103973333Y-94107023D01*
X103973333Y-93964166D01*
X104020952Y-93868928D01*
X104068571Y-93821309D01*
X104163809Y-93773690D01*
X104401904Y-93773690D01*
X104497142Y-93821309D01*
X104544761Y-93868928D01*
X104592380Y-93964166D01*
X104592380Y-94249880D01*
X104544761Y-94345119D01*
X104497142Y-94392738D01*
X107132380Y-94773690D02*
X106132380Y-94773690D01*
X106227619Y-94345119D02*
X106180000Y-94297500D01*
X106132380Y-94202261D01*
X106132380Y-93964166D01*
X106180000Y-93868928D01*
X106227619Y-93821309D01*
X106322857Y-93773690D01*
X106418095Y-93773690D01*
X106560952Y-93821309D01*
X107132380Y-94392738D01*
X107132380Y-93773690D01*
X109672380Y-94773690D02*
X108672380Y-94773690D01*
X109672380Y-93773690D02*
X109672380Y-94345119D01*
X109672380Y-94059404D02*
X108672380Y-94059404D01*
X108815238Y-94154642D01*
X108910476Y-94249880D01*
X108958095Y-94345119D01*
X112212380Y-94773690D02*
X111212380Y-94773690D01*
X111212380Y-94107023D02*
X111212380Y-94011785D01*
X111260000Y-93916547D01*
X111307619Y-93868928D01*
X111402857Y-93821309D01*
X111593333Y-93773690D01*
X111831428Y-93773690D01*
X112021904Y-93821309D01*
X112117142Y-93868928D01*
X112164761Y-93916547D01*
X112212380Y-94011785D01*
X112212380Y-94107023D01*
X112164761Y-94202261D01*
X112117142Y-94249880D01*
X112021904Y-94297500D01*
X111831428Y-94345119D01*
X111593333Y-94345119D01*
X111402857Y-94297500D01*
X111307619Y-94249880D01*
X111260000Y-94202261D01*
X111212380Y-94107023D01*
X116776666Y-93065000D02*
X117776666Y-93065000D01*
X117586190Y-94432380D02*
X117252857Y-93956190D01*
X117014761Y-94432380D02*
X117014761Y-93432380D01*
X117395714Y-93432380D01*
X117490952Y-93480000D01*
X117538571Y-93527619D01*
X117586190Y-93622857D01*
X117586190Y-93765714D01*
X117538571Y-93860952D01*
X117490952Y-93908571D01*
X117395714Y-93956190D01*
X117014761Y-93956190D01*
X117776666Y-93065000D02*
X118633809Y-93065000D01*
X118395714Y-94384761D02*
X118300476Y-94432380D01*
X118110000Y-94432380D01*
X118014761Y-94384761D01*
X117967142Y-94289523D01*
X117967142Y-93908571D01*
X118014761Y-93813333D01*
X118110000Y-93765714D01*
X118300476Y-93765714D01*
X118395714Y-93813333D01*
X118443333Y-93908571D01*
X118443333Y-94003809D01*
X117967142Y-94099047D01*
X118633809Y-93065000D02*
X119443333Y-93065000D01*
X118824285Y-94384761D02*
X118919523Y-94432380D01*
X119110000Y-94432380D01*
X119205238Y-94384761D01*
X119252857Y-94289523D01*
X119252857Y-94241904D01*
X119205238Y-94146666D01*
X119110000Y-94099047D01*
X118967142Y-94099047D01*
X118871904Y-94051428D01*
X118824285Y-93956190D01*
X118824285Y-93908571D01*
X118871904Y-93813333D01*
X118967142Y-93765714D01*
X119110000Y-93765714D01*
X119205238Y-93813333D01*
X120959642Y-93480000D02*
X120864404Y-93432380D01*
X120721547Y-93432380D01*
X120578690Y-93480000D01*
X120483452Y-93575238D01*
X120435833Y-93670476D01*
X120388214Y-93860952D01*
X120388214Y-94003809D01*
X120435833Y-94194285D01*
X120483452Y-94289523D01*
X120578690Y-94384761D01*
X120721547Y-94432380D01*
X120816785Y-94432380D01*
X120959642Y-94384761D01*
X121007261Y-94337142D01*
X121007261Y-94003809D01*
X120816785Y-94003809D01*
X121435833Y-93765714D02*
X121435833Y-94432380D01*
X121435833Y-93860952D02*
X121483452Y-93813333D01*
X121578690Y-93765714D01*
X121721547Y-93765714D01*
X121816785Y-93813333D01*
X121864404Y-93908571D01*
X121864404Y-94432380D01*
X122769166Y-94432380D02*
X122769166Y-93432380D01*
X122769166Y-94384761D02*
X122673928Y-94432380D01*
X122483452Y-94432380D01*
X122388214Y-94384761D01*
X122340595Y-94337142D01*
X122292976Y-94241904D01*
X122292976Y-93956190D01*
X122340595Y-93860952D01*
X122388214Y-93813333D01*
X122483452Y-93765714D01*
X122673928Y-93765714D01*
X122769166Y-93813333D01*
X123587023Y-93432380D02*
X123920357Y-94432380D01*
X124253690Y-93432380D01*
X125015595Y-94384761D02*
X124920357Y-94432380D01*
X124729880Y-94432380D01*
X124634642Y-94384761D01*
X124587023Y-94337142D01*
X124539404Y-94241904D01*
X124539404Y-93956190D01*
X124587023Y-93860952D01*
X124634642Y-93813333D01*
X124729880Y-93765714D01*
X124920357Y-93765714D01*
X125015595Y-93813333D01*
X125872738Y-94384761D02*
X125777500Y-94432380D01*
X125587023Y-94432380D01*
X125491785Y-94384761D01*
X125444166Y-94337142D01*
X125396547Y-94241904D01*
X125396547Y-93956190D01*
X125444166Y-93860952D01*
X125491785Y-93813333D01*
X125587023Y-93765714D01*
X125777500Y-93765714D01*
X125872738Y-93813333D01*
X139152380Y-94551428D02*
X139152380Y-94360952D01*
X139200000Y-94265714D01*
X139295238Y-94170476D01*
X139485714Y-94122857D01*
X139819047Y-94122857D01*
X140009523Y-94170476D01*
X140104761Y-94265714D01*
X140152380Y-94360952D01*
X140152380Y-94551428D01*
X140104761Y-94646666D01*
X140009523Y-94741904D01*
X139819047Y-94789523D01*
X139485714Y-94789523D01*
X139295238Y-94741904D01*
X139200000Y-94646666D01*
X139152380Y-94551428D01*
X139485714Y-93265714D02*
X140152380Y-93265714D01*
X139104761Y-93503809D02*
X139819047Y-93741904D01*
X139819047Y-93122857D01*
X136612380Y-94551428D02*
X136612380Y-94360952D01*
X136660000Y-94265714D01*
X136755238Y-94170476D01*
X136945714Y-94122857D01*
X137279047Y-94122857D01*
X137469523Y-94170476D01*
X137564761Y-94265714D01*
X137612380Y-94360952D01*
X137612380Y-94551428D01*
X137564761Y-94646666D01*
X137469523Y-94741904D01*
X137279047Y-94789523D01*
X136945714Y-94789523D01*
X136755238Y-94741904D01*
X136660000Y-94646666D01*
X136612380Y-94551428D01*
X136612380Y-93789523D02*
X136612380Y-93170476D01*
X136993333Y-93503809D01*
X136993333Y-93360952D01*
X137040952Y-93265714D01*
X137088571Y-93218095D01*
X137183809Y-93170476D01*
X137421904Y-93170476D01*
X137517142Y-93218095D01*
X137564761Y-93265714D01*
X137612380Y-93360952D01*
X137612380Y-93646666D01*
X137564761Y-93741904D01*
X137517142Y-93789523D01*
X134072380Y-94551428D02*
X134072380Y-94360952D01*
X134120000Y-94265714D01*
X134215238Y-94170476D01*
X134405714Y-94122857D01*
X134739047Y-94122857D01*
X134929523Y-94170476D01*
X135024761Y-94265714D01*
X135072380Y-94360952D01*
X135072380Y-94551428D01*
X135024761Y-94646666D01*
X134929523Y-94741904D01*
X134739047Y-94789523D01*
X134405714Y-94789523D01*
X134215238Y-94741904D01*
X134120000Y-94646666D01*
X134072380Y-94551428D01*
X134167619Y-93741904D02*
X134120000Y-93694285D01*
X134072380Y-93599047D01*
X134072380Y-93360952D01*
X134120000Y-93265714D01*
X134167619Y-93218095D01*
X134262857Y-93170476D01*
X134358095Y-93170476D01*
X134500952Y-93218095D01*
X135072380Y-93789523D01*
X135072380Y-93170476D01*
X131532380Y-94551428D02*
X131532380Y-94360952D01*
X131580000Y-94265714D01*
X131675238Y-94170476D01*
X131865714Y-94122857D01*
X132199047Y-94122857D01*
X132389523Y-94170476D01*
X132484761Y-94265714D01*
X132532380Y-94360952D01*
X132532380Y-94551428D01*
X132484761Y-94646666D01*
X132389523Y-94741904D01*
X132199047Y-94789523D01*
X131865714Y-94789523D01*
X131675238Y-94741904D01*
X131580000Y-94646666D01*
X131532380Y-94551428D01*
X132532380Y-93170476D02*
X132532380Y-93741904D01*
X132532380Y-93456190D02*
X131532380Y-93456190D01*
X131675238Y-93551428D01*
X131770476Y-93646666D01*
X131818095Y-93741904D01*
X128992380Y-94551428D02*
X128992380Y-94360952D01*
X129040000Y-94265714D01*
X129135238Y-94170476D01*
X129325714Y-94122857D01*
X129659047Y-94122857D01*
X129849523Y-94170476D01*
X129944761Y-94265714D01*
X129992380Y-94360952D01*
X129992380Y-94551428D01*
X129944761Y-94646666D01*
X129849523Y-94741904D01*
X129659047Y-94789523D01*
X129325714Y-94789523D01*
X129135238Y-94741904D01*
X129040000Y-94646666D01*
X128992380Y-94551428D01*
X128992380Y-93503809D02*
X128992380Y-93408571D01*
X129040000Y-93313333D01*
X129087619Y-93265714D01*
X129182857Y-93218095D01*
X129373333Y-93170476D01*
X129611428Y-93170476D01*
X129801904Y-93218095D01*
X129897142Y-93265714D01*
X129944761Y-93313333D01*
X129992380Y-93408571D01*
X129992380Y-93503809D01*
X129944761Y-93599047D01*
X129897142Y-93646666D01*
X129801904Y-93694285D01*
X129611428Y-93741904D01*
X129373333Y-93741904D01*
X129182857Y-93694285D01*
X129087619Y-93646666D01*
X129040000Y-93599047D01*
X128992380Y-93503809D01*
X141692380Y-94551428D02*
X141692380Y-94360952D01*
X141740000Y-94265714D01*
X141835238Y-94170476D01*
X142025714Y-94122857D01*
X142359047Y-94122857D01*
X142549523Y-94170476D01*
X142644761Y-94265714D01*
X142692380Y-94360952D01*
X142692380Y-94551428D01*
X142644761Y-94646666D01*
X142549523Y-94741904D01*
X142359047Y-94789523D01*
X142025714Y-94789523D01*
X141835238Y-94741904D01*
X141740000Y-94646666D01*
X141692380Y-94551428D01*
X141692380Y-93218095D02*
X141692380Y-93694285D01*
X142168571Y-93741904D01*
X142120952Y-93694285D01*
X142073333Y-93599047D01*
X142073333Y-93360952D01*
X142120952Y-93265714D01*
X142168571Y-93218095D01*
X142263809Y-93170476D01*
X142501904Y-93170476D01*
X142597142Y-93218095D01*
X142644761Y-93265714D01*
X142692380Y-93360952D01*
X142692380Y-93599047D01*
X142644761Y-93694285D01*
X142597142Y-93741904D01*
X144232380Y-94551428D02*
X144232380Y-94360952D01*
X144280000Y-94265714D01*
X144375238Y-94170476D01*
X144565714Y-94122857D01*
X144899047Y-94122857D01*
X145089523Y-94170476D01*
X145184761Y-94265714D01*
X145232380Y-94360952D01*
X145232380Y-94551428D01*
X145184761Y-94646666D01*
X145089523Y-94741904D01*
X144899047Y-94789523D01*
X144565714Y-94789523D01*
X144375238Y-94741904D01*
X144280000Y-94646666D01*
X144232380Y-94551428D01*
X144232380Y-93265714D02*
X144232380Y-93456190D01*
X144280000Y-93551428D01*
X144327619Y-93599047D01*
X144470476Y-93694285D01*
X144660952Y-93741904D01*
X145041904Y-93741904D01*
X145137142Y-93694285D01*
X145184761Y-93646666D01*
X145232380Y-93551428D01*
X145232380Y-93360952D01*
X145184761Y-93265714D01*
X145137142Y-93218095D01*
X145041904Y-93170476D01*
X144803809Y-93170476D01*
X144708571Y-93218095D01*
X144660952Y-93265714D01*
X144613333Y-93360952D01*
X144613333Y-93551428D01*
X144660952Y-93646666D01*
X144708571Y-93694285D01*
X144803809Y-93741904D01*
X146772380Y-94551428D02*
X146772380Y-94360952D01*
X146820000Y-94265714D01*
X146915238Y-94170476D01*
X147105714Y-94122857D01*
X147439047Y-94122857D01*
X147629523Y-94170476D01*
X147724761Y-94265714D01*
X147772380Y-94360952D01*
X147772380Y-94551428D01*
X147724761Y-94646666D01*
X147629523Y-94741904D01*
X147439047Y-94789523D01*
X147105714Y-94789523D01*
X146915238Y-94741904D01*
X146820000Y-94646666D01*
X146772380Y-94551428D01*
X146772380Y-93789523D02*
X146772380Y-93122857D01*
X147772380Y-93551428D01*
X159105000Y-95138690D02*
X159105000Y-94138690D01*
X160472380Y-94329166D02*
X159996190Y-94662500D01*
X160472380Y-94900595D02*
X159472380Y-94900595D01*
X159472380Y-94519642D01*
X159520000Y-94424404D01*
X159567619Y-94376785D01*
X159662857Y-94329166D01*
X159805714Y-94329166D01*
X159900952Y-94376785D01*
X159948571Y-94424404D01*
X159996190Y-94519642D01*
X159996190Y-94900595D01*
X159105000Y-94138690D02*
X159105000Y-93233928D01*
X160472380Y-93757738D02*
X160424761Y-93852976D01*
X160377142Y-93900595D01*
X160281904Y-93948214D01*
X159996190Y-93948214D01*
X159900952Y-93900595D01*
X159853333Y-93852976D01*
X159805714Y-93757738D01*
X159805714Y-93614880D01*
X159853333Y-93519642D01*
X159900952Y-93472023D01*
X159996190Y-93424404D01*
X160281904Y-93424404D01*
X160377142Y-93472023D01*
X160424761Y-93519642D01*
X160472380Y-93614880D01*
X160472380Y-93757738D01*
X159105000Y-93233928D02*
X159105000Y-92186309D01*
X159805714Y-93091071D02*
X160472380Y-92900595D01*
X159996190Y-92710119D01*
X160472380Y-92519642D01*
X159805714Y-92329166D01*
X156565000Y-94876785D02*
X156565000Y-93876785D01*
X157837142Y-94067261D02*
X157884761Y-94114880D01*
X157932380Y-94257738D01*
X157932380Y-94352976D01*
X157884761Y-94495833D01*
X157789523Y-94591071D01*
X157694285Y-94638690D01*
X157503809Y-94686309D01*
X157360952Y-94686309D01*
X157170476Y-94638690D01*
X157075238Y-94591071D01*
X156980000Y-94495833D01*
X156932380Y-94352976D01*
X156932380Y-94257738D01*
X156980000Y-94114880D01*
X157027619Y-94067261D01*
X156565000Y-93876785D02*
X156565000Y-92972023D01*
X157932380Y-93495833D02*
X157884761Y-93591071D01*
X157837142Y-93638690D01*
X157741904Y-93686309D01*
X157456190Y-93686309D01*
X157360952Y-93638690D01*
X157313333Y-93591071D01*
X157265714Y-93495833D01*
X157265714Y-93352976D01*
X157313333Y-93257738D01*
X157360952Y-93210119D01*
X157456190Y-93162500D01*
X157741904Y-93162500D01*
X157837142Y-93210119D01*
X157884761Y-93257738D01*
X157932380Y-93352976D01*
X157932380Y-93495833D01*
X156565000Y-92972023D02*
X156565000Y-92448214D01*
X157932380Y-92591071D02*
X157884761Y-92686309D01*
X157789523Y-92733928D01*
X156932380Y-92733928D01*
X154025000Y-94638690D02*
X154025000Y-93638690D01*
X155297142Y-93829166D02*
X155344761Y-93876785D01*
X155392380Y-94019642D01*
X155392380Y-94114880D01*
X155344761Y-94257738D01*
X155249523Y-94352976D01*
X155154285Y-94400595D01*
X154963809Y-94448214D01*
X154820952Y-94448214D01*
X154630476Y-94400595D01*
X154535238Y-94352976D01*
X154440000Y-94257738D01*
X154392380Y-94114880D01*
X154392380Y-94019642D01*
X154440000Y-93876785D01*
X154487619Y-93829166D01*
X154025000Y-93638690D02*
X154025000Y-92686309D01*
X155344761Y-93448214D02*
X155392380Y-93305357D01*
X155392380Y-93067261D01*
X155344761Y-92972023D01*
X155297142Y-92924404D01*
X155201904Y-92876785D01*
X155106666Y-92876785D01*
X155011428Y-92924404D01*
X154963809Y-92972023D01*
X154916190Y-93067261D01*
X154868571Y-93257738D01*
X154820952Y-93352976D01*
X154773333Y-93400595D01*
X154678095Y-93448214D01*
X154582857Y-93448214D01*
X154487619Y-93400595D01*
X154440000Y-93352976D01*
X154392380Y-93257738D01*
X154392380Y-93019642D01*
X154440000Y-92876785D01*
X67882142Y-112561666D02*
X68358333Y-112561666D01*
X67786904Y-112847380D02*
X68120238Y-111847380D01*
X68453571Y-112847380D01*
X69263095Y-112847380D02*
X68786904Y-112847380D01*
X68786904Y-111847380D01*
X69596428Y-111847380D02*
X69596428Y-112656904D01*
X69644047Y-112752142D01*
X69691666Y-112799761D01*
X69786904Y-112847380D01*
X69977380Y-112847380D01*
X70072619Y-112799761D01*
X70120238Y-112752142D01*
X70167857Y-112656904D01*
X70167857Y-111847380D01*
X71405952Y-112847380D02*
X71405952Y-111847380D01*
X71405952Y-112323571D02*
X71977380Y-112323571D01*
X71977380Y-112847380D02*
X71977380Y-111847380D01*
X72453571Y-112847380D02*
X72453571Y-112180714D01*
X72453571Y-111847380D02*
X72405952Y-111895000D01*
X72453571Y-111942619D01*
X72501190Y-111895000D01*
X72453571Y-111847380D01*
X72453571Y-111942619D01*
X73358333Y-112180714D02*
X73358333Y-112990238D01*
X73310714Y-113085476D01*
X73263095Y-113133095D01*
X73167857Y-113180714D01*
X73025000Y-113180714D01*
X72929761Y-113133095D01*
X73358333Y-112799761D02*
X73263095Y-112847380D01*
X73072619Y-112847380D01*
X72977380Y-112799761D01*
X72929761Y-112752142D01*
X72882142Y-112656904D01*
X72882142Y-112371190D01*
X72929761Y-112275952D01*
X72977380Y-112228333D01*
X73072619Y-112180714D01*
X73263095Y-112180714D01*
X73358333Y-112228333D01*
X73834523Y-112847380D02*
X73834523Y-111847380D01*
X74263095Y-112847380D02*
X74263095Y-112323571D01*
X74215476Y-112228333D01*
X74120238Y-112180714D01*
X73977380Y-112180714D01*
X73882142Y-112228333D01*
X73834523Y-112275952D01*
X75501190Y-112847380D02*
X75501190Y-111847380D01*
X75501190Y-112228333D02*
X75596428Y-112180714D01*
X75786904Y-112180714D01*
X75882142Y-112228333D01*
X75929761Y-112275952D01*
X75977380Y-112371190D01*
X75977380Y-112656904D01*
X75929761Y-112752142D01*
X75882142Y-112799761D01*
X75786904Y-112847380D01*
X75596428Y-112847380D01*
X75501190Y-112799761D01*
X76310714Y-112180714D02*
X76548809Y-112847380D01*
X76786904Y-112180714D02*
X76548809Y-112847380D01*
X76453571Y-113085476D01*
X76405952Y-113133095D01*
X76310714Y-113180714D01*
X77025000Y-112180714D02*
X77405952Y-112180714D01*
X77167857Y-111847380D02*
X77167857Y-112704523D01*
X77215476Y-112799761D01*
X77310714Y-112847380D01*
X77405952Y-112847380D01*
X78120238Y-112799761D02*
X78025000Y-112847380D01*
X77834523Y-112847380D01*
X77739285Y-112799761D01*
X77691666Y-112704523D01*
X77691666Y-112323571D01*
X77739285Y-112228333D01*
X77834523Y-112180714D01*
X78025000Y-112180714D01*
X78120238Y-112228333D01*
X78167857Y-112323571D01*
X78167857Y-112418809D01*
X77691666Y-112514047D01*
X100552857Y-112561666D02*
X101029047Y-112561666D01*
X100457619Y-112847380D02*
X100790952Y-111847380D01*
X101124285Y-112847380D01*
X101933809Y-112847380D02*
X101457619Y-112847380D01*
X101457619Y-111847380D01*
X102267142Y-111847380D02*
X102267142Y-112656904D01*
X102314761Y-112752142D01*
X102362380Y-112799761D01*
X102457619Y-112847380D01*
X102648095Y-112847380D01*
X102743333Y-112799761D01*
X102790952Y-112752142D01*
X102838571Y-112656904D01*
X102838571Y-111847380D01*
X104552857Y-112847380D02*
X104076666Y-112847380D01*
X104076666Y-111847380D01*
X105029047Y-112847380D02*
X104933809Y-112799761D01*
X104886190Y-112752142D01*
X104838571Y-112656904D01*
X104838571Y-112371190D01*
X104886190Y-112275952D01*
X104933809Y-112228333D01*
X105029047Y-112180714D01*
X105171904Y-112180714D01*
X105267142Y-112228333D01*
X105314761Y-112275952D01*
X105362380Y-112371190D01*
X105362380Y-112656904D01*
X105314761Y-112752142D01*
X105267142Y-112799761D01*
X105171904Y-112847380D01*
X105029047Y-112847380D01*
X105695714Y-112180714D02*
X105886190Y-112847380D01*
X106076666Y-112371190D01*
X106267142Y-112847380D01*
X106457619Y-112180714D01*
X107600476Y-112847380D02*
X107600476Y-111847380D01*
X107600476Y-112228333D02*
X107695714Y-112180714D01*
X107886190Y-112180714D01*
X107981428Y-112228333D01*
X108029047Y-112275952D01*
X108076666Y-112371190D01*
X108076666Y-112656904D01*
X108029047Y-112752142D01*
X107981428Y-112799761D01*
X107886190Y-112847380D01*
X107695714Y-112847380D01*
X107600476Y-112799761D01*
X108410000Y-112180714D02*
X108648095Y-112847380D01*
X108886190Y-112180714D02*
X108648095Y-112847380D01*
X108552857Y-113085476D01*
X108505238Y-113133095D01*
X108410000Y-113180714D01*
X109124285Y-112180714D02*
X109505238Y-112180714D01*
X109267142Y-111847380D02*
X109267142Y-112704523D01*
X109314761Y-112799761D01*
X109410000Y-112847380D01*
X109505238Y-112847380D01*
X110219523Y-112799761D02*
X110124285Y-112847380D01*
X109933809Y-112847380D01*
X109838571Y-112799761D01*
X109790952Y-112704523D01*
X109790952Y-112323571D01*
X109838571Y-112228333D01*
X109933809Y-112180714D01*
X110124285Y-112180714D01*
X110219523Y-112228333D01*
X110267142Y-112323571D01*
X110267142Y-112418809D01*
X109790952Y-112514047D01*
X67326190Y-100782380D02*
X67326190Y-99782380D01*
X67659523Y-100496666D01*
X67992857Y-99782380D01*
X67992857Y-100782380D01*
X68469047Y-99782380D02*
X68469047Y-100591904D01*
X68516666Y-100687142D01*
X68564285Y-100734761D01*
X68659523Y-100782380D01*
X68850000Y-100782380D01*
X68945238Y-100734761D01*
X68992857Y-100687142D01*
X69040476Y-100591904D01*
X69040476Y-99782380D01*
X69421428Y-99782380D02*
X70088095Y-100782380D01*
X70088095Y-99782380D02*
X69421428Y-100782380D01*
X70421428Y-99877619D02*
X70469047Y-99830000D01*
X70564285Y-99782380D01*
X70802380Y-99782380D01*
X70897619Y-99830000D01*
X70945238Y-99877619D01*
X70992857Y-99972857D01*
X70992857Y-100068095D01*
X70945238Y-100210952D01*
X70373809Y-100782380D01*
X70992857Y-100782380D01*
X71421428Y-100687142D02*
X71469047Y-100734761D01*
X71421428Y-100782380D01*
X71373809Y-100734761D01*
X71421428Y-100687142D01*
X71421428Y-100782380D01*
X71421428Y-100163333D02*
X71469047Y-100210952D01*
X71421428Y-100258571D01*
X71373809Y-100210952D01*
X71421428Y-100163333D01*
X71421428Y-100258571D01*
X72421428Y-100782380D02*
X71850000Y-100782380D01*
X72135714Y-100782380D02*
X72135714Y-99782380D01*
X72040476Y-99925238D01*
X71945238Y-100020476D01*
X71850000Y-100068095D01*
X83177142Y-111260000D02*
X83081904Y-111212380D01*
X82939047Y-111212380D01*
X82796190Y-111260000D01*
X82700952Y-111355238D01*
X82653333Y-111450476D01*
X82605714Y-111640952D01*
X82605714Y-111783809D01*
X82653333Y-111974285D01*
X82700952Y-112069523D01*
X82796190Y-112164761D01*
X82939047Y-112212380D01*
X83034285Y-112212380D01*
X83177142Y-112164761D01*
X83224761Y-112117142D01*
X83224761Y-111783809D01*
X83034285Y-111783809D01*
X83653333Y-111545714D02*
X83653333Y-112212380D01*
X83653333Y-111640952D02*
X83700952Y-111593333D01*
X83796190Y-111545714D01*
X83939047Y-111545714D01*
X84034285Y-111593333D01*
X84081904Y-111688571D01*
X84081904Y-112212380D01*
X84986666Y-112212380D02*
X84986666Y-111212380D01*
X84986666Y-112164761D02*
X84891428Y-112212380D01*
X84700952Y-112212380D01*
X84605714Y-112164761D01*
X84558095Y-112117142D01*
X84510476Y-112021904D01*
X84510476Y-111736190D01*
X84558095Y-111640952D01*
X84605714Y-111593333D01*
X84700952Y-111545714D01*
X84891428Y-111545714D01*
X84986666Y-111593333D01*
X63166666Y-111212380D02*
X63833333Y-111212380D01*
X63404761Y-112212380D01*
X81232380Y-111212380D02*
X81327619Y-111212380D01*
X81422857Y-111260000D01*
X81470476Y-111307619D01*
X81518095Y-111402857D01*
X81565714Y-111593333D01*
X81565714Y-111831428D01*
X81518095Y-112021904D01*
X81470476Y-112117142D01*
X81422857Y-112164761D01*
X81327619Y-112212380D01*
X81232380Y-112212380D01*
X81137142Y-112164761D01*
X81089523Y-112117142D01*
X81041904Y-112021904D01*
X80994285Y-111831428D01*
X80994285Y-111593333D01*
X81041904Y-111402857D01*
X81089523Y-111307619D01*
X81137142Y-111260000D01*
X81232380Y-111212380D01*
X96186666Y-111212380D02*
X96853333Y-111212380D01*
X96424761Y-112212380D01*
X114252380Y-111212380D02*
X114347619Y-111212380D01*
X114442857Y-111260000D01*
X114490476Y-111307619D01*
X114538095Y-111402857D01*
X114585714Y-111593333D01*
X114585714Y-111831428D01*
X114538095Y-112021904D01*
X114490476Y-112117142D01*
X114442857Y-112164761D01*
X114347619Y-112212380D01*
X114252380Y-112212380D01*
X114157142Y-112164761D01*
X114109523Y-112117142D01*
X114061904Y-112021904D01*
X114014285Y-111831428D01*
X114014285Y-111593333D01*
X114061904Y-111402857D01*
X114109523Y-111307619D01*
X114157142Y-111260000D01*
X114252380Y-111212380D01*
X116197142Y-111260000D02*
X116101904Y-111212380D01*
X115959047Y-111212380D01*
X115816190Y-111260000D01*
X115720952Y-111355238D01*
X115673333Y-111450476D01*
X115625714Y-111640952D01*
X115625714Y-111783809D01*
X115673333Y-111974285D01*
X115720952Y-112069523D01*
X115816190Y-112164761D01*
X115959047Y-112212380D01*
X116054285Y-112212380D01*
X116197142Y-112164761D01*
X116244761Y-112117142D01*
X116244761Y-111783809D01*
X116054285Y-111783809D01*
X116673333Y-111545714D02*
X116673333Y-112212380D01*
X116673333Y-111640952D02*
X116720952Y-111593333D01*
X116816190Y-111545714D01*
X116959047Y-111545714D01*
X117054285Y-111593333D01*
X117101904Y-111688571D01*
X117101904Y-112212380D01*
X118006666Y-112212380D02*
X118006666Y-111212380D01*
X118006666Y-112164761D02*
X117911428Y-112212380D01*
X117720952Y-112212380D01*
X117625714Y-112164761D01*
X117578095Y-112117142D01*
X117530476Y-112021904D01*
X117530476Y-111736190D01*
X117578095Y-111640952D01*
X117625714Y-111593333D01*
X117720952Y-111545714D01*
X117911428Y-111545714D01*
X118006666Y-111593333D01*
D10*
X89074761Y-90201666D02*
X91074761Y-88868333D01*
X89074761Y-88868333D02*
X91074761Y-90201666D01*
X90122380Y-71120000D02*
X91074761Y-71120000D01*
X89074761Y-71786666D02*
X90122380Y-71120000D01*
X89074761Y-70453333D01*
D11*
X115506666Y-100685000D02*
X116506666Y-100685000D01*
X116316190Y-102052380D02*
X115982857Y-101576190D01*
X115744761Y-102052380D02*
X115744761Y-101052380D01*
X116125714Y-101052380D01*
X116220952Y-101100000D01*
X116268571Y-101147619D01*
X116316190Y-101242857D01*
X116316190Y-101385714D01*
X116268571Y-101480952D01*
X116220952Y-101528571D01*
X116125714Y-101576190D01*
X115744761Y-101576190D01*
X116506666Y-100685000D02*
X117363809Y-100685000D01*
X117125714Y-102004761D02*
X117030476Y-102052380D01*
X116840000Y-102052380D01*
X116744761Y-102004761D01*
X116697142Y-101909523D01*
X116697142Y-101528571D01*
X116744761Y-101433333D01*
X116840000Y-101385714D01*
X117030476Y-101385714D01*
X117125714Y-101433333D01*
X117173333Y-101528571D01*
X117173333Y-101623809D01*
X116697142Y-101719047D01*
X117363809Y-100685000D02*
X118173333Y-100685000D01*
X117554285Y-102004761D02*
X117649523Y-102052380D01*
X117840000Y-102052380D01*
X117935238Y-102004761D01*
X117982857Y-101909523D01*
X117982857Y-101861904D01*
X117935238Y-101766666D01*
X117840000Y-101719047D01*
X117697142Y-101719047D01*
X117601904Y-101671428D01*
X117554285Y-101576190D01*
X117554285Y-101528571D01*
X117601904Y-101433333D01*
X117697142Y-101385714D01*
X117840000Y-101385714D01*
X117935238Y-101433333D01*
X53935476Y-28392380D02*
X53459285Y-28392380D01*
X53459285Y-27392380D01*
X54697380Y-28392380D02*
X54697380Y-27868571D01*
X54649761Y-27773333D01*
X54554523Y-27725714D01*
X54364047Y-27725714D01*
X54268809Y-27773333D01*
X54697380Y-28344761D02*
X54602142Y-28392380D01*
X54364047Y-28392380D01*
X54268809Y-28344761D01*
X54221190Y-28249523D01*
X54221190Y-28154285D01*
X54268809Y-28059047D01*
X54364047Y-28011428D01*
X54602142Y-28011428D01*
X54697380Y-27963809D01*
X55030714Y-27725714D02*
X55411666Y-27725714D01*
X55173571Y-27392380D02*
X55173571Y-28249523D01*
X55221190Y-28344761D01*
X55316428Y-28392380D01*
X55411666Y-28392380D01*
X56173571Y-28344761D02*
X56078333Y-28392380D01*
X55887857Y-28392380D01*
X55792619Y-28344761D01*
X55745000Y-28297142D01*
X55697380Y-28201904D01*
X55697380Y-27916190D01*
X55745000Y-27820952D01*
X55792619Y-27773333D01*
X55887857Y-27725714D01*
X56078333Y-27725714D01*
X56173571Y-27773333D01*
X56602142Y-28392380D02*
X56602142Y-27392380D01*
X57030714Y-28392380D02*
X57030714Y-27868571D01*
X56983095Y-27773333D01*
X56887857Y-27725714D01*
X56745000Y-27725714D01*
X56649761Y-27773333D01*
X56602142Y-27820952D01*
X79629285Y-17500000D02*
X80629285Y-17500000D01*
X80200714Y-18343571D02*
X80343571Y-18391190D01*
X80391190Y-18438809D01*
X80438809Y-18534047D01*
X80438809Y-18676904D01*
X80391190Y-18772142D01*
X80343571Y-18819761D01*
X80248333Y-18867380D01*
X79867380Y-18867380D01*
X79867380Y-17867380D01*
X80200714Y-17867380D01*
X80295952Y-17915000D01*
X80343571Y-17962619D01*
X80391190Y-18057857D01*
X80391190Y-18153095D01*
X80343571Y-18248333D01*
X80295952Y-18295952D01*
X80200714Y-18343571D01*
X79867380Y-18343571D01*
X80629285Y-17500000D02*
X81534047Y-17500000D01*
X81295952Y-18867380D02*
X81295952Y-18343571D01*
X81248333Y-18248333D01*
X81153095Y-18200714D01*
X80962619Y-18200714D01*
X80867380Y-18248333D01*
X81295952Y-18819761D02*
X81200714Y-18867380D01*
X80962619Y-18867380D01*
X80867380Y-18819761D01*
X80819761Y-18724523D01*
X80819761Y-18629285D01*
X80867380Y-18534047D01*
X80962619Y-18486428D01*
X81200714Y-18486428D01*
X81295952Y-18438809D01*
X81534047Y-17500000D02*
X82438809Y-17500000D01*
X81772142Y-18200714D02*
X81772142Y-18867380D01*
X81772142Y-18295952D02*
X81819761Y-18248333D01*
X81915000Y-18200714D01*
X82057857Y-18200714D01*
X82153095Y-18248333D01*
X82200714Y-18343571D01*
X82200714Y-18867380D01*
X82438809Y-17500000D02*
X83248333Y-17500000D01*
X82676904Y-18867380D02*
X82676904Y-17867380D01*
X82772142Y-18486428D02*
X83057857Y-18867380D01*
X83057857Y-18200714D02*
X82676904Y-18581666D01*
X83248333Y-17500000D02*
X84200714Y-17500000D01*
X83676904Y-17867380D02*
X83772142Y-17867380D01*
X83867380Y-17915000D01*
X83915000Y-17962619D01*
X83962619Y-18057857D01*
X84010238Y-18248333D01*
X84010238Y-18486428D01*
X83962619Y-18676904D01*
X83915000Y-18772142D01*
X83867380Y-18819761D01*
X83772142Y-18867380D01*
X83676904Y-18867380D01*
X83581666Y-18819761D01*
X83534047Y-18772142D01*
X83486428Y-18676904D01*
X83438809Y-18486428D01*
X83438809Y-18248333D01*
X83486428Y-18057857D01*
X83534047Y-17962619D01*
X83581666Y-17915000D01*
X83676904Y-17867380D01*
X35441309Y-30932380D02*
X35441309Y-29932380D01*
X35679404Y-29932380D01*
X35822261Y-29980000D01*
X35917500Y-30075238D01*
X35965119Y-30170476D01*
X36012738Y-30360952D01*
X36012738Y-30503809D01*
X35965119Y-30694285D01*
X35917500Y-30789523D01*
X35822261Y-30884761D01*
X35679404Y-30932380D01*
X35441309Y-30932380D01*
X36393690Y-30884761D02*
X36536547Y-30932380D01*
X36774642Y-30932380D01*
X36869880Y-30884761D01*
X36917500Y-30837142D01*
X36965119Y-30741904D01*
X36965119Y-30646666D01*
X36917500Y-30551428D01*
X36869880Y-30503809D01*
X36774642Y-30456190D01*
X36584166Y-30408571D01*
X36488928Y-30360952D01*
X36441309Y-30313333D01*
X36393690Y-30218095D01*
X36393690Y-30122857D01*
X36441309Y-30027619D01*
X36488928Y-29980000D01*
X36584166Y-29932380D01*
X36822261Y-29932380D01*
X36965119Y-29980000D01*
X37250833Y-29932380D02*
X37822261Y-29932380D01*
X37536547Y-30932380D02*
X37536547Y-29932380D01*
X38441309Y-31265714D02*
X38203214Y-31265714D01*
X38203214Y-29837142D01*
X38441309Y-29837142D01*
X39012738Y-29932380D02*
X39107976Y-29932380D01*
X39203214Y-29980000D01*
X39250833Y-30027619D01*
X39298452Y-30122857D01*
X39346071Y-30313333D01*
X39346071Y-30551428D01*
X39298452Y-30741904D01*
X39250833Y-30837142D01*
X39203214Y-30884761D01*
X39107976Y-30932380D01*
X39012738Y-30932380D01*
X38917500Y-30884761D01*
X38869880Y-30837142D01*
X38822261Y-30741904D01*
X38774642Y-30551428D01*
X38774642Y-30313333D01*
X38822261Y-30122857D01*
X38869880Y-30027619D01*
X38917500Y-29980000D01*
X39012738Y-29932380D01*
X39774642Y-30837142D02*
X39822261Y-30884761D01*
X39774642Y-30932380D01*
X39727023Y-30884761D01*
X39774642Y-30837142D01*
X39774642Y-30932380D01*
X39774642Y-30313333D02*
X39822261Y-30360952D01*
X39774642Y-30408571D01*
X39727023Y-30360952D01*
X39774642Y-30313333D01*
X39774642Y-30408571D01*
X40203214Y-30027619D02*
X40250833Y-29980000D01*
X40346071Y-29932380D01*
X40584166Y-29932380D01*
X40679404Y-29980000D01*
X40727023Y-30027619D01*
X40774642Y-30122857D01*
X40774642Y-30218095D01*
X40727023Y-30360952D01*
X40155595Y-30932380D01*
X40774642Y-30932380D01*
X41107976Y-31265714D02*
X41346071Y-31265714D01*
X41346071Y-29837142D01*
X41107976Y-29837142D01*
X51840000Y-16865000D02*
X52982857Y-16865000D01*
X52078095Y-18232380D02*
X52078095Y-17232380D01*
X52411428Y-17946666D01*
X52744761Y-17232380D01*
X52744761Y-18232380D01*
X52982857Y-16865000D02*
X54030476Y-16865000D01*
X53220952Y-17232380D02*
X53220952Y-18041904D01*
X53268571Y-18137142D01*
X53316190Y-18184761D01*
X53411428Y-18232380D01*
X53601904Y-18232380D01*
X53697142Y-18184761D01*
X53744761Y-18137142D01*
X53792380Y-18041904D01*
X53792380Y-17232380D01*
X54030476Y-16865000D02*
X54840000Y-16865000D01*
X54744761Y-18232380D02*
X54268571Y-18232380D01*
X54268571Y-17232380D01*
D10*
X77136666Y-41862261D02*
X76470000Y-40909880D01*
X75993809Y-41862261D02*
X75993809Y-39862261D01*
X76755714Y-39862261D01*
X76946190Y-39957500D01*
X77041428Y-40052738D01*
X77136666Y-40243214D01*
X77136666Y-40528928D01*
X77041428Y-40719404D01*
X76946190Y-40814642D01*
X76755714Y-40909880D01*
X75993809Y-40909880D01*
X77803333Y-39862261D02*
X79136666Y-39862261D01*
X78279523Y-41862261D01*
X77136666Y-59642261D02*
X76470000Y-58689880D01*
X75993809Y-59642261D02*
X75993809Y-57642261D01*
X76755714Y-57642261D01*
X76946190Y-57737500D01*
X77041428Y-57832738D01*
X77136666Y-58023214D01*
X77136666Y-58308928D01*
X77041428Y-58499404D01*
X76946190Y-58594642D01*
X76755714Y-58689880D01*
X75993809Y-58689880D01*
X78946190Y-57642261D02*
X77993809Y-57642261D01*
X77898571Y-58594642D01*
X77993809Y-58499404D01*
X78184285Y-58404166D01*
X78660476Y-58404166D01*
X78850952Y-58499404D01*
X78946190Y-58594642D01*
X79041428Y-58785119D01*
X79041428Y-59261309D01*
X78946190Y-59451785D01*
X78850952Y-59547023D01*
X78660476Y-59642261D01*
X78184285Y-59642261D01*
X77993809Y-59547023D01*
X77898571Y-59451785D01*
X77136666Y-77422261D02*
X76470000Y-76469880D01*
X75993809Y-77422261D02*
X75993809Y-75422261D01*
X76755714Y-75422261D01*
X76946190Y-75517500D01*
X77041428Y-75612738D01*
X77136666Y-75803214D01*
X77136666Y-76088928D01*
X77041428Y-76279404D01*
X76946190Y-76374642D01*
X76755714Y-76469880D01*
X75993809Y-76469880D01*
X77803333Y-75422261D02*
X79041428Y-75422261D01*
X78374761Y-76184166D01*
X78660476Y-76184166D01*
X78850952Y-76279404D01*
X78946190Y-76374642D01*
X79041428Y-76565119D01*
X79041428Y-77041309D01*
X78946190Y-77231785D01*
X78850952Y-77327023D01*
X78660476Y-77422261D01*
X78089047Y-77422261D01*
X77898571Y-77327023D01*
X77803333Y-77231785D01*
X77136666Y-95202261D02*
X76470000Y-94249880D01*
X75993809Y-95202261D02*
X75993809Y-93202261D01*
X76755714Y-93202261D01*
X76946190Y-93297500D01*
X77041428Y-93392738D01*
X77136666Y-93583214D01*
X77136666Y-93868928D01*
X77041428Y-94059404D01*
X76946190Y-94154642D01*
X76755714Y-94249880D01*
X75993809Y-94249880D01*
X79041428Y-95202261D02*
X77898571Y-95202261D01*
X78470000Y-95202261D02*
X78470000Y-93202261D01*
X78279523Y-93487976D01*
X78089047Y-93678452D01*
X77898571Y-93773690D01*
X150796666Y-41862261D02*
X150130000Y-40909880D01*
X149653809Y-41862261D02*
X149653809Y-39862261D01*
X150415714Y-39862261D01*
X150606190Y-39957500D01*
X150701428Y-40052738D01*
X150796666Y-40243214D01*
X150796666Y-40528928D01*
X150701428Y-40719404D01*
X150606190Y-40814642D01*
X150415714Y-40909880D01*
X149653809Y-40909880D01*
X152510952Y-39862261D02*
X152130000Y-39862261D01*
X151939523Y-39957500D01*
X151844285Y-40052738D01*
X151653809Y-40338452D01*
X151558571Y-40719404D01*
X151558571Y-41481309D01*
X151653809Y-41671785D01*
X151749047Y-41767023D01*
X151939523Y-41862261D01*
X152320476Y-41862261D01*
X152510952Y-41767023D01*
X152606190Y-41671785D01*
X152701428Y-41481309D01*
X152701428Y-41005119D01*
X152606190Y-40814642D01*
X152510952Y-40719404D01*
X152320476Y-40624166D01*
X151939523Y-40624166D01*
X151749047Y-40719404D01*
X151653809Y-40814642D01*
X151558571Y-41005119D01*
X150796666Y-59642261D02*
X150130000Y-58689880D01*
X149653809Y-59642261D02*
X149653809Y-57642261D01*
X150415714Y-57642261D01*
X150606190Y-57737500D01*
X150701428Y-57832738D01*
X150796666Y-58023214D01*
X150796666Y-58308928D01*
X150701428Y-58499404D01*
X150606190Y-58594642D01*
X150415714Y-58689880D01*
X149653809Y-58689880D01*
X152510952Y-58308928D02*
X152510952Y-59642261D01*
X152034761Y-57547023D02*
X151558571Y-58975595D01*
X152796666Y-58975595D01*
X150796666Y-77422261D02*
X150130000Y-76469880D01*
X149653809Y-77422261D02*
X149653809Y-75422261D01*
X150415714Y-75422261D01*
X150606190Y-75517500D01*
X150701428Y-75612738D01*
X150796666Y-75803214D01*
X150796666Y-76088928D01*
X150701428Y-76279404D01*
X150606190Y-76374642D01*
X150415714Y-76469880D01*
X149653809Y-76469880D01*
X151558571Y-75612738D02*
X151653809Y-75517500D01*
X151844285Y-75422261D01*
X152320476Y-75422261D01*
X152510952Y-75517500D01*
X152606190Y-75612738D01*
X152701428Y-75803214D01*
X152701428Y-75993690D01*
X152606190Y-76279404D01*
X151463333Y-77422261D01*
X152701428Y-77422261D01*
X150796666Y-95202261D02*
X150130000Y-94249880D01*
X149653809Y-95202261D02*
X149653809Y-93202261D01*
X150415714Y-93202261D01*
X150606190Y-93297500D01*
X150701428Y-93392738D01*
X150796666Y-93583214D01*
X150796666Y-93868928D01*
X150701428Y-94059404D01*
X150606190Y-94154642D01*
X150415714Y-94249880D01*
X149653809Y-94249880D01*
X152034761Y-93202261D02*
X152225238Y-93202261D01*
X152415714Y-93297500D01*
X152510952Y-93392738D01*
X152606190Y-93583214D01*
X152701428Y-93964166D01*
X152701428Y-94440357D01*
X152606190Y-94821309D01*
X152510952Y-95011785D01*
X152415714Y-95107023D01*
X152225238Y-95202261D01*
X152034761Y-95202261D01*
X151844285Y-95107023D01*
X151749047Y-95011785D01*
X151653809Y-94821309D01*
X151558571Y-94440357D01*
X151558571Y-93964166D01*
X151653809Y-93583214D01*
X151749047Y-93392738D01*
X151844285Y-93297500D01*
X152034761Y-93202261D01*
D12*
X69437380Y-20494761D02*
X69627857Y-20494761D01*
X69818333Y-20590000D01*
X69913571Y-20685238D01*
X70008809Y-20875714D01*
X70104047Y-21256666D01*
X70104047Y-21732857D01*
X70008809Y-22113809D01*
X69913571Y-22304285D01*
X69818333Y-22399523D01*
X69627857Y-22494761D01*
X69437380Y-22494761D01*
X69246904Y-22399523D01*
X69151666Y-22304285D01*
X69056428Y-22113809D01*
X68961190Y-21732857D01*
X68961190Y-21256666D01*
X69056428Y-20875714D01*
X69151666Y-20685238D01*
X69246904Y-20590000D01*
X69437380Y-20494761D01*
X71342142Y-20494761D02*
X71532619Y-20494761D01*
X71723095Y-20590000D01*
X71818333Y-20685238D01*
X71913571Y-20875714D01*
X72008809Y-21256666D01*
X72008809Y-21732857D01*
X71913571Y-22113809D01*
X71818333Y-22304285D01*
X71723095Y-22399523D01*
X71532619Y-22494761D01*
X71342142Y-22494761D01*
X71151666Y-22399523D01*
X71056428Y-22304285D01*
X70961190Y-22113809D01*
X70865952Y-21732857D01*
X70865952Y-21256666D01*
X70961190Y-20875714D01*
X71056428Y-20685238D01*
X71151666Y-20590000D01*
X71342142Y-20494761D01*
X41211666Y-24399761D02*
X40068809Y-24399761D01*
X40640238Y-24399761D02*
X40640238Y-22399761D01*
X40449761Y-22685476D01*
X40259285Y-22875952D01*
X40068809Y-22971190D01*
X41878333Y-22399761D02*
X43116428Y-22399761D01*
X42449761Y-23161666D01*
X42735476Y-23161666D01*
X42925952Y-23256904D01*
X43021190Y-23352142D01*
X43116428Y-23542619D01*
X43116428Y-24018809D01*
X43021190Y-24209285D01*
X42925952Y-24304523D01*
X42735476Y-24399761D01*
X42164047Y-24399761D01*
X41973571Y-24304523D01*
X41878333Y-24209285D01*
X44068809Y-24399761D02*
X44449761Y-24399761D01*
X44640238Y-24304523D01*
X44735476Y-24209285D01*
X44925952Y-23923571D01*
X45021190Y-23542619D01*
X45021190Y-22780714D01*
X44925952Y-22590238D01*
X44830714Y-22495000D01*
X44640238Y-22399761D01*
X44259285Y-22399761D01*
X44068809Y-22495000D01*
X43973571Y-22590238D01*
X43878333Y-22780714D01*
X43878333Y-23256904D01*
X43973571Y-23447380D01*
X44068809Y-23542619D01*
X44259285Y-23637857D01*
X44640238Y-23637857D01*
X44830714Y-23542619D01*
X44925952Y-23447380D01*
X45021190Y-23256904D01*
D11*
X98417142Y-17280000D02*
X98321904Y-17232380D01*
X98179047Y-17232380D01*
X98036190Y-17280000D01*
X97940952Y-17375238D01*
X97893333Y-17470476D01*
X97845714Y-17660952D01*
X97845714Y-17803809D01*
X97893333Y-17994285D01*
X97940952Y-18089523D01*
X98036190Y-18184761D01*
X98179047Y-18232380D01*
X98274285Y-18232380D01*
X98417142Y-18184761D01*
X98464761Y-18137142D01*
X98464761Y-17803809D01*
X98274285Y-17803809D01*
X98893333Y-17565714D02*
X98893333Y-18232380D01*
X98893333Y-17660952D02*
X98940952Y-17613333D01*
X99036190Y-17565714D01*
X99179047Y-17565714D01*
X99274285Y-17613333D01*
X99321904Y-17708571D01*
X99321904Y-18232380D01*
X100226666Y-18232380D02*
X100226666Y-17232380D01*
X100226666Y-18184761D02*
X100131428Y-18232380D01*
X99940952Y-18232380D01*
X99845714Y-18184761D01*
X99798095Y-18137142D01*
X99750476Y-18041904D01*
X99750476Y-17756190D01*
X99798095Y-17660952D01*
X99845714Y-17613333D01*
X99940952Y-17565714D01*
X100131428Y-17565714D01*
X100226666Y-17613333D01*
X113109523Y-17232380D02*
X113442857Y-18232380D01*
X113776190Y-17232380D01*
X114538095Y-18184761D02*
X114442857Y-18232380D01*
X114252380Y-18232380D01*
X114157142Y-18184761D01*
X114109523Y-18137142D01*
X114061904Y-18041904D01*
X114061904Y-17756190D01*
X114109523Y-17660952D01*
X114157142Y-17613333D01*
X114252380Y-17565714D01*
X114442857Y-17565714D01*
X114538095Y-17613333D01*
X115395238Y-18184761D02*
X115300000Y-18232380D01*
X115109523Y-18232380D01*
X115014285Y-18184761D01*
X114966666Y-18137142D01*
X114919047Y-18041904D01*
X114919047Y-17756190D01*
X114966666Y-17660952D01*
X115014285Y-17613333D01*
X115109523Y-17565714D01*
X115300000Y-17565714D01*
X115395238Y-17613333D01*
D13*
X134088928Y-104227142D02*
X133088928Y-102798571D01*
X132374642Y-104227142D02*
X132374642Y-101227142D01*
X133517500Y-101227142D01*
X133803214Y-101370000D01*
X133946071Y-101512857D01*
X134088928Y-101798571D01*
X134088928Y-102227142D01*
X133946071Y-102512857D01*
X133803214Y-102655714D01*
X133517500Y-102798571D01*
X132374642Y-102798571D01*
X135374642Y-102655714D02*
X136374642Y-102655714D01*
X136803214Y-104227142D02*
X135374642Y-104227142D01*
X135374642Y-101227142D01*
X136803214Y-101227142D01*
X139660357Y-101370000D02*
X139374642Y-101227142D01*
X138946071Y-101227142D01*
X138517500Y-101370000D01*
X138231785Y-101655714D01*
X138088928Y-101941428D01*
X137946071Y-102512857D01*
X137946071Y-102941428D01*
X138088928Y-103512857D01*
X138231785Y-103798571D01*
X138517500Y-104084285D01*
X138946071Y-104227142D01*
X139231785Y-104227142D01*
X139660357Y-104084285D01*
X139803214Y-103941428D01*
X139803214Y-102941428D01*
X139231785Y-102941428D01*
X140946071Y-104084285D02*
X141374642Y-104227142D01*
X142088928Y-104227142D01*
X142374642Y-104084285D01*
X142517500Y-103941428D01*
X142660357Y-103655714D01*
X142660357Y-103370000D01*
X142517500Y-103084285D01*
X142374642Y-102941428D01*
X142088928Y-102798571D01*
X141517500Y-102655714D01*
X141231785Y-102512857D01*
X141088928Y-102370000D01*
X140946071Y-102084285D01*
X140946071Y-101798571D01*
X141088928Y-101512857D01*
X141231785Y-101370000D01*
X141517500Y-101227142D01*
X142231785Y-101227142D01*
X142660357Y-101370000D01*
X143660357Y-102227142D02*
X144374642Y-104227142D01*
X145088928Y-102227142D01*
X147517500Y-102227142D02*
X147517500Y-104227142D01*
X146803214Y-101084285D02*
X146088928Y-103227142D01*
X147946071Y-103227142D01*
D10*
X136049285Y-106811071D02*
X137049285Y-106811071D01*
X136406428Y-108311071D01*
X138263571Y-107311071D02*
X138263571Y-108311071D01*
X137906428Y-106739642D02*
X137549285Y-107811071D01*
X138477857Y-107811071D01*
X139049285Y-108311071D02*
X139049285Y-106811071D01*
X139049285Y-107525357D02*
X139906428Y-107525357D01*
X139906428Y-108311071D02*
X139906428Y-106811071D01*
X141477857Y-108168214D02*
X141406428Y-108239642D01*
X141192142Y-108311071D01*
X141049285Y-108311071D01*
X140835000Y-108239642D01*
X140692142Y-108096785D01*
X140620714Y-107953928D01*
X140549285Y-107668214D01*
X140549285Y-107453928D01*
X140620714Y-107168214D01*
X140692142Y-107025357D01*
X140835000Y-106882500D01*
X141049285Y-106811071D01*
X141192142Y-106811071D01*
X141406428Y-106882500D01*
X141477857Y-106953928D01*
X142120714Y-108311071D02*
X142120714Y-106811071D01*
X142692142Y-106811071D01*
X142835000Y-106882500D01*
X142906428Y-106953928D01*
X142977857Y-107096785D01*
X142977857Y-107311071D01*
X142906428Y-107453928D01*
X142835000Y-107525357D01*
X142692142Y-107596785D01*
X142120714Y-107596785D01*
X143620714Y-106811071D02*
X143620714Y-108025357D01*
X143692142Y-108168214D01*
X143763571Y-108239642D01*
X143906428Y-108311071D01*
X144192142Y-108311071D01*
X144335000Y-108239642D01*
X144406428Y-108168214D01*
X144477857Y-108025357D01*
X144477857Y-106811071D01*
D11*
%TO.C,U19*%
X17780000Y-39370000D02*
X17780000Y-33020000D01*
X17780000Y-33020000D02*
X88900000Y-33020000D01*
X88900000Y-33020000D02*
X88900000Y-39370000D01*
X88900000Y-39370000D02*
X17780000Y-39370000D01*
%TO.C,U18*%
X91440000Y-39370000D02*
X91440000Y-33020000D01*
X91440000Y-33020000D02*
X162560000Y-33020000D01*
X162560000Y-33020000D02*
X162560000Y-39370000D01*
X162560000Y-39370000D02*
X91440000Y-39370000D01*
%TO.C,U17*%
X17780000Y-57150000D02*
X17780000Y-50800000D01*
X17780000Y-50800000D02*
X88900000Y-50800000D01*
X88900000Y-50800000D02*
X88900000Y-57150000D01*
X88900000Y-57150000D02*
X17780000Y-57150000D01*
%TO.C,U16*%
X91440000Y-57150000D02*
X91440000Y-50800000D01*
X91440000Y-50800000D02*
X162560000Y-50800000D01*
X162560000Y-50800000D02*
X162560000Y-57150000D01*
X162560000Y-57150000D02*
X91440000Y-57150000D01*
%TO.C,U12*%
X17780000Y-74930000D02*
X17780000Y-68580000D01*
X17780000Y-68580000D02*
X88900000Y-68580000D01*
X88900000Y-68580000D02*
X88900000Y-74930000D01*
X88900000Y-74930000D02*
X17780000Y-74930000D01*
%TO.C,U11*%
X91440000Y-74930000D02*
X91440000Y-68580000D01*
X91440000Y-68580000D02*
X162560000Y-68580000D01*
X162560000Y-68580000D02*
X162560000Y-74930000D01*
X162560000Y-74930000D02*
X91440000Y-74930000D01*
%TO.C,U10*%
X17780000Y-92710000D02*
X17780000Y-86360000D01*
X17780000Y-86360000D02*
X88900000Y-86360000D01*
X88900000Y-86360000D02*
X88900000Y-92710000D01*
X88900000Y-92710000D02*
X17780000Y-92710000D01*
%TO.C,U9*%
X91440000Y-92710000D02*
X91440000Y-86360000D01*
X91440000Y-86360000D02*
X162560000Y-86360000D01*
X162560000Y-86360000D02*
X162560000Y-92710000D01*
X162560000Y-92710000D02*
X91440000Y-92710000D01*
D14*
%TO.C,J20*%
X123130000Y-102810000D02*
X124460000Y-102810000D01*
X123130000Y-104140000D02*
X123130000Y-102810000D01*
X123130000Y-105410000D02*
X125790000Y-105410000D01*
X125790000Y-105410000D02*
X125790000Y-105470000D01*
X123130000Y-105410000D02*
X123130000Y-105470000D01*
X123130000Y-105470000D02*
X125790000Y-105470000D01*
%TO.C,J19*%
X119320000Y-102810000D02*
X120650000Y-102810000D01*
X119320000Y-104140000D02*
X119320000Y-102810000D01*
X119320000Y-105410000D02*
X121980000Y-105410000D01*
X121980000Y-105410000D02*
X121980000Y-105470000D01*
X119320000Y-105410000D02*
X119320000Y-105470000D01*
X119320000Y-105470000D02*
X121980000Y-105470000D01*
%TO.C,J18*%
X85150000Y-107890000D02*
X85150000Y-109220000D01*
X83820000Y-107890000D02*
X85150000Y-107890000D01*
X82550000Y-107890000D02*
X82550000Y-110550000D01*
X82550000Y-110550000D02*
X62170000Y-110550000D01*
X82550000Y-107890000D02*
X62170000Y-107890000D01*
X62170000Y-107890000D02*
X62170000Y-110550000D01*
%TO.C,J17*%
X118170000Y-107890000D02*
X118170000Y-109220000D01*
X116840000Y-107890000D02*
X118170000Y-107890000D01*
X115570000Y-107890000D02*
X115570000Y-110550000D01*
X115570000Y-110550000D02*
X95190000Y-110550000D01*
X115570000Y-107890000D02*
X95190000Y-107890000D01*
X95190000Y-107890000D02*
X95190000Y-110550000D01*
D11*
%TO.C,U15*%
X111760000Y-97790000D02*
X111760000Y-105410000D01*
X111760000Y-105410000D02*
X30480000Y-105410000D01*
X30480000Y-105410000D02*
X30480000Y-97790000D01*
X30480000Y-97790000D02*
X111760000Y-97790000D01*
D14*
%TO.C,J16*%
X112020000Y-15420000D02*
X111520000Y-15420000D01*
X112020000Y-16160000D02*
X112020000Y-15420000D01*
X105447000Y-19297000D02*
X105494000Y-19251000D01*
X103150000Y-21595000D02*
X103185000Y-21559000D01*
X105254000Y-19081000D02*
X105289000Y-19046000D01*
X102945000Y-21389000D02*
X102992000Y-21343000D01*
X101660000Y-25581000D02*
X101660000Y-15660000D01*
X111780000Y-25581000D02*
X111780000Y-15660000D01*
X111780000Y-15660000D02*
X101660000Y-15660000D01*
X111780000Y-25581000D02*
X101660000Y-25581000D01*
X111780000Y-22621000D02*
X101660000Y-22621000D01*
X111780000Y-17720000D02*
X101660000Y-17720000D01*
X111780000Y-16220000D02*
X101660000Y-16220000D01*
X105900000Y-20320000D02*
G75*
G03*
X105900000Y-20320000I-1680000J0D01*
G01*
X109191195Y-18639747D02*
G75*
G02*
X109904000Y-18785000I28805J-1680253D01*
G01*
X110755426Y-19636958D02*
G75*
G02*
X110755000Y-21004000I-1535426J-683042D01*
G01*
X109903042Y-21855426D02*
G75*
G02*
X108536000Y-21855000I-683042J1535426D01*
G01*
X107684574Y-21003042D02*
G75*
G02*
X107685000Y-19636000I1535426J683042D01*
G01*
X108536682Y-18785244D02*
G75*
G02*
X109220000Y-18640000I683318J-1534756D01*
G01*
%TO.C,U14*%
X57030000Y-16450000D02*
X57030000Y-26730000D01*
X75050000Y-16450000D02*
X57030000Y-16450000D01*
X75050000Y-26730000D02*
X75050000Y-16450000D01*
X57030000Y-26730000D02*
X75050000Y-26730000D01*
X57090000Y-18940000D02*
X57090000Y-20590000D01*
X74990000Y-18940000D02*
X57090000Y-18940000D01*
X74990000Y-24240000D02*
X74990000Y-18940000D01*
X57090000Y-24240000D02*
X74990000Y-24240000D01*
X57090000Y-22590000D02*
X57090000Y-24240000D01*
X57090000Y-20590000D02*
G75*
G02*
X57090000Y-22590000I0J-1000000D01*
G01*
%TO.C,U13*%
X27185000Y-18355000D02*
X27185000Y-28635000D01*
X47745000Y-18355000D02*
X27185000Y-18355000D01*
X47745000Y-28635000D02*
X47745000Y-18355000D01*
X27185000Y-28635000D02*
X47745000Y-28635000D01*
X27245000Y-20845000D02*
X27245000Y-22495000D01*
X47685000Y-20845000D02*
X27245000Y-20845000D01*
X47685000Y-26145000D02*
X47685000Y-20845000D01*
X27245000Y-26145000D02*
X47685000Y-26145000D01*
X27245000Y-24495000D02*
X27245000Y-26145000D01*
X27245000Y-22495000D02*
G75*
G02*
X27245000Y-24495000I0J-1000000D01*
G01*
%TO.C,J15*%
X53915000Y-24070000D02*
X55245000Y-24070000D01*
X53915000Y-25400000D02*
X53915000Y-24070000D01*
X53915000Y-26670000D02*
X56575000Y-26670000D01*
X56575000Y-26670000D02*
X56575000Y-26730000D01*
X53915000Y-26670000D02*
X53915000Y-26730000D01*
X53915000Y-26730000D02*
X56575000Y-26730000D01*
%TO.C,J14*%
X76775000Y-17085000D02*
X78105000Y-17085000D01*
X76775000Y-18415000D02*
X76775000Y-17085000D01*
X76775000Y-19685000D02*
X79435000Y-19685000D01*
X79435000Y-19685000D02*
X79435000Y-19745000D01*
X76775000Y-19685000D02*
X76775000Y-19745000D01*
X76775000Y-19745000D02*
X79435000Y-19745000D01*
%TO.C,J13*%
X115510000Y-102810000D02*
X116840000Y-102810000D01*
X115510000Y-104140000D02*
X115510000Y-102810000D01*
X115510000Y-105410000D02*
X118170000Y-105410000D01*
X118170000Y-105410000D02*
X118170000Y-105470000D01*
X115510000Y-105410000D02*
X115510000Y-105470000D01*
X115510000Y-105470000D02*
X118170000Y-105470000D01*
%TO.C,J12*%
X48835000Y-16450000D02*
X50165000Y-16450000D01*
X48835000Y-17780000D02*
X48835000Y-16450000D01*
X48835000Y-19050000D02*
X51495000Y-19050000D01*
X51495000Y-19050000D02*
X51495000Y-19110000D01*
X48835000Y-19050000D02*
X48835000Y-19110000D01*
X48835000Y-19110000D02*
X51495000Y-19110000D01*
%TO.C,J11*%
X27245000Y-31810000D02*
X27245000Y-30480000D01*
X28575000Y-31810000D02*
X27245000Y-31810000D01*
X29845000Y-31810000D02*
X29845000Y-29150000D01*
X29845000Y-29150000D02*
X34985000Y-29150000D01*
X29845000Y-31810000D02*
X34985000Y-31810000D01*
X34985000Y-31810000D02*
X34985000Y-29150000D01*
D11*
%TO.C,U1*%
X162560000Y-99060000D02*
X91440000Y-99060000D01*
X162560000Y-92710000D02*
X162560000Y-99060000D01*
X91440000Y-92710000D02*
X162560000Y-92710000D01*
X91440000Y-99060000D02*
X91440000Y-92710000D01*
%TO.C,U8*%
X88900000Y-45720000D02*
X17780000Y-45720000D01*
X88900000Y-39370000D02*
X88900000Y-45720000D01*
X17780000Y-39370000D02*
X88900000Y-39370000D01*
X17780000Y-45720000D02*
X17780000Y-39370000D01*
%TO.C,U6*%
X88900000Y-63500000D02*
X17780000Y-63500000D01*
X88900000Y-57150000D02*
X88900000Y-63500000D01*
X17780000Y-57150000D02*
X88900000Y-57150000D01*
X17780000Y-63500000D02*
X17780000Y-57150000D01*
%TO.C,U4*%
X88900000Y-81280000D02*
X17780000Y-81280000D01*
X88900000Y-74930000D02*
X88900000Y-81280000D01*
X17780000Y-74930000D02*
X88900000Y-74930000D01*
X17780000Y-81280000D02*
X17780000Y-74930000D01*
%TO.C,U2*%
X88900000Y-99060000D02*
X17780000Y-99060000D01*
X88900000Y-92710000D02*
X88900000Y-99060000D01*
X17780000Y-92710000D02*
X88900000Y-92710000D01*
X17780000Y-99060000D02*
X17780000Y-92710000D01*
%TO.C,U7*%
X162560000Y-45720000D02*
X91440000Y-45720000D01*
X162560000Y-39370000D02*
X162560000Y-45720000D01*
X91440000Y-39370000D02*
X162560000Y-39370000D01*
X91440000Y-45720000D02*
X91440000Y-39370000D01*
%TO.C,U5*%
X162560000Y-63500000D02*
X91440000Y-63500000D01*
X162560000Y-57150000D02*
X162560000Y-63500000D01*
X91440000Y-57150000D02*
X162560000Y-57150000D01*
X91440000Y-63500000D02*
X91440000Y-57150000D01*
%TO.C,U3*%
X162560000Y-81280000D02*
X91440000Y-81280000D01*
X162560000Y-74930000D02*
X162560000Y-81280000D01*
X91440000Y-74930000D02*
X162560000Y-74930000D01*
X91440000Y-81280000D02*
X91440000Y-74930000D01*
%TO.C,U19*%
X16279880Y-37433095D02*
X17089404Y-37433095D01*
X17184642Y-37385476D01*
X17232261Y-37337857D01*
X17279880Y-37242619D01*
X17279880Y-37052142D01*
X17232261Y-36956904D01*
X17184642Y-36909285D01*
X17089404Y-36861666D01*
X16279880Y-36861666D01*
X17279880Y-35861666D02*
X17279880Y-36433095D01*
X17279880Y-36147380D02*
X16279880Y-36147380D01*
X16422738Y-36242619D01*
X16517976Y-36337857D01*
X16565595Y-36433095D01*
X17279880Y-35385476D02*
X17279880Y-35195000D01*
X17232261Y-35099761D01*
X17184642Y-35052142D01*
X17041785Y-34956904D01*
X16851309Y-34909285D01*
X16470357Y-34909285D01*
X16375119Y-34956904D01*
X16327500Y-35004523D01*
X16279880Y-35099761D01*
X16279880Y-35290238D01*
X16327500Y-35385476D01*
X16375119Y-35433095D01*
X16470357Y-35480714D01*
X16708452Y-35480714D01*
X16803690Y-35433095D01*
X16851309Y-35385476D01*
X16898928Y-35290238D01*
X16898928Y-35099761D01*
X16851309Y-35004523D01*
X16803690Y-34956904D01*
X16708452Y-34909285D01*
%TO.C,U18*%
X163282380Y-37433095D02*
X164091904Y-37433095D01*
X164187142Y-37385476D01*
X164234761Y-37337857D01*
X164282380Y-37242619D01*
X164282380Y-37052142D01*
X164234761Y-36956904D01*
X164187142Y-36909285D01*
X164091904Y-36861666D01*
X163282380Y-36861666D01*
X164282380Y-35861666D02*
X164282380Y-36433095D01*
X164282380Y-36147380D02*
X163282380Y-36147380D01*
X163425238Y-36242619D01*
X163520476Y-36337857D01*
X163568095Y-36433095D01*
X163710952Y-35290238D02*
X163663333Y-35385476D01*
X163615714Y-35433095D01*
X163520476Y-35480714D01*
X163472857Y-35480714D01*
X163377619Y-35433095D01*
X163330000Y-35385476D01*
X163282380Y-35290238D01*
X163282380Y-35099761D01*
X163330000Y-35004523D01*
X163377619Y-34956904D01*
X163472857Y-34909285D01*
X163520476Y-34909285D01*
X163615714Y-34956904D01*
X163663333Y-35004523D01*
X163710952Y-35099761D01*
X163710952Y-35290238D01*
X163758571Y-35385476D01*
X163806190Y-35433095D01*
X163901428Y-35480714D01*
X164091904Y-35480714D01*
X164187142Y-35433095D01*
X164234761Y-35385476D01*
X164282380Y-35290238D01*
X164282380Y-35099761D01*
X164234761Y-35004523D01*
X164187142Y-34956904D01*
X164091904Y-34909285D01*
X163901428Y-34909285D01*
X163806190Y-34956904D01*
X163758571Y-35004523D01*
X163710952Y-35099761D01*
%TO.C,U17*%
X16279880Y-55848095D02*
X17089404Y-55848095D01*
X17184642Y-55800476D01*
X17232261Y-55752857D01*
X17279880Y-55657619D01*
X17279880Y-55467142D01*
X17232261Y-55371904D01*
X17184642Y-55324285D01*
X17089404Y-55276666D01*
X16279880Y-55276666D01*
X17279880Y-54276666D02*
X17279880Y-54848095D01*
X17279880Y-54562380D02*
X16279880Y-54562380D01*
X16422738Y-54657619D01*
X16517976Y-54752857D01*
X16565595Y-54848095D01*
X16279880Y-53943333D02*
X16279880Y-53276666D01*
X17279880Y-53705238D01*
%TO.C,U16*%
X163282380Y-54578095D02*
X164091904Y-54578095D01*
X164187142Y-54530476D01*
X164234761Y-54482857D01*
X164282380Y-54387619D01*
X164282380Y-54197142D01*
X164234761Y-54101904D01*
X164187142Y-54054285D01*
X164091904Y-54006666D01*
X163282380Y-54006666D01*
X164282380Y-53006666D02*
X164282380Y-53578095D01*
X164282380Y-53292380D02*
X163282380Y-53292380D01*
X163425238Y-53387619D01*
X163520476Y-53482857D01*
X163568095Y-53578095D01*
X163282380Y-52149523D02*
X163282380Y-52340000D01*
X163330000Y-52435238D01*
X163377619Y-52482857D01*
X163520476Y-52578095D01*
X163710952Y-52625714D01*
X164091904Y-52625714D01*
X164187142Y-52578095D01*
X164234761Y-52530476D01*
X164282380Y-52435238D01*
X164282380Y-52244761D01*
X164234761Y-52149523D01*
X164187142Y-52101904D01*
X164091904Y-52054285D01*
X163853809Y-52054285D01*
X163758571Y-52101904D01*
X163710952Y-52149523D01*
X163663333Y-52244761D01*
X163663333Y-52435238D01*
X163710952Y-52530476D01*
X163758571Y-52578095D01*
X163853809Y-52625714D01*
%TO.C,U12*%
X16279880Y-73628095D02*
X17089404Y-73628095D01*
X17184642Y-73580476D01*
X17232261Y-73532857D01*
X17279880Y-73437619D01*
X17279880Y-73247142D01*
X17232261Y-73151904D01*
X17184642Y-73104285D01*
X17089404Y-73056666D01*
X16279880Y-73056666D01*
X17279880Y-72056666D02*
X17279880Y-72628095D01*
X17279880Y-72342380D02*
X16279880Y-72342380D01*
X16422738Y-72437619D01*
X16517976Y-72532857D01*
X16565595Y-72628095D01*
X16375119Y-71675714D02*
X16327500Y-71628095D01*
X16279880Y-71532857D01*
X16279880Y-71294761D01*
X16327500Y-71199523D01*
X16375119Y-71151904D01*
X16470357Y-71104285D01*
X16565595Y-71104285D01*
X16708452Y-71151904D01*
X17279880Y-71723333D01*
X17279880Y-71104285D01*
%TO.C,U11*%
X163282380Y-72993095D02*
X164091904Y-72993095D01*
X164187142Y-72945476D01*
X164234761Y-72897857D01*
X164282380Y-72802619D01*
X164282380Y-72612142D01*
X164234761Y-72516904D01*
X164187142Y-72469285D01*
X164091904Y-72421666D01*
X163282380Y-72421666D01*
X164282380Y-71421666D02*
X164282380Y-71993095D01*
X164282380Y-71707380D02*
X163282380Y-71707380D01*
X163425238Y-71802619D01*
X163520476Y-71897857D01*
X163568095Y-71993095D01*
X164282380Y-70469285D02*
X164282380Y-71040714D01*
X164282380Y-70755000D02*
X163282380Y-70755000D01*
X163425238Y-70850238D01*
X163520476Y-70945476D01*
X163568095Y-71040714D01*
%TO.C,U10*%
X16279880Y-90773095D02*
X17089404Y-90773095D01*
X17184642Y-90725476D01*
X17232261Y-90677857D01*
X17279880Y-90582619D01*
X17279880Y-90392142D01*
X17232261Y-90296904D01*
X17184642Y-90249285D01*
X17089404Y-90201666D01*
X16279880Y-90201666D01*
X17279880Y-89201666D02*
X17279880Y-89773095D01*
X17279880Y-89487380D02*
X16279880Y-89487380D01*
X16422738Y-89582619D01*
X16517976Y-89677857D01*
X16565595Y-89773095D01*
X16279880Y-88582619D02*
X16279880Y-88487380D01*
X16327500Y-88392142D01*
X16375119Y-88344523D01*
X16470357Y-88296904D01*
X16660833Y-88249285D01*
X16898928Y-88249285D01*
X17089404Y-88296904D01*
X17184642Y-88344523D01*
X17232261Y-88392142D01*
X17279880Y-88487380D01*
X17279880Y-88582619D01*
X17232261Y-88677857D01*
X17184642Y-88725476D01*
X17089404Y-88773095D01*
X16898928Y-88820714D01*
X16660833Y-88820714D01*
X16470357Y-88773095D01*
X16375119Y-88725476D01*
X16327500Y-88677857D01*
X16279880Y-88582619D01*
%TO.C,U9*%
X163282380Y-89661904D02*
X164091904Y-89661904D01*
X164187142Y-89614285D01*
X164234761Y-89566666D01*
X164282380Y-89471428D01*
X164282380Y-89280952D01*
X164234761Y-89185714D01*
X164187142Y-89138095D01*
X164091904Y-89090476D01*
X163282380Y-89090476D01*
X164282380Y-88566666D02*
X164282380Y-88376190D01*
X164234761Y-88280952D01*
X164187142Y-88233333D01*
X164044285Y-88138095D01*
X163853809Y-88090476D01*
X163472857Y-88090476D01*
X163377619Y-88138095D01*
X163330000Y-88185714D01*
X163282380Y-88280952D01*
X163282380Y-88471428D01*
X163330000Y-88566666D01*
X163377619Y-88614285D01*
X163472857Y-88661904D01*
X163710952Y-88661904D01*
X163806190Y-88614285D01*
X163853809Y-88566666D01*
X163901428Y-88471428D01*
X163901428Y-88280952D01*
X163853809Y-88185714D01*
X163806190Y-88138095D01*
X163710952Y-88090476D01*
%TO.C,U15*%
X112426904Y-99782380D02*
X112426904Y-100591904D01*
X112474523Y-100687142D01*
X112522142Y-100734761D01*
X112617380Y-100782380D01*
X112807857Y-100782380D01*
X112903095Y-100734761D01*
X112950714Y-100687142D01*
X112998333Y-100591904D01*
X112998333Y-99782380D01*
X113998333Y-100782380D02*
X113426904Y-100782380D01*
X113712619Y-100782380D02*
X113712619Y-99782380D01*
X113617380Y-99925238D01*
X113522142Y-100020476D01*
X113426904Y-100068095D01*
X114903095Y-99782380D02*
X114426904Y-99782380D01*
X114379285Y-100258571D01*
X114426904Y-100210952D01*
X114522142Y-100163333D01*
X114760238Y-100163333D01*
X114855476Y-100210952D01*
X114903095Y-100258571D01*
X114950714Y-100353809D01*
X114950714Y-100591904D01*
X114903095Y-100687142D01*
X114855476Y-100734761D01*
X114760238Y-100782380D01*
X114522142Y-100782380D01*
X114426904Y-100734761D01*
X114379285Y-100687142D01*
%TO.C,U14*%
X55542380Y-22828095D02*
X56351904Y-22828095D01*
X56447142Y-22780476D01*
X56494761Y-22732857D01*
X56542380Y-22637619D01*
X56542380Y-22447142D01*
X56494761Y-22351904D01*
X56447142Y-22304285D01*
X56351904Y-22256666D01*
X55542380Y-22256666D01*
X56542380Y-21256666D02*
X56542380Y-21828095D01*
X56542380Y-21542380D02*
X55542380Y-21542380D01*
X55685238Y-21637619D01*
X55780476Y-21732857D01*
X55828095Y-21828095D01*
X55875714Y-20399523D02*
X56542380Y-20399523D01*
X55494761Y-20637619D02*
X56209047Y-20875714D01*
X56209047Y-20256666D01*
%TO.C,U13*%
X25697380Y-24733095D02*
X26506904Y-24733095D01*
X26602142Y-24685476D01*
X26649761Y-24637857D01*
X26697380Y-24542619D01*
X26697380Y-24352142D01*
X26649761Y-24256904D01*
X26602142Y-24209285D01*
X26506904Y-24161666D01*
X25697380Y-24161666D01*
X26697380Y-23161666D02*
X26697380Y-23733095D01*
X26697380Y-23447380D02*
X25697380Y-23447380D01*
X25840238Y-23542619D01*
X25935476Y-23637857D01*
X25983095Y-23733095D01*
X25697380Y-22828333D02*
X25697380Y-22209285D01*
X26078333Y-22542619D01*
X26078333Y-22399761D01*
X26125952Y-22304523D01*
X26173571Y-22256904D01*
X26268809Y-22209285D01*
X26506904Y-22209285D01*
X26602142Y-22256904D01*
X26649761Y-22304523D01*
X26697380Y-22399761D01*
X26697380Y-22685476D01*
X26649761Y-22780714D01*
X26602142Y-22828333D01*
%TO.C,U1*%
X163282380Y-96011904D02*
X164091904Y-96011904D01*
X164187142Y-95964285D01*
X164234761Y-95916666D01*
X164282380Y-95821428D01*
X164282380Y-95630952D01*
X164234761Y-95535714D01*
X164187142Y-95488095D01*
X164091904Y-95440476D01*
X163282380Y-95440476D01*
X164282380Y-94440476D02*
X164282380Y-95011904D01*
X164282380Y-94726190D02*
X163282380Y-94726190D01*
X163425238Y-94821428D01*
X163520476Y-94916666D01*
X163568095Y-95011904D01*
%TO.C,U8*%
X16279880Y-43306904D02*
X17089404Y-43306904D01*
X17184642Y-43259285D01*
X17232261Y-43211666D01*
X17279880Y-43116428D01*
X17279880Y-42925952D01*
X17232261Y-42830714D01*
X17184642Y-42783095D01*
X17089404Y-42735476D01*
X16279880Y-42735476D01*
X16708452Y-42116428D02*
X16660833Y-42211666D01*
X16613214Y-42259285D01*
X16517976Y-42306904D01*
X16470357Y-42306904D01*
X16375119Y-42259285D01*
X16327500Y-42211666D01*
X16279880Y-42116428D01*
X16279880Y-41925952D01*
X16327500Y-41830714D01*
X16375119Y-41783095D01*
X16470357Y-41735476D01*
X16517976Y-41735476D01*
X16613214Y-41783095D01*
X16660833Y-41830714D01*
X16708452Y-41925952D01*
X16708452Y-42116428D01*
X16756071Y-42211666D01*
X16803690Y-42259285D01*
X16898928Y-42306904D01*
X17089404Y-42306904D01*
X17184642Y-42259285D01*
X17232261Y-42211666D01*
X17279880Y-42116428D01*
X17279880Y-41925952D01*
X17232261Y-41830714D01*
X17184642Y-41783095D01*
X17089404Y-41735476D01*
X16898928Y-41735476D01*
X16803690Y-41783095D01*
X16756071Y-41830714D01*
X16708452Y-41925952D01*
%TO.C,U6*%
X16279880Y-61086904D02*
X17089404Y-61086904D01*
X17184642Y-61039285D01*
X17232261Y-60991666D01*
X17279880Y-60896428D01*
X17279880Y-60705952D01*
X17232261Y-60610714D01*
X17184642Y-60563095D01*
X17089404Y-60515476D01*
X16279880Y-60515476D01*
X16279880Y-59610714D02*
X16279880Y-59801190D01*
X16327500Y-59896428D01*
X16375119Y-59944047D01*
X16517976Y-60039285D01*
X16708452Y-60086904D01*
X17089404Y-60086904D01*
X17184642Y-60039285D01*
X17232261Y-59991666D01*
X17279880Y-59896428D01*
X17279880Y-59705952D01*
X17232261Y-59610714D01*
X17184642Y-59563095D01*
X17089404Y-59515476D01*
X16851309Y-59515476D01*
X16756071Y-59563095D01*
X16708452Y-59610714D01*
X16660833Y-59705952D01*
X16660833Y-59896428D01*
X16708452Y-59991666D01*
X16756071Y-60039285D01*
X16851309Y-60086904D01*
%TO.C,U4*%
X16279880Y-78866904D02*
X17089404Y-78866904D01*
X17184642Y-78819285D01*
X17232261Y-78771666D01*
X17279880Y-78676428D01*
X17279880Y-78485952D01*
X17232261Y-78390714D01*
X17184642Y-78343095D01*
X17089404Y-78295476D01*
X16279880Y-78295476D01*
X16613214Y-77390714D02*
X17279880Y-77390714D01*
X16232261Y-77628809D02*
X16946547Y-77866904D01*
X16946547Y-77247857D01*
%TO.C,U2*%
X16279880Y-96646904D02*
X17089404Y-96646904D01*
X17184642Y-96599285D01*
X17232261Y-96551666D01*
X17279880Y-96456428D01*
X17279880Y-96265952D01*
X17232261Y-96170714D01*
X17184642Y-96123095D01*
X17089404Y-96075476D01*
X16279880Y-96075476D01*
X16375119Y-95646904D02*
X16327500Y-95599285D01*
X16279880Y-95504047D01*
X16279880Y-95265952D01*
X16327500Y-95170714D01*
X16375119Y-95123095D01*
X16470357Y-95075476D01*
X16565595Y-95075476D01*
X16708452Y-95123095D01*
X17279880Y-95694523D01*
X17279880Y-95075476D01*
%TO.C,U7*%
X163282380Y-43306904D02*
X164091904Y-43306904D01*
X164187142Y-43259285D01*
X164234761Y-43211666D01*
X164282380Y-43116428D01*
X164282380Y-42925952D01*
X164234761Y-42830714D01*
X164187142Y-42783095D01*
X164091904Y-42735476D01*
X163282380Y-42735476D01*
X163282380Y-42354523D02*
X163282380Y-41687857D01*
X164282380Y-42116428D01*
%TO.C,U5*%
X163282380Y-61086904D02*
X164091904Y-61086904D01*
X164187142Y-61039285D01*
X164234761Y-60991666D01*
X164282380Y-60896428D01*
X164282380Y-60705952D01*
X164234761Y-60610714D01*
X164187142Y-60563095D01*
X164091904Y-60515476D01*
X163282380Y-60515476D01*
X163282380Y-59563095D02*
X163282380Y-60039285D01*
X163758571Y-60086904D01*
X163710952Y-60039285D01*
X163663333Y-59944047D01*
X163663333Y-59705952D01*
X163710952Y-59610714D01*
X163758571Y-59563095D01*
X163853809Y-59515476D01*
X164091904Y-59515476D01*
X164187142Y-59563095D01*
X164234761Y-59610714D01*
X164282380Y-59705952D01*
X164282380Y-59944047D01*
X164234761Y-60039285D01*
X164187142Y-60086904D01*
%TO.C,U3*%
X163282380Y-78866904D02*
X164091904Y-78866904D01*
X164187142Y-78819285D01*
X164234761Y-78771666D01*
X164282380Y-78676428D01*
X164282380Y-78485952D01*
X164234761Y-78390714D01*
X164187142Y-78343095D01*
X164091904Y-78295476D01*
X163282380Y-78295476D01*
X163282380Y-77914523D02*
X163282380Y-77295476D01*
X163663333Y-77628809D01*
X163663333Y-77485952D01*
X163710952Y-77390714D01*
X163758571Y-77343095D01*
X163853809Y-77295476D01*
X164091904Y-77295476D01*
X164187142Y-77343095D01*
X164234761Y-77390714D01*
X164282380Y-77485952D01*
X164282380Y-77771666D01*
X164234761Y-77866904D01*
X164187142Y-77914523D01*
%TD*%
M02*
