%TF.GenerationSoftware,KiCad,Pcbnew,(5.1.8)-1*%
%TF.CreationDate,2024-06-20T23:03:59+03:00*%
%TF.ProjectId,Regs-v4,52656773-2d76-4342-9e6b-696361645f70,rev?*%
%TF.SameCoordinates,Original*%
%TF.FileFunction,Paste,Bot*%
%TF.FilePolarity,Positive*%
%FSLAX46Y46*%
G04 Gerber Fmt 4.6, Leading zero omitted, Abs format (unit mm)*
G04 Created by KiCad (PCBNEW (5.1.8)-1) date 2024-06-20 23:03:59*
%MOMM*%
%LPD*%
G01*
G04 APERTURE LIST*
%ADD10R,0.900000X0.800000*%
G04 APERTURE END LIST*
%TO.C,R7*%
G36*
G01*
X83220000Y-18230001D02*
X83220000Y-17329999D01*
G75*
G02*
X83469999Y-17080000I249999J0D01*
G01*
X84170001Y-17080000D01*
G75*
G02*
X84420000Y-17329999I0J-249999D01*
G01*
X84420000Y-18230001D01*
G75*
G02*
X84170001Y-18480000I-249999J0D01*
G01*
X83469999Y-18480000D01*
G75*
G02*
X83220000Y-18230001I0J249999D01*
G01*
G37*
G36*
G01*
X81220000Y-18230001D02*
X81220000Y-17329999D01*
G75*
G02*
X81469999Y-17080000I249999J0D01*
G01*
X82170001Y-17080000D01*
G75*
G02*
X82420000Y-17329999I0J-249999D01*
G01*
X82420000Y-18230001D01*
G75*
G02*
X82170001Y-18480000I-249999J0D01*
G01*
X81469999Y-18480000D01*
G75*
G02*
X81220000Y-18230001I0J249999D01*
G01*
G37*
%TD*%
D10*
%TO.C,Q1*%
X112347500Y-19367500D03*
X114347500Y-20317500D03*
X114347500Y-18417500D03*
%TD*%
%TO.C,C4*%
G36*
G01*
X57945000Y-21405000D02*
X58895000Y-21405000D01*
G75*
G02*
X59145000Y-21655000I0J-250000D01*
G01*
X59145000Y-22330000D01*
G75*
G02*
X58895000Y-22580000I-250000J0D01*
G01*
X57945000Y-22580000D01*
G75*
G02*
X57695000Y-22330000I0J250000D01*
G01*
X57695000Y-21655000D01*
G75*
G02*
X57945000Y-21405000I250000J0D01*
G01*
G37*
G36*
G01*
X57945000Y-19330000D02*
X58895000Y-19330000D01*
G75*
G02*
X59145000Y-19580000I0J-250000D01*
G01*
X59145000Y-20255000D01*
G75*
G02*
X58895000Y-20505000I-250000J0D01*
G01*
X57945000Y-20505000D01*
G75*
G02*
X57695000Y-20255000I0J250000D01*
G01*
X57695000Y-19580000D01*
G75*
G02*
X57945000Y-19330000I250000J0D01*
G01*
G37*
%TD*%
%TO.C,C3*%
G36*
G01*
X28100000Y-23310000D02*
X29050000Y-23310000D01*
G75*
G02*
X29300000Y-23560000I0J-250000D01*
G01*
X29300000Y-24235000D01*
G75*
G02*
X29050000Y-24485000I-250000J0D01*
G01*
X28100000Y-24485000D01*
G75*
G02*
X27850000Y-24235000I0J250000D01*
G01*
X27850000Y-23560000D01*
G75*
G02*
X28100000Y-23310000I250000J0D01*
G01*
G37*
G36*
G01*
X28100000Y-21235000D02*
X29050000Y-21235000D01*
G75*
G02*
X29300000Y-21485000I0J-250000D01*
G01*
X29300000Y-22160000D01*
G75*
G02*
X29050000Y-22410000I-250000J0D01*
G01*
X28100000Y-22410000D01*
G75*
G02*
X27850000Y-22160000I0J250000D01*
G01*
X27850000Y-21485000D01*
G75*
G02*
X28100000Y-21235000I250000J0D01*
G01*
G37*
%TD*%
%TO.C,C2*%
G36*
G01*
X49080000Y-40165000D02*
X49080000Y-41115000D01*
G75*
G02*
X48830000Y-41365000I-250000J0D01*
G01*
X48155000Y-41365000D01*
G75*
G02*
X47905000Y-41115000I0J250000D01*
G01*
X47905000Y-40165000D01*
G75*
G02*
X48155000Y-39915000I250000J0D01*
G01*
X48830000Y-39915000D01*
G75*
G02*
X49080000Y-40165000I0J-250000D01*
G01*
G37*
G36*
G01*
X51155000Y-40165000D02*
X51155000Y-41115000D01*
G75*
G02*
X50905000Y-41365000I-250000J0D01*
G01*
X50230000Y-41365000D01*
G75*
G02*
X49980000Y-41115000I0J250000D01*
G01*
X49980000Y-40165000D01*
G75*
G02*
X50230000Y-39915000I250000J0D01*
G01*
X50905000Y-39915000D01*
G75*
G02*
X51155000Y-40165000I0J-250000D01*
G01*
G37*
%TD*%
%TO.C,C1*%
G36*
G01*
X122740000Y-28735000D02*
X122740000Y-29685000D01*
G75*
G02*
X122490000Y-29935000I-250000J0D01*
G01*
X121815000Y-29935000D01*
G75*
G02*
X121565000Y-29685000I0J250000D01*
G01*
X121565000Y-28735000D01*
G75*
G02*
X121815000Y-28485000I250000J0D01*
G01*
X122490000Y-28485000D01*
G75*
G02*
X122740000Y-28735000I0J-250000D01*
G01*
G37*
G36*
G01*
X124815000Y-28735000D02*
X124815000Y-29685000D01*
G75*
G02*
X124565000Y-29935000I-250000J0D01*
G01*
X123890000Y-29935000D01*
G75*
G02*
X123640000Y-29685000I0J250000D01*
G01*
X123640000Y-28735000D01*
G75*
G02*
X123890000Y-28485000I250000J0D01*
G01*
X124565000Y-28485000D01*
G75*
G02*
X124815000Y-28735000I0J-250000D01*
G01*
G37*
%TD*%
%TO.C,R6*%
G36*
G01*
X121050000Y-100145001D02*
X121050000Y-99244999D01*
G75*
G02*
X121299999Y-98995000I249999J0D01*
G01*
X122000001Y-98995000D01*
G75*
G02*
X122250000Y-99244999I0J-249999D01*
G01*
X122250000Y-100145001D01*
G75*
G02*
X122000001Y-100395000I-249999J0D01*
G01*
X121299999Y-100395000D01*
G75*
G02*
X121050000Y-100145001I0J249999D01*
G01*
G37*
G36*
G01*
X119050000Y-100145001D02*
X119050000Y-99244999D01*
G75*
G02*
X119299999Y-98995000I249999J0D01*
G01*
X120000001Y-98995000D01*
G75*
G02*
X120250000Y-99244999I0J-249999D01*
G01*
X120250000Y-100145001D01*
G75*
G02*
X120000001Y-100395000I-249999J0D01*
G01*
X119299999Y-100395000D01*
G75*
G02*
X119050000Y-100145001I0J249999D01*
G01*
G37*
%TD*%
%TO.C,R5*%
G36*
G01*
X35744999Y-23260000D02*
X36645001Y-23260000D01*
G75*
G02*
X36895000Y-23509999I0J-249999D01*
G01*
X36895000Y-24210001D01*
G75*
G02*
X36645001Y-24460000I-249999J0D01*
G01*
X35744999Y-24460000D01*
G75*
G02*
X35495000Y-24210001I0J249999D01*
G01*
X35495000Y-23509999D01*
G75*
G02*
X35744999Y-23260000I249999J0D01*
G01*
G37*
G36*
G01*
X35744999Y-21260000D02*
X36645001Y-21260000D01*
G75*
G02*
X36895000Y-21509999I0J-249999D01*
G01*
X36895000Y-22210001D01*
G75*
G02*
X36645001Y-22460000I-249999J0D01*
G01*
X35744999Y-22460000D01*
G75*
G02*
X35495000Y-22210001I0J249999D01*
G01*
X35495000Y-21509999D01*
G75*
G02*
X35744999Y-21260000I249999J0D01*
G01*
G37*
%TD*%
M02*
