%TF.GenerationSoftware,KiCad,Pcbnew,(5.1.9)-1*%
%TF.CreationDate,2023-01-12T13:49:32+03:00*%
%TF.ProjectId,STACK1,53544143-4b31-42e6-9b69-6361645f7063,rev?*%
%TF.SameCoordinates,Original*%
%TF.FileFunction,Legend,Top*%
%TF.FilePolarity,Positive*%
%FSLAX46Y46*%
G04 Gerber Fmt 4.6, Leading zero omitted, Abs format (unit mm)*
G04 Created by KiCad (PCBNEW (5.1.9)-1) date 2023-01-12 13:49:32*
%MOMM*%
%LPD*%
G01*
G04 APERTURE LIST*
%ADD10C,0.250000*%
%ADD11C,0.150000*%
%ADD12C,0.120000*%
G04 APERTURE END LIST*
D10*
X59864761Y-39528571D02*
X59864761Y-40480952D01*
X60817142Y-40576190D01*
X60721904Y-40480952D01*
X60626666Y-40290476D01*
X60626666Y-39814285D01*
X60721904Y-39623809D01*
X60817142Y-39528571D01*
X61007619Y-39433333D01*
X61483809Y-39433333D01*
X61674285Y-39528571D01*
X61769523Y-39623809D01*
X61864761Y-39814285D01*
X61864761Y-40290476D01*
X61769523Y-40480952D01*
X61674285Y-40576190D01*
X59864761Y-38766666D02*
X59864761Y-37433333D01*
X61864761Y-38290476D01*
X60531428Y-35814285D02*
X61864761Y-35814285D01*
X59769523Y-36290476D02*
X61198095Y-36766666D01*
X61198095Y-35528571D01*
D11*
X68881666Y-47712380D02*
X69548333Y-47712380D01*
X69119761Y-48712380D01*
X52371666Y-45172380D02*
X53038333Y-45172380D01*
X52609761Y-46172380D01*
X69167380Y-29932380D02*
X69262619Y-29932380D01*
X69357857Y-29980000D01*
X69405476Y-30027619D01*
X69453095Y-30122857D01*
X69500714Y-30313333D01*
X69500714Y-30551428D01*
X69453095Y-30741904D01*
X69405476Y-30837142D01*
X69357857Y-30884761D01*
X69262619Y-30932380D01*
X69167380Y-30932380D01*
X69072142Y-30884761D01*
X69024523Y-30837142D01*
X68976904Y-30741904D01*
X68929285Y-30551428D01*
X68929285Y-30313333D01*
X68976904Y-30122857D01*
X69024523Y-30027619D01*
X69072142Y-29980000D01*
X69167380Y-29932380D01*
X52657380Y-27392380D02*
X52752619Y-27392380D01*
X52847857Y-27440000D01*
X52895476Y-27487619D01*
X52943095Y-27582857D01*
X52990714Y-27773333D01*
X52990714Y-28011428D01*
X52943095Y-28201904D01*
X52895476Y-28297142D01*
X52847857Y-28344761D01*
X52752619Y-28392380D01*
X52657380Y-28392380D01*
X52562142Y-28344761D01*
X52514523Y-28297142D01*
X52466904Y-28201904D01*
X52419285Y-28011428D01*
X52419285Y-27773333D01*
X52466904Y-27582857D01*
X52514523Y-27487619D01*
X52562142Y-27440000D01*
X52657380Y-27392380D01*
X69032380Y-41195238D02*
X68032380Y-41195238D01*
X68032380Y-40957142D01*
X68080000Y-40814285D01*
X68175238Y-40719047D01*
X68270476Y-40671428D01*
X68460952Y-40623809D01*
X68603809Y-40623809D01*
X68794285Y-40671428D01*
X68889523Y-40719047D01*
X68984761Y-40814285D01*
X69032380Y-40957142D01*
X69032380Y-41195238D01*
X69032380Y-39766666D02*
X68508571Y-39766666D01*
X68413333Y-39814285D01*
X68365714Y-39909523D01*
X68365714Y-40100000D01*
X68413333Y-40195238D01*
X68984761Y-39766666D02*
X69032380Y-39861904D01*
X69032380Y-40100000D01*
X68984761Y-40195238D01*
X68889523Y-40242857D01*
X68794285Y-40242857D01*
X68699047Y-40195238D01*
X68651428Y-40100000D01*
X68651428Y-39861904D01*
X68603809Y-39766666D01*
X68365714Y-39433333D02*
X68365714Y-39052380D01*
X68032380Y-39290476D02*
X68889523Y-39290476D01*
X68984761Y-39242857D01*
X69032380Y-39147619D01*
X69032380Y-39052380D01*
X69032380Y-38290476D02*
X68508571Y-38290476D01*
X68413333Y-38338095D01*
X68365714Y-38433333D01*
X68365714Y-38623809D01*
X68413333Y-38719047D01*
X68984761Y-38290476D02*
X69032380Y-38385714D01*
X69032380Y-38623809D01*
X68984761Y-38719047D01*
X68889523Y-38766666D01*
X68794285Y-38766666D01*
X68699047Y-38719047D01*
X68651428Y-38623809D01*
X68651428Y-38385714D01*
X68603809Y-38290476D01*
X68032380Y-36861904D02*
X68032380Y-36671428D01*
X68080000Y-36576190D01*
X68175238Y-36480952D01*
X68365714Y-36433333D01*
X68699047Y-36433333D01*
X68889523Y-36480952D01*
X68984761Y-36576190D01*
X69032380Y-36671428D01*
X69032380Y-36861904D01*
X68984761Y-36957142D01*
X68889523Y-37052380D01*
X68699047Y-37100000D01*
X68365714Y-37100000D01*
X68175238Y-37052380D01*
X68080000Y-36957142D01*
X68032380Y-36861904D01*
X68365714Y-35576190D02*
X69032380Y-35576190D01*
X68365714Y-36004761D02*
X68889523Y-36004761D01*
X68984761Y-35957142D01*
X69032380Y-35861904D01*
X69032380Y-35719047D01*
X68984761Y-35623809D01*
X68937142Y-35576190D01*
X68365714Y-35242857D02*
X68365714Y-34861904D01*
X68032380Y-35100000D02*
X68889523Y-35100000D01*
X68984761Y-35052380D01*
X69032380Y-34957142D01*
X69032380Y-34861904D01*
X53792380Y-40623809D02*
X52792380Y-40623809D01*
X52792380Y-40385714D01*
X52840000Y-40242857D01*
X52935238Y-40147619D01*
X53030476Y-40100000D01*
X53220952Y-40052380D01*
X53363809Y-40052380D01*
X53554285Y-40100000D01*
X53649523Y-40147619D01*
X53744761Y-40242857D01*
X53792380Y-40385714D01*
X53792380Y-40623809D01*
X53792380Y-39195238D02*
X53268571Y-39195238D01*
X53173333Y-39242857D01*
X53125714Y-39338095D01*
X53125714Y-39528571D01*
X53173333Y-39623809D01*
X53744761Y-39195238D02*
X53792380Y-39290476D01*
X53792380Y-39528571D01*
X53744761Y-39623809D01*
X53649523Y-39671428D01*
X53554285Y-39671428D01*
X53459047Y-39623809D01*
X53411428Y-39528571D01*
X53411428Y-39290476D01*
X53363809Y-39195238D01*
X53125714Y-38861904D02*
X53125714Y-38480952D01*
X52792380Y-38719047D02*
X53649523Y-38719047D01*
X53744761Y-38671428D01*
X53792380Y-38576190D01*
X53792380Y-38480952D01*
X53792380Y-37719047D02*
X53268571Y-37719047D01*
X53173333Y-37766666D01*
X53125714Y-37861904D01*
X53125714Y-38052380D01*
X53173333Y-38147619D01*
X53744761Y-37719047D02*
X53792380Y-37814285D01*
X53792380Y-38052380D01*
X53744761Y-38147619D01*
X53649523Y-38195238D01*
X53554285Y-38195238D01*
X53459047Y-38147619D01*
X53411428Y-38052380D01*
X53411428Y-37814285D01*
X53363809Y-37719047D01*
X53792380Y-36480952D02*
X52792380Y-36480952D01*
X53125714Y-36004761D02*
X53792380Y-36004761D01*
X53220952Y-36004761D02*
X53173333Y-35957142D01*
X53125714Y-35861904D01*
X53125714Y-35719047D01*
X53173333Y-35623809D01*
X53268571Y-35576190D01*
X53792380Y-35576190D01*
X67389523Y-27392380D02*
X67722857Y-28392380D01*
X68056190Y-27392380D01*
X68818095Y-28344761D02*
X68722857Y-28392380D01*
X68532380Y-28392380D01*
X68437142Y-28344761D01*
X68389523Y-28297142D01*
X68341904Y-28201904D01*
X68341904Y-27916190D01*
X68389523Y-27820952D01*
X68437142Y-27773333D01*
X68532380Y-27725714D01*
X68722857Y-27725714D01*
X68818095Y-27773333D01*
X69675238Y-28344761D02*
X69580000Y-28392380D01*
X69389523Y-28392380D01*
X69294285Y-28344761D01*
X69246666Y-28297142D01*
X69199047Y-28201904D01*
X69199047Y-27916190D01*
X69246666Y-27820952D01*
X69294285Y-27773333D01*
X69389523Y-27725714D01*
X69580000Y-27725714D01*
X69675238Y-27773333D01*
X52697142Y-47760000D02*
X52601904Y-47712380D01*
X52459047Y-47712380D01*
X52316190Y-47760000D01*
X52220952Y-47855238D01*
X52173333Y-47950476D01*
X52125714Y-48140952D01*
X52125714Y-48283809D01*
X52173333Y-48474285D01*
X52220952Y-48569523D01*
X52316190Y-48664761D01*
X52459047Y-48712380D01*
X52554285Y-48712380D01*
X52697142Y-48664761D01*
X52744761Y-48617142D01*
X52744761Y-48283809D01*
X52554285Y-48283809D01*
X53173333Y-48045714D02*
X53173333Y-48712380D01*
X53173333Y-48140952D02*
X53220952Y-48093333D01*
X53316190Y-48045714D01*
X53459047Y-48045714D01*
X53554285Y-48093333D01*
X53601904Y-48188571D01*
X53601904Y-48712380D01*
X54506666Y-48712380D02*
X54506666Y-47712380D01*
X54506666Y-48664761D02*
X54411428Y-48712380D01*
X54220952Y-48712380D01*
X54125714Y-48664761D01*
X54078095Y-48617142D01*
X54030476Y-48521904D01*
X54030476Y-48236190D01*
X54078095Y-48140952D01*
X54125714Y-48093333D01*
X54220952Y-48045714D01*
X54411428Y-48045714D01*
X54506666Y-48093333D01*
X63309523Y-48617142D02*
X63261904Y-48664761D01*
X63119047Y-48712380D01*
X63023809Y-48712380D01*
X62880952Y-48664761D01*
X62785714Y-48569523D01*
X62738095Y-48474285D01*
X62690476Y-48283809D01*
X62690476Y-48140952D01*
X62738095Y-47950476D01*
X62785714Y-47855238D01*
X62880952Y-47760000D01*
X63023809Y-47712380D01*
X63119047Y-47712380D01*
X63261904Y-47760000D01*
X63309523Y-47807619D01*
X63738095Y-48712380D02*
X63738095Y-47712380D01*
X64119047Y-47712380D01*
X64214285Y-47760000D01*
X64261904Y-47807619D01*
X64309523Y-47902857D01*
X64309523Y-48045714D01*
X64261904Y-48140952D01*
X64214285Y-48188571D01*
X64119047Y-48236190D01*
X63738095Y-48236190D01*
X57443809Y-27025000D02*
X58491428Y-27025000D01*
X57872380Y-27392380D02*
X58062857Y-27392380D01*
X58158095Y-27440000D01*
X58253333Y-27535238D01*
X58300952Y-27725714D01*
X58300952Y-28059047D01*
X58253333Y-28249523D01*
X58158095Y-28344761D01*
X58062857Y-28392380D01*
X57872380Y-28392380D01*
X57777142Y-28344761D01*
X57681904Y-28249523D01*
X57634285Y-28059047D01*
X57634285Y-27725714D01*
X57681904Y-27535238D01*
X57777142Y-27440000D01*
X57872380Y-27392380D01*
X58491428Y-27025000D02*
X59396190Y-27025000D01*
X58729523Y-27868571D02*
X59062857Y-27868571D01*
X59205714Y-28392380D02*
X58729523Y-28392380D01*
X58729523Y-27392380D01*
X59205714Y-27392380D01*
D12*
%TO.C,R9*%
X62272936Y-28040000D02*
X62727064Y-28040000D01*
X62272936Y-26570000D02*
X62727064Y-26570000D01*
%TO.C,J4*%
X54550000Y-26500000D02*
X57210000Y-26500000D01*
X57210000Y-26500000D02*
X57210000Y-23840000D01*
X57210000Y-23840000D02*
X54550000Y-23840000D01*
X54550000Y-23840000D02*
X54550000Y-26500000D01*
X55500000Y-23840000D02*
X55500000Y-17840000D01*
X55500000Y-17840000D02*
X56260000Y-17840000D01*
X56260000Y-17840000D02*
X56260000Y-23840000D01*
X55560000Y-23840000D02*
X55560000Y-17840000D01*
X55680000Y-23840000D02*
X55680000Y-17840000D01*
X55800000Y-23840000D02*
X55800000Y-17840000D01*
X55920000Y-23840000D02*
X55920000Y-17840000D01*
X56040000Y-23840000D02*
X56040000Y-17840000D01*
X56160000Y-23840000D02*
X56160000Y-17840000D01*
X55500000Y-26830000D02*
X55500000Y-26500000D01*
X56260000Y-26830000D02*
X56260000Y-26500000D01*
X55880000Y-29210000D02*
X54610000Y-29210000D01*
X54610000Y-29210000D02*
X54610000Y-27940000D01*
%TO.C,J3*%
X67370000Y-49700000D02*
X64710000Y-49700000D01*
X64710000Y-49700000D02*
X64710000Y-52360000D01*
X64710000Y-52360000D02*
X67370000Y-52360000D01*
X67370000Y-52360000D02*
X67370000Y-49700000D01*
X66420000Y-52360000D02*
X66420000Y-58360000D01*
X66420000Y-58360000D02*
X65660000Y-58360000D01*
X65660000Y-58360000D02*
X65660000Y-52360000D01*
X66360000Y-52360000D02*
X66360000Y-58360000D01*
X66240000Y-52360000D02*
X66240000Y-58360000D01*
X66120000Y-52360000D02*
X66120000Y-58360000D01*
X66000000Y-52360000D02*
X66000000Y-58360000D01*
X65880000Y-52360000D02*
X65880000Y-58360000D01*
X65760000Y-52360000D02*
X65760000Y-58360000D01*
X66420000Y-49370000D02*
X66420000Y-49700000D01*
X65660000Y-49370000D02*
X65660000Y-49700000D01*
X66040000Y-46990000D02*
X67310000Y-46990000D01*
X67310000Y-46990000D02*
X67310000Y-48260000D01*
%TO.C,C1*%
X62723752Y-30580000D02*
X62201248Y-30580000D01*
X62723752Y-29110000D02*
X62201248Y-29110000D01*
%TO.C,D1*%
X79010000Y-31440000D02*
X81870000Y-31440000D01*
X81870000Y-31440000D02*
X81870000Y-29520000D01*
X81870000Y-29520000D02*
X79010000Y-29520000D01*
%TO.C,D2*%
X79010000Y-33980000D02*
X81870000Y-33980000D01*
X81870000Y-33980000D02*
X81870000Y-32060000D01*
X81870000Y-32060000D02*
X79010000Y-32060000D01*
%TO.C,D3*%
X81870000Y-34600000D02*
X79010000Y-34600000D01*
X81870000Y-36520000D02*
X81870000Y-34600000D01*
X79010000Y-36520000D02*
X81870000Y-36520000D01*
%TO.C,D4*%
X79010000Y-39060000D02*
X81870000Y-39060000D01*
X81870000Y-39060000D02*
X81870000Y-37140000D01*
X81870000Y-37140000D02*
X79010000Y-37140000D01*
%TO.C,D5*%
X81870000Y-39680000D02*
X79010000Y-39680000D01*
X81870000Y-41600000D02*
X81870000Y-39680000D01*
X79010000Y-41600000D02*
X81870000Y-41600000D01*
%TO.C,D6*%
X81870000Y-42220000D02*
X79010000Y-42220000D01*
X81870000Y-44140000D02*
X81870000Y-42220000D01*
X79010000Y-44140000D02*
X81870000Y-44140000D01*
%TO.C,D7*%
X81870000Y-44760000D02*
X79010000Y-44760000D01*
X81870000Y-46680000D02*
X81870000Y-44760000D01*
X79010000Y-46680000D02*
X81870000Y-46680000D01*
%TO.C,D8*%
X79010000Y-49220000D02*
X81870000Y-49220000D01*
X81870000Y-49220000D02*
X81870000Y-47300000D01*
X81870000Y-47300000D02*
X79010000Y-47300000D01*
%TO.C,R1*%
X75427064Y-31215000D02*
X74972936Y-31215000D01*
X75427064Y-29745000D02*
X74972936Y-29745000D01*
%TO.C,R2*%
X75522064Y-33755000D02*
X75067936Y-33755000D01*
X75522064Y-32285000D02*
X75067936Y-32285000D01*
%TO.C,R3*%
X75522064Y-34825000D02*
X75067936Y-34825000D01*
X75522064Y-36295000D02*
X75067936Y-36295000D01*
%TO.C,R4*%
X75522064Y-37365000D02*
X75067936Y-37365000D01*
X75522064Y-38835000D02*
X75067936Y-38835000D01*
%TO.C,R5*%
X75427064Y-41375000D02*
X74972936Y-41375000D01*
X75427064Y-39905000D02*
X74972936Y-39905000D01*
%TO.C,R6*%
X75427064Y-42445000D02*
X74972936Y-42445000D01*
X75427064Y-43915000D02*
X74972936Y-43915000D01*
%TO.C,R7*%
X75427064Y-44985000D02*
X74972936Y-44985000D01*
X75427064Y-46455000D02*
X74972936Y-46455000D01*
%TO.C,R8*%
X75427064Y-48995000D02*
X74972936Y-48995000D01*
X75427064Y-47525000D02*
X74972936Y-47525000D01*
%TO.C,U1*%
X57960000Y-44630000D02*
X63960000Y-44630000D01*
X55960000Y-31570000D02*
X60960000Y-31570000D01*
%TO.C,R9*%
D11*
X65238333Y-27757380D02*
X64905000Y-27281190D01*
X64666904Y-27757380D02*
X64666904Y-26757380D01*
X65047857Y-26757380D01*
X65143095Y-26805000D01*
X65190714Y-26852619D01*
X65238333Y-26947857D01*
X65238333Y-27090714D01*
X65190714Y-27185952D01*
X65143095Y-27233571D01*
X65047857Y-27281190D01*
X64666904Y-27281190D01*
X65714523Y-27757380D02*
X65905000Y-27757380D01*
X66000238Y-27709761D01*
X66047857Y-27662142D01*
X66143095Y-27519285D01*
X66190714Y-27328809D01*
X66190714Y-26947857D01*
X66143095Y-26852619D01*
X66095476Y-26805000D01*
X66000238Y-26757380D01*
X65809761Y-26757380D01*
X65714523Y-26805000D01*
X65666904Y-26852619D01*
X65619285Y-26947857D01*
X65619285Y-27185952D01*
X65666904Y-27281190D01*
X65714523Y-27328809D01*
X65809761Y-27376428D01*
X66000238Y-27376428D01*
X66095476Y-27328809D01*
X66143095Y-27281190D01*
X66190714Y-27185952D01*
%TO.C,C1*%
X65238333Y-30202142D02*
X65190714Y-30249761D01*
X65047857Y-30297380D01*
X64952619Y-30297380D01*
X64809761Y-30249761D01*
X64714523Y-30154523D01*
X64666904Y-30059285D01*
X64619285Y-29868809D01*
X64619285Y-29725952D01*
X64666904Y-29535476D01*
X64714523Y-29440238D01*
X64809761Y-29345000D01*
X64952619Y-29297380D01*
X65047857Y-29297380D01*
X65190714Y-29345000D01*
X65238333Y-29392619D01*
X66190714Y-30297380D02*
X65619285Y-30297380D01*
X65905000Y-30297380D02*
X65905000Y-29297380D01*
X65809761Y-29440238D01*
X65714523Y-29535476D01*
X65619285Y-29583095D01*
%TO.C,D1*%
X78049380Y-31218095D02*
X77049380Y-31218095D01*
X77049380Y-30980000D01*
X77097000Y-30837142D01*
X77192238Y-30741904D01*
X77287476Y-30694285D01*
X77477952Y-30646666D01*
X77620809Y-30646666D01*
X77811285Y-30694285D01*
X77906523Y-30741904D01*
X78001761Y-30837142D01*
X78049380Y-30980000D01*
X78049380Y-31218095D01*
X78049380Y-29694285D02*
X78049380Y-30265714D01*
X78049380Y-29980000D02*
X77049380Y-29980000D01*
X77192238Y-30075238D01*
X77287476Y-30170476D01*
X77335095Y-30265714D01*
%TO.C,D2*%
X78049380Y-33758095D02*
X77049380Y-33758095D01*
X77049380Y-33520000D01*
X77097000Y-33377142D01*
X77192238Y-33281904D01*
X77287476Y-33234285D01*
X77477952Y-33186666D01*
X77620809Y-33186666D01*
X77811285Y-33234285D01*
X77906523Y-33281904D01*
X78001761Y-33377142D01*
X78049380Y-33520000D01*
X78049380Y-33758095D01*
X77144619Y-32805714D02*
X77097000Y-32758095D01*
X77049380Y-32662857D01*
X77049380Y-32424761D01*
X77097000Y-32329523D01*
X77144619Y-32281904D01*
X77239857Y-32234285D01*
X77335095Y-32234285D01*
X77477952Y-32281904D01*
X78049380Y-32853333D01*
X78049380Y-32234285D01*
%TO.C,D3*%
X78049380Y-36298095D02*
X77049380Y-36298095D01*
X77049380Y-36060000D01*
X77097000Y-35917142D01*
X77192238Y-35821904D01*
X77287476Y-35774285D01*
X77477952Y-35726666D01*
X77620809Y-35726666D01*
X77811285Y-35774285D01*
X77906523Y-35821904D01*
X78001761Y-35917142D01*
X78049380Y-36060000D01*
X78049380Y-36298095D01*
X77049380Y-35393333D02*
X77049380Y-34774285D01*
X77430333Y-35107619D01*
X77430333Y-34964761D01*
X77477952Y-34869523D01*
X77525571Y-34821904D01*
X77620809Y-34774285D01*
X77858904Y-34774285D01*
X77954142Y-34821904D01*
X78001761Y-34869523D01*
X78049380Y-34964761D01*
X78049380Y-35250476D01*
X78001761Y-35345714D01*
X77954142Y-35393333D01*
%TO.C,D4*%
X78049380Y-38838095D02*
X77049380Y-38838095D01*
X77049380Y-38600000D01*
X77097000Y-38457142D01*
X77192238Y-38361904D01*
X77287476Y-38314285D01*
X77477952Y-38266666D01*
X77620809Y-38266666D01*
X77811285Y-38314285D01*
X77906523Y-38361904D01*
X78001761Y-38457142D01*
X78049380Y-38600000D01*
X78049380Y-38838095D01*
X77382714Y-37409523D02*
X78049380Y-37409523D01*
X77001761Y-37647619D02*
X77716047Y-37885714D01*
X77716047Y-37266666D01*
%TO.C,D5*%
X78049380Y-41378095D02*
X77049380Y-41378095D01*
X77049380Y-41140000D01*
X77097000Y-40997142D01*
X77192238Y-40901904D01*
X77287476Y-40854285D01*
X77477952Y-40806666D01*
X77620809Y-40806666D01*
X77811285Y-40854285D01*
X77906523Y-40901904D01*
X78001761Y-40997142D01*
X78049380Y-41140000D01*
X78049380Y-41378095D01*
X77049380Y-39901904D02*
X77049380Y-40378095D01*
X77525571Y-40425714D01*
X77477952Y-40378095D01*
X77430333Y-40282857D01*
X77430333Y-40044761D01*
X77477952Y-39949523D01*
X77525571Y-39901904D01*
X77620809Y-39854285D01*
X77858904Y-39854285D01*
X77954142Y-39901904D01*
X78001761Y-39949523D01*
X78049380Y-40044761D01*
X78049380Y-40282857D01*
X78001761Y-40378095D01*
X77954142Y-40425714D01*
%TO.C,D6*%
X78049380Y-43918095D02*
X77049380Y-43918095D01*
X77049380Y-43680000D01*
X77097000Y-43537142D01*
X77192238Y-43441904D01*
X77287476Y-43394285D01*
X77477952Y-43346666D01*
X77620809Y-43346666D01*
X77811285Y-43394285D01*
X77906523Y-43441904D01*
X78001761Y-43537142D01*
X78049380Y-43680000D01*
X78049380Y-43918095D01*
X77049380Y-42489523D02*
X77049380Y-42680000D01*
X77097000Y-42775238D01*
X77144619Y-42822857D01*
X77287476Y-42918095D01*
X77477952Y-42965714D01*
X77858904Y-42965714D01*
X77954142Y-42918095D01*
X78001761Y-42870476D01*
X78049380Y-42775238D01*
X78049380Y-42584761D01*
X78001761Y-42489523D01*
X77954142Y-42441904D01*
X77858904Y-42394285D01*
X77620809Y-42394285D01*
X77525571Y-42441904D01*
X77477952Y-42489523D01*
X77430333Y-42584761D01*
X77430333Y-42775238D01*
X77477952Y-42870476D01*
X77525571Y-42918095D01*
X77620809Y-42965714D01*
%TO.C,D7*%
X78049380Y-46458095D02*
X77049380Y-46458095D01*
X77049380Y-46220000D01*
X77097000Y-46077142D01*
X77192238Y-45981904D01*
X77287476Y-45934285D01*
X77477952Y-45886666D01*
X77620809Y-45886666D01*
X77811285Y-45934285D01*
X77906523Y-45981904D01*
X78001761Y-46077142D01*
X78049380Y-46220000D01*
X78049380Y-46458095D01*
X77049380Y-45553333D02*
X77049380Y-44886666D01*
X78049380Y-45315238D01*
%TO.C,D8*%
X78049380Y-48998095D02*
X77049380Y-48998095D01*
X77049380Y-48760000D01*
X77097000Y-48617142D01*
X77192238Y-48521904D01*
X77287476Y-48474285D01*
X77477952Y-48426666D01*
X77620809Y-48426666D01*
X77811285Y-48474285D01*
X77906523Y-48521904D01*
X78001761Y-48617142D01*
X78049380Y-48760000D01*
X78049380Y-48998095D01*
X77477952Y-47855238D02*
X77430333Y-47950476D01*
X77382714Y-47998095D01*
X77287476Y-48045714D01*
X77239857Y-48045714D01*
X77144619Y-47998095D01*
X77097000Y-47950476D01*
X77049380Y-47855238D01*
X77049380Y-47664761D01*
X77097000Y-47569523D01*
X77144619Y-47521904D01*
X77239857Y-47474285D01*
X77287476Y-47474285D01*
X77382714Y-47521904D01*
X77430333Y-47569523D01*
X77477952Y-47664761D01*
X77477952Y-47855238D01*
X77525571Y-47950476D01*
X77573190Y-47998095D01*
X77668428Y-48045714D01*
X77858904Y-48045714D01*
X77954142Y-47998095D01*
X78001761Y-47950476D01*
X78049380Y-47855238D01*
X78049380Y-47664761D01*
X78001761Y-47569523D01*
X77954142Y-47521904D01*
X77858904Y-47474285D01*
X77668428Y-47474285D01*
X77573190Y-47521904D01*
X77525571Y-47569523D01*
X77477952Y-47664761D01*
%TO.C,R1*%
X73350380Y-30646666D02*
X72874190Y-30980000D01*
X73350380Y-31218095D02*
X72350380Y-31218095D01*
X72350380Y-30837142D01*
X72398000Y-30741904D01*
X72445619Y-30694285D01*
X72540857Y-30646666D01*
X72683714Y-30646666D01*
X72778952Y-30694285D01*
X72826571Y-30741904D01*
X72874190Y-30837142D01*
X72874190Y-31218095D01*
X73350380Y-29694285D02*
X73350380Y-30265714D01*
X73350380Y-29980000D02*
X72350380Y-29980000D01*
X72493238Y-30075238D01*
X72588476Y-30170476D01*
X72636095Y-30265714D01*
%TO.C,R2*%
X73350380Y-33186666D02*
X72874190Y-33520000D01*
X73350380Y-33758095D02*
X72350380Y-33758095D01*
X72350380Y-33377142D01*
X72398000Y-33281904D01*
X72445619Y-33234285D01*
X72540857Y-33186666D01*
X72683714Y-33186666D01*
X72778952Y-33234285D01*
X72826571Y-33281904D01*
X72874190Y-33377142D01*
X72874190Y-33758095D01*
X72445619Y-32805714D02*
X72398000Y-32758095D01*
X72350380Y-32662857D01*
X72350380Y-32424761D01*
X72398000Y-32329523D01*
X72445619Y-32281904D01*
X72540857Y-32234285D01*
X72636095Y-32234285D01*
X72778952Y-32281904D01*
X73350380Y-32853333D01*
X73350380Y-32234285D01*
%TO.C,R3*%
X73350380Y-35726666D02*
X72874190Y-36060000D01*
X73350380Y-36298095D02*
X72350380Y-36298095D01*
X72350380Y-35917142D01*
X72398000Y-35821904D01*
X72445619Y-35774285D01*
X72540857Y-35726666D01*
X72683714Y-35726666D01*
X72778952Y-35774285D01*
X72826571Y-35821904D01*
X72874190Y-35917142D01*
X72874190Y-36298095D01*
X72350380Y-35393333D02*
X72350380Y-34774285D01*
X72731333Y-35107619D01*
X72731333Y-34964761D01*
X72778952Y-34869523D01*
X72826571Y-34821904D01*
X72921809Y-34774285D01*
X73159904Y-34774285D01*
X73255142Y-34821904D01*
X73302761Y-34869523D01*
X73350380Y-34964761D01*
X73350380Y-35250476D01*
X73302761Y-35345714D01*
X73255142Y-35393333D01*
%TO.C,R4*%
X73350380Y-38266666D02*
X72874190Y-38600000D01*
X73350380Y-38838095D02*
X72350380Y-38838095D01*
X72350380Y-38457142D01*
X72398000Y-38361904D01*
X72445619Y-38314285D01*
X72540857Y-38266666D01*
X72683714Y-38266666D01*
X72778952Y-38314285D01*
X72826571Y-38361904D01*
X72874190Y-38457142D01*
X72874190Y-38838095D01*
X72683714Y-37409523D02*
X73350380Y-37409523D01*
X72302761Y-37647619D02*
X73017047Y-37885714D01*
X73017047Y-37266666D01*
%TO.C,R5*%
X73350380Y-40806666D02*
X72874190Y-41140000D01*
X73350380Y-41378095D02*
X72350380Y-41378095D01*
X72350380Y-40997142D01*
X72398000Y-40901904D01*
X72445619Y-40854285D01*
X72540857Y-40806666D01*
X72683714Y-40806666D01*
X72778952Y-40854285D01*
X72826571Y-40901904D01*
X72874190Y-40997142D01*
X72874190Y-41378095D01*
X72350380Y-39901904D02*
X72350380Y-40378095D01*
X72826571Y-40425714D01*
X72778952Y-40378095D01*
X72731333Y-40282857D01*
X72731333Y-40044761D01*
X72778952Y-39949523D01*
X72826571Y-39901904D01*
X72921809Y-39854285D01*
X73159904Y-39854285D01*
X73255142Y-39901904D01*
X73302761Y-39949523D01*
X73350380Y-40044761D01*
X73350380Y-40282857D01*
X73302761Y-40378095D01*
X73255142Y-40425714D01*
%TO.C,R6*%
X73350380Y-43346666D02*
X72874190Y-43680000D01*
X73350380Y-43918095D02*
X72350380Y-43918095D01*
X72350380Y-43537142D01*
X72398000Y-43441904D01*
X72445619Y-43394285D01*
X72540857Y-43346666D01*
X72683714Y-43346666D01*
X72778952Y-43394285D01*
X72826571Y-43441904D01*
X72874190Y-43537142D01*
X72874190Y-43918095D01*
X72350380Y-42489523D02*
X72350380Y-42680000D01*
X72398000Y-42775238D01*
X72445619Y-42822857D01*
X72588476Y-42918095D01*
X72778952Y-42965714D01*
X73159904Y-42965714D01*
X73255142Y-42918095D01*
X73302761Y-42870476D01*
X73350380Y-42775238D01*
X73350380Y-42584761D01*
X73302761Y-42489523D01*
X73255142Y-42441904D01*
X73159904Y-42394285D01*
X72921809Y-42394285D01*
X72826571Y-42441904D01*
X72778952Y-42489523D01*
X72731333Y-42584761D01*
X72731333Y-42775238D01*
X72778952Y-42870476D01*
X72826571Y-42918095D01*
X72921809Y-42965714D01*
%TO.C,R7*%
X73350380Y-45886666D02*
X72874190Y-46220000D01*
X73350380Y-46458095D02*
X72350380Y-46458095D01*
X72350380Y-46077142D01*
X72398000Y-45981904D01*
X72445619Y-45934285D01*
X72540857Y-45886666D01*
X72683714Y-45886666D01*
X72778952Y-45934285D01*
X72826571Y-45981904D01*
X72874190Y-46077142D01*
X72874190Y-46458095D01*
X72350380Y-45553333D02*
X72350380Y-44886666D01*
X73350380Y-45315238D01*
%TO.C,R8*%
X73350380Y-48426666D02*
X72874190Y-48760000D01*
X73350380Y-48998095D02*
X72350380Y-48998095D01*
X72350380Y-48617142D01*
X72398000Y-48521904D01*
X72445619Y-48474285D01*
X72540857Y-48426666D01*
X72683714Y-48426666D01*
X72778952Y-48474285D01*
X72826571Y-48521904D01*
X72874190Y-48617142D01*
X72874190Y-48998095D01*
X72778952Y-47855238D02*
X72731333Y-47950476D01*
X72683714Y-47998095D01*
X72588476Y-48045714D01*
X72540857Y-48045714D01*
X72445619Y-47998095D01*
X72398000Y-47950476D01*
X72350380Y-47855238D01*
X72350380Y-47664761D01*
X72398000Y-47569523D01*
X72445619Y-47521904D01*
X72540857Y-47474285D01*
X72588476Y-47474285D01*
X72683714Y-47521904D01*
X72731333Y-47569523D01*
X72778952Y-47664761D01*
X72778952Y-47855238D01*
X72826571Y-47950476D01*
X72874190Y-47998095D01*
X72969428Y-48045714D01*
X73159904Y-48045714D01*
X73255142Y-47998095D01*
X73302761Y-47950476D01*
X73350380Y-47855238D01*
X73350380Y-47664761D01*
X73302761Y-47569523D01*
X73255142Y-47521904D01*
X73159904Y-47474285D01*
X72969428Y-47474285D01*
X72874190Y-47521904D01*
X72826571Y-47569523D01*
X72778952Y-47664761D01*
%TO.C,U1*%
X58293095Y-29932380D02*
X58293095Y-30741904D01*
X58340714Y-30837142D01*
X58388333Y-30884761D01*
X58483571Y-30932380D01*
X58674047Y-30932380D01*
X58769285Y-30884761D01*
X58816904Y-30837142D01*
X58864523Y-30741904D01*
X58864523Y-29932380D01*
X59864523Y-30932380D02*
X59293095Y-30932380D01*
X59578809Y-30932380D02*
X59578809Y-29932380D01*
X59483571Y-30075238D01*
X59388333Y-30170476D01*
X59293095Y-30218095D01*
%TD*%
M02*
