%TF.GenerationSoftware,KiCad,Pcbnew,(5.1.8)-1*%
%TF.CreationDate,2023-01-12T00:15:59+03:00*%
%TF.ProjectId,273,3237332e-6b69-4636-9164-5f7063625858,rev?*%
%TF.SameCoordinates,Original*%
%TF.FileFunction,Legend,Top*%
%TF.FilePolarity,Positive*%
%FSLAX46Y46*%
G04 Gerber Fmt 4.6, Leading zero omitted, Abs format (unit mm)*
G04 Created by KiCad (PCBNEW (5.1.8)-1) date 2023-01-12 00:15:59*
%MOMM*%
%LPD*%
G01*
G04 APERTURE LIST*
%ADD10C,0.150000*%
%ADD11C,0.250000*%
%ADD12C,0.120000*%
G04 APERTURE END LIST*
D10*
X73795000Y-56522857D02*
X73747380Y-56618095D01*
X73747380Y-56760952D01*
X73795000Y-56903809D01*
X73890238Y-56999047D01*
X73985476Y-57046666D01*
X74175952Y-57094285D01*
X74318809Y-57094285D01*
X74509285Y-57046666D01*
X74604523Y-56999047D01*
X74699761Y-56903809D01*
X74747380Y-56760952D01*
X74747380Y-56665714D01*
X74699761Y-56522857D01*
X74652142Y-56475238D01*
X74318809Y-56475238D01*
X74318809Y-56665714D01*
X74080714Y-56046666D02*
X74747380Y-56046666D01*
X74175952Y-56046666D02*
X74128333Y-55999047D01*
X74080714Y-55903809D01*
X74080714Y-55760952D01*
X74128333Y-55665714D01*
X74223571Y-55618095D01*
X74747380Y-55618095D01*
X74747380Y-54713333D02*
X73747380Y-54713333D01*
X74699761Y-54713333D02*
X74747380Y-54808571D01*
X74747380Y-54999047D01*
X74699761Y-55094285D01*
X74652142Y-55141904D01*
X74556904Y-55189523D01*
X74271190Y-55189523D01*
X74175952Y-55141904D01*
X74128333Y-55094285D01*
X74080714Y-54999047D01*
X74080714Y-54808571D01*
X74128333Y-54713333D01*
X89979523Y-56237142D02*
X89931904Y-56284761D01*
X89789047Y-56332380D01*
X89693809Y-56332380D01*
X89550952Y-56284761D01*
X89455714Y-56189523D01*
X89408095Y-56094285D01*
X89360476Y-55903809D01*
X89360476Y-55760952D01*
X89408095Y-55570476D01*
X89455714Y-55475238D01*
X89550952Y-55380000D01*
X89693809Y-55332380D01*
X89789047Y-55332380D01*
X89931904Y-55380000D01*
X89979523Y-55427619D01*
X90408095Y-56332380D02*
X90408095Y-55332380D01*
X90789047Y-55332380D01*
X90884285Y-55380000D01*
X90931904Y-55427619D01*
X90979523Y-55522857D01*
X90979523Y-55665714D01*
X90931904Y-55760952D01*
X90884285Y-55808571D01*
X90789047Y-55856190D01*
X90408095Y-55856190D01*
X89614523Y-32472380D02*
X89947857Y-33472380D01*
X90281190Y-32472380D01*
X91043095Y-33424761D02*
X90947857Y-33472380D01*
X90757380Y-33472380D01*
X90662142Y-33424761D01*
X90614523Y-33377142D01*
X90566904Y-33281904D01*
X90566904Y-32996190D01*
X90614523Y-32900952D01*
X90662142Y-32853333D01*
X90757380Y-32805714D01*
X90947857Y-32805714D01*
X91043095Y-32853333D01*
X91900238Y-33424761D02*
X91805000Y-33472380D01*
X91614523Y-33472380D01*
X91519285Y-33424761D01*
X91471666Y-33377142D01*
X91424047Y-33281904D01*
X91424047Y-32996190D01*
X91471666Y-32900952D01*
X91519285Y-32853333D01*
X91614523Y-32805714D01*
X91805000Y-32805714D01*
X91900238Y-32853333D01*
X73795000Y-32105000D02*
X74795000Y-32105000D01*
X74604523Y-33472380D02*
X74271190Y-32996190D01*
X74033095Y-33472380D02*
X74033095Y-32472380D01*
X74414047Y-32472380D01*
X74509285Y-32520000D01*
X74556904Y-32567619D01*
X74604523Y-32662857D01*
X74604523Y-32805714D01*
X74556904Y-32900952D01*
X74509285Y-32948571D01*
X74414047Y-32996190D01*
X74033095Y-32996190D01*
D11*
X79105238Y-46926190D02*
X79010000Y-46830952D01*
X78914761Y-46640476D01*
X78914761Y-46164285D01*
X79010000Y-45973809D01*
X79105238Y-45878571D01*
X79295714Y-45783333D01*
X79486190Y-45783333D01*
X79771904Y-45878571D01*
X80914761Y-47021428D01*
X80914761Y-45783333D01*
X78914761Y-45116666D02*
X78914761Y-43783333D01*
X80914761Y-44640476D01*
X78914761Y-43211904D02*
X78914761Y-41973809D01*
X79676666Y-42640476D01*
X79676666Y-42354761D01*
X79771904Y-42164285D01*
X79867142Y-42069047D01*
X80057619Y-41973809D01*
X80533809Y-41973809D01*
X80724285Y-42069047D01*
X80819523Y-42164285D01*
X80914761Y-42354761D01*
X80914761Y-42926190D01*
X80819523Y-43116666D01*
X80724285Y-43211904D01*
D12*
%TO.C,D8*%
X94570000Y-52380000D02*
X91710000Y-52380000D01*
X94570000Y-54300000D02*
X94570000Y-52380000D01*
X91710000Y-54300000D02*
X94570000Y-54300000D01*
%TO.C,D7*%
X94570000Y-49840000D02*
X91710000Y-49840000D01*
X94570000Y-51760000D02*
X94570000Y-49840000D01*
X91710000Y-51760000D02*
X94570000Y-51760000D01*
%TO.C,D6*%
X94570000Y-47300000D02*
X91710000Y-47300000D01*
X94570000Y-49220000D02*
X94570000Y-47300000D01*
X91710000Y-49220000D02*
X94570000Y-49220000D01*
%TO.C,D5*%
X94570000Y-44760000D02*
X91710000Y-44760000D01*
X94570000Y-46680000D02*
X94570000Y-44760000D01*
X91710000Y-46680000D02*
X94570000Y-46680000D01*
%TO.C,D4*%
X94570000Y-42220000D02*
X91710000Y-42220000D01*
X94570000Y-44140000D02*
X94570000Y-42220000D01*
X91710000Y-44140000D02*
X94570000Y-44140000D01*
%TO.C,D3*%
X94570000Y-39680000D02*
X91710000Y-39680000D01*
X94570000Y-41600000D02*
X94570000Y-39680000D01*
X91710000Y-41600000D02*
X94570000Y-41600000D01*
%TO.C,D2*%
X94570000Y-37140000D02*
X91710000Y-37140000D01*
X94570000Y-39060000D02*
X94570000Y-37140000D01*
X91710000Y-39060000D02*
X94570000Y-39060000D01*
%TO.C,D1*%
X94570000Y-34600000D02*
X91710000Y-34600000D01*
X94570000Y-36520000D02*
X94570000Y-34600000D01*
X91710000Y-36520000D02*
X94570000Y-36520000D01*
%TO.C,U1*%
X82660000Y-31690000D02*
X81010000Y-31690000D01*
X82660000Y-57210000D02*
X82660000Y-31690000D01*
X77360000Y-57210000D02*
X82660000Y-57210000D01*
X77360000Y-31690000D02*
X77360000Y-57210000D01*
X79010000Y-31690000D02*
X77360000Y-31690000D01*
X81010000Y-31690000D02*
G75*
G02*
X79010000Y-31690000I-1000000J0D01*
G01*
%TO.C,D8*%
D10*
X90622380Y-54078095D02*
X89622380Y-54078095D01*
X89622380Y-53840000D01*
X89670000Y-53697142D01*
X89765238Y-53601904D01*
X89860476Y-53554285D01*
X90050952Y-53506666D01*
X90193809Y-53506666D01*
X90384285Y-53554285D01*
X90479523Y-53601904D01*
X90574761Y-53697142D01*
X90622380Y-53840000D01*
X90622380Y-54078095D01*
X90050952Y-52935238D02*
X90003333Y-53030476D01*
X89955714Y-53078095D01*
X89860476Y-53125714D01*
X89812857Y-53125714D01*
X89717619Y-53078095D01*
X89670000Y-53030476D01*
X89622380Y-52935238D01*
X89622380Y-52744761D01*
X89670000Y-52649523D01*
X89717619Y-52601904D01*
X89812857Y-52554285D01*
X89860476Y-52554285D01*
X89955714Y-52601904D01*
X90003333Y-52649523D01*
X90050952Y-52744761D01*
X90050952Y-52935238D01*
X90098571Y-53030476D01*
X90146190Y-53078095D01*
X90241428Y-53125714D01*
X90431904Y-53125714D01*
X90527142Y-53078095D01*
X90574761Y-53030476D01*
X90622380Y-52935238D01*
X90622380Y-52744761D01*
X90574761Y-52649523D01*
X90527142Y-52601904D01*
X90431904Y-52554285D01*
X90241428Y-52554285D01*
X90146190Y-52601904D01*
X90098571Y-52649523D01*
X90050952Y-52744761D01*
%TO.C,D7*%
X90622380Y-51538095D02*
X89622380Y-51538095D01*
X89622380Y-51300000D01*
X89670000Y-51157142D01*
X89765238Y-51061904D01*
X89860476Y-51014285D01*
X90050952Y-50966666D01*
X90193809Y-50966666D01*
X90384285Y-51014285D01*
X90479523Y-51061904D01*
X90574761Y-51157142D01*
X90622380Y-51300000D01*
X90622380Y-51538095D01*
X89622380Y-50633333D02*
X89622380Y-49966666D01*
X90622380Y-50395238D01*
%TO.C,D6*%
X90622380Y-48998095D02*
X89622380Y-48998095D01*
X89622380Y-48760000D01*
X89670000Y-48617142D01*
X89765238Y-48521904D01*
X89860476Y-48474285D01*
X90050952Y-48426666D01*
X90193809Y-48426666D01*
X90384285Y-48474285D01*
X90479523Y-48521904D01*
X90574761Y-48617142D01*
X90622380Y-48760000D01*
X90622380Y-48998095D01*
X89622380Y-47569523D02*
X89622380Y-47760000D01*
X89670000Y-47855238D01*
X89717619Y-47902857D01*
X89860476Y-47998095D01*
X90050952Y-48045714D01*
X90431904Y-48045714D01*
X90527142Y-47998095D01*
X90574761Y-47950476D01*
X90622380Y-47855238D01*
X90622380Y-47664761D01*
X90574761Y-47569523D01*
X90527142Y-47521904D01*
X90431904Y-47474285D01*
X90193809Y-47474285D01*
X90098571Y-47521904D01*
X90050952Y-47569523D01*
X90003333Y-47664761D01*
X90003333Y-47855238D01*
X90050952Y-47950476D01*
X90098571Y-47998095D01*
X90193809Y-48045714D01*
%TO.C,D5*%
X90622380Y-46458095D02*
X89622380Y-46458095D01*
X89622380Y-46220000D01*
X89670000Y-46077142D01*
X89765238Y-45981904D01*
X89860476Y-45934285D01*
X90050952Y-45886666D01*
X90193809Y-45886666D01*
X90384285Y-45934285D01*
X90479523Y-45981904D01*
X90574761Y-46077142D01*
X90622380Y-46220000D01*
X90622380Y-46458095D01*
X89622380Y-44981904D02*
X89622380Y-45458095D01*
X90098571Y-45505714D01*
X90050952Y-45458095D01*
X90003333Y-45362857D01*
X90003333Y-45124761D01*
X90050952Y-45029523D01*
X90098571Y-44981904D01*
X90193809Y-44934285D01*
X90431904Y-44934285D01*
X90527142Y-44981904D01*
X90574761Y-45029523D01*
X90622380Y-45124761D01*
X90622380Y-45362857D01*
X90574761Y-45458095D01*
X90527142Y-45505714D01*
%TO.C,D4*%
X90622380Y-43918095D02*
X89622380Y-43918095D01*
X89622380Y-43680000D01*
X89670000Y-43537142D01*
X89765238Y-43441904D01*
X89860476Y-43394285D01*
X90050952Y-43346666D01*
X90193809Y-43346666D01*
X90384285Y-43394285D01*
X90479523Y-43441904D01*
X90574761Y-43537142D01*
X90622380Y-43680000D01*
X90622380Y-43918095D01*
X89955714Y-42489523D02*
X90622380Y-42489523D01*
X89574761Y-42727619D02*
X90289047Y-42965714D01*
X90289047Y-42346666D01*
%TO.C,D3*%
X90622380Y-41378095D02*
X89622380Y-41378095D01*
X89622380Y-41140000D01*
X89670000Y-40997142D01*
X89765238Y-40901904D01*
X89860476Y-40854285D01*
X90050952Y-40806666D01*
X90193809Y-40806666D01*
X90384285Y-40854285D01*
X90479523Y-40901904D01*
X90574761Y-40997142D01*
X90622380Y-41140000D01*
X90622380Y-41378095D01*
X89622380Y-40473333D02*
X89622380Y-39854285D01*
X90003333Y-40187619D01*
X90003333Y-40044761D01*
X90050952Y-39949523D01*
X90098571Y-39901904D01*
X90193809Y-39854285D01*
X90431904Y-39854285D01*
X90527142Y-39901904D01*
X90574761Y-39949523D01*
X90622380Y-40044761D01*
X90622380Y-40330476D01*
X90574761Y-40425714D01*
X90527142Y-40473333D01*
%TO.C,D2*%
X90622380Y-38838095D02*
X89622380Y-38838095D01*
X89622380Y-38600000D01*
X89670000Y-38457142D01*
X89765238Y-38361904D01*
X89860476Y-38314285D01*
X90050952Y-38266666D01*
X90193809Y-38266666D01*
X90384285Y-38314285D01*
X90479523Y-38361904D01*
X90574761Y-38457142D01*
X90622380Y-38600000D01*
X90622380Y-38838095D01*
X89717619Y-37885714D02*
X89670000Y-37838095D01*
X89622380Y-37742857D01*
X89622380Y-37504761D01*
X89670000Y-37409523D01*
X89717619Y-37361904D01*
X89812857Y-37314285D01*
X89908095Y-37314285D01*
X90050952Y-37361904D01*
X90622380Y-37933333D01*
X90622380Y-37314285D01*
%TO.C,D1*%
X90622380Y-36298095D02*
X89622380Y-36298095D01*
X89622380Y-36060000D01*
X89670000Y-35917142D01*
X89765238Y-35821904D01*
X89860476Y-35774285D01*
X90050952Y-35726666D01*
X90193809Y-35726666D01*
X90384285Y-35774285D01*
X90479523Y-35821904D01*
X90574761Y-35917142D01*
X90622380Y-36060000D01*
X90622380Y-36298095D01*
X90622380Y-34774285D02*
X90622380Y-35345714D01*
X90622380Y-35060000D02*
X89622380Y-35060000D01*
X89765238Y-35155238D01*
X89860476Y-35250476D01*
X89908095Y-35345714D01*
%TO.C,U1*%
X79248095Y-33424880D02*
X79248095Y-34234404D01*
X79295714Y-34329642D01*
X79343333Y-34377261D01*
X79438571Y-34424880D01*
X79629047Y-34424880D01*
X79724285Y-34377261D01*
X79771904Y-34329642D01*
X79819523Y-34234404D01*
X79819523Y-33424880D01*
X80819523Y-34424880D02*
X80248095Y-34424880D01*
X80533809Y-34424880D02*
X80533809Y-33424880D01*
X80438571Y-33567738D01*
X80343333Y-33662976D01*
X80248095Y-33710595D01*
%TD*%
M02*
