%TF.GenerationSoftware,KiCad,Pcbnew,(5.1.8)-1*%
%TF.CreationDate,2023-02-18T12:51:42+03:00*%
%TF.ProjectId,MUL1,4d554c31-2e6b-4696-9361-645f70636258,rev?*%
%TF.SameCoordinates,Original*%
%TF.FileFunction,Soldermask,Top*%
%TF.FilePolarity,Negative*%
%FSLAX46Y46*%
G04 Gerber Fmt 4.6, Leading zero omitted, Abs format (unit mm)*
G04 Created by KiCad (PCBNEW (5.1.8)-1) date 2023-02-18 12:51:42*
%MOMM*%
%LPD*%
G01*
G04 APERTURE LIST*
%ADD10R,1.700000X1.700000*%
%ADD11C,2.000000*%
%ADD12O,1.800000X1.500000*%
%ADD13R,1.800000X1.500000*%
%ADD14O,2.100000X2.100000*%
%ADD15R,2.100000X2.100000*%
%ADD16O,2.100000X1.700000*%
%ADD17R,2.100000X1.700000*%
G04 APERTURE END LIST*
D10*
%TO.C,J6*%
X116522500Y-71755000D03*
%TD*%
%TO.C,R1*%
G36*
G01*
X123005001Y-70720000D02*
X122104999Y-70720000D01*
G75*
G02*
X121855000Y-70470001I0J249999D01*
G01*
X121855000Y-69769999D01*
G75*
G02*
X122104999Y-69520000I249999J0D01*
G01*
X123005001Y-69520000D01*
G75*
G02*
X123255000Y-69769999I0J-249999D01*
G01*
X123255000Y-70470001D01*
G75*
G02*
X123005001Y-70720000I-249999J0D01*
G01*
G37*
G36*
G01*
X123005001Y-72720000D02*
X122104999Y-72720000D01*
G75*
G02*
X121855000Y-72470001I0J249999D01*
G01*
X121855000Y-71769999D01*
G75*
G02*
X122104999Y-71520000I249999J0D01*
G01*
X123005001Y-71520000D01*
G75*
G02*
X123255000Y-71769999I0J-249999D01*
G01*
X123255000Y-72470001D01*
G75*
G02*
X123005001Y-72720000I-249999J0D01*
G01*
G37*
%TD*%
D11*
%TO.C,C2*%
X115570000Y-69055000D03*
X115570000Y-59055000D03*
%TD*%
%TO.C,C1*%
X151765000Y-68420000D03*
X151765000Y-58420000D03*
%TD*%
D12*
%TO.C,U4*%
X147320000Y-55880000D03*
X139700000Y-73660000D03*
X147320000Y-58420000D03*
X139700000Y-71120000D03*
X147320000Y-60960000D03*
X139700000Y-68580000D03*
X147320000Y-63500000D03*
X139700000Y-66040000D03*
X147320000Y-66040000D03*
X139700000Y-63500000D03*
X147320000Y-68580000D03*
X139700000Y-60960000D03*
X147320000Y-71120000D03*
X139700000Y-58420000D03*
X147320000Y-73660000D03*
D13*
X139700000Y-55880000D03*
%TD*%
D12*
%TO.C,U3*%
X109220000Y-58420000D03*
X101600000Y-73660000D03*
X109220000Y-60960000D03*
X101600000Y-71120000D03*
X109220000Y-63500000D03*
X101600000Y-68580000D03*
X109220000Y-66040000D03*
X101600000Y-66040000D03*
X109220000Y-68580000D03*
X101600000Y-63500000D03*
X109220000Y-71120000D03*
X101600000Y-60960000D03*
X109220000Y-73660000D03*
D13*
X101600000Y-58420000D03*
%TD*%
D12*
%TO.C,U2*%
X127000000Y-55880000D03*
X119380000Y-73660000D03*
X127000000Y-58420000D03*
X119380000Y-71120000D03*
X127000000Y-60960000D03*
X119380000Y-68580000D03*
X127000000Y-63500000D03*
X119380000Y-66040000D03*
X127000000Y-66040000D03*
X119380000Y-63500000D03*
X127000000Y-68580000D03*
X119380000Y-60960000D03*
X127000000Y-71120000D03*
X119380000Y-58420000D03*
X127000000Y-73660000D03*
D13*
X119380000Y-55880000D03*
%TD*%
D12*
%TO.C,U1*%
X93980000Y-58420000D03*
X86360000Y-73660000D03*
X93980000Y-60960000D03*
X86360000Y-71120000D03*
X93980000Y-63500000D03*
X86360000Y-68580000D03*
X93980000Y-66040000D03*
X86360000Y-66040000D03*
X93980000Y-68580000D03*
X86360000Y-63500000D03*
X93980000Y-71120000D03*
X86360000Y-60960000D03*
X93980000Y-73660000D03*
D13*
X86360000Y-58420000D03*
%TD*%
D14*
%TO.C,J5*%
X160020000Y-83820000D03*
D15*
X162560000Y-83820000D03*
%TD*%
%TO.C,J4*%
X83820000Y-83820000D03*
%TD*%
D14*
%TO.C,J3*%
X88900000Y-83820000D03*
X91440000Y-83820000D03*
X93980000Y-83820000D03*
X96520000Y-83820000D03*
X99060000Y-83820000D03*
X101600000Y-83820000D03*
X104140000Y-83820000D03*
D15*
X106680000Y-83820000D03*
%TD*%
D16*
%TO.C,J2*%
X134620000Y-83820000D03*
X137160000Y-83820000D03*
X139700000Y-83820000D03*
X142240000Y-83820000D03*
X144780000Y-83820000D03*
X147320000Y-83820000D03*
X149860000Y-83820000D03*
X152400000Y-83820000D03*
D17*
X154940000Y-83820000D03*
%TD*%
D14*
%TO.C,J1*%
X111760000Y-83820000D03*
X114300000Y-83820000D03*
X116840000Y-83820000D03*
X119380000Y-83820000D03*
X121920000Y-83820000D03*
X124460000Y-83820000D03*
X127000000Y-83820000D03*
D15*
X129540000Y-83820000D03*
%TD*%
M02*
