M48
METRIC
T1C0.500
T2C0.800
T3C1.000
%
G90
G05
T1
X111.76Y-55.245
X132.08Y-51.435
X132.082Y-74.206
X133.35Y-76.2
X135.255Y-74.383
T2
X86.36Y-58.42
X86.36Y-60.96
X86.36Y-63.5
X86.36Y-66.04
X86.36Y-68.58
X86.36Y-71.12
X86.36Y-73.66
X93.98Y-58.42
X93.98Y-60.96
X93.98Y-63.5
X93.98Y-66.04
X93.98Y-68.58
X93.98Y-71.12
X93.98Y-73.66
X139.7Y-55.88
X139.7Y-58.42
X139.7Y-60.96
X139.7Y-63.5
X139.7Y-66.04
X139.7Y-68.58
X139.7Y-71.12
X139.7Y-73.66
X147.32Y-55.88
X147.32Y-58.42
X147.32Y-60.96
X147.32Y-63.5
X147.32Y-66.04
X147.32Y-68.58
X147.32Y-71.12
X147.32Y-73.66
X119.38Y-55.88
X119.38Y-58.42
X119.38Y-60.96
X119.38Y-63.5
X119.38Y-66.04
X119.38Y-68.58
X119.38Y-71.12
X119.38Y-73.66
X127.0Y-55.88
X127.0Y-58.42
X127.0Y-60.96
X127.0Y-63.5
X127.0Y-66.04
X127.0Y-68.58
X127.0Y-71.12
X127.0Y-73.66
X101.6Y-58.42
X101.6Y-60.96
X101.6Y-63.5
X101.6Y-66.04
X101.6Y-68.58
X101.6Y-71.12
X101.6Y-73.66
X109.22Y-58.42
X109.22Y-60.96
X109.22Y-63.5
X109.22Y-66.04
X109.22Y-68.58
X109.22Y-71.12
X109.22Y-73.66
T3
X151.765Y-58.42
X151.765Y-68.42
X88.9Y-83.82
X91.44Y-83.82
X93.98Y-83.82
X96.52Y-83.82
X99.06Y-83.82
X101.6Y-83.82
X104.14Y-83.82
X106.68Y-83.82
X116.522Y-71.755
X111.76Y-83.82
X114.3Y-83.82
X116.84Y-83.82
X119.38Y-83.82
X121.92Y-83.82
X124.46Y-83.82
X127.0Y-83.82
X129.54Y-83.82
X83.82Y-83.82
X115.57Y-59.055
X115.57Y-69.055
X134.62Y-83.82
X137.16Y-83.82
X139.7Y-83.82
X142.24Y-83.82
X144.78Y-83.82
X147.32Y-83.82
X149.86Y-83.82
X152.4Y-83.82
X154.94Y-83.82
X160.02Y-83.82
X162.56Y-83.82
T0
M30
