M48
INCH,TZ
T1C0.0197
T2C0.0315
T3C0.0394
%
G90
G05
T1
X44000Y-21750
X52000Y-20250
X52001Y-29215
X52500Y-30000
X53250Y-29285
T2
X34000Y-23000
X34000Y-24000
X34000Y-25000
X34000Y-26000
X34000Y-27000
X34000Y-28000
X34000Y-29000
X37000Y-23000
X37000Y-24000
X37000Y-25000
X37000Y-26000
X37000Y-27000
X37000Y-28000
X37000Y-29000
X47000Y-22000
X47000Y-23000
X47000Y-24000
X47000Y-25000
X47000Y-26000
X47000Y-27000
X47000Y-28000
X47000Y-29000
X50000Y-22000
X50000Y-23000
X50000Y-24000
X50000Y-25000
X50000Y-26000
X50000Y-27000
X50000Y-28000
X50000Y-29000
X55000Y-22000
X55000Y-23000
X55000Y-24000
X55000Y-25000
X55000Y-26000
X55000Y-27000
X55000Y-28000
X55000Y-29000
X58000Y-22000
X58000Y-23000
X58000Y-24000
X58000Y-25000
X58000Y-26000
X58000Y-27000
X58000Y-28000
X58000Y-29000
X40000Y-23000
X40000Y-24000
X40000Y-25000
X40000Y-26000
X40000Y-27000
X40000Y-28000
X40000Y-29000
X43000Y-23000
X43000Y-24000
X43000Y-25000
X43000Y-26000
X43000Y-27000
X43000Y-28000
X43000Y-29000
T3
X63000Y-33000
X64000Y-33000
X35000Y-33000
X36000Y-33000
X37000Y-33000
X38000Y-33000
X39000Y-33000
X40000Y-33000
X41000Y-33000
X42000Y-33000
X53000Y-33000
X54000Y-33000
X55000Y-33000
X56000Y-33000
X57000Y-33000
X58000Y-33000
X59000Y-33000
X60000Y-33000
X61000Y-33000
X59750Y-23000
X59750Y-26937
X33000Y-33000
X45875Y-28250
X45875Y-29250
X44000Y-33000
X45000Y-33000
X46000Y-33000
X47000Y-33000
X48000Y-33000
X49000Y-33000
X50000Y-33000
X51000Y-33000
X45500Y-23250
X45500Y-27187
T0
M30
