%TF.GenerationSoftware,KiCad,Pcbnew,(5.1.8)-1*%
%TF.CreationDate,2023-07-23T00:45:23+03:00*%
%TF.ProjectId,Ports,506f7274-732e-46b6-9963-61645f706362,rev?*%
%TF.SameCoordinates,Original*%
%TF.FileFunction,Copper,L2,Bot*%
%TF.FilePolarity,Positive*%
%FSLAX46Y46*%
G04 Gerber Fmt 4.6, Leading zero omitted, Abs format (unit mm)*
G04 Created by KiCad (PCBNEW (5.1.8)-1) date 2023-07-23 00:45:23*
%MOMM*%
%LPD*%
G01*
G04 APERTURE LIST*
%TA.AperFunction,NonConductor*%
%ADD10C,0.150000*%
%TD*%
%TA.AperFunction,NonConductor*%
%ADD11C,0.300000*%
%TD*%
%TA.AperFunction,SMDPad,CuDef*%
%ADD12R,0.900000X0.800000*%
%TD*%
%TA.AperFunction,ComponentPad*%
%ADD13C,1.600000*%
%TD*%
%TA.AperFunction,ComponentPad*%
%ADD14O,1.600000X1.600000*%
%TD*%
%TA.AperFunction,ComponentPad*%
%ADD15O,2.000000X2.000000*%
%TD*%
%TA.AperFunction,ComponentPad*%
%ADD16R,2.000000X2.000000*%
%TD*%
%TA.AperFunction,SMDPad,CuDef*%
%ADD17C,0.100000*%
%TD*%
%TA.AperFunction,ComponentPad*%
%ADD18C,2.000000*%
%TD*%
%TA.AperFunction,ComponentPad*%
%ADD19O,1.700000X1.700000*%
%TD*%
%TA.AperFunction,ComponentPad*%
%ADD20O,1.800000X1.500000*%
%TD*%
%TA.AperFunction,ComponentPad*%
%ADD21R,1.800000X1.500000*%
%TD*%
%TA.AperFunction,ComponentPad*%
%ADD22O,2.000000X1.500000*%
%TD*%
%TA.AperFunction,ComponentPad*%
%ADD23O,2.000000X1.600000*%
%TD*%
%TA.AperFunction,ComponentPad*%
%ADD24C,1.800000*%
%TD*%
%TA.AperFunction,ComponentPad*%
%ADD25R,1.800000X1.800000*%
%TD*%
%TA.AperFunction,ComponentPad*%
%ADD26R,2.600000X2.600000*%
%TD*%
%TA.AperFunction,ComponentPad*%
%ADD27C,2.600000*%
%TD*%
%TA.AperFunction,ComponentPad*%
%ADD28O,2.000000X2.200000*%
%TD*%
%TA.AperFunction,ComponentPad*%
%ADD29C,2.200000*%
%TD*%
%TA.AperFunction,ComponentPad*%
%ADD30R,2.000000X1.600000*%
%TD*%
%TA.AperFunction,ComponentPad*%
%ADD31O,2.000000X1.700000*%
%TD*%
%TA.AperFunction,ViaPad*%
%ADD32C,1.500000*%
%TD*%
%TA.AperFunction,Conductor*%
%ADD33C,0.800000*%
%TD*%
%TA.AperFunction,Conductor*%
%ADD34C,0.600000*%
%TD*%
%TA.AperFunction,Conductor*%
%ADD35C,0.500000*%
%TD*%
G04 APERTURE END LIST*
D10*
X125737857Y-108720000D02*
X125833095Y-108672380D01*
X125975952Y-108672380D01*
X126118809Y-108720000D01*
X126214047Y-108815238D01*
X126261666Y-108910476D01*
X126309285Y-109100952D01*
X126309285Y-109243809D01*
X126261666Y-109434285D01*
X126214047Y-109529523D01*
X126118809Y-109624761D01*
X125975952Y-109672380D01*
X125880714Y-109672380D01*
X125737857Y-109624761D01*
X125690238Y-109577142D01*
X125690238Y-109243809D01*
X125880714Y-109243809D01*
X125261666Y-109005714D02*
X125261666Y-109672380D01*
X125261666Y-109100952D02*
X125214047Y-109053333D01*
X125118809Y-109005714D01*
X124975952Y-109005714D01*
X124880714Y-109053333D01*
X124833095Y-109148571D01*
X124833095Y-109672380D01*
X123928333Y-109672380D02*
X123928333Y-108672380D01*
X123928333Y-109624761D02*
X124023571Y-109672380D01*
X124214047Y-109672380D01*
X124309285Y-109624761D01*
X124356904Y-109577142D01*
X124404523Y-109481904D01*
X124404523Y-109196190D01*
X124356904Y-109100952D01*
X124309285Y-109053333D01*
X124214047Y-109005714D01*
X124023571Y-109005714D01*
X123928333Y-109053333D01*
D11*
X119403571Y-35032142D02*
X118260714Y-35032142D01*
X118832142Y-35603571D02*
X118832142Y-34460714D01*
X116832142Y-34103571D02*
X117546428Y-34103571D01*
X117617857Y-34817857D01*
X117546428Y-34746428D01*
X117403571Y-34675000D01*
X117046428Y-34675000D01*
X116903571Y-34746428D01*
X116832142Y-34817857D01*
X116760714Y-34960714D01*
X116760714Y-35317857D01*
X116832142Y-35460714D01*
X116903571Y-35532142D01*
X117046428Y-35603571D01*
X117403571Y-35603571D01*
X117546428Y-35532142D01*
X117617857Y-35460714D01*
X116332142Y-34103571D02*
X115832142Y-35603571D01*
X115332142Y-34103571D01*
X101623571Y-74402142D02*
X100480714Y-74402142D01*
X101052142Y-74973571D02*
X101052142Y-73830714D01*
X99052142Y-73473571D02*
X99766428Y-73473571D01*
X99837857Y-74187857D01*
X99766428Y-74116428D01*
X99623571Y-74045000D01*
X99266428Y-74045000D01*
X99123571Y-74116428D01*
X99052142Y-74187857D01*
X98980714Y-74330714D01*
X98980714Y-74687857D01*
X99052142Y-74830714D01*
X99123571Y-74902142D01*
X99266428Y-74973571D01*
X99623571Y-74973571D01*
X99766428Y-74902142D01*
X99837857Y-74830714D01*
X98552142Y-73473571D02*
X98052142Y-74973571D01*
X97552142Y-73473571D01*
X70912857Y-69171428D02*
X70841428Y-69100000D01*
X70698571Y-69028571D01*
X70341428Y-69028571D01*
X70198571Y-69100000D01*
X70127142Y-69171428D01*
X70055714Y-69314285D01*
X70055714Y-69457142D01*
X70127142Y-69671428D01*
X70984285Y-70528571D01*
X70055714Y-70528571D01*
X69555714Y-69028571D02*
X68627142Y-69028571D01*
X69127142Y-69600000D01*
X68912857Y-69600000D01*
X68770000Y-69671428D01*
X68698571Y-69742857D01*
X68627142Y-69885714D01*
X68627142Y-70242857D01*
X68698571Y-70385714D01*
X68770000Y-70457142D01*
X68912857Y-70528571D01*
X69341428Y-70528571D01*
X69484285Y-70457142D01*
X69555714Y-70385714D01*
X67984285Y-70385714D02*
X67912857Y-70457142D01*
X67984285Y-70528571D01*
X68055714Y-70457142D01*
X67984285Y-70385714D01*
X67984285Y-70528571D01*
X66984285Y-69028571D02*
X66841428Y-69028571D01*
X66698571Y-69100000D01*
X66627142Y-69171428D01*
X66555714Y-69314285D01*
X66484285Y-69600000D01*
X66484285Y-69957142D01*
X66555714Y-70242857D01*
X66627142Y-70385714D01*
X66698571Y-70457142D01*
X66841428Y-70528571D01*
X66984285Y-70528571D01*
X67127142Y-70457142D01*
X67198571Y-70385714D01*
X67270000Y-70242857D01*
X67341428Y-69957142D01*
X67341428Y-69600000D01*
X67270000Y-69314285D01*
X67198571Y-69171428D01*
X67127142Y-69100000D01*
X66984285Y-69028571D01*
X65984285Y-69028571D02*
X64984285Y-69028571D01*
X65627142Y-70528571D01*
X64412857Y-70385714D02*
X64341428Y-70457142D01*
X64412857Y-70528571D01*
X64484285Y-70457142D01*
X64412857Y-70385714D01*
X64412857Y-70528571D01*
X63770000Y-69171428D02*
X63698571Y-69100000D01*
X63555714Y-69028571D01*
X63198571Y-69028571D01*
X63055714Y-69100000D01*
X62984285Y-69171428D01*
X62912857Y-69314285D01*
X62912857Y-69457142D01*
X62984285Y-69671428D01*
X63841428Y-70528571D01*
X62912857Y-70528571D01*
X61984285Y-69028571D02*
X61841428Y-69028571D01*
X61698571Y-69100000D01*
X61627142Y-69171428D01*
X61555714Y-69314285D01*
X61484285Y-69600000D01*
X61484285Y-69957142D01*
X61555714Y-70242857D01*
X61627142Y-70385714D01*
X61698571Y-70457142D01*
X61841428Y-70528571D01*
X61984285Y-70528571D01*
X62127142Y-70457142D01*
X62198571Y-70385714D01*
X62270000Y-70242857D01*
X62341428Y-69957142D01*
X62341428Y-69600000D01*
X62270000Y-69314285D01*
X62198571Y-69171428D01*
X62127142Y-69100000D01*
X61984285Y-69028571D01*
X60912857Y-69171428D02*
X60841428Y-69100000D01*
X60698571Y-69028571D01*
X60341428Y-69028571D01*
X60198571Y-69100000D01*
X60127142Y-69171428D01*
X60055714Y-69314285D01*
X60055714Y-69457142D01*
X60127142Y-69671428D01*
X60984285Y-70528571D01*
X60055714Y-70528571D01*
X59555714Y-69028571D02*
X58627142Y-69028571D01*
X59127142Y-69600000D01*
X58912857Y-69600000D01*
X58770000Y-69671428D01*
X58698571Y-69742857D01*
X58627142Y-69885714D01*
X58627142Y-70242857D01*
X58698571Y-70385714D01*
X58770000Y-70457142D01*
X58912857Y-70528571D01*
X59341428Y-70528571D01*
X59484285Y-70457142D01*
X59555714Y-70385714D01*
X67984285Y-67988571D02*
X67984285Y-66488571D01*
X67412857Y-66488571D01*
X67270000Y-66560000D01*
X67198571Y-66631428D01*
X67127142Y-66774285D01*
X67127142Y-66988571D01*
X67198571Y-67131428D01*
X67270000Y-67202857D01*
X67412857Y-67274285D01*
X67984285Y-67274285D01*
X66198571Y-66488571D02*
X65912857Y-66488571D01*
X65770000Y-66560000D01*
X65627142Y-66702857D01*
X65555714Y-66988571D01*
X65555714Y-67488571D01*
X65627142Y-67774285D01*
X65770000Y-67917142D01*
X65912857Y-67988571D01*
X66198571Y-67988571D01*
X66341428Y-67917142D01*
X66484285Y-67774285D01*
X66555714Y-67488571D01*
X66555714Y-66988571D01*
X66484285Y-66702857D01*
X66341428Y-66560000D01*
X66198571Y-66488571D01*
X64055714Y-67988571D02*
X64555714Y-67274285D01*
X64912857Y-67988571D02*
X64912857Y-66488571D01*
X64341428Y-66488571D01*
X64198571Y-66560000D01*
X64127142Y-66631428D01*
X64055714Y-66774285D01*
X64055714Y-66988571D01*
X64127142Y-67131428D01*
X64198571Y-67202857D01*
X64341428Y-67274285D01*
X64912857Y-67274285D01*
X63627142Y-66488571D02*
X62770000Y-66488571D01*
X63198571Y-67988571D02*
X63198571Y-66488571D01*
X62341428Y-67917142D02*
X62127142Y-67988571D01*
X61770000Y-67988571D01*
X61627142Y-67917142D01*
X61555714Y-67845714D01*
X61484285Y-67702857D01*
X61484285Y-67560000D01*
X61555714Y-67417142D01*
X61627142Y-67345714D01*
X61770000Y-67274285D01*
X62055714Y-67202857D01*
X62198571Y-67131428D01*
X62270000Y-67060000D01*
X62341428Y-66917142D01*
X62341428Y-66774285D01*
X62270000Y-66631428D01*
X62198571Y-66560000D01*
X62055714Y-66488571D01*
X61698571Y-66488571D01*
X61484285Y-66560000D01*
X69055714Y-63948571D02*
X68055714Y-63948571D01*
X68698571Y-65448571D01*
X66841428Y-64448571D02*
X66841428Y-65448571D01*
X67198571Y-63877142D02*
X67555714Y-64948571D01*
X66627142Y-64948571D01*
X66055714Y-65448571D02*
X66055714Y-63948571D01*
X66055714Y-64662857D02*
X65198571Y-64662857D01*
X65198571Y-65448571D02*
X65198571Y-63948571D01*
X63627142Y-65305714D02*
X63698571Y-65377142D01*
X63912857Y-65448571D01*
X64055714Y-65448571D01*
X64270000Y-65377142D01*
X64412857Y-65234285D01*
X64484285Y-65091428D01*
X64555714Y-64805714D01*
X64555714Y-64591428D01*
X64484285Y-64305714D01*
X64412857Y-64162857D01*
X64270000Y-64020000D01*
X64055714Y-63948571D01*
X63912857Y-63948571D01*
X63698571Y-64020000D01*
X63627142Y-64091428D01*
X62984285Y-65448571D02*
X62984285Y-63948571D01*
X62412857Y-63948571D01*
X62270000Y-64020000D01*
X62198571Y-64091428D01*
X62127142Y-64234285D01*
X62127142Y-64448571D01*
X62198571Y-64591428D01*
X62270000Y-64662857D01*
X62412857Y-64734285D01*
X62984285Y-64734285D01*
X61484285Y-63948571D02*
X61484285Y-65162857D01*
X61412857Y-65305714D01*
X61341428Y-65377142D01*
X61198571Y-65448571D01*
X60912857Y-65448571D01*
X60770000Y-65377142D01*
X60698571Y-65305714D01*
X60627142Y-65162857D01*
X60627142Y-63948571D01*
%TO.P,R22,2*%
%TO.N,GND*%
%TA.AperFunction,SMDPad,CuDef*%
G36*
G01*
X103054999Y-37230000D02*
X103955001Y-37230000D01*
G75*
G02*
X104205000Y-37479999I0J-249999D01*
G01*
X104205000Y-38180001D01*
G75*
G02*
X103955001Y-38430000I-249999J0D01*
G01*
X103054999Y-38430000D01*
G75*
G02*
X102805000Y-38180001I0J249999D01*
G01*
X102805000Y-37479999D01*
G75*
G02*
X103054999Y-37230000I249999J0D01*
G01*
G37*
%TD.AperFunction*%
%TO.P,R22,1*%
%TO.N,/P0.7*%
%TA.AperFunction,SMDPad,CuDef*%
G36*
G01*
X103054999Y-35230000D02*
X103955001Y-35230000D01*
G75*
G02*
X104205000Y-35479999I0J-249999D01*
G01*
X104205000Y-36180001D01*
G75*
G02*
X103955001Y-36430000I-249999J0D01*
G01*
X103054999Y-36430000D01*
G75*
G02*
X102805000Y-36180001I0J249999D01*
G01*
X102805000Y-35479999D01*
G75*
G02*
X103054999Y-35230000I249999J0D01*
G01*
G37*
%TD.AperFunction*%
%TD*%
D12*
%TO.P,Q1,3*%
%TO.N,Net-(DS1-Pad16)*%
X99330000Y-36830000D03*
%TO.P,Q1,2*%
%TO.N,GND*%
X101330000Y-37780000D03*
%TO.P,Q1,1*%
%TO.N,/P0.7*%
X101330000Y-35880000D03*
%TD*%
D13*
%TO.P,C4,2*%
%TO.N,GND*%
X57230000Y-42545000D03*
%TO.P,C4,1*%
%TO.N,VCC*%
X62230000Y-42545000D03*
%TD*%
D14*
%TO.P,C3,2*%
%TO.N,GND*%
X127952500Y-101600000D03*
D13*
%TO.P,C3,1*%
%TO.N,VCC*%
X127952500Y-78740000D03*
%TD*%
D14*
%TO.P,C2,2*%
%TO.N,GND*%
X119380000Y-45720000D03*
D13*
%TO.P,C2,1*%
%TO.N,VCC*%
X119380000Y-68580000D03*
%TD*%
D14*
%TO.P,C1,2*%
%TO.N,GND*%
X96520000Y-45720000D03*
D13*
%TO.P,C1,1*%
%TO.N,VCC*%
X96520000Y-68580000D03*
%TD*%
D15*
%TO.P,J9,2*%
%TO.N,GND*%
X126365000Y-106680000D03*
D16*
%TO.P,J9,1*%
X123825000Y-106680000D03*
%TD*%
%TA.AperFunction,SMDPad,CuDef*%
D17*
%TO.P,JP2,2*%
%TO.N,GND*%
G36*
X65290602Y-24130000D02*
G01*
X65290602Y-24105466D01*
X65295412Y-24056635D01*
X65304984Y-24008510D01*
X65319228Y-23961555D01*
X65338005Y-23916222D01*
X65361136Y-23872949D01*
X65388396Y-23832150D01*
X65419524Y-23794221D01*
X65454221Y-23759524D01*
X65492150Y-23728396D01*
X65532949Y-23701136D01*
X65576222Y-23678005D01*
X65621555Y-23659228D01*
X65668510Y-23644984D01*
X65716635Y-23635412D01*
X65765466Y-23630602D01*
X65790000Y-23630602D01*
X65790000Y-23630000D01*
X66290000Y-23630000D01*
X66290000Y-23630602D01*
X66314534Y-23630602D01*
X66363365Y-23635412D01*
X66411490Y-23644984D01*
X66458445Y-23659228D01*
X66503778Y-23678005D01*
X66547051Y-23701136D01*
X66587850Y-23728396D01*
X66625779Y-23759524D01*
X66660476Y-23794221D01*
X66691604Y-23832150D01*
X66718864Y-23872949D01*
X66741995Y-23916222D01*
X66760772Y-23961555D01*
X66775016Y-24008510D01*
X66784588Y-24056635D01*
X66789398Y-24105466D01*
X66789398Y-24130000D01*
X66790000Y-24130000D01*
X66790000Y-24630000D01*
X65290000Y-24630000D01*
X65290000Y-24130000D01*
X65290602Y-24130000D01*
G37*
%TD.AperFunction*%
%TA.AperFunction,SMDPad,CuDef*%
%TO.P,JP2,1*%
%TO.N,Net-(D9-Pad1)*%
G36*
X66790000Y-24930000D02*
G01*
X66790000Y-25430000D01*
X66789398Y-25430000D01*
X66789398Y-25454534D01*
X66784588Y-25503365D01*
X66775016Y-25551490D01*
X66760772Y-25598445D01*
X66741995Y-25643778D01*
X66718864Y-25687051D01*
X66691604Y-25727850D01*
X66660476Y-25765779D01*
X66625779Y-25800476D01*
X66587850Y-25831604D01*
X66547051Y-25858864D01*
X66503778Y-25881995D01*
X66458445Y-25900772D01*
X66411490Y-25915016D01*
X66363365Y-25924588D01*
X66314534Y-25929398D01*
X66290000Y-25929398D01*
X66290000Y-25930000D01*
X65790000Y-25930000D01*
X65790000Y-25929398D01*
X65765466Y-25929398D01*
X65716635Y-25924588D01*
X65668510Y-25915016D01*
X65621555Y-25900772D01*
X65576222Y-25881995D01*
X65532949Y-25858864D01*
X65492150Y-25831604D01*
X65454221Y-25800476D01*
X65419524Y-25765779D01*
X65388396Y-25727850D01*
X65361136Y-25687051D01*
X65338005Y-25643778D01*
X65319228Y-25598445D01*
X65304984Y-25551490D01*
X65295412Y-25503365D01*
X65290602Y-25454534D01*
X65290602Y-25430000D01*
X65290000Y-25430000D01*
X65290000Y-24930000D01*
X66790000Y-24930000D01*
G37*
%TD.AperFunction*%
%TD*%
%TA.AperFunction,SMDPad,CuDef*%
%TO.P,JP1,2*%
%TO.N,GND*%
G36*
X97155000Y-26555602D02*
G01*
X97179534Y-26555602D01*
X97228365Y-26560412D01*
X97276490Y-26569984D01*
X97323445Y-26584228D01*
X97368778Y-26603005D01*
X97412051Y-26626136D01*
X97452850Y-26653396D01*
X97490779Y-26684524D01*
X97525476Y-26719221D01*
X97556604Y-26757150D01*
X97583864Y-26797949D01*
X97606995Y-26841222D01*
X97625772Y-26886555D01*
X97640016Y-26933510D01*
X97649588Y-26981635D01*
X97654398Y-27030466D01*
X97654398Y-27055000D01*
X97655000Y-27055000D01*
X97655000Y-27555000D01*
X97654398Y-27555000D01*
X97654398Y-27579534D01*
X97649588Y-27628365D01*
X97640016Y-27676490D01*
X97625772Y-27723445D01*
X97606995Y-27768778D01*
X97583864Y-27812051D01*
X97556604Y-27852850D01*
X97525476Y-27890779D01*
X97490779Y-27925476D01*
X97452850Y-27956604D01*
X97412051Y-27983864D01*
X97368778Y-28006995D01*
X97323445Y-28025772D01*
X97276490Y-28040016D01*
X97228365Y-28049588D01*
X97179534Y-28054398D01*
X97155000Y-28054398D01*
X97155000Y-28055000D01*
X96655000Y-28055000D01*
X96655000Y-26555000D01*
X97155000Y-26555000D01*
X97155000Y-26555602D01*
G37*
%TD.AperFunction*%
%TA.AperFunction,SMDPad,CuDef*%
%TO.P,JP1,1*%
%TO.N,Net-(D1-Pad1)*%
G36*
X96355000Y-28055000D02*
G01*
X95855000Y-28055000D01*
X95855000Y-28054398D01*
X95830466Y-28054398D01*
X95781635Y-28049588D01*
X95733510Y-28040016D01*
X95686555Y-28025772D01*
X95641222Y-28006995D01*
X95597949Y-27983864D01*
X95557150Y-27956604D01*
X95519221Y-27925476D01*
X95484524Y-27890779D01*
X95453396Y-27852850D01*
X95426136Y-27812051D01*
X95403005Y-27768778D01*
X95384228Y-27723445D01*
X95369984Y-27676490D01*
X95360412Y-27628365D01*
X95355602Y-27579534D01*
X95355602Y-27555000D01*
X95355000Y-27555000D01*
X95355000Y-27055000D01*
X95355602Y-27055000D01*
X95355602Y-27030466D01*
X95360412Y-26981635D01*
X95369984Y-26933510D01*
X95384228Y-26886555D01*
X95403005Y-26841222D01*
X95426136Y-26797949D01*
X95453396Y-26757150D01*
X95484524Y-26719221D01*
X95519221Y-26684524D01*
X95557150Y-26653396D01*
X95597949Y-26626136D01*
X95641222Y-26603005D01*
X95686555Y-26584228D01*
X95733510Y-26569984D01*
X95781635Y-26560412D01*
X95830466Y-26555602D01*
X95855000Y-26555602D01*
X95855000Y-26555000D01*
X96355000Y-26555000D01*
X96355000Y-28055000D01*
G37*
%TD.AperFunction*%
%TD*%
D18*
%TO.P,D26,1*%
%TO.N,/IN0.0*%
X48260000Y-82400000D03*
%TO.P,D26,2*%
%TO.N,Net-(D12-Pad2)*%
X52760000Y-82400000D03*
%TO.P,D26,1*%
%TO.N,/IN0.0*%
X48260000Y-88900000D03*
%TO.P,D26,2*%
%TO.N,Net-(D12-Pad2)*%
X52760000Y-88900000D03*
%TD*%
%TO.P,D25,1*%
%TO.N,/IN0.0*%
X48260000Y-92560000D03*
%TO.P,D25,2*%
%TO.N,Net-(D11-Pad2)*%
X52760000Y-92560000D03*
%TO.P,D25,1*%
%TO.N,/IN0.0*%
X48260000Y-99060000D03*
%TO.P,D25,2*%
%TO.N,Net-(D11-Pad2)*%
X52760000Y-99060000D03*
%TD*%
%TO.P,D24,1*%
%TO.N,/IN0.1*%
X57150000Y-82400000D03*
%TO.P,D24,2*%
%TO.N,Net-(D12-Pad2)*%
X61650000Y-82400000D03*
%TO.P,D24,1*%
%TO.N,/IN0.1*%
X57150000Y-88900000D03*
%TO.P,D24,2*%
%TO.N,Net-(D12-Pad2)*%
X61650000Y-88900000D03*
%TD*%
%TO.P,D23,1*%
%TO.N,/IN0.1*%
X57150000Y-92560000D03*
%TO.P,D23,2*%
%TO.N,Net-(D11-Pad2)*%
X61650000Y-92560000D03*
%TO.P,D23,1*%
%TO.N,/IN0.1*%
X57150000Y-99060000D03*
%TO.P,D23,2*%
%TO.N,Net-(D11-Pad2)*%
X61650000Y-99060000D03*
%TD*%
%TO.P,D22,1*%
%TO.N,/IN0.2*%
X66040000Y-82400000D03*
%TO.P,D22,2*%
%TO.N,Net-(D12-Pad2)*%
X70540000Y-82400000D03*
%TO.P,D22,1*%
%TO.N,/IN0.2*%
X66040000Y-88900000D03*
%TO.P,D22,2*%
%TO.N,Net-(D12-Pad2)*%
X70540000Y-88900000D03*
%TD*%
%TO.P,D21,1*%
%TO.N,/IN0.2*%
X66040000Y-92560000D03*
%TO.P,D21,2*%
%TO.N,Net-(D11-Pad2)*%
X70540000Y-92560000D03*
%TO.P,D21,1*%
%TO.N,/IN0.2*%
X66040000Y-99060000D03*
%TO.P,D21,2*%
%TO.N,Net-(D11-Pad2)*%
X70540000Y-99060000D03*
%TD*%
%TO.P,D20,1*%
%TO.N,/IN0.3*%
X74930000Y-82400000D03*
%TO.P,D20,2*%
%TO.N,Net-(D12-Pad2)*%
X79430000Y-82400000D03*
%TO.P,D20,1*%
%TO.N,/IN0.3*%
X74930000Y-88900000D03*
%TO.P,D20,2*%
%TO.N,Net-(D12-Pad2)*%
X79430000Y-88900000D03*
%TD*%
%TO.P,D19,1*%
%TO.N,/IN0.3*%
X74930000Y-92560000D03*
%TO.P,D19,2*%
%TO.N,Net-(D11-Pad2)*%
X79430000Y-92560000D03*
%TO.P,D19,1*%
%TO.N,/IN0.3*%
X74930000Y-99060000D03*
%TO.P,D19,2*%
%TO.N,Net-(D11-Pad2)*%
X79430000Y-99060000D03*
%TD*%
%TO.P,D18,1*%
%TO.N,/IN0.4*%
X83820000Y-82400000D03*
%TO.P,D18,2*%
%TO.N,Net-(D12-Pad2)*%
X88320000Y-82400000D03*
%TO.P,D18,1*%
%TO.N,/IN0.4*%
X83820000Y-88900000D03*
%TO.P,D18,2*%
%TO.N,Net-(D12-Pad2)*%
X88320000Y-88900000D03*
%TD*%
%TO.P,D17,1*%
%TO.N,/IN0.4*%
X83820000Y-92560000D03*
%TO.P,D17,2*%
%TO.N,Net-(D11-Pad2)*%
X88320000Y-92560000D03*
%TO.P,D17,1*%
%TO.N,/IN0.4*%
X83820000Y-99060000D03*
%TO.P,D17,2*%
%TO.N,Net-(D11-Pad2)*%
X88320000Y-99060000D03*
%TD*%
%TO.P,D16,1*%
%TO.N,/IN0.5*%
X92710000Y-82400000D03*
%TO.P,D16,2*%
%TO.N,Net-(D12-Pad2)*%
X97210000Y-82400000D03*
%TO.P,D16,1*%
%TO.N,/IN0.5*%
X92710000Y-88900000D03*
%TO.P,D16,2*%
%TO.N,Net-(D12-Pad2)*%
X97210000Y-88900000D03*
%TD*%
%TO.P,D15,1*%
%TO.N,/IN0.5*%
X92710000Y-92560000D03*
%TO.P,D15,2*%
%TO.N,Net-(D11-Pad2)*%
X97210000Y-92560000D03*
%TO.P,D15,1*%
%TO.N,/IN0.5*%
X92710000Y-99060000D03*
%TO.P,D15,2*%
%TO.N,Net-(D11-Pad2)*%
X97210000Y-99060000D03*
%TD*%
%TO.P,D14,1*%
%TO.N,/IN0.6*%
X101600000Y-82400000D03*
%TO.P,D14,2*%
%TO.N,Net-(D12-Pad2)*%
X106100000Y-82400000D03*
%TO.P,D14,1*%
%TO.N,/IN0.6*%
X101600000Y-88900000D03*
%TO.P,D14,2*%
%TO.N,Net-(D12-Pad2)*%
X106100000Y-88900000D03*
%TD*%
%TO.P,D13,1*%
%TO.N,/IN0.6*%
X101600000Y-92560000D03*
%TO.P,D13,2*%
%TO.N,Net-(D11-Pad2)*%
X106100000Y-92560000D03*
%TO.P,D13,1*%
%TO.N,/IN0.6*%
X101600000Y-99060000D03*
%TO.P,D13,2*%
%TO.N,Net-(D11-Pad2)*%
X106100000Y-99060000D03*
%TD*%
%TO.P,D12,1*%
%TO.N,/IN0.7*%
X110490000Y-82400000D03*
%TO.P,D12,2*%
%TO.N,Net-(D12-Pad2)*%
X114990000Y-82400000D03*
%TO.P,D12,1*%
%TO.N,/IN0.7*%
X110490000Y-88900000D03*
%TO.P,D12,2*%
%TO.N,Net-(D12-Pad2)*%
X114990000Y-88900000D03*
%TD*%
%TO.P,D11,1*%
%TO.N,/IN0.7*%
X110490000Y-92560000D03*
%TO.P,D11,2*%
%TO.N,Net-(D11-Pad2)*%
X114990000Y-92560000D03*
%TO.P,D11,1*%
%TO.N,/IN0.7*%
X110490000Y-99060000D03*
%TO.P,D11,2*%
%TO.N,Net-(D11-Pad2)*%
X114990000Y-99060000D03*
%TD*%
D19*
%TO.P,D28,2*%
%TO.N,Net-(D12-Pad2)*%
X106680000Y-74612500D03*
%TO.P,D28,1*%
%TO.N,/P0.2*%
%TA.AperFunction,ComponentPad*%
G36*
G01*
X106230000Y-61112500D02*
X107130000Y-61112500D01*
G75*
G02*
X107530000Y-61512500I0J-400000D01*
G01*
X107530000Y-62312500D01*
G75*
G02*
X107130000Y-62712500I-400000J0D01*
G01*
X106230000Y-62712500D01*
G75*
G02*
X105830000Y-62312500I0J400000D01*
G01*
X105830000Y-61512500D01*
G75*
G02*
X106230000Y-61112500I400000J0D01*
G01*
G37*
%TD.AperFunction*%
%TD*%
%TO.P,D27,2*%
%TO.N,Net-(D11-Pad2)*%
X113030000Y-76200000D03*
%TO.P,D27,1*%
%TO.N,/P0.1*%
%TA.AperFunction,ComponentPad*%
G36*
G01*
X112580000Y-62700000D02*
X113480000Y-62700000D01*
G75*
G02*
X113880000Y-63100000I0J-400000D01*
G01*
X113880000Y-63900000D01*
G75*
G02*
X113480000Y-64300000I-400000J0D01*
G01*
X112580000Y-64300000D01*
G75*
G02*
X112180000Y-63900000I0J400000D01*
G01*
X112180000Y-63100000D01*
G75*
G02*
X112580000Y-62700000I400000J0D01*
G01*
G37*
%TD.AperFunction*%
%TD*%
D20*
%TO.P,U3,20*%
%TO.N,VCC*%
X131445000Y-78740000D03*
%TO.P,U3,10*%
%TO.N,GND*%
X123825000Y-101600000D03*
%TO.P,U3,19*%
%TO.N,/BUS7*%
X131445000Y-81280000D03*
%TO.P,U3,9*%
%TO.N,/IN0.0*%
X123825000Y-99060000D03*
%TO.P,U3,18*%
%TO.N,/BUS6*%
X131445000Y-83820000D03*
%TO.P,U3,8*%
%TO.N,/IN0.1*%
X123825000Y-96520000D03*
%TO.P,U3,17*%
%TO.N,/BUS5*%
X131445000Y-86360000D03*
%TO.P,U3,7*%
%TO.N,/IN0.2*%
X123825000Y-93980000D03*
%TO.P,U3,16*%
%TO.N,/BUS4*%
X131445000Y-88900000D03*
%TO.P,U3,6*%
%TO.N,/IN0.3*%
X123825000Y-91440000D03*
%TO.P,U3,15*%
%TO.N,/BUS3*%
X131445000Y-91440000D03*
%TO.P,U3,5*%
%TO.N,/IN0.4*%
X123825000Y-88900000D03*
%TO.P,U3,14*%
%TO.N,/BUS2*%
X131445000Y-93980000D03*
%TO.P,U3,4*%
%TO.N,/IN0.5*%
X123825000Y-86360000D03*
%TO.P,U3,13*%
%TO.N,/BUS1*%
X131445000Y-96520000D03*
%TO.P,U3,3*%
%TO.N,/IN0.6*%
X123825000Y-83820000D03*
%TO.P,U3,12*%
%TO.N,/BUS0*%
X131445000Y-99060000D03*
%TO.P,U3,2*%
%TO.N,/IN0.7*%
X123825000Y-81280000D03*
%TO.P,U3,11*%
%TO.N,/IN0.C*%
X131445000Y-101600000D03*
D21*
%TO.P,U3,1*%
%TO.N,/IN0.OE*%
X123825000Y-78740000D03*
%TD*%
%TO.P,R21,2*%
%TO.N,VCC*%
%TA.AperFunction,SMDPad,CuDef*%
G36*
G01*
X48710001Y-78070000D02*
X47809999Y-78070000D01*
G75*
G02*
X47560000Y-77820001I0J249999D01*
G01*
X47560000Y-77119999D01*
G75*
G02*
X47809999Y-76870000I249999J0D01*
G01*
X48710001Y-76870000D01*
G75*
G02*
X48960000Y-77119999I0J-249999D01*
G01*
X48960000Y-77820001D01*
G75*
G02*
X48710001Y-78070000I-249999J0D01*
G01*
G37*
%TD.AperFunction*%
%TO.P,R21,1*%
%TO.N,/IN0.0*%
%TA.AperFunction,SMDPad,CuDef*%
G36*
G01*
X48710001Y-80070000D02*
X47809999Y-80070000D01*
G75*
G02*
X47560000Y-79820001I0J249999D01*
G01*
X47560000Y-79119999D01*
G75*
G02*
X47809999Y-78870000I249999J0D01*
G01*
X48710001Y-78870000D01*
G75*
G02*
X48960000Y-79119999I0J-249999D01*
G01*
X48960000Y-79820001D01*
G75*
G02*
X48710001Y-80070000I-249999J0D01*
G01*
G37*
%TD.AperFunction*%
%TD*%
%TO.P,R20,2*%
%TO.N,VCC*%
%TA.AperFunction,SMDPad,CuDef*%
G36*
G01*
X57600001Y-78070000D02*
X56699999Y-78070000D01*
G75*
G02*
X56450000Y-77820001I0J249999D01*
G01*
X56450000Y-77119999D01*
G75*
G02*
X56699999Y-76870000I249999J0D01*
G01*
X57600001Y-76870000D01*
G75*
G02*
X57850000Y-77119999I0J-249999D01*
G01*
X57850000Y-77820001D01*
G75*
G02*
X57600001Y-78070000I-249999J0D01*
G01*
G37*
%TD.AperFunction*%
%TO.P,R20,1*%
%TO.N,/IN0.1*%
%TA.AperFunction,SMDPad,CuDef*%
G36*
G01*
X57600001Y-80070000D02*
X56699999Y-80070000D01*
G75*
G02*
X56450000Y-79820001I0J249999D01*
G01*
X56450000Y-79119999D01*
G75*
G02*
X56699999Y-78870000I249999J0D01*
G01*
X57600001Y-78870000D01*
G75*
G02*
X57850000Y-79119999I0J-249999D01*
G01*
X57850000Y-79820001D01*
G75*
G02*
X57600001Y-80070000I-249999J0D01*
G01*
G37*
%TD.AperFunction*%
%TD*%
%TO.P,R19,2*%
%TO.N,VCC*%
%TA.AperFunction,SMDPad,CuDef*%
G36*
G01*
X66490001Y-78070000D02*
X65589999Y-78070000D01*
G75*
G02*
X65340000Y-77820001I0J249999D01*
G01*
X65340000Y-77119999D01*
G75*
G02*
X65589999Y-76870000I249999J0D01*
G01*
X66490001Y-76870000D01*
G75*
G02*
X66740000Y-77119999I0J-249999D01*
G01*
X66740000Y-77820001D01*
G75*
G02*
X66490001Y-78070000I-249999J0D01*
G01*
G37*
%TD.AperFunction*%
%TO.P,R19,1*%
%TO.N,/IN0.2*%
%TA.AperFunction,SMDPad,CuDef*%
G36*
G01*
X66490001Y-80070000D02*
X65589999Y-80070000D01*
G75*
G02*
X65340000Y-79820001I0J249999D01*
G01*
X65340000Y-79119999D01*
G75*
G02*
X65589999Y-78870000I249999J0D01*
G01*
X66490001Y-78870000D01*
G75*
G02*
X66740000Y-79119999I0J-249999D01*
G01*
X66740000Y-79820001D01*
G75*
G02*
X66490001Y-80070000I-249999J0D01*
G01*
G37*
%TD.AperFunction*%
%TD*%
%TO.P,R18,2*%
%TO.N,VCC*%
%TA.AperFunction,SMDPad,CuDef*%
G36*
G01*
X75380001Y-78070000D02*
X74479999Y-78070000D01*
G75*
G02*
X74230000Y-77820001I0J249999D01*
G01*
X74230000Y-77119999D01*
G75*
G02*
X74479999Y-76870000I249999J0D01*
G01*
X75380001Y-76870000D01*
G75*
G02*
X75630000Y-77119999I0J-249999D01*
G01*
X75630000Y-77820001D01*
G75*
G02*
X75380001Y-78070000I-249999J0D01*
G01*
G37*
%TD.AperFunction*%
%TO.P,R18,1*%
%TO.N,/IN0.3*%
%TA.AperFunction,SMDPad,CuDef*%
G36*
G01*
X75380001Y-80070000D02*
X74479999Y-80070000D01*
G75*
G02*
X74230000Y-79820001I0J249999D01*
G01*
X74230000Y-79119999D01*
G75*
G02*
X74479999Y-78870000I249999J0D01*
G01*
X75380001Y-78870000D01*
G75*
G02*
X75630000Y-79119999I0J-249999D01*
G01*
X75630000Y-79820001D01*
G75*
G02*
X75380001Y-80070000I-249999J0D01*
G01*
G37*
%TD.AperFunction*%
%TD*%
%TO.P,R17,2*%
%TO.N,VCC*%
%TA.AperFunction,SMDPad,CuDef*%
G36*
G01*
X84270001Y-78070000D02*
X83369999Y-78070000D01*
G75*
G02*
X83120000Y-77820001I0J249999D01*
G01*
X83120000Y-77119999D01*
G75*
G02*
X83369999Y-76870000I249999J0D01*
G01*
X84270001Y-76870000D01*
G75*
G02*
X84520000Y-77119999I0J-249999D01*
G01*
X84520000Y-77820001D01*
G75*
G02*
X84270001Y-78070000I-249999J0D01*
G01*
G37*
%TD.AperFunction*%
%TO.P,R17,1*%
%TO.N,/IN0.4*%
%TA.AperFunction,SMDPad,CuDef*%
G36*
G01*
X84270001Y-80070000D02*
X83369999Y-80070000D01*
G75*
G02*
X83120000Y-79820001I0J249999D01*
G01*
X83120000Y-79119999D01*
G75*
G02*
X83369999Y-78870000I249999J0D01*
G01*
X84270001Y-78870000D01*
G75*
G02*
X84520000Y-79119999I0J-249999D01*
G01*
X84520000Y-79820001D01*
G75*
G02*
X84270001Y-80070000I-249999J0D01*
G01*
G37*
%TD.AperFunction*%
%TD*%
%TO.P,R16,2*%
%TO.N,VCC*%
%TA.AperFunction,SMDPad,CuDef*%
G36*
G01*
X93160001Y-78070000D02*
X92259999Y-78070000D01*
G75*
G02*
X92010000Y-77820001I0J249999D01*
G01*
X92010000Y-77119999D01*
G75*
G02*
X92259999Y-76870000I249999J0D01*
G01*
X93160001Y-76870000D01*
G75*
G02*
X93410000Y-77119999I0J-249999D01*
G01*
X93410000Y-77820001D01*
G75*
G02*
X93160001Y-78070000I-249999J0D01*
G01*
G37*
%TD.AperFunction*%
%TO.P,R16,1*%
%TO.N,/IN0.5*%
%TA.AperFunction,SMDPad,CuDef*%
G36*
G01*
X93160001Y-80070000D02*
X92259999Y-80070000D01*
G75*
G02*
X92010000Y-79820001I0J249999D01*
G01*
X92010000Y-79119999D01*
G75*
G02*
X92259999Y-78870000I249999J0D01*
G01*
X93160001Y-78870000D01*
G75*
G02*
X93410000Y-79119999I0J-249999D01*
G01*
X93410000Y-79820001D01*
G75*
G02*
X93160001Y-80070000I-249999J0D01*
G01*
G37*
%TD.AperFunction*%
%TD*%
%TO.P,R15,2*%
%TO.N,VCC*%
%TA.AperFunction,SMDPad,CuDef*%
G36*
G01*
X102050001Y-78070000D02*
X101149999Y-78070000D01*
G75*
G02*
X100900000Y-77820001I0J249999D01*
G01*
X100900000Y-77119999D01*
G75*
G02*
X101149999Y-76870000I249999J0D01*
G01*
X102050001Y-76870000D01*
G75*
G02*
X102300000Y-77119999I0J-249999D01*
G01*
X102300000Y-77820001D01*
G75*
G02*
X102050001Y-78070000I-249999J0D01*
G01*
G37*
%TD.AperFunction*%
%TO.P,R15,1*%
%TO.N,/IN0.6*%
%TA.AperFunction,SMDPad,CuDef*%
G36*
G01*
X102050001Y-80070000D02*
X101149999Y-80070000D01*
G75*
G02*
X100900000Y-79820001I0J249999D01*
G01*
X100900000Y-79119999D01*
G75*
G02*
X101149999Y-78870000I249999J0D01*
G01*
X102050001Y-78870000D01*
G75*
G02*
X102300000Y-79119999I0J-249999D01*
G01*
X102300000Y-79820001D01*
G75*
G02*
X102050001Y-80070000I-249999J0D01*
G01*
G37*
%TD.AperFunction*%
%TD*%
%TO.P,R14,2*%
%TO.N,VCC*%
%TA.AperFunction,SMDPad,CuDef*%
G36*
G01*
X110305001Y-78340000D02*
X109404999Y-78340000D01*
G75*
G02*
X109155000Y-78090001I0J249999D01*
G01*
X109155000Y-77389999D01*
G75*
G02*
X109404999Y-77140000I249999J0D01*
G01*
X110305001Y-77140000D01*
G75*
G02*
X110555000Y-77389999I0J-249999D01*
G01*
X110555000Y-78090001D01*
G75*
G02*
X110305001Y-78340000I-249999J0D01*
G01*
G37*
%TD.AperFunction*%
%TO.P,R14,1*%
%TO.N,/IN0.7*%
%TA.AperFunction,SMDPad,CuDef*%
G36*
G01*
X110305001Y-80340000D02*
X109404999Y-80340000D01*
G75*
G02*
X109155000Y-80090001I0J249999D01*
G01*
X109155000Y-79389999D01*
G75*
G02*
X109404999Y-79140000I249999J0D01*
G01*
X110305001Y-79140000D01*
G75*
G02*
X110555000Y-79389999I0J-249999D01*
G01*
X110555000Y-80090001D01*
G75*
G02*
X110305001Y-80340000I-249999J0D01*
G01*
G37*
%TD.AperFunction*%
%TD*%
D15*
%TO.P,J7,2*%
%TO.N,/IN0.OE*%
X135572500Y-76200000D03*
D16*
%TO.P,J7,1*%
%TO.N,/IN0.C*%
X135572500Y-73660000D03*
%TD*%
D22*
%TO.P,J6,9*%
%TO.N,GND*%
X135572500Y-101600000D03*
%TO.P,J6,8*%
%TO.N,/BUS0*%
X135572500Y-99060000D03*
D15*
%TO.P,J6,7*%
%TO.N,/BUS1*%
X135572500Y-96520000D03*
%TO.P,J6,6*%
%TO.N,/BUS2*%
X135572500Y-93980000D03*
%TO.P,J6,5*%
%TO.N,/BUS3*%
X135572500Y-91440000D03*
%TO.P,J6,4*%
%TO.N,/BUS4*%
X135572500Y-88900000D03*
%TO.P,J6,3*%
%TO.N,/BUS5*%
X135572500Y-86360000D03*
%TO.P,J6,2*%
%TO.N,/BUS6*%
X135572500Y-83820000D03*
D16*
%TO.P,J6,1*%
%TO.N,/BUS7*%
X135572500Y-81280000D03*
%TD*%
D14*
%TO.P,R1,2*%
%TO.N,Net-(DS1-Pad15)*%
X89535000Y-43815000D03*
D13*
%TO.P,R1,1*%
%TO.N,VCC*%
X74295000Y-43815000D03*
%TD*%
D15*
%TO.P,J1,9*%
%TO.N,GND*%
X135572500Y-68580000D03*
%TO.P,J1,8*%
%TO.N,/D0*%
X135572500Y-66040000D03*
%TO.P,J1,7*%
%TO.N,/D1*%
X135572500Y-63500000D03*
%TO.P,J1,6*%
%TO.N,/D2*%
X135572500Y-60960000D03*
%TO.P,J1,5*%
%TO.N,/D3*%
X135572500Y-58420000D03*
%TO.P,J1,4*%
%TO.N,/D4*%
X135572500Y-55880000D03*
%TO.P,J1,3*%
%TO.N,/D5*%
X135572500Y-53340000D03*
%TO.P,J1,2*%
%TO.N,/D6*%
X135572500Y-50800000D03*
D16*
%TO.P,J1,1*%
%TO.N,/D7*%
X135572500Y-48260000D03*
%TD*%
%TO.P,R13,2*%
%TO.N,/D7*%
%TA.AperFunction,SMDPad,CuDef*%
G36*
G01*
X90989999Y-34055000D02*
X91890001Y-34055000D01*
G75*
G02*
X92140000Y-34304999I0J-249999D01*
G01*
X92140000Y-35005001D01*
G75*
G02*
X91890001Y-35255000I-249999J0D01*
G01*
X90989999Y-35255000D01*
G75*
G02*
X90740000Y-35005001I0J249999D01*
G01*
X90740000Y-34304999D01*
G75*
G02*
X90989999Y-34055000I249999J0D01*
G01*
G37*
%TD.AperFunction*%
%TO.P,R13,1*%
%TO.N,Net-(D10-Pad2)*%
%TA.AperFunction,SMDPad,CuDef*%
G36*
G01*
X90989999Y-32055000D02*
X91890001Y-32055000D01*
G75*
G02*
X92140000Y-32304999I0J-249999D01*
G01*
X92140000Y-33005001D01*
G75*
G02*
X91890001Y-33255000I-249999J0D01*
G01*
X90989999Y-33255000D01*
G75*
G02*
X90740000Y-33005001I0J249999D01*
G01*
X90740000Y-32304999D01*
G75*
G02*
X90989999Y-32055000I249999J0D01*
G01*
G37*
%TD.AperFunction*%
%TD*%
%TO.P,R12,2*%
%TO.N,/P0.0*%
%TA.AperFunction,SMDPad,CuDef*%
G36*
G01*
X65589999Y-34055000D02*
X66490001Y-34055000D01*
G75*
G02*
X66740000Y-34304999I0J-249999D01*
G01*
X66740000Y-35005001D01*
G75*
G02*
X66490001Y-35255000I-249999J0D01*
G01*
X65589999Y-35255000D01*
G75*
G02*
X65340000Y-35005001I0J249999D01*
G01*
X65340000Y-34304999D01*
G75*
G02*
X65589999Y-34055000I249999J0D01*
G01*
G37*
%TD.AperFunction*%
%TO.P,R12,1*%
%TO.N,Net-(D9-Pad2)*%
%TA.AperFunction,SMDPad,CuDef*%
G36*
G01*
X65589999Y-32055000D02*
X66490001Y-32055000D01*
G75*
G02*
X66740000Y-32304999I0J-249999D01*
G01*
X66740000Y-33005001D01*
G75*
G02*
X66490001Y-33255000I-249999J0D01*
G01*
X65589999Y-33255000D01*
G75*
G02*
X65340000Y-33005001I0J249999D01*
G01*
X65340000Y-32304999D01*
G75*
G02*
X65589999Y-32055000I249999J0D01*
G01*
G37*
%TD.AperFunction*%
%TD*%
%TO.P,R11,2*%
%TO.N,/D6*%
%TA.AperFunction,SMDPad,CuDef*%
G36*
G01*
X88449999Y-34055000D02*
X89350001Y-34055000D01*
G75*
G02*
X89600000Y-34304999I0J-249999D01*
G01*
X89600000Y-35005001D01*
G75*
G02*
X89350001Y-35255000I-249999J0D01*
G01*
X88449999Y-35255000D01*
G75*
G02*
X88200000Y-35005001I0J249999D01*
G01*
X88200000Y-34304999D01*
G75*
G02*
X88449999Y-34055000I249999J0D01*
G01*
G37*
%TD.AperFunction*%
%TO.P,R11,1*%
%TO.N,Net-(D8-Pad2)*%
%TA.AperFunction,SMDPad,CuDef*%
G36*
G01*
X88449999Y-32055000D02*
X89350001Y-32055000D01*
G75*
G02*
X89600000Y-32304999I0J-249999D01*
G01*
X89600000Y-33005001D01*
G75*
G02*
X89350001Y-33255000I-249999J0D01*
G01*
X88449999Y-33255000D01*
G75*
G02*
X88200000Y-33005001I0J249999D01*
G01*
X88200000Y-32304999D01*
G75*
G02*
X88449999Y-32055000I249999J0D01*
G01*
G37*
%TD.AperFunction*%
%TD*%
%TO.P,R10,2*%
%TO.N,/OUT2*%
%TA.AperFunction,SMDPad,CuDef*%
G36*
G01*
X70669999Y-34055000D02*
X71570001Y-34055000D01*
G75*
G02*
X71820000Y-34304999I0J-249999D01*
G01*
X71820000Y-35005001D01*
G75*
G02*
X71570001Y-35255000I-249999J0D01*
G01*
X70669999Y-35255000D01*
G75*
G02*
X70420000Y-35005001I0J249999D01*
G01*
X70420000Y-34304999D01*
G75*
G02*
X70669999Y-34055000I249999J0D01*
G01*
G37*
%TD.AperFunction*%
%TO.P,R10,1*%
%TO.N,Net-(D7-Pad2)*%
%TA.AperFunction,SMDPad,CuDef*%
G36*
G01*
X70669999Y-32055000D02*
X71570001Y-32055000D01*
G75*
G02*
X71820000Y-32304999I0J-249999D01*
G01*
X71820000Y-33005001D01*
G75*
G02*
X71570001Y-33255000I-249999J0D01*
G01*
X70669999Y-33255000D01*
G75*
G02*
X70420000Y-33005001I0J249999D01*
G01*
X70420000Y-32304999D01*
G75*
G02*
X70669999Y-32055000I249999J0D01*
G01*
G37*
%TD.AperFunction*%
%TD*%
%TO.P,R9,2*%
%TO.N,/D5*%
%TA.AperFunction,SMDPad,CuDef*%
G36*
G01*
X85909999Y-34055000D02*
X86810001Y-34055000D01*
G75*
G02*
X87060000Y-34304999I0J-249999D01*
G01*
X87060000Y-35005001D01*
G75*
G02*
X86810001Y-35255000I-249999J0D01*
G01*
X85909999Y-35255000D01*
G75*
G02*
X85660000Y-35005001I0J249999D01*
G01*
X85660000Y-34304999D01*
G75*
G02*
X85909999Y-34055000I249999J0D01*
G01*
G37*
%TD.AperFunction*%
%TO.P,R9,1*%
%TO.N,Net-(D6-Pad2)*%
%TA.AperFunction,SMDPad,CuDef*%
G36*
G01*
X85909999Y-32055000D02*
X86810001Y-32055000D01*
G75*
G02*
X87060000Y-32304999I0J-249999D01*
G01*
X87060000Y-33005001D01*
G75*
G02*
X86810001Y-33255000I-249999J0D01*
G01*
X85909999Y-33255000D01*
G75*
G02*
X85660000Y-33005001I0J249999D01*
G01*
X85660000Y-32304999D01*
G75*
G02*
X85909999Y-32055000I249999J0D01*
G01*
G37*
%TD.AperFunction*%
%TD*%
%TO.P,R8,2*%
%TO.N,/D4*%
%TA.AperFunction,SMDPad,CuDef*%
G36*
G01*
X83369999Y-34055000D02*
X84270001Y-34055000D01*
G75*
G02*
X84520000Y-34304999I0J-249999D01*
G01*
X84520000Y-35005001D01*
G75*
G02*
X84270001Y-35255000I-249999J0D01*
G01*
X83369999Y-35255000D01*
G75*
G02*
X83120000Y-35005001I0J249999D01*
G01*
X83120000Y-34304999D01*
G75*
G02*
X83369999Y-34055000I249999J0D01*
G01*
G37*
%TD.AperFunction*%
%TO.P,R8,1*%
%TO.N,Net-(D5-Pad2)*%
%TA.AperFunction,SMDPad,CuDef*%
G36*
G01*
X83369999Y-32055000D02*
X84270001Y-32055000D01*
G75*
G02*
X84520000Y-32304999I0J-249999D01*
G01*
X84520000Y-33005001D01*
G75*
G02*
X84270001Y-33255000I-249999J0D01*
G01*
X83369999Y-33255000D01*
G75*
G02*
X83120000Y-33005001I0J249999D01*
G01*
X83120000Y-32304999D01*
G75*
G02*
X83369999Y-32055000I249999J0D01*
G01*
G37*
%TD.AperFunction*%
%TD*%
%TO.P,R7,2*%
%TO.N,/D3*%
%TA.AperFunction,SMDPad,CuDef*%
G36*
G01*
X80829999Y-34055000D02*
X81730001Y-34055000D01*
G75*
G02*
X81980000Y-34304999I0J-249999D01*
G01*
X81980000Y-35005001D01*
G75*
G02*
X81730001Y-35255000I-249999J0D01*
G01*
X80829999Y-35255000D01*
G75*
G02*
X80580000Y-35005001I0J249999D01*
G01*
X80580000Y-34304999D01*
G75*
G02*
X80829999Y-34055000I249999J0D01*
G01*
G37*
%TD.AperFunction*%
%TO.P,R7,1*%
%TO.N,Net-(D4-Pad2)*%
%TA.AperFunction,SMDPad,CuDef*%
G36*
G01*
X80829999Y-32055000D02*
X81730001Y-32055000D01*
G75*
G02*
X81980000Y-32304999I0J-249999D01*
G01*
X81980000Y-33005001D01*
G75*
G02*
X81730001Y-33255000I-249999J0D01*
G01*
X80829999Y-33255000D01*
G75*
G02*
X80580000Y-33005001I0J249999D01*
G01*
X80580000Y-32304999D01*
G75*
G02*
X80829999Y-32055000I249999J0D01*
G01*
G37*
%TD.AperFunction*%
%TD*%
%TO.P,R6,2*%
%TO.N,/D2*%
%TA.AperFunction,SMDPad,CuDef*%
G36*
G01*
X78289999Y-34055000D02*
X79190001Y-34055000D01*
G75*
G02*
X79440000Y-34304999I0J-249999D01*
G01*
X79440000Y-35005001D01*
G75*
G02*
X79190001Y-35255000I-249999J0D01*
G01*
X78289999Y-35255000D01*
G75*
G02*
X78040000Y-35005001I0J249999D01*
G01*
X78040000Y-34304999D01*
G75*
G02*
X78289999Y-34055000I249999J0D01*
G01*
G37*
%TD.AperFunction*%
%TO.P,R6,1*%
%TO.N,Net-(D3-Pad2)*%
%TA.AperFunction,SMDPad,CuDef*%
G36*
G01*
X78289999Y-32055000D02*
X79190001Y-32055000D01*
G75*
G02*
X79440000Y-32304999I0J-249999D01*
G01*
X79440000Y-33005001D01*
G75*
G02*
X79190001Y-33255000I-249999J0D01*
G01*
X78289999Y-33255000D01*
G75*
G02*
X78040000Y-33005001I0J249999D01*
G01*
X78040000Y-32304999D01*
G75*
G02*
X78289999Y-32055000I249999J0D01*
G01*
G37*
%TD.AperFunction*%
%TD*%
%TO.P,R5,2*%
%TO.N,/D1*%
%TA.AperFunction,SMDPad,CuDef*%
G36*
G01*
X75749999Y-34055000D02*
X76650001Y-34055000D01*
G75*
G02*
X76900000Y-34304999I0J-249999D01*
G01*
X76900000Y-35005001D01*
G75*
G02*
X76650001Y-35255000I-249999J0D01*
G01*
X75749999Y-35255000D01*
G75*
G02*
X75500000Y-35005001I0J249999D01*
G01*
X75500000Y-34304999D01*
G75*
G02*
X75749999Y-34055000I249999J0D01*
G01*
G37*
%TD.AperFunction*%
%TO.P,R5,1*%
%TO.N,Net-(D2-Pad2)*%
%TA.AperFunction,SMDPad,CuDef*%
G36*
G01*
X75749999Y-32055000D02*
X76650001Y-32055000D01*
G75*
G02*
X76900000Y-32304999I0J-249999D01*
G01*
X76900000Y-33005001D01*
G75*
G02*
X76650001Y-33255000I-249999J0D01*
G01*
X75749999Y-33255000D01*
G75*
G02*
X75500000Y-33005001I0J249999D01*
G01*
X75500000Y-32304999D01*
G75*
G02*
X75749999Y-32055000I249999J0D01*
G01*
G37*
%TD.AperFunction*%
%TD*%
%TO.P,R4,2*%
%TO.N,/D0*%
%TA.AperFunction,SMDPad,CuDef*%
G36*
G01*
X73209999Y-34055000D02*
X74110001Y-34055000D01*
G75*
G02*
X74360000Y-34304999I0J-249999D01*
G01*
X74360000Y-35005001D01*
G75*
G02*
X74110001Y-35255000I-249999J0D01*
G01*
X73209999Y-35255000D01*
G75*
G02*
X72960000Y-35005001I0J249999D01*
G01*
X72960000Y-34304999D01*
G75*
G02*
X73209999Y-34055000I249999J0D01*
G01*
G37*
%TD.AperFunction*%
%TO.P,R4,1*%
%TO.N,Net-(D1-Pad2)*%
%TA.AperFunction,SMDPad,CuDef*%
G36*
G01*
X73209999Y-32055000D02*
X74110001Y-32055000D01*
G75*
G02*
X74360000Y-32304999I0J-249999D01*
G01*
X74360000Y-33005001D01*
G75*
G02*
X74110001Y-33255000I-249999J0D01*
G01*
X73209999Y-33255000D01*
G75*
G02*
X72960000Y-33005001I0J249999D01*
G01*
X72960000Y-32304999D01*
G75*
G02*
X73209999Y-32055000I249999J0D01*
G01*
G37*
%TD.AperFunction*%
%TD*%
D23*
%TO.P,J5,4*%
%TO.N,/OUT0*%
X135572500Y-43180000D03*
%TO.P,J5,3*%
%TO.N,/OUT1*%
X135572500Y-40640000D03*
D15*
%TO.P,J5,2*%
%TO.N,/OUT2*%
X135572500Y-38100000D03*
D16*
%TO.P,J5,1*%
%TO.N,GND*%
X135572500Y-35560000D03*
%TD*%
D20*
%TO.P,D10,2*%
%TO.N,Net-(D10-Pad2)*%
X91440000Y-29845000D03*
D21*
%TO.P,D10,1*%
%TO.N,Net-(D1-Pad1)*%
X91440000Y-27305000D03*
%TD*%
D24*
%TO.P,D9,2*%
%TO.N,Net-(D9-Pad2)*%
X66040000Y-29845000D03*
D25*
%TO.P,D9,1*%
%TO.N,Net-(D9-Pad1)*%
X66040000Y-27305000D03*
%TD*%
D20*
%TO.P,D8,2*%
%TO.N,Net-(D8-Pad2)*%
X88900000Y-29845000D03*
D21*
%TO.P,D8,1*%
%TO.N,Net-(D1-Pad1)*%
X88900000Y-27305000D03*
%TD*%
D20*
%TO.P,D7,2*%
%TO.N,Net-(D7-Pad2)*%
X71120000Y-29845000D03*
D21*
%TO.P,D7,1*%
%TO.N,Net-(D1-Pad1)*%
X71120000Y-27305000D03*
%TD*%
D20*
%TO.P,D6,2*%
%TO.N,Net-(D6-Pad2)*%
X86360000Y-29845000D03*
D21*
%TO.P,D6,1*%
%TO.N,Net-(D1-Pad1)*%
X86360000Y-27305000D03*
%TD*%
D20*
%TO.P,D5,2*%
%TO.N,Net-(D5-Pad2)*%
X83820000Y-29845000D03*
D21*
%TO.P,D5,1*%
%TO.N,Net-(D1-Pad1)*%
X83820000Y-27305000D03*
%TD*%
D20*
%TO.P,D4,2*%
%TO.N,Net-(D4-Pad2)*%
X81280000Y-29845000D03*
D21*
%TO.P,D4,1*%
%TO.N,Net-(D1-Pad1)*%
X81280000Y-27305000D03*
%TD*%
D20*
%TO.P,D3,2*%
%TO.N,Net-(D3-Pad2)*%
X78740000Y-29845000D03*
D21*
%TO.P,D3,1*%
%TO.N,Net-(D1-Pad1)*%
X78740000Y-27305000D03*
%TD*%
D20*
%TO.P,D2,2*%
%TO.N,Net-(D2-Pad2)*%
X76200000Y-29845000D03*
D21*
%TO.P,D2,1*%
%TO.N,Net-(D1-Pad1)*%
X76200000Y-27305000D03*
%TD*%
D20*
%TO.P,D1,2*%
%TO.N,Net-(D1-Pad2)*%
X73660000Y-29845000D03*
D21*
%TO.P,D1,1*%
%TO.N,Net-(D1-Pad1)*%
X73660000Y-27305000D03*
%TD*%
%TO.P,R3,2*%
%TO.N,GND*%
%TA.AperFunction,SMDPad,CuDef*%
G36*
G01*
X139147500Y-41090001D02*
X139147500Y-40189999D01*
G75*
G02*
X139397499Y-39940000I249999J0D01*
G01*
X140097501Y-39940000D01*
G75*
G02*
X140347500Y-40189999I0J-249999D01*
G01*
X140347500Y-41090001D01*
G75*
G02*
X140097501Y-41340000I-249999J0D01*
G01*
X139397499Y-41340000D01*
G75*
G02*
X139147500Y-41090001I0J249999D01*
G01*
G37*
%TD.AperFunction*%
%TO.P,R3,1*%
%TO.N,/OUT1*%
%TA.AperFunction,SMDPad,CuDef*%
G36*
G01*
X137147500Y-41090001D02*
X137147500Y-40189999D01*
G75*
G02*
X137397499Y-39940000I249999J0D01*
G01*
X138097501Y-39940000D01*
G75*
G02*
X138347500Y-40189999I0J-249999D01*
G01*
X138347500Y-41090001D01*
G75*
G02*
X138097501Y-41340000I-249999J0D01*
G01*
X137397499Y-41340000D01*
G75*
G02*
X137147500Y-41090001I0J249999D01*
G01*
G37*
%TD.AperFunction*%
%TD*%
%TO.P,R2,2*%
%TO.N,GND*%
%TA.AperFunction,SMDPad,CuDef*%
G36*
G01*
X139147500Y-43630001D02*
X139147500Y-42729999D01*
G75*
G02*
X139397499Y-42480000I249999J0D01*
G01*
X140097501Y-42480000D01*
G75*
G02*
X140347500Y-42729999I0J-249999D01*
G01*
X140347500Y-43630001D01*
G75*
G02*
X140097501Y-43880000I-249999J0D01*
G01*
X139397499Y-43880000D01*
G75*
G02*
X139147500Y-43630001I0J249999D01*
G01*
G37*
%TD.AperFunction*%
%TO.P,R2,1*%
%TO.N,/OUT0*%
%TA.AperFunction,SMDPad,CuDef*%
G36*
G01*
X137147500Y-43630001D02*
X137147500Y-42729999D01*
G75*
G02*
X137397499Y-42480000I249999J0D01*
G01*
X138097501Y-42480000D01*
G75*
G02*
X138347500Y-42729999I0J-249999D01*
G01*
X138347500Y-43630001D01*
G75*
G02*
X138097501Y-43880000I-249999J0D01*
G01*
X137397499Y-43880000D01*
G75*
G02*
X137147500Y-43630001I0J249999D01*
G01*
G37*
%TD.AperFunction*%
%TD*%
D15*
%TO.P,DS1,16*%
%TO.N,Net-(DS1-Pad16)*%
X96520000Y-36830000D03*
%TO.P,DS1,15*%
%TO.N,Net-(DS1-Pad15)*%
X93980000Y-36830000D03*
%TO.P,DS1,14*%
%TO.N,/D7*%
X91440000Y-36830000D03*
%TO.P,DS1,13*%
%TO.N,/D6*%
X88900000Y-36830000D03*
%TO.P,DS1,12*%
%TO.N,/D5*%
X86360000Y-36830000D03*
%TO.P,DS1,11*%
%TO.N,/D4*%
X83820000Y-36830000D03*
%TO.P,DS1,10*%
%TO.N,/D3*%
X81280000Y-36830000D03*
%TO.P,DS1,9*%
%TO.N,/D2*%
X78740000Y-36830000D03*
%TO.P,DS1,8*%
%TO.N,/D1*%
X76200000Y-36830000D03*
%TO.P,DS1,7*%
%TO.N,/D0*%
X73660000Y-36830000D03*
%TO.P,DS1,6*%
%TO.N,/OUT2*%
X71120000Y-36830000D03*
%TO.P,DS1,5*%
%TO.N,GND*%
X68580000Y-36830000D03*
%TO.P,DS1,4*%
%TO.N,/P0.0*%
X66040000Y-36830000D03*
%TO.P,DS1,3*%
%TO.N,Net-(DS1-Pad3)*%
X63500000Y-36830000D03*
%TO.P,DS1,2*%
%TO.N,VCC*%
X60960000Y-36830000D03*
D16*
%TO.P,DS1,1*%
%TO.N,GND*%
X58420000Y-36830000D03*
%TD*%
D20*
%TO.P,J2,9*%
%TO.N,/P0.7*%
X110490000Y-48260000D03*
%TO.P,J2,8*%
%TO.N,/P0.6*%
X110490000Y-50800000D03*
%TO.P,J2,7*%
%TO.N,/P0.5*%
X110490000Y-53340000D03*
%TO.P,J2,6*%
%TO.N,/P0.4*%
X110490000Y-55880000D03*
%TO.P,J2,5*%
%TO.N,/P0.3*%
X110490000Y-58420000D03*
%TO.P,J2,4*%
%TO.N,/P0.2*%
X110490000Y-60960000D03*
%TO.P,J2,3*%
%TO.N,/P0.1*%
X110490000Y-63500000D03*
%TO.P,J2,2*%
%TO.N,/P0.0*%
X110490000Y-66040000D03*
D21*
%TO.P,J2,1*%
%TO.N,GND*%
X110490000Y-68580000D03*
%TD*%
%TO.P,J3,1*%
%TO.N,GND*%
X88265000Y-68580000D03*
D20*
%TO.P,J3,2*%
%TO.N,/P1.0*%
X88265000Y-66040000D03*
%TO.P,J3,3*%
%TO.N,/P1.1*%
X88265000Y-63500000D03*
%TO.P,J3,4*%
%TO.N,/P1.2*%
X88265000Y-60960000D03*
%TO.P,J3,5*%
%TO.N,/P1.3*%
X88265000Y-58420000D03*
%TO.P,J3,6*%
%TO.N,/P1.4*%
X88265000Y-55880000D03*
%TO.P,J3,7*%
%TO.N,/P1.5*%
X88265000Y-53340000D03*
%TO.P,J3,8*%
%TO.N,/P1.6*%
X88265000Y-50800000D03*
%TO.P,J3,9*%
%TO.N,/P1.7*%
X88265000Y-48260000D03*
%TD*%
D26*
%TO.P,J4,1*%
%TO.N,VCC*%
X116522500Y-31115000D03*
D27*
%TO.P,J4,2*%
%TO.N,GND*%
X116522500Y-26115000D03*
%TD*%
D28*
%TO.P,RV1,2*%
%TO.N,Net-(DS1-Pad3)*%
X62230000Y-28575000D03*
D29*
%TO.P,RV1,1*%
%TO.N,GND*%
X57150000Y-26035000D03*
%TO.P,RV1,3*%
%TO.N,VCC*%
X57150000Y-31115000D03*
%TD*%
D21*
%TO.P,U1,1*%
%TO.N,GND*%
X123190000Y-68580000D03*
D20*
%TO.P,U1,11*%
%TO.N,/OUT0*%
X115570000Y-45720000D03*
%TO.P,U1,2*%
%TO.N,/D0*%
X123190000Y-66040000D03*
%TO.P,U1,12*%
%TO.N,/P0.7*%
X115570000Y-48260000D03*
%TO.P,U1,3*%
%TO.N,/D1*%
X123190000Y-63500000D03*
%TO.P,U1,13*%
%TO.N,/P0.6*%
X115570000Y-50800000D03*
%TO.P,U1,4*%
%TO.N,/D2*%
X123190000Y-60960000D03*
%TO.P,U1,14*%
%TO.N,/P0.5*%
X115570000Y-53340000D03*
%TO.P,U1,5*%
%TO.N,/D3*%
X123190000Y-58420000D03*
%TO.P,U1,15*%
%TO.N,/P0.4*%
X115570000Y-55880000D03*
%TO.P,U1,6*%
%TO.N,/D4*%
X123190000Y-55880000D03*
%TO.P,U1,16*%
%TO.N,/P0.3*%
X115570000Y-58420000D03*
%TO.P,U1,7*%
%TO.N,/D5*%
X123190000Y-53340000D03*
%TO.P,U1,17*%
%TO.N,/P0.2*%
X115570000Y-60960000D03*
%TO.P,U1,8*%
%TO.N,/D6*%
X123190000Y-50800000D03*
%TO.P,U1,18*%
%TO.N,/P0.1*%
X115570000Y-63500000D03*
%TO.P,U1,9*%
%TO.N,/D7*%
X123190000Y-48260000D03*
%TO.P,U1,19*%
%TO.N,/P0.0*%
X115570000Y-66040000D03*
%TO.P,U1,10*%
%TO.N,GND*%
X123190000Y-45720000D03*
%TO.P,U1,20*%
%TO.N,VCC*%
X115570000Y-68580000D03*
%TD*%
%TO.P,U2,20*%
%TO.N,VCC*%
X92710000Y-68580000D03*
%TO.P,U2,10*%
%TO.N,GND*%
X100330000Y-45720000D03*
%TO.P,U2,19*%
%TO.N,/P1.0*%
X92710000Y-66040000D03*
%TO.P,U2,9*%
%TO.N,/D7*%
X100330000Y-48260000D03*
%TO.P,U2,18*%
%TO.N,/P1.1*%
X92710000Y-63500000D03*
%TO.P,U2,8*%
%TO.N,/D6*%
X100330000Y-50800000D03*
%TO.P,U2,17*%
%TO.N,/P1.2*%
X92710000Y-60960000D03*
%TO.P,U2,7*%
%TO.N,/D5*%
X100330000Y-53340000D03*
%TO.P,U2,16*%
%TO.N,/P1.3*%
X92710000Y-58420000D03*
%TO.P,U2,6*%
%TO.N,/D4*%
X100330000Y-55880000D03*
%TO.P,U2,15*%
%TO.N,/P1.4*%
X92710000Y-55880000D03*
%TO.P,U2,5*%
%TO.N,/D3*%
X100330000Y-58420000D03*
%TO.P,U2,14*%
%TO.N,/P1.5*%
X92710000Y-53340000D03*
%TO.P,U2,4*%
%TO.N,/D2*%
X100330000Y-60960000D03*
%TO.P,U2,13*%
%TO.N,/P1.6*%
X92710000Y-50800000D03*
%TO.P,U2,3*%
%TO.N,/D1*%
X100330000Y-63500000D03*
%TO.P,U2,12*%
%TO.N,/P1.7*%
X92710000Y-48260000D03*
%TO.P,U2,2*%
%TO.N,/D0*%
X100330000Y-66040000D03*
%TO.P,U2,11*%
%TO.N,/OUT1*%
X92710000Y-45720000D03*
D21*
%TO.P,U2,1*%
%TO.N,GND*%
X100330000Y-68580000D03*
%TD*%
D30*
%TO.P,J8,1*%
%TO.N,/IN0.7*%
X120967500Y-81280000D03*
D23*
%TO.P,J8,2*%
%TO.N,/IN0.6*%
X120967500Y-83820000D03*
D31*
%TO.P,J8,3*%
%TO.N,/IN0.5*%
X120967500Y-86360000D03*
D23*
%TO.P,J8,4*%
%TO.N,/IN0.4*%
X120967500Y-88900000D03*
%TO.P,J8,5*%
%TO.N,/IN0.3*%
X120967500Y-91440000D03*
D31*
%TO.P,J8,6*%
%TO.N,/IN0.2*%
X120967500Y-93980000D03*
%TO.P,J8,7*%
%TO.N,/IN0.1*%
X120967500Y-96520000D03*
%TO.P,J8,8*%
%TO.N,/IN0.0*%
X120967500Y-99060000D03*
%TD*%
D32*
%TO.N,VCC*%
X132715000Y-74295000D03*
X132715000Y-34290000D03*
%TO.N,GND*%
X103505000Y-43815000D03*
X103505000Y-39370000D03*
%TO.N,/P0.7*%
X106680000Y-39370000D03*
X106680000Y-48260000D03*
%TO.N,/P0.0*%
X93980000Y-71120000D03*
X105410000Y-67945000D03*
%TO.N,/IN0.6*%
X113665000Y-79375000D03*
X104045000Y-79470000D03*
%TD*%
D33*
%TO.N,VCC*%
X95250000Y-73660000D02*
X96520000Y-72390000D01*
X64770000Y-57150000D02*
X81280000Y-73660000D01*
X64770000Y-43180000D02*
X64770000Y-57150000D01*
D34*
X109855000Y-77740000D02*
X109855000Y-72390000D01*
X48260000Y-77470000D02*
X57150000Y-77470000D01*
X57150000Y-77470000D02*
X66040000Y-77470000D01*
X66040000Y-77470000D02*
X74930000Y-77470000D01*
X74930000Y-77470000D02*
X83820000Y-77470000D01*
X92710000Y-77470000D02*
X101600000Y-77470000D01*
D33*
X131445000Y-78740000D02*
X131445000Y-75565000D01*
D34*
X88900000Y-77470000D02*
X88900000Y-73660000D01*
D33*
X88900000Y-73660000D02*
X95250000Y-73660000D01*
X81280000Y-73660000D02*
X88900000Y-73660000D01*
D34*
X83820000Y-77470000D02*
X88900000Y-77470000D01*
X88900000Y-77470000D02*
X92710000Y-77470000D01*
D33*
X129540000Y-75565000D02*
X131445000Y-75565000D01*
X131445000Y-75565000D02*
X132715000Y-74295000D01*
X60960000Y-36830000D02*
X60960000Y-41275000D01*
X57150000Y-31115000D02*
X60960000Y-34925000D01*
X60960000Y-34925000D02*
X60960000Y-36830000D01*
X130810000Y-32385000D02*
X132715000Y-34290000D01*
X129540000Y-31115000D02*
X130810000Y-32385000D01*
X116522500Y-31115000D02*
X129540000Y-31115000D01*
D35*
X131227500Y-78522500D02*
X131445000Y-78740000D01*
D34*
X127952500Y-78740000D02*
X131545000Y-78740000D01*
D33*
X69850000Y-43815000D02*
X69215000Y-43180000D01*
X74295000Y-43815000D02*
X69850000Y-43815000D01*
X69215000Y-43180000D02*
X64770000Y-43180000D01*
D34*
X96520000Y-68580000D02*
X96520000Y-72390000D01*
X96520000Y-68580000D02*
X92710000Y-68580000D01*
X115570000Y-68580000D02*
X119380000Y-68580000D01*
D33*
X119380000Y-72390000D02*
X122555000Y-75565000D01*
X129540000Y-75565000D02*
X122555000Y-75565000D01*
D34*
X119380000Y-68580000D02*
X119380000Y-72390000D01*
D33*
X64135000Y-42545000D02*
X64770000Y-43180000D01*
X62230000Y-42545000D02*
X64135000Y-42545000D01*
X60960000Y-41275000D02*
X62230000Y-42545000D01*
X110490000Y-72390000D02*
X119380000Y-72390000D01*
X96520000Y-72390000D02*
X110490000Y-72390000D01*
D34*
%TO.N,GND*%
X68580000Y-33020000D02*
X68580000Y-36830000D01*
X123190000Y-43815000D02*
X123190000Y-45720000D01*
X68580000Y-33020000D02*
X68580000Y-31750000D01*
X106680000Y-43815000D02*
X123190000Y-43815000D01*
X106680000Y-43815000D02*
X103505000Y-43815000D01*
X110490000Y-68580000D02*
X111760000Y-68580000D01*
X111760000Y-68580000D02*
X113030000Y-67310000D01*
X113030000Y-67310000D02*
X114300000Y-67310000D01*
D35*
X114300000Y-67310000D02*
X116840000Y-67310000D01*
D33*
X137160000Y-68580000D02*
X139700000Y-68580000D01*
X139700000Y-35560000D02*
X135890000Y-35560000D01*
D35*
X133350000Y-41910000D02*
X139700000Y-41910000D01*
D33*
X139700000Y-41910000D02*
X139700000Y-35560000D01*
X139700000Y-68580000D02*
X139700000Y-41910000D01*
D35*
X68580000Y-31750000D02*
X68580000Y-24130000D01*
D34*
X123190000Y-43815000D02*
X125095000Y-43815000D01*
X125095000Y-43815000D02*
X131445000Y-43815000D01*
X131445000Y-43815000D02*
X133350000Y-41910000D01*
D33*
X137160000Y-68580000D02*
X135572500Y-68580000D01*
X138430000Y-101600000D02*
X139700000Y-100330000D01*
X139700000Y-68580000D02*
X139700000Y-100330000D01*
X138430000Y-101600000D02*
X135572500Y-101600000D01*
X116522500Y-26115000D02*
X130255000Y-26115000D01*
X135572500Y-31432500D02*
X135572500Y-35560000D01*
X130255000Y-26115000D02*
X135572500Y-31432500D01*
X106680000Y-27305000D02*
X105410000Y-27305000D01*
X107870000Y-26115000D02*
X106680000Y-27305000D01*
X116522500Y-26115000D02*
X107870000Y-26115000D01*
X57150000Y-24130000D02*
X57150000Y-26035000D01*
X102235000Y-24130000D02*
X57150000Y-24130000D01*
X57150000Y-26035000D02*
X54610000Y-26035000D01*
X54610000Y-26035000D02*
X54610000Y-33020000D01*
X54610000Y-33020000D02*
X55880000Y-34290000D01*
X55880000Y-34290000D02*
X58420000Y-36830000D01*
X102235000Y-24130000D02*
X102235000Y-27305000D01*
X102235000Y-27305000D02*
X97155000Y-27305000D01*
X105410000Y-27305000D02*
X102235000Y-27305000D01*
X123825000Y-106680000D02*
X126365000Y-106680000D01*
X123825000Y-101600000D02*
X123825000Y-106680000D01*
D35*
X91440000Y-67310000D02*
X90170000Y-68580000D01*
X100330000Y-68580000D02*
X99060000Y-68580000D01*
D34*
X88265000Y-68580000D02*
X90170000Y-68580000D01*
X101600000Y-45720000D02*
X103505000Y-43815000D01*
X100330000Y-45720000D02*
X101600000Y-45720000D01*
X95885000Y-66675000D02*
X97155000Y-66675000D01*
X97155000Y-66675000D02*
X98425000Y-67945000D01*
X98425000Y-67945000D02*
X99060000Y-68580000D01*
X96520000Y-45720000D02*
X100330000Y-45720000D01*
X123190000Y-69850000D02*
X123190000Y-68580000D01*
X125730000Y-72390000D02*
X123190000Y-69850000D01*
X130095000Y-72390000D02*
X125730000Y-72390000D01*
X133985000Y-68580000D02*
X130095000Y-72390000D01*
X135572500Y-68580000D02*
X133985000Y-68580000D01*
X119380000Y-45720000D02*
X123190000Y-45720000D01*
X118110000Y-66675000D02*
X117475000Y-67310000D01*
X117475000Y-67310000D02*
X116840000Y-67310000D01*
X120015000Y-66675000D02*
X118110000Y-66675000D01*
X121920000Y-68580000D02*
X120015000Y-66675000D01*
X123190000Y-68580000D02*
X121920000Y-68580000D01*
X95885000Y-66675000D02*
X95250000Y-66675000D01*
D35*
X94615000Y-67310000D02*
X91440000Y-67310000D01*
D34*
X95250000Y-66675000D02*
X94615000Y-67310000D01*
D33*
X123825000Y-101600000D02*
X127952500Y-101600000D01*
X133032500Y-104140000D02*
X135572500Y-101600000D01*
X130492500Y-104140000D02*
X133032500Y-104140000D01*
X127952500Y-101600000D02*
X130492500Y-104140000D01*
X58420000Y-41355000D02*
X57230000Y-42545000D01*
X58420000Y-36830000D02*
X58420000Y-41355000D01*
D35*
X103455000Y-37780000D02*
X103505000Y-37830000D01*
X101330000Y-37780000D02*
X103455000Y-37780000D01*
X103505000Y-37830000D02*
X103505000Y-39370000D01*
D34*
X102235000Y-68580000D02*
X100330000Y-68580000D01*
X103505000Y-69850000D02*
X102235000Y-68580000D01*
X107315000Y-69850000D02*
X103505000Y-69850000D01*
X108585000Y-68580000D02*
X107315000Y-69850000D01*
X110490000Y-68580000D02*
X108585000Y-68580000D01*
%TO.N,/P0.7*%
X110490000Y-48260000D02*
X115570000Y-48260000D01*
D35*
X106680000Y-38735000D02*
X106680000Y-38735000D01*
X110490000Y-48260000D02*
X106680000Y-48260000D01*
X106680000Y-48260000D02*
X106680000Y-48260000D01*
X106680000Y-36195000D02*
X106680000Y-39370000D01*
X106365000Y-35880000D02*
X106680000Y-36195000D01*
X101330000Y-35880000D02*
X106365000Y-35880000D01*
D34*
%TO.N,/P0.6*%
X110490000Y-50800000D02*
X115570000Y-50800000D01*
%TO.N,/P0.5*%
X110490000Y-53340000D02*
X115570000Y-53340000D01*
%TO.N,/P0.4*%
X110490000Y-55880000D02*
X115570000Y-55880000D01*
%TO.N,/P0.3*%
X110490000Y-58420000D02*
X115570000Y-58420000D01*
%TO.N,/P0.2*%
X110490000Y-60960000D02*
X115570000Y-60960000D01*
D35*
X107632500Y-61912500D02*
X108585000Y-60960000D01*
X106680000Y-61912500D02*
X107632500Y-61912500D01*
X108585000Y-60960000D02*
X110490000Y-60960000D01*
D34*
%TO.N,/P0.1*%
X110490000Y-63500000D02*
X115570000Y-63500000D01*
%TO.N,/P0.0*%
X110490000Y-66040000D02*
X115570000Y-66040000D01*
D35*
X66040000Y-34655000D02*
X66040000Y-36830000D01*
D34*
X66040000Y-38735000D02*
X66040000Y-36830000D01*
X67310000Y-40005000D02*
X66040000Y-38735000D01*
X76835000Y-43180000D02*
X73660000Y-40005000D01*
X76835000Y-63500000D02*
X76835000Y-43180000D01*
X73660000Y-40005000D02*
X67310000Y-40005000D01*
X84455000Y-71120000D02*
X76835000Y-63500000D01*
X93980000Y-71120000D02*
X84455000Y-71120000D01*
D35*
X107315000Y-66040000D02*
X105410000Y-67945000D01*
X110490000Y-66040000D02*
X107315000Y-66040000D01*
D34*
%TO.N,/P1.0*%
X88265000Y-66040000D02*
X92710000Y-66040000D01*
%TO.N,/P1.1*%
X88265000Y-63500000D02*
X92710000Y-63500000D01*
D35*
%TO.N,Net-(DS1-Pad3)*%
X62230000Y-28575000D02*
X62230000Y-31750000D01*
X63500000Y-33020000D02*
X63500000Y-36830000D01*
X62230000Y-31750000D02*
X63500000Y-33020000D01*
%TO.N,/D0*%
X73660000Y-34655000D02*
X73660000Y-36830000D01*
D34*
X73660000Y-38100000D02*
X73660000Y-36830000D01*
X78105000Y-42545000D02*
X73660000Y-38100000D01*
X78105000Y-55880000D02*
X78105000Y-42545000D01*
D35*
X124460000Y-66040000D02*
X123190000Y-66040000D01*
X126365000Y-64135000D02*
X124460000Y-66040000D01*
X130175000Y-64135000D02*
X126365000Y-64135000D01*
X132080000Y-66040000D02*
X130175000Y-64135000D01*
X135572500Y-66040000D02*
X132080000Y-66040000D01*
X86995000Y-64770000D02*
X78105000Y-55880000D01*
X97155000Y-64770000D02*
X86995000Y-64770000D01*
X98425000Y-66040000D02*
X97155000Y-64770000D01*
X100330000Y-66040000D02*
X98425000Y-66040000D01*
X102235000Y-66040000D02*
X100330000Y-66040000D01*
X103505000Y-64770000D02*
X102235000Y-66040000D01*
X111760000Y-64770000D02*
X103505000Y-64770000D01*
X112077500Y-65087500D02*
X111760000Y-64770000D01*
X114300000Y-64770000D02*
X113982500Y-65087500D01*
X121285000Y-66040000D02*
X120015000Y-64770000D01*
X113982500Y-65087500D02*
X112077500Y-65087500D01*
X120015000Y-64770000D02*
X114300000Y-64770000D01*
X123190000Y-66040000D02*
X121285000Y-66040000D01*
%TO.N,/D1*%
X76200000Y-34655000D02*
X76200000Y-36830000D01*
D34*
X76200000Y-38735000D02*
X76200000Y-36830000D01*
X79375000Y-41910000D02*
X76200000Y-38735000D01*
X123190000Y-63500000D02*
X125095000Y-63500000D01*
D35*
X132080000Y-62865000D02*
X125730000Y-62865000D01*
X132715000Y-63500000D02*
X132080000Y-62865000D01*
X125730000Y-62865000D02*
X125095000Y-63500000D01*
X135572500Y-63500000D02*
X132715000Y-63500000D01*
X97155000Y-63500000D02*
X100330000Y-63500000D01*
X95885000Y-62230000D02*
X97155000Y-63500000D01*
X88900000Y-62230000D02*
X95885000Y-62230000D01*
X88900000Y-62230000D02*
X86995000Y-62230000D01*
X79375000Y-54610000D02*
X79375000Y-53975000D01*
X86995000Y-62230000D02*
X79375000Y-54610000D01*
D34*
X79375000Y-53975000D02*
X79375000Y-41910000D01*
D35*
X120015000Y-63500000D02*
X123190000Y-63500000D01*
X118745000Y-62230000D02*
X120015000Y-63500000D01*
X113982500Y-61912500D02*
X114300000Y-62230000D01*
X114300000Y-62230000D02*
X118745000Y-62230000D01*
X111760000Y-62230000D02*
X112077500Y-61912500D01*
X109220000Y-62230000D02*
X111760000Y-62230000D01*
X107950000Y-63500000D02*
X109220000Y-62230000D01*
X112077500Y-61912500D02*
X113982500Y-61912500D01*
X100330000Y-63500000D02*
X107950000Y-63500000D01*
%TO.N,/D2*%
X130175000Y-60960000D02*
X123190000Y-60960000D01*
X135572500Y-60960000D02*
X130175000Y-60960000D01*
X78740000Y-34655000D02*
X78740000Y-36830000D01*
D34*
X78740000Y-39370000D02*
X78740000Y-36830000D01*
X80645000Y-41275000D02*
X78740000Y-39370000D01*
D35*
X100330000Y-60960000D02*
X97155000Y-60960000D01*
X97155000Y-60960000D02*
X95885000Y-59690000D01*
X95885000Y-59690000D02*
X88900000Y-59690000D01*
X88900000Y-59690000D02*
X86995000Y-59690000D01*
X86995000Y-59690000D02*
X80645000Y-53340000D01*
D34*
X80645000Y-53340000D02*
X80645000Y-41275000D01*
D35*
X102235000Y-60960000D02*
X100330000Y-60960000D01*
X103822500Y-59372500D02*
X102235000Y-60960000D01*
X107950000Y-59372500D02*
X103822500Y-59372500D01*
X108267500Y-59690000D02*
X107950000Y-59372500D01*
X120015000Y-60960000D02*
X118745000Y-59690000D01*
X118745000Y-59690000D02*
X108267500Y-59690000D01*
X123190000Y-60960000D02*
X120015000Y-60960000D01*
%TO.N,/D3*%
X130175000Y-58420000D02*
X123190000Y-58420000D01*
X135572500Y-58420000D02*
X130175000Y-58420000D01*
D34*
X81280000Y-40005000D02*
X81280000Y-36830000D01*
X81915000Y-40640000D02*
X81280000Y-40005000D01*
D35*
X81280000Y-34655000D02*
X81280000Y-36830000D01*
X100330000Y-58420000D02*
X97155000Y-58420000D01*
X97155000Y-58420000D02*
X95885000Y-57150000D01*
X95885000Y-57150000D02*
X88900000Y-57150000D01*
X88900000Y-57150000D02*
X86995000Y-57150000D01*
X86995000Y-57150000D02*
X81915000Y-52070000D01*
D34*
X81915000Y-52070000D02*
X81915000Y-40640000D01*
D35*
X102235000Y-58420000D02*
X100330000Y-58420000D01*
X103505000Y-57150000D02*
X102235000Y-58420000D01*
X118745000Y-57150000D02*
X103505000Y-57150000D01*
X120015000Y-58420000D02*
X118745000Y-57150000D01*
X123190000Y-58420000D02*
X120015000Y-58420000D01*
%TO.N,/D4*%
X130175000Y-55880000D02*
X123190000Y-55880000D01*
X135572500Y-55880000D02*
X130175000Y-55880000D01*
D34*
X83820000Y-40005000D02*
X83820000Y-36830000D01*
X83185000Y-40640000D02*
X83820000Y-40005000D01*
D35*
X83820000Y-34655000D02*
X83820000Y-36830000D01*
X100330000Y-55880000D02*
X97155000Y-55880000D01*
X97155000Y-55880000D02*
X95885000Y-54610000D01*
X95885000Y-54610000D02*
X88900000Y-54610000D01*
X88900000Y-54610000D02*
X86995000Y-54610000D01*
X86995000Y-54610000D02*
X83185000Y-50800000D01*
D34*
X83185000Y-50800000D02*
X83185000Y-40640000D01*
D35*
X102235000Y-55880000D02*
X100330000Y-55880000D01*
X103505000Y-54610000D02*
X102235000Y-55880000D01*
X118745000Y-54610000D02*
X103505000Y-54610000D01*
X120015000Y-55880000D02*
X118745000Y-54610000D01*
X123190000Y-55880000D02*
X120015000Y-55880000D01*
%TO.N,/D5*%
X130175000Y-53340000D02*
X123190000Y-53340000D01*
X135572500Y-53340000D02*
X130175000Y-53340000D01*
X86360000Y-34655000D02*
X86360000Y-36830000D01*
D34*
X86360000Y-39370000D02*
X86360000Y-36830000D01*
X84455000Y-41275000D02*
X86360000Y-39370000D01*
D35*
X100330000Y-53340000D02*
X97155000Y-53340000D01*
X97155000Y-53340000D02*
X95885000Y-52070000D01*
X95885000Y-52070000D02*
X88900000Y-52070000D01*
X86995000Y-52070000D02*
X84455000Y-49530000D01*
D34*
X84455000Y-49530000D02*
X84455000Y-41275000D01*
D35*
X88900000Y-52070000D02*
X86995000Y-52070000D01*
X103505000Y-52070000D02*
X102235000Y-53340000D01*
X118745000Y-52070000D02*
X103505000Y-52070000D01*
X102235000Y-53340000D02*
X100330000Y-53340000D01*
X120015000Y-53340000D02*
X118745000Y-52070000D01*
X123190000Y-53340000D02*
X120015000Y-53340000D01*
%TO.N,/D6*%
X130175000Y-50800000D02*
X123190000Y-50800000D01*
X135572500Y-50800000D02*
X130175000Y-50800000D01*
X88900000Y-34655000D02*
X88900000Y-36830000D01*
D34*
X85725000Y-41910000D02*
X88900000Y-38735000D01*
X88900000Y-38735000D02*
X88900000Y-36830000D01*
D35*
X100330000Y-50800000D02*
X97155000Y-50800000D01*
X97155000Y-50800000D02*
X95885000Y-49530000D01*
X95885000Y-49530000D02*
X88900000Y-49530000D01*
X86995000Y-49530000D02*
X85725000Y-48260000D01*
X88900000Y-49530000D02*
X86995000Y-49530000D01*
D34*
X85725000Y-48260000D02*
X85725000Y-41910000D01*
D35*
X102235000Y-50800000D02*
X100330000Y-50800000D01*
X103505000Y-49530000D02*
X102235000Y-50800000D01*
X118745000Y-49530000D02*
X103505000Y-49530000D01*
X120015000Y-50800000D02*
X118745000Y-49530000D01*
X123190000Y-50800000D02*
X120015000Y-50800000D01*
%TO.N,/D7*%
X130175000Y-48260000D02*
X123190000Y-48260000D01*
X130175000Y-48260000D02*
X135572500Y-48260000D01*
X91440000Y-34655000D02*
X91440000Y-36830000D01*
D34*
X87630000Y-41910000D02*
X91440000Y-38100000D01*
X87630000Y-43815000D02*
X87630000Y-41910000D01*
X91440000Y-38100000D02*
X91440000Y-36830000D01*
X87630000Y-45720000D02*
X87630000Y-43815000D01*
D35*
X102235000Y-48260000D02*
X100330000Y-48260000D01*
X103505000Y-46990000D02*
X102235000Y-48260000D01*
X116840000Y-46990000D02*
X103505000Y-46990000D01*
X118110000Y-48260000D02*
X116840000Y-46990000D01*
X123190000Y-48260000D02*
X118110000Y-48260000D01*
X95885000Y-48260000D02*
X100330000Y-48260000D01*
X94615000Y-46990000D02*
X95885000Y-48260000D01*
X88900000Y-46990000D02*
X94615000Y-46990000D01*
X87630000Y-45720000D02*
X88900000Y-46990000D01*
D34*
%TO.N,/P1.2*%
X88265000Y-60960000D02*
X92710000Y-60960000D01*
%TO.N,/P1.3*%
X88265000Y-58420000D02*
X92710000Y-58420000D01*
%TO.N,/P1.4*%
X88265000Y-55880000D02*
X92710000Y-55880000D01*
%TO.N,/P1.5*%
X88265000Y-53340000D02*
X92710000Y-53340000D01*
%TO.N,/P1.6*%
X88265000Y-50800000D02*
X92710000Y-50800000D01*
%TO.N,/P1.7*%
X88265000Y-48260000D02*
X92710000Y-48260000D01*
D35*
%TO.N,Net-(D1-Pad2)*%
X73660000Y-29845000D02*
X73660000Y-32655000D01*
%TO.N,Net-(D2-Pad2)*%
X76200000Y-29845000D02*
X76200000Y-32655000D01*
%TO.N,Net-(D3-Pad2)*%
X78740000Y-29845000D02*
X78740000Y-32655000D01*
%TO.N,Net-(D4-Pad2)*%
X81280000Y-29845000D02*
X81280000Y-32655000D01*
%TO.N,Net-(D5-Pad2)*%
X83820000Y-29845000D02*
X83820000Y-32655000D01*
%TO.N,Net-(D6-Pad2)*%
X86360000Y-29845000D02*
X86360000Y-32655000D01*
%TO.N,Net-(D7-Pad2)*%
X71120000Y-29845000D02*
X71120000Y-32655000D01*
%TO.N,Net-(D8-Pad2)*%
X88900000Y-29845000D02*
X88900000Y-32655000D01*
%TO.N,Net-(D9-Pad2)*%
X66040000Y-29845000D02*
X66040000Y-32655000D01*
%TO.N,Net-(D10-Pad2)*%
X91440000Y-29845000D02*
X91440000Y-32655000D01*
D34*
%TO.N,Net-(DS1-Pad15)*%
X93980000Y-38735000D02*
X93980000Y-36830000D01*
X89535000Y-43815000D02*
X90805000Y-42545000D01*
X90805000Y-42545000D02*
X90805000Y-41910000D01*
X90805000Y-41910000D02*
X93980000Y-38735000D01*
%TO.N,/IN0.0*%
X48260000Y-88900000D02*
X48260000Y-92560000D01*
X48260000Y-79470000D02*
X48260000Y-82400000D01*
D35*
X123825000Y-99060000D02*
X120650000Y-99060000D01*
X51435000Y-101600000D02*
X48895000Y-101600000D01*
X56515000Y-106680000D02*
X51435000Y-101600000D01*
X114617500Y-106680000D02*
X56515000Y-106680000D01*
X48260000Y-100965000D02*
X48260000Y-99060000D01*
X118427500Y-99695000D02*
X118427500Y-102870000D01*
X48895000Y-101600000D02*
X48260000Y-100965000D01*
X119062500Y-99060000D02*
X118427500Y-99695000D01*
X118427500Y-102870000D02*
X114617500Y-106680000D01*
X121285000Y-99060000D02*
X119062500Y-99060000D01*
%TO.N,Net-(D11-Pad2)*%
X114935000Y-92615000D02*
X114990000Y-92560000D01*
X52760000Y-94560000D02*
X52815000Y-94615000D01*
X52760000Y-92560000D02*
X52760000Y-94560000D01*
X106045000Y-92615000D02*
X106100000Y-92560000D01*
X106045000Y-94615000D02*
X106045000Y-92615000D01*
X97155000Y-94615000D02*
X97155000Y-92615000D01*
X97155000Y-92615000D02*
X97210000Y-92560000D01*
X97155000Y-94615000D02*
X106045000Y-94615000D01*
X88265000Y-92615000D02*
X88320000Y-92560000D01*
X88265000Y-94615000D02*
X88265000Y-92615000D01*
X79375000Y-92615000D02*
X79430000Y-92560000D01*
X79375000Y-94615000D02*
X79375000Y-92615000D01*
X79375000Y-94615000D02*
X88265000Y-94615000D01*
X70485000Y-92615000D02*
X70540000Y-92560000D01*
X70485000Y-94615000D02*
X70485000Y-92615000D01*
X70485000Y-94615000D02*
X79375000Y-94615000D01*
X61595000Y-92615000D02*
X61650000Y-92560000D01*
X61595000Y-94615000D02*
X61595000Y-92615000D01*
X52815000Y-94615000D02*
X61595000Y-94615000D01*
X61595000Y-94615000D02*
X70485000Y-94615000D01*
X114935000Y-93980000D02*
X114300000Y-94615000D01*
X106045000Y-94615000D02*
X114300000Y-94615000D01*
X114935000Y-93980000D02*
X114935000Y-92615000D01*
X88265000Y-94615000D02*
X88265000Y-95250000D01*
X88265000Y-95250000D02*
X88900000Y-95885000D01*
X95885000Y-95885000D02*
X97155000Y-94615000D01*
X88900000Y-95885000D02*
X95885000Y-95885000D01*
X115252500Y-77787500D02*
X114617500Y-77787500D01*
X118427500Y-82232500D02*
X118427500Y-80962500D01*
X118745000Y-82550000D02*
X118427500Y-82232500D01*
X118427500Y-80962500D02*
X115252500Y-77787500D01*
X125730000Y-82550000D02*
X118745000Y-82550000D01*
X125730000Y-90170000D02*
X125730000Y-82550000D01*
X118745000Y-90170000D02*
X125730000Y-90170000D01*
X116355000Y-92560000D02*
X118745000Y-90170000D01*
X114617500Y-77787500D02*
X113030000Y-76200000D01*
X114990000Y-92560000D02*
X116355000Y-92560000D01*
%TO.N,Net-(D12-Pad2)*%
X52760000Y-82400000D02*
X52760000Y-84400000D01*
X52760000Y-84400000D02*
X52815000Y-84455000D01*
X52815000Y-84455000D02*
X61595000Y-84455000D01*
X61595000Y-82455000D02*
X61650000Y-82400000D01*
X61595000Y-84455000D02*
X61595000Y-82455000D01*
X70485000Y-82455000D02*
X70540000Y-82400000D01*
X70485000Y-84455000D02*
X70485000Y-82455000D01*
X61595000Y-84455000D02*
X70485000Y-84455000D01*
X70485000Y-84455000D02*
X79375000Y-84455000D01*
X79375000Y-82455000D02*
X79430000Y-82400000D01*
X79375000Y-84455000D02*
X79375000Y-82455000D01*
X79375000Y-84455000D02*
X88265000Y-84455000D01*
X88265000Y-82455000D02*
X88320000Y-82400000D01*
X88265000Y-84455000D02*
X88265000Y-82455000D01*
X88265000Y-84455000D02*
X97155000Y-84455000D01*
X97155000Y-82455000D02*
X97210000Y-82400000D01*
X97155000Y-84455000D02*
X97155000Y-82455000D01*
X97155000Y-84455000D02*
X106045000Y-84455000D01*
X106045000Y-82455000D02*
X106100000Y-82400000D01*
X106045000Y-84455000D02*
X106045000Y-82455000D01*
X106045000Y-84455000D02*
X114935000Y-84455000D01*
X114990000Y-84400000D02*
X114990000Y-82400000D01*
X114935000Y-84455000D02*
X114990000Y-84400000D01*
D34*
X106680000Y-74612500D02*
X106680000Y-76200000D01*
X106100000Y-76780000D02*
X106100000Y-82400000D01*
X106680000Y-76200000D02*
X106100000Y-76780000D01*
%TO.N,/IN0.1*%
X57150000Y-88900000D02*
X57150000Y-92560000D01*
X57150000Y-79470000D02*
X57150000Y-82400000D01*
D35*
X123825000Y-96520000D02*
X121285000Y-96520000D01*
X121285000Y-96520000D02*
X121920000Y-96520000D01*
X118745000Y-96520000D02*
X121285000Y-96520000D01*
X117316250Y-97948750D02*
X118745000Y-96520000D01*
X117316250Y-101123750D02*
X117316250Y-97948750D01*
X113030000Y-105410000D02*
X117316250Y-101123750D01*
X59690000Y-105410000D02*
X113030000Y-105410000D01*
X57150000Y-102870000D02*
X59690000Y-105410000D01*
X57150000Y-99060000D02*
X57150000Y-102870000D01*
D34*
%TO.N,/IN0.2*%
X66040000Y-88900000D02*
X66040000Y-92560000D01*
X66040000Y-79470000D02*
X66040000Y-82400000D01*
D35*
X67945000Y-104140000D02*
X66040000Y-102235000D01*
X111125000Y-104140000D02*
X67945000Y-104140000D01*
X113030000Y-102235000D02*
X111125000Y-104140000D01*
X113030000Y-97790000D02*
X113030000Y-102235000D01*
X113665000Y-97155000D02*
X113030000Y-97790000D01*
X66040000Y-102235000D02*
X66040000Y-99060000D01*
X123825000Y-93980000D02*
X120650000Y-93980000D01*
X121285000Y-93980000D02*
X119062500Y-93980000D01*
X115887500Y-97155000D02*
X115570000Y-97155000D01*
X119062500Y-93980000D02*
X115887500Y-97155000D01*
X115570000Y-97155000D02*
X113665000Y-97155000D01*
D34*
%TO.N,/IN0.3*%
X74930000Y-88900000D02*
X74930000Y-92560000D01*
X74930000Y-79470000D02*
X74930000Y-82400000D01*
D35*
X74930000Y-101600000D02*
X74930000Y-99060000D01*
X76200000Y-102870000D02*
X74930000Y-101600000D01*
X108585000Y-102235000D02*
X107950000Y-102870000D01*
X107950000Y-102870000D02*
X76200000Y-102870000D01*
X108585000Y-97155000D02*
X108585000Y-102235000D01*
X109855000Y-95885000D02*
X108585000Y-97155000D01*
X123825000Y-91440000D02*
X120650000Y-91440000D01*
X121285000Y-91440000D02*
X119380000Y-91440000D01*
X114935000Y-95885000D02*
X109855000Y-95885000D01*
X119380000Y-91440000D02*
X114935000Y-95885000D01*
D34*
%TO.N,/IN0.4*%
X83820000Y-88900000D02*
X83820000Y-92560000D01*
X83820000Y-79470000D02*
X83820000Y-82400000D01*
D35*
X83820000Y-86995000D02*
X83820000Y-88900000D01*
X84455000Y-86360000D02*
X83820000Y-86995000D01*
X90170000Y-87630000D02*
X88900000Y-86360000D01*
X88900000Y-86360000D02*
X84455000Y-86360000D01*
X91440000Y-94615000D02*
X90170000Y-93345000D01*
X95885000Y-86995000D02*
X95250000Y-87630000D01*
X116840000Y-86995000D02*
X95885000Y-86995000D01*
X118745000Y-88900000D02*
X116840000Y-86995000D01*
X90170000Y-93345000D02*
X90170000Y-87630000D01*
X123825000Y-88900000D02*
X118745000Y-88900000D01*
X93980000Y-94615000D02*
X95250000Y-93345000D01*
X95250000Y-87630000D02*
X95250000Y-93345000D01*
X93980000Y-94615000D02*
X91440000Y-94615000D01*
D34*
%TO.N,/IN0.5*%
X92710000Y-88900000D02*
X92710000Y-92560000D01*
X92710000Y-79470000D02*
X92710000Y-82400000D01*
D35*
X92710000Y-86995000D02*
X92710000Y-88900000D01*
X118110000Y-85725000D02*
X93980000Y-85725000D01*
X118745000Y-86360000D02*
X118110000Y-85725000D01*
X93980000Y-85725000D02*
X92710000Y-86995000D01*
X123825000Y-86360000D02*
X118745000Y-86360000D01*
D34*
%TO.N,/IN0.6*%
X101600000Y-88900000D02*
X101600000Y-92560000D01*
X101600000Y-79470000D02*
X101600000Y-82400000D01*
D35*
X101600000Y-79470000D02*
X104045000Y-79470000D01*
X114935000Y-79375000D02*
X113665000Y-79375000D01*
X117157500Y-83185000D02*
X117157500Y-81597500D01*
X117157500Y-81597500D02*
X114935000Y-79375000D01*
X117792500Y-83820000D02*
X117157500Y-83185000D01*
X123825000Y-83820000D02*
X117792500Y-83820000D01*
D34*
%TO.N,/IN0.7*%
X110490000Y-88900000D02*
X110490000Y-92560000D01*
D35*
X109855000Y-81765000D02*
X110490000Y-82400000D01*
X109855000Y-79740000D02*
X109855000Y-81765000D01*
X111125000Y-76835000D02*
X112077500Y-77787500D01*
X111125000Y-74930000D02*
X111125000Y-76835000D01*
X111760000Y-74295000D02*
X111125000Y-74930000D01*
X112077500Y-82232500D02*
X111910000Y-82400000D01*
X114300000Y-74295000D02*
X111760000Y-74295000D01*
X111910000Y-82400000D02*
X110490000Y-82400000D01*
X114935000Y-75565000D02*
X114935000Y-74930000D01*
X112077500Y-77787500D02*
X112077500Y-82232500D01*
X114935000Y-74930000D02*
X114300000Y-74295000D01*
X123825000Y-81280000D02*
X120650000Y-81280000D01*
X121285000Y-81280000D02*
X119697500Y-81280000D01*
X119697500Y-81280000D02*
X119697500Y-80327500D01*
X119697500Y-80327500D02*
X114935000Y-75565000D01*
D34*
%TO.N,/BUS0*%
X135572500Y-99060000D02*
X131445000Y-99060000D01*
%TO.N,/BUS1*%
X131445000Y-96520000D02*
X135572500Y-96520000D01*
%TO.N,/BUS2*%
X131445000Y-93980000D02*
X135572500Y-93980000D01*
%TO.N,/BUS3*%
X131445000Y-91440000D02*
X135572500Y-91440000D01*
%TO.N,/BUS4*%
X131445000Y-88900000D02*
X135572500Y-88900000D01*
%TO.N,/BUS5*%
X131445000Y-86360000D02*
X135572500Y-86360000D01*
%TO.N,/BUS6*%
X131445000Y-83820000D02*
X135572500Y-83820000D01*
%TO.N,/BUS7*%
X131445000Y-81280000D02*
X135572500Y-81280000D01*
D35*
%TO.N,/IN0.OE*%
X133985000Y-77787500D02*
X135572500Y-76200000D01*
X133985000Y-78740000D02*
X133985000Y-77787500D01*
X132715000Y-80010000D02*
X133985000Y-78740000D01*
X129540000Y-80010000D02*
X132715000Y-80010000D01*
X128905000Y-80645000D02*
X129540000Y-80010000D01*
X127000000Y-80645000D02*
X128905000Y-80645000D01*
X125095000Y-78740000D02*
X127000000Y-80645000D01*
X123825000Y-78740000D02*
X125095000Y-78740000D01*
%TO.N,/IN0.C*%
X137795000Y-73660000D02*
X135572500Y-73660000D01*
X137795000Y-99695000D02*
X137795000Y-73660000D01*
X137160000Y-100330000D02*
X137795000Y-99695000D01*
X132080000Y-101600000D02*
X133350000Y-100330000D01*
X131445000Y-101600000D02*
X132080000Y-101600000D01*
X133350000Y-100330000D02*
X137160000Y-100330000D01*
D33*
%TO.N,Net-(D1-Pad1)*%
X71120000Y-27305000D02*
X95855000Y-27305000D01*
D35*
%TO.N,Net-(D9-Pad1)*%
X66040000Y-25430000D02*
X66040000Y-27305000D01*
D34*
%TO.N,/OUT0*%
X137747500Y-43180000D02*
X135572500Y-43180000D01*
X135572500Y-43180000D02*
X133985000Y-43180000D01*
X127317500Y-45402500D02*
X125730000Y-46990000D01*
X131762500Y-45402500D02*
X127317500Y-45402500D01*
X133985000Y-43180000D02*
X131762500Y-45402500D01*
D35*
X117475000Y-45720000D02*
X115570000Y-45720000D01*
X118745000Y-46990000D02*
X117475000Y-45720000D01*
X125730000Y-46990000D02*
X118745000Y-46990000D01*
D34*
%TO.N,/OUT1*%
X92710000Y-44450000D02*
X94615000Y-42545000D01*
X92710000Y-45720000D02*
X92710000Y-44450000D01*
X137747500Y-40640000D02*
X135572500Y-40640000D01*
X132715000Y-40640000D02*
X130810000Y-42545000D01*
X135572500Y-40640000D02*
X132715000Y-40640000D01*
X94615000Y-42545000D02*
X95885000Y-41275000D01*
X108585000Y-41275000D02*
X109855000Y-42545000D01*
X95885000Y-41275000D02*
X108585000Y-41275000D01*
X109855000Y-42545000D02*
X130810000Y-42545000D01*
D35*
%TO.N,/OUT2*%
X71120000Y-34655000D02*
X71120000Y-36830000D01*
X69532500Y-34290000D02*
X69532500Y-28575000D01*
X69897500Y-34655000D02*
X69532500Y-34290000D01*
X71120000Y-34655000D02*
X69897500Y-34655000D01*
X69532500Y-28575000D02*
X93980000Y-28575000D01*
D34*
X93980000Y-28575000D02*
X95250000Y-29845000D01*
X95250000Y-29845000D02*
X100330000Y-29845000D01*
X133350000Y-38100000D02*
X130175000Y-41275000D01*
X135572500Y-38100000D02*
X133350000Y-38100000D01*
X106680000Y-29845000D02*
X118110000Y-41275000D01*
X100330000Y-29845000D02*
X106680000Y-29845000D01*
X130175000Y-41275000D02*
X118110000Y-41275000D01*
D35*
%TO.N,Net-(DS1-Pad16)*%
X99330000Y-36830000D02*
X96520000Y-36830000D01*
%TD*%
M02*
