%TF.GenerationSoftware,KiCad,Pcbnew,(5.1.8)-1*%
%TF.CreationDate,2023-06-16T08:50:19+03:00*%
%TF.ProjectId,Ports,506f7274-732e-46b6-9963-61645f706362,rev?*%
%TF.SameCoordinates,Original*%
%TF.FileFunction,Legend,Bot*%
%TF.FilePolarity,Positive*%
%FSLAX46Y46*%
G04 Gerber Fmt 4.6, Leading zero omitted, Abs format (unit mm)*
G04 Created by KiCad (PCBNEW (5.1.8)-1) date 2023-06-16 08:50:19*
%MOMM*%
%LPD*%
G01*
G04 APERTURE LIST*
%ADD10C,0.120000*%
%ADD11C,0.150000*%
G04 APERTURE END LIST*
D10*
%TO.C,R3*%
X135037500Y-43137064D02*
X135037500Y-42682936D01*
X133567500Y-43137064D02*
X133567500Y-42682936D01*
%TO.C,R2*%
X133567500Y-47985436D02*
X133567500Y-48439564D01*
X135037500Y-47985436D02*
X135037500Y-48439564D01*
%TO.C,R3*%
D11*
X133167380Y-42743333D02*
X132691190Y-42410000D01*
X133167380Y-42171904D02*
X132167380Y-42171904D01*
X132167380Y-42552857D01*
X132215000Y-42648095D01*
X132262619Y-42695714D01*
X132357857Y-42743333D01*
X132500714Y-42743333D01*
X132595952Y-42695714D01*
X132643571Y-42648095D01*
X132691190Y-42552857D01*
X132691190Y-42171904D01*
X132167380Y-43076666D02*
X132167380Y-43695714D01*
X132548333Y-43362380D01*
X132548333Y-43505238D01*
X132595952Y-43600476D01*
X132643571Y-43648095D01*
X132738809Y-43695714D01*
X132976904Y-43695714D01*
X133072142Y-43648095D01*
X133119761Y-43600476D01*
X133167380Y-43505238D01*
X133167380Y-43219523D01*
X133119761Y-43124285D01*
X133072142Y-43076666D01*
%TO.C,R2*%
X133104880Y-48045833D02*
X132628690Y-47712500D01*
X133104880Y-47474404D02*
X132104880Y-47474404D01*
X132104880Y-47855357D01*
X132152500Y-47950595D01*
X132200119Y-47998214D01*
X132295357Y-48045833D01*
X132438214Y-48045833D01*
X132533452Y-47998214D01*
X132581071Y-47950595D01*
X132628690Y-47855357D01*
X132628690Y-47474404D01*
X132200119Y-48426785D02*
X132152500Y-48474404D01*
X132104880Y-48569642D01*
X132104880Y-48807738D01*
X132152500Y-48902976D01*
X132200119Y-48950595D01*
X132295357Y-48998214D01*
X132390595Y-48998214D01*
X132533452Y-48950595D01*
X133104880Y-48379166D01*
X133104880Y-48998214D01*
%TD*%
M02*
