%TF.GenerationSoftware,KiCad,Pcbnew,(5.1.8)-1*%
%TF.CreationDate,2024-05-16T22:12:29+03:00*%
%TF.ProjectId,Ports,506f7274-732e-46b6-9963-61645f706362,rev?*%
%TF.SameCoordinates,Original*%
%TF.FileFunction,Soldermask,Top*%
%TF.FilePolarity,Negative*%
%FSLAX46Y46*%
G04 Gerber Fmt 4.6, Leading zero omitted, Abs format (unit mm)*
G04 Created by KiCad (PCBNEW (5.1.8)-1) date 2024-05-16 22:12:29*
%MOMM*%
%LPD*%
G01*
G04 APERTURE LIST*
%ADD10C,1.600000*%
%ADD11O,1.600000X1.600000*%
%ADD12O,2.000000X2.000000*%
%ADD13R,2.000000X2.000000*%
%ADD14C,2.000000*%
%ADD15O,1.700000X1.700000*%
%ADD16O,1.800000X1.500000*%
%ADD17R,1.800000X1.500000*%
%ADD18O,2.000000X1.500000*%
%ADD19C,3.200000*%
%ADD20R,2.600000X2.600000*%
%ADD21C,2.600000*%
%ADD22O,2.000000X2.200000*%
%ADD23C,2.200000*%
%ADD24C,2.500000*%
%ADD25R,2.000000X1.600000*%
%ADD26O,2.000000X1.600000*%
%ADD27O,2.000000X1.700000*%
G04 APERTURE END LIST*
D10*
%TO.C,C4*%
X57230000Y-42545000D03*
X62230000Y-42545000D03*
%TD*%
D11*
%TO.C,C3*%
X127952500Y-105410000D03*
D10*
X127952500Y-82550000D03*
%TD*%
D11*
%TO.C,C2*%
X119380000Y-45720000D03*
D10*
X119380000Y-68580000D03*
%TD*%
D11*
%TO.C,C1*%
X96520000Y-45720000D03*
D10*
X96520000Y-68580000D03*
%TD*%
D12*
%TO.C,J9*%
X126365000Y-110490000D03*
D13*
X123825000Y-110490000D03*
%TD*%
D14*
%TO.C,D26*%
X48260000Y-86210000D03*
X52760000Y-86210000D03*
X48260000Y-92710000D03*
X52760000Y-92710000D03*
%TD*%
%TO.C,D25*%
X48260000Y-96370000D03*
X52760000Y-96370000D03*
X48260000Y-102870000D03*
X52760000Y-102870000D03*
%TD*%
%TO.C,D24*%
X57150000Y-86210000D03*
X61650000Y-86210000D03*
X57150000Y-92710000D03*
X61650000Y-92710000D03*
%TD*%
%TO.C,D23*%
X57150000Y-96370000D03*
X61650000Y-96370000D03*
X57150000Y-102870000D03*
X61650000Y-102870000D03*
%TD*%
%TO.C,D22*%
X66040000Y-86210000D03*
X70540000Y-86210000D03*
X66040000Y-92710000D03*
X70540000Y-92710000D03*
%TD*%
%TO.C,D21*%
X66040000Y-96370000D03*
X70540000Y-96370000D03*
X66040000Y-102870000D03*
X70540000Y-102870000D03*
%TD*%
%TO.C,D20*%
X74930000Y-86210000D03*
X79430000Y-86210000D03*
X74930000Y-92710000D03*
X79430000Y-92710000D03*
%TD*%
%TO.C,D19*%
X74930000Y-96370000D03*
X79430000Y-96370000D03*
X74930000Y-102870000D03*
X79430000Y-102870000D03*
%TD*%
%TO.C,D18*%
X83820000Y-86210000D03*
X88320000Y-86210000D03*
X83820000Y-92710000D03*
X88320000Y-92710000D03*
%TD*%
%TO.C,D17*%
X83820000Y-96370000D03*
X88320000Y-96370000D03*
X83820000Y-102870000D03*
X88320000Y-102870000D03*
%TD*%
%TO.C,D16*%
X92710000Y-86210000D03*
X97210000Y-86210000D03*
X92710000Y-92710000D03*
X97210000Y-92710000D03*
%TD*%
%TO.C,D15*%
X92710000Y-96370000D03*
X97210000Y-96370000D03*
X92710000Y-102870000D03*
X97210000Y-102870000D03*
%TD*%
%TO.C,D14*%
X101600000Y-86210000D03*
X106100000Y-86210000D03*
X101600000Y-92710000D03*
X106100000Y-92710000D03*
%TD*%
%TO.C,D13*%
X101600000Y-96370000D03*
X106100000Y-96370000D03*
X101600000Y-102870000D03*
X106100000Y-102870000D03*
%TD*%
%TO.C,D12*%
X110490000Y-86210000D03*
X114990000Y-86210000D03*
X110490000Y-92710000D03*
X114990000Y-92710000D03*
%TD*%
%TO.C,D11*%
X110490000Y-96370000D03*
X114990000Y-96370000D03*
X110490000Y-102870000D03*
X114990000Y-102870000D03*
%TD*%
D15*
%TO.C,D28*%
X106680000Y-74612500D03*
G36*
G01*
X106230000Y-61112500D02*
X107130000Y-61112500D01*
G75*
G02*
X107530000Y-61512500I0J-400000D01*
G01*
X107530000Y-62312500D01*
G75*
G02*
X107130000Y-62712500I-400000J0D01*
G01*
X106230000Y-62712500D01*
G75*
G02*
X105830000Y-62312500I0J400000D01*
G01*
X105830000Y-61512500D01*
G75*
G02*
X106230000Y-61112500I400000J0D01*
G01*
G37*
%TD*%
%TO.C,D27*%
X113030000Y-76200000D03*
G36*
G01*
X112580000Y-62700000D02*
X113480000Y-62700000D01*
G75*
G02*
X113880000Y-63100000I0J-400000D01*
G01*
X113880000Y-63900000D01*
G75*
G02*
X113480000Y-64300000I-400000J0D01*
G01*
X112580000Y-64300000D01*
G75*
G02*
X112180000Y-63900000I0J400000D01*
G01*
X112180000Y-63100000D01*
G75*
G02*
X112580000Y-62700000I400000J0D01*
G01*
G37*
%TD*%
D16*
%TO.C,U3*%
X131445000Y-82550000D03*
X123825000Y-105410000D03*
X131445000Y-85090000D03*
X123825000Y-102870000D03*
X131445000Y-87630000D03*
X123825000Y-100330000D03*
X131445000Y-90170000D03*
X123825000Y-97790000D03*
X131445000Y-92710000D03*
X123825000Y-95250000D03*
X131445000Y-95250000D03*
X123825000Y-92710000D03*
X131445000Y-97790000D03*
X123825000Y-90170000D03*
X131445000Y-100330000D03*
X123825000Y-87630000D03*
X131445000Y-102870000D03*
X123825000Y-85090000D03*
X131445000Y-105410000D03*
D17*
X123825000Y-82550000D03*
%TD*%
D12*
%TO.C,J7*%
X136842500Y-76200000D03*
D13*
X136842500Y-73660000D03*
%TD*%
D18*
%TO.C,J6*%
X136842500Y-105410000D03*
X136842500Y-102870000D03*
D12*
X136842500Y-100330000D03*
X136842500Y-97790000D03*
X136842500Y-95250000D03*
X136842500Y-92710000D03*
X136842500Y-90170000D03*
X136842500Y-87630000D03*
D13*
X136842500Y-85090000D03*
%TD*%
D11*
%TO.C,R1*%
X89535000Y-43815000D03*
D10*
X74295000Y-43815000D03*
%TD*%
D12*
%TO.C,J1*%
X136842500Y-68580000D03*
X136842500Y-66040000D03*
X136842500Y-63500000D03*
X136842500Y-60960000D03*
X136842500Y-58420000D03*
X136842500Y-55880000D03*
X136842500Y-53340000D03*
X136842500Y-50800000D03*
D13*
X136842500Y-48260000D03*
%TD*%
D12*
%TO.C,J5*%
X136842500Y-43180000D03*
X136842500Y-40640000D03*
X136842500Y-38100000D03*
D13*
X136842500Y-35560000D03*
%TD*%
D16*
%TO.C,D10*%
X91440000Y-26035000D03*
D17*
X91440000Y-23495000D03*
%TD*%
D16*
%TO.C,D9*%
X66040000Y-26035000D03*
D17*
X66040000Y-23495000D03*
%TD*%
D16*
%TO.C,D8*%
X88900000Y-26035000D03*
D17*
X88900000Y-23495000D03*
%TD*%
D16*
%TO.C,D7*%
X71120000Y-26035000D03*
D17*
X71120000Y-23495000D03*
%TD*%
D16*
%TO.C,D6*%
X86360000Y-26035000D03*
D17*
X86360000Y-23495000D03*
%TD*%
D16*
%TO.C,D5*%
X83820000Y-26035000D03*
D17*
X83820000Y-23495000D03*
%TD*%
D16*
%TO.C,D4*%
X81280000Y-26035000D03*
D17*
X81280000Y-23495000D03*
%TD*%
D16*
%TO.C,D3*%
X78740000Y-26035000D03*
D17*
X78740000Y-23495000D03*
%TD*%
D16*
%TO.C,D2*%
X76200000Y-26035000D03*
D17*
X76200000Y-23495000D03*
%TD*%
D16*
%TO.C,D1*%
X73660000Y-26035000D03*
D17*
X73660000Y-23495000D03*
%TD*%
D19*
%TO.C,H8*%
X128016000Y-68326000D03*
%TD*%
%TO.C,H7*%
X128016000Y-37338000D03*
%TD*%
%TO.C,H6*%
X52832000Y-68326000D03*
%TD*%
%TO.C,H5*%
X52832000Y-37338000D03*
%TD*%
%TO.C,H4*%
X137160000Y-111760000D03*
%TD*%
%TO.C,H3*%
X137160000Y-22860000D03*
%TD*%
%TO.C,H2*%
X48260000Y-111760000D03*
%TD*%
%TO.C,H1*%
X48260000Y-22860000D03*
%TD*%
D12*
%TO.C,DS1*%
X96520000Y-36830000D03*
X93980000Y-36830000D03*
X91440000Y-36830000D03*
X88900000Y-36830000D03*
X86360000Y-36830000D03*
X83820000Y-36830000D03*
X81280000Y-36830000D03*
X78740000Y-36830000D03*
X76200000Y-36830000D03*
X73660000Y-36830000D03*
X71120000Y-36830000D03*
X68580000Y-36830000D03*
X66040000Y-36830000D03*
X63500000Y-36830000D03*
X60960000Y-36830000D03*
D13*
X58420000Y-36830000D03*
%TD*%
D16*
%TO.C,J2*%
X110490000Y-48260000D03*
X110490000Y-50800000D03*
X110490000Y-53340000D03*
X110490000Y-55880000D03*
X110490000Y-58420000D03*
X110490000Y-60960000D03*
X110490000Y-63500000D03*
X110490000Y-66040000D03*
D17*
X110490000Y-68580000D03*
%TD*%
%TO.C,J3*%
X88265000Y-68580000D03*
D16*
X88265000Y-66040000D03*
X88265000Y-63500000D03*
X88265000Y-60960000D03*
X88265000Y-58420000D03*
X88265000Y-55880000D03*
X88265000Y-53340000D03*
X88265000Y-50800000D03*
X88265000Y-48260000D03*
%TD*%
D20*
%TO.C,J4*%
X116522500Y-31115000D03*
D21*
X116522500Y-26115000D03*
%TD*%
D22*
%TO.C,RV1*%
X62230000Y-24765000D03*
D23*
X57150000Y-22225000D03*
X57150000Y-27305000D03*
D24*
X59690000Y-24765000D03*
%TD*%
D17*
%TO.C,U1*%
X123190000Y-68580000D03*
D16*
X115570000Y-45720000D03*
X123190000Y-66040000D03*
X115570000Y-48260000D03*
X123190000Y-63500000D03*
X115570000Y-50800000D03*
X123190000Y-60960000D03*
X115570000Y-53340000D03*
X123190000Y-58420000D03*
X115570000Y-55880000D03*
X123190000Y-55880000D03*
X115570000Y-58420000D03*
X123190000Y-53340000D03*
X115570000Y-60960000D03*
X123190000Y-50800000D03*
X115570000Y-63500000D03*
X123190000Y-48260000D03*
X115570000Y-66040000D03*
X123190000Y-45720000D03*
X115570000Y-68580000D03*
%TD*%
%TO.C,U2*%
X92710000Y-68580000D03*
X100330000Y-45720000D03*
X92710000Y-66040000D03*
X100330000Y-48260000D03*
X92710000Y-63500000D03*
X100330000Y-50800000D03*
X92710000Y-60960000D03*
X100330000Y-53340000D03*
X92710000Y-58420000D03*
X100330000Y-55880000D03*
X92710000Y-55880000D03*
X100330000Y-58420000D03*
X92710000Y-53340000D03*
X100330000Y-60960000D03*
X92710000Y-50800000D03*
X100330000Y-63500000D03*
X92710000Y-48260000D03*
X100330000Y-66040000D03*
X92710000Y-45720000D03*
D17*
X100330000Y-68580000D03*
%TD*%
D25*
%TO.C,J8*%
X120967500Y-85090000D03*
D26*
X120967500Y-87630000D03*
D27*
X120967500Y-90170000D03*
D26*
X120967500Y-92710000D03*
X120967500Y-95250000D03*
D27*
X120967500Y-97790000D03*
X120967500Y-100330000D03*
X120967500Y-102870000D03*
%TD*%
M02*
