%TF.GenerationSoftware,KiCad,Pcbnew,(5.1.8)-1*%
%TF.CreationDate,2023-06-16T08:50:19+03:00*%
%TF.ProjectId,Ports,506f7274-732e-46b6-9963-61645f706362,rev?*%
%TF.SameCoordinates,Original*%
%TF.FileFunction,Legend,Top*%
%TF.FilePolarity,Positive*%
%FSLAX46Y46*%
G04 Gerber Fmt 4.6, Leading zero omitted, Abs format (unit mm)*
G04 Created by KiCad (PCBNEW (5.1.8)-1) date 2023-06-16 08:50:19*
%MOMM*%
%LPD*%
G01*
G04 APERTURE LIST*
%ADD10C,0.150000*%
%ADD11C,0.400000*%
%ADD12C,0.300000*%
%ADD13C,0.250000*%
%ADD14C,0.200000*%
%ADD15C,0.120000*%
G04 APERTURE END LIST*
D10*
X140152380Y-62412380D02*
X139152380Y-62412380D01*
X139152380Y-62174285D01*
X139200000Y-62031428D01*
X139295238Y-61936190D01*
X139390476Y-61888571D01*
X139580952Y-61840952D01*
X139723809Y-61840952D01*
X139914285Y-61888571D01*
X140009523Y-61936190D01*
X140104761Y-62031428D01*
X140152380Y-62174285D01*
X140152380Y-62412380D01*
X140152380Y-60983809D02*
X139628571Y-60983809D01*
X139533333Y-61031428D01*
X139485714Y-61126666D01*
X139485714Y-61317142D01*
X139533333Y-61412380D01*
X140104761Y-60983809D02*
X140152380Y-61079047D01*
X140152380Y-61317142D01*
X140104761Y-61412380D01*
X140009523Y-61460000D01*
X139914285Y-61460000D01*
X139819047Y-61412380D01*
X139771428Y-61317142D01*
X139771428Y-61079047D01*
X139723809Y-60983809D01*
X139485714Y-60650476D02*
X139485714Y-60269523D01*
X139152380Y-60507619D02*
X140009523Y-60507619D01*
X140104761Y-60460000D01*
X140152380Y-60364761D01*
X140152380Y-60269523D01*
X140152380Y-59507619D02*
X139628571Y-59507619D01*
X139533333Y-59555238D01*
X139485714Y-59650476D01*
X139485714Y-59840952D01*
X139533333Y-59936190D01*
X140104761Y-59507619D02*
X140152380Y-59602857D01*
X140152380Y-59840952D01*
X140104761Y-59936190D01*
X140009523Y-59983809D01*
X139914285Y-59983809D01*
X139819047Y-59936190D01*
X139771428Y-59840952D01*
X139771428Y-59602857D01*
X139723809Y-59507619D01*
D11*
X63246428Y-54062142D02*
X61532142Y-54062142D01*
X62389285Y-54062142D02*
X62389285Y-51062142D01*
X62103571Y-51490714D01*
X61817857Y-51776428D01*
X61532142Y-51919285D01*
X65817857Y-51062142D02*
X65246428Y-51062142D01*
X64960714Y-51205000D01*
X64817857Y-51347857D01*
X64532142Y-51776428D01*
X64389285Y-52347857D01*
X64389285Y-53490714D01*
X64532142Y-53776428D01*
X64675000Y-53919285D01*
X64960714Y-54062142D01*
X65532142Y-54062142D01*
X65817857Y-53919285D01*
X65960714Y-53776428D01*
X66103571Y-53490714D01*
X66103571Y-52776428D01*
X65960714Y-52490714D01*
X65817857Y-52347857D01*
X65532142Y-52205000D01*
X64960714Y-52205000D01*
X64675000Y-52347857D01*
X64532142Y-52490714D01*
X64389285Y-52776428D01*
X67960714Y-51062142D02*
X68246428Y-51062142D01*
X68532142Y-51205000D01*
X68675000Y-51347857D01*
X68817857Y-51633571D01*
X68960714Y-52205000D01*
X68960714Y-52919285D01*
X68817857Y-53490714D01*
X68675000Y-53776428D01*
X68532142Y-53919285D01*
X68246428Y-54062142D01*
X67960714Y-54062142D01*
X67675000Y-53919285D01*
X67532142Y-53776428D01*
X67389285Y-53490714D01*
X67246428Y-52919285D01*
X67246428Y-52205000D01*
X67389285Y-51633571D01*
X67532142Y-51347857D01*
X67675000Y-51205000D01*
X67960714Y-51062142D01*
X70103571Y-51347857D02*
X70246428Y-51205000D01*
X70532142Y-51062142D01*
X71246428Y-51062142D01*
X71532142Y-51205000D01*
X71675000Y-51347857D01*
X71817857Y-51633571D01*
X71817857Y-51919285D01*
X71675000Y-52347857D01*
X69960714Y-54062142D01*
X71817857Y-54062142D01*
D12*
X83979285Y-73473571D02*
X84979285Y-73473571D01*
X84336428Y-74973571D01*
X86193571Y-73973571D02*
X86193571Y-74973571D01*
X85836428Y-73402142D02*
X85479285Y-74473571D01*
X86407857Y-74473571D01*
X86979285Y-74973571D02*
X86979285Y-73473571D01*
X86979285Y-74187857D02*
X87836428Y-74187857D01*
X87836428Y-74973571D02*
X87836428Y-73473571D01*
X89407857Y-74830714D02*
X89336428Y-74902142D01*
X89122142Y-74973571D01*
X88979285Y-74973571D01*
X88765000Y-74902142D01*
X88622142Y-74759285D01*
X88550714Y-74616428D01*
X88479285Y-74330714D01*
X88479285Y-74116428D01*
X88550714Y-73830714D01*
X88622142Y-73687857D01*
X88765000Y-73545000D01*
X88979285Y-73473571D01*
X89122142Y-73473571D01*
X89336428Y-73545000D01*
X89407857Y-73616428D01*
X90050714Y-74973571D02*
X90050714Y-73473571D01*
X90622142Y-73473571D01*
X90765000Y-73545000D01*
X90836428Y-73616428D01*
X90907857Y-73759285D01*
X90907857Y-73973571D01*
X90836428Y-74116428D01*
X90765000Y-74187857D01*
X90622142Y-74259285D01*
X90050714Y-74259285D01*
X91550714Y-73473571D02*
X91550714Y-74687857D01*
X91622142Y-74830714D01*
X91693571Y-74902142D01*
X91836428Y-74973571D01*
X92122142Y-74973571D01*
X92265000Y-74902142D01*
X92336428Y-74830714D01*
X92407857Y-74687857D01*
X92407857Y-73473571D01*
D11*
X81836428Y-79462142D02*
X81836428Y-76462142D01*
X82979285Y-76462142D01*
X83265000Y-76605000D01*
X83407857Y-76747857D01*
X83550714Y-77033571D01*
X83550714Y-77462142D01*
X83407857Y-77747857D01*
X83265000Y-77890714D01*
X82979285Y-78033571D01*
X81836428Y-78033571D01*
X85407857Y-76462142D02*
X85979285Y-76462142D01*
X86265000Y-76605000D01*
X86550714Y-76890714D01*
X86693571Y-77462142D01*
X86693571Y-78462142D01*
X86550714Y-79033571D01*
X86265000Y-79319285D01*
X85979285Y-79462142D01*
X85407857Y-79462142D01*
X85122142Y-79319285D01*
X84836428Y-79033571D01*
X84693571Y-78462142D01*
X84693571Y-77462142D01*
X84836428Y-76890714D01*
X85122142Y-76605000D01*
X85407857Y-76462142D01*
X89693571Y-79462142D02*
X88693571Y-78033571D01*
X87979285Y-79462142D02*
X87979285Y-76462142D01*
X89122142Y-76462142D01*
X89407857Y-76605000D01*
X89550714Y-76747857D01*
X89693571Y-77033571D01*
X89693571Y-77462142D01*
X89550714Y-77747857D01*
X89407857Y-77890714D01*
X89122142Y-78033571D01*
X87979285Y-78033571D01*
X90550714Y-76462142D02*
X92265000Y-76462142D01*
X91407857Y-79462142D02*
X91407857Y-76462142D01*
X93122142Y-79319285D02*
X93550714Y-79462142D01*
X94265000Y-79462142D01*
X94550714Y-79319285D01*
X94693571Y-79176428D01*
X94836428Y-78890714D01*
X94836428Y-78605000D01*
X94693571Y-78319285D01*
X94550714Y-78176428D01*
X94265000Y-78033571D01*
X93693571Y-77890714D01*
X93407857Y-77747857D01*
X93265000Y-77605000D01*
X93122142Y-77319285D01*
X93122142Y-77033571D01*
X93265000Y-76747857D01*
X93407857Y-76605000D01*
X93693571Y-76462142D01*
X94407857Y-76462142D01*
X94836428Y-76605000D01*
D13*
X118284761Y-52228571D02*
X118284761Y-53180952D01*
X119237142Y-53276190D01*
X119141904Y-53180952D01*
X119046666Y-52990476D01*
X119046666Y-52514285D01*
X119141904Y-52323809D01*
X119237142Y-52228571D01*
X119427619Y-52133333D01*
X119903809Y-52133333D01*
X120094285Y-52228571D01*
X120189523Y-52323809D01*
X120284761Y-52514285D01*
X120284761Y-52990476D01*
X120189523Y-53180952D01*
X120094285Y-53276190D01*
X118284761Y-51466666D02*
X118284761Y-50133333D01*
X120284761Y-50990476D01*
X118951428Y-48514285D02*
X120284761Y-48514285D01*
X118189523Y-48990476D02*
X119618095Y-49466666D01*
X119618095Y-48228571D01*
X95424761Y-52228571D02*
X95424761Y-53180952D01*
X96377142Y-53276190D01*
X96281904Y-53180952D01*
X96186666Y-52990476D01*
X96186666Y-52514285D01*
X96281904Y-52323809D01*
X96377142Y-52228571D01*
X96567619Y-52133333D01*
X97043809Y-52133333D01*
X97234285Y-52228571D01*
X97329523Y-52323809D01*
X97424761Y-52514285D01*
X97424761Y-52990476D01*
X97329523Y-53180952D01*
X97234285Y-53276190D01*
X95424761Y-51466666D02*
X95424761Y-50133333D01*
X97424761Y-50990476D01*
X96091428Y-48514285D02*
X97424761Y-48514285D01*
X95329523Y-48990476D02*
X96758095Y-49466666D01*
X96758095Y-48228571D01*
D10*
X139200000Y-42552857D02*
X139152380Y-42648095D01*
X139152380Y-42790952D01*
X139200000Y-42933809D01*
X139295238Y-43029047D01*
X139390476Y-43076666D01*
X139580952Y-43124285D01*
X139723809Y-43124285D01*
X139914285Y-43076666D01*
X140009523Y-43029047D01*
X140104761Y-42933809D01*
X140152380Y-42790952D01*
X140152380Y-42695714D01*
X140104761Y-42552857D01*
X140057142Y-42505238D01*
X139723809Y-42505238D01*
X139723809Y-42695714D01*
X139485714Y-42076666D02*
X140152380Y-42076666D01*
X139580952Y-42076666D02*
X139533333Y-42029047D01*
X139485714Y-41933809D01*
X139485714Y-41790952D01*
X139533333Y-41695714D01*
X139628571Y-41648095D01*
X140152380Y-41648095D01*
X140152380Y-40743333D02*
X139152380Y-40743333D01*
X140104761Y-40743333D02*
X140152380Y-40838571D01*
X140152380Y-41029047D01*
X140104761Y-41124285D01*
X140057142Y-41171904D01*
X139961904Y-41219523D01*
X139676190Y-41219523D01*
X139580952Y-41171904D01*
X139533333Y-41124285D01*
X139485714Y-41029047D01*
X139485714Y-40838571D01*
X139533333Y-40743333D01*
X139533333Y-47347142D02*
X139485714Y-47394761D01*
X139342857Y-47442380D01*
X139247619Y-47442380D01*
X139104761Y-47394761D01*
X139009523Y-47299523D01*
X138961904Y-47204285D01*
X138914285Y-47013809D01*
X138914285Y-46870952D01*
X138961904Y-46680476D01*
X139009523Y-46585238D01*
X139104761Y-46490000D01*
X139247619Y-46442380D01*
X139342857Y-46442380D01*
X139485714Y-46490000D01*
X139533333Y-46537619D01*
X140152380Y-46442380D02*
X140247619Y-46442380D01*
X140342857Y-46490000D01*
X140390476Y-46537619D01*
X140438095Y-46632857D01*
X140485714Y-46823333D01*
X140485714Y-47061428D01*
X140438095Y-47251904D01*
X140390476Y-47347142D01*
X140342857Y-47394761D01*
X140247619Y-47442380D01*
X140152380Y-47442380D01*
X140057142Y-47394761D01*
X140009523Y-47347142D01*
X139961904Y-47251904D01*
X139914285Y-47061428D01*
X139914285Y-46823333D01*
X139961904Y-46632857D01*
X140009523Y-46537619D01*
X140057142Y-46490000D01*
X140152380Y-46442380D01*
X139533333Y-44807142D02*
X139485714Y-44854761D01*
X139342857Y-44902380D01*
X139247619Y-44902380D01*
X139104761Y-44854761D01*
X139009523Y-44759523D01*
X138961904Y-44664285D01*
X138914285Y-44473809D01*
X138914285Y-44330952D01*
X138961904Y-44140476D01*
X139009523Y-44045238D01*
X139104761Y-43950000D01*
X139247619Y-43902380D01*
X139342857Y-43902380D01*
X139485714Y-43950000D01*
X139533333Y-43997619D01*
X140485714Y-44902380D02*
X139914285Y-44902380D01*
X140200000Y-44902380D02*
X140200000Y-43902380D01*
X140104761Y-44045238D01*
X140009523Y-44140476D01*
X139914285Y-44188095D01*
X139366666Y-51522380D02*
X140033333Y-51522380D01*
X139604761Y-52522380D01*
X139652380Y-69302380D02*
X139747619Y-69302380D01*
X139842857Y-69350000D01*
X139890476Y-69397619D01*
X139938095Y-69492857D01*
X139985714Y-69683333D01*
X139985714Y-69921428D01*
X139938095Y-70111904D01*
X139890476Y-70207142D01*
X139842857Y-70254761D01*
X139747619Y-70302380D01*
X139652380Y-70302380D01*
X139557142Y-70254761D01*
X139509523Y-70207142D01*
X139461904Y-70111904D01*
X139414285Y-69921428D01*
X139414285Y-69683333D01*
X139461904Y-69492857D01*
X139509523Y-69397619D01*
X139557142Y-69350000D01*
X139652380Y-69302380D01*
X139200000Y-73032857D02*
X139152380Y-73128095D01*
X139152380Y-73270952D01*
X139200000Y-73413809D01*
X139295238Y-73509047D01*
X139390476Y-73556666D01*
X139580952Y-73604285D01*
X139723809Y-73604285D01*
X139914285Y-73556666D01*
X140009523Y-73509047D01*
X140104761Y-73413809D01*
X140152380Y-73270952D01*
X140152380Y-73175714D01*
X140104761Y-73032857D01*
X140057142Y-72985238D01*
X139723809Y-72985238D01*
X139723809Y-73175714D01*
X139485714Y-72556666D02*
X140152380Y-72556666D01*
X139580952Y-72556666D02*
X139533333Y-72509047D01*
X139485714Y-72413809D01*
X139485714Y-72270952D01*
X139533333Y-72175714D01*
X139628571Y-72128095D01*
X140152380Y-72128095D01*
X140152380Y-71223333D02*
X139152380Y-71223333D01*
X140104761Y-71223333D02*
X140152380Y-71318571D01*
X140152380Y-71509047D01*
X140104761Y-71604285D01*
X140057142Y-71651904D01*
X139961904Y-71699523D01*
X139676190Y-71699523D01*
X139580952Y-71651904D01*
X139533333Y-71604285D01*
X139485714Y-71509047D01*
X139485714Y-71318571D01*
X139533333Y-71223333D01*
X60412380Y-40560476D02*
X61412380Y-40227142D01*
X60412380Y-39893809D01*
X61364761Y-39131904D02*
X61412380Y-39227142D01*
X61412380Y-39417619D01*
X61364761Y-39512857D01*
X61317142Y-39560476D01*
X61221904Y-39608095D01*
X60936190Y-39608095D01*
X60840952Y-39560476D01*
X60793333Y-39512857D01*
X60745714Y-39417619D01*
X60745714Y-39227142D01*
X60793333Y-39131904D01*
X61364761Y-38274761D02*
X61412380Y-38370000D01*
X61412380Y-38560476D01*
X61364761Y-38655714D01*
X61317142Y-38703333D01*
X61221904Y-38750952D01*
X60936190Y-38750952D01*
X60840952Y-38703333D01*
X60793333Y-38655714D01*
X60745714Y-38560476D01*
X60745714Y-38370000D01*
X60793333Y-38274761D01*
X57920000Y-40647857D02*
X57872380Y-40743095D01*
X57872380Y-40885952D01*
X57920000Y-41028809D01*
X58015238Y-41124047D01*
X58110476Y-41171666D01*
X58300952Y-41219285D01*
X58443809Y-41219285D01*
X58634285Y-41171666D01*
X58729523Y-41124047D01*
X58824761Y-41028809D01*
X58872380Y-40885952D01*
X58872380Y-40790714D01*
X58824761Y-40647857D01*
X58777142Y-40600238D01*
X58443809Y-40600238D01*
X58443809Y-40790714D01*
X58205714Y-40171666D02*
X58872380Y-40171666D01*
X58300952Y-40171666D02*
X58253333Y-40124047D01*
X58205714Y-40028809D01*
X58205714Y-39885952D01*
X58253333Y-39790714D01*
X58348571Y-39743095D01*
X58872380Y-39743095D01*
X58872380Y-38838333D02*
X57872380Y-38838333D01*
X58824761Y-38838333D02*
X58872380Y-38933571D01*
X58872380Y-39124047D01*
X58824761Y-39219285D01*
X58777142Y-39266904D01*
X58681904Y-39314523D01*
X58396190Y-39314523D01*
X58300952Y-39266904D01*
X58253333Y-39219285D01*
X58205714Y-39124047D01*
X58205714Y-38933571D01*
X58253333Y-38838333D01*
D14*
X107993571Y-59729285D02*
X106493571Y-59729285D01*
X106493571Y-59157857D01*
X106565000Y-59015000D01*
X106636428Y-58943571D01*
X106779285Y-58872142D01*
X106993571Y-58872142D01*
X107136428Y-58943571D01*
X107207857Y-59015000D01*
X107279285Y-59157857D01*
X107279285Y-59729285D01*
X106493571Y-57943571D02*
X106493571Y-57657857D01*
X106565000Y-57515000D01*
X106707857Y-57372142D01*
X106993571Y-57300714D01*
X107493571Y-57300714D01*
X107779285Y-57372142D01*
X107922142Y-57515000D01*
X107993571Y-57657857D01*
X107993571Y-57943571D01*
X107922142Y-58086428D01*
X107779285Y-58229285D01*
X107493571Y-58300714D01*
X106993571Y-58300714D01*
X106707857Y-58229285D01*
X106565000Y-58086428D01*
X106493571Y-57943571D01*
X107993571Y-55800714D02*
X107279285Y-56300714D01*
X107993571Y-56657857D02*
X106493571Y-56657857D01*
X106493571Y-56086428D01*
X106565000Y-55943571D01*
X106636428Y-55872142D01*
X106779285Y-55800714D01*
X106993571Y-55800714D01*
X107136428Y-55872142D01*
X107207857Y-55943571D01*
X107279285Y-56086428D01*
X107279285Y-56657857D01*
X106493571Y-55372142D02*
X106493571Y-54515000D01*
X107993571Y-54943571D02*
X106493571Y-54943571D01*
X106493571Y-53729285D02*
X106493571Y-53586428D01*
X106565000Y-53443571D01*
X106636428Y-53372142D01*
X106779285Y-53300714D01*
X107065000Y-53229285D01*
X107422142Y-53229285D01*
X107707857Y-53300714D01*
X107850714Y-53372142D01*
X107922142Y-53443571D01*
X107993571Y-53586428D01*
X107993571Y-53729285D01*
X107922142Y-53872142D01*
X107850714Y-53943571D01*
X107707857Y-54015000D01*
X107422142Y-54086428D01*
X107065000Y-54086428D01*
X106779285Y-54015000D01*
X106636428Y-53943571D01*
X106565000Y-53872142D01*
X106493571Y-53729285D01*
X85133571Y-59729285D02*
X83633571Y-59729285D01*
X83633571Y-59157857D01*
X83705000Y-59015000D01*
X83776428Y-58943571D01*
X83919285Y-58872142D01*
X84133571Y-58872142D01*
X84276428Y-58943571D01*
X84347857Y-59015000D01*
X84419285Y-59157857D01*
X84419285Y-59729285D01*
X83633571Y-57943571D02*
X83633571Y-57657857D01*
X83705000Y-57515000D01*
X83847857Y-57372142D01*
X84133571Y-57300714D01*
X84633571Y-57300714D01*
X84919285Y-57372142D01*
X85062142Y-57515000D01*
X85133571Y-57657857D01*
X85133571Y-57943571D01*
X85062142Y-58086428D01*
X84919285Y-58229285D01*
X84633571Y-58300714D01*
X84133571Y-58300714D01*
X83847857Y-58229285D01*
X83705000Y-58086428D01*
X83633571Y-57943571D01*
X85133571Y-55800714D02*
X84419285Y-56300714D01*
X85133571Y-56657857D02*
X83633571Y-56657857D01*
X83633571Y-56086428D01*
X83705000Y-55943571D01*
X83776428Y-55872142D01*
X83919285Y-55800714D01*
X84133571Y-55800714D01*
X84276428Y-55872142D01*
X84347857Y-55943571D01*
X84419285Y-56086428D01*
X84419285Y-56657857D01*
X83633571Y-55372142D02*
X83633571Y-54515000D01*
X85133571Y-54943571D02*
X83633571Y-54943571D01*
X85133571Y-53229285D02*
X85133571Y-54086428D01*
X85133571Y-53657857D02*
X83633571Y-53657857D01*
X83847857Y-53800714D01*
X83990714Y-53943571D01*
X84062142Y-54086428D01*
D10*
X99044285Y-78811428D02*
X99806190Y-78811428D01*
X99425238Y-79192380D02*
X99425238Y-78430476D01*
X100758571Y-78192380D02*
X100282380Y-78192380D01*
X100234761Y-78668571D01*
X100282380Y-78620952D01*
X100377619Y-78573333D01*
X100615714Y-78573333D01*
X100710952Y-78620952D01*
X100758571Y-78668571D01*
X100806190Y-78763809D01*
X100806190Y-79001904D01*
X100758571Y-79097142D01*
X100710952Y-79144761D01*
X100615714Y-79192380D01*
X100377619Y-79192380D01*
X100282380Y-79144761D01*
X100234761Y-79097142D01*
X101091904Y-78192380D02*
X101425238Y-79192380D01*
X101758571Y-78192380D01*
X114927142Y-78240000D02*
X114831904Y-78192380D01*
X114689047Y-78192380D01*
X114546190Y-78240000D01*
X114450952Y-78335238D01*
X114403333Y-78430476D01*
X114355714Y-78620952D01*
X114355714Y-78763809D01*
X114403333Y-78954285D01*
X114450952Y-79049523D01*
X114546190Y-79144761D01*
X114689047Y-79192380D01*
X114784285Y-79192380D01*
X114927142Y-79144761D01*
X114974761Y-79097142D01*
X114974761Y-78763809D01*
X114784285Y-78763809D01*
X115403333Y-78525714D02*
X115403333Y-79192380D01*
X115403333Y-78620952D02*
X115450952Y-78573333D01*
X115546190Y-78525714D01*
X115689047Y-78525714D01*
X115784285Y-78573333D01*
X115831904Y-78668571D01*
X115831904Y-79192380D01*
X116736666Y-79192380D02*
X116736666Y-78192380D01*
X116736666Y-79144761D02*
X116641428Y-79192380D01*
X116450952Y-79192380D01*
X116355714Y-79144761D01*
X116308095Y-79097142D01*
X116260476Y-79001904D01*
X116260476Y-78716190D01*
X116308095Y-78620952D01*
X116355714Y-78573333D01*
X116450952Y-78525714D01*
X116641428Y-78525714D01*
X116736666Y-78573333D01*
D15*
%TO.C,C1*%
X97776000Y-58960000D02*
X99140000Y-58960000D01*
X93900000Y-58960000D02*
X95264000Y-58960000D01*
X97776000Y-68200000D02*
X99140000Y-68200000D01*
X93900000Y-68200000D02*
X95264000Y-68200000D01*
X99140000Y-68200000D02*
X99140000Y-58960000D01*
X93900000Y-68200000D02*
X93900000Y-58960000D01*
%TO.C,J5*%
X138490000Y-40580000D02*
X135830000Y-40580000D01*
X138490000Y-45720000D02*
X138490000Y-40580000D01*
X135830000Y-45720000D02*
X135830000Y-40580000D01*
X138490000Y-45720000D02*
X135830000Y-45720000D01*
X138490000Y-46990000D02*
X138490000Y-48320000D01*
X138490000Y-48320000D02*
X137160000Y-48320000D01*
%TO.C,C2*%
X116670000Y-70669000D02*
X122010000Y-70669000D01*
X116670000Y-74111000D02*
X122010000Y-74111000D01*
X116670000Y-70669000D02*
X116670000Y-71335000D01*
X116670000Y-73445000D02*
X116670000Y-74111000D01*
X122010000Y-70669000D02*
X122010000Y-71335000D01*
X122010000Y-73445000D02*
X122010000Y-74111000D01*
%TO.C,DS1*%
X53420000Y-65338000D02*
X53420000Y-40338000D01*
X126420000Y-65338000D02*
X53420000Y-65338000D01*
X126420000Y-40338000D02*
X126420000Y-65338000D01*
X53420000Y-40338000D02*
X126420000Y-40338000D01*
X122620000Y-45838000D02*
X122620000Y-59838000D01*
X122120660Y-60338000D02*
X58620000Y-60338000D01*
X58120280Y-59837320D02*
X58120280Y-45838000D01*
X58620000Y-45338000D02*
X122120000Y-45338000D01*
X56920000Y-34338000D02*
X59920000Y-34338000D01*
X50290000Y-34698000D02*
X51080000Y-34698000D01*
X50280000Y-34698000D02*
X50280000Y-70978000D01*
X130560000Y-34698000D02*
X51080000Y-34698000D01*
X130560000Y-70978000D02*
X130560000Y-34698000D01*
X50280000Y-70978000D02*
X130560000Y-70978000D01*
D10*
X54190000Y-37338000D02*
G75*
G03*
X54190000Y-37338000I-1270000J0D01*
G01*
X129239000Y-37338000D02*
G75*
G03*
X129239000Y-37338000I-1270000J0D01*
G01*
X54190000Y-68326000D02*
G75*
G03*
X54190000Y-68326000I-1270000J0D01*
G01*
X129239000Y-68326000D02*
G75*
G03*
X129239000Y-68326000I-1270000J0D01*
G01*
D15*
X58620660Y-45336460D02*
G75*
G03*
X58120280Y-45836840I0J-500380D01*
G01*
X58120280Y-59837320D02*
G75*
G03*
X58620660Y-60337700I500380J0D01*
G01*
X122120660Y-60337700D02*
G75*
G03*
X122621040Y-59837320I0J500380D01*
G01*
X122620000Y-45838000D02*
G75*
G03*
X122120000Y-45338000I-500000J0D01*
G01*
%TO.C,J1*%
X138490000Y-73720000D02*
X137160000Y-73720000D01*
X138490000Y-72390000D02*
X138490000Y-73720000D01*
X138490000Y-71120000D02*
X135830000Y-71120000D01*
X135830000Y-71120000D02*
X135830000Y-50740000D01*
X138490000Y-71120000D02*
X138490000Y-50740000D01*
X138490000Y-50740000D02*
X135830000Y-50740000D01*
%TO.C,J2*%
X111820000Y-46930000D02*
X109160000Y-46930000D01*
X111820000Y-67310000D02*
X111820000Y-46930000D01*
X109160000Y-67310000D02*
X109160000Y-46930000D01*
X111820000Y-67310000D02*
X109160000Y-67310000D01*
X111820000Y-68580000D02*
X111820000Y-69910000D01*
X111820000Y-69910000D02*
X110490000Y-69910000D01*
%TO.C,J3*%
X88960000Y-69910000D02*
X87630000Y-69910000D01*
X88960000Y-68580000D02*
X88960000Y-69910000D01*
X88960000Y-67310000D02*
X86300000Y-67310000D01*
X86300000Y-67310000D02*
X86300000Y-46930000D01*
X88960000Y-67310000D02*
X88960000Y-46930000D01*
X88960000Y-46930000D02*
X86300000Y-46930000D01*
%TO.C,J4*%
X102610000Y-82770000D02*
X103010000Y-82770000D01*
X102610000Y-82130000D02*
X102610000Y-82770000D01*
X109152000Y-78462000D02*
X108757000Y-78858000D01*
X111798000Y-75816000D02*
X111418000Y-76196000D01*
X109403000Y-78744000D02*
X109023000Y-79124000D01*
X112064000Y-76082000D02*
X111669000Y-76478000D01*
X103862000Y-78751000D02*
X103756000Y-78858000D01*
X106798000Y-75816000D02*
X106691000Y-75923000D01*
X104128000Y-79017000D02*
X104022000Y-79124000D01*
X107064000Y-76082000D02*
X106957000Y-76189000D01*
X112970000Y-73410000D02*
X112970000Y-82530000D01*
X102850000Y-73410000D02*
X102850000Y-82530000D01*
X102850000Y-82530000D02*
X112970000Y-82530000D01*
X102850000Y-73410000D02*
X112970000Y-73410000D01*
X102850000Y-80970000D02*
X112970000Y-80970000D01*
X102850000Y-82070000D02*
X112970000Y-82070000D01*
X112590000Y-77470000D02*
G75*
G03*
X112590000Y-77470000I-2180000J0D01*
G01*
X107590000Y-77470000D02*
G75*
G03*
X107590000Y-77470000I-2180000J0D01*
G01*
%TO.C,R1*%
X110085000Y-36830000D02*
X109315000Y-36830000D01*
X102005000Y-36830000D02*
X102775000Y-36830000D01*
X109315000Y-35460000D02*
X102775000Y-35460000D01*
X109315000Y-38200000D02*
X109315000Y-35460000D01*
X102775000Y-38200000D02*
X109315000Y-38200000D01*
X102775000Y-35460000D02*
X102775000Y-38200000D01*
D10*
%TO.C,RV1*%
X46990000Y-53340000D02*
G75*
G03*
X46990000Y-53340000I-2540000J0D01*
G01*
X41275000Y-53340000D02*
X41275000Y-50165000D01*
X41275000Y-50165000D02*
X47625000Y-50165000D01*
X47625000Y-50165000D02*
X47625000Y-53340000D01*
X42545000Y-53657500D02*
X42545000Y-53022500D01*
X42545000Y-53022500D02*
X46355000Y-53022500D01*
X46355000Y-53022500D02*
X46355000Y-53657500D01*
X46355000Y-53657500D02*
X42545000Y-53657500D01*
X47625000Y-53340000D02*
G75*
G02*
X41275000Y-53340000I-3175000J0D01*
G01*
D15*
%TO.C,U1*%
X116730000Y-69910000D02*
X118380000Y-69910000D01*
X116730000Y-44390000D02*
X116730000Y-69910000D01*
X122030000Y-44390000D02*
X116730000Y-44390000D01*
X122030000Y-69910000D02*
X122030000Y-44390000D01*
X120380000Y-69910000D02*
X122030000Y-69910000D01*
X118380000Y-69910000D02*
G75*
G02*
X120380000Y-69910000I1000000J0D01*
G01*
%TO.C,U2*%
X97520000Y-69910000D02*
X99170000Y-69910000D01*
X99170000Y-69910000D02*
X99170000Y-44390000D01*
X99170000Y-44390000D02*
X93870000Y-44390000D01*
X93870000Y-44390000D02*
X93870000Y-69910000D01*
X93870000Y-69910000D02*
X95520000Y-69910000D01*
X95520000Y-69910000D02*
G75*
G02*
X97520000Y-69910000I1000000J0D01*
G01*
%TO.C,C1*%
D10*
X96877142Y-63746666D02*
X96924761Y-63794285D01*
X96972380Y-63937142D01*
X96972380Y-64032380D01*
X96924761Y-64175238D01*
X96829523Y-64270476D01*
X96734285Y-64318095D01*
X96543809Y-64365714D01*
X96400952Y-64365714D01*
X96210476Y-64318095D01*
X96115238Y-64270476D01*
X96020000Y-64175238D01*
X95972380Y-64032380D01*
X95972380Y-63937142D01*
X96020000Y-63794285D01*
X96067619Y-63746666D01*
X96972380Y-62794285D02*
X96972380Y-63365714D01*
X96972380Y-63080000D02*
X95972380Y-63080000D01*
X96115238Y-63175238D01*
X96210476Y-63270476D01*
X96258095Y-63365714D01*
%TO.C,C2*%
X124293333Y-72747142D02*
X124245714Y-72794761D01*
X124102857Y-72842380D01*
X124007619Y-72842380D01*
X123864761Y-72794761D01*
X123769523Y-72699523D01*
X123721904Y-72604285D01*
X123674285Y-72413809D01*
X123674285Y-72270952D01*
X123721904Y-72080476D01*
X123769523Y-71985238D01*
X123864761Y-71890000D01*
X124007619Y-71842380D01*
X124102857Y-71842380D01*
X124245714Y-71890000D01*
X124293333Y-71937619D01*
X124674285Y-71937619D02*
X124721904Y-71890000D01*
X124817142Y-71842380D01*
X125055238Y-71842380D01*
X125150476Y-71890000D01*
X125198095Y-71937619D01*
X125245714Y-72032857D01*
X125245714Y-72128095D01*
X125198095Y-72270952D01*
X124626666Y-72842380D01*
X125245714Y-72842380D01*
%TO.C,R1*%
X104608333Y-37282380D02*
X104275000Y-36806190D01*
X104036904Y-37282380D02*
X104036904Y-36282380D01*
X104417857Y-36282380D01*
X104513095Y-36330000D01*
X104560714Y-36377619D01*
X104608333Y-36472857D01*
X104608333Y-36615714D01*
X104560714Y-36710952D01*
X104513095Y-36758571D01*
X104417857Y-36806190D01*
X104036904Y-36806190D01*
X105560714Y-37282380D02*
X104989285Y-37282380D01*
X105275000Y-37282380D02*
X105275000Y-36282380D01*
X105179761Y-36425238D01*
X105084523Y-36520476D01*
X104989285Y-36568095D01*
%TO.C,RV1*%
X49347380Y-53300238D02*
X48871190Y-53633571D01*
X49347380Y-53871666D02*
X48347380Y-53871666D01*
X48347380Y-53490714D01*
X48395000Y-53395476D01*
X48442619Y-53347857D01*
X48537857Y-53300238D01*
X48680714Y-53300238D01*
X48775952Y-53347857D01*
X48823571Y-53395476D01*
X48871190Y-53490714D01*
X48871190Y-53871666D01*
X48347380Y-53014523D02*
X49347380Y-52681190D01*
X48347380Y-52347857D01*
X49347380Y-51490714D02*
X49347380Y-52062142D01*
X49347380Y-51776428D02*
X48347380Y-51776428D01*
X48490238Y-51871666D01*
X48585476Y-51966904D01*
X48633095Y-52062142D01*
%TO.C,U1*%
X118618095Y-42632380D02*
X118618095Y-43441904D01*
X118665714Y-43537142D01*
X118713333Y-43584761D01*
X118808571Y-43632380D01*
X118999047Y-43632380D01*
X119094285Y-43584761D01*
X119141904Y-43537142D01*
X119189523Y-43441904D01*
X119189523Y-42632380D01*
X120189523Y-43632380D02*
X119618095Y-43632380D01*
X119903809Y-43632380D02*
X119903809Y-42632380D01*
X119808571Y-42775238D01*
X119713333Y-42870476D01*
X119618095Y-42918095D01*
%TO.C,U2*%
X95758095Y-42632380D02*
X95758095Y-43441904D01*
X95805714Y-43537142D01*
X95853333Y-43584761D01*
X95948571Y-43632380D01*
X96139047Y-43632380D01*
X96234285Y-43584761D01*
X96281904Y-43537142D01*
X96329523Y-43441904D01*
X96329523Y-42632380D01*
X96758095Y-42727619D02*
X96805714Y-42680000D01*
X96900952Y-42632380D01*
X97139047Y-42632380D01*
X97234285Y-42680000D01*
X97281904Y-42727619D01*
X97329523Y-42822857D01*
X97329523Y-42918095D01*
X97281904Y-43060952D01*
X96710476Y-43632380D01*
X97329523Y-43632380D01*
%TD*%
M02*
