%TF.GenerationSoftware,KiCad,Pcbnew,(5.1.8)-1*%
%TF.CreationDate,2024-07-27T02:38:28+03:00*%
%TF.ProjectId,Ports,506f7274-732e-46b6-9963-61645f706362,rev?*%
%TF.SameCoordinates,Original*%
%TF.FileFunction,Copper,L1,Top*%
%TF.FilePolarity,Positive*%
%FSLAX46Y46*%
G04 Gerber Fmt 4.6, Leading zero omitted, Abs format (unit mm)*
G04 Created by KiCad (PCBNEW (5.1.8)-1) date 2024-07-27 02:38:28*
%MOMM*%
%LPD*%
G01*
G04 APERTURE LIST*
%TA.AperFunction,ComponentPad*%
%ADD10O,1.600000X1.600000*%
%TD*%
%TA.AperFunction,ComponentPad*%
%ADD11R,1.600000X1.600000*%
%TD*%
%TA.AperFunction,ComponentPad*%
%ADD12O,2.300000X2.200000*%
%TD*%
%TA.AperFunction,ComponentPad*%
%ADD13R,2.300000X2.200000*%
%TD*%
%TA.AperFunction,ComponentPad*%
%ADD14O,2.200000X2.300000*%
%TD*%
%TA.AperFunction,ComponentPad*%
%ADD15R,2.200000X2.300000*%
%TD*%
%TA.AperFunction,ComponentPad*%
%ADD16O,2.300000X1.500000*%
%TD*%
%TA.AperFunction,ComponentPad*%
%ADD17R,2.300000X1.500000*%
%TD*%
%TA.AperFunction,ComponentPad*%
%ADD18C,1.600000*%
%TD*%
%TA.AperFunction,ComponentPad*%
%ADD19O,1.600000X1.500000*%
%TD*%
%TA.AperFunction,ComponentPad*%
%ADD20O,2.000000X2.000000*%
%TD*%
%TA.AperFunction,ComponentPad*%
%ADD21R,2.000000X2.000000*%
%TD*%
%TA.AperFunction,ComponentPad*%
%ADD22C,2.000000*%
%TD*%
%TA.AperFunction,ComponentPad*%
%ADD23O,1.800000X1.500000*%
%TD*%
%TA.AperFunction,ComponentPad*%
%ADD24R,1.800000X1.500000*%
%TD*%
%TA.AperFunction,ComponentPad*%
%ADD25R,2.600000X2.600000*%
%TD*%
%TA.AperFunction,ComponentPad*%
%ADD26C,2.600000*%
%TD*%
%TA.AperFunction,ComponentPad*%
%ADD27O,2.000000X2.200000*%
%TD*%
%TA.AperFunction,ComponentPad*%
%ADD28C,2.200000*%
%TD*%
%TA.AperFunction,ComponentPad*%
%ADD29R,2.000000X1.600000*%
%TD*%
%TA.AperFunction,ComponentPad*%
%ADD30O,2.000000X1.600000*%
%TD*%
%TA.AperFunction,ComponentPad*%
%ADD31O,2.000000X1.700000*%
%TD*%
%TA.AperFunction,ViaPad*%
%ADD32C,1.500000*%
%TD*%
%TA.AperFunction,Conductor*%
%ADD33C,0.800000*%
%TD*%
%TA.AperFunction,Conductor*%
%ADD34C,0.600000*%
%TD*%
%TA.AperFunction,Conductor*%
%ADD35C,0.500000*%
%TD*%
G04 APERTURE END LIST*
D10*
%TO.P,D28,2*%
%TO.N,Net-(D12-Pad2)*%
X86995000Y-79375000D03*
D11*
%TO.P,D28,1*%
%TO.N,/P0.6*%
X86995000Y-69215000D03*
%TD*%
D10*
%TO.P,D27,2*%
%TO.N,Net-(D11-Pad2)*%
X84455000Y-76835000D03*
D11*
%TO.P,D27,1*%
%TO.N,/P0.5*%
X84455000Y-66675000D03*
%TD*%
D12*
%TO.P,J1,9*%
%TO.N,/D7*%
X45720000Y-76200000D03*
%TO.P,J1,8*%
%TO.N,/D6*%
X45720000Y-73660000D03*
%TO.P,J1,7*%
%TO.N,/D5*%
X45720000Y-71120000D03*
%TO.P,J1,6*%
%TO.N,/D4*%
X45720000Y-68580000D03*
%TO.P,J1,5*%
%TO.N,/D3*%
X45720000Y-66040000D03*
%TO.P,J1,4*%
%TO.N,/D2*%
X45720000Y-63500000D03*
%TO.P,J1,3*%
%TO.N,/D1*%
X45720000Y-60960000D03*
%TO.P,J1,2*%
%TO.N,/D0*%
X45720000Y-58420000D03*
D13*
%TO.P,J1,1*%
%TO.N,GND*%
X45720000Y-55880000D03*
%TD*%
D14*
%TO.P,J7,2*%
%TO.N,/IN0.OE*%
X66040000Y-113030000D03*
D15*
%TO.P,J7,1*%
%TO.N,/IN0.C*%
X63500000Y-113030000D03*
%TD*%
D12*
%TO.P,J6,9*%
%TO.N,/BUS7*%
X45720000Y-101600000D03*
%TO.P,J6,8*%
%TO.N,/BUS6*%
X45720000Y-99060000D03*
%TO.P,J6,7*%
%TO.N,/BUS5*%
X45720000Y-96520000D03*
%TO.P,J6,6*%
%TO.N,/BUS4*%
X45720000Y-93980000D03*
%TO.P,J6,5*%
%TO.N,/BUS3*%
X45720000Y-91440000D03*
%TO.P,J6,4*%
%TO.N,/BUS2*%
X45720000Y-88900000D03*
%TO.P,J6,3*%
%TO.N,/BUS1*%
X45720000Y-86360000D03*
D16*
%TO.P,J6,2*%
%TO.N,/BUS0*%
X45720000Y-83820000D03*
D17*
%TO.P,J6,1*%
%TO.N,GND*%
X45720000Y-81280000D03*
%TD*%
D12*
%TO.P,J5,4*%
%TO.N,/OUT0*%
X138430000Y-81280000D03*
%TO.P,J5,3*%
%TO.N,GND*%
X138430000Y-78740000D03*
%TO.P,J5,2*%
%TO.N,/OUT1*%
X138430000Y-76200000D03*
D13*
%TO.P,J5,1*%
%TO.N,/OUT2*%
X138430000Y-73660000D03*
%TD*%
D18*
%TO.P,C4,2*%
%TO.N,GND*%
X63580000Y-31115000D03*
%TO.P,C4,1*%
%TO.N,VCC*%
X68580000Y-31115000D03*
%TD*%
D10*
%TO.P,C3,2*%
%TO.N,GND*%
X54927500Y-81280000D03*
D18*
%TO.P,C3,1*%
%TO.N,VCC*%
X54927500Y-104140000D03*
%TD*%
D10*
%TO.P,C2,2*%
%TO.N,GND*%
X72390000Y-74295000D03*
D18*
%TO.P,C2,1*%
%TO.N,VCC*%
X72390000Y-51435000D03*
%TD*%
D19*
%TO.P,C1,2*%
%TO.N,GND*%
X95250000Y-74295000D03*
D18*
%TO.P,C1,1*%
%TO.N,VCC*%
X95250000Y-51435000D03*
%TD*%
D20*
%TO.P,J9,2*%
%TO.N,GND*%
X57785000Y-113030000D03*
D21*
%TO.P,J9,1*%
X55245000Y-113030000D03*
%TD*%
D22*
%TO.P,D26,1*%
%TO.N,/IN0.0*%
X71120000Y-86845000D03*
%TO.P,D26,2*%
%TO.N,Net-(D12-Pad2)*%
X75620000Y-86845000D03*
%TO.P,D26,1*%
%TO.N,/IN0.0*%
X71120000Y-93345000D03*
%TO.P,D26,2*%
%TO.N,Net-(D12-Pad2)*%
X75620000Y-93345000D03*
%TD*%
%TO.P,D25,1*%
%TO.N,/IN0.0*%
X71120000Y-97005000D03*
%TO.P,D25,2*%
%TO.N,Net-(D11-Pad2)*%
X75620000Y-97005000D03*
%TO.P,D25,1*%
%TO.N,/IN0.0*%
X71120000Y-103505000D03*
%TO.P,D25,2*%
%TO.N,Net-(D11-Pad2)*%
X75620000Y-103505000D03*
%TD*%
%TO.P,D24,1*%
%TO.N,/IN0.1*%
X80010000Y-86845000D03*
%TO.P,D24,2*%
%TO.N,Net-(D12-Pad2)*%
X84510000Y-86845000D03*
%TO.P,D24,1*%
%TO.N,/IN0.1*%
X80010000Y-93345000D03*
%TO.P,D24,2*%
%TO.N,Net-(D12-Pad2)*%
X84510000Y-93345000D03*
%TD*%
%TO.P,D23,1*%
%TO.N,/IN0.1*%
X80010000Y-97005000D03*
%TO.P,D23,2*%
%TO.N,Net-(D11-Pad2)*%
X84510000Y-97005000D03*
%TO.P,D23,1*%
%TO.N,/IN0.1*%
X80010000Y-103505000D03*
%TO.P,D23,2*%
%TO.N,Net-(D11-Pad2)*%
X84510000Y-103505000D03*
%TD*%
%TO.P,D22,1*%
%TO.N,/IN0.2*%
X88900000Y-86845000D03*
%TO.P,D22,2*%
%TO.N,Net-(D12-Pad2)*%
X93400000Y-86845000D03*
%TO.P,D22,1*%
%TO.N,/IN0.2*%
X88900000Y-93345000D03*
%TO.P,D22,2*%
%TO.N,Net-(D12-Pad2)*%
X93400000Y-93345000D03*
%TD*%
%TO.P,D21,1*%
%TO.N,/IN0.2*%
X88900000Y-97005000D03*
%TO.P,D21,2*%
%TO.N,Net-(D11-Pad2)*%
X93400000Y-97005000D03*
%TO.P,D21,1*%
%TO.N,/IN0.2*%
X88900000Y-103505000D03*
%TO.P,D21,2*%
%TO.N,Net-(D11-Pad2)*%
X93400000Y-103505000D03*
%TD*%
%TO.P,D20,1*%
%TO.N,/IN0.3*%
X97790000Y-86845000D03*
%TO.P,D20,2*%
%TO.N,Net-(D12-Pad2)*%
X102290000Y-86845000D03*
%TO.P,D20,1*%
%TO.N,/IN0.3*%
X97790000Y-93345000D03*
%TO.P,D20,2*%
%TO.N,Net-(D12-Pad2)*%
X102290000Y-93345000D03*
%TD*%
%TO.P,D19,1*%
%TO.N,/IN0.3*%
X97790000Y-97005000D03*
%TO.P,D19,2*%
%TO.N,Net-(D11-Pad2)*%
X102290000Y-97005000D03*
%TO.P,D19,1*%
%TO.N,/IN0.3*%
X97790000Y-103505000D03*
%TO.P,D19,2*%
%TO.N,Net-(D11-Pad2)*%
X102290000Y-103505000D03*
%TD*%
%TO.P,D18,1*%
%TO.N,/IN0.4*%
X106680000Y-86845000D03*
%TO.P,D18,2*%
%TO.N,Net-(D12-Pad2)*%
X111180000Y-86845000D03*
%TO.P,D18,1*%
%TO.N,/IN0.4*%
X106680000Y-93345000D03*
%TO.P,D18,2*%
%TO.N,Net-(D12-Pad2)*%
X111180000Y-93345000D03*
%TD*%
%TO.P,D17,1*%
%TO.N,/IN0.4*%
X106680000Y-97005000D03*
%TO.P,D17,2*%
%TO.N,Net-(D11-Pad2)*%
X111180000Y-97005000D03*
%TO.P,D17,1*%
%TO.N,/IN0.4*%
X106680000Y-103505000D03*
%TO.P,D17,2*%
%TO.N,Net-(D11-Pad2)*%
X111180000Y-103505000D03*
%TD*%
%TO.P,D16,1*%
%TO.N,/IN0.5*%
X115570000Y-86845000D03*
%TO.P,D16,2*%
%TO.N,Net-(D12-Pad2)*%
X120070000Y-86845000D03*
%TO.P,D16,1*%
%TO.N,/IN0.5*%
X115570000Y-93345000D03*
%TO.P,D16,2*%
%TO.N,Net-(D12-Pad2)*%
X120070000Y-93345000D03*
%TD*%
%TO.P,D15,1*%
%TO.N,/IN0.5*%
X115570000Y-97005000D03*
%TO.P,D15,2*%
%TO.N,Net-(D11-Pad2)*%
X120070000Y-97005000D03*
%TO.P,D15,1*%
%TO.N,/IN0.5*%
X115570000Y-103505000D03*
%TO.P,D15,2*%
%TO.N,Net-(D11-Pad2)*%
X120070000Y-103505000D03*
%TD*%
%TO.P,D14,1*%
%TO.N,/IN0.6*%
X124460000Y-86845000D03*
%TO.P,D14,2*%
%TO.N,Net-(D12-Pad2)*%
X128960000Y-86845000D03*
%TO.P,D14,1*%
%TO.N,/IN0.6*%
X124460000Y-93345000D03*
%TO.P,D14,2*%
%TO.N,Net-(D12-Pad2)*%
X128960000Y-93345000D03*
%TD*%
%TO.P,D13,1*%
%TO.N,/IN0.6*%
X124460000Y-97005000D03*
%TO.P,D13,2*%
%TO.N,Net-(D11-Pad2)*%
X128960000Y-97005000D03*
%TO.P,D13,1*%
%TO.N,/IN0.6*%
X124460000Y-103505000D03*
%TO.P,D13,2*%
%TO.N,Net-(D11-Pad2)*%
X128960000Y-103505000D03*
%TD*%
%TO.P,D12,1*%
%TO.N,/IN0.7*%
X133350000Y-86845000D03*
%TO.P,D12,2*%
%TO.N,Net-(D12-Pad2)*%
X137850000Y-86845000D03*
%TO.P,D12,1*%
%TO.N,/IN0.7*%
X133350000Y-93345000D03*
%TO.P,D12,2*%
%TO.N,Net-(D12-Pad2)*%
X137850000Y-93345000D03*
%TD*%
%TO.P,D11,1*%
%TO.N,/IN0.7*%
X133350000Y-97005000D03*
%TO.P,D11,2*%
%TO.N,Net-(D11-Pad2)*%
X137850000Y-97005000D03*
%TO.P,D11,1*%
%TO.N,/IN0.7*%
X133350000Y-103505000D03*
%TO.P,D11,2*%
%TO.N,Net-(D11-Pad2)*%
X137850000Y-103505000D03*
%TD*%
D23*
%TO.P,U3,20*%
%TO.N,VCC*%
X51435000Y-104140000D03*
%TO.P,U3,10*%
%TO.N,GND*%
X59055000Y-81280000D03*
%TO.P,U3,19*%
%TO.N,/BUS7*%
X51435000Y-101600000D03*
%TO.P,U3,9*%
%TO.N,/IN0.0*%
X59055000Y-83820000D03*
%TO.P,U3,18*%
%TO.N,/BUS6*%
X51435000Y-99060000D03*
%TO.P,U3,8*%
%TO.N,/IN0.1*%
X59055000Y-86360000D03*
%TO.P,U3,17*%
%TO.N,/BUS5*%
X51435000Y-96520000D03*
%TO.P,U3,7*%
%TO.N,/IN0.2*%
X59055000Y-88900000D03*
%TO.P,U3,16*%
%TO.N,/BUS4*%
X51435000Y-93980000D03*
%TO.P,U3,6*%
%TO.N,/IN0.3*%
X59055000Y-91440000D03*
%TO.P,U3,15*%
%TO.N,/BUS3*%
X51435000Y-91440000D03*
%TO.P,U3,5*%
%TO.N,/IN0.4*%
X59055000Y-93980000D03*
%TO.P,U3,14*%
%TO.N,/BUS2*%
X51435000Y-88900000D03*
%TO.P,U3,4*%
%TO.N,/IN0.5*%
X59055000Y-96520000D03*
%TO.P,U3,13*%
%TO.N,/BUS1*%
X51435000Y-86360000D03*
%TO.P,U3,3*%
%TO.N,/IN0.6*%
X59055000Y-99060000D03*
%TO.P,U3,12*%
%TO.N,/BUS0*%
X51435000Y-83820000D03*
%TO.P,U3,2*%
%TO.N,/IN0.7*%
X59055000Y-101600000D03*
%TO.P,U3,11*%
%TO.N,/IN0.C*%
X51435000Y-81280000D03*
D24*
%TO.P,U3,1*%
%TO.N,/IN0.OE*%
X59055000Y-104140000D03*
%TD*%
%TO.P,R1,2*%
%TO.N,Net-(DS1-Pad15)*%
%TA.AperFunction,ComponentPad*%
G36*
G01*
X101405407Y-40087500D02*
X101405407Y-40087500D01*
G75*
G02*
X101698227Y-38994680I692820J400000D01*
G01*
X101698227Y-38994680D01*
G75*
G02*
X102791047Y-39287500I400000J-692820D01*
G01*
X102791047Y-39287500D01*
G75*
G02*
X102498227Y-40380320I-692820J-400000D01*
G01*
X102498227Y-40380320D01*
G75*
G02*
X101405407Y-40087500I-400000J692820D01*
G01*
G37*
%TD.AperFunction*%
D18*
%TO.P,R1,1*%
%TO.N,VCC*%
X88900000Y-47307500D03*
%TD*%
D23*
%TO.P,D10,2*%
%TO.N,Net-(D10-Pad2)*%
X99060000Y-26035000D03*
D24*
%TO.P,D10,1*%
%TO.N,Net-(D1-Pad1)*%
X99060000Y-23495000D03*
%TD*%
D23*
%TO.P,D9,2*%
%TO.N,Net-(D9-Pad2)*%
X73660000Y-26035000D03*
D24*
%TO.P,D9,1*%
%TO.N,Net-(D1-Pad1)*%
X73660000Y-23495000D03*
%TD*%
D23*
%TO.P,D8,2*%
%TO.N,Net-(D8-Pad2)*%
X96520000Y-26035000D03*
D24*
%TO.P,D8,1*%
%TO.N,Net-(D1-Pad1)*%
X96520000Y-23495000D03*
%TD*%
D23*
%TO.P,D7,2*%
%TO.N,Net-(D7-Pad2)*%
X78740000Y-26035000D03*
D24*
%TO.P,D7,1*%
%TO.N,Net-(D1-Pad1)*%
X78740000Y-23495000D03*
%TD*%
D23*
%TO.P,D6,2*%
%TO.N,Net-(D6-Pad2)*%
X93980000Y-26035000D03*
D24*
%TO.P,D6,1*%
%TO.N,Net-(D1-Pad1)*%
X93980000Y-23495000D03*
%TD*%
D23*
%TO.P,D5,2*%
%TO.N,Net-(D5-Pad2)*%
X91440000Y-26035000D03*
D24*
%TO.P,D5,1*%
%TO.N,Net-(D1-Pad1)*%
X91440000Y-23495000D03*
%TD*%
D23*
%TO.P,D4,2*%
%TO.N,Net-(D4-Pad2)*%
X88900000Y-26035000D03*
D24*
%TO.P,D4,1*%
%TO.N,Net-(D1-Pad1)*%
X88900000Y-23495000D03*
%TD*%
D23*
%TO.P,D3,2*%
%TO.N,Net-(D3-Pad2)*%
X86360000Y-26035000D03*
D24*
%TO.P,D3,1*%
%TO.N,Net-(D1-Pad1)*%
X86360000Y-23495000D03*
%TD*%
D23*
%TO.P,D2,2*%
%TO.N,Net-(D2-Pad2)*%
X83820000Y-26035000D03*
D24*
%TO.P,D2,1*%
%TO.N,Net-(D1-Pad1)*%
X83820000Y-23495000D03*
%TD*%
D23*
%TO.P,D1,2*%
%TO.N,Net-(D1-Pad2)*%
X81280000Y-26035000D03*
D24*
%TO.P,D1,1*%
%TO.N,Net-(D1-Pad1)*%
X81280000Y-23495000D03*
%TD*%
D20*
%TO.P,DS1,16*%
%TO.N,Net-(DS1-Pad16)*%
X104140000Y-36830000D03*
%TO.P,DS1,15*%
%TO.N,Net-(DS1-Pad15)*%
X101600000Y-36830000D03*
%TO.P,DS1,14*%
%TO.N,/D7*%
X99060000Y-36830000D03*
%TO.P,DS1,13*%
%TO.N,/D6*%
X96520000Y-36830000D03*
%TO.P,DS1,12*%
%TO.N,/D5*%
X93980000Y-36830000D03*
%TO.P,DS1,11*%
%TO.N,/D4*%
X91440000Y-36830000D03*
%TO.P,DS1,10*%
%TO.N,/D3*%
X88900000Y-36830000D03*
%TO.P,DS1,9*%
%TO.N,/D2*%
X86360000Y-36830000D03*
%TO.P,DS1,8*%
%TO.N,/D1*%
X83820000Y-36830000D03*
%TO.P,DS1,7*%
%TO.N,/D0*%
X81280000Y-36830000D03*
%TO.P,DS1,6*%
%TO.N,/OUT2*%
X78740000Y-36830000D03*
%TO.P,DS1,5*%
%TO.N,GND*%
X76200000Y-36830000D03*
%TO.P,DS1,4*%
%TO.N,/P0.0*%
X73660000Y-36830000D03*
%TO.P,DS1,3*%
%TO.N,Net-(DS1-Pad3)*%
X71120000Y-36830000D03*
%TO.P,DS1,2*%
%TO.N,VCC*%
X68580000Y-36830000D03*
D21*
%TO.P,DS1,1*%
%TO.N,GND*%
X66040000Y-36830000D03*
%TD*%
D23*
%TO.P,J2,9*%
%TO.N,/P0.7*%
X81280000Y-71755000D03*
%TO.P,J2,8*%
%TO.N,/P0.6*%
X81280000Y-69215000D03*
%TO.P,J2,7*%
%TO.N,/P0.5*%
X81280000Y-66675000D03*
%TO.P,J2,6*%
%TO.N,/P0.4*%
X81280000Y-64135000D03*
%TO.P,J2,5*%
%TO.N,/P0.3*%
X81280000Y-61595000D03*
%TO.P,J2,4*%
%TO.N,/P0.2*%
X81280000Y-59055000D03*
%TO.P,J2,3*%
%TO.N,/P0.1*%
X81280000Y-56515000D03*
%TO.P,J2,2*%
%TO.N,/P0.0*%
X81280000Y-53975000D03*
D24*
%TO.P,J2,1*%
%TO.N,GND*%
X81280000Y-51435000D03*
%TD*%
%TO.P,J3,1*%
%TO.N,GND*%
X103505000Y-51435000D03*
D23*
%TO.P,J3,2*%
%TO.N,/P1.0*%
X103505000Y-53975000D03*
%TO.P,J3,3*%
%TO.N,/P1.1*%
X103505000Y-56515000D03*
%TO.P,J3,4*%
%TO.N,/P1.2*%
X103505000Y-59055000D03*
%TO.P,J3,5*%
%TO.N,/P1.3*%
X103505000Y-61595000D03*
%TO.P,J3,6*%
%TO.N,/P1.4*%
X103505000Y-64135000D03*
%TO.P,J3,7*%
%TO.N,/P1.5*%
X103505000Y-66675000D03*
%TO.P,J3,8*%
%TO.N,/P1.6*%
X103505000Y-69215000D03*
%TO.P,J3,9*%
%TO.N,/P1.7*%
X103505000Y-71755000D03*
%TD*%
D25*
%TO.P,J4,1*%
%TO.N,GND*%
X124460000Y-112395000D03*
D26*
%TO.P,J4,2*%
%TO.N,Net-(J4-Pad2)*%
X129460000Y-112395000D03*
%TD*%
D27*
%TO.P,RV1,2*%
%TO.N,Net-(DS1-Pad3)*%
X69850000Y-24765000D03*
D28*
%TO.P,RV1,1*%
%TO.N,GND*%
X64770000Y-22225000D03*
%TO.P,RV1,3*%
%TO.N,VCC*%
X64770000Y-27305000D03*
%TD*%
D24*
%TO.P,U1,1*%
%TO.N,GND*%
X68580000Y-51435000D03*
D23*
%TO.P,U1,11*%
%TO.N,/OUT0*%
X76200000Y-74295000D03*
%TO.P,U1,2*%
%TO.N,/D0*%
X68580000Y-53975000D03*
%TO.P,U1,12*%
%TO.N,/P0.7*%
X76200000Y-71755000D03*
%TO.P,U1,3*%
%TO.N,/D1*%
X68580000Y-56515000D03*
%TO.P,U1,13*%
%TO.N,/P0.6*%
X76200000Y-69215000D03*
%TO.P,U1,4*%
%TO.N,/D2*%
X68580000Y-59055000D03*
%TO.P,U1,14*%
%TO.N,/P0.5*%
X76200000Y-66675000D03*
%TO.P,U1,5*%
%TO.N,/D3*%
X68580000Y-61595000D03*
%TO.P,U1,15*%
%TO.N,/P0.4*%
X76200000Y-64135000D03*
%TO.P,U1,6*%
%TO.N,/D4*%
X68580000Y-64135000D03*
%TO.P,U1,16*%
%TO.N,/P0.3*%
X76200000Y-61595000D03*
%TO.P,U1,7*%
%TO.N,/D5*%
X68580000Y-66675000D03*
%TO.P,U1,17*%
%TO.N,/P0.2*%
X76200000Y-59055000D03*
%TO.P,U1,8*%
%TO.N,/D6*%
X68580000Y-69215000D03*
%TO.P,U1,18*%
%TO.N,/P0.1*%
X76200000Y-56515000D03*
%TO.P,U1,9*%
%TO.N,/D7*%
X68580000Y-71755000D03*
%TO.P,U1,19*%
%TO.N,/P0.0*%
X76200000Y-53975000D03*
%TO.P,U1,10*%
%TO.N,GND*%
X68580000Y-74295000D03*
%TO.P,U1,20*%
%TO.N,VCC*%
X76200000Y-51435000D03*
%TD*%
%TO.P,U2,20*%
%TO.N,VCC*%
X99060000Y-51435000D03*
%TO.P,U2,10*%
%TO.N,GND*%
X91440000Y-74295000D03*
%TO.P,U2,19*%
%TO.N,/P1.0*%
X99060000Y-53975000D03*
%TO.P,U2,9*%
%TO.N,/D7*%
X91440000Y-71755000D03*
%TO.P,U2,18*%
%TO.N,/P1.1*%
X99060000Y-56515000D03*
%TO.P,U2,8*%
%TO.N,/D6*%
X91440000Y-69215000D03*
%TO.P,U2,17*%
%TO.N,/P1.2*%
X99060000Y-59055000D03*
%TO.P,U2,7*%
%TO.N,/D5*%
X91440000Y-66675000D03*
%TO.P,U2,16*%
%TO.N,/P1.3*%
X99060000Y-61595000D03*
%TO.P,U2,6*%
%TO.N,/D4*%
X91440000Y-64135000D03*
%TO.P,U2,15*%
%TO.N,/P1.4*%
X99060000Y-64135000D03*
%TO.P,U2,5*%
%TO.N,/D3*%
X91440000Y-61595000D03*
%TO.P,U2,14*%
%TO.N,/P1.5*%
X99060000Y-66675000D03*
%TO.P,U2,4*%
%TO.N,/D2*%
X91440000Y-59055000D03*
%TO.P,U2,13*%
%TO.N,/P1.6*%
X99060000Y-69215000D03*
%TO.P,U2,3*%
%TO.N,/D1*%
X91440000Y-56515000D03*
%TO.P,U2,12*%
%TO.N,/P1.7*%
X99060000Y-71755000D03*
%TO.P,U2,2*%
%TO.N,/D0*%
X91440000Y-53975000D03*
%TO.P,U2,11*%
%TO.N,/OUT1*%
X99060000Y-74295000D03*
D24*
%TO.P,U2,1*%
%TO.N,GND*%
X91440000Y-51435000D03*
%TD*%
D29*
%TO.P,J8,1*%
%TO.N,/IN0.7*%
X61912500Y-101600000D03*
D30*
%TO.P,J8,2*%
%TO.N,/IN0.6*%
X61912500Y-99060000D03*
D31*
%TO.P,J8,3*%
%TO.N,/IN0.5*%
X61912500Y-96520000D03*
D30*
%TO.P,J8,4*%
%TO.N,/IN0.4*%
X61912500Y-93980000D03*
%TO.P,J8,5*%
%TO.N,/IN0.3*%
X61912500Y-91440000D03*
D31*
%TO.P,J8,6*%
%TO.N,/IN0.2*%
X61912500Y-88900000D03*
%TO.P,J8,7*%
%TO.N,/IN0.1*%
X61912500Y-86360000D03*
%TO.P,J8,8*%
%TO.N,/IN0.0*%
X61912500Y-83820000D03*
%TD*%
D32*
%TO.N,VCC*%
X78581250Y-48418750D03*
X78105000Y-81915000D03*
%TO.N,GND*%
X111760000Y-29845000D03*
X111680000Y-23575000D03*
%TO.N,/P0.7*%
X85725000Y-71755000D03*
X109855000Y-72390000D03*
%TO.N,/P0.0*%
X86360000Y-52070000D03*
X86360000Y-46355000D03*
%TD*%
D33*
%TO.N,VCC*%
X78105000Y-77470000D02*
X78581250Y-76993750D01*
X78105000Y-81915000D02*
X78105000Y-77470000D01*
X78581250Y-48418750D02*
X78581250Y-76993750D01*
D34*
%TO.N,GND*%
X111680000Y-29765000D02*
X111760000Y-29845000D01*
X111680000Y-23575000D02*
X111680000Y-29765000D01*
D35*
%TO.N,/P0.7*%
X106680000Y-77470000D02*
X109855000Y-74295000D01*
X109855000Y-74295000D02*
X109855000Y-72390000D01*
X88900000Y-77470000D02*
X106680000Y-77470000D01*
X85725000Y-71755000D02*
X85725000Y-74295000D01*
X85725000Y-74295000D02*
X88900000Y-77470000D01*
%TO.N,/P0.0*%
X86360000Y-46355000D02*
X86360000Y-52070000D01*
%TO.N,/IN0.0*%
X71120000Y-86845000D02*
X71120000Y-93345000D01*
X71120000Y-97005000D02*
X71120000Y-103505000D01*
%TO.N,Net-(D11-Pad2)*%
X137850000Y-97005000D02*
X137850000Y-103505000D01*
X75620000Y-97005000D02*
X75620000Y-103505000D01*
X84510000Y-97005000D02*
X84510000Y-103505000D01*
X93400000Y-97005000D02*
X93400000Y-103505000D01*
X102290000Y-97005000D02*
X102290000Y-103505000D01*
X111180000Y-97005000D02*
X111180000Y-103505000D01*
X120070000Y-97005000D02*
X120070000Y-103505000D01*
X128960000Y-97005000D02*
X128960000Y-103505000D01*
X82550000Y-82550000D02*
X84455000Y-80645000D01*
X82550000Y-96520000D02*
X82550000Y-82550000D01*
X83035000Y-97005000D02*
X82550000Y-96520000D01*
X84455000Y-80645000D02*
X84455000Y-76835000D01*
X84510000Y-97005000D02*
X83035000Y-97005000D01*
%TO.N,Net-(D12-Pad2)*%
X137850000Y-86845000D02*
X137850000Y-93345000D01*
X128960000Y-86845000D02*
X128960000Y-93345000D01*
X120070000Y-86845000D02*
X120070000Y-93345000D01*
X111180000Y-86845000D02*
X111180000Y-93345000D01*
X102290000Y-86845000D02*
X102290000Y-93345000D01*
X93400000Y-86845000D02*
X93400000Y-93345000D01*
X84510000Y-86845000D02*
X84510000Y-93345000D01*
X75620000Y-86845000D02*
X75620000Y-93345000D01*
X84510000Y-83765000D02*
X84510000Y-86845000D01*
X86995000Y-81280000D02*
X84510000Y-83765000D01*
X86995000Y-81280000D02*
X86995000Y-79375000D01*
%TO.N,/IN0.1*%
X80010000Y-86845000D02*
X80010000Y-93345000D01*
X80010000Y-97005000D02*
X80010000Y-103505000D01*
%TO.N,/IN0.2*%
X88900000Y-86845000D02*
X88900000Y-93345000D01*
X88900000Y-97005000D02*
X88900000Y-103505000D01*
%TO.N,/IN0.3*%
X97790000Y-86845000D02*
X97790000Y-93345000D01*
X97790000Y-97005000D02*
X97790000Y-103505000D01*
%TO.N,/IN0.4*%
X106680000Y-86845000D02*
X106680000Y-93345000D01*
X106680000Y-97005000D02*
X106680000Y-103505000D01*
%TO.N,/IN0.5*%
X115570000Y-86845000D02*
X115570000Y-93345000D01*
X115570000Y-97005000D02*
X115570000Y-103505000D01*
%TO.N,/IN0.6*%
X124460000Y-86845000D02*
X124460000Y-93345000D01*
X124460000Y-97005000D02*
X124460000Y-103505000D01*
%TO.N,/IN0.7*%
X133350000Y-86845000D02*
X133350000Y-93345000D01*
X133350000Y-97005000D02*
X133350000Y-103505000D01*
%TD*%
M02*
