%TF.GenerationSoftware,KiCad,Pcbnew,(5.1.8)-1*%
%TF.CreationDate,2023-01-12T00:20:28+03:00*%
%TF.ProjectId,LED8,4c454438-2e6b-4696-9361-645f70636258,rev?*%
%TF.SameCoordinates,Original*%
%TF.FileFunction,Legend,Top*%
%TF.FilePolarity,Positive*%
%FSLAX46Y46*%
G04 Gerber Fmt 4.6, Leading zero omitted, Abs format (unit mm)*
G04 Created by KiCad (PCBNEW (5.1.8)-1) date 2023-01-12 00:20:28*
%MOMM*%
%LPD*%
G01*
G04 APERTURE LIST*
%ADD10C,0.120000*%
%ADD11C,0.150000*%
G04 APERTURE END LIST*
D10*
%TO.C,D1*%
X78060000Y-24440000D02*
X75200000Y-24440000D01*
X78060000Y-26360000D02*
X78060000Y-24440000D01*
X75200000Y-26360000D02*
X78060000Y-26360000D01*
%TO.C,D2*%
X75200000Y-28900000D02*
X78060000Y-28900000D01*
X78060000Y-28900000D02*
X78060000Y-26980000D01*
X78060000Y-26980000D02*
X75200000Y-26980000D01*
%TO.C,D3*%
X78060000Y-29520000D02*
X75200000Y-29520000D01*
X78060000Y-31440000D02*
X78060000Y-29520000D01*
X75200000Y-31440000D02*
X78060000Y-31440000D01*
%TO.C,D4*%
X75200000Y-33980000D02*
X78060000Y-33980000D01*
X78060000Y-33980000D02*
X78060000Y-32060000D01*
X78060000Y-32060000D02*
X75200000Y-32060000D01*
%TO.C,D5*%
X75200000Y-36520000D02*
X78060000Y-36520000D01*
X78060000Y-36520000D02*
X78060000Y-34600000D01*
X78060000Y-34600000D02*
X75200000Y-34600000D01*
%TO.C,D6*%
X78060000Y-37140000D02*
X75200000Y-37140000D01*
X78060000Y-39060000D02*
X78060000Y-37140000D01*
X75200000Y-39060000D02*
X78060000Y-39060000D01*
%TO.C,D7*%
X75200000Y-41600000D02*
X78060000Y-41600000D01*
X78060000Y-41600000D02*
X78060000Y-39680000D01*
X78060000Y-39680000D02*
X75200000Y-39680000D01*
%TO.C,D8*%
X78060000Y-42220000D02*
X75200000Y-42220000D01*
X78060000Y-44140000D02*
X78060000Y-42220000D01*
X75200000Y-44140000D02*
X78060000Y-44140000D01*
%TO.C,D*%
X64710000Y-44510000D02*
X67370000Y-44510000D01*
X64710000Y-26670000D02*
X64710000Y-44510000D01*
X67370000Y-26670000D02*
X67370000Y-44510000D01*
X64710000Y-26670000D02*
X67370000Y-26670000D01*
X64710000Y-25400000D02*
X64710000Y-24070000D01*
X64710000Y-24070000D02*
X66040000Y-24070000D01*
%TO.C,Gnd*%
X77410000Y-24190000D02*
X80070000Y-24190000D01*
X77410000Y-24130000D02*
X77410000Y-24190000D01*
X80070000Y-24130000D02*
X80070000Y-24190000D01*
X77410000Y-24130000D02*
X80070000Y-24130000D01*
X77410000Y-22860000D02*
X77410000Y-21530000D01*
X77410000Y-21530000D02*
X78740000Y-21530000D01*
%TO.C,R1*%
X71347064Y-24665000D02*
X70892936Y-24665000D01*
X71347064Y-26135000D02*
X70892936Y-26135000D01*
%TO.C,R2*%
X71347064Y-27205000D02*
X70892936Y-27205000D01*
X71347064Y-28675000D02*
X70892936Y-28675000D01*
%TO.C,R3*%
X71347064Y-29745000D02*
X70892936Y-29745000D01*
X71347064Y-31215000D02*
X70892936Y-31215000D01*
%TO.C,R4*%
X71347064Y-33755000D02*
X70892936Y-33755000D01*
X71347064Y-32285000D02*
X70892936Y-32285000D01*
%TO.C,R5*%
X71347064Y-36295000D02*
X70892936Y-36295000D01*
X71347064Y-34825000D02*
X70892936Y-34825000D01*
%TO.C,R6*%
X71347064Y-37365000D02*
X70892936Y-37365000D01*
X71347064Y-38835000D02*
X70892936Y-38835000D01*
%TO.C,R7*%
X71347064Y-41375000D02*
X70892936Y-41375000D01*
X71347064Y-39905000D02*
X70892936Y-39905000D01*
%TO.C,R8*%
X71347064Y-43915000D02*
X70892936Y-43915000D01*
X71347064Y-42445000D02*
X70892936Y-42445000D01*
%TO.C,D1*%
D11*
X78001904Y-25852380D02*
X78001904Y-24852380D01*
X78240000Y-24852380D01*
X78382857Y-24900000D01*
X78478095Y-24995238D01*
X78525714Y-25090476D01*
X78573333Y-25280952D01*
X78573333Y-25423809D01*
X78525714Y-25614285D01*
X78478095Y-25709523D01*
X78382857Y-25804761D01*
X78240000Y-25852380D01*
X78001904Y-25852380D01*
X79525714Y-25852380D02*
X78954285Y-25852380D01*
X79240000Y-25852380D02*
X79240000Y-24852380D01*
X79144761Y-24995238D01*
X79049523Y-25090476D01*
X78954285Y-25138095D01*
%TO.C,D2*%
X78001904Y-28392380D02*
X78001904Y-27392380D01*
X78240000Y-27392380D01*
X78382857Y-27440000D01*
X78478095Y-27535238D01*
X78525714Y-27630476D01*
X78573333Y-27820952D01*
X78573333Y-27963809D01*
X78525714Y-28154285D01*
X78478095Y-28249523D01*
X78382857Y-28344761D01*
X78240000Y-28392380D01*
X78001904Y-28392380D01*
X78954285Y-27487619D02*
X79001904Y-27440000D01*
X79097142Y-27392380D01*
X79335238Y-27392380D01*
X79430476Y-27440000D01*
X79478095Y-27487619D01*
X79525714Y-27582857D01*
X79525714Y-27678095D01*
X79478095Y-27820952D01*
X78906666Y-28392380D01*
X79525714Y-28392380D01*
%TO.C,D3*%
X78001904Y-30932380D02*
X78001904Y-29932380D01*
X78240000Y-29932380D01*
X78382857Y-29980000D01*
X78478095Y-30075238D01*
X78525714Y-30170476D01*
X78573333Y-30360952D01*
X78573333Y-30503809D01*
X78525714Y-30694285D01*
X78478095Y-30789523D01*
X78382857Y-30884761D01*
X78240000Y-30932380D01*
X78001904Y-30932380D01*
X78906666Y-29932380D02*
X79525714Y-29932380D01*
X79192380Y-30313333D01*
X79335238Y-30313333D01*
X79430476Y-30360952D01*
X79478095Y-30408571D01*
X79525714Y-30503809D01*
X79525714Y-30741904D01*
X79478095Y-30837142D01*
X79430476Y-30884761D01*
X79335238Y-30932380D01*
X79049523Y-30932380D01*
X78954285Y-30884761D01*
X78906666Y-30837142D01*
%TO.C,D4*%
X78001904Y-33472380D02*
X78001904Y-32472380D01*
X78240000Y-32472380D01*
X78382857Y-32520000D01*
X78478095Y-32615238D01*
X78525714Y-32710476D01*
X78573333Y-32900952D01*
X78573333Y-33043809D01*
X78525714Y-33234285D01*
X78478095Y-33329523D01*
X78382857Y-33424761D01*
X78240000Y-33472380D01*
X78001904Y-33472380D01*
X79430476Y-32805714D02*
X79430476Y-33472380D01*
X79192380Y-32424761D02*
X78954285Y-33139047D01*
X79573333Y-33139047D01*
%TO.C,D5*%
X78001904Y-36012380D02*
X78001904Y-35012380D01*
X78240000Y-35012380D01*
X78382857Y-35060000D01*
X78478095Y-35155238D01*
X78525714Y-35250476D01*
X78573333Y-35440952D01*
X78573333Y-35583809D01*
X78525714Y-35774285D01*
X78478095Y-35869523D01*
X78382857Y-35964761D01*
X78240000Y-36012380D01*
X78001904Y-36012380D01*
X79478095Y-35012380D02*
X79001904Y-35012380D01*
X78954285Y-35488571D01*
X79001904Y-35440952D01*
X79097142Y-35393333D01*
X79335238Y-35393333D01*
X79430476Y-35440952D01*
X79478095Y-35488571D01*
X79525714Y-35583809D01*
X79525714Y-35821904D01*
X79478095Y-35917142D01*
X79430476Y-35964761D01*
X79335238Y-36012380D01*
X79097142Y-36012380D01*
X79001904Y-35964761D01*
X78954285Y-35917142D01*
%TO.C,D6*%
X78001904Y-38552380D02*
X78001904Y-37552380D01*
X78240000Y-37552380D01*
X78382857Y-37600000D01*
X78478095Y-37695238D01*
X78525714Y-37790476D01*
X78573333Y-37980952D01*
X78573333Y-38123809D01*
X78525714Y-38314285D01*
X78478095Y-38409523D01*
X78382857Y-38504761D01*
X78240000Y-38552380D01*
X78001904Y-38552380D01*
X79430476Y-37552380D02*
X79240000Y-37552380D01*
X79144761Y-37600000D01*
X79097142Y-37647619D01*
X79001904Y-37790476D01*
X78954285Y-37980952D01*
X78954285Y-38361904D01*
X79001904Y-38457142D01*
X79049523Y-38504761D01*
X79144761Y-38552380D01*
X79335238Y-38552380D01*
X79430476Y-38504761D01*
X79478095Y-38457142D01*
X79525714Y-38361904D01*
X79525714Y-38123809D01*
X79478095Y-38028571D01*
X79430476Y-37980952D01*
X79335238Y-37933333D01*
X79144761Y-37933333D01*
X79049523Y-37980952D01*
X79001904Y-38028571D01*
X78954285Y-38123809D01*
%TO.C,D7*%
X78001904Y-41092380D02*
X78001904Y-40092380D01*
X78240000Y-40092380D01*
X78382857Y-40140000D01*
X78478095Y-40235238D01*
X78525714Y-40330476D01*
X78573333Y-40520952D01*
X78573333Y-40663809D01*
X78525714Y-40854285D01*
X78478095Y-40949523D01*
X78382857Y-41044761D01*
X78240000Y-41092380D01*
X78001904Y-41092380D01*
X78906666Y-40092380D02*
X79573333Y-40092380D01*
X79144761Y-41092380D01*
%TO.C,D8*%
X78001904Y-43632380D02*
X78001904Y-42632380D01*
X78240000Y-42632380D01*
X78382857Y-42680000D01*
X78478095Y-42775238D01*
X78525714Y-42870476D01*
X78573333Y-43060952D01*
X78573333Y-43203809D01*
X78525714Y-43394285D01*
X78478095Y-43489523D01*
X78382857Y-43584761D01*
X78240000Y-43632380D01*
X78001904Y-43632380D01*
X79144761Y-43060952D02*
X79049523Y-43013333D01*
X79001904Y-42965714D01*
X78954285Y-42870476D01*
X78954285Y-42822857D01*
X79001904Y-42727619D01*
X79049523Y-42680000D01*
X79144761Y-42632380D01*
X79335238Y-42632380D01*
X79430476Y-42680000D01*
X79478095Y-42727619D01*
X79525714Y-42822857D01*
X79525714Y-42870476D01*
X79478095Y-42965714D01*
X79430476Y-43013333D01*
X79335238Y-43060952D01*
X79144761Y-43060952D01*
X79049523Y-43108571D01*
X79001904Y-43156190D01*
X78954285Y-43251428D01*
X78954285Y-43441904D01*
X79001904Y-43537142D01*
X79049523Y-43584761D01*
X79144761Y-43632380D01*
X79335238Y-43632380D01*
X79430476Y-43584761D01*
X79478095Y-43537142D01*
X79525714Y-43441904D01*
X79525714Y-43251428D01*
X79478095Y-43156190D01*
X79430476Y-43108571D01*
X79335238Y-43060952D01*
%TO.C,D*%
X65778095Y-23522380D02*
X65778095Y-22522380D01*
X66016190Y-22522380D01*
X66159047Y-22570000D01*
X66254285Y-22665238D01*
X66301904Y-22760476D01*
X66349523Y-22950952D01*
X66349523Y-23093809D01*
X66301904Y-23284285D01*
X66254285Y-23379523D01*
X66159047Y-23474761D01*
X66016190Y-23522380D01*
X65778095Y-23522380D01*
%TO.C,Gnd*%
X75557142Y-22360000D02*
X75461904Y-22312380D01*
X75319047Y-22312380D01*
X75176190Y-22360000D01*
X75080952Y-22455238D01*
X75033333Y-22550476D01*
X74985714Y-22740952D01*
X74985714Y-22883809D01*
X75033333Y-23074285D01*
X75080952Y-23169523D01*
X75176190Y-23264761D01*
X75319047Y-23312380D01*
X75414285Y-23312380D01*
X75557142Y-23264761D01*
X75604761Y-23217142D01*
X75604761Y-22883809D01*
X75414285Y-22883809D01*
X76033333Y-22645714D02*
X76033333Y-23312380D01*
X76033333Y-22740952D02*
X76080952Y-22693333D01*
X76176190Y-22645714D01*
X76319047Y-22645714D01*
X76414285Y-22693333D01*
X76461904Y-22788571D01*
X76461904Y-23312380D01*
X77366666Y-23312380D02*
X77366666Y-22312380D01*
X77366666Y-23264761D02*
X77271428Y-23312380D01*
X77080952Y-23312380D01*
X76985714Y-23264761D01*
X76938095Y-23217142D01*
X76890476Y-23121904D01*
X76890476Y-22836190D01*
X76938095Y-22740952D01*
X76985714Y-22693333D01*
X77080952Y-22645714D01*
X77271428Y-22645714D01*
X77366666Y-22693333D01*
%TO.C,R1*%
X73493333Y-25852380D02*
X73160000Y-25376190D01*
X72921904Y-25852380D02*
X72921904Y-24852380D01*
X73302857Y-24852380D01*
X73398095Y-24900000D01*
X73445714Y-24947619D01*
X73493333Y-25042857D01*
X73493333Y-25185714D01*
X73445714Y-25280952D01*
X73398095Y-25328571D01*
X73302857Y-25376190D01*
X72921904Y-25376190D01*
X74445714Y-25852380D02*
X73874285Y-25852380D01*
X74160000Y-25852380D02*
X74160000Y-24852380D01*
X74064761Y-24995238D01*
X73969523Y-25090476D01*
X73874285Y-25138095D01*
%TO.C,R2*%
X73493333Y-28392380D02*
X73160000Y-27916190D01*
X72921904Y-28392380D02*
X72921904Y-27392380D01*
X73302857Y-27392380D01*
X73398095Y-27440000D01*
X73445714Y-27487619D01*
X73493333Y-27582857D01*
X73493333Y-27725714D01*
X73445714Y-27820952D01*
X73398095Y-27868571D01*
X73302857Y-27916190D01*
X72921904Y-27916190D01*
X73874285Y-27487619D02*
X73921904Y-27440000D01*
X74017142Y-27392380D01*
X74255238Y-27392380D01*
X74350476Y-27440000D01*
X74398095Y-27487619D01*
X74445714Y-27582857D01*
X74445714Y-27678095D01*
X74398095Y-27820952D01*
X73826666Y-28392380D01*
X74445714Y-28392380D01*
%TO.C,R3*%
X73493333Y-30932380D02*
X73160000Y-30456190D01*
X72921904Y-30932380D02*
X72921904Y-29932380D01*
X73302857Y-29932380D01*
X73398095Y-29980000D01*
X73445714Y-30027619D01*
X73493333Y-30122857D01*
X73493333Y-30265714D01*
X73445714Y-30360952D01*
X73398095Y-30408571D01*
X73302857Y-30456190D01*
X72921904Y-30456190D01*
X73826666Y-29932380D02*
X74445714Y-29932380D01*
X74112380Y-30313333D01*
X74255238Y-30313333D01*
X74350476Y-30360952D01*
X74398095Y-30408571D01*
X74445714Y-30503809D01*
X74445714Y-30741904D01*
X74398095Y-30837142D01*
X74350476Y-30884761D01*
X74255238Y-30932380D01*
X73969523Y-30932380D01*
X73874285Y-30884761D01*
X73826666Y-30837142D01*
%TO.C,R4*%
X73493333Y-33472380D02*
X73160000Y-32996190D01*
X72921904Y-33472380D02*
X72921904Y-32472380D01*
X73302857Y-32472380D01*
X73398095Y-32520000D01*
X73445714Y-32567619D01*
X73493333Y-32662857D01*
X73493333Y-32805714D01*
X73445714Y-32900952D01*
X73398095Y-32948571D01*
X73302857Y-32996190D01*
X72921904Y-32996190D01*
X74350476Y-32805714D02*
X74350476Y-33472380D01*
X74112380Y-32424761D02*
X73874285Y-33139047D01*
X74493333Y-33139047D01*
%TO.C,R5*%
X73493333Y-36012380D02*
X73160000Y-35536190D01*
X72921904Y-36012380D02*
X72921904Y-35012380D01*
X73302857Y-35012380D01*
X73398095Y-35060000D01*
X73445714Y-35107619D01*
X73493333Y-35202857D01*
X73493333Y-35345714D01*
X73445714Y-35440952D01*
X73398095Y-35488571D01*
X73302857Y-35536190D01*
X72921904Y-35536190D01*
X74398095Y-35012380D02*
X73921904Y-35012380D01*
X73874285Y-35488571D01*
X73921904Y-35440952D01*
X74017142Y-35393333D01*
X74255238Y-35393333D01*
X74350476Y-35440952D01*
X74398095Y-35488571D01*
X74445714Y-35583809D01*
X74445714Y-35821904D01*
X74398095Y-35917142D01*
X74350476Y-35964761D01*
X74255238Y-36012380D01*
X74017142Y-36012380D01*
X73921904Y-35964761D01*
X73874285Y-35917142D01*
%TO.C,R6*%
X73493333Y-38552380D02*
X73160000Y-38076190D01*
X72921904Y-38552380D02*
X72921904Y-37552380D01*
X73302857Y-37552380D01*
X73398095Y-37600000D01*
X73445714Y-37647619D01*
X73493333Y-37742857D01*
X73493333Y-37885714D01*
X73445714Y-37980952D01*
X73398095Y-38028571D01*
X73302857Y-38076190D01*
X72921904Y-38076190D01*
X74350476Y-37552380D02*
X74160000Y-37552380D01*
X74064761Y-37600000D01*
X74017142Y-37647619D01*
X73921904Y-37790476D01*
X73874285Y-37980952D01*
X73874285Y-38361904D01*
X73921904Y-38457142D01*
X73969523Y-38504761D01*
X74064761Y-38552380D01*
X74255238Y-38552380D01*
X74350476Y-38504761D01*
X74398095Y-38457142D01*
X74445714Y-38361904D01*
X74445714Y-38123809D01*
X74398095Y-38028571D01*
X74350476Y-37980952D01*
X74255238Y-37933333D01*
X74064761Y-37933333D01*
X73969523Y-37980952D01*
X73921904Y-38028571D01*
X73874285Y-38123809D01*
%TO.C,R7*%
X73493333Y-41092380D02*
X73160000Y-40616190D01*
X72921904Y-41092380D02*
X72921904Y-40092380D01*
X73302857Y-40092380D01*
X73398095Y-40140000D01*
X73445714Y-40187619D01*
X73493333Y-40282857D01*
X73493333Y-40425714D01*
X73445714Y-40520952D01*
X73398095Y-40568571D01*
X73302857Y-40616190D01*
X72921904Y-40616190D01*
X73826666Y-40092380D02*
X74493333Y-40092380D01*
X74064761Y-41092380D01*
%TO.C,R8*%
X73493333Y-43632380D02*
X73160000Y-43156190D01*
X72921904Y-43632380D02*
X72921904Y-42632380D01*
X73302857Y-42632380D01*
X73398095Y-42680000D01*
X73445714Y-42727619D01*
X73493333Y-42822857D01*
X73493333Y-42965714D01*
X73445714Y-43060952D01*
X73398095Y-43108571D01*
X73302857Y-43156190D01*
X72921904Y-43156190D01*
X74064761Y-43060952D02*
X73969523Y-43013333D01*
X73921904Y-42965714D01*
X73874285Y-42870476D01*
X73874285Y-42822857D01*
X73921904Y-42727619D01*
X73969523Y-42680000D01*
X74064761Y-42632380D01*
X74255238Y-42632380D01*
X74350476Y-42680000D01*
X74398095Y-42727619D01*
X74445714Y-42822857D01*
X74445714Y-42870476D01*
X74398095Y-42965714D01*
X74350476Y-43013333D01*
X74255238Y-43060952D01*
X74064761Y-43060952D01*
X73969523Y-43108571D01*
X73921904Y-43156190D01*
X73874285Y-43251428D01*
X73874285Y-43441904D01*
X73921904Y-43537142D01*
X73969523Y-43584761D01*
X74064761Y-43632380D01*
X74255238Y-43632380D01*
X74350476Y-43584761D01*
X74398095Y-43537142D01*
X74445714Y-43441904D01*
X74445714Y-43251428D01*
X74398095Y-43156190D01*
X74350476Y-43108571D01*
X74255238Y-43060952D01*
%TD*%
M02*
