%TF.GenerationSoftware,KiCad,Pcbnew,(5.1.8)-1*%
%TF.CreationDate,2024-06-14T00:40:21+03:00*%
%TF.ProjectId,MUX16bit,4d555831-3662-4697-942e-6b696361645f,rev?*%
%TF.SameCoordinates,Original*%
%TF.FileFunction,Legend,Bot*%
%TF.FilePolarity,Positive*%
%FSLAX46Y46*%
G04 Gerber Fmt 4.6, Leading zero omitted, Abs format (unit mm)*
G04 Created by KiCad (PCBNEW (5.1.8)-1) date 2024-06-14 00:40:21*
%MOMM*%
%LPD*%
G01*
G04 APERTURE LIST*
%ADD10C,0.250000*%
%ADD11C,0.120000*%
%ADD12C,0.150000*%
G04 APERTURE END LIST*
D10*
X43545238Y-29273809D02*
X43450000Y-29369047D01*
X43354761Y-29559523D01*
X43354761Y-30035714D01*
X43450000Y-30226190D01*
X43545238Y-30321428D01*
X43735714Y-30416666D01*
X43926190Y-30416666D01*
X44211904Y-30321428D01*
X45354761Y-29178571D01*
X45354761Y-30416666D01*
X44021428Y-32130952D02*
X45354761Y-32130952D01*
X43259523Y-31654761D02*
X44688095Y-31178571D01*
X44688095Y-32416666D01*
X43354761Y-34130952D02*
X43354761Y-33178571D01*
X44307142Y-33083333D01*
X44211904Y-33178571D01*
X44116666Y-33369047D01*
X44116666Y-33845238D01*
X44211904Y-34035714D01*
X44307142Y-34130952D01*
X44497619Y-34226190D01*
X44973809Y-34226190D01*
X45164285Y-34130952D01*
X45259523Y-34035714D01*
X45354761Y-33845238D01*
X45354761Y-33369047D01*
X45259523Y-33178571D01*
X45164285Y-33083333D01*
X44180238Y-99123809D02*
X44085000Y-99219047D01*
X43989761Y-99409523D01*
X43989761Y-99885714D01*
X44085000Y-100076190D01*
X44180238Y-100171428D01*
X44370714Y-100266666D01*
X44561190Y-100266666D01*
X44846904Y-100171428D01*
X45989761Y-99028571D01*
X45989761Y-100266666D01*
X44656428Y-101980952D02*
X45989761Y-101980952D01*
X43894523Y-101504761D02*
X45323095Y-101028571D01*
X45323095Y-102266666D01*
X43989761Y-103980952D02*
X43989761Y-103028571D01*
X44942142Y-102933333D01*
X44846904Y-103028571D01*
X44751666Y-103219047D01*
X44751666Y-103695238D01*
X44846904Y-103885714D01*
X44942142Y-103980952D01*
X45132619Y-104076190D01*
X45608809Y-104076190D01*
X45799285Y-103980952D01*
X45894523Y-103885714D01*
X45989761Y-103695238D01*
X45989761Y-103219047D01*
X45894523Y-103028571D01*
X45799285Y-102933333D01*
D11*
%TO.C,Q1*%
X69540000Y-24640000D02*
X70470000Y-24640000D01*
X72700000Y-24640000D02*
X71770000Y-24640000D01*
X72700000Y-24640000D02*
X72700000Y-26800000D01*
X69540000Y-24640000D02*
X69540000Y-26100000D01*
%TO.C,U10*%
X48310000Y-25475000D02*
X50125000Y-25475000D01*
X48310000Y-25240000D02*
X48310000Y-25475000D01*
X44450000Y-25240000D02*
X48310000Y-25240000D01*
X40590000Y-25240000D02*
X40590000Y-25475000D01*
X44450000Y-25240000D02*
X40590000Y-25240000D01*
X48310000Y-38260000D02*
X48310000Y-38025000D01*
X44450000Y-38260000D02*
X48310000Y-38260000D01*
X40590000Y-38260000D02*
X40590000Y-38025000D01*
X44450000Y-38260000D02*
X40590000Y-38260000D01*
%TO.C,U9*%
X48945000Y-95325000D02*
X50760000Y-95325000D01*
X48945000Y-95090000D02*
X48945000Y-95325000D01*
X45085000Y-95090000D02*
X48945000Y-95090000D01*
X41225000Y-95090000D02*
X41225000Y-95325000D01*
X45085000Y-95090000D02*
X41225000Y-95090000D01*
X48945000Y-108110000D02*
X48945000Y-107875000D01*
X45085000Y-108110000D02*
X48945000Y-108110000D01*
X41225000Y-108110000D02*
X41225000Y-107875000D01*
X45085000Y-108110000D02*
X41225000Y-108110000D01*
%TO.C,C2*%
X43786248Y-24230000D02*
X44308752Y-24230000D01*
X43786248Y-22760000D02*
X44308752Y-22760000D01*
%TO.C,C1*%
X44458748Y-94080000D02*
X44981252Y-94080000D01*
X44458748Y-92610000D02*
X44981252Y-92610000D01*
%TO.C,R3*%
X109120000Y-36872936D02*
X109120000Y-37327064D01*
X110590000Y-36872936D02*
X110590000Y-37327064D01*
%TO.C,R2*%
X44312064Y-20220000D02*
X43857936Y-20220000D01*
X44312064Y-21690000D02*
X43857936Y-21690000D01*
%TO.C,R1*%
X44947064Y-90070000D02*
X44492936Y-90070000D01*
X44947064Y-91540000D02*
X44492936Y-91540000D01*
%TO.C,Q1*%
D12*
X74167619Y-25304761D02*
X74120000Y-25209523D01*
X74024761Y-25114285D01*
X73881904Y-24971428D01*
X73834285Y-24876190D01*
X73834285Y-24780952D01*
X74072380Y-24828571D02*
X74024761Y-24733333D01*
X73929523Y-24638095D01*
X73739047Y-24590476D01*
X73405714Y-24590476D01*
X73215238Y-24638095D01*
X73120000Y-24733333D01*
X73072380Y-24828571D01*
X73072380Y-25019047D01*
X73120000Y-25114285D01*
X73215238Y-25209523D01*
X73405714Y-25257142D01*
X73739047Y-25257142D01*
X73929523Y-25209523D01*
X74024761Y-25114285D01*
X74072380Y-25019047D01*
X74072380Y-24828571D01*
X74072380Y-26209523D02*
X74072380Y-25638095D01*
X74072380Y-25923809D02*
X73072380Y-25923809D01*
X73215238Y-25828571D01*
X73310476Y-25733333D01*
X73358095Y-25638095D01*
%TO.C,U10*%
X45688095Y-38822380D02*
X45688095Y-39631904D01*
X45640476Y-39727142D01*
X45592857Y-39774761D01*
X45497619Y-39822380D01*
X45307142Y-39822380D01*
X45211904Y-39774761D01*
X45164285Y-39727142D01*
X45116666Y-39631904D01*
X45116666Y-38822380D01*
X44116666Y-39822380D02*
X44688095Y-39822380D01*
X44402380Y-39822380D02*
X44402380Y-38822380D01*
X44497619Y-38965238D01*
X44592857Y-39060476D01*
X44688095Y-39108095D01*
X43497619Y-38822380D02*
X43402380Y-38822380D01*
X43307142Y-38870000D01*
X43259523Y-38917619D01*
X43211904Y-39012857D01*
X43164285Y-39203333D01*
X43164285Y-39441428D01*
X43211904Y-39631904D01*
X43259523Y-39727142D01*
X43307142Y-39774761D01*
X43402380Y-39822380D01*
X43497619Y-39822380D01*
X43592857Y-39774761D01*
X43640476Y-39727142D01*
X43688095Y-39631904D01*
X43735714Y-39441428D01*
X43735714Y-39203333D01*
X43688095Y-39012857D01*
X43640476Y-38917619D01*
X43592857Y-38870000D01*
X43497619Y-38822380D01*
%TO.C,U9*%
X50291904Y-108672380D02*
X50291904Y-109481904D01*
X50244285Y-109577142D01*
X50196666Y-109624761D01*
X50101428Y-109672380D01*
X49910952Y-109672380D01*
X49815714Y-109624761D01*
X49768095Y-109577142D01*
X49720476Y-109481904D01*
X49720476Y-108672380D01*
X49196666Y-109672380D02*
X49006190Y-109672380D01*
X48910952Y-109624761D01*
X48863333Y-109577142D01*
X48768095Y-109434285D01*
X48720476Y-109243809D01*
X48720476Y-108862857D01*
X48768095Y-108767619D01*
X48815714Y-108720000D01*
X48910952Y-108672380D01*
X49101428Y-108672380D01*
X49196666Y-108720000D01*
X49244285Y-108767619D01*
X49291904Y-108862857D01*
X49291904Y-109100952D01*
X49244285Y-109196190D01*
X49196666Y-109243809D01*
X49101428Y-109291428D01*
X48910952Y-109291428D01*
X48815714Y-109243809D01*
X48768095Y-109196190D01*
X48720476Y-109100952D01*
%TO.C,C2*%
X47156666Y-23852142D02*
X47204285Y-23899761D01*
X47347142Y-23947380D01*
X47442380Y-23947380D01*
X47585238Y-23899761D01*
X47680476Y-23804523D01*
X47728095Y-23709285D01*
X47775714Y-23518809D01*
X47775714Y-23375952D01*
X47728095Y-23185476D01*
X47680476Y-23090238D01*
X47585238Y-22995000D01*
X47442380Y-22947380D01*
X47347142Y-22947380D01*
X47204285Y-22995000D01*
X47156666Y-23042619D01*
X46775714Y-23042619D02*
X46728095Y-22995000D01*
X46632857Y-22947380D01*
X46394761Y-22947380D01*
X46299523Y-22995000D01*
X46251904Y-23042619D01*
X46204285Y-23137857D01*
X46204285Y-23233095D01*
X46251904Y-23375952D01*
X46823333Y-23947380D01*
X46204285Y-23947380D01*
%TO.C,C1*%
X47659166Y-93702142D02*
X47706785Y-93749761D01*
X47849642Y-93797380D01*
X47944880Y-93797380D01*
X48087738Y-93749761D01*
X48182976Y-93654523D01*
X48230595Y-93559285D01*
X48278214Y-93368809D01*
X48278214Y-93225952D01*
X48230595Y-93035476D01*
X48182976Y-92940238D01*
X48087738Y-92845000D01*
X47944880Y-92797380D01*
X47849642Y-92797380D01*
X47706785Y-92845000D01*
X47659166Y-92892619D01*
X46706785Y-93797380D02*
X47278214Y-93797380D01*
X46992500Y-93797380D02*
X46992500Y-92797380D01*
X47087738Y-92940238D01*
X47182976Y-93035476D01*
X47278214Y-93083095D01*
%TO.C,R3*%
X108657380Y-36933333D02*
X108181190Y-36600000D01*
X108657380Y-36361904D02*
X107657380Y-36361904D01*
X107657380Y-36742857D01*
X107705000Y-36838095D01*
X107752619Y-36885714D01*
X107847857Y-36933333D01*
X107990714Y-36933333D01*
X108085952Y-36885714D01*
X108133571Y-36838095D01*
X108181190Y-36742857D01*
X108181190Y-36361904D01*
X107657380Y-37266666D02*
X107657380Y-37885714D01*
X108038333Y-37552380D01*
X108038333Y-37695238D01*
X108085952Y-37790476D01*
X108133571Y-37838095D01*
X108228809Y-37885714D01*
X108466904Y-37885714D01*
X108562142Y-37838095D01*
X108609761Y-37790476D01*
X108657380Y-37695238D01*
X108657380Y-37409523D01*
X108609761Y-37314285D01*
X108562142Y-37266666D01*
%TO.C,R2*%
X47156666Y-21407380D02*
X47490000Y-20931190D01*
X47728095Y-21407380D02*
X47728095Y-20407380D01*
X47347142Y-20407380D01*
X47251904Y-20455000D01*
X47204285Y-20502619D01*
X47156666Y-20597857D01*
X47156666Y-20740714D01*
X47204285Y-20835952D01*
X47251904Y-20883571D01*
X47347142Y-20931190D01*
X47728095Y-20931190D01*
X46775714Y-20502619D02*
X46728095Y-20455000D01*
X46632857Y-20407380D01*
X46394761Y-20407380D01*
X46299523Y-20455000D01*
X46251904Y-20502619D01*
X46204285Y-20597857D01*
X46204285Y-20693095D01*
X46251904Y-20835952D01*
X46823333Y-21407380D01*
X46204285Y-21407380D01*
%TO.C,R1*%
X47791666Y-91257380D02*
X48125000Y-90781190D01*
X48363095Y-91257380D02*
X48363095Y-90257380D01*
X47982142Y-90257380D01*
X47886904Y-90305000D01*
X47839285Y-90352619D01*
X47791666Y-90447857D01*
X47791666Y-90590714D01*
X47839285Y-90685952D01*
X47886904Y-90733571D01*
X47982142Y-90781190D01*
X48363095Y-90781190D01*
X46839285Y-91257380D02*
X47410714Y-91257380D01*
X47125000Y-91257380D02*
X47125000Y-90257380D01*
X47220238Y-90400238D01*
X47315476Y-90495476D01*
X47410714Y-90543095D01*
%TD*%
M02*
