%TF.GenerationSoftware,KiCad,Pcbnew,(5.1.8)-1*%
%TF.CreationDate,2024-06-14T00:40:21+03:00*%
%TF.ProjectId,MUX16bit,4d555831-3662-4697-942e-6b696361645f,rev?*%
%TF.SameCoordinates,Original*%
%TF.FileFunction,Copper,L2,Bot*%
%TF.FilePolarity,Positive*%
%FSLAX46Y46*%
G04 Gerber Fmt 4.6, Leading zero omitted, Abs format (unit mm)*
G04 Created by KiCad (PCBNEW (5.1.8)-1) date 2024-06-14 00:40:21*
%MOMM*%
%LPD*%
G01*
G04 APERTURE LIST*
%TA.AperFunction,NonConductor*%
%ADD10C,0.300000*%
%TD*%
%TA.AperFunction,ComponentPad*%
%ADD11O,1.600000X1.524000*%
%TD*%
%TA.AperFunction,ComponentPad*%
%ADD12O,1.700000X1.500000*%
%TD*%
%TA.AperFunction,SMDPad,CuDef*%
%ADD13R,0.800000X0.900000*%
%TD*%
%TA.AperFunction,ComponentPad*%
%ADD14O,1.800000X2.000000*%
%TD*%
%TA.AperFunction,ComponentPad*%
%ADD15R,1.800000X2.000000*%
%TD*%
%TA.AperFunction,ComponentPad*%
%ADD16O,2.000000X1.500000*%
%TD*%
%TA.AperFunction,ComponentPad*%
%ADD17R,2.000000X1.500000*%
%TD*%
%TA.AperFunction,ComponentPad*%
%ADD18C,2.600000*%
%TD*%
%TA.AperFunction,ComponentPad*%
%ADD19R,2.600000X2.600000*%
%TD*%
%TA.AperFunction,ComponentPad*%
%ADD20O,2.000000X2.000000*%
%TD*%
%TA.AperFunction,ComponentPad*%
%ADD21R,2.000000X2.000000*%
%TD*%
%TA.AperFunction,ComponentPad*%
%ADD22R,1.700000X1.700000*%
%TD*%
%TA.AperFunction,Conductor*%
%ADD23C,0.500000*%
%TD*%
%TA.AperFunction,Conductor*%
%ADD24C,0.800000*%
%TD*%
G04 APERTURE END LIST*
D10*
X97356428Y-99103571D02*
X97356428Y-97603571D01*
X96856428Y-98675000D01*
X96356428Y-97603571D01*
X96356428Y-99103571D01*
X95642142Y-97603571D02*
X95642142Y-98817857D01*
X95570714Y-98960714D01*
X95499285Y-99032142D01*
X95356428Y-99103571D01*
X95070714Y-99103571D01*
X94927857Y-99032142D01*
X94856428Y-98960714D01*
X94785000Y-98817857D01*
X94785000Y-97603571D01*
X94213571Y-97603571D02*
X93213571Y-99103571D01*
X93213571Y-97603571D02*
X94213571Y-99103571D01*
X91999285Y-98103571D02*
X91999285Y-99103571D01*
X92356428Y-97532142D02*
X92713571Y-98603571D01*
X91785000Y-98603571D01*
X91213571Y-98960714D02*
X91142142Y-99032142D01*
X91213571Y-99103571D01*
X91285000Y-99032142D01*
X91213571Y-98960714D01*
X91213571Y-99103571D01*
X91213571Y-98175000D02*
X91142142Y-98246428D01*
X91213571Y-98317857D01*
X91285000Y-98246428D01*
X91213571Y-98175000D01*
X91213571Y-98317857D01*
X89713571Y-99103571D02*
X90570714Y-99103571D01*
X90142142Y-99103571D02*
X90142142Y-97603571D01*
X90285000Y-97817857D01*
X90427857Y-97960714D01*
X90570714Y-98032142D01*
X87142142Y-99103571D02*
X87999285Y-99103571D01*
X87570714Y-99103571D02*
X87570714Y-97603571D01*
X87713571Y-97817857D01*
X87856428Y-97960714D01*
X87999285Y-98032142D01*
X85856428Y-97603571D02*
X86142142Y-97603571D01*
X86285000Y-97675000D01*
X86356428Y-97746428D01*
X86499285Y-97960714D01*
X86570714Y-98246428D01*
X86570714Y-98817857D01*
X86499285Y-98960714D01*
X86427857Y-99032142D01*
X86285000Y-99103571D01*
X85999285Y-99103571D01*
X85856428Y-99032142D01*
X85785000Y-98960714D01*
X85713571Y-98817857D01*
X85713571Y-98460714D01*
X85785000Y-98317857D01*
X85856428Y-98246428D01*
X85999285Y-98175000D01*
X86285000Y-98175000D01*
X86427857Y-98246428D01*
X86499285Y-98317857D01*
X86570714Y-98460714D01*
X83927857Y-99103571D02*
X83927857Y-97603571D01*
X83927857Y-98175000D02*
X83785000Y-98103571D01*
X83499285Y-98103571D01*
X83356428Y-98175000D01*
X83285000Y-98246428D01*
X83213571Y-98389285D01*
X83213571Y-98817857D01*
X83285000Y-98960714D01*
X83356428Y-99032142D01*
X83499285Y-99103571D01*
X83785000Y-99103571D01*
X83927857Y-99032142D01*
X82570714Y-99103571D02*
X82570714Y-98103571D01*
X82570714Y-97603571D02*
X82642142Y-97675000D01*
X82570714Y-97746428D01*
X82499285Y-97675000D01*
X82570714Y-97603571D01*
X82570714Y-97746428D01*
X82070714Y-98103571D02*
X81499285Y-98103571D01*
X81856428Y-97603571D02*
X81856428Y-98889285D01*
X81785000Y-99032142D01*
X81642142Y-99103571D01*
X81499285Y-99103571D01*
X93820714Y-94428571D02*
X92820714Y-94428571D01*
X93463571Y-95928571D01*
X91606428Y-94928571D02*
X91606428Y-95928571D01*
X91963571Y-94357142D02*
X92320714Y-95428571D01*
X91392142Y-95428571D01*
X90820714Y-95928571D02*
X90820714Y-94428571D01*
X90820714Y-95142857D02*
X89963571Y-95142857D01*
X89963571Y-95928571D02*
X89963571Y-94428571D01*
X88392142Y-95785714D02*
X88463571Y-95857142D01*
X88677857Y-95928571D01*
X88820714Y-95928571D01*
X89035000Y-95857142D01*
X89177857Y-95714285D01*
X89249285Y-95571428D01*
X89320714Y-95285714D01*
X89320714Y-95071428D01*
X89249285Y-94785714D01*
X89177857Y-94642857D01*
X89035000Y-94500000D01*
X88820714Y-94428571D01*
X88677857Y-94428571D01*
X88463571Y-94500000D01*
X88392142Y-94571428D01*
X87749285Y-95928571D02*
X87749285Y-94428571D01*
X87177857Y-94428571D01*
X87035000Y-94500000D01*
X86963571Y-94571428D01*
X86892142Y-94714285D01*
X86892142Y-94928571D01*
X86963571Y-95071428D01*
X87035000Y-95142857D01*
X87177857Y-95214285D01*
X87749285Y-95214285D01*
X86249285Y-94428571D02*
X86249285Y-95642857D01*
X86177857Y-95785714D01*
X86106428Y-95857142D01*
X85963571Y-95928571D01*
X85677857Y-95928571D01*
X85535000Y-95857142D01*
X85463571Y-95785714D01*
X85392142Y-95642857D01*
X85392142Y-94428571D01*
X94820714Y-92753571D02*
X95677857Y-92753571D01*
X95249285Y-92753571D02*
X95249285Y-91253571D01*
X95392142Y-91467857D01*
X95535000Y-91610714D01*
X95677857Y-91682142D01*
X94320714Y-91253571D02*
X93392142Y-91253571D01*
X93892142Y-91825000D01*
X93677857Y-91825000D01*
X93535000Y-91896428D01*
X93463571Y-91967857D01*
X93392142Y-92110714D01*
X93392142Y-92467857D01*
X93463571Y-92610714D01*
X93535000Y-92682142D01*
X93677857Y-92753571D01*
X94106428Y-92753571D01*
X94249285Y-92682142D01*
X94320714Y-92610714D01*
X92749285Y-92610714D02*
X92677857Y-92682142D01*
X92749285Y-92753571D01*
X92820714Y-92682142D01*
X92749285Y-92610714D01*
X92749285Y-92753571D01*
X91749285Y-91253571D02*
X91606428Y-91253571D01*
X91463571Y-91325000D01*
X91392142Y-91396428D01*
X91320714Y-91539285D01*
X91249285Y-91825000D01*
X91249285Y-92182142D01*
X91320714Y-92467857D01*
X91392142Y-92610714D01*
X91463571Y-92682142D01*
X91606428Y-92753571D01*
X91749285Y-92753571D01*
X91892142Y-92682142D01*
X91963571Y-92610714D01*
X92035000Y-92467857D01*
X92106428Y-92182142D01*
X92106428Y-91825000D01*
X92035000Y-91539285D01*
X91963571Y-91396428D01*
X91892142Y-91325000D01*
X91749285Y-91253571D01*
X89963571Y-91253571D02*
X90249285Y-91253571D01*
X90392142Y-91325000D01*
X90463571Y-91396428D01*
X90606428Y-91610714D01*
X90677857Y-91896428D01*
X90677857Y-92467857D01*
X90606428Y-92610714D01*
X90535000Y-92682142D01*
X90392142Y-92753571D01*
X90106428Y-92753571D01*
X89963571Y-92682142D01*
X89892142Y-92610714D01*
X89820714Y-92467857D01*
X89820714Y-92110714D01*
X89892142Y-91967857D01*
X89963571Y-91896428D01*
X90106428Y-91825000D01*
X90392142Y-91825000D01*
X90535000Y-91896428D01*
X90606428Y-91967857D01*
X90677857Y-92110714D01*
X89177857Y-92610714D02*
X89106428Y-92682142D01*
X89177857Y-92753571D01*
X89249285Y-92682142D01*
X89177857Y-92610714D01*
X89177857Y-92753571D01*
X88535000Y-91396428D02*
X88463571Y-91325000D01*
X88320714Y-91253571D01*
X87963571Y-91253571D01*
X87820714Y-91325000D01*
X87749285Y-91396428D01*
X87677857Y-91539285D01*
X87677857Y-91682142D01*
X87749285Y-91896428D01*
X88606428Y-92753571D01*
X87677857Y-92753571D01*
X86749285Y-91253571D02*
X86606428Y-91253571D01*
X86463571Y-91325000D01*
X86392142Y-91396428D01*
X86320714Y-91539285D01*
X86249285Y-91825000D01*
X86249285Y-92182142D01*
X86320714Y-92467857D01*
X86392142Y-92610714D01*
X86463571Y-92682142D01*
X86606428Y-92753571D01*
X86749285Y-92753571D01*
X86892142Y-92682142D01*
X86963571Y-92610714D01*
X87035000Y-92467857D01*
X87106428Y-92182142D01*
X87106428Y-91825000D01*
X87035000Y-91539285D01*
X86963571Y-91396428D01*
X86892142Y-91325000D01*
X86749285Y-91253571D01*
X85677857Y-91396428D02*
X85606428Y-91325000D01*
X85463571Y-91253571D01*
X85106428Y-91253571D01*
X84963571Y-91325000D01*
X84892142Y-91396428D01*
X84820714Y-91539285D01*
X84820714Y-91682142D01*
X84892142Y-91896428D01*
X85749285Y-92753571D01*
X84820714Y-92753571D01*
X83535000Y-91753571D02*
X83535000Y-92753571D01*
X83892142Y-91182142D02*
X84249285Y-92253571D01*
X83320714Y-92253571D01*
D11*
%TO.P,U8,15*%
%TO.N,/D14*%
X95250000Y-48260000D03*
%TO.P,U8,14*%
%TO.N,/C14*%
X92710000Y-48260000D03*
%TO.P,U8,13*%
%TO.N,/C15*%
X90170000Y-48260000D03*
%TO.P,U8,12*%
%TO.N,/D15*%
X87630000Y-48260000D03*
%TO.P,U8,11*%
%TO.N,/S1*%
X82550000Y-48260000D03*
%TO.P,U8,10*%
%TO.N,/~E*%
X80010000Y-48260000D03*
%TO.P,U8,9*%
%TO.N,/S0*%
X77470000Y-48260000D03*
%TO.P,U8,8*%
%TO.N,/O15*%
X72390000Y-48260000D03*
%TO.P,U8,7*%
%TO.N,/O14*%
X69850000Y-48260000D03*
%TO.P,U8,6*%
%TO.N,GND*%
X57150000Y-48260000D03*
%TO.P,U8,5*%
%TO.N,VCC*%
X54610000Y-48260000D03*
%TO.P,U8,4*%
%TO.N,/A15*%
X49530000Y-48260000D03*
%TO.P,U8,3*%
%TO.N,/B15*%
X46990000Y-48260000D03*
%TO.P,U8,2*%
%TO.N,/B14*%
X44450000Y-48260000D03*
%TO.P,U8,1*%
%TO.N,/A14*%
X41910000Y-48260000D03*
%TD*%
%TO.P,U7,15*%
%TO.N,/D12*%
X95250000Y-53340000D03*
%TO.P,U7,14*%
%TO.N,/C12*%
X92710000Y-53340000D03*
%TO.P,U7,13*%
%TO.N,/C13*%
X90170000Y-53340000D03*
%TO.P,U7,12*%
%TO.N,/D13*%
X87630000Y-53340000D03*
%TO.P,U7,11*%
%TO.N,/S1*%
X82550000Y-53340000D03*
%TO.P,U7,10*%
%TO.N,/~E*%
X80010000Y-53340000D03*
%TO.P,U7,9*%
%TO.N,/S0*%
X77470000Y-53340000D03*
%TO.P,U7,8*%
%TO.N,/O13*%
X72390000Y-53340000D03*
%TO.P,U7,7*%
%TO.N,/O12*%
X69850000Y-53340000D03*
%TO.P,U7,6*%
%TO.N,GND*%
X57150000Y-53340000D03*
%TO.P,U7,5*%
%TO.N,VCC*%
X54610000Y-53340000D03*
%TO.P,U7,4*%
%TO.N,/A13*%
X49530000Y-53340000D03*
%TO.P,U7,3*%
%TO.N,/B13*%
X46990000Y-53340000D03*
%TO.P,U7,2*%
%TO.N,/B12*%
X44450000Y-53340000D03*
%TO.P,U7,1*%
%TO.N,/A12*%
X41910000Y-53340000D03*
%TD*%
%TO.P,U6,15*%
%TO.N,/D10*%
X95250000Y-58420000D03*
%TO.P,U6,14*%
%TO.N,/C10*%
X92710000Y-58420000D03*
%TO.P,U6,13*%
%TO.N,/C11*%
X90170000Y-58420000D03*
%TO.P,U6,12*%
%TO.N,/D11*%
X87630000Y-58420000D03*
%TO.P,U6,11*%
%TO.N,/S1*%
X82550000Y-58420000D03*
%TO.P,U6,10*%
%TO.N,/~E*%
X80010000Y-58420000D03*
%TO.P,U6,9*%
%TO.N,/S0*%
X77470000Y-58420000D03*
%TO.P,U6,8*%
%TO.N,/O11*%
X72390000Y-58420000D03*
%TO.P,U6,7*%
%TO.N,/O10*%
X69850000Y-58420000D03*
%TO.P,U6,6*%
%TO.N,GND*%
X57150000Y-58420000D03*
%TO.P,U6,5*%
%TO.N,VCC*%
X54610000Y-58420000D03*
%TO.P,U6,4*%
%TO.N,/A11*%
X49530000Y-58420000D03*
%TO.P,U6,3*%
%TO.N,/B11*%
X46990000Y-58420000D03*
%TO.P,U6,2*%
%TO.N,/B10*%
X44450000Y-58420000D03*
%TO.P,U6,1*%
%TO.N,/A10*%
X41910000Y-58420000D03*
%TD*%
%TO.P,U5,15*%
%TO.N,/D8*%
X95250000Y-63500000D03*
%TO.P,U5,14*%
%TO.N,/C8*%
X92710000Y-63500000D03*
%TO.P,U5,13*%
%TO.N,/C9*%
X90170000Y-63500000D03*
%TO.P,U5,12*%
%TO.N,/D9*%
X87630000Y-63500000D03*
%TO.P,U5,11*%
%TO.N,/S1*%
X82550000Y-63500000D03*
%TO.P,U5,10*%
%TO.N,/~E*%
X80010000Y-63500000D03*
%TO.P,U5,9*%
%TO.N,/S0*%
X77470000Y-63500000D03*
%TO.P,U5,8*%
%TO.N,/O9*%
X72390000Y-63500000D03*
%TO.P,U5,7*%
%TO.N,/O8*%
X69850000Y-63500000D03*
%TO.P,U5,6*%
%TO.N,GND*%
X57150000Y-63500000D03*
%TO.P,U5,5*%
%TO.N,VCC*%
X54610000Y-63500000D03*
%TO.P,U5,4*%
%TO.N,/A9*%
X49530000Y-63500000D03*
%TO.P,U5,3*%
%TO.N,/B9*%
X46990000Y-63500000D03*
%TO.P,U5,2*%
%TO.N,/B8*%
X44450000Y-63500000D03*
%TO.P,U5,1*%
%TO.N,/A8*%
X41910000Y-63500000D03*
%TD*%
%TO.P,U4,15*%
%TO.N,/D6*%
X95250000Y-68580000D03*
%TO.P,U4,14*%
%TO.N,/C6*%
X92710000Y-68580000D03*
%TO.P,U4,13*%
%TO.N,/C7*%
X90170000Y-68580000D03*
%TO.P,U4,12*%
%TO.N,/D7*%
X87630000Y-68580000D03*
%TO.P,U4,11*%
%TO.N,/S1*%
X82550000Y-68580000D03*
%TO.P,U4,10*%
%TO.N,/~E*%
X80010000Y-68580000D03*
%TO.P,U4,9*%
%TO.N,/S0*%
X77470000Y-68580000D03*
%TO.P,U4,8*%
%TO.N,/O7*%
X72390000Y-68580000D03*
D12*
%TO.P,U4,7*%
%TO.N,/O6*%
X69850000Y-68580000D03*
D11*
%TO.P,U4,6*%
%TO.N,GND*%
X57150000Y-68580000D03*
%TO.P,U4,5*%
%TO.N,VCC*%
X54610000Y-68580000D03*
%TO.P,U4,4*%
%TO.N,/A7*%
X49530000Y-68580000D03*
%TO.P,U4,3*%
%TO.N,/B7*%
X46990000Y-68580000D03*
%TO.P,U4,2*%
%TO.N,/B6*%
X44450000Y-68580000D03*
%TO.P,U4,1*%
%TO.N,/A6*%
X41910000Y-68580000D03*
%TD*%
%TO.P,U3,15*%
%TO.N,/D4*%
X95250000Y-73660000D03*
%TO.P,U3,14*%
%TO.N,/C4*%
X92710000Y-73660000D03*
%TO.P,U3,13*%
%TO.N,/C5*%
X90170000Y-73660000D03*
%TO.P,U3,12*%
%TO.N,/D5*%
X87630000Y-73660000D03*
%TO.P,U3,11*%
%TO.N,/S1*%
X82550000Y-73660000D03*
%TO.P,U3,10*%
%TO.N,/~E*%
X80010000Y-73660000D03*
%TO.P,U3,9*%
%TO.N,/S0*%
X77470000Y-73660000D03*
%TO.P,U3,8*%
%TO.N,/O5*%
X72390000Y-73660000D03*
%TO.P,U3,7*%
%TO.N,/O4*%
X69850000Y-73660000D03*
%TO.P,U3,6*%
%TO.N,GND*%
X57150000Y-73660000D03*
%TO.P,U3,5*%
%TO.N,VCC*%
X54610000Y-73660000D03*
%TO.P,U3,4*%
%TO.N,/A5*%
X49530000Y-73660000D03*
%TO.P,U3,3*%
%TO.N,/B5*%
X46990000Y-73660000D03*
%TO.P,U3,2*%
%TO.N,/B4*%
X44450000Y-73660000D03*
%TO.P,U3,1*%
%TO.N,/A4*%
X41910000Y-73660000D03*
%TD*%
%TO.P,U2,15*%
%TO.N,/D2*%
X95250000Y-78740000D03*
%TO.P,U2,14*%
%TO.N,/C2*%
X92710000Y-78740000D03*
%TO.P,U2,13*%
%TO.N,/C3*%
X90170000Y-78740000D03*
%TO.P,U2,12*%
%TO.N,/D3*%
X87630000Y-78740000D03*
%TO.P,U2,11*%
%TO.N,/S1*%
X82550000Y-78740000D03*
%TO.P,U2,10*%
%TO.N,/~E*%
X80010000Y-78740000D03*
%TO.P,U2,9*%
%TO.N,/S0*%
X77470000Y-78740000D03*
%TO.P,U2,8*%
%TO.N,/O3*%
X72390000Y-78740000D03*
%TO.P,U2,7*%
%TO.N,/O2*%
X69850000Y-78740000D03*
%TO.P,U2,6*%
%TO.N,GND*%
X57150000Y-78740000D03*
%TO.P,U2,5*%
%TO.N,VCC*%
X54610000Y-78740000D03*
%TO.P,U2,4*%
%TO.N,/A3*%
X49530000Y-78740000D03*
%TO.P,U2,3*%
%TO.N,/B3*%
X46990000Y-78740000D03*
%TO.P,U2,2*%
%TO.N,/B2*%
X44450000Y-78740000D03*
%TO.P,U2,1*%
%TO.N,/A2*%
X41910000Y-78740000D03*
%TD*%
%TO.P,U1,15*%
%TO.N,/D0*%
X95250000Y-83820000D03*
%TO.P,U1,14*%
%TO.N,/C0*%
X92710000Y-83820000D03*
%TO.P,U1,13*%
%TO.N,/C1*%
X90170000Y-83820000D03*
%TO.P,U1,12*%
%TO.N,/D1*%
X87630000Y-83820000D03*
%TO.P,U1,11*%
%TO.N,/S1*%
X82550000Y-83820000D03*
%TO.P,U1,10*%
%TO.N,/~E*%
X80010000Y-83820000D03*
%TO.P,U1,9*%
%TO.N,/S0*%
X77470000Y-83820000D03*
%TO.P,U1,8*%
%TO.N,/O1*%
X72390000Y-83820000D03*
%TO.P,U1,7*%
%TO.N,/O0*%
X69850000Y-83820000D03*
%TO.P,U1,6*%
%TO.N,GND*%
X57150000Y-83820000D03*
%TO.P,U1,5*%
%TO.N,VCC*%
X54610000Y-83820000D03*
%TO.P,U1,4*%
%TO.N,/A1*%
X49530000Y-83820000D03*
%TO.P,U1,3*%
%TO.N,/B1*%
X46990000Y-83820000D03*
%TO.P,U1,2*%
%TO.N,/B0*%
X44450000Y-83820000D03*
%TO.P,U1,1*%
%TO.N,/A0*%
X41910000Y-83820000D03*
%TD*%
D13*
%TO.P,Q1,3*%
%TO.N,Net-(J8-Pad2)*%
X71120000Y-24400000D03*
%TO.P,Q1,2*%
%TO.N,VCC*%
X70170000Y-26400000D03*
%TO.P,Q1,1*%
%TO.N,GND*%
X72070000Y-26400000D03*
%TD*%
%TO.P,U10,20*%
%TO.N,VCC*%
%TA.AperFunction,SMDPad,CuDef*%
G36*
G01*
X40825000Y-25885000D02*
X40825000Y-26185000D01*
G75*
G02*
X40675000Y-26335000I-150000J0D01*
G01*
X38925000Y-26335000D01*
G75*
G02*
X38775000Y-26185000I0J150000D01*
G01*
X38775000Y-25885000D01*
G75*
G02*
X38925000Y-25735000I150000J0D01*
G01*
X40675000Y-25735000D01*
G75*
G02*
X40825000Y-25885000I0J-150000D01*
G01*
G37*
%TD.AperFunction*%
%TO.P,U10,19*%
%TO.N,/~OE*%
%TA.AperFunction,SMDPad,CuDef*%
G36*
G01*
X40825000Y-27155000D02*
X40825000Y-27455000D01*
G75*
G02*
X40675000Y-27605000I-150000J0D01*
G01*
X38925000Y-27605000D01*
G75*
G02*
X38775000Y-27455000I0J150000D01*
G01*
X38775000Y-27155000D01*
G75*
G02*
X38925000Y-27005000I150000J0D01*
G01*
X40675000Y-27005000D01*
G75*
G02*
X40825000Y-27155000I0J-150000D01*
G01*
G37*
%TD.AperFunction*%
%TO.P,U10,18*%
%TO.N,/BUS15*%
%TA.AperFunction,SMDPad,CuDef*%
G36*
G01*
X40825000Y-28425000D02*
X40825000Y-28725000D01*
G75*
G02*
X40675000Y-28875000I-150000J0D01*
G01*
X38925000Y-28875000D01*
G75*
G02*
X38775000Y-28725000I0J150000D01*
G01*
X38775000Y-28425000D01*
G75*
G02*
X38925000Y-28275000I150000J0D01*
G01*
X40675000Y-28275000D01*
G75*
G02*
X40825000Y-28425000I0J-150000D01*
G01*
G37*
%TD.AperFunction*%
%TO.P,U10,17*%
%TO.N,/BUS14*%
%TA.AperFunction,SMDPad,CuDef*%
G36*
G01*
X40825000Y-29695000D02*
X40825000Y-29995000D01*
G75*
G02*
X40675000Y-30145000I-150000J0D01*
G01*
X38925000Y-30145000D01*
G75*
G02*
X38775000Y-29995000I0J150000D01*
G01*
X38775000Y-29695000D01*
G75*
G02*
X38925000Y-29545000I150000J0D01*
G01*
X40675000Y-29545000D01*
G75*
G02*
X40825000Y-29695000I0J-150000D01*
G01*
G37*
%TD.AperFunction*%
%TO.P,U10,16*%
%TO.N,/BUS13*%
%TA.AperFunction,SMDPad,CuDef*%
G36*
G01*
X40825000Y-30965000D02*
X40825000Y-31265000D01*
G75*
G02*
X40675000Y-31415000I-150000J0D01*
G01*
X38925000Y-31415000D01*
G75*
G02*
X38775000Y-31265000I0J150000D01*
G01*
X38775000Y-30965000D01*
G75*
G02*
X38925000Y-30815000I150000J0D01*
G01*
X40675000Y-30815000D01*
G75*
G02*
X40825000Y-30965000I0J-150000D01*
G01*
G37*
%TD.AperFunction*%
%TO.P,U10,15*%
%TO.N,/BUS12*%
%TA.AperFunction,SMDPad,CuDef*%
G36*
G01*
X40825000Y-32235000D02*
X40825000Y-32535000D01*
G75*
G02*
X40675000Y-32685000I-150000J0D01*
G01*
X38925000Y-32685000D01*
G75*
G02*
X38775000Y-32535000I0J150000D01*
G01*
X38775000Y-32235000D01*
G75*
G02*
X38925000Y-32085000I150000J0D01*
G01*
X40675000Y-32085000D01*
G75*
G02*
X40825000Y-32235000I0J-150000D01*
G01*
G37*
%TD.AperFunction*%
%TO.P,U10,14*%
%TO.N,/BUS11*%
%TA.AperFunction,SMDPad,CuDef*%
G36*
G01*
X40825000Y-33505000D02*
X40825000Y-33805000D01*
G75*
G02*
X40675000Y-33955000I-150000J0D01*
G01*
X38925000Y-33955000D01*
G75*
G02*
X38775000Y-33805000I0J150000D01*
G01*
X38775000Y-33505000D01*
G75*
G02*
X38925000Y-33355000I150000J0D01*
G01*
X40675000Y-33355000D01*
G75*
G02*
X40825000Y-33505000I0J-150000D01*
G01*
G37*
%TD.AperFunction*%
%TO.P,U10,13*%
%TO.N,/BUS10*%
%TA.AperFunction,SMDPad,CuDef*%
G36*
G01*
X40825000Y-34775000D02*
X40825000Y-35075000D01*
G75*
G02*
X40675000Y-35225000I-150000J0D01*
G01*
X38925000Y-35225000D01*
G75*
G02*
X38775000Y-35075000I0J150000D01*
G01*
X38775000Y-34775000D01*
G75*
G02*
X38925000Y-34625000I150000J0D01*
G01*
X40675000Y-34625000D01*
G75*
G02*
X40825000Y-34775000I0J-150000D01*
G01*
G37*
%TD.AperFunction*%
%TO.P,U10,12*%
%TO.N,/BUS9*%
%TA.AperFunction,SMDPad,CuDef*%
G36*
G01*
X40825000Y-36045000D02*
X40825000Y-36345000D01*
G75*
G02*
X40675000Y-36495000I-150000J0D01*
G01*
X38925000Y-36495000D01*
G75*
G02*
X38775000Y-36345000I0J150000D01*
G01*
X38775000Y-36045000D01*
G75*
G02*
X38925000Y-35895000I150000J0D01*
G01*
X40675000Y-35895000D01*
G75*
G02*
X40825000Y-36045000I0J-150000D01*
G01*
G37*
%TD.AperFunction*%
%TO.P,U10,11*%
%TO.N,/BUS8*%
%TA.AperFunction,SMDPad,CuDef*%
G36*
G01*
X40825000Y-37315000D02*
X40825000Y-37615000D01*
G75*
G02*
X40675000Y-37765000I-150000J0D01*
G01*
X38925000Y-37765000D01*
G75*
G02*
X38775000Y-37615000I0J150000D01*
G01*
X38775000Y-37315000D01*
G75*
G02*
X38925000Y-37165000I150000J0D01*
G01*
X40675000Y-37165000D01*
G75*
G02*
X40825000Y-37315000I0J-150000D01*
G01*
G37*
%TD.AperFunction*%
%TO.P,U10,10*%
%TO.N,GND*%
%TA.AperFunction,SMDPad,CuDef*%
G36*
G01*
X50125000Y-37315000D02*
X50125000Y-37615000D01*
G75*
G02*
X49975000Y-37765000I-150000J0D01*
G01*
X48225000Y-37765000D01*
G75*
G02*
X48075000Y-37615000I0J150000D01*
G01*
X48075000Y-37315000D01*
G75*
G02*
X48225000Y-37165000I150000J0D01*
G01*
X49975000Y-37165000D01*
G75*
G02*
X50125000Y-37315000I0J-150000D01*
G01*
G37*
%TD.AperFunction*%
%TO.P,U10,9*%
%TO.N,/O8*%
%TA.AperFunction,SMDPad,CuDef*%
G36*
G01*
X50125000Y-36045000D02*
X50125000Y-36345000D01*
G75*
G02*
X49975000Y-36495000I-150000J0D01*
G01*
X48225000Y-36495000D01*
G75*
G02*
X48075000Y-36345000I0J150000D01*
G01*
X48075000Y-36045000D01*
G75*
G02*
X48225000Y-35895000I150000J0D01*
G01*
X49975000Y-35895000D01*
G75*
G02*
X50125000Y-36045000I0J-150000D01*
G01*
G37*
%TD.AperFunction*%
%TO.P,U10,8*%
%TO.N,/O9*%
%TA.AperFunction,SMDPad,CuDef*%
G36*
G01*
X50125000Y-34775000D02*
X50125000Y-35075000D01*
G75*
G02*
X49975000Y-35225000I-150000J0D01*
G01*
X48225000Y-35225000D01*
G75*
G02*
X48075000Y-35075000I0J150000D01*
G01*
X48075000Y-34775000D01*
G75*
G02*
X48225000Y-34625000I150000J0D01*
G01*
X49975000Y-34625000D01*
G75*
G02*
X50125000Y-34775000I0J-150000D01*
G01*
G37*
%TD.AperFunction*%
%TO.P,U10,7*%
%TO.N,/O10*%
%TA.AperFunction,SMDPad,CuDef*%
G36*
G01*
X50125000Y-33505000D02*
X50125000Y-33805000D01*
G75*
G02*
X49975000Y-33955000I-150000J0D01*
G01*
X48225000Y-33955000D01*
G75*
G02*
X48075000Y-33805000I0J150000D01*
G01*
X48075000Y-33505000D01*
G75*
G02*
X48225000Y-33355000I150000J0D01*
G01*
X49975000Y-33355000D01*
G75*
G02*
X50125000Y-33505000I0J-150000D01*
G01*
G37*
%TD.AperFunction*%
%TO.P,U10,6*%
%TO.N,/O11*%
%TA.AperFunction,SMDPad,CuDef*%
G36*
G01*
X50125000Y-32235000D02*
X50125000Y-32535000D01*
G75*
G02*
X49975000Y-32685000I-150000J0D01*
G01*
X48225000Y-32685000D01*
G75*
G02*
X48075000Y-32535000I0J150000D01*
G01*
X48075000Y-32235000D01*
G75*
G02*
X48225000Y-32085000I150000J0D01*
G01*
X49975000Y-32085000D01*
G75*
G02*
X50125000Y-32235000I0J-150000D01*
G01*
G37*
%TD.AperFunction*%
%TO.P,U10,5*%
%TO.N,/O12*%
%TA.AperFunction,SMDPad,CuDef*%
G36*
G01*
X50125000Y-30965000D02*
X50125000Y-31265000D01*
G75*
G02*
X49975000Y-31415000I-150000J0D01*
G01*
X48225000Y-31415000D01*
G75*
G02*
X48075000Y-31265000I0J150000D01*
G01*
X48075000Y-30965000D01*
G75*
G02*
X48225000Y-30815000I150000J0D01*
G01*
X49975000Y-30815000D01*
G75*
G02*
X50125000Y-30965000I0J-150000D01*
G01*
G37*
%TD.AperFunction*%
%TO.P,U10,4*%
%TO.N,/O13*%
%TA.AperFunction,SMDPad,CuDef*%
G36*
G01*
X50125000Y-29695000D02*
X50125000Y-29995000D01*
G75*
G02*
X49975000Y-30145000I-150000J0D01*
G01*
X48225000Y-30145000D01*
G75*
G02*
X48075000Y-29995000I0J150000D01*
G01*
X48075000Y-29695000D01*
G75*
G02*
X48225000Y-29545000I150000J0D01*
G01*
X49975000Y-29545000D01*
G75*
G02*
X50125000Y-29695000I0J-150000D01*
G01*
G37*
%TD.AperFunction*%
%TO.P,U10,3*%
%TO.N,/O14*%
%TA.AperFunction,SMDPad,CuDef*%
G36*
G01*
X50125000Y-28425000D02*
X50125000Y-28725000D01*
G75*
G02*
X49975000Y-28875000I-150000J0D01*
G01*
X48225000Y-28875000D01*
G75*
G02*
X48075000Y-28725000I0J150000D01*
G01*
X48075000Y-28425000D01*
G75*
G02*
X48225000Y-28275000I150000J0D01*
G01*
X49975000Y-28275000D01*
G75*
G02*
X50125000Y-28425000I0J-150000D01*
G01*
G37*
%TD.AperFunction*%
%TO.P,U10,2*%
%TO.N,/O15*%
%TA.AperFunction,SMDPad,CuDef*%
G36*
G01*
X50125000Y-27155000D02*
X50125000Y-27455000D01*
G75*
G02*
X49975000Y-27605000I-150000J0D01*
G01*
X48225000Y-27605000D01*
G75*
G02*
X48075000Y-27455000I0J150000D01*
G01*
X48075000Y-27155000D01*
G75*
G02*
X48225000Y-27005000I150000J0D01*
G01*
X49975000Y-27005000D01*
G75*
G02*
X50125000Y-27155000I0J-150000D01*
G01*
G37*
%TD.AperFunction*%
%TO.P,U10,1*%
%TO.N,Net-(R2-Pad1)*%
%TA.AperFunction,SMDPad,CuDef*%
G36*
G01*
X50125000Y-25885000D02*
X50125000Y-26185000D01*
G75*
G02*
X49975000Y-26335000I-150000J0D01*
G01*
X48225000Y-26335000D01*
G75*
G02*
X48075000Y-26185000I0J150000D01*
G01*
X48075000Y-25885000D01*
G75*
G02*
X48225000Y-25735000I150000J0D01*
G01*
X49975000Y-25735000D01*
G75*
G02*
X50125000Y-25885000I0J-150000D01*
G01*
G37*
%TD.AperFunction*%
%TD*%
%TO.P,U9,20*%
%TO.N,VCC*%
%TA.AperFunction,SMDPad,CuDef*%
G36*
G01*
X41460000Y-95735000D02*
X41460000Y-96035000D01*
G75*
G02*
X41310000Y-96185000I-150000J0D01*
G01*
X39560000Y-96185000D01*
G75*
G02*
X39410000Y-96035000I0J150000D01*
G01*
X39410000Y-95735000D01*
G75*
G02*
X39560000Y-95585000I150000J0D01*
G01*
X41310000Y-95585000D01*
G75*
G02*
X41460000Y-95735000I0J-150000D01*
G01*
G37*
%TD.AperFunction*%
%TO.P,U9,19*%
%TO.N,/~OE*%
%TA.AperFunction,SMDPad,CuDef*%
G36*
G01*
X41460000Y-97005000D02*
X41460000Y-97305000D01*
G75*
G02*
X41310000Y-97455000I-150000J0D01*
G01*
X39560000Y-97455000D01*
G75*
G02*
X39410000Y-97305000I0J150000D01*
G01*
X39410000Y-97005000D01*
G75*
G02*
X39560000Y-96855000I150000J0D01*
G01*
X41310000Y-96855000D01*
G75*
G02*
X41460000Y-97005000I0J-150000D01*
G01*
G37*
%TD.AperFunction*%
%TO.P,U9,18*%
%TO.N,/BUS7*%
%TA.AperFunction,SMDPad,CuDef*%
G36*
G01*
X41460000Y-98275000D02*
X41460000Y-98575000D01*
G75*
G02*
X41310000Y-98725000I-150000J0D01*
G01*
X39560000Y-98725000D01*
G75*
G02*
X39410000Y-98575000I0J150000D01*
G01*
X39410000Y-98275000D01*
G75*
G02*
X39560000Y-98125000I150000J0D01*
G01*
X41310000Y-98125000D01*
G75*
G02*
X41460000Y-98275000I0J-150000D01*
G01*
G37*
%TD.AperFunction*%
%TO.P,U9,17*%
%TO.N,/BUS6*%
%TA.AperFunction,SMDPad,CuDef*%
G36*
G01*
X41460000Y-99545000D02*
X41460000Y-99845000D01*
G75*
G02*
X41310000Y-99995000I-150000J0D01*
G01*
X39560000Y-99995000D01*
G75*
G02*
X39410000Y-99845000I0J150000D01*
G01*
X39410000Y-99545000D01*
G75*
G02*
X39560000Y-99395000I150000J0D01*
G01*
X41310000Y-99395000D01*
G75*
G02*
X41460000Y-99545000I0J-150000D01*
G01*
G37*
%TD.AperFunction*%
%TO.P,U9,16*%
%TO.N,/BUS5*%
%TA.AperFunction,SMDPad,CuDef*%
G36*
G01*
X41460000Y-100815000D02*
X41460000Y-101115000D01*
G75*
G02*
X41310000Y-101265000I-150000J0D01*
G01*
X39560000Y-101265000D01*
G75*
G02*
X39410000Y-101115000I0J150000D01*
G01*
X39410000Y-100815000D01*
G75*
G02*
X39560000Y-100665000I150000J0D01*
G01*
X41310000Y-100665000D01*
G75*
G02*
X41460000Y-100815000I0J-150000D01*
G01*
G37*
%TD.AperFunction*%
%TO.P,U9,15*%
%TO.N,/BUS4*%
%TA.AperFunction,SMDPad,CuDef*%
G36*
G01*
X41460000Y-102085000D02*
X41460000Y-102385000D01*
G75*
G02*
X41310000Y-102535000I-150000J0D01*
G01*
X39560000Y-102535000D01*
G75*
G02*
X39410000Y-102385000I0J150000D01*
G01*
X39410000Y-102085000D01*
G75*
G02*
X39560000Y-101935000I150000J0D01*
G01*
X41310000Y-101935000D01*
G75*
G02*
X41460000Y-102085000I0J-150000D01*
G01*
G37*
%TD.AperFunction*%
%TO.P,U9,14*%
%TO.N,/BUS3*%
%TA.AperFunction,SMDPad,CuDef*%
G36*
G01*
X41460000Y-103355000D02*
X41460000Y-103655000D01*
G75*
G02*
X41310000Y-103805000I-150000J0D01*
G01*
X39560000Y-103805000D01*
G75*
G02*
X39410000Y-103655000I0J150000D01*
G01*
X39410000Y-103355000D01*
G75*
G02*
X39560000Y-103205000I150000J0D01*
G01*
X41310000Y-103205000D01*
G75*
G02*
X41460000Y-103355000I0J-150000D01*
G01*
G37*
%TD.AperFunction*%
%TO.P,U9,13*%
%TO.N,/BUS2*%
%TA.AperFunction,SMDPad,CuDef*%
G36*
G01*
X41460000Y-104625000D02*
X41460000Y-104925000D01*
G75*
G02*
X41310000Y-105075000I-150000J0D01*
G01*
X39560000Y-105075000D01*
G75*
G02*
X39410000Y-104925000I0J150000D01*
G01*
X39410000Y-104625000D01*
G75*
G02*
X39560000Y-104475000I150000J0D01*
G01*
X41310000Y-104475000D01*
G75*
G02*
X41460000Y-104625000I0J-150000D01*
G01*
G37*
%TD.AperFunction*%
%TO.P,U9,12*%
%TO.N,/BUS1*%
%TA.AperFunction,SMDPad,CuDef*%
G36*
G01*
X41460000Y-105895000D02*
X41460000Y-106195000D01*
G75*
G02*
X41310000Y-106345000I-150000J0D01*
G01*
X39560000Y-106345000D01*
G75*
G02*
X39410000Y-106195000I0J150000D01*
G01*
X39410000Y-105895000D01*
G75*
G02*
X39560000Y-105745000I150000J0D01*
G01*
X41310000Y-105745000D01*
G75*
G02*
X41460000Y-105895000I0J-150000D01*
G01*
G37*
%TD.AperFunction*%
%TO.P,U9,11*%
%TO.N,/BUS0*%
%TA.AperFunction,SMDPad,CuDef*%
G36*
G01*
X41460000Y-107165000D02*
X41460000Y-107465000D01*
G75*
G02*
X41310000Y-107615000I-150000J0D01*
G01*
X39560000Y-107615000D01*
G75*
G02*
X39410000Y-107465000I0J150000D01*
G01*
X39410000Y-107165000D01*
G75*
G02*
X39560000Y-107015000I150000J0D01*
G01*
X41310000Y-107015000D01*
G75*
G02*
X41460000Y-107165000I0J-150000D01*
G01*
G37*
%TD.AperFunction*%
%TO.P,U9,10*%
%TO.N,GND*%
%TA.AperFunction,SMDPad,CuDef*%
G36*
G01*
X50760000Y-107165000D02*
X50760000Y-107465000D01*
G75*
G02*
X50610000Y-107615000I-150000J0D01*
G01*
X48860000Y-107615000D01*
G75*
G02*
X48710000Y-107465000I0J150000D01*
G01*
X48710000Y-107165000D01*
G75*
G02*
X48860000Y-107015000I150000J0D01*
G01*
X50610000Y-107015000D01*
G75*
G02*
X50760000Y-107165000I0J-150000D01*
G01*
G37*
%TD.AperFunction*%
%TO.P,U9,9*%
%TO.N,/O0*%
%TA.AperFunction,SMDPad,CuDef*%
G36*
G01*
X50760000Y-105895000D02*
X50760000Y-106195000D01*
G75*
G02*
X50610000Y-106345000I-150000J0D01*
G01*
X48860000Y-106345000D01*
G75*
G02*
X48710000Y-106195000I0J150000D01*
G01*
X48710000Y-105895000D01*
G75*
G02*
X48860000Y-105745000I150000J0D01*
G01*
X50610000Y-105745000D01*
G75*
G02*
X50760000Y-105895000I0J-150000D01*
G01*
G37*
%TD.AperFunction*%
%TO.P,U9,8*%
%TO.N,/O1*%
%TA.AperFunction,SMDPad,CuDef*%
G36*
G01*
X50760000Y-104625000D02*
X50760000Y-104925000D01*
G75*
G02*
X50610000Y-105075000I-150000J0D01*
G01*
X48860000Y-105075000D01*
G75*
G02*
X48710000Y-104925000I0J150000D01*
G01*
X48710000Y-104625000D01*
G75*
G02*
X48860000Y-104475000I150000J0D01*
G01*
X50610000Y-104475000D01*
G75*
G02*
X50760000Y-104625000I0J-150000D01*
G01*
G37*
%TD.AperFunction*%
%TO.P,U9,7*%
%TO.N,/O2*%
%TA.AperFunction,SMDPad,CuDef*%
G36*
G01*
X50760000Y-103355000D02*
X50760000Y-103655000D01*
G75*
G02*
X50610000Y-103805000I-150000J0D01*
G01*
X48860000Y-103805000D01*
G75*
G02*
X48710000Y-103655000I0J150000D01*
G01*
X48710000Y-103355000D01*
G75*
G02*
X48860000Y-103205000I150000J0D01*
G01*
X50610000Y-103205000D01*
G75*
G02*
X50760000Y-103355000I0J-150000D01*
G01*
G37*
%TD.AperFunction*%
%TO.P,U9,6*%
%TO.N,/O3*%
%TA.AperFunction,SMDPad,CuDef*%
G36*
G01*
X50760000Y-102085000D02*
X50760000Y-102385000D01*
G75*
G02*
X50610000Y-102535000I-150000J0D01*
G01*
X48860000Y-102535000D01*
G75*
G02*
X48710000Y-102385000I0J150000D01*
G01*
X48710000Y-102085000D01*
G75*
G02*
X48860000Y-101935000I150000J0D01*
G01*
X50610000Y-101935000D01*
G75*
G02*
X50760000Y-102085000I0J-150000D01*
G01*
G37*
%TD.AperFunction*%
%TO.P,U9,5*%
%TO.N,/O4*%
%TA.AperFunction,SMDPad,CuDef*%
G36*
G01*
X50760000Y-100815000D02*
X50760000Y-101115000D01*
G75*
G02*
X50610000Y-101265000I-150000J0D01*
G01*
X48860000Y-101265000D01*
G75*
G02*
X48710000Y-101115000I0J150000D01*
G01*
X48710000Y-100815000D01*
G75*
G02*
X48860000Y-100665000I150000J0D01*
G01*
X50610000Y-100665000D01*
G75*
G02*
X50760000Y-100815000I0J-150000D01*
G01*
G37*
%TD.AperFunction*%
%TO.P,U9,4*%
%TO.N,/O5*%
%TA.AperFunction,SMDPad,CuDef*%
G36*
G01*
X50760000Y-99545000D02*
X50760000Y-99845000D01*
G75*
G02*
X50610000Y-99995000I-150000J0D01*
G01*
X48860000Y-99995000D01*
G75*
G02*
X48710000Y-99845000I0J150000D01*
G01*
X48710000Y-99545000D01*
G75*
G02*
X48860000Y-99395000I150000J0D01*
G01*
X50610000Y-99395000D01*
G75*
G02*
X50760000Y-99545000I0J-150000D01*
G01*
G37*
%TD.AperFunction*%
%TO.P,U9,3*%
%TO.N,/O6*%
%TA.AperFunction,SMDPad,CuDef*%
G36*
G01*
X50760000Y-98275000D02*
X50760000Y-98575000D01*
G75*
G02*
X50610000Y-98725000I-150000J0D01*
G01*
X48860000Y-98725000D01*
G75*
G02*
X48710000Y-98575000I0J150000D01*
G01*
X48710000Y-98275000D01*
G75*
G02*
X48860000Y-98125000I150000J0D01*
G01*
X50610000Y-98125000D01*
G75*
G02*
X50760000Y-98275000I0J-150000D01*
G01*
G37*
%TD.AperFunction*%
%TO.P,U9,2*%
%TO.N,/O7*%
%TA.AperFunction,SMDPad,CuDef*%
G36*
G01*
X50760000Y-97005000D02*
X50760000Y-97305000D01*
G75*
G02*
X50610000Y-97455000I-150000J0D01*
G01*
X48860000Y-97455000D01*
G75*
G02*
X48710000Y-97305000I0J150000D01*
G01*
X48710000Y-97005000D01*
G75*
G02*
X48860000Y-96855000I150000J0D01*
G01*
X50610000Y-96855000D01*
G75*
G02*
X50760000Y-97005000I0J-150000D01*
G01*
G37*
%TD.AperFunction*%
%TO.P,U9,1*%
%TO.N,Net-(R1-Pad1)*%
%TA.AperFunction,SMDPad,CuDef*%
G36*
G01*
X50760000Y-95735000D02*
X50760000Y-96035000D01*
G75*
G02*
X50610000Y-96185000I-150000J0D01*
G01*
X48860000Y-96185000D01*
G75*
G02*
X48710000Y-96035000I0J150000D01*
G01*
X48710000Y-95735000D01*
G75*
G02*
X48860000Y-95585000I150000J0D01*
G01*
X50610000Y-95585000D01*
G75*
G02*
X50760000Y-95735000I0J-150000D01*
G01*
G37*
%TD.AperFunction*%
%TD*%
%TO.P,C2,2*%
%TO.N,GND*%
%TA.AperFunction,SMDPad,CuDef*%
G36*
G01*
X44497500Y-23970000D02*
X44497500Y-23020000D01*
G75*
G02*
X44747500Y-22770000I250000J0D01*
G01*
X45422500Y-22770000D01*
G75*
G02*
X45672500Y-23020000I0J-250000D01*
G01*
X45672500Y-23970000D01*
G75*
G02*
X45422500Y-24220000I-250000J0D01*
G01*
X44747500Y-24220000D01*
G75*
G02*
X44497500Y-23970000I0J250000D01*
G01*
G37*
%TD.AperFunction*%
%TO.P,C2,1*%
%TO.N,VCC*%
%TA.AperFunction,SMDPad,CuDef*%
G36*
G01*
X42422500Y-23970000D02*
X42422500Y-23020000D01*
G75*
G02*
X42672500Y-22770000I250000J0D01*
G01*
X43347500Y-22770000D01*
G75*
G02*
X43597500Y-23020000I0J-250000D01*
G01*
X43597500Y-23970000D01*
G75*
G02*
X43347500Y-24220000I-250000J0D01*
G01*
X42672500Y-24220000D01*
G75*
G02*
X42422500Y-23970000I0J250000D01*
G01*
G37*
%TD.AperFunction*%
%TD*%
%TO.P,C1,2*%
%TO.N,GND*%
%TA.AperFunction,SMDPad,CuDef*%
G36*
G01*
X45170000Y-93820000D02*
X45170000Y-92870000D01*
G75*
G02*
X45420000Y-92620000I250000J0D01*
G01*
X46095000Y-92620000D01*
G75*
G02*
X46345000Y-92870000I0J-250000D01*
G01*
X46345000Y-93820000D01*
G75*
G02*
X46095000Y-94070000I-250000J0D01*
G01*
X45420000Y-94070000D01*
G75*
G02*
X45170000Y-93820000I0J250000D01*
G01*
G37*
%TD.AperFunction*%
%TO.P,C1,1*%
%TO.N,VCC*%
%TA.AperFunction,SMDPad,CuDef*%
G36*
G01*
X43095000Y-93820000D02*
X43095000Y-92870000D01*
G75*
G02*
X43345000Y-92620000I250000J0D01*
G01*
X44020000Y-92620000D01*
G75*
G02*
X44270000Y-92870000I0J-250000D01*
G01*
X44270000Y-93820000D01*
G75*
G02*
X44020000Y-94070000I-250000J0D01*
G01*
X43345000Y-94070000D01*
G75*
G02*
X43095000Y-93820000I0J250000D01*
G01*
G37*
%TD.AperFunction*%
%TD*%
D14*
%TO.P,J5,17*%
%TO.N,GND*%
X15240000Y-87630000D03*
%TO.P,J5,16*%
%TO.N,/BUS0*%
X15240000Y-85090000D03*
%TO.P,J5,15*%
%TO.N,/BUS1*%
X15240000Y-82550000D03*
%TO.P,J5,14*%
%TO.N,/BUS2*%
X15240000Y-80010000D03*
%TO.P,J5,13*%
%TO.N,/BUS3*%
X15240000Y-77470000D03*
%TO.P,J5,12*%
%TO.N,/BUS4*%
X15240000Y-74930000D03*
%TO.P,J5,11*%
%TO.N,/BUS5*%
X15240000Y-72390000D03*
%TO.P,J5,10*%
%TO.N,/BUS6*%
X15240000Y-69850000D03*
%TO.P,J5,9*%
%TO.N,/BUS7*%
X15240000Y-67310000D03*
%TO.P,J5,8*%
%TO.N,/BUS8*%
X15240000Y-64770000D03*
%TO.P,J5,7*%
%TO.N,/BUS9*%
X15240000Y-62230000D03*
%TO.P,J5,6*%
%TO.N,/BUS10*%
X15240000Y-59690000D03*
%TO.P,J5,5*%
%TO.N,/BUS11*%
X15240000Y-57150000D03*
%TO.P,J5,4*%
%TO.N,/BUS12*%
X15240000Y-54610000D03*
%TO.P,J5,3*%
%TO.N,/BUS13*%
X15240000Y-52070000D03*
%TO.P,J5,2*%
%TO.N,/BUS14*%
X15240000Y-49530000D03*
D15*
%TO.P,J5,1*%
%TO.N,/BUS15*%
X15240000Y-46990000D03*
%TD*%
D16*
%TO.P,J4,17*%
%TO.N,GND*%
X106680000Y-87630000D03*
%TO.P,J4,16*%
%TO.N,/D0*%
X106680000Y-85090000D03*
%TO.P,J4,15*%
%TO.N,/D1*%
X106680000Y-82550000D03*
%TO.P,J4,14*%
%TO.N,/D2*%
X106680000Y-80010000D03*
%TO.P,J4,13*%
%TO.N,/D3*%
X106680000Y-77470000D03*
%TO.P,J4,12*%
%TO.N,/D4*%
X106680000Y-74930000D03*
%TO.P,J4,11*%
%TO.N,/D5*%
X106680000Y-72390000D03*
%TO.P,J4,10*%
%TO.N,/D6*%
X106680000Y-69850000D03*
%TO.P,J4,9*%
%TO.N,/D7*%
X106680000Y-67310000D03*
%TO.P,J4,8*%
%TO.N,/D8*%
X106680000Y-64770000D03*
%TO.P,J4,7*%
%TO.N,/D9*%
X106680000Y-62230000D03*
%TO.P,J4,6*%
%TO.N,/D10*%
X106680000Y-59690000D03*
%TO.P,J4,5*%
%TO.N,/D11*%
X106680000Y-57150000D03*
%TO.P,J4,4*%
%TO.N,/D12*%
X106680000Y-54610000D03*
%TO.P,J4,3*%
%TO.N,/D13*%
X106680000Y-52070000D03*
%TO.P,J4,2*%
%TO.N,/D14*%
X106680000Y-49530000D03*
D17*
%TO.P,J4,1*%
%TO.N,/D15*%
X106680000Y-46990000D03*
%TD*%
D16*
%TO.P,J3,17*%
%TO.N,GND*%
X101600000Y-87630000D03*
%TO.P,J3,16*%
%TO.N,/C0*%
X101600000Y-85090000D03*
%TO.P,J3,15*%
%TO.N,/C1*%
X101600000Y-82550000D03*
%TO.P,J3,14*%
%TO.N,/C2*%
X101600000Y-80010000D03*
%TO.P,J3,13*%
%TO.N,/C3*%
X101600000Y-77470000D03*
%TO.P,J3,12*%
%TO.N,/C4*%
X101600000Y-74930000D03*
%TO.P,J3,11*%
%TO.N,/C5*%
X101600000Y-72390000D03*
%TO.P,J3,10*%
%TO.N,/C6*%
X101600000Y-69850000D03*
%TO.P,J3,9*%
%TO.N,/C7*%
X101600000Y-67310000D03*
%TO.P,J3,8*%
%TO.N,/C8*%
X101600000Y-64770000D03*
%TO.P,J3,7*%
%TO.N,/C9*%
X101600000Y-62230000D03*
%TO.P,J3,6*%
%TO.N,/C10*%
X101600000Y-59690000D03*
%TO.P,J3,5*%
%TO.N,/C11*%
X101600000Y-57150000D03*
%TO.P,J3,4*%
%TO.N,/C12*%
X101600000Y-54610000D03*
%TO.P,J3,3*%
%TO.N,/C13*%
X101600000Y-52070000D03*
%TO.P,J3,2*%
%TO.N,/C14*%
X101600000Y-49530000D03*
D17*
%TO.P,J3,1*%
%TO.N,/C15*%
X101600000Y-46990000D03*
%TD*%
D16*
%TO.P,J2,17*%
%TO.N,GND*%
X35560000Y-87630000D03*
%TO.P,J2,16*%
%TO.N,/B0*%
X35560000Y-85090000D03*
%TO.P,J2,15*%
%TO.N,/B1*%
X35560000Y-82550000D03*
%TO.P,J2,14*%
%TO.N,/B2*%
X35560000Y-80010000D03*
%TO.P,J2,13*%
%TO.N,/B3*%
X35560000Y-77470000D03*
%TO.P,J2,12*%
%TO.N,/B4*%
X35560000Y-74930000D03*
%TO.P,J2,11*%
%TO.N,/B5*%
X35560000Y-72390000D03*
%TO.P,J2,10*%
%TO.N,/B6*%
X35560000Y-69850000D03*
%TO.P,J2,9*%
%TO.N,/B7*%
X35560000Y-67310000D03*
%TO.P,J2,8*%
%TO.N,/B8*%
X35560000Y-64770000D03*
%TO.P,J2,7*%
%TO.N,/B9*%
X35560000Y-62230000D03*
%TO.P,J2,6*%
%TO.N,/B10*%
X35560000Y-59690000D03*
%TO.P,J2,5*%
%TO.N,/B11*%
X35560000Y-57150000D03*
%TO.P,J2,4*%
%TO.N,/B12*%
X35560000Y-54610000D03*
%TO.P,J2,3*%
%TO.N,/B13*%
X35560000Y-52070000D03*
%TO.P,J2,2*%
%TO.N,/B14*%
X35560000Y-49530000D03*
D17*
%TO.P,J2,1*%
%TO.N,/B15*%
X35560000Y-46990000D03*
%TD*%
D16*
%TO.P,J1,17*%
%TO.N,GND*%
X30480000Y-87630000D03*
%TO.P,J1,16*%
%TO.N,/A0*%
X30480000Y-85090000D03*
%TO.P,J1,15*%
%TO.N,/A1*%
X30480000Y-82550000D03*
%TO.P,J1,14*%
%TO.N,/A2*%
X30480000Y-80010000D03*
%TO.P,J1,13*%
%TO.N,/A3*%
X30480000Y-77470000D03*
%TO.P,J1,12*%
%TO.N,/A4*%
X30480000Y-74930000D03*
%TO.P,J1,11*%
%TO.N,/A5*%
X30480000Y-72390000D03*
%TO.P,J1,10*%
%TO.N,/A6*%
X30480000Y-69850000D03*
%TO.P,J1,9*%
%TO.N,/A7*%
X30480000Y-67310000D03*
%TO.P,J1,8*%
%TO.N,/A8*%
X30480000Y-64770000D03*
%TO.P,J1,7*%
%TO.N,/A9*%
X30480000Y-62230000D03*
%TO.P,J1,6*%
%TO.N,/A10*%
X30480000Y-59690000D03*
%TO.P,J1,5*%
%TO.N,/A11*%
X30480000Y-57150000D03*
%TO.P,J1,4*%
%TO.N,/A12*%
X30480000Y-54610000D03*
%TO.P,J1,3*%
%TO.N,/A13*%
X30480000Y-52070000D03*
%TO.P,J1,2*%
%TO.N,/A14*%
X30480000Y-49530000D03*
D17*
%TO.P,J1,1*%
%TO.N,/A15*%
X30480000Y-46990000D03*
%TD*%
%TO.P,R3,2*%
%TO.N,/~E*%
%TA.AperFunction,SMDPad,CuDef*%
G36*
G01*
X109404999Y-37500000D02*
X110305001Y-37500000D01*
G75*
G02*
X110555000Y-37749999I0J-249999D01*
G01*
X110555000Y-38450001D01*
G75*
G02*
X110305001Y-38700000I-249999J0D01*
G01*
X109404999Y-38700000D01*
G75*
G02*
X109155000Y-38450001I0J249999D01*
G01*
X109155000Y-37749999D01*
G75*
G02*
X109404999Y-37500000I249999J0D01*
G01*
G37*
%TD.AperFunction*%
%TO.P,R3,1*%
%TO.N,GND*%
%TA.AperFunction,SMDPad,CuDef*%
G36*
G01*
X109404999Y-35500000D02*
X110305001Y-35500000D01*
G75*
G02*
X110555000Y-35749999I0J-249999D01*
G01*
X110555000Y-36450001D01*
G75*
G02*
X110305001Y-36700000I-249999J0D01*
G01*
X109404999Y-36700000D01*
G75*
G02*
X109155000Y-36450001I0J249999D01*
G01*
X109155000Y-35749999D01*
G75*
G02*
X109404999Y-35500000I249999J0D01*
G01*
G37*
%TD.AperFunction*%
%TD*%
%TO.P,R2,2*%
%TO.N,VCC*%
%TA.AperFunction,SMDPad,CuDef*%
G36*
G01*
X43685000Y-20504999D02*
X43685000Y-21405001D01*
G75*
G02*
X43435001Y-21655000I-249999J0D01*
G01*
X42734999Y-21655000D01*
G75*
G02*
X42485000Y-21405001I0J249999D01*
G01*
X42485000Y-20504999D01*
G75*
G02*
X42734999Y-20255000I249999J0D01*
G01*
X43435001Y-20255000D01*
G75*
G02*
X43685000Y-20504999I0J-249999D01*
G01*
G37*
%TD.AperFunction*%
%TO.P,R2,1*%
%TO.N,Net-(R2-Pad1)*%
%TA.AperFunction,SMDPad,CuDef*%
G36*
G01*
X45685000Y-20504999D02*
X45685000Y-21405001D01*
G75*
G02*
X45435001Y-21655000I-249999J0D01*
G01*
X44734999Y-21655000D01*
G75*
G02*
X44485000Y-21405001I0J249999D01*
G01*
X44485000Y-20504999D01*
G75*
G02*
X44734999Y-20255000I249999J0D01*
G01*
X45435001Y-20255000D01*
G75*
G02*
X45685000Y-20504999I0J-249999D01*
G01*
G37*
%TD.AperFunction*%
%TD*%
%TO.P,R1,2*%
%TO.N,VCC*%
%TA.AperFunction,SMDPad,CuDef*%
G36*
G01*
X44320000Y-90354999D02*
X44320000Y-91255001D01*
G75*
G02*
X44070001Y-91505000I-249999J0D01*
G01*
X43369999Y-91505000D01*
G75*
G02*
X43120000Y-91255001I0J249999D01*
G01*
X43120000Y-90354999D01*
G75*
G02*
X43369999Y-90105000I249999J0D01*
G01*
X44070001Y-90105000D01*
G75*
G02*
X44320000Y-90354999I0J-249999D01*
G01*
G37*
%TD.AperFunction*%
%TO.P,R1,1*%
%TO.N,Net-(R1-Pad1)*%
%TA.AperFunction,SMDPad,CuDef*%
G36*
G01*
X46320000Y-90354999D02*
X46320000Y-91255001D01*
G75*
G02*
X46070001Y-91505000I-249999J0D01*
G01*
X45369999Y-91505000D01*
G75*
G02*
X45120000Y-91255001I0J249999D01*
G01*
X45120000Y-90354999D01*
G75*
G02*
X45369999Y-90105000I249999J0D01*
G01*
X46070001Y-90105000D01*
G75*
G02*
X46320000Y-90354999I0J-249999D01*
G01*
G37*
%TD.AperFunction*%
%TD*%
D18*
%TO.P,J8,2*%
%TO.N,Net-(J8-Pad2)*%
X71200000Y-19050000D03*
D19*
%TO.P,J8,1*%
%TO.N,GND*%
X76200000Y-19050000D03*
%TD*%
D20*
%TO.P,J7,3*%
%TO.N,/S1*%
X106680000Y-40640000D03*
%TO.P,J7,2*%
%TO.N,/~E*%
X106680000Y-38100000D03*
D21*
%TO.P,J7,1*%
%TO.N,/S0*%
X106680000Y-35560000D03*
%TD*%
D22*
%TO.P,J6,1*%
%TO.N,/~OE*%
X15240000Y-27305000D03*
%TD*%
D23*
%TO.N,/A15*%
X49530000Y-46355000D02*
X49530000Y-48260000D01*
X48895000Y-45720000D02*
X49530000Y-46355000D01*
X33020000Y-45720000D02*
X48895000Y-45720000D01*
X31750000Y-46990000D02*
X33020000Y-45720000D01*
X30480000Y-46990000D02*
X31750000Y-46990000D01*
%TO.N,/A14*%
X31750000Y-49530000D02*
X30480000Y-49530000D01*
X33020000Y-48260000D02*
X31750000Y-49530000D01*
X41910000Y-48260000D02*
X33020000Y-48260000D01*
%TO.N,/A13*%
X49530000Y-51435000D02*
X49530000Y-53340000D01*
X48895000Y-50800000D02*
X49530000Y-51435000D01*
X33020000Y-50800000D02*
X48895000Y-50800000D01*
X31750000Y-52070000D02*
X33020000Y-50800000D01*
X30480000Y-52070000D02*
X31750000Y-52070000D01*
%TO.N,/A12*%
X41910000Y-53340000D02*
X33020000Y-53340000D01*
X31750000Y-54610000D02*
X30480000Y-54610000D01*
X33020000Y-53340000D02*
X31750000Y-54610000D01*
%TO.N,/A11*%
X30480000Y-57150000D02*
X31750000Y-57150000D01*
X31750000Y-57150000D02*
X33020000Y-55880000D01*
X33020000Y-55880000D02*
X48895000Y-55880000D01*
X49530000Y-56515000D02*
X49530000Y-58420000D01*
X48895000Y-55880000D02*
X49530000Y-56515000D01*
%TO.N,/A10*%
X41910000Y-58420000D02*
X33020000Y-58420000D01*
X31750000Y-59690000D02*
X30480000Y-59690000D01*
X33020000Y-58420000D02*
X31750000Y-59690000D01*
%TO.N,/A9*%
X30480000Y-62230000D02*
X31750000Y-62230000D01*
X31750000Y-62230000D02*
X33020000Y-60960000D01*
X33020000Y-60960000D02*
X48895000Y-60960000D01*
X49530000Y-61595000D02*
X49530000Y-63500000D01*
X48895000Y-60960000D02*
X49530000Y-61595000D01*
%TO.N,/A8*%
X31750000Y-64770000D02*
X30480000Y-64770000D01*
X33020000Y-63500000D02*
X31750000Y-64770000D01*
X41910000Y-63500000D02*
X33020000Y-63500000D01*
%TO.N,/A7*%
X30480000Y-67310000D02*
X31750000Y-67310000D01*
X31750000Y-67310000D02*
X33020000Y-66040000D01*
X33020000Y-66040000D02*
X48895000Y-66040000D01*
X49530000Y-66675000D02*
X49530000Y-68580000D01*
X48895000Y-66040000D02*
X49530000Y-66675000D01*
%TO.N,/A6*%
X41910000Y-68580000D02*
X33020000Y-68580000D01*
X31750000Y-69850000D02*
X30480000Y-69850000D01*
X33020000Y-68580000D02*
X31750000Y-69850000D01*
%TO.N,/A5*%
X30480000Y-72390000D02*
X31750000Y-72390000D01*
X31750000Y-72390000D02*
X33020000Y-71120000D01*
X33020000Y-71120000D02*
X48895000Y-71120000D01*
X49530000Y-71755000D02*
X49530000Y-73660000D01*
X48895000Y-71120000D02*
X49530000Y-71755000D01*
%TO.N,/A4*%
X30480000Y-74930000D02*
X31750000Y-74930000D01*
X33020000Y-73660000D02*
X33655000Y-73660000D01*
X31750000Y-74930000D02*
X33020000Y-73660000D01*
X41910000Y-73660000D02*
X33655000Y-73660000D01*
%TO.N,/A3*%
X49530000Y-76835000D02*
X49530000Y-78740000D01*
X48895000Y-76200000D02*
X49530000Y-76835000D01*
X33020000Y-76200000D02*
X48895000Y-76200000D01*
X31750000Y-77470000D02*
X33020000Y-76200000D01*
X30480000Y-77470000D02*
X31750000Y-77470000D01*
%TO.N,/A2*%
X41910000Y-78740000D02*
X33020000Y-78740000D01*
X31750000Y-80010000D02*
X30480000Y-80010000D01*
X33020000Y-78740000D02*
X31750000Y-80010000D01*
%TO.N,/A1*%
X30480000Y-82550000D02*
X31750000Y-82550000D01*
X31750000Y-82550000D02*
X33020000Y-81280000D01*
X33020000Y-81280000D02*
X48895000Y-81280000D01*
X49530000Y-81915000D02*
X49530000Y-83820000D01*
X48895000Y-81280000D02*
X49530000Y-81915000D01*
%TO.N,/A0*%
X41910000Y-83820000D02*
X33020000Y-83820000D01*
X33020000Y-83820000D02*
X31750000Y-85090000D01*
X31750000Y-85090000D02*
X30480000Y-85090000D01*
%TO.N,/B0*%
X35560000Y-85090000D02*
X43815000Y-85090000D01*
X44450000Y-84455000D02*
X44450000Y-83820000D01*
X43815000Y-85090000D02*
X44450000Y-84455000D01*
%TO.N,/B1*%
X35560000Y-82550000D02*
X46355000Y-82550000D01*
X46990000Y-83185000D02*
X46990000Y-83820000D01*
X46355000Y-82550000D02*
X46990000Y-83185000D01*
%TO.N,/B2*%
X35560000Y-80010000D02*
X43815000Y-80010000D01*
X44450000Y-79375000D02*
X44450000Y-78740000D01*
X43815000Y-80010000D02*
X44450000Y-79375000D01*
%TO.N,/B3*%
X35560000Y-77470000D02*
X46355000Y-77470000D01*
X46990000Y-78105000D02*
X46990000Y-78740000D01*
X46355000Y-77470000D02*
X46990000Y-78105000D01*
%TO.N,/B4*%
X43815000Y-74930000D02*
X44450000Y-74295000D01*
X44450000Y-74295000D02*
X44450000Y-73660000D01*
X35560000Y-74930000D02*
X43815000Y-74930000D01*
%TO.N,/B5*%
X35560000Y-72390000D02*
X46355000Y-72390000D01*
X46990000Y-73025000D02*
X46990000Y-73660000D01*
X46355000Y-72390000D02*
X46990000Y-73025000D01*
%TO.N,/B6*%
X44450000Y-69215000D02*
X44450000Y-68580000D01*
X43815000Y-69850000D02*
X44450000Y-69215000D01*
X35560000Y-69850000D02*
X43815000Y-69850000D01*
%TO.N,/B7*%
X35560000Y-67310000D02*
X46355000Y-67310000D01*
X46990000Y-67945000D02*
X46990000Y-68580000D01*
X46355000Y-67310000D02*
X46990000Y-67945000D01*
%TO.N,/B8*%
X35560000Y-64770000D02*
X43815000Y-64770000D01*
X43815000Y-64770000D02*
X44450000Y-64135000D01*
X44450000Y-64135000D02*
X44450000Y-63500000D01*
%TO.N,/B9*%
X35560000Y-62230000D02*
X46355000Y-62230000D01*
X46990000Y-62865000D02*
X46990000Y-63500000D01*
X46355000Y-62230000D02*
X46990000Y-62865000D01*
%TO.N,/B10*%
X44450000Y-59055000D02*
X44450000Y-58420000D01*
X43815000Y-59690000D02*
X44450000Y-59055000D01*
X35560000Y-59690000D02*
X43815000Y-59690000D01*
%TO.N,/B11*%
X35560000Y-57150000D02*
X44973762Y-57150000D01*
X46990000Y-58420000D02*
X46990000Y-57785000D01*
X46355000Y-57150000D02*
X44973762Y-57150000D01*
X46990000Y-57785000D02*
X46355000Y-57150000D01*
%TO.N,/B12*%
X35560000Y-54610000D02*
X43815000Y-54610000D01*
X44450000Y-53975000D02*
X44450000Y-53340000D01*
X43815000Y-54610000D02*
X44450000Y-53975000D01*
%TO.N,/B13*%
X35560000Y-52070000D02*
X46355000Y-52070000D01*
X46355000Y-52070000D02*
X46990000Y-52705000D01*
X46990000Y-52705000D02*
X46990000Y-53340000D01*
%TO.N,/B14*%
X35560000Y-49530000D02*
X43815000Y-49530000D01*
X43815000Y-49530000D02*
X44450000Y-48895000D01*
X44450000Y-48895000D02*
X44450000Y-48260000D01*
%TO.N,/B15*%
X35560000Y-46990000D02*
X46355000Y-46990000D01*
X46355000Y-46990000D02*
X46990000Y-47625000D01*
X46990000Y-47625000D02*
X46990000Y-48260000D01*
%TO.N,/C15*%
X101600000Y-46990000D02*
X91440000Y-46990000D01*
X90170000Y-48260000D02*
X91440000Y-46990000D01*
%TO.N,/C14*%
X93980000Y-49530000D02*
X92710000Y-48260000D01*
X101600000Y-49530000D02*
X93980000Y-49530000D01*
%TO.N,/C13*%
X91440000Y-52070000D02*
X90170000Y-53340000D01*
X101600000Y-52070000D02*
X91440000Y-52070000D01*
%TO.N,/C12*%
X93980000Y-54610000D02*
X92710000Y-53340000D01*
X101600000Y-54610000D02*
X93980000Y-54610000D01*
%TO.N,/C11*%
X101600000Y-57150000D02*
X91440000Y-57150000D01*
X90170000Y-58420000D02*
X91440000Y-57150000D01*
%TO.N,/C10*%
X93980000Y-59690000D02*
X92710000Y-58420000D01*
X101600000Y-59690000D02*
X93980000Y-59690000D01*
%TO.N,/C9*%
X101600000Y-62230000D02*
X91440000Y-62230000D01*
X90170000Y-63500000D02*
X91440000Y-62230000D01*
%TO.N,/C8*%
X93980000Y-64770000D02*
X92710000Y-63500000D01*
X101600000Y-64770000D02*
X93980000Y-64770000D01*
%TO.N,/C7*%
X91440000Y-67310000D02*
X90170000Y-68580000D01*
X101600000Y-67310000D02*
X91440000Y-67310000D01*
%TO.N,/C6*%
X93980000Y-69850000D02*
X92710000Y-68580000D01*
X101600000Y-69850000D02*
X93980000Y-69850000D01*
%TO.N,/C5*%
X91440000Y-72390000D02*
X90170000Y-73660000D01*
X101600000Y-72390000D02*
X91440000Y-72390000D01*
%TO.N,/C4*%
X93980000Y-74930000D02*
X92710000Y-73660000D01*
X101600000Y-74930000D02*
X93980000Y-74930000D01*
%TO.N,/C3*%
X91440000Y-77470000D02*
X90170000Y-78740000D01*
X101600000Y-77470000D02*
X91440000Y-77470000D01*
%TO.N,/C2*%
X93980000Y-80010000D02*
X92710000Y-78740000D01*
X101600000Y-80010000D02*
X93980000Y-80010000D01*
%TO.N,/C1*%
X91440000Y-82550000D02*
X90170000Y-83820000D01*
X101600000Y-82550000D02*
X91440000Y-82550000D01*
%TO.N,/C0*%
X93980000Y-85090000D02*
X92710000Y-83820000D01*
X101600000Y-85090000D02*
X93980000Y-85090000D01*
%TO.N,/D0*%
X95250000Y-83820000D02*
X104140000Y-83820000D01*
X104140000Y-83820000D02*
X105410000Y-85090000D01*
X105410000Y-85090000D02*
X106680000Y-85090000D01*
%TO.N,/D1*%
X105410000Y-82550000D02*
X106680000Y-82550000D01*
X104140000Y-81280000D02*
X105410000Y-82550000D01*
X88265000Y-81280000D02*
X104140000Y-81280000D01*
X87630000Y-81915000D02*
X88265000Y-81280000D01*
X87630000Y-83820000D02*
X87630000Y-81915000D01*
%TO.N,/D2*%
X95250000Y-78740000D02*
X104140000Y-78740000D01*
X104140000Y-78740000D02*
X105410000Y-80010000D01*
X105410000Y-80010000D02*
X106680000Y-80010000D01*
%TO.N,/D3*%
X104140000Y-76200000D02*
X105410000Y-77470000D01*
X88265000Y-76200000D02*
X104140000Y-76200000D01*
X87630000Y-76835000D02*
X88265000Y-76200000D01*
X105410000Y-77470000D02*
X106680000Y-77470000D01*
X87630000Y-78740000D02*
X87630000Y-76835000D01*
%TO.N,/D4*%
X95250000Y-73660000D02*
X104140000Y-73660000D01*
X104140000Y-73660000D02*
X105410000Y-74930000D01*
X105410000Y-74930000D02*
X106680000Y-74930000D01*
%TO.N,/D5*%
X104140000Y-71120000D02*
X105410000Y-72390000D01*
X105410000Y-72390000D02*
X106680000Y-72390000D01*
X88265000Y-71120000D02*
X104140000Y-71120000D01*
X87630000Y-71755000D02*
X88265000Y-71120000D01*
X87630000Y-73660000D02*
X87630000Y-71755000D01*
%TO.N,/D6*%
X95250000Y-68580000D02*
X104140000Y-68580000D01*
X104140000Y-68580000D02*
X105410000Y-69850000D01*
X105410000Y-69850000D02*
X106680000Y-69850000D01*
%TO.N,/D7*%
X105410000Y-67310000D02*
X106680000Y-67310000D01*
X104140000Y-66040000D02*
X105410000Y-67310000D01*
X88265000Y-66040000D02*
X104140000Y-66040000D01*
X87630000Y-66675000D02*
X88265000Y-66040000D01*
X87630000Y-68580000D02*
X87630000Y-66675000D01*
%TO.N,/D8*%
X95250000Y-63500000D02*
X104140000Y-63500000D01*
X104140000Y-63500000D02*
X105410000Y-64770000D01*
X105410000Y-64770000D02*
X106680000Y-64770000D01*
%TO.N,/D9*%
X88265000Y-60960000D02*
X104140000Y-60960000D01*
X87630000Y-61595000D02*
X88265000Y-60960000D01*
X87630000Y-63500000D02*
X87630000Y-61595000D01*
X105410000Y-62230000D02*
X104140000Y-60960000D01*
X106680000Y-62230000D02*
X105410000Y-62230000D01*
%TO.N,/D10*%
X95250000Y-58420000D02*
X104140000Y-58420000D01*
X105410000Y-59690000D02*
X104140000Y-58420000D01*
X106680000Y-59690000D02*
X105410000Y-59690000D01*
%TO.N,/D11*%
X88265000Y-55880000D02*
X104140000Y-55880000D01*
X87630000Y-56515000D02*
X88265000Y-55880000D01*
X87630000Y-58420000D02*
X87630000Y-56515000D01*
X105410000Y-57150000D02*
X104140000Y-55880000D01*
X106680000Y-57150000D02*
X105410000Y-57150000D01*
%TO.N,/D12*%
X95250000Y-53340000D02*
X104140000Y-53340000D01*
X104140000Y-53340000D02*
X105410000Y-54610000D01*
X105410000Y-54610000D02*
X106680000Y-54610000D01*
%TO.N,/D13*%
X88265000Y-50800000D02*
X104140000Y-50800000D01*
X87630000Y-51435000D02*
X88265000Y-50800000D01*
X87630000Y-53340000D02*
X87630000Y-51435000D01*
X105410000Y-52070000D02*
X104140000Y-50800000D01*
X106680000Y-52070000D02*
X105410000Y-52070000D01*
%TO.N,/D14*%
X95250000Y-48260000D02*
X104140000Y-48260000D01*
X105410000Y-49530000D02*
X104140000Y-48260000D01*
X106680000Y-49530000D02*
X105410000Y-49530000D01*
%TO.N,/D15*%
X87630000Y-46355000D02*
X87630000Y-48260000D01*
X88265000Y-45720000D02*
X87630000Y-46355000D01*
X104140000Y-45720000D02*
X88265000Y-45720000D01*
X105410000Y-46990000D02*
X104140000Y-45720000D01*
X106680000Y-46990000D02*
X105410000Y-46990000D01*
D24*
%TO.N,GND*%
X30480000Y-87630000D02*
X35560000Y-87630000D01*
X106680000Y-87630000D02*
X101600000Y-87630000D01*
D23*
X45085000Y-23495000D02*
X45085000Y-37465000D01*
X45085000Y-37465000D02*
X49100000Y-37465000D01*
D24*
X54610000Y-41910000D02*
X57150000Y-44450000D01*
X48895000Y-41910000D02*
X54610000Y-41910000D01*
X45085000Y-38100000D02*
X48895000Y-41910000D01*
X45085000Y-37465000D02*
X45085000Y-38100000D01*
X76200000Y-42545000D02*
X74930000Y-43815000D01*
X74930000Y-43815000D02*
X74930000Y-65405000D01*
X57150000Y-65405000D02*
X74930000Y-65405000D01*
X57150000Y-44450000D02*
X57150000Y-65405000D01*
X57150000Y-65405000D02*
X57150000Y-83820000D01*
D23*
X75835000Y-26400000D02*
X76200000Y-26035000D01*
X72070000Y-26400000D02*
X75835000Y-26400000D01*
D24*
X76200000Y-19050000D02*
X76200000Y-26035000D01*
X74930000Y-65405000D02*
X74930000Y-87630000D01*
X74930000Y-87630000D02*
X101600000Y-87630000D01*
D23*
X45720000Y-93345000D02*
X45720000Y-107315000D01*
X45720000Y-107315000D02*
X49735000Y-107315000D01*
D24*
X74930000Y-99695000D02*
X74930000Y-87630000D01*
X64770000Y-109855000D02*
X74930000Y-99695000D01*
X15240000Y-97155000D02*
X27940000Y-109855000D01*
X15240000Y-87630000D02*
X15240000Y-97155000D01*
D23*
X109855000Y-36100000D02*
X109855000Y-32385000D01*
X109855000Y-32385000D02*
X108585000Y-31115000D01*
X108585000Y-31115000D02*
X76200000Y-31115000D01*
D24*
X76200000Y-31115000D02*
X76200000Y-42545000D01*
X76200000Y-26035000D02*
X76200000Y-31115000D01*
X35560000Y-87630000D02*
X55880000Y-87630000D01*
X57150000Y-86360000D02*
X57150000Y-83820000D01*
X55880000Y-87630000D02*
X57150000Y-86360000D01*
D23*
X45720000Y-107315000D02*
X45720000Y-109855000D01*
D24*
X45720000Y-109855000D02*
X64770000Y-109855000D01*
X27940000Y-109855000D02*
X45720000Y-109855000D01*
D23*
%TO.N,VCC*%
X43085000Y-23420000D02*
X43010000Y-23495000D01*
D24*
X43085000Y-20955000D02*
X43085000Y-23420000D01*
X54610000Y-48260000D02*
X54610000Y-83820000D01*
X43010000Y-25570000D02*
X43010000Y-23495000D01*
X43815000Y-27940000D02*
X43010000Y-27135000D01*
X43815000Y-39370000D02*
X43815000Y-27940000D01*
X48260000Y-43815000D02*
X43815000Y-39370000D01*
X53340000Y-43815000D02*
X48260000Y-43815000D01*
X54610000Y-45085000D02*
X53340000Y-43815000D01*
X54610000Y-48260000D02*
X54610000Y-45085000D01*
D23*
X42840000Y-26035000D02*
X43010000Y-26205000D01*
X39800000Y-26035000D02*
X42840000Y-26035000D01*
D24*
X43010000Y-26205000D02*
X43010000Y-25570000D01*
X43010000Y-27135000D02*
X43010000Y-26205000D01*
X58960000Y-17780000D02*
X67580000Y-26400000D01*
X43815000Y-17780000D02*
X58960000Y-17780000D01*
X43085000Y-18510000D02*
X43815000Y-17780000D01*
X67580000Y-26400000D02*
X70170000Y-26400000D01*
X43085000Y-20955000D02*
X43085000Y-18510000D01*
D23*
X54610000Y-85725000D02*
X54610000Y-83820000D01*
X53975000Y-86360000D02*
X54610000Y-85725000D01*
X27940000Y-86360000D02*
X53975000Y-86360000D01*
X27305000Y-86995000D02*
X27940000Y-86360000D01*
X27305000Y-88900000D02*
X27305000Y-86995000D01*
X30480000Y-92075000D02*
X27305000Y-88900000D01*
X39370000Y-92075000D02*
X30480000Y-92075000D01*
X40435000Y-93140000D02*
X39370000Y-92075000D01*
X40640000Y-93345000D02*
X40435000Y-93550000D01*
X43682500Y-93345000D02*
X40640000Y-93345000D01*
X40435000Y-93550000D02*
X40435000Y-93140000D01*
X40435000Y-95885000D02*
X40435000Y-93550000D01*
X43720000Y-93307500D02*
X43682500Y-93345000D01*
X43720000Y-90805000D02*
X43720000Y-93307500D01*
%TO.N,/O1*%
X68580000Y-81915000D02*
X71755000Y-81915000D01*
X72390000Y-82550000D02*
X72390000Y-83820000D01*
X67945000Y-99060000D02*
X67945000Y-82550000D01*
X62230000Y-104775000D02*
X67945000Y-99060000D01*
X71755000Y-81915000D02*
X72390000Y-82550000D01*
X67945000Y-82550000D02*
X68580000Y-81915000D01*
X49735000Y-104775000D02*
X62230000Y-104775000D01*
%TO.N,/O0*%
X69850000Y-87630000D02*
X69850000Y-83820000D01*
X69215000Y-88265000D02*
X69850000Y-87630000D01*
X69215000Y-99695000D02*
X69215000Y-88265000D01*
X62865000Y-106045000D02*
X69215000Y-99695000D01*
X49735000Y-106045000D02*
X62865000Y-106045000D01*
%TO.N,/S0*%
X77470000Y-83820000D02*
X77470000Y-48260000D01*
X77470000Y-48260000D02*
X77470000Y-46990000D01*
X77470000Y-46990000D02*
X83820000Y-40640000D01*
X87630000Y-40640000D02*
X96520000Y-40640000D01*
X101600000Y-35560000D02*
X106680000Y-35560000D01*
X96520000Y-40640000D02*
X101600000Y-35560000D01*
X83820000Y-40640000D02*
X87630000Y-40640000D01*
%TO.N,/~E*%
X80010000Y-83820000D02*
X80010000Y-48260000D01*
X106680000Y-38100000D02*
X109855000Y-38100000D01*
X85090000Y-41910000D02*
X80010000Y-46990000D01*
X80010000Y-46990000D02*
X80010000Y-48260000D01*
X97790000Y-41910000D02*
X85090000Y-41910000D01*
X101600000Y-38100000D02*
X97790000Y-41910000D01*
X106680000Y-38100000D02*
X101600000Y-38100000D01*
%TO.N,/S1*%
X82550000Y-48260000D02*
X82550000Y-83820000D01*
X82550000Y-46990000D02*
X82550000Y-48260000D01*
X86360000Y-43180000D02*
X82550000Y-46990000D01*
X99060000Y-43180000D02*
X86360000Y-43180000D01*
X101600000Y-40640000D02*
X99060000Y-43180000D01*
X106680000Y-40640000D02*
X101600000Y-40640000D01*
%TO.N,/O2*%
X67945000Y-78740000D02*
X69850000Y-78740000D01*
X66675000Y-80010000D02*
X67945000Y-78740000D01*
X66675000Y-98425000D02*
X66675000Y-80010000D01*
X61595000Y-103505000D02*
X66675000Y-98425000D01*
X49735000Y-103505000D02*
X61595000Y-103505000D01*
%TO.N,/O3*%
X65405000Y-78740000D02*
X67310000Y-76835000D01*
X71755000Y-76835000D02*
X72390000Y-77470000D01*
X72390000Y-78740000D02*
X72390000Y-77470000D01*
X67310000Y-76835000D02*
X71755000Y-76835000D01*
X60960000Y-102235000D02*
X65405000Y-97790000D01*
X65405000Y-78740000D02*
X65405000Y-97790000D01*
X60960000Y-102235000D02*
X49735000Y-102235000D01*
%TO.N,/O5*%
X62865000Y-74930000D02*
X66040000Y-71755000D01*
X71755000Y-71755000D02*
X72390000Y-72390000D01*
X72390000Y-72390000D02*
X72390000Y-73660000D01*
X66040000Y-71755000D02*
X71755000Y-71755000D01*
X59690000Y-99695000D02*
X62865000Y-96520000D01*
X62865000Y-96520000D02*
X62865000Y-74930000D01*
X49735000Y-99695000D02*
X59690000Y-99695000D01*
%TO.N,/O4*%
X64135000Y-76835000D02*
X67310000Y-73660000D01*
X69850000Y-73660000D02*
X67310000Y-73660000D01*
X60325000Y-100965000D02*
X64135000Y-97155000D01*
X64135000Y-76835000D02*
X64135000Y-97155000D01*
X60325000Y-100965000D02*
X49735000Y-100965000D01*
%TO.N,/O6*%
X63500000Y-68580000D02*
X69850000Y-68580000D01*
X61595000Y-70485000D02*
X63500000Y-68580000D01*
X61595000Y-95885000D02*
X61595000Y-70485000D01*
X59055000Y-98425000D02*
X61595000Y-95885000D01*
X49735000Y-98425000D02*
X59055000Y-98425000D01*
%TO.N,/O7*%
X68262500Y-66992500D02*
X72072500Y-66992500D01*
X67945000Y-67310000D02*
X68262500Y-66992500D01*
X72390000Y-67310000D02*
X72390000Y-68580000D01*
X62230000Y-67310000D02*
X67945000Y-67310000D01*
X60325000Y-69215000D02*
X62230000Y-67310000D01*
X60325000Y-95250000D02*
X60325000Y-69215000D01*
X58420000Y-97155000D02*
X60325000Y-95250000D01*
X72072500Y-66992500D02*
X72390000Y-67310000D01*
X49735000Y-97155000D02*
X58420000Y-97155000D01*
%TO.N,/O9*%
X71755000Y-60960000D02*
X72390000Y-61595000D01*
X68580000Y-60960000D02*
X71755000Y-60960000D01*
X62865000Y-55245000D02*
X68580000Y-60960000D01*
X72390000Y-61595000D02*
X72390000Y-63500000D01*
X49100000Y-34925000D02*
X55880000Y-34925000D01*
X55880000Y-34925000D02*
X62865000Y-41910000D01*
X62865000Y-41910000D02*
X62865000Y-55245000D01*
%TO.N,/O8*%
X68580000Y-63500000D02*
X61595000Y-56515000D01*
X69850000Y-63500000D02*
X68580000Y-63500000D01*
X54610000Y-36195000D02*
X61595000Y-43180000D01*
X49100000Y-36195000D02*
X54610000Y-36195000D01*
X61595000Y-56515000D02*
X61595000Y-43180000D01*
%TO.N,/O10*%
X68580000Y-58420000D02*
X69850000Y-58420000D01*
X64135000Y-53975000D02*
X68580000Y-58420000D01*
X64135000Y-40640000D02*
X64135000Y-53975000D01*
X57150000Y-33655000D02*
X64135000Y-40640000D01*
X49100000Y-33655000D02*
X57150000Y-33655000D01*
%TO.N,/O11*%
X72390000Y-56515000D02*
X72390000Y-58420000D01*
X71755000Y-55880000D02*
X72390000Y-56515000D01*
X68580000Y-55880000D02*
X71755000Y-55880000D01*
X65405000Y-52705000D02*
X68580000Y-55880000D01*
X65405000Y-39370000D02*
X65405000Y-52705000D01*
X58420000Y-32385000D02*
X65405000Y-39370000D01*
X49100000Y-32385000D02*
X58420000Y-32385000D01*
%TO.N,/O13*%
X72390000Y-51435000D02*
X72390000Y-53340000D01*
X71755000Y-50800000D02*
X72390000Y-51435000D01*
X67945000Y-50165000D02*
X68580000Y-50800000D01*
X67945000Y-36830000D02*
X67945000Y-50165000D01*
X68580000Y-50800000D02*
X71755000Y-50800000D01*
X60960000Y-29845000D02*
X67945000Y-36830000D01*
X49100000Y-29845000D02*
X60960000Y-29845000D01*
%TO.N,/O12*%
X68580000Y-53340000D02*
X69850000Y-53340000D01*
X66675000Y-38100000D02*
X66675000Y-51435000D01*
X66675000Y-51435000D02*
X68580000Y-53340000D01*
X59690000Y-31115000D02*
X66675000Y-38100000D01*
X49100000Y-31115000D02*
X59690000Y-31115000D01*
%TO.N,/O14*%
X49100000Y-28575000D02*
X62230000Y-28575000D01*
X69850000Y-36195000D02*
X69850000Y-48260000D01*
X62230000Y-28575000D02*
X69850000Y-36195000D01*
%TO.N,/O15*%
X49100000Y-27305000D02*
X63500000Y-27305000D01*
X63500000Y-27305000D02*
X72390000Y-36195000D01*
X72390000Y-36195000D02*
X72390000Y-48260000D01*
%TO.N,/BUS0*%
X27940000Y-107315000D02*
X29845000Y-107315000D01*
X17145000Y-96520000D02*
X27940000Y-107315000D01*
X29845000Y-107315000D02*
X40435000Y-107315000D01*
X16510000Y-85090000D02*
X17145000Y-85725000D01*
X17145000Y-85725000D02*
X17145000Y-96520000D01*
X15240000Y-85090000D02*
X16510000Y-85090000D01*
%TO.N,/BUS1*%
X30480000Y-106045000D02*
X40435000Y-106045000D01*
X28575000Y-106045000D02*
X30480000Y-106045000D01*
X18097500Y-95567500D02*
X28575000Y-106045000D01*
X18097500Y-84137500D02*
X18097500Y-95567500D01*
X16510000Y-82550000D02*
X18097500Y-84137500D01*
X15240000Y-82550000D02*
X16510000Y-82550000D01*
%TO.N,/BUS2*%
X31115000Y-104775000D02*
X40435000Y-104775000D01*
X29210000Y-104775000D02*
X31115000Y-104775000D01*
X19050000Y-94615000D02*
X29210000Y-104775000D01*
X19050000Y-82550000D02*
X19050000Y-94615000D01*
X16510000Y-80010000D02*
X19050000Y-82550000D01*
X15240000Y-80010000D02*
X16510000Y-80010000D01*
%TO.N,/BUS3*%
X31750000Y-103505000D02*
X40435000Y-103505000D01*
X29845000Y-103505000D02*
X31750000Y-103505000D01*
X20002500Y-93662500D02*
X29845000Y-103505000D01*
X20002500Y-80962500D02*
X20002500Y-93662500D01*
X16510000Y-77470000D02*
X20002500Y-80962500D01*
X15240000Y-77470000D02*
X16510000Y-77470000D01*
%TO.N,/BUS4*%
X30480000Y-102235000D02*
X32385000Y-102235000D01*
X20955000Y-92710000D02*
X30480000Y-102235000D01*
X32385000Y-102235000D02*
X40435000Y-102235000D01*
X20955000Y-79375000D02*
X20955000Y-92710000D01*
X16510000Y-74930000D02*
X20955000Y-79375000D01*
X15240000Y-74930000D02*
X16510000Y-74930000D01*
%TO.N,/BUS5*%
X33020000Y-100965000D02*
X40435000Y-100965000D01*
X21907500Y-91757500D02*
X31115000Y-100965000D01*
X21907500Y-77787500D02*
X21907500Y-91757500D01*
X16510000Y-72390000D02*
X21907500Y-77787500D01*
X31115000Y-100965000D02*
X33020000Y-100965000D01*
X15240000Y-72390000D02*
X16510000Y-72390000D01*
%TO.N,/BUS6*%
X22860000Y-76200000D02*
X16510000Y-69850000D01*
X16510000Y-69850000D02*
X15240000Y-69850000D01*
X22860000Y-90805000D02*
X22860000Y-76200000D01*
X31750000Y-99695000D02*
X22860000Y-90805000D01*
X40435000Y-99695000D02*
X31750000Y-99695000D01*
%TO.N,/BUS7*%
X34290000Y-98425000D02*
X40435000Y-98425000D01*
X32385000Y-98425000D02*
X34290000Y-98425000D01*
X23812500Y-89852500D02*
X32385000Y-98425000D01*
X23812500Y-74612500D02*
X23812500Y-89852500D01*
X16510000Y-67310000D02*
X23812500Y-74612500D01*
X15240000Y-67310000D02*
X16510000Y-67310000D01*
%TO.N,/BUS8*%
X22860000Y-42545000D02*
X27940000Y-37465000D01*
X27940000Y-37465000D02*
X39800000Y-37465000D01*
X22860000Y-58420000D02*
X22860000Y-42545000D01*
X16510000Y-64770000D02*
X22860000Y-58420000D01*
X15240000Y-64770000D02*
X16510000Y-64770000D01*
%TO.N,/BUS9*%
X27305000Y-36195000D02*
X39800000Y-36195000D01*
X21907500Y-41592500D02*
X27305000Y-36195000D01*
X21907500Y-56832500D02*
X21907500Y-41592500D01*
X16510000Y-62230000D02*
X21907500Y-56832500D01*
X15240000Y-62230000D02*
X16510000Y-62230000D01*
%TO.N,/BUS10*%
X26670000Y-34925000D02*
X39800000Y-34925000D01*
X20955000Y-40640000D02*
X26670000Y-34925000D01*
X20955000Y-55245000D02*
X20955000Y-40640000D01*
X16510000Y-59690000D02*
X20955000Y-55245000D01*
X15240000Y-59690000D02*
X16510000Y-59690000D01*
%TO.N,/BUS11*%
X26035000Y-33655000D02*
X39800000Y-33655000D01*
X20002500Y-53657500D02*
X20002500Y-39687500D01*
X20002500Y-39687500D02*
X26035000Y-33655000D01*
X16510000Y-57150000D02*
X20002500Y-53657500D01*
X15240000Y-57150000D02*
X16510000Y-57150000D01*
%TO.N,/BUS12*%
X19050000Y-52070000D02*
X19050000Y-52070000D01*
X25400000Y-32385000D02*
X39800000Y-32385000D01*
X19050000Y-38735000D02*
X25400000Y-32385000D01*
X19050000Y-52070000D02*
X19050000Y-38735000D01*
X16510000Y-54610000D02*
X19050000Y-52070000D01*
X15240000Y-54610000D02*
X16510000Y-54610000D01*
%TO.N,/BUS13*%
X18097500Y-50482500D02*
X18097500Y-50482500D01*
X24765000Y-31115000D02*
X25082500Y-31115000D01*
X18097500Y-37782500D02*
X24765000Y-31115000D01*
X25082500Y-31115000D02*
X39800000Y-31115000D01*
X18097500Y-50482500D02*
X18097500Y-37782500D01*
X16510000Y-52070000D02*
X18097500Y-50482500D01*
X15240000Y-52070000D02*
X16510000Y-52070000D01*
%TO.N,/BUS14*%
X17145000Y-36830000D02*
X24130000Y-29845000D01*
X17145000Y-48895000D02*
X17145000Y-36830000D01*
X24130000Y-29845000D02*
X39800000Y-29845000D01*
X16510000Y-49530000D02*
X17145000Y-48895000D01*
X15240000Y-49530000D02*
X16510000Y-49530000D01*
%TO.N,/BUS15*%
X23495000Y-28575000D02*
X39800000Y-28575000D01*
X15240000Y-36830000D02*
X23495000Y-28575000D01*
X15240000Y-46990000D02*
X15240000Y-36830000D01*
%TO.N,/~OE*%
X15240000Y-27305000D02*
X33337500Y-27305000D01*
X33337500Y-27305000D02*
X39800000Y-27305000D01*
X33020000Y-27305000D02*
X33337500Y-27305000D01*
X24765000Y-88900000D02*
X33020000Y-97155000D01*
X28575000Y-38735000D02*
X24765000Y-42545000D01*
X42227500Y-38100000D02*
X41592500Y-38735000D01*
X33020000Y-97155000D02*
X40435000Y-97155000D01*
X24765000Y-42545000D02*
X24765000Y-88900000D01*
X42227500Y-28257500D02*
X42227500Y-38100000D01*
X41592500Y-38735000D02*
X28575000Y-38735000D01*
X41275000Y-27305000D02*
X42227500Y-28257500D01*
X39800000Y-27305000D02*
X41275000Y-27305000D01*
%TO.N,Net-(R1-Pad1)*%
X45720000Y-90805000D02*
X48895000Y-90805000D01*
X49735000Y-91645000D02*
X49735000Y-95885000D01*
X48895000Y-90805000D02*
X49735000Y-91645000D01*
%TO.N,Net-(R2-Pad1)*%
X45085000Y-20955000D02*
X48260000Y-20955000D01*
X49100000Y-21795000D02*
X49100000Y-26035000D01*
X48260000Y-20955000D02*
X49100000Y-21795000D01*
%TO.N,Net-(J8-Pad2)*%
X71120000Y-19130000D02*
X71200000Y-19050000D01*
D24*
X71120000Y-24400000D02*
X71120000Y-19130000D01*
%TD*%
M02*
