M48
METRIC
T1C0.762
T2C1.000
T3C1.300
T4C3.200
%
G90
G05
T1
X41.91Y-78.74
X44.45Y-78.74
X46.99Y-78.74
X49.53Y-78.74
X54.61Y-78.74
X57.15Y-78.74
X69.85Y-78.74
X72.39Y-78.74
X77.47Y-78.74
X80.01Y-78.74
X82.55Y-78.74
X87.63Y-78.74
X90.17Y-78.74
X92.71Y-78.74
X95.25Y-78.74
X41.91Y-63.5
X44.45Y-63.5
X46.99Y-63.5
X49.53Y-63.5
X54.61Y-63.5
X57.15Y-63.5
X69.85Y-63.5
X72.39Y-63.5
X77.47Y-63.5
X80.01Y-63.5
X82.55Y-63.5
X87.63Y-63.5
X90.17Y-63.5
X92.71Y-63.5
X95.25Y-63.5
X41.91Y-48.26
X44.45Y-48.26
X46.99Y-48.26
X49.53Y-48.26
X54.61Y-48.26
X57.15Y-48.26
X69.85Y-48.26
X72.39Y-48.26
X77.47Y-48.26
X80.01Y-48.26
X82.55Y-48.26
X87.63Y-48.26
X90.17Y-48.26
X92.71Y-48.26
X95.25Y-48.26
X41.91Y-58.42
X44.45Y-58.42
X46.99Y-58.42
X49.53Y-58.42
X54.61Y-58.42
X57.15Y-58.42
X69.85Y-58.42
X72.39Y-58.42
X77.47Y-58.42
X80.01Y-58.42
X82.55Y-58.42
X87.63Y-58.42
X90.17Y-58.42
X92.71Y-58.42
X95.25Y-58.42
X41.91Y-83.82
X44.45Y-83.82
X46.99Y-83.82
X49.53Y-83.82
X54.61Y-83.82
X57.15Y-83.82
X69.85Y-83.82
X72.39Y-83.82
X77.47Y-83.82
X80.01Y-83.82
X82.55Y-83.82
X87.63Y-83.82
X90.17Y-83.82
X92.71Y-83.82
X95.25Y-83.82
X41.91Y-53.34
X44.45Y-53.34
X46.99Y-53.34
X49.53Y-53.34
X54.61Y-53.34
X57.15Y-53.34
X69.85Y-53.34
X72.39Y-53.34
X77.47Y-53.34
X80.01Y-53.34
X82.55Y-53.34
X87.63Y-53.34
X90.17Y-53.34
X92.71Y-53.34
X95.25Y-53.34
X41.91Y-73.66
X44.45Y-73.66
X46.99Y-73.66
X49.53Y-73.66
X54.61Y-73.66
X57.15Y-73.66
X69.85Y-73.66
X72.39Y-73.66
X77.47Y-73.66
X80.01Y-73.66
X82.55Y-73.66
X87.63Y-73.66
X90.17Y-73.66
X92.71Y-73.66
X95.25Y-73.66
X41.91Y-68.58
X44.45Y-68.58
X46.99Y-68.58
X49.53Y-68.58
X54.61Y-68.58
X57.15Y-68.58
X69.85Y-68.58
X72.39Y-68.58
X77.47Y-68.58
X80.01Y-68.58
X82.55Y-68.58
X87.63Y-68.58
X90.17Y-68.58
X92.71Y-68.58
X95.25Y-68.58
T2
X30.48Y-46.99
X30.48Y-49.53
X30.48Y-52.07
X30.48Y-54.61
X30.48Y-57.15
X30.48Y-59.69
X30.48Y-62.23
X30.48Y-64.77
X30.48Y-67.31
X30.48Y-69.85
X30.48Y-72.39
X30.48Y-74.93
X30.48Y-77.47
X30.48Y-80.01
X30.48Y-82.55
X30.48Y-85.09
X30.48Y-87.63
X101.6Y-46.99
X101.6Y-49.53
X101.6Y-52.07
X101.6Y-54.61
X101.6Y-57.15
X101.6Y-59.69
X101.6Y-62.23
X101.6Y-64.77
X101.6Y-67.31
X101.6Y-69.85
X101.6Y-72.39
X101.6Y-74.93
X101.6Y-77.47
X101.6Y-80.01
X101.6Y-82.55
X101.6Y-85.09
X101.6Y-87.63
X35.56Y-46.99
X35.56Y-49.53
X35.56Y-52.07
X35.56Y-54.61
X35.56Y-57.15
X35.56Y-59.69
X35.56Y-62.23
X35.56Y-64.77
X35.56Y-67.31
X35.56Y-69.85
X35.56Y-72.39
X35.56Y-74.93
X35.56Y-77.47
X35.56Y-80.01
X35.56Y-82.55
X35.56Y-85.09
X35.56Y-87.63
X106.68Y-46.99
X106.68Y-49.53
X106.68Y-52.07
X106.68Y-54.61
X106.68Y-57.15
X106.68Y-59.69
X106.68Y-62.23
X106.68Y-64.77
X106.68Y-67.31
X106.68Y-69.85
X106.68Y-72.39
X106.68Y-74.93
X106.68Y-77.47
X106.68Y-80.01
X106.68Y-82.55
X106.68Y-85.09
X106.68Y-87.63
X106.68Y-35.56
X106.68Y-38.1
X106.68Y-40.64
X15.24Y-27.305
X15.24Y-46.99
X15.24Y-49.53
X15.24Y-52.07
X15.24Y-54.61
X15.24Y-57.15
X15.24Y-59.69
X15.24Y-62.23
X15.24Y-64.77
X15.24Y-67.31
X15.24Y-69.85
X15.24Y-72.39
X15.24Y-74.93
X15.24Y-77.47
X15.24Y-80.01
X15.24Y-82.55
X15.24Y-85.09
X15.24Y-87.63
T3
X71.2Y-19.05
X76.2Y-19.05
T4
X17.78Y-17.78
X106.68Y-17.78
X87.63Y-17.78
X87.63Y-106.68
X17.78Y-106.68
X106.68Y-106.68
T0
M30
