%TF.GenerationSoftware,KiCad,Pcbnew,(5.1.8)-1*%
%TF.CreationDate,2024-06-14T00:40:21+03:00*%
%TF.ProjectId,MUX16bit,4d555831-3662-4697-942e-6b696361645f,rev?*%
%TF.SameCoordinates,Original*%
%TF.FileFunction,Copper,L1,Top*%
%TF.FilePolarity,Positive*%
%FSLAX46Y46*%
G04 Gerber Fmt 4.6, Leading zero omitted, Abs format (unit mm)*
G04 Created by KiCad (PCBNEW (5.1.8)-1) date 2024-06-14 00:40:21*
%MOMM*%
%LPD*%
G01*
G04 APERTURE LIST*
%TA.AperFunction,ComponentPad*%
%ADD10O,1.600000X1.524000*%
%TD*%
%TA.AperFunction,ComponentPad*%
%ADD11O,1.700000X1.500000*%
%TD*%
%TA.AperFunction,ComponentPad*%
%ADD12O,1.800000X2.000000*%
%TD*%
%TA.AperFunction,ComponentPad*%
%ADD13R,1.800000X2.000000*%
%TD*%
%TA.AperFunction,ComponentPad*%
%ADD14O,2.000000X1.500000*%
%TD*%
%TA.AperFunction,ComponentPad*%
%ADD15R,2.000000X1.500000*%
%TD*%
%TA.AperFunction,ComponentPad*%
%ADD16C,2.600000*%
%TD*%
%TA.AperFunction,ComponentPad*%
%ADD17R,2.600000X2.600000*%
%TD*%
%TA.AperFunction,ComponentPad*%
%ADD18O,2.000000X2.000000*%
%TD*%
%TA.AperFunction,ComponentPad*%
%ADD19R,2.000000X2.000000*%
%TD*%
%TA.AperFunction,ComponentPad*%
%ADD20R,1.700000X1.700000*%
%TD*%
G04 APERTURE END LIST*
D10*
%TO.P,U8,15*%
%TO.N,/D14*%
X95250000Y-48260000D03*
%TO.P,U8,14*%
%TO.N,/C14*%
X92710000Y-48260000D03*
%TO.P,U8,13*%
%TO.N,/C15*%
X90170000Y-48260000D03*
%TO.P,U8,12*%
%TO.N,/D15*%
X87630000Y-48260000D03*
%TO.P,U8,11*%
%TO.N,/S1*%
X82550000Y-48260000D03*
%TO.P,U8,10*%
%TO.N,/~E*%
X80010000Y-48260000D03*
%TO.P,U8,9*%
%TO.N,/S0*%
X77470000Y-48260000D03*
%TO.P,U8,8*%
%TO.N,/O15*%
X72390000Y-48260000D03*
%TO.P,U8,7*%
%TO.N,/O14*%
X69850000Y-48260000D03*
%TO.P,U8,6*%
%TO.N,GND*%
X57150000Y-48260000D03*
%TO.P,U8,5*%
%TO.N,VCC*%
X54610000Y-48260000D03*
%TO.P,U8,4*%
%TO.N,/A15*%
X49530000Y-48260000D03*
%TO.P,U8,3*%
%TO.N,/B15*%
X46990000Y-48260000D03*
%TO.P,U8,2*%
%TO.N,/B14*%
X44450000Y-48260000D03*
%TO.P,U8,1*%
%TO.N,/A14*%
X41910000Y-48260000D03*
%TD*%
%TO.P,U7,15*%
%TO.N,/D12*%
X95250000Y-53340000D03*
%TO.P,U7,14*%
%TO.N,/C12*%
X92710000Y-53340000D03*
%TO.P,U7,13*%
%TO.N,/C13*%
X90170000Y-53340000D03*
%TO.P,U7,12*%
%TO.N,/D13*%
X87630000Y-53340000D03*
%TO.P,U7,11*%
%TO.N,/S1*%
X82550000Y-53340000D03*
%TO.P,U7,10*%
%TO.N,/~E*%
X80010000Y-53340000D03*
%TO.P,U7,9*%
%TO.N,/S0*%
X77470000Y-53340000D03*
%TO.P,U7,8*%
%TO.N,/O13*%
X72390000Y-53340000D03*
%TO.P,U7,7*%
%TO.N,/O12*%
X69850000Y-53340000D03*
%TO.P,U7,6*%
%TO.N,GND*%
X57150000Y-53340000D03*
%TO.P,U7,5*%
%TO.N,VCC*%
X54610000Y-53340000D03*
%TO.P,U7,4*%
%TO.N,/A13*%
X49530000Y-53340000D03*
%TO.P,U7,3*%
%TO.N,/B13*%
X46990000Y-53340000D03*
%TO.P,U7,2*%
%TO.N,/B12*%
X44450000Y-53340000D03*
%TO.P,U7,1*%
%TO.N,/A12*%
X41910000Y-53340000D03*
%TD*%
%TO.P,U6,15*%
%TO.N,/D10*%
X95250000Y-58420000D03*
%TO.P,U6,14*%
%TO.N,/C10*%
X92710000Y-58420000D03*
%TO.P,U6,13*%
%TO.N,/C11*%
X90170000Y-58420000D03*
%TO.P,U6,12*%
%TO.N,/D11*%
X87630000Y-58420000D03*
%TO.P,U6,11*%
%TO.N,/S1*%
X82550000Y-58420000D03*
%TO.P,U6,10*%
%TO.N,/~E*%
X80010000Y-58420000D03*
%TO.P,U6,9*%
%TO.N,/S0*%
X77470000Y-58420000D03*
%TO.P,U6,8*%
%TO.N,/O11*%
X72390000Y-58420000D03*
%TO.P,U6,7*%
%TO.N,/O10*%
X69850000Y-58420000D03*
%TO.P,U6,6*%
%TO.N,GND*%
X57150000Y-58420000D03*
%TO.P,U6,5*%
%TO.N,VCC*%
X54610000Y-58420000D03*
%TO.P,U6,4*%
%TO.N,/A11*%
X49530000Y-58420000D03*
%TO.P,U6,3*%
%TO.N,/B11*%
X46990000Y-58420000D03*
%TO.P,U6,2*%
%TO.N,/B10*%
X44450000Y-58420000D03*
%TO.P,U6,1*%
%TO.N,/A10*%
X41910000Y-58420000D03*
%TD*%
%TO.P,U5,15*%
%TO.N,/D8*%
X95250000Y-63500000D03*
%TO.P,U5,14*%
%TO.N,/C8*%
X92710000Y-63500000D03*
%TO.P,U5,13*%
%TO.N,/C9*%
X90170000Y-63500000D03*
%TO.P,U5,12*%
%TO.N,/D9*%
X87630000Y-63500000D03*
%TO.P,U5,11*%
%TO.N,/S1*%
X82550000Y-63500000D03*
%TO.P,U5,10*%
%TO.N,/~E*%
X80010000Y-63500000D03*
%TO.P,U5,9*%
%TO.N,/S0*%
X77470000Y-63500000D03*
%TO.P,U5,8*%
%TO.N,/O9*%
X72390000Y-63500000D03*
%TO.P,U5,7*%
%TO.N,/O8*%
X69850000Y-63500000D03*
%TO.P,U5,6*%
%TO.N,GND*%
X57150000Y-63500000D03*
%TO.P,U5,5*%
%TO.N,VCC*%
X54610000Y-63500000D03*
%TO.P,U5,4*%
%TO.N,/A9*%
X49530000Y-63500000D03*
%TO.P,U5,3*%
%TO.N,/B9*%
X46990000Y-63500000D03*
%TO.P,U5,2*%
%TO.N,/B8*%
X44450000Y-63500000D03*
%TO.P,U5,1*%
%TO.N,/A8*%
X41910000Y-63500000D03*
%TD*%
%TO.P,U4,15*%
%TO.N,/D6*%
X95250000Y-68580000D03*
%TO.P,U4,14*%
%TO.N,/C6*%
X92710000Y-68580000D03*
%TO.P,U4,13*%
%TO.N,/C7*%
X90170000Y-68580000D03*
%TO.P,U4,12*%
%TO.N,/D7*%
X87630000Y-68580000D03*
%TO.P,U4,11*%
%TO.N,/S1*%
X82550000Y-68580000D03*
%TO.P,U4,10*%
%TO.N,/~E*%
X80010000Y-68580000D03*
%TO.P,U4,9*%
%TO.N,/S0*%
X77470000Y-68580000D03*
%TO.P,U4,8*%
%TO.N,/O7*%
X72390000Y-68580000D03*
D11*
%TO.P,U4,7*%
%TO.N,/O6*%
X69850000Y-68580000D03*
D10*
%TO.P,U4,6*%
%TO.N,GND*%
X57150000Y-68580000D03*
%TO.P,U4,5*%
%TO.N,VCC*%
X54610000Y-68580000D03*
%TO.P,U4,4*%
%TO.N,/A7*%
X49530000Y-68580000D03*
%TO.P,U4,3*%
%TO.N,/B7*%
X46990000Y-68580000D03*
%TO.P,U4,2*%
%TO.N,/B6*%
X44450000Y-68580000D03*
%TO.P,U4,1*%
%TO.N,/A6*%
X41910000Y-68580000D03*
%TD*%
%TO.P,U3,15*%
%TO.N,/D4*%
X95250000Y-73660000D03*
%TO.P,U3,14*%
%TO.N,/C4*%
X92710000Y-73660000D03*
%TO.P,U3,13*%
%TO.N,/C5*%
X90170000Y-73660000D03*
%TO.P,U3,12*%
%TO.N,/D5*%
X87630000Y-73660000D03*
%TO.P,U3,11*%
%TO.N,/S1*%
X82550000Y-73660000D03*
%TO.P,U3,10*%
%TO.N,/~E*%
X80010000Y-73660000D03*
%TO.P,U3,9*%
%TO.N,/S0*%
X77470000Y-73660000D03*
%TO.P,U3,8*%
%TO.N,/O5*%
X72390000Y-73660000D03*
%TO.P,U3,7*%
%TO.N,/O4*%
X69850000Y-73660000D03*
%TO.P,U3,6*%
%TO.N,GND*%
X57150000Y-73660000D03*
%TO.P,U3,5*%
%TO.N,VCC*%
X54610000Y-73660000D03*
%TO.P,U3,4*%
%TO.N,/A5*%
X49530000Y-73660000D03*
%TO.P,U3,3*%
%TO.N,/B5*%
X46990000Y-73660000D03*
%TO.P,U3,2*%
%TO.N,/B4*%
X44450000Y-73660000D03*
%TO.P,U3,1*%
%TO.N,/A4*%
X41910000Y-73660000D03*
%TD*%
%TO.P,U2,15*%
%TO.N,/D2*%
X95250000Y-78740000D03*
%TO.P,U2,14*%
%TO.N,/C2*%
X92710000Y-78740000D03*
%TO.P,U2,13*%
%TO.N,/C3*%
X90170000Y-78740000D03*
%TO.P,U2,12*%
%TO.N,/D3*%
X87630000Y-78740000D03*
%TO.P,U2,11*%
%TO.N,/S1*%
X82550000Y-78740000D03*
%TO.P,U2,10*%
%TO.N,/~E*%
X80010000Y-78740000D03*
%TO.P,U2,9*%
%TO.N,/S0*%
X77470000Y-78740000D03*
%TO.P,U2,8*%
%TO.N,/O3*%
X72390000Y-78740000D03*
%TO.P,U2,7*%
%TO.N,/O2*%
X69850000Y-78740000D03*
%TO.P,U2,6*%
%TO.N,GND*%
X57150000Y-78740000D03*
%TO.P,U2,5*%
%TO.N,VCC*%
X54610000Y-78740000D03*
%TO.P,U2,4*%
%TO.N,/A3*%
X49530000Y-78740000D03*
%TO.P,U2,3*%
%TO.N,/B3*%
X46990000Y-78740000D03*
%TO.P,U2,2*%
%TO.N,/B2*%
X44450000Y-78740000D03*
%TO.P,U2,1*%
%TO.N,/A2*%
X41910000Y-78740000D03*
%TD*%
%TO.P,U1,15*%
%TO.N,/D0*%
X95250000Y-83820000D03*
%TO.P,U1,14*%
%TO.N,/C0*%
X92710000Y-83820000D03*
%TO.P,U1,13*%
%TO.N,/C1*%
X90170000Y-83820000D03*
%TO.P,U1,12*%
%TO.N,/D1*%
X87630000Y-83820000D03*
%TO.P,U1,11*%
%TO.N,/S1*%
X82550000Y-83820000D03*
%TO.P,U1,10*%
%TO.N,/~E*%
X80010000Y-83820000D03*
%TO.P,U1,9*%
%TO.N,/S0*%
X77470000Y-83820000D03*
%TO.P,U1,8*%
%TO.N,/O1*%
X72390000Y-83820000D03*
%TO.P,U1,7*%
%TO.N,/O0*%
X69850000Y-83820000D03*
%TO.P,U1,6*%
%TO.N,GND*%
X57150000Y-83820000D03*
%TO.P,U1,5*%
%TO.N,VCC*%
X54610000Y-83820000D03*
%TO.P,U1,4*%
%TO.N,/A1*%
X49530000Y-83820000D03*
%TO.P,U1,3*%
%TO.N,/B1*%
X46990000Y-83820000D03*
%TO.P,U1,2*%
%TO.N,/B0*%
X44450000Y-83820000D03*
%TO.P,U1,1*%
%TO.N,/A0*%
X41910000Y-83820000D03*
%TD*%
D12*
%TO.P,J5,17*%
%TO.N,GND*%
X15240000Y-87630000D03*
%TO.P,J5,16*%
%TO.N,/BUS0*%
X15240000Y-85090000D03*
%TO.P,J5,15*%
%TO.N,/BUS1*%
X15240000Y-82550000D03*
%TO.P,J5,14*%
%TO.N,/BUS2*%
X15240000Y-80010000D03*
%TO.P,J5,13*%
%TO.N,/BUS3*%
X15240000Y-77470000D03*
%TO.P,J5,12*%
%TO.N,/BUS4*%
X15240000Y-74930000D03*
%TO.P,J5,11*%
%TO.N,/BUS5*%
X15240000Y-72390000D03*
%TO.P,J5,10*%
%TO.N,/BUS6*%
X15240000Y-69850000D03*
%TO.P,J5,9*%
%TO.N,/BUS7*%
X15240000Y-67310000D03*
%TO.P,J5,8*%
%TO.N,/BUS8*%
X15240000Y-64770000D03*
%TO.P,J5,7*%
%TO.N,/BUS9*%
X15240000Y-62230000D03*
%TO.P,J5,6*%
%TO.N,/BUS10*%
X15240000Y-59690000D03*
%TO.P,J5,5*%
%TO.N,/BUS11*%
X15240000Y-57150000D03*
%TO.P,J5,4*%
%TO.N,/BUS12*%
X15240000Y-54610000D03*
%TO.P,J5,3*%
%TO.N,/BUS13*%
X15240000Y-52070000D03*
%TO.P,J5,2*%
%TO.N,/BUS14*%
X15240000Y-49530000D03*
D13*
%TO.P,J5,1*%
%TO.N,/BUS15*%
X15240000Y-46990000D03*
%TD*%
D14*
%TO.P,J4,17*%
%TO.N,GND*%
X106680000Y-87630000D03*
%TO.P,J4,16*%
%TO.N,/D0*%
X106680000Y-85090000D03*
%TO.P,J4,15*%
%TO.N,/D1*%
X106680000Y-82550000D03*
%TO.P,J4,14*%
%TO.N,/D2*%
X106680000Y-80010000D03*
%TO.P,J4,13*%
%TO.N,/D3*%
X106680000Y-77470000D03*
%TO.P,J4,12*%
%TO.N,/D4*%
X106680000Y-74930000D03*
%TO.P,J4,11*%
%TO.N,/D5*%
X106680000Y-72390000D03*
%TO.P,J4,10*%
%TO.N,/D6*%
X106680000Y-69850000D03*
%TO.P,J4,9*%
%TO.N,/D7*%
X106680000Y-67310000D03*
%TO.P,J4,8*%
%TO.N,/D8*%
X106680000Y-64770000D03*
%TO.P,J4,7*%
%TO.N,/D9*%
X106680000Y-62230000D03*
%TO.P,J4,6*%
%TO.N,/D10*%
X106680000Y-59690000D03*
%TO.P,J4,5*%
%TO.N,/D11*%
X106680000Y-57150000D03*
%TO.P,J4,4*%
%TO.N,/D12*%
X106680000Y-54610000D03*
%TO.P,J4,3*%
%TO.N,/D13*%
X106680000Y-52070000D03*
%TO.P,J4,2*%
%TO.N,/D14*%
X106680000Y-49530000D03*
D15*
%TO.P,J4,1*%
%TO.N,/D15*%
X106680000Y-46990000D03*
%TD*%
D14*
%TO.P,J3,17*%
%TO.N,GND*%
X101600000Y-87630000D03*
%TO.P,J3,16*%
%TO.N,/C0*%
X101600000Y-85090000D03*
%TO.P,J3,15*%
%TO.N,/C1*%
X101600000Y-82550000D03*
%TO.P,J3,14*%
%TO.N,/C2*%
X101600000Y-80010000D03*
%TO.P,J3,13*%
%TO.N,/C3*%
X101600000Y-77470000D03*
%TO.P,J3,12*%
%TO.N,/C4*%
X101600000Y-74930000D03*
%TO.P,J3,11*%
%TO.N,/C5*%
X101600000Y-72390000D03*
%TO.P,J3,10*%
%TO.N,/C6*%
X101600000Y-69850000D03*
%TO.P,J3,9*%
%TO.N,/C7*%
X101600000Y-67310000D03*
%TO.P,J3,8*%
%TO.N,/C8*%
X101600000Y-64770000D03*
%TO.P,J3,7*%
%TO.N,/C9*%
X101600000Y-62230000D03*
%TO.P,J3,6*%
%TO.N,/C10*%
X101600000Y-59690000D03*
%TO.P,J3,5*%
%TO.N,/C11*%
X101600000Y-57150000D03*
%TO.P,J3,4*%
%TO.N,/C12*%
X101600000Y-54610000D03*
%TO.P,J3,3*%
%TO.N,/C13*%
X101600000Y-52070000D03*
%TO.P,J3,2*%
%TO.N,/C14*%
X101600000Y-49530000D03*
D15*
%TO.P,J3,1*%
%TO.N,/C15*%
X101600000Y-46990000D03*
%TD*%
D14*
%TO.P,J2,17*%
%TO.N,GND*%
X35560000Y-87630000D03*
%TO.P,J2,16*%
%TO.N,/B0*%
X35560000Y-85090000D03*
%TO.P,J2,15*%
%TO.N,/B1*%
X35560000Y-82550000D03*
%TO.P,J2,14*%
%TO.N,/B2*%
X35560000Y-80010000D03*
%TO.P,J2,13*%
%TO.N,/B3*%
X35560000Y-77470000D03*
%TO.P,J2,12*%
%TO.N,/B4*%
X35560000Y-74930000D03*
%TO.P,J2,11*%
%TO.N,/B5*%
X35560000Y-72390000D03*
%TO.P,J2,10*%
%TO.N,/B6*%
X35560000Y-69850000D03*
%TO.P,J2,9*%
%TO.N,/B7*%
X35560000Y-67310000D03*
%TO.P,J2,8*%
%TO.N,/B8*%
X35560000Y-64770000D03*
%TO.P,J2,7*%
%TO.N,/B9*%
X35560000Y-62230000D03*
%TO.P,J2,6*%
%TO.N,/B10*%
X35560000Y-59690000D03*
%TO.P,J2,5*%
%TO.N,/B11*%
X35560000Y-57150000D03*
%TO.P,J2,4*%
%TO.N,/B12*%
X35560000Y-54610000D03*
%TO.P,J2,3*%
%TO.N,/B13*%
X35560000Y-52070000D03*
%TO.P,J2,2*%
%TO.N,/B14*%
X35560000Y-49530000D03*
D15*
%TO.P,J2,1*%
%TO.N,/B15*%
X35560000Y-46990000D03*
%TD*%
D14*
%TO.P,J1,17*%
%TO.N,GND*%
X30480000Y-87630000D03*
%TO.P,J1,16*%
%TO.N,/A0*%
X30480000Y-85090000D03*
%TO.P,J1,15*%
%TO.N,/A1*%
X30480000Y-82550000D03*
%TO.P,J1,14*%
%TO.N,/A2*%
X30480000Y-80010000D03*
%TO.P,J1,13*%
%TO.N,/A3*%
X30480000Y-77470000D03*
%TO.P,J1,12*%
%TO.N,/A4*%
X30480000Y-74930000D03*
%TO.P,J1,11*%
%TO.N,/A5*%
X30480000Y-72390000D03*
%TO.P,J1,10*%
%TO.N,/A6*%
X30480000Y-69850000D03*
%TO.P,J1,9*%
%TO.N,/A7*%
X30480000Y-67310000D03*
%TO.P,J1,8*%
%TO.N,/A8*%
X30480000Y-64770000D03*
%TO.P,J1,7*%
%TO.N,/A9*%
X30480000Y-62230000D03*
%TO.P,J1,6*%
%TO.N,/A10*%
X30480000Y-59690000D03*
%TO.P,J1,5*%
%TO.N,/A11*%
X30480000Y-57150000D03*
%TO.P,J1,4*%
%TO.N,/A12*%
X30480000Y-54610000D03*
%TO.P,J1,3*%
%TO.N,/A13*%
X30480000Y-52070000D03*
%TO.P,J1,2*%
%TO.N,/A14*%
X30480000Y-49530000D03*
D15*
%TO.P,J1,1*%
%TO.N,/A15*%
X30480000Y-46990000D03*
%TD*%
D16*
%TO.P,J8,2*%
%TO.N,Net-(J8-Pad2)*%
X71200000Y-19050000D03*
D17*
%TO.P,J8,1*%
%TO.N,GND*%
X76200000Y-19050000D03*
%TD*%
D18*
%TO.P,J7,3*%
%TO.N,/S1*%
X106680000Y-40640000D03*
%TO.P,J7,2*%
%TO.N,/~E*%
X106680000Y-38100000D03*
D19*
%TO.P,J7,1*%
%TO.N,/S0*%
X106680000Y-35560000D03*
%TD*%
D20*
%TO.P,J6,1*%
%TO.N,/~OE*%
X15240000Y-27305000D03*
%TD*%
M02*
