G04 #@! TF.GenerationSoftware,KiCad,Pcbnew,(5.1.8)-1*
G04 #@! TF.CreationDate,2023-07-12T23:01:10+03:00*
G04 #@! TF.ProjectId,Reg,5265672e-6b69-4636-9164-5f7063625858,rev?*
G04 #@! TF.SameCoordinates,Original*
G04 #@! TF.FileFunction,Soldermask,Top*
G04 #@! TF.FilePolarity,Negative*
%FSLAX46Y46*%
G04 Gerber Fmt 4.6, Leading zero omitted, Abs format (unit mm)*
G04 Created by KiCad (PCBNEW (5.1.8)-1) date 2023-07-12 23:01:10*
%MOMM*%
%LPD*%
G01*
G04 APERTURE LIST*
%ADD10O,1.600000X1.600000*%
%ADD11C,1.600000*%
%ADD12R,2.100000X2.200000*%
%ADD13O,1.600000X2.200000*%
%ADD14O,2.100000X2.200000*%
%ADD15O,1.700000X1.700000*%
%ADD16R,1.700000X1.700000*%
G04 APERTURE END LIST*
D10*
X95250000Y-31750000D03*
D11*
X80010000Y-31750000D03*
G36*
G01*
X73039861Y-40191498D02*
X73039861Y-40191498D01*
G75*
G02*
X74047920Y-39677867I760845J-247214D01*
G01*
X74047920Y-39677867D01*
G75*
G02*
X74561551Y-40685926I-247214J-760845D01*
G01*
X74561551Y-40685926D01*
G75*
G02*
X73553492Y-41199557I-760845J247214D01*
G01*
X73553492Y-41199557D01*
G75*
G02*
X73039861Y-40191498I247214J760845D01*
G01*
G37*
X61912500Y-36576000D03*
G36*
G01*
X73103361Y-27872498D02*
X73103361Y-27872498D01*
G75*
G02*
X74111420Y-27358867I760845J-247214D01*
G01*
X74111420Y-27358867D01*
G75*
G02*
X74625051Y-28366926I-247214J-760845D01*
G01*
X74625051Y-28366926D01*
G75*
G02*
X73616992Y-28880557I-760845J247214D01*
G01*
X73616992Y-28880557D01*
G75*
G02*
X73103361Y-27872498I247214J760845D01*
G01*
G37*
X61976000Y-24257000D03*
G36*
G01*
X63650000Y-24217500D02*
X63350000Y-24217500D01*
G75*
G02*
X63200000Y-24067500I0J150000D01*
G01*
X63200000Y-22367500D01*
G75*
G02*
X63350000Y-22217500I150000J0D01*
G01*
X63650000Y-22217500D01*
G75*
G02*
X63800000Y-22367500I0J-150000D01*
G01*
X63800000Y-24067500D01*
G75*
G02*
X63650000Y-24217500I-150000J0D01*
G01*
G37*
G36*
G01*
X64920000Y-24217500D02*
X64620000Y-24217500D01*
G75*
G02*
X64470000Y-24067500I0J150000D01*
G01*
X64470000Y-22367500D01*
G75*
G02*
X64620000Y-22217500I150000J0D01*
G01*
X64920000Y-22217500D01*
G75*
G02*
X65070000Y-22367500I0J-150000D01*
G01*
X65070000Y-24067500D01*
G75*
G02*
X64920000Y-24217500I-150000J0D01*
G01*
G37*
G36*
G01*
X66190000Y-24217500D02*
X65890000Y-24217500D01*
G75*
G02*
X65740000Y-24067500I0J150000D01*
G01*
X65740000Y-22367500D01*
G75*
G02*
X65890000Y-22217500I150000J0D01*
G01*
X66190000Y-22217500D01*
G75*
G02*
X66340000Y-22367500I0J-150000D01*
G01*
X66340000Y-24067500D01*
G75*
G02*
X66190000Y-24217500I-150000J0D01*
G01*
G37*
G36*
G01*
X67460000Y-24217500D02*
X67160000Y-24217500D01*
G75*
G02*
X67010000Y-24067500I0J150000D01*
G01*
X67010000Y-22367500D01*
G75*
G02*
X67160000Y-22217500I150000J0D01*
G01*
X67460000Y-22217500D01*
G75*
G02*
X67610000Y-22367500I0J-150000D01*
G01*
X67610000Y-24067500D01*
G75*
G02*
X67460000Y-24217500I-150000J0D01*
G01*
G37*
G36*
G01*
X68730000Y-24217500D02*
X68430000Y-24217500D01*
G75*
G02*
X68280000Y-24067500I0J150000D01*
G01*
X68280000Y-22367500D01*
G75*
G02*
X68430000Y-22217500I150000J0D01*
G01*
X68730000Y-22217500D01*
G75*
G02*
X68880000Y-22367500I0J-150000D01*
G01*
X68880000Y-24067500D01*
G75*
G02*
X68730000Y-24217500I-150000J0D01*
G01*
G37*
G36*
G01*
X70000000Y-24217500D02*
X69700000Y-24217500D01*
G75*
G02*
X69550000Y-24067500I0J150000D01*
G01*
X69550000Y-22367500D01*
G75*
G02*
X69700000Y-22217500I150000J0D01*
G01*
X70000000Y-22217500D01*
G75*
G02*
X70150000Y-22367500I0J-150000D01*
G01*
X70150000Y-24067500D01*
G75*
G02*
X70000000Y-24217500I-150000J0D01*
G01*
G37*
G36*
G01*
X71270000Y-24217500D02*
X70970000Y-24217500D01*
G75*
G02*
X70820000Y-24067500I0J150000D01*
G01*
X70820000Y-22367500D01*
G75*
G02*
X70970000Y-22217500I150000J0D01*
G01*
X71270000Y-22217500D01*
G75*
G02*
X71420000Y-22367500I0J-150000D01*
G01*
X71420000Y-24067500D01*
G75*
G02*
X71270000Y-24217500I-150000J0D01*
G01*
G37*
G36*
G01*
X72540000Y-24217500D02*
X72240000Y-24217500D01*
G75*
G02*
X72090000Y-24067500I0J150000D01*
G01*
X72090000Y-22367500D01*
G75*
G02*
X72240000Y-22217500I150000J0D01*
G01*
X72540000Y-22217500D01*
G75*
G02*
X72690000Y-22367500I0J-150000D01*
G01*
X72690000Y-24067500D01*
G75*
G02*
X72540000Y-24217500I-150000J0D01*
G01*
G37*
G36*
G01*
X72540000Y-29217500D02*
X72240000Y-29217500D01*
G75*
G02*
X72090000Y-29067500I0J150000D01*
G01*
X72090000Y-27367500D01*
G75*
G02*
X72240000Y-27217500I150000J0D01*
G01*
X72540000Y-27217500D01*
G75*
G02*
X72690000Y-27367500I0J-150000D01*
G01*
X72690000Y-29067500D01*
G75*
G02*
X72540000Y-29217500I-150000J0D01*
G01*
G37*
G36*
G01*
X71270000Y-29217500D02*
X70970000Y-29217500D01*
G75*
G02*
X70820000Y-29067500I0J150000D01*
G01*
X70820000Y-27367500D01*
G75*
G02*
X70970000Y-27217500I150000J0D01*
G01*
X71270000Y-27217500D01*
G75*
G02*
X71420000Y-27367500I0J-150000D01*
G01*
X71420000Y-29067500D01*
G75*
G02*
X71270000Y-29217500I-150000J0D01*
G01*
G37*
G36*
G01*
X70000000Y-29217500D02*
X69700000Y-29217500D01*
G75*
G02*
X69550000Y-29067500I0J150000D01*
G01*
X69550000Y-27367500D01*
G75*
G02*
X69700000Y-27217500I150000J0D01*
G01*
X70000000Y-27217500D01*
G75*
G02*
X70150000Y-27367500I0J-150000D01*
G01*
X70150000Y-29067500D01*
G75*
G02*
X70000000Y-29217500I-150000J0D01*
G01*
G37*
G36*
G01*
X68730000Y-29217500D02*
X68430000Y-29217500D01*
G75*
G02*
X68280000Y-29067500I0J150000D01*
G01*
X68280000Y-27367500D01*
G75*
G02*
X68430000Y-27217500I150000J0D01*
G01*
X68730000Y-27217500D01*
G75*
G02*
X68880000Y-27367500I0J-150000D01*
G01*
X68880000Y-29067500D01*
G75*
G02*
X68730000Y-29217500I-150000J0D01*
G01*
G37*
G36*
G01*
X67460000Y-29217500D02*
X67160000Y-29217500D01*
G75*
G02*
X67010000Y-29067500I0J150000D01*
G01*
X67010000Y-27367500D01*
G75*
G02*
X67160000Y-27217500I150000J0D01*
G01*
X67460000Y-27217500D01*
G75*
G02*
X67610000Y-27367500I0J-150000D01*
G01*
X67610000Y-29067500D01*
G75*
G02*
X67460000Y-29217500I-150000J0D01*
G01*
G37*
G36*
G01*
X66190000Y-29217500D02*
X65890000Y-29217500D01*
G75*
G02*
X65740000Y-29067500I0J150000D01*
G01*
X65740000Y-27367500D01*
G75*
G02*
X65890000Y-27217500I150000J0D01*
G01*
X66190000Y-27217500D01*
G75*
G02*
X66340000Y-27367500I0J-150000D01*
G01*
X66340000Y-29067500D01*
G75*
G02*
X66190000Y-29217500I-150000J0D01*
G01*
G37*
G36*
G01*
X64920000Y-29217500D02*
X64620000Y-29217500D01*
G75*
G02*
X64470000Y-29067500I0J150000D01*
G01*
X64470000Y-27367500D01*
G75*
G02*
X64620000Y-27217500I150000J0D01*
G01*
X64920000Y-27217500D01*
G75*
G02*
X65070000Y-27367500I0J-150000D01*
G01*
X65070000Y-29067500D01*
G75*
G02*
X64920000Y-29217500I-150000J0D01*
G01*
G37*
G36*
G01*
X63650000Y-29217500D02*
X63350000Y-29217500D01*
G75*
G02*
X63200000Y-29067500I0J150000D01*
G01*
X63200000Y-27367500D01*
G75*
G02*
X63350000Y-27217500I150000J0D01*
G01*
X63650000Y-27217500D01*
G75*
G02*
X63800000Y-27367500I0J-150000D01*
G01*
X63800000Y-29067500D01*
G75*
G02*
X63650000Y-29217500I-150000J0D01*
G01*
G37*
G36*
G01*
X63650000Y-36917500D02*
X63350000Y-36917500D01*
G75*
G02*
X63200000Y-36767500I0J150000D01*
G01*
X63200000Y-35067500D01*
G75*
G02*
X63350000Y-34917500I150000J0D01*
G01*
X63650000Y-34917500D01*
G75*
G02*
X63800000Y-35067500I0J-150000D01*
G01*
X63800000Y-36767500D01*
G75*
G02*
X63650000Y-36917500I-150000J0D01*
G01*
G37*
G36*
G01*
X64920000Y-36917500D02*
X64620000Y-36917500D01*
G75*
G02*
X64470000Y-36767500I0J150000D01*
G01*
X64470000Y-35067500D01*
G75*
G02*
X64620000Y-34917500I150000J0D01*
G01*
X64920000Y-34917500D01*
G75*
G02*
X65070000Y-35067500I0J-150000D01*
G01*
X65070000Y-36767500D01*
G75*
G02*
X64920000Y-36917500I-150000J0D01*
G01*
G37*
G36*
G01*
X66190000Y-36917500D02*
X65890000Y-36917500D01*
G75*
G02*
X65740000Y-36767500I0J150000D01*
G01*
X65740000Y-35067500D01*
G75*
G02*
X65890000Y-34917500I150000J0D01*
G01*
X66190000Y-34917500D01*
G75*
G02*
X66340000Y-35067500I0J-150000D01*
G01*
X66340000Y-36767500D01*
G75*
G02*
X66190000Y-36917500I-150000J0D01*
G01*
G37*
G36*
G01*
X67460000Y-36917500D02*
X67160000Y-36917500D01*
G75*
G02*
X67010000Y-36767500I0J150000D01*
G01*
X67010000Y-35067500D01*
G75*
G02*
X67160000Y-34917500I150000J0D01*
G01*
X67460000Y-34917500D01*
G75*
G02*
X67610000Y-35067500I0J-150000D01*
G01*
X67610000Y-36767500D01*
G75*
G02*
X67460000Y-36917500I-150000J0D01*
G01*
G37*
G36*
G01*
X68730000Y-36917500D02*
X68430000Y-36917500D01*
G75*
G02*
X68280000Y-36767500I0J150000D01*
G01*
X68280000Y-35067500D01*
G75*
G02*
X68430000Y-34917500I150000J0D01*
G01*
X68730000Y-34917500D01*
G75*
G02*
X68880000Y-35067500I0J-150000D01*
G01*
X68880000Y-36767500D01*
G75*
G02*
X68730000Y-36917500I-150000J0D01*
G01*
G37*
G36*
G01*
X70000000Y-36917500D02*
X69700000Y-36917500D01*
G75*
G02*
X69550000Y-36767500I0J150000D01*
G01*
X69550000Y-35067500D01*
G75*
G02*
X69700000Y-34917500I150000J0D01*
G01*
X70000000Y-34917500D01*
G75*
G02*
X70150000Y-35067500I0J-150000D01*
G01*
X70150000Y-36767500D01*
G75*
G02*
X70000000Y-36917500I-150000J0D01*
G01*
G37*
G36*
G01*
X71270000Y-36917500D02*
X70970000Y-36917500D01*
G75*
G02*
X70820000Y-36767500I0J150000D01*
G01*
X70820000Y-35067500D01*
G75*
G02*
X70970000Y-34917500I150000J0D01*
G01*
X71270000Y-34917500D01*
G75*
G02*
X71420000Y-35067500I0J-150000D01*
G01*
X71420000Y-36767500D01*
G75*
G02*
X71270000Y-36917500I-150000J0D01*
G01*
G37*
G36*
G01*
X72540000Y-36917500D02*
X72240000Y-36917500D01*
G75*
G02*
X72090000Y-36767500I0J150000D01*
G01*
X72090000Y-35067500D01*
G75*
G02*
X72240000Y-34917500I150000J0D01*
G01*
X72540000Y-34917500D01*
G75*
G02*
X72690000Y-35067500I0J-150000D01*
G01*
X72690000Y-36767500D01*
G75*
G02*
X72540000Y-36917500I-150000J0D01*
G01*
G37*
G36*
G01*
X72540000Y-41917500D02*
X72240000Y-41917500D01*
G75*
G02*
X72090000Y-41767500I0J150000D01*
G01*
X72090000Y-40067500D01*
G75*
G02*
X72240000Y-39917500I150000J0D01*
G01*
X72540000Y-39917500D01*
G75*
G02*
X72690000Y-40067500I0J-150000D01*
G01*
X72690000Y-41767500D01*
G75*
G02*
X72540000Y-41917500I-150000J0D01*
G01*
G37*
G36*
G01*
X71270000Y-41917500D02*
X70970000Y-41917500D01*
G75*
G02*
X70820000Y-41767500I0J150000D01*
G01*
X70820000Y-40067500D01*
G75*
G02*
X70970000Y-39917500I150000J0D01*
G01*
X71270000Y-39917500D01*
G75*
G02*
X71420000Y-40067500I0J-150000D01*
G01*
X71420000Y-41767500D01*
G75*
G02*
X71270000Y-41917500I-150000J0D01*
G01*
G37*
G36*
G01*
X70000000Y-41917500D02*
X69700000Y-41917500D01*
G75*
G02*
X69550000Y-41767500I0J150000D01*
G01*
X69550000Y-40067500D01*
G75*
G02*
X69700000Y-39917500I150000J0D01*
G01*
X70000000Y-39917500D01*
G75*
G02*
X70150000Y-40067500I0J-150000D01*
G01*
X70150000Y-41767500D01*
G75*
G02*
X70000000Y-41917500I-150000J0D01*
G01*
G37*
G36*
G01*
X68730000Y-41917500D02*
X68430000Y-41917500D01*
G75*
G02*
X68280000Y-41767500I0J150000D01*
G01*
X68280000Y-40067500D01*
G75*
G02*
X68430000Y-39917500I150000J0D01*
G01*
X68730000Y-39917500D01*
G75*
G02*
X68880000Y-40067500I0J-150000D01*
G01*
X68880000Y-41767500D01*
G75*
G02*
X68730000Y-41917500I-150000J0D01*
G01*
G37*
G36*
G01*
X67460000Y-41917500D02*
X67160000Y-41917500D01*
G75*
G02*
X67010000Y-41767500I0J150000D01*
G01*
X67010000Y-40067500D01*
G75*
G02*
X67160000Y-39917500I150000J0D01*
G01*
X67460000Y-39917500D01*
G75*
G02*
X67610000Y-40067500I0J-150000D01*
G01*
X67610000Y-41767500D01*
G75*
G02*
X67460000Y-41917500I-150000J0D01*
G01*
G37*
G36*
G01*
X66190000Y-41917500D02*
X65890000Y-41917500D01*
G75*
G02*
X65740000Y-41767500I0J150000D01*
G01*
X65740000Y-40067500D01*
G75*
G02*
X65890000Y-39917500I150000J0D01*
G01*
X66190000Y-39917500D01*
G75*
G02*
X66340000Y-40067500I0J-150000D01*
G01*
X66340000Y-41767500D01*
G75*
G02*
X66190000Y-41917500I-150000J0D01*
G01*
G37*
G36*
G01*
X64920000Y-41917500D02*
X64620000Y-41917500D01*
G75*
G02*
X64470000Y-41767500I0J150000D01*
G01*
X64470000Y-40067500D01*
G75*
G02*
X64620000Y-39917500I150000J0D01*
G01*
X64920000Y-39917500D01*
G75*
G02*
X65070000Y-40067500I0J-150000D01*
G01*
X65070000Y-41767500D01*
G75*
G02*
X64920000Y-41917500I-150000J0D01*
G01*
G37*
G36*
G01*
X63650000Y-41917500D02*
X63350000Y-41917500D01*
G75*
G02*
X63200000Y-41767500I0J150000D01*
G01*
X63200000Y-40067500D01*
G75*
G02*
X63350000Y-39917500I150000J0D01*
G01*
X63650000Y-39917500D01*
G75*
G02*
X63800000Y-40067500I0J-150000D01*
G01*
X63800000Y-41767500D01*
G75*
G02*
X63650000Y-41917500I-150000J0D01*
G01*
G37*
G36*
G01*
X85592500Y-46197500D02*
X85592500Y-47147500D01*
G75*
G02*
X85342500Y-47397500I-250000J0D01*
G01*
X84667500Y-47397500D01*
G75*
G02*
X84417500Y-47147500I0J250000D01*
G01*
X84417500Y-46197500D01*
G75*
G02*
X84667500Y-45947500I250000J0D01*
G01*
X85342500Y-45947500D01*
G75*
G02*
X85592500Y-46197500I0J-250000D01*
G01*
G37*
G36*
G01*
X87667500Y-46197500D02*
X87667500Y-47147500D01*
G75*
G02*
X87417500Y-47397500I-250000J0D01*
G01*
X86742500Y-47397500D01*
G75*
G02*
X86492500Y-47147500I0J250000D01*
G01*
X86492500Y-46197500D01*
G75*
G02*
X86742500Y-45947500I250000J0D01*
G01*
X87417500Y-45947500D01*
G75*
G02*
X87667500Y-46197500I0J-250000D01*
G01*
G37*
G36*
G01*
X99510001Y-23365000D02*
X98609999Y-23365000D01*
G75*
G02*
X98360000Y-23115001I0J249999D01*
G01*
X98360000Y-22414999D01*
G75*
G02*
X98609999Y-22165000I249999J0D01*
G01*
X99510001Y-22165000D01*
G75*
G02*
X99760000Y-22414999I0J-249999D01*
G01*
X99760000Y-23115001D01*
G75*
G02*
X99510001Y-23365000I-249999J0D01*
G01*
G37*
G36*
G01*
X99510001Y-25365000D02*
X98609999Y-25365000D01*
G75*
G02*
X98360000Y-25115001I0J249999D01*
G01*
X98360000Y-24414999D01*
G75*
G02*
X98609999Y-24165000I249999J0D01*
G01*
X99510001Y-24165000D01*
G75*
G02*
X99760000Y-24414999I0J-249999D01*
G01*
X99760000Y-25115001D01*
G75*
G02*
X99510001Y-25365000I-249999J0D01*
G01*
G37*
G36*
G01*
X96970001Y-23365000D02*
X96069999Y-23365000D01*
G75*
G02*
X95820000Y-23115001I0J249999D01*
G01*
X95820000Y-22414999D01*
G75*
G02*
X96069999Y-22165000I249999J0D01*
G01*
X96970001Y-22165000D01*
G75*
G02*
X97220000Y-22414999I0J-249999D01*
G01*
X97220000Y-23115001D01*
G75*
G02*
X96970001Y-23365000I-249999J0D01*
G01*
G37*
G36*
G01*
X96970001Y-25365000D02*
X96069999Y-25365000D01*
G75*
G02*
X95820000Y-25115001I0J249999D01*
G01*
X95820000Y-24414999D01*
G75*
G02*
X96069999Y-24165000I249999J0D01*
G01*
X96970001Y-24165000D01*
G75*
G02*
X97220000Y-24414999I0J-249999D01*
G01*
X97220000Y-25115001D01*
G75*
G02*
X96970001Y-25365000I-249999J0D01*
G01*
G37*
G36*
G01*
X94430001Y-23365000D02*
X93529999Y-23365000D01*
G75*
G02*
X93280000Y-23115001I0J249999D01*
G01*
X93280000Y-22414999D01*
G75*
G02*
X93529999Y-22165000I249999J0D01*
G01*
X94430001Y-22165000D01*
G75*
G02*
X94680000Y-22414999I0J-249999D01*
G01*
X94680000Y-23115001D01*
G75*
G02*
X94430001Y-23365000I-249999J0D01*
G01*
G37*
G36*
G01*
X94430001Y-25365000D02*
X93529999Y-25365000D01*
G75*
G02*
X93280000Y-25115001I0J249999D01*
G01*
X93280000Y-24414999D01*
G75*
G02*
X93529999Y-24165000I249999J0D01*
G01*
X94430001Y-24165000D01*
G75*
G02*
X94680000Y-24414999I0J-249999D01*
G01*
X94680000Y-25115001D01*
G75*
G02*
X94430001Y-25365000I-249999J0D01*
G01*
G37*
G36*
G01*
X91890001Y-23365000D02*
X90989999Y-23365000D01*
G75*
G02*
X90740000Y-23115001I0J249999D01*
G01*
X90740000Y-22414999D01*
G75*
G02*
X90989999Y-22165000I249999J0D01*
G01*
X91890001Y-22165000D01*
G75*
G02*
X92140000Y-22414999I0J-249999D01*
G01*
X92140000Y-23115001D01*
G75*
G02*
X91890001Y-23365000I-249999J0D01*
G01*
G37*
G36*
G01*
X91890001Y-25365000D02*
X90989999Y-25365000D01*
G75*
G02*
X90740000Y-25115001I0J249999D01*
G01*
X90740000Y-24414999D01*
G75*
G02*
X90989999Y-24165000I249999J0D01*
G01*
X91890001Y-24165000D01*
G75*
G02*
X92140000Y-24414999I0J-249999D01*
G01*
X92140000Y-25115001D01*
G75*
G02*
X91890001Y-25365000I-249999J0D01*
G01*
G37*
G36*
G01*
X89350001Y-23365000D02*
X88449999Y-23365000D01*
G75*
G02*
X88200000Y-23115001I0J249999D01*
G01*
X88200000Y-22414999D01*
G75*
G02*
X88449999Y-22165000I249999J0D01*
G01*
X89350001Y-22165000D01*
G75*
G02*
X89600000Y-22414999I0J-249999D01*
G01*
X89600000Y-23115001D01*
G75*
G02*
X89350001Y-23365000I-249999J0D01*
G01*
G37*
G36*
G01*
X89350001Y-25365000D02*
X88449999Y-25365000D01*
G75*
G02*
X88200000Y-25115001I0J249999D01*
G01*
X88200000Y-24414999D01*
G75*
G02*
X88449999Y-24165000I249999J0D01*
G01*
X89350001Y-24165000D01*
G75*
G02*
X89600000Y-24414999I0J-249999D01*
G01*
X89600000Y-25115001D01*
G75*
G02*
X89350001Y-25365000I-249999J0D01*
G01*
G37*
G36*
G01*
X86810001Y-23365000D02*
X85909999Y-23365000D01*
G75*
G02*
X85660000Y-23115001I0J249999D01*
G01*
X85660000Y-22414999D01*
G75*
G02*
X85909999Y-22165000I249999J0D01*
G01*
X86810001Y-22165000D01*
G75*
G02*
X87060000Y-22414999I0J-249999D01*
G01*
X87060000Y-23115001D01*
G75*
G02*
X86810001Y-23365000I-249999J0D01*
G01*
G37*
G36*
G01*
X86810001Y-25365000D02*
X85909999Y-25365000D01*
G75*
G02*
X85660000Y-25115001I0J249999D01*
G01*
X85660000Y-24414999D01*
G75*
G02*
X85909999Y-24165000I249999J0D01*
G01*
X86810001Y-24165000D01*
G75*
G02*
X87060000Y-24414999I0J-249999D01*
G01*
X87060000Y-25115001D01*
G75*
G02*
X86810001Y-25365000I-249999J0D01*
G01*
G37*
G36*
G01*
X84270001Y-23365000D02*
X83369999Y-23365000D01*
G75*
G02*
X83120000Y-23115001I0J249999D01*
G01*
X83120000Y-22414999D01*
G75*
G02*
X83369999Y-22165000I249999J0D01*
G01*
X84270001Y-22165000D01*
G75*
G02*
X84520000Y-22414999I0J-249999D01*
G01*
X84520000Y-23115001D01*
G75*
G02*
X84270001Y-23365000I-249999J0D01*
G01*
G37*
G36*
G01*
X84270001Y-25365000D02*
X83369999Y-25365000D01*
G75*
G02*
X83120000Y-25115001I0J249999D01*
G01*
X83120000Y-24414999D01*
G75*
G02*
X83369999Y-24165000I249999J0D01*
G01*
X84270001Y-24165000D01*
G75*
G02*
X84520000Y-24414999I0J-249999D01*
G01*
X84520000Y-25115001D01*
G75*
G02*
X84270001Y-25365000I-249999J0D01*
G01*
G37*
G36*
G01*
X81730001Y-23365000D02*
X80829999Y-23365000D01*
G75*
G02*
X80580000Y-23115001I0J249999D01*
G01*
X80580000Y-22414999D01*
G75*
G02*
X80829999Y-22165000I249999J0D01*
G01*
X81730001Y-22165000D01*
G75*
G02*
X81980000Y-22414999I0J-249999D01*
G01*
X81980000Y-23115001D01*
G75*
G02*
X81730001Y-23365000I-249999J0D01*
G01*
G37*
G36*
G01*
X81730001Y-25365000D02*
X80829999Y-25365000D01*
G75*
G02*
X80580000Y-25115001I0J249999D01*
G01*
X80580000Y-24414999D01*
G75*
G02*
X80829999Y-24165000I249999J0D01*
G01*
X81730001Y-24165000D01*
G75*
G02*
X81980000Y-24414999I0J-249999D01*
G01*
X81980000Y-25115001D01*
G75*
G02*
X81730001Y-25365000I-249999J0D01*
G01*
G37*
G36*
G01*
X98609999Y-18475000D02*
X99510001Y-18475000D01*
G75*
G02*
X99760000Y-18724999I0J-249999D01*
G01*
X99760000Y-19375001D01*
G75*
G02*
X99510001Y-19625000I-249999J0D01*
G01*
X98609999Y-19625000D01*
G75*
G02*
X98360000Y-19375001I0J249999D01*
G01*
X98360000Y-18724999D01*
G75*
G02*
X98609999Y-18475000I249999J0D01*
G01*
G37*
G36*
G01*
X98609999Y-16425000D02*
X99510001Y-16425000D01*
G75*
G02*
X99760000Y-16674999I0J-249999D01*
G01*
X99760000Y-17325001D01*
G75*
G02*
X99510001Y-17575000I-249999J0D01*
G01*
X98609999Y-17575000D01*
G75*
G02*
X98360000Y-17325001I0J249999D01*
G01*
X98360000Y-16674999D01*
G75*
G02*
X98609999Y-16425000I249999J0D01*
G01*
G37*
G36*
G01*
X96069999Y-18475000D02*
X96970001Y-18475000D01*
G75*
G02*
X97220000Y-18724999I0J-249999D01*
G01*
X97220000Y-19375001D01*
G75*
G02*
X96970001Y-19625000I-249999J0D01*
G01*
X96069999Y-19625000D01*
G75*
G02*
X95820000Y-19375001I0J249999D01*
G01*
X95820000Y-18724999D01*
G75*
G02*
X96069999Y-18475000I249999J0D01*
G01*
G37*
G36*
G01*
X96069999Y-16425000D02*
X96970001Y-16425000D01*
G75*
G02*
X97220000Y-16674999I0J-249999D01*
G01*
X97220000Y-17325001D01*
G75*
G02*
X96970001Y-17575000I-249999J0D01*
G01*
X96069999Y-17575000D01*
G75*
G02*
X95820000Y-17325001I0J249999D01*
G01*
X95820000Y-16674999D01*
G75*
G02*
X96069999Y-16425000I249999J0D01*
G01*
G37*
G36*
G01*
X93529999Y-18475000D02*
X94430001Y-18475000D01*
G75*
G02*
X94680000Y-18724999I0J-249999D01*
G01*
X94680000Y-19375001D01*
G75*
G02*
X94430001Y-19625000I-249999J0D01*
G01*
X93529999Y-19625000D01*
G75*
G02*
X93280000Y-19375001I0J249999D01*
G01*
X93280000Y-18724999D01*
G75*
G02*
X93529999Y-18475000I249999J0D01*
G01*
G37*
G36*
G01*
X93529999Y-16425000D02*
X94430001Y-16425000D01*
G75*
G02*
X94680000Y-16674999I0J-249999D01*
G01*
X94680000Y-17325001D01*
G75*
G02*
X94430001Y-17575000I-249999J0D01*
G01*
X93529999Y-17575000D01*
G75*
G02*
X93280000Y-17325001I0J249999D01*
G01*
X93280000Y-16674999D01*
G75*
G02*
X93529999Y-16425000I249999J0D01*
G01*
G37*
G36*
G01*
X90989999Y-18475000D02*
X91890001Y-18475000D01*
G75*
G02*
X92140000Y-18724999I0J-249999D01*
G01*
X92140000Y-19375001D01*
G75*
G02*
X91890001Y-19625000I-249999J0D01*
G01*
X90989999Y-19625000D01*
G75*
G02*
X90740000Y-19375001I0J249999D01*
G01*
X90740000Y-18724999D01*
G75*
G02*
X90989999Y-18475000I249999J0D01*
G01*
G37*
G36*
G01*
X90989999Y-16425000D02*
X91890001Y-16425000D01*
G75*
G02*
X92140000Y-16674999I0J-249999D01*
G01*
X92140000Y-17325001D01*
G75*
G02*
X91890001Y-17575000I-249999J0D01*
G01*
X90989999Y-17575000D01*
G75*
G02*
X90740000Y-17325001I0J249999D01*
G01*
X90740000Y-16674999D01*
G75*
G02*
X90989999Y-16425000I249999J0D01*
G01*
G37*
G36*
G01*
X88449999Y-18475000D02*
X89350001Y-18475000D01*
G75*
G02*
X89600000Y-18724999I0J-249999D01*
G01*
X89600000Y-19375001D01*
G75*
G02*
X89350001Y-19625000I-249999J0D01*
G01*
X88449999Y-19625000D01*
G75*
G02*
X88200000Y-19375001I0J249999D01*
G01*
X88200000Y-18724999D01*
G75*
G02*
X88449999Y-18475000I249999J0D01*
G01*
G37*
G36*
G01*
X88449999Y-16425000D02*
X89350001Y-16425000D01*
G75*
G02*
X89600000Y-16674999I0J-249999D01*
G01*
X89600000Y-17325001D01*
G75*
G02*
X89350001Y-17575000I-249999J0D01*
G01*
X88449999Y-17575000D01*
G75*
G02*
X88200000Y-17325001I0J249999D01*
G01*
X88200000Y-16674999D01*
G75*
G02*
X88449999Y-16425000I249999J0D01*
G01*
G37*
G36*
G01*
X85909999Y-18475000D02*
X86810001Y-18475000D01*
G75*
G02*
X87060000Y-18724999I0J-249999D01*
G01*
X87060000Y-19375001D01*
G75*
G02*
X86810001Y-19625000I-249999J0D01*
G01*
X85909999Y-19625000D01*
G75*
G02*
X85660000Y-19375001I0J249999D01*
G01*
X85660000Y-18724999D01*
G75*
G02*
X85909999Y-18475000I249999J0D01*
G01*
G37*
G36*
G01*
X85909999Y-16425000D02*
X86810001Y-16425000D01*
G75*
G02*
X87060000Y-16674999I0J-249999D01*
G01*
X87060000Y-17325001D01*
G75*
G02*
X86810001Y-17575000I-249999J0D01*
G01*
X85909999Y-17575000D01*
G75*
G02*
X85660000Y-17325001I0J249999D01*
G01*
X85660000Y-16674999D01*
G75*
G02*
X85909999Y-16425000I249999J0D01*
G01*
G37*
G36*
G01*
X83369999Y-18475000D02*
X84270001Y-18475000D01*
G75*
G02*
X84520000Y-18724999I0J-249999D01*
G01*
X84520000Y-19375001D01*
G75*
G02*
X84270001Y-19625000I-249999J0D01*
G01*
X83369999Y-19625000D01*
G75*
G02*
X83120000Y-19375001I0J249999D01*
G01*
X83120000Y-18724999D01*
G75*
G02*
X83369999Y-18475000I249999J0D01*
G01*
G37*
G36*
G01*
X83369999Y-16425000D02*
X84270001Y-16425000D01*
G75*
G02*
X84520000Y-16674999I0J-249999D01*
G01*
X84520000Y-17325001D01*
G75*
G02*
X84270001Y-17575000I-249999J0D01*
G01*
X83369999Y-17575000D01*
G75*
G02*
X83120000Y-17325001I0J249999D01*
G01*
X83120000Y-16674999D01*
G75*
G02*
X83369999Y-16425000I249999J0D01*
G01*
G37*
G36*
G01*
X80829999Y-18475000D02*
X81730001Y-18475000D01*
G75*
G02*
X81980000Y-18724999I0J-249999D01*
G01*
X81980000Y-19375001D01*
G75*
G02*
X81730001Y-19625000I-249999J0D01*
G01*
X80829999Y-19625000D01*
G75*
G02*
X80580000Y-19375001I0J249999D01*
G01*
X80580000Y-18724999D01*
G75*
G02*
X80829999Y-18475000I249999J0D01*
G01*
G37*
G36*
G01*
X80829999Y-16425000D02*
X81730001Y-16425000D01*
G75*
G02*
X81980000Y-16674999I0J-249999D01*
G01*
X81980000Y-17325001D01*
G75*
G02*
X81730001Y-17575000I-249999J0D01*
G01*
X80829999Y-17575000D01*
G75*
G02*
X80580000Y-17325001I0J249999D01*
G01*
X80580000Y-16674999D01*
G75*
G02*
X80829999Y-16425000I249999J0D01*
G01*
G37*
D12*
X71120000Y-53340000D03*
D13*
X68580000Y-53340000D03*
X66040000Y-53340000D03*
X63500000Y-53340000D03*
X60960000Y-53340000D03*
X58420000Y-53340000D03*
X55880000Y-53340000D03*
X53340000Y-53340000D03*
D14*
X88900000Y-53340000D03*
X91440000Y-53340000D03*
X93980000Y-53340000D03*
X96520000Y-53340000D03*
X99060000Y-53340000D03*
X101600000Y-53340000D03*
X104140000Y-53340000D03*
D12*
X106680000Y-53340000D03*
X83820000Y-53340000D03*
D14*
X81280000Y-53340000D03*
G36*
G01*
X111275000Y-44090000D02*
X110975000Y-44090000D01*
G75*
G02*
X110825000Y-43940000I0J150000D01*
G01*
X110825000Y-42290000D01*
G75*
G02*
X110975000Y-42140000I150000J0D01*
G01*
X111275000Y-42140000D01*
G75*
G02*
X111425000Y-42290000I0J-150000D01*
G01*
X111425000Y-43940000D01*
G75*
G02*
X111275000Y-44090000I-150000J0D01*
G01*
G37*
G36*
G01*
X112545000Y-44090000D02*
X112245000Y-44090000D01*
G75*
G02*
X112095000Y-43940000I0J150000D01*
G01*
X112095000Y-42290000D01*
G75*
G02*
X112245000Y-42140000I150000J0D01*
G01*
X112545000Y-42140000D01*
G75*
G02*
X112695000Y-42290000I0J-150000D01*
G01*
X112695000Y-43940000D01*
G75*
G02*
X112545000Y-44090000I-150000J0D01*
G01*
G37*
G36*
G01*
X113815000Y-44090000D02*
X113515000Y-44090000D01*
G75*
G02*
X113365000Y-43940000I0J150000D01*
G01*
X113365000Y-42290000D01*
G75*
G02*
X113515000Y-42140000I150000J0D01*
G01*
X113815000Y-42140000D01*
G75*
G02*
X113965000Y-42290000I0J-150000D01*
G01*
X113965000Y-43940000D01*
G75*
G02*
X113815000Y-44090000I-150000J0D01*
G01*
G37*
G36*
G01*
X115085000Y-44090000D02*
X114785000Y-44090000D01*
G75*
G02*
X114635000Y-43940000I0J150000D01*
G01*
X114635000Y-42290000D01*
G75*
G02*
X114785000Y-42140000I150000J0D01*
G01*
X115085000Y-42140000D01*
G75*
G02*
X115235000Y-42290000I0J-150000D01*
G01*
X115235000Y-43940000D01*
G75*
G02*
X115085000Y-44090000I-150000J0D01*
G01*
G37*
G36*
G01*
X116355000Y-44090000D02*
X116055000Y-44090000D01*
G75*
G02*
X115905000Y-43940000I0J150000D01*
G01*
X115905000Y-42290000D01*
G75*
G02*
X116055000Y-42140000I150000J0D01*
G01*
X116355000Y-42140000D01*
G75*
G02*
X116505000Y-42290000I0J-150000D01*
G01*
X116505000Y-43940000D01*
G75*
G02*
X116355000Y-44090000I-150000J0D01*
G01*
G37*
G36*
G01*
X117625000Y-44090000D02*
X117325000Y-44090000D01*
G75*
G02*
X117175000Y-43940000I0J150000D01*
G01*
X117175000Y-42290000D01*
G75*
G02*
X117325000Y-42140000I150000J0D01*
G01*
X117625000Y-42140000D01*
G75*
G02*
X117775000Y-42290000I0J-150000D01*
G01*
X117775000Y-43940000D01*
G75*
G02*
X117625000Y-44090000I-150000J0D01*
G01*
G37*
G36*
G01*
X118895000Y-44090000D02*
X118595000Y-44090000D01*
G75*
G02*
X118445000Y-43940000I0J150000D01*
G01*
X118445000Y-42290000D01*
G75*
G02*
X118595000Y-42140000I150000J0D01*
G01*
X118895000Y-42140000D01*
G75*
G02*
X119045000Y-42290000I0J-150000D01*
G01*
X119045000Y-43940000D01*
G75*
G02*
X118895000Y-44090000I-150000J0D01*
G01*
G37*
G36*
G01*
X118895000Y-39140000D02*
X118595000Y-39140000D01*
G75*
G02*
X118445000Y-38990000I0J150000D01*
G01*
X118445000Y-37340000D01*
G75*
G02*
X118595000Y-37190000I150000J0D01*
G01*
X118895000Y-37190000D01*
G75*
G02*
X119045000Y-37340000I0J-150000D01*
G01*
X119045000Y-38990000D01*
G75*
G02*
X118895000Y-39140000I-150000J0D01*
G01*
G37*
G36*
G01*
X117625000Y-39140000D02*
X117325000Y-39140000D01*
G75*
G02*
X117175000Y-38990000I0J150000D01*
G01*
X117175000Y-37340000D01*
G75*
G02*
X117325000Y-37190000I150000J0D01*
G01*
X117625000Y-37190000D01*
G75*
G02*
X117775000Y-37340000I0J-150000D01*
G01*
X117775000Y-38990000D01*
G75*
G02*
X117625000Y-39140000I-150000J0D01*
G01*
G37*
G36*
G01*
X116355000Y-39140000D02*
X116055000Y-39140000D01*
G75*
G02*
X115905000Y-38990000I0J150000D01*
G01*
X115905000Y-37340000D01*
G75*
G02*
X116055000Y-37190000I150000J0D01*
G01*
X116355000Y-37190000D01*
G75*
G02*
X116505000Y-37340000I0J-150000D01*
G01*
X116505000Y-38990000D01*
G75*
G02*
X116355000Y-39140000I-150000J0D01*
G01*
G37*
G36*
G01*
X115085000Y-39140000D02*
X114785000Y-39140000D01*
G75*
G02*
X114635000Y-38990000I0J150000D01*
G01*
X114635000Y-37340000D01*
G75*
G02*
X114785000Y-37190000I150000J0D01*
G01*
X115085000Y-37190000D01*
G75*
G02*
X115235000Y-37340000I0J-150000D01*
G01*
X115235000Y-38990000D01*
G75*
G02*
X115085000Y-39140000I-150000J0D01*
G01*
G37*
G36*
G01*
X113815000Y-39140000D02*
X113515000Y-39140000D01*
G75*
G02*
X113365000Y-38990000I0J150000D01*
G01*
X113365000Y-37340000D01*
G75*
G02*
X113515000Y-37190000I150000J0D01*
G01*
X113815000Y-37190000D01*
G75*
G02*
X113965000Y-37340000I0J-150000D01*
G01*
X113965000Y-38990000D01*
G75*
G02*
X113815000Y-39140000I-150000J0D01*
G01*
G37*
G36*
G01*
X112545000Y-39140000D02*
X112245000Y-39140000D01*
G75*
G02*
X112095000Y-38990000I0J150000D01*
G01*
X112095000Y-37340000D01*
G75*
G02*
X112245000Y-37190000I150000J0D01*
G01*
X112545000Y-37190000D01*
G75*
G02*
X112695000Y-37340000I0J-150000D01*
G01*
X112695000Y-38990000D01*
G75*
G02*
X112545000Y-39140000I-150000J0D01*
G01*
G37*
G36*
G01*
X111275000Y-39140000D02*
X110975000Y-39140000D01*
G75*
G02*
X110825000Y-38990000I0J150000D01*
G01*
X110825000Y-37340000D01*
G75*
G02*
X110975000Y-37190000I150000J0D01*
G01*
X111275000Y-37190000D01*
G75*
G02*
X111425000Y-37340000I0J-150000D01*
G01*
X111425000Y-38990000D01*
G75*
G02*
X111275000Y-39140000I-150000J0D01*
G01*
G37*
G36*
G01*
X81917500Y-32852500D02*
X81917500Y-32552500D01*
G75*
G02*
X82067500Y-32402500I150000J0D01*
G01*
X83667500Y-32402500D01*
G75*
G02*
X83817500Y-32552500I0J-150000D01*
G01*
X83817500Y-32852500D01*
G75*
G02*
X83667500Y-33002500I-150000J0D01*
G01*
X82067500Y-33002500D01*
G75*
G02*
X81917500Y-32852500I0J150000D01*
G01*
G37*
G36*
G01*
X81917500Y-34122500D02*
X81917500Y-33822500D01*
G75*
G02*
X82067500Y-33672500I150000J0D01*
G01*
X83667500Y-33672500D01*
G75*
G02*
X83817500Y-33822500I0J-150000D01*
G01*
X83817500Y-34122500D01*
G75*
G02*
X83667500Y-34272500I-150000J0D01*
G01*
X82067500Y-34272500D01*
G75*
G02*
X81917500Y-34122500I0J150000D01*
G01*
G37*
G36*
G01*
X81917500Y-35392500D02*
X81917500Y-35092500D01*
G75*
G02*
X82067500Y-34942500I150000J0D01*
G01*
X83667500Y-34942500D01*
G75*
G02*
X83817500Y-35092500I0J-150000D01*
G01*
X83817500Y-35392500D01*
G75*
G02*
X83667500Y-35542500I-150000J0D01*
G01*
X82067500Y-35542500D01*
G75*
G02*
X81917500Y-35392500I0J150000D01*
G01*
G37*
G36*
G01*
X81917500Y-36662500D02*
X81917500Y-36362500D01*
G75*
G02*
X82067500Y-36212500I150000J0D01*
G01*
X83667500Y-36212500D01*
G75*
G02*
X83817500Y-36362500I0J-150000D01*
G01*
X83817500Y-36662500D01*
G75*
G02*
X83667500Y-36812500I-150000J0D01*
G01*
X82067500Y-36812500D01*
G75*
G02*
X81917500Y-36662500I0J150000D01*
G01*
G37*
G36*
G01*
X81917500Y-37932500D02*
X81917500Y-37632500D01*
G75*
G02*
X82067500Y-37482500I150000J0D01*
G01*
X83667500Y-37482500D01*
G75*
G02*
X83817500Y-37632500I0J-150000D01*
G01*
X83817500Y-37932500D01*
G75*
G02*
X83667500Y-38082500I-150000J0D01*
G01*
X82067500Y-38082500D01*
G75*
G02*
X81917500Y-37932500I0J150000D01*
G01*
G37*
G36*
G01*
X81917500Y-39202500D02*
X81917500Y-38902500D01*
G75*
G02*
X82067500Y-38752500I150000J0D01*
G01*
X83667500Y-38752500D01*
G75*
G02*
X83817500Y-38902500I0J-150000D01*
G01*
X83817500Y-39202500D01*
G75*
G02*
X83667500Y-39352500I-150000J0D01*
G01*
X82067500Y-39352500D01*
G75*
G02*
X81917500Y-39202500I0J150000D01*
G01*
G37*
G36*
G01*
X81917500Y-40472500D02*
X81917500Y-40172500D01*
G75*
G02*
X82067500Y-40022500I150000J0D01*
G01*
X83667500Y-40022500D01*
G75*
G02*
X83817500Y-40172500I0J-150000D01*
G01*
X83817500Y-40472500D01*
G75*
G02*
X83667500Y-40622500I-150000J0D01*
G01*
X82067500Y-40622500D01*
G75*
G02*
X81917500Y-40472500I0J150000D01*
G01*
G37*
G36*
G01*
X81917500Y-41742500D02*
X81917500Y-41442500D01*
G75*
G02*
X82067500Y-41292500I150000J0D01*
G01*
X83667500Y-41292500D01*
G75*
G02*
X83817500Y-41442500I0J-150000D01*
G01*
X83817500Y-41742500D01*
G75*
G02*
X83667500Y-41892500I-150000J0D01*
G01*
X82067500Y-41892500D01*
G75*
G02*
X81917500Y-41742500I0J150000D01*
G01*
G37*
G36*
G01*
X81917500Y-43012500D02*
X81917500Y-42712500D01*
G75*
G02*
X82067500Y-42562500I150000J0D01*
G01*
X83667500Y-42562500D01*
G75*
G02*
X83817500Y-42712500I0J-150000D01*
G01*
X83817500Y-43012500D01*
G75*
G02*
X83667500Y-43162500I-150000J0D01*
G01*
X82067500Y-43162500D01*
G75*
G02*
X81917500Y-43012500I0J150000D01*
G01*
G37*
G36*
G01*
X81917500Y-44282500D02*
X81917500Y-43982500D01*
G75*
G02*
X82067500Y-43832500I150000J0D01*
G01*
X83667500Y-43832500D01*
G75*
G02*
X83817500Y-43982500I0J-150000D01*
G01*
X83817500Y-44282500D01*
G75*
G02*
X83667500Y-44432500I-150000J0D01*
G01*
X82067500Y-44432500D01*
G75*
G02*
X81917500Y-44282500I0J150000D01*
G01*
G37*
G36*
G01*
X91117500Y-44282500D02*
X91117500Y-43982500D01*
G75*
G02*
X91267500Y-43832500I150000J0D01*
G01*
X92867500Y-43832500D01*
G75*
G02*
X93017500Y-43982500I0J-150000D01*
G01*
X93017500Y-44282500D01*
G75*
G02*
X92867500Y-44432500I-150000J0D01*
G01*
X91267500Y-44432500D01*
G75*
G02*
X91117500Y-44282500I0J150000D01*
G01*
G37*
G36*
G01*
X91117500Y-43012500D02*
X91117500Y-42712500D01*
G75*
G02*
X91267500Y-42562500I150000J0D01*
G01*
X92867500Y-42562500D01*
G75*
G02*
X93017500Y-42712500I0J-150000D01*
G01*
X93017500Y-43012500D01*
G75*
G02*
X92867500Y-43162500I-150000J0D01*
G01*
X91267500Y-43162500D01*
G75*
G02*
X91117500Y-43012500I0J150000D01*
G01*
G37*
G36*
G01*
X91117500Y-41742500D02*
X91117500Y-41442500D01*
G75*
G02*
X91267500Y-41292500I150000J0D01*
G01*
X92867500Y-41292500D01*
G75*
G02*
X93017500Y-41442500I0J-150000D01*
G01*
X93017500Y-41742500D01*
G75*
G02*
X92867500Y-41892500I-150000J0D01*
G01*
X91267500Y-41892500D01*
G75*
G02*
X91117500Y-41742500I0J150000D01*
G01*
G37*
G36*
G01*
X91117500Y-40472500D02*
X91117500Y-40172500D01*
G75*
G02*
X91267500Y-40022500I150000J0D01*
G01*
X92867500Y-40022500D01*
G75*
G02*
X93017500Y-40172500I0J-150000D01*
G01*
X93017500Y-40472500D01*
G75*
G02*
X92867500Y-40622500I-150000J0D01*
G01*
X91267500Y-40622500D01*
G75*
G02*
X91117500Y-40472500I0J150000D01*
G01*
G37*
G36*
G01*
X91117500Y-39202500D02*
X91117500Y-38902500D01*
G75*
G02*
X91267500Y-38752500I150000J0D01*
G01*
X92867500Y-38752500D01*
G75*
G02*
X93017500Y-38902500I0J-150000D01*
G01*
X93017500Y-39202500D01*
G75*
G02*
X92867500Y-39352500I-150000J0D01*
G01*
X91267500Y-39352500D01*
G75*
G02*
X91117500Y-39202500I0J150000D01*
G01*
G37*
G36*
G01*
X91117500Y-37932500D02*
X91117500Y-37632500D01*
G75*
G02*
X91267500Y-37482500I150000J0D01*
G01*
X92867500Y-37482500D01*
G75*
G02*
X93017500Y-37632500I0J-150000D01*
G01*
X93017500Y-37932500D01*
G75*
G02*
X92867500Y-38082500I-150000J0D01*
G01*
X91267500Y-38082500D01*
G75*
G02*
X91117500Y-37932500I0J150000D01*
G01*
G37*
G36*
G01*
X91117500Y-36662500D02*
X91117500Y-36362500D01*
G75*
G02*
X91267500Y-36212500I150000J0D01*
G01*
X92867500Y-36212500D01*
G75*
G02*
X93017500Y-36362500I0J-150000D01*
G01*
X93017500Y-36662500D01*
G75*
G02*
X92867500Y-36812500I-150000J0D01*
G01*
X91267500Y-36812500D01*
G75*
G02*
X91117500Y-36662500I0J150000D01*
G01*
G37*
G36*
G01*
X91117500Y-35392500D02*
X91117500Y-35092500D01*
G75*
G02*
X91267500Y-34942500I150000J0D01*
G01*
X92867500Y-34942500D01*
G75*
G02*
X93017500Y-35092500I0J-150000D01*
G01*
X93017500Y-35392500D01*
G75*
G02*
X92867500Y-35542500I-150000J0D01*
G01*
X91267500Y-35542500D01*
G75*
G02*
X91117500Y-35392500I0J150000D01*
G01*
G37*
G36*
G01*
X91117500Y-34122500D02*
X91117500Y-33822500D01*
G75*
G02*
X91267500Y-33672500I150000J0D01*
G01*
X92867500Y-33672500D01*
G75*
G02*
X93017500Y-33822500I0J-150000D01*
G01*
X93017500Y-34122500D01*
G75*
G02*
X92867500Y-34272500I-150000J0D01*
G01*
X91267500Y-34272500D01*
G75*
G02*
X91117500Y-34122500I0J150000D01*
G01*
G37*
G36*
G01*
X91117500Y-32852500D02*
X91117500Y-32552500D01*
G75*
G02*
X91267500Y-32402500I150000J0D01*
G01*
X92867500Y-32402500D01*
G75*
G02*
X93017500Y-32552500I0J-150000D01*
G01*
X93017500Y-32852500D01*
G75*
G02*
X92867500Y-33002500I-150000J0D01*
G01*
X91267500Y-33002500D01*
G75*
G02*
X91117500Y-32852500I0J150000D01*
G01*
G37*
D12*
X119380000Y-53340000D03*
D14*
X116840000Y-53340000D03*
X114300000Y-53340000D03*
D15*
X59690000Y-20320000D03*
D16*
X59690000Y-17780000D03*
X69850000Y-47625000D03*
D15*
X69850000Y-45085000D03*
D12*
X76200000Y-53340000D03*
M02*
