G04 #@! TF.GenerationSoftware,KiCad,Pcbnew,(5.1.8)-1*
G04 #@! TF.CreationDate,2023-07-12T23:01:09+03:00*
G04 #@! TF.ProjectId,Reg,5265672e-6b69-4636-9164-5f7063625858,rev?*
G04 #@! TF.SameCoordinates,Original*
G04 #@! TF.FileFunction,Copper,L1,Top*
G04 #@! TF.FilePolarity,Positive*
%FSLAX46Y46*%
G04 Gerber Fmt 4.6, Leading zero omitted, Abs format (unit mm)*
G04 Created by KiCad (PCBNEW (5.1.8)-1) date 2023-07-12 23:01:09*
%MOMM*%
%LPD*%
G01*
G04 APERTURE LIST*
G04 #@! TA.AperFunction,NonConductor*
%ADD10C,0.200000*%
G04 #@! TD*
G04 #@! TA.AperFunction,NonConductor*
%ADD11C,0.300000*%
G04 #@! TD*
G04 #@! TA.AperFunction,ComponentPad*
%ADD12O,1.600000X1.600000*%
G04 #@! TD*
G04 #@! TA.AperFunction,ComponentPad*
%ADD13C,1.600000*%
G04 #@! TD*
G04 #@! TA.AperFunction,ComponentPad*
%ADD14R,2.100000X2.200000*%
G04 #@! TD*
G04 #@! TA.AperFunction,ComponentPad*
%ADD15O,1.600000X2.200000*%
G04 #@! TD*
G04 #@! TA.AperFunction,ComponentPad*
%ADD16O,2.100000X2.200000*%
G04 #@! TD*
G04 #@! TA.AperFunction,ComponentPad*
%ADD17O,1.700000X1.700000*%
G04 #@! TD*
G04 #@! TA.AperFunction,ComponentPad*
%ADD18R,1.700000X1.700000*%
G04 #@! TD*
G04 #@! TA.AperFunction,ViaPad*
%ADD19C,1.500000*%
G04 #@! TD*
G04 #@! TA.AperFunction,Conductor*
%ADD20C,0.250000*%
G04 #@! TD*
G04 #@! TA.AperFunction,Conductor*
%ADD21C,0.500000*%
G04 #@! TD*
G04 #@! TA.AperFunction,Conductor*
%ADD22C,0.400000*%
G04 #@! TD*
G04 APERTURE END LIST*
D10*
X62547500Y-42227500D02*
G75*
G03*
X62547500Y-42227500I-317500J0D01*
G01*
X110588571Y-51263500D02*
X111788571Y-51263500D01*
X111560000Y-52816071D02*
X111502857Y-52873214D01*
X111331428Y-52930357D01*
X111217142Y-52930357D01*
X111045714Y-52873214D01*
X110931428Y-52758928D01*
X110874285Y-52644642D01*
X110817142Y-52416071D01*
X110817142Y-52244642D01*
X110874285Y-52016071D01*
X110931428Y-51901785D01*
X111045714Y-51787500D01*
X111217142Y-51730357D01*
X111331428Y-51730357D01*
X111502857Y-51787500D01*
X111560000Y-51844642D01*
X111788571Y-51263500D02*
X112931428Y-51263500D01*
X112017142Y-52873214D02*
X112188571Y-52930357D01*
X112474285Y-52930357D01*
X112588571Y-52873214D01*
X112645714Y-52816071D01*
X112702857Y-52701785D01*
X112702857Y-52587500D01*
X112645714Y-52473214D01*
X112588571Y-52416071D01*
X112474285Y-52358928D01*
X112245714Y-52301785D01*
X112131428Y-52244642D01*
X112074285Y-52187500D01*
X112017142Y-52073214D01*
X112017142Y-51958928D01*
X112074285Y-51844642D01*
X112131428Y-51787500D01*
X112245714Y-51730357D01*
X112531428Y-51730357D01*
X112702857Y-51787500D01*
X83185000Y-31432500D02*
G75*
G03*
X83185000Y-31432500I-317500J0D01*
G01*
D11*
X105839285Y-25126071D02*
X104982142Y-25126071D01*
X105410714Y-25126071D02*
X105410714Y-23626071D01*
X105267857Y-23840357D01*
X105125000Y-23983214D01*
X104982142Y-24054642D01*
X106410714Y-23768928D02*
X106482142Y-23697500D01*
X106625000Y-23626071D01*
X106982142Y-23626071D01*
X107125000Y-23697500D01*
X107196428Y-23768928D01*
X107267857Y-23911785D01*
X107267857Y-24054642D01*
X107196428Y-24268928D01*
X106339285Y-25126071D01*
X107267857Y-25126071D01*
X107910714Y-24983214D02*
X107982142Y-25054642D01*
X107910714Y-25126071D01*
X107839285Y-25054642D01*
X107910714Y-24983214D01*
X107910714Y-25126071D01*
X108910714Y-23626071D02*
X109053571Y-23626071D01*
X109196428Y-23697500D01*
X109267857Y-23768928D01*
X109339285Y-23911785D01*
X109410714Y-24197500D01*
X109410714Y-24554642D01*
X109339285Y-24840357D01*
X109267857Y-24983214D01*
X109196428Y-25054642D01*
X109053571Y-25126071D01*
X108910714Y-25126071D01*
X108767857Y-25054642D01*
X108696428Y-24983214D01*
X108625000Y-24840357D01*
X108553571Y-24554642D01*
X108553571Y-24197500D01*
X108625000Y-23911785D01*
X108696428Y-23768928D01*
X108767857Y-23697500D01*
X108910714Y-23626071D01*
X109910714Y-23626071D02*
X110910714Y-23626071D01*
X110267857Y-25126071D01*
X111482142Y-24983214D02*
X111553571Y-25054642D01*
X111482142Y-25126071D01*
X111410714Y-25054642D01*
X111482142Y-24983214D01*
X111482142Y-25126071D01*
X112125000Y-23768928D02*
X112196428Y-23697500D01*
X112339285Y-23626071D01*
X112696428Y-23626071D01*
X112839285Y-23697500D01*
X112910714Y-23768928D01*
X112982142Y-23911785D01*
X112982142Y-24054642D01*
X112910714Y-24268928D01*
X112053571Y-25126071D01*
X112982142Y-25126071D01*
X113910714Y-23626071D02*
X114053571Y-23626071D01*
X114196428Y-23697500D01*
X114267857Y-23768928D01*
X114339285Y-23911785D01*
X114410714Y-24197500D01*
X114410714Y-24554642D01*
X114339285Y-24840357D01*
X114267857Y-24983214D01*
X114196428Y-25054642D01*
X114053571Y-25126071D01*
X113910714Y-25126071D01*
X113767857Y-25054642D01*
X113696428Y-24983214D01*
X113625000Y-24840357D01*
X113553571Y-24554642D01*
X113553571Y-24197500D01*
X113625000Y-23911785D01*
X113696428Y-23768928D01*
X113767857Y-23697500D01*
X113910714Y-23626071D01*
X114982142Y-23768928D02*
X115053571Y-23697500D01*
X115196428Y-23626071D01*
X115553571Y-23626071D01*
X115696428Y-23697500D01*
X115767857Y-23768928D01*
X115839285Y-23911785D01*
X115839285Y-24054642D01*
X115767857Y-24268928D01*
X114910714Y-25126071D01*
X115839285Y-25126071D01*
X116339285Y-23626071D02*
X117267857Y-23626071D01*
X116767857Y-24197500D01*
X116982142Y-24197500D01*
X117125000Y-24268928D01*
X117196428Y-24340357D01*
X117267857Y-24483214D01*
X117267857Y-24840357D01*
X117196428Y-24983214D01*
X117125000Y-25054642D01*
X116982142Y-25126071D01*
X116553571Y-25126071D01*
X116410714Y-25054642D01*
X116339285Y-24983214D01*
X106839285Y-27118571D02*
X107839285Y-27118571D01*
X107196428Y-28618571D01*
X109053571Y-27618571D02*
X109053571Y-28618571D01*
X108696428Y-27047142D02*
X108339285Y-28118571D01*
X109267857Y-28118571D01*
X109839285Y-28618571D02*
X109839285Y-27118571D01*
X109839285Y-27832857D02*
X110696428Y-27832857D01*
X110696428Y-28618571D02*
X110696428Y-27118571D01*
X112267857Y-28475714D02*
X112196428Y-28547142D01*
X111982142Y-28618571D01*
X111839285Y-28618571D01*
X111625000Y-28547142D01*
X111482142Y-28404285D01*
X111410714Y-28261428D01*
X111339285Y-27975714D01*
X111339285Y-27761428D01*
X111410714Y-27475714D01*
X111482142Y-27332857D01*
X111625000Y-27190000D01*
X111839285Y-27118571D01*
X111982142Y-27118571D01*
X112196428Y-27190000D01*
X112267857Y-27261428D01*
X112910714Y-28618571D02*
X112910714Y-27118571D01*
X113482142Y-27118571D01*
X113625000Y-27190000D01*
X113696428Y-27261428D01*
X113767857Y-27404285D01*
X113767857Y-27618571D01*
X113696428Y-27761428D01*
X113625000Y-27832857D01*
X113482142Y-27904285D01*
X112910714Y-27904285D01*
X114410714Y-27118571D02*
X114410714Y-28332857D01*
X114482142Y-28475714D01*
X114553571Y-28547142D01*
X114696428Y-28618571D01*
X114982142Y-28618571D01*
X115125000Y-28547142D01*
X115196428Y-28475714D01*
X115267857Y-28332857D01*
X115267857Y-27118571D01*
D10*
X109855000Y-43180000D02*
G75*
G03*
X109855000Y-43180000I-317500J0D01*
G01*
X62547500Y-29210000D02*
G75*
G03*
X62547500Y-29210000I-317500J0D01*
G01*
D12*
X95250000Y-31750000D03*
D13*
X80010000Y-31750000D03*
G04 #@! TA.AperFunction,ComponentPad*
G36*
G01*
X73039861Y-40191498D02*
X73039861Y-40191498D01*
G75*
G02*
X74047920Y-39677867I760845J-247214D01*
G01*
X74047920Y-39677867D01*
G75*
G02*
X74561551Y-40685926I-247214J-760845D01*
G01*
X74561551Y-40685926D01*
G75*
G02*
X73553492Y-41199557I-760845J247214D01*
G01*
X73553492Y-41199557D01*
G75*
G02*
X73039861Y-40191498I247214J760845D01*
G01*
G37*
G04 #@! TD.AperFunction*
X61912500Y-36576000D03*
G04 #@! TA.AperFunction,ComponentPad*
G36*
G01*
X73103361Y-27872498D02*
X73103361Y-27872498D01*
G75*
G02*
X74111420Y-27358867I760845J-247214D01*
G01*
X74111420Y-27358867D01*
G75*
G02*
X74625051Y-28366926I-247214J-760845D01*
G01*
X74625051Y-28366926D01*
G75*
G02*
X73616992Y-28880557I-760845J247214D01*
G01*
X73616992Y-28880557D01*
G75*
G02*
X73103361Y-27872498I247214J760845D01*
G01*
G37*
G04 #@! TD.AperFunction*
X61976000Y-24257000D03*
G04 #@! TA.AperFunction,SMDPad,CuDef*
G36*
G01*
X63650000Y-24217500D02*
X63350000Y-24217500D01*
G75*
G02*
X63200000Y-24067500I0J150000D01*
G01*
X63200000Y-22367500D01*
G75*
G02*
X63350000Y-22217500I150000J0D01*
G01*
X63650000Y-22217500D01*
G75*
G02*
X63800000Y-22367500I0J-150000D01*
G01*
X63800000Y-24067500D01*
G75*
G02*
X63650000Y-24217500I-150000J0D01*
G01*
G37*
G04 #@! TD.AperFunction*
G04 #@! TA.AperFunction,SMDPad,CuDef*
G36*
G01*
X64920000Y-24217500D02*
X64620000Y-24217500D01*
G75*
G02*
X64470000Y-24067500I0J150000D01*
G01*
X64470000Y-22367500D01*
G75*
G02*
X64620000Y-22217500I150000J0D01*
G01*
X64920000Y-22217500D01*
G75*
G02*
X65070000Y-22367500I0J-150000D01*
G01*
X65070000Y-24067500D01*
G75*
G02*
X64920000Y-24217500I-150000J0D01*
G01*
G37*
G04 #@! TD.AperFunction*
G04 #@! TA.AperFunction,SMDPad,CuDef*
G36*
G01*
X66190000Y-24217500D02*
X65890000Y-24217500D01*
G75*
G02*
X65740000Y-24067500I0J150000D01*
G01*
X65740000Y-22367500D01*
G75*
G02*
X65890000Y-22217500I150000J0D01*
G01*
X66190000Y-22217500D01*
G75*
G02*
X66340000Y-22367500I0J-150000D01*
G01*
X66340000Y-24067500D01*
G75*
G02*
X66190000Y-24217500I-150000J0D01*
G01*
G37*
G04 #@! TD.AperFunction*
G04 #@! TA.AperFunction,SMDPad,CuDef*
G36*
G01*
X67460000Y-24217500D02*
X67160000Y-24217500D01*
G75*
G02*
X67010000Y-24067500I0J150000D01*
G01*
X67010000Y-22367500D01*
G75*
G02*
X67160000Y-22217500I150000J0D01*
G01*
X67460000Y-22217500D01*
G75*
G02*
X67610000Y-22367500I0J-150000D01*
G01*
X67610000Y-24067500D01*
G75*
G02*
X67460000Y-24217500I-150000J0D01*
G01*
G37*
G04 #@! TD.AperFunction*
G04 #@! TA.AperFunction,SMDPad,CuDef*
G36*
G01*
X68730000Y-24217500D02*
X68430000Y-24217500D01*
G75*
G02*
X68280000Y-24067500I0J150000D01*
G01*
X68280000Y-22367500D01*
G75*
G02*
X68430000Y-22217500I150000J0D01*
G01*
X68730000Y-22217500D01*
G75*
G02*
X68880000Y-22367500I0J-150000D01*
G01*
X68880000Y-24067500D01*
G75*
G02*
X68730000Y-24217500I-150000J0D01*
G01*
G37*
G04 #@! TD.AperFunction*
G04 #@! TA.AperFunction,SMDPad,CuDef*
G36*
G01*
X70000000Y-24217500D02*
X69700000Y-24217500D01*
G75*
G02*
X69550000Y-24067500I0J150000D01*
G01*
X69550000Y-22367500D01*
G75*
G02*
X69700000Y-22217500I150000J0D01*
G01*
X70000000Y-22217500D01*
G75*
G02*
X70150000Y-22367500I0J-150000D01*
G01*
X70150000Y-24067500D01*
G75*
G02*
X70000000Y-24217500I-150000J0D01*
G01*
G37*
G04 #@! TD.AperFunction*
G04 #@! TA.AperFunction,SMDPad,CuDef*
G36*
G01*
X71270000Y-24217500D02*
X70970000Y-24217500D01*
G75*
G02*
X70820000Y-24067500I0J150000D01*
G01*
X70820000Y-22367500D01*
G75*
G02*
X70970000Y-22217500I150000J0D01*
G01*
X71270000Y-22217500D01*
G75*
G02*
X71420000Y-22367500I0J-150000D01*
G01*
X71420000Y-24067500D01*
G75*
G02*
X71270000Y-24217500I-150000J0D01*
G01*
G37*
G04 #@! TD.AperFunction*
G04 #@! TA.AperFunction,SMDPad,CuDef*
G36*
G01*
X72540000Y-24217500D02*
X72240000Y-24217500D01*
G75*
G02*
X72090000Y-24067500I0J150000D01*
G01*
X72090000Y-22367500D01*
G75*
G02*
X72240000Y-22217500I150000J0D01*
G01*
X72540000Y-22217500D01*
G75*
G02*
X72690000Y-22367500I0J-150000D01*
G01*
X72690000Y-24067500D01*
G75*
G02*
X72540000Y-24217500I-150000J0D01*
G01*
G37*
G04 #@! TD.AperFunction*
G04 #@! TA.AperFunction,SMDPad,CuDef*
G36*
G01*
X72540000Y-29217500D02*
X72240000Y-29217500D01*
G75*
G02*
X72090000Y-29067500I0J150000D01*
G01*
X72090000Y-27367500D01*
G75*
G02*
X72240000Y-27217500I150000J0D01*
G01*
X72540000Y-27217500D01*
G75*
G02*
X72690000Y-27367500I0J-150000D01*
G01*
X72690000Y-29067500D01*
G75*
G02*
X72540000Y-29217500I-150000J0D01*
G01*
G37*
G04 #@! TD.AperFunction*
G04 #@! TA.AperFunction,SMDPad,CuDef*
G36*
G01*
X71270000Y-29217500D02*
X70970000Y-29217500D01*
G75*
G02*
X70820000Y-29067500I0J150000D01*
G01*
X70820000Y-27367500D01*
G75*
G02*
X70970000Y-27217500I150000J0D01*
G01*
X71270000Y-27217500D01*
G75*
G02*
X71420000Y-27367500I0J-150000D01*
G01*
X71420000Y-29067500D01*
G75*
G02*
X71270000Y-29217500I-150000J0D01*
G01*
G37*
G04 #@! TD.AperFunction*
G04 #@! TA.AperFunction,SMDPad,CuDef*
G36*
G01*
X70000000Y-29217500D02*
X69700000Y-29217500D01*
G75*
G02*
X69550000Y-29067500I0J150000D01*
G01*
X69550000Y-27367500D01*
G75*
G02*
X69700000Y-27217500I150000J0D01*
G01*
X70000000Y-27217500D01*
G75*
G02*
X70150000Y-27367500I0J-150000D01*
G01*
X70150000Y-29067500D01*
G75*
G02*
X70000000Y-29217500I-150000J0D01*
G01*
G37*
G04 #@! TD.AperFunction*
G04 #@! TA.AperFunction,SMDPad,CuDef*
G36*
G01*
X68730000Y-29217500D02*
X68430000Y-29217500D01*
G75*
G02*
X68280000Y-29067500I0J150000D01*
G01*
X68280000Y-27367500D01*
G75*
G02*
X68430000Y-27217500I150000J0D01*
G01*
X68730000Y-27217500D01*
G75*
G02*
X68880000Y-27367500I0J-150000D01*
G01*
X68880000Y-29067500D01*
G75*
G02*
X68730000Y-29217500I-150000J0D01*
G01*
G37*
G04 #@! TD.AperFunction*
G04 #@! TA.AperFunction,SMDPad,CuDef*
G36*
G01*
X67460000Y-29217500D02*
X67160000Y-29217500D01*
G75*
G02*
X67010000Y-29067500I0J150000D01*
G01*
X67010000Y-27367500D01*
G75*
G02*
X67160000Y-27217500I150000J0D01*
G01*
X67460000Y-27217500D01*
G75*
G02*
X67610000Y-27367500I0J-150000D01*
G01*
X67610000Y-29067500D01*
G75*
G02*
X67460000Y-29217500I-150000J0D01*
G01*
G37*
G04 #@! TD.AperFunction*
G04 #@! TA.AperFunction,SMDPad,CuDef*
G36*
G01*
X66190000Y-29217500D02*
X65890000Y-29217500D01*
G75*
G02*
X65740000Y-29067500I0J150000D01*
G01*
X65740000Y-27367500D01*
G75*
G02*
X65890000Y-27217500I150000J0D01*
G01*
X66190000Y-27217500D01*
G75*
G02*
X66340000Y-27367500I0J-150000D01*
G01*
X66340000Y-29067500D01*
G75*
G02*
X66190000Y-29217500I-150000J0D01*
G01*
G37*
G04 #@! TD.AperFunction*
G04 #@! TA.AperFunction,SMDPad,CuDef*
G36*
G01*
X64920000Y-29217500D02*
X64620000Y-29217500D01*
G75*
G02*
X64470000Y-29067500I0J150000D01*
G01*
X64470000Y-27367500D01*
G75*
G02*
X64620000Y-27217500I150000J0D01*
G01*
X64920000Y-27217500D01*
G75*
G02*
X65070000Y-27367500I0J-150000D01*
G01*
X65070000Y-29067500D01*
G75*
G02*
X64920000Y-29217500I-150000J0D01*
G01*
G37*
G04 #@! TD.AperFunction*
G04 #@! TA.AperFunction,SMDPad,CuDef*
G36*
G01*
X63650000Y-29217500D02*
X63350000Y-29217500D01*
G75*
G02*
X63200000Y-29067500I0J150000D01*
G01*
X63200000Y-27367500D01*
G75*
G02*
X63350000Y-27217500I150000J0D01*
G01*
X63650000Y-27217500D01*
G75*
G02*
X63800000Y-27367500I0J-150000D01*
G01*
X63800000Y-29067500D01*
G75*
G02*
X63650000Y-29217500I-150000J0D01*
G01*
G37*
G04 #@! TD.AperFunction*
G04 #@! TA.AperFunction,SMDPad,CuDef*
G36*
G01*
X63650000Y-36917500D02*
X63350000Y-36917500D01*
G75*
G02*
X63200000Y-36767500I0J150000D01*
G01*
X63200000Y-35067500D01*
G75*
G02*
X63350000Y-34917500I150000J0D01*
G01*
X63650000Y-34917500D01*
G75*
G02*
X63800000Y-35067500I0J-150000D01*
G01*
X63800000Y-36767500D01*
G75*
G02*
X63650000Y-36917500I-150000J0D01*
G01*
G37*
G04 #@! TD.AperFunction*
G04 #@! TA.AperFunction,SMDPad,CuDef*
G36*
G01*
X64920000Y-36917500D02*
X64620000Y-36917500D01*
G75*
G02*
X64470000Y-36767500I0J150000D01*
G01*
X64470000Y-35067500D01*
G75*
G02*
X64620000Y-34917500I150000J0D01*
G01*
X64920000Y-34917500D01*
G75*
G02*
X65070000Y-35067500I0J-150000D01*
G01*
X65070000Y-36767500D01*
G75*
G02*
X64920000Y-36917500I-150000J0D01*
G01*
G37*
G04 #@! TD.AperFunction*
G04 #@! TA.AperFunction,SMDPad,CuDef*
G36*
G01*
X66190000Y-36917500D02*
X65890000Y-36917500D01*
G75*
G02*
X65740000Y-36767500I0J150000D01*
G01*
X65740000Y-35067500D01*
G75*
G02*
X65890000Y-34917500I150000J0D01*
G01*
X66190000Y-34917500D01*
G75*
G02*
X66340000Y-35067500I0J-150000D01*
G01*
X66340000Y-36767500D01*
G75*
G02*
X66190000Y-36917500I-150000J0D01*
G01*
G37*
G04 #@! TD.AperFunction*
G04 #@! TA.AperFunction,SMDPad,CuDef*
G36*
G01*
X67460000Y-36917500D02*
X67160000Y-36917500D01*
G75*
G02*
X67010000Y-36767500I0J150000D01*
G01*
X67010000Y-35067500D01*
G75*
G02*
X67160000Y-34917500I150000J0D01*
G01*
X67460000Y-34917500D01*
G75*
G02*
X67610000Y-35067500I0J-150000D01*
G01*
X67610000Y-36767500D01*
G75*
G02*
X67460000Y-36917500I-150000J0D01*
G01*
G37*
G04 #@! TD.AperFunction*
G04 #@! TA.AperFunction,SMDPad,CuDef*
G36*
G01*
X68730000Y-36917500D02*
X68430000Y-36917500D01*
G75*
G02*
X68280000Y-36767500I0J150000D01*
G01*
X68280000Y-35067500D01*
G75*
G02*
X68430000Y-34917500I150000J0D01*
G01*
X68730000Y-34917500D01*
G75*
G02*
X68880000Y-35067500I0J-150000D01*
G01*
X68880000Y-36767500D01*
G75*
G02*
X68730000Y-36917500I-150000J0D01*
G01*
G37*
G04 #@! TD.AperFunction*
G04 #@! TA.AperFunction,SMDPad,CuDef*
G36*
G01*
X70000000Y-36917500D02*
X69700000Y-36917500D01*
G75*
G02*
X69550000Y-36767500I0J150000D01*
G01*
X69550000Y-35067500D01*
G75*
G02*
X69700000Y-34917500I150000J0D01*
G01*
X70000000Y-34917500D01*
G75*
G02*
X70150000Y-35067500I0J-150000D01*
G01*
X70150000Y-36767500D01*
G75*
G02*
X70000000Y-36917500I-150000J0D01*
G01*
G37*
G04 #@! TD.AperFunction*
G04 #@! TA.AperFunction,SMDPad,CuDef*
G36*
G01*
X71270000Y-36917500D02*
X70970000Y-36917500D01*
G75*
G02*
X70820000Y-36767500I0J150000D01*
G01*
X70820000Y-35067500D01*
G75*
G02*
X70970000Y-34917500I150000J0D01*
G01*
X71270000Y-34917500D01*
G75*
G02*
X71420000Y-35067500I0J-150000D01*
G01*
X71420000Y-36767500D01*
G75*
G02*
X71270000Y-36917500I-150000J0D01*
G01*
G37*
G04 #@! TD.AperFunction*
G04 #@! TA.AperFunction,SMDPad,CuDef*
G36*
G01*
X72540000Y-36917500D02*
X72240000Y-36917500D01*
G75*
G02*
X72090000Y-36767500I0J150000D01*
G01*
X72090000Y-35067500D01*
G75*
G02*
X72240000Y-34917500I150000J0D01*
G01*
X72540000Y-34917500D01*
G75*
G02*
X72690000Y-35067500I0J-150000D01*
G01*
X72690000Y-36767500D01*
G75*
G02*
X72540000Y-36917500I-150000J0D01*
G01*
G37*
G04 #@! TD.AperFunction*
G04 #@! TA.AperFunction,SMDPad,CuDef*
G36*
G01*
X72540000Y-41917500D02*
X72240000Y-41917500D01*
G75*
G02*
X72090000Y-41767500I0J150000D01*
G01*
X72090000Y-40067500D01*
G75*
G02*
X72240000Y-39917500I150000J0D01*
G01*
X72540000Y-39917500D01*
G75*
G02*
X72690000Y-40067500I0J-150000D01*
G01*
X72690000Y-41767500D01*
G75*
G02*
X72540000Y-41917500I-150000J0D01*
G01*
G37*
G04 #@! TD.AperFunction*
G04 #@! TA.AperFunction,SMDPad,CuDef*
G36*
G01*
X71270000Y-41917500D02*
X70970000Y-41917500D01*
G75*
G02*
X70820000Y-41767500I0J150000D01*
G01*
X70820000Y-40067500D01*
G75*
G02*
X70970000Y-39917500I150000J0D01*
G01*
X71270000Y-39917500D01*
G75*
G02*
X71420000Y-40067500I0J-150000D01*
G01*
X71420000Y-41767500D01*
G75*
G02*
X71270000Y-41917500I-150000J0D01*
G01*
G37*
G04 #@! TD.AperFunction*
G04 #@! TA.AperFunction,SMDPad,CuDef*
G36*
G01*
X70000000Y-41917500D02*
X69700000Y-41917500D01*
G75*
G02*
X69550000Y-41767500I0J150000D01*
G01*
X69550000Y-40067500D01*
G75*
G02*
X69700000Y-39917500I150000J0D01*
G01*
X70000000Y-39917500D01*
G75*
G02*
X70150000Y-40067500I0J-150000D01*
G01*
X70150000Y-41767500D01*
G75*
G02*
X70000000Y-41917500I-150000J0D01*
G01*
G37*
G04 #@! TD.AperFunction*
G04 #@! TA.AperFunction,SMDPad,CuDef*
G36*
G01*
X68730000Y-41917500D02*
X68430000Y-41917500D01*
G75*
G02*
X68280000Y-41767500I0J150000D01*
G01*
X68280000Y-40067500D01*
G75*
G02*
X68430000Y-39917500I150000J0D01*
G01*
X68730000Y-39917500D01*
G75*
G02*
X68880000Y-40067500I0J-150000D01*
G01*
X68880000Y-41767500D01*
G75*
G02*
X68730000Y-41917500I-150000J0D01*
G01*
G37*
G04 #@! TD.AperFunction*
G04 #@! TA.AperFunction,SMDPad,CuDef*
G36*
G01*
X67460000Y-41917500D02*
X67160000Y-41917500D01*
G75*
G02*
X67010000Y-41767500I0J150000D01*
G01*
X67010000Y-40067500D01*
G75*
G02*
X67160000Y-39917500I150000J0D01*
G01*
X67460000Y-39917500D01*
G75*
G02*
X67610000Y-40067500I0J-150000D01*
G01*
X67610000Y-41767500D01*
G75*
G02*
X67460000Y-41917500I-150000J0D01*
G01*
G37*
G04 #@! TD.AperFunction*
G04 #@! TA.AperFunction,SMDPad,CuDef*
G36*
G01*
X66190000Y-41917500D02*
X65890000Y-41917500D01*
G75*
G02*
X65740000Y-41767500I0J150000D01*
G01*
X65740000Y-40067500D01*
G75*
G02*
X65890000Y-39917500I150000J0D01*
G01*
X66190000Y-39917500D01*
G75*
G02*
X66340000Y-40067500I0J-150000D01*
G01*
X66340000Y-41767500D01*
G75*
G02*
X66190000Y-41917500I-150000J0D01*
G01*
G37*
G04 #@! TD.AperFunction*
G04 #@! TA.AperFunction,SMDPad,CuDef*
G36*
G01*
X64920000Y-41917500D02*
X64620000Y-41917500D01*
G75*
G02*
X64470000Y-41767500I0J150000D01*
G01*
X64470000Y-40067500D01*
G75*
G02*
X64620000Y-39917500I150000J0D01*
G01*
X64920000Y-39917500D01*
G75*
G02*
X65070000Y-40067500I0J-150000D01*
G01*
X65070000Y-41767500D01*
G75*
G02*
X64920000Y-41917500I-150000J0D01*
G01*
G37*
G04 #@! TD.AperFunction*
G04 #@! TA.AperFunction,SMDPad,CuDef*
G36*
G01*
X63650000Y-41917500D02*
X63350000Y-41917500D01*
G75*
G02*
X63200000Y-41767500I0J150000D01*
G01*
X63200000Y-40067500D01*
G75*
G02*
X63350000Y-39917500I150000J0D01*
G01*
X63650000Y-39917500D01*
G75*
G02*
X63800000Y-40067500I0J-150000D01*
G01*
X63800000Y-41767500D01*
G75*
G02*
X63650000Y-41917500I-150000J0D01*
G01*
G37*
G04 #@! TD.AperFunction*
G04 #@! TA.AperFunction,SMDPad,CuDef*
G36*
G01*
X85592500Y-46197500D02*
X85592500Y-47147500D01*
G75*
G02*
X85342500Y-47397500I-250000J0D01*
G01*
X84667500Y-47397500D01*
G75*
G02*
X84417500Y-47147500I0J250000D01*
G01*
X84417500Y-46197500D01*
G75*
G02*
X84667500Y-45947500I250000J0D01*
G01*
X85342500Y-45947500D01*
G75*
G02*
X85592500Y-46197500I0J-250000D01*
G01*
G37*
G04 #@! TD.AperFunction*
G04 #@! TA.AperFunction,SMDPad,CuDef*
G36*
G01*
X87667500Y-46197500D02*
X87667500Y-47147500D01*
G75*
G02*
X87417500Y-47397500I-250000J0D01*
G01*
X86742500Y-47397500D01*
G75*
G02*
X86492500Y-47147500I0J250000D01*
G01*
X86492500Y-46197500D01*
G75*
G02*
X86742500Y-45947500I250000J0D01*
G01*
X87417500Y-45947500D01*
G75*
G02*
X87667500Y-46197500I0J-250000D01*
G01*
G37*
G04 #@! TD.AperFunction*
G04 #@! TA.AperFunction,SMDPad,CuDef*
G36*
G01*
X99510001Y-23365000D02*
X98609999Y-23365000D01*
G75*
G02*
X98360000Y-23115001I0J249999D01*
G01*
X98360000Y-22414999D01*
G75*
G02*
X98609999Y-22165000I249999J0D01*
G01*
X99510001Y-22165000D01*
G75*
G02*
X99760000Y-22414999I0J-249999D01*
G01*
X99760000Y-23115001D01*
G75*
G02*
X99510001Y-23365000I-249999J0D01*
G01*
G37*
G04 #@! TD.AperFunction*
G04 #@! TA.AperFunction,SMDPad,CuDef*
G36*
G01*
X99510001Y-25365000D02*
X98609999Y-25365000D01*
G75*
G02*
X98360000Y-25115001I0J249999D01*
G01*
X98360000Y-24414999D01*
G75*
G02*
X98609999Y-24165000I249999J0D01*
G01*
X99510001Y-24165000D01*
G75*
G02*
X99760000Y-24414999I0J-249999D01*
G01*
X99760000Y-25115001D01*
G75*
G02*
X99510001Y-25365000I-249999J0D01*
G01*
G37*
G04 #@! TD.AperFunction*
G04 #@! TA.AperFunction,SMDPad,CuDef*
G36*
G01*
X96970001Y-23365000D02*
X96069999Y-23365000D01*
G75*
G02*
X95820000Y-23115001I0J249999D01*
G01*
X95820000Y-22414999D01*
G75*
G02*
X96069999Y-22165000I249999J0D01*
G01*
X96970001Y-22165000D01*
G75*
G02*
X97220000Y-22414999I0J-249999D01*
G01*
X97220000Y-23115001D01*
G75*
G02*
X96970001Y-23365000I-249999J0D01*
G01*
G37*
G04 #@! TD.AperFunction*
G04 #@! TA.AperFunction,SMDPad,CuDef*
G36*
G01*
X96970001Y-25365000D02*
X96069999Y-25365000D01*
G75*
G02*
X95820000Y-25115001I0J249999D01*
G01*
X95820000Y-24414999D01*
G75*
G02*
X96069999Y-24165000I249999J0D01*
G01*
X96970001Y-24165000D01*
G75*
G02*
X97220000Y-24414999I0J-249999D01*
G01*
X97220000Y-25115001D01*
G75*
G02*
X96970001Y-25365000I-249999J0D01*
G01*
G37*
G04 #@! TD.AperFunction*
G04 #@! TA.AperFunction,SMDPad,CuDef*
G36*
G01*
X94430001Y-23365000D02*
X93529999Y-23365000D01*
G75*
G02*
X93280000Y-23115001I0J249999D01*
G01*
X93280000Y-22414999D01*
G75*
G02*
X93529999Y-22165000I249999J0D01*
G01*
X94430001Y-22165000D01*
G75*
G02*
X94680000Y-22414999I0J-249999D01*
G01*
X94680000Y-23115001D01*
G75*
G02*
X94430001Y-23365000I-249999J0D01*
G01*
G37*
G04 #@! TD.AperFunction*
G04 #@! TA.AperFunction,SMDPad,CuDef*
G36*
G01*
X94430001Y-25365000D02*
X93529999Y-25365000D01*
G75*
G02*
X93280000Y-25115001I0J249999D01*
G01*
X93280000Y-24414999D01*
G75*
G02*
X93529999Y-24165000I249999J0D01*
G01*
X94430001Y-24165000D01*
G75*
G02*
X94680000Y-24414999I0J-249999D01*
G01*
X94680000Y-25115001D01*
G75*
G02*
X94430001Y-25365000I-249999J0D01*
G01*
G37*
G04 #@! TD.AperFunction*
G04 #@! TA.AperFunction,SMDPad,CuDef*
G36*
G01*
X91890001Y-23365000D02*
X90989999Y-23365000D01*
G75*
G02*
X90740000Y-23115001I0J249999D01*
G01*
X90740000Y-22414999D01*
G75*
G02*
X90989999Y-22165000I249999J0D01*
G01*
X91890001Y-22165000D01*
G75*
G02*
X92140000Y-22414999I0J-249999D01*
G01*
X92140000Y-23115001D01*
G75*
G02*
X91890001Y-23365000I-249999J0D01*
G01*
G37*
G04 #@! TD.AperFunction*
G04 #@! TA.AperFunction,SMDPad,CuDef*
G36*
G01*
X91890001Y-25365000D02*
X90989999Y-25365000D01*
G75*
G02*
X90740000Y-25115001I0J249999D01*
G01*
X90740000Y-24414999D01*
G75*
G02*
X90989999Y-24165000I249999J0D01*
G01*
X91890001Y-24165000D01*
G75*
G02*
X92140000Y-24414999I0J-249999D01*
G01*
X92140000Y-25115001D01*
G75*
G02*
X91890001Y-25365000I-249999J0D01*
G01*
G37*
G04 #@! TD.AperFunction*
G04 #@! TA.AperFunction,SMDPad,CuDef*
G36*
G01*
X89350001Y-23365000D02*
X88449999Y-23365000D01*
G75*
G02*
X88200000Y-23115001I0J249999D01*
G01*
X88200000Y-22414999D01*
G75*
G02*
X88449999Y-22165000I249999J0D01*
G01*
X89350001Y-22165000D01*
G75*
G02*
X89600000Y-22414999I0J-249999D01*
G01*
X89600000Y-23115001D01*
G75*
G02*
X89350001Y-23365000I-249999J0D01*
G01*
G37*
G04 #@! TD.AperFunction*
G04 #@! TA.AperFunction,SMDPad,CuDef*
G36*
G01*
X89350001Y-25365000D02*
X88449999Y-25365000D01*
G75*
G02*
X88200000Y-25115001I0J249999D01*
G01*
X88200000Y-24414999D01*
G75*
G02*
X88449999Y-24165000I249999J0D01*
G01*
X89350001Y-24165000D01*
G75*
G02*
X89600000Y-24414999I0J-249999D01*
G01*
X89600000Y-25115001D01*
G75*
G02*
X89350001Y-25365000I-249999J0D01*
G01*
G37*
G04 #@! TD.AperFunction*
G04 #@! TA.AperFunction,SMDPad,CuDef*
G36*
G01*
X86810001Y-23365000D02*
X85909999Y-23365000D01*
G75*
G02*
X85660000Y-23115001I0J249999D01*
G01*
X85660000Y-22414999D01*
G75*
G02*
X85909999Y-22165000I249999J0D01*
G01*
X86810001Y-22165000D01*
G75*
G02*
X87060000Y-22414999I0J-249999D01*
G01*
X87060000Y-23115001D01*
G75*
G02*
X86810001Y-23365000I-249999J0D01*
G01*
G37*
G04 #@! TD.AperFunction*
G04 #@! TA.AperFunction,SMDPad,CuDef*
G36*
G01*
X86810001Y-25365000D02*
X85909999Y-25365000D01*
G75*
G02*
X85660000Y-25115001I0J249999D01*
G01*
X85660000Y-24414999D01*
G75*
G02*
X85909999Y-24165000I249999J0D01*
G01*
X86810001Y-24165000D01*
G75*
G02*
X87060000Y-24414999I0J-249999D01*
G01*
X87060000Y-25115001D01*
G75*
G02*
X86810001Y-25365000I-249999J0D01*
G01*
G37*
G04 #@! TD.AperFunction*
G04 #@! TA.AperFunction,SMDPad,CuDef*
G36*
G01*
X84270001Y-23365000D02*
X83369999Y-23365000D01*
G75*
G02*
X83120000Y-23115001I0J249999D01*
G01*
X83120000Y-22414999D01*
G75*
G02*
X83369999Y-22165000I249999J0D01*
G01*
X84270001Y-22165000D01*
G75*
G02*
X84520000Y-22414999I0J-249999D01*
G01*
X84520000Y-23115001D01*
G75*
G02*
X84270001Y-23365000I-249999J0D01*
G01*
G37*
G04 #@! TD.AperFunction*
G04 #@! TA.AperFunction,SMDPad,CuDef*
G36*
G01*
X84270001Y-25365000D02*
X83369999Y-25365000D01*
G75*
G02*
X83120000Y-25115001I0J249999D01*
G01*
X83120000Y-24414999D01*
G75*
G02*
X83369999Y-24165000I249999J0D01*
G01*
X84270001Y-24165000D01*
G75*
G02*
X84520000Y-24414999I0J-249999D01*
G01*
X84520000Y-25115001D01*
G75*
G02*
X84270001Y-25365000I-249999J0D01*
G01*
G37*
G04 #@! TD.AperFunction*
G04 #@! TA.AperFunction,SMDPad,CuDef*
G36*
G01*
X81730001Y-23365000D02*
X80829999Y-23365000D01*
G75*
G02*
X80580000Y-23115001I0J249999D01*
G01*
X80580000Y-22414999D01*
G75*
G02*
X80829999Y-22165000I249999J0D01*
G01*
X81730001Y-22165000D01*
G75*
G02*
X81980000Y-22414999I0J-249999D01*
G01*
X81980000Y-23115001D01*
G75*
G02*
X81730001Y-23365000I-249999J0D01*
G01*
G37*
G04 #@! TD.AperFunction*
G04 #@! TA.AperFunction,SMDPad,CuDef*
G36*
G01*
X81730001Y-25365000D02*
X80829999Y-25365000D01*
G75*
G02*
X80580000Y-25115001I0J249999D01*
G01*
X80580000Y-24414999D01*
G75*
G02*
X80829999Y-24165000I249999J0D01*
G01*
X81730001Y-24165000D01*
G75*
G02*
X81980000Y-24414999I0J-249999D01*
G01*
X81980000Y-25115001D01*
G75*
G02*
X81730001Y-25365000I-249999J0D01*
G01*
G37*
G04 #@! TD.AperFunction*
G04 #@! TA.AperFunction,SMDPad,CuDef*
G36*
G01*
X98609999Y-18475000D02*
X99510001Y-18475000D01*
G75*
G02*
X99760000Y-18724999I0J-249999D01*
G01*
X99760000Y-19375001D01*
G75*
G02*
X99510001Y-19625000I-249999J0D01*
G01*
X98609999Y-19625000D01*
G75*
G02*
X98360000Y-19375001I0J249999D01*
G01*
X98360000Y-18724999D01*
G75*
G02*
X98609999Y-18475000I249999J0D01*
G01*
G37*
G04 #@! TD.AperFunction*
G04 #@! TA.AperFunction,SMDPad,CuDef*
G36*
G01*
X98609999Y-16425000D02*
X99510001Y-16425000D01*
G75*
G02*
X99760000Y-16674999I0J-249999D01*
G01*
X99760000Y-17325001D01*
G75*
G02*
X99510001Y-17575000I-249999J0D01*
G01*
X98609999Y-17575000D01*
G75*
G02*
X98360000Y-17325001I0J249999D01*
G01*
X98360000Y-16674999D01*
G75*
G02*
X98609999Y-16425000I249999J0D01*
G01*
G37*
G04 #@! TD.AperFunction*
G04 #@! TA.AperFunction,SMDPad,CuDef*
G36*
G01*
X96069999Y-18475000D02*
X96970001Y-18475000D01*
G75*
G02*
X97220000Y-18724999I0J-249999D01*
G01*
X97220000Y-19375001D01*
G75*
G02*
X96970001Y-19625000I-249999J0D01*
G01*
X96069999Y-19625000D01*
G75*
G02*
X95820000Y-19375001I0J249999D01*
G01*
X95820000Y-18724999D01*
G75*
G02*
X96069999Y-18475000I249999J0D01*
G01*
G37*
G04 #@! TD.AperFunction*
G04 #@! TA.AperFunction,SMDPad,CuDef*
G36*
G01*
X96069999Y-16425000D02*
X96970001Y-16425000D01*
G75*
G02*
X97220000Y-16674999I0J-249999D01*
G01*
X97220000Y-17325001D01*
G75*
G02*
X96970001Y-17575000I-249999J0D01*
G01*
X96069999Y-17575000D01*
G75*
G02*
X95820000Y-17325001I0J249999D01*
G01*
X95820000Y-16674999D01*
G75*
G02*
X96069999Y-16425000I249999J0D01*
G01*
G37*
G04 #@! TD.AperFunction*
G04 #@! TA.AperFunction,SMDPad,CuDef*
G36*
G01*
X93529999Y-18475000D02*
X94430001Y-18475000D01*
G75*
G02*
X94680000Y-18724999I0J-249999D01*
G01*
X94680000Y-19375001D01*
G75*
G02*
X94430001Y-19625000I-249999J0D01*
G01*
X93529999Y-19625000D01*
G75*
G02*
X93280000Y-19375001I0J249999D01*
G01*
X93280000Y-18724999D01*
G75*
G02*
X93529999Y-18475000I249999J0D01*
G01*
G37*
G04 #@! TD.AperFunction*
G04 #@! TA.AperFunction,SMDPad,CuDef*
G36*
G01*
X93529999Y-16425000D02*
X94430001Y-16425000D01*
G75*
G02*
X94680000Y-16674999I0J-249999D01*
G01*
X94680000Y-17325001D01*
G75*
G02*
X94430001Y-17575000I-249999J0D01*
G01*
X93529999Y-17575000D01*
G75*
G02*
X93280000Y-17325001I0J249999D01*
G01*
X93280000Y-16674999D01*
G75*
G02*
X93529999Y-16425000I249999J0D01*
G01*
G37*
G04 #@! TD.AperFunction*
G04 #@! TA.AperFunction,SMDPad,CuDef*
G36*
G01*
X90989999Y-18475000D02*
X91890001Y-18475000D01*
G75*
G02*
X92140000Y-18724999I0J-249999D01*
G01*
X92140000Y-19375001D01*
G75*
G02*
X91890001Y-19625000I-249999J0D01*
G01*
X90989999Y-19625000D01*
G75*
G02*
X90740000Y-19375001I0J249999D01*
G01*
X90740000Y-18724999D01*
G75*
G02*
X90989999Y-18475000I249999J0D01*
G01*
G37*
G04 #@! TD.AperFunction*
G04 #@! TA.AperFunction,SMDPad,CuDef*
G36*
G01*
X90989999Y-16425000D02*
X91890001Y-16425000D01*
G75*
G02*
X92140000Y-16674999I0J-249999D01*
G01*
X92140000Y-17325001D01*
G75*
G02*
X91890001Y-17575000I-249999J0D01*
G01*
X90989999Y-17575000D01*
G75*
G02*
X90740000Y-17325001I0J249999D01*
G01*
X90740000Y-16674999D01*
G75*
G02*
X90989999Y-16425000I249999J0D01*
G01*
G37*
G04 #@! TD.AperFunction*
G04 #@! TA.AperFunction,SMDPad,CuDef*
G36*
G01*
X88449999Y-18475000D02*
X89350001Y-18475000D01*
G75*
G02*
X89600000Y-18724999I0J-249999D01*
G01*
X89600000Y-19375001D01*
G75*
G02*
X89350001Y-19625000I-249999J0D01*
G01*
X88449999Y-19625000D01*
G75*
G02*
X88200000Y-19375001I0J249999D01*
G01*
X88200000Y-18724999D01*
G75*
G02*
X88449999Y-18475000I249999J0D01*
G01*
G37*
G04 #@! TD.AperFunction*
G04 #@! TA.AperFunction,SMDPad,CuDef*
G36*
G01*
X88449999Y-16425000D02*
X89350001Y-16425000D01*
G75*
G02*
X89600000Y-16674999I0J-249999D01*
G01*
X89600000Y-17325001D01*
G75*
G02*
X89350001Y-17575000I-249999J0D01*
G01*
X88449999Y-17575000D01*
G75*
G02*
X88200000Y-17325001I0J249999D01*
G01*
X88200000Y-16674999D01*
G75*
G02*
X88449999Y-16425000I249999J0D01*
G01*
G37*
G04 #@! TD.AperFunction*
G04 #@! TA.AperFunction,SMDPad,CuDef*
G36*
G01*
X85909999Y-18475000D02*
X86810001Y-18475000D01*
G75*
G02*
X87060000Y-18724999I0J-249999D01*
G01*
X87060000Y-19375001D01*
G75*
G02*
X86810001Y-19625000I-249999J0D01*
G01*
X85909999Y-19625000D01*
G75*
G02*
X85660000Y-19375001I0J249999D01*
G01*
X85660000Y-18724999D01*
G75*
G02*
X85909999Y-18475000I249999J0D01*
G01*
G37*
G04 #@! TD.AperFunction*
G04 #@! TA.AperFunction,SMDPad,CuDef*
G36*
G01*
X85909999Y-16425000D02*
X86810001Y-16425000D01*
G75*
G02*
X87060000Y-16674999I0J-249999D01*
G01*
X87060000Y-17325001D01*
G75*
G02*
X86810001Y-17575000I-249999J0D01*
G01*
X85909999Y-17575000D01*
G75*
G02*
X85660000Y-17325001I0J249999D01*
G01*
X85660000Y-16674999D01*
G75*
G02*
X85909999Y-16425000I249999J0D01*
G01*
G37*
G04 #@! TD.AperFunction*
G04 #@! TA.AperFunction,SMDPad,CuDef*
G36*
G01*
X83369999Y-18475000D02*
X84270001Y-18475000D01*
G75*
G02*
X84520000Y-18724999I0J-249999D01*
G01*
X84520000Y-19375001D01*
G75*
G02*
X84270001Y-19625000I-249999J0D01*
G01*
X83369999Y-19625000D01*
G75*
G02*
X83120000Y-19375001I0J249999D01*
G01*
X83120000Y-18724999D01*
G75*
G02*
X83369999Y-18475000I249999J0D01*
G01*
G37*
G04 #@! TD.AperFunction*
G04 #@! TA.AperFunction,SMDPad,CuDef*
G36*
G01*
X83369999Y-16425000D02*
X84270001Y-16425000D01*
G75*
G02*
X84520000Y-16674999I0J-249999D01*
G01*
X84520000Y-17325001D01*
G75*
G02*
X84270001Y-17575000I-249999J0D01*
G01*
X83369999Y-17575000D01*
G75*
G02*
X83120000Y-17325001I0J249999D01*
G01*
X83120000Y-16674999D01*
G75*
G02*
X83369999Y-16425000I249999J0D01*
G01*
G37*
G04 #@! TD.AperFunction*
G04 #@! TA.AperFunction,SMDPad,CuDef*
G36*
G01*
X80829999Y-18475000D02*
X81730001Y-18475000D01*
G75*
G02*
X81980000Y-18724999I0J-249999D01*
G01*
X81980000Y-19375001D01*
G75*
G02*
X81730001Y-19625000I-249999J0D01*
G01*
X80829999Y-19625000D01*
G75*
G02*
X80580000Y-19375001I0J249999D01*
G01*
X80580000Y-18724999D01*
G75*
G02*
X80829999Y-18475000I249999J0D01*
G01*
G37*
G04 #@! TD.AperFunction*
G04 #@! TA.AperFunction,SMDPad,CuDef*
G36*
G01*
X80829999Y-16425000D02*
X81730001Y-16425000D01*
G75*
G02*
X81980000Y-16674999I0J-249999D01*
G01*
X81980000Y-17325001D01*
G75*
G02*
X81730001Y-17575000I-249999J0D01*
G01*
X80829999Y-17575000D01*
G75*
G02*
X80580000Y-17325001I0J249999D01*
G01*
X80580000Y-16674999D01*
G75*
G02*
X80829999Y-16425000I249999J0D01*
G01*
G37*
G04 #@! TD.AperFunction*
D14*
X71120000Y-53340000D03*
D15*
X68580000Y-53340000D03*
X66040000Y-53340000D03*
X63500000Y-53340000D03*
X60960000Y-53340000D03*
X58420000Y-53340000D03*
X55880000Y-53340000D03*
X53340000Y-53340000D03*
D16*
X88900000Y-53340000D03*
X91440000Y-53340000D03*
X93980000Y-53340000D03*
X96520000Y-53340000D03*
X99060000Y-53340000D03*
X101600000Y-53340000D03*
X104140000Y-53340000D03*
D14*
X106680000Y-53340000D03*
X83820000Y-53340000D03*
D16*
X81280000Y-53340000D03*
G04 #@! TA.AperFunction,SMDPad,CuDef*
G36*
G01*
X111275000Y-44090000D02*
X110975000Y-44090000D01*
G75*
G02*
X110825000Y-43940000I0J150000D01*
G01*
X110825000Y-42290000D01*
G75*
G02*
X110975000Y-42140000I150000J0D01*
G01*
X111275000Y-42140000D01*
G75*
G02*
X111425000Y-42290000I0J-150000D01*
G01*
X111425000Y-43940000D01*
G75*
G02*
X111275000Y-44090000I-150000J0D01*
G01*
G37*
G04 #@! TD.AperFunction*
G04 #@! TA.AperFunction,SMDPad,CuDef*
G36*
G01*
X112545000Y-44090000D02*
X112245000Y-44090000D01*
G75*
G02*
X112095000Y-43940000I0J150000D01*
G01*
X112095000Y-42290000D01*
G75*
G02*
X112245000Y-42140000I150000J0D01*
G01*
X112545000Y-42140000D01*
G75*
G02*
X112695000Y-42290000I0J-150000D01*
G01*
X112695000Y-43940000D01*
G75*
G02*
X112545000Y-44090000I-150000J0D01*
G01*
G37*
G04 #@! TD.AperFunction*
G04 #@! TA.AperFunction,SMDPad,CuDef*
G36*
G01*
X113815000Y-44090000D02*
X113515000Y-44090000D01*
G75*
G02*
X113365000Y-43940000I0J150000D01*
G01*
X113365000Y-42290000D01*
G75*
G02*
X113515000Y-42140000I150000J0D01*
G01*
X113815000Y-42140000D01*
G75*
G02*
X113965000Y-42290000I0J-150000D01*
G01*
X113965000Y-43940000D01*
G75*
G02*
X113815000Y-44090000I-150000J0D01*
G01*
G37*
G04 #@! TD.AperFunction*
G04 #@! TA.AperFunction,SMDPad,CuDef*
G36*
G01*
X115085000Y-44090000D02*
X114785000Y-44090000D01*
G75*
G02*
X114635000Y-43940000I0J150000D01*
G01*
X114635000Y-42290000D01*
G75*
G02*
X114785000Y-42140000I150000J0D01*
G01*
X115085000Y-42140000D01*
G75*
G02*
X115235000Y-42290000I0J-150000D01*
G01*
X115235000Y-43940000D01*
G75*
G02*
X115085000Y-44090000I-150000J0D01*
G01*
G37*
G04 #@! TD.AperFunction*
G04 #@! TA.AperFunction,SMDPad,CuDef*
G36*
G01*
X116355000Y-44090000D02*
X116055000Y-44090000D01*
G75*
G02*
X115905000Y-43940000I0J150000D01*
G01*
X115905000Y-42290000D01*
G75*
G02*
X116055000Y-42140000I150000J0D01*
G01*
X116355000Y-42140000D01*
G75*
G02*
X116505000Y-42290000I0J-150000D01*
G01*
X116505000Y-43940000D01*
G75*
G02*
X116355000Y-44090000I-150000J0D01*
G01*
G37*
G04 #@! TD.AperFunction*
G04 #@! TA.AperFunction,SMDPad,CuDef*
G36*
G01*
X117625000Y-44090000D02*
X117325000Y-44090000D01*
G75*
G02*
X117175000Y-43940000I0J150000D01*
G01*
X117175000Y-42290000D01*
G75*
G02*
X117325000Y-42140000I150000J0D01*
G01*
X117625000Y-42140000D01*
G75*
G02*
X117775000Y-42290000I0J-150000D01*
G01*
X117775000Y-43940000D01*
G75*
G02*
X117625000Y-44090000I-150000J0D01*
G01*
G37*
G04 #@! TD.AperFunction*
G04 #@! TA.AperFunction,SMDPad,CuDef*
G36*
G01*
X118895000Y-44090000D02*
X118595000Y-44090000D01*
G75*
G02*
X118445000Y-43940000I0J150000D01*
G01*
X118445000Y-42290000D01*
G75*
G02*
X118595000Y-42140000I150000J0D01*
G01*
X118895000Y-42140000D01*
G75*
G02*
X119045000Y-42290000I0J-150000D01*
G01*
X119045000Y-43940000D01*
G75*
G02*
X118895000Y-44090000I-150000J0D01*
G01*
G37*
G04 #@! TD.AperFunction*
G04 #@! TA.AperFunction,SMDPad,CuDef*
G36*
G01*
X118895000Y-39140000D02*
X118595000Y-39140000D01*
G75*
G02*
X118445000Y-38990000I0J150000D01*
G01*
X118445000Y-37340000D01*
G75*
G02*
X118595000Y-37190000I150000J0D01*
G01*
X118895000Y-37190000D01*
G75*
G02*
X119045000Y-37340000I0J-150000D01*
G01*
X119045000Y-38990000D01*
G75*
G02*
X118895000Y-39140000I-150000J0D01*
G01*
G37*
G04 #@! TD.AperFunction*
G04 #@! TA.AperFunction,SMDPad,CuDef*
G36*
G01*
X117625000Y-39140000D02*
X117325000Y-39140000D01*
G75*
G02*
X117175000Y-38990000I0J150000D01*
G01*
X117175000Y-37340000D01*
G75*
G02*
X117325000Y-37190000I150000J0D01*
G01*
X117625000Y-37190000D01*
G75*
G02*
X117775000Y-37340000I0J-150000D01*
G01*
X117775000Y-38990000D01*
G75*
G02*
X117625000Y-39140000I-150000J0D01*
G01*
G37*
G04 #@! TD.AperFunction*
G04 #@! TA.AperFunction,SMDPad,CuDef*
G36*
G01*
X116355000Y-39140000D02*
X116055000Y-39140000D01*
G75*
G02*
X115905000Y-38990000I0J150000D01*
G01*
X115905000Y-37340000D01*
G75*
G02*
X116055000Y-37190000I150000J0D01*
G01*
X116355000Y-37190000D01*
G75*
G02*
X116505000Y-37340000I0J-150000D01*
G01*
X116505000Y-38990000D01*
G75*
G02*
X116355000Y-39140000I-150000J0D01*
G01*
G37*
G04 #@! TD.AperFunction*
G04 #@! TA.AperFunction,SMDPad,CuDef*
G36*
G01*
X115085000Y-39140000D02*
X114785000Y-39140000D01*
G75*
G02*
X114635000Y-38990000I0J150000D01*
G01*
X114635000Y-37340000D01*
G75*
G02*
X114785000Y-37190000I150000J0D01*
G01*
X115085000Y-37190000D01*
G75*
G02*
X115235000Y-37340000I0J-150000D01*
G01*
X115235000Y-38990000D01*
G75*
G02*
X115085000Y-39140000I-150000J0D01*
G01*
G37*
G04 #@! TD.AperFunction*
G04 #@! TA.AperFunction,SMDPad,CuDef*
G36*
G01*
X113815000Y-39140000D02*
X113515000Y-39140000D01*
G75*
G02*
X113365000Y-38990000I0J150000D01*
G01*
X113365000Y-37340000D01*
G75*
G02*
X113515000Y-37190000I150000J0D01*
G01*
X113815000Y-37190000D01*
G75*
G02*
X113965000Y-37340000I0J-150000D01*
G01*
X113965000Y-38990000D01*
G75*
G02*
X113815000Y-39140000I-150000J0D01*
G01*
G37*
G04 #@! TD.AperFunction*
G04 #@! TA.AperFunction,SMDPad,CuDef*
G36*
G01*
X112545000Y-39140000D02*
X112245000Y-39140000D01*
G75*
G02*
X112095000Y-38990000I0J150000D01*
G01*
X112095000Y-37340000D01*
G75*
G02*
X112245000Y-37190000I150000J0D01*
G01*
X112545000Y-37190000D01*
G75*
G02*
X112695000Y-37340000I0J-150000D01*
G01*
X112695000Y-38990000D01*
G75*
G02*
X112545000Y-39140000I-150000J0D01*
G01*
G37*
G04 #@! TD.AperFunction*
G04 #@! TA.AperFunction,SMDPad,CuDef*
G36*
G01*
X111275000Y-39140000D02*
X110975000Y-39140000D01*
G75*
G02*
X110825000Y-38990000I0J150000D01*
G01*
X110825000Y-37340000D01*
G75*
G02*
X110975000Y-37190000I150000J0D01*
G01*
X111275000Y-37190000D01*
G75*
G02*
X111425000Y-37340000I0J-150000D01*
G01*
X111425000Y-38990000D01*
G75*
G02*
X111275000Y-39140000I-150000J0D01*
G01*
G37*
G04 #@! TD.AperFunction*
G04 #@! TA.AperFunction,SMDPad,CuDef*
G36*
G01*
X81917500Y-32852500D02*
X81917500Y-32552500D01*
G75*
G02*
X82067500Y-32402500I150000J0D01*
G01*
X83667500Y-32402500D01*
G75*
G02*
X83817500Y-32552500I0J-150000D01*
G01*
X83817500Y-32852500D01*
G75*
G02*
X83667500Y-33002500I-150000J0D01*
G01*
X82067500Y-33002500D01*
G75*
G02*
X81917500Y-32852500I0J150000D01*
G01*
G37*
G04 #@! TD.AperFunction*
G04 #@! TA.AperFunction,SMDPad,CuDef*
G36*
G01*
X81917500Y-34122500D02*
X81917500Y-33822500D01*
G75*
G02*
X82067500Y-33672500I150000J0D01*
G01*
X83667500Y-33672500D01*
G75*
G02*
X83817500Y-33822500I0J-150000D01*
G01*
X83817500Y-34122500D01*
G75*
G02*
X83667500Y-34272500I-150000J0D01*
G01*
X82067500Y-34272500D01*
G75*
G02*
X81917500Y-34122500I0J150000D01*
G01*
G37*
G04 #@! TD.AperFunction*
G04 #@! TA.AperFunction,SMDPad,CuDef*
G36*
G01*
X81917500Y-35392500D02*
X81917500Y-35092500D01*
G75*
G02*
X82067500Y-34942500I150000J0D01*
G01*
X83667500Y-34942500D01*
G75*
G02*
X83817500Y-35092500I0J-150000D01*
G01*
X83817500Y-35392500D01*
G75*
G02*
X83667500Y-35542500I-150000J0D01*
G01*
X82067500Y-35542500D01*
G75*
G02*
X81917500Y-35392500I0J150000D01*
G01*
G37*
G04 #@! TD.AperFunction*
G04 #@! TA.AperFunction,SMDPad,CuDef*
G36*
G01*
X81917500Y-36662500D02*
X81917500Y-36362500D01*
G75*
G02*
X82067500Y-36212500I150000J0D01*
G01*
X83667500Y-36212500D01*
G75*
G02*
X83817500Y-36362500I0J-150000D01*
G01*
X83817500Y-36662500D01*
G75*
G02*
X83667500Y-36812500I-150000J0D01*
G01*
X82067500Y-36812500D01*
G75*
G02*
X81917500Y-36662500I0J150000D01*
G01*
G37*
G04 #@! TD.AperFunction*
G04 #@! TA.AperFunction,SMDPad,CuDef*
G36*
G01*
X81917500Y-37932500D02*
X81917500Y-37632500D01*
G75*
G02*
X82067500Y-37482500I150000J0D01*
G01*
X83667500Y-37482500D01*
G75*
G02*
X83817500Y-37632500I0J-150000D01*
G01*
X83817500Y-37932500D01*
G75*
G02*
X83667500Y-38082500I-150000J0D01*
G01*
X82067500Y-38082500D01*
G75*
G02*
X81917500Y-37932500I0J150000D01*
G01*
G37*
G04 #@! TD.AperFunction*
G04 #@! TA.AperFunction,SMDPad,CuDef*
G36*
G01*
X81917500Y-39202500D02*
X81917500Y-38902500D01*
G75*
G02*
X82067500Y-38752500I150000J0D01*
G01*
X83667500Y-38752500D01*
G75*
G02*
X83817500Y-38902500I0J-150000D01*
G01*
X83817500Y-39202500D01*
G75*
G02*
X83667500Y-39352500I-150000J0D01*
G01*
X82067500Y-39352500D01*
G75*
G02*
X81917500Y-39202500I0J150000D01*
G01*
G37*
G04 #@! TD.AperFunction*
G04 #@! TA.AperFunction,SMDPad,CuDef*
G36*
G01*
X81917500Y-40472500D02*
X81917500Y-40172500D01*
G75*
G02*
X82067500Y-40022500I150000J0D01*
G01*
X83667500Y-40022500D01*
G75*
G02*
X83817500Y-40172500I0J-150000D01*
G01*
X83817500Y-40472500D01*
G75*
G02*
X83667500Y-40622500I-150000J0D01*
G01*
X82067500Y-40622500D01*
G75*
G02*
X81917500Y-40472500I0J150000D01*
G01*
G37*
G04 #@! TD.AperFunction*
G04 #@! TA.AperFunction,SMDPad,CuDef*
G36*
G01*
X81917500Y-41742500D02*
X81917500Y-41442500D01*
G75*
G02*
X82067500Y-41292500I150000J0D01*
G01*
X83667500Y-41292500D01*
G75*
G02*
X83817500Y-41442500I0J-150000D01*
G01*
X83817500Y-41742500D01*
G75*
G02*
X83667500Y-41892500I-150000J0D01*
G01*
X82067500Y-41892500D01*
G75*
G02*
X81917500Y-41742500I0J150000D01*
G01*
G37*
G04 #@! TD.AperFunction*
G04 #@! TA.AperFunction,SMDPad,CuDef*
G36*
G01*
X81917500Y-43012500D02*
X81917500Y-42712500D01*
G75*
G02*
X82067500Y-42562500I150000J0D01*
G01*
X83667500Y-42562500D01*
G75*
G02*
X83817500Y-42712500I0J-150000D01*
G01*
X83817500Y-43012500D01*
G75*
G02*
X83667500Y-43162500I-150000J0D01*
G01*
X82067500Y-43162500D01*
G75*
G02*
X81917500Y-43012500I0J150000D01*
G01*
G37*
G04 #@! TD.AperFunction*
G04 #@! TA.AperFunction,SMDPad,CuDef*
G36*
G01*
X81917500Y-44282500D02*
X81917500Y-43982500D01*
G75*
G02*
X82067500Y-43832500I150000J0D01*
G01*
X83667500Y-43832500D01*
G75*
G02*
X83817500Y-43982500I0J-150000D01*
G01*
X83817500Y-44282500D01*
G75*
G02*
X83667500Y-44432500I-150000J0D01*
G01*
X82067500Y-44432500D01*
G75*
G02*
X81917500Y-44282500I0J150000D01*
G01*
G37*
G04 #@! TD.AperFunction*
G04 #@! TA.AperFunction,SMDPad,CuDef*
G36*
G01*
X91117500Y-44282500D02*
X91117500Y-43982500D01*
G75*
G02*
X91267500Y-43832500I150000J0D01*
G01*
X92867500Y-43832500D01*
G75*
G02*
X93017500Y-43982500I0J-150000D01*
G01*
X93017500Y-44282500D01*
G75*
G02*
X92867500Y-44432500I-150000J0D01*
G01*
X91267500Y-44432500D01*
G75*
G02*
X91117500Y-44282500I0J150000D01*
G01*
G37*
G04 #@! TD.AperFunction*
G04 #@! TA.AperFunction,SMDPad,CuDef*
G36*
G01*
X91117500Y-43012500D02*
X91117500Y-42712500D01*
G75*
G02*
X91267500Y-42562500I150000J0D01*
G01*
X92867500Y-42562500D01*
G75*
G02*
X93017500Y-42712500I0J-150000D01*
G01*
X93017500Y-43012500D01*
G75*
G02*
X92867500Y-43162500I-150000J0D01*
G01*
X91267500Y-43162500D01*
G75*
G02*
X91117500Y-43012500I0J150000D01*
G01*
G37*
G04 #@! TD.AperFunction*
G04 #@! TA.AperFunction,SMDPad,CuDef*
G36*
G01*
X91117500Y-41742500D02*
X91117500Y-41442500D01*
G75*
G02*
X91267500Y-41292500I150000J0D01*
G01*
X92867500Y-41292500D01*
G75*
G02*
X93017500Y-41442500I0J-150000D01*
G01*
X93017500Y-41742500D01*
G75*
G02*
X92867500Y-41892500I-150000J0D01*
G01*
X91267500Y-41892500D01*
G75*
G02*
X91117500Y-41742500I0J150000D01*
G01*
G37*
G04 #@! TD.AperFunction*
G04 #@! TA.AperFunction,SMDPad,CuDef*
G36*
G01*
X91117500Y-40472500D02*
X91117500Y-40172500D01*
G75*
G02*
X91267500Y-40022500I150000J0D01*
G01*
X92867500Y-40022500D01*
G75*
G02*
X93017500Y-40172500I0J-150000D01*
G01*
X93017500Y-40472500D01*
G75*
G02*
X92867500Y-40622500I-150000J0D01*
G01*
X91267500Y-40622500D01*
G75*
G02*
X91117500Y-40472500I0J150000D01*
G01*
G37*
G04 #@! TD.AperFunction*
G04 #@! TA.AperFunction,SMDPad,CuDef*
G36*
G01*
X91117500Y-39202500D02*
X91117500Y-38902500D01*
G75*
G02*
X91267500Y-38752500I150000J0D01*
G01*
X92867500Y-38752500D01*
G75*
G02*
X93017500Y-38902500I0J-150000D01*
G01*
X93017500Y-39202500D01*
G75*
G02*
X92867500Y-39352500I-150000J0D01*
G01*
X91267500Y-39352500D01*
G75*
G02*
X91117500Y-39202500I0J150000D01*
G01*
G37*
G04 #@! TD.AperFunction*
G04 #@! TA.AperFunction,SMDPad,CuDef*
G36*
G01*
X91117500Y-37932500D02*
X91117500Y-37632500D01*
G75*
G02*
X91267500Y-37482500I150000J0D01*
G01*
X92867500Y-37482500D01*
G75*
G02*
X93017500Y-37632500I0J-150000D01*
G01*
X93017500Y-37932500D01*
G75*
G02*
X92867500Y-38082500I-150000J0D01*
G01*
X91267500Y-38082500D01*
G75*
G02*
X91117500Y-37932500I0J150000D01*
G01*
G37*
G04 #@! TD.AperFunction*
G04 #@! TA.AperFunction,SMDPad,CuDef*
G36*
G01*
X91117500Y-36662500D02*
X91117500Y-36362500D01*
G75*
G02*
X91267500Y-36212500I150000J0D01*
G01*
X92867500Y-36212500D01*
G75*
G02*
X93017500Y-36362500I0J-150000D01*
G01*
X93017500Y-36662500D01*
G75*
G02*
X92867500Y-36812500I-150000J0D01*
G01*
X91267500Y-36812500D01*
G75*
G02*
X91117500Y-36662500I0J150000D01*
G01*
G37*
G04 #@! TD.AperFunction*
G04 #@! TA.AperFunction,SMDPad,CuDef*
G36*
G01*
X91117500Y-35392500D02*
X91117500Y-35092500D01*
G75*
G02*
X91267500Y-34942500I150000J0D01*
G01*
X92867500Y-34942500D01*
G75*
G02*
X93017500Y-35092500I0J-150000D01*
G01*
X93017500Y-35392500D01*
G75*
G02*
X92867500Y-35542500I-150000J0D01*
G01*
X91267500Y-35542500D01*
G75*
G02*
X91117500Y-35392500I0J150000D01*
G01*
G37*
G04 #@! TD.AperFunction*
G04 #@! TA.AperFunction,SMDPad,CuDef*
G36*
G01*
X91117500Y-34122500D02*
X91117500Y-33822500D01*
G75*
G02*
X91267500Y-33672500I150000J0D01*
G01*
X92867500Y-33672500D01*
G75*
G02*
X93017500Y-33822500I0J-150000D01*
G01*
X93017500Y-34122500D01*
G75*
G02*
X92867500Y-34272500I-150000J0D01*
G01*
X91267500Y-34272500D01*
G75*
G02*
X91117500Y-34122500I0J150000D01*
G01*
G37*
G04 #@! TD.AperFunction*
G04 #@! TA.AperFunction,SMDPad,CuDef*
G36*
G01*
X91117500Y-32852500D02*
X91117500Y-32552500D01*
G75*
G02*
X91267500Y-32402500I150000J0D01*
G01*
X92867500Y-32402500D01*
G75*
G02*
X93017500Y-32552500I0J-150000D01*
G01*
X93017500Y-32852500D01*
G75*
G02*
X92867500Y-33002500I-150000J0D01*
G01*
X91267500Y-33002500D01*
G75*
G02*
X91117500Y-32852500I0J150000D01*
G01*
G37*
G04 #@! TD.AperFunction*
D14*
X119380000Y-53340000D03*
D16*
X116840000Y-53340000D03*
X114300000Y-53340000D03*
D17*
X59690000Y-20320000D03*
D18*
X59690000Y-17780000D03*
X69850000Y-47625000D03*
D17*
X69850000Y-45085000D03*
D14*
X76200000Y-53340000D03*
D19*
X59055000Y-27940000D03*
X56515000Y-35560000D03*
X76134990Y-45085000D03*
X76134990Y-48960010D03*
X73025000Y-33020000D03*
X66040000Y-30480000D03*
X64135000Y-33020000D03*
X71437500Y-18415000D03*
X117475000Y-34925000D03*
X70485000Y-32385000D03*
D20*
X85725000Y-53340000D02*
X86995000Y-53340000D01*
X86360000Y-52705000D02*
X86360000Y-53975000D01*
X79057500Y-52705000D02*
X79057500Y-53975000D01*
X78422500Y-53975000D02*
X79692500Y-53975000D01*
D21*
X62698000Y-23535000D02*
X61976000Y-24257000D01*
X63500000Y-23535000D02*
X62698000Y-23535000D01*
X62507500Y-35917500D02*
X61912500Y-36512500D01*
X63500000Y-35917500D02*
X62507500Y-35917500D01*
X95250000Y-31750000D02*
X95250000Y-32702500D01*
X92067500Y-32702500D02*
X95250000Y-32702500D01*
X83820000Y-51752500D02*
X83820000Y-53340000D01*
X87153750Y-41433750D02*
X87153750Y-48418750D01*
X90487500Y-38100000D02*
X87153750Y-41433750D01*
X87153750Y-48418750D02*
X83820000Y-51752500D01*
X90487500Y-32702500D02*
X90487500Y-38100000D01*
X92067500Y-32702500D02*
X90487500Y-32702500D01*
X106997500Y-32702500D02*
X95250000Y-32702500D01*
X111125000Y-36830000D02*
X106997500Y-32702500D01*
X111125000Y-38165000D02*
X111125000Y-36830000D01*
X81280000Y-17000000D02*
X99060000Y-17000000D01*
X82867500Y-44132500D02*
X82867500Y-45720000D01*
X83820000Y-46672500D02*
X85005000Y-46672500D01*
X82867500Y-45720000D02*
X83820000Y-46672500D01*
X111125000Y-43115000D02*
X112395000Y-43115000D01*
X72390000Y-40917500D02*
X73800706Y-40438712D01*
X99060000Y-17000000D02*
X116695000Y-17000000D01*
X81345010Y-53405010D02*
X81280000Y-53340000D01*
X81345010Y-55945010D02*
X81345010Y-53405010D01*
X111125000Y-43115000D02*
X111125000Y-46355000D01*
X111125000Y-46355000D02*
X109220000Y-48260000D01*
X109220000Y-55880000D02*
X109285010Y-55945010D01*
X109220000Y-48260000D02*
X109220000Y-55880000D01*
X81345010Y-55945010D02*
X109285010Y-55945010D01*
X112395000Y-38165000D02*
X112395000Y-36195000D01*
X121285000Y-43115000D02*
X121285000Y-55945010D01*
X109285010Y-55945010D02*
X121285000Y-55945010D01*
X120650000Y-43050000D02*
X120585000Y-43115000D01*
X120650000Y-36195000D02*
X120650000Y-43050000D01*
X120585000Y-43115000D02*
X121285000Y-43115000D01*
X118745000Y-43115000D02*
X120585000Y-43115000D01*
X116695000Y-17000000D02*
X120650000Y-20955000D01*
X112395000Y-36195000D02*
X112395000Y-32385000D01*
X112395000Y-32385000D02*
X120650000Y-32385000D01*
X120650000Y-32385000D02*
X120650000Y-20955000D01*
X120650000Y-36195000D02*
X120650000Y-32385000D01*
X81597500Y-44132500D02*
X82867500Y-44132500D01*
X81280000Y-44450000D02*
X81597500Y-44132500D01*
X81280000Y-53340000D02*
X81280000Y-44450000D01*
X72487788Y-28119712D02*
X72390000Y-28217500D01*
X73864206Y-28119712D02*
X72487788Y-28119712D01*
X53340000Y-53340000D02*
X53340000Y-48260000D01*
X74295000Y-22225000D02*
X73302500Y-23217500D01*
X73302500Y-23217500D02*
X72390000Y-23217500D01*
X74295000Y-15875000D02*
X74295000Y-22225000D01*
X73025000Y-14605000D02*
X74295000Y-15875000D01*
X53975000Y-14605000D02*
X73025000Y-14605000D01*
X52070000Y-16510000D02*
X53975000Y-14605000D01*
X52070000Y-45720000D02*
X52070000Y-16510000D01*
X52070000Y-45720000D02*
X52070000Y-46990000D01*
X53340000Y-48260000D02*
X52070000Y-46990000D01*
X71755000Y-20320000D02*
X71120000Y-20955000D01*
X73025000Y-17145000D02*
X73025000Y-19685000D01*
X71755000Y-15875000D02*
X73025000Y-17145000D01*
X72390000Y-20320000D02*
X71755000Y-20320000D01*
X73025000Y-19685000D02*
X72390000Y-20320000D01*
X55880000Y-46355000D02*
X53340000Y-43815000D01*
X71120000Y-20955000D02*
X71120000Y-23217500D01*
X55880000Y-53340000D02*
X55880000Y-46355000D01*
X53340000Y-18415000D02*
X55880000Y-15875000D01*
X55880000Y-15875000D02*
X71755000Y-15875000D01*
X53340000Y-43815000D02*
X53340000Y-18415000D01*
X63500000Y-27940000D02*
X59055000Y-27940000D01*
X55880000Y-25400000D02*
X55880000Y-33020000D01*
X55880000Y-33020000D02*
X56515000Y-33655000D01*
X58420000Y-22860000D02*
X55880000Y-25400000D01*
X60960000Y-22860000D02*
X58420000Y-22860000D01*
X62865000Y-20955000D02*
X60960000Y-22860000D01*
X64135000Y-20955000D02*
X62865000Y-20955000D01*
X56515000Y-33655000D02*
X56515000Y-35560000D01*
X64770000Y-21590000D02*
X64135000Y-20955000D01*
X64770000Y-23217500D02*
X64770000Y-21590000D01*
X63500000Y-51435000D02*
X63500000Y-53340000D01*
X61087000Y-40259000D02*
X61087000Y-49022000D01*
X66802000Y-39243000D02*
X62103000Y-39243000D01*
X67244990Y-38800010D02*
X66802000Y-39243000D01*
X70419990Y-38800010D02*
X67244990Y-38800010D01*
X61087000Y-49022000D02*
X63500000Y-51435000D01*
X62103000Y-39243000D02*
X61087000Y-40259000D01*
X72390000Y-36830000D02*
X70419990Y-38800010D01*
X72390000Y-35917500D02*
X72390000Y-36830000D01*
X66040000Y-54927500D02*
X66040000Y-53340000D01*
X65787510Y-55179990D02*
X66040000Y-54927500D01*
X71120000Y-35917500D02*
X71120000Y-36830000D01*
X59055000Y-48895000D02*
X61436250Y-51276250D01*
X71120000Y-36830000D02*
X69850000Y-38100000D01*
X59055000Y-40005000D02*
X59055000Y-48895000D01*
X66040000Y-38100000D02*
X65613989Y-38526011D01*
X65613989Y-38526011D02*
X60533989Y-38526011D01*
X62482490Y-55179990D02*
X65787510Y-55179990D01*
X60533989Y-38526011D02*
X59055000Y-40005000D01*
X61436250Y-51276250D02*
X61753750Y-51276250D01*
X61753750Y-51276250D02*
X62230000Y-51752500D01*
X69850000Y-38100000D02*
X66040000Y-38100000D01*
X62230000Y-51752500D02*
X62230000Y-54927500D01*
X62230000Y-54927500D02*
X62482490Y-55179990D01*
X68580000Y-51752500D02*
X68580000Y-53340000D01*
X65087500Y-51435000D02*
X68262500Y-51435000D01*
X63500000Y-49847500D02*
X65087500Y-51435000D01*
X68262500Y-51435000D02*
X68580000Y-51752500D01*
X63500000Y-40917500D02*
X63500000Y-49847500D01*
X64408999Y-37826001D02*
X64770000Y-37465000D01*
X64770000Y-37465000D02*
X64770000Y-35917500D01*
X58781001Y-37826001D02*
X64408999Y-37826001D01*
X57150000Y-39457002D02*
X58781001Y-37826001D01*
X57150000Y-55245000D02*
X57150000Y-39457002D01*
X57785000Y-55880000D02*
X57150000Y-55245000D01*
X70485000Y-55880000D02*
X57785000Y-55880000D01*
X71120000Y-55245000D02*
X70485000Y-55880000D01*
X71120000Y-53340000D02*
X71120000Y-55245000D01*
X92067500Y-44132500D02*
X89852500Y-44132500D01*
X89852500Y-44132500D02*
X88900000Y-45085000D01*
X88900000Y-45085000D02*
X88900000Y-53340000D01*
X92067500Y-42862500D02*
X93662500Y-42862500D01*
X93662500Y-42862500D02*
X93980000Y-43180000D01*
X93980000Y-43180000D02*
X93980000Y-48260000D01*
X91440000Y-50800000D02*
X91440000Y-53340000D01*
X93980000Y-48260000D02*
X91440000Y-50800000D01*
X93980000Y-50800000D02*
X93980000Y-53340000D01*
X95250000Y-49530000D02*
X93980000Y-50800000D01*
X95250000Y-41910000D02*
X95250000Y-49530000D01*
X94932500Y-41592500D02*
X95250000Y-41910000D01*
X92067500Y-41592500D02*
X94932500Y-41592500D01*
X95567500Y-40322500D02*
X96520000Y-41275000D01*
X96520000Y-41275000D02*
X96520000Y-53340000D01*
X92067500Y-40322500D02*
X95567500Y-40322500D01*
X97472500Y-39052500D02*
X99060000Y-40640000D01*
X99060000Y-40640000D02*
X99060000Y-53340000D01*
X92067500Y-39052500D02*
X97472500Y-39052500D01*
X92067500Y-37782500D02*
X100012500Y-37782500D01*
X100012500Y-37782500D02*
X101600000Y-39370000D01*
X101600000Y-39370000D02*
X101600000Y-53340000D01*
X101282500Y-36512500D02*
X104140000Y-39370000D01*
X104140000Y-39370000D02*
X104140000Y-53340000D01*
X92067500Y-36512500D02*
X101282500Y-36512500D01*
X106680000Y-40005000D02*
X106680000Y-53340000D01*
X102552500Y-35242500D02*
X106680000Y-39370000D01*
X106680000Y-39370000D02*
X106680000Y-40005000D01*
X92067500Y-35242500D02*
X102552500Y-35242500D01*
X119380000Y-48895000D02*
X119380000Y-53340000D01*
X116205000Y-45720000D02*
X119380000Y-48895000D01*
X116205000Y-43115000D02*
X116205000Y-45720000D01*
X116840000Y-49530000D02*
X116840000Y-53340000D01*
X114935000Y-47625000D02*
X116840000Y-49530000D01*
X114935000Y-43115000D02*
X114935000Y-47625000D01*
X114300000Y-50165000D02*
X114300000Y-53340000D01*
X113665000Y-49530000D02*
X114300000Y-50165000D01*
X113665000Y-43115000D02*
X113665000Y-49530000D01*
X113665000Y-40640000D02*
X113665000Y-43115000D01*
X110490000Y-40640000D02*
X113665000Y-40640000D01*
X103822500Y-33972500D02*
X110490000Y-40640000D01*
X92067500Y-33972500D02*
X103822500Y-33972500D01*
X81280000Y-19050000D02*
X81280000Y-22765000D01*
X83820000Y-19050000D02*
X83820000Y-22765000D01*
X86360000Y-19050000D02*
X86360000Y-22765000D01*
X88900000Y-19050000D02*
X88900000Y-22765000D01*
X91440000Y-19050000D02*
X91440000Y-22765000D01*
X93980000Y-19050000D02*
X93980000Y-22765000D01*
X96520000Y-19050000D02*
X96520000Y-22765000D01*
X99060000Y-19050000D02*
X99060000Y-22765000D01*
X80962500Y-32702500D02*
X82867500Y-32702500D01*
X80010000Y-31750000D02*
X80962500Y-32702500D01*
X84455000Y-42862500D02*
X89535000Y-37782500D01*
X82867500Y-42862500D02*
X84455000Y-42862500D01*
X89535000Y-37782500D02*
X89535000Y-31750000D01*
X89535000Y-31750000D02*
X91440000Y-29845000D01*
X91440000Y-29845000D02*
X95250000Y-29845000D01*
X99060000Y-26035000D02*
X99060000Y-24765000D01*
X95250000Y-29845000D02*
X99060000Y-26035000D01*
X82859999Y-42870001D02*
X82867500Y-42862500D01*
X66040000Y-43497500D02*
X66040000Y-43497500D01*
X66040000Y-47625000D02*
X66040000Y-40917500D01*
X67945000Y-49530000D02*
X66040000Y-47625000D01*
X71120000Y-49530000D02*
X67945000Y-49530000D01*
X73342500Y-47307500D02*
X71120000Y-49530000D01*
X77787500Y-47307500D02*
X73342500Y-47307500D01*
X78740000Y-46355000D02*
X77787500Y-47307500D01*
X78740000Y-43180000D02*
X78740000Y-46355000D01*
X79057500Y-42862500D02*
X78740000Y-43180000D01*
X82867500Y-42862500D02*
X79057500Y-42862500D01*
X96520000Y-26670000D02*
X96520000Y-24765000D01*
X91122500Y-28575000D02*
X94615000Y-28575000D01*
X88655060Y-31042440D02*
X91122500Y-28575000D01*
X94615000Y-28575000D02*
X96520000Y-26670000D01*
X88655060Y-37074940D02*
X88655060Y-31042440D01*
X84137500Y-41592500D02*
X88655060Y-37074940D01*
X82867500Y-41592500D02*
X84137500Y-41592500D01*
X82867500Y-41592500D02*
X77787500Y-41592500D01*
X77787500Y-41592500D02*
X77470000Y-41910000D01*
X77470000Y-41910000D02*
X77470000Y-45085000D01*
X77470000Y-45085000D02*
X76134990Y-45085000D01*
X76200000Y-45085000D02*
X76200000Y-45085000D01*
X76134990Y-48960010D02*
X76134990Y-48960010D01*
X64770000Y-48895000D02*
X64770000Y-40917500D01*
X66105010Y-50230010D02*
X64770000Y-48895000D01*
X72959990Y-50230010D02*
X66105010Y-50230010D01*
X74229990Y-48960010D02*
X72959990Y-50230010D01*
X76134990Y-48960010D02*
X74229990Y-48960010D01*
X84137500Y-40322500D02*
X82867500Y-40322500D01*
X87955050Y-36504950D02*
X84137500Y-40322500D01*
X87955050Y-36504950D02*
X87955050Y-30154950D01*
X87955050Y-30154950D02*
X90487500Y-27622500D01*
X90487500Y-27622500D02*
X93345000Y-27622500D01*
X93980000Y-26987500D02*
X93980000Y-24765000D01*
X93345000Y-27622500D02*
X93980000Y-26987500D01*
X69850000Y-42545000D02*
X69850000Y-40917500D01*
X70485000Y-43180000D02*
X69850000Y-42545000D01*
X77152500Y-40322500D02*
X76200000Y-41275000D01*
X82867500Y-40322500D02*
X77152500Y-40322500D01*
X76200000Y-41910000D02*
X74930000Y-43180000D01*
X74930000Y-43180000D02*
X70485000Y-43180000D01*
X76200000Y-41275000D02*
X76200000Y-41910000D01*
X84137500Y-39052500D02*
X82867500Y-39052500D01*
X87255040Y-35934960D02*
X84137500Y-39052500D01*
X87255040Y-35934960D02*
X87255040Y-28949960D01*
X87255040Y-28949960D02*
X89535000Y-26670000D01*
X89535000Y-26670000D02*
X91122500Y-26670000D01*
X91440000Y-26352500D02*
X91440000Y-24765000D01*
X91122500Y-26670000D02*
X91440000Y-26352500D01*
X71120000Y-39370000D02*
X71120000Y-40917500D01*
X71755000Y-38735000D02*
X71120000Y-39370000D01*
X74930000Y-38735000D02*
X71755000Y-38735000D01*
X82867500Y-39052500D02*
X76517500Y-39052500D01*
X76200000Y-38735000D02*
X76517500Y-39052500D01*
X74930000Y-38735000D02*
X76200000Y-38735000D01*
X86555030Y-28062470D02*
X88900000Y-25717500D01*
X86555030Y-35364970D02*
X86555030Y-28062470D01*
X88900000Y-25717500D02*
X88900000Y-24765000D01*
X84137500Y-37782500D02*
X86555030Y-35364970D01*
X82867500Y-37782500D02*
X84137500Y-37782500D01*
X82867500Y-37782500D02*
X77470000Y-37782500D01*
X77470000Y-37782500D02*
X75247500Y-35560000D01*
X75247500Y-35560000D02*
X75247500Y-34607500D01*
X75247500Y-34607500D02*
X73660000Y-33020000D01*
X73660000Y-33020000D02*
X73025000Y-33020000D01*
X73025000Y-33020000D02*
X73025000Y-33020000D01*
X66040000Y-28217500D02*
X66040000Y-30480000D01*
X86360000Y-26352500D02*
X86360000Y-24765000D01*
X85855020Y-26857480D02*
X86360000Y-26352500D01*
X85855020Y-34794980D02*
X85855020Y-26857480D01*
X84137500Y-36512500D02*
X85855020Y-34794980D01*
X82867500Y-36512500D02*
X84137500Y-36512500D01*
X64770000Y-28217500D02*
X64770000Y-26352500D01*
X64770000Y-26352500D02*
X65087500Y-26035000D01*
X65087500Y-26035000D02*
X69532500Y-26035000D01*
X69532500Y-26035000D02*
X70167500Y-25400000D01*
X70167500Y-25400000D02*
X74930000Y-25400000D01*
X74930000Y-25400000D02*
X76517500Y-23812500D01*
X76517500Y-23812500D02*
X79692500Y-23812500D01*
D22*
X79740000Y-23765000D02*
X79692500Y-23812500D01*
X85137500Y-23765000D02*
X85137500Y-24495000D01*
X85137500Y-23765000D02*
X79740000Y-23765000D01*
X85407500Y-24765000D02*
X86360000Y-24765000D01*
X85137500Y-24495000D02*
X85407500Y-24765000D01*
D21*
X82859999Y-35250001D02*
X82867500Y-35242500D01*
X83820000Y-27305000D02*
X83820000Y-24765000D01*
X85155010Y-28640010D02*
X83820000Y-27305000D01*
X85155010Y-34224990D02*
X85155010Y-28640010D01*
X84137500Y-35242500D02*
X85155010Y-34224990D01*
X82867500Y-35242500D02*
X84137500Y-35242500D01*
X80327500Y-35242500D02*
X82867500Y-35242500D01*
X75565000Y-30480000D02*
X80327500Y-35242500D01*
X70485000Y-30480000D02*
X75565000Y-30480000D01*
X69850000Y-29845000D02*
X70485000Y-30480000D01*
X69850000Y-28217500D02*
X69850000Y-29845000D01*
X84455000Y-30480000D02*
X81280000Y-27305000D01*
X84455000Y-33655000D02*
X84455000Y-30480000D01*
X84137500Y-33972500D02*
X84455000Y-33655000D01*
X82867500Y-33972500D02*
X84137500Y-33972500D01*
X71120000Y-28217500D02*
X71120000Y-26670000D01*
X71120000Y-26670000D02*
X74930000Y-26670000D01*
X74930000Y-26670000D02*
X81280000Y-26670000D01*
X81280000Y-26670000D02*
X81280000Y-24765000D01*
X81280000Y-27305000D02*
X81280000Y-26670000D01*
X65405000Y-33020000D02*
X66040000Y-33655000D01*
X60325000Y-33020000D02*
X64135000Y-33020000D01*
X57215010Y-29910010D02*
X60325000Y-33020000D01*
X57215010Y-26604990D02*
X57215010Y-29910010D01*
X57785000Y-26035000D02*
X57215010Y-26604990D01*
X66040000Y-33655000D02*
X66040000Y-35917500D01*
X64135000Y-33020000D02*
X65405000Y-33020000D01*
X62865000Y-26035000D02*
X57785000Y-26035000D01*
X66040000Y-23217500D02*
X66040000Y-24765000D01*
X63817500Y-25082500D02*
X65722500Y-25082500D01*
X65722500Y-25082500D02*
X66040000Y-24765000D01*
X63817500Y-25082500D02*
X62865000Y-26035000D01*
X118745000Y-38165000D02*
X118745000Y-36195000D01*
X118745000Y-36195000D02*
X117475000Y-34925000D01*
X70485000Y-18415000D02*
X71437500Y-18415000D01*
X69850000Y-19050000D02*
X70485000Y-18415000D01*
X69850000Y-23535000D02*
X69850000Y-19050000D01*
X69850000Y-33020000D02*
X70485000Y-32385000D01*
X69850000Y-35917500D02*
X69850000Y-33020000D01*
X68580000Y-43815000D02*
X69850000Y-45085000D01*
X68580000Y-40917500D02*
X68580000Y-43815000D01*
X67310000Y-40917500D02*
X67310000Y-46355000D01*
X68580000Y-47625000D02*
X69850000Y-47625000D01*
X67310000Y-46355000D02*
X68580000Y-47625000D01*
X117475000Y-38165000D02*
X117475000Y-43115000D01*
X114935000Y-38165000D02*
X117475000Y-38165000D01*
X60960000Y-20320000D02*
X59690000Y-20320000D01*
X62230000Y-19050000D02*
X60960000Y-20320000D01*
X66040000Y-19050000D02*
X62230000Y-19050000D01*
X67310000Y-20320000D02*
X66040000Y-19050000D01*
X67310000Y-23217500D02*
X67310000Y-20320000D01*
X68580000Y-20320000D02*
X68580000Y-23217500D01*
X66675000Y-17780000D02*
X68580000Y-19685000D01*
X68580000Y-19685000D02*
X68580000Y-20320000D01*
X59690000Y-17780000D02*
X66675000Y-17780000D01*
X67310000Y-28217500D02*
X67310000Y-35917500D01*
X68580000Y-28217500D02*
X68580000Y-35917500D01*
M02*
