G04 #@! TF.GenerationSoftware,KiCad,Pcbnew,(5.1.8)-1*
G04 #@! TF.CreationDate,2024-01-14T12:36:08+03:00*
G04 #@! TF.ProjectId,Reg,5265672e-6b69-4636-9164-5f7063625858,rev?*
G04 #@! TF.SameCoordinates,Original*
G04 #@! TF.FileFunction,Legend,Top*
G04 #@! TF.FilePolarity,Positive*
%FSLAX46Y46*%
G04 Gerber Fmt 4.6, Leading zero omitted, Abs format (unit mm)*
G04 Created by KiCad (PCBNEW (5.1.8)-1) date 2024-01-14 12:36:08*
%MOMM*%
%LPD*%
G01*
G04 APERTURE LIST*
%ADD10C,0.300000*%
%ADD11C,0.200000*%
%ADD12C,0.250000*%
%ADD13C,0.400000*%
%ADD14C,0.150000*%
%ADD15C,0.120000*%
G04 APERTURE END LIST*
D10*
X106839285Y-23308571D02*
X107839285Y-23308571D01*
X107196428Y-24808571D01*
X109053571Y-23808571D02*
X109053571Y-24808571D01*
X108696428Y-23237142D02*
X108339285Y-24308571D01*
X109267857Y-24308571D01*
X109839285Y-24808571D02*
X109839285Y-23308571D01*
X109839285Y-24022857D02*
X110696428Y-24022857D01*
X110696428Y-24808571D02*
X110696428Y-23308571D01*
X112267857Y-24665714D02*
X112196428Y-24737142D01*
X111982142Y-24808571D01*
X111839285Y-24808571D01*
X111625000Y-24737142D01*
X111482142Y-24594285D01*
X111410714Y-24451428D01*
X111339285Y-24165714D01*
X111339285Y-23951428D01*
X111410714Y-23665714D01*
X111482142Y-23522857D01*
X111625000Y-23380000D01*
X111839285Y-23308571D01*
X111982142Y-23308571D01*
X112196428Y-23380000D01*
X112267857Y-23451428D01*
X112910714Y-24808571D02*
X112910714Y-23308571D01*
X113482142Y-23308571D01*
X113625000Y-23380000D01*
X113696428Y-23451428D01*
X113767857Y-23594285D01*
X113767857Y-23808571D01*
X113696428Y-23951428D01*
X113625000Y-24022857D01*
X113482142Y-24094285D01*
X112910714Y-24094285D01*
X114410714Y-23308571D02*
X114410714Y-24522857D01*
X114482142Y-24665714D01*
X114553571Y-24737142D01*
X114696428Y-24808571D01*
X114982142Y-24808571D01*
X115125000Y-24737142D01*
X115196428Y-24665714D01*
X115267857Y-24522857D01*
X115267857Y-23308571D01*
D11*
X96290000Y-49978571D02*
X96575714Y-49978571D01*
X96718571Y-50050000D01*
X96861428Y-50192857D01*
X96932857Y-50478571D01*
X96932857Y-50978571D01*
X96861428Y-51264285D01*
X96718571Y-51407142D01*
X96575714Y-51478571D01*
X96290000Y-51478571D01*
X96147142Y-51407142D01*
X96004285Y-51264285D01*
X95932857Y-50978571D01*
X95932857Y-50478571D01*
X96004285Y-50192857D01*
X96147142Y-50050000D01*
X96290000Y-49978571D01*
X97575714Y-49978571D02*
X97575714Y-51192857D01*
X97647142Y-51335714D01*
X97718571Y-51407142D01*
X97861428Y-51478571D01*
X98147142Y-51478571D01*
X98290000Y-51407142D01*
X98361428Y-51335714D01*
X98432857Y-51192857D01*
X98432857Y-49978571D01*
X98932857Y-49978571D02*
X99790000Y-49978571D01*
X99361428Y-51478571D02*
X99361428Y-49978571D01*
X61444285Y-51478571D02*
X61444285Y-49978571D01*
X62158571Y-51478571D02*
X62158571Y-49978571D01*
X63015714Y-51478571D01*
X63015714Y-49978571D01*
D12*
X66294166Y-26939761D02*
X65151309Y-26939761D01*
X65722738Y-26939761D02*
X65722738Y-24939761D01*
X65532261Y-25225476D01*
X65341785Y-25415952D01*
X65151309Y-25511190D01*
X67246547Y-26939761D02*
X67627500Y-26939761D01*
X67817976Y-26844523D01*
X67913214Y-26749285D01*
X68103690Y-26463571D01*
X68198928Y-26082619D01*
X68198928Y-25320714D01*
X68103690Y-25130238D01*
X68008452Y-25035000D01*
X67817976Y-24939761D01*
X67437023Y-24939761D01*
X67246547Y-25035000D01*
X67151309Y-25130238D01*
X67056071Y-25320714D01*
X67056071Y-25796904D01*
X67151309Y-25987380D01*
X67246547Y-26082619D01*
X67437023Y-26177857D01*
X67817976Y-26177857D01*
X68008452Y-26082619D01*
X68103690Y-25987380D01*
X68198928Y-25796904D01*
X68865595Y-24939761D02*
X70103690Y-24939761D01*
X69437023Y-25701666D01*
X69722738Y-25701666D01*
X69913214Y-25796904D01*
X70008452Y-25892142D01*
X70103690Y-26082619D01*
X70103690Y-26558809D01*
X70008452Y-26749285D01*
X69913214Y-26844523D01*
X69722738Y-26939761D01*
X69151309Y-26939761D01*
X68960833Y-26844523D01*
X68865595Y-26749285D01*
X66611666Y-39322261D02*
X65468809Y-39322261D01*
X66040238Y-39322261D02*
X66040238Y-37322261D01*
X65849761Y-37607976D01*
X65659285Y-37798452D01*
X65468809Y-37893690D01*
X67564047Y-39322261D02*
X67945000Y-39322261D01*
X68135476Y-39227023D01*
X68230714Y-39131785D01*
X68421190Y-38846071D01*
X68516428Y-38465119D01*
X68516428Y-37703214D01*
X68421190Y-37512738D01*
X68325952Y-37417500D01*
X68135476Y-37322261D01*
X67754523Y-37322261D01*
X67564047Y-37417500D01*
X67468809Y-37512738D01*
X67373571Y-37703214D01*
X67373571Y-38179404D01*
X67468809Y-38369880D01*
X67564047Y-38465119D01*
X67754523Y-38560357D01*
X68135476Y-38560357D01*
X68325952Y-38465119D01*
X68421190Y-38369880D01*
X68516428Y-38179404D01*
X69183095Y-37322261D02*
X70421190Y-37322261D01*
X69754523Y-38084166D01*
X70040238Y-38084166D01*
X70230714Y-38179404D01*
X70325952Y-38274642D01*
X70421190Y-38465119D01*
X70421190Y-38941309D01*
X70325952Y-39131785D01*
X70230714Y-39227023D01*
X70040238Y-39322261D01*
X69468809Y-39322261D01*
X69278333Y-39227023D01*
X69183095Y-39131785D01*
X86725238Y-41211190D02*
X86630000Y-41115952D01*
X86534761Y-40925476D01*
X86534761Y-40449285D01*
X86630000Y-40258809D01*
X86725238Y-40163571D01*
X86915714Y-40068333D01*
X87106190Y-40068333D01*
X87391904Y-40163571D01*
X88534761Y-41306428D01*
X88534761Y-40068333D01*
X87201428Y-38354047D02*
X88534761Y-38354047D01*
X86439523Y-38830238D02*
X87868095Y-39306428D01*
X87868095Y-38068333D01*
X86534761Y-36354047D02*
X86534761Y-37306428D01*
X87487142Y-37401666D01*
X87391904Y-37306428D01*
X87296666Y-37115952D01*
X87296666Y-36639761D01*
X87391904Y-36449285D01*
X87487142Y-36354047D01*
X87677619Y-36258809D01*
X88153809Y-36258809D01*
X88344285Y-36354047D01*
X88439523Y-36449285D01*
X88534761Y-36639761D01*
X88534761Y-37115952D01*
X88439523Y-37306428D01*
X88344285Y-37401666D01*
X113411190Y-39735238D02*
X113506428Y-39640000D01*
X113696904Y-39544761D01*
X114173095Y-39544761D01*
X114363571Y-39640000D01*
X114458809Y-39735238D01*
X114554047Y-39925714D01*
X114554047Y-40116190D01*
X114458809Y-40401904D01*
X113315952Y-41544761D01*
X114554047Y-41544761D01*
X115220714Y-39544761D02*
X116554047Y-39544761D01*
X115696904Y-41544761D01*
D13*
X108878928Y-21677142D02*
X107878928Y-20248571D01*
X107164642Y-21677142D02*
X107164642Y-18677142D01*
X108307500Y-18677142D01*
X108593214Y-18820000D01*
X108736071Y-18962857D01*
X108878928Y-19248571D01*
X108878928Y-19677142D01*
X108736071Y-19962857D01*
X108593214Y-20105714D01*
X108307500Y-20248571D01*
X107164642Y-20248571D01*
X110164642Y-20105714D02*
X111164642Y-20105714D01*
X111593214Y-21677142D02*
X110164642Y-21677142D01*
X110164642Y-18677142D01*
X111593214Y-18677142D01*
X114450357Y-18820000D02*
X114164642Y-18677142D01*
X113736071Y-18677142D01*
X113307500Y-18820000D01*
X113021785Y-19105714D01*
X112878928Y-19391428D01*
X112736071Y-19962857D01*
X112736071Y-20391428D01*
X112878928Y-20962857D01*
X113021785Y-21248571D01*
X113307500Y-21534285D01*
X113736071Y-21677142D01*
X114021785Y-21677142D01*
X114450357Y-21534285D01*
X114593214Y-21391428D01*
X114593214Y-20391428D01*
X114021785Y-20391428D01*
D14*
X75676190Y-51252380D02*
X75342857Y-50776190D01*
X75104761Y-51252380D02*
X75104761Y-50252380D01*
X75485714Y-50252380D01*
X75580952Y-50300000D01*
X75628571Y-50347619D01*
X75676190Y-50442857D01*
X75676190Y-50585714D01*
X75628571Y-50680952D01*
X75580952Y-50728571D01*
X75485714Y-50776190D01*
X75104761Y-50776190D01*
X76485714Y-51204761D02*
X76390476Y-51252380D01*
X76200000Y-51252380D01*
X76104761Y-51204761D01*
X76057142Y-51109523D01*
X76057142Y-50728571D01*
X76104761Y-50633333D01*
X76200000Y-50585714D01*
X76390476Y-50585714D01*
X76485714Y-50633333D01*
X76533333Y-50728571D01*
X76533333Y-50823809D01*
X76057142Y-50919047D01*
X76914285Y-51204761D02*
X77009523Y-51252380D01*
X77200000Y-51252380D01*
X77295238Y-51204761D01*
X77342857Y-51109523D01*
X77342857Y-51061904D01*
X77295238Y-50966666D01*
X77200000Y-50919047D01*
X77057142Y-50919047D01*
X76961904Y-50871428D01*
X76914285Y-50776190D01*
X76914285Y-50728571D01*
X76961904Y-50633333D01*
X77057142Y-50585714D01*
X77200000Y-50585714D01*
X77295238Y-50633333D01*
D15*
X88420000Y-31907500D02*
G75*
G02*
X86515000Y-31907500I-952500J0D01*
G01*
X62885000Y-37465000D02*
G75*
G02*
X62885000Y-39370000I0J-952500D01*
G01*
D14*
X79359166Y-18502380D02*
X80025833Y-18502380D01*
X79597261Y-19502380D01*
X100917380Y-18502380D02*
X101012619Y-18502380D01*
X101107857Y-18550000D01*
X101155476Y-18597619D01*
X101203095Y-18692857D01*
X101250714Y-18883333D01*
X101250714Y-19121428D01*
X101203095Y-19311904D01*
X101155476Y-19407142D01*
X101107857Y-19454761D01*
X101012619Y-19502380D01*
X100917380Y-19502380D01*
X100822142Y-19454761D01*
X100774523Y-19407142D01*
X100726904Y-19311904D01*
X100679285Y-19121428D01*
X100679285Y-18883333D01*
X100726904Y-18692857D01*
X100774523Y-18597619D01*
X100822142Y-18550000D01*
X100917380Y-18502380D01*
D15*
X110500000Y-39687500D02*
G75*
G02*
X110500000Y-41592500I0J-952500D01*
G01*
X62885000Y-25082500D02*
G75*
G02*
X62885000Y-26987500I0J-952500D01*
G01*
D14*
X118538809Y-49885000D02*
X119538809Y-49885000D01*
X119348333Y-51252380D02*
X119015000Y-50776190D01*
X118776904Y-51252380D02*
X118776904Y-50252380D01*
X119157857Y-50252380D01*
X119253095Y-50300000D01*
X119300714Y-50347619D01*
X119348333Y-50442857D01*
X119348333Y-50585714D01*
X119300714Y-50680952D01*
X119253095Y-50728571D01*
X119157857Y-50776190D01*
X118776904Y-50776190D01*
X119538809Y-49885000D02*
X120443571Y-49885000D01*
X119919761Y-51252380D02*
X119824523Y-51204761D01*
X119776904Y-51157142D01*
X119729285Y-51061904D01*
X119729285Y-50776190D01*
X119776904Y-50680952D01*
X119824523Y-50633333D01*
X119919761Y-50585714D01*
X120062619Y-50585714D01*
X120157857Y-50633333D01*
X120205476Y-50680952D01*
X120253095Y-50776190D01*
X120253095Y-51061904D01*
X120205476Y-51157142D01*
X120157857Y-51204761D01*
X120062619Y-51252380D01*
X119919761Y-51252380D01*
X120443571Y-49885000D02*
X121491190Y-49885000D01*
X120586428Y-50585714D02*
X120776904Y-51252380D01*
X120967380Y-50776190D01*
X121157857Y-51252380D01*
X121348333Y-50585714D01*
X115308214Y-49885000D02*
X116308214Y-49885000D01*
X116117738Y-51157142D02*
X116070119Y-51204761D01*
X115927261Y-51252380D01*
X115832023Y-51252380D01*
X115689166Y-51204761D01*
X115593928Y-51109523D01*
X115546309Y-51014285D01*
X115498690Y-50823809D01*
X115498690Y-50680952D01*
X115546309Y-50490476D01*
X115593928Y-50395238D01*
X115689166Y-50300000D01*
X115832023Y-50252380D01*
X115927261Y-50252380D01*
X116070119Y-50300000D01*
X116117738Y-50347619D01*
X116308214Y-49885000D02*
X117212976Y-49885000D01*
X116689166Y-51252380D02*
X116593928Y-51204761D01*
X116546309Y-51157142D01*
X116498690Y-51061904D01*
X116498690Y-50776190D01*
X116546309Y-50680952D01*
X116593928Y-50633333D01*
X116689166Y-50585714D01*
X116832023Y-50585714D01*
X116927261Y-50633333D01*
X116974880Y-50680952D01*
X117022500Y-50776190D01*
X117022500Y-51061904D01*
X116974880Y-51157142D01*
X116927261Y-51204761D01*
X116832023Y-51252380D01*
X116689166Y-51252380D01*
X117212976Y-49885000D02*
X117736785Y-49885000D01*
X117593928Y-51252380D02*
X117498690Y-51204761D01*
X117451071Y-51109523D01*
X117451071Y-50252380D01*
X112371309Y-49885000D02*
X113371309Y-49885000D01*
X113180833Y-51157142D02*
X113133214Y-51204761D01*
X112990357Y-51252380D01*
X112895119Y-51252380D01*
X112752261Y-51204761D01*
X112657023Y-51109523D01*
X112609404Y-51014285D01*
X112561785Y-50823809D01*
X112561785Y-50680952D01*
X112609404Y-50490476D01*
X112657023Y-50395238D01*
X112752261Y-50300000D01*
X112895119Y-50252380D01*
X112990357Y-50252380D01*
X113133214Y-50300000D01*
X113180833Y-50347619D01*
X113371309Y-49885000D02*
X114323690Y-49885000D01*
X113561785Y-51204761D02*
X113704642Y-51252380D01*
X113942738Y-51252380D01*
X114037976Y-51204761D01*
X114085595Y-51157142D01*
X114133214Y-51061904D01*
X114133214Y-50966666D01*
X114085595Y-50871428D01*
X114037976Y-50823809D01*
X113942738Y-50776190D01*
X113752261Y-50728571D01*
X113657023Y-50680952D01*
X113609404Y-50633333D01*
X113561785Y-50538095D01*
X113561785Y-50442857D01*
X113609404Y-50347619D01*
X113657023Y-50300000D01*
X113752261Y-50252380D01*
X113990357Y-50252380D01*
X114133214Y-50300000D01*
X88804761Y-51347619D02*
X88709523Y-51300000D01*
X88614285Y-51204761D01*
X88471428Y-51061904D01*
X88376190Y-51014285D01*
X88280952Y-51014285D01*
X88328571Y-51252380D02*
X88233333Y-51204761D01*
X88138095Y-51109523D01*
X88090476Y-50919047D01*
X88090476Y-50585714D01*
X88138095Y-50395238D01*
X88233333Y-50300000D01*
X88328571Y-50252380D01*
X88519047Y-50252380D01*
X88614285Y-50300000D01*
X88709523Y-50395238D01*
X88757142Y-50585714D01*
X88757142Y-50919047D01*
X88709523Y-51109523D01*
X88614285Y-51204761D01*
X88519047Y-51252380D01*
X88328571Y-51252380D01*
X89376190Y-50252380D02*
X89471428Y-50252380D01*
X89566666Y-50300000D01*
X89614285Y-50347619D01*
X89661904Y-50442857D01*
X89709523Y-50633333D01*
X89709523Y-50871428D01*
X89661904Y-51061904D01*
X89614285Y-51157142D01*
X89566666Y-51204761D01*
X89471428Y-51252380D01*
X89376190Y-51252380D01*
X89280952Y-51204761D01*
X89233333Y-51157142D01*
X89185714Y-51061904D01*
X89138095Y-50871428D01*
X89138095Y-50633333D01*
X89185714Y-50442857D01*
X89233333Y-50347619D01*
X89280952Y-50300000D01*
X89376190Y-50252380D01*
X106584761Y-51665119D02*
X106489523Y-51617500D01*
X106394285Y-51522261D01*
X106251428Y-51379404D01*
X106156190Y-51331785D01*
X106060952Y-51331785D01*
X106108571Y-51569880D02*
X106013333Y-51522261D01*
X105918095Y-51427023D01*
X105870476Y-51236547D01*
X105870476Y-50903214D01*
X105918095Y-50712738D01*
X106013333Y-50617500D01*
X106108571Y-50569880D01*
X106299047Y-50569880D01*
X106394285Y-50617500D01*
X106489523Y-50712738D01*
X106537142Y-50903214D01*
X106537142Y-51236547D01*
X106489523Y-51427023D01*
X106394285Y-51522261D01*
X106299047Y-51569880D01*
X106108571Y-51569880D01*
X106870476Y-50569880D02*
X107537142Y-50569880D01*
X107108571Y-51569880D01*
X80319642Y-50300000D02*
X80224404Y-50252380D01*
X80081547Y-50252380D01*
X79938690Y-50300000D01*
X79843452Y-50395238D01*
X79795833Y-50490476D01*
X79748214Y-50680952D01*
X79748214Y-50823809D01*
X79795833Y-51014285D01*
X79843452Y-51109523D01*
X79938690Y-51204761D01*
X80081547Y-51252380D01*
X80176785Y-51252380D01*
X80319642Y-51204761D01*
X80367261Y-51157142D01*
X80367261Y-50823809D01*
X80176785Y-50823809D01*
X80795833Y-50585714D02*
X80795833Y-51252380D01*
X80795833Y-50680952D02*
X80843452Y-50633333D01*
X80938690Y-50585714D01*
X81081547Y-50585714D01*
X81176785Y-50633333D01*
X81224404Y-50728571D01*
X81224404Y-51252380D01*
X82129166Y-51252380D02*
X82129166Y-50252380D01*
X82129166Y-51204761D02*
X82033928Y-51252380D01*
X81843452Y-51252380D01*
X81748214Y-51204761D01*
X81700595Y-51157142D01*
X81652976Y-51061904D01*
X81652976Y-50776190D01*
X81700595Y-50680952D01*
X81748214Y-50633333D01*
X81843452Y-50585714D01*
X82033928Y-50585714D01*
X82129166Y-50633333D01*
X82947023Y-50252380D02*
X83280357Y-51252380D01*
X83613690Y-50252380D01*
X84375595Y-51204761D02*
X84280357Y-51252380D01*
X84089880Y-51252380D01*
X83994642Y-51204761D01*
X83947023Y-51157142D01*
X83899404Y-51061904D01*
X83899404Y-50776190D01*
X83947023Y-50680952D01*
X83994642Y-50633333D01*
X84089880Y-50585714D01*
X84280357Y-50585714D01*
X84375595Y-50633333D01*
X85232738Y-51204761D02*
X85137500Y-51252380D01*
X84947023Y-51252380D01*
X84851785Y-51204761D01*
X84804166Y-51157142D01*
X84756547Y-51061904D01*
X84756547Y-50776190D01*
X84804166Y-50680952D01*
X84851785Y-50633333D01*
X84947023Y-50585714D01*
X85137500Y-50585714D01*
X85232738Y-50633333D01*
X52601904Y-51252380D02*
X52601904Y-50252380D01*
X52840000Y-50252380D01*
X52982857Y-50300000D01*
X53078095Y-50395238D01*
X53125714Y-50490476D01*
X53173333Y-50680952D01*
X53173333Y-50823809D01*
X53125714Y-51014285D01*
X53078095Y-51109523D01*
X52982857Y-51204761D01*
X52840000Y-51252380D01*
X52601904Y-51252380D01*
X53506666Y-50252380D02*
X54173333Y-50252380D01*
X53744761Y-51252380D01*
X70381904Y-51252380D02*
X70381904Y-50252380D01*
X70620000Y-50252380D01*
X70762857Y-50300000D01*
X70858095Y-50395238D01*
X70905714Y-50490476D01*
X70953333Y-50680952D01*
X70953333Y-50823809D01*
X70905714Y-51014285D01*
X70858095Y-51109523D01*
X70762857Y-51204761D01*
X70620000Y-51252380D01*
X70381904Y-51252380D01*
X71572380Y-50252380D02*
X71667619Y-50252380D01*
X71762857Y-50300000D01*
X71810476Y-50347619D01*
X71858095Y-50442857D01*
X71905714Y-50633333D01*
X71905714Y-50871428D01*
X71858095Y-51061904D01*
X71810476Y-51157142D01*
X71762857Y-51204761D01*
X71667619Y-51252380D01*
X71572380Y-51252380D01*
X71477142Y-51204761D01*
X71429523Y-51157142D01*
X71381904Y-51061904D01*
X71334285Y-50871428D01*
X71334285Y-50633333D01*
X71381904Y-50442857D01*
X71429523Y-50347619D01*
X71477142Y-50300000D01*
X71572380Y-50252380D01*
D15*
X72797936Y-44350000D02*
X73252064Y-44350000D01*
X72797936Y-45820000D02*
X73252064Y-45820000D01*
X72797936Y-46890000D02*
X73252064Y-46890000D01*
X72797936Y-48360000D02*
X73252064Y-48360000D01*
X62885000Y-25717500D02*
X62885000Y-29217500D01*
X62885000Y-25717500D02*
X62885000Y-23767500D01*
X73005000Y-25717500D02*
X73005000Y-27667500D01*
X73005000Y-25717500D02*
X73005000Y-23767500D01*
X62885000Y-38417500D02*
X62885000Y-41917500D01*
X62885000Y-38417500D02*
X62885000Y-36467500D01*
X73005000Y-38417500D02*
X73005000Y-40367500D01*
X73005000Y-38417500D02*
X73005000Y-36467500D01*
X86303752Y-45937500D02*
X85781248Y-45937500D01*
X86303752Y-47407500D02*
X85781248Y-47407500D01*
X98325000Y-23992064D02*
X98325000Y-23537936D01*
X99795000Y-23992064D02*
X99795000Y-23537936D01*
X95785000Y-23992064D02*
X95785000Y-23537936D01*
X97255000Y-23992064D02*
X97255000Y-23537936D01*
X93245000Y-23992064D02*
X93245000Y-23537936D01*
X94715000Y-23992064D02*
X94715000Y-23537936D01*
X90705000Y-23992064D02*
X90705000Y-23537936D01*
X92175000Y-23992064D02*
X92175000Y-23537936D01*
X88165000Y-23992064D02*
X88165000Y-23537936D01*
X89635000Y-23992064D02*
X89635000Y-23537936D01*
X85625000Y-23992064D02*
X85625000Y-23537936D01*
X87095000Y-23992064D02*
X87095000Y-23537936D01*
X83085000Y-23992064D02*
X83085000Y-23537936D01*
X84555000Y-23992064D02*
X84555000Y-23537936D01*
X80545000Y-23992064D02*
X80545000Y-23537936D01*
X82015000Y-23992064D02*
X82015000Y-23537936D01*
X100020000Y-20050000D02*
X100020000Y-17190000D01*
X100020000Y-17190000D02*
X98100000Y-17190000D01*
X98100000Y-17190000D02*
X98100000Y-20050000D01*
X97480000Y-20050000D02*
X97480000Y-17190000D01*
X97480000Y-17190000D02*
X95560000Y-17190000D01*
X95560000Y-17190000D02*
X95560000Y-20050000D01*
X94940000Y-20050000D02*
X94940000Y-17190000D01*
X94940000Y-17190000D02*
X93020000Y-17190000D01*
X93020000Y-17190000D02*
X93020000Y-20050000D01*
X92400000Y-20050000D02*
X92400000Y-17190000D01*
X92400000Y-17190000D02*
X90480000Y-17190000D01*
X90480000Y-17190000D02*
X90480000Y-20050000D01*
X89860000Y-20050000D02*
X89860000Y-17190000D01*
X89860000Y-17190000D02*
X87940000Y-17190000D01*
X87940000Y-17190000D02*
X87940000Y-20050000D01*
X87320000Y-20050000D02*
X87320000Y-17190000D01*
X87320000Y-17190000D02*
X85400000Y-17190000D01*
X85400000Y-17190000D02*
X85400000Y-20050000D01*
X84780000Y-20050000D02*
X84780000Y-17190000D01*
X84780000Y-17190000D02*
X82860000Y-17190000D01*
X82860000Y-17190000D02*
X82860000Y-20050000D01*
X82240000Y-20050000D02*
X82240000Y-17190000D01*
X82240000Y-17190000D02*
X80320000Y-17190000D01*
X80320000Y-17190000D02*
X80320000Y-20050000D01*
X72390000Y-52070000D02*
X72390000Y-53340000D01*
X71120000Y-52070000D02*
X72390000Y-52070000D01*
X52960000Y-54382929D02*
X52960000Y-54780000D01*
X53720000Y-54382929D02*
X53720000Y-54780000D01*
X52960000Y-63440000D02*
X52960000Y-57440000D01*
X53720000Y-63440000D02*
X52960000Y-63440000D01*
X53720000Y-57440000D02*
X53720000Y-63440000D01*
X54610000Y-54780000D02*
X54610000Y-57440000D01*
X55500000Y-54382929D02*
X55500000Y-54780000D01*
X56260000Y-54382929D02*
X56260000Y-54780000D01*
X55500000Y-63440000D02*
X55500000Y-57440000D01*
X56260000Y-63440000D02*
X55500000Y-63440000D01*
X56260000Y-57440000D02*
X56260000Y-63440000D01*
X57150000Y-54780000D02*
X57150000Y-57440000D01*
X58040000Y-54382929D02*
X58040000Y-54780000D01*
X58800000Y-54382929D02*
X58800000Y-54780000D01*
X58040000Y-63440000D02*
X58040000Y-57440000D01*
X58800000Y-63440000D02*
X58040000Y-63440000D01*
X58800000Y-57440000D02*
X58800000Y-63440000D01*
X59690000Y-54780000D02*
X59690000Y-57440000D01*
X60580000Y-54382929D02*
X60580000Y-54780000D01*
X61340000Y-54382929D02*
X61340000Y-54780000D01*
X60580000Y-63440000D02*
X60580000Y-57440000D01*
X61340000Y-63440000D02*
X60580000Y-63440000D01*
X61340000Y-57440000D02*
X61340000Y-63440000D01*
X62230000Y-54780000D02*
X62230000Y-57440000D01*
X63120000Y-54382929D02*
X63120000Y-54780000D01*
X63880000Y-54382929D02*
X63880000Y-54780000D01*
X63120000Y-63440000D02*
X63120000Y-57440000D01*
X63880000Y-63440000D02*
X63120000Y-63440000D01*
X63880000Y-57440000D02*
X63880000Y-63440000D01*
X64770000Y-54780000D02*
X64770000Y-57440000D01*
X65660000Y-54382929D02*
X65660000Y-54780000D01*
X66420000Y-54382929D02*
X66420000Y-54780000D01*
X65660000Y-63440000D02*
X65660000Y-57440000D01*
X66420000Y-63440000D02*
X65660000Y-63440000D01*
X66420000Y-57440000D02*
X66420000Y-63440000D01*
X67310000Y-54780000D02*
X67310000Y-57440000D01*
X68200000Y-54382929D02*
X68200000Y-54780000D01*
X68960000Y-54382929D02*
X68960000Y-54780000D01*
X68200000Y-63440000D02*
X68200000Y-57440000D01*
X68960000Y-63440000D02*
X68200000Y-63440000D01*
X68960000Y-57440000D02*
X68960000Y-63440000D01*
X69850000Y-54780000D02*
X69850000Y-57440000D01*
X70740000Y-54450000D02*
X70740000Y-54780000D01*
X71500000Y-54450000D02*
X71500000Y-54780000D01*
X70840000Y-57440000D02*
X70840000Y-63440000D01*
X70960000Y-57440000D02*
X70960000Y-63440000D01*
X71080000Y-57440000D02*
X71080000Y-63440000D01*
X71200000Y-57440000D02*
X71200000Y-63440000D01*
X71320000Y-57440000D02*
X71320000Y-63440000D01*
X71440000Y-57440000D02*
X71440000Y-63440000D01*
X70740000Y-63440000D02*
X70740000Y-57440000D01*
X71500000Y-63440000D02*
X70740000Y-63440000D01*
X71500000Y-57440000D02*
X71500000Y-63440000D01*
X72450000Y-57440000D02*
X72450000Y-54780000D01*
X52010000Y-57440000D02*
X72450000Y-57440000D01*
X52010000Y-54780000D02*
X52010000Y-57440000D01*
X72450000Y-54780000D02*
X52010000Y-54780000D01*
X108010000Y-54780000D02*
X87570000Y-54780000D01*
X87570000Y-54780000D02*
X87570000Y-57440000D01*
X87570000Y-57440000D02*
X108010000Y-57440000D01*
X108010000Y-57440000D02*
X108010000Y-54780000D01*
X107060000Y-57440000D02*
X107060000Y-63440000D01*
X107060000Y-63440000D02*
X106300000Y-63440000D01*
X106300000Y-63440000D02*
X106300000Y-57440000D01*
X107000000Y-57440000D02*
X107000000Y-63440000D01*
X106880000Y-57440000D02*
X106880000Y-63440000D01*
X106760000Y-57440000D02*
X106760000Y-63440000D01*
X106640000Y-57440000D02*
X106640000Y-63440000D01*
X106520000Y-57440000D02*
X106520000Y-63440000D01*
X106400000Y-57440000D02*
X106400000Y-63440000D01*
X107060000Y-54450000D02*
X107060000Y-54780000D01*
X106300000Y-54450000D02*
X106300000Y-54780000D01*
X105410000Y-54780000D02*
X105410000Y-57440000D01*
X104520000Y-57440000D02*
X104520000Y-63440000D01*
X104520000Y-63440000D02*
X103760000Y-63440000D01*
X103760000Y-63440000D02*
X103760000Y-57440000D01*
X104520000Y-54382929D02*
X104520000Y-54780000D01*
X103760000Y-54382929D02*
X103760000Y-54780000D01*
X102870000Y-54780000D02*
X102870000Y-57440000D01*
X101980000Y-57440000D02*
X101980000Y-63440000D01*
X101980000Y-63440000D02*
X101220000Y-63440000D01*
X101220000Y-63440000D02*
X101220000Y-57440000D01*
X101980000Y-54382929D02*
X101980000Y-54780000D01*
X101220000Y-54382929D02*
X101220000Y-54780000D01*
X100330000Y-54780000D02*
X100330000Y-57440000D01*
X99440000Y-57440000D02*
X99440000Y-63440000D01*
X99440000Y-63440000D02*
X98680000Y-63440000D01*
X98680000Y-63440000D02*
X98680000Y-57440000D01*
X99440000Y-54382929D02*
X99440000Y-54780000D01*
X98680000Y-54382929D02*
X98680000Y-54780000D01*
X97790000Y-54780000D02*
X97790000Y-57440000D01*
X96900000Y-57440000D02*
X96900000Y-63440000D01*
X96900000Y-63440000D02*
X96140000Y-63440000D01*
X96140000Y-63440000D02*
X96140000Y-57440000D01*
X96900000Y-54382929D02*
X96900000Y-54780000D01*
X96140000Y-54382929D02*
X96140000Y-54780000D01*
X95250000Y-54780000D02*
X95250000Y-57440000D01*
X94360000Y-57440000D02*
X94360000Y-63440000D01*
X94360000Y-63440000D02*
X93600000Y-63440000D01*
X93600000Y-63440000D02*
X93600000Y-57440000D01*
X94360000Y-54382929D02*
X94360000Y-54780000D01*
X93600000Y-54382929D02*
X93600000Y-54780000D01*
X92710000Y-54780000D02*
X92710000Y-57440000D01*
X91820000Y-57440000D02*
X91820000Y-63440000D01*
X91820000Y-63440000D02*
X91060000Y-63440000D01*
X91060000Y-63440000D02*
X91060000Y-57440000D01*
X91820000Y-54382929D02*
X91820000Y-54780000D01*
X91060000Y-54382929D02*
X91060000Y-54780000D01*
X90170000Y-54780000D02*
X90170000Y-57440000D01*
X89280000Y-57440000D02*
X89280000Y-63440000D01*
X89280000Y-63440000D02*
X88520000Y-63440000D01*
X88520000Y-63440000D02*
X88520000Y-57440000D01*
X89280000Y-54382929D02*
X89280000Y-54780000D01*
X88520000Y-54382929D02*
X88520000Y-54780000D01*
X106680000Y-52070000D02*
X107950000Y-52070000D01*
X107950000Y-52070000D02*
X107950000Y-53340000D01*
X85090000Y-52070000D02*
X85090000Y-53340000D01*
X83820000Y-52070000D02*
X85090000Y-52070000D01*
X80900000Y-54382929D02*
X80900000Y-54780000D01*
X81660000Y-54382929D02*
X81660000Y-54780000D01*
X80900000Y-63440000D02*
X80900000Y-57440000D01*
X81660000Y-63440000D02*
X80900000Y-63440000D01*
X81660000Y-57440000D02*
X81660000Y-63440000D01*
X82550000Y-54780000D02*
X82550000Y-57440000D01*
X83440000Y-54450000D02*
X83440000Y-54780000D01*
X84200000Y-54450000D02*
X84200000Y-54780000D01*
X83540000Y-57440000D02*
X83540000Y-63440000D01*
X83660000Y-57440000D02*
X83660000Y-63440000D01*
X83780000Y-57440000D02*
X83780000Y-63440000D01*
X83900000Y-57440000D02*
X83900000Y-63440000D01*
X84020000Y-57440000D02*
X84020000Y-63440000D01*
X84140000Y-57440000D02*
X84140000Y-63440000D01*
X83440000Y-63440000D02*
X83440000Y-57440000D01*
X84200000Y-63440000D02*
X83440000Y-63440000D01*
X84200000Y-57440000D02*
X84200000Y-63440000D01*
X85150000Y-57440000D02*
X85150000Y-54780000D01*
X79950000Y-57440000D02*
X85150000Y-57440000D01*
X79950000Y-54780000D02*
X79950000Y-57440000D01*
X85150000Y-54780000D02*
X79950000Y-54780000D01*
X119370000Y-40640000D02*
X119370000Y-38690000D01*
X119370000Y-40640000D02*
X119370000Y-42590000D01*
X110500000Y-40640000D02*
X110500000Y-38690000D01*
X110500000Y-40640000D02*
X110500000Y-44090000D01*
X83607500Y-32142500D02*
X81917500Y-32142500D01*
X83607500Y-31907500D02*
X83607500Y-32142500D01*
X87467500Y-31907500D02*
X83607500Y-31907500D01*
X91327500Y-31907500D02*
X91327500Y-32142500D01*
X87467500Y-31907500D02*
X91327500Y-31907500D01*
X83607500Y-44927500D02*
X83607500Y-44692500D01*
X87467500Y-44927500D02*
X83607500Y-44927500D01*
X91327500Y-44927500D02*
X91327500Y-44692500D01*
X87467500Y-44927500D02*
X91327500Y-44927500D01*
X120650000Y-52070000D02*
X120650000Y-53340000D01*
X119380000Y-52070000D02*
X120650000Y-52070000D01*
X113920000Y-54382929D02*
X113920000Y-54780000D01*
X114680000Y-54382929D02*
X114680000Y-54780000D01*
X113920000Y-63440000D02*
X113920000Y-57440000D01*
X114680000Y-63440000D02*
X113920000Y-63440000D01*
X114680000Y-57440000D02*
X114680000Y-63440000D01*
X115570000Y-54780000D02*
X115570000Y-57440000D01*
X116460000Y-54382929D02*
X116460000Y-54780000D01*
X117220000Y-54382929D02*
X117220000Y-54780000D01*
X116460000Y-63440000D02*
X116460000Y-57440000D01*
X117220000Y-63440000D02*
X116460000Y-63440000D01*
X117220000Y-57440000D02*
X117220000Y-63440000D01*
X118110000Y-54780000D02*
X118110000Y-57440000D01*
X119000000Y-54450000D02*
X119000000Y-54780000D01*
X119760000Y-54450000D02*
X119760000Y-54780000D01*
X119100000Y-57440000D02*
X119100000Y-63440000D01*
X119220000Y-57440000D02*
X119220000Y-63440000D01*
X119340000Y-57440000D02*
X119340000Y-63440000D01*
X119460000Y-57440000D02*
X119460000Y-63440000D01*
X119580000Y-57440000D02*
X119580000Y-63440000D01*
X119700000Y-57440000D02*
X119700000Y-63440000D01*
X119000000Y-63440000D02*
X119000000Y-57440000D01*
X119760000Y-63440000D02*
X119000000Y-63440000D01*
X119760000Y-57440000D02*
X119760000Y-63440000D01*
X120710000Y-57440000D02*
X120710000Y-54780000D01*
X112970000Y-57440000D02*
X120710000Y-57440000D01*
X112970000Y-54780000D02*
X112970000Y-57440000D01*
X120710000Y-54780000D02*
X112970000Y-54780000D01*
X77470000Y-52070000D02*
X77470000Y-53340000D01*
X76200000Y-52070000D02*
X77470000Y-52070000D01*
X75820000Y-54450000D02*
X75820000Y-54780000D01*
X76580000Y-54450000D02*
X76580000Y-54780000D01*
X75920000Y-57440000D02*
X75920000Y-63440000D01*
X76040000Y-57440000D02*
X76040000Y-63440000D01*
X76160000Y-57440000D02*
X76160000Y-63440000D01*
X76280000Y-57440000D02*
X76280000Y-63440000D01*
X76400000Y-57440000D02*
X76400000Y-63440000D01*
X76520000Y-57440000D02*
X76520000Y-63440000D01*
X75820000Y-63440000D02*
X75820000Y-57440000D01*
X76580000Y-63440000D02*
X75820000Y-63440000D01*
X76580000Y-57440000D02*
X76580000Y-63440000D01*
X77530000Y-57440000D02*
X77530000Y-54780000D01*
X74870000Y-57440000D02*
X77530000Y-57440000D01*
X74870000Y-54780000D02*
X74870000Y-57440000D01*
X77530000Y-54780000D02*
X74870000Y-54780000D01*
D14*
X75557142Y-44902380D02*
X75223809Y-44426190D01*
X74985714Y-44902380D02*
X74985714Y-43902380D01*
X75366666Y-43902380D01*
X75461904Y-43950000D01*
X75509523Y-43997619D01*
X75557142Y-44092857D01*
X75557142Y-44235714D01*
X75509523Y-44330952D01*
X75461904Y-44378571D01*
X75366666Y-44426190D01*
X74985714Y-44426190D01*
X76509523Y-44902380D02*
X75938095Y-44902380D01*
X76223809Y-44902380D02*
X76223809Y-43902380D01*
X76128571Y-44045238D01*
X76033333Y-44140476D01*
X75938095Y-44188095D01*
X77461904Y-44902380D02*
X76890476Y-44902380D01*
X77176190Y-44902380D02*
X77176190Y-43902380D01*
X77080952Y-44045238D01*
X76985714Y-44140476D01*
X76890476Y-44188095D01*
X75557142Y-48712380D02*
X75223809Y-48236190D01*
X74985714Y-48712380D02*
X74985714Y-47712380D01*
X75366666Y-47712380D01*
X75461904Y-47760000D01*
X75509523Y-47807619D01*
X75557142Y-47902857D01*
X75557142Y-48045714D01*
X75509523Y-48140952D01*
X75461904Y-48188571D01*
X75366666Y-48236190D01*
X74985714Y-48236190D01*
X76509523Y-48712380D02*
X75938095Y-48712380D01*
X76223809Y-48712380D02*
X76223809Y-47712380D01*
X76128571Y-47855238D01*
X76033333Y-47950476D01*
X75938095Y-47998095D01*
X77128571Y-47712380D02*
X77223809Y-47712380D01*
X77319047Y-47760000D01*
X77366666Y-47807619D01*
X77414285Y-47902857D01*
X77461904Y-48093333D01*
X77461904Y-48331428D01*
X77414285Y-48521904D01*
X77366666Y-48617142D01*
X77319047Y-48664761D01*
X77223809Y-48712380D01*
X77128571Y-48712380D01*
X77033333Y-48664761D01*
X76985714Y-48617142D01*
X76938095Y-48521904D01*
X76890476Y-48331428D01*
X76890476Y-48093333D01*
X76938095Y-47902857D01*
X76985714Y-47807619D01*
X77033333Y-47760000D01*
X77128571Y-47712380D01*
X61497380Y-27431904D02*
X62306904Y-27431904D01*
X62402142Y-27384285D01*
X62449761Y-27336666D01*
X62497380Y-27241428D01*
X62497380Y-27050952D01*
X62449761Y-26955714D01*
X62402142Y-26908095D01*
X62306904Y-26860476D01*
X61497380Y-26860476D01*
X61830714Y-25955714D02*
X62497380Y-25955714D01*
X61449761Y-26193809D02*
X62164047Y-26431904D01*
X62164047Y-25812857D01*
X61497380Y-39179404D02*
X62306904Y-39179404D01*
X62402142Y-39131785D01*
X62449761Y-39084166D01*
X62497380Y-38988928D01*
X62497380Y-38798452D01*
X62449761Y-38703214D01*
X62402142Y-38655595D01*
X62306904Y-38607976D01*
X61497380Y-38607976D01*
X62497380Y-37607976D02*
X62497380Y-38179404D01*
X62497380Y-37893690D02*
X61497380Y-37893690D01*
X61640238Y-37988928D01*
X61735476Y-38084166D01*
X61783095Y-38179404D01*
X85875833Y-48709642D02*
X85828214Y-48757261D01*
X85685357Y-48804880D01*
X85590119Y-48804880D01*
X85447261Y-48757261D01*
X85352023Y-48662023D01*
X85304404Y-48566785D01*
X85256785Y-48376309D01*
X85256785Y-48233452D01*
X85304404Y-48042976D01*
X85352023Y-47947738D01*
X85447261Y-47852500D01*
X85590119Y-47804880D01*
X85685357Y-47804880D01*
X85828214Y-47852500D01*
X85875833Y-47900119D01*
X86256785Y-47900119D02*
X86304404Y-47852500D01*
X86399642Y-47804880D01*
X86637738Y-47804880D01*
X86732976Y-47852500D01*
X86780595Y-47900119D01*
X86828214Y-47995357D01*
X86828214Y-48090595D01*
X86780595Y-48233452D01*
X86209166Y-48804880D01*
X86828214Y-48804880D01*
X98893333Y-27122380D02*
X98560000Y-26646190D01*
X98321904Y-27122380D02*
X98321904Y-26122380D01*
X98702857Y-26122380D01*
X98798095Y-26170000D01*
X98845714Y-26217619D01*
X98893333Y-26312857D01*
X98893333Y-26455714D01*
X98845714Y-26550952D01*
X98798095Y-26598571D01*
X98702857Y-26646190D01*
X98321904Y-26646190D01*
X99369523Y-27122380D02*
X99560000Y-27122380D01*
X99655238Y-27074761D01*
X99702857Y-27027142D01*
X99798095Y-26884285D01*
X99845714Y-26693809D01*
X99845714Y-26312857D01*
X99798095Y-26217619D01*
X99750476Y-26170000D01*
X99655238Y-26122380D01*
X99464761Y-26122380D01*
X99369523Y-26170000D01*
X99321904Y-26217619D01*
X99274285Y-26312857D01*
X99274285Y-26550952D01*
X99321904Y-26646190D01*
X99369523Y-26693809D01*
X99464761Y-26741428D01*
X99655238Y-26741428D01*
X99750476Y-26693809D01*
X99798095Y-26646190D01*
X99845714Y-26550952D01*
X96353333Y-27122380D02*
X96020000Y-26646190D01*
X95781904Y-27122380D02*
X95781904Y-26122380D01*
X96162857Y-26122380D01*
X96258095Y-26170000D01*
X96305714Y-26217619D01*
X96353333Y-26312857D01*
X96353333Y-26455714D01*
X96305714Y-26550952D01*
X96258095Y-26598571D01*
X96162857Y-26646190D01*
X95781904Y-26646190D01*
X96924761Y-26550952D02*
X96829523Y-26503333D01*
X96781904Y-26455714D01*
X96734285Y-26360476D01*
X96734285Y-26312857D01*
X96781904Y-26217619D01*
X96829523Y-26170000D01*
X96924761Y-26122380D01*
X97115238Y-26122380D01*
X97210476Y-26170000D01*
X97258095Y-26217619D01*
X97305714Y-26312857D01*
X97305714Y-26360476D01*
X97258095Y-26455714D01*
X97210476Y-26503333D01*
X97115238Y-26550952D01*
X96924761Y-26550952D01*
X96829523Y-26598571D01*
X96781904Y-26646190D01*
X96734285Y-26741428D01*
X96734285Y-26931904D01*
X96781904Y-27027142D01*
X96829523Y-27074761D01*
X96924761Y-27122380D01*
X97115238Y-27122380D01*
X97210476Y-27074761D01*
X97258095Y-27027142D01*
X97305714Y-26931904D01*
X97305714Y-26741428D01*
X97258095Y-26646190D01*
X97210476Y-26598571D01*
X97115238Y-26550952D01*
X93813333Y-27122380D02*
X93480000Y-26646190D01*
X93241904Y-27122380D02*
X93241904Y-26122380D01*
X93622857Y-26122380D01*
X93718095Y-26170000D01*
X93765714Y-26217619D01*
X93813333Y-26312857D01*
X93813333Y-26455714D01*
X93765714Y-26550952D01*
X93718095Y-26598571D01*
X93622857Y-26646190D01*
X93241904Y-26646190D01*
X94146666Y-26122380D02*
X94813333Y-26122380D01*
X94384761Y-27122380D01*
X91273333Y-27122380D02*
X90940000Y-26646190D01*
X90701904Y-27122380D02*
X90701904Y-26122380D01*
X91082857Y-26122380D01*
X91178095Y-26170000D01*
X91225714Y-26217619D01*
X91273333Y-26312857D01*
X91273333Y-26455714D01*
X91225714Y-26550952D01*
X91178095Y-26598571D01*
X91082857Y-26646190D01*
X90701904Y-26646190D01*
X92130476Y-26122380D02*
X91940000Y-26122380D01*
X91844761Y-26170000D01*
X91797142Y-26217619D01*
X91701904Y-26360476D01*
X91654285Y-26550952D01*
X91654285Y-26931904D01*
X91701904Y-27027142D01*
X91749523Y-27074761D01*
X91844761Y-27122380D01*
X92035238Y-27122380D01*
X92130476Y-27074761D01*
X92178095Y-27027142D01*
X92225714Y-26931904D01*
X92225714Y-26693809D01*
X92178095Y-26598571D01*
X92130476Y-26550952D01*
X92035238Y-26503333D01*
X91844761Y-26503333D01*
X91749523Y-26550952D01*
X91701904Y-26598571D01*
X91654285Y-26693809D01*
X88733333Y-27122380D02*
X88400000Y-26646190D01*
X88161904Y-27122380D02*
X88161904Y-26122380D01*
X88542857Y-26122380D01*
X88638095Y-26170000D01*
X88685714Y-26217619D01*
X88733333Y-26312857D01*
X88733333Y-26455714D01*
X88685714Y-26550952D01*
X88638095Y-26598571D01*
X88542857Y-26646190D01*
X88161904Y-26646190D01*
X89638095Y-26122380D02*
X89161904Y-26122380D01*
X89114285Y-26598571D01*
X89161904Y-26550952D01*
X89257142Y-26503333D01*
X89495238Y-26503333D01*
X89590476Y-26550952D01*
X89638095Y-26598571D01*
X89685714Y-26693809D01*
X89685714Y-26931904D01*
X89638095Y-27027142D01*
X89590476Y-27074761D01*
X89495238Y-27122380D01*
X89257142Y-27122380D01*
X89161904Y-27074761D01*
X89114285Y-27027142D01*
X86193333Y-27122380D02*
X85860000Y-26646190D01*
X85621904Y-27122380D02*
X85621904Y-26122380D01*
X86002857Y-26122380D01*
X86098095Y-26170000D01*
X86145714Y-26217619D01*
X86193333Y-26312857D01*
X86193333Y-26455714D01*
X86145714Y-26550952D01*
X86098095Y-26598571D01*
X86002857Y-26646190D01*
X85621904Y-26646190D01*
X87050476Y-26455714D02*
X87050476Y-27122380D01*
X86812380Y-26074761D02*
X86574285Y-26789047D01*
X87193333Y-26789047D01*
X83653333Y-27122380D02*
X83320000Y-26646190D01*
X83081904Y-27122380D02*
X83081904Y-26122380D01*
X83462857Y-26122380D01*
X83558095Y-26170000D01*
X83605714Y-26217619D01*
X83653333Y-26312857D01*
X83653333Y-26455714D01*
X83605714Y-26550952D01*
X83558095Y-26598571D01*
X83462857Y-26646190D01*
X83081904Y-26646190D01*
X83986666Y-26122380D02*
X84605714Y-26122380D01*
X84272380Y-26503333D01*
X84415238Y-26503333D01*
X84510476Y-26550952D01*
X84558095Y-26598571D01*
X84605714Y-26693809D01*
X84605714Y-26931904D01*
X84558095Y-27027142D01*
X84510476Y-27074761D01*
X84415238Y-27122380D01*
X84129523Y-27122380D01*
X84034285Y-27074761D01*
X83986666Y-27027142D01*
X81113333Y-27122380D02*
X80780000Y-26646190D01*
X80541904Y-27122380D02*
X80541904Y-26122380D01*
X80922857Y-26122380D01*
X81018095Y-26170000D01*
X81065714Y-26217619D01*
X81113333Y-26312857D01*
X81113333Y-26455714D01*
X81065714Y-26550952D01*
X81018095Y-26598571D01*
X80922857Y-26646190D01*
X80541904Y-26646190D01*
X81494285Y-26217619D02*
X81541904Y-26170000D01*
X81637142Y-26122380D01*
X81875238Y-26122380D01*
X81970476Y-26170000D01*
X82018095Y-26217619D01*
X82065714Y-26312857D01*
X82065714Y-26408095D01*
X82018095Y-26550952D01*
X81446666Y-27122380D01*
X82065714Y-27122380D01*
X98321904Y-16962380D02*
X98321904Y-15962380D01*
X98560000Y-15962380D01*
X98702857Y-16010000D01*
X98798095Y-16105238D01*
X98845714Y-16200476D01*
X98893333Y-16390952D01*
X98893333Y-16533809D01*
X98845714Y-16724285D01*
X98798095Y-16819523D01*
X98702857Y-16914761D01*
X98560000Y-16962380D01*
X98321904Y-16962380D01*
X99464761Y-16390952D02*
X99369523Y-16343333D01*
X99321904Y-16295714D01*
X99274285Y-16200476D01*
X99274285Y-16152857D01*
X99321904Y-16057619D01*
X99369523Y-16010000D01*
X99464761Y-15962380D01*
X99655238Y-15962380D01*
X99750476Y-16010000D01*
X99798095Y-16057619D01*
X99845714Y-16152857D01*
X99845714Y-16200476D01*
X99798095Y-16295714D01*
X99750476Y-16343333D01*
X99655238Y-16390952D01*
X99464761Y-16390952D01*
X99369523Y-16438571D01*
X99321904Y-16486190D01*
X99274285Y-16581428D01*
X99274285Y-16771904D01*
X99321904Y-16867142D01*
X99369523Y-16914761D01*
X99464761Y-16962380D01*
X99655238Y-16962380D01*
X99750476Y-16914761D01*
X99798095Y-16867142D01*
X99845714Y-16771904D01*
X99845714Y-16581428D01*
X99798095Y-16486190D01*
X99750476Y-16438571D01*
X99655238Y-16390952D01*
X95781904Y-16962380D02*
X95781904Y-15962380D01*
X96020000Y-15962380D01*
X96162857Y-16010000D01*
X96258095Y-16105238D01*
X96305714Y-16200476D01*
X96353333Y-16390952D01*
X96353333Y-16533809D01*
X96305714Y-16724285D01*
X96258095Y-16819523D01*
X96162857Y-16914761D01*
X96020000Y-16962380D01*
X95781904Y-16962380D01*
X96686666Y-15962380D02*
X97353333Y-15962380D01*
X96924761Y-16962380D01*
X93241904Y-16962380D02*
X93241904Y-15962380D01*
X93480000Y-15962380D01*
X93622857Y-16010000D01*
X93718095Y-16105238D01*
X93765714Y-16200476D01*
X93813333Y-16390952D01*
X93813333Y-16533809D01*
X93765714Y-16724285D01*
X93718095Y-16819523D01*
X93622857Y-16914761D01*
X93480000Y-16962380D01*
X93241904Y-16962380D01*
X94670476Y-15962380D02*
X94480000Y-15962380D01*
X94384761Y-16010000D01*
X94337142Y-16057619D01*
X94241904Y-16200476D01*
X94194285Y-16390952D01*
X94194285Y-16771904D01*
X94241904Y-16867142D01*
X94289523Y-16914761D01*
X94384761Y-16962380D01*
X94575238Y-16962380D01*
X94670476Y-16914761D01*
X94718095Y-16867142D01*
X94765714Y-16771904D01*
X94765714Y-16533809D01*
X94718095Y-16438571D01*
X94670476Y-16390952D01*
X94575238Y-16343333D01*
X94384761Y-16343333D01*
X94289523Y-16390952D01*
X94241904Y-16438571D01*
X94194285Y-16533809D01*
X90701904Y-16962380D02*
X90701904Y-15962380D01*
X90940000Y-15962380D01*
X91082857Y-16010000D01*
X91178095Y-16105238D01*
X91225714Y-16200476D01*
X91273333Y-16390952D01*
X91273333Y-16533809D01*
X91225714Y-16724285D01*
X91178095Y-16819523D01*
X91082857Y-16914761D01*
X90940000Y-16962380D01*
X90701904Y-16962380D01*
X92178095Y-15962380D02*
X91701904Y-15962380D01*
X91654285Y-16438571D01*
X91701904Y-16390952D01*
X91797142Y-16343333D01*
X92035238Y-16343333D01*
X92130476Y-16390952D01*
X92178095Y-16438571D01*
X92225714Y-16533809D01*
X92225714Y-16771904D01*
X92178095Y-16867142D01*
X92130476Y-16914761D01*
X92035238Y-16962380D01*
X91797142Y-16962380D01*
X91701904Y-16914761D01*
X91654285Y-16867142D01*
X88161904Y-16962380D02*
X88161904Y-15962380D01*
X88400000Y-15962380D01*
X88542857Y-16010000D01*
X88638095Y-16105238D01*
X88685714Y-16200476D01*
X88733333Y-16390952D01*
X88733333Y-16533809D01*
X88685714Y-16724285D01*
X88638095Y-16819523D01*
X88542857Y-16914761D01*
X88400000Y-16962380D01*
X88161904Y-16962380D01*
X89590476Y-16295714D02*
X89590476Y-16962380D01*
X89352380Y-15914761D02*
X89114285Y-16629047D01*
X89733333Y-16629047D01*
X85621904Y-16962380D02*
X85621904Y-15962380D01*
X85860000Y-15962380D01*
X86002857Y-16010000D01*
X86098095Y-16105238D01*
X86145714Y-16200476D01*
X86193333Y-16390952D01*
X86193333Y-16533809D01*
X86145714Y-16724285D01*
X86098095Y-16819523D01*
X86002857Y-16914761D01*
X85860000Y-16962380D01*
X85621904Y-16962380D01*
X86526666Y-15962380D02*
X87145714Y-15962380D01*
X86812380Y-16343333D01*
X86955238Y-16343333D01*
X87050476Y-16390952D01*
X87098095Y-16438571D01*
X87145714Y-16533809D01*
X87145714Y-16771904D01*
X87098095Y-16867142D01*
X87050476Y-16914761D01*
X86955238Y-16962380D01*
X86669523Y-16962380D01*
X86574285Y-16914761D01*
X86526666Y-16867142D01*
X83081904Y-16962380D02*
X83081904Y-15962380D01*
X83320000Y-15962380D01*
X83462857Y-16010000D01*
X83558095Y-16105238D01*
X83605714Y-16200476D01*
X83653333Y-16390952D01*
X83653333Y-16533809D01*
X83605714Y-16724285D01*
X83558095Y-16819523D01*
X83462857Y-16914761D01*
X83320000Y-16962380D01*
X83081904Y-16962380D01*
X84034285Y-16057619D02*
X84081904Y-16010000D01*
X84177142Y-15962380D01*
X84415238Y-15962380D01*
X84510476Y-16010000D01*
X84558095Y-16057619D01*
X84605714Y-16152857D01*
X84605714Y-16248095D01*
X84558095Y-16390952D01*
X83986666Y-16962380D01*
X84605714Y-16962380D01*
X80541904Y-16962380D02*
X80541904Y-15962380D01*
X80780000Y-15962380D01*
X80922857Y-16010000D01*
X81018095Y-16105238D01*
X81065714Y-16200476D01*
X81113333Y-16390952D01*
X81113333Y-16533809D01*
X81065714Y-16724285D01*
X81018095Y-16819523D01*
X80922857Y-16914761D01*
X80780000Y-16962380D01*
X80541904Y-16962380D01*
X82065714Y-16962380D02*
X81494285Y-16962380D01*
X81780000Y-16962380D02*
X81780000Y-15962380D01*
X81684761Y-16105238D01*
X81589523Y-16200476D01*
X81494285Y-16248095D01*
X109107380Y-41401904D02*
X109916904Y-41401904D01*
X110012142Y-41354285D01*
X110059761Y-41306666D01*
X110107380Y-41211428D01*
X110107380Y-41020952D01*
X110059761Y-40925714D01*
X110012142Y-40878095D01*
X109916904Y-40830476D01*
X109107380Y-40830476D01*
X109107380Y-40449523D02*
X109107380Y-39830476D01*
X109488333Y-40163809D01*
X109488333Y-40020952D01*
X109535952Y-39925714D01*
X109583571Y-39878095D01*
X109678809Y-39830476D01*
X109916904Y-39830476D01*
X110012142Y-39878095D01*
X110059761Y-39925714D01*
X110107380Y-40020952D01*
X110107380Y-40306666D01*
X110059761Y-40401904D01*
X110012142Y-40449523D01*
X86705595Y-30519880D02*
X86705595Y-31329404D01*
X86753214Y-31424642D01*
X86800833Y-31472261D01*
X86896071Y-31519880D01*
X87086547Y-31519880D01*
X87181785Y-31472261D01*
X87229404Y-31424642D01*
X87277023Y-31329404D01*
X87277023Y-30519880D01*
X87705595Y-30615119D02*
X87753214Y-30567500D01*
X87848452Y-30519880D01*
X88086547Y-30519880D01*
X88181785Y-30567500D01*
X88229404Y-30615119D01*
X88277023Y-30710357D01*
X88277023Y-30805595D01*
X88229404Y-30948452D01*
X87657976Y-31519880D01*
X88277023Y-31519880D01*
M02*
