G04 #@! TF.GenerationSoftware,KiCad,Pcbnew,(5.1.8)-1*
G04 #@! TF.CreationDate,2023-07-12T22:57:21+03:00*
G04 #@! TF.ProjectId,INV,494e562e-6b69-4636-9164-5f7063625858,rev?*
G04 #@! TF.SameCoordinates,PX48ab840PY2455c20*
G04 #@! TF.FileFunction,Copper,L2,Bot*
G04 #@! TF.FilePolarity,Positive*
%FSLAX46Y46*%
G04 Gerber Fmt 4.6, Leading zero omitted, Abs format (unit mm)*
G04 Created by KiCad (PCBNEW (5.1.8)-1) date 2023-07-12 22:57:21*
%MOMM*%
%LPD*%
G01*
G04 APERTURE LIST*
G04 #@! TA.AperFunction,ComponentPad*
%ADD10C,1.600000*%
G04 #@! TD*
G04 #@! TA.AperFunction,ComponentPad*
%ADD11O,1.800000X1.500000*%
G04 #@! TD*
G04 #@! TA.AperFunction,ComponentPad*
%ADD12R,1.800000X1.500000*%
G04 #@! TD*
G04 #@! TA.AperFunction,ViaPad*
%ADD13C,1.500000*%
G04 #@! TD*
G04 #@! TA.AperFunction,Conductor*
%ADD14C,0.500000*%
G04 #@! TD*
G04 APERTURE END LIST*
G04 #@! TA.AperFunction,ComponentPad*
G36*
G01*
X10295367Y-24256301D02*
X10295367Y-24256301D01*
G75*
G02*
X10682318Y-25319442I-338095J-725046D01*
G01*
X10682318Y-25319442D01*
G75*
G02*
X9619177Y-25706393I-725046J338095D01*
G01*
X9619177Y-25706393D01*
G75*
G02*
X9232226Y-24643252I338095J725046D01*
G01*
X9232226Y-24643252D01*
G75*
G02*
X10295367Y-24256301I725046J-338095D01*
G01*
G37*
G04 #@! TD.AperFunction*
D10*
X15240000Y-13652500D03*
D11*
X38100000Y-25400000D03*
X38100000Y-22860000D03*
X38100000Y-20320000D03*
X38100000Y-17780000D03*
X38100000Y-15240000D03*
X38100000Y-12700000D03*
X38100000Y-10160000D03*
X38100000Y-7620000D03*
X38100000Y-5080000D03*
D12*
X38100000Y-2540000D03*
D11*
X2540000Y-25400000D03*
X2540000Y-22860000D03*
X2540000Y-20320000D03*
X2540000Y-17780000D03*
X2540000Y-15240000D03*
X2540000Y-12700000D03*
X2540000Y-10160000D03*
X2540000Y-7620000D03*
X2540000Y-5080000D03*
D12*
X2540000Y-2540000D03*
D13*
X17780000Y-13970000D03*
X19050000Y-2540000D03*
X12065000Y-25019000D03*
X16256000Y-25019000D03*
X7620000Y-21590000D03*
X19685000Y-20320000D03*
X7620000Y-17780000D03*
X18415000Y-17780000D03*
X7620000Y-10160000D03*
X18415000Y-10160000D03*
X7620000Y-6350000D03*
X18415000Y-7620000D03*
X20320000Y-22542500D03*
X32702500Y-22542500D03*
D14*
X19050000Y-3810000D02*
X19050000Y-2540000D01*
X20320000Y-5080000D02*
X19050000Y-3810000D01*
X20320000Y-11430000D02*
X20320000Y-5080000D01*
X17780000Y-13970000D02*
X20320000Y-11430000D01*
X12065000Y-25019000D02*
X16256000Y-25019000D01*
X18415000Y-20320000D02*
X19685000Y-20320000D01*
X13970000Y-20320000D02*
X18415000Y-20320000D01*
X12700000Y-21590000D02*
X13970000Y-20320000D01*
X7620000Y-21590000D02*
X12700000Y-21590000D01*
X7620000Y-17780000D02*
X18415000Y-17780000D01*
X7620000Y-10160000D02*
X18415000Y-10160000D01*
X7620000Y-6350000D02*
X12700000Y-6350000D01*
X13970000Y-7620000D02*
X18415000Y-7620000D01*
X12700000Y-6350000D02*
X13970000Y-7620000D01*
X32702500Y-22542500D02*
X32702500Y-22542500D01*
X20320000Y-22542500D02*
X32702500Y-22542500D01*
M02*
