M48
INCH,TZ
T1C0.0236
T2C0.0315
T3C0.0354
T4C0.0394
%
G90
G05
T1
X32000Y-19000
X32000Y-20000
T2
X32000Y-18000
X32000Y-21000
X33000Y-18000
X33000Y-21000
X34000Y-18000
X34000Y-21000
X35000Y-18000
X35000Y-21000
X36000Y-18000
X36000Y-21000
X37000Y-18000
X37000Y-21000
X38000Y-18000
X38000Y-21000
X39000Y-18000
X39000Y-21000
X40000Y-18000
X40000Y-21000
X41000Y-18000
X41000Y-21000
X42500Y-23000
X44469Y-23000
T3
X10000Y-16000
X10000Y-17000
X10000Y-18000
X10000Y-19000
X10000Y-20000
X10000Y-22000
X10000Y-23000
X10000Y-24000
X11000Y-16000
X11000Y-17000
X11000Y-18000
X11000Y-19000
X11000Y-20000
X11000Y-22000
X11000Y-23000
X11000Y-24000
X12000Y-16000
X12000Y-17000
X12000Y-18000
X12000Y-19000
X12000Y-20000
X12000Y-21000
X12000Y-22000
X12000Y-23000
X12000Y-24000
X13000Y-16000
X13000Y-17000
X13000Y-18000
X13000Y-19000
X13000Y-20000
X13000Y-21000
X13000Y-22000
X13000Y-23000
X14000Y-16000
X14000Y-17000
X14000Y-18000
X14000Y-19000
X14000Y-20000
X14000Y-21000
X14000Y-22000
X14000Y-23000
X15000Y-16000
X15000Y-17000
X15000Y-18000
X15000Y-19000
X15000Y-20000
X15000Y-21000
X15000Y-22000
X15000Y-23000
X15000Y-24000
X16000Y-16000
X16000Y-17000
X16000Y-18000
X16000Y-19000
X16000Y-20000
X16000Y-21000
X16000Y-22000
X16000Y-23000
X16000Y-24000
X17000Y-16000
X17000Y-17000
X17000Y-18000
X17000Y-19000
X17000Y-20000
X17000Y-21000
X17000Y-22000
X17000Y-23000
X17000Y-24000
X18000Y-16000
X18000Y-17000
X18000Y-18000
X18000Y-19000
X18000Y-20000
X18000Y-21000
X18000Y-22000
X18000Y-23000
X18000Y-24000
X19000Y-16000
X19000Y-17000
X19000Y-18000
X19000Y-19000
X19000Y-20000
X19000Y-21000
X19000Y-22000
X19000Y-23000
X19000Y-24000
X20000Y-16000
X20000Y-17000
X20000Y-18000
X20000Y-19000
X20000Y-20000
X20000Y-21000
X20000Y-22000
X20000Y-23000
X20000Y-24000
X21000Y-16000
X21000Y-17000
X21000Y-18000
X21000Y-19000
X21000Y-20000
X21000Y-21000
X21000Y-22000
X21000Y-23000
X21000Y-24000
X22000Y-16000
X22000Y-17000
X22000Y-18000
X22000Y-19000
X22000Y-20000
X22000Y-21000
X22000Y-22000
X22000Y-23000
X22000Y-24000
X23000Y-16000
X23000Y-17000
X23000Y-18000
X23000Y-19000
X23000Y-20000
X23000Y-21000
X23000Y-22000
X23000Y-23000
X24000Y-16000
X24000Y-17000
X24000Y-18000
X24000Y-19000
X24000Y-20000
X24000Y-21000
X24000Y-22000
X24000Y-23000
X24000Y-24000
X25000Y-16000
X25000Y-17000
X25000Y-18000
X25000Y-19000
X25000Y-20000
X25000Y-21000
X25000Y-22000
X25000Y-23000
X25000Y-24000
X26000Y-16000
X26000Y-17000
X26000Y-18000
X26000Y-19000
X26000Y-20000
X26000Y-21000
X26000Y-22000
X26000Y-23000
X26000Y-24000
X27000Y-16000
X27000Y-17000
X27000Y-18000
X27000Y-19000
X27000Y-20000
X27000Y-21000
X27000Y-22000
X27000Y-23000
X27000Y-24000
X28000Y-16000
X28000Y-17000
X28000Y-18000
X28000Y-19000
X28000Y-20000
X28000Y-21000
X28000Y-22000
X28000Y-23000
X28000Y-24000
X29000Y-16000
X29000Y-17000
X29000Y-18000
X29000Y-19000
X29000Y-20000
X29000Y-21000
X29000Y-22000
X29000Y-23000
X29000Y-24000
X30000Y-16000
X30000Y-17000
X30000Y-18000
X30000Y-19000
X30000Y-20000
X30000Y-21000
X30000Y-22000
X30000Y-23000
X30000Y-24000
X31000Y-16000
X31000Y-17000
X31000Y-18000
X31000Y-19000
X31000Y-20000
X31000Y-21000
X31000Y-22000
X31000Y-23000
X31000Y-24000
X32000Y-23000
X33000Y-16000
X33000Y-17000
X34000Y-16000
X34000Y-17000
X35000Y-16000
X35000Y-17000
X36000Y-16000
X36000Y-17000
X37000Y-16000
X37000Y-17000
X38000Y-16000
X38000Y-17000
X39000Y-16000
X39000Y-17000
X40000Y-16000
X40000Y-17000
X42406Y-17469
X42406Y-20000
X45375Y-18750
X46000Y-18125
T4
X24000Y-25250
X25000Y-25250
X26000Y-25250
X27000Y-25250
X28000Y-25250
X29000Y-25250
X30000Y-25250
X31000Y-25250
X42000Y-25250
X43000Y-25250
X44000Y-25250
X45000Y-25250
X46000Y-25250
X33000Y-25250
X34000Y-25250
X35000Y-25250
X36000Y-25250
X37000Y-25250
X38000Y-25250
X39000Y-25250
X40000Y-25250
X15000Y-25250
X16000Y-25250
X17000Y-25250
X18000Y-25250
X19000Y-25250
X20000Y-25250
X21000Y-25250
X22000Y-25250
T0
M30
