G04 #@! TF.GenerationSoftware,KiCad,Pcbnew,(5.1.8)-1*
G04 #@! TF.CreationDate,2023-07-12T22:59:16+03:00*
G04 #@! TF.ProjectId,INV,494e562e-6b69-4636-9164-5f7063625858,rev?*
G04 #@! TF.SameCoordinates,PX48ab840PY2455c20*
G04 #@! TF.FileFunction,Soldermask,Top*
G04 #@! TF.FilePolarity,Negative*
%FSLAX46Y46*%
G04 Gerber Fmt 4.6, Leading zero omitted, Abs format (unit mm)*
G04 Created by KiCad (PCBNEW (5.1.8)-1) date 2023-07-12 22:59:16*
%MOMM*%
%LPD*%
G01*
G04 APERTURE LIST*
%ADD10O,1.800000X1.500000*%
%ADD11R,1.800000X1.500000*%
G04 APERTURE END LIST*
D10*
X20320000Y-25400000D03*
X20320000Y-22860000D03*
X20320000Y-20320000D03*
X20320000Y-17780000D03*
X20320000Y-15240000D03*
X20320000Y-12700000D03*
X20320000Y-10160000D03*
X20320000Y-7620000D03*
X20320000Y-5080000D03*
D11*
X20320000Y-2540000D03*
D10*
X2540000Y-25400000D03*
X2540000Y-22860000D03*
X2540000Y-20320000D03*
X2540000Y-17780000D03*
X2540000Y-15240000D03*
X2540000Y-12700000D03*
X2540000Y-10160000D03*
X2540000Y-7620000D03*
X2540000Y-5080000D03*
D11*
X2540000Y-2540000D03*
G36*
G01*
X12250000Y-24290000D02*
X12250000Y-25240000D01*
G75*
G02*
X12000000Y-25490000I-250000J0D01*
G01*
X11325000Y-25490000D01*
G75*
G02*
X11075000Y-25240000I0J250000D01*
G01*
X11075000Y-24290000D01*
G75*
G02*
X11325000Y-24040000I250000J0D01*
G01*
X12000000Y-24040000D01*
G75*
G02*
X12250000Y-24290000I0J-250000D01*
G01*
G37*
G36*
G01*
X14325000Y-24290000D02*
X14325000Y-25240000D01*
G75*
G02*
X14075000Y-25490000I-250000J0D01*
G01*
X13400000Y-25490000D01*
G75*
G02*
X13150000Y-25240000I0J250000D01*
G01*
X13150000Y-24290000D01*
G75*
G02*
X13400000Y-24040000I250000J0D01*
G01*
X14075000Y-24040000D01*
G75*
G02*
X14325000Y-24290000I0J-250000D01*
G01*
G37*
G36*
G01*
X9250000Y-3960000D02*
X9250000Y-3660000D01*
G75*
G02*
X9400000Y-3510000I150000J0D01*
G01*
X11050000Y-3510000D01*
G75*
G02*
X11200000Y-3660000I0J-150000D01*
G01*
X11200000Y-3960000D01*
G75*
G02*
X11050000Y-4110000I-150000J0D01*
G01*
X9400000Y-4110000D01*
G75*
G02*
X9250000Y-3960000I0J150000D01*
G01*
G37*
G36*
G01*
X9250000Y-5230000D02*
X9250000Y-4930000D01*
G75*
G02*
X9400000Y-4780000I150000J0D01*
G01*
X11050000Y-4780000D01*
G75*
G02*
X11200000Y-4930000I0J-150000D01*
G01*
X11200000Y-5230000D01*
G75*
G02*
X11050000Y-5380000I-150000J0D01*
G01*
X9400000Y-5380000D01*
G75*
G02*
X9250000Y-5230000I0J150000D01*
G01*
G37*
G36*
G01*
X9250000Y-6500000D02*
X9250000Y-6200000D01*
G75*
G02*
X9400000Y-6050000I150000J0D01*
G01*
X11050000Y-6050000D01*
G75*
G02*
X11200000Y-6200000I0J-150000D01*
G01*
X11200000Y-6500000D01*
G75*
G02*
X11050000Y-6650000I-150000J0D01*
G01*
X9400000Y-6650000D01*
G75*
G02*
X9250000Y-6500000I0J150000D01*
G01*
G37*
G36*
G01*
X9250000Y-7770000D02*
X9250000Y-7470000D01*
G75*
G02*
X9400000Y-7320000I150000J0D01*
G01*
X11050000Y-7320000D01*
G75*
G02*
X11200000Y-7470000I0J-150000D01*
G01*
X11200000Y-7770000D01*
G75*
G02*
X11050000Y-7920000I-150000J0D01*
G01*
X9400000Y-7920000D01*
G75*
G02*
X9250000Y-7770000I0J150000D01*
G01*
G37*
G36*
G01*
X9250000Y-9040000D02*
X9250000Y-8740000D01*
G75*
G02*
X9400000Y-8590000I150000J0D01*
G01*
X11050000Y-8590000D01*
G75*
G02*
X11200000Y-8740000I0J-150000D01*
G01*
X11200000Y-9040000D01*
G75*
G02*
X11050000Y-9190000I-150000J0D01*
G01*
X9400000Y-9190000D01*
G75*
G02*
X9250000Y-9040000I0J150000D01*
G01*
G37*
G36*
G01*
X9250000Y-10310000D02*
X9250000Y-10010000D01*
G75*
G02*
X9400000Y-9860000I150000J0D01*
G01*
X11050000Y-9860000D01*
G75*
G02*
X11200000Y-10010000I0J-150000D01*
G01*
X11200000Y-10310000D01*
G75*
G02*
X11050000Y-10460000I-150000J0D01*
G01*
X9400000Y-10460000D01*
G75*
G02*
X9250000Y-10310000I0J150000D01*
G01*
G37*
G36*
G01*
X9250000Y-11580000D02*
X9250000Y-11280000D01*
G75*
G02*
X9400000Y-11130000I150000J0D01*
G01*
X11050000Y-11130000D01*
G75*
G02*
X11200000Y-11280000I0J-150000D01*
G01*
X11200000Y-11580000D01*
G75*
G02*
X11050000Y-11730000I-150000J0D01*
G01*
X9400000Y-11730000D01*
G75*
G02*
X9250000Y-11580000I0J150000D01*
G01*
G37*
G36*
G01*
X14200000Y-11580000D02*
X14200000Y-11280000D01*
G75*
G02*
X14350000Y-11130000I150000J0D01*
G01*
X16000000Y-11130000D01*
G75*
G02*
X16150000Y-11280000I0J-150000D01*
G01*
X16150000Y-11580000D01*
G75*
G02*
X16000000Y-11730000I-150000J0D01*
G01*
X14350000Y-11730000D01*
G75*
G02*
X14200000Y-11580000I0J150000D01*
G01*
G37*
G36*
G01*
X14200000Y-10310000D02*
X14200000Y-10010000D01*
G75*
G02*
X14350000Y-9860000I150000J0D01*
G01*
X16000000Y-9860000D01*
G75*
G02*
X16150000Y-10010000I0J-150000D01*
G01*
X16150000Y-10310000D01*
G75*
G02*
X16000000Y-10460000I-150000J0D01*
G01*
X14350000Y-10460000D01*
G75*
G02*
X14200000Y-10310000I0J150000D01*
G01*
G37*
G36*
G01*
X14200000Y-9040000D02*
X14200000Y-8740000D01*
G75*
G02*
X14350000Y-8590000I150000J0D01*
G01*
X16000000Y-8590000D01*
G75*
G02*
X16150000Y-8740000I0J-150000D01*
G01*
X16150000Y-9040000D01*
G75*
G02*
X16000000Y-9190000I-150000J0D01*
G01*
X14350000Y-9190000D01*
G75*
G02*
X14200000Y-9040000I0J150000D01*
G01*
G37*
G36*
G01*
X14200000Y-7770000D02*
X14200000Y-7470000D01*
G75*
G02*
X14350000Y-7320000I150000J0D01*
G01*
X16000000Y-7320000D01*
G75*
G02*
X16150000Y-7470000I0J-150000D01*
G01*
X16150000Y-7770000D01*
G75*
G02*
X16000000Y-7920000I-150000J0D01*
G01*
X14350000Y-7920000D01*
G75*
G02*
X14200000Y-7770000I0J150000D01*
G01*
G37*
G36*
G01*
X14200000Y-6500000D02*
X14200000Y-6200000D01*
G75*
G02*
X14350000Y-6050000I150000J0D01*
G01*
X16000000Y-6050000D01*
G75*
G02*
X16150000Y-6200000I0J-150000D01*
G01*
X16150000Y-6500000D01*
G75*
G02*
X16000000Y-6650000I-150000J0D01*
G01*
X14350000Y-6650000D01*
G75*
G02*
X14200000Y-6500000I0J150000D01*
G01*
G37*
G36*
G01*
X14200000Y-5230000D02*
X14200000Y-4930000D01*
G75*
G02*
X14350000Y-4780000I150000J0D01*
G01*
X16000000Y-4780000D01*
G75*
G02*
X16150000Y-4930000I0J-150000D01*
G01*
X16150000Y-5230000D01*
G75*
G02*
X16000000Y-5380000I-150000J0D01*
G01*
X14350000Y-5380000D01*
G75*
G02*
X14200000Y-5230000I0J150000D01*
G01*
G37*
G36*
G01*
X14200000Y-3960000D02*
X14200000Y-3660000D01*
G75*
G02*
X14350000Y-3510000I150000J0D01*
G01*
X16000000Y-3510000D01*
G75*
G02*
X16150000Y-3660000I0J-150000D01*
G01*
X16150000Y-3960000D01*
G75*
G02*
X16000000Y-4110000I-150000J0D01*
G01*
X14350000Y-4110000D01*
G75*
G02*
X14200000Y-3960000I0J150000D01*
G01*
G37*
G36*
G01*
X14200000Y-15390000D02*
X14200000Y-15090000D01*
G75*
G02*
X14350000Y-14940000I150000J0D01*
G01*
X16000000Y-14940000D01*
G75*
G02*
X16150000Y-15090000I0J-150000D01*
G01*
X16150000Y-15390000D01*
G75*
G02*
X16000000Y-15540000I-150000J0D01*
G01*
X14350000Y-15540000D01*
G75*
G02*
X14200000Y-15390000I0J150000D01*
G01*
G37*
G36*
G01*
X14200000Y-16660000D02*
X14200000Y-16360000D01*
G75*
G02*
X14350000Y-16210000I150000J0D01*
G01*
X16000000Y-16210000D01*
G75*
G02*
X16150000Y-16360000I0J-150000D01*
G01*
X16150000Y-16660000D01*
G75*
G02*
X16000000Y-16810000I-150000J0D01*
G01*
X14350000Y-16810000D01*
G75*
G02*
X14200000Y-16660000I0J150000D01*
G01*
G37*
G36*
G01*
X14200000Y-17930000D02*
X14200000Y-17630000D01*
G75*
G02*
X14350000Y-17480000I150000J0D01*
G01*
X16000000Y-17480000D01*
G75*
G02*
X16150000Y-17630000I0J-150000D01*
G01*
X16150000Y-17930000D01*
G75*
G02*
X16000000Y-18080000I-150000J0D01*
G01*
X14350000Y-18080000D01*
G75*
G02*
X14200000Y-17930000I0J150000D01*
G01*
G37*
G36*
G01*
X14200000Y-19200000D02*
X14200000Y-18900000D01*
G75*
G02*
X14350000Y-18750000I150000J0D01*
G01*
X16000000Y-18750000D01*
G75*
G02*
X16150000Y-18900000I0J-150000D01*
G01*
X16150000Y-19200000D01*
G75*
G02*
X16000000Y-19350000I-150000J0D01*
G01*
X14350000Y-19350000D01*
G75*
G02*
X14200000Y-19200000I0J150000D01*
G01*
G37*
G36*
G01*
X14200000Y-20470000D02*
X14200000Y-20170000D01*
G75*
G02*
X14350000Y-20020000I150000J0D01*
G01*
X16000000Y-20020000D01*
G75*
G02*
X16150000Y-20170000I0J-150000D01*
G01*
X16150000Y-20470000D01*
G75*
G02*
X16000000Y-20620000I-150000J0D01*
G01*
X14350000Y-20620000D01*
G75*
G02*
X14200000Y-20470000I0J150000D01*
G01*
G37*
G36*
G01*
X14200000Y-21740000D02*
X14200000Y-21440000D01*
G75*
G02*
X14350000Y-21290000I150000J0D01*
G01*
X16000000Y-21290000D01*
G75*
G02*
X16150000Y-21440000I0J-150000D01*
G01*
X16150000Y-21740000D01*
G75*
G02*
X16000000Y-21890000I-150000J0D01*
G01*
X14350000Y-21890000D01*
G75*
G02*
X14200000Y-21740000I0J150000D01*
G01*
G37*
G36*
G01*
X14200000Y-23010000D02*
X14200000Y-22710000D01*
G75*
G02*
X14350000Y-22560000I150000J0D01*
G01*
X16000000Y-22560000D01*
G75*
G02*
X16150000Y-22710000I0J-150000D01*
G01*
X16150000Y-23010000D01*
G75*
G02*
X16000000Y-23160000I-150000J0D01*
G01*
X14350000Y-23160000D01*
G75*
G02*
X14200000Y-23010000I0J150000D01*
G01*
G37*
G36*
G01*
X9250000Y-23010000D02*
X9250000Y-22710000D01*
G75*
G02*
X9400000Y-22560000I150000J0D01*
G01*
X11050000Y-22560000D01*
G75*
G02*
X11200000Y-22710000I0J-150000D01*
G01*
X11200000Y-23010000D01*
G75*
G02*
X11050000Y-23160000I-150000J0D01*
G01*
X9400000Y-23160000D01*
G75*
G02*
X9250000Y-23010000I0J150000D01*
G01*
G37*
G36*
G01*
X9250000Y-21740000D02*
X9250000Y-21440000D01*
G75*
G02*
X9400000Y-21290000I150000J0D01*
G01*
X11050000Y-21290000D01*
G75*
G02*
X11200000Y-21440000I0J-150000D01*
G01*
X11200000Y-21740000D01*
G75*
G02*
X11050000Y-21890000I-150000J0D01*
G01*
X9400000Y-21890000D01*
G75*
G02*
X9250000Y-21740000I0J150000D01*
G01*
G37*
G36*
G01*
X9250000Y-20470000D02*
X9250000Y-20170000D01*
G75*
G02*
X9400000Y-20020000I150000J0D01*
G01*
X11050000Y-20020000D01*
G75*
G02*
X11200000Y-20170000I0J-150000D01*
G01*
X11200000Y-20470000D01*
G75*
G02*
X11050000Y-20620000I-150000J0D01*
G01*
X9400000Y-20620000D01*
G75*
G02*
X9250000Y-20470000I0J150000D01*
G01*
G37*
G36*
G01*
X9250000Y-19200000D02*
X9250000Y-18900000D01*
G75*
G02*
X9400000Y-18750000I150000J0D01*
G01*
X11050000Y-18750000D01*
G75*
G02*
X11200000Y-18900000I0J-150000D01*
G01*
X11200000Y-19200000D01*
G75*
G02*
X11050000Y-19350000I-150000J0D01*
G01*
X9400000Y-19350000D01*
G75*
G02*
X9250000Y-19200000I0J150000D01*
G01*
G37*
G36*
G01*
X9250000Y-17930000D02*
X9250000Y-17630000D01*
G75*
G02*
X9400000Y-17480000I150000J0D01*
G01*
X11050000Y-17480000D01*
G75*
G02*
X11200000Y-17630000I0J-150000D01*
G01*
X11200000Y-17930000D01*
G75*
G02*
X11050000Y-18080000I-150000J0D01*
G01*
X9400000Y-18080000D01*
G75*
G02*
X9250000Y-17930000I0J150000D01*
G01*
G37*
G36*
G01*
X9250000Y-16660000D02*
X9250000Y-16360000D01*
G75*
G02*
X9400000Y-16210000I150000J0D01*
G01*
X11050000Y-16210000D01*
G75*
G02*
X11200000Y-16360000I0J-150000D01*
G01*
X11200000Y-16660000D01*
G75*
G02*
X11050000Y-16810000I-150000J0D01*
G01*
X9400000Y-16810000D01*
G75*
G02*
X9250000Y-16660000I0J150000D01*
G01*
G37*
G36*
G01*
X9250000Y-15390000D02*
X9250000Y-15090000D01*
G75*
G02*
X9400000Y-14940000I150000J0D01*
G01*
X11050000Y-14940000D01*
G75*
G02*
X11200000Y-15090000I0J-150000D01*
G01*
X11200000Y-15390000D01*
G75*
G02*
X11050000Y-15540000I-150000J0D01*
G01*
X9400000Y-15540000D01*
G75*
G02*
X9250000Y-15390000I0J150000D01*
G01*
G37*
M02*
