M48
METRIC
T1C0.500
T2C0.900
T3C1.000
T4C1.300
T5C3.200
%
G90
G05
T1
X38.1Y-40.64
X38.1Y-95.25
X67.31Y-92.71
X67.31Y-97.79
T2
X101.6Y-21.59
X101.6Y-24.13
X101.6Y-26.67
X101.6Y-29.21
X101.6Y-31.75
X101.6Y-34.29
X101.6Y-36.83
X101.6Y-39.37
X101.6Y-44.45
X101.6Y-46.99
X101.6Y-49.53
X101.6Y-52.07
X101.6Y-54.61
X101.6Y-57.15
X101.6Y-59.69
X101.6Y-62.23
X101.6Y-67.31
X101.6Y-69.85
X101.6Y-72.39
X101.6Y-74.93
X101.6Y-77.47
X101.6Y-80.01
X101.6Y-82.55
X101.6Y-85.09
X101.6Y-90.17
X101.6Y-92.71
X101.6Y-95.25
X101.6Y-97.79
X101.6Y-100.33
X71.12Y-21.59
X71.12Y-24.13
X71.12Y-26.67
X71.12Y-29.21
X71.12Y-31.75
X71.12Y-34.29
X71.12Y-36.83
X71.12Y-39.37
X71.12Y-44.45
X71.12Y-46.99
X71.12Y-49.53
X71.12Y-52.07
X71.12Y-54.61
X71.12Y-57.15
X71.12Y-59.69
X71.12Y-62.23
X71.12Y-67.31
X71.12Y-69.85
X71.12Y-72.39
X71.12Y-74.93
X71.12Y-77.47
X71.12Y-80.01
X71.12Y-82.55
X71.12Y-85.09
X71.12Y-90.17
X71.12Y-92.71
X71.12Y-95.25
X71.12Y-97.79
X71.12Y-100.33
X50.8Y-21.59
X50.8Y-24.13
X50.8Y-26.67
X50.8Y-29.21
X50.8Y-31.75
X50.8Y-34.29
X50.8Y-36.83
X50.8Y-39.37
X50.8Y-44.45
X50.8Y-46.99
X50.8Y-49.53
X50.8Y-52.07
X50.8Y-54.61
X50.8Y-57.15
X50.8Y-59.69
X50.8Y-62.23
X50.8Y-67.31
X50.8Y-69.85
X50.8Y-72.39
X50.8Y-74.93
X50.8Y-77.47
X50.8Y-80.01
X50.8Y-82.55
X50.8Y-85.09
X50.8Y-90.17
X50.8Y-92.71
X50.8Y-95.25
X50.8Y-97.79
X50.8Y-100.33
X40.64Y-46.99
X40.64Y-49.53
X40.64Y-52.07
X40.64Y-54.61
X40.64Y-57.15
X40.64Y-59.69
X40.64Y-62.23
X40.64Y-64.77
X40.64Y-69.85
X40.64Y-72.39
X40.64Y-74.93
X40.64Y-77.47
X40.64Y-80.01
X40.64Y-82.55
X40.64Y-85.09
X40.64Y-87.63
X40.64Y-92.71
X40.64Y-95.25
X40.64Y-97.79
X40.64Y-100.33
X40.64Y-102.87
X81.28Y-21.59
X81.28Y-24.13
X81.28Y-26.67
X81.28Y-29.21
X81.28Y-31.75
X81.28Y-34.29
X81.28Y-36.83
X81.28Y-39.37
X81.28Y-44.45
X81.28Y-46.99
X81.28Y-49.53
X81.28Y-52.07
X81.28Y-54.61
X81.28Y-57.15
X81.28Y-59.69
X81.28Y-62.23
X81.28Y-67.31
X81.28Y-69.85
X81.28Y-72.39
X81.28Y-74.93
X81.28Y-77.47
X81.28Y-80.01
X81.28Y-82.55
X81.28Y-85.09
X81.28Y-90.17
X81.28Y-92.71
X81.28Y-95.25
X81.28Y-97.79
X81.28Y-100.33
X31.75Y-46.99
X31.75Y-49.53
X31.75Y-52.07
X31.75Y-54.61
X31.75Y-57.15
X31.75Y-59.69
X31.75Y-62.23
X31.75Y-64.77
X31.75Y-69.85
X31.75Y-72.39
X31.75Y-74.93
X31.75Y-77.47
X31.75Y-80.01
X31.75Y-82.55
X31.75Y-85.09
X31.75Y-87.63
X31.75Y-92.71
X31.75Y-95.25
X31.75Y-97.79
X31.75Y-100.33
X31.75Y-102.87
X60.96Y-21.59
X60.96Y-24.13
X60.96Y-26.67
X60.96Y-29.21
X60.96Y-31.75
X60.96Y-34.29
X60.96Y-36.83
X60.96Y-39.37
X60.96Y-44.45
X60.96Y-46.99
X60.96Y-49.53
X60.96Y-52.07
X60.96Y-54.61
X60.96Y-57.15
X60.96Y-59.69
X60.96Y-62.23
X60.96Y-67.31
X60.96Y-69.85
X60.96Y-72.39
X60.96Y-74.93
X60.96Y-77.47
X60.96Y-80.01
X60.96Y-82.55
X60.96Y-85.09
X60.96Y-90.17
X60.96Y-92.71
X60.96Y-95.25
X60.96Y-97.79
X60.96Y-100.33
X25.4Y-17.78
X25.4Y-20.32
X25.4Y-22.86
X25.4Y-25.4
X25.4Y-27.94
X25.4Y-30.48
X25.4Y-33.02
X25.4Y-35.56
X25.4Y-38.1
X25.4Y-40.64
X43.18Y-17.78
X43.18Y-20.32
X43.18Y-22.86
X43.18Y-25.4
X43.18Y-27.94
X43.18Y-30.48
X43.18Y-33.02
X43.18Y-35.56
X43.18Y-38.1
X43.18Y-40.64
X91.44Y-21.59
X91.44Y-24.13
X91.44Y-26.67
X91.44Y-29.21
X91.44Y-31.75
X91.44Y-34.29
X91.44Y-36.83
X91.44Y-39.37
X91.44Y-44.45
X91.44Y-46.99
X91.44Y-49.53
X91.44Y-52.07
X91.44Y-54.61
X91.44Y-57.15
X91.44Y-59.69
X91.44Y-62.23
X91.44Y-67.31
X91.44Y-69.85
X91.44Y-72.39
X91.44Y-74.93
X91.44Y-77.47
X91.44Y-80.01
X91.44Y-82.55
X91.44Y-85.09
X91.44Y-90.17
X91.44Y-92.71
X91.44Y-95.25
X91.44Y-97.79
X91.44Y-100.33
X22.86Y-46.99
X22.86Y-49.53
X22.86Y-52.07
X22.86Y-54.61
X22.86Y-57.15
X22.86Y-59.69
X22.86Y-62.23
X22.86Y-64.77
X22.86Y-69.85
X22.86Y-72.39
X22.86Y-74.93
X22.86Y-77.47
X22.86Y-80.01
X22.86Y-82.55
X22.86Y-85.09
X22.86Y-87.63
X22.86Y-92.71
X22.86Y-95.25
X22.86Y-97.79
X22.86Y-100.33
X22.86Y-102.87
T3
X109.22Y-24.13
X109.22Y-26.67
X109.22Y-29.21
X109.22Y-31.75
X109.22Y-34.29
X109.22Y-36.83
X109.22Y-39.37
X109.22Y-41.91
X109.22Y-44.45
X48.26Y-110.49
X53.34Y-110.49
X15.24Y-49.53
X15.24Y-52.07
X15.24Y-54.61
X15.24Y-57.15
X15.24Y-59.69
X15.24Y-62.23
X15.24Y-64.77
X15.24Y-67.31
X15.24Y-69.85
X58.42Y-110.49
X99.06Y-110.49
X78.74Y-110.49
X24.13Y-110.49
X15.24Y-74.93
X15.24Y-77.47
X15.24Y-80.01
X15.24Y-82.55
X15.24Y-85.09
X15.24Y-87.63
X15.24Y-90.17
X15.24Y-92.71
X15.24Y-95.25
X109.22Y-100.33
X53.34Y-15.557
X48.26Y-15.557
X73.66Y-110.49
X109.22Y-74.93
X109.22Y-77.47
X109.22Y-80.01
X109.22Y-82.55
X109.22Y-85.09
X109.22Y-87.63
X109.22Y-90.17
X109.22Y-92.71
X109.22Y-95.25
X31.75Y-110.49
X88.9Y-110.49
X109.22Y-49.53
X109.22Y-52.07
X109.22Y-54.61
X109.22Y-57.15
X109.22Y-59.69
X109.22Y-62.23
X109.22Y-64.77
X109.22Y-67.31
X109.22Y-69.85
X27.94Y-110.49
X15.24Y-24.13
X15.24Y-26.67
X15.24Y-29.21
X15.24Y-31.75
X15.24Y-34.29
X15.24Y-36.83
X15.24Y-39.37
X15.24Y-41.91
X15.24Y-44.45
X38.1Y-110.49
T4
X63.5Y-108.585
X68.5Y-108.585
T5
X17.78Y-107.95
X106.68Y-107.95
X17.78Y-19.05
X106.68Y-19.05
T0
M30
