%TF.GenerationSoftware,KiCad,Pcbnew,(5.1.8)-1*%
%TF.CreationDate,2022-05-21T00:33:48+03:00*%
%TF.ProjectId,MUX,4d55582e-6b69-4636-9164-5f7063625858,rev?*%
%TF.SameCoordinates,Original*%
%TF.FileFunction,Legend,Top*%
%TF.FilePolarity,Positive*%
%FSLAX46Y46*%
G04 Gerber Fmt 4.6, Leading zero omitted, Abs format (unit mm)*
G04 Created by KiCad (PCBNEW (5.1.8)-1) date 2022-05-21 00:33:48*
%MOMM*%
%LPD*%
G01*
G04 APERTURE LIST*
%ADD10C,0.300000*%
%ADD11C,0.150000*%
%ADD12C,0.200000*%
%ADD13C,0.120000*%
G04 APERTURE END LIST*
D10*
X120237976Y-117427261D02*
X120237976Y-115427261D01*
X120904642Y-116855833D01*
X121571309Y-115427261D01*
X121571309Y-117427261D01*
X122523690Y-115427261D02*
X122523690Y-117046309D01*
X122618928Y-117236785D01*
X122714166Y-117332023D01*
X122904642Y-117427261D01*
X123285595Y-117427261D01*
X123476071Y-117332023D01*
X123571309Y-117236785D01*
X123666547Y-117046309D01*
X123666547Y-115427261D01*
X124428452Y-115427261D02*
X125761785Y-117427261D01*
X125761785Y-115427261D02*
X124428452Y-117427261D01*
X128333214Y-116284404D02*
X128142738Y-116189166D01*
X128047500Y-116093928D01*
X127952261Y-115903452D01*
X127952261Y-115808214D01*
X128047500Y-115617738D01*
X128142738Y-115522500D01*
X128333214Y-115427261D01*
X128714166Y-115427261D01*
X128904642Y-115522500D01*
X128999880Y-115617738D01*
X129095119Y-115808214D01*
X129095119Y-115903452D01*
X128999880Y-116093928D01*
X128904642Y-116189166D01*
X128714166Y-116284404D01*
X128333214Y-116284404D01*
X128142738Y-116379642D01*
X128047500Y-116474880D01*
X127952261Y-116665357D01*
X127952261Y-117046309D01*
X128047500Y-117236785D01*
X128142738Y-117332023D01*
X128333214Y-117427261D01*
X128714166Y-117427261D01*
X128904642Y-117332023D01*
X128999880Y-117236785D01*
X129095119Y-117046309D01*
X129095119Y-116665357D01*
X128999880Y-116474880D01*
X128904642Y-116379642D01*
X128714166Y-116284404D01*
X129952261Y-117236785D02*
X130047500Y-117332023D01*
X129952261Y-117427261D01*
X129857023Y-117332023D01*
X129952261Y-117236785D01*
X129952261Y-117427261D01*
X129952261Y-116189166D02*
X130047500Y-116284404D01*
X129952261Y-116379642D01*
X129857023Y-116284404D01*
X129952261Y-116189166D01*
X129952261Y-116379642D01*
X131952261Y-117427261D02*
X130809404Y-117427261D01*
X131380833Y-117427261D02*
X131380833Y-115427261D01*
X131190357Y-115712976D01*
X130999880Y-115903452D01*
X130809404Y-115998690D01*
D11*
X35226666Y-35964880D02*
X35893333Y-35964880D01*
X35464761Y-36964880D01*
X60626666Y-35964880D02*
X61293333Y-35964880D01*
X60864761Y-36964880D01*
X93646666Y-32472380D02*
X94313333Y-32472380D01*
X93884761Y-33472380D01*
X103806666Y-35964880D02*
X104473333Y-35964880D01*
X104044761Y-36964880D01*
X129206666Y-35964880D02*
X129873333Y-35964880D01*
X129444761Y-36964880D01*
X129206666Y-181379880D02*
X129873333Y-181379880D01*
X129444761Y-182379880D01*
X103806666Y-181379880D02*
X104473333Y-181379880D01*
X104044761Y-182379880D01*
X60626666Y-181379880D02*
X61293333Y-181379880D01*
X60864761Y-182379880D01*
X35226666Y-181379880D02*
X35893333Y-181379880D01*
X35464761Y-182379880D01*
X17732380Y-181379880D02*
X17827619Y-181379880D01*
X17922857Y-181427500D01*
X17970476Y-181475119D01*
X18018095Y-181570357D01*
X18065714Y-181760833D01*
X18065714Y-181998928D01*
X18018095Y-182189404D01*
X17970476Y-182284642D01*
X17922857Y-182332261D01*
X17827619Y-182379880D01*
X17732380Y-182379880D01*
X17637142Y-182332261D01*
X17589523Y-182284642D01*
X17541904Y-182189404D01*
X17494285Y-181998928D01*
X17494285Y-181760833D01*
X17541904Y-181570357D01*
X17589523Y-181475119D01*
X17637142Y-181427500D01*
X17732380Y-181379880D01*
X43132380Y-181379880D02*
X43227619Y-181379880D01*
X43322857Y-181427500D01*
X43370476Y-181475119D01*
X43418095Y-181570357D01*
X43465714Y-181760833D01*
X43465714Y-181998928D01*
X43418095Y-182189404D01*
X43370476Y-182284642D01*
X43322857Y-182332261D01*
X43227619Y-182379880D01*
X43132380Y-182379880D01*
X43037142Y-182332261D01*
X42989523Y-182284642D01*
X42941904Y-182189404D01*
X42894285Y-181998928D01*
X42894285Y-181760833D01*
X42941904Y-181570357D01*
X42989523Y-181475119D01*
X43037142Y-181427500D01*
X43132380Y-181379880D01*
X121872380Y-181379880D02*
X121967619Y-181379880D01*
X122062857Y-181427500D01*
X122110476Y-181475119D01*
X122158095Y-181570357D01*
X122205714Y-181760833D01*
X122205714Y-181998928D01*
X122158095Y-182189404D01*
X122110476Y-182284642D01*
X122062857Y-182332261D01*
X121967619Y-182379880D01*
X121872380Y-182379880D01*
X121777142Y-182332261D01*
X121729523Y-182284642D01*
X121681904Y-182189404D01*
X121634285Y-181998928D01*
X121634285Y-181760833D01*
X121681904Y-181570357D01*
X121729523Y-181475119D01*
X121777142Y-181427500D01*
X121872380Y-181379880D01*
X147272380Y-181379880D02*
X147367619Y-181379880D01*
X147462857Y-181427500D01*
X147510476Y-181475119D01*
X147558095Y-181570357D01*
X147605714Y-181760833D01*
X147605714Y-181998928D01*
X147558095Y-182189404D01*
X147510476Y-182284642D01*
X147462857Y-182332261D01*
X147367619Y-182379880D01*
X147272380Y-182379880D01*
X147177142Y-182332261D01*
X147129523Y-182284642D01*
X147081904Y-182189404D01*
X147034285Y-181998928D01*
X147034285Y-181760833D01*
X147081904Y-181570357D01*
X147129523Y-181475119D01*
X147177142Y-181427500D01*
X147272380Y-181379880D01*
X17732380Y-35964880D02*
X17827619Y-35964880D01*
X17922857Y-36012500D01*
X17970476Y-36060119D01*
X18018095Y-36155357D01*
X18065714Y-36345833D01*
X18065714Y-36583928D01*
X18018095Y-36774404D01*
X17970476Y-36869642D01*
X17922857Y-36917261D01*
X17827619Y-36964880D01*
X17732380Y-36964880D01*
X17637142Y-36917261D01*
X17589523Y-36869642D01*
X17541904Y-36774404D01*
X17494285Y-36583928D01*
X17494285Y-36345833D01*
X17541904Y-36155357D01*
X17589523Y-36060119D01*
X17637142Y-36012500D01*
X17732380Y-35964880D01*
X41862380Y-35964880D02*
X41957619Y-35964880D01*
X42052857Y-36012500D01*
X42100476Y-36060119D01*
X42148095Y-36155357D01*
X42195714Y-36345833D01*
X42195714Y-36583928D01*
X42148095Y-36774404D01*
X42100476Y-36869642D01*
X42052857Y-36917261D01*
X41957619Y-36964880D01*
X41862380Y-36964880D01*
X41767142Y-36917261D01*
X41719523Y-36869642D01*
X41671904Y-36774404D01*
X41624285Y-36583928D01*
X41624285Y-36345833D01*
X41671904Y-36155357D01*
X41719523Y-36060119D01*
X41767142Y-36012500D01*
X41862380Y-35964880D01*
X76152380Y-32472380D02*
X76247619Y-32472380D01*
X76342857Y-32520000D01*
X76390476Y-32567619D01*
X76438095Y-32662857D01*
X76485714Y-32853333D01*
X76485714Y-33091428D01*
X76438095Y-33281904D01*
X76390476Y-33377142D01*
X76342857Y-33424761D01*
X76247619Y-33472380D01*
X76152380Y-33472380D01*
X76057142Y-33424761D01*
X76009523Y-33377142D01*
X75961904Y-33281904D01*
X75914285Y-33091428D01*
X75914285Y-32853333D01*
X75961904Y-32662857D01*
X76009523Y-32567619D01*
X76057142Y-32520000D01*
X76152380Y-32472380D01*
X121872380Y-35964880D02*
X121967619Y-35964880D01*
X122062857Y-36012500D01*
X122110476Y-36060119D01*
X122158095Y-36155357D01*
X122205714Y-36345833D01*
X122205714Y-36583928D01*
X122158095Y-36774404D01*
X122110476Y-36869642D01*
X122062857Y-36917261D01*
X121967619Y-36964880D01*
X121872380Y-36964880D01*
X121777142Y-36917261D01*
X121729523Y-36869642D01*
X121681904Y-36774404D01*
X121634285Y-36583928D01*
X121634285Y-36345833D01*
X121681904Y-36155357D01*
X121729523Y-36060119D01*
X121777142Y-36012500D01*
X121872380Y-35964880D01*
X147272380Y-35964880D02*
X147367619Y-35964880D01*
X147462857Y-36012500D01*
X147510476Y-36060119D01*
X147558095Y-36155357D01*
X147605714Y-36345833D01*
X147605714Y-36583928D01*
X147558095Y-36774404D01*
X147510476Y-36869642D01*
X147462857Y-36917261D01*
X147367619Y-36964880D01*
X147272380Y-36964880D01*
X147177142Y-36917261D01*
X147129523Y-36869642D01*
X147081904Y-36774404D01*
X147034285Y-36583928D01*
X147034285Y-36345833D01*
X147081904Y-36155357D01*
X147129523Y-36060119D01*
X147177142Y-36012500D01*
X147272380Y-35964880D01*
D12*
X83840000Y-32198571D02*
X84125714Y-32198571D01*
X84268571Y-32270000D01*
X84411428Y-32412857D01*
X84482857Y-32698571D01*
X84482857Y-33198571D01*
X84411428Y-33484285D01*
X84268571Y-33627142D01*
X84125714Y-33698571D01*
X83840000Y-33698571D01*
X83697142Y-33627142D01*
X83554285Y-33484285D01*
X83482857Y-33198571D01*
X83482857Y-32698571D01*
X83554285Y-32412857D01*
X83697142Y-32270000D01*
X83840000Y-32198571D01*
X85768571Y-32698571D02*
X85768571Y-33698571D01*
X85125714Y-32698571D02*
X85125714Y-33484285D01*
X85197142Y-33627142D01*
X85340000Y-33698571D01*
X85554285Y-33698571D01*
X85697142Y-33627142D01*
X85768571Y-33555714D01*
X86268571Y-32698571D02*
X86840000Y-32698571D01*
X86482857Y-32198571D02*
X86482857Y-33484285D01*
X86554285Y-33627142D01*
X86697142Y-33698571D01*
X86840000Y-33698571D01*
X78081428Y-184257142D02*
X79224285Y-184257142D01*
X78652857Y-184828571D02*
X78652857Y-183685714D01*
X80652857Y-183328571D02*
X79938571Y-183328571D01*
X79867142Y-184042857D01*
X79938571Y-183971428D01*
X80081428Y-183900000D01*
X80438571Y-183900000D01*
X80581428Y-183971428D01*
X80652857Y-184042857D01*
X80724285Y-184185714D01*
X80724285Y-184542857D01*
X80652857Y-184685714D01*
X80581428Y-184757142D01*
X80438571Y-184828571D01*
X80081428Y-184828571D01*
X79938571Y-184757142D01*
X79867142Y-184685714D01*
X81152857Y-183328571D02*
X81652857Y-184828571D01*
X82152857Y-183328571D01*
X63488214Y-183400000D02*
X63345357Y-183328571D01*
X63131071Y-183328571D01*
X62916785Y-183400000D01*
X62773928Y-183542857D01*
X62702500Y-183685714D01*
X62631071Y-183971428D01*
X62631071Y-184185714D01*
X62702500Y-184471428D01*
X62773928Y-184614285D01*
X62916785Y-184757142D01*
X63131071Y-184828571D01*
X63273928Y-184828571D01*
X63488214Y-184757142D01*
X63559642Y-184685714D01*
X63559642Y-184185714D01*
X63273928Y-184185714D01*
X64202500Y-183828571D02*
X64202500Y-184828571D01*
X64202500Y-183971428D02*
X64273928Y-183900000D01*
X64416785Y-183828571D01*
X64631071Y-183828571D01*
X64773928Y-183900000D01*
X64845357Y-184042857D01*
X64845357Y-184828571D01*
X66202500Y-184828571D02*
X66202500Y-183328571D01*
X66202500Y-184757142D02*
X66059642Y-184828571D01*
X65773928Y-184828571D01*
X65631071Y-184757142D01*
X65559642Y-184685714D01*
X65488214Y-184542857D01*
X65488214Y-184114285D01*
X65559642Y-183971428D01*
X65631071Y-183900000D01*
X65773928Y-183828571D01*
X66059642Y-183828571D01*
X66202500Y-183900000D01*
D11*
X94488095Y-185824761D02*
X94630952Y-185872380D01*
X94869047Y-185872380D01*
X94964285Y-185824761D01*
X95011904Y-185777142D01*
X95059523Y-185681904D01*
X95059523Y-185586666D01*
X95011904Y-185491428D01*
X94964285Y-185443809D01*
X94869047Y-185396190D01*
X94678571Y-185348571D01*
X94583333Y-185300952D01*
X94535714Y-185253333D01*
X94488095Y-185158095D01*
X94488095Y-185062857D01*
X94535714Y-184967619D01*
X94583333Y-184920000D01*
X94678571Y-184872380D01*
X94916666Y-184872380D01*
X95059523Y-184920000D01*
X95440476Y-184967619D02*
X95488095Y-184920000D01*
X95583333Y-184872380D01*
X95821428Y-184872380D01*
X95916666Y-184920000D01*
X95964285Y-184967619D01*
X96011904Y-185062857D01*
X96011904Y-185158095D01*
X95964285Y-185300952D01*
X95392857Y-185872380D01*
X96011904Y-185872380D01*
X91948095Y-185824761D02*
X92090952Y-185872380D01*
X92329047Y-185872380D01*
X92424285Y-185824761D01*
X92471904Y-185777142D01*
X92519523Y-185681904D01*
X92519523Y-185586666D01*
X92471904Y-185491428D01*
X92424285Y-185443809D01*
X92329047Y-185396190D01*
X92138571Y-185348571D01*
X92043333Y-185300952D01*
X91995714Y-185253333D01*
X91948095Y-185158095D01*
X91948095Y-185062857D01*
X91995714Y-184967619D01*
X92043333Y-184920000D01*
X92138571Y-184872380D01*
X92376666Y-184872380D01*
X92519523Y-184920000D01*
X93471904Y-185872380D02*
X92900476Y-185872380D01*
X93186190Y-185872380D02*
X93186190Y-184872380D01*
X93090952Y-185015238D01*
X92995714Y-185110476D01*
X92900476Y-185158095D01*
X89090595Y-185824761D02*
X89233452Y-185872380D01*
X89471547Y-185872380D01*
X89566785Y-185824761D01*
X89614404Y-185777142D01*
X89662023Y-185681904D01*
X89662023Y-185586666D01*
X89614404Y-185491428D01*
X89566785Y-185443809D01*
X89471547Y-185396190D01*
X89281071Y-185348571D01*
X89185833Y-185300952D01*
X89138214Y-185253333D01*
X89090595Y-185158095D01*
X89090595Y-185062857D01*
X89138214Y-184967619D01*
X89185833Y-184920000D01*
X89281071Y-184872380D01*
X89519166Y-184872380D01*
X89662023Y-184920000D01*
X90281071Y-184872380D02*
X90376309Y-184872380D01*
X90471547Y-184920000D01*
X90519166Y-184967619D01*
X90566785Y-185062857D01*
X90614404Y-185253333D01*
X90614404Y-185491428D01*
X90566785Y-185681904D01*
X90519166Y-185777142D01*
X90471547Y-185824761D01*
X90376309Y-185872380D01*
X90281071Y-185872380D01*
X90185833Y-185824761D01*
X90138214Y-185777142D01*
X90090595Y-185681904D01*
X90042976Y-185491428D01*
X90042976Y-185253333D01*
X90090595Y-185062857D01*
X90138214Y-184967619D01*
X90185833Y-184920000D01*
X90281071Y-184872380D01*
D12*
X138644285Y-36722857D02*
X138144285Y-36722857D01*
X138144285Y-37508571D02*
X138144285Y-36008571D01*
X138858571Y-36008571D01*
X112708571Y-36722857D02*
X113208571Y-36722857D01*
X113422857Y-37508571D02*
X112708571Y-37508571D01*
X112708571Y-36008571D01*
X113422857Y-36008571D01*
X51637142Y-37508571D02*
X51637142Y-36008571D01*
X51994285Y-36008571D01*
X52208571Y-36080000D01*
X52351428Y-36222857D01*
X52422857Y-36365714D01*
X52494285Y-36651428D01*
X52494285Y-36865714D01*
X52422857Y-37151428D01*
X52351428Y-37294285D01*
X52208571Y-37437142D01*
X51994285Y-37508571D01*
X51637142Y-37508571D01*
X27094285Y-37365714D02*
X27022857Y-37437142D01*
X26808571Y-37508571D01*
X26665714Y-37508571D01*
X26451428Y-37437142D01*
X26308571Y-37294285D01*
X26237142Y-37151428D01*
X26165714Y-36865714D01*
X26165714Y-36651428D01*
X26237142Y-36365714D01*
X26308571Y-36222857D01*
X26451428Y-36080000D01*
X26665714Y-36008571D01*
X26808571Y-36008571D01*
X27022857Y-36080000D01*
X27094285Y-36151428D01*
X137961428Y-182288571D02*
X137961428Y-180788571D01*
X137961428Y-181502857D02*
X138818571Y-181502857D01*
X138818571Y-182288571D02*
X138818571Y-180788571D01*
X113422857Y-180860000D02*
X113280000Y-180788571D01*
X113065714Y-180788571D01*
X112851428Y-180860000D01*
X112708571Y-181002857D01*
X112637142Y-181145714D01*
X112565714Y-181431428D01*
X112565714Y-181645714D01*
X112637142Y-181931428D01*
X112708571Y-182074285D01*
X112851428Y-182217142D01*
X113065714Y-182288571D01*
X113208571Y-182288571D01*
X113422857Y-182217142D01*
X113494285Y-182145714D01*
X113494285Y-181645714D01*
X113208571Y-181645714D01*
X52177142Y-181502857D02*
X52391428Y-181574285D01*
X52462857Y-181645714D01*
X52534285Y-181788571D01*
X52534285Y-182002857D01*
X52462857Y-182145714D01*
X52391428Y-182217142D01*
X52248571Y-182288571D01*
X51677142Y-182288571D01*
X51677142Y-180788571D01*
X52177142Y-180788571D01*
X52320000Y-180860000D01*
X52391428Y-180931428D01*
X52462857Y-181074285D01*
X52462857Y-181217142D01*
X52391428Y-181360000D01*
X52320000Y-181431428D01*
X52177142Y-181502857D01*
X51677142Y-181502857D01*
X26312857Y-181860000D02*
X27027142Y-181860000D01*
X26170000Y-182288571D02*
X26670000Y-180788571D01*
X27170000Y-182288571D01*
D13*
%TO.C,J1*%
X36890000Y-189290000D02*
X36890000Y-186630000D01*
X19050000Y-189290000D02*
X36890000Y-189290000D01*
X19050000Y-186630000D02*
X36890000Y-186630000D01*
X19050000Y-189290000D02*
X19050000Y-186630000D01*
X17780000Y-189290000D02*
X16450000Y-189290000D01*
X16450000Y-189290000D02*
X16450000Y-187960000D01*
%TO.C,J2*%
X102810000Y-29150000D02*
X102810000Y-31810000D01*
X120650000Y-29150000D02*
X102810000Y-29150000D01*
X120650000Y-31810000D02*
X102810000Y-31810000D01*
X120650000Y-29150000D02*
X120650000Y-31810000D01*
X121920000Y-29150000D02*
X123250000Y-29150000D01*
X123250000Y-29150000D02*
X123250000Y-30480000D01*
%TO.C,J3*%
X41850000Y-189290000D02*
X41850000Y-187960000D01*
X43180000Y-189290000D02*
X41850000Y-189290000D01*
X44450000Y-189290000D02*
X44450000Y-186630000D01*
X44450000Y-186630000D02*
X62290000Y-186630000D01*
X44450000Y-189290000D02*
X62290000Y-189290000D01*
X62290000Y-189290000D02*
X62290000Y-186630000D01*
%TO.C,J4*%
X148650000Y-29150000D02*
X148650000Y-30480000D01*
X147320000Y-29150000D02*
X148650000Y-29150000D01*
X146050000Y-29150000D02*
X146050000Y-31810000D01*
X146050000Y-31810000D02*
X128210000Y-31810000D01*
X146050000Y-29150000D02*
X128210000Y-29150000D01*
X128210000Y-29150000D02*
X128210000Y-31810000D01*
%TO.C,J5*%
X36890000Y-31810000D02*
X36890000Y-29150000D01*
X19050000Y-31810000D02*
X36890000Y-31810000D01*
X19050000Y-29150000D02*
X36890000Y-29150000D01*
X19050000Y-31810000D02*
X19050000Y-29150000D01*
X17780000Y-31810000D02*
X16450000Y-31810000D01*
X16450000Y-31810000D02*
X16450000Y-30480000D01*
%TO.C,J6*%
X102810000Y-186630000D02*
X102810000Y-189290000D01*
X120650000Y-186630000D02*
X102810000Y-186630000D01*
X120650000Y-189290000D02*
X102810000Y-189290000D01*
X120650000Y-186630000D02*
X120650000Y-189290000D01*
X121920000Y-186630000D02*
X123250000Y-186630000D01*
X123250000Y-186630000D02*
X123250000Y-187960000D01*
%TO.C,J7*%
X41850000Y-31810000D02*
X41850000Y-30480000D01*
X43180000Y-31810000D02*
X41850000Y-31810000D01*
X44450000Y-31810000D02*
X44450000Y-29150000D01*
X44450000Y-29150000D02*
X62290000Y-29150000D01*
X44450000Y-31810000D02*
X62290000Y-31810000D01*
X62290000Y-31810000D02*
X62290000Y-29150000D01*
%TO.C,J8*%
X148650000Y-186630000D02*
X148650000Y-187960000D01*
X147320000Y-186630000D02*
X148650000Y-186630000D01*
X146050000Y-186630000D02*
X146050000Y-189290000D01*
X146050000Y-189290000D02*
X128210000Y-189290000D01*
X146050000Y-186630000D02*
X128210000Y-186630000D01*
X128210000Y-186630000D02*
X128210000Y-189290000D01*
%TO.C,U1*%
X71390000Y-34230000D02*
X69740000Y-34230000D01*
X69740000Y-34230000D02*
X69740000Y-54670000D01*
X69740000Y-54670000D02*
X75040000Y-54670000D01*
X75040000Y-54670000D02*
X75040000Y-34230000D01*
X75040000Y-34230000D02*
X73390000Y-34230000D01*
X67250000Y-34170000D02*
X67250000Y-54730000D01*
X67250000Y-54730000D02*
X77530000Y-54730000D01*
X77530000Y-54730000D02*
X77530000Y-34170000D01*
X77530000Y-34170000D02*
X67250000Y-34170000D01*
X73390000Y-34230000D02*
G75*
G02*
X71390000Y-34230000I-1000000J0D01*
G01*
%TO.C,U2*%
X97850000Y-57030000D02*
X87570000Y-57030000D01*
X97850000Y-77590000D02*
X97850000Y-57030000D01*
X87570000Y-77590000D02*
X97850000Y-77590000D01*
X87570000Y-57030000D02*
X87570000Y-77590000D01*
X95360000Y-57090000D02*
X93710000Y-57090000D01*
X95360000Y-77530000D02*
X95360000Y-57090000D01*
X90060000Y-77530000D02*
X95360000Y-77530000D01*
X90060000Y-57090000D02*
X90060000Y-77530000D01*
X91710000Y-57090000D02*
X90060000Y-57090000D01*
X93710000Y-57090000D02*
G75*
G02*
X91710000Y-57090000I-1000000J0D01*
G01*
%TO.C,U3*%
X71390000Y-69790000D02*
X69740000Y-69790000D01*
X69740000Y-69790000D02*
X69740000Y-90230000D01*
X69740000Y-90230000D02*
X75040000Y-90230000D01*
X75040000Y-90230000D02*
X75040000Y-69790000D01*
X75040000Y-69790000D02*
X73390000Y-69790000D01*
X67250000Y-69730000D02*
X67250000Y-90290000D01*
X67250000Y-90290000D02*
X77530000Y-90290000D01*
X77530000Y-90290000D02*
X77530000Y-69730000D01*
X77530000Y-69730000D02*
X67250000Y-69730000D01*
X73390000Y-69790000D02*
G75*
G02*
X71390000Y-69790000I-1000000J0D01*
G01*
%TO.C,U4*%
X97850000Y-92590000D02*
X87570000Y-92590000D01*
X97850000Y-113150000D02*
X97850000Y-92590000D01*
X87570000Y-113150000D02*
X97850000Y-113150000D01*
X87570000Y-92590000D02*
X87570000Y-113150000D01*
X95360000Y-92650000D02*
X93710000Y-92650000D01*
X95360000Y-113090000D02*
X95360000Y-92650000D01*
X90060000Y-113090000D02*
X95360000Y-113090000D01*
X90060000Y-92650000D02*
X90060000Y-113090000D01*
X91710000Y-92650000D02*
X90060000Y-92650000D01*
X93710000Y-92650000D02*
G75*
G02*
X91710000Y-92650000I-1000000J0D01*
G01*
%TO.C,U5*%
X71390000Y-105350000D02*
X69740000Y-105350000D01*
X69740000Y-105350000D02*
X69740000Y-125790000D01*
X69740000Y-125790000D02*
X75040000Y-125790000D01*
X75040000Y-125790000D02*
X75040000Y-105350000D01*
X75040000Y-105350000D02*
X73390000Y-105350000D01*
X67250000Y-105290000D02*
X67250000Y-125850000D01*
X67250000Y-125850000D02*
X77530000Y-125850000D01*
X77530000Y-125850000D02*
X77530000Y-105290000D01*
X77530000Y-105290000D02*
X67250000Y-105290000D01*
X73390000Y-105350000D02*
G75*
G02*
X71390000Y-105350000I-1000000J0D01*
G01*
%TO.C,U6*%
X97850000Y-128150000D02*
X87570000Y-128150000D01*
X97850000Y-148710000D02*
X97850000Y-128150000D01*
X87570000Y-148710000D02*
X97850000Y-148710000D01*
X87570000Y-128150000D02*
X87570000Y-148710000D01*
X95360000Y-128210000D02*
X93710000Y-128210000D01*
X95360000Y-148650000D02*
X95360000Y-128210000D01*
X90060000Y-148650000D02*
X95360000Y-148650000D01*
X90060000Y-128210000D02*
X90060000Y-148650000D01*
X91710000Y-128210000D02*
X90060000Y-128210000D01*
X93710000Y-128210000D02*
G75*
G02*
X91710000Y-128210000I-1000000J0D01*
G01*
%TO.C,U7*%
X71390000Y-140910000D02*
X69740000Y-140910000D01*
X69740000Y-140910000D02*
X69740000Y-161350000D01*
X69740000Y-161350000D02*
X75040000Y-161350000D01*
X75040000Y-161350000D02*
X75040000Y-140910000D01*
X75040000Y-140910000D02*
X73390000Y-140910000D01*
X67250000Y-140850000D02*
X67250000Y-161410000D01*
X67250000Y-161410000D02*
X77530000Y-161410000D01*
X77530000Y-161410000D02*
X77530000Y-140850000D01*
X77530000Y-140850000D02*
X67250000Y-140850000D01*
X73390000Y-140910000D02*
G75*
G02*
X71390000Y-140910000I-1000000J0D01*
G01*
%TO.C,U8*%
X97850000Y-163710000D02*
X87570000Y-163710000D01*
X97850000Y-184270000D02*
X97850000Y-163710000D01*
X87570000Y-184270000D02*
X97850000Y-184270000D01*
X87570000Y-163710000D02*
X87570000Y-184270000D01*
X95360000Y-163770000D02*
X93710000Y-163770000D01*
X95360000Y-184210000D02*
X95360000Y-163770000D01*
X90060000Y-184210000D02*
X95360000Y-184210000D01*
X90060000Y-163770000D02*
X90060000Y-184210000D01*
X91710000Y-163770000D02*
X90060000Y-163770000D01*
X93710000Y-163770000D02*
G75*
G02*
X91710000Y-163770000I-1000000J0D01*
G01*
%TO.C,J9*%
X76530000Y-184150000D02*
G75*
G03*
X76530000Y-184150000I-1680000J0D01*
G01*
X67290000Y-188250000D02*
X77410000Y-188250000D01*
X67290000Y-186750000D02*
X77410000Y-186750000D01*
X67290000Y-181849000D02*
X77410000Y-181849000D01*
X67290000Y-178889000D02*
X77410000Y-178889000D01*
X67290000Y-188810000D02*
X77410000Y-188810000D01*
X67290000Y-178889000D02*
X67290000Y-188810000D01*
X77410000Y-178889000D02*
X77410000Y-188810000D01*
X76125000Y-183081000D02*
X76078000Y-183127000D01*
X73816000Y-185389000D02*
X73781000Y-185424000D01*
X75920000Y-182875000D02*
X75885000Y-182911000D01*
X73623000Y-185173000D02*
X73576000Y-185219000D01*
X67050000Y-188310000D02*
X67050000Y-189050000D01*
X67050000Y-189050000D02*
X67550000Y-189050000D01*
X70533318Y-185684756D02*
G75*
G02*
X69850000Y-185830000I-683318J1534756D01*
G01*
X71385426Y-183466958D02*
G75*
G02*
X71385000Y-184834000I-1535426J-683042D01*
G01*
X69166958Y-182614574D02*
G75*
G02*
X70534000Y-182615000I683042J-1535426D01*
G01*
X68314574Y-184833042D02*
G75*
G02*
X68315000Y-183466000I1535426J683042D01*
G01*
X69878805Y-185830253D02*
G75*
G02*
X69166000Y-185685000I-28805J1680253D01*
G01*
%TO.C,J10*%
X96580000Y-189290000D02*
X96580000Y-186630000D01*
X91440000Y-189290000D02*
X96580000Y-189290000D01*
X91440000Y-186630000D02*
X96580000Y-186630000D01*
X91440000Y-189290000D02*
X91440000Y-186630000D01*
X90170000Y-189290000D02*
X88840000Y-189290000D01*
X88840000Y-189290000D02*
X88840000Y-187960000D01*
%TO.C,J11*%
X95310000Y-31810000D02*
X95310000Y-29150000D01*
X77470000Y-31810000D02*
X95310000Y-31810000D01*
X77470000Y-29150000D02*
X95310000Y-29150000D01*
X77470000Y-31810000D02*
X77470000Y-29150000D01*
X76200000Y-31810000D02*
X74870000Y-31810000D01*
X74870000Y-31810000D02*
X74870000Y-30480000D01*
%TO.C,C1*%
X72651252Y-57885000D02*
X72128748Y-57885000D01*
X72651252Y-56415000D02*
X72128748Y-56415000D01*
%TO.C,C2*%
X72651252Y-91975000D02*
X72128748Y-91975000D01*
X72651252Y-93445000D02*
X72128748Y-93445000D01*
%TO.C,C3*%
X72651252Y-129005000D02*
X72128748Y-129005000D01*
X72651252Y-127535000D02*
X72128748Y-127535000D01*
%TO.C,C4*%
X72651252Y-164365000D02*
X72128748Y-164365000D01*
X72651252Y-165835000D02*
X72128748Y-165835000D01*
%TO.C,C5*%
X92971252Y-80745000D02*
X92448748Y-80745000D01*
X92971252Y-79275000D02*
X92448748Y-79275000D01*
%TO.C,C6*%
X92971252Y-114835000D02*
X92448748Y-114835000D01*
X92971252Y-116305000D02*
X92448748Y-116305000D01*
%TO.C,C7*%
X92971252Y-151865000D02*
X92448748Y-151865000D01*
X92971252Y-150395000D02*
X92448748Y-150395000D01*
%TO.C,C8*%
X92971252Y-159285000D02*
X92448748Y-159285000D01*
X92971252Y-160755000D02*
X92448748Y-160755000D01*
%TO.C,J12*%
X16450000Y-185480000D02*
X16450000Y-184150000D01*
X17780000Y-185480000D02*
X16450000Y-185480000D01*
X19050000Y-185480000D02*
X19050000Y-182820000D01*
X19050000Y-182820000D02*
X36890000Y-182820000D01*
X19050000Y-185480000D02*
X36890000Y-185480000D01*
X36890000Y-185480000D02*
X36890000Y-182820000D01*
%TO.C,J13*%
X123250000Y-32960000D02*
X123250000Y-34290000D01*
X121920000Y-32960000D02*
X123250000Y-32960000D01*
X120650000Y-32960000D02*
X120650000Y-35620000D01*
X120650000Y-35620000D02*
X102810000Y-35620000D01*
X120650000Y-32960000D02*
X102810000Y-32960000D01*
X102810000Y-32960000D02*
X102810000Y-35620000D01*
%TO.C,J14*%
X62290000Y-185480000D02*
X62290000Y-182820000D01*
X44450000Y-185480000D02*
X62290000Y-185480000D01*
X44450000Y-182820000D02*
X62290000Y-182820000D01*
X44450000Y-185480000D02*
X44450000Y-182820000D01*
X43180000Y-185480000D02*
X41850000Y-185480000D01*
X41850000Y-185480000D02*
X41850000Y-184150000D01*
%TO.C,J15*%
X128210000Y-32960000D02*
X128210000Y-35620000D01*
X146050000Y-32960000D02*
X128210000Y-32960000D01*
X146050000Y-35620000D02*
X128210000Y-35620000D01*
X146050000Y-32960000D02*
X146050000Y-35620000D01*
X147320000Y-32960000D02*
X148650000Y-32960000D01*
X148650000Y-32960000D02*
X148650000Y-34290000D01*
%TO.C,J16*%
X16450000Y-35620000D02*
X16450000Y-34290000D01*
X17780000Y-35620000D02*
X16450000Y-35620000D01*
X19050000Y-35620000D02*
X19050000Y-32960000D01*
X19050000Y-32960000D02*
X36890000Y-32960000D01*
X19050000Y-35620000D02*
X36890000Y-35620000D01*
X36890000Y-35620000D02*
X36890000Y-32960000D01*
%TO.C,J17*%
X123250000Y-182820000D02*
X123250000Y-184150000D01*
X121920000Y-182820000D02*
X123250000Y-182820000D01*
X120650000Y-182820000D02*
X120650000Y-185480000D01*
X120650000Y-185480000D02*
X102810000Y-185480000D01*
X120650000Y-182820000D02*
X102810000Y-182820000D01*
X102810000Y-182820000D02*
X102810000Y-185480000D01*
%TO.C,J18*%
X62290000Y-35620000D02*
X62290000Y-32960000D01*
X44450000Y-35620000D02*
X62290000Y-35620000D01*
X44450000Y-32960000D02*
X62290000Y-32960000D01*
X44450000Y-35620000D02*
X44450000Y-32960000D01*
X43180000Y-35620000D02*
X41850000Y-35620000D01*
X41850000Y-35620000D02*
X41850000Y-34290000D01*
%TO.C,J19*%
X128210000Y-182820000D02*
X128210000Y-185480000D01*
X146050000Y-182820000D02*
X128210000Y-182820000D01*
X146050000Y-185480000D02*
X128210000Y-185480000D01*
X146050000Y-182820000D02*
X146050000Y-185480000D01*
X147320000Y-182820000D02*
X148650000Y-182820000D01*
X148650000Y-182820000D02*
X148650000Y-184150000D01*
%TO.C,U1*%
D11*
X71628095Y-32682380D02*
X71628095Y-33491904D01*
X71675714Y-33587142D01*
X71723333Y-33634761D01*
X71818571Y-33682380D01*
X72009047Y-33682380D01*
X72104285Y-33634761D01*
X72151904Y-33587142D01*
X72199523Y-33491904D01*
X72199523Y-32682380D01*
X73199523Y-33682380D02*
X72628095Y-33682380D01*
X72913809Y-33682380D02*
X72913809Y-32682380D01*
X72818571Y-32825238D01*
X72723333Y-32920476D01*
X72628095Y-32968095D01*
%TO.C,U2*%
X91948095Y-55542380D02*
X91948095Y-56351904D01*
X91995714Y-56447142D01*
X92043333Y-56494761D01*
X92138571Y-56542380D01*
X92329047Y-56542380D01*
X92424285Y-56494761D01*
X92471904Y-56447142D01*
X92519523Y-56351904D01*
X92519523Y-55542380D01*
X92948095Y-55637619D02*
X92995714Y-55590000D01*
X93090952Y-55542380D01*
X93329047Y-55542380D01*
X93424285Y-55590000D01*
X93471904Y-55637619D01*
X93519523Y-55732857D01*
X93519523Y-55828095D01*
X93471904Y-55970952D01*
X92900476Y-56542380D01*
X93519523Y-56542380D01*
%TO.C,U3*%
X71628095Y-68242380D02*
X71628095Y-69051904D01*
X71675714Y-69147142D01*
X71723333Y-69194761D01*
X71818571Y-69242380D01*
X72009047Y-69242380D01*
X72104285Y-69194761D01*
X72151904Y-69147142D01*
X72199523Y-69051904D01*
X72199523Y-68242380D01*
X72580476Y-68242380D02*
X73199523Y-68242380D01*
X72866190Y-68623333D01*
X73009047Y-68623333D01*
X73104285Y-68670952D01*
X73151904Y-68718571D01*
X73199523Y-68813809D01*
X73199523Y-69051904D01*
X73151904Y-69147142D01*
X73104285Y-69194761D01*
X73009047Y-69242380D01*
X72723333Y-69242380D01*
X72628095Y-69194761D01*
X72580476Y-69147142D01*
%TO.C,U4*%
X91948095Y-91102380D02*
X91948095Y-91911904D01*
X91995714Y-92007142D01*
X92043333Y-92054761D01*
X92138571Y-92102380D01*
X92329047Y-92102380D01*
X92424285Y-92054761D01*
X92471904Y-92007142D01*
X92519523Y-91911904D01*
X92519523Y-91102380D01*
X93424285Y-91435714D02*
X93424285Y-92102380D01*
X93186190Y-91054761D02*
X92948095Y-91769047D01*
X93567142Y-91769047D01*
%TO.C,U5*%
X71628095Y-103802380D02*
X71628095Y-104611904D01*
X71675714Y-104707142D01*
X71723333Y-104754761D01*
X71818571Y-104802380D01*
X72009047Y-104802380D01*
X72104285Y-104754761D01*
X72151904Y-104707142D01*
X72199523Y-104611904D01*
X72199523Y-103802380D01*
X73151904Y-103802380D02*
X72675714Y-103802380D01*
X72628095Y-104278571D01*
X72675714Y-104230952D01*
X72770952Y-104183333D01*
X73009047Y-104183333D01*
X73104285Y-104230952D01*
X73151904Y-104278571D01*
X73199523Y-104373809D01*
X73199523Y-104611904D01*
X73151904Y-104707142D01*
X73104285Y-104754761D01*
X73009047Y-104802380D01*
X72770952Y-104802380D01*
X72675714Y-104754761D01*
X72628095Y-104707142D01*
%TO.C,U6*%
X91948095Y-126662380D02*
X91948095Y-127471904D01*
X91995714Y-127567142D01*
X92043333Y-127614761D01*
X92138571Y-127662380D01*
X92329047Y-127662380D01*
X92424285Y-127614761D01*
X92471904Y-127567142D01*
X92519523Y-127471904D01*
X92519523Y-126662380D01*
X93424285Y-126662380D02*
X93233809Y-126662380D01*
X93138571Y-126710000D01*
X93090952Y-126757619D01*
X92995714Y-126900476D01*
X92948095Y-127090952D01*
X92948095Y-127471904D01*
X92995714Y-127567142D01*
X93043333Y-127614761D01*
X93138571Y-127662380D01*
X93329047Y-127662380D01*
X93424285Y-127614761D01*
X93471904Y-127567142D01*
X93519523Y-127471904D01*
X93519523Y-127233809D01*
X93471904Y-127138571D01*
X93424285Y-127090952D01*
X93329047Y-127043333D01*
X93138571Y-127043333D01*
X93043333Y-127090952D01*
X92995714Y-127138571D01*
X92948095Y-127233809D01*
%TO.C,U7*%
X71628095Y-139362380D02*
X71628095Y-140171904D01*
X71675714Y-140267142D01*
X71723333Y-140314761D01*
X71818571Y-140362380D01*
X72009047Y-140362380D01*
X72104285Y-140314761D01*
X72151904Y-140267142D01*
X72199523Y-140171904D01*
X72199523Y-139362380D01*
X72580476Y-139362380D02*
X73247142Y-139362380D01*
X72818571Y-140362380D01*
%TO.C,U8*%
X91948095Y-162222380D02*
X91948095Y-163031904D01*
X91995714Y-163127142D01*
X92043333Y-163174761D01*
X92138571Y-163222380D01*
X92329047Y-163222380D01*
X92424285Y-163174761D01*
X92471904Y-163127142D01*
X92519523Y-163031904D01*
X92519523Y-162222380D01*
X93138571Y-162650952D02*
X93043333Y-162603333D01*
X92995714Y-162555714D01*
X92948095Y-162460476D01*
X92948095Y-162412857D01*
X92995714Y-162317619D01*
X93043333Y-162270000D01*
X93138571Y-162222380D01*
X93329047Y-162222380D01*
X93424285Y-162270000D01*
X93471904Y-162317619D01*
X93519523Y-162412857D01*
X93519523Y-162460476D01*
X93471904Y-162555714D01*
X93424285Y-162603333D01*
X93329047Y-162650952D01*
X93138571Y-162650952D01*
X93043333Y-162698571D01*
X92995714Y-162746190D01*
X92948095Y-162841428D01*
X92948095Y-163031904D01*
X92995714Y-163127142D01*
X93043333Y-163174761D01*
X93138571Y-163222380D01*
X93329047Y-163222380D01*
X93424285Y-163174761D01*
X93471904Y-163127142D01*
X93519523Y-163031904D01*
X93519523Y-162841428D01*
X93471904Y-162746190D01*
X93424285Y-162698571D01*
X93329047Y-162650952D01*
%TO.C,C1*%
X75080833Y-57507142D02*
X75033214Y-57554761D01*
X74890357Y-57602380D01*
X74795119Y-57602380D01*
X74652261Y-57554761D01*
X74557023Y-57459523D01*
X74509404Y-57364285D01*
X74461785Y-57173809D01*
X74461785Y-57030952D01*
X74509404Y-56840476D01*
X74557023Y-56745238D01*
X74652261Y-56650000D01*
X74795119Y-56602380D01*
X74890357Y-56602380D01*
X75033214Y-56650000D01*
X75080833Y-56697619D01*
X76033214Y-57602380D02*
X75461785Y-57602380D01*
X75747500Y-57602380D02*
X75747500Y-56602380D01*
X75652261Y-56745238D01*
X75557023Y-56840476D01*
X75461785Y-56888095D01*
%TO.C,C2*%
X75080833Y-93067142D02*
X75033214Y-93114761D01*
X74890357Y-93162380D01*
X74795119Y-93162380D01*
X74652261Y-93114761D01*
X74557023Y-93019523D01*
X74509404Y-92924285D01*
X74461785Y-92733809D01*
X74461785Y-92590952D01*
X74509404Y-92400476D01*
X74557023Y-92305238D01*
X74652261Y-92210000D01*
X74795119Y-92162380D01*
X74890357Y-92162380D01*
X75033214Y-92210000D01*
X75080833Y-92257619D01*
X75461785Y-92257619D02*
X75509404Y-92210000D01*
X75604642Y-92162380D01*
X75842738Y-92162380D01*
X75937976Y-92210000D01*
X75985595Y-92257619D01*
X76033214Y-92352857D01*
X76033214Y-92448095D01*
X75985595Y-92590952D01*
X75414166Y-93162380D01*
X76033214Y-93162380D01*
%TO.C,C3*%
X75398333Y-128627142D02*
X75350714Y-128674761D01*
X75207857Y-128722380D01*
X75112619Y-128722380D01*
X74969761Y-128674761D01*
X74874523Y-128579523D01*
X74826904Y-128484285D01*
X74779285Y-128293809D01*
X74779285Y-128150952D01*
X74826904Y-127960476D01*
X74874523Y-127865238D01*
X74969761Y-127770000D01*
X75112619Y-127722380D01*
X75207857Y-127722380D01*
X75350714Y-127770000D01*
X75398333Y-127817619D01*
X75731666Y-127722380D02*
X76350714Y-127722380D01*
X76017380Y-128103333D01*
X76160238Y-128103333D01*
X76255476Y-128150952D01*
X76303095Y-128198571D01*
X76350714Y-128293809D01*
X76350714Y-128531904D01*
X76303095Y-128627142D01*
X76255476Y-128674761D01*
X76160238Y-128722380D01*
X75874523Y-128722380D01*
X75779285Y-128674761D01*
X75731666Y-128627142D01*
%TO.C,C4*%
X75080833Y-165457142D02*
X75033214Y-165504761D01*
X74890357Y-165552380D01*
X74795119Y-165552380D01*
X74652261Y-165504761D01*
X74557023Y-165409523D01*
X74509404Y-165314285D01*
X74461785Y-165123809D01*
X74461785Y-164980952D01*
X74509404Y-164790476D01*
X74557023Y-164695238D01*
X74652261Y-164600000D01*
X74795119Y-164552380D01*
X74890357Y-164552380D01*
X75033214Y-164600000D01*
X75080833Y-164647619D01*
X75937976Y-164885714D02*
X75937976Y-165552380D01*
X75699880Y-164504761D02*
X75461785Y-165219047D01*
X76080833Y-165219047D01*
%TO.C,C5*%
X95400833Y-80367142D02*
X95353214Y-80414761D01*
X95210357Y-80462380D01*
X95115119Y-80462380D01*
X94972261Y-80414761D01*
X94877023Y-80319523D01*
X94829404Y-80224285D01*
X94781785Y-80033809D01*
X94781785Y-79890952D01*
X94829404Y-79700476D01*
X94877023Y-79605238D01*
X94972261Y-79510000D01*
X95115119Y-79462380D01*
X95210357Y-79462380D01*
X95353214Y-79510000D01*
X95400833Y-79557619D01*
X96305595Y-79462380D02*
X95829404Y-79462380D01*
X95781785Y-79938571D01*
X95829404Y-79890952D01*
X95924642Y-79843333D01*
X96162738Y-79843333D01*
X96257976Y-79890952D01*
X96305595Y-79938571D01*
X96353214Y-80033809D01*
X96353214Y-80271904D01*
X96305595Y-80367142D01*
X96257976Y-80414761D01*
X96162738Y-80462380D01*
X95924642Y-80462380D01*
X95829404Y-80414761D01*
X95781785Y-80367142D01*
%TO.C,C6*%
X95400833Y-115927142D02*
X95353214Y-115974761D01*
X95210357Y-116022380D01*
X95115119Y-116022380D01*
X94972261Y-115974761D01*
X94877023Y-115879523D01*
X94829404Y-115784285D01*
X94781785Y-115593809D01*
X94781785Y-115450952D01*
X94829404Y-115260476D01*
X94877023Y-115165238D01*
X94972261Y-115070000D01*
X95115119Y-115022380D01*
X95210357Y-115022380D01*
X95353214Y-115070000D01*
X95400833Y-115117619D01*
X96257976Y-115022380D02*
X96067500Y-115022380D01*
X95972261Y-115070000D01*
X95924642Y-115117619D01*
X95829404Y-115260476D01*
X95781785Y-115450952D01*
X95781785Y-115831904D01*
X95829404Y-115927142D01*
X95877023Y-115974761D01*
X95972261Y-116022380D01*
X96162738Y-116022380D01*
X96257976Y-115974761D01*
X96305595Y-115927142D01*
X96353214Y-115831904D01*
X96353214Y-115593809D01*
X96305595Y-115498571D01*
X96257976Y-115450952D01*
X96162738Y-115403333D01*
X95972261Y-115403333D01*
X95877023Y-115450952D01*
X95829404Y-115498571D01*
X95781785Y-115593809D01*
%TO.C,C7*%
X95400833Y-151487142D02*
X95353214Y-151534761D01*
X95210357Y-151582380D01*
X95115119Y-151582380D01*
X94972261Y-151534761D01*
X94877023Y-151439523D01*
X94829404Y-151344285D01*
X94781785Y-151153809D01*
X94781785Y-151010952D01*
X94829404Y-150820476D01*
X94877023Y-150725238D01*
X94972261Y-150630000D01*
X95115119Y-150582380D01*
X95210357Y-150582380D01*
X95353214Y-150630000D01*
X95400833Y-150677619D01*
X95734166Y-150582380D02*
X96400833Y-150582380D01*
X95972261Y-151582380D01*
%TO.C,C8*%
X95400833Y-160377142D02*
X95353214Y-160424761D01*
X95210357Y-160472380D01*
X95115119Y-160472380D01*
X94972261Y-160424761D01*
X94877023Y-160329523D01*
X94829404Y-160234285D01*
X94781785Y-160043809D01*
X94781785Y-159900952D01*
X94829404Y-159710476D01*
X94877023Y-159615238D01*
X94972261Y-159520000D01*
X95115119Y-159472380D01*
X95210357Y-159472380D01*
X95353214Y-159520000D01*
X95400833Y-159567619D01*
X95972261Y-159900952D02*
X95877023Y-159853333D01*
X95829404Y-159805714D01*
X95781785Y-159710476D01*
X95781785Y-159662857D01*
X95829404Y-159567619D01*
X95877023Y-159520000D01*
X95972261Y-159472380D01*
X96162738Y-159472380D01*
X96257976Y-159520000D01*
X96305595Y-159567619D01*
X96353214Y-159662857D01*
X96353214Y-159710476D01*
X96305595Y-159805714D01*
X96257976Y-159853333D01*
X96162738Y-159900952D01*
X95972261Y-159900952D01*
X95877023Y-159948571D01*
X95829404Y-159996190D01*
X95781785Y-160091428D01*
X95781785Y-160281904D01*
X95829404Y-160377142D01*
X95877023Y-160424761D01*
X95972261Y-160472380D01*
X96162738Y-160472380D01*
X96257976Y-160424761D01*
X96305595Y-160377142D01*
X96353214Y-160281904D01*
X96353214Y-160091428D01*
X96305595Y-159996190D01*
X96257976Y-159948571D01*
X96162738Y-159900952D01*
%TD*%
M02*
