%TF.GenerationSoftware,KiCad,Pcbnew,(5.1.8)-1*%
%TF.CreationDate,2024-07-21T13:54:42+03:00*%
%TF.ProjectId,MUX8x1-v5,4d555838-7831-42d7-9635-2e6b69636164,rev?*%
%TF.SameCoordinates,Original*%
%TF.FileFunction,Copper,L1,Top*%
%TF.FilePolarity,Positive*%
%FSLAX46Y46*%
G04 Gerber Fmt 4.6, Leading zero omitted, Abs format (unit mm)*
G04 Created by KiCad (PCBNEW (5.1.8)-1) date 2024-07-21 13:54:42*
%MOMM*%
%LPD*%
G01*
G04 APERTURE LIST*
%TA.AperFunction,ComponentPad*%
%ADD10R,1.700000X1.700000*%
%TD*%
%TA.AperFunction,ComponentPad*%
%ADD11O,1.700000X1.700000*%
%TD*%
%TA.AperFunction,ComponentPad*%
%ADD12O,1.600000X1.600000*%
%TD*%
%TA.AperFunction,ComponentPad*%
%ADD13R,1.600000X1.600000*%
%TD*%
%TA.AperFunction,ComponentPad*%
%ADD14C,2.600000*%
%TD*%
%TA.AperFunction,ComponentPad*%
%ADD15R,2.600000X2.600000*%
%TD*%
%TA.AperFunction,ComponentPad*%
%ADD16C,1.600000*%
%TD*%
%TA.AperFunction,ViaPad*%
%ADD17C,1.200000*%
%TD*%
%TA.AperFunction,Conductor*%
%ADD18C,0.600000*%
%TD*%
%TA.AperFunction,Conductor*%
%ADD19C,0.500000*%
%TD*%
G04 APERTURE END LIST*
D10*
%TO.P,J20,1*%
%TO.N,/~EH*%
X172085000Y-68580000D03*
%TD*%
D11*
%TO.P,J11,9*%
%TO.N,/C7*%
X142240000Y-127000000D03*
%TO.P,J11,8*%
%TO.N,/C6*%
X144780000Y-127000000D03*
%TO.P,J11,7*%
%TO.N,/C5*%
X147320000Y-127000000D03*
%TO.P,J11,6*%
%TO.N,/C4*%
X149860000Y-127000000D03*
%TO.P,J11,5*%
%TO.N,/C3*%
X152400000Y-127000000D03*
%TO.P,J11,4*%
%TO.N,/C2*%
X154940000Y-127000000D03*
%TO.P,J11,3*%
%TO.N,/C1*%
X157480000Y-127000000D03*
%TO.P,J11,2*%
%TO.N,/C0*%
X160020000Y-127000000D03*
D10*
%TO.P,J11,1*%
%TO.N,GND*%
X162560000Y-127000000D03*
%TD*%
D12*
%TO.P,U9,20*%
%TO.N,VCC*%
X166370000Y-93980000D03*
%TO.P,U9,10*%
%TO.N,GND*%
X158750000Y-116840000D03*
%TO.P,U9,19*%
%TO.N,/~OE*%
X166370000Y-96520000D03*
%TO.P,U9,9*%
%TO.N,/O7*%
X158750000Y-114300000D03*
%TO.P,U9,18*%
%TO.N,/BUS0*%
X166370000Y-99060000D03*
%TO.P,U9,8*%
%TO.N,/O6*%
X158750000Y-111760000D03*
%TO.P,U9,17*%
%TO.N,/BUS1*%
X166370000Y-101600000D03*
%TO.P,U9,7*%
%TO.N,/O5*%
X158750000Y-109220000D03*
%TO.P,U9,16*%
%TO.N,/BUS2*%
X166370000Y-104140000D03*
%TO.P,U9,6*%
%TO.N,/O4*%
X158750000Y-106680000D03*
%TO.P,U9,15*%
%TO.N,/BUS3*%
X166370000Y-106680000D03*
%TO.P,U9,5*%
%TO.N,/O3*%
X158750000Y-104140000D03*
%TO.P,U9,14*%
%TO.N,/BUS4*%
X166370000Y-109220000D03*
%TO.P,U9,4*%
%TO.N,/O2*%
X158750000Y-101600000D03*
%TO.P,U9,13*%
%TO.N,/BUS5*%
X166370000Y-111760000D03*
%TO.P,U9,3*%
%TO.N,/O1*%
X158750000Y-99060000D03*
%TO.P,U9,12*%
%TO.N,/BUS6*%
X166370000Y-114300000D03*
%TO.P,U9,2*%
%TO.N,/O0*%
X158750000Y-96520000D03*
%TO.P,U9,11*%
%TO.N,/BUS7*%
X166370000Y-116840000D03*
D13*
%TO.P,U9,1*%
%TO.N,Net-(R2-Pad1)*%
X158750000Y-93980000D03*
%TD*%
%TO.P,U8,16*%
%TO.N,VCC*%
%TA.AperFunction,ComponentPad*%
G36*
G01*
X38839691Y-94430000D02*
X38839691Y-94430000D01*
G75*
G02*
X39114210Y-93405481I649519J375000D01*
G01*
X39374018Y-93255481D01*
G75*
G02*
X40398537Y-93530000I375000J-649519D01*
G01*
X40398537Y-93530000D01*
G75*
G02*
X40124018Y-94554519I-649519J-375000D01*
G01*
X39864210Y-94704519D01*
G75*
G02*
X38839691Y-94430000I-375000J649519D01*
G01*
G37*
%TD.AperFunction*%
%TO.P,U8,8*%
%TO.N,GND*%
%TA.AperFunction,ComponentPad*%
G36*
G01*
X41130577Y-113637932D02*
X41130577Y-113637932D01*
G75*
G02*
X41405096Y-112613413I649519J375000D01*
G01*
X41664904Y-112463413D01*
G75*
G02*
X42689423Y-112737932I375000J-649519D01*
G01*
X42689423Y-112737932D01*
G75*
G02*
X42414904Y-113762451I-649519J-375000D01*
G01*
X42155096Y-113912451D01*
G75*
G02*
X41130577Y-113637932I-375000J649519D01*
G01*
G37*
%TD.AperFunction*%
%TO.P,U8,15*%
%TO.N,/E7*%
%TA.AperFunction,ComponentPad*%
G36*
G01*
X40109691Y-96629705D02*
X40109691Y-96629705D01*
G75*
G02*
X40384210Y-95605186I649519J375000D01*
G01*
X40644018Y-95455186D01*
G75*
G02*
X41668537Y-95729705I375000J-649519D01*
G01*
X41668537Y-95729705D01*
G75*
G02*
X41394018Y-96754224I-649519J-375000D01*
G01*
X41134210Y-96904224D01*
G75*
G02*
X40109691Y-96629705I-375000J649519D01*
G01*
G37*
%TD.AperFunction*%
%TO.P,U8,7*%
%TO.N,/~EH*%
%TA.AperFunction,ComponentPad*%
G36*
G01*
X39860577Y-111438227D02*
X39860577Y-111438227D01*
G75*
G02*
X40135096Y-110413708I649519J375000D01*
G01*
X40394904Y-110263708D01*
G75*
G02*
X41419423Y-110538227I375000J-649519D01*
G01*
X41419423Y-110538227D01*
G75*
G02*
X41144904Y-111562746I-649519J-375000D01*
G01*
X40885096Y-111712746D01*
G75*
G02*
X39860577Y-111438227I-375000J649519D01*
G01*
G37*
%TD.AperFunction*%
%TO.P,U8,14*%
%TO.N,/F7*%
%TA.AperFunction,ComponentPad*%
G36*
G01*
X41379691Y-98829409D02*
X41379691Y-98829409D01*
G75*
G02*
X41654210Y-97804890I649519J375000D01*
G01*
X41914018Y-97654890D01*
G75*
G02*
X42938537Y-97929409I375000J-649519D01*
G01*
X42938537Y-97929409D01*
G75*
G02*
X42664018Y-98953928I-649519J-375000D01*
G01*
X42404210Y-99103928D01*
G75*
G02*
X41379691Y-98829409I-375000J649519D01*
G01*
G37*
%TD.AperFunction*%
%TO.P,U8,6*%
%TO.N,Net-(U8-Pad6)*%
%TA.AperFunction,ComponentPad*%
G36*
G01*
X38590577Y-109238523D02*
X38590577Y-109238523D01*
G75*
G02*
X38865096Y-108214004I649519J375000D01*
G01*
X39124904Y-108064004D01*
G75*
G02*
X40149423Y-108338523I375000J-649519D01*
G01*
X40149423Y-108338523D01*
G75*
G02*
X39874904Y-109363042I-649519J-375000D01*
G01*
X39615096Y-109513042D01*
G75*
G02*
X38590577Y-109238523I-375000J649519D01*
G01*
G37*
%TD.AperFunction*%
%TO.P,U8,13*%
%TO.N,/G7*%
%TA.AperFunction,ComponentPad*%
G36*
G01*
X42649691Y-101029114D02*
X42649691Y-101029114D01*
G75*
G02*
X42924210Y-100004595I649519J375000D01*
G01*
X43184018Y-99854595D01*
G75*
G02*
X44208537Y-100129114I375000J-649519D01*
G01*
X44208537Y-100129114D01*
G75*
G02*
X43934018Y-101153633I-649519J-375000D01*
G01*
X43674210Y-101303633D01*
G75*
G02*
X42649691Y-101029114I-375000J649519D01*
G01*
G37*
%TD.AperFunction*%
%TO.P,U8,5*%
%TO.N,/O7*%
%TA.AperFunction,ComponentPad*%
G36*
G01*
X37320577Y-107038818D02*
X37320577Y-107038818D01*
G75*
G02*
X37595096Y-106014299I649519J375000D01*
G01*
X37854904Y-105864299D01*
G75*
G02*
X38879423Y-106138818I375000J-649519D01*
G01*
X38879423Y-106138818D01*
G75*
G02*
X38604904Y-107163337I-649519J-375000D01*
G01*
X38345096Y-107313337D01*
G75*
G02*
X37320577Y-107038818I-375000J649519D01*
G01*
G37*
%TD.AperFunction*%
%TO.P,U8,12*%
%TO.N,/H7*%
%TA.AperFunction,ComponentPad*%
G36*
G01*
X43919691Y-103228818D02*
X43919691Y-103228818D01*
G75*
G02*
X44194210Y-102204299I649519J375000D01*
G01*
X44454018Y-102054299D01*
G75*
G02*
X45478537Y-102328818I375000J-649519D01*
G01*
X45478537Y-102328818D01*
G75*
G02*
X45204018Y-103353337I-649519J-375000D01*
G01*
X44944210Y-103503337D01*
G75*
G02*
X43919691Y-103228818I-375000J649519D01*
G01*
G37*
%TD.AperFunction*%
%TO.P,U8,4*%
%TO.N,/A7*%
%TA.AperFunction,ComponentPad*%
G36*
G01*
X36050577Y-104839114D02*
X36050577Y-104839114D01*
G75*
G02*
X36325096Y-103814595I649519J375000D01*
G01*
X36584904Y-103664595D01*
G75*
G02*
X37609423Y-103939114I375000J-649519D01*
G01*
X37609423Y-103939114D01*
G75*
G02*
X37334904Y-104963633I-649519J-375000D01*
G01*
X37075096Y-105113633D01*
G75*
G02*
X36050577Y-104839114I-375000J649519D01*
G01*
G37*
%TD.AperFunction*%
%TO.P,U8,11*%
%TO.N,/S0*%
%TA.AperFunction,ComponentPad*%
G36*
G01*
X45189691Y-105428523D02*
X45189691Y-105428523D01*
G75*
G02*
X45464210Y-104404004I649519J375000D01*
G01*
X45724018Y-104254004D01*
G75*
G02*
X46748537Y-104528523I375000J-649519D01*
G01*
X46748537Y-104528523D01*
G75*
G02*
X46474018Y-105553042I-649519J-375000D01*
G01*
X46214210Y-105703042D01*
G75*
G02*
X45189691Y-105428523I-375000J649519D01*
G01*
G37*
%TD.AperFunction*%
%TO.P,U8,3*%
%TO.N,/B7*%
%TA.AperFunction,ComponentPad*%
G36*
G01*
X34780577Y-102639409D02*
X34780577Y-102639409D01*
G75*
G02*
X35055096Y-101614890I649519J375000D01*
G01*
X35314904Y-101464890D01*
G75*
G02*
X36339423Y-101739409I375000J-649519D01*
G01*
X36339423Y-101739409D01*
G75*
G02*
X36064904Y-102763928I-649519J-375000D01*
G01*
X35805096Y-102913928D01*
G75*
G02*
X34780577Y-102639409I-375000J649519D01*
G01*
G37*
%TD.AperFunction*%
%TO.P,U8,10*%
%TO.N,/S1*%
%TA.AperFunction,ComponentPad*%
G36*
G01*
X46459691Y-107628227D02*
X46459691Y-107628227D01*
G75*
G02*
X46734210Y-106603708I649519J375000D01*
G01*
X46994018Y-106453708D01*
G75*
G02*
X48018537Y-106728227I375000J-649519D01*
G01*
X48018537Y-106728227D01*
G75*
G02*
X47744018Y-107752746I-649519J-375000D01*
G01*
X47484210Y-107902746D01*
G75*
G02*
X46459691Y-107628227I-375000J649519D01*
G01*
G37*
%TD.AperFunction*%
%TO.P,U8,2*%
%TO.N,/C7*%
%TA.AperFunction,ComponentPad*%
G36*
G01*
X33510577Y-100439705D02*
X33510577Y-100439705D01*
G75*
G02*
X33785096Y-99415186I649519J375000D01*
G01*
X34044904Y-99265186D01*
G75*
G02*
X35069423Y-99539705I375000J-649519D01*
G01*
X35069423Y-99539705D01*
G75*
G02*
X34794904Y-100564224I-649519J-375000D01*
G01*
X34535096Y-100714224D01*
G75*
G02*
X33510577Y-100439705I-375000J649519D01*
G01*
G37*
%TD.AperFunction*%
%TO.P,U8,9*%
%TO.N,/S2*%
%TA.AperFunction,ComponentPad*%
G36*
G01*
X47729691Y-109827932D02*
X47729691Y-109827932D01*
G75*
G02*
X48004210Y-108803413I649519J375000D01*
G01*
X48264018Y-108653413D01*
G75*
G02*
X49288537Y-108927932I375000J-649519D01*
G01*
X49288537Y-108927932D01*
G75*
G02*
X49014018Y-109952451I-649519J-375000D01*
G01*
X48754210Y-110102451D01*
G75*
G02*
X47729691Y-109827932I-375000J649519D01*
G01*
G37*
%TD.AperFunction*%
%TO.P,U8,1*%
%TO.N,/D7*%
%TA.AperFunction,ComponentPad*%
G36*
G01*
X32428077Y-98564760D02*
X32053077Y-97915240D01*
G75*
G02*
X32190337Y-97402980I324760J187500D01*
G01*
X33099663Y-96877980D01*
G75*
G02*
X33611923Y-97015240I187500J-324760D01*
G01*
X33986923Y-97664760D01*
G75*
G02*
X33849663Y-98177020I-324760J-187500D01*
G01*
X32940337Y-98702020D01*
G75*
G02*
X32428077Y-98564760I-187500J324760D01*
G01*
G37*
%TD.AperFunction*%
%TD*%
%TO.P,U7,16*%
%TO.N,VCC*%
%TA.AperFunction,ComponentPad*%
G36*
G01*
X56619691Y-87762500D02*
X56619691Y-87762500D01*
G75*
G02*
X56894210Y-86737981I649519J375000D01*
G01*
X57154018Y-86587981D01*
G75*
G02*
X58178537Y-86862500I375000J-649519D01*
G01*
X58178537Y-86862500D01*
G75*
G02*
X57904018Y-87887019I-649519J-375000D01*
G01*
X57644210Y-88037019D01*
G75*
G02*
X56619691Y-87762500I-375000J649519D01*
G01*
G37*
%TD.AperFunction*%
%TO.P,U7,8*%
%TO.N,GND*%
%TA.AperFunction,ComponentPad*%
G36*
G01*
X58910577Y-106970432D02*
X58910577Y-106970432D01*
G75*
G02*
X59185096Y-105945913I649519J375000D01*
G01*
X59444904Y-105795913D01*
G75*
G02*
X60469423Y-106070432I375000J-649519D01*
G01*
X60469423Y-106070432D01*
G75*
G02*
X60194904Y-107094951I-649519J-375000D01*
G01*
X59935096Y-107244951D01*
G75*
G02*
X58910577Y-106970432I-375000J649519D01*
G01*
G37*
%TD.AperFunction*%
%TO.P,U7,15*%
%TO.N,/E6*%
%TA.AperFunction,ComponentPad*%
G36*
G01*
X57889691Y-89962205D02*
X57889691Y-89962205D01*
G75*
G02*
X58164210Y-88937686I649519J375000D01*
G01*
X58424018Y-88787686D01*
G75*
G02*
X59448537Y-89062205I375000J-649519D01*
G01*
X59448537Y-89062205D01*
G75*
G02*
X59174018Y-90086724I-649519J-375000D01*
G01*
X58914210Y-90236724D01*
G75*
G02*
X57889691Y-89962205I-375000J649519D01*
G01*
G37*
%TD.AperFunction*%
%TO.P,U7,7*%
%TO.N,/~EH*%
%TA.AperFunction,ComponentPad*%
G36*
G01*
X57640577Y-104770727D02*
X57640577Y-104770727D01*
G75*
G02*
X57915096Y-103746208I649519J375000D01*
G01*
X58174904Y-103596208D01*
G75*
G02*
X59199423Y-103870727I375000J-649519D01*
G01*
X59199423Y-103870727D01*
G75*
G02*
X58924904Y-104895246I-649519J-375000D01*
G01*
X58665096Y-105045246D01*
G75*
G02*
X57640577Y-104770727I-375000J649519D01*
G01*
G37*
%TD.AperFunction*%
%TO.P,U7,14*%
%TO.N,/F6*%
%TA.AperFunction,ComponentPad*%
G36*
G01*
X59159691Y-92161909D02*
X59159691Y-92161909D01*
G75*
G02*
X59434210Y-91137390I649519J375000D01*
G01*
X59694018Y-90987390D01*
G75*
G02*
X60718537Y-91261909I375000J-649519D01*
G01*
X60718537Y-91261909D01*
G75*
G02*
X60444018Y-92286428I-649519J-375000D01*
G01*
X60184210Y-92436428D01*
G75*
G02*
X59159691Y-92161909I-375000J649519D01*
G01*
G37*
%TD.AperFunction*%
%TO.P,U7,6*%
%TO.N,Net-(U7-Pad6)*%
%TA.AperFunction,ComponentPad*%
G36*
G01*
X56370577Y-102571023D02*
X56370577Y-102571023D01*
G75*
G02*
X56645096Y-101546504I649519J375000D01*
G01*
X56904904Y-101396504D01*
G75*
G02*
X57929423Y-101671023I375000J-649519D01*
G01*
X57929423Y-101671023D01*
G75*
G02*
X57654904Y-102695542I-649519J-375000D01*
G01*
X57395096Y-102845542D01*
G75*
G02*
X56370577Y-102571023I-375000J649519D01*
G01*
G37*
%TD.AperFunction*%
%TO.P,U7,13*%
%TO.N,/G6*%
%TA.AperFunction,ComponentPad*%
G36*
G01*
X60429691Y-94361614D02*
X60429691Y-94361614D01*
G75*
G02*
X60704210Y-93337095I649519J375000D01*
G01*
X60964018Y-93187095D01*
G75*
G02*
X61988537Y-93461614I375000J-649519D01*
G01*
X61988537Y-93461614D01*
G75*
G02*
X61714018Y-94486133I-649519J-375000D01*
G01*
X61454210Y-94636133D01*
G75*
G02*
X60429691Y-94361614I-375000J649519D01*
G01*
G37*
%TD.AperFunction*%
%TO.P,U7,5*%
%TO.N,/O6*%
%TA.AperFunction,ComponentPad*%
G36*
G01*
X55100577Y-100371318D02*
X55100577Y-100371318D01*
G75*
G02*
X55375096Y-99346799I649519J375000D01*
G01*
X55634904Y-99196799D01*
G75*
G02*
X56659423Y-99471318I375000J-649519D01*
G01*
X56659423Y-99471318D01*
G75*
G02*
X56384904Y-100495837I-649519J-375000D01*
G01*
X56125096Y-100645837D01*
G75*
G02*
X55100577Y-100371318I-375000J649519D01*
G01*
G37*
%TD.AperFunction*%
%TO.P,U7,12*%
%TO.N,/H6*%
%TA.AperFunction,ComponentPad*%
G36*
G01*
X61699691Y-96561318D02*
X61699691Y-96561318D01*
G75*
G02*
X61974210Y-95536799I649519J375000D01*
G01*
X62234018Y-95386799D01*
G75*
G02*
X63258537Y-95661318I375000J-649519D01*
G01*
X63258537Y-95661318D01*
G75*
G02*
X62984018Y-96685837I-649519J-375000D01*
G01*
X62724210Y-96835837D01*
G75*
G02*
X61699691Y-96561318I-375000J649519D01*
G01*
G37*
%TD.AperFunction*%
%TO.P,U7,4*%
%TO.N,/A6*%
%TA.AperFunction,ComponentPad*%
G36*
G01*
X53830577Y-98171614D02*
X53830577Y-98171614D01*
G75*
G02*
X54105096Y-97147095I649519J375000D01*
G01*
X54364904Y-96997095D01*
G75*
G02*
X55389423Y-97271614I375000J-649519D01*
G01*
X55389423Y-97271614D01*
G75*
G02*
X55114904Y-98296133I-649519J-375000D01*
G01*
X54855096Y-98446133D01*
G75*
G02*
X53830577Y-98171614I-375000J649519D01*
G01*
G37*
%TD.AperFunction*%
%TO.P,U7,11*%
%TO.N,/S0*%
%TA.AperFunction,ComponentPad*%
G36*
G01*
X62969691Y-98761023D02*
X62969691Y-98761023D01*
G75*
G02*
X63244210Y-97736504I649519J375000D01*
G01*
X63504018Y-97586504D01*
G75*
G02*
X64528537Y-97861023I375000J-649519D01*
G01*
X64528537Y-97861023D01*
G75*
G02*
X64254018Y-98885542I-649519J-375000D01*
G01*
X63994210Y-99035542D01*
G75*
G02*
X62969691Y-98761023I-375000J649519D01*
G01*
G37*
%TD.AperFunction*%
%TO.P,U7,3*%
%TO.N,/B6*%
%TA.AperFunction,ComponentPad*%
G36*
G01*
X52560577Y-95971909D02*
X52560577Y-95971909D01*
G75*
G02*
X52835096Y-94947390I649519J375000D01*
G01*
X53094904Y-94797390D01*
G75*
G02*
X54119423Y-95071909I375000J-649519D01*
G01*
X54119423Y-95071909D01*
G75*
G02*
X53844904Y-96096428I-649519J-375000D01*
G01*
X53585096Y-96246428D01*
G75*
G02*
X52560577Y-95971909I-375000J649519D01*
G01*
G37*
%TD.AperFunction*%
%TO.P,U7,10*%
%TO.N,/S1*%
%TA.AperFunction,ComponentPad*%
G36*
G01*
X64239691Y-100960727D02*
X64239691Y-100960727D01*
G75*
G02*
X64514210Y-99936208I649519J375000D01*
G01*
X64774018Y-99786208D01*
G75*
G02*
X65798537Y-100060727I375000J-649519D01*
G01*
X65798537Y-100060727D01*
G75*
G02*
X65524018Y-101085246I-649519J-375000D01*
G01*
X65264210Y-101235246D01*
G75*
G02*
X64239691Y-100960727I-375000J649519D01*
G01*
G37*
%TD.AperFunction*%
%TO.P,U7,2*%
%TO.N,/C6*%
%TA.AperFunction,ComponentPad*%
G36*
G01*
X51290577Y-93772205D02*
X51290577Y-93772205D01*
G75*
G02*
X51565096Y-92747686I649519J375000D01*
G01*
X51824904Y-92597686D01*
G75*
G02*
X52849423Y-92872205I375000J-649519D01*
G01*
X52849423Y-92872205D01*
G75*
G02*
X52574904Y-93896724I-649519J-375000D01*
G01*
X52315096Y-94046724D01*
G75*
G02*
X51290577Y-93772205I-375000J649519D01*
G01*
G37*
%TD.AperFunction*%
%TO.P,U7,9*%
%TO.N,/S2*%
%TA.AperFunction,ComponentPad*%
G36*
G01*
X65509691Y-103160432D02*
X65509691Y-103160432D01*
G75*
G02*
X65784210Y-102135913I649519J375000D01*
G01*
X66044018Y-101985913D01*
G75*
G02*
X67068537Y-102260432I375000J-649519D01*
G01*
X67068537Y-102260432D01*
G75*
G02*
X66794018Y-103284951I-649519J-375000D01*
G01*
X66534210Y-103434951D01*
G75*
G02*
X65509691Y-103160432I-375000J649519D01*
G01*
G37*
%TD.AperFunction*%
%TO.P,U7,1*%
%TO.N,/D6*%
%TA.AperFunction,ComponentPad*%
G36*
G01*
X50208077Y-91897260D02*
X49833077Y-91247740D01*
G75*
G02*
X49970337Y-90735480I324760J187500D01*
G01*
X50879663Y-90210480D01*
G75*
G02*
X51391923Y-90347740I187500J-324760D01*
G01*
X51766923Y-90997260D01*
G75*
G02*
X51629663Y-91509520I-324760J-187500D01*
G01*
X50720337Y-92034520D01*
G75*
G02*
X50208077Y-91897260I-187500J324760D01*
G01*
G37*
%TD.AperFunction*%
%TD*%
%TO.P,U6,16*%
%TO.N,VCC*%
%TA.AperFunction,ComponentPad*%
G36*
G01*
X74399691Y-81095000D02*
X74399691Y-81095000D01*
G75*
G02*
X74674210Y-80070481I649519J375000D01*
G01*
X74934018Y-79920481D01*
G75*
G02*
X75958537Y-80195000I375000J-649519D01*
G01*
X75958537Y-80195000D01*
G75*
G02*
X75684018Y-81219519I-649519J-375000D01*
G01*
X75424210Y-81369519D01*
G75*
G02*
X74399691Y-81095000I-375000J649519D01*
G01*
G37*
%TD.AperFunction*%
%TO.P,U6,8*%
%TO.N,GND*%
%TA.AperFunction,ComponentPad*%
G36*
G01*
X76690577Y-100302932D02*
X76690577Y-100302932D01*
G75*
G02*
X76965096Y-99278413I649519J375000D01*
G01*
X77224904Y-99128413D01*
G75*
G02*
X78249423Y-99402932I375000J-649519D01*
G01*
X78249423Y-99402932D01*
G75*
G02*
X77974904Y-100427451I-649519J-375000D01*
G01*
X77715096Y-100577451D01*
G75*
G02*
X76690577Y-100302932I-375000J649519D01*
G01*
G37*
%TD.AperFunction*%
%TO.P,U6,15*%
%TO.N,/E5*%
%TA.AperFunction,ComponentPad*%
G36*
G01*
X75669691Y-83294705D02*
X75669691Y-83294705D01*
G75*
G02*
X75944210Y-82270186I649519J375000D01*
G01*
X76204018Y-82120186D01*
G75*
G02*
X77228537Y-82394705I375000J-649519D01*
G01*
X77228537Y-82394705D01*
G75*
G02*
X76954018Y-83419224I-649519J-375000D01*
G01*
X76694210Y-83569224D01*
G75*
G02*
X75669691Y-83294705I-375000J649519D01*
G01*
G37*
%TD.AperFunction*%
%TO.P,U6,7*%
%TO.N,/~EH*%
%TA.AperFunction,ComponentPad*%
G36*
G01*
X75420577Y-98103227D02*
X75420577Y-98103227D01*
G75*
G02*
X75695096Y-97078708I649519J375000D01*
G01*
X75954904Y-96928708D01*
G75*
G02*
X76979423Y-97203227I375000J-649519D01*
G01*
X76979423Y-97203227D01*
G75*
G02*
X76704904Y-98227746I-649519J-375000D01*
G01*
X76445096Y-98377746D01*
G75*
G02*
X75420577Y-98103227I-375000J649519D01*
G01*
G37*
%TD.AperFunction*%
%TO.P,U6,14*%
%TO.N,/F5*%
%TA.AperFunction,ComponentPad*%
G36*
G01*
X76939691Y-85494409D02*
X76939691Y-85494409D01*
G75*
G02*
X77214210Y-84469890I649519J375000D01*
G01*
X77474018Y-84319890D01*
G75*
G02*
X78498537Y-84594409I375000J-649519D01*
G01*
X78498537Y-84594409D01*
G75*
G02*
X78224018Y-85618928I-649519J-375000D01*
G01*
X77964210Y-85768928D01*
G75*
G02*
X76939691Y-85494409I-375000J649519D01*
G01*
G37*
%TD.AperFunction*%
%TO.P,U6,6*%
%TO.N,Net-(U6-Pad6)*%
%TA.AperFunction,ComponentPad*%
G36*
G01*
X74150577Y-95903523D02*
X74150577Y-95903523D01*
G75*
G02*
X74425096Y-94879004I649519J375000D01*
G01*
X74684904Y-94729004D01*
G75*
G02*
X75709423Y-95003523I375000J-649519D01*
G01*
X75709423Y-95003523D01*
G75*
G02*
X75434904Y-96028042I-649519J-375000D01*
G01*
X75175096Y-96178042D01*
G75*
G02*
X74150577Y-95903523I-375000J649519D01*
G01*
G37*
%TD.AperFunction*%
%TO.P,U6,13*%
%TO.N,/G5*%
%TA.AperFunction,ComponentPad*%
G36*
G01*
X78209691Y-87694114D02*
X78209691Y-87694114D01*
G75*
G02*
X78484210Y-86669595I649519J375000D01*
G01*
X78744018Y-86519595D01*
G75*
G02*
X79768537Y-86794114I375000J-649519D01*
G01*
X79768537Y-86794114D01*
G75*
G02*
X79494018Y-87818633I-649519J-375000D01*
G01*
X79234210Y-87968633D01*
G75*
G02*
X78209691Y-87694114I-375000J649519D01*
G01*
G37*
%TD.AperFunction*%
%TO.P,U6,5*%
%TO.N,/O5*%
%TA.AperFunction,ComponentPad*%
G36*
G01*
X72880577Y-93703818D02*
X72880577Y-93703818D01*
G75*
G02*
X73155096Y-92679299I649519J375000D01*
G01*
X73414904Y-92529299D01*
G75*
G02*
X74439423Y-92803818I375000J-649519D01*
G01*
X74439423Y-92803818D01*
G75*
G02*
X74164904Y-93828337I-649519J-375000D01*
G01*
X73905096Y-93978337D01*
G75*
G02*
X72880577Y-93703818I-375000J649519D01*
G01*
G37*
%TD.AperFunction*%
%TO.P,U6,12*%
%TO.N,/H5*%
%TA.AperFunction,ComponentPad*%
G36*
G01*
X79479691Y-89893818D02*
X79479691Y-89893818D01*
G75*
G02*
X79754210Y-88869299I649519J375000D01*
G01*
X80014018Y-88719299D01*
G75*
G02*
X81038537Y-88993818I375000J-649519D01*
G01*
X81038537Y-88993818D01*
G75*
G02*
X80764018Y-90018337I-649519J-375000D01*
G01*
X80504210Y-90168337D01*
G75*
G02*
X79479691Y-89893818I-375000J649519D01*
G01*
G37*
%TD.AperFunction*%
%TO.P,U6,4*%
%TO.N,/A5*%
%TA.AperFunction,ComponentPad*%
G36*
G01*
X71610577Y-91504114D02*
X71610577Y-91504114D01*
G75*
G02*
X71885096Y-90479595I649519J375000D01*
G01*
X72144904Y-90329595D01*
G75*
G02*
X73169423Y-90604114I375000J-649519D01*
G01*
X73169423Y-90604114D01*
G75*
G02*
X72894904Y-91628633I-649519J-375000D01*
G01*
X72635096Y-91778633D01*
G75*
G02*
X71610577Y-91504114I-375000J649519D01*
G01*
G37*
%TD.AperFunction*%
%TO.P,U6,11*%
%TO.N,/S0*%
%TA.AperFunction,ComponentPad*%
G36*
G01*
X80749691Y-92093523D02*
X80749691Y-92093523D01*
G75*
G02*
X81024210Y-91069004I649519J375000D01*
G01*
X81284018Y-90919004D01*
G75*
G02*
X82308537Y-91193523I375000J-649519D01*
G01*
X82308537Y-91193523D01*
G75*
G02*
X82034018Y-92218042I-649519J-375000D01*
G01*
X81774210Y-92368042D01*
G75*
G02*
X80749691Y-92093523I-375000J649519D01*
G01*
G37*
%TD.AperFunction*%
%TO.P,U6,3*%
%TO.N,/B5*%
%TA.AperFunction,ComponentPad*%
G36*
G01*
X70340577Y-89304409D02*
X70340577Y-89304409D01*
G75*
G02*
X70615096Y-88279890I649519J375000D01*
G01*
X70874904Y-88129890D01*
G75*
G02*
X71899423Y-88404409I375000J-649519D01*
G01*
X71899423Y-88404409D01*
G75*
G02*
X71624904Y-89428928I-649519J-375000D01*
G01*
X71365096Y-89578928D01*
G75*
G02*
X70340577Y-89304409I-375000J649519D01*
G01*
G37*
%TD.AperFunction*%
%TO.P,U6,10*%
%TO.N,/S1*%
%TA.AperFunction,ComponentPad*%
G36*
G01*
X82019691Y-94293227D02*
X82019691Y-94293227D01*
G75*
G02*
X82294210Y-93268708I649519J375000D01*
G01*
X82554018Y-93118708D01*
G75*
G02*
X83578537Y-93393227I375000J-649519D01*
G01*
X83578537Y-93393227D01*
G75*
G02*
X83304018Y-94417746I-649519J-375000D01*
G01*
X83044210Y-94567746D01*
G75*
G02*
X82019691Y-94293227I-375000J649519D01*
G01*
G37*
%TD.AperFunction*%
%TO.P,U6,2*%
%TO.N,/C5*%
%TA.AperFunction,ComponentPad*%
G36*
G01*
X69070577Y-87104705D02*
X69070577Y-87104705D01*
G75*
G02*
X69345096Y-86080186I649519J375000D01*
G01*
X69604904Y-85930186D01*
G75*
G02*
X70629423Y-86204705I375000J-649519D01*
G01*
X70629423Y-86204705D01*
G75*
G02*
X70354904Y-87229224I-649519J-375000D01*
G01*
X70095096Y-87379224D01*
G75*
G02*
X69070577Y-87104705I-375000J649519D01*
G01*
G37*
%TD.AperFunction*%
%TO.P,U6,9*%
%TO.N,/S2*%
%TA.AperFunction,ComponentPad*%
G36*
G01*
X83289691Y-96492932D02*
X83289691Y-96492932D01*
G75*
G02*
X83564210Y-95468413I649519J375000D01*
G01*
X83824018Y-95318413D01*
G75*
G02*
X84848537Y-95592932I375000J-649519D01*
G01*
X84848537Y-95592932D01*
G75*
G02*
X84574018Y-96617451I-649519J-375000D01*
G01*
X84314210Y-96767451D01*
G75*
G02*
X83289691Y-96492932I-375000J649519D01*
G01*
G37*
%TD.AperFunction*%
%TO.P,U6,1*%
%TO.N,/D5*%
%TA.AperFunction,ComponentPad*%
G36*
G01*
X67988077Y-85229760D02*
X67613077Y-84580240D01*
G75*
G02*
X67750337Y-84067980I324760J187500D01*
G01*
X68659663Y-83542980D01*
G75*
G02*
X69171923Y-83680240I187500J-324760D01*
G01*
X69546923Y-84329760D01*
G75*
G02*
X69409663Y-84842020I-324760J-187500D01*
G01*
X68500337Y-85367020D01*
G75*
G02*
X67988077Y-85229760I-187500J324760D01*
G01*
G37*
%TD.AperFunction*%
%TD*%
%TO.P,U5,16*%
%TO.N,VCC*%
%TA.AperFunction,ComponentPad*%
G36*
G01*
X92179691Y-74427500D02*
X92179691Y-74427500D01*
G75*
G02*
X92454210Y-73402981I649519J375000D01*
G01*
X92714018Y-73252981D01*
G75*
G02*
X93738537Y-73527500I375000J-649519D01*
G01*
X93738537Y-73527500D01*
G75*
G02*
X93464018Y-74552019I-649519J-375000D01*
G01*
X93204210Y-74702019D01*
G75*
G02*
X92179691Y-74427500I-375000J649519D01*
G01*
G37*
%TD.AperFunction*%
%TO.P,U5,8*%
%TO.N,GND*%
%TA.AperFunction,ComponentPad*%
G36*
G01*
X94470577Y-93635432D02*
X94470577Y-93635432D01*
G75*
G02*
X94745096Y-92610913I649519J375000D01*
G01*
X95004904Y-92460913D01*
G75*
G02*
X96029423Y-92735432I375000J-649519D01*
G01*
X96029423Y-92735432D01*
G75*
G02*
X95754904Y-93759951I-649519J-375000D01*
G01*
X95495096Y-93909951D01*
G75*
G02*
X94470577Y-93635432I-375000J649519D01*
G01*
G37*
%TD.AperFunction*%
%TO.P,U5,15*%
%TO.N,/E4*%
%TA.AperFunction,ComponentPad*%
G36*
G01*
X93449691Y-76627205D02*
X93449691Y-76627205D01*
G75*
G02*
X93724210Y-75602686I649519J375000D01*
G01*
X93984018Y-75452686D01*
G75*
G02*
X95008537Y-75727205I375000J-649519D01*
G01*
X95008537Y-75727205D01*
G75*
G02*
X94734018Y-76751724I-649519J-375000D01*
G01*
X94474210Y-76901724D01*
G75*
G02*
X93449691Y-76627205I-375000J649519D01*
G01*
G37*
%TD.AperFunction*%
%TO.P,U5,7*%
%TO.N,/~EH*%
%TA.AperFunction,ComponentPad*%
G36*
G01*
X93200577Y-91435727D02*
X93200577Y-91435727D01*
G75*
G02*
X93475096Y-90411208I649519J375000D01*
G01*
X93734904Y-90261208D01*
G75*
G02*
X94759423Y-90535727I375000J-649519D01*
G01*
X94759423Y-90535727D01*
G75*
G02*
X94484904Y-91560246I-649519J-375000D01*
G01*
X94225096Y-91710246D01*
G75*
G02*
X93200577Y-91435727I-375000J649519D01*
G01*
G37*
%TD.AperFunction*%
%TO.P,U5,14*%
%TO.N,/F4*%
%TA.AperFunction,ComponentPad*%
G36*
G01*
X94719691Y-78826909D02*
X94719691Y-78826909D01*
G75*
G02*
X94994210Y-77802390I649519J375000D01*
G01*
X95254018Y-77652390D01*
G75*
G02*
X96278537Y-77926909I375000J-649519D01*
G01*
X96278537Y-77926909D01*
G75*
G02*
X96004018Y-78951428I-649519J-375000D01*
G01*
X95744210Y-79101428D01*
G75*
G02*
X94719691Y-78826909I-375000J649519D01*
G01*
G37*
%TD.AperFunction*%
%TO.P,U5,6*%
%TO.N,Net-(U5-Pad6)*%
%TA.AperFunction,ComponentPad*%
G36*
G01*
X91930577Y-89236023D02*
X91930577Y-89236023D01*
G75*
G02*
X92205096Y-88211504I649519J375000D01*
G01*
X92464904Y-88061504D01*
G75*
G02*
X93489423Y-88336023I375000J-649519D01*
G01*
X93489423Y-88336023D01*
G75*
G02*
X93214904Y-89360542I-649519J-375000D01*
G01*
X92955096Y-89510542D01*
G75*
G02*
X91930577Y-89236023I-375000J649519D01*
G01*
G37*
%TD.AperFunction*%
%TO.P,U5,13*%
%TO.N,/G4*%
%TA.AperFunction,ComponentPad*%
G36*
G01*
X95989691Y-81026614D02*
X95989691Y-81026614D01*
G75*
G02*
X96264210Y-80002095I649519J375000D01*
G01*
X96524018Y-79852095D01*
G75*
G02*
X97548537Y-80126614I375000J-649519D01*
G01*
X97548537Y-80126614D01*
G75*
G02*
X97274018Y-81151133I-649519J-375000D01*
G01*
X97014210Y-81301133D01*
G75*
G02*
X95989691Y-81026614I-375000J649519D01*
G01*
G37*
%TD.AperFunction*%
%TO.P,U5,5*%
%TO.N,/O4*%
%TA.AperFunction,ComponentPad*%
G36*
G01*
X90660577Y-87036318D02*
X90660577Y-87036318D01*
G75*
G02*
X90935096Y-86011799I649519J375000D01*
G01*
X91194904Y-85861799D01*
G75*
G02*
X92219423Y-86136318I375000J-649519D01*
G01*
X92219423Y-86136318D01*
G75*
G02*
X91944904Y-87160837I-649519J-375000D01*
G01*
X91685096Y-87310837D01*
G75*
G02*
X90660577Y-87036318I-375000J649519D01*
G01*
G37*
%TD.AperFunction*%
%TO.P,U5,12*%
%TO.N,/H4*%
%TA.AperFunction,ComponentPad*%
G36*
G01*
X97259691Y-83226318D02*
X97259691Y-83226318D01*
G75*
G02*
X97534210Y-82201799I649519J375000D01*
G01*
X97794018Y-82051799D01*
G75*
G02*
X98818537Y-82326318I375000J-649519D01*
G01*
X98818537Y-82326318D01*
G75*
G02*
X98544018Y-83350837I-649519J-375000D01*
G01*
X98284210Y-83500837D01*
G75*
G02*
X97259691Y-83226318I-375000J649519D01*
G01*
G37*
%TD.AperFunction*%
%TO.P,U5,4*%
%TO.N,/A4*%
%TA.AperFunction,ComponentPad*%
G36*
G01*
X89390577Y-84836614D02*
X89390577Y-84836614D01*
G75*
G02*
X89665096Y-83812095I649519J375000D01*
G01*
X89924904Y-83662095D01*
G75*
G02*
X90949423Y-83936614I375000J-649519D01*
G01*
X90949423Y-83936614D01*
G75*
G02*
X90674904Y-84961133I-649519J-375000D01*
G01*
X90415096Y-85111133D01*
G75*
G02*
X89390577Y-84836614I-375000J649519D01*
G01*
G37*
%TD.AperFunction*%
%TO.P,U5,11*%
%TO.N,/S0*%
%TA.AperFunction,ComponentPad*%
G36*
G01*
X98529691Y-85426023D02*
X98529691Y-85426023D01*
G75*
G02*
X98804210Y-84401504I649519J375000D01*
G01*
X99064018Y-84251504D01*
G75*
G02*
X100088537Y-84526023I375000J-649519D01*
G01*
X100088537Y-84526023D01*
G75*
G02*
X99814018Y-85550542I-649519J-375000D01*
G01*
X99554210Y-85700542D01*
G75*
G02*
X98529691Y-85426023I-375000J649519D01*
G01*
G37*
%TD.AperFunction*%
%TO.P,U5,3*%
%TO.N,/B4*%
%TA.AperFunction,ComponentPad*%
G36*
G01*
X88120577Y-82636909D02*
X88120577Y-82636909D01*
G75*
G02*
X88395096Y-81612390I649519J375000D01*
G01*
X88654904Y-81462390D01*
G75*
G02*
X89679423Y-81736909I375000J-649519D01*
G01*
X89679423Y-81736909D01*
G75*
G02*
X89404904Y-82761428I-649519J-375000D01*
G01*
X89145096Y-82911428D01*
G75*
G02*
X88120577Y-82636909I-375000J649519D01*
G01*
G37*
%TD.AperFunction*%
%TO.P,U5,10*%
%TO.N,/S1*%
%TA.AperFunction,ComponentPad*%
G36*
G01*
X99799691Y-87625727D02*
X99799691Y-87625727D01*
G75*
G02*
X100074210Y-86601208I649519J375000D01*
G01*
X100334018Y-86451208D01*
G75*
G02*
X101358537Y-86725727I375000J-649519D01*
G01*
X101358537Y-86725727D01*
G75*
G02*
X101084018Y-87750246I-649519J-375000D01*
G01*
X100824210Y-87900246D01*
G75*
G02*
X99799691Y-87625727I-375000J649519D01*
G01*
G37*
%TD.AperFunction*%
%TO.P,U5,2*%
%TO.N,/C4*%
%TA.AperFunction,ComponentPad*%
G36*
G01*
X86850577Y-80437205D02*
X86850577Y-80437205D01*
G75*
G02*
X87125096Y-79412686I649519J375000D01*
G01*
X87384904Y-79262686D01*
G75*
G02*
X88409423Y-79537205I375000J-649519D01*
G01*
X88409423Y-79537205D01*
G75*
G02*
X88134904Y-80561724I-649519J-375000D01*
G01*
X87875096Y-80711724D01*
G75*
G02*
X86850577Y-80437205I-375000J649519D01*
G01*
G37*
%TD.AperFunction*%
%TO.P,U5,9*%
%TO.N,/S2*%
%TA.AperFunction,ComponentPad*%
G36*
G01*
X101069691Y-89825432D02*
X101069691Y-89825432D01*
G75*
G02*
X101344210Y-88800913I649519J375000D01*
G01*
X101604018Y-88650913D01*
G75*
G02*
X102628537Y-88925432I375000J-649519D01*
G01*
X102628537Y-88925432D01*
G75*
G02*
X102354018Y-89949951I-649519J-375000D01*
G01*
X102094210Y-90099951D01*
G75*
G02*
X101069691Y-89825432I-375000J649519D01*
G01*
G37*
%TD.AperFunction*%
%TO.P,U5,1*%
%TO.N,/D4*%
%TA.AperFunction,ComponentPad*%
G36*
G01*
X85768077Y-78562260D02*
X85393077Y-77912740D01*
G75*
G02*
X85530337Y-77400480I324760J187500D01*
G01*
X86439663Y-76875480D01*
G75*
G02*
X86951923Y-77012740I187500J-324760D01*
G01*
X87326923Y-77662260D01*
G75*
G02*
X87189663Y-78174520I-324760J-187500D01*
G01*
X86280337Y-78699520D01*
G75*
G02*
X85768077Y-78562260I-187500J324760D01*
G01*
G37*
%TD.AperFunction*%
%TD*%
%TO.P,U4,16*%
%TO.N,VCC*%
%TA.AperFunction,ComponentPad*%
G36*
G01*
X109959691Y-67760000D02*
X109959691Y-67760000D01*
G75*
G02*
X110234210Y-66735481I649519J375000D01*
G01*
X110494018Y-66585481D01*
G75*
G02*
X111518537Y-66860000I375000J-649519D01*
G01*
X111518537Y-66860000D01*
G75*
G02*
X111244018Y-67884519I-649519J-375000D01*
G01*
X110984210Y-68034519D01*
G75*
G02*
X109959691Y-67760000I-375000J649519D01*
G01*
G37*
%TD.AperFunction*%
%TO.P,U4,8*%
%TO.N,GND*%
%TA.AperFunction,ComponentPad*%
G36*
G01*
X112250577Y-86967932D02*
X112250577Y-86967932D01*
G75*
G02*
X112525096Y-85943413I649519J375000D01*
G01*
X112784904Y-85793413D01*
G75*
G02*
X113809423Y-86067932I375000J-649519D01*
G01*
X113809423Y-86067932D01*
G75*
G02*
X113534904Y-87092451I-649519J-375000D01*
G01*
X113275096Y-87242451D01*
G75*
G02*
X112250577Y-86967932I-375000J649519D01*
G01*
G37*
%TD.AperFunction*%
%TO.P,U4,15*%
%TO.N,/E3*%
%TA.AperFunction,ComponentPad*%
G36*
G01*
X111229691Y-69959705D02*
X111229691Y-69959705D01*
G75*
G02*
X111504210Y-68935186I649519J375000D01*
G01*
X111764018Y-68785186D01*
G75*
G02*
X112788537Y-69059705I375000J-649519D01*
G01*
X112788537Y-69059705D01*
G75*
G02*
X112514018Y-70084224I-649519J-375000D01*
G01*
X112254210Y-70234224D01*
G75*
G02*
X111229691Y-69959705I-375000J649519D01*
G01*
G37*
%TD.AperFunction*%
%TO.P,U4,7*%
%TO.N,/~EL*%
%TA.AperFunction,ComponentPad*%
G36*
G01*
X110980577Y-84768227D02*
X110980577Y-84768227D01*
G75*
G02*
X111255096Y-83743708I649519J375000D01*
G01*
X111514904Y-83593708D01*
G75*
G02*
X112539423Y-83868227I375000J-649519D01*
G01*
X112539423Y-83868227D01*
G75*
G02*
X112264904Y-84892746I-649519J-375000D01*
G01*
X112005096Y-85042746D01*
G75*
G02*
X110980577Y-84768227I-375000J649519D01*
G01*
G37*
%TD.AperFunction*%
%TO.P,U4,14*%
%TO.N,/F3*%
%TA.AperFunction,ComponentPad*%
G36*
G01*
X112499691Y-72159409D02*
X112499691Y-72159409D01*
G75*
G02*
X112774210Y-71134890I649519J375000D01*
G01*
X113034018Y-70984890D01*
G75*
G02*
X114058537Y-71259409I375000J-649519D01*
G01*
X114058537Y-71259409D01*
G75*
G02*
X113784018Y-72283928I-649519J-375000D01*
G01*
X113524210Y-72433928D01*
G75*
G02*
X112499691Y-72159409I-375000J649519D01*
G01*
G37*
%TD.AperFunction*%
%TO.P,U4,6*%
%TO.N,Net-(U4-Pad6)*%
%TA.AperFunction,ComponentPad*%
G36*
G01*
X109710577Y-82568523D02*
X109710577Y-82568523D01*
G75*
G02*
X109985096Y-81544004I649519J375000D01*
G01*
X110244904Y-81394004D01*
G75*
G02*
X111269423Y-81668523I375000J-649519D01*
G01*
X111269423Y-81668523D01*
G75*
G02*
X110994904Y-82693042I-649519J-375000D01*
G01*
X110735096Y-82843042D01*
G75*
G02*
X109710577Y-82568523I-375000J649519D01*
G01*
G37*
%TD.AperFunction*%
%TO.P,U4,13*%
%TO.N,/G3*%
%TA.AperFunction,ComponentPad*%
G36*
G01*
X113769691Y-74359114D02*
X113769691Y-74359114D01*
G75*
G02*
X114044210Y-73334595I649519J375000D01*
G01*
X114304018Y-73184595D01*
G75*
G02*
X115328537Y-73459114I375000J-649519D01*
G01*
X115328537Y-73459114D01*
G75*
G02*
X115054018Y-74483633I-649519J-375000D01*
G01*
X114794210Y-74633633D01*
G75*
G02*
X113769691Y-74359114I-375000J649519D01*
G01*
G37*
%TD.AperFunction*%
%TO.P,U4,5*%
%TO.N,/O3*%
%TA.AperFunction,ComponentPad*%
G36*
G01*
X108440577Y-80368818D02*
X108440577Y-80368818D01*
G75*
G02*
X108715096Y-79344299I649519J375000D01*
G01*
X108974904Y-79194299D01*
G75*
G02*
X109999423Y-79468818I375000J-649519D01*
G01*
X109999423Y-79468818D01*
G75*
G02*
X109724904Y-80493337I-649519J-375000D01*
G01*
X109465096Y-80643337D01*
G75*
G02*
X108440577Y-80368818I-375000J649519D01*
G01*
G37*
%TD.AperFunction*%
%TO.P,U4,12*%
%TO.N,/H3*%
%TA.AperFunction,ComponentPad*%
G36*
G01*
X115039691Y-76558818D02*
X115039691Y-76558818D01*
G75*
G02*
X115314210Y-75534299I649519J375000D01*
G01*
X115574018Y-75384299D01*
G75*
G02*
X116598537Y-75658818I375000J-649519D01*
G01*
X116598537Y-75658818D01*
G75*
G02*
X116324018Y-76683337I-649519J-375000D01*
G01*
X116064210Y-76833337D01*
G75*
G02*
X115039691Y-76558818I-375000J649519D01*
G01*
G37*
%TD.AperFunction*%
%TO.P,U4,4*%
%TO.N,/A3*%
%TA.AperFunction,ComponentPad*%
G36*
G01*
X107170577Y-78169114D02*
X107170577Y-78169114D01*
G75*
G02*
X107445096Y-77144595I649519J375000D01*
G01*
X107704904Y-76994595D01*
G75*
G02*
X108729423Y-77269114I375000J-649519D01*
G01*
X108729423Y-77269114D01*
G75*
G02*
X108454904Y-78293633I-649519J-375000D01*
G01*
X108195096Y-78443633D01*
G75*
G02*
X107170577Y-78169114I-375000J649519D01*
G01*
G37*
%TD.AperFunction*%
%TO.P,U4,11*%
%TO.N,/S0*%
%TA.AperFunction,ComponentPad*%
G36*
G01*
X116309691Y-78758523D02*
X116309691Y-78758523D01*
G75*
G02*
X116584210Y-77734004I649519J375000D01*
G01*
X116844018Y-77584004D01*
G75*
G02*
X117868537Y-77858523I375000J-649519D01*
G01*
X117868537Y-77858523D01*
G75*
G02*
X117594018Y-78883042I-649519J-375000D01*
G01*
X117334210Y-79033042D01*
G75*
G02*
X116309691Y-78758523I-375000J649519D01*
G01*
G37*
%TD.AperFunction*%
%TO.P,U4,3*%
%TO.N,/B3*%
%TA.AperFunction,ComponentPad*%
G36*
G01*
X105900577Y-75969409D02*
X105900577Y-75969409D01*
G75*
G02*
X106175096Y-74944890I649519J375000D01*
G01*
X106434904Y-74794890D01*
G75*
G02*
X107459423Y-75069409I375000J-649519D01*
G01*
X107459423Y-75069409D01*
G75*
G02*
X107184904Y-76093928I-649519J-375000D01*
G01*
X106925096Y-76243928D01*
G75*
G02*
X105900577Y-75969409I-375000J649519D01*
G01*
G37*
%TD.AperFunction*%
%TO.P,U4,10*%
%TO.N,/S1*%
%TA.AperFunction,ComponentPad*%
G36*
G01*
X117579691Y-80958227D02*
X117579691Y-80958227D01*
G75*
G02*
X117854210Y-79933708I649519J375000D01*
G01*
X118114018Y-79783708D01*
G75*
G02*
X119138537Y-80058227I375000J-649519D01*
G01*
X119138537Y-80058227D01*
G75*
G02*
X118864018Y-81082746I-649519J-375000D01*
G01*
X118604210Y-81232746D01*
G75*
G02*
X117579691Y-80958227I-375000J649519D01*
G01*
G37*
%TD.AperFunction*%
%TO.P,U4,2*%
%TO.N,/C3*%
%TA.AperFunction,ComponentPad*%
G36*
G01*
X104630577Y-73769705D02*
X104630577Y-73769705D01*
G75*
G02*
X104905096Y-72745186I649519J375000D01*
G01*
X105164904Y-72595186D01*
G75*
G02*
X106189423Y-72869705I375000J-649519D01*
G01*
X106189423Y-72869705D01*
G75*
G02*
X105914904Y-73894224I-649519J-375000D01*
G01*
X105655096Y-74044224D01*
G75*
G02*
X104630577Y-73769705I-375000J649519D01*
G01*
G37*
%TD.AperFunction*%
%TO.P,U4,9*%
%TO.N,/S2*%
%TA.AperFunction,ComponentPad*%
G36*
G01*
X118849691Y-83157932D02*
X118849691Y-83157932D01*
G75*
G02*
X119124210Y-82133413I649519J375000D01*
G01*
X119384018Y-81983413D01*
G75*
G02*
X120408537Y-82257932I375000J-649519D01*
G01*
X120408537Y-82257932D01*
G75*
G02*
X120134018Y-83282451I-649519J-375000D01*
G01*
X119874210Y-83432451D01*
G75*
G02*
X118849691Y-83157932I-375000J649519D01*
G01*
G37*
%TD.AperFunction*%
%TO.P,U4,1*%
%TO.N,/D3*%
%TA.AperFunction,ComponentPad*%
G36*
G01*
X103548077Y-71894760D02*
X103173077Y-71245240D01*
G75*
G02*
X103310337Y-70732980I324760J187500D01*
G01*
X104219663Y-70207980D01*
G75*
G02*
X104731923Y-70345240I187500J-324760D01*
G01*
X105106923Y-70994760D01*
G75*
G02*
X104969663Y-71507020I-324760J-187500D01*
G01*
X104060337Y-72032020D01*
G75*
G02*
X103548077Y-71894760I-187500J324760D01*
G01*
G37*
%TD.AperFunction*%
%TD*%
%TO.P,U3,16*%
%TO.N,VCC*%
%TA.AperFunction,ComponentPad*%
G36*
G01*
X127739691Y-61092500D02*
X127739691Y-61092500D01*
G75*
G02*
X128014210Y-60067981I649519J375000D01*
G01*
X128274018Y-59917981D01*
G75*
G02*
X129298537Y-60192500I375000J-649519D01*
G01*
X129298537Y-60192500D01*
G75*
G02*
X129024018Y-61217019I-649519J-375000D01*
G01*
X128764210Y-61367019D01*
G75*
G02*
X127739691Y-61092500I-375000J649519D01*
G01*
G37*
%TD.AperFunction*%
%TO.P,U3,8*%
%TO.N,GND*%
%TA.AperFunction,ComponentPad*%
G36*
G01*
X130030577Y-80300432D02*
X130030577Y-80300432D01*
G75*
G02*
X130305096Y-79275913I649519J375000D01*
G01*
X130564904Y-79125913D01*
G75*
G02*
X131589423Y-79400432I375000J-649519D01*
G01*
X131589423Y-79400432D01*
G75*
G02*
X131314904Y-80424951I-649519J-375000D01*
G01*
X131055096Y-80574951D01*
G75*
G02*
X130030577Y-80300432I-375000J649519D01*
G01*
G37*
%TD.AperFunction*%
%TO.P,U3,15*%
%TO.N,/E2*%
%TA.AperFunction,ComponentPad*%
G36*
G01*
X129009691Y-63292205D02*
X129009691Y-63292205D01*
G75*
G02*
X129284210Y-62267686I649519J375000D01*
G01*
X129544018Y-62117686D01*
G75*
G02*
X130568537Y-62392205I375000J-649519D01*
G01*
X130568537Y-62392205D01*
G75*
G02*
X130294018Y-63416724I-649519J-375000D01*
G01*
X130034210Y-63566724D01*
G75*
G02*
X129009691Y-63292205I-375000J649519D01*
G01*
G37*
%TD.AperFunction*%
%TO.P,U3,7*%
%TO.N,/~EL*%
%TA.AperFunction,ComponentPad*%
G36*
G01*
X128760577Y-78100727D02*
X128760577Y-78100727D01*
G75*
G02*
X129035096Y-77076208I649519J375000D01*
G01*
X129294904Y-76926208D01*
G75*
G02*
X130319423Y-77200727I375000J-649519D01*
G01*
X130319423Y-77200727D01*
G75*
G02*
X130044904Y-78225246I-649519J-375000D01*
G01*
X129785096Y-78375246D01*
G75*
G02*
X128760577Y-78100727I-375000J649519D01*
G01*
G37*
%TD.AperFunction*%
%TO.P,U3,14*%
%TO.N,/F2*%
%TA.AperFunction,ComponentPad*%
G36*
G01*
X130279691Y-65491909D02*
X130279691Y-65491909D01*
G75*
G02*
X130554210Y-64467390I649519J375000D01*
G01*
X130814018Y-64317390D01*
G75*
G02*
X131838537Y-64591909I375000J-649519D01*
G01*
X131838537Y-64591909D01*
G75*
G02*
X131564018Y-65616428I-649519J-375000D01*
G01*
X131304210Y-65766428D01*
G75*
G02*
X130279691Y-65491909I-375000J649519D01*
G01*
G37*
%TD.AperFunction*%
%TO.P,U3,6*%
%TO.N,Net-(U3-Pad6)*%
%TA.AperFunction,ComponentPad*%
G36*
G01*
X127490577Y-75901023D02*
X127490577Y-75901023D01*
G75*
G02*
X127765096Y-74876504I649519J375000D01*
G01*
X128024904Y-74726504D01*
G75*
G02*
X129049423Y-75001023I375000J-649519D01*
G01*
X129049423Y-75001023D01*
G75*
G02*
X128774904Y-76025542I-649519J-375000D01*
G01*
X128515096Y-76175542D01*
G75*
G02*
X127490577Y-75901023I-375000J649519D01*
G01*
G37*
%TD.AperFunction*%
%TO.P,U3,13*%
%TO.N,/G2*%
%TA.AperFunction,ComponentPad*%
G36*
G01*
X131549691Y-67691614D02*
X131549691Y-67691614D01*
G75*
G02*
X131824210Y-66667095I649519J375000D01*
G01*
X132084018Y-66517095D01*
G75*
G02*
X133108537Y-66791614I375000J-649519D01*
G01*
X133108537Y-66791614D01*
G75*
G02*
X132834018Y-67816133I-649519J-375000D01*
G01*
X132574210Y-67966133D01*
G75*
G02*
X131549691Y-67691614I-375000J649519D01*
G01*
G37*
%TD.AperFunction*%
%TO.P,U3,5*%
%TO.N,/O2*%
%TA.AperFunction,ComponentPad*%
G36*
G01*
X126220577Y-73701318D02*
X126220577Y-73701318D01*
G75*
G02*
X126495096Y-72676799I649519J375000D01*
G01*
X126754904Y-72526799D01*
G75*
G02*
X127779423Y-72801318I375000J-649519D01*
G01*
X127779423Y-72801318D01*
G75*
G02*
X127504904Y-73825837I-649519J-375000D01*
G01*
X127245096Y-73975837D01*
G75*
G02*
X126220577Y-73701318I-375000J649519D01*
G01*
G37*
%TD.AperFunction*%
%TO.P,U3,12*%
%TO.N,/H2*%
%TA.AperFunction,ComponentPad*%
G36*
G01*
X132819691Y-69891318D02*
X132819691Y-69891318D01*
G75*
G02*
X133094210Y-68866799I649519J375000D01*
G01*
X133354018Y-68716799D01*
G75*
G02*
X134378537Y-68991318I375000J-649519D01*
G01*
X134378537Y-68991318D01*
G75*
G02*
X134104018Y-70015837I-649519J-375000D01*
G01*
X133844210Y-70165837D01*
G75*
G02*
X132819691Y-69891318I-375000J649519D01*
G01*
G37*
%TD.AperFunction*%
%TO.P,U3,4*%
%TO.N,/A2*%
%TA.AperFunction,ComponentPad*%
G36*
G01*
X124950577Y-71501614D02*
X124950577Y-71501614D01*
G75*
G02*
X125225096Y-70477095I649519J375000D01*
G01*
X125484904Y-70327095D01*
G75*
G02*
X126509423Y-70601614I375000J-649519D01*
G01*
X126509423Y-70601614D01*
G75*
G02*
X126234904Y-71626133I-649519J-375000D01*
G01*
X125975096Y-71776133D01*
G75*
G02*
X124950577Y-71501614I-375000J649519D01*
G01*
G37*
%TD.AperFunction*%
%TO.P,U3,11*%
%TO.N,/S0*%
%TA.AperFunction,ComponentPad*%
G36*
G01*
X134089691Y-72091023D02*
X134089691Y-72091023D01*
G75*
G02*
X134364210Y-71066504I649519J375000D01*
G01*
X134624018Y-70916504D01*
G75*
G02*
X135648537Y-71191023I375000J-649519D01*
G01*
X135648537Y-71191023D01*
G75*
G02*
X135374018Y-72215542I-649519J-375000D01*
G01*
X135114210Y-72365542D01*
G75*
G02*
X134089691Y-72091023I-375000J649519D01*
G01*
G37*
%TD.AperFunction*%
%TO.P,U3,3*%
%TO.N,/B2*%
%TA.AperFunction,ComponentPad*%
G36*
G01*
X123680577Y-69301909D02*
X123680577Y-69301909D01*
G75*
G02*
X123955096Y-68277390I649519J375000D01*
G01*
X124214904Y-68127390D01*
G75*
G02*
X125239423Y-68401909I375000J-649519D01*
G01*
X125239423Y-68401909D01*
G75*
G02*
X124964904Y-69426428I-649519J-375000D01*
G01*
X124705096Y-69576428D01*
G75*
G02*
X123680577Y-69301909I-375000J649519D01*
G01*
G37*
%TD.AperFunction*%
%TO.P,U3,10*%
%TO.N,/S1*%
%TA.AperFunction,ComponentPad*%
G36*
G01*
X135359691Y-74290727D02*
X135359691Y-74290727D01*
G75*
G02*
X135634210Y-73266208I649519J375000D01*
G01*
X135894018Y-73116208D01*
G75*
G02*
X136918537Y-73390727I375000J-649519D01*
G01*
X136918537Y-73390727D01*
G75*
G02*
X136644018Y-74415246I-649519J-375000D01*
G01*
X136384210Y-74565246D01*
G75*
G02*
X135359691Y-74290727I-375000J649519D01*
G01*
G37*
%TD.AperFunction*%
%TO.P,U3,2*%
%TO.N,/C2*%
%TA.AperFunction,ComponentPad*%
G36*
G01*
X122410577Y-67102205D02*
X122410577Y-67102205D01*
G75*
G02*
X122685096Y-66077686I649519J375000D01*
G01*
X122944904Y-65927686D01*
G75*
G02*
X123969423Y-66202205I375000J-649519D01*
G01*
X123969423Y-66202205D01*
G75*
G02*
X123694904Y-67226724I-649519J-375000D01*
G01*
X123435096Y-67376724D01*
G75*
G02*
X122410577Y-67102205I-375000J649519D01*
G01*
G37*
%TD.AperFunction*%
%TO.P,U3,9*%
%TO.N,/S2*%
%TA.AperFunction,ComponentPad*%
G36*
G01*
X136629691Y-76490432D02*
X136629691Y-76490432D01*
G75*
G02*
X136904210Y-75465913I649519J375000D01*
G01*
X137164018Y-75315913D01*
G75*
G02*
X138188537Y-75590432I375000J-649519D01*
G01*
X138188537Y-75590432D01*
G75*
G02*
X137914018Y-76614951I-649519J-375000D01*
G01*
X137654210Y-76764951D01*
G75*
G02*
X136629691Y-76490432I-375000J649519D01*
G01*
G37*
%TD.AperFunction*%
%TO.P,U3,1*%
%TO.N,/D2*%
%TA.AperFunction,ComponentPad*%
G36*
G01*
X121328077Y-65227260D02*
X120953077Y-64577740D01*
G75*
G02*
X121090337Y-64065480I324760J187500D01*
G01*
X121999663Y-63540480D01*
G75*
G02*
X122511923Y-63677740I187500J-324760D01*
G01*
X122886923Y-64327260D01*
G75*
G02*
X122749663Y-64839520I-324760J-187500D01*
G01*
X121840337Y-65364520D01*
G75*
G02*
X121328077Y-65227260I-187500J324760D01*
G01*
G37*
%TD.AperFunction*%
%TD*%
%TO.P,U2,16*%
%TO.N,VCC*%
%TA.AperFunction,ComponentPad*%
G36*
G01*
X145519691Y-54425000D02*
X145519691Y-54425000D01*
G75*
G02*
X145794210Y-53400481I649519J375000D01*
G01*
X146054018Y-53250481D01*
G75*
G02*
X147078537Y-53525000I375000J-649519D01*
G01*
X147078537Y-53525000D01*
G75*
G02*
X146804018Y-54549519I-649519J-375000D01*
G01*
X146544210Y-54699519D01*
G75*
G02*
X145519691Y-54425000I-375000J649519D01*
G01*
G37*
%TD.AperFunction*%
%TO.P,U2,8*%
%TO.N,GND*%
%TA.AperFunction,ComponentPad*%
G36*
G01*
X147810577Y-73632932D02*
X147810577Y-73632932D01*
G75*
G02*
X148085096Y-72608413I649519J375000D01*
G01*
X148344904Y-72458413D01*
G75*
G02*
X149369423Y-72732932I375000J-649519D01*
G01*
X149369423Y-72732932D01*
G75*
G02*
X149094904Y-73757451I-649519J-375000D01*
G01*
X148835096Y-73907451D01*
G75*
G02*
X147810577Y-73632932I-375000J649519D01*
G01*
G37*
%TD.AperFunction*%
%TO.P,U2,15*%
%TO.N,/E1*%
%TA.AperFunction,ComponentPad*%
G36*
G01*
X146789691Y-56624705D02*
X146789691Y-56624705D01*
G75*
G02*
X147064210Y-55600186I649519J375000D01*
G01*
X147324018Y-55450186D01*
G75*
G02*
X148348537Y-55724705I375000J-649519D01*
G01*
X148348537Y-55724705D01*
G75*
G02*
X148074018Y-56749224I-649519J-375000D01*
G01*
X147814210Y-56899224D01*
G75*
G02*
X146789691Y-56624705I-375000J649519D01*
G01*
G37*
%TD.AperFunction*%
%TO.P,U2,7*%
%TO.N,/~EL*%
%TA.AperFunction,ComponentPad*%
G36*
G01*
X146540577Y-71433227D02*
X146540577Y-71433227D01*
G75*
G02*
X146815096Y-70408708I649519J375000D01*
G01*
X147074904Y-70258708D01*
G75*
G02*
X148099423Y-70533227I375000J-649519D01*
G01*
X148099423Y-70533227D01*
G75*
G02*
X147824904Y-71557746I-649519J-375000D01*
G01*
X147565096Y-71707746D01*
G75*
G02*
X146540577Y-71433227I-375000J649519D01*
G01*
G37*
%TD.AperFunction*%
%TO.P,U2,14*%
%TO.N,/F1*%
%TA.AperFunction,ComponentPad*%
G36*
G01*
X148059691Y-58824409D02*
X148059691Y-58824409D01*
G75*
G02*
X148334210Y-57799890I649519J375000D01*
G01*
X148594018Y-57649890D01*
G75*
G02*
X149618537Y-57924409I375000J-649519D01*
G01*
X149618537Y-57924409D01*
G75*
G02*
X149344018Y-58948928I-649519J-375000D01*
G01*
X149084210Y-59098928D01*
G75*
G02*
X148059691Y-58824409I-375000J649519D01*
G01*
G37*
%TD.AperFunction*%
%TO.P,U2,6*%
%TO.N,Net-(U2-Pad6)*%
%TA.AperFunction,ComponentPad*%
G36*
G01*
X145270577Y-69233523D02*
X145270577Y-69233523D01*
G75*
G02*
X145545096Y-68209004I649519J375000D01*
G01*
X145804904Y-68059004D01*
G75*
G02*
X146829423Y-68333523I375000J-649519D01*
G01*
X146829423Y-68333523D01*
G75*
G02*
X146554904Y-69358042I-649519J-375000D01*
G01*
X146295096Y-69508042D01*
G75*
G02*
X145270577Y-69233523I-375000J649519D01*
G01*
G37*
%TD.AperFunction*%
%TO.P,U2,13*%
%TO.N,/G1*%
%TA.AperFunction,ComponentPad*%
G36*
G01*
X149329691Y-61024114D02*
X149329691Y-61024114D01*
G75*
G02*
X149604210Y-59999595I649519J375000D01*
G01*
X149864018Y-59849595D01*
G75*
G02*
X150888537Y-60124114I375000J-649519D01*
G01*
X150888537Y-60124114D01*
G75*
G02*
X150614018Y-61148633I-649519J-375000D01*
G01*
X150354210Y-61298633D01*
G75*
G02*
X149329691Y-61024114I-375000J649519D01*
G01*
G37*
%TD.AperFunction*%
%TO.P,U2,5*%
%TO.N,/O1*%
%TA.AperFunction,ComponentPad*%
G36*
G01*
X144000577Y-67033818D02*
X144000577Y-67033818D01*
G75*
G02*
X144275096Y-66009299I649519J375000D01*
G01*
X144534904Y-65859299D01*
G75*
G02*
X145559423Y-66133818I375000J-649519D01*
G01*
X145559423Y-66133818D01*
G75*
G02*
X145284904Y-67158337I-649519J-375000D01*
G01*
X145025096Y-67308337D01*
G75*
G02*
X144000577Y-67033818I-375000J649519D01*
G01*
G37*
%TD.AperFunction*%
%TO.P,U2,12*%
%TO.N,/H1*%
%TA.AperFunction,ComponentPad*%
G36*
G01*
X150599691Y-63223818D02*
X150599691Y-63223818D01*
G75*
G02*
X150874210Y-62199299I649519J375000D01*
G01*
X151134018Y-62049299D01*
G75*
G02*
X152158537Y-62323818I375000J-649519D01*
G01*
X152158537Y-62323818D01*
G75*
G02*
X151884018Y-63348337I-649519J-375000D01*
G01*
X151624210Y-63498337D01*
G75*
G02*
X150599691Y-63223818I-375000J649519D01*
G01*
G37*
%TD.AperFunction*%
%TO.P,U2,4*%
%TO.N,/A1*%
%TA.AperFunction,ComponentPad*%
G36*
G01*
X142730577Y-64834114D02*
X142730577Y-64834114D01*
G75*
G02*
X143005096Y-63809595I649519J375000D01*
G01*
X143264904Y-63659595D01*
G75*
G02*
X144289423Y-63934114I375000J-649519D01*
G01*
X144289423Y-63934114D01*
G75*
G02*
X144014904Y-64958633I-649519J-375000D01*
G01*
X143755096Y-65108633D01*
G75*
G02*
X142730577Y-64834114I-375000J649519D01*
G01*
G37*
%TD.AperFunction*%
%TO.P,U2,11*%
%TO.N,/S0*%
%TA.AperFunction,ComponentPad*%
G36*
G01*
X151869691Y-65423523D02*
X151869691Y-65423523D01*
G75*
G02*
X152144210Y-64399004I649519J375000D01*
G01*
X152404018Y-64249004D01*
G75*
G02*
X153428537Y-64523523I375000J-649519D01*
G01*
X153428537Y-64523523D01*
G75*
G02*
X153154018Y-65548042I-649519J-375000D01*
G01*
X152894210Y-65698042D01*
G75*
G02*
X151869691Y-65423523I-375000J649519D01*
G01*
G37*
%TD.AperFunction*%
%TO.P,U2,3*%
%TO.N,/B1*%
%TA.AperFunction,ComponentPad*%
G36*
G01*
X141460577Y-62634409D02*
X141460577Y-62634409D01*
G75*
G02*
X141735096Y-61609890I649519J375000D01*
G01*
X141994904Y-61459890D01*
G75*
G02*
X143019423Y-61734409I375000J-649519D01*
G01*
X143019423Y-61734409D01*
G75*
G02*
X142744904Y-62758928I-649519J-375000D01*
G01*
X142485096Y-62908928D01*
G75*
G02*
X141460577Y-62634409I-375000J649519D01*
G01*
G37*
%TD.AperFunction*%
%TO.P,U2,10*%
%TO.N,/S1*%
%TA.AperFunction,ComponentPad*%
G36*
G01*
X153139691Y-67623227D02*
X153139691Y-67623227D01*
G75*
G02*
X153414210Y-66598708I649519J375000D01*
G01*
X153674018Y-66448708D01*
G75*
G02*
X154698537Y-66723227I375000J-649519D01*
G01*
X154698537Y-66723227D01*
G75*
G02*
X154424018Y-67747746I-649519J-375000D01*
G01*
X154164210Y-67897746D01*
G75*
G02*
X153139691Y-67623227I-375000J649519D01*
G01*
G37*
%TD.AperFunction*%
%TO.P,U2,2*%
%TO.N,/C1*%
%TA.AperFunction,ComponentPad*%
G36*
G01*
X140190577Y-60434705D02*
X140190577Y-60434705D01*
G75*
G02*
X140465096Y-59410186I649519J375000D01*
G01*
X140724904Y-59260186D01*
G75*
G02*
X141749423Y-59534705I375000J-649519D01*
G01*
X141749423Y-59534705D01*
G75*
G02*
X141474904Y-60559224I-649519J-375000D01*
G01*
X141215096Y-60709224D01*
G75*
G02*
X140190577Y-60434705I-375000J649519D01*
G01*
G37*
%TD.AperFunction*%
%TO.P,U2,9*%
%TO.N,/S2*%
%TA.AperFunction,ComponentPad*%
G36*
G01*
X154409691Y-69822932D02*
X154409691Y-69822932D01*
G75*
G02*
X154684210Y-68798413I649519J375000D01*
G01*
X154944018Y-68648413D01*
G75*
G02*
X155968537Y-68922932I375000J-649519D01*
G01*
X155968537Y-68922932D01*
G75*
G02*
X155694018Y-69947451I-649519J-375000D01*
G01*
X155434210Y-70097451D01*
G75*
G02*
X154409691Y-69822932I-375000J649519D01*
G01*
G37*
%TD.AperFunction*%
%TO.P,U2,1*%
%TO.N,/D1*%
%TA.AperFunction,ComponentPad*%
G36*
G01*
X139108077Y-58559760D02*
X138733077Y-57910240D01*
G75*
G02*
X138870337Y-57397980I324760J187500D01*
G01*
X139779663Y-56872980D01*
G75*
G02*
X140291923Y-57010240I187500J-324760D01*
G01*
X140666923Y-57659760D01*
G75*
G02*
X140529663Y-58172020I-324760J-187500D01*
G01*
X139620337Y-58697020D01*
G75*
G02*
X139108077Y-58559760I-187500J324760D01*
G01*
G37*
%TD.AperFunction*%
%TD*%
%TO.P,U1,16*%
%TO.N,VCC*%
%TA.AperFunction,ComponentPad*%
G36*
G01*
X163299691Y-47757500D02*
X163299691Y-47757500D01*
G75*
G02*
X163574210Y-46732981I649519J375000D01*
G01*
X163834018Y-46582981D01*
G75*
G02*
X164858537Y-46857500I375000J-649519D01*
G01*
X164858537Y-46857500D01*
G75*
G02*
X164584018Y-47882019I-649519J-375000D01*
G01*
X164324210Y-48032019D01*
G75*
G02*
X163299691Y-47757500I-375000J649519D01*
G01*
G37*
%TD.AperFunction*%
%TO.P,U1,8*%
%TO.N,GND*%
%TA.AperFunction,ComponentPad*%
G36*
G01*
X165590577Y-66965432D02*
X165590577Y-66965432D01*
G75*
G02*
X165865096Y-65940913I649519J375000D01*
G01*
X166124904Y-65790913D01*
G75*
G02*
X167149423Y-66065432I375000J-649519D01*
G01*
X167149423Y-66065432D01*
G75*
G02*
X166874904Y-67089951I-649519J-375000D01*
G01*
X166615096Y-67239951D01*
G75*
G02*
X165590577Y-66965432I-375000J649519D01*
G01*
G37*
%TD.AperFunction*%
%TO.P,U1,15*%
%TO.N,/E0*%
%TA.AperFunction,ComponentPad*%
G36*
G01*
X164569691Y-49957205D02*
X164569691Y-49957205D01*
G75*
G02*
X164844210Y-48932686I649519J375000D01*
G01*
X165104018Y-48782686D01*
G75*
G02*
X166128537Y-49057205I375000J-649519D01*
G01*
X166128537Y-49057205D01*
G75*
G02*
X165854018Y-50081724I-649519J-375000D01*
G01*
X165594210Y-50231724D01*
G75*
G02*
X164569691Y-49957205I-375000J649519D01*
G01*
G37*
%TD.AperFunction*%
%TO.P,U1,7*%
%TO.N,/~EL*%
%TA.AperFunction,ComponentPad*%
G36*
G01*
X164320577Y-64765727D02*
X164320577Y-64765727D01*
G75*
G02*
X164595096Y-63741208I649519J375000D01*
G01*
X164854904Y-63591208D01*
G75*
G02*
X165879423Y-63865727I375000J-649519D01*
G01*
X165879423Y-63865727D01*
G75*
G02*
X165604904Y-64890246I-649519J-375000D01*
G01*
X165345096Y-65040246D01*
G75*
G02*
X164320577Y-64765727I-375000J649519D01*
G01*
G37*
%TD.AperFunction*%
%TO.P,U1,14*%
%TO.N,/F0*%
%TA.AperFunction,ComponentPad*%
G36*
G01*
X165839691Y-52156909D02*
X165839691Y-52156909D01*
G75*
G02*
X166114210Y-51132390I649519J375000D01*
G01*
X166374018Y-50982390D01*
G75*
G02*
X167398537Y-51256909I375000J-649519D01*
G01*
X167398537Y-51256909D01*
G75*
G02*
X167124018Y-52281428I-649519J-375000D01*
G01*
X166864210Y-52431428D01*
G75*
G02*
X165839691Y-52156909I-375000J649519D01*
G01*
G37*
%TD.AperFunction*%
%TO.P,U1,6*%
%TO.N,Net-(U1-Pad6)*%
%TA.AperFunction,ComponentPad*%
G36*
G01*
X163050577Y-62566023D02*
X163050577Y-62566023D01*
G75*
G02*
X163325096Y-61541504I649519J375000D01*
G01*
X163584904Y-61391504D01*
G75*
G02*
X164609423Y-61666023I375000J-649519D01*
G01*
X164609423Y-61666023D01*
G75*
G02*
X164334904Y-62690542I-649519J-375000D01*
G01*
X164075096Y-62840542D01*
G75*
G02*
X163050577Y-62566023I-375000J649519D01*
G01*
G37*
%TD.AperFunction*%
%TO.P,U1,13*%
%TO.N,/G0*%
%TA.AperFunction,ComponentPad*%
G36*
G01*
X167109691Y-54356614D02*
X167109691Y-54356614D01*
G75*
G02*
X167384210Y-53332095I649519J375000D01*
G01*
X167644018Y-53182095D01*
G75*
G02*
X168668537Y-53456614I375000J-649519D01*
G01*
X168668537Y-53456614D01*
G75*
G02*
X168394018Y-54481133I-649519J-375000D01*
G01*
X168134210Y-54631133D01*
G75*
G02*
X167109691Y-54356614I-375000J649519D01*
G01*
G37*
%TD.AperFunction*%
%TO.P,U1,5*%
%TO.N,/O0*%
%TA.AperFunction,ComponentPad*%
G36*
G01*
X161780577Y-60366318D02*
X161780577Y-60366318D01*
G75*
G02*
X162055096Y-59341799I649519J375000D01*
G01*
X162314904Y-59191799D01*
G75*
G02*
X163339423Y-59466318I375000J-649519D01*
G01*
X163339423Y-59466318D01*
G75*
G02*
X163064904Y-60490837I-649519J-375000D01*
G01*
X162805096Y-60640837D01*
G75*
G02*
X161780577Y-60366318I-375000J649519D01*
G01*
G37*
%TD.AperFunction*%
%TO.P,U1,12*%
%TO.N,/H0*%
%TA.AperFunction,ComponentPad*%
G36*
G01*
X168379691Y-56556318D02*
X168379691Y-56556318D01*
G75*
G02*
X168654210Y-55531799I649519J375000D01*
G01*
X168914018Y-55381799D01*
G75*
G02*
X169938537Y-55656318I375000J-649519D01*
G01*
X169938537Y-55656318D01*
G75*
G02*
X169664018Y-56680837I-649519J-375000D01*
G01*
X169404210Y-56830837D01*
G75*
G02*
X168379691Y-56556318I-375000J649519D01*
G01*
G37*
%TD.AperFunction*%
%TO.P,U1,4*%
%TO.N,/A0*%
%TA.AperFunction,ComponentPad*%
G36*
G01*
X160510577Y-58166614D02*
X160510577Y-58166614D01*
G75*
G02*
X160785096Y-57142095I649519J375000D01*
G01*
X161044904Y-56992095D01*
G75*
G02*
X162069423Y-57266614I375000J-649519D01*
G01*
X162069423Y-57266614D01*
G75*
G02*
X161794904Y-58291133I-649519J-375000D01*
G01*
X161535096Y-58441133D01*
G75*
G02*
X160510577Y-58166614I-375000J649519D01*
G01*
G37*
%TD.AperFunction*%
%TO.P,U1,11*%
%TO.N,/S0*%
%TA.AperFunction,ComponentPad*%
G36*
G01*
X169649691Y-58756023D02*
X169649691Y-58756023D01*
G75*
G02*
X169924210Y-57731504I649519J375000D01*
G01*
X170184018Y-57581504D01*
G75*
G02*
X171208537Y-57856023I375000J-649519D01*
G01*
X171208537Y-57856023D01*
G75*
G02*
X170934018Y-58880542I-649519J-375000D01*
G01*
X170674210Y-59030542D01*
G75*
G02*
X169649691Y-58756023I-375000J649519D01*
G01*
G37*
%TD.AperFunction*%
%TO.P,U1,3*%
%TO.N,/B0*%
%TA.AperFunction,ComponentPad*%
G36*
G01*
X159240577Y-55966909D02*
X159240577Y-55966909D01*
G75*
G02*
X159515096Y-54942390I649519J375000D01*
G01*
X159774904Y-54792390D01*
G75*
G02*
X160799423Y-55066909I375000J-649519D01*
G01*
X160799423Y-55066909D01*
G75*
G02*
X160524904Y-56091428I-649519J-375000D01*
G01*
X160265096Y-56241428D01*
G75*
G02*
X159240577Y-55966909I-375000J649519D01*
G01*
G37*
%TD.AperFunction*%
%TO.P,U1,10*%
%TO.N,/S1*%
%TA.AperFunction,ComponentPad*%
G36*
G01*
X170919691Y-60955727D02*
X170919691Y-60955727D01*
G75*
G02*
X171194210Y-59931208I649519J375000D01*
G01*
X171454018Y-59781208D01*
G75*
G02*
X172478537Y-60055727I375000J-649519D01*
G01*
X172478537Y-60055727D01*
G75*
G02*
X172204018Y-61080246I-649519J-375000D01*
G01*
X171944210Y-61230246D01*
G75*
G02*
X170919691Y-60955727I-375000J649519D01*
G01*
G37*
%TD.AperFunction*%
%TO.P,U1,2*%
%TO.N,/C0*%
%TA.AperFunction,ComponentPad*%
G36*
G01*
X157970577Y-53767205D02*
X157970577Y-53767205D01*
G75*
G02*
X158245096Y-52742686I649519J375000D01*
G01*
X158504904Y-52592686D01*
G75*
G02*
X159529423Y-52867205I375000J-649519D01*
G01*
X159529423Y-52867205D01*
G75*
G02*
X159254904Y-53891724I-649519J-375000D01*
G01*
X158995096Y-54041724D01*
G75*
G02*
X157970577Y-53767205I-375000J649519D01*
G01*
G37*
%TD.AperFunction*%
%TO.P,U1,9*%
%TO.N,/S2*%
%TA.AperFunction,ComponentPad*%
G36*
G01*
X172189691Y-63155432D02*
X172189691Y-63155432D01*
G75*
G02*
X172464210Y-62130913I649519J375000D01*
G01*
X172724018Y-61980913D01*
G75*
G02*
X173748537Y-62255432I375000J-649519D01*
G01*
X173748537Y-62255432D01*
G75*
G02*
X173474018Y-63279951I-649519J-375000D01*
G01*
X173214210Y-63429951D01*
G75*
G02*
X172189691Y-63155432I-375000J649519D01*
G01*
G37*
%TD.AperFunction*%
%TO.P,U1,1*%
%TO.N,/D0*%
%TA.AperFunction,ComponentPad*%
G36*
G01*
X156888077Y-51892260D02*
X156513077Y-51242740D01*
G75*
G02*
X156650337Y-50730480I324760J187500D01*
G01*
X157559663Y-50205480D01*
G75*
G02*
X158071923Y-50342740I187500J-324760D01*
G01*
X158446923Y-50992260D01*
G75*
G02*
X158309663Y-51504520I-324760J-187500D01*
G01*
X157400337Y-52029520D01*
G75*
G02*
X156888077Y-51892260I-187500J324760D01*
G01*
G37*
%TD.AperFunction*%
%TD*%
%TO.P,R6,2*%
%TO.N,/S2*%
%TA.AperFunction,SMDPad,CuDef*%
G36*
G01*
X173485000Y-72205001D02*
X173485000Y-71304999D01*
G75*
G02*
X173734999Y-71055000I249999J0D01*
G01*
X174435001Y-71055000D01*
G75*
G02*
X174685000Y-71304999I0J-249999D01*
G01*
X174685000Y-72205001D01*
G75*
G02*
X174435001Y-72455000I-249999J0D01*
G01*
X173734999Y-72455000D01*
G75*
G02*
X173485000Y-72205001I0J249999D01*
G01*
G37*
%TD.AperFunction*%
%TO.P,R6,1*%
%TO.N,Net-(D3-Pad2)*%
%TA.AperFunction,SMDPad,CuDef*%
G36*
G01*
X171485000Y-72205001D02*
X171485000Y-71304999D01*
G75*
G02*
X171734999Y-71055000I249999J0D01*
G01*
X172435001Y-71055000D01*
G75*
G02*
X172685000Y-71304999I0J-249999D01*
G01*
X172685000Y-72205001D01*
G75*
G02*
X172435001Y-72455000I-249999J0D01*
G01*
X171734999Y-72455000D01*
G75*
G02*
X171485000Y-72205001I0J249999D01*
G01*
G37*
%TD.AperFunction*%
%TD*%
%TO.P,R5,2*%
%TO.N,/S1*%
%TA.AperFunction,SMDPad,CuDef*%
G36*
G01*
X173485000Y-74745001D02*
X173485000Y-73844999D01*
G75*
G02*
X173734999Y-73595000I249999J0D01*
G01*
X174435001Y-73595000D01*
G75*
G02*
X174685000Y-73844999I0J-249999D01*
G01*
X174685000Y-74745001D01*
G75*
G02*
X174435001Y-74995000I-249999J0D01*
G01*
X173734999Y-74995000D01*
G75*
G02*
X173485000Y-74745001I0J249999D01*
G01*
G37*
%TD.AperFunction*%
%TO.P,R5,1*%
%TO.N,Net-(D2-Pad2)*%
%TA.AperFunction,SMDPad,CuDef*%
G36*
G01*
X171485000Y-74745001D02*
X171485000Y-73844999D01*
G75*
G02*
X171734999Y-73595000I249999J0D01*
G01*
X172435001Y-73595000D01*
G75*
G02*
X172685000Y-73844999I0J-249999D01*
G01*
X172685000Y-74745001D01*
G75*
G02*
X172435001Y-74995000I-249999J0D01*
G01*
X171734999Y-74995000D01*
G75*
G02*
X171485000Y-74745001I0J249999D01*
G01*
G37*
%TD.AperFunction*%
%TD*%
%TO.P,R4,2*%
%TO.N,/S0*%
%TA.AperFunction,SMDPad,CuDef*%
G36*
G01*
X173485000Y-77285001D02*
X173485000Y-76384999D01*
G75*
G02*
X173734999Y-76135000I249999J0D01*
G01*
X174435001Y-76135000D01*
G75*
G02*
X174685000Y-76384999I0J-249999D01*
G01*
X174685000Y-77285001D01*
G75*
G02*
X174435001Y-77535000I-249999J0D01*
G01*
X173734999Y-77535000D01*
G75*
G02*
X173485000Y-77285001I0J249999D01*
G01*
G37*
%TD.AperFunction*%
%TO.P,R4,1*%
%TO.N,Net-(D1-Pad2)*%
%TA.AperFunction,SMDPad,CuDef*%
G36*
G01*
X171485000Y-77285001D02*
X171485000Y-76384999D01*
G75*
G02*
X171734999Y-76135000I249999J0D01*
G01*
X172435001Y-76135000D01*
G75*
G02*
X172685000Y-76384999I0J-249999D01*
G01*
X172685000Y-77285001D01*
G75*
G02*
X172435001Y-77535000I-249999J0D01*
G01*
X171734999Y-77535000D01*
G75*
G02*
X171485000Y-77285001I0J249999D01*
G01*
G37*
%TD.AperFunction*%
%TD*%
D11*
%TO.P,J21,9*%
%TO.N,/BUS7*%
X171450000Y-116840000D03*
%TO.P,J21,8*%
%TO.N,/BUS6*%
X171450000Y-114300000D03*
%TO.P,J21,7*%
%TO.N,/BUS5*%
X171450000Y-111760000D03*
%TO.P,J21,6*%
%TO.N,/BUS4*%
X171450000Y-109220000D03*
%TO.P,J21,5*%
%TO.N,/BUS3*%
X171450000Y-106680000D03*
%TO.P,J21,4*%
%TO.N,/BUS2*%
X171450000Y-104140000D03*
%TO.P,J21,3*%
%TO.N,/BUS1*%
X171450000Y-101600000D03*
%TO.P,J21,2*%
%TO.N,/BUS0*%
X171450000Y-99060000D03*
D10*
%TO.P,J21,1*%
%TO.N,GND*%
X171450000Y-96520000D03*
%TD*%
D11*
%TO.P,J16,9*%
%TO.N,/H7*%
X43180000Y-33020000D03*
%TO.P,J16,8*%
%TO.N,/H6*%
X45720000Y-33020000D03*
%TO.P,J16,7*%
%TO.N,/H5*%
X48260000Y-33020000D03*
%TO.P,J16,6*%
%TO.N,/H4*%
X50800000Y-33020000D03*
%TO.P,J16,5*%
%TO.N,/H3*%
X53340000Y-33020000D03*
%TO.P,J16,4*%
%TO.N,/H2*%
X55880000Y-33020000D03*
%TO.P,J16,3*%
%TO.N,/H1*%
X58420000Y-33020000D03*
%TO.P,J16,2*%
%TO.N,/H0*%
X60960000Y-33020000D03*
D10*
%TO.P,J16,1*%
%TO.N,GND*%
X63500000Y-33020000D03*
%TD*%
D11*
%TO.P,J15,9*%
%TO.N,/D7*%
X43180000Y-127000000D03*
%TO.P,J15,8*%
%TO.N,/D6*%
X45720000Y-127000000D03*
%TO.P,J15,7*%
%TO.N,/D5*%
X48260000Y-127000000D03*
%TO.P,J15,6*%
%TO.N,/D4*%
X50800000Y-127000000D03*
%TO.P,J15,5*%
%TO.N,/D3*%
X53340000Y-127000000D03*
%TO.P,J15,4*%
%TO.N,/D2*%
X55880000Y-127000000D03*
%TO.P,J15,3*%
%TO.N,/D1*%
X58420000Y-127000000D03*
%TO.P,J15,2*%
%TO.N,/D0*%
X60960000Y-127000000D03*
D10*
%TO.P,J15,1*%
%TO.N,GND*%
X63500000Y-127000000D03*
%TD*%
%TO.P,J13,1*%
%TO.N,/~EL*%
X172085000Y-47625000D03*
%TD*%
D11*
%TO.P,J12,9*%
%TO.N,/G7*%
X142240000Y-33020000D03*
%TO.P,J12,8*%
%TO.N,/G6*%
X144780000Y-33020000D03*
%TO.P,J12,7*%
%TO.N,/G5*%
X147320000Y-33020000D03*
%TO.P,J12,6*%
%TO.N,/G4*%
X149860000Y-33020000D03*
%TO.P,J12,5*%
%TO.N,/G3*%
X152400000Y-33020000D03*
%TO.P,J12,4*%
%TO.N,/G2*%
X154940000Y-33020000D03*
%TO.P,J12,3*%
%TO.N,/G1*%
X157480000Y-33020000D03*
%TO.P,J12,2*%
%TO.N,/G0*%
X160020000Y-33020000D03*
D10*
%TO.P,J12,1*%
%TO.N,GND*%
X162560000Y-33020000D03*
%TD*%
D11*
%TO.P,J10,3*%
%TO.N,/S2*%
X174625000Y-59055000D03*
%TO.P,J10,2*%
%TO.N,/S1*%
X174625000Y-56515000D03*
D10*
%TO.P,J10,1*%
%TO.N,/S0*%
X174625000Y-53975000D03*
%TD*%
D14*
%TO.P,J9,2*%
%TO.N,GND*%
X172720000Y-81360000D03*
D15*
%TO.P,J9,1*%
%TO.N,VCC*%
X172720000Y-86360000D03*
%TD*%
D10*
%TO.P,J7,1*%
%TO.N,/~OE*%
X172720000Y-91440000D03*
%TD*%
D11*
%TO.P,J6,9*%
%TO.N,/F7*%
X71120000Y-33020000D03*
%TO.P,J6,8*%
%TO.N,/F6*%
X73660000Y-33020000D03*
%TO.P,J6,7*%
%TO.N,/F5*%
X76200000Y-33020000D03*
%TO.P,J6,6*%
%TO.N,/F4*%
X78740000Y-33020000D03*
%TO.P,J6,5*%
%TO.N,/F3*%
X81280000Y-33020000D03*
%TO.P,J6,4*%
%TO.N,/F2*%
X83820000Y-33020000D03*
%TO.P,J6,3*%
%TO.N,/F1*%
X86360000Y-33020000D03*
%TO.P,J6,2*%
%TO.N,/F0*%
X88900000Y-33020000D03*
D10*
%TO.P,J6,1*%
%TO.N,GND*%
X91440000Y-33020000D03*
%TD*%
D11*
%TO.P,J5,9*%
%TO.N,/B7*%
X71120000Y-127000000D03*
%TO.P,J5,8*%
%TO.N,/B6*%
X73660000Y-127000000D03*
%TO.P,J5,7*%
%TO.N,/B5*%
X76200000Y-127000000D03*
%TO.P,J5,6*%
%TO.N,/B4*%
X78740000Y-127000000D03*
%TO.P,J5,5*%
%TO.N,/B3*%
X81280000Y-127000000D03*
%TO.P,J5,4*%
%TO.N,/B2*%
X83820000Y-127000000D03*
%TO.P,J5,3*%
%TO.N,/B1*%
X86360000Y-127000000D03*
%TO.P,J5,2*%
%TO.N,/B0*%
X88900000Y-127000000D03*
D10*
%TO.P,J5,1*%
%TO.N,GND*%
X91440000Y-127000000D03*
%TD*%
D11*
%TO.P,J3,9*%
%TO.N,/BUS7*%
X175260000Y-116840000D03*
%TO.P,J3,8*%
%TO.N,/BUS6*%
X175260000Y-114300000D03*
%TO.P,J3,7*%
%TO.N,/BUS5*%
X175260000Y-111760000D03*
%TO.P,J3,6*%
%TO.N,/BUS4*%
X175260000Y-109220000D03*
%TO.P,J3,5*%
%TO.N,/BUS3*%
X175260000Y-106680000D03*
%TO.P,J3,4*%
%TO.N,/BUS2*%
X175260000Y-104140000D03*
%TO.P,J3,3*%
%TO.N,/BUS1*%
X175260000Y-101600000D03*
%TO.P,J3,2*%
%TO.N,/BUS0*%
X175260000Y-99060000D03*
D10*
%TO.P,J3,1*%
%TO.N,GND*%
X175260000Y-96520000D03*
%TD*%
D11*
%TO.P,J2,9*%
%TO.N,/E7*%
X114300000Y-33020000D03*
%TO.P,J2,8*%
%TO.N,/E6*%
X116840000Y-33020000D03*
%TO.P,J2,7*%
%TO.N,/E5*%
X119380000Y-33020000D03*
%TO.P,J2,6*%
%TO.N,/E4*%
X121920000Y-33020000D03*
%TO.P,J2,5*%
%TO.N,/E3*%
X124460000Y-33020000D03*
%TO.P,J2,4*%
%TO.N,/E2*%
X127000000Y-33020000D03*
%TO.P,J2,3*%
%TO.N,/E1*%
X129540000Y-33020000D03*
%TO.P,J2,2*%
%TO.N,/E0*%
X132080000Y-33020000D03*
D10*
%TO.P,J2,1*%
%TO.N,GND*%
X134620000Y-33020000D03*
%TD*%
D11*
%TO.P,J1,9*%
%TO.N,/A7*%
X114300000Y-127000000D03*
%TO.P,J1,8*%
%TO.N,/A6*%
X116840000Y-127000000D03*
%TO.P,J1,7*%
%TO.N,/A5*%
X119380000Y-127000000D03*
%TO.P,J1,6*%
%TO.N,/A4*%
X121920000Y-127000000D03*
%TO.P,J1,5*%
%TO.N,/A3*%
X124460000Y-127000000D03*
%TO.P,J1,4*%
%TO.N,/A2*%
X127000000Y-127000000D03*
%TO.P,J1,3*%
%TO.N,/A1*%
X129540000Y-127000000D03*
%TO.P,J1,2*%
%TO.N,/A0*%
X132080000Y-127000000D03*
D10*
%TO.P,J1,1*%
%TO.N,GND*%
X134620000Y-127000000D03*
%TD*%
%TO.P,D3,2*%
%TO.N,Net-(D3-Pad2)*%
%TA.AperFunction,SMDPad,CuDef*%
G36*
G01*
X168970000Y-72205001D02*
X168970000Y-71304999D01*
G75*
G02*
X169219999Y-71055000I249999J0D01*
G01*
X169870001Y-71055000D01*
G75*
G02*
X170120000Y-71304999I0J-249999D01*
G01*
X170120000Y-72205001D01*
G75*
G02*
X169870001Y-72455000I-249999J0D01*
G01*
X169219999Y-72455000D01*
G75*
G02*
X168970000Y-72205001I0J249999D01*
G01*
G37*
%TD.AperFunction*%
%TO.P,D3,1*%
%TO.N,GND*%
%TA.AperFunction,SMDPad,CuDef*%
G36*
G01*
X166920000Y-72205001D02*
X166920000Y-71304999D01*
G75*
G02*
X167169999Y-71055000I249999J0D01*
G01*
X167820001Y-71055000D01*
G75*
G02*
X168070000Y-71304999I0J-249999D01*
G01*
X168070000Y-72205001D01*
G75*
G02*
X167820001Y-72455000I-249999J0D01*
G01*
X167169999Y-72455000D01*
G75*
G02*
X166920000Y-72205001I0J249999D01*
G01*
G37*
%TD.AperFunction*%
%TD*%
%TO.P,D2,2*%
%TO.N,Net-(D2-Pad2)*%
%TA.AperFunction,SMDPad,CuDef*%
G36*
G01*
X168970000Y-74745001D02*
X168970000Y-73844999D01*
G75*
G02*
X169219999Y-73595000I249999J0D01*
G01*
X169870001Y-73595000D01*
G75*
G02*
X170120000Y-73844999I0J-249999D01*
G01*
X170120000Y-74745001D01*
G75*
G02*
X169870001Y-74995000I-249999J0D01*
G01*
X169219999Y-74995000D01*
G75*
G02*
X168970000Y-74745001I0J249999D01*
G01*
G37*
%TD.AperFunction*%
%TO.P,D2,1*%
%TO.N,GND*%
%TA.AperFunction,SMDPad,CuDef*%
G36*
G01*
X166920000Y-74745001D02*
X166920000Y-73844999D01*
G75*
G02*
X167169999Y-73595000I249999J0D01*
G01*
X167820001Y-73595000D01*
G75*
G02*
X168070000Y-73844999I0J-249999D01*
G01*
X168070000Y-74745001D01*
G75*
G02*
X167820001Y-74995000I-249999J0D01*
G01*
X167169999Y-74995000D01*
G75*
G02*
X166920000Y-74745001I0J249999D01*
G01*
G37*
%TD.AperFunction*%
%TD*%
%TO.P,D1,2*%
%TO.N,Net-(D1-Pad2)*%
%TA.AperFunction,SMDPad,CuDef*%
G36*
G01*
X168970000Y-77285001D02*
X168970000Y-76384999D01*
G75*
G02*
X169219999Y-76135000I249999J0D01*
G01*
X169870001Y-76135000D01*
G75*
G02*
X170120000Y-76384999I0J-249999D01*
G01*
X170120000Y-77285001D01*
G75*
G02*
X169870001Y-77535000I-249999J0D01*
G01*
X169219999Y-77535000D01*
G75*
G02*
X168970000Y-77285001I0J249999D01*
G01*
G37*
%TD.AperFunction*%
%TO.P,D1,1*%
%TO.N,GND*%
%TA.AperFunction,SMDPad,CuDef*%
G36*
G01*
X166920000Y-77285001D02*
X166920000Y-76384999D01*
G75*
G02*
X167169999Y-76135000I249999J0D01*
G01*
X167820001Y-76135000D01*
G75*
G02*
X168070000Y-76384999I0J-249999D01*
G01*
X168070000Y-77285001D01*
G75*
G02*
X167820001Y-77535000I-249999J0D01*
G01*
X167169999Y-77535000D01*
G75*
G02*
X166920000Y-77285001I0J249999D01*
G01*
G37*
%TD.AperFunction*%
%TD*%
%TO.P,C9,2*%
%TO.N,GND*%
%TA.AperFunction,ComponentPad*%
G36*
G01*
X45517500Y-111357561D02*
X45517500Y-111357561D01*
G75*
G02*
X46610320Y-111650381I400000J-692820D01*
G01*
X46610320Y-111650381D01*
G75*
G02*
X46317500Y-112743201I-692820J-400000D01*
G01*
X46317500Y-112743201D01*
G75*
G02*
X45224680Y-112450381I-400000J692820D01*
G01*
X45224680Y-112450381D01*
G75*
G02*
X45517500Y-111357561I692820J400000D01*
G01*
G37*
%TD.AperFunction*%
D16*
%TO.P,C9,1*%
%TO.N,VCC*%
X38417500Y-99060000D03*
%TD*%
%TO.P,C8,2*%
%TO.N,GND*%
%TA.AperFunction,ComponentPad*%
G36*
G01*
X62980000Y-104690061D02*
X62980000Y-104690061D01*
G75*
G02*
X64072820Y-104982881I400000J-692820D01*
G01*
X64072820Y-104982881D01*
G75*
G02*
X63780000Y-106075701I-692820J-400000D01*
G01*
X63780000Y-106075701D01*
G75*
G02*
X62687180Y-105782881I-400000J692820D01*
G01*
X62687180Y-105782881D01*
G75*
G02*
X62980000Y-104690061I692820J400000D01*
G01*
G37*
%TD.AperFunction*%
%TO.P,C8,1*%
%TO.N,VCC*%
X55880000Y-92392500D03*
%TD*%
%TO.P,C7,2*%
%TO.N,GND*%
%TA.AperFunction,ComponentPad*%
G36*
G01*
X80760000Y-98022561D02*
X80760000Y-98022561D01*
G75*
G02*
X81852820Y-98315381I400000J-692820D01*
G01*
X81852820Y-98315381D01*
G75*
G02*
X81560000Y-99408201I-692820J-400000D01*
G01*
X81560000Y-99408201D01*
G75*
G02*
X80467180Y-99115381I-400000J692820D01*
G01*
X80467180Y-99115381D01*
G75*
G02*
X80760000Y-98022561I692820J400000D01*
G01*
G37*
%TD.AperFunction*%
%TO.P,C7,1*%
%TO.N,VCC*%
X73660000Y-85725000D03*
%TD*%
%TO.P,C6,2*%
%TO.N,GND*%
%TA.AperFunction,ComponentPad*%
G36*
G01*
X98857500Y-91355061D02*
X98857500Y-91355061D01*
G75*
G02*
X99950320Y-91647881I400000J-692820D01*
G01*
X99950320Y-91647881D01*
G75*
G02*
X99657500Y-92740701I-692820J-400000D01*
G01*
X99657500Y-92740701D01*
G75*
G02*
X98564680Y-92447881I-400000J692820D01*
G01*
X98564680Y-92447881D01*
G75*
G02*
X98857500Y-91355061I692820J400000D01*
G01*
G37*
%TD.AperFunction*%
%TO.P,C6,1*%
%TO.N,VCC*%
X91757500Y-79057500D03*
%TD*%
%TO.P,C5,2*%
%TO.N,GND*%
%TA.AperFunction,ComponentPad*%
G36*
G01*
X116320000Y-84687561D02*
X116320000Y-84687561D01*
G75*
G02*
X117412820Y-84980381I400000J-692820D01*
G01*
X117412820Y-84980381D01*
G75*
G02*
X117120000Y-86073201I-692820J-400000D01*
G01*
X117120000Y-86073201D01*
G75*
G02*
X116027180Y-85780381I-400000J692820D01*
G01*
X116027180Y-85780381D01*
G75*
G02*
X116320000Y-84687561I692820J400000D01*
G01*
G37*
%TD.AperFunction*%
%TO.P,C5,1*%
%TO.N,VCC*%
X109220000Y-72390000D03*
%TD*%
%TO.P,C4,2*%
%TO.N,GND*%
%TA.AperFunction,ComponentPad*%
G36*
G01*
X134417500Y-78020061D02*
X134417500Y-78020061D01*
G75*
G02*
X135510320Y-78312881I400000J-692820D01*
G01*
X135510320Y-78312881D01*
G75*
G02*
X135217500Y-79405701I-692820J-400000D01*
G01*
X135217500Y-79405701D01*
G75*
G02*
X134124680Y-79112881I-400000J692820D01*
G01*
X134124680Y-79112881D01*
G75*
G02*
X134417500Y-78020061I692820J400000D01*
G01*
G37*
%TD.AperFunction*%
%TO.P,C4,1*%
%TO.N,VCC*%
X127317500Y-65722500D03*
%TD*%
%TO.P,C3,2*%
%TO.N,GND*%
%TA.AperFunction,ComponentPad*%
G36*
G01*
X151880000Y-71352561D02*
X151880000Y-71352561D01*
G75*
G02*
X152972820Y-71645381I400000J-692820D01*
G01*
X152972820Y-71645381D01*
G75*
G02*
X152680000Y-72738201I-692820J-400000D01*
G01*
X152680000Y-72738201D01*
G75*
G02*
X151587180Y-72445381I-400000J692820D01*
G01*
X151587180Y-72445381D01*
G75*
G02*
X151880000Y-71352561I692820J400000D01*
G01*
G37*
%TD.AperFunction*%
%TO.P,C3,1*%
%TO.N,VCC*%
X144780000Y-59055000D03*
%TD*%
%TO.P,C2,2*%
%TO.N,GND*%
%TA.AperFunction,ComponentPad*%
G36*
G01*
X169660000Y-64685061D02*
X169660000Y-64685061D01*
G75*
G02*
X170752820Y-64977881I400000J-692820D01*
G01*
X170752820Y-64977881D01*
G75*
G02*
X170460000Y-66070701I-692820J-400000D01*
G01*
X170460000Y-66070701D01*
G75*
G02*
X169367180Y-65777881I-400000J692820D01*
G01*
X169367180Y-65777881D01*
G75*
G02*
X169660000Y-64685061I692820J400000D01*
G01*
G37*
%TD.AperFunction*%
%TO.P,C2,1*%
%TO.N,VCC*%
X162560000Y-52387500D03*
%TD*%
D12*
%TO.P,C1,2*%
%TO.N,GND*%
X162560000Y-113107500D03*
D16*
%TO.P,C1,1*%
%TO.N,VCC*%
X162560000Y-98107500D03*
%TD*%
D17*
%TO.N,/A7*%
X42545000Y-119380000D03*
X109220000Y-119380000D03*
%TO.N,/A6*%
X53340000Y-100330000D03*
X116205000Y-116205000D03*
%TO.N,/A5*%
X71120000Y-93980000D03*
X114935000Y-111125000D03*
%TO.N,/A4*%
X120015000Y-107950000D03*
%TO.N,/A3*%
X106680000Y-80010000D03*
X124460000Y-104140000D03*
%TO.N,/A2*%
X129540000Y-99695000D03*
%TO.N,/A1*%
X147320000Y-87630000D03*
%TO.N,/A0*%
X156210000Y-81915000D03*
%TO.N,/E7*%
X44767500Y-80010000D03*
%TO.N,/E6*%
X63182500Y-85090000D03*
X63182500Y-75882500D03*
%TO.N,/E5*%
X78740000Y-79375000D03*
X78740000Y-68580000D03*
%TO.N,/E4*%
X97790000Y-72390000D03*
X97790000Y-59690000D03*
%TO.N,/E3*%
X111125000Y-53975000D03*
X114935000Y-66040000D03*
%TO.N,/E2*%
X132715000Y-59055000D03*
X119380000Y-45720000D03*
%TO.N,/E1*%
X137795000Y-40640000D03*
X151130000Y-53975000D03*
%TO.N,/E0*%
X140335000Y-40640000D03*
%TO.N,/B7*%
X71120000Y-123190000D03*
X41910000Y-123190000D03*
%TO.N,/B6*%
X52070000Y-100965000D03*
X73660000Y-116840000D03*
%TO.N,/B5*%
X69215000Y-94615000D03*
X76200000Y-111760000D03*
%TO.N,/B4*%
X93345000Y-105410000D03*
%TO.N,/B3*%
X104140000Y-80645000D03*
X104140000Y-100965000D03*
%TO.N,/B2*%
X126365000Y-93980000D03*
%TO.N,/B1*%
X144780000Y-83820000D03*
%TO.N,/B0*%
X156210000Y-79375000D03*
%TO.N,/F6*%
X62230000Y-89535000D03*
X60960000Y-71755000D03*
%TO.N,/F5*%
X80645000Y-81915000D03*
X73025000Y-64770000D03*
%TO.N,/F4*%
X78740000Y-60960000D03*
X98311023Y-75565000D03*
%TO.N,/F3*%
X81280000Y-57150000D03*
%TO.N,/F2*%
X83820000Y-51435000D03*
%TO.N,/F1*%
X86360000Y-44450000D03*
%TO.N,/F0*%
X162560000Y-37465000D03*
X88900000Y-38100000D03*
%TO.N,/C7*%
X142240000Y-121920000D03*
X38100000Y-121920000D03*
%TO.N,/C6*%
X50800000Y-101600000D03*
X144780000Y-121920000D03*
%TO.N,/C5*%
X67310000Y-95250000D03*
X147320000Y-121920000D03*
%TO.N,/C4*%
X149860000Y-121920000D03*
%TO.N,/C3*%
X103505000Y-78105000D03*
X152400000Y-121920000D03*
%TO.N,/C2*%
X154940000Y-121920000D03*
%TO.N,/C1*%
X157480000Y-121920000D03*
%TO.N,/C0*%
X160020000Y-121920000D03*
%TO.N,/G7*%
X48260000Y-95885000D03*
X48260000Y-86360000D03*
%TO.N,/G6*%
X63500000Y-90805000D03*
X65405000Y-79375000D03*
%TO.N,/G5*%
X82550000Y-78105000D03*
X82550000Y-73660000D03*
%TO.N,/G4*%
X100330000Y-71755000D03*
X100330000Y-67310000D03*
%TO.N,/G3*%
X117475000Y-65405000D03*
X117475000Y-60960000D03*
%TO.N,/G2*%
X135255000Y-53975000D03*
X135255000Y-58420000D03*
%TO.N,/G1*%
X153035000Y-47625000D03*
X153035000Y-52070000D03*
%TO.N,/~EL*%
X170497500Y-62230000D03*
%TO.N,/D6*%
X49530000Y-102235000D03*
X50800000Y-114935000D03*
%TO.N,/D5*%
X65405000Y-95885000D03*
X62865000Y-108585000D03*
%TO.N,/D4*%
X84455000Y-99060000D03*
%TO.N,/D3*%
X102235000Y-81280000D03*
X104140000Y-91440000D03*
%TO.N,/D2*%
X119380000Y-92075000D03*
%TO.N,/D1*%
X140335000Y-81915000D03*
%TO.N,/D0*%
X152400000Y-77470000D03*
%TO.N,/H7*%
X43180000Y-40640000D03*
%TO.N,/H6*%
X64135000Y-93345000D03*
X45720000Y-40640000D03*
%TO.N,/H5*%
X48260000Y-40640000D03*
X81915000Y-86995000D03*
%TO.N,/H4*%
X50800000Y-40640000D03*
X99535432Y-81280000D03*
%TO.N,/H3*%
X53340000Y-40640000D03*
X117475000Y-74452932D03*
%TO.N,/H2*%
X55880000Y-40640000D03*
%TO.N,/H1*%
X58420000Y-40640000D03*
%TO.N,/H0*%
X60960000Y-40640000D03*
%TO.N,/~EH*%
X104140000Y-93345000D03*
%TO.N,/O0*%
X155575000Y-96520000D03*
%TO.N,/O1*%
X149860000Y-99060000D03*
%TO.N,/O2*%
X137160000Y-99060000D03*
%TO.N,/O3*%
X137160000Y-104140000D03*
%TO.N,/O4*%
X137160000Y-107950000D03*
%TO.N,/O5*%
X137160000Y-111760000D03*
%TO.N,/O6*%
X137160000Y-115570000D03*
%TO.N,/O7*%
X44450000Y-116840000D03*
X137160000Y-120015000D03*
%TD*%
D18*
%TO.N,GND*%
X167640000Y-71755000D02*
X167640000Y-76835000D01*
D19*
X168295000Y-81360000D02*
X172720000Y-81360000D01*
X167435000Y-80500000D02*
X168295000Y-81360000D01*
X167495000Y-76835000D02*
X167495000Y-80500000D01*
D18*
%TO.N,VCC*%
X165417500Y-84772500D02*
X167005000Y-86360000D01*
X167005000Y-86360000D02*
X172720000Y-86360000D01*
X166052500Y-69850000D02*
X165417500Y-70485000D01*
X167005000Y-69850000D02*
X166052500Y-69850000D01*
X165417500Y-70485000D02*
X165417500Y-84772500D01*
X168275000Y-68580000D02*
X167005000Y-69850000D01*
X168275000Y-60325000D02*
X168275000Y-68580000D01*
X162560000Y-54610000D02*
X168275000Y-60325000D01*
X162560000Y-52387500D02*
X162560000Y-54610000D01*
%TO.N,Net-(D1-Pad2)*%
X172085000Y-76835000D02*
X169545000Y-76835000D01*
%TO.N,Net-(D2-Pad2)*%
X172085000Y-74295000D02*
X169545000Y-74295000D01*
%TO.N,Net-(D3-Pad2)*%
X172085000Y-71755000D02*
X169545000Y-71755000D01*
D19*
%TO.N,/A7*%
X96520000Y-120650000D02*
X43815000Y-120650000D01*
X43815000Y-120650000D02*
X42545000Y-119380000D01*
X97790000Y-119380000D02*
X96520000Y-120650000D01*
X109220000Y-119380000D02*
X97790000Y-119380000D01*
%TO.N,/A6*%
X53340000Y-102235000D02*
X53340000Y-100330000D01*
X54610000Y-103505000D02*
X53340000Y-102235000D01*
X54610000Y-111760000D02*
X54610000Y-103505000D01*
X58420000Y-115570000D02*
X54610000Y-111760000D01*
X115570000Y-115570000D02*
X58420000Y-115570000D01*
X116205000Y-116205000D02*
X115570000Y-115570000D01*
%TO.N,/A5*%
X113030000Y-111125000D02*
X114935000Y-111125000D01*
X112395000Y-111760000D02*
X113030000Y-111125000D01*
X80010000Y-111760000D02*
X112395000Y-111760000D01*
X78105000Y-109855000D02*
X80010000Y-111760000D01*
X76835000Y-109855000D02*
X78105000Y-109855000D01*
X74930000Y-107950000D02*
X76835000Y-109855000D01*
X74930000Y-99060000D02*
X74930000Y-107950000D01*
X71120000Y-95250000D02*
X74930000Y-99060000D01*
X71120000Y-93980000D02*
X71120000Y-95250000D01*
%TO.N,/A4*%
X90170000Y-84455000D02*
X90170000Y-84386614D01*
X88900000Y-85725000D02*
X90170000Y-84455000D01*
X88900000Y-90805000D02*
X88900000Y-85725000D01*
X90170000Y-92075000D02*
X88900000Y-90805000D01*
X90170000Y-98425000D02*
X90170000Y-92075000D01*
X99060000Y-107315000D02*
X90170000Y-98425000D01*
X119380000Y-107315000D02*
X99060000Y-107315000D01*
X120015000Y-107950000D02*
X119380000Y-107315000D01*
%TO.N,/A3*%
X108585000Y-102235000D02*
X109855000Y-103505000D01*
X108585000Y-85725000D02*
X108585000Y-102235000D01*
X107950000Y-85090000D02*
X108585000Y-85725000D01*
X107950000Y-81280000D02*
X107950000Y-85090000D01*
X106680000Y-80010000D02*
X107950000Y-81280000D01*
X124460000Y-104140000D02*
X123825000Y-103505000D01*
X109855000Y-103505000D02*
X123825000Y-103505000D01*
%TO.N,/A2*%
X124460000Y-72390000D02*
X125730000Y-71120000D01*
X124460000Y-76835000D02*
X124460000Y-72390000D01*
X126365000Y-78740000D02*
X124460000Y-76835000D01*
X125730000Y-71120000D02*
X125730000Y-71051614D01*
X126365000Y-82550000D02*
X126365000Y-78740000D01*
X129540000Y-85725000D02*
X126365000Y-82550000D01*
X129540000Y-99695000D02*
X129540000Y-85725000D01*
%TO.N,/A1*%
X141888307Y-66005807D02*
X143510000Y-64384114D01*
X141888307Y-69498307D02*
X141888307Y-66005807D01*
X144145000Y-76200000D02*
X144145000Y-71755000D01*
X144145000Y-71755000D02*
X141888307Y-69498307D01*
X147320000Y-79375000D02*
X144145000Y-76200000D01*
X147320000Y-87630000D02*
X147320000Y-79375000D01*
%TO.N,/A0*%
X161290000Y-57785000D02*
X161290000Y-57716614D01*
X160020000Y-59055000D02*
X161290000Y-57785000D01*
X161925000Y-66040000D02*
X160020000Y-64135000D01*
X161925000Y-76200000D02*
X161925000Y-66040000D01*
X156210000Y-81915000D02*
X161925000Y-76200000D01*
X160020000Y-64135000D02*
X160020000Y-59055000D01*
%TO.N,/E7*%
X40889114Y-96179705D02*
X40980295Y-96179705D01*
X44767500Y-92392500D02*
X44767500Y-91757500D01*
X40980295Y-96179705D02*
X44767500Y-92392500D01*
X44767500Y-80010000D02*
X44767500Y-91757500D01*
%TO.N,/E6*%
X63182500Y-85090000D02*
X63182500Y-75882500D01*
X63182500Y-75882500D02*
X63182500Y-75882500D01*
%TO.N,/E5*%
X78740000Y-68580000D02*
X78740000Y-79375000D01*
%TO.N,/E4*%
X97790000Y-59690000D02*
X97790000Y-72390000D01*
%TO.N,/E3*%
X111125000Y-53975000D02*
X111125000Y-57785000D01*
X114935000Y-61595000D02*
X114935000Y-66040000D01*
X111125000Y-57785000D02*
X114935000Y-61595000D01*
%TO.N,/E2*%
X119380000Y-45720000D02*
X132715000Y-59055000D01*
%TO.N,/E1*%
X137795000Y-40640000D02*
X137795000Y-41275000D01*
X137795000Y-41275000D02*
X139065000Y-42545000D01*
X139065000Y-42545000D02*
X144780000Y-48260000D01*
X144780000Y-48260000D02*
X147320000Y-48260000D01*
X147320000Y-48260000D02*
X151130000Y-52070000D01*
X151130000Y-52070000D02*
X151130000Y-53975000D01*
X151130000Y-53975000D02*
X151130000Y-53975000D01*
%TO.N,/E0*%
X166370000Y-48486319D02*
X165349114Y-49507205D01*
X166370000Y-43815000D02*
X166370000Y-48486319D01*
X165735000Y-43180000D02*
X166370000Y-43815000D01*
X163195000Y-43180000D02*
X165735000Y-43180000D01*
X160655000Y-40640000D02*
X163195000Y-43180000D01*
X140335000Y-40640000D02*
X160655000Y-40640000D01*
%TO.N,/B7*%
X71120000Y-123190000D02*
X41910000Y-123190000D01*
%TO.N,/B6*%
X52070000Y-102870000D02*
X52070000Y-100965000D01*
X53340000Y-104140000D02*
X52070000Y-102870000D01*
X53340000Y-112395000D02*
X53340000Y-104140000D01*
X57785000Y-116840000D02*
X53340000Y-112395000D01*
X73660000Y-116840000D02*
X57785000Y-116840000D01*
%TO.N,/B5*%
X69215000Y-95885000D02*
X69215000Y-94615000D01*
X73025000Y-99695000D02*
X69215000Y-95885000D01*
X73025000Y-108585000D02*
X73025000Y-99695000D01*
X76200000Y-111760000D02*
X73025000Y-108585000D01*
%TO.N,/B4*%
X87312500Y-83502500D02*
X87312500Y-91122500D01*
X88628091Y-82186909D02*
X87312500Y-83502500D01*
X87312500Y-91122500D02*
X88900000Y-92710000D01*
X88900000Y-82186909D02*
X88628091Y-82186909D01*
X88900000Y-99695000D02*
X88900000Y-100965000D01*
X88900000Y-92710000D02*
X88900000Y-99695000D01*
X88900000Y-100965000D02*
X93345000Y-105410000D01*
%TO.N,/B3*%
X104140000Y-85090000D02*
X104140000Y-80645000D01*
X106045000Y-86995000D02*
X104140000Y-85090000D01*
X106045000Y-95885000D02*
X106045000Y-99060000D01*
X106045000Y-97155000D02*
X106045000Y-95885000D01*
X106045000Y-95885000D02*
X106045000Y-86995000D01*
X106045000Y-99060000D02*
X104140000Y-100965000D01*
%TO.N,/B2*%
X123190000Y-77470000D02*
X125095000Y-79375000D01*
X123190000Y-70167500D02*
X123190000Y-77470000D01*
X124460000Y-68897500D02*
X123190000Y-70167500D01*
X124460000Y-68851909D02*
X124460000Y-68897500D01*
X126365000Y-86360000D02*
X126365000Y-93980000D01*
X125095000Y-85090000D02*
X126365000Y-86360000D01*
X125095000Y-79375000D02*
X125095000Y-85090000D01*
%TO.N,/B1*%
X140629705Y-63794705D02*
X142240000Y-62184409D01*
X140629705Y-70190295D02*
X140629705Y-63794705D01*
X140675295Y-70190295D02*
X140629705Y-70190295D01*
X142875000Y-72390000D02*
X140675295Y-70190295D01*
X142875000Y-77470000D02*
X142875000Y-72390000D01*
X144780000Y-79375000D02*
X142875000Y-77470000D01*
X144780000Y-83820000D02*
X144780000Y-79375000D01*
%TO.N,/B0*%
X160655000Y-74930000D02*
X160655000Y-66675000D01*
X156210000Y-79375000D02*
X160655000Y-74930000D01*
X160020000Y-55516909D02*
X158386909Y-57150000D01*
X158386909Y-64406909D02*
X158750000Y-64770000D01*
X158386909Y-57150000D02*
X158386909Y-64406909D01*
X160655000Y-66675000D02*
X158750000Y-64770000D01*
%TO.N,/F6*%
X62230000Y-89535000D02*
X62230000Y-89535000D01*
X62230000Y-86995000D02*
X60960000Y-85725000D01*
X62230000Y-89535000D02*
X62230000Y-86995000D01*
X60960000Y-78105000D02*
X60960000Y-85725000D01*
X60960000Y-71755000D02*
X60960000Y-78105000D01*
%TO.N,/F5*%
X80645000Y-74930000D02*
X80645000Y-81915000D01*
X80645000Y-67310000D02*
X80645000Y-74930000D01*
X78105000Y-64770000D02*
X80645000Y-67310000D01*
X73025000Y-64770000D02*
X78105000Y-64770000D01*
%TO.N,/F4*%
X78740000Y-60960000D02*
X80010000Y-60960000D01*
X80010000Y-60960000D02*
X88900000Y-69850000D01*
X88900000Y-69850000D02*
X94615000Y-69850000D01*
X94615000Y-69850000D02*
X98311023Y-75565000D01*
%TO.N,/F3*%
X110944220Y-71300780D02*
X108585000Y-67310000D01*
X108585000Y-67310000D02*
X104140000Y-62865000D01*
X111352849Y-71709409D02*
X110944220Y-71300780D01*
X113279114Y-71709409D02*
X111352849Y-71709409D01*
X98425000Y-57150000D02*
X104140000Y-62865000D01*
X81280000Y-57150000D02*
X98425000Y-57150000D01*
%TO.N,/F2*%
X83820000Y-51435000D02*
X83820000Y-51435000D01*
X116840000Y-51435000D02*
X83820000Y-51435000D01*
X117475000Y-51435000D02*
X116840000Y-51435000D01*
X126365000Y-60325000D02*
X117475000Y-51435000D01*
X129268091Y-65041909D02*
X126365000Y-60325000D01*
X131059114Y-65041909D02*
X129268091Y-65041909D01*
%TO.N,/F1*%
X135255000Y-44450000D02*
X86360000Y-44450000D01*
X143510000Y-52705000D02*
X135255000Y-44450000D01*
X146730591Y-58374409D02*
X143510000Y-52705000D01*
X148839114Y-58374409D02*
X146730591Y-58374409D01*
%TO.N,/F0*%
X99060000Y-38100000D02*
X88900000Y-38100000D01*
X105727500Y-39687500D02*
X100647500Y-39687500D01*
X108585000Y-36830000D02*
X105727500Y-39687500D01*
X161925000Y-36830000D02*
X108585000Y-36830000D01*
X100647500Y-39687500D02*
X99060000Y-38100000D01*
X162560000Y-37465000D02*
X161925000Y-36830000D01*
%TO.N,/S2*%
X174148750Y-71691250D02*
X174085000Y-71755000D01*
X174148750Y-64611250D02*
X174148750Y-71691250D01*
X172969114Y-63431614D02*
X174148750Y-64611250D01*
X172969114Y-62705432D02*
X172969114Y-63431614D01*
%TO.N,/S1*%
X175260000Y-74295000D02*
X174085000Y-74295000D01*
X175577500Y-73977500D02*
X175260000Y-74295000D01*
X175577500Y-62547500D02*
X175577500Y-73977500D01*
X173535727Y-60505727D02*
X175577500Y-62547500D01*
X171699114Y-60505727D02*
X173535727Y-60505727D01*
%TO.N,/S0*%
X175895000Y-53975000D02*
X174625000Y-53975000D01*
X176530000Y-54610000D02*
X175895000Y-53975000D01*
X176530000Y-75882500D02*
X176530000Y-54610000D01*
X175577500Y-76835000D02*
X176530000Y-75882500D01*
X174085000Y-76835000D02*
X175577500Y-76835000D01*
%TO.N,/C7*%
X98425000Y-121920000D02*
X99695000Y-120650000D01*
X98425000Y-121920000D02*
X38100000Y-121920000D01*
X99695000Y-120650000D02*
X106045000Y-120650000D01*
X106045000Y-120650000D02*
X107315000Y-121920000D01*
X142240000Y-121920000D02*
X107315000Y-121920000D01*
%TO.N,/C6*%
X50800000Y-103505000D02*
X50800000Y-101600000D01*
X52070000Y-104775000D02*
X50800000Y-103505000D01*
X57150000Y-118110000D02*
X52070000Y-113030000D01*
X92710000Y-118110000D02*
X57150000Y-118110000D01*
X93980000Y-116840000D02*
X92710000Y-118110000D01*
X52070000Y-113030000D02*
X52070000Y-104775000D01*
X113030000Y-116840000D02*
X93980000Y-116840000D01*
X114300000Y-118110000D02*
X113030000Y-116840000D01*
X140970000Y-118110000D02*
X114300000Y-118110000D01*
X144780000Y-121920000D02*
X140970000Y-118110000D01*
%TO.N,/C5*%
X67310000Y-96520000D02*
X67310000Y-95250000D01*
X71120000Y-100330000D02*
X67310000Y-96520000D01*
X71120000Y-109855000D02*
X71120000Y-100330000D01*
X74295000Y-113030000D02*
X71120000Y-109855000D01*
X118745000Y-113030000D02*
X74295000Y-113030000D01*
X119380000Y-113665000D02*
X118745000Y-113030000D01*
X139065000Y-113665000D02*
X119380000Y-113665000D01*
X147320000Y-121920000D02*
X139065000Y-113665000D01*
%TO.N,/C4*%
X117475000Y-108585000D02*
X118745000Y-109855000D01*
X87630000Y-103505000D02*
X92710000Y-108585000D01*
X92710000Y-108585000D02*
X117475000Y-108585000D01*
X87630000Y-93345000D02*
X87630000Y-103505000D01*
X85725000Y-81915000D02*
X85725000Y-91440000D01*
X87630000Y-80010000D02*
X85725000Y-81915000D01*
X137795000Y-109855000D02*
X149860000Y-121920000D01*
X118745000Y-109855000D02*
X137795000Y-109855000D01*
X85725000Y-91440000D02*
X87630000Y-93345000D01*
X87630000Y-79987205D02*
X87630000Y-80010000D01*
%TO.N,/C3*%
X105410000Y-81280000D02*
X105410000Y-80010000D01*
X106045000Y-81915000D02*
X105410000Y-81280000D01*
X106045000Y-85090000D02*
X106045000Y-81915000D01*
X107315000Y-86360000D02*
X106045000Y-85090000D01*
X122555000Y-104775000D02*
X108585000Y-104775000D01*
X123825000Y-106045000D02*
X122555000Y-104775000D01*
X105410000Y-80010000D02*
X103505000Y-78105000D01*
X108585000Y-104775000D02*
X107315000Y-103505000D01*
X138430000Y-106045000D02*
X123825000Y-106045000D01*
X107315000Y-103505000D02*
X107315000Y-86360000D01*
X140335000Y-107950000D02*
X138430000Y-106045000D01*
X140335000Y-109855000D02*
X140335000Y-107950000D01*
X152400000Y-121920000D02*
X140335000Y-109855000D01*
%TO.N,/C2*%
X142240000Y-109220000D02*
X154940000Y-121920000D01*
X142240000Y-105410000D02*
X142240000Y-109220000D01*
X139065000Y-102235000D02*
X142240000Y-105410000D01*
X123825000Y-97155000D02*
X128905000Y-102235000D01*
X128905000Y-102235000D02*
X139065000Y-102235000D01*
X121920000Y-78105000D02*
X123825000Y-80010000D01*
X123825000Y-80010000D02*
X123825000Y-97155000D01*
X121920000Y-67945000D02*
X121920000Y-78105000D01*
X123190000Y-66675000D02*
X121920000Y-67945000D01*
X123190000Y-66652205D02*
X123190000Y-66675000D01*
%TO.N,/C1*%
X139371103Y-70791103D02*
X139371103Y-61583603D01*
X141605000Y-73025000D02*
X139371103Y-70791103D01*
X142875000Y-80010000D02*
X141605000Y-78740000D01*
X142875000Y-90170000D02*
X142875000Y-80010000D01*
X139371103Y-61583603D02*
X140970000Y-59984705D01*
X141605000Y-78740000D02*
X141605000Y-73025000D01*
X144145000Y-91440000D02*
X142875000Y-90170000D01*
X144145000Y-108585000D02*
X144145000Y-91440000D01*
X157480000Y-121920000D02*
X144145000Y-108585000D01*
%TO.N,/C0*%
X160020000Y-121920000D02*
X160020000Y-121920000D01*
X158115000Y-53975000D02*
X158115000Y-53952205D01*
X156845000Y-55245000D02*
X158115000Y-53975000D01*
X156845000Y-64770000D02*
X156845000Y-55245000D01*
X159385000Y-67310000D02*
X156845000Y-64770000D01*
X159385000Y-73660000D02*
X159385000Y-67310000D01*
X153035000Y-80010000D02*
X159385000Y-73660000D01*
X158115000Y-53952205D02*
X158750000Y-53317205D01*
X153035000Y-114935000D02*
X153035000Y-80010000D01*
X160020000Y-121920000D02*
X153035000Y-114935000D01*
%TO.N,/G7*%
X48260000Y-95885000D02*
X48260000Y-86360000D01*
%TO.N,/G6*%
X63500000Y-90805000D02*
X65405000Y-88900000D01*
X65405000Y-88900000D02*
X65405000Y-79375000D01*
X65405000Y-79375000D02*
X65405000Y-79375000D01*
%TO.N,/G5*%
X82550000Y-73660000D02*
X82550000Y-78105000D01*
%TO.N,/G4*%
X100330000Y-71755000D02*
X100330000Y-67310000D01*
X100330000Y-67310000D02*
X100330000Y-67310000D01*
%TO.N,/G3*%
X117475000Y-60960000D02*
X117475000Y-65405000D01*
%TO.N,/G2*%
X135255000Y-53975000D02*
X135255000Y-58420000D01*
%TO.N,/G1*%
X153035000Y-47625000D02*
X153035000Y-52070000D01*
%TO.N,/~EL*%
X169989500Y-61722000D02*
X170497500Y-62230000D01*
X169989500Y-60134500D02*
X169989500Y-61722000D01*
X172085000Y-58737500D02*
X169989500Y-60134500D01*
X172085000Y-47625000D02*
X172085000Y-58737500D01*
%TO.N,/D6*%
X50800000Y-105410000D02*
X50800000Y-114935000D01*
X49530000Y-104140000D02*
X50800000Y-105410000D01*
X49530000Y-102235000D02*
X49530000Y-104140000D01*
%TO.N,/D5*%
X65405000Y-97155000D02*
X65405000Y-95885000D01*
X69215000Y-100965000D02*
X65405000Y-97155000D01*
X64770000Y-108585000D02*
X69215000Y-104140000D01*
X69215000Y-104140000D02*
X69215000Y-100965000D01*
X62865000Y-108585000D02*
X64770000Y-108585000D01*
%TO.N,/D4*%
X84137500Y-87947500D02*
X84137500Y-90805000D01*
X84137500Y-90805000D02*
X84137500Y-92075000D01*
X84137500Y-92075000D02*
X86360000Y-94297500D01*
X86360000Y-94297500D02*
X86360000Y-97155000D01*
X86360000Y-97155000D02*
X84455000Y-99060000D01*
X84137500Y-80010000D02*
X84137500Y-87947500D01*
X86360000Y-77787500D02*
X84137500Y-80010000D01*
%TO.N,/D3*%
X102235000Y-81280000D02*
X102235000Y-85090000D01*
X102235000Y-85090000D02*
X104775000Y-87630000D01*
X104775000Y-87630000D02*
X104775000Y-90805000D01*
X104775000Y-90805000D02*
X104140000Y-91440000D01*
%TO.N,/D2*%
X121602500Y-64452500D02*
X121920000Y-64452500D01*
X120650000Y-65405000D02*
X121602500Y-64452500D01*
X120650000Y-79375000D02*
X120650000Y-65405000D01*
X122555000Y-81280000D02*
X120650000Y-79375000D01*
X122555000Y-83820000D02*
X122555000Y-81280000D01*
X122555000Y-83820000D02*
X122555000Y-88900000D01*
X122555000Y-88900000D02*
X119380000Y-92075000D01*
X119380000Y-92075000D02*
X119380000Y-92075000D01*
%TO.N,/D1*%
X138112500Y-59372500D02*
X139700000Y-57785000D01*
X138112500Y-71437500D02*
X138112500Y-59372500D01*
X140335000Y-73660000D02*
X138112500Y-71437500D01*
X140335000Y-81915000D02*
X140335000Y-73660000D01*
%TO.N,/D0*%
X158115000Y-71755000D02*
X158115000Y-71755000D01*
X158115000Y-67945000D02*
X158115000Y-71755000D01*
X155416250Y-65246250D02*
X158115000Y-67945000D01*
X155416250Y-53181250D02*
X155416250Y-65246250D01*
X158115000Y-71755000D02*
X152400000Y-77470000D01*
X157480000Y-51117500D02*
X155416250Y-53181250D01*
%TO.N,/H7*%
X46355000Y-76200000D02*
X46355000Y-99695000D01*
X43180000Y-73025000D02*
X46355000Y-76200000D01*
X43180000Y-40640000D02*
X43180000Y-73025000D01*
X44699114Y-102778818D02*
X45176182Y-102778818D01*
X46355000Y-101600000D02*
X46355000Y-99695000D01*
X45176182Y-102778818D02*
X46355000Y-101600000D01*
%TO.N,/H6*%
X62865000Y-93345000D02*
X64135000Y-93345000D01*
X59055000Y-86360000D02*
X62865000Y-93345000D01*
X59055000Y-53975000D02*
X59055000Y-86360000D01*
X45720000Y-40640000D02*
X59055000Y-53975000D01*
%TO.N,/H5*%
X70728191Y-68971809D02*
X81915000Y-86995000D01*
X70728191Y-63108191D02*
X70728191Y-68971809D01*
X48260000Y-40640000D02*
X70728191Y-63108191D01*
%TO.N,/H4*%
X99535432Y-81280000D02*
X99535432Y-81280000D01*
X93980000Y-71755000D02*
X99535432Y-81280000D01*
X87630000Y-71755000D02*
X93980000Y-71755000D01*
X78740000Y-62865000D02*
X87630000Y-71755000D01*
X73025000Y-62865000D02*
X78740000Y-62865000D01*
X50800000Y-40640000D02*
X73025000Y-62865000D01*
%TO.N,/H3*%
X111760000Y-64770000D02*
X117475000Y-74452932D01*
X102235000Y-55245000D02*
X111760000Y-64770000D01*
X67945000Y-55245000D02*
X102235000Y-55245000D01*
X53340000Y-40640000D02*
X67945000Y-55245000D01*
%TO.N,/H2*%
X133599114Y-69441318D02*
X135175216Y-67865216D01*
X61595000Y-46355000D02*
X61595000Y-46355000D01*
X61595000Y-46355000D02*
X61595000Y-46355000D01*
X129540000Y-58420000D02*
X135175216Y-67865216D01*
X117475000Y-46355000D02*
X129540000Y-58420000D01*
X61595000Y-46355000D02*
X117475000Y-46355000D01*
X55880000Y-40640000D02*
X61595000Y-46355000D01*
%TO.N,/H1*%
X151379114Y-62773818D02*
X153035000Y-61117932D01*
X60325000Y-42545000D02*
X58420000Y-40640000D01*
X135890000Y-42545000D02*
X60325000Y-42545000D01*
X143510000Y-50165000D02*
X135890000Y-42545000D01*
X146050000Y-50165000D02*
X143510000Y-50165000D01*
X147320000Y-51435000D02*
X146050000Y-50165000D01*
X153035000Y-61117932D02*
X147320000Y-51435000D01*
%TO.N,/H0*%
X169159114Y-56106318D02*
X170815000Y-54450432D01*
X167640486Y-48895486D02*
X170815000Y-54450432D01*
X166370000Y-40640000D02*
X167640486Y-41910486D01*
X163195000Y-40640000D02*
X166370000Y-40640000D01*
X161290000Y-38735000D02*
X163195000Y-40640000D01*
X109855000Y-38735000D02*
X161290000Y-38735000D01*
X167640486Y-41910486D02*
X167640486Y-48895486D01*
X107950000Y-40640000D02*
X109855000Y-38735000D01*
X60960000Y-40640000D02*
X107950000Y-40640000D01*
%TO.N,/~EH*%
X93980000Y-90985727D02*
X96065727Y-90985727D01*
X96065727Y-90985727D02*
X97155000Y-92075000D01*
X97155000Y-92075000D02*
X97155000Y-92710000D01*
X97155000Y-92710000D02*
X99060000Y-94615000D01*
X99060000Y-94615000D02*
X102870000Y-94615000D01*
X102870000Y-94615000D02*
X104140000Y-93345000D01*
X104140000Y-93345000D02*
X104140000Y-93345000D01*
%TO.N,/O0*%
X155575000Y-96520000D02*
X155575000Y-96520000D01*
X155575000Y-85090000D02*
X155575000Y-96520000D01*
X163195000Y-77470000D02*
X155575000Y-85090000D01*
X163195000Y-65405000D02*
X163195000Y-77470000D01*
X161290000Y-63500000D02*
X163195000Y-65405000D01*
X161290000Y-61186318D02*
X161290000Y-63500000D01*
X162560000Y-59916318D02*
X161290000Y-61186318D01*
%TO.N,/O1*%
X149860000Y-99060000D02*
X149860000Y-99060000D01*
X144780000Y-66675000D02*
X144780000Y-66583818D01*
X143192500Y-68262500D02*
X144780000Y-66675000D01*
X143192500Y-68897500D02*
X143192500Y-68262500D01*
X145415000Y-71120000D02*
X143192500Y-68897500D01*
X145415000Y-74930000D02*
X145415000Y-71120000D01*
X149860000Y-79375000D02*
X145415000Y-74930000D01*
X149860000Y-99060000D02*
X149860000Y-79375000D01*
%TO.N,/O2*%
X132080000Y-96520000D02*
X133350000Y-97790000D01*
X127000000Y-73251318D02*
X126773682Y-73251318D01*
X126773682Y-73251318D02*
X125730000Y-74295000D01*
X125730000Y-74295000D02*
X125730000Y-76200000D01*
X125730000Y-76200000D02*
X127635000Y-78105000D01*
X127635000Y-78105000D02*
X127635000Y-81915000D01*
X127635000Y-81915000D02*
X132080000Y-86360000D01*
X132080000Y-86360000D02*
X132080000Y-96520000D01*
X134620000Y-99060000D02*
X133350000Y-97790000D01*
X137160000Y-99060000D02*
X134620000Y-99060000D01*
%TO.N,/O3*%
X110398818Y-78740000D02*
X109220000Y-79918818D01*
X110490000Y-78740000D02*
X110398818Y-78740000D01*
X114935000Y-83185000D02*
X110490000Y-78740000D01*
X114935000Y-90805000D02*
X114935000Y-83185000D01*
X128270000Y-104140000D02*
X114935000Y-90805000D01*
X137160000Y-104140000D02*
X128270000Y-104140000D01*
%TO.N,/O4*%
X91440000Y-97155000D02*
X100330000Y-106045000D01*
X100330000Y-106045000D02*
X121285000Y-106045000D01*
X91440000Y-90805000D02*
X91440000Y-97155000D01*
X90170000Y-89535000D02*
X91440000Y-90805000D01*
X123190000Y-107950000D02*
X137160000Y-107950000D01*
X90170000Y-87630000D02*
X90170000Y-89535000D01*
X91213682Y-86586318D02*
X90170000Y-87630000D01*
X121285000Y-106045000D02*
X123190000Y-107950000D01*
X91440000Y-86586318D02*
X91213682Y-86586318D01*
%TO.N,/O5*%
X137160000Y-111760000D02*
X137160000Y-111760000D01*
X74838818Y-92075000D02*
X73660000Y-93253818D01*
X74930000Y-92075000D02*
X74838818Y-92075000D01*
X79375000Y-107315000D02*
X79375000Y-96520000D01*
X81915000Y-109855000D02*
X79375000Y-107315000D01*
X116205000Y-109855000D02*
X81915000Y-109855000D01*
X118110000Y-111760000D02*
X116205000Y-109855000D01*
X79375000Y-96520000D02*
X74930000Y-92075000D01*
X137160000Y-111760000D02*
X118110000Y-111760000D01*
%TO.N,/O6*%
X137160000Y-115570000D02*
X137160000Y-115570000D01*
X57467500Y-98742500D02*
X57150000Y-98742500D01*
X61595000Y-102870000D02*
X57467500Y-98742500D01*
X57150000Y-98742500D02*
X55971182Y-99921318D01*
X61595000Y-107315000D02*
X61595000Y-102870000D01*
X59690000Y-109220000D02*
X61595000Y-107315000D01*
X55971182Y-99921318D02*
X55880000Y-99921318D01*
X61595000Y-114300000D02*
X59690000Y-112395000D01*
X117475000Y-114300000D02*
X61595000Y-114300000D01*
X59690000Y-112395000D02*
X59690000Y-109220000D01*
X118745000Y-115570000D02*
X117475000Y-114300000D01*
X137160000Y-115570000D02*
X118745000Y-115570000D01*
%TO.N,/O7*%
X135890000Y-120015000D02*
X135890000Y-120015000D01*
X95885000Y-118110000D02*
X111760000Y-118110000D01*
X111760000Y-118110000D02*
X113665000Y-120015000D01*
X94615000Y-119380000D02*
X95885000Y-118110000D01*
X113665000Y-120015000D02*
X135890000Y-120015000D01*
X49530000Y-119380000D02*
X94615000Y-119380000D01*
X46990000Y-116840000D02*
X49530000Y-119380000D01*
X44450000Y-116840000D02*
X46990000Y-116840000D01*
X137160000Y-120015000D02*
X135890000Y-120015000D01*
%TD*%
M02*
