%TF.GenerationSoftware,KiCad,Pcbnew,(5.1.8)-1*%
%TF.CreationDate,2023-02-18T12:33:22+03:00*%
%TF.ProjectId,MUX4x1,4d555834-7831-42e6-9b69-6361645f7063,rev?*%
%TF.SameCoordinates,Original*%
%TF.FileFunction,Copper,L2,Bot*%
%TF.FilePolarity,Positive*%
%FSLAX46Y46*%
G04 Gerber Fmt 4.6, Leading zero omitted, Abs format (unit mm)*
G04 Created by KiCad (PCBNEW (5.1.8)-1) date 2023-02-18 12:33:22*
%MOMM*%
%LPD*%
G01*
G04 APERTURE LIST*
%TA.AperFunction,ComponentPad*%
%ADD10O,1.900000X1.900000*%
%TD*%
%TA.AperFunction,ComponentPad*%
%ADD11R,1.900000X1.900000*%
%TD*%
%TA.AperFunction,ComponentPad*%
%ADD12O,2.200000X2.200000*%
%TD*%
%TA.AperFunction,ComponentPad*%
%ADD13R,2.200000X2.200000*%
%TD*%
%TA.AperFunction,ComponentPad*%
%ADD14O,1.800000X1.500000*%
%TD*%
%TA.AperFunction,ComponentPad*%
%ADD15R,1.800000X1.500000*%
%TD*%
%TA.AperFunction,ComponentPad*%
%ADD16O,2.000000X1.500000*%
%TD*%
%TA.AperFunction,ComponentPad*%
%ADD17R,2.000000X1.500000*%
%TD*%
%TA.AperFunction,ComponentPad*%
%ADD18R,2.600000X2.600000*%
%TD*%
%TA.AperFunction,ComponentPad*%
%ADD19C,2.600000*%
%TD*%
%TA.AperFunction,ComponentPad*%
%ADD20R,1.600000X1.600000*%
%TD*%
%TA.AperFunction,ComponentPad*%
%ADD21O,1.600000X1.600000*%
%TD*%
%TA.AperFunction,ViaPad*%
%ADD22C,1.500000*%
%TD*%
%TA.AperFunction,Conductor*%
%ADD23C,0.800000*%
%TD*%
%TA.AperFunction,Conductor*%
%ADD24C,0.500000*%
%TD*%
%TA.AperFunction,Conductor*%
%ADD25C,1.000000*%
%TD*%
%TA.AperFunction,Conductor*%
%ADD26C,0.600000*%
%TD*%
G04 APERTURE END LIST*
D10*
%TO.P,J14,3*%
%TO.N,/~E*%
X134620000Y-114300000D03*
%TO.P,J14,2*%
%TO.N,/S1*%
X137160000Y-114300000D03*
D11*
%TO.P,J14,1*%
%TO.N,/S0*%
X139700000Y-114300000D03*
%TD*%
%TO.P,R5,2*%
%TO.N,/~OE*%
%TA.AperFunction,SMDPad,CuDef*%
G36*
G01*
X129089999Y-111525000D02*
X129990001Y-111525000D01*
G75*
G02*
X130240000Y-111774999I0J-249999D01*
G01*
X130240000Y-112475001D01*
G75*
G02*
X129990001Y-112725000I-249999J0D01*
G01*
X129089999Y-112725000D01*
G75*
G02*
X128840000Y-112475001I0J249999D01*
G01*
X128840000Y-111774999D01*
G75*
G02*
X129089999Y-111525000I249999J0D01*
G01*
G37*
%TD.AperFunction*%
%TO.P,R5,1*%
%TO.N,GND*%
%TA.AperFunction,SMDPad,CuDef*%
G36*
G01*
X129089999Y-109525000D02*
X129990001Y-109525000D01*
G75*
G02*
X130240000Y-109774999I0J-249999D01*
G01*
X130240000Y-110475001D01*
G75*
G02*
X129990001Y-110725000I-249999J0D01*
G01*
X129089999Y-110725000D01*
G75*
G02*
X128840000Y-110475001I0J249999D01*
G01*
X128840000Y-109774999D01*
G75*
G02*
X129089999Y-109525000I249999J0D01*
G01*
G37*
%TD.AperFunction*%
%TD*%
%TO.P,J13,1*%
%TO.N,/~OE*%
X129540000Y-114300000D03*
%TD*%
%TO.P,C3,2*%
%TO.N,GND*%
%TA.AperFunction,SMDPad,CuDef*%
G36*
G01*
X120835000Y-110015000D02*
X120835000Y-110965000D01*
G75*
G02*
X120585000Y-111215000I-250000J0D01*
G01*
X119910000Y-111215000D01*
G75*
G02*
X119660000Y-110965000I0J250000D01*
G01*
X119660000Y-110015000D01*
G75*
G02*
X119910000Y-109765000I250000J0D01*
G01*
X120585000Y-109765000D01*
G75*
G02*
X120835000Y-110015000I0J-250000D01*
G01*
G37*
%TD.AperFunction*%
%TO.P,C3,1*%
%TO.N,VCC*%
%TA.AperFunction,SMDPad,CuDef*%
G36*
G01*
X122910000Y-110015000D02*
X122910000Y-110965000D01*
G75*
G02*
X122660000Y-111215000I-250000J0D01*
G01*
X121985000Y-111215000D01*
G75*
G02*
X121735000Y-110965000I0J250000D01*
G01*
X121735000Y-110015000D01*
G75*
G02*
X121985000Y-109765000I250000J0D01*
G01*
X122660000Y-109765000D01*
G75*
G02*
X122910000Y-110015000I0J-250000D01*
G01*
G37*
%TD.AperFunction*%
%TD*%
D12*
%TO.P,J12,9*%
%TO.N,/BUS7*%
X121920000Y-121602500D03*
%TO.P,J12,8*%
%TO.N,/BUS6*%
X119380000Y-121602500D03*
%TO.P,J12,7*%
%TO.N,/BUS5*%
X116840000Y-121602500D03*
%TO.P,J12,6*%
%TO.N,/BUS4*%
X114300000Y-121602500D03*
%TO.P,J12,5*%
%TO.N,/BUS3*%
X111760000Y-121602500D03*
%TO.P,J12,4*%
%TO.N,/BUS2*%
X109220000Y-121602500D03*
%TO.P,J12,3*%
%TO.N,/BUS1*%
X106680000Y-121602500D03*
%TO.P,J12,2*%
%TO.N,/BUS0*%
X104140000Y-121602500D03*
D13*
%TO.P,J12,1*%
%TO.N,GND*%
X101600000Y-121602500D03*
%TD*%
D12*
%TO.P,J11,9*%
%TO.N,/D7*%
X156210000Y-81280000D03*
%TO.P,J11,8*%
%TO.N,/D6*%
X156210000Y-78740000D03*
%TO.P,J11,7*%
%TO.N,/D5*%
X156210000Y-76200000D03*
%TO.P,J11,6*%
%TO.N,/D4*%
X156210000Y-73660000D03*
%TO.P,J11,5*%
%TO.N,/D3*%
X156210000Y-71120000D03*
%TO.P,J11,4*%
%TO.N,/D2*%
X156210000Y-68580000D03*
%TO.P,J11,3*%
%TO.N,/D1*%
X156210000Y-66040000D03*
%TO.P,J11,2*%
%TO.N,/D0*%
X156210000Y-63500000D03*
D13*
%TO.P,J11,1*%
%TO.N,GND*%
X156210000Y-60960000D03*
%TD*%
D12*
%TO.P,J10,9*%
%TO.N,/C7*%
X73660000Y-81280000D03*
%TO.P,J10,8*%
%TO.N,/C6*%
X73660000Y-78740000D03*
%TO.P,J10,7*%
%TO.N,/C5*%
X73660000Y-76200000D03*
%TO.P,J10,6*%
%TO.N,/C4*%
X73660000Y-73660000D03*
%TO.P,J10,5*%
%TO.N,/C3*%
X73660000Y-71120000D03*
%TO.P,J10,4*%
%TO.N,/C2*%
X73660000Y-68580000D03*
%TO.P,J10,3*%
%TO.N,/C1*%
X73660000Y-66040000D03*
%TO.P,J10,2*%
%TO.N,/C0*%
X73660000Y-63500000D03*
D13*
%TO.P,J10,1*%
%TO.N,GND*%
X73660000Y-60960000D03*
%TD*%
D12*
%TO.P,J9,9*%
%TO.N,/B7*%
X156210000Y-106680000D03*
%TO.P,J9,8*%
%TO.N,/B6*%
X156210000Y-104140000D03*
%TO.P,J9,7*%
%TO.N,/B5*%
X156210000Y-101600000D03*
%TO.P,J9,6*%
%TO.N,/B4*%
X156210000Y-99060000D03*
%TO.P,J9,5*%
%TO.N,/B3*%
X156210000Y-96520000D03*
%TO.P,J9,4*%
%TO.N,/B2*%
X156210000Y-93980000D03*
%TO.P,J9,3*%
%TO.N,/B1*%
X156210000Y-91440000D03*
%TO.P,J9,2*%
%TO.N,/B0*%
X156210000Y-88900000D03*
D13*
%TO.P,J9,1*%
%TO.N,GND*%
X156210000Y-86360000D03*
%TD*%
D12*
%TO.P,J8,9*%
%TO.N,/A7*%
X73660000Y-106680000D03*
%TO.P,J8,8*%
%TO.N,/A6*%
X73660000Y-104140000D03*
%TO.P,J8,7*%
%TO.N,/A5*%
X73660000Y-101600000D03*
%TO.P,J8,6*%
%TO.N,/A4*%
X73660000Y-99060000D03*
%TO.P,J8,5*%
%TO.N,/A3*%
X73660000Y-96520000D03*
%TO.P,J8,4*%
%TO.N,/A2*%
X73660000Y-93980000D03*
%TO.P,J8,3*%
%TO.N,/A1*%
X73660000Y-91440000D03*
%TO.P,J8,2*%
%TO.N,/A0*%
X73660000Y-88900000D03*
D13*
%TO.P,J8,1*%
%TO.N,GND*%
X73660000Y-86360000D03*
%TD*%
D14*
%TO.P,U2,16*%
%TO.N,VCC*%
X110490000Y-73660000D03*
%TO.P,U2,8*%
%TO.N,GND*%
X102870000Y-91440000D03*
%TO.P,U2,15*%
%TO.N,/~E*%
X110490000Y-76200000D03*
%TO.P,U2,7*%
%TO.N,/O2*%
X102870000Y-88900000D03*
%TO.P,U2,14*%
%TO.N,/S0*%
X110490000Y-78740000D03*
%TO.P,U2,6*%
%TO.N,/A2*%
X102870000Y-86360000D03*
%TO.P,U2,13*%
%TO.N,/D3*%
X110490000Y-81280000D03*
%TO.P,U2,5*%
%TO.N,/B2*%
X102870000Y-83820000D03*
%TO.P,U2,12*%
%TO.N,/C3*%
X110490000Y-83820000D03*
%TO.P,U2,4*%
%TO.N,/C2*%
X102870000Y-81280000D03*
%TO.P,U2,11*%
%TO.N,/B3*%
X110490000Y-86360000D03*
%TO.P,U2,3*%
%TO.N,/D2*%
X102870000Y-78740000D03*
%TO.P,U2,10*%
%TO.N,/A3*%
X110490000Y-88900000D03*
%TO.P,U2,2*%
%TO.N,/S1*%
X102870000Y-76200000D03*
%TO.P,U2,9*%
%TO.N,/O3*%
X110490000Y-91440000D03*
D15*
%TO.P,U2,1*%
%TO.N,/~E*%
X102870000Y-73660000D03*
%TD*%
D16*
%TO.P,J7,3*%
%TO.N,/~E*%
X145732500Y-74295000D03*
%TO.P,J7,2*%
%TO.N,/S1*%
X145732500Y-76835000D03*
D17*
%TO.P,J7,1*%
%TO.N,/S0*%
X145732500Y-79375000D03*
%TD*%
D18*
%TO.P,J1,1*%
%TO.N,VCC*%
X83185000Y-104775000D03*
D19*
%TO.P,J1,2*%
%TO.N,GND*%
X88185000Y-104775000D03*
%TD*%
D13*
%TO.P,J2,1*%
%TO.N,GND*%
X76835000Y-86360000D03*
D12*
%TO.P,J2,2*%
%TO.N,/A0*%
X76835000Y-88900000D03*
%TO.P,J2,3*%
%TO.N,/A1*%
X76835000Y-91440000D03*
%TO.P,J2,4*%
%TO.N,/A2*%
X76835000Y-93980000D03*
%TO.P,J2,5*%
%TO.N,/A3*%
X76835000Y-96520000D03*
%TO.P,J2,6*%
%TO.N,/A4*%
X76835000Y-99060000D03*
%TO.P,J2,7*%
%TO.N,/A5*%
X76835000Y-101600000D03*
%TO.P,J2,8*%
%TO.N,/A6*%
X76835000Y-104140000D03*
%TO.P,J2,9*%
%TO.N,/A7*%
X76835000Y-106680000D03*
%TD*%
%TO.P,J3,9*%
%TO.N,/B7*%
X153035000Y-106680000D03*
%TO.P,J3,8*%
%TO.N,/B6*%
X153035000Y-104140000D03*
%TO.P,J3,7*%
%TO.N,/B5*%
X153035000Y-101600000D03*
%TO.P,J3,6*%
%TO.N,/B4*%
X153035000Y-99060000D03*
%TO.P,J3,5*%
%TO.N,/B3*%
X153035000Y-96520000D03*
%TO.P,J3,4*%
%TO.N,/B2*%
X153035000Y-93980000D03*
%TO.P,J3,3*%
%TO.N,/B1*%
X153035000Y-91440000D03*
%TO.P,J3,2*%
%TO.N,/B0*%
X153035000Y-88900000D03*
D13*
%TO.P,J3,1*%
%TO.N,GND*%
X153035000Y-86360000D03*
%TD*%
%TO.P,J4,1*%
%TO.N,GND*%
X76835000Y-60960000D03*
D12*
%TO.P,J4,2*%
%TO.N,/C0*%
X76835000Y-63500000D03*
%TO.P,J4,3*%
%TO.N,/C1*%
X76835000Y-66040000D03*
%TO.P,J4,4*%
%TO.N,/C2*%
X76835000Y-68580000D03*
%TO.P,J4,5*%
%TO.N,/C3*%
X76835000Y-71120000D03*
%TO.P,J4,6*%
%TO.N,/C4*%
X76835000Y-73660000D03*
%TO.P,J4,7*%
%TO.N,/C5*%
X76835000Y-76200000D03*
%TO.P,J4,8*%
%TO.N,/C6*%
X76835000Y-78740000D03*
%TO.P,J4,9*%
%TO.N,/C7*%
X76835000Y-81280000D03*
%TD*%
%TO.P,J5,9*%
%TO.N,/D7*%
X153035000Y-81280000D03*
%TO.P,J5,8*%
%TO.N,/D6*%
X153035000Y-78740000D03*
%TO.P,J5,7*%
%TO.N,/D5*%
X153035000Y-76200000D03*
%TO.P,J5,6*%
%TO.N,/D4*%
X153035000Y-73660000D03*
%TO.P,J5,5*%
%TO.N,/D3*%
X153035000Y-71120000D03*
%TO.P,J5,4*%
%TO.N,/D2*%
X153035000Y-68580000D03*
%TO.P,J5,3*%
%TO.N,/D1*%
X153035000Y-66040000D03*
%TO.P,J5,2*%
%TO.N,/D0*%
X153035000Y-63500000D03*
D13*
%TO.P,J5,1*%
%TO.N,GND*%
X153035000Y-60960000D03*
%TD*%
%TO.P,J6,1*%
%TO.N,GND*%
X101600000Y-118745000D03*
D12*
%TO.P,J6,2*%
%TO.N,/BUS0*%
X104140000Y-118745000D03*
%TO.P,J6,3*%
%TO.N,/BUS1*%
X106680000Y-118745000D03*
%TO.P,J6,4*%
%TO.N,/BUS2*%
X109220000Y-118745000D03*
%TO.P,J6,5*%
%TO.N,/BUS3*%
X111760000Y-118745000D03*
%TO.P,J6,6*%
%TO.N,/BUS4*%
X114300000Y-118745000D03*
%TO.P,J6,7*%
%TO.N,/BUS5*%
X116840000Y-118745000D03*
%TO.P,J6,8*%
%TO.N,/BUS6*%
X119380000Y-118745000D03*
%TO.P,J6,9*%
%TO.N,/BUS7*%
X121920000Y-118745000D03*
%TD*%
D15*
%TO.P,U1,1*%
%TO.N,/~E*%
X87630000Y-73660000D03*
D14*
%TO.P,U1,9*%
%TO.N,/O1*%
X95250000Y-91440000D03*
%TO.P,U1,2*%
%TO.N,/S1*%
X87630000Y-76200000D03*
%TO.P,U1,10*%
%TO.N,/A1*%
X95250000Y-88900000D03*
%TO.P,U1,3*%
%TO.N,/D0*%
X87630000Y-78740000D03*
%TO.P,U1,11*%
%TO.N,/B1*%
X95250000Y-86360000D03*
%TO.P,U1,4*%
%TO.N,/C0*%
X87630000Y-81280000D03*
%TO.P,U1,12*%
%TO.N,/C1*%
X95250000Y-83820000D03*
%TO.P,U1,5*%
%TO.N,/B0*%
X87630000Y-83820000D03*
%TO.P,U1,13*%
%TO.N,/D1*%
X95250000Y-81280000D03*
%TO.P,U1,6*%
%TO.N,/A0*%
X87630000Y-86360000D03*
%TO.P,U1,14*%
%TO.N,/S0*%
X95250000Y-78740000D03*
%TO.P,U1,7*%
%TO.N,/O0*%
X87630000Y-88900000D03*
%TO.P,U1,15*%
%TO.N,/~E*%
X95250000Y-76200000D03*
%TO.P,U1,8*%
%TO.N,GND*%
X87630000Y-91440000D03*
%TO.P,U1,16*%
%TO.N,VCC*%
X95250000Y-73660000D03*
%TD*%
D15*
%TO.P,U3,1*%
%TO.N,/~E*%
X118110000Y-73660000D03*
D14*
%TO.P,U3,9*%
%TO.N,/O5*%
X125730000Y-91440000D03*
%TO.P,U3,2*%
%TO.N,/S1*%
X118110000Y-76200000D03*
%TO.P,U3,10*%
%TO.N,/A5*%
X125730000Y-88900000D03*
%TO.P,U3,3*%
%TO.N,/D4*%
X118110000Y-78740000D03*
%TO.P,U3,11*%
%TO.N,/B5*%
X125730000Y-86360000D03*
%TO.P,U3,4*%
%TO.N,/C4*%
X118110000Y-81280000D03*
%TO.P,U3,12*%
%TO.N,/C5*%
X125730000Y-83820000D03*
%TO.P,U3,5*%
%TO.N,/B4*%
X118110000Y-83820000D03*
%TO.P,U3,13*%
%TO.N,/D5*%
X125730000Y-81280000D03*
%TO.P,U3,6*%
%TO.N,/A4*%
X118110000Y-86360000D03*
%TO.P,U3,14*%
%TO.N,/S0*%
X125730000Y-78740000D03*
%TO.P,U3,7*%
%TO.N,/O4*%
X118110000Y-88900000D03*
%TO.P,U3,15*%
%TO.N,/~E*%
X125730000Y-76200000D03*
%TO.P,U3,8*%
%TO.N,GND*%
X118110000Y-91440000D03*
%TO.P,U3,16*%
%TO.N,VCC*%
X125730000Y-73660000D03*
%TD*%
%TO.P,U4,16*%
%TO.N,VCC*%
X140970000Y-73660000D03*
%TO.P,U4,8*%
%TO.N,GND*%
X133350000Y-91440000D03*
%TO.P,U4,15*%
%TO.N,/~E*%
X140970000Y-76200000D03*
%TO.P,U4,7*%
%TO.N,/O6*%
X133350000Y-88900000D03*
%TO.P,U4,14*%
%TO.N,/S0*%
X140970000Y-78740000D03*
%TO.P,U4,6*%
%TO.N,/A6*%
X133350000Y-86360000D03*
%TO.P,U4,13*%
%TO.N,/D7*%
X140970000Y-81280000D03*
%TO.P,U4,5*%
%TO.N,/B6*%
X133350000Y-83820000D03*
%TO.P,U4,12*%
%TO.N,/C7*%
X140970000Y-83820000D03*
%TO.P,U4,4*%
%TO.N,/C6*%
X133350000Y-81280000D03*
%TO.P,U4,11*%
%TO.N,/B7*%
X140970000Y-86360000D03*
%TO.P,U4,3*%
%TO.N,/D6*%
X133350000Y-78740000D03*
%TO.P,U4,10*%
%TO.N,/A7*%
X140970000Y-88900000D03*
%TO.P,U4,2*%
%TO.N,/S1*%
X133350000Y-76200000D03*
%TO.P,U4,9*%
%TO.N,/O7*%
X140970000Y-91440000D03*
D15*
%TO.P,U4,1*%
%TO.N,/~E*%
X133350000Y-73660000D03*
%TD*%
%TO.P,R4,1*%
%TO.N,Net-(R4-Pad1)*%
%TA.AperFunction,SMDPad,CuDef*%
G36*
G01*
X124009999Y-108890000D02*
X124910001Y-108890000D01*
G75*
G02*
X125160000Y-109139999I0J-249999D01*
G01*
X125160000Y-109840001D01*
G75*
G02*
X124910001Y-110090000I-249999J0D01*
G01*
X124009999Y-110090000D01*
G75*
G02*
X123760000Y-109840001I0J249999D01*
G01*
X123760000Y-109139999D01*
G75*
G02*
X124009999Y-108890000I249999J0D01*
G01*
G37*
%TD.AperFunction*%
%TO.P,R4,2*%
%TO.N,VCC*%
%TA.AperFunction,SMDPad,CuDef*%
G36*
G01*
X124009999Y-110890000D02*
X124910001Y-110890000D01*
G75*
G02*
X125160000Y-111139999I0J-249999D01*
G01*
X125160000Y-111840001D01*
G75*
G02*
X124910001Y-112090000I-249999J0D01*
G01*
X124009999Y-112090000D01*
G75*
G02*
X123760000Y-111840001I0J249999D01*
G01*
X123760000Y-111139999D01*
G75*
G02*
X124009999Y-110890000I249999J0D01*
G01*
G37*
%TD.AperFunction*%
%TD*%
D20*
%TO.P,U5,1*%
%TO.N,Net-(R4-Pad1)*%
X124460000Y-106680000D03*
D21*
%TO.P,U5,11*%
%TO.N,/BUS0*%
X101600000Y-114300000D03*
%TO.P,U5,2*%
%TO.N,/O7*%
X121920000Y-106680000D03*
%TO.P,U5,12*%
%TO.N,/BUS1*%
X104140000Y-114300000D03*
%TO.P,U5,3*%
%TO.N,/O6*%
X119380000Y-106680000D03*
%TO.P,U5,13*%
%TO.N,/BUS2*%
X106680000Y-114300000D03*
%TO.P,U5,4*%
%TO.N,/O5*%
X116840000Y-106680000D03*
%TO.P,U5,14*%
%TO.N,/BUS3*%
X109220000Y-114300000D03*
%TO.P,U5,5*%
%TO.N,/O4*%
X114300000Y-106680000D03*
%TO.P,U5,15*%
%TO.N,/BUS4*%
X111760000Y-114300000D03*
%TO.P,U5,6*%
%TO.N,/O3*%
X111760000Y-106680000D03*
%TO.P,U5,16*%
%TO.N,/BUS5*%
X114300000Y-114300000D03*
%TO.P,U5,7*%
%TO.N,/O2*%
X109220000Y-106680000D03*
%TO.P,U5,17*%
%TO.N,/BUS6*%
X116840000Y-114300000D03*
%TO.P,U5,8*%
%TO.N,/O1*%
X106680000Y-106680000D03*
%TO.P,U5,18*%
%TO.N,/BUS7*%
X119380000Y-114300000D03*
%TO.P,U5,9*%
%TO.N,/O0*%
X104140000Y-106680000D03*
%TO.P,U5,19*%
%TO.N,/~OE*%
X121920000Y-114300000D03*
%TO.P,U5,10*%
%TO.N,GND*%
X101600000Y-106680000D03*
%TO.P,U5,20*%
%TO.N,VCC*%
X124460000Y-114300000D03*
%TD*%
D22*
%TO.N,GND*%
X157480000Y-110172500D03*
%TO.N,/A2*%
X100330000Y-97790000D03*
%TO.N,/A3*%
X107950000Y-99060000D03*
%TO.N,/A4*%
X119380000Y-99695000D03*
%TO.N,/A5*%
X124460000Y-100647500D03*
%TO.N,/A6*%
X130810000Y-102870000D03*
%TO.N,/A7*%
X138430000Y-104140000D03*
%TO.N,/B7*%
X143510000Y-100965000D03*
%TO.N,/B6*%
X135890000Y-102870000D03*
X135890000Y-91440000D03*
%TO.N,/B5*%
X128270000Y-100647500D03*
%TO.N,/B4*%
X121920000Y-99695000D03*
%TO.N,/B3*%
X113030000Y-99060000D03*
%TO.N,/B2*%
X106045000Y-97790000D03*
%TO.N,/B1*%
X97790000Y-96520000D03*
%TO.N,/B0*%
X92710000Y-95885000D03*
X92710000Y-86360000D03*
%TO.N,/C0*%
X79375000Y-83185000D03*
%TO.N,/C1*%
X95250000Y-60960000D03*
%TO.N,/C2*%
X100330000Y-61595000D03*
%TO.N,/C3*%
X107950000Y-63500000D03*
%TO.N,/C4*%
X115570000Y-65405000D03*
%TO.N,/C5*%
X123190000Y-67310000D03*
%TO.N,/C6*%
X130810000Y-69215000D03*
%TO.N,/D6*%
X135890000Y-69215000D03*
%TO.N,/D5*%
X128270000Y-67310000D03*
%TO.N,/D4*%
X120650000Y-65405000D03*
%TO.N,/D3*%
X113030000Y-63500000D03*
%TO.N,/D2*%
X105410000Y-61595000D03*
%TO.N,/D1*%
X97790000Y-60960000D03*
X100330000Y-83820000D03*
%TO.N,/D0*%
X81280000Y-78740000D03*
%TO.N,/O0*%
X90805000Y-91440000D03*
%TO.N,/S1*%
X148590000Y-104775000D03*
X144780000Y-104775000D03*
%TD*%
D23*
%TO.N,VCC*%
X110490000Y-71120000D02*
X110490000Y-73660000D01*
X125730000Y-71120000D02*
X125730000Y-73660000D01*
X140970000Y-73660000D02*
X139700000Y-73660000D01*
X139700000Y-73660000D02*
X137160000Y-71120000D01*
X125730000Y-71120000D02*
X137160000Y-71120000D01*
X97155000Y-73660000D02*
X99695000Y-71120000D01*
X95250000Y-73660000D02*
X97155000Y-73660000D01*
X99695000Y-71120000D02*
X110490000Y-71120000D01*
D24*
X124460000Y-111490000D02*
X124460000Y-114300000D01*
D23*
X110490000Y-71120000D02*
X125730000Y-71120000D01*
D24*
X122322500Y-112162500D02*
X124460000Y-114300000D01*
X122322500Y-110490000D02*
X122322500Y-112162500D01*
D23*
%TO.N,GND*%
X133350000Y-108565000D02*
X133340000Y-108575000D01*
X133340000Y-108575000D02*
X150505000Y-108575000D01*
X133350000Y-91440000D02*
X133350000Y-93980000D01*
X102870000Y-91440000D02*
X102870000Y-93980000D01*
X118110000Y-91440000D02*
X118110000Y-93980000D01*
X118110000Y-93980000D02*
X133350000Y-93980000D01*
X102870000Y-93980000D02*
X118110000Y-93980000D01*
X153035000Y-86360000D02*
X156210000Y-86360000D01*
X158115000Y-83820000D02*
X158115000Y-108575000D01*
X156210000Y-86360000D02*
X158115000Y-86360000D01*
X72995010Y-108594990D02*
X73015000Y-108575000D01*
X71755000Y-108594990D02*
X72995010Y-108594990D01*
X71755000Y-88900000D02*
X71755000Y-108594990D01*
X71745010Y-88890010D02*
X71755000Y-88900000D01*
X71745010Y-83820000D02*
X71745010Y-88890010D01*
X76835000Y-86360000D02*
X71745010Y-86360000D01*
D25*
X88185000Y-104775000D02*
X88185000Y-108520000D01*
D23*
X72995010Y-108594990D02*
X88185000Y-108594990D01*
X88185000Y-108594990D02*
X95557510Y-108594990D01*
X97155000Y-106997500D02*
X95557510Y-108594990D01*
X158115000Y-60960000D02*
X153035000Y-60960000D01*
X158115000Y-83820000D02*
X158115000Y-60960000D01*
X71745010Y-108594990D02*
X73058988Y-108594990D01*
X71745010Y-83820000D02*
X71745010Y-108594990D01*
X71755000Y-107291002D02*
X71755000Y-60960000D01*
X71755000Y-60960000D02*
X76835000Y-60960000D01*
X90170000Y-93980000D02*
X87630000Y-91440000D01*
X102870000Y-93980000D02*
X90170000Y-93980000D01*
X100012500Y-104140000D02*
X125095000Y-104140000D01*
X97155000Y-106997500D02*
X100012500Y-104140000D01*
X96053339Y-108594990D02*
X97948349Y-110490000D01*
X95557510Y-108594990D02*
X96053339Y-108594990D01*
X101600000Y-106680000D02*
X101600000Y-110490000D01*
X101600000Y-110490000D02*
X120247500Y-110490000D01*
X97948349Y-110490000D02*
X101600000Y-110490000D01*
X101600000Y-121602500D02*
X101600000Y-118745000D01*
X101600000Y-118745000D02*
X98425000Y-118745000D01*
X97948349Y-118268349D02*
X97948349Y-110490000D01*
X98425000Y-118745000D02*
X97948349Y-118268349D01*
X150505000Y-108575000D02*
X158115000Y-108575000D01*
D24*
X129530000Y-110115000D02*
X129540000Y-110125000D01*
X129530000Y-108575000D02*
X129530000Y-110115000D01*
X157480000Y-108585000D02*
X157480000Y-110172500D01*
D23*
X125095000Y-104140000D02*
X126682500Y-104140000D01*
X133340000Y-108575000D02*
X131117500Y-108575000D01*
D24*
X129550000Y-108575000D02*
X130333750Y-107791250D01*
X129530000Y-108575000D02*
X129550000Y-108575000D01*
D23*
X130333750Y-107791250D02*
X131117500Y-108575000D01*
X126682500Y-104140000D02*
X130333750Y-107791250D01*
D24*
%TO.N,/A0*%
X85090000Y-86360000D02*
X87630000Y-86360000D01*
X82550000Y-88900000D02*
X85090000Y-86360000D01*
X76200000Y-88900000D02*
X82550000Y-88900000D01*
D26*
X73660000Y-88900000D02*
X76835000Y-88900000D01*
%TO.N,/A1*%
X73660000Y-91440000D02*
X76835000Y-91440000D01*
D24*
X91440000Y-87630000D02*
X92710000Y-88900000D01*
X93345000Y-88900000D02*
X95250000Y-88900000D01*
X92710000Y-88900000D02*
X93345000Y-88900000D01*
X86360000Y-87630000D02*
X91440000Y-87630000D01*
X82550000Y-91440000D02*
X86360000Y-87630000D01*
X76200000Y-91440000D02*
X82550000Y-91440000D01*
D26*
%TO.N,/A2*%
X73660000Y-93980000D02*
X76835000Y-93980000D01*
D24*
X91440000Y-97790000D02*
X100330000Y-97790000D01*
X87630000Y-93980000D02*
X91440000Y-97790000D01*
X76200000Y-93980000D02*
X87630000Y-93980000D01*
D26*
%TO.N,/A3*%
X73660000Y-96520000D02*
X76835000Y-96520000D01*
D24*
X78105000Y-96520000D02*
X76200000Y-96520000D01*
X79375000Y-95250000D02*
X78105000Y-96520000D01*
X87630000Y-95250000D02*
X79375000Y-95250000D01*
X91440000Y-99060000D02*
X87630000Y-95250000D01*
X107950000Y-99060000D02*
X91440000Y-99060000D01*
D26*
%TO.N,/A4*%
X73660000Y-99060000D02*
X76835000Y-99060000D01*
D24*
X78105000Y-99060000D02*
X76200000Y-99060000D01*
X80645000Y-96520000D02*
X78105000Y-99060000D01*
X87630000Y-96520000D02*
X80645000Y-96520000D01*
X91440000Y-100330000D02*
X87630000Y-96520000D01*
X117792500Y-100330000D02*
X91440000Y-100330000D01*
X118427500Y-99695000D02*
X117792500Y-100330000D01*
X119380000Y-99695000D02*
X118427500Y-99695000D01*
D26*
%TO.N,/A5*%
X73660000Y-101600000D02*
X76835000Y-101600000D01*
D24*
X78105000Y-101600000D02*
X76200000Y-101600000D01*
X81915000Y-97790000D02*
X78105000Y-101600000D01*
X87630000Y-97790000D02*
X81915000Y-97790000D01*
X91122500Y-101282500D02*
X87630000Y-97790000D01*
X122872500Y-101282500D02*
X91122500Y-101282500D01*
X123507500Y-100647500D02*
X122872500Y-101282500D01*
X124460000Y-100647500D02*
X123507500Y-100647500D01*
D26*
%TO.N,/A6*%
X73660000Y-104140000D02*
X76835000Y-104140000D01*
D24*
X130175000Y-102235000D02*
X130810000Y-102870000D01*
X90805000Y-102235000D02*
X130175000Y-102235000D01*
X87630000Y-99060000D02*
X90805000Y-102235000D01*
X82550000Y-99060000D02*
X87630000Y-99060000D01*
X78740000Y-102870000D02*
X82550000Y-99060000D01*
X78740000Y-103505000D02*
X78740000Y-102870000D01*
X78105000Y-104140000D02*
X78740000Y-103505000D01*
X76200000Y-104140000D02*
X78105000Y-104140000D01*
D26*
%TO.N,/A7*%
X73660000Y-106680000D02*
X76835000Y-106680000D01*
D24*
X87630000Y-100330000D02*
X90487500Y-103187500D01*
X83185000Y-100330000D02*
X87630000Y-100330000D01*
X90487500Y-103187500D02*
X127952500Y-103187500D01*
X80010000Y-103505000D02*
X83185000Y-100330000D01*
X80010000Y-105410000D02*
X80010000Y-103505000D01*
X128905000Y-104140000D02*
X138430000Y-104140000D01*
X127952500Y-103187500D02*
X128905000Y-104140000D01*
X78740000Y-106680000D02*
X80010000Y-105410000D01*
X76835000Y-106680000D02*
X78740000Y-106680000D01*
D26*
%TO.N,/B7*%
X153035000Y-106680000D02*
X156210000Y-106680000D01*
D24*
X143510000Y-100965000D02*
X147320000Y-100965000D01*
X147320000Y-100965000D02*
X150495000Y-104140000D01*
X150495000Y-106045000D02*
X151130000Y-106680000D01*
X150495000Y-104140000D02*
X150495000Y-106045000D01*
X153670000Y-106680000D02*
X151130000Y-106680000D01*
%TO.N,/B6*%
X133350000Y-83820000D02*
X135890000Y-83820000D01*
X135890000Y-83820000D02*
X135890000Y-91440000D01*
D26*
X153035000Y-104140000D02*
X156210000Y-104140000D01*
D24*
X146050000Y-99377500D02*
X141287500Y-99377500D01*
X141287500Y-99377500D02*
X137795000Y-102870000D01*
X135890000Y-102870000D02*
X137795000Y-102870000D01*
X146050000Y-99377500D02*
X147637500Y-99377500D01*
X152400000Y-104140000D02*
X153035000Y-104140000D01*
X147637500Y-99377500D02*
X152400000Y-104140000D01*
D26*
%TO.N,/B5*%
X153035000Y-101600000D02*
X156210000Y-101600000D01*
D24*
X151765000Y-101600000D02*
X153670000Y-101600000D01*
X148590000Y-98425000D02*
X151765000Y-101600000D01*
X140652500Y-98425000D02*
X148590000Y-98425000D01*
X138112500Y-100965000D02*
X140652500Y-98425000D01*
X131127500Y-100647500D02*
X131445000Y-100965000D01*
X128270000Y-100647500D02*
X131127500Y-100647500D01*
X131445000Y-100965000D02*
X138112500Y-100965000D01*
D26*
%TO.N,/B4*%
X153035000Y-99060000D02*
X156210000Y-99060000D01*
D24*
X150812500Y-99060000D02*
X153670000Y-99060000D01*
X149225000Y-97472500D02*
X150812500Y-99060000D01*
X139700000Y-97472500D02*
X149225000Y-97472500D01*
X137477500Y-99695000D02*
X139700000Y-97472500D01*
X132080000Y-99695000D02*
X137477500Y-99695000D01*
X131445000Y-99060000D02*
X132080000Y-99695000D01*
X122555000Y-99060000D02*
X131445000Y-99060000D01*
X121920000Y-99695000D02*
X122555000Y-99060000D01*
D26*
%TO.N,/B3*%
X153035000Y-96520000D02*
X156210000Y-96520000D01*
D24*
X138747500Y-96520000D02*
X153670000Y-96520000D01*
X137160000Y-98107500D02*
X138747500Y-96520000D01*
X118110000Y-98107500D02*
X137160000Y-98107500D01*
X117157500Y-99060000D02*
X118110000Y-98107500D01*
X113030000Y-99060000D02*
X117157500Y-99060000D01*
D26*
%TO.N,/B2*%
X153035000Y-93980000D02*
X156210000Y-93980000D01*
D24*
X149860000Y-93980000D02*
X153670000Y-93980000D01*
X148272500Y-95567500D02*
X149860000Y-93980000D01*
X136207500Y-97155000D02*
X137795000Y-95567500D01*
X117475000Y-97155000D02*
X136207500Y-97155000D01*
X116840000Y-97790000D02*
X117475000Y-97155000D01*
X137795000Y-95567500D02*
X148272500Y-95567500D01*
X106045000Y-97790000D02*
X116840000Y-97790000D01*
D26*
%TO.N,/B1*%
X153035000Y-91440000D02*
X156210000Y-91440000D01*
D24*
X149860000Y-91440000D02*
X153670000Y-91440000D01*
X146685000Y-94615000D02*
X149860000Y-91440000D01*
X136842500Y-94615000D02*
X146685000Y-94615000D01*
X135255000Y-96202500D02*
X136842500Y-94615000D01*
X116840000Y-96202500D02*
X135255000Y-96202500D01*
X116522500Y-96520000D02*
X116840000Y-96202500D01*
X97790000Y-96520000D02*
X116522500Y-96520000D01*
D26*
%TO.N,/B0*%
X153035000Y-88900000D02*
X156210000Y-88900000D01*
D24*
X94615000Y-95885000D02*
X92710000Y-95885000D01*
X95250000Y-95250000D02*
X94615000Y-95885000D01*
X153670000Y-88900000D02*
X149860000Y-88900000D01*
X135890000Y-93662500D02*
X134302500Y-95250000D01*
X145097500Y-93662500D02*
X135890000Y-93662500D01*
X134302500Y-95250000D02*
X95250000Y-95250000D01*
X149860000Y-88900000D02*
X145097500Y-93662500D01*
X90170000Y-83820000D02*
X87630000Y-83820000D01*
X92710000Y-86360000D02*
X90170000Y-83820000D01*
%TO.N,/C0*%
X87630000Y-81280000D02*
X85090000Y-81280000D01*
X85090000Y-81280000D02*
X83185000Y-83185000D01*
X83185000Y-83185000D02*
X79375000Y-83185000D01*
X73660000Y-63500000D02*
X76835000Y-63500000D01*
%TO.N,/C1*%
X73660000Y-66040000D02*
X85725000Y-66040000D01*
X95250000Y-60960000D02*
X90805000Y-60960000D01*
X85725000Y-66040000D02*
X90805000Y-60960000D01*
%TO.N,/C2*%
X78740000Y-68580000D02*
X73660000Y-68580000D01*
X80327500Y-66992500D02*
X78740000Y-68580000D01*
X87312500Y-66992500D02*
X80327500Y-66992500D01*
X99377500Y-62547500D02*
X100330000Y-61595000D01*
X99060000Y-62865000D02*
X99377500Y-62547500D01*
X91440000Y-62865000D02*
X99060000Y-62865000D01*
X91440000Y-62865000D02*
X87312500Y-66992500D01*
%TO.N,/C3*%
X78740000Y-71120000D02*
X73660000Y-71120000D01*
X81756250Y-68103750D02*
X78740000Y-71120000D01*
X88741250Y-68103750D02*
X81756250Y-68103750D01*
X107315000Y-64135000D02*
X107950000Y-63500000D01*
X106997500Y-64452500D02*
X107315000Y-64135000D01*
X92392500Y-64452500D02*
X106997500Y-64452500D01*
X92392500Y-64452500D02*
X88741250Y-68103750D01*
%TO.N,/C4*%
X78740000Y-73660000D02*
X73660000Y-73660000D01*
X83185000Y-69215000D02*
X78740000Y-73660000D01*
X90170000Y-69215000D02*
X83185000Y-69215000D01*
X115252500Y-65722500D02*
X115570000Y-65405000D01*
X107315000Y-66040000D02*
X107632500Y-65722500D01*
X93345000Y-66040000D02*
X107315000Y-66040000D01*
X107632500Y-65722500D02*
X115252500Y-65722500D01*
X93345000Y-66040000D02*
X90170000Y-69215000D01*
%TO.N,/C5*%
X84772500Y-70167500D02*
X91757500Y-70167500D01*
X78740000Y-76200000D02*
X84772500Y-70167500D01*
X73660000Y-76200000D02*
X78740000Y-76200000D01*
X107632500Y-67627500D02*
X107950000Y-67310000D01*
X94297500Y-67627500D02*
X107632500Y-67627500D01*
X107950000Y-67310000D02*
X123190000Y-67310000D01*
X91757500Y-70167500D02*
X94297500Y-67627500D01*
%TO.N,/C6*%
X94615000Y-69215000D02*
X130810000Y-69215000D01*
X92710000Y-71120000D02*
X94615000Y-69215000D01*
X85725000Y-71120000D02*
X92710000Y-71120000D01*
X78105000Y-78740000D02*
X85725000Y-71120000D01*
X73660000Y-78740000D02*
X78105000Y-78740000D01*
%TO.N,/C7*%
X139065000Y-83820000D02*
X140970000Y-83820000D01*
X135255000Y-80010000D02*
X139065000Y-83820000D01*
X84455000Y-80010000D02*
X135255000Y-80010000D01*
X83185000Y-81280000D02*
X84455000Y-80010000D01*
X73660000Y-81280000D02*
X83185000Y-81280000D01*
%TO.N,/D7*%
X140970000Y-81280000D02*
X142875000Y-81280000D01*
X142875000Y-81280000D02*
X146050000Y-81280000D01*
X153035000Y-81280000D02*
X148590000Y-81280000D01*
X146050000Y-81280000D02*
X148590000Y-81280000D01*
X153035000Y-81280000D02*
X156210000Y-81280000D01*
%TO.N,/D6*%
X148590000Y-78105000D02*
X148590000Y-74295000D01*
X149225000Y-78740000D02*
X148590000Y-78105000D01*
X156210000Y-78740000D02*
X149225000Y-78740000D01*
X142875000Y-72390000D02*
X139700000Y-69215000D01*
X146685000Y-72390000D02*
X142875000Y-72390000D01*
X139700000Y-69215000D02*
X135890000Y-69215000D01*
X148590000Y-74295000D02*
X146685000Y-72390000D01*
%TO.N,/D5*%
X139065000Y-67310000D02*
X128270000Y-67310000D01*
X143033750Y-71278750D02*
X139065000Y-67310000D01*
X147161250Y-71278750D02*
X143033750Y-71278750D01*
X149860000Y-73977500D02*
X147161250Y-71278750D01*
X149860000Y-75565000D02*
X149860000Y-73977500D01*
X150495000Y-76200000D02*
X149860000Y-75565000D01*
X156210000Y-76200000D02*
X150495000Y-76200000D01*
%TO.N,/D4*%
X138112500Y-65405000D02*
X120650000Y-65405000D01*
X138747500Y-65405000D02*
X138112500Y-65405000D01*
X143510000Y-70167500D02*
X138747500Y-65405000D01*
X147637500Y-70167500D02*
X143510000Y-70167500D01*
X151130000Y-73660000D02*
X147637500Y-70167500D01*
X156210000Y-73660000D02*
X151130000Y-73660000D01*
%TO.N,/D3*%
X156210000Y-71120000D02*
X150495000Y-71120000D01*
X148590000Y-69215000D02*
X143827500Y-69215000D01*
X150495000Y-71120000D02*
X148590000Y-69215000D01*
X143827500Y-69215000D02*
X138112500Y-63500000D01*
X113030000Y-63500000D02*
X138112500Y-63500000D01*
%TO.N,/D2*%
X150495000Y-68580000D02*
X156210000Y-68580000D01*
X150495000Y-68580000D02*
X150177500Y-68262500D01*
X150177500Y-68262500D02*
X144145000Y-68262500D01*
X144145000Y-68262500D02*
X137477500Y-61595000D01*
X105410000Y-61595000D02*
X137477500Y-61595000D01*
%TO.N,/D1*%
X97790000Y-81280000D02*
X95250000Y-81280000D01*
X97790000Y-81280000D02*
X100330000Y-83820000D01*
X136842500Y-59690000D02*
X99060000Y-59690000D01*
X144145000Y-66992500D02*
X136842500Y-59690000D01*
X149542500Y-66992500D02*
X144145000Y-66992500D01*
X99060000Y-59690000D02*
X97790000Y-60960000D01*
X150495000Y-66040000D02*
X149542500Y-66992500D01*
X156210000Y-66040000D02*
X150495000Y-66040000D01*
%TO.N,/D0*%
X153035000Y-63500000D02*
X156210000Y-63500000D01*
X87630000Y-78740000D02*
X81280000Y-78740000D01*
%TO.N,/O0*%
X87630000Y-88900000D02*
X90170000Y-88900000D01*
X90170000Y-88900000D02*
X90805000Y-89535000D01*
X90805000Y-89535000D02*
X90805000Y-91440000D01*
%TO.N,/~E*%
X133350000Y-73660000D02*
X137030000Y-73660000D01*
X137030000Y-73660000D02*
X139570000Y-76200000D01*
X140970000Y-76200000D02*
X139570000Y-76200000D01*
X95250000Y-76200000D02*
X97155000Y-76200000D01*
X97155000Y-76200000D02*
X99695000Y-73660000D01*
X102870000Y-73660000D02*
X99695000Y-73660000D01*
X112395000Y-76200000D02*
X114935000Y-73660000D01*
X110490000Y-76200000D02*
X112395000Y-76200000D01*
X118110000Y-73660000D02*
X114935000Y-73660000D01*
X129857500Y-73660000D02*
X133350000Y-73660000D01*
X129540000Y-73660000D02*
X129857500Y-73660000D01*
X127000000Y-76200000D02*
X129540000Y-73660000D01*
X125730000Y-76200000D02*
X127000000Y-76200000D01*
X109220000Y-76200000D02*
X110490000Y-76200000D01*
X106680000Y-73660000D02*
X109220000Y-76200000D01*
X102870000Y-73660000D02*
X106680000Y-73660000D01*
X144145000Y-74295000D02*
X145732500Y-74295000D01*
X142240000Y-76200000D02*
X144145000Y-74295000D01*
X140970000Y-76200000D02*
X142240000Y-76200000D01*
X93980000Y-76200000D02*
X95250000Y-76200000D01*
X91440000Y-73660000D02*
X93980000Y-76200000D01*
X87630000Y-73660000D02*
X91440000Y-73660000D01*
X123825000Y-76200000D02*
X125730000Y-76200000D01*
X121285000Y-73660000D02*
X123825000Y-76200000D01*
X118110000Y-73660000D02*
X121285000Y-73660000D01*
%TO.N,/S1*%
X136525000Y-76200000D02*
X137795000Y-77470000D01*
X133350000Y-76200000D02*
X136525000Y-76200000D01*
X108585000Y-77470000D02*
X113030000Y-77470000D01*
X113030000Y-77470000D02*
X114300000Y-76200000D01*
X107315000Y-76200000D02*
X108585000Y-77470000D01*
X114300000Y-76200000D02*
X118110000Y-76200000D01*
X102870000Y-76200000D02*
X107315000Y-76200000D01*
X145732500Y-76835000D02*
X143510000Y-76835000D01*
X142875000Y-77470000D02*
X137795000Y-77470000D01*
X143510000Y-76835000D02*
X142875000Y-77470000D01*
X130810000Y-76200000D02*
X133350000Y-76200000D01*
X129540000Y-77470000D02*
X130810000Y-76200000D01*
X123190000Y-77470000D02*
X129540000Y-77470000D01*
X121920000Y-76200000D02*
X123190000Y-77470000D01*
X118110000Y-76200000D02*
X121920000Y-76200000D01*
X97790000Y-77470000D02*
X99060000Y-76200000D01*
X93345000Y-77470000D02*
X97790000Y-77470000D01*
X99060000Y-76200000D02*
X102870000Y-76200000D01*
X92075000Y-76200000D02*
X93345000Y-77470000D01*
X87630000Y-76200000D02*
X92075000Y-76200000D01*
X144780000Y-104775000D02*
X148590000Y-104775000D01*
%TO.N,/S0*%
X140970000Y-78740000D02*
X142240000Y-78740000D01*
X106680000Y-77470000D02*
X107950000Y-78740000D01*
X100330000Y-77470000D02*
X106680000Y-77470000D01*
X107950000Y-78740000D02*
X110490000Y-78740000D01*
X99060000Y-78740000D02*
X100330000Y-77470000D01*
X95250000Y-78740000D02*
X99060000Y-78740000D01*
X139065000Y-78740000D02*
X140970000Y-78740000D01*
X125730000Y-78740000D02*
X130175000Y-78740000D01*
X142875000Y-79375000D02*
X142240000Y-78740000D01*
X145732500Y-79375000D02*
X142875000Y-79375000D01*
X122555000Y-78740000D02*
X125730000Y-78740000D01*
X114935000Y-77470000D02*
X121285000Y-77470000D01*
X121285000Y-77470000D02*
X122555000Y-78740000D01*
X113665000Y-78740000D02*
X114935000Y-77470000D01*
X110490000Y-78740000D02*
X113665000Y-78740000D01*
X130175000Y-78740000D02*
X131445000Y-77470000D01*
X131445000Y-77470000D02*
X135255000Y-77470000D01*
X135255000Y-77470000D02*
X136525000Y-78740000D01*
X136525000Y-78740000D02*
X139065000Y-78740000D01*
%TO.N,/BUS0*%
X104140000Y-116840000D02*
X104140000Y-121602500D01*
X101600000Y-114300000D02*
X104140000Y-116840000D01*
%TO.N,/BUS1*%
X106680000Y-116840000D02*
X106680000Y-118745000D01*
X104140000Y-114300000D02*
X106680000Y-116840000D01*
X106680000Y-118745000D02*
X106680000Y-121602500D01*
%TO.N,/BUS2*%
X109220000Y-116840000D02*
X109220000Y-118745000D01*
X106680000Y-114300000D02*
X109220000Y-116840000D01*
X109220000Y-118745000D02*
X109220000Y-121602500D01*
%TO.N,/BUS3*%
X111760000Y-116840000D02*
X111760000Y-118745000D01*
X109220000Y-114300000D02*
X111760000Y-116840000D01*
X111760000Y-118745000D02*
X111760000Y-121602500D01*
%TO.N,/BUS4*%
X114300000Y-116840000D02*
X114300000Y-118745000D01*
X111760000Y-114300000D02*
X114300000Y-116840000D01*
X114300000Y-118745000D02*
X114300000Y-121602500D01*
%TO.N,/BUS5*%
X116840000Y-116840000D02*
X116840000Y-118745000D01*
X114300000Y-114300000D02*
X116840000Y-116840000D01*
X116840000Y-118745000D02*
X116840000Y-121602500D01*
%TO.N,/BUS6*%
X119380000Y-116840000D02*
X119380000Y-118745000D01*
X116840000Y-114300000D02*
X119380000Y-116840000D01*
X119380000Y-118745000D02*
X119380000Y-121602500D01*
%TO.N,/BUS7*%
X121920000Y-116840000D02*
X121920000Y-118745000D01*
X119380000Y-114300000D02*
X121920000Y-116840000D01*
X121920000Y-118745000D02*
X121920000Y-121602500D01*
%TO.N,Net-(R4-Pad1)*%
X124460000Y-106680000D02*
X124460000Y-109490000D01*
%TO.N,/~OE*%
X121920000Y-114300000D02*
X124460000Y-116840000D01*
X124460000Y-116840000D02*
X127000000Y-116840000D01*
X127000000Y-116840000D02*
X129540000Y-114300000D01*
X129540000Y-112125000D02*
X129540000Y-114300000D01*
%TD*%
M02*
