M48
INCH,TZ
T1C0.0197
T2C0.0315
T3C0.0354
T4C0.0394
T5C0.0512
T6C0.1260
%
G90
G05
T1
X31250Y-32750
X32000Y-31000
X35750Y-36000
X36500Y-34000
X36500Y-37750
X37500Y-24000
X38500Y-24000
X38500Y-38000
X39500Y-24250
X39500Y-33000
X39500Y-38500
X41500Y-24250
X41750Y-38500
X42500Y-25000
X42500Y-39000
X44500Y-25000
X44500Y-39000
X45500Y-25750
X47000Y-39250
X47500Y-25750
X48000Y-39250
X48500Y-26500
X49000Y-39625
X50500Y-26500
X50500Y-39625
X51500Y-27250
X51500Y-40500
X53500Y-27250
X53500Y-36000
X53500Y-40500
X54500Y-41000
X56500Y-39750
X57000Y-41250
X58500Y-41250
X62000Y-43375
T2
X52500Y-29000
X52500Y-30000
X52500Y-31000
X52500Y-32000
X52500Y-33000
X52500Y-34000
X52500Y-35000
X52500Y-36000
X55500Y-29000
X55500Y-30000
X55500Y-31000
X55500Y-32000
X55500Y-33000
X55500Y-34000
X55500Y-35000
X55500Y-36000
X40000Y-42000
X40000Y-45000
X41000Y-42000
X41000Y-45000
X42000Y-42000
X42000Y-45000
X43000Y-42000
X43000Y-45000
X44000Y-42000
X44000Y-45000
X45000Y-42000
X45000Y-45000
X46000Y-42000
X46000Y-45000
X47000Y-42000
X47000Y-45000
X48000Y-42000
X48000Y-45000
X49000Y-42000
X49000Y-45000
X46500Y-29000
X46500Y-30000
X46500Y-31000
X46500Y-32000
X46500Y-33000
X46500Y-34000
X46500Y-35000
X46500Y-36000
X49500Y-29000
X49500Y-30000
X49500Y-31000
X49500Y-32000
X49500Y-33000
X49500Y-34000
X49500Y-35000
X49500Y-36000
X34500Y-29000
X34500Y-30000
X34500Y-31000
X34500Y-32000
X34500Y-33000
X34500Y-34000
X34500Y-35000
X34500Y-36000
X37500Y-29000
X37500Y-30000
X37500Y-31000
X37500Y-32000
X37500Y-33000
X37500Y-34000
X37500Y-35000
X37500Y-36000
X40500Y-29000
X40500Y-30000
X40500Y-31000
X40500Y-32000
X40500Y-33000
X40500Y-34000
X40500Y-35000
X40500Y-36000
X43500Y-29000
X43500Y-30000
X43500Y-31000
X43500Y-32000
X43500Y-33000
X43500Y-34000
X43500Y-35000
X43500Y-36000
T3
X29000Y-34000
X29000Y-35000
X29000Y-36000
X29000Y-37000
X29000Y-38000
X29000Y-39000
X29000Y-40000
X29000Y-41000
X29000Y-42000
X60250Y-34000
X60250Y-35000
X60250Y-36000
X60250Y-37000
X60250Y-38000
X60250Y-39000
X60250Y-40000
X60250Y-41000
X60250Y-42000
X61500Y-24000
X61500Y-25000
X61500Y-26000
X61500Y-27000
X61500Y-28000
X61500Y-29000
X61500Y-30000
X61500Y-31000
X61500Y-32000
X60250Y-24000
X60250Y-25000
X60250Y-26000
X60250Y-27000
X60250Y-28000
X60250Y-29000
X60250Y-30000
X60250Y-31000
X60250Y-32000
X61500Y-34000
X61500Y-35000
X61500Y-36000
X61500Y-37000
X61500Y-38000
X61500Y-39000
X61500Y-40000
X61500Y-41000
X61500Y-42000
X57375Y-29250
X57375Y-30250
X57375Y-31250
X30250Y-34000
X30250Y-35000
X30250Y-36000
X30250Y-37000
X30250Y-38000
X30250Y-39000
X30250Y-40000
X30250Y-41000
X30250Y-42000
X30250Y-24000
X30250Y-25000
X30250Y-26000
X30250Y-27000
X30250Y-28000
X30250Y-29000
X30250Y-30000
X30250Y-31000
X30250Y-32000
X29000Y-24000
X29000Y-25000
X29000Y-26000
X29000Y-27000
X29000Y-28000
X29000Y-29000
X29000Y-30000
X29000Y-31000
X29000Y-32000
T4
X40000Y-47875
X41000Y-47875
X42000Y-47875
X43000Y-47875
X44000Y-47875
X45000Y-47875
X46000Y-47875
X47000Y-47875
X48000Y-47875
X51000Y-45000
X40000Y-46750
X41000Y-46750
X42000Y-46750
X43000Y-46750
X44000Y-46750
X45000Y-46750
X46000Y-46750
X47000Y-46750
X48000Y-46750
X53000Y-45000
X54000Y-45000
X55000Y-45000
T5
X32750Y-41250
X34719Y-41250
T6
X57500Y-44750
X33000Y-44750
X33000Y-24500
X57500Y-24500
T0
M30
