%TF.GenerationSoftware,KiCad,Pcbnew,(5.1.8)-1*%
%TF.CreationDate,2022-01-26T04:46:27+03:00*%
%TF.ProjectId,Proto50x70-4er,50726f74-6f35-4307-9837-302d3465722e,rev?*%
%TF.SameCoordinates,Original*%
%TF.FileFunction,Copper,L2,Bot*%
%TF.FilePolarity,Positive*%
%FSLAX46Y46*%
G04 Gerber Fmt 4.6, Leading zero omitted, Abs format (unit mm)*
G04 Created by KiCad (PCBNEW (5.1.8)-1) date 2022-01-26 04:46:27*
%MOMM*%
%LPD*%
G01*
G04 APERTURE LIST*
%TA.AperFunction,ViaPad*%
%ADD10C,2.200000*%
%TD*%
%TA.AperFunction,Conductor*%
%ADD11C,2.000000*%
%TD*%
G04 APERTURE END LIST*
D10*
%TO.N,*%
X53340000Y-76200000D03*
X53340000Y-73660000D03*
X53340000Y-71120000D03*
X53340000Y-68580000D03*
X53340000Y-66040000D03*
X53340000Y-63500000D03*
X53340000Y-60960000D03*
X53340000Y-58420000D03*
X53340000Y-55880000D03*
X53340000Y-53340000D03*
X53340000Y-50800000D03*
X53340000Y-48260000D03*
X53340000Y-45720000D03*
X53340000Y-43180000D03*
X53340000Y-40640000D03*
X53340000Y-38100000D03*
X53340000Y-35560000D03*
X53340000Y-33020000D03*
X53340000Y-30480000D03*
X53340000Y-27940000D03*
X55880000Y-45720000D03*
X55880000Y-50800000D03*
X55880000Y-38100000D03*
X55880000Y-58420000D03*
X55880000Y-27940000D03*
X55880000Y-33020000D03*
X55880000Y-35560000D03*
X55880000Y-30480000D03*
X55880000Y-63500000D03*
X55880000Y-60960000D03*
X55880000Y-71120000D03*
X55880000Y-76200000D03*
X55880000Y-68580000D03*
X55880000Y-53340000D03*
X55880000Y-73660000D03*
X55880000Y-40640000D03*
X55880000Y-55880000D03*
X55880000Y-66040000D03*
X55880000Y-48260000D03*
X55880000Y-43180000D03*
X58420000Y-45720000D03*
X58420000Y-50800000D03*
X58420000Y-38100000D03*
X58420000Y-58420000D03*
X58420000Y-27940000D03*
X58420000Y-33020000D03*
X58420000Y-35560000D03*
X58420000Y-30480000D03*
X58420000Y-63500000D03*
X58420000Y-60960000D03*
X58420000Y-71120000D03*
X58420000Y-76200000D03*
X58420000Y-68580000D03*
X58420000Y-53340000D03*
X58420000Y-73660000D03*
X58420000Y-40640000D03*
X58420000Y-55880000D03*
X58420000Y-66040000D03*
X58420000Y-48260000D03*
X58420000Y-43180000D03*
X60960000Y-45720000D03*
X60960000Y-50800000D03*
X60960000Y-38100000D03*
X60960000Y-58420000D03*
X60960000Y-27940000D03*
X60960000Y-33020000D03*
X60960000Y-35560000D03*
X60960000Y-30480000D03*
X60960000Y-63500000D03*
X60960000Y-60960000D03*
X60960000Y-71120000D03*
X60960000Y-76200000D03*
X60960000Y-68580000D03*
X60960000Y-53340000D03*
X60960000Y-73660000D03*
X60960000Y-40640000D03*
X60960000Y-55880000D03*
X60960000Y-66040000D03*
X60960000Y-48260000D03*
X60960000Y-43180000D03*
X68580000Y-33020000D03*
X63500000Y-45720000D03*
X63500000Y-50800000D03*
X68580000Y-68580000D03*
X71120000Y-58420000D03*
X66040000Y-55880000D03*
X63500000Y-38100000D03*
X68580000Y-60960000D03*
X63500000Y-58420000D03*
X68580000Y-71120000D03*
X66040000Y-76200000D03*
X66040000Y-53340000D03*
X66040000Y-40640000D03*
X68580000Y-27940000D03*
X71120000Y-38100000D03*
X71120000Y-73660000D03*
X71120000Y-27940000D03*
X71120000Y-55880000D03*
X63500000Y-27940000D03*
X71120000Y-35560000D03*
X71120000Y-33020000D03*
X71120000Y-30480000D03*
X71120000Y-71120000D03*
X71120000Y-60960000D03*
X71120000Y-45720000D03*
X71120000Y-53340000D03*
X68580000Y-43180000D03*
X71120000Y-76200000D03*
X71120000Y-50800000D03*
X71120000Y-68580000D03*
X71120000Y-63500000D03*
X71120000Y-66040000D03*
X66040000Y-27940000D03*
X68580000Y-45720000D03*
X68580000Y-63500000D03*
X63500000Y-33020000D03*
X68580000Y-40640000D03*
X63500000Y-35560000D03*
X68580000Y-66040000D03*
X63500000Y-30480000D03*
X68580000Y-76200000D03*
X68580000Y-38100000D03*
X66040000Y-68580000D03*
X66040000Y-73660000D03*
X68580000Y-50800000D03*
X63500000Y-63500000D03*
X63500000Y-60960000D03*
X68580000Y-53340000D03*
X68580000Y-73660000D03*
X68580000Y-48260000D03*
X66040000Y-43180000D03*
X71120000Y-43180000D03*
X63500000Y-71120000D03*
X68580000Y-35560000D03*
X68580000Y-55880000D03*
X63500000Y-76200000D03*
X66040000Y-60960000D03*
X66040000Y-48260000D03*
X66040000Y-35560000D03*
X66040000Y-30480000D03*
X63500000Y-68580000D03*
X66040000Y-71120000D03*
X63500000Y-53340000D03*
X63500000Y-73660000D03*
X66040000Y-63500000D03*
X68580000Y-58420000D03*
X66040000Y-66040000D03*
X63500000Y-40640000D03*
X66040000Y-58420000D03*
X71120000Y-40640000D03*
X63500000Y-55880000D03*
X68580000Y-30480000D03*
X66040000Y-50800000D03*
X63500000Y-66040000D03*
X71120000Y-48260000D03*
X66040000Y-38100000D03*
X63500000Y-48260000D03*
X63500000Y-43180000D03*
X66040000Y-33020000D03*
X66040000Y-45720000D03*
X78740000Y-33020000D03*
X73660000Y-45720000D03*
X73660000Y-50800000D03*
X78740000Y-68580000D03*
X81280000Y-58420000D03*
X76200000Y-55880000D03*
X73660000Y-38100000D03*
X78740000Y-60960000D03*
X73660000Y-58420000D03*
X78740000Y-71120000D03*
X76200000Y-76200000D03*
X76200000Y-53340000D03*
X76200000Y-40640000D03*
X78740000Y-27940000D03*
X81280000Y-38100000D03*
X81280000Y-73660000D03*
X81280000Y-27940000D03*
X81280000Y-55880000D03*
X73660000Y-27940000D03*
X81280000Y-35560000D03*
X81280000Y-33020000D03*
X81280000Y-30480000D03*
X81280000Y-71120000D03*
X81280000Y-60960000D03*
X81280000Y-45720000D03*
X81280000Y-53340000D03*
X78740000Y-43180000D03*
X81280000Y-76200000D03*
X81280000Y-50800000D03*
X81280000Y-68580000D03*
X81280000Y-63500000D03*
X81280000Y-66040000D03*
X76200000Y-27940000D03*
X78740000Y-45720000D03*
X78740000Y-63500000D03*
X73660000Y-33020000D03*
X78740000Y-40640000D03*
X73660000Y-35560000D03*
X78740000Y-66040000D03*
X73660000Y-30480000D03*
X78740000Y-76200000D03*
X78740000Y-38100000D03*
X76200000Y-68580000D03*
X76200000Y-73660000D03*
X78740000Y-50800000D03*
X73660000Y-63500000D03*
X73660000Y-60960000D03*
X78740000Y-53340000D03*
X78740000Y-73660000D03*
X78740000Y-48260000D03*
X76200000Y-43180000D03*
X81280000Y-43180000D03*
X73660000Y-71120000D03*
X78740000Y-35560000D03*
X78740000Y-55880000D03*
X73660000Y-76200000D03*
X76200000Y-60960000D03*
X76200000Y-48260000D03*
X76200000Y-35560000D03*
X76200000Y-30480000D03*
X73660000Y-68580000D03*
X76200000Y-71120000D03*
X73660000Y-53340000D03*
X73660000Y-73660000D03*
X76200000Y-63500000D03*
X78740000Y-58420000D03*
X76200000Y-66040000D03*
X73660000Y-40640000D03*
X76200000Y-58420000D03*
X81280000Y-40640000D03*
X73660000Y-55880000D03*
X78740000Y-30480000D03*
X76200000Y-50800000D03*
X73660000Y-66040000D03*
X81280000Y-48260000D03*
X76200000Y-38100000D03*
X73660000Y-48260000D03*
X73660000Y-43180000D03*
X76200000Y-33020000D03*
X76200000Y-45720000D03*
X88900000Y-33020000D03*
X83820000Y-45720000D03*
X83820000Y-50800000D03*
X88900000Y-68580000D03*
X91440000Y-58420000D03*
X86360000Y-55880000D03*
X83820000Y-38100000D03*
X88900000Y-60960000D03*
X83820000Y-58420000D03*
X88900000Y-71120000D03*
X86360000Y-76200000D03*
X86360000Y-53340000D03*
X86360000Y-40640000D03*
X88900000Y-27940000D03*
X91440000Y-38100000D03*
X91440000Y-73660000D03*
X91440000Y-27940000D03*
X91440000Y-55880000D03*
X83820000Y-27940000D03*
X91440000Y-35560000D03*
X91440000Y-33020000D03*
X91440000Y-30480000D03*
X91440000Y-71120000D03*
X91440000Y-60960000D03*
X91440000Y-45720000D03*
X91440000Y-53340000D03*
X88900000Y-43180000D03*
X91440000Y-76200000D03*
X91440000Y-50800000D03*
X91440000Y-68580000D03*
X91440000Y-63500000D03*
X91440000Y-66040000D03*
X86360000Y-27940000D03*
X88900000Y-45720000D03*
X88900000Y-63500000D03*
X83820000Y-33020000D03*
X88900000Y-40640000D03*
X83820000Y-35560000D03*
X88900000Y-66040000D03*
X83820000Y-30480000D03*
X88900000Y-76200000D03*
X88900000Y-38100000D03*
X86360000Y-68580000D03*
X86360000Y-73660000D03*
X88900000Y-50800000D03*
X83820000Y-63500000D03*
X83820000Y-60960000D03*
X88900000Y-53340000D03*
X88900000Y-73660000D03*
X88900000Y-48260000D03*
X86360000Y-43180000D03*
X91440000Y-43180000D03*
X83820000Y-71120000D03*
X88900000Y-35560000D03*
X88900000Y-55880000D03*
X83820000Y-76200000D03*
X86360000Y-60960000D03*
X86360000Y-48260000D03*
X86360000Y-35560000D03*
X86360000Y-30480000D03*
X83820000Y-68580000D03*
X86360000Y-71120000D03*
X83820000Y-53340000D03*
X83820000Y-73660000D03*
X86360000Y-63500000D03*
X88900000Y-58420000D03*
X86360000Y-66040000D03*
X83820000Y-40640000D03*
X86360000Y-58420000D03*
X91440000Y-40640000D03*
X83820000Y-55880000D03*
X88900000Y-30480000D03*
X86360000Y-50800000D03*
X83820000Y-66040000D03*
X91440000Y-48260000D03*
X86360000Y-38100000D03*
X83820000Y-48260000D03*
X83820000Y-43180000D03*
X86360000Y-33020000D03*
X86360000Y-45720000D03*
X99060000Y-33020000D03*
X93980000Y-45720000D03*
X93980000Y-50800000D03*
X99060000Y-68580000D03*
X101600000Y-58420000D03*
X96520000Y-55880000D03*
X93980000Y-38100000D03*
X99060000Y-60960000D03*
X93980000Y-58420000D03*
X99060000Y-71120000D03*
X96520000Y-76200000D03*
X96520000Y-53340000D03*
X96520000Y-40640000D03*
X99060000Y-27940000D03*
X101600000Y-38100000D03*
X101600000Y-73660000D03*
X101600000Y-27940000D03*
X101600000Y-55880000D03*
X93980000Y-27940000D03*
X101600000Y-35560000D03*
X101600000Y-33020000D03*
X101600000Y-30480000D03*
X101600000Y-71120000D03*
X101600000Y-60960000D03*
X101600000Y-45720000D03*
X101600000Y-53340000D03*
X99060000Y-43180000D03*
X101600000Y-76200000D03*
X101600000Y-50800000D03*
X101600000Y-68580000D03*
X101600000Y-63500000D03*
X101600000Y-66040000D03*
X96520000Y-27940000D03*
X99060000Y-45720000D03*
X99060000Y-63500000D03*
X93980000Y-33020000D03*
X99060000Y-40640000D03*
X93980000Y-35560000D03*
X99060000Y-66040000D03*
X93980000Y-30480000D03*
X99060000Y-76200000D03*
X99060000Y-38100000D03*
X96520000Y-68580000D03*
X96520000Y-73660000D03*
X99060000Y-50800000D03*
X93980000Y-63500000D03*
X93980000Y-60960000D03*
X99060000Y-53340000D03*
X99060000Y-73660000D03*
X99060000Y-48260000D03*
X96520000Y-43180000D03*
X101600000Y-43180000D03*
X93980000Y-71120000D03*
X99060000Y-35560000D03*
X99060000Y-55880000D03*
X93980000Y-76200000D03*
X96520000Y-60960000D03*
X96520000Y-48260000D03*
X96520000Y-35560000D03*
X96520000Y-30480000D03*
X93980000Y-68580000D03*
X96520000Y-71120000D03*
X93980000Y-53340000D03*
X93980000Y-73660000D03*
X96520000Y-63500000D03*
X99060000Y-58420000D03*
X96520000Y-66040000D03*
X93980000Y-40640000D03*
X96520000Y-58420000D03*
X101600000Y-40640000D03*
X93980000Y-55880000D03*
X99060000Y-30480000D03*
X96520000Y-50800000D03*
X93980000Y-66040000D03*
X101600000Y-48260000D03*
X96520000Y-38100000D03*
X93980000Y-48260000D03*
X93980000Y-43180000D03*
X96520000Y-33020000D03*
X96520000Y-45720000D03*
X109220000Y-33020000D03*
X104140000Y-45720000D03*
X104140000Y-50800000D03*
X109220000Y-68580000D03*
X111760000Y-58420000D03*
X106680000Y-55880000D03*
X104140000Y-38100000D03*
X109220000Y-60960000D03*
X104140000Y-58420000D03*
X109220000Y-71120000D03*
X106680000Y-76200000D03*
X106680000Y-53340000D03*
X106680000Y-40640000D03*
X109220000Y-27940000D03*
X111760000Y-38100000D03*
X111760000Y-73660000D03*
X111760000Y-27940000D03*
X111760000Y-55880000D03*
X104140000Y-27940000D03*
X111760000Y-35560000D03*
X111760000Y-33020000D03*
X111760000Y-30480000D03*
X111760000Y-71120000D03*
X111760000Y-60960000D03*
X111760000Y-45720000D03*
X111760000Y-53340000D03*
X109220000Y-43180000D03*
X111760000Y-76200000D03*
X111760000Y-50800000D03*
X111760000Y-68580000D03*
X111760000Y-63500000D03*
X111760000Y-66040000D03*
X106680000Y-27940000D03*
X109220000Y-45720000D03*
X109220000Y-63500000D03*
X104140000Y-33020000D03*
X109220000Y-40640000D03*
X104140000Y-35560000D03*
X109220000Y-66040000D03*
X104140000Y-30480000D03*
X109220000Y-76200000D03*
X109220000Y-38100000D03*
X106680000Y-68580000D03*
X106680000Y-73660000D03*
X109220000Y-50800000D03*
X104140000Y-63500000D03*
X104140000Y-60960000D03*
X109220000Y-53340000D03*
X109220000Y-73660000D03*
X109220000Y-48260000D03*
X106680000Y-43180000D03*
X111760000Y-43180000D03*
X104140000Y-71120000D03*
X109220000Y-35560000D03*
X109220000Y-55880000D03*
X104140000Y-76200000D03*
X106680000Y-60960000D03*
X106680000Y-48260000D03*
X106680000Y-35560000D03*
X106680000Y-30480000D03*
X104140000Y-68580000D03*
X106680000Y-71120000D03*
X104140000Y-53340000D03*
X104140000Y-73660000D03*
X106680000Y-63500000D03*
X109220000Y-58420000D03*
X106680000Y-66040000D03*
X104140000Y-40640000D03*
X106680000Y-58420000D03*
X111760000Y-40640000D03*
X104140000Y-55880000D03*
X109220000Y-30480000D03*
X106680000Y-50800000D03*
X104140000Y-66040000D03*
X111760000Y-48260000D03*
X106680000Y-38100000D03*
X104140000Y-48260000D03*
X104140000Y-43180000D03*
X106680000Y-33020000D03*
X106680000Y-45720000D03*
X114300000Y-45720000D03*
X114300000Y-50800000D03*
X114300000Y-38100000D03*
X114300000Y-58420000D03*
X114300000Y-27940000D03*
X114300000Y-33020000D03*
X114300000Y-35560000D03*
X114300000Y-30480000D03*
X114300000Y-63500000D03*
X114300000Y-60960000D03*
X114300000Y-71120000D03*
X114300000Y-76200000D03*
X114300000Y-68580000D03*
X114300000Y-53340000D03*
X114300000Y-73660000D03*
X114300000Y-40640000D03*
X114300000Y-55880000D03*
X114300000Y-66040000D03*
X114300000Y-48260000D03*
X114300000Y-43180000D03*
X116840000Y-45720000D03*
X116840000Y-50800000D03*
X116840000Y-38100000D03*
X116840000Y-58420000D03*
X116840000Y-27940000D03*
X116840000Y-33020000D03*
X116840000Y-35560000D03*
X116840000Y-30480000D03*
X116840000Y-63500000D03*
X116840000Y-60960000D03*
X116840000Y-71120000D03*
X116840000Y-76200000D03*
X116840000Y-68580000D03*
X116840000Y-53340000D03*
X116840000Y-73660000D03*
X116840000Y-40640000D03*
X116840000Y-55880000D03*
X116840000Y-66040000D03*
X116840000Y-48260000D03*
X116840000Y-43180000D03*
%TD*%
D11*
%TO.N,*%
X53340000Y-68580000D02*
X53340000Y-76200000D01*
X53340000Y-66040000D02*
X116840000Y-66040000D01*
X53340000Y-63500000D02*
X116840000Y-63500000D01*
X53340000Y-60960000D02*
X53340000Y-53340000D01*
X53340000Y-40640000D02*
X116840000Y-40640000D01*
X53340000Y-38100000D02*
X116840000Y-38100000D01*
X53340000Y-43180000D02*
X53340000Y-50800000D01*
X53340000Y-27940000D02*
X53340000Y-35560000D01*
X55880000Y-27940000D02*
X55880000Y-35560000D01*
X55880000Y-60960000D02*
X55880000Y-53340000D01*
X55880000Y-68580000D02*
X55880000Y-76200000D01*
X55880000Y-43180000D02*
X55880000Y-50800000D01*
X58420000Y-27940000D02*
X58420000Y-35560000D01*
X58420000Y-60960000D02*
X58420000Y-53340000D01*
X58420000Y-68580000D02*
X58420000Y-76200000D01*
X58420000Y-43180000D02*
X58420000Y-50800000D01*
X60960000Y-27940000D02*
X60960000Y-35560000D01*
X60960000Y-60960000D02*
X60960000Y-53340000D01*
X60960000Y-68580000D02*
X60960000Y-76200000D01*
X60960000Y-43180000D02*
X60960000Y-50800000D01*
X68580000Y-68580000D02*
X68580000Y-76200000D01*
X68580000Y-43180000D02*
X68580000Y-50800000D01*
X68580000Y-60960000D02*
X68580000Y-53340000D01*
X68580000Y-27940000D02*
X68580000Y-35560000D01*
X71120000Y-68580000D02*
X71120000Y-76200000D01*
X71120000Y-43180000D02*
X71120000Y-50800000D01*
X71120000Y-60960000D02*
X71120000Y-53340000D01*
X63500000Y-27940000D02*
X63500000Y-35560000D01*
X66040000Y-60960000D02*
X66040000Y-53340000D01*
X66040000Y-43180000D02*
X66040000Y-50800000D01*
X66040000Y-68580000D02*
X66040000Y-76200000D01*
X63500000Y-60960000D02*
X63500000Y-53340000D01*
X63500000Y-68580000D02*
X63500000Y-76200000D01*
X71120000Y-27940000D02*
X71120000Y-35560000D01*
X63500000Y-43180000D02*
X63500000Y-50800000D01*
X66040000Y-27940000D02*
X66040000Y-35560000D01*
X78740000Y-68580000D02*
X78740000Y-76200000D01*
X78740000Y-43180000D02*
X78740000Y-50800000D01*
X78740000Y-60960000D02*
X78740000Y-53340000D01*
X78740000Y-27940000D02*
X78740000Y-35560000D01*
X81280000Y-68580000D02*
X81280000Y-76200000D01*
X81280000Y-43180000D02*
X81280000Y-50800000D01*
X81280000Y-60960000D02*
X81280000Y-53340000D01*
X73660000Y-27940000D02*
X73660000Y-35560000D01*
X76200000Y-60960000D02*
X76200000Y-53340000D01*
X76200000Y-43180000D02*
X76200000Y-50800000D01*
X76200000Y-68580000D02*
X76200000Y-76200000D01*
X73660000Y-60960000D02*
X73660000Y-53340000D01*
X73660000Y-68580000D02*
X73660000Y-76200000D01*
X81280000Y-27940000D02*
X81280000Y-35560000D01*
X73660000Y-43180000D02*
X73660000Y-50800000D01*
X76200000Y-27940000D02*
X76200000Y-35560000D01*
X88900000Y-68580000D02*
X88900000Y-76200000D01*
X88900000Y-43180000D02*
X88900000Y-50800000D01*
X88900000Y-60960000D02*
X88900000Y-53340000D01*
X88900000Y-27940000D02*
X88900000Y-35560000D01*
X91440000Y-68580000D02*
X91440000Y-76200000D01*
X91440000Y-43180000D02*
X91440000Y-50800000D01*
X91440000Y-60960000D02*
X91440000Y-53340000D01*
X83820000Y-27940000D02*
X83820000Y-35560000D01*
X86360000Y-60960000D02*
X86360000Y-53340000D01*
X86360000Y-43180000D02*
X86360000Y-50800000D01*
X86360000Y-68580000D02*
X86360000Y-76200000D01*
X83820000Y-60960000D02*
X83820000Y-53340000D01*
X83820000Y-68580000D02*
X83820000Y-76200000D01*
X91440000Y-27940000D02*
X91440000Y-35560000D01*
X83820000Y-43180000D02*
X83820000Y-50800000D01*
X86360000Y-27940000D02*
X86360000Y-35560000D01*
X99060000Y-68580000D02*
X99060000Y-76200000D01*
X99060000Y-43180000D02*
X99060000Y-50800000D01*
X99060000Y-60960000D02*
X99060000Y-53340000D01*
X99060000Y-27940000D02*
X99060000Y-35560000D01*
X101600000Y-68580000D02*
X101600000Y-76200000D01*
X101600000Y-43180000D02*
X101600000Y-50800000D01*
X101600000Y-60960000D02*
X101600000Y-53340000D01*
X93980000Y-27940000D02*
X93980000Y-35560000D01*
X96520000Y-60960000D02*
X96520000Y-53340000D01*
X96520000Y-43180000D02*
X96520000Y-50800000D01*
X96520000Y-68580000D02*
X96520000Y-76200000D01*
X93980000Y-60960000D02*
X93980000Y-53340000D01*
X93980000Y-68580000D02*
X93980000Y-76200000D01*
X101600000Y-27940000D02*
X101600000Y-35560000D01*
X93980000Y-43180000D02*
X93980000Y-50800000D01*
X96520000Y-27940000D02*
X96520000Y-35560000D01*
X109220000Y-68580000D02*
X109220000Y-76200000D01*
X109220000Y-43180000D02*
X109220000Y-50800000D01*
X109220000Y-60960000D02*
X109220000Y-53340000D01*
X109220000Y-27940000D02*
X109220000Y-35560000D01*
X111760000Y-68580000D02*
X111760000Y-76200000D01*
X111760000Y-43180000D02*
X111760000Y-50800000D01*
X111760000Y-60960000D02*
X111760000Y-53340000D01*
X104140000Y-27940000D02*
X104140000Y-35560000D01*
X106680000Y-60960000D02*
X106680000Y-53340000D01*
X106680000Y-43180000D02*
X106680000Y-50800000D01*
X106680000Y-68580000D02*
X106680000Y-76200000D01*
X104140000Y-60960000D02*
X104140000Y-53340000D01*
X104140000Y-68580000D02*
X104140000Y-76200000D01*
X111760000Y-27940000D02*
X111760000Y-35560000D01*
X104140000Y-43180000D02*
X104140000Y-50800000D01*
X106680000Y-27940000D02*
X106680000Y-35560000D01*
X114300000Y-27940000D02*
X114300000Y-35560000D01*
X114300000Y-60960000D02*
X114300000Y-53340000D01*
X114300000Y-68580000D02*
X114300000Y-76200000D01*
X114300000Y-43180000D02*
X114300000Y-50800000D01*
X116840000Y-27940000D02*
X116840000Y-35560000D01*
X116840000Y-60960000D02*
X116840000Y-53340000D01*
X116840000Y-68580000D02*
X116840000Y-76200000D01*
X116840000Y-43180000D02*
X116840000Y-50800000D01*
%TD*%
M02*
