M48
INCH,TZ
T1C0.0394
%
G90
G05
T1
X21000Y-11000
X21000Y-12000
X21000Y-13000
X21000Y-14000
X21000Y-15000
X21000Y-16000
X21000Y-17000
X21000Y-18000
X21000Y-19000
X21000Y-20000
X21000Y-21000
X21000Y-22000
X21000Y-23000
X21000Y-24000
X21000Y-25000
X21000Y-26000
X21000Y-27000
X21000Y-28000
X21000Y-29000
X21000Y-30000
X22000Y-11000
X22000Y-12000
X22000Y-13000
X22000Y-14000
X22000Y-15000
X22000Y-16000
X22000Y-17000
X22000Y-18000
X22000Y-19000
X22000Y-20000
X22000Y-21000
X22000Y-22000
X22000Y-23000
X22000Y-24000
X22000Y-25000
X22000Y-26000
X22000Y-27000
X22000Y-28000
X22000Y-29000
X22000Y-30000
X23000Y-11000
X23000Y-12000
X23000Y-13000
X23000Y-14000
X23000Y-15000
X23000Y-16000
X23000Y-17000
X23000Y-18000
X23000Y-19000
X23000Y-20000
X23000Y-21000
X23000Y-22000
X23000Y-23000
X23000Y-24000
X23000Y-25000
X23000Y-26000
X23000Y-27000
X23000Y-28000
X23000Y-29000
X23000Y-30000
X24000Y-11000
X24000Y-12000
X24000Y-13000
X24000Y-14000
X24000Y-15000
X24000Y-16000
X24000Y-17000
X24000Y-18000
X24000Y-19000
X24000Y-20000
X24000Y-21000
X24000Y-22000
X24000Y-23000
X24000Y-24000
X24000Y-25000
X24000Y-26000
X24000Y-27000
X24000Y-28000
X24000Y-29000
X24000Y-30000
X25000Y-11000
X25000Y-12000
X25000Y-13000
X25000Y-14000
X25000Y-15000
X25000Y-16000
X25000Y-17000
X25000Y-18000
X25000Y-19000
X25000Y-20000
X25000Y-21000
X25000Y-22000
X25000Y-23000
X25000Y-24000
X25000Y-25000
X25000Y-26000
X25000Y-27000
X25000Y-28000
X25000Y-29000
X25000Y-30000
X26000Y-11000
X26000Y-12000
X26000Y-13000
X26000Y-14000
X26000Y-15000
X26000Y-16000
X26000Y-17000
X26000Y-18000
X26000Y-19000
X26000Y-20000
X26000Y-21000
X26000Y-22000
X26000Y-23000
X26000Y-24000
X26000Y-25000
X26000Y-26000
X26000Y-27000
X26000Y-28000
X26000Y-29000
X26000Y-30000
X27000Y-11000
X27000Y-12000
X27000Y-13000
X27000Y-14000
X27000Y-15000
X27000Y-16000
X27000Y-17000
X27000Y-18000
X27000Y-19000
X27000Y-20000
X27000Y-21000
X27000Y-22000
X27000Y-23000
X27000Y-24000
X27000Y-25000
X27000Y-26000
X27000Y-27000
X27000Y-28000
X27000Y-29000
X27000Y-30000
X28000Y-11000
X28000Y-12000
X28000Y-13000
X28000Y-14000
X28000Y-15000
X28000Y-16000
X28000Y-17000
X28000Y-18000
X28000Y-19000
X28000Y-20000
X28000Y-21000
X28000Y-22000
X28000Y-23000
X28000Y-24000
X28000Y-25000
X28000Y-26000
X28000Y-27000
X28000Y-28000
X28000Y-29000
X28000Y-30000
X29000Y-11000
X29000Y-12000
X29000Y-13000
X29000Y-14000
X29000Y-15000
X29000Y-16000
X29000Y-17000
X29000Y-18000
X29000Y-19000
X29000Y-20000
X29000Y-21000
X29000Y-22000
X29000Y-23000
X29000Y-24000
X29000Y-25000
X29000Y-26000
X29000Y-27000
X29000Y-28000
X29000Y-29000
X29000Y-30000
X30000Y-11000
X30000Y-12000
X30000Y-13000
X30000Y-14000
X30000Y-15000
X30000Y-16000
X30000Y-17000
X30000Y-18000
X30000Y-19000
X30000Y-20000
X30000Y-21000
X30000Y-22000
X30000Y-23000
X30000Y-24000
X30000Y-25000
X30000Y-26000
X30000Y-27000
X30000Y-28000
X30000Y-29000
X30000Y-30000
X31000Y-11000
X31000Y-12000
X31000Y-13000
X31000Y-14000
X31000Y-15000
X31000Y-16000
X31000Y-17000
X31000Y-18000
X31000Y-19000
X31000Y-20000
X31000Y-21000
X31000Y-22000
X31000Y-23000
X31000Y-24000
X31000Y-25000
X31000Y-26000
X31000Y-27000
X31000Y-28000
X31000Y-29000
X31000Y-30000
X32000Y-11000
X32000Y-12000
X32000Y-13000
X32000Y-14000
X32000Y-15000
X32000Y-16000
X32000Y-17000
X32000Y-18000
X32000Y-19000
X32000Y-20000
X32000Y-21000
X32000Y-22000
X32000Y-23000
X32000Y-24000
X32000Y-25000
X32000Y-26000
X32000Y-27000
X32000Y-28000
X32000Y-29000
X32000Y-30000
X33000Y-11000
X33000Y-12000
X33000Y-13000
X33000Y-14000
X33000Y-15000
X33000Y-16000
X33000Y-17000
X33000Y-18000
X33000Y-19000
X33000Y-20000
X33000Y-21000
X33000Y-22000
X33000Y-23000
X33000Y-24000
X33000Y-25000
X33000Y-26000
X33000Y-27000
X33000Y-28000
X33000Y-29000
X33000Y-30000
X34000Y-11000
X34000Y-12000
X34000Y-13000
X34000Y-14000
X34000Y-15000
X34000Y-16000
X34000Y-17000
X34000Y-18000
X34000Y-19000
X34000Y-20000
X34000Y-21000
X34000Y-22000
X34000Y-23000
X34000Y-24000
X34000Y-25000
X34000Y-26000
X34000Y-27000
X34000Y-28000
X34000Y-29000
X34000Y-30000
X35000Y-11000
X35000Y-12000
X35000Y-13000
X35000Y-14000
X35000Y-15000
X35000Y-16000
X35000Y-17000
X35000Y-18000
X35000Y-19000
X35000Y-20000
X35000Y-21000
X35000Y-22000
X35000Y-23000
X35000Y-24000
X35000Y-25000
X35000Y-26000
X35000Y-27000
X35000Y-28000
X35000Y-29000
X35000Y-30000
X36000Y-11000
X36000Y-12000
X36000Y-13000
X36000Y-14000
X36000Y-15000
X36000Y-16000
X36000Y-17000
X36000Y-18000
X36000Y-19000
X36000Y-20000
X36000Y-21000
X36000Y-22000
X36000Y-23000
X36000Y-24000
X36000Y-25000
X36000Y-26000
X36000Y-27000
X36000Y-28000
X36000Y-29000
X36000Y-30000
X37000Y-11000
X37000Y-12000
X37000Y-13000
X37000Y-14000
X37000Y-15000
X37000Y-16000
X37000Y-17000
X37000Y-18000
X37000Y-19000
X37000Y-20000
X37000Y-21000
X37000Y-22000
X37000Y-23000
X37000Y-24000
X37000Y-25000
X37000Y-26000
X37000Y-27000
X37000Y-28000
X37000Y-29000
X37000Y-30000
X38000Y-11000
X38000Y-12000
X38000Y-13000
X38000Y-14000
X38000Y-15000
X38000Y-16000
X38000Y-17000
X38000Y-18000
X38000Y-19000
X38000Y-20000
X38000Y-21000
X38000Y-22000
X38000Y-23000
X38000Y-24000
X38000Y-25000
X38000Y-26000
X38000Y-27000
X38000Y-28000
X38000Y-29000
X38000Y-30000
X39000Y-11000
X39000Y-12000
X39000Y-13000
X39000Y-14000
X39000Y-15000
X39000Y-16000
X39000Y-17000
X39000Y-18000
X39000Y-19000
X39000Y-20000
X39000Y-21000
X39000Y-22000
X39000Y-23000
X39000Y-24000
X39000Y-25000
X39000Y-26000
X39000Y-27000
X39000Y-28000
X39000Y-29000
X39000Y-30000
X40000Y-11000
X40000Y-12000
X40000Y-13000
X40000Y-14000
X40000Y-15000
X40000Y-16000
X40000Y-17000
X40000Y-18000
X40000Y-19000
X40000Y-20000
X40000Y-21000
X40000Y-22000
X40000Y-23000
X40000Y-24000
X40000Y-25000
X40000Y-26000
X40000Y-27000
X40000Y-28000
X40000Y-29000
X40000Y-30000
X41000Y-11000
X41000Y-12000
X41000Y-13000
X41000Y-14000
X41000Y-15000
X41000Y-16000
X41000Y-17000
X41000Y-18000
X41000Y-19000
X41000Y-20000
X41000Y-21000
X41000Y-22000
X41000Y-23000
X41000Y-24000
X41000Y-25000
X41000Y-26000
X41000Y-27000
X41000Y-28000
X41000Y-29000
X41000Y-30000
X42000Y-11000
X42000Y-12000
X42000Y-13000
X42000Y-14000
X42000Y-15000
X42000Y-16000
X42000Y-17000
X42000Y-18000
X42000Y-19000
X42000Y-20000
X42000Y-21000
X42000Y-22000
X42000Y-23000
X42000Y-24000
X42000Y-25000
X42000Y-26000
X42000Y-27000
X42000Y-28000
X42000Y-29000
X42000Y-30000
X43000Y-11000
X43000Y-12000
X43000Y-13000
X43000Y-14000
X43000Y-15000
X43000Y-16000
X43000Y-17000
X43000Y-18000
X43000Y-19000
X43000Y-20000
X43000Y-21000
X43000Y-22000
X43000Y-23000
X43000Y-24000
X43000Y-25000
X43000Y-26000
X43000Y-27000
X43000Y-28000
X43000Y-29000
X43000Y-30000
X44000Y-11000
X44000Y-12000
X44000Y-13000
X44000Y-14000
X44000Y-15000
X44000Y-16000
X44000Y-17000
X44000Y-18000
X44000Y-19000
X44000Y-20000
X44000Y-21000
X44000Y-22000
X44000Y-23000
X44000Y-24000
X44000Y-25000
X44000Y-26000
X44000Y-27000
X44000Y-28000
X44000Y-29000
X44000Y-30000
X45000Y-11000
X45000Y-12000
X45000Y-13000
X45000Y-14000
X45000Y-15000
X45000Y-16000
X45000Y-17000
X45000Y-18000
X45000Y-19000
X45000Y-20000
X45000Y-21000
X45000Y-22000
X45000Y-23000
X45000Y-24000
X45000Y-25000
X45000Y-26000
X45000Y-27000
X45000Y-28000
X45000Y-29000
X45000Y-30000
X46000Y-11000
X46000Y-12000
X46000Y-13000
X46000Y-14000
X46000Y-15000
X46000Y-16000
X46000Y-17000
X46000Y-18000
X46000Y-19000
X46000Y-20000
X46000Y-21000
X46000Y-22000
X46000Y-23000
X46000Y-24000
X46000Y-25000
X46000Y-26000
X46000Y-27000
X46000Y-28000
X46000Y-29000
X46000Y-30000
T0
M30
