%TF.GenerationSoftware,KiCad,Pcbnew,(5.1.8)-1*%
%TF.CreationDate,2023-02-18T12:42:29+03:00*%
%TF.ProjectId,MUX8x1-v5,4d555838-7831-42d7-9635-2e6b69636164,rev?*%
%TF.SameCoordinates,Original*%
%TF.FileFunction,Soldermask,Bot*%
%TF.FilePolarity,Negative*%
%FSLAX46Y46*%
G04 Gerber Fmt 4.6, Leading zero omitted, Abs format (unit mm)*
G04 Created by KiCad (PCBNEW (5.1.8)-1) date 2023-02-18 12:42:29*
%MOMM*%
%LPD*%
G01*
G04 APERTURE LIST*
%ADD10O,1.500000X1.600000*%
%ADD11O,1.600000X1.600000*%
%ADD12R,1.600000X1.600000*%
%ADD13R,1.700000X1.700000*%
%ADD14O,2.200000X2.200000*%
%ADD15R,2.200000X2.200000*%
%ADD16O,1.500000X1.800000*%
%ADD17R,1.500000X1.800000*%
%ADD18O,1.800000X1.500000*%
%ADD19R,1.800000X1.500000*%
%ADD20C,2.600000*%
%ADD21R,2.600000X2.600000*%
%ADD22C,3.200000*%
G04 APERTURE END LIST*
D10*
%TO.C,C9*%
X137160000Y-93105000D03*
X137160000Y-78105000D03*
%TD*%
D11*
%TO.C,U9*%
X140970000Y-71120000D03*
X133350000Y-93980000D03*
X140970000Y-73660000D03*
X133350000Y-91440000D03*
X140970000Y-76200000D03*
X133350000Y-88900000D03*
X140970000Y-78740000D03*
X133350000Y-86360000D03*
X140970000Y-81280000D03*
X133350000Y-83820000D03*
X140970000Y-83820000D03*
X133350000Y-81280000D03*
X140970000Y-86360000D03*
X133350000Y-78740000D03*
X140970000Y-88900000D03*
X133350000Y-76200000D03*
X140970000Y-91440000D03*
X133350000Y-73660000D03*
X140970000Y-93980000D03*
D12*
X133350000Y-71120000D03*
%TD*%
%TO.C,R3*%
G36*
G01*
X147770001Y-69450000D02*
X146869999Y-69450000D01*
G75*
G02*
X146620000Y-69200001I0J249999D01*
G01*
X146620000Y-68499999D01*
G75*
G02*
X146869999Y-68250000I249999J0D01*
G01*
X147770001Y-68250000D01*
G75*
G02*
X148020000Y-68499999I0J-249999D01*
G01*
X148020000Y-69200001D01*
G75*
G02*
X147770001Y-69450000I-249999J0D01*
G01*
G37*
G36*
G01*
X147770001Y-71450000D02*
X146869999Y-71450000D01*
G75*
G02*
X146620000Y-71200001I0J249999D01*
G01*
X146620000Y-70499999D01*
G75*
G02*
X146869999Y-70250000I249999J0D01*
G01*
X147770001Y-70250000D01*
G75*
G02*
X148020000Y-70499999I0J-249999D01*
G01*
X148020000Y-71200001D01*
G75*
G02*
X147770001Y-71450000I-249999J0D01*
G01*
G37*
%TD*%
%TO.C,R2*%
G36*
G01*
X137830000Y-69030001D02*
X137830000Y-68129999D01*
G75*
G02*
X138079999Y-67880000I249999J0D01*
G01*
X138780001Y-67880000D01*
G75*
G02*
X139030000Y-68129999I0J-249999D01*
G01*
X139030000Y-69030001D01*
G75*
G02*
X138780001Y-69280000I-249999J0D01*
G01*
X138079999Y-69280000D01*
G75*
G02*
X137830000Y-69030001I0J249999D01*
G01*
G37*
G36*
G01*
X135830000Y-69030001D02*
X135830000Y-68129999D01*
G75*
G02*
X136079999Y-67880000I249999J0D01*
G01*
X136780001Y-67880000D01*
G75*
G02*
X137030000Y-68129999I0J-249999D01*
G01*
X137030000Y-69030001D01*
G75*
G02*
X136780001Y-69280000I-249999J0D01*
G01*
X136079999Y-69280000D01*
G75*
G02*
X135830000Y-69030001I0J249999D01*
G01*
G37*
%TD*%
D13*
%TO.C,J7*%
X151130000Y-71120000D03*
%TD*%
D14*
%TO.C,J3*%
X147320000Y-76200000D03*
X147320000Y-78740000D03*
X147320000Y-81280000D03*
X147320000Y-83820000D03*
X147320000Y-86360000D03*
X147320000Y-88900000D03*
X147320000Y-91440000D03*
X147320000Y-93980000D03*
D15*
X147320000Y-96520000D03*
%TD*%
D14*
%TO.C,J21*%
X151130000Y-76200000D03*
X151130000Y-78740000D03*
X151130000Y-81280000D03*
X151130000Y-83820000D03*
X151130000Y-86360000D03*
X151130000Y-88900000D03*
X151130000Y-91440000D03*
X151130000Y-93980000D03*
D15*
X151130000Y-96520000D03*
%TD*%
D16*
%TO.C,J18*%
X137160000Y-129540000D03*
X134620000Y-129540000D03*
X132080000Y-129540000D03*
X129540000Y-129540000D03*
X127000000Y-129540000D03*
X124460000Y-129540000D03*
X121920000Y-129540000D03*
X119380000Y-129540000D03*
D17*
X116840000Y-129540000D03*
%TD*%
D16*
%TO.C,J16*%
X137160000Y-133350000D03*
X134620000Y-133350000D03*
X132080000Y-133350000D03*
X129540000Y-133350000D03*
X127000000Y-133350000D03*
X124460000Y-133350000D03*
X121920000Y-133350000D03*
X119380000Y-133350000D03*
D17*
X116840000Y-133350000D03*
%TD*%
D16*
%TO.C,J15*%
X137160000Y-48260000D03*
X134620000Y-48260000D03*
X132080000Y-48260000D03*
X129540000Y-48260000D03*
X127000000Y-48260000D03*
X124460000Y-48260000D03*
X121920000Y-48260000D03*
X119380000Y-48260000D03*
D17*
X116840000Y-48260000D03*
%TD*%
D16*
%TO.C,J14*%
X93980000Y-133350000D03*
X91440000Y-133350000D03*
X88900000Y-133350000D03*
X86360000Y-133350000D03*
X83820000Y-133350000D03*
X81280000Y-133350000D03*
X78740000Y-133350000D03*
X76200000Y-133350000D03*
D17*
X73660000Y-133350000D03*
%TD*%
D16*
%TO.C,J12*%
X93980000Y-129540000D03*
X91440000Y-129540000D03*
X88900000Y-129540000D03*
X86360000Y-129540000D03*
X83820000Y-129540000D03*
X81280000Y-129540000D03*
X78740000Y-129540000D03*
X76200000Y-129540000D03*
D17*
X73660000Y-129540000D03*
%TD*%
D16*
%TO.C,J11*%
X93980000Y-48260000D03*
X91440000Y-48260000D03*
X88900000Y-48260000D03*
X86360000Y-48260000D03*
X83820000Y-48260000D03*
X81280000Y-48260000D03*
X78740000Y-48260000D03*
X76200000Y-48260000D03*
D17*
X73660000Y-48260000D03*
%TD*%
D16*
%TO.C,J8*%
X137160000Y-116880000D03*
X134620000Y-116880000D03*
X132080000Y-116880000D03*
X129540000Y-116880000D03*
X127000000Y-116880000D03*
X124460000Y-116880000D03*
X121920000Y-116880000D03*
X119380000Y-116880000D03*
D17*
X116840000Y-116880000D03*
%TD*%
D16*
%TO.C,J6*%
X137160000Y-120650000D03*
X134620000Y-120650000D03*
X132080000Y-120650000D03*
X129540000Y-120650000D03*
X127000000Y-120650000D03*
X124460000Y-120650000D03*
X121920000Y-120650000D03*
X119380000Y-120650000D03*
D17*
X116840000Y-120650000D03*
%TD*%
D16*
%TO.C,J5*%
X137160000Y-41910000D03*
X134620000Y-41910000D03*
X132080000Y-41910000D03*
X129540000Y-41910000D03*
X127000000Y-41910000D03*
X124460000Y-41910000D03*
X121920000Y-41910000D03*
X119380000Y-41910000D03*
D17*
X116840000Y-41910000D03*
%TD*%
D16*
%TO.C,J4*%
X93980000Y-116840000D03*
X91440000Y-116840000D03*
X88900000Y-116840000D03*
X86360000Y-116840000D03*
X83820000Y-116840000D03*
X81280000Y-116840000D03*
X78740000Y-116840000D03*
X76200000Y-116840000D03*
D17*
X73660000Y-116840000D03*
%TD*%
D16*
%TO.C,J2*%
X93980000Y-120650000D03*
X91440000Y-120650000D03*
X88900000Y-120650000D03*
X86360000Y-120650000D03*
X83820000Y-120650000D03*
X81280000Y-120650000D03*
X78740000Y-120650000D03*
X76200000Y-120650000D03*
D17*
X73660000Y-120650000D03*
%TD*%
D16*
%TO.C,J1*%
X93980000Y-41910000D03*
X91440000Y-41910000D03*
X88900000Y-41910000D03*
X86360000Y-41910000D03*
X83820000Y-41910000D03*
X81280000Y-41910000D03*
X78740000Y-41910000D03*
X76200000Y-41910000D03*
D17*
X73660000Y-41910000D03*
%TD*%
D10*
%TO.C,C8*%
X119380000Y-103900000D03*
X119380000Y-88900000D03*
%TD*%
%TO.C,C7*%
X101600000Y-103900000D03*
X101600000Y-88900000D03*
%TD*%
%TO.C,C6*%
X83820000Y-103900000D03*
X83820000Y-88900000D03*
%TD*%
%TO.C,C5*%
X66040000Y-103900000D03*
X66040000Y-88900000D03*
%TD*%
%TO.C,C4*%
X119380000Y-74055000D03*
X119380000Y-59055000D03*
%TD*%
%TO.C,C3*%
X101600000Y-74690000D03*
X101600000Y-59690000D03*
%TD*%
%TO.C,C2*%
X83820000Y-74690000D03*
X83820000Y-59690000D03*
%TD*%
%TO.C,C1*%
X66040000Y-74690000D03*
X66040000Y-59690000D03*
%TD*%
D18*
%TO.C,U8*%
X123190000Y-87630000D03*
X115570000Y-105410000D03*
X123190000Y-90170000D03*
X115570000Y-102870000D03*
X123190000Y-92710000D03*
X115570000Y-100330000D03*
X123190000Y-95250000D03*
X115570000Y-97790000D03*
X123190000Y-97790000D03*
X115570000Y-95250000D03*
X123190000Y-100330000D03*
X115570000Y-92710000D03*
X123190000Y-102870000D03*
X115570000Y-90170000D03*
X123190000Y-105410000D03*
D19*
X115570000Y-87630000D03*
%TD*%
D18*
%TO.C,U7*%
X105410000Y-87630000D03*
X97790000Y-105410000D03*
X105410000Y-90170000D03*
X97790000Y-102870000D03*
X105410000Y-92710000D03*
X97790000Y-100330000D03*
X105410000Y-95250000D03*
X97790000Y-97790000D03*
X105410000Y-97790000D03*
X97790000Y-95250000D03*
X105410000Y-100330000D03*
X97790000Y-92710000D03*
X105410000Y-102870000D03*
X97790000Y-90170000D03*
X105410000Y-105410000D03*
D19*
X97790000Y-87630000D03*
%TD*%
D18*
%TO.C,U6*%
X87630000Y-87630000D03*
X80010000Y-105410000D03*
X87630000Y-90170000D03*
X80010000Y-102870000D03*
X87630000Y-92710000D03*
X80010000Y-100330000D03*
X87630000Y-95250000D03*
X80010000Y-97790000D03*
X87630000Y-97790000D03*
X80010000Y-95250000D03*
X87630000Y-100330000D03*
X80010000Y-92710000D03*
X87630000Y-102870000D03*
X80010000Y-90170000D03*
X87630000Y-105410000D03*
D19*
X80010000Y-87630000D03*
%TD*%
D18*
%TO.C,U5*%
X69850000Y-87630000D03*
X62230000Y-105410000D03*
X69850000Y-90170000D03*
X62230000Y-102870000D03*
X69850000Y-92710000D03*
X62230000Y-100330000D03*
X69850000Y-95250000D03*
X62230000Y-97790000D03*
X69850000Y-97790000D03*
X62230000Y-95250000D03*
X69850000Y-100330000D03*
X62230000Y-92710000D03*
X69850000Y-102870000D03*
X62230000Y-90170000D03*
X69850000Y-105410000D03*
D19*
X62230000Y-87630000D03*
%TD*%
D18*
%TO.C,U4*%
X123190000Y-58420000D03*
X115570000Y-76200000D03*
X123190000Y-60960000D03*
X115570000Y-73660000D03*
X123190000Y-63500000D03*
X115570000Y-71120000D03*
X123190000Y-66040000D03*
X115570000Y-68580000D03*
X123190000Y-68580000D03*
X115570000Y-66040000D03*
X123190000Y-71120000D03*
X115570000Y-63500000D03*
X123190000Y-73660000D03*
X115570000Y-60960000D03*
X123190000Y-76200000D03*
D19*
X115570000Y-58420000D03*
%TD*%
D18*
%TO.C,U3*%
X105410000Y-58420000D03*
X97790000Y-76200000D03*
X105410000Y-60960000D03*
X97790000Y-73660000D03*
X105410000Y-63500000D03*
X97790000Y-71120000D03*
X105410000Y-66040000D03*
X97790000Y-68580000D03*
X105410000Y-68580000D03*
X97790000Y-66040000D03*
X105410000Y-71120000D03*
X97790000Y-63500000D03*
X105410000Y-73660000D03*
X97790000Y-60960000D03*
X105410000Y-76200000D03*
D19*
X97790000Y-58420000D03*
%TD*%
D18*
%TO.C,U2*%
X87630000Y-58420000D03*
X80010000Y-76200000D03*
X87630000Y-60960000D03*
X80010000Y-73660000D03*
X87630000Y-63500000D03*
X80010000Y-71120000D03*
X87630000Y-66040000D03*
X80010000Y-68580000D03*
X87630000Y-68580000D03*
X80010000Y-66040000D03*
X87630000Y-71120000D03*
X80010000Y-63500000D03*
X87630000Y-73660000D03*
X80010000Y-60960000D03*
X87630000Y-76200000D03*
D19*
X80010000Y-58420000D03*
%TD*%
D18*
%TO.C,U1*%
X69850000Y-58420000D03*
X62230000Y-76200000D03*
X69850000Y-60960000D03*
X62230000Y-73660000D03*
X69850000Y-63500000D03*
X62230000Y-71120000D03*
X69850000Y-66040000D03*
X62230000Y-68580000D03*
X69850000Y-68580000D03*
X62230000Y-66040000D03*
X69850000Y-71120000D03*
X62230000Y-63500000D03*
X69850000Y-73660000D03*
X62230000Y-60960000D03*
X69850000Y-76200000D03*
D19*
X62230000Y-58420000D03*
%TD*%
%TO.C,R1*%
G36*
G01*
X147770001Y-102470000D02*
X146869999Y-102470000D01*
G75*
G02*
X146620000Y-102220001I0J249999D01*
G01*
X146620000Y-101519999D01*
G75*
G02*
X146869999Y-101270000I249999J0D01*
G01*
X147770001Y-101270000D01*
G75*
G02*
X148020000Y-101519999I0J-249999D01*
G01*
X148020000Y-102220001D01*
G75*
G02*
X147770001Y-102470000I-249999J0D01*
G01*
G37*
G36*
G01*
X147770001Y-104470000D02*
X146869999Y-104470000D01*
G75*
G02*
X146620000Y-104220001I0J249999D01*
G01*
X146620000Y-103519999D01*
G75*
G02*
X146869999Y-103270000I249999J0D01*
G01*
X147770001Y-103270000D01*
G75*
G02*
X148020000Y-103519999I0J-249999D01*
G01*
X148020000Y-104220001D01*
G75*
G02*
X147770001Y-104470000I-249999J0D01*
G01*
G37*
%TD*%
D13*
%TO.C,J20*%
X151130000Y-104140000D03*
%TD*%
D18*
%TO.C,J10*%
X151130000Y-114300000D03*
X151130000Y-111760000D03*
D19*
X151130000Y-109220000D03*
%TD*%
D20*
%TO.C,J9*%
X147320000Y-54690000D03*
D21*
X147320000Y-59690000D03*
%TD*%
D22*
%TO.C,H4*%
X149860000Y-132080000D03*
%TD*%
%TO.C,H3*%
X149860000Y-43180000D03*
%TD*%
%TO.C,H2*%
X60960000Y-132080000D03*
%TD*%
%TO.C,H1*%
X60960000Y-43180000D03*
%TD*%
M02*
