G04 #@! TF.GenerationSoftware,KiCad,Pcbnew,(5.1.8)-1*
G04 #@! TF.CreationDate,2023-07-12T22:55:22+03:00*
G04 #@! TF.ProjectId,CMP,434d502e-6b69-4636-9164-5f7063625858,rev?*
G04 #@! TF.SameCoordinates,PX354a940PY2a16894*
G04 #@! TF.FileFunction,Copper,L1,Top*
G04 #@! TF.FilePolarity,Positive*
%FSLAX46Y46*%
G04 Gerber Fmt 4.6, Leading zero omitted, Abs format (unit mm)*
G04 Created by KiCad (PCBNEW (5.1.8)-1) date 2023-07-12 22:55:22*
%MOMM*%
%LPD*%
G01*
G04 APERTURE LIST*
G04 #@! TA.AperFunction,NonConductor*
%ADD10C,0.300000*%
G04 #@! TD*
G04 #@! TA.AperFunction,NonConductor*
%ADD11C,0.150000*%
G04 #@! TD*
G04 #@! TA.AperFunction,NonConductor*
%ADD12C,0.200000*%
G04 #@! TD*
G04 #@! TA.AperFunction,ComponentPad*
%ADD13C,1.500000*%
G04 #@! TD*
G04 #@! TA.AperFunction,ComponentPad*
%ADD14R,2.000000X1.500000*%
G04 #@! TD*
G04 #@! TA.AperFunction,ComponentPad*
%ADD15O,2.000000X1.500000*%
G04 #@! TD*
G04 #@! TA.AperFunction,ComponentPad*
%ADD16O,1.800000X2.300000*%
G04 #@! TD*
G04 #@! TA.AperFunction,ComponentPad*
%ADD17R,1.800000X2.300000*%
G04 #@! TD*
G04 #@! TA.AperFunction,ViaPad*
%ADD18C,1.500000*%
G04 #@! TD*
G04 #@! TA.AperFunction,Conductor*
%ADD19C,0.500000*%
G04 #@! TD*
G04 #@! TA.AperFunction,Conductor*
%ADD20C,0.600000*%
G04 #@! TD*
G04 APERTURE END LIST*
D10*
X1226428Y-20430357D02*
X1155000Y-20358928D01*
X1083571Y-20216071D01*
X1083571Y-19858928D01*
X1155000Y-19716071D01*
X1226428Y-19644642D01*
X1369285Y-19573214D01*
X1512142Y-19573214D01*
X1726428Y-19644642D01*
X2583571Y-20501785D01*
X2583571Y-19573214D01*
X1083571Y-19073214D02*
X1083571Y-18073214D01*
X2583571Y-18716071D01*
X2440714Y-17501785D02*
X2512142Y-17430357D01*
X2583571Y-17501785D01*
X2512142Y-17573214D01*
X2440714Y-17501785D01*
X2583571Y-17501785D01*
X1083571Y-16501785D02*
X1083571Y-16358928D01*
X1155000Y-16216071D01*
X1226428Y-16144642D01*
X1369285Y-16073214D01*
X1655000Y-16001785D01*
X2012142Y-16001785D01*
X2297857Y-16073214D01*
X2440714Y-16144642D01*
X2512142Y-16216071D01*
X2583571Y-16358928D01*
X2583571Y-16501785D01*
X2512142Y-16644642D01*
X2440714Y-16716071D01*
X2297857Y-16787500D01*
X2012142Y-16858928D01*
X1655000Y-16858928D01*
X1369285Y-16787500D01*
X1226428Y-16716071D01*
X1155000Y-16644642D01*
X1083571Y-16501785D01*
X1083571Y-14716071D02*
X1083571Y-15001785D01*
X1155000Y-15144642D01*
X1226428Y-15216071D01*
X1440714Y-15358928D01*
X1726428Y-15430357D01*
X2297857Y-15430357D01*
X2440714Y-15358928D01*
X2512142Y-15287500D01*
X2583571Y-15144642D01*
X2583571Y-14858928D01*
X2512142Y-14716071D01*
X2440714Y-14644642D01*
X2297857Y-14573214D01*
X1940714Y-14573214D01*
X1797857Y-14644642D01*
X1726428Y-14716071D01*
X1655000Y-14858928D01*
X1655000Y-15144642D01*
X1726428Y-15287500D01*
X1797857Y-15358928D01*
X1940714Y-15430357D01*
X2440714Y-13930357D02*
X2512142Y-13858928D01*
X2583571Y-13930357D01*
X2512142Y-14001785D01*
X2440714Y-13930357D01*
X2583571Y-13930357D01*
X1226428Y-13287500D02*
X1155000Y-13216071D01*
X1083571Y-13073214D01*
X1083571Y-12716071D01*
X1155000Y-12573214D01*
X1226428Y-12501785D01*
X1369285Y-12430357D01*
X1512142Y-12430357D01*
X1726428Y-12501785D01*
X2583571Y-13358928D01*
X2583571Y-12430357D01*
X1083571Y-11501785D02*
X1083571Y-11358928D01*
X1155000Y-11216071D01*
X1226428Y-11144642D01*
X1369285Y-11073214D01*
X1655000Y-11001785D01*
X2012142Y-11001785D01*
X2297857Y-11073214D01*
X2440714Y-11144642D01*
X2512142Y-11216071D01*
X2583571Y-11358928D01*
X2583571Y-11501785D01*
X2512142Y-11644642D01*
X2440714Y-11716071D01*
X2297857Y-11787500D01*
X2012142Y-11858928D01*
X1655000Y-11858928D01*
X1369285Y-11787500D01*
X1226428Y-11716071D01*
X1155000Y-11644642D01*
X1083571Y-11501785D01*
X1226428Y-10430357D02*
X1155000Y-10358928D01*
X1083571Y-10216071D01*
X1083571Y-9858928D01*
X1155000Y-9716071D01*
X1226428Y-9644642D01*
X1369285Y-9573214D01*
X1512142Y-9573214D01*
X1726428Y-9644642D01*
X2583571Y-10501785D01*
X2583571Y-9573214D01*
X1083571Y-9073214D02*
X1083571Y-8144642D01*
X1655000Y-8644642D01*
X1655000Y-8430357D01*
X1726428Y-8287500D01*
X1797857Y-8216071D01*
X1940714Y-8144642D01*
X2297857Y-8144642D01*
X2440714Y-8216071D01*
X2512142Y-8287500D01*
X2583571Y-8430357D01*
X2583571Y-8858928D01*
X2512142Y-9001785D01*
X2440714Y-9073214D01*
X4258571Y-19843214D02*
X4258571Y-18843214D01*
X5758571Y-19486071D01*
X4758571Y-17628928D02*
X5758571Y-17628928D01*
X4187142Y-17986071D02*
X5258571Y-18343214D01*
X5258571Y-17414642D01*
X5758571Y-16843214D02*
X4258571Y-16843214D01*
X4972857Y-16843214D02*
X4972857Y-15986071D01*
X5758571Y-15986071D02*
X4258571Y-15986071D01*
X5615714Y-14414642D02*
X5687142Y-14486071D01*
X5758571Y-14700357D01*
X5758571Y-14843214D01*
X5687142Y-15057500D01*
X5544285Y-15200357D01*
X5401428Y-15271785D01*
X5115714Y-15343214D01*
X4901428Y-15343214D01*
X4615714Y-15271785D01*
X4472857Y-15200357D01*
X4330000Y-15057500D01*
X4258571Y-14843214D01*
X4258571Y-14700357D01*
X4330000Y-14486071D01*
X4401428Y-14414642D01*
X5758571Y-13771785D02*
X4258571Y-13771785D01*
X4258571Y-13200357D01*
X4330000Y-13057500D01*
X4401428Y-12986071D01*
X4544285Y-12914642D01*
X4758571Y-12914642D01*
X4901428Y-12986071D01*
X4972857Y-13057500D01*
X5044285Y-13200357D01*
X5044285Y-13771785D01*
X4258571Y-12271785D02*
X5472857Y-12271785D01*
X5615714Y-12200357D01*
X5687142Y-12128928D01*
X5758571Y-11986071D01*
X5758571Y-11700357D01*
X5687142Y-11557500D01*
X5615714Y-11486071D01*
X5472857Y-11414642D01*
X4258571Y-11414642D01*
D11*
X71842380Y-32622976D02*
X72842380Y-32289642D01*
X71842380Y-31956309D01*
X72794761Y-31194404D02*
X72842380Y-31289642D01*
X72842380Y-31480119D01*
X72794761Y-31575357D01*
X72747142Y-31622976D01*
X72651904Y-31670595D01*
X72366190Y-31670595D01*
X72270952Y-31622976D01*
X72223333Y-31575357D01*
X72175714Y-31480119D01*
X72175714Y-31289642D01*
X72223333Y-31194404D01*
X72794761Y-30337261D02*
X72842380Y-30432500D01*
X72842380Y-30622976D01*
X72794761Y-30718214D01*
X72747142Y-30765833D01*
X72651904Y-30813452D01*
X72366190Y-30813452D01*
X72270952Y-30765833D01*
X72223333Y-30718214D01*
X72175714Y-30622976D01*
X72175714Y-30432500D01*
X72223333Y-30337261D01*
D12*
X10242500Y-2540000D02*
G75*
G03*
X10242500Y-2540000I-400000J0D01*
G01*
X24847500Y-4127500D02*
G75*
G03*
X24847500Y-4127500I-400000J0D01*
G01*
X17862500Y-17280000D02*
G75*
G03*
X17862500Y-17280000I-400000J0D01*
G01*
X37230000Y-18097500D02*
G75*
G03*
X37230000Y-18097500I-400000J0D01*
G01*
X53740000Y-19050000D02*
G75*
G03*
X53740000Y-19050000I-400000J0D01*
G01*
D13*
X25717500Y-17462500D03*
X36542818Y-23712500D03*
X8493099Y-17277795D03*
X18732500Y-24447500D03*
G04 #@! TA.AperFunction,SMDPad,CuDef*
G36*
G01*
X77070000Y-30982499D02*
X77070000Y-31882501D01*
G75*
G02*
X76820001Y-32132500I-249999J0D01*
G01*
X76119999Y-32132500D01*
G75*
G02*
X75870000Y-31882501I0J249999D01*
G01*
X75870000Y-30982499D01*
G75*
G02*
X76119999Y-30732500I249999J0D01*
G01*
X76820001Y-30732500D01*
G75*
G02*
X77070000Y-30982499I0J-249999D01*
G01*
G37*
G04 #@! TD.AperFunction*
G04 #@! TA.AperFunction,SMDPad,CuDef*
G36*
G01*
X79070000Y-30982499D02*
X79070000Y-31882501D01*
G75*
G02*
X78820001Y-32132500I-249999J0D01*
G01*
X78119999Y-32132500D01*
G75*
G02*
X77870000Y-31882501I0J249999D01*
G01*
X77870000Y-30982499D01*
G75*
G02*
X78119999Y-30732500I249999J0D01*
G01*
X78820001Y-30732500D01*
G75*
G02*
X79070000Y-30982499I0J-249999D01*
G01*
G37*
G04 #@! TD.AperFunction*
G04 #@! TA.AperFunction,SMDPad,CuDef*
G36*
G01*
X14200000Y-4277500D02*
X14200000Y-3977500D01*
G75*
G02*
X14350000Y-3827500I150000J0D01*
G01*
X16000000Y-3827500D01*
G75*
G02*
X16150000Y-3977500I0J-150000D01*
G01*
X16150000Y-4277500D01*
G75*
G02*
X16000000Y-4427500I-150000J0D01*
G01*
X14350000Y-4427500D01*
G75*
G02*
X14200000Y-4277500I0J150000D01*
G01*
G37*
G04 #@! TD.AperFunction*
G04 #@! TA.AperFunction,SMDPad,CuDef*
G36*
G01*
X14200000Y-5547500D02*
X14200000Y-5247500D01*
G75*
G02*
X14350000Y-5097500I150000J0D01*
G01*
X16000000Y-5097500D01*
G75*
G02*
X16150000Y-5247500I0J-150000D01*
G01*
X16150000Y-5547500D01*
G75*
G02*
X16000000Y-5697500I-150000J0D01*
G01*
X14350000Y-5697500D01*
G75*
G02*
X14200000Y-5547500I0J150000D01*
G01*
G37*
G04 #@! TD.AperFunction*
G04 #@! TA.AperFunction,SMDPad,CuDef*
G36*
G01*
X14200000Y-6817500D02*
X14200000Y-6517500D01*
G75*
G02*
X14350000Y-6367500I150000J0D01*
G01*
X16000000Y-6367500D01*
G75*
G02*
X16150000Y-6517500I0J-150000D01*
G01*
X16150000Y-6817500D01*
G75*
G02*
X16000000Y-6967500I-150000J0D01*
G01*
X14350000Y-6967500D01*
G75*
G02*
X14200000Y-6817500I0J150000D01*
G01*
G37*
G04 #@! TD.AperFunction*
G04 #@! TA.AperFunction,SMDPad,CuDef*
G36*
G01*
X14200000Y-8087500D02*
X14200000Y-7787500D01*
G75*
G02*
X14350000Y-7637500I150000J0D01*
G01*
X16000000Y-7637500D01*
G75*
G02*
X16150000Y-7787500I0J-150000D01*
G01*
X16150000Y-8087500D01*
G75*
G02*
X16000000Y-8237500I-150000J0D01*
G01*
X14350000Y-8237500D01*
G75*
G02*
X14200000Y-8087500I0J150000D01*
G01*
G37*
G04 #@! TD.AperFunction*
G04 #@! TA.AperFunction,SMDPad,CuDef*
G36*
G01*
X14200000Y-9357500D02*
X14200000Y-9057500D01*
G75*
G02*
X14350000Y-8907500I150000J0D01*
G01*
X16000000Y-8907500D01*
G75*
G02*
X16150000Y-9057500I0J-150000D01*
G01*
X16150000Y-9357500D01*
G75*
G02*
X16000000Y-9507500I-150000J0D01*
G01*
X14350000Y-9507500D01*
G75*
G02*
X14200000Y-9357500I0J150000D01*
G01*
G37*
G04 #@! TD.AperFunction*
G04 #@! TA.AperFunction,SMDPad,CuDef*
G36*
G01*
X14200000Y-10627500D02*
X14200000Y-10327500D01*
G75*
G02*
X14350000Y-10177500I150000J0D01*
G01*
X16000000Y-10177500D01*
G75*
G02*
X16150000Y-10327500I0J-150000D01*
G01*
X16150000Y-10627500D01*
G75*
G02*
X16000000Y-10777500I-150000J0D01*
G01*
X14350000Y-10777500D01*
G75*
G02*
X14200000Y-10627500I0J150000D01*
G01*
G37*
G04 #@! TD.AperFunction*
G04 #@! TA.AperFunction,SMDPad,CuDef*
G36*
G01*
X14200000Y-11897500D02*
X14200000Y-11597500D01*
G75*
G02*
X14350000Y-11447500I150000J0D01*
G01*
X16000000Y-11447500D01*
G75*
G02*
X16150000Y-11597500I0J-150000D01*
G01*
X16150000Y-11897500D01*
G75*
G02*
X16000000Y-12047500I-150000J0D01*
G01*
X14350000Y-12047500D01*
G75*
G02*
X14200000Y-11897500I0J150000D01*
G01*
G37*
G04 #@! TD.AperFunction*
G04 #@! TA.AperFunction,SMDPad,CuDef*
G36*
G01*
X9250000Y-11897500D02*
X9250000Y-11597500D01*
G75*
G02*
X9400000Y-11447500I150000J0D01*
G01*
X11050000Y-11447500D01*
G75*
G02*
X11200000Y-11597500I0J-150000D01*
G01*
X11200000Y-11897500D01*
G75*
G02*
X11050000Y-12047500I-150000J0D01*
G01*
X9400000Y-12047500D01*
G75*
G02*
X9250000Y-11897500I0J150000D01*
G01*
G37*
G04 #@! TD.AperFunction*
G04 #@! TA.AperFunction,SMDPad,CuDef*
G36*
G01*
X9250000Y-10627500D02*
X9250000Y-10327500D01*
G75*
G02*
X9400000Y-10177500I150000J0D01*
G01*
X11050000Y-10177500D01*
G75*
G02*
X11200000Y-10327500I0J-150000D01*
G01*
X11200000Y-10627500D01*
G75*
G02*
X11050000Y-10777500I-150000J0D01*
G01*
X9400000Y-10777500D01*
G75*
G02*
X9250000Y-10627500I0J150000D01*
G01*
G37*
G04 #@! TD.AperFunction*
G04 #@! TA.AperFunction,SMDPad,CuDef*
G36*
G01*
X9250000Y-9357500D02*
X9250000Y-9057500D01*
G75*
G02*
X9400000Y-8907500I150000J0D01*
G01*
X11050000Y-8907500D01*
G75*
G02*
X11200000Y-9057500I0J-150000D01*
G01*
X11200000Y-9357500D01*
G75*
G02*
X11050000Y-9507500I-150000J0D01*
G01*
X9400000Y-9507500D01*
G75*
G02*
X9250000Y-9357500I0J150000D01*
G01*
G37*
G04 #@! TD.AperFunction*
G04 #@! TA.AperFunction,SMDPad,CuDef*
G36*
G01*
X9250000Y-8087500D02*
X9250000Y-7787500D01*
G75*
G02*
X9400000Y-7637500I150000J0D01*
G01*
X11050000Y-7637500D01*
G75*
G02*
X11200000Y-7787500I0J-150000D01*
G01*
X11200000Y-8087500D01*
G75*
G02*
X11050000Y-8237500I-150000J0D01*
G01*
X9400000Y-8237500D01*
G75*
G02*
X9250000Y-8087500I0J150000D01*
G01*
G37*
G04 #@! TD.AperFunction*
G04 #@! TA.AperFunction,SMDPad,CuDef*
G36*
G01*
X9250000Y-6817500D02*
X9250000Y-6517500D01*
G75*
G02*
X9400000Y-6367500I150000J0D01*
G01*
X11050000Y-6367500D01*
G75*
G02*
X11200000Y-6517500I0J-150000D01*
G01*
X11200000Y-6817500D01*
G75*
G02*
X11050000Y-6967500I-150000J0D01*
G01*
X9400000Y-6967500D01*
G75*
G02*
X9250000Y-6817500I0J150000D01*
G01*
G37*
G04 #@! TD.AperFunction*
G04 #@! TA.AperFunction,SMDPad,CuDef*
G36*
G01*
X9250000Y-5547500D02*
X9250000Y-5247500D01*
G75*
G02*
X9400000Y-5097500I150000J0D01*
G01*
X11050000Y-5097500D01*
G75*
G02*
X11200000Y-5247500I0J-150000D01*
G01*
X11200000Y-5547500D01*
G75*
G02*
X11050000Y-5697500I-150000J0D01*
G01*
X9400000Y-5697500D01*
G75*
G02*
X9250000Y-5547500I0J150000D01*
G01*
G37*
G04 #@! TD.AperFunction*
G04 #@! TA.AperFunction,SMDPad,CuDef*
G36*
G01*
X9250000Y-4277500D02*
X9250000Y-3977500D01*
G75*
G02*
X9400000Y-3827500I150000J0D01*
G01*
X11050000Y-3827500D01*
G75*
G02*
X11200000Y-3977500I0J-150000D01*
G01*
X11200000Y-4277500D01*
G75*
G02*
X11050000Y-4427500I-150000J0D01*
G01*
X9400000Y-4427500D01*
G75*
G02*
X9250000Y-4277500I0J150000D01*
G01*
G37*
G04 #@! TD.AperFunction*
G04 #@! TA.AperFunction,SMDPad,CuDef*
G36*
G01*
X31980000Y-4277500D02*
X31980000Y-3977500D01*
G75*
G02*
X32130000Y-3827500I150000J0D01*
G01*
X33780000Y-3827500D01*
G75*
G02*
X33930000Y-3977500I0J-150000D01*
G01*
X33930000Y-4277500D01*
G75*
G02*
X33780000Y-4427500I-150000J0D01*
G01*
X32130000Y-4427500D01*
G75*
G02*
X31980000Y-4277500I0J150000D01*
G01*
G37*
G04 #@! TD.AperFunction*
G04 #@! TA.AperFunction,SMDPad,CuDef*
G36*
G01*
X31980000Y-5547500D02*
X31980000Y-5247500D01*
G75*
G02*
X32130000Y-5097500I150000J0D01*
G01*
X33780000Y-5097500D01*
G75*
G02*
X33930000Y-5247500I0J-150000D01*
G01*
X33930000Y-5547500D01*
G75*
G02*
X33780000Y-5697500I-150000J0D01*
G01*
X32130000Y-5697500D01*
G75*
G02*
X31980000Y-5547500I0J150000D01*
G01*
G37*
G04 #@! TD.AperFunction*
G04 #@! TA.AperFunction,SMDPad,CuDef*
G36*
G01*
X31980000Y-6817500D02*
X31980000Y-6517500D01*
G75*
G02*
X32130000Y-6367500I150000J0D01*
G01*
X33780000Y-6367500D01*
G75*
G02*
X33930000Y-6517500I0J-150000D01*
G01*
X33930000Y-6817500D01*
G75*
G02*
X33780000Y-6967500I-150000J0D01*
G01*
X32130000Y-6967500D01*
G75*
G02*
X31980000Y-6817500I0J150000D01*
G01*
G37*
G04 #@! TD.AperFunction*
G04 #@! TA.AperFunction,SMDPad,CuDef*
G36*
G01*
X31980000Y-8087500D02*
X31980000Y-7787500D01*
G75*
G02*
X32130000Y-7637500I150000J0D01*
G01*
X33780000Y-7637500D01*
G75*
G02*
X33930000Y-7787500I0J-150000D01*
G01*
X33930000Y-8087500D01*
G75*
G02*
X33780000Y-8237500I-150000J0D01*
G01*
X32130000Y-8237500D01*
G75*
G02*
X31980000Y-8087500I0J150000D01*
G01*
G37*
G04 #@! TD.AperFunction*
G04 #@! TA.AperFunction,SMDPad,CuDef*
G36*
G01*
X31980000Y-9357500D02*
X31980000Y-9057500D01*
G75*
G02*
X32130000Y-8907500I150000J0D01*
G01*
X33780000Y-8907500D01*
G75*
G02*
X33930000Y-9057500I0J-150000D01*
G01*
X33930000Y-9357500D01*
G75*
G02*
X33780000Y-9507500I-150000J0D01*
G01*
X32130000Y-9507500D01*
G75*
G02*
X31980000Y-9357500I0J150000D01*
G01*
G37*
G04 #@! TD.AperFunction*
G04 #@! TA.AperFunction,SMDPad,CuDef*
G36*
G01*
X31980000Y-10627500D02*
X31980000Y-10327500D01*
G75*
G02*
X32130000Y-10177500I150000J0D01*
G01*
X33780000Y-10177500D01*
G75*
G02*
X33930000Y-10327500I0J-150000D01*
G01*
X33930000Y-10627500D01*
G75*
G02*
X33780000Y-10777500I-150000J0D01*
G01*
X32130000Y-10777500D01*
G75*
G02*
X31980000Y-10627500I0J150000D01*
G01*
G37*
G04 #@! TD.AperFunction*
G04 #@! TA.AperFunction,SMDPad,CuDef*
G36*
G01*
X31980000Y-11897500D02*
X31980000Y-11597500D01*
G75*
G02*
X32130000Y-11447500I150000J0D01*
G01*
X33780000Y-11447500D01*
G75*
G02*
X33930000Y-11597500I0J-150000D01*
G01*
X33930000Y-11897500D01*
G75*
G02*
X33780000Y-12047500I-150000J0D01*
G01*
X32130000Y-12047500D01*
G75*
G02*
X31980000Y-11897500I0J150000D01*
G01*
G37*
G04 #@! TD.AperFunction*
G04 #@! TA.AperFunction,SMDPad,CuDef*
G36*
G01*
X27030000Y-11897500D02*
X27030000Y-11597500D01*
G75*
G02*
X27180000Y-11447500I150000J0D01*
G01*
X28830000Y-11447500D01*
G75*
G02*
X28980000Y-11597500I0J-150000D01*
G01*
X28980000Y-11897500D01*
G75*
G02*
X28830000Y-12047500I-150000J0D01*
G01*
X27180000Y-12047500D01*
G75*
G02*
X27030000Y-11897500I0J150000D01*
G01*
G37*
G04 #@! TD.AperFunction*
G04 #@! TA.AperFunction,SMDPad,CuDef*
G36*
G01*
X27030000Y-10627500D02*
X27030000Y-10327500D01*
G75*
G02*
X27180000Y-10177500I150000J0D01*
G01*
X28830000Y-10177500D01*
G75*
G02*
X28980000Y-10327500I0J-150000D01*
G01*
X28980000Y-10627500D01*
G75*
G02*
X28830000Y-10777500I-150000J0D01*
G01*
X27180000Y-10777500D01*
G75*
G02*
X27030000Y-10627500I0J150000D01*
G01*
G37*
G04 #@! TD.AperFunction*
G04 #@! TA.AperFunction,SMDPad,CuDef*
G36*
G01*
X27030000Y-9357500D02*
X27030000Y-9057500D01*
G75*
G02*
X27180000Y-8907500I150000J0D01*
G01*
X28830000Y-8907500D01*
G75*
G02*
X28980000Y-9057500I0J-150000D01*
G01*
X28980000Y-9357500D01*
G75*
G02*
X28830000Y-9507500I-150000J0D01*
G01*
X27180000Y-9507500D01*
G75*
G02*
X27030000Y-9357500I0J150000D01*
G01*
G37*
G04 #@! TD.AperFunction*
G04 #@! TA.AperFunction,SMDPad,CuDef*
G36*
G01*
X27030000Y-8087500D02*
X27030000Y-7787500D01*
G75*
G02*
X27180000Y-7637500I150000J0D01*
G01*
X28830000Y-7637500D01*
G75*
G02*
X28980000Y-7787500I0J-150000D01*
G01*
X28980000Y-8087500D01*
G75*
G02*
X28830000Y-8237500I-150000J0D01*
G01*
X27180000Y-8237500D01*
G75*
G02*
X27030000Y-8087500I0J150000D01*
G01*
G37*
G04 #@! TD.AperFunction*
G04 #@! TA.AperFunction,SMDPad,CuDef*
G36*
G01*
X27030000Y-6817500D02*
X27030000Y-6517500D01*
G75*
G02*
X27180000Y-6367500I150000J0D01*
G01*
X28830000Y-6367500D01*
G75*
G02*
X28980000Y-6517500I0J-150000D01*
G01*
X28980000Y-6817500D01*
G75*
G02*
X28830000Y-6967500I-150000J0D01*
G01*
X27180000Y-6967500D01*
G75*
G02*
X27030000Y-6817500I0J150000D01*
G01*
G37*
G04 #@! TD.AperFunction*
G04 #@! TA.AperFunction,SMDPad,CuDef*
G36*
G01*
X27030000Y-5547500D02*
X27030000Y-5247500D01*
G75*
G02*
X27180000Y-5097500I150000J0D01*
G01*
X28830000Y-5097500D01*
G75*
G02*
X28980000Y-5247500I0J-150000D01*
G01*
X28980000Y-5547500D01*
G75*
G02*
X28830000Y-5697500I-150000J0D01*
G01*
X27180000Y-5697500D01*
G75*
G02*
X27030000Y-5547500I0J150000D01*
G01*
G37*
G04 #@! TD.AperFunction*
G04 #@! TA.AperFunction,SMDPad,CuDef*
G36*
G01*
X27030000Y-4277500D02*
X27030000Y-3977500D01*
G75*
G02*
X27180000Y-3827500I150000J0D01*
G01*
X28830000Y-3827500D01*
G75*
G02*
X28980000Y-3977500I0J-150000D01*
G01*
X28980000Y-4277500D01*
G75*
G02*
X28830000Y-4427500I-150000J0D01*
G01*
X27180000Y-4427500D01*
G75*
G02*
X27030000Y-4277500I0J150000D01*
G01*
G37*
G04 #@! TD.AperFunction*
G04 #@! TA.AperFunction,SMDPad,CuDef*
G36*
G01*
X58650000Y-20787500D02*
X58650000Y-20487500D01*
G75*
G02*
X58800000Y-20337500I150000J0D01*
G01*
X60450000Y-20337500D01*
G75*
G02*
X60600000Y-20487500I0J-150000D01*
G01*
X60600000Y-20787500D01*
G75*
G02*
X60450000Y-20937500I-150000J0D01*
G01*
X58800000Y-20937500D01*
G75*
G02*
X58650000Y-20787500I0J150000D01*
G01*
G37*
G04 #@! TD.AperFunction*
G04 #@! TA.AperFunction,SMDPad,CuDef*
G36*
G01*
X58650000Y-22057500D02*
X58650000Y-21757500D01*
G75*
G02*
X58800000Y-21607500I150000J0D01*
G01*
X60450000Y-21607500D01*
G75*
G02*
X60600000Y-21757500I0J-150000D01*
G01*
X60600000Y-22057500D01*
G75*
G02*
X60450000Y-22207500I-150000J0D01*
G01*
X58800000Y-22207500D01*
G75*
G02*
X58650000Y-22057500I0J150000D01*
G01*
G37*
G04 #@! TD.AperFunction*
G04 #@! TA.AperFunction,SMDPad,CuDef*
G36*
G01*
X58650000Y-23327500D02*
X58650000Y-23027500D01*
G75*
G02*
X58800000Y-22877500I150000J0D01*
G01*
X60450000Y-22877500D01*
G75*
G02*
X60600000Y-23027500I0J-150000D01*
G01*
X60600000Y-23327500D01*
G75*
G02*
X60450000Y-23477500I-150000J0D01*
G01*
X58800000Y-23477500D01*
G75*
G02*
X58650000Y-23327500I0J150000D01*
G01*
G37*
G04 #@! TD.AperFunction*
G04 #@! TA.AperFunction,SMDPad,CuDef*
G36*
G01*
X58650000Y-24597500D02*
X58650000Y-24297500D01*
G75*
G02*
X58800000Y-24147500I150000J0D01*
G01*
X60450000Y-24147500D01*
G75*
G02*
X60600000Y-24297500I0J-150000D01*
G01*
X60600000Y-24597500D01*
G75*
G02*
X60450000Y-24747500I-150000J0D01*
G01*
X58800000Y-24747500D01*
G75*
G02*
X58650000Y-24597500I0J150000D01*
G01*
G37*
G04 #@! TD.AperFunction*
G04 #@! TA.AperFunction,SMDPad,CuDef*
G36*
G01*
X58650000Y-25867500D02*
X58650000Y-25567500D01*
G75*
G02*
X58800000Y-25417500I150000J0D01*
G01*
X60450000Y-25417500D01*
G75*
G02*
X60600000Y-25567500I0J-150000D01*
G01*
X60600000Y-25867500D01*
G75*
G02*
X60450000Y-26017500I-150000J0D01*
G01*
X58800000Y-26017500D01*
G75*
G02*
X58650000Y-25867500I0J150000D01*
G01*
G37*
G04 #@! TD.AperFunction*
G04 #@! TA.AperFunction,SMDPad,CuDef*
G36*
G01*
X58650000Y-27137500D02*
X58650000Y-26837500D01*
G75*
G02*
X58800000Y-26687500I150000J0D01*
G01*
X60450000Y-26687500D01*
G75*
G02*
X60600000Y-26837500I0J-150000D01*
G01*
X60600000Y-27137500D01*
G75*
G02*
X60450000Y-27287500I-150000J0D01*
G01*
X58800000Y-27287500D01*
G75*
G02*
X58650000Y-27137500I0J150000D01*
G01*
G37*
G04 #@! TD.AperFunction*
G04 #@! TA.AperFunction,SMDPad,CuDef*
G36*
G01*
X58650000Y-28407500D02*
X58650000Y-28107500D01*
G75*
G02*
X58800000Y-27957500I150000J0D01*
G01*
X60450000Y-27957500D01*
G75*
G02*
X60600000Y-28107500I0J-150000D01*
G01*
X60600000Y-28407500D01*
G75*
G02*
X60450000Y-28557500I-150000J0D01*
G01*
X58800000Y-28557500D01*
G75*
G02*
X58650000Y-28407500I0J150000D01*
G01*
G37*
G04 #@! TD.AperFunction*
G04 #@! TA.AperFunction,SMDPad,CuDef*
G36*
G01*
X53700000Y-28407500D02*
X53700000Y-28107500D01*
G75*
G02*
X53850000Y-27957500I150000J0D01*
G01*
X55500000Y-27957500D01*
G75*
G02*
X55650000Y-28107500I0J-150000D01*
G01*
X55650000Y-28407500D01*
G75*
G02*
X55500000Y-28557500I-150000J0D01*
G01*
X53850000Y-28557500D01*
G75*
G02*
X53700000Y-28407500I0J150000D01*
G01*
G37*
G04 #@! TD.AperFunction*
G04 #@! TA.AperFunction,SMDPad,CuDef*
G36*
G01*
X53700000Y-27137500D02*
X53700000Y-26837500D01*
G75*
G02*
X53850000Y-26687500I150000J0D01*
G01*
X55500000Y-26687500D01*
G75*
G02*
X55650000Y-26837500I0J-150000D01*
G01*
X55650000Y-27137500D01*
G75*
G02*
X55500000Y-27287500I-150000J0D01*
G01*
X53850000Y-27287500D01*
G75*
G02*
X53700000Y-27137500I0J150000D01*
G01*
G37*
G04 #@! TD.AperFunction*
G04 #@! TA.AperFunction,SMDPad,CuDef*
G36*
G01*
X53700000Y-25867500D02*
X53700000Y-25567500D01*
G75*
G02*
X53850000Y-25417500I150000J0D01*
G01*
X55500000Y-25417500D01*
G75*
G02*
X55650000Y-25567500I0J-150000D01*
G01*
X55650000Y-25867500D01*
G75*
G02*
X55500000Y-26017500I-150000J0D01*
G01*
X53850000Y-26017500D01*
G75*
G02*
X53700000Y-25867500I0J150000D01*
G01*
G37*
G04 #@! TD.AperFunction*
G04 #@! TA.AperFunction,SMDPad,CuDef*
G36*
G01*
X53700000Y-24597500D02*
X53700000Y-24297500D01*
G75*
G02*
X53850000Y-24147500I150000J0D01*
G01*
X55500000Y-24147500D01*
G75*
G02*
X55650000Y-24297500I0J-150000D01*
G01*
X55650000Y-24597500D01*
G75*
G02*
X55500000Y-24747500I-150000J0D01*
G01*
X53850000Y-24747500D01*
G75*
G02*
X53700000Y-24597500I0J150000D01*
G01*
G37*
G04 #@! TD.AperFunction*
G04 #@! TA.AperFunction,SMDPad,CuDef*
G36*
G01*
X53700000Y-23327500D02*
X53700000Y-23027500D01*
G75*
G02*
X53850000Y-22877500I150000J0D01*
G01*
X55500000Y-22877500D01*
G75*
G02*
X55650000Y-23027500I0J-150000D01*
G01*
X55650000Y-23327500D01*
G75*
G02*
X55500000Y-23477500I-150000J0D01*
G01*
X53850000Y-23477500D01*
G75*
G02*
X53700000Y-23327500I0J150000D01*
G01*
G37*
G04 #@! TD.AperFunction*
G04 #@! TA.AperFunction,SMDPad,CuDef*
G36*
G01*
X53700000Y-22057500D02*
X53700000Y-21757500D01*
G75*
G02*
X53850000Y-21607500I150000J0D01*
G01*
X55500000Y-21607500D01*
G75*
G02*
X55650000Y-21757500I0J-150000D01*
G01*
X55650000Y-22057500D01*
G75*
G02*
X55500000Y-22207500I-150000J0D01*
G01*
X53850000Y-22207500D01*
G75*
G02*
X53700000Y-22057500I0J150000D01*
G01*
G37*
G04 #@! TD.AperFunction*
G04 #@! TA.AperFunction,SMDPad,CuDef*
G36*
G01*
X53700000Y-20787500D02*
X53700000Y-20487500D01*
G75*
G02*
X53850000Y-20337500I150000J0D01*
G01*
X55500000Y-20337500D01*
G75*
G02*
X55650000Y-20487500I0J-150000D01*
G01*
X55650000Y-20787500D01*
G75*
G02*
X55500000Y-20937500I-150000J0D01*
G01*
X53850000Y-20937500D01*
G75*
G02*
X53700000Y-20787500I0J150000D01*
G01*
G37*
G04 #@! TD.AperFunction*
D14*
X78105000Y-24447500D03*
G04 #@! TA.AperFunction,SMDPad,CuDef*
G36*
G01*
X16995000Y-23607500D02*
X17295000Y-23607500D01*
G75*
G02*
X17445000Y-23757500I0J-150000D01*
G01*
X17445000Y-25207500D01*
G75*
G02*
X17295000Y-25357500I-150000J0D01*
G01*
X16995000Y-25357500D01*
G75*
G02*
X16845000Y-25207500I0J150000D01*
G01*
X16845000Y-23757500D01*
G75*
G02*
X16995000Y-23607500I150000J0D01*
G01*
G37*
G04 #@! TD.AperFunction*
G04 #@! TA.AperFunction,SMDPad,CuDef*
G36*
G01*
X15725000Y-23607500D02*
X16025000Y-23607500D01*
G75*
G02*
X16175000Y-23757500I0J-150000D01*
G01*
X16175000Y-25207500D01*
G75*
G02*
X16025000Y-25357500I-150000J0D01*
G01*
X15725000Y-25357500D01*
G75*
G02*
X15575000Y-25207500I0J150000D01*
G01*
X15575000Y-23757500D01*
G75*
G02*
X15725000Y-23607500I150000J0D01*
G01*
G37*
G04 #@! TD.AperFunction*
G04 #@! TA.AperFunction,SMDPad,CuDef*
G36*
G01*
X14455000Y-23607500D02*
X14755000Y-23607500D01*
G75*
G02*
X14905000Y-23757500I0J-150000D01*
G01*
X14905000Y-25207500D01*
G75*
G02*
X14755000Y-25357500I-150000J0D01*
G01*
X14455000Y-25357500D01*
G75*
G02*
X14305000Y-25207500I0J150000D01*
G01*
X14305000Y-23757500D01*
G75*
G02*
X14455000Y-23607500I150000J0D01*
G01*
G37*
G04 #@! TD.AperFunction*
G04 #@! TA.AperFunction,SMDPad,CuDef*
G36*
G01*
X13185000Y-23607500D02*
X13485000Y-23607500D01*
G75*
G02*
X13635000Y-23757500I0J-150000D01*
G01*
X13635000Y-25207500D01*
G75*
G02*
X13485000Y-25357500I-150000J0D01*
G01*
X13185000Y-25357500D01*
G75*
G02*
X13035000Y-25207500I0J150000D01*
G01*
X13035000Y-23757500D01*
G75*
G02*
X13185000Y-23607500I150000J0D01*
G01*
G37*
G04 #@! TD.AperFunction*
G04 #@! TA.AperFunction,SMDPad,CuDef*
G36*
G01*
X11915000Y-23607500D02*
X12215000Y-23607500D01*
G75*
G02*
X12365000Y-23757500I0J-150000D01*
G01*
X12365000Y-25207500D01*
G75*
G02*
X12215000Y-25357500I-150000J0D01*
G01*
X11915000Y-25357500D01*
G75*
G02*
X11765000Y-25207500I0J150000D01*
G01*
X11765000Y-23757500D01*
G75*
G02*
X11915000Y-23607500I150000J0D01*
G01*
G37*
G04 #@! TD.AperFunction*
G04 #@! TA.AperFunction,SMDPad,CuDef*
G36*
G01*
X10645000Y-23607500D02*
X10945000Y-23607500D01*
G75*
G02*
X11095000Y-23757500I0J-150000D01*
G01*
X11095000Y-25207500D01*
G75*
G02*
X10945000Y-25357500I-150000J0D01*
G01*
X10645000Y-25357500D01*
G75*
G02*
X10495000Y-25207500I0J150000D01*
G01*
X10495000Y-23757500D01*
G75*
G02*
X10645000Y-23607500I150000J0D01*
G01*
G37*
G04 #@! TD.AperFunction*
G04 #@! TA.AperFunction,SMDPad,CuDef*
G36*
G01*
X9375000Y-23607500D02*
X9675000Y-23607500D01*
G75*
G02*
X9825000Y-23757500I0J-150000D01*
G01*
X9825000Y-25207500D01*
G75*
G02*
X9675000Y-25357500I-150000J0D01*
G01*
X9375000Y-25357500D01*
G75*
G02*
X9225000Y-25207500I0J150000D01*
G01*
X9225000Y-23757500D01*
G75*
G02*
X9375000Y-23607500I150000J0D01*
G01*
G37*
G04 #@! TD.AperFunction*
G04 #@! TA.AperFunction,SMDPad,CuDef*
G36*
G01*
X8105000Y-23607500D02*
X8405000Y-23607500D01*
G75*
G02*
X8555000Y-23757500I0J-150000D01*
G01*
X8555000Y-25207500D01*
G75*
G02*
X8405000Y-25357500I-150000J0D01*
G01*
X8105000Y-25357500D01*
G75*
G02*
X7955000Y-25207500I0J150000D01*
G01*
X7955000Y-23757500D01*
G75*
G02*
X8105000Y-23607500I150000J0D01*
G01*
G37*
G04 #@! TD.AperFunction*
G04 #@! TA.AperFunction,SMDPad,CuDef*
G36*
G01*
X8105000Y-18457500D02*
X8405000Y-18457500D01*
G75*
G02*
X8555000Y-18607500I0J-150000D01*
G01*
X8555000Y-20057500D01*
G75*
G02*
X8405000Y-20207500I-150000J0D01*
G01*
X8105000Y-20207500D01*
G75*
G02*
X7955000Y-20057500I0J150000D01*
G01*
X7955000Y-18607500D01*
G75*
G02*
X8105000Y-18457500I150000J0D01*
G01*
G37*
G04 #@! TD.AperFunction*
G04 #@! TA.AperFunction,SMDPad,CuDef*
G36*
G01*
X9375000Y-18457500D02*
X9675000Y-18457500D01*
G75*
G02*
X9825000Y-18607500I0J-150000D01*
G01*
X9825000Y-20057500D01*
G75*
G02*
X9675000Y-20207500I-150000J0D01*
G01*
X9375000Y-20207500D01*
G75*
G02*
X9225000Y-20057500I0J150000D01*
G01*
X9225000Y-18607500D01*
G75*
G02*
X9375000Y-18457500I150000J0D01*
G01*
G37*
G04 #@! TD.AperFunction*
G04 #@! TA.AperFunction,SMDPad,CuDef*
G36*
G01*
X10645000Y-18457500D02*
X10945000Y-18457500D01*
G75*
G02*
X11095000Y-18607500I0J-150000D01*
G01*
X11095000Y-20057500D01*
G75*
G02*
X10945000Y-20207500I-150000J0D01*
G01*
X10645000Y-20207500D01*
G75*
G02*
X10495000Y-20057500I0J150000D01*
G01*
X10495000Y-18607500D01*
G75*
G02*
X10645000Y-18457500I150000J0D01*
G01*
G37*
G04 #@! TD.AperFunction*
G04 #@! TA.AperFunction,SMDPad,CuDef*
G36*
G01*
X11915000Y-18457500D02*
X12215000Y-18457500D01*
G75*
G02*
X12365000Y-18607500I0J-150000D01*
G01*
X12365000Y-20057500D01*
G75*
G02*
X12215000Y-20207500I-150000J0D01*
G01*
X11915000Y-20207500D01*
G75*
G02*
X11765000Y-20057500I0J150000D01*
G01*
X11765000Y-18607500D01*
G75*
G02*
X11915000Y-18457500I150000J0D01*
G01*
G37*
G04 #@! TD.AperFunction*
G04 #@! TA.AperFunction,SMDPad,CuDef*
G36*
G01*
X13185000Y-18457500D02*
X13485000Y-18457500D01*
G75*
G02*
X13635000Y-18607500I0J-150000D01*
G01*
X13635000Y-20057500D01*
G75*
G02*
X13485000Y-20207500I-150000J0D01*
G01*
X13185000Y-20207500D01*
G75*
G02*
X13035000Y-20057500I0J150000D01*
G01*
X13035000Y-18607500D01*
G75*
G02*
X13185000Y-18457500I150000J0D01*
G01*
G37*
G04 #@! TD.AperFunction*
G04 #@! TA.AperFunction,SMDPad,CuDef*
G36*
G01*
X14455000Y-18457500D02*
X14755000Y-18457500D01*
G75*
G02*
X14905000Y-18607500I0J-150000D01*
G01*
X14905000Y-20057500D01*
G75*
G02*
X14755000Y-20207500I-150000J0D01*
G01*
X14455000Y-20207500D01*
G75*
G02*
X14305000Y-20057500I0J150000D01*
G01*
X14305000Y-18607500D01*
G75*
G02*
X14455000Y-18457500I150000J0D01*
G01*
G37*
G04 #@! TD.AperFunction*
G04 #@! TA.AperFunction,SMDPad,CuDef*
G36*
G01*
X15725000Y-18457500D02*
X16025000Y-18457500D01*
G75*
G02*
X16175000Y-18607500I0J-150000D01*
G01*
X16175000Y-20057500D01*
G75*
G02*
X16025000Y-20207500I-150000J0D01*
G01*
X15725000Y-20207500D01*
G75*
G02*
X15575000Y-20057500I0J150000D01*
G01*
X15575000Y-18607500D01*
G75*
G02*
X15725000Y-18457500I150000J0D01*
G01*
G37*
G04 #@! TD.AperFunction*
G04 #@! TA.AperFunction,SMDPad,CuDef*
G36*
G01*
X16995000Y-18457500D02*
X17295000Y-18457500D01*
G75*
G02*
X17445000Y-18607500I0J-150000D01*
G01*
X17445000Y-20057500D01*
G75*
G02*
X17295000Y-20207500I-150000J0D01*
G01*
X16995000Y-20207500D01*
G75*
G02*
X16845000Y-20057500I0J150000D01*
G01*
X16845000Y-18607500D01*
G75*
G02*
X16995000Y-18457500I150000J0D01*
G01*
G37*
G04 #@! TD.AperFunction*
G04 #@! TA.AperFunction,SMDPad,CuDef*
G36*
G01*
X34775000Y-23607500D02*
X35075000Y-23607500D01*
G75*
G02*
X35225000Y-23757500I0J-150000D01*
G01*
X35225000Y-25207500D01*
G75*
G02*
X35075000Y-25357500I-150000J0D01*
G01*
X34775000Y-25357500D01*
G75*
G02*
X34625000Y-25207500I0J150000D01*
G01*
X34625000Y-23757500D01*
G75*
G02*
X34775000Y-23607500I150000J0D01*
G01*
G37*
G04 #@! TD.AperFunction*
G04 #@! TA.AperFunction,SMDPad,CuDef*
G36*
G01*
X33505000Y-23607500D02*
X33805000Y-23607500D01*
G75*
G02*
X33955000Y-23757500I0J-150000D01*
G01*
X33955000Y-25207500D01*
G75*
G02*
X33805000Y-25357500I-150000J0D01*
G01*
X33505000Y-25357500D01*
G75*
G02*
X33355000Y-25207500I0J150000D01*
G01*
X33355000Y-23757500D01*
G75*
G02*
X33505000Y-23607500I150000J0D01*
G01*
G37*
G04 #@! TD.AperFunction*
G04 #@! TA.AperFunction,SMDPad,CuDef*
G36*
G01*
X32235000Y-23607500D02*
X32535000Y-23607500D01*
G75*
G02*
X32685000Y-23757500I0J-150000D01*
G01*
X32685000Y-25207500D01*
G75*
G02*
X32535000Y-25357500I-150000J0D01*
G01*
X32235000Y-25357500D01*
G75*
G02*
X32085000Y-25207500I0J150000D01*
G01*
X32085000Y-23757500D01*
G75*
G02*
X32235000Y-23607500I150000J0D01*
G01*
G37*
G04 #@! TD.AperFunction*
G04 #@! TA.AperFunction,SMDPad,CuDef*
G36*
G01*
X30965000Y-23607500D02*
X31265000Y-23607500D01*
G75*
G02*
X31415000Y-23757500I0J-150000D01*
G01*
X31415000Y-25207500D01*
G75*
G02*
X31265000Y-25357500I-150000J0D01*
G01*
X30965000Y-25357500D01*
G75*
G02*
X30815000Y-25207500I0J150000D01*
G01*
X30815000Y-23757500D01*
G75*
G02*
X30965000Y-23607500I150000J0D01*
G01*
G37*
G04 #@! TD.AperFunction*
G04 #@! TA.AperFunction,SMDPad,CuDef*
G36*
G01*
X29695000Y-23607500D02*
X29995000Y-23607500D01*
G75*
G02*
X30145000Y-23757500I0J-150000D01*
G01*
X30145000Y-25207500D01*
G75*
G02*
X29995000Y-25357500I-150000J0D01*
G01*
X29695000Y-25357500D01*
G75*
G02*
X29545000Y-25207500I0J150000D01*
G01*
X29545000Y-23757500D01*
G75*
G02*
X29695000Y-23607500I150000J0D01*
G01*
G37*
G04 #@! TD.AperFunction*
G04 #@! TA.AperFunction,SMDPad,CuDef*
G36*
G01*
X28425000Y-23607500D02*
X28725000Y-23607500D01*
G75*
G02*
X28875000Y-23757500I0J-150000D01*
G01*
X28875000Y-25207500D01*
G75*
G02*
X28725000Y-25357500I-150000J0D01*
G01*
X28425000Y-25357500D01*
G75*
G02*
X28275000Y-25207500I0J150000D01*
G01*
X28275000Y-23757500D01*
G75*
G02*
X28425000Y-23607500I150000J0D01*
G01*
G37*
G04 #@! TD.AperFunction*
G04 #@! TA.AperFunction,SMDPad,CuDef*
G36*
G01*
X27155000Y-23607500D02*
X27455000Y-23607500D01*
G75*
G02*
X27605000Y-23757500I0J-150000D01*
G01*
X27605000Y-25207500D01*
G75*
G02*
X27455000Y-25357500I-150000J0D01*
G01*
X27155000Y-25357500D01*
G75*
G02*
X27005000Y-25207500I0J150000D01*
G01*
X27005000Y-23757500D01*
G75*
G02*
X27155000Y-23607500I150000J0D01*
G01*
G37*
G04 #@! TD.AperFunction*
G04 #@! TA.AperFunction,SMDPad,CuDef*
G36*
G01*
X25885000Y-23607500D02*
X26185000Y-23607500D01*
G75*
G02*
X26335000Y-23757500I0J-150000D01*
G01*
X26335000Y-25207500D01*
G75*
G02*
X26185000Y-25357500I-150000J0D01*
G01*
X25885000Y-25357500D01*
G75*
G02*
X25735000Y-25207500I0J150000D01*
G01*
X25735000Y-23757500D01*
G75*
G02*
X25885000Y-23607500I150000J0D01*
G01*
G37*
G04 #@! TD.AperFunction*
G04 #@! TA.AperFunction,SMDPad,CuDef*
G36*
G01*
X25885000Y-18457500D02*
X26185000Y-18457500D01*
G75*
G02*
X26335000Y-18607500I0J-150000D01*
G01*
X26335000Y-20057500D01*
G75*
G02*
X26185000Y-20207500I-150000J0D01*
G01*
X25885000Y-20207500D01*
G75*
G02*
X25735000Y-20057500I0J150000D01*
G01*
X25735000Y-18607500D01*
G75*
G02*
X25885000Y-18457500I150000J0D01*
G01*
G37*
G04 #@! TD.AperFunction*
G04 #@! TA.AperFunction,SMDPad,CuDef*
G36*
G01*
X27155000Y-18457500D02*
X27455000Y-18457500D01*
G75*
G02*
X27605000Y-18607500I0J-150000D01*
G01*
X27605000Y-20057500D01*
G75*
G02*
X27455000Y-20207500I-150000J0D01*
G01*
X27155000Y-20207500D01*
G75*
G02*
X27005000Y-20057500I0J150000D01*
G01*
X27005000Y-18607500D01*
G75*
G02*
X27155000Y-18457500I150000J0D01*
G01*
G37*
G04 #@! TD.AperFunction*
G04 #@! TA.AperFunction,SMDPad,CuDef*
G36*
G01*
X28425000Y-18457500D02*
X28725000Y-18457500D01*
G75*
G02*
X28875000Y-18607500I0J-150000D01*
G01*
X28875000Y-20057500D01*
G75*
G02*
X28725000Y-20207500I-150000J0D01*
G01*
X28425000Y-20207500D01*
G75*
G02*
X28275000Y-20057500I0J150000D01*
G01*
X28275000Y-18607500D01*
G75*
G02*
X28425000Y-18457500I150000J0D01*
G01*
G37*
G04 #@! TD.AperFunction*
G04 #@! TA.AperFunction,SMDPad,CuDef*
G36*
G01*
X29695000Y-18457500D02*
X29995000Y-18457500D01*
G75*
G02*
X30145000Y-18607500I0J-150000D01*
G01*
X30145000Y-20057500D01*
G75*
G02*
X29995000Y-20207500I-150000J0D01*
G01*
X29695000Y-20207500D01*
G75*
G02*
X29545000Y-20057500I0J150000D01*
G01*
X29545000Y-18607500D01*
G75*
G02*
X29695000Y-18457500I150000J0D01*
G01*
G37*
G04 #@! TD.AperFunction*
G04 #@! TA.AperFunction,SMDPad,CuDef*
G36*
G01*
X30965000Y-18457500D02*
X31265000Y-18457500D01*
G75*
G02*
X31415000Y-18607500I0J-150000D01*
G01*
X31415000Y-20057500D01*
G75*
G02*
X31265000Y-20207500I-150000J0D01*
G01*
X30965000Y-20207500D01*
G75*
G02*
X30815000Y-20057500I0J150000D01*
G01*
X30815000Y-18607500D01*
G75*
G02*
X30965000Y-18457500I150000J0D01*
G01*
G37*
G04 #@! TD.AperFunction*
G04 #@! TA.AperFunction,SMDPad,CuDef*
G36*
G01*
X32235000Y-18457500D02*
X32535000Y-18457500D01*
G75*
G02*
X32685000Y-18607500I0J-150000D01*
G01*
X32685000Y-20057500D01*
G75*
G02*
X32535000Y-20207500I-150000J0D01*
G01*
X32235000Y-20207500D01*
G75*
G02*
X32085000Y-20057500I0J150000D01*
G01*
X32085000Y-18607500D01*
G75*
G02*
X32235000Y-18457500I150000J0D01*
G01*
G37*
G04 #@! TD.AperFunction*
G04 #@! TA.AperFunction,SMDPad,CuDef*
G36*
G01*
X33505000Y-18457500D02*
X33805000Y-18457500D01*
G75*
G02*
X33955000Y-18607500I0J-150000D01*
G01*
X33955000Y-20057500D01*
G75*
G02*
X33805000Y-20207500I-150000J0D01*
G01*
X33505000Y-20207500D01*
G75*
G02*
X33355000Y-20057500I0J150000D01*
G01*
X33355000Y-18607500D01*
G75*
G02*
X33505000Y-18457500I150000J0D01*
G01*
G37*
G04 #@! TD.AperFunction*
G04 #@! TA.AperFunction,SMDPad,CuDef*
G36*
G01*
X34775000Y-18457500D02*
X35075000Y-18457500D01*
G75*
G02*
X35225000Y-18607500I0J-150000D01*
G01*
X35225000Y-20057500D01*
G75*
G02*
X35075000Y-20207500I-150000J0D01*
G01*
X34775000Y-20207500D01*
G75*
G02*
X34625000Y-20057500I0J150000D01*
G01*
X34625000Y-18607500D01*
G75*
G02*
X34775000Y-18457500I150000J0D01*
G01*
G37*
G04 #@! TD.AperFunction*
D15*
X78105000Y-9207500D03*
X78105000Y-6667500D03*
D14*
X78105000Y-4127500D03*
D15*
X78105000Y-19367500D03*
X78105000Y-16827500D03*
D14*
X78105000Y-14287500D03*
D16*
X48260000Y-34607500D03*
X50800000Y-34607500D03*
X53340000Y-34607500D03*
X55880000Y-34607500D03*
X58420000Y-34607500D03*
X60960000Y-34607500D03*
X63500000Y-34607500D03*
D17*
X66040000Y-34607500D03*
D16*
X2540000Y-34607500D03*
X5080000Y-34607500D03*
X7620000Y-34607500D03*
X10160000Y-34607500D03*
X12700000Y-34607500D03*
X15240000Y-34607500D03*
X17780000Y-34607500D03*
D17*
X20320000Y-34607500D03*
D16*
X25400000Y-34607500D03*
X27940000Y-34607500D03*
X30480000Y-34607500D03*
X33020000Y-34607500D03*
X35560000Y-34607500D03*
X38100000Y-34607500D03*
X40640000Y-34607500D03*
D17*
X43180000Y-34607500D03*
D16*
X71120000Y-34607500D03*
X73660000Y-34607500D03*
X76200000Y-34607500D03*
D17*
X78740000Y-34607500D03*
D18*
X56777500Y-30162500D03*
X24447500Y-12700000D03*
X19050000Y-18097500D03*
X37465000Y-20002500D03*
X11430000Y-27622500D03*
X13652500Y-28575000D03*
X16901000Y-26987500D03*
X25053600Y-26031000D03*
X29265100Y-27202300D03*
X31115000Y-26324500D03*
X5080000Y-6667500D03*
X43815000Y-16192500D03*
X7937500Y-4127500D03*
D19*
X73660000Y-36512500D02*
X73660000Y-34607500D01*
X46355000Y-36512500D02*
X73660000Y-36512500D01*
X46037500Y-36195000D02*
X46355000Y-36512500D01*
X46037500Y-26670000D02*
X46037500Y-36195000D01*
X43850000Y-24482500D02*
X46037500Y-26670000D01*
X31479000Y-2651500D02*
X32955000Y-4127500D01*
X15175000Y-4127500D02*
X15175000Y-1652500D01*
X80010000Y-36512500D02*
X73660000Y-36512500D01*
X80804990Y-35717510D02*
X80010000Y-36512500D01*
X80804990Y-6192490D02*
X80804990Y-35717510D01*
X80010000Y-5397500D02*
X80804990Y-6192490D01*
X73660000Y-5397500D02*
X80010000Y-5397500D01*
X36489900Y-4422400D02*
X72684900Y-4422400D01*
X36195000Y-4127500D02*
X36489900Y-4422400D01*
X72684900Y-4422400D02*
X73660000Y-5397500D01*
X32955000Y-4127500D02*
X36195000Y-4127500D01*
X73660000Y-30480000D02*
X73660000Y-34607500D01*
X73660000Y-26987500D02*
X73660000Y-30480000D01*
X67310000Y-20637500D02*
X73660000Y-26987500D01*
X59625000Y-20637500D02*
X67310000Y-20637500D01*
X34925000Y-23177500D02*
X34925000Y-24482500D01*
X34607500Y-22860000D02*
X34925000Y-23177500D01*
X24130000Y-22860000D02*
X34607500Y-22860000D01*
X22507500Y-24482500D02*
X24130000Y-22860000D01*
X17145000Y-24482500D02*
X22507500Y-24482500D01*
X30415000Y-1652500D02*
X30447500Y-1620000D01*
X15175000Y-1652500D02*
X30415000Y-1652500D01*
X30447500Y-1620000D02*
X31479000Y-2651500D01*
D20*
X36542818Y-24477818D02*
X36547500Y-24482500D01*
X36542818Y-23712500D02*
X36542818Y-24477818D01*
D19*
X36547500Y-24482500D02*
X43850000Y-24482500D01*
X34925000Y-24482500D02*
X36547500Y-24482500D01*
X55763500Y-28257500D02*
X54675000Y-28257500D01*
X76470000Y-31432500D02*
X76470000Y-32432500D01*
X76200000Y-32702500D02*
X76200000Y-34607500D01*
X76470000Y-32432500D02*
X76200000Y-32702500D01*
X56777500Y-29271500D02*
X56777500Y-30162500D01*
X55763500Y-28257500D02*
X56777500Y-29271500D01*
X25400000Y-11747500D02*
X24447500Y-12700000D01*
X7937500Y-9207500D02*
X10225000Y-9207500D01*
X7937500Y-9207500D02*
X7937500Y-11747500D01*
X7937500Y-11747500D02*
X10225000Y-11747500D01*
X10225000Y-7937500D02*
X7937500Y-7937500D01*
X7937500Y-7937500D02*
X7937500Y-9207500D01*
X28005000Y-4127500D02*
X25717500Y-4127500D01*
X25717500Y-11747500D02*
X25400000Y-11747500D01*
X28005000Y-11747500D02*
X25717500Y-11747500D01*
X28005000Y-5397500D02*
X25717500Y-5397500D01*
X25717500Y-4127500D02*
X25717500Y-5397500D01*
X28005000Y-7937500D02*
X25717500Y-7937500D01*
X25717500Y-5397500D02*
X25717500Y-7937500D01*
X25717500Y-9207500D02*
X25717500Y-11747500D01*
X28005000Y-9207500D02*
X25717500Y-9207500D01*
X25717500Y-7937500D02*
X25717500Y-9207500D01*
X26035000Y-17780000D02*
X25717500Y-17462500D01*
X26035000Y-19332500D02*
X26035000Y-17780000D01*
X8255000Y-17515894D02*
X8493099Y-17277795D01*
X8255000Y-19332500D02*
X8255000Y-17515894D01*
D20*
X7937500Y-16722196D02*
X8493099Y-17277795D01*
X7937500Y-11747500D02*
X7937500Y-16722196D01*
D19*
X21056800Y-31664300D02*
X24000000Y-34607500D01*
X9439300Y-31664300D02*
X21056800Y-31664300D01*
X24000000Y-34607500D02*
X25400000Y-34607500D01*
X8255000Y-30480000D02*
X9439300Y-31664300D01*
X8255000Y-24482500D02*
X8255000Y-30480000D01*
X23812500Y-30480000D02*
X27940000Y-34607500D01*
X9525000Y-30162500D02*
X9842500Y-30480000D01*
X9525000Y-26987500D02*
X9525000Y-30162500D01*
X9842500Y-30480000D02*
X23812500Y-30480000D01*
X10795000Y-25717500D02*
X9525000Y-26987500D01*
X10795000Y-24482500D02*
X10795000Y-25717500D01*
X24765000Y-28892500D02*
X30480000Y-34607500D01*
X24743390Y-28870890D02*
X24765000Y-28892500D01*
X16170890Y-28870890D02*
X24743390Y-28870890D01*
X15234450Y-27934450D02*
X16170890Y-28870890D01*
X15234450Y-26981950D02*
X15234450Y-27934450D01*
X14605000Y-26352500D02*
X15234450Y-26981950D01*
X14605000Y-24482500D02*
X14605000Y-26352500D01*
X17145000Y-19332500D02*
X18767500Y-19332500D01*
X19050000Y-19050000D02*
X19050000Y-18097500D01*
X18767500Y-19332500D02*
X19050000Y-19050000D01*
X35560000Y-32385000D02*
X35560000Y-34607500D01*
X24697550Y-27372450D02*
X28190050Y-30864950D01*
X23562450Y-27372450D02*
X24697550Y-27372450D01*
X28190050Y-30864950D02*
X28257500Y-30797500D01*
X23177500Y-26987500D02*
X23562450Y-27372450D01*
X33972500Y-30797500D02*
X35560000Y-32385000D01*
X23177500Y-25082500D02*
X23177500Y-26987500D01*
X28257500Y-30797500D02*
X33972500Y-30797500D01*
X23777500Y-24482500D02*
X23177500Y-25082500D01*
X26035000Y-24482500D02*
X23777500Y-24482500D01*
X35952900Y-29602900D02*
X38100000Y-31750000D01*
X38100000Y-31750000D02*
X38100000Y-34607500D01*
X28132700Y-26159800D02*
X28064800Y-26159800D01*
X28575000Y-25717500D02*
X28132700Y-26159800D01*
X28575000Y-24482500D02*
X28575000Y-25717500D01*
X28064800Y-28382300D02*
X29285400Y-29602900D01*
X29285400Y-29602900D02*
X35952900Y-29602900D01*
X28064800Y-26159800D02*
X28064800Y-28382300D01*
X32385000Y-26987500D02*
X32385000Y-24482500D01*
X33655000Y-28257500D02*
X32385000Y-26987500D01*
X36830000Y-28257500D02*
X33655000Y-28257500D01*
X40640000Y-32067500D02*
X36830000Y-28257500D01*
X40640000Y-34607500D02*
X40640000Y-32067500D01*
X36795000Y-19332500D02*
X37465000Y-20002500D01*
X34925000Y-19332500D02*
X36795000Y-19332500D01*
X9525000Y-24482500D02*
X9525000Y-23495000D01*
X9525000Y-23495000D02*
X8890000Y-22860000D01*
X8890000Y-22860000D02*
X6667500Y-22860000D01*
X2540000Y-26987500D02*
X2540000Y-34607500D01*
X6667500Y-22860000D02*
X2540000Y-26987500D01*
X12065000Y-24482500D02*
X12065000Y-26987500D01*
X12065000Y-26987500D02*
X11430000Y-27622500D01*
X11430000Y-27622500D02*
X11430000Y-27622500D01*
X13335000Y-24482500D02*
X13335000Y-26987500D01*
X13652500Y-27305000D02*
X13652500Y-28575000D01*
X13335000Y-26987500D02*
X13652500Y-27305000D01*
X15875000Y-25301100D02*
X15875000Y-24482500D01*
X15875000Y-25961500D02*
X16901000Y-26987500D01*
X15875000Y-24482500D02*
X15875000Y-25961500D01*
X27305000Y-25717500D02*
X27305000Y-24482500D01*
X26991500Y-26031000D02*
X27305000Y-25717500D01*
X25053600Y-26031000D02*
X26991500Y-26031000D01*
X29265100Y-27202300D02*
X29845000Y-26622400D01*
X29845000Y-26622400D02*
X29845000Y-24482500D01*
X31115000Y-26324500D02*
X31115000Y-24482500D01*
X34216100Y-26913600D02*
X33655000Y-26352500D01*
X40883600Y-26913600D02*
X34216100Y-26913600D01*
X45085000Y-31115000D02*
X40883600Y-26913600D01*
X45085000Y-36195000D02*
X45085000Y-31115000D01*
X44767500Y-36512500D02*
X45085000Y-36195000D01*
X23625000Y-36512500D02*
X44767500Y-36512500D01*
X21720000Y-34607500D02*
X23625000Y-36512500D01*
X33655000Y-26352500D02*
X33655000Y-24482500D01*
X20320000Y-34607500D02*
X21720000Y-34607500D01*
X54675000Y-21907500D02*
X50165000Y-21907500D01*
X48260000Y-23812500D02*
X48260000Y-28257500D01*
X50165000Y-21907500D02*
X48260000Y-23812500D01*
X48260000Y-34607500D02*
X48260000Y-28257500D01*
X50800000Y-32067500D02*
X50800000Y-34607500D01*
X49530000Y-30797500D02*
X50800000Y-32067500D01*
X49530000Y-24447500D02*
X49530000Y-30797500D01*
X50800000Y-23177500D02*
X49530000Y-24447500D01*
X54675000Y-23177500D02*
X50800000Y-23177500D01*
X53340000Y-32957500D02*
X53340000Y-34607500D01*
X52538000Y-32155300D02*
X53340000Y-32957500D01*
X50800000Y-25082500D02*
X50800000Y-30417300D01*
X50800000Y-30417300D02*
X52538000Y-32155300D01*
X51435000Y-24447500D02*
X50800000Y-25082500D01*
X54675000Y-24447500D02*
X51435000Y-24447500D01*
X54675000Y-25717500D02*
X52705000Y-25717500D01*
X52705000Y-25717500D02*
X52070000Y-26352500D01*
X52070000Y-26352500D02*
X52070000Y-29527500D01*
X52070000Y-29527500D02*
X55880000Y-33337500D01*
X55880000Y-34607500D02*
X55880000Y-33337500D01*
X58420000Y-33337500D02*
X58420000Y-34607500D01*
X62230000Y-29527500D02*
X58420000Y-33337500D01*
X62230000Y-27622500D02*
X62230000Y-29527500D01*
X61595000Y-26987500D02*
X62230000Y-27622500D01*
X59625000Y-26987500D02*
X61595000Y-26987500D01*
X60960000Y-34607500D02*
X60960000Y-32957500D01*
X60960000Y-32957500D02*
X61112000Y-32805900D01*
X59625000Y-25717500D02*
X62865000Y-25717500D01*
X62865000Y-25717500D02*
X63500000Y-26352500D01*
X63500000Y-30417900D02*
X62040200Y-31877700D01*
X63500000Y-26352500D02*
X63500000Y-30417900D01*
X62040200Y-31877700D02*
X61112000Y-32805900D01*
X62230000Y-31687900D02*
X62040200Y-31877700D01*
X63500000Y-32702500D02*
X63500000Y-34607500D01*
X64770000Y-31432500D02*
X63500000Y-32702500D01*
X64770000Y-25082500D02*
X64770000Y-31432500D01*
X64135000Y-24447500D02*
X64770000Y-25082500D01*
X59625000Y-24447500D02*
X64135000Y-24447500D01*
X66040000Y-29027500D02*
X66040000Y-34607500D01*
X66040000Y-24447500D02*
X66040000Y-29027500D01*
X64770000Y-23177500D02*
X66040000Y-24447500D01*
X59625000Y-23177500D02*
X64770000Y-23177500D01*
X10225000Y-6667500D02*
X5080000Y-6667500D01*
X5080000Y-6667500D02*
X5080000Y-6667500D01*
X27305000Y-19332500D02*
X27305000Y-17145000D01*
X28660800Y-15789200D02*
X30394200Y-15789200D01*
X27305000Y-17145000D02*
X28660800Y-15789200D01*
X31895900Y-14287500D02*
X30394200Y-15789200D01*
X31895900Y-14287500D02*
X46672500Y-14287500D01*
X49212500Y-16827500D02*
X78105000Y-16827500D01*
X46672500Y-14287500D02*
X49212500Y-16827500D01*
X29845000Y-18097500D02*
X29845000Y-19332500D01*
X29971200Y-17971300D02*
X29845000Y-18097500D01*
X39622400Y-16827500D02*
X32385000Y-16827500D01*
X73786200Y-17971300D02*
X40766200Y-17971300D01*
X32385000Y-16827500D02*
X31241200Y-17971300D01*
X40766200Y-17971300D02*
X39622400Y-16827500D01*
X75182400Y-19367500D02*
X73786200Y-17971300D01*
X31241200Y-17971300D02*
X29971200Y-17971300D01*
X78105000Y-19367500D02*
X75182400Y-19367500D01*
X31115000Y-20637500D02*
X31115000Y-19332500D01*
X31095000Y-20657500D02*
X31115000Y-20637500D01*
X22522500Y-20657500D02*
X31095000Y-20657500D01*
X21422530Y-21757470D02*
X22522500Y-20657500D01*
X12532530Y-21757470D02*
X21422530Y-21757470D01*
X12085000Y-21309940D02*
X12532530Y-21757470D01*
X12085000Y-20657500D02*
X12085000Y-21309940D01*
X12065000Y-20637500D02*
X12085000Y-20657500D01*
X12065000Y-19332500D02*
X12065000Y-20637500D01*
X32385000Y-21272500D02*
X32385000Y-19332500D01*
X32300000Y-21357500D02*
X32385000Y-21272500D01*
X23092500Y-21357500D02*
X32300000Y-21357500D01*
X21992520Y-22457480D02*
X23092500Y-21357500D01*
X11027480Y-22457480D02*
X21992520Y-22457480D01*
X10795000Y-22225000D02*
X11027480Y-22457480D01*
X10795000Y-19332500D02*
X10795000Y-22225000D01*
X33655000Y-21272500D02*
X33655000Y-19332500D01*
X32870000Y-22057500D02*
X33655000Y-21272500D01*
X23662500Y-22057500D02*
X32870000Y-22057500D01*
X22562510Y-23157490D02*
X23662500Y-22057500D01*
X10457490Y-23157490D02*
X22562510Y-23157490D01*
X9525000Y-22225000D02*
X10457490Y-23157490D01*
X9525000Y-19332500D02*
X9525000Y-22225000D01*
X76200000Y-24447500D02*
X78105000Y-24447500D01*
X70802500Y-19050000D02*
X76200000Y-24447500D01*
X57467500Y-19050000D02*
X70802500Y-19050000D01*
X57150000Y-19367500D02*
X57467500Y-19050000D01*
X57150000Y-21590000D02*
X57150000Y-19367500D01*
X57467500Y-21907500D02*
X57150000Y-21590000D01*
X59625000Y-21907500D02*
X57467500Y-21907500D01*
X33514200Y-6667500D02*
X32955000Y-6667500D01*
X32955000Y-9207500D02*
X33543300Y-9207500D01*
X78740000Y-34607500D02*
X78740000Y-32957500D01*
X78740000Y-32957500D02*
X78470000Y-32687500D01*
X78470000Y-32687500D02*
X78470000Y-32067500D01*
X78470000Y-30432500D02*
X78470000Y-32067500D01*
X80010000Y-28892500D02*
X78470000Y-30432500D01*
X80010000Y-8572500D02*
X80010000Y-28892500D01*
X79375000Y-7937500D02*
X80010000Y-8572500D01*
X69850000Y-7937500D02*
X79375000Y-7937500D01*
X69451900Y-8335600D02*
X69850000Y-7937500D01*
X32955000Y-6667500D02*
X34925000Y-6667500D01*
X35323100Y-7065600D02*
X35323100Y-8335600D01*
X34925000Y-6667500D02*
X35323100Y-7065600D01*
X35323100Y-8335600D02*
X69451900Y-8335600D01*
X34451200Y-9207500D02*
X35323100Y-8335600D01*
X32955000Y-9207500D02*
X34451200Y-9207500D01*
X31115000Y-6667500D02*
X32955000Y-6667500D01*
X30797500Y-6350000D02*
X31115000Y-6667500D01*
X29773050Y-2785550D02*
X30797500Y-3810000D01*
X22296950Y-2785550D02*
X29773050Y-2785550D01*
X22296950Y-8009450D02*
X22296950Y-2785550D01*
X19828900Y-10477500D02*
X22296950Y-8009450D01*
X30797500Y-3810000D02*
X30797500Y-6350000D01*
X15175000Y-10477500D02*
X19828900Y-10477500D01*
X15175000Y-6667500D02*
X15175000Y-5397500D01*
X76107800Y-4127500D02*
X73931400Y-1951100D01*
X78105000Y-4127500D02*
X76107800Y-4127500D01*
X32748600Y-1951100D02*
X73931400Y-1951100D01*
X31432500Y-635000D02*
X32748600Y-1951100D01*
X13335000Y-5080000D02*
X13652500Y-5397500D01*
X13335000Y-635000D02*
X13335000Y-5080000D01*
X15175000Y-5397500D02*
X13652500Y-5397500D01*
X13335000Y-635000D02*
X31432500Y-635000D01*
X70485000Y-6667500D02*
X69440200Y-5622700D01*
X78105000Y-6667500D02*
X70485000Y-6667500D01*
X35744600Y-5397500D02*
X35969800Y-5622700D01*
X32955000Y-5397500D02*
X35744600Y-5397500D01*
X69440200Y-5622700D02*
X35969800Y-5622700D01*
X74930000Y-9207500D02*
X73660000Y-10477500D01*
X78105000Y-9207500D02*
X74930000Y-9207500D01*
X73660000Y-10477500D02*
X32955000Y-10477500D01*
X13335000Y-20637500D02*
X13335000Y-19332500D01*
X13652500Y-20955000D02*
X13335000Y-20637500D01*
X20002500Y-20955000D02*
X13652500Y-20955000D01*
X21907500Y-19050000D02*
X20002500Y-20955000D01*
X21907500Y-17145000D02*
X21907500Y-19050000D01*
X23653750Y-15398750D02*
X21907500Y-17145000D01*
X27463750Y-15398750D02*
X23653750Y-15398750D01*
X28448750Y-14413750D02*
X27463750Y-15398750D01*
X30288750Y-14413750D02*
X28448750Y-14413750D01*
X32955000Y-11747500D02*
X30288750Y-14413750D01*
X15175000Y-14352500D02*
X14605000Y-14922500D01*
X15175000Y-11747500D02*
X15175000Y-14352500D01*
X14605000Y-19332500D02*
X14605000Y-14922500D01*
X15875000Y-16510000D02*
X15875000Y-19332500D01*
X18097500Y-14287500D02*
X15875000Y-16510000D01*
X26987500Y-14287500D02*
X18097500Y-14287500D01*
X27940000Y-13335000D02*
X26987500Y-14287500D01*
X29527500Y-13335000D02*
X27940000Y-13335000D01*
X30476900Y-12385600D02*
X29527500Y-13335000D01*
X31115000Y-7937500D02*
X30476900Y-8575600D01*
X30476900Y-8575600D02*
X30476900Y-12385600D01*
X32955000Y-7937500D02*
X31115000Y-7937500D01*
X15175000Y-9207500D02*
X15175000Y-7937500D01*
X10225000Y-5397500D02*
X7937500Y-5397500D01*
X10225000Y-4127500D02*
X7937500Y-4127500D01*
X7937500Y-4127500D02*
X7937500Y-5397500D01*
X43815000Y-16192500D02*
X43815000Y-16192500D01*
X7937500Y-5397500D02*
X7937500Y-5397500D01*
X28575000Y-17462500D02*
X28575000Y-19332500D01*
X29139250Y-16898250D02*
X28575000Y-17462500D01*
X30550750Y-16898250D02*
X29139250Y-16898250D01*
X31891500Y-15557500D02*
X30550750Y-16898250D01*
X40322500Y-15557500D02*
X31891500Y-15557500D01*
X40957500Y-16192500D02*
X40322500Y-15557500D01*
X43815000Y-16192500D02*
X40957500Y-16192500D01*
M02*
