%TF.GenerationSoftware,KiCad,Pcbnew,(5.1.8)-1*%
%TF.CreationDate,2023-01-11T23:32:02+03:00*%
%TF.ProjectId,LED8,4c454438-2e6b-4696-9361-645f70636258,rev?*%
%TF.SameCoordinates,Original*%
%TF.FileFunction,Soldermask,Top*%
%TF.FilePolarity,Negative*%
%FSLAX46Y46*%
G04 Gerber Fmt 4.6, Leading zero omitted, Abs format (unit mm)*
G04 Created by KiCad (PCBNEW (5.1.8)-1) date 2023-01-11 23:32:02*
%MOMM*%
%LPD*%
G01*
G04 APERTURE LIST*
%ADD10R,2.800000X2.100000*%
%ADD11R,2.800000X2.000000*%
G04 APERTURE END LIST*
%TO.C,D1*%
G36*
G01*
X70670000Y-24949999D02*
X70670000Y-25850001D01*
G75*
G02*
X70420001Y-26100000I-249999J0D01*
G01*
X69769999Y-26100000D01*
G75*
G02*
X69520000Y-25850001I0J249999D01*
G01*
X69520000Y-24949999D01*
G75*
G02*
X69769999Y-24700000I249999J0D01*
G01*
X70420001Y-24700000D01*
G75*
G02*
X70670000Y-24949999I0J-249999D01*
G01*
G37*
G36*
G01*
X72720000Y-24949999D02*
X72720000Y-25850001D01*
G75*
G02*
X72470001Y-26100000I-249999J0D01*
G01*
X71819999Y-26100000D01*
G75*
G02*
X71570000Y-25850001I0J249999D01*
G01*
X71570000Y-24949999D01*
G75*
G02*
X71819999Y-24700000I249999J0D01*
G01*
X72470001Y-24700000D01*
G75*
G02*
X72720000Y-24949999I0J-249999D01*
G01*
G37*
%TD*%
%TO.C,D2*%
G36*
G01*
X72720000Y-27489999D02*
X72720000Y-28390001D01*
G75*
G02*
X72470001Y-28640000I-249999J0D01*
G01*
X71819999Y-28640000D01*
G75*
G02*
X71570000Y-28390001I0J249999D01*
G01*
X71570000Y-27489999D01*
G75*
G02*
X71819999Y-27240000I249999J0D01*
G01*
X72470001Y-27240000D01*
G75*
G02*
X72720000Y-27489999I0J-249999D01*
G01*
G37*
G36*
G01*
X70670000Y-27489999D02*
X70670000Y-28390001D01*
G75*
G02*
X70420001Y-28640000I-249999J0D01*
G01*
X69769999Y-28640000D01*
G75*
G02*
X69520000Y-28390001I0J249999D01*
G01*
X69520000Y-27489999D01*
G75*
G02*
X69769999Y-27240000I249999J0D01*
G01*
X70420001Y-27240000D01*
G75*
G02*
X70670000Y-27489999I0J-249999D01*
G01*
G37*
%TD*%
%TO.C,D3*%
G36*
G01*
X70670000Y-30029999D02*
X70670000Y-30930001D01*
G75*
G02*
X70420001Y-31180000I-249999J0D01*
G01*
X69769999Y-31180000D01*
G75*
G02*
X69520000Y-30930001I0J249999D01*
G01*
X69520000Y-30029999D01*
G75*
G02*
X69769999Y-29780000I249999J0D01*
G01*
X70420001Y-29780000D01*
G75*
G02*
X70670000Y-30029999I0J-249999D01*
G01*
G37*
G36*
G01*
X72720000Y-30029999D02*
X72720000Y-30930001D01*
G75*
G02*
X72470001Y-31180000I-249999J0D01*
G01*
X71819999Y-31180000D01*
G75*
G02*
X71570000Y-30930001I0J249999D01*
G01*
X71570000Y-30029999D01*
G75*
G02*
X71819999Y-29780000I249999J0D01*
G01*
X72470001Y-29780000D01*
G75*
G02*
X72720000Y-30029999I0J-249999D01*
G01*
G37*
%TD*%
%TO.C,D4*%
G36*
G01*
X72720000Y-32569999D02*
X72720000Y-33470001D01*
G75*
G02*
X72470001Y-33720000I-249999J0D01*
G01*
X71819999Y-33720000D01*
G75*
G02*
X71570000Y-33470001I0J249999D01*
G01*
X71570000Y-32569999D01*
G75*
G02*
X71819999Y-32320000I249999J0D01*
G01*
X72470001Y-32320000D01*
G75*
G02*
X72720000Y-32569999I0J-249999D01*
G01*
G37*
G36*
G01*
X70670000Y-32569999D02*
X70670000Y-33470001D01*
G75*
G02*
X70420001Y-33720000I-249999J0D01*
G01*
X69769999Y-33720000D01*
G75*
G02*
X69520000Y-33470001I0J249999D01*
G01*
X69520000Y-32569999D01*
G75*
G02*
X69769999Y-32320000I249999J0D01*
G01*
X70420001Y-32320000D01*
G75*
G02*
X70670000Y-32569999I0J-249999D01*
G01*
G37*
%TD*%
%TO.C,D5*%
G36*
G01*
X72720000Y-35109999D02*
X72720000Y-36010001D01*
G75*
G02*
X72470001Y-36260000I-249999J0D01*
G01*
X71819999Y-36260000D01*
G75*
G02*
X71570000Y-36010001I0J249999D01*
G01*
X71570000Y-35109999D01*
G75*
G02*
X71819999Y-34860000I249999J0D01*
G01*
X72470001Y-34860000D01*
G75*
G02*
X72720000Y-35109999I0J-249999D01*
G01*
G37*
G36*
G01*
X70670000Y-35109999D02*
X70670000Y-36010001D01*
G75*
G02*
X70420001Y-36260000I-249999J0D01*
G01*
X69769999Y-36260000D01*
G75*
G02*
X69520000Y-36010001I0J249999D01*
G01*
X69520000Y-35109999D01*
G75*
G02*
X69769999Y-34860000I249999J0D01*
G01*
X70420001Y-34860000D01*
G75*
G02*
X70670000Y-35109999I0J-249999D01*
G01*
G37*
%TD*%
%TO.C,D6*%
G36*
G01*
X70670000Y-37649999D02*
X70670000Y-38550001D01*
G75*
G02*
X70420001Y-38800000I-249999J0D01*
G01*
X69769999Y-38800000D01*
G75*
G02*
X69520000Y-38550001I0J249999D01*
G01*
X69520000Y-37649999D01*
G75*
G02*
X69769999Y-37400000I249999J0D01*
G01*
X70420001Y-37400000D01*
G75*
G02*
X70670000Y-37649999I0J-249999D01*
G01*
G37*
G36*
G01*
X72720000Y-37649999D02*
X72720000Y-38550001D01*
G75*
G02*
X72470001Y-38800000I-249999J0D01*
G01*
X71819999Y-38800000D01*
G75*
G02*
X71570000Y-38550001I0J249999D01*
G01*
X71570000Y-37649999D01*
G75*
G02*
X71819999Y-37400000I249999J0D01*
G01*
X72470001Y-37400000D01*
G75*
G02*
X72720000Y-37649999I0J-249999D01*
G01*
G37*
%TD*%
%TO.C,D7*%
G36*
G01*
X72720000Y-40189999D02*
X72720000Y-41090001D01*
G75*
G02*
X72470001Y-41340000I-249999J0D01*
G01*
X71819999Y-41340000D01*
G75*
G02*
X71570000Y-41090001I0J249999D01*
G01*
X71570000Y-40189999D01*
G75*
G02*
X71819999Y-39940000I249999J0D01*
G01*
X72470001Y-39940000D01*
G75*
G02*
X72720000Y-40189999I0J-249999D01*
G01*
G37*
G36*
G01*
X70670000Y-40189999D02*
X70670000Y-41090001D01*
G75*
G02*
X70420001Y-41340000I-249999J0D01*
G01*
X69769999Y-41340000D01*
G75*
G02*
X69520000Y-41090001I0J249999D01*
G01*
X69520000Y-40189999D01*
G75*
G02*
X69769999Y-39940000I249999J0D01*
G01*
X70420001Y-39940000D01*
G75*
G02*
X70670000Y-40189999I0J-249999D01*
G01*
G37*
%TD*%
%TO.C,D8*%
G36*
G01*
X70670000Y-42729999D02*
X70670000Y-43630001D01*
G75*
G02*
X70420001Y-43880000I-249999J0D01*
G01*
X69769999Y-43880000D01*
G75*
G02*
X69520000Y-43630001I0J249999D01*
G01*
X69520000Y-42729999D01*
G75*
G02*
X69769999Y-42480000I249999J0D01*
G01*
X70420001Y-42480000D01*
G75*
G02*
X70670000Y-42729999I0J-249999D01*
G01*
G37*
G36*
G01*
X72720000Y-42729999D02*
X72720000Y-43630001D01*
G75*
G02*
X72470001Y-43880000I-249999J0D01*
G01*
X71819999Y-43880000D01*
G75*
G02*
X71570000Y-43630001I0J249999D01*
G01*
X71570000Y-42729999D01*
G75*
G02*
X71819999Y-42480000I249999J0D01*
G01*
X72470001Y-42480000D01*
G75*
G02*
X72720000Y-42729999I0J-249999D01*
G01*
G37*
%TD*%
D10*
%TO.C,J1*%
X66040000Y-25400000D03*
X66040000Y-27940000D03*
X66040000Y-30480000D03*
X66040000Y-33020000D03*
X66040000Y-35560000D03*
X66040000Y-38100000D03*
X66040000Y-40640000D03*
X66040000Y-43180000D03*
%TD*%
D11*
%TO.C,J2*%
X66040000Y-22860000D03*
%TD*%
M02*
