%TF.GenerationSoftware,KiCad,Pcbnew,(5.1.8)-1*%
%TF.CreationDate,2024-08-17T01:38:09+03:00*%
%TF.ProjectId,Ports,506f7274-732e-46b6-9963-61645f706362,rev?*%
%TF.SameCoordinates,Original*%
%TF.FileFunction,Copper,L2,Bot*%
%TF.FilePolarity,Positive*%
%FSLAX46Y46*%
G04 Gerber Fmt 4.6, Leading zero omitted, Abs format (unit mm)*
G04 Created by KiCad (PCBNEW (5.1.8)-1) date 2024-08-17 01:38:09*
%MOMM*%
%LPD*%
G01*
G04 APERTURE LIST*
%TA.AperFunction,NonConductor*%
%ADD10C,0.200000*%
%TD*%
%TA.AperFunction,NonConductor*%
%ADD11C,0.150000*%
%TD*%
%TA.AperFunction,NonConductor*%
%ADD12C,0.300000*%
%TD*%
%TA.AperFunction,ComponentPad*%
%ADD13C,1.600000*%
%TD*%
%TA.AperFunction,ComponentPad*%
%ADD14O,1.600000X1.600000*%
%TD*%
%TA.AperFunction,ComponentPad*%
%ADD15R,1.600000X1.600000*%
%TD*%
%TA.AperFunction,ComponentPad*%
%ADD16O,2.300000X2.200000*%
%TD*%
%TA.AperFunction,ComponentPad*%
%ADD17R,2.300000X2.200000*%
%TD*%
%TA.AperFunction,ComponentPad*%
%ADD18O,2.200000X2.300000*%
%TD*%
%TA.AperFunction,ComponentPad*%
%ADD19R,2.200000X2.300000*%
%TD*%
%TA.AperFunction,ComponentPad*%
%ADD20O,2.200000X2.200000*%
%TD*%
%TA.AperFunction,ComponentPad*%
%ADD21R,2.200000X2.200000*%
%TD*%
%TA.AperFunction,SMDPad,CuDef*%
%ADD22C,0.100000*%
%TD*%
%TA.AperFunction,SMDPad,CuDef*%
%ADD23R,0.800000X0.900000*%
%TD*%
%TA.AperFunction,ComponentPad*%
%ADD24O,1.600000X1.500000*%
%TD*%
%TA.AperFunction,ComponentPad*%
%ADD25O,2.000000X2.000000*%
%TD*%
%TA.AperFunction,ComponentPad*%
%ADD26R,2.000000X2.000000*%
%TD*%
%TA.AperFunction,ComponentPad*%
%ADD27C,2.000000*%
%TD*%
%TA.AperFunction,ComponentPad*%
%ADD28O,1.800000X1.500000*%
%TD*%
%TA.AperFunction,ComponentPad*%
%ADD29R,1.800000X1.500000*%
%TD*%
%TA.AperFunction,ComponentPad*%
%ADD30R,2.600000X2.600000*%
%TD*%
%TA.AperFunction,ComponentPad*%
%ADD31C,2.600000*%
%TD*%
%TA.AperFunction,ComponentPad*%
%ADD32O,2.000000X2.200000*%
%TD*%
%TA.AperFunction,ComponentPad*%
%ADD33C,2.200000*%
%TD*%
%TA.AperFunction,ComponentPad*%
%ADD34R,2.000000X1.600000*%
%TD*%
%TA.AperFunction,ComponentPad*%
%ADD35O,2.000000X1.600000*%
%TD*%
%TA.AperFunction,ComponentPad*%
%ADD36O,2.000000X1.700000*%
%TD*%
%TA.AperFunction,ViaPad*%
%ADD37C,1.500000*%
%TD*%
%TA.AperFunction,Conductor*%
%ADD38C,0.800000*%
%TD*%
%TA.AperFunction,Conductor*%
%ADD39C,0.600000*%
%TD*%
%TA.AperFunction,Conductor*%
%ADD40C,0.500000*%
%TD*%
%TA.AperFunction,Conductor*%
%ADD41C,0.700000*%
%TD*%
G04 APERTURE END LIST*
D10*
X63137857Y-115655714D02*
X62223571Y-115655714D01*
X62680714Y-116112857D02*
X62680714Y-115198571D01*
X61080714Y-114912857D02*
X61652142Y-114912857D01*
X61709285Y-115484285D01*
X61652142Y-115427142D01*
X61537857Y-115370000D01*
X61252142Y-115370000D01*
X61137857Y-115427142D01*
X61080714Y-115484285D01*
X61023571Y-115598571D01*
X61023571Y-115884285D01*
X61080714Y-115998571D01*
X61137857Y-116055714D01*
X61252142Y-116112857D01*
X61537857Y-116112857D01*
X61652142Y-116055714D01*
X61709285Y-115998571D01*
X60680714Y-114912857D02*
X60280714Y-116112857D01*
X59880714Y-114912857D01*
D11*
X43950000Y-108577142D02*
X43902380Y-108481904D01*
X43902380Y-108339047D01*
X43950000Y-108196190D01*
X44045238Y-108100952D01*
X44140476Y-108053333D01*
X44330952Y-108005714D01*
X44473809Y-108005714D01*
X44664285Y-108053333D01*
X44759523Y-108100952D01*
X44854761Y-108196190D01*
X44902380Y-108339047D01*
X44902380Y-108434285D01*
X44854761Y-108577142D01*
X44807142Y-108624761D01*
X44473809Y-108624761D01*
X44473809Y-108434285D01*
X44235714Y-109053333D02*
X44902380Y-109053333D01*
X44330952Y-109053333D02*
X44283333Y-109100952D01*
X44235714Y-109196190D01*
X44235714Y-109339047D01*
X44283333Y-109434285D01*
X44378571Y-109481904D01*
X44902380Y-109481904D01*
X44902380Y-110386666D02*
X43902380Y-110386666D01*
X44854761Y-110386666D02*
X44902380Y-110291428D01*
X44902380Y-110100952D01*
X44854761Y-110005714D01*
X44807142Y-109958095D01*
X44711904Y-109910476D01*
X44426190Y-109910476D01*
X44330952Y-109958095D01*
X44283333Y-110005714D01*
X44235714Y-110100952D01*
X44235714Y-110291428D01*
X44283333Y-110386666D01*
D12*
X122578571Y-80117142D02*
X121435714Y-80117142D01*
X122007142Y-80688571D02*
X122007142Y-79545714D01*
X120007142Y-79188571D02*
X120721428Y-79188571D01*
X120792857Y-79902857D01*
X120721428Y-79831428D01*
X120578571Y-79760000D01*
X120221428Y-79760000D01*
X120078571Y-79831428D01*
X120007142Y-79902857D01*
X119935714Y-80045714D01*
X119935714Y-80402857D01*
X120007142Y-80545714D01*
X120078571Y-80617142D01*
X120221428Y-80688571D01*
X120578571Y-80688571D01*
X120721428Y-80617142D01*
X120792857Y-80545714D01*
X119507142Y-79188571D02*
X119007142Y-80688571D01*
X118507142Y-79188571D01*
X131650714Y-57193571D02*
X132507857Y-57193571D01*
X132079285Y-57193571D02*
X132079285Y-55693571D01*
X132222142Y-55907857D01*
X132365000Y-56050714D01*
X132507857Y-56122142D01*
X131150714Y-55693571D02*
X130150714Y-55693571D01*
X130793571Y-57193571D01*
X129579285Y-57050714D02*
X129507857Y-57122142D01*
X129579285Y-57193571D01*
X129650714Y-57122142D01*
X129579285Y-57050714D01*
X129579285Y-57193571D01*
X128579285Y-55693571D02*
X128436428Y-55693571D01*
X128293571Y-55765000D01*
X128222142Y-55836428D01*
X128150714Y-55979285D01*
X128079285Y-56265000D01*
X128079285Y-56622142D01*
X128150714Y-56907857D01*
X128222142Y-57050714D01*
X128293571Y-57122142D01*
X128436428Y-57193571D01*
X128579285Y-57193571D01*
X128722142Y-57122142D01*
X128793571Y-57050714D01*
X128865000Y-56907857D01*
X128936428Y-56622142D01*
X128936428Y-56265000D01*
X128865000Y-55979285D01*
X128793571Y-55836428D01*
X128722142Y-55765000D01*
X128579285Y-55693571D01*
X127222142Y-56336428D02*
X127365000Y-56265000D01*
X127436428Y-56193571D01*
X127507857Y-56050714D01*
X127507857Y-55979285D01*
X127436428Y-55836428D01*
X127365000Y-55765000D01*
X127222142Y-55693571D01*
X126936428Y-55693571D01*
X126793571Y-55765000D01*
X126722142Y-55836428D01*
X126650714Y-55979285D01*
X126650714Y-56050714D01*
X126722142Y-56193571D01*
X126793571Y-56265000D01*
X126936428Y-56336428D01*
X127222142Y-56336428D01*
X127365000Y-56407857D01*
X127436428Y-56479285D01*
X127507857Y-56622142D01*
X127507857Y-56907857D01*
X127436428Y-57050714D01*
X127365000Y-57122142D01*
X127222142Y-57193571D01*
X126936428Y-57193571D01*
X126793571Y-57122142D01*
X126722142Y-57050714D01*
X126650714Y-56907857D01*
X126650714Y-56622142D01*
X126722142Y-56479285D01*
X126793571Y-56407857D01*
X126936428Y-56336428D01*
X126007857Y-57050714D02*
X125936428Y-57122142D01*
X126007857Y-57193571D01*
X126079285Y-57122142D01*
X126007857Y-57050714D01*
X126007857Y-57193571D01*
X125365000Y-55836428D02*
X125293571Y-55765000D01*
X125150714Y-55693571D01*
X124793571Y-55693571D01*
X124650714Y-55765000D01*
X124579285Y-55836428D01*
X124507857Y-55979285D01*
X124507857Y-56122142D01*
X124579285Y-56336428D01*
X125436428Y-57193571D01*
X124507857Y-57193571D01*
X123579285Y-55693571D02*
X123436428Y-55693571D01*
X123293571Y-55765000D01*
X123222142Y-55836428D01*
X123150714Y-55979285D01*
X123079285Y-56265000D01*
X123079285Y-56622142D01*
X123150714Y-56907857D01*
X123222142Y-57050714D01*
X123293571Y-57122142D01*
X123436428Y-57193571D01*
X123579285Y-57193571D01*
X123722142Y-57122142D01*
X123793571Y-57050714D01*
X123865000Y-56907857D01*
X123936428Y-56622142D01*
X123936428Y-56265000D01*
X123865000Y-55979285D01*
X123793571Y-55836428D01*
X123722142Y-55765000D01*
X123579285Y-55693571D01*
X122507857Y-55836428D02*
X122436428Y-55765000D01*
X122293571Y-55693571D01*
X121936428Y-55693571D01*
X121793571Y-55765000D01*
X121722142Y-55836428D01*
X121650714Y-55979285D01*
X121650714Y-56122142D01*
X121722142Y-56336428D01*
X122579285Y-57193571D01*
X121650714Y-57193571D01*
X120365000Y-56193571D02*
X120365000Y-57193571D01*
X120722142Y-55622142D02*
X121079285Y-56693571D01*
X120150714Y-56693571D01*
X132507857Y-54018571D02*
X132507857Y-52518571D01*
X131936428Y-52518571D01*
X131793571Y-52590000D01*
X131722142Y-52661428D01*
X131650714Y-52804285D01*
X131650714Y-53018571D01*
X131722142Y-53161428D01*
X131793571Y-53232857D01*
X131936428Y-53304285D01*
X132507857Y-53304285D01*
X130722142Y-52518571D02*
X130436428Y-52518571D01*
X130293571Y-52590000D01*
X130150714Y-52732857D01*
X130079285Y-53018571D01*
X130079285Y-53518571D01*
X130150714Y-53804285D01*
X130293571Y-53947142D01*
X130436428Y-54018571D01*
X130722142Y-54018571D01*
X130865000Y-53947142D01*
X131007857Y-53804285D01*
X131079285Y-53518571D01*
X131079285Y-53018571D01*
X131007857Y-52732857D01*
X130865000Y-52590000D01*
X130722142Y-52518571D01*
X128579285Y-54018571D02*
X129079285Y-53304285D01*
X129436428Y-54018571D02*
X129436428Y-52518571D01*
X128865000Y-52518571D01*
X128722142Y-52590000D01*
X128650714Y-52661428D01*
X128579285Y-52804285D01*
X128579285Y-53018571D01*
X128650714Y-53161428D01*
X128722142Y-53232857D01*
X128865000Y-53304285D01*
X129436428Y-53304285D01*
X128150714Y-52518571D02*
X127293571Y-52518571D01*
X127722142Y-54018571D02*
X127722142Y-52518571D01*
X126865000Y-53947142D02*
X126650714Y-54018571D01*
X126293571Y-54018571D01*
X126150714Y-53947142D01*
X126079285Y-53875714D01*
X126007857Y-53732857D01*
X126007857Y-53590000D01*
X126079285Y-53447142D01*
X126150714Y-53375714D01*
X126293571Y-53304285D01*
X126579285Y-53232857D01*
X126722142Y-53161428D01*
X126793571Y-53090000D01*
X126865000Y-52947142D01*
X126865000Y-52804285D01*
X126793571Y-52661428D01*
X126722142Y-52590000D01*
X126579285Y-52518571D01*
X126222142Y-52518571D01*
X126007857Y-52590000D01*
X124365000Y-53018571D02*
X124007857Y-54018571D01*
X123650714Y-53018571D01*
X122293571Y-54018571D02*
X123150714Y-54018571D01*
X122722142Y-54018571D02*
X122722142Y-52518571D01*
X122865000Y-52732857D01*
X123007857Y-52875714D01*
X123150714Y-52947142D01*
X121650714Y-53875714D02*
X121579285Y-53947142D01*
X121650714Y-54018571D01*
X121722142Y-53947142D01*
X121650714Y-53875714D01*
X121650714Y-54018571D01*
X120293571Y-53018571D02*
X120293571Y-54018571D01*
X120650714Y-52447142D02*
X121007857Y-53518571D01*
X120079285Y-53518571D01*
X130650714Y-49343571D02*
X129650714Y-49343571D01*
X130293571Y-50843571D01*
X128436428Y-49843571D02*
X128436428Y-50843571D01*
X128793571Y-49272142D02*
X129150714Y-50343571D01*
X128222142Y-50343571D01*
X127650714Y-50843571D02*
X127650714Y-49343571D01*
X127650714Y-50057857D02*
X126793571Y-50057857D01*
X126793571Y-50843571D02*
X126793571Y-49343571D01*
X125222142Y-50700714D02*
X125293571Y-50772142D01*
X125507857Y-50843571D01*
X125650714Y-50843571D01*
X125865000Y-50772142D01*
X126007857Y-50629285D01*
X126079285Y-50486428D01*
X126150714Y-50200714D01*
X126150714Y-49986428D01*
X126079285Y-49700714D01*
X126007857Y-49557857D01*
X125865000Y-49415000D01*
X125650714Y-49343571D01*
X125507857Y-49343571D01*
X125293571Y-49415000D01*
X125222142Y-49486428D01*
X124579285Y-50843571D02*
X124579285Y-49343571D01*
X124007857Y-49343571D01*
X123865000Y-49415000D01*
X123793571Y-49486428D01*
X123722142Y-49629285D01*
X123722142Y-49843571D01*
X123793571Y-49986428D01*
X123865000Y-50057857D01*
X124007857Y-50129285D01*
X124579285Y-50129285D01*
X123079285Y-49343571D02*
X123079285Y-50557857D01*
X123007857Y-50700714D01*
X122936428Y-50772142D01*
X122793571Y-50843571D01*
X122507857Y-50843571D01*
X122365000Y-50772142D01*
X122293571Y-50700714D01*
X122222142Y-50557857D01*
X122222142Y-49343571D01*
D13*
%TO.P,C4,2*%
%TO.N,GND*%
X63580000Y-31115000D03*
%TO.P,C4,1*%
%TO.N,VCC*%
X68580000Y-31115000D03*
%TD*%
D14*
%TO.P,D28,2*%
%TO.N,Net-(D12-Pad2)*%
X86995000Y-79375000D03*
D15*
%TO.P,D28,1*%
%TO.N,/P0.6*%
X86995000Y-69215000D03*
%TD*%
D14*
%TO.P,D27,2*%
%TO.N,Net-(D11-Pad2)*%
X84455000Y-76835000D03*
D15*
%TO.P,D27,1*%
%TO.N,/P0.5*%
X84455000Y-66675000D03*
%TD*%
D16*
%TO.P,J1,9*%
%TO.N,/D7*%
X45720000Y-76200000D03*
%TO.P,J1,8*%
%TO.N,/D6*%
X45720000Y-73660000D03*
%TO.P,J1,7*%
%TO.N,/D5*%
X45720000Y-71120000D03*
%TO.P,J1,6*%
%TO.N,/D4*%
X45720000Y-68580000D03*
%TO.P,J1,5*%
%TO.N,/D3*%
X45720000Y-66040000D03*
%TO.P,J1,4*%
%TO.N,/D2*%
X45720000Y-63500000D03*
%TO.P,J1,3*%
%TO.N,/D1*%
X45720000Y-60960000D03*
%TO.P,J1,2*%
%TO.N,/D0*%
X45720000Y-58420000D03*
D17*
%TO.P,J1,1*%
%TO.N,GND*%
X45720000Y-55880000D03*
%TD*%
D18*
%TO.P,J7,2*%
%TO.N,/IN0.OE*%
X67945000Y-113665000D03*
D19*
%TO.P,J7,1*%
%TO.N,/IN0.C*%
X70485000Y-113665000D03*
%TD*%
D20*
%TO.P,J6,9*%
%TO.N,/BUS7*%
X45720000Y-101600000D03*
%TO.P,J6,8*%
%TO.N,/BUS6*%
X45720000Y-99060000D03*
%TO.P,J6,7*%
%TO.N,/BUS5*%
X45720000Y-96520000D03*
%TO.P,J6,6*%
%TO.N,/BUS4*%
X45720000Y-93980000D03*
%TO.P,J6,5*%
%TO.N,/BUS3*%
X45720000Y-91440000D03*
%TO.P,J6,4*%
%TO.N,/BUS2*%
X45720000Y-88900000D03*
%TO.P,J6,3*%
%TO.N,/BUS1*%
X45720000Y-86360000D03*
%TO.P,J6,2*%
%TO.N,/BUS0*%
X45720000Y-83820000D03*
D21*
%TO.P,J6,1*%
%TO.N,GND*%
X45720000Y-81280000D03*
%TD*%
D16*
%TO.P,J5,4*%
%TO.N,/OUT0*%
X138430000Y-81280000D03*
%TO.P,J5,3*%
%TO.N,GND*%
X138430000Y-78740000D03*
%TO.P,J5,2*%
%TO.N,/OUT1*%
X138430000Y-76200000D03*
D17*
%TO.P,J5,1*%
%TO.N,/OUT2*%
X138430000Y-73660000D03*
%TD*%
%TA.AperFunction,SMDPad,CuDef*%
D22*
%TO.P,Q2,3*%
%TO.N,Net-(J4-Pad2)*%
G36*
X58526066Y-108621752D02*
G01*
X59091752Y-108056066D01*
X59728148Y-108692462D01*
X59162462Y-109258148D01*
X58526066Y-108621752D01*
G37*
%TD.AperFunction*%
%TA.AperFunction,SMDPad,CuDef*%
%TO.P,Q2,2*%
%TO.N,VCC*%
G36*
X57783604Y-106535787D02*
G01*
X58349290Y-105970101D01*
X58985686Y-106606497D01*
X58420000Y-107172183D01*
X57783604Y-106535787D01*
G37*
%TD.AperFunction*%
%TA.AperFunction,SMDPad,CuDef*%
%TO.P,Q2,1*%
%TO.N,GND*%
G36*
X56440101Y-107879290D02*
G01*
X57005787Y-107313604D01*
X57642183Y-107950000D01*
X57076497Y-108515686D01*
X56440101Y-107879290D01*
G37*
%TD.AperFunction*%
%TD*%
%TO.P,R22,2*%
%TO.N,GND*%
%TA.AperFunction,SMDPad,CuDef*%
G36*
G01*
X108985000Y-30295001D02*
X108985000Y-29394999D01*
G75*
G02*
X109234999Y-29145000I249999J0D01*
G01*
X109935001Y-29145000D01*
G75*
G02*
X110185000Y-29394999I0J-249999D01*
G01*
X110185000Y-30295001D01*
G75*
G02*
X109935001Y-30545000I-249999J0D01*
G01*
X109234999Y-30545000D01*
G75*
G02*
X108985000Y-30295001I0J249999D01*
G01*
G37*
%TD.AperFunction*%
%TO.P,R22,1*%
%TO.N,/P0.7*%
%TA.AperFunction,SMDPad,CuDef*%
G36*
G01*
X106985000Y-30295001D02*
X106985000Y-29394999D01*
G75*
G02*
X107234999Y-29145000I249999J0D01*
G01*
X107935001Y-29145000D01*
G75*
G02*
X108185000Y-29394999I0J-249999D01*
G01*
X108185000Y-30295001D01*
G75*
G02*
X107935001Y-30545000I-249999J0D01*
G01*
X107234999Y-30545000D01*
G75*
G02*
X106985000Y-30295001I0J249999D01*
G01*
G37*
%TD.AperFunction*%
%TD*%
D23*
%TO.P,Q1,3*%
%TO.N,Net-(DS1-Pad16)*%
X108585000Y-34020000D03*
%TO.P,Q1,2*%
%TO.N,GND*%
X109535000Y-32020000D03*
%TO.P,Q1,1*%
%TO.N,/P0.7*%
X107635000Y-32020000D03*
%TD*%
D14*
%TO.P,C3,2*%
%TO.N,GND*%
X54927500Y-81280000D03*
D13*
%TO.P,C3,1*%
%TO.N,VCC*%
X54927500Y-104140000D03*
%TD*%
D14*
%TO.P,C2,2*%
%TO.N,GND*%
X72390000Y-74295000D03*
D13*
%TO.P,C2,1*%
%TO.N,VCC*%
X72390000Y-51435000D03*
%TD*%
D24*
%TO.P,C1,2*%
%TO.N,GND*%
X95250000Y-74295000D03*
D13*
%TO.P,C1,1*%
%TO.N,VCC*%
X95250000Y-51435000D03*
%TD*%
D25*
%TO.P,J9,2*%
%TO.N,GND*%
X48260000Y-106045000D03*
D26*
%TO.P,J9,1*%
X45720000Y-106045000D03*
%TD*%
%TA.AperFunction,SMDPad,CuDef*%
D22*
%TO.P,JP1,2*%
%TO.N,GND*%
G36*
X104775000Y-22745602D02*
G01*
X104799534Y-22745602D01*
X104848365Y-22750412D01*
X104896490Y-22759984D01*
X104943445Y-22774228D01*
X104988778Y-22793005D01*
X105032051Y-22816136D01*
X105072850Y-22843396D01*
X105110779Y-22874524D01*
X105145476Y-22909221D01*
X105176604Y-22947150D01*
X105203864Y-22987949D01*
X105226995Y-23031222D01*
X105245772Y-23076555D01*
X105260016Y-23123510D01*
X105269588Y-23171635D01*
X105274398Y-23220466D01*
X105274398Y-23245000D01*
X105275000Y-23245000D01*
X105275000Y-23745000D01*
X105274398Y-23745000D01*
X105274398Y-23769534D01*
X105269588Y-23818365D01*
X105260016Y-23866490D01*
X105245772Y-23913445D01*
X105226995Y-23958778D01*
X105203864Y-24002051D01*
X105176604Y-24042850D01*
X105145476Y-24080779D01*
X105110779Y-24115476D01*
X105072850Y-24146604D01*
X105032051Y-24173864D01*
X104988778Y-24196995D01*
X104943445Y-24215772D01*
X104896490Y-24230016D01*
X104848365Y-24239588D01*
X104799534Y-24244398D01*
X104775000Y-24244398D01*
X104775000Y-24245000D01*
X104275000Y-24245000D01*
X104275000Y-22745000D01*
X104775000Y-22745000D01*
X104775000Y-22745602D01*
G37*
%TD.AperFunction*%
%TA.AperFunction,SMDPad,CuDef*%
%TO.P,JP1,1*%
%TO.N,Net-(D1-Pad1)*%
G36*
X103975000Y-24245000D02*
G01*
X103475000Y-24245000D01*
X103475000Y-24244398D01*
X103450466Y-24244398D01*
X103401635Y-24239588D01*
X103353510Y-24230016D01*
X103306555Y-24215772D01*
X103261222Y-24196995D01*
X103217949Y-24173864D01*
X103177150Y-24146604D01*
X103139221Y-24115476D01*
X103104524Y-24080779D01*
X103073396Y-24042850D01*
X103046136Y-24002051D01*
X103023005Y-23958778D01*
X103004228Y-23913445D01*
X102989984Y-23866490D01*
X102980412Y-23818365D01*
X102975602Y-23769534D01*
X102975602Y-23745000D01*
X102975000Y-23745000D01*
X102975000Y-23245000D01*
X102975602Y-23245000D01*
X102975602Y-23220466D01*
X102980412Y-23171635D01*
X102989984Y-23123510D01*
X103004228Y-23076555D01*
X103023005Y-23031222D01*
X103046136Y-22987949D01*
X103073396Y-22947150D01*
X103104524Y-22909221D01*
X103139221Y-22874524D01*
X103177150Y-22843396D01*
X103217949Y-22816136D01*
X103261222Y-22793005D01*
X103306555Y-22774228D01*
X103353510Y-22759984D01*
X103401635Y-22750412D01*
X103450466Y-22745602D01*
X103475000Y-22745602D01*
X103475000Y-22745000D01*
X103975000Y-22745000D01*
X103975000Y-24245000D01*
G37*
%TD.AperFunction*%
%TD*%
D27*
%TO.P,D26,1*%
%TO.N,/IN0.0*%
X71120000Y-86845000D03*
%TO.P,D26,2*%
%TO.N,Net-(D12-Pad2)*%
X75620000Y-86845000D03*
%TO.P,D26,1*%
%TO.N,/IN0.0*%
X71120000Y-93345000D03*
%TO.P,D26,2*%
%TO.N,Net-(D12-Pad2)*%
X75620000Y-93345000D03*
%TD*%
%TO.P,D25,1*%
%TO.N,/IN0.0*%
X71120000Y-97005000D03*
%TO.P,D25,2*%
%TO.N,Net-(D11-Pad2)*%
X75620000Y-97005000D03*
%TO.P,D25,1*%
%TO.N,/IN0.0*%
X71120000Y-103505000D03*
%TO.P,D25,2*%
%TO.N,Net-(D11-Pad2)*%
X75620000Y-103505000D03*
%TD*%
%TO.P,D24,1*%
%TO.N,/IN0.1*%
X80010000Y-86845000D03*
%TO.P,D24,2*%
%TO.N,Net-(D12-Pad2)*%
X84510000Y-86845000D03*
%TO.P,D24,1*%
%TO.N,/IN0.1*%
X80010000Y-93345000D03*
%TO.P,D24,2*%
%TO.N,Net-(D12-Pad2)*%
X84510000Y-93345000D03*
%TD*%
%TO.P,D23,1*%
%TO.N,/IN0.1*%
X80010000Y-97005000D03*
%TO.P,D23,2*%
%TO.N,Net-(D11-Pad2)*%
X84510000Y-97005000D03*
%TO.P,D23,1*%
%TO.N,/IN0.1*%
X80010000Y-103505000D03*
%TO.P,D23,2*%
%TO.N,Net-(D11-Pad2)*%
X84510000Y-103505000D03*
%TD*%
%TO.P,D22,1*%
%TO.N,/IN0.2*%
X88900000Y-86845000D03*
%TO.P,D22,2*%
%TO.N,Net-(D12-Pad2)*%
X93400000Y-86845000D03*
%TO.P,D22,1*%
%TO.N,/IN0.2*%
X88900000Y-93345000D03*
%TO.P,D22,2*%
%TO.N,Net-(D12-Pad2)*%
X93400000Y-93345000D03*
%TD*%
%TO.P,D21,1*%
%TO.N,/IN0.2*%
X88900000Y-97005000D03*
%TO.P,D21,2*%
%TO.N,Net-(D11-Pad2)*%
X93400000Y-97005000D03*
%TO.P,D21,1*%
%TO.N,/IN0.2*%
X88900000Y-103505000D03*
%TO.P,D21,2*%
%TO.N,Net-(D11-Pad2)*%
X93400000Y-103505000D03*
%TD*%
%TO.P,D20,1*%
%TO.N,/IN0.3*%
X97790000Y-86845000D03*
%TO.P,D20,2*%
%TO.N,Net-(D12-Pad2)*%
X102290000Y-86845000D03*
%TO.P,D20,1*%
%TO.N,/IN0.3*%
X97790000Y-93345000D03*
%TO.P,D20,2*%
%TO.N,Net-(D12-Pad2)*%
X102290000Y-93345000D03*
%TD*%
%TO.P,D19,1*%
%TO.N,/IN0.3*%
X97790000Y-97005000D03*
%TO.P,D19,2*%
%TO.N,Net-(D11-Pad2)*%
X102290000Y-97005000D03*
%TO.P,D19,1*%
%TO.N,/IN0.3*%
X97790000Y-103505000D03*
%TO.P,D19,2*%
%TO.N,Net-(D11-Pad2)*%
X102290000Y-103505000D03*
%TD*%
%TO.P,D18,1*%
%TO.N,/IN0.4*%
X106680000Y-86845000D03*
%TO.P,D18,2*%
%TO.N,Net-(D12-Pad2)*%
X111180000Y-86845000D03*
%TO.P,D18,1*%
%TO.N,/IN0.4*%
X106680000Y-93345000D03*
%TO.P,D18,2*%
%TO.N,Net-(D12-Pad2)*%
X111180000Y-93345000D03*
%TD*%
%TO.P,D17,1*%
%TO.N,/IN0.4*%
X106680000Y-97005000D03*
%TO.P,D17,2*%
%TO.N,Net-(D11-Pad2)*%
X111180000Y-97005000D03*
%TO.P,D17,1*%
%TO.N,/IN0.4*%
X106680000Y-103505000D03*
%TO.P,D17,2*%
%TO.N,Net-(D11-Pad2)*%
X111180000Y-103505000D03*
%TD*%
%TO.P,D16,1*%
%TO.N,/IN0.5*%
X115570000Y-86845000D03*
%TO.P,D16,2*%
%TO.N,Net-(D12-Pad2)*%
X120070000Y-86845000D03*
%TO.P,D16,1*%
%TO.N,/IN0.5*%
X115570000Y-93345000D03*
%TO.P,D16,2*%
%TO.N,Net-(D12-Pad2)*%
X120070000Y-93345000D03*
%TD*%
%TO.P,D15,1*%
%TO.N,/IN0.5*%
X115570000Y-97005000D03*
%TO.P,D15,2*%
%TO.N,Net-(D11-Pad2)*%
X120070000Y-97005000D03*
%TO.P,D15,1*%
%TO.N,/IN0.5*%
X115570000Y-103505000D03*
%TO.P,D15,2*%
%TO.N,Net-(D11-Pad2)*%
X120070000Y-103505000D03*
%TD*%
%TO.P,D14,1*%
%TO.N,/IN0.6*%
X124460000Y-86845000D03*
%TO.P,D14,2*%
%TO.N,Net-(D12-Pad2)*%
X128960000Y-86845000D03*
%TO.P,D14,1*%
%TO.N,/IN0.6*%
X124460000Y-93345000D03*
%TO.P,D14,2*%
%TO.N,Net-(D12-Pad2)*%
X128960000Y-93345000D03*
%TD*%
%TO.P,D13,1*%
%TO.N,/IN0.6*%
X124460000Y-97005000D03*
%TO.P,D13,2*%
%TO.N,Net-(D11-Pad2)*%
X128960000Y-97005000D03*
%TO.P,D13,1*%
%TO.N,/IN0.6*%
X124460000Y-103505000D03*
%TO.P,D13,2*%
%TO.N,Net-(D11-Pad2)*%
X128960000Y-103505000D03*
%TD*%
%TO.P,D12,1*%
%TO.N,/IN0.7*%
X133350000Y-86845000D03*
%TO.P,D12,2*%
%TO.N,Net-(D12-Pad2)*%
X137850000Y-86845000D03*
%TO.P,D12,1*%
%TO.N,/IN0.7*%
X133350000Y-93345000D03*
%TO.P,D12,2*%
%TO.N,Net-(D12-Pad2)*%
X137850000Y-93345000D03*
%TD*%
%TO.P,D11,1*%
%TO.N,/IN0.7*%
X133350000Y-97005000D03*
%TO.P,D11,2*%
%TO.N,Net-(D11-Pad2)*%
X137850000Y-97005000D03*
%TO.P,D11,1*%
%TO.N,/IN0.7*%
X133350000Y-103505000D03*
%TO.P,D11,2*%
%TO.N,Net-(D11-Pad2)*%
X137850000Y-103505000D03*
%TD*%
D28*
%TO.P,U3,20*%
%TO.N,VCC*%
X51435000Y-104140000D03*
%TO.P,U3,10*%
%TO.N,GND*%
X59055000Y-81280000D03*
%TO.P,U3,19*%
%TO.N,/BUS7*%
X51435000Y-101600000D03*
%TO.P,U3,9*%
%TO.N,/IN0.0*%
X59055000Y-83820000D03*
%TO.P,U3,18*%
%TO.N,/BUS6*%
X51435000Y-99060000D03*
%TO.P,U3,8*%
%TO.N,/IN0.1*%
X59055000Y-86360000D03*
%TO.P,U3,17*%
%TO.N,/BUS5*%
X51435000Y-96520000D03*
%TO.P,U3,7*%
%TO.N,/IN0.2*%
X59055000Y-88900000D03*
%TO.P,U3,16*%
%TO.N,/BUS4*%
X51435000Y-93980000D03*
%TO.P,U3,6*%
%TO.N,/IN0.3*%
X59055000Y-91440000D03*
%TO.P,U3,15*%
%TO.N,/BUS3*%
X51435000Y-91440000D03*
%TO.P,U3,5*%
%TO.N,/IN0.4*%
X59055000Y-93980000D03*
%TO.P,U3,14*%
%TO.N,/BUS2*%
X51435000Y-88900000D03*
%TO.P,U3,4*%
%TO.N,/IN0.5*%
X59055000Y-96520000D03*
%TO.P,U3,13*%
%TO.N,/BUS1*%
X51435000Y-86360000D03*
%TO.P,U3,3*%
%TO.N,/IN0.6*%
X59055000Y-99060000D03*
%TO.P,U3,12*%
%TO.N,/BUS0*%
X51435000Y-83820000D03*
%TO.P,U3,2*%
%TO.N,/IN0.7*%
X59055000Y-101600000D03*
%TO.P,U3,11*%
%TO.N,/IN0.C*%
X51435000Y-81280000D03*
D29*
%TO.P,U3,1*%
%TO.N,/IN0.OE*%
X59055000Y-104140000D03*
%TD*%
%TO.P,R21,2*%
%TO.N,VCC*%
%TA.AperFunction,SMDPad,CuDef*%
G36*
G01*
X71570001Y-82515000D02*
X70669999Y-82515000D01*
G75*
G02*
X70420000Y-82265001I0J249999D01*
G01*
X70420000Y-81564999D01*
G75*
G02*
X70669999Y-81315000I249999J0D01*
G01*
X71570001Y-81315000D01*
G75*
G02*
X71820000Y-81564999I0J-249999D01*
G01*
X71820000Y-82265001D01*
G75*
G02*
X71570001Y-82515000I-249999J0D01*
G01*
G37*
%TD.AperFunction*%
%TO.P,R21,1*%
%TO.N,/IN0.0*%
%TA.AperFunction,SMDPad,CuDef*%
G36*
G01*
X71570001Y-84515000D02*
X70669999Y-84515000D01*
G75*
G02*
X70420000Y-84265001I0J249999D01*
G01*
X70420000Y-83564999D01*
G75*
G02*
X70669999Y-83315000I249999J0D01*
G01*
X71570001Y-83315000D01*
G75*
G02*
X71820000Y-83564999I0J-249999D01*
G01*
X71820000Y-84265001D01*
G75*
G02*
X71570001Y-84515000I-249999J0D01*
G01*
G37*
%TD.AperFunction*%
%TD*%
%TO.P,R20,2*%
%TO.N,VCC*%
%TA.AperFunction,SMDPad,CuDef*%
G36*
G01*
X80460001Y-82515000D02*
X79559999Y-82515000D01*
G75*
G02*
X79310000Y-82265001I0J249999D01*
G01*
X79310000Y-81564999D01*
G75*
G02*
X79559999Y-81315000I249999J0D01*
G01*
X80460001Y-81315000D01*
G75*
G02*
X80710000Y-81564999I0J-249999D01*
G01*
X80710000Y-82265001D01*
G75*
G02*
X80460001Y-82515000I-249999J0D01*
G01*
G37*
%TD.AperFunction*%
%TO.P,R20,1*%
%TO.N,/IN0.1*%
%TA.AperFunction,SMDPad,CuDef*%
G36*
G01*
X80460001Y-84515000D02*
X79559999Y-84515000D01*
G75*
G02*
X79310000Y-84265001I0J249999D01*
G01*
X79310000Y-83564999D01*
G75*
G02*
X79559999Y-83315000I249999J0D01*
G01*
X80460001Y-83315000D01*
G75*
G02*
X80710000Y-83564999I0J-249999D01*
G01*
X80710000Y-84265001D01*
G75*
G02*
X80460001Y-84515000I-249999J0D01*
G01*
G37*
%TD.AperFunction*%
%TD*%
%TO.P,R19,2*%
%TO.N,VCC*%
%TA.AperFunction,SMDPad,CuDef*%
G36*
G01*
X89350001Y-82515000D02*
X88449999Y-82515000D01*
G75*
G02*
X88200000Y-82265001I0J249999D01*
G01*
X88200000Y-81564999D01*
G75*
G02*
X88449999Y-81315000I249999J0D01*
G01*
X89350001Y-81315000D01*
G75*
G02*
X89600000Y-81564999I0J-249999D01*
G01*
X89600000Y-82265001D01*
G75*
G02*
X89350001Y-82515000I-249999J0D01*
G01*
G37*
%TD.AperFunction*%
%TO.P,R19,1*%
%TO.N,/IN0.2*%
%TA.AperFunction,SMDPad,CuDef*%
G36*
G01*
X89350001Y-84515000D02*
X88449999Y-84515000D01*
G75*
G02*
X88200000Y-84265001I0J249999D01*
G01*
X88200000Y-83564999D01*
G75*
G02*
X88449999Y-83315000I249999J0D01*
G01*
X89350001Y-83315000D01*
G75*
G02*
X89600000Y-83564999I0J-249999D01*
G01*
X89600000Y-84265001D01*
G75*
G02*
X89350001Y-84515000I-249999J0D01*
G01*
G37*
%TD.AperFunction*%
%TD*%
%TO.P,R18,2*%
%TO.N,VCC*%
%TA.AperFunction,SMDPad,CuDef*%
G36*
G01*
X98240001Y-82515000D02*
X97339999Y-82515000D01*
G75*
G02*
X97090000Y-82265001I0J249999D01*
G01*
X97090000Y-81564999D01*
G75*
G02*
X97339999Y-81315000I249999J0D01*
G01*
X98240001Y-81315000D01*
G75*
G02*
X98490000Y-81564999I0J-249999D01*
G01*
X98490000Y-82265001D01*
G75*
G02*
X98240001Y-82515000I-249999J0D01*
G01*
G37*
%TD.AperFunction*%
%TO.P,R18,1*%
%TO.N,/IN0.3*%
%TA.AperFunction,SMDPad,CuDef*%
G36*
G01*
X98240001Y-84515000D02*
X97339999Y-84515000D01*
G75*
G02*
X97090000Y-84265001I0J249999D01*
G01*
X97090000Y-83564999D01*
G75*
G02*
X97339999Y-83315000I249999J0D01*
G01*
X98240001Y-83315000D01*
G75*
G02*
X98490000Y-83564999I0J-249999D01*
G01*
X98490000Y-84265001D01*
G75*
G02*
X98240001Y-84515000I-249999J0D01*
G01*
G37*
%TD.AperFunction*%
%TD*%
%TO.P,R17,2*%
%TO.N,VCC*%
%TA.AperFunction,SMDPad,CuDef*%
G36*
G01*
X107130001Y-82515000D02*
X106229999Y-82515000D01*
G75*
G02*
X105980000Y-82265001I0J249999D01*
G01*
X105980000Y-81564999D01*
G75*
G02*
X106229999Y-81315000I249999J0D01*
G01*
X107130001Y-81315000D01*
G75*
G02*
X107380000Y-81564999I0J-249999D01*
G01*
X107380000Y-82265001D01*
G75*
G02*
X107130001Y-82515000I-249999J0D01*
G01*
G37*
%TD.AperFunction*%
%TO.P,R17,1*%
%TO.N,/IN0.4*%
%TA.AperFunction,SMDPad,CuDef*%
G36*
G01*
X107130001Y-84515000D02*
X106229999Y-84515000D01*
G75*
G02*
X105980000Y-84265001I0J249999D01*
G01*
X105980000Y-83564999D01*
G75*
G02*
X106229999Y-83315000I249999J0D01*
G01*
X107130001Y-83315000D01*
G75*
G02*
X107380000Y-83564999I0J-249999D01*
G01*
X107380000Y-84265001D01*
G75*
G02*
X107130001Y-84515000I-249999J0D01*
G01*
G37*
%TD.AperFunction*%
%TD*%
%TO.P,R16,2*%
%TO.N,VCC*%
%TA.AperFunction,SMDPad,CuDef*%
G36*
G01*
X116020001Y-82515000D02*
X115119999Y-82515000D01*
G75*
G02*
X114870000Y-82265001I0J249999D01*
G01*
X114870000Y-81564999D01*
G75*
G02*
X115119999Y-81315000I249999J0D01*
G01*
X116020001Y-81315000D01*
G75*
G02*
X116270000Y-81564999I0J-249999D01*
G01*
X116270000Y-82265001D01*
G75*
G02*
X116020001Y-82515000I-249999J0D01*
G01*
G37*
%TD.AperFunction*%
%TO.P,R16,1*%
%TO.N,/IN0.5*%
%TA.AperFunction,SMDPad,CuDef*%
G36*
G01*
X116020001Y-84515000D02*
X115119999Y-84515000D01*
G75*
G02*
X114870000Y-84265001I0J249999D01*
G01*
X114870000Y-83564999D01*
G75*
G02*
X115119999Y-83315000I249999J0D01*
G01*
X116020001Y-83315000D01*
G75*
G02*
X116270000Y-83564999I0J-249999D01*
G01*
X116270000Y-84265001D01*
G75*
G02*
X116020001Y-84515000I-249999J0D01*
G01*
G37*
%TD.AperFunction*%
%TD*%
%TO.P,R15,2*%
%TO.N,VCC*%
%TA.AperFunction,SMDPad,CuDef*%
G36*
G01*
X124910001Y-82515000D02*
X124009999Y-82515000D01*
G75*
G02*
X123760000Y-82265001I0J249999D01*
G01*
X123760000Y-81564999D01*
G75*
G02*
X124009999Y-81315000I249999J0D01*
G01*
X124910001Y-81315000D01*
G75*
G02*
X125160000Y-81564999I0J-249999D01*
G01*
X125160000Y-82265001D01*
G75*
G02*
X124910001Y-82515000I-249999J0D01*
G01*
G37*
%TD.AperFunction*%
%TO.P,R15,1*%
%TO.N,/IN0.6*%
%TA.AperFunction,SMDPad,CuDef*%
G36*
G01*
X124910001Y-84515000D02*
X124009999Y-84515000D01*
G75*
G02*
X123760000Y-84265001I0J249999D01*
G01*
X123760000Y-83564999D01*
G75*
G02*
X124009999Y-83315000I249999J0D01*
G01*
X124910001Y-83315000D01*
G75*
G02*
X125160000Y-83564999I0J-249999D01*
G01*
X125160000Y-84265001D01*
G75*
G02*
X124910001Y-84515000I-249999J0D01*
G01*
G37*
%TD.AperFunction*%
%TD*%
%TO.P,R14,2*%
%TO.N,VCC*%
%TA.AperFunction,SMDPad,CuDef*%
G36*
G01*
X133800001Y-82515000D02*
X132899999Y-82515000D01*
G75*
G02*
X132650000Y-82265001I0J249999D01*
G01*
X132650000Y-81564999D01*
G75*
G02*
X132899999Y-81315000I249999J0D01*
G01*
X133800001Y-81315000D01*
G75*
G02*
X134050000Y-81564999I0J-249999D01*
G01*
X134050000Y-82265001D01*
G75*
G02*
X133800001Y-82515000I-249999J0D01*
G01*
G37*
%TD.AperFunction*%
%TO.P,R14,1*%
%TO.N,/IN0.7*%
%TA.AperFunction,SMDPad,CuDef*%
G36*
G01*
X133800001Y-84515000D02*
X132899999Y-84515000D01*
G75*
G02*
X132650000Y-84265001I0J249999D01*
G01*
X132650000Y-83564999D01*
G75*
G02*
X132899999Y-83315000I249999J0D01*
G01*
X133800001Y-83315000D01*
G75*
G02*
X134050000Y-83564999I0J-249999D01*
G01*
X134050000Y-84265001D01*
G75*
G02*
X133800001Y-84515000I-249999J0D01*
G01*
G37*
%TD.AperFunction*%
%TD*%
%TO.P,R1,2*%
%TO.N,Net-(DS1-Pad15)*%
%TA.AperFunction,ComponentPad*%
G36*
G01*
X101405407Y-40087500D02*
X101405407Y-40087500D01*
G75*
G02*
X101698227Y-38994680I692820J400000D01*
G01*
X101698227Y-38994680D01*
G75*
G02*
X102791047Y-39287500I400000J-692820D01*
G01*
X102791047Y-39287500D01*
G75*
G02*
X102498227Y-40380320I-692820J-400000D01*
G01*
X102498227Y-40380320D01*
G75*
G02*
X101405407Y-40087500I-400000J692820D01*
G01*
G37*
%TD.AperFunction*%
D13*
%TO.P,R1,1*%
%TO.N,VCC*%
X88900000Y-47307500D03*
%TD*%
%TO.P,R13,2*%
%TO.N,/D7*%
%TA.AperFunction,SMDPad,CuDef*%
G36*
G01*
X98609999Y-30245000D02*
X99510001Y-30245000D01*
G75*
G02*
X99760000Y-30494999I0J-249999D01*
G01*
X99760000Y-31195001D01*
G75*
G02*
X99510001Y-31445000I-249999J0D01*
G01*
X98609999Y-31445000D01*
G75*
G02*
X98360000Y-31195001I0J249999D01*
G01*
X98360000Y-30494999D01*
G75*
G02*
X98609999Y-30245000I249999J0D01*
G01*
G37*
%TD.AperFunction*%
%TO.P,R13,1*%
%TO.N,Net-(D10-Pad2)*%
%TA.AperFunction,SMDPad,CuDef*%
G36*
G01*
X98609999Y-28245000D02*
X99510001Y-28245000D01*
G75*
G02*
X99760000Y-28494999I0J-249999D01*
G01*
X99760000Y-29195001D01*
G75*
G02*
X99510001Y-29445000I-249999J0D01*
G01*
X98609999Y-29445000D01*
G75*
G02*
X98360000Y-29195001I0J249999D01*
G01*
X98360000Y-28494999D01*
G75*
G02*
X98609999Y-28245000I249999J0D01*
G01*
G37*
%TD.AperFunction*%
%TD*%
%TO.P,R12,2*%
%TO.N,/P0.0*%
%TA.AperFunction,SMDPad,CuDef*%
G36*
G01*
X73209999Y-30245000D02*
X74110001Y-30245000D01*
G75*
G02*
X74360000Y-30494999I0J-249999D01*
G01*
X74360000Y-31195001D01*
G75*
G02*
X74110001Y-31445000I-249999J0D01*
G01*
X73209999Y-31445000D01*
G75*
G02*
X72960000Y-31195001I0J249999D01*
G01*
X72960000Y-30494999D01*
G75*
G02*
X73209999Y-30245000I249999J0D01*
G01*
G37*
%TD.AperFunction*%
%TO.P,R12,1*%
%TO.N,Net-(D9-Pad2)*%
%TA.AperFunction,SMDPad,CuDef*%
G36*
G01*
X73209999Y-28245000D02*
X74110001Y-28245000D01*
G75*
G02*
X74360000Y-28494999I0J-249999D01*
G01*
X74360000Y-29195001D01*
G75*
G02*
X74110001Y-29445000I-249999J0D01*
G01*
X73209999Y-29445000D01*
G75*
G02*
X72960000Y-29195001I0J249999D01*
G01*
X72960000Y-28494999D01*
G75*
G02*
X73209999Y-28245000I249999J0D01*
G01*
G37*
%TD.AperFunction*%
%TD*%
%TO.P,R11,2*%
%TO.N,/D6*%
%TA.AperFunction,SMDPad,CuDef*%
G36*
G01*
X96069999Y-30245000D02*
X96970001Y-30245000D01*
G75*
G02*
X97220000Y-30494999I0J-249999D01*
G01*
X97220000Y-31195001D01*
G75*
G02*
X96970001Y-31445000I-249999J0D01*
G01*
X96069999Y-31445000D01*
G75*
G02*
X95820000Y-31195001I0J249999D01*
G01*
X95820000Y-30494999D01*
G75*
G02*
X96069999Y-30245000I249999J0D01*
G01*
G37*
%TD.AperFunction*%
%TO.P,R11,1*%
%TO.N,Net-(D8-Pad2)*%
%TA.AperFunction,SMDPad,CuDef*%
G36*
G01*
X96069999Y-28245000D02*
X96970001Y-28245000D01*
G75*
G02*
X97220000Y-28494999I0J-249999D01*
G01*
X97220000Y-29195001D01*
G75*
G02*
X96970001Y-29445000I-249999J0D01*
G01*
X96069999Y-29445000D01*
G75*
G02*
X95820000Y-29195001I0J249999D01*
G01*
X95820000Y-28494999D01*
G75*
G02*
X96069999Y-28245000I249999J0D01*
G01*
G37*
%TD.AperFunction*%
%TD*%
%TO.P,R10,2*%
%TO.N,/OUT2*%
%TA.AperFunction,SMDPad,CuDef*%
G36*
G01*
X78289999Y-30245000D02*
X79190001Y-30245000D01*
G75*
G02*
X79440000Y-30494999I0J-249999D01*
G01*
X79440000Y-31195001D01*
G75*
G02*
X79190001Y-31445000I-249999J0D01*
G01*
X78289999Y-31445000D01*
G75*
G02*
X78040000Y-31195001I0J249999D01*
G01*
X78040000Y-30494999D01*
G75*
G02*
X78289999Y-30245000I249999J0D01*
G01*
G37*
%TD.AperFunction*%
%TO.P,R10,1*%
%TO.N,Net-(D7-Pad2)*%
%TA.AperFunction,SMDPad,CuDef*%
G36*
G01*
X78289999Y-28245000D02*
X79190001Y-28245000D01*
G75*
G02*
X79440000Y-28494999I0J-249999D01*
G01*
X79440000Y-29195001D01*
G75*
G02*
X79190001Y-29445000I-249999J0D01*
G01*
X78289999Y-29445000D01*
G75*
G02*
X78040000Y-29195001I0J249999D01*
G01*
X78040000Y-28494999D01*
G75*
G02*
X78289999Y-28245000I249999J0D01*
G01*
G37*
%TD.AperFunction*%
%TD*%
%TO.P,R9,2*%
%TO.N,/D5*%
%TA.AperFunction,SMDPad,CuDef*%
G36*
G01*
X93529999Y-30245000D02*
X94430001Y-30245000D01*
G75*
G02*
X94680000Y-30494999I0J-249999D01*
G01*
X94680000Y-31195001D01*
G75*
G02*
X94430001Y-31445000I-249999J0D01*
G01*
X93529999Y-31445000D01*
G75*
G02*
X93280000Y-31195001I0J249999D01*
G01*
X93280000Y-30494999D01*
G75*
G02*
X93529999Y-30245000I249999J0D01*
G01*
G37*
%TD.AperFunction*%
%TO.P,R9,1*%
%TO.N,Net-(D6-Pad2)*%
%TA.AperFunction,SMDPad,CuDef*%
G36*
G01*
X93529999Y-28245000D02*
X94430001Y-28245000D01*
G75*
G02*
X94680000Y-28494999I0J-249999D01*
G01*
X94680000Y-29195001D01*
G75*
G02*
X94430001Y-29445000I-249999J0D01*
G01*
X93529999Y-29445000D01*
G75*
G02*
X93280000Y-29195001I0J249999D01*
G01*
X93280000Y-28494999D01*
G75*
G02*
X93529999Y-28245000I249999J0D01*
G01*
G37*
%TD.AperFunction*%
%TD*%
%TO.P,R8,2*%
%TO.N,/D4*%
%TA.AperFunction,SMDPad,CuDef*%
G36*
G01*
X90989999Y-30245000D02*
X91890001Y-30245000D01*
G75*
G02*
X92140000Y-30494999I0J-249999D01*
G01*
X92140000Y-31195001D01*
G75*
G02*
X91890001Y-31445000I-249999J0D01*
G01*
X90989999Y-31445000D01*
G75*
G02*
X90740000Y-31195001I0J249999D01*
G01*
X90740000Y-30494999D01*
G75*
G02*
X90989999Y-30245000I249999J0D01*
G01*
G37*
%TD.AperFunction*%
%TO.P,R8,1*%
%TO.N,Net-(D5-Pad2)*%
%TA.AperFunction,SMDPad,CuDef*%
G36*
G01*
X90989999Y-28245000D02*
X91890001Y-28245000D01*
G75*
G02*
X92140000Y-28494999I0J-249999D01*
G01*
X92140000Y-29195001D01*
G75*
G02*
X91890001Y-29445000I-249999J0D01*
G01*
X90989999Y-29445000D01*
G75*
G02*
X90740000Y-29195001I0J249999D01*
G01*
X90740000Y-28494999D01*
G75*
G02*
X90989999Y-28245000I249999J0D01*
G01*
G37*
%TD.AperFunction*%
%TD*%
%TO.P,R7,2*%
%TO.N,/D3*%
%TA.AperFunction,SMDPad,CuDef*%
G36*
G01*
X88449999Y-30245000D02*
X89350001Y-30245000D01*
G75*
G02*
X89600000Y-30494999I0J-249999D01*
G01*
X89600000Y-31195001D01*
G75*
G02*
X89350001Y-31445000I-249999J0D01*
G01*
X88449999Y-31445000D01*
G75*
G02*
X88200000Y-31195001I0J249999D01*
G01*
X88200000Y-30494999D01*
G75*
G02*
X88449999Y-30245000I249999J0D01*
G01*
G37*
%TD.AperFunction*%
%TO.P,R7,1*%
%TO.N,Net-(D4-Pad2)*%
%TA.AperFunction,SMDPad,CuDef*%
G36*
G01*
X88449999Y-28245000D02*
X89350001Y-28245000D01*
G75*
G02*
X89600000Y-28494999I0J-249999D01*
G01*
X89600000Y-29195001D01*
G75*
G02*
X89350001Y-29445000I-249999J0D01*
G01*
X88449999Y-29445000D01*
G75*
G02*
X88200000Y-29195001I0J249999D01*
G01*
X88200000Y-28494999D01*
G75*
G02*
X88449999Y-28245000I249999J0D01*
G01*
G37*
%TD.AperFunction*%
%TD*%
%TO.P,R6,2*%
%TO.N,/D2*%
%TA.AperFunction,SMDPad,CuDef*%
G36*
G01*
X85909999Y-30245000D02*
X86810001Y-30245000D01*
G75*
G02*
X87060000Y-30494999I0J-249999D01*
G01*
X87060000Y-31195001D01*
G75*
G02*
X86810001Y-31445000I-249999J0D01*
G01*
X85909999Y-31445000D01*
G75*
G02*
X85660000Y-31195001I0J249999D01*
G01*
X85660000Y-30494999D01*
G75*
G02*
X85909999Y-30245000I249999J0D01*
G01*
G37*
%TD.AperFunction*%
%TO.P,R6,1*%
%TO.N,Net-(D3-Pad2)*%
%TA.AperFunction,SMDPad,CuDef*%
G36*
G01*
X85909999Y-28245000D02*
X86810001Y-28245000D01*
G75*
G02*
X87060000Y-28494999I0J-249999D01*
G01*
X87060000Y-29195001D01*
G75*
G02*
X86810001Y-29445000I-249999J0D01*
G01*
X85909999Y-29445000D01*
G75*
G02*
X85660000Y-29195001I0J249999D01*
G01*
X85660000Y-28494999D01*
G75*
G02*
X85909999Y-28245000I249999J0D01*
G01*
G37*
%TD.AperFunction*%
%TD*%
%TO.P,R5,2*%
%TO.N,/D1*%
%TA.AperFunction,SMDPad,CuDef*%
G36*
G01*
X83369999Y-30245000D02*
X84270001Y-30245000D01*
G75*
G02*
X84520000Y-30494999I0J-249999D01*
G01*
X84520000Y-31195001D01*
G75*
G02*
X84270001Y-31445000I-249999J0D01*
G01*
X83369999Y-31445000D01*
G75*
G02*
X83120000Y-31195001I0J249999D01*
G01*
X83120000Y-30494999D01*
G75*
G02*
X83369999Y-30245000I249999J0D01*
G01*
G37*
%TD.AperFunction*%
%TO.P,R5,1*%
%TO.N,Net-(D2-Pad2)*%
%TA.AperFunction,SMDPad,CuDef*%
G36*
G01*
X83369999Y-28245000D02*
X84270001Y-28245000D01*
G75*
G02*
X84520000Y-28494999I0J-249999D01*
G01*
X84520000Y-29195001D01*
G75*
G02*
X84270001Y-29445000I-249999J0D01*
G01*
X83369999Y-29445000D01*
G75*
G02*
X83120000Y-29195001I0J249999D01*
G01*
X83120000Y-28494999D01*
G75*
G02*
X83369999Y-28245000I249999J0D01*
G01*
G37*
%TD.AperFunction*%
%TD*%
%TO.P,R4,2*%
%TO.N,/D0*%
%TA.AperFunction,SMDPad,CuDef*%
G36*
G01*
X80829999Y-30245000D02*
X81730001Y-30245000D01*
G75*
G02*
X81980000Y-30494999I0J-249999D01*
G01*
X81980000Y-31195001D01*
G75*
G02*
X81730001Y-31445000I-249999J0D01*
G01*
X80829999Y-31445000D01*
G75*
G02*
X80580000Y-31195001I0J249999D01*
G01*
X80580000Y-30494999D01*
G75*
G02*
X80829999Y-30245000I249999J0D01*
G01*
G37*
%TD.AperFunction*%
%TO.P,R4,1*%
%TO.N,Net-(D1-Pad2)*%
%TA.AperFunction,SMDPad,CuDef*%
G36*
G01*
X80829999Y-28245000D02*
X81730001Y-28245000D01*
G75*
G02*
X81980000Y-28494999I0J-249999D01*
G01*
X81980000Y-29195001D01*
G75*
G02*
X81730001Y-29445000I-249999J0D01*
G01*
X80829999Y-29445000D01*
G75*
G02*
X80580000Y-29195001I0J249999D01*
G01*
X80580000Y-28494999D01*
G75*
G02*
X80829999Y-28245000I249999J0D01*
G01*
G37*
%TD.AperFunction*%
%TD*%
D28*
%TO.P,D10,2*%
%TO.N,Net-(D10-Pad2)*%
X99060000Y-26035000D03*
D29*
%TO.P,D10,1*%
%TO.N,Net-(D1-Pad1)*%
X99060000Y-23495000D03*
%TD*%
D28*
%TO.P,D9,2*%
%TO.N,Net-(D9-Pad2)*%
X73660000Y-26035000D03*
D29*
%TO.P,D9,1*%
%TO.N,Net-(D1-Pad1)*%
X73660000Y-23495000D03*
%TD*%
D28*
%TO.P,D8,2*%
%TO.N,Net-(D8-Pad2)*%
X96520000Y-26035000D03*
D29*
%TO.P,D8,1*%
%TO.N,Net-(D1-Pad1)*%
X96520000Y-23495000D03*
%TD*%
D28*
%TO.P,D7,2*%
%TO.N,Net-(D7-Pad2)*%
X78740000Y-26035000D03*
D29*
%TO.P,D7,1*%
%TO.N,Net-(D1-Pad1)*%
X78740000Y-23495000D03*
%TD*%
D28*
%TO.P,D6,2*%
%TO.N,Net-(D6-Pad2)*%
X93980000Y-26035000D03*
D29*
%TO.P,D6,1*%
%TO.N,Net-(D1-Pad1)*%
X93980000Y-23495000D03*
%TD*%
D28*
%TO.P,D5,2*%
%TO.N,Net-(D5-Pad2)*%
X91440000Y-26035000D03*
D29*
%TO.P,D5,1*%
%TO.N,Net-(D1-Pad1)*%
X91440000Y-23495000D03*
%TD*%
D28*
%TO.P,D4,2*%
%TO.N,Net-(D4-Pad2)*%
X88900000Y-26035000D03*
D29*
%TO.P,D4,1*%
%TO.N,Net-(D1-Pad1)*%
X88900000Y-23495000D03*
%TD*%
D28*
%TO.P,D3,2*%
%TO.N,Net-(D3-Pad2)*%
X86360000Y-26035000D03*
D29*
%TO.P,D3,1*%
%TO.N,Net-(D1-Pad1)*%
X86360000Y-23495000D03*
%TD*%
D28*
%TO.P,D2,2*%
%TO.N,Net-(D2-Pad2)*%
X83820000Y-26035000D03*
D29*
%TO.P,D2,1*%
%TO.N,Net-(D1-Pad1)*%
X83820000Y-23495000D03*
%TD*%
D28*
%TO.P,D1,2*%
%TO.N,Net-(D1-Pad2)*%
X81280000Y-26035000D03*
D29*
%TO.P,D1,1*%
%TO.N,Net-(D1-Pad1)*%
X81280000Y-23495000D03*
%TD*%
%TO.P,R3,2*%
%TO.N,GND*%
%TA.AperFunction,SMDPad,CuDef*%
G36*
G01*
X132264999Y-75600000D02*
X133165001Y-75600000D01*
G75*
G02*
X133415000Y-75849999I0J-249999D01*
G01*
X133415000Y-76550001D01*
G75*
G02*
X133165001Y-76800000I-249999J0D01*
G01*
X132264999Y-76800000D01*
G75*
G02*
X132015000Y-76550001I0J249999D01*
G01*
X132015000Y-75849999D01*
G75*
G02*
X132264999Y-75600000I249999J0D01*
G01*
G37*
%TD.AperFunction*%
%TO.P,R3,1*%
%TO.N,/OUT1*%
%TA.AperFunction,SMDPad,CuDef*%
G36*
G01*
X132264999Y-73600000D02*
X133165001Y-73600000D01*
G75*
G02*
X133415000Y-73849999I0J-249999D01*
G01*
X133415000Y-74550001D01*
G75*
G02*
X133165001Y-74800000I-249999J0D01*
G01*
X132264999Y-74800000D01*
G75*
G02*
X132015000Y-74550001I0J249999D01*
G01*
X132015000Y-73849999D01*
G75*
G02*
X132264999Y-73600000I249999J0D01*
G01*
G37*
%TD.AperFunction*%
%TD*%
%TO.P,R2,2*%
%TO.N,GND*%
%TA.AperFunction,SMDPad,CuDef*%
G36*
G01*
X130942501Y-76752500D02*
X130042499Y-76752500D01*
G75*
G02*
X129792500Y-76502501I0J249999D01*
G01*
X129792500Y-75802499D01*
G75*
G02*
X130042499Y-75552500I249999J0D01*
G01*
X130942501Y-75552500D01*
G75*
G02*
X131192500Y-75802499I0J-249999D01*
G01*
X131192500Y-76502501D01*
G75*
G02*
X130942501Y-76752500I-249999J0D01*
G01*
G37*
%TD.AperFunction*%
%TO.P,R2,1*%
%TO.N,/OUT0*%
%TA.AperFunction,SMDPad,CuDef*%
G36*
G01*
X130942501Y-78752500D02*
X130042499Y-78752500D01*
G75*
G02*
X129792500Y-78502501I0J249999D01*
G01*
X129792500Y-77802499D01*
G75*
G02*
X130042499Y-77552500I249999J0D01*
G01*
X130942501Y-77552500D01*
G75*
G02*
X131192500Y-77802499I0J-249999D01*
G01*
X131192500Y-78502501D01*
G75*
G02*
X130942501Y-78752500I-249999J0D01*
G01*
G37*
%TD.AperFunction*%
%TD*%
D25*
%TO.P,DS1,16*%
%TO.N,Net-(DS1-Pad16)*%
X104140000Y-36830000D03*
%TO.P,DS1,15*%
%TO.N,Net-(DS1-Pad15)*%
X101600000Y-36830000D03*
%TO.P,DS1,14*%
%TO.N,/D7*%
X99060000Y-36830000D03*
%TO.P,DS1,13*%
%TO.N,/D6*%
X96520000Y-36830000D03*
%TO.P,DS1,12*%
%TO.N,/D5*%
X93980000Y-36830000D03*
%TO.P,DS1,11*%
%TO.N,/D4*%
X91440000Y-36830000D03*
%TO.P,DS1,10*%
%TO.N,/D3*%
X88900000Y-36830000D03*
%TO.P,DS1,9*%
%TO.N,/D2*%
X86360000Y-36830000D03*
%TO.P,DS1,8*%
%TO.N,/D1*%
X83820000Y-36830000D03*
%TO.P,DS1,7*%
%TO.N,/D0*%
X81280000Y-36830000D03*
%TO.P,DS1,6*%
%TO.N,/OUT2*%
X78740000Y-36830000D03*
%TO.P,DS1,5*%
%TO.N,GND*%
X76200000Y-36830000D03*
%TO.P,DS1,4*%
%TO.N,/P0.0*%
X73660000Y-36830000D03*
%TO.P,DS1,3*%
%TO.N,Net-(DS1-Pad3)*%
X71120000Y-36830000D03*
%TO.P,DS1,2*%
%TO.N,VCC*%
X68580000Y-36830000D03*
D26*
%TO.P,DS1,1*%
%TO.N,GND*%
X66040000Y-36830000D03*
%TD*%
D28*
%TO.P,J2,9*%
%TO.N,/P0.7*%
X81280000Y-71755000D03*
%TO.P,J2,8*%
%TO.N,/P0.6*%
X81280000Y-69215000D03*
%TO.P,J2,7*%
%TO.N,/P0.5*%
X81280000Y-66675000D03*
%TO.P,J2,6*%
%TO.N,/P0.4*%
X81280000Y-64135000D03*
%TO.P,J2,5*%
%TO.N,/P0.3*%
X81280000Y-61595000D03*
%TO.P,J2,4*%
%TO.N,/P0.2*%
X81280000Y-59055000D03*
%TO.P,J2,3*%
%TO.N,/P0.1*%
X81280000Y-56515000D03*
%TO.P,J2,2*%
%TO.N,/P0.0*%
X81280000Y-53975000D03*
D29*
%TO.P,J2,1*%
%TO.N,GND*%
X81280000Y-51435000D03*
%TD*%
%TO.P,J3,1*%
%TO.N,GND*%
X103505000Y-51435000D03*
D28*
%TO.P,J3,2*%
%TO.N,/P1.0*%
X103505000Y-53975000D03*
%TO.P,J3,3*%
%TO.N,/P1.1*%
X103505000Y-56515000D03*
%TO.P,J3,4*%
%TO.N,/P1.2*%
X103505000Y-59055000D03*
%TO.P,J3,5*%
%TO.N,/P1.3*%
X103505000Y-61595000D03*
%TO.P,J3,6*%
%TO.N,/P1.4*%
X103505000Y-64135000D03*
%TO.P,J3,7*%
%TO.N,/P1.5*%
X103505000Y-66675000D03*
%TO.P,J3,8*%
%TO.N,/P1.6*%
X103505000Y-69215000D03*
%TO.P,J3,9*%
%TO.N,/P1.7*%
X103505000Y-71755000D03*
%TD*%
D30*
%TO.P,J4,1*%
%TO.N,GND*%
X55880000Y-111760000D03*
D31*
%TO.P,J4,2*%
%TO.N,Net-(J4-Pad2)*%
X60880000Y-111760000D03*
%TD*%
D32*
%TO.P,RV1,2*%
%TO.N,Net-(DS1-Pad3)*%
X69850000Y-24765000D03*
D33*
%TO.P,RV1,1*%
%TO.N,GND*%
X64770000Y-22225000D03*
%TO.P,RV1,3*%
%TO.N,VCC*%
X64770000Y-27305000D03*
%TD*%
D29*
%TO.P,U1,1*%
%TO.N,GND*%
X68580000Y-51435000D03*
D28*
%TO.P,U1,11*%
%TO.N,/OUT0*%
X76200000Y-74295000D03*
%TO.P,U1,2*%
%TO.N,/D0*%
X68580000Y-53975000D03*
%TO.P,U1,12*%
%TO.N,/P0.7*%
X76200000Y-71755000D03*
%TO.P,U1,3*%
%TO.N,/D1*%
X68580000Y-56515000D03*
%TO.P,U1,13*%
%TO.N,/P0.6*%
X76200000Y-69215000D03*
%TO.P,U1,4*%
%TO.N,/D2*%
X68580000Y-59055000D03*
%TO.P,U1,14*%
%TO.N,/P0.5*%
X76200000Y-66675000D03*
%TO.P,U1,5*%
%TO.N,/D3*%
X68580000Y-61595000D03*
%TO.P,U1,15*%
%TO.N,/P0.4*%
X76200000Y-64135000D03*
%TO.P,U1,6*%
%TO.N,/D4*%
X68580000Y-64135000D03*
%TO.P,U1,16*%
%TO.N,/P0.3*%
X76200000Y-61595000D03*
%TO.P,U1,7*%
%TO.N,/D5*%
X68580000Y-66675000D03*
%TO.P,U1,17*%
%TO.N,/P0.2*%
X76200000Y-59055000D03*
%TO.P,U1,8*%
%TO.N,/D6*%
X68580000Y-69215000D03*
%TO.P,U1,18*%
%TO.N,/P0.1*%
X76200000Y-56515000D03*
%TO.P,U1,9*%
%TO.N,/D7*%
X68580000Y-71755000D03*
%TO.P,U1,19*%
%TO.N,/P0.0*%
X76200000Y-53975000D03*
%TO.P,U1,10*%
%TO.N,GND*%
X68580000Y-74295000D03*
%TO.P,U1,20*%
%TO.N,VCC*%
X76200000Y-51435000D03*
%TD*%
%TO.P,U2,20*%
%TO.N,VCC*%
X99060000Y-51435000D03*
%TO.P,U2,10*%
%TO.N,GND*%
X91440000Y-74295000D03*
%TO.P,U2,19*%
%TO.N,/P1.0*%
X99060000Y-53975000D03*
%TO.P,U2,9*%
%TO.N,/D7*%
X91440000Y-71755000D03*
%TO.P,U2,18*%
%TO.N,/P1.1*%
X99060000Y-56515000D03*
%TO.P,U2,8*%
%TO.N,/D6*%
X91440000Y-69215000D03*
%TO.P,U2,17*%
%TO.N,/P1.2*%
X99060000Y-59055000D03*
%TO.P,U2,7*%
%TO.N,/D5*%
X91440000Y-66675000D03*
%TO.P,U2,16*%
%TO.N,/P1.3*%
X99060000Y-61595000D03*
%TO.P,U2,6*%
%TO.N,/D4*%
X91440000Y-64135000D03*
%TO.P,U2,15*%
%TO.N,/P1.4*%
X99060000Y-64135000D03*
%TO.P,U2,5*%
%TO.N,/D3*%
X91440000Y-61595000D03*
%TO.P,U2,14*%
%TO.N,/P1.5*%
X99060000Y-66675000D03*
%TO.P,U2,4*%
%TO.N,/D2*%
X91440000Y-59055000D03*
%TO.P,U2,13*%
%TO.N,/P1.6*%
X99060000Y-69215000D03*
%TO.P,U2,3*%
%TO.N,/D1*%
X91440000Y-56515000D03*
%TO.P,U2,12*%
%TO.N,/P1.7*%
X99060000Y-71755000D03*
%TO.P,U2,2*%
%TO.N,/D0*%
X91440000Y-53975000D03*
%TO.P,U2,11*%
%TO.N,/OUT1*%
X99060000Y-74295000D03*
D29*
%TO.P,U2,1*%
%TO.N,GND*%
X91440000Y-51435000D03*
%TD*%
D34*
%TO.P,J8,1*%
%TO.N,/IN0.7*%
X61912500Y-101600000D03*
D35*
%TO.P,J8,2*%
%TO.N,/IN0.6*%
X61912500Y-99060000D03*
D36*
%TO.P,J8,3*%
%TO.N,/IN0.5*%
X61912500Y-96520000D03*
D35*
%TO.P,J8,4*%
%TO.N,/IN0.4*%
X61912500Y-93980000D03*
%TO.P,J8,5*%
%TO.N,/IN0.3*%
X61912500Y-91440000D03*
D36*
%TO.P,J8,6*%
%TO.N,/IN0.2*%
X61912500Y-88900000D03*
%TO.P,J8,7*%
%TO.N,/IN0.1*%
X61912500Y-86360000D03*
%TO.P,J8,8*%
%TO.N,/IN0.0*%
X61912500Y-83820000D03*
%TD*%
D37*
%TO.N,VCC*%
X78581250Y-48418750D03*
X78105000Y-81915000D03*
%TO.N,GND*%
X111760000Y-29845000D03*
X111680000Y-23575000D03*
%TO.N,/P0.7*%
X85725000Y-71755000D03*
X109855000Y-72390000D03*
%TO.N,/P0.0*%
X86360000Y-52070000D03*
X86360000Y-46355000D03*
%TD*%
D38*
%TO.N,VCC*%
X71120000Y-81915000D02*
X78105000Y-81915000D01*
X80010000Y-81915000D02*
X88900000Y-81915000D01*
X88900000Y-81915000D02*
X97790000Y-81915000D01*
X97790000Y-81915000D02*
X106680000Y-81915000D01*
X115570000Y-81915000D02*
X124460000Y-81915000D01*
X64770000Y-27305000D02*
X68580000Y-31115000D01*
X68580000Y-31115000D02*
X68580000Y-36830000D01*
X54927500Y-104140000D02*
X51335000Y-104140000D01*
X95250000Y-51435000D02*
X99060000Y-51435000D01*
X76200000Y-51435000D02*
X72390000Y-51435000D01*
X68580000Y-47625000D02*
X72390000Y-51435000D01*
X68580000Y-36830000D02*
X68580000Y-47625000D01*
X133350000Y-81915000D02*
X124460000Y-81915000D01*
X106680000Y-81915000D02*
X115570000Y-81915000D01*
X91122500Y-47307500D02*
X88900000Y-47307500D01*
X95250000Y-51435000D02*
X91122500Y-47307500D01*
X76200000Y-49212500D02*
X76200000Y-51435000D01*
X87788750Y-48418750D02*
X88900000Y-47307500D01*
X76993750Y-48418750D02*
X78581250Y-48418750D01*
X76993750Y-48418750D02*
X76200000Y-49212500D01*
X78581250Y-48418750D02*
X87788750Y-48418750D01*
X78105000Y-81915000D02*
X80010000Y-81915000D01*
D39*
X58384645Y-106571142D02*
X57858503Y-106045000D01*
X57858503Y-106045000D02*
X55880000Y-106045000D01*
X54927500Y-105092500D02*
X54927500Y-104140000D01*
X55880000Y-106045000D02*
X54927500Y-105092500D01*
D38*
X134620000Y-81915000D02*
X133350000Y-81915000D01*
X136525000Y-83820000D02*
X134620000Y-81915000D01*
X140335000Y-85725000D02*
X138430000Y-83820000D01*
X138430000Y-83820000D02*
X136525000Y-83820000D01*
X124142500Y-115887500D02*
X133350000Y-106680000D01*
X66040000Y-115887500D02*
X124142500Y-115887500D01*
X138430000Y-106680000D02*
X140335000Y-104775000D01*
X140335000Y-104775000D02*
X140335000Y-85725000D01*
X133350000Y-106680000D02*
X138430000Y-106680000D01*
X64770000Y-110490000D02*
X60851142Y-106571142D01*
X64770000Y-114617500D02*
X64770000Y-110490000D01*
X66040000Y-115887500D02*
X64770000Y-114617500D01*
D39*
X58384645Y-106571142D02*
X58910787Y-106045000D01*
X58910787Y-106045000D02*
X60325000Y-106045000D01*
D38*
X60325000Y-106045000D02*
X60851142Y-106571142D01*
%TO.N,GND*%
X68580000Y-76200000D02*
X68580000Y-74295000D01*
D39*
X81280000Y-51435000D02*
X80010000Y-51435000D01*
X80010000Y-51435000D02*
X78740000Y-52705000D01*
X78740000Y-52705000D02*
X77470000Y-52705000D01*
D40*
X77470000Y-52705000D02*
X74930000Y-52705000D01*
D38*
X64770000Y-20320000D02*
X64770000Y-22225000D01*
X64770000Y-22225000D02*
X62230000Y-22225000D01*
X62230000Y-22225000D02*
X62230000Y-29210000D01*
X109855000Y-20320000D02*
X109855000Y-23495000D01*
X109855000Y-23495000D02*
X104775000Y-23495000D01*
X45720000Y-106045000D02*
X48260000Y-106045000D01*
D40*
X100330000Y-52705000D02*
X101600000Y-51435000D01*
X91440000Y-51435000D02*
X92710000Y-51435000D01*
D39*
X103505000Y-51435000D02*
X101600000Y-51435000D01*
X95885000Y-53340000D02*
X94615000Y-53340000D01*
X94615000Y-53340000D02*
X93345000Y-52070000D01*
X93345000Y-52070000D02*
X92710000Y-51435000D01*
D38*
X95250000Y-74295000D02*
X91440000Y-74295000D01*
X72390000Y-74295000D02*
X68580000Y-74295000D01*
D39*
X73660000Y-53340000D02*
X74295000Y-52705000D01*
X74295000Y-52705000D02*
X74930000Y-52705000D01*
X71755000Y-53340000D02*
X73660000Y-53340000D01*
X69850000Y-51435000D02*
X71755000Y-53340000D01*
X68580000Y-51435000D02*
X69850000Y-51435000D01*
X95885000Y-53340000D02*
X96520000Y-53340000D01*
D40*
X97155000Y-52705000D02*
X100330000Y-52705000D01*
D39*
X96520000Y-53340000D02*
X97155000Y-52705000D01*
D38*
X59055000Y-81280000D02*
X54927500Y-81280000D01*
X54927500Y-81280000D02*
X52387500Y-78740000D01*
D40*
X109535000Y-29895000D02*
X109585000Y-29845000D01*
X109535000Y-32020000D02*
X109535000Y-29895000D01*
D39*
X89535000Y-51435000D02*
X91440000Y-51435000D01*
X88265000Y-50165000D02*
X89535000Y-51435000D01*
X84455000Y-50165000D02*
X88265000Y-50165000D01*
X83185000Y-51435000D02*
X84455000Y-50165000D01*
X81280000Y-51435000D02*
X83185000Y-51435000D01*
D38*
X66040000Y-33020000D02*
X62230000Y-29210000D01*
X66040000Y-36830000D02*
X66040000Y-33020000D01*
D40*
X71755000Y-20320000D02*
X71755000Y-24765000D01*
D38*
X109855000Y-20320000D02*
X71755000Y-20320000D01*
X71755000Y-20320000D02*
X64770000Y-20320000D01*
D40*
X71755000Y-24765000D02*
X75565000Y-24765000D01*
X75565000Y-24765000D02*
X76200000Y-25400000D01*
X76200000Y-25400000D02*
X76200000Y-36830000D01*
D38*
X109935000Y-23575000D02*
X109855000Y-23495000D01*
X121602500Y-23575000D02*
X111680000Y-23575000D01*
X66040000Y-36830000D02*
X66040000Y-51435000D01*
X66040000Y-51435000D02*
X68580000Y-51435000D01*
X43815000Y-81280000D02*
X45720000Y-81280000D01*
D41*
X43815000Y-55880000D02*
X43815000Y-81280000D01*
D38*
X45720000Y-55880000D02*
X43815000Y-55880000D01*
X45720000Y-81280000D02*
X47625000Y-81280000D01*
X47625000Y-81280000D02*
X50165000Y-78740000D01*
X52387500Y-78740000D02*
X50165000Y-78740000D01*
X66040000Y-51435000D02*
X53975000Y-51435000D01*
X49530000Y-55880000D02*
X45720000Y-55880000D01*
X53975000Y-51435000D02*
X49530000Y-55880000D01*
X64135000Y-76200000D02*
X68580000Y-76200000D01*
X59055000Y-81280000D02*
X64135000Y-76200000D01*
D41*
X43815000Y-81280000D02*
X43815000Y-104775000D01*
D38*
X130890000Y-23575000D02*
X141097000Y-33782000D01*
X121602500Y-23575000D02*
X130890000Y-23575000D01*
X138430000Y-78740000D02*
X141097000Y-78740000D01*
X141097000Y-33782000D02*
X141097000Y-78740000D01*
D40*
X132667500Y-76152500D02*
X132715000Y-76200000D01*
X130492500Y-76152500D02*
X132667500Y-76152500D01*
X132715000Y-76200000D02*
X133985000Y-76200000D01*
X133985000Y-76200000D02*
X136525000Y-78740000D01*
X136525000Y-78740000D02*
X138430000Y-78740000D01*
D39*
X80645000Y-78740000D02*
X85090000Y-78740000D01*
X78105000Y-76200000D02*
X80645000Y-78740000D01*
X68580000Y-76200000D02*
X78105000Y-76200000D01*
X87312500Y-76517500D02*
X91122500Y-76517500D01*
X85090000Y-78740000D02*
X87312500Y-76517500D01*
X91440000Y-76200000D02*
X91440000Y-74295000D01*
X91122500Y-76517500D02*
X91440000Y-76200000D01*
X109585000Y-29845000D02*
X111760000Y-29845000D01*
X111760000Y-29845000D02*
X111760000Y-29845000D01*
D38*
X111680000Y-23575000D02*
X109935000Y-23575000D01*
D40*
X57041142Y-107914645D02*
X55880000Y-109075787D01*
D39*
X48260000Y-106045000D02*
X50165000Y-106045000D01*
X50165000Y-106045000D02*
X53340000Y-109220000D01*
D38*
X55880000Y-109220000D02*
X55880000Y-111760000D01*
D39*
X53340000Y-109220000D02*
X55880000Y-109220000D01*
D38*
X45720000Y-106045000D02*
X44767500Y-106045000D01*
D41*
X44767500Y-106045000D02*
X43815000Y-104775000D01*
D39*
%TO.N,/P0.7*%
X81280000Y-71755000D02*
X76200000Y-71755000D01*
D40*
X81280000Y-71755000D02*
X85725000Y-71755000D01*
X109855000Y-72390000D02*
X109855000Y-72390000D01*
X107635000Y-28255000D02*
X107635000Y-32020000D01*
X112715000Y-26985000D02*
X108270000Y-26985000D01*
X107635000Y-27620000D02*
X107635000Y-28255000D01*
X108270000Y-26985000D02*
X107635000Y-27620000D01*
X113030000Y-27300000D02*
X112715000Y-26985000D01*
X113030000Y-27305000D02*
X113030000Y-27300000D01*
X113665000Y-42545000D02*
X113665000Y-27940000D01*
X116205000Y-45085000D02*
X113665000Y-42545000D01*
X113665000Y-27940000D02*
X113030000Y-27305000D01*
X116205000Y-66040000D02*
X116205000Y-45085000D01*
X109855000Y-72390000D02*
X116205000Y-66040000D01*
D39*
%TO.N,/P0.6*%
X81280000Y-69215000D02*
X76200000Y-69215000D01*
D40*
X81915000Y-69215000D02*
X86995000Y-69215000D01*
X81280000Y-69215000D02*
X81915000Y-69215000D01*
D39*
%TO.N,/P0.5*%
X81280000Y-66675000D02*
X76200000Y-66675000D01*
D40*
X81280000Y-66675000D02*
X84455000Y-66675000D01*
D39*
%TO.N,/P0.4*%
X81280000Y-64135000D02*
X76200000Y-64135000D01*
%TO.N,/P0.3*%
X81280000Y-61595000D02*
X76200000Y-61595000D01*
%TO.N,/P0.2*%
X81280000Y-59055000D02*
X76200000Y-59055000D01*
%TO.N,/P0.1*%
X81280000Y-56515000D02*
X76200000Y-56515000D01*
%TO.N,/P0.0*%
X81280000Y-53975000D02*
X76200000Y-53975000D01*
D40*
X73660000Y-30845000D02*
X73660000Y-36830000D01*
X73660000Y-36830000D02*
X73660000Y-43180000D01*
X73660000Y-43180000D02*
X76835000Y-46355000D01*
X76835000Y-46355000D02*
X86360000Y-46355000D01*
X86360000Y-46355000D02*
X86360000Y-46355000D01*
X85090000Y-52070000D02*
X83185000Y-53975000D01*
X86360000Y-52070000D02*
X85090000Y-52070000D01*
X81280000Y-53975000D02*
X83185000Y-53975000D01*
D39*
%TO.N,/P1.0*%
X103505000Y-53975000D02*
X99060000Y-53975000D01*
%TO.N,/P1.1*%
X103505000Y-56515000D02*
X99060000Y-56515000D01*
D40*
%TO.N,Net-(DS1-Pad3)*%
X69850000Y-24765000D02*
X69850000Y-27940000D01*
X71120000Y-29210000D02*
X71120000Y-36830000D01*
X69850000Y-27940000D02*
X71120000Y-29210000D01*
%TO.N,/D0*%
X81280000Y-30845000D02*
X81280000Y-36830000D01*
X68580000Y-53975000D02*
X53975000Y-53975000D01*
X49530000Y-58420000D02*
X45720000Y-58420000D01*
X53975000Y-53975000D02*
X49530000Y-58420000D01*
X86995000Y-43815000D02*
X81280000Y-38100000D01*
X90170000Y-43815000D02*
X86995000Y-43815000D01*
X81280000Y-38100000D02*
X81280000Y-36830000D01*
X95250000Y-48895000D02*
X90170000Y-43815000D01*
X106045000Y-50165000D02*
X104775000Y-48895000D01*
X104775000Y-48895000D02*
X95250000Y-48895000D01*
X106045000Y-54610000D02*
X106045000Y-50165000D01*
X105410000Y-55245000D02*
X106045000Y-54610000D01*
X94615000Y-55245000D02*
X105410000Y-55245000D01*
X93345000Y-53975000D02*
X94615000Y-55245000D01*
X91440000Y-53975000D02*
X93345000Y-53975000D01*
X70485000Y-53975000D02*
X68580000Y-53975000D01*
X71755000Y-55245000D02*
X70485000Y-53975000D01*
X84455000Y-55245000D02*
X71755000Y-55245000D01*
X85725000Y-53975000D02*
X84455000Y-55245000D01*
X91440000Y-53975000D02*
X85725000Y-53975000D01*
%TO.N,/D1*%
X83820000Y-30845000D02*
X83820000Y-36830000D01*
X68580000Y-56515000D02*
X53975000Y-56515000D01*
X49530000Y-60960000D02*
X45720000Y-60960000D01*
X53975000Y-56515000D02*
X49530000Y-60960000D01*
X94615000Y-56515000D02*
X91440000Y-56515000D01*
X95885000Y-57785000D02*
X94615000Y-56515000D01*
X105410000Y-57785000D02*
X95885000Y-57785000D01*
X107315000Y-55880000D02*
X105410000Y-57785000D01*
X107315000Y-49530000D02*
X107315000Y-55880000D01*
X105727500Y-47942500D02*
X107315000Y-49530000D01*
X96202500Y-47942500D02*
X105727500Y-47942500D01*
X90805000Y-42545000D02*
X96202500Y-47942500D01*
X88265000Y-42545000D02*
X90805000Y-42545000D01*
X83820000Y-38100000D02*
X88265000Y-42545000D01*
X83820000Y-36830000D02*
X83820000Y-38100000D01*
X71755000Y-56515000D02*
X68580000Y-56515000D01*
X73025000Y-57785000D02*
X71755000Y-56515000D01*
X84455000Y-57785000D02*
X73025000Y-57785000D01*
X85725000Y-56515000D02*
X84455000Y-57785000D01*
X91440000Y-56515000D02*
X85725000Y-56515000D01*
%TO.N,/D2*%
X86360000Y-30845000D02*
X86360000Y-36830000D01*
X68580000Y-59055000D02*
X53975000Y-59055000D01*
X49530000Y-63500000D02*
X45720000Y-63500000D01*
X53975000Y-59055000D02*
X49530000Y-63500000D01*
X108585000Y-57150000D02*
X105410000Y-60325000D01*
X94615000Y-59055000D02*
X91440000Y-59055000D01*
X108585000Y-48895000D02*
X108585000Y-57150000D01*
X95885000Y-60325000D02*
X94615000Y-59055000D01*
X106680000Y-46990000D02*
X108585000Y-48895000D01*
X97155000Y-46990000D02*
X106680000Y-46990000D01*
X91440000Y-41275000D02*
X97155000Y-46990000D01*
X105410000Y-60325000D02*
X95885000Y-60325000D01*
X89535000Y-41275000D02*
X91440000Y-41275000D01*
X86360000Y-38100000D02*
X89535000Y-41275000D01*
X86360000Y-36830000D02*
X86360000Y-38100000D01*
X71755000Y-59055000D02*
X68580000Y-59055000D01*
X73025000Y-60325000D02*
X71755000Y-59055000D01*
X84455000Y-60325000D02*
X73025000Y-60325000D01*
X85725000Y-59055000D02*
X84455000Y-60325000D01*
X91440000Y-59055000D02*
X85725000Y-59055000D01*
%TO.N,/D3*%
X88900000Y-30845000D02*
X88900000Y-36830000D01*
X68580000Y-61595000D02*
X53975000Y-61595000D01*
X49530000Y-66040000D02*
X45720000Y-66040000D01*
X53975000Y-61595000D02*
X49530000Y-66040000D01*
X94615000Y-61595000D02*
X91440000Y-61595000D01*
X109855000Y-48260000D02*
X109855000Y-58420000D01*
X105410000Y-62865000D02*
X95885000Y-62865000D01*
X107632500Y-46037500D02*
X109855000Y-48260000D01*
X109855000Y-58420000D02*
X105410000Y-62865000D01*
X98107500Y-46037500D02*
X107632500Y-46037500D01*
X92075000Y-40005000D02*
X98107500Y-46037500D01*
X90805000Y-40005000D02*
X92075000Y-40005000D01*
X88900000Y-38100000D02*
X90805000Y-40005000D01*
X95885000Y-62865000D02*
X94615000Y-61595000D01*
X88900000Y-36830000D02*
X88900000Y-38100000D01*
X71755000Y-61595000D02*
X68580000Y-61595000D01*
X73025000Y-62865000D02*
X71755000Y-61595000D01*
X84455000Y-62865000D02*
X73025000Y-62865000D01*
X85725000Y-61595000D02*
X84455000Y-62865000D01*
X91440000Y-61595000D02*
X85725000Y-61595000D01*
%TO.N,/D4*%
X91440000Y-30845000D02*
X91440000Y-36830000D01*
X55245000Y-62865000D02*
X65405000Y-62865000D01*
X65405000Y-62865000D02*
X66675000Y-64135000D01*
X49530000Y-68580000D02*
X55245000Y-62865000D01*
X66675000Y-64135000D02*
X68580000Y-64135000D01*
X45720000Y-68580000D02*
X49530000Y-68580000D01*
X94615000Y-64135000D02*
X91440000Y-64135000D01*
X105410000Y-65405000D02*
X95885000Y-65405000D01*
X111125000Y-59690000D02*
X105410000Y-65405000D01*
X111125000Y-47625000D02*
X111125000Y-59690000D01*
X108585000Y-45085000D02*
X111125000Y-47625000D01*
X99060000Y-45085000D02*
X108585000Y-45085000D01*
X92710000Y-38735000D02*
X99060000Y-45085000D01*
X92075000Y-38735000D02*
X92710000Y-38735000D01*
X91440000Y-38100000D02*
X92075000Y-38735000D01*
X95885000Y-65405000D02*
X94615000Y-64135000D01*
X91440000Y-36830000D02*
X91440000Y-38100000D01*
X71755000Y-64135000D02*
X68580000Y-64135000D01*
X73025000Y-65405000D02*
X71755000Y-64135000D01*
X91440000Y-64135000D02*
X85725000Y-64135000D01*
X83185000Y-64770000D02*
X82550000Y-65405000D01*
X85090000Y-64770000D02*
X83185000Y-64770000D01*
X82550000Y-65405000D02*
X73025000Y-65405000D01*
X85725000Y-64135000D02*
X85090000Y-64770000D01*
%TO.N,/D5*%
X93980000Y-30845000D02*
X93980000Y-36830000D01*
X64770000Y-64135000D02*
X67310000Y-66675000D01*
X56515000Y-64135000D02*
X64770000Y-64135000D01*
X49530000Y-71120000D02*
X56515000Y-64135000D01*
X67310000Y-66675000D02*
X68580000Y-66675000D01*
X45720000Y-71120000D02*
X49530000Y-71120000D01*
X94615000Y-66675000D02*
X91440000Y-66675000D01*
X95885000Y-67945000D02*
X94615000Y-66675000D01*
X112395000Y-60960000D02*
X105410000Y-67945000D01*
X112395000Y-46990000D02*
X112395000Y-60960000D01*
X105410000Y-67945000D02*
X95885000Y-67945000D01*
X109537500Y-44132500D02*
X112395000Y-46990000D01*
X100012500Y-44132500D02*
X109537500Y-44132500D01*
X93980000Y-38100000D02*
X100012500Y-44132500D01*
X93980000Y-36830000D02*
X93980000Y-38100000D01*
X71755000Y-66675000D02*
X68580000Y-66675000D01*
X73025000Y-67945000D02*
X71755000Y-66675000D01*
X85725000Y-67945000D02*
X73025000Y-67945000D01*
X86995000Y-66675000D02*
X85725000Y-67945000D01*
X91440000Y-66675000D02*
X86995000Y-66675000D01*
%TO.N,/D6*%
X89535000Y-69215000D02*
X91440000Y-69215000D01*
X88265000Y-70485000D02*
X89535000Y-69215000D01*
X73025000Y-70485000D02*
X88265000Y-70485000D01*
X71755000Y-69215000D02*
X73025000Y-70485000D01*
X68580000Y-69215000D02*
X71755000Y-69215000D01*
X96520000Y-30845000D02*
X96520000Y-36830000D01*
X60960000Y-73660000D02*
X45720000Y-73660000D01*
X65405000Y-69215000D02*
X60960000Y-73660000D01*
X68580000Y-69215000D02*
X65405000Y-69215000D01*
X94615000Y-69215000D02*
X91440000Y-69215000D01*
X105410000Y-70485000D02*
X95885000Y-70485000D01*
X113665000Y-62230000D02*
X105410000Y-70485000D01*
X110490000Y-43180000D02*
X113665000Y-46355000D01*
X95885000Y-70485000D02*
X94615000Y-69215000D01*
X100965000Y-43180000D02*
X110490000Y-43180000D01*
X113665000Y-46355000D02*
X113665000Y-62230000D01*
X96520000Y-38735000D02*
X100965000Y-43180000D01*
X96520000Y-36830000D02*
X96520000Y-38735000D01*
%TO.N,/D7*%
X99060000Y-30845000D02*
X99060000Y-36830000D01*
X60325000Y-76200000D02*
X45720000Y-76200000D01*
X64770000Y-71755000D02*
X60325000Y-76200000D01*
X68580000Y-71755000D02*
X64770000Y-71755000D01*
X96520000Y-71755000D02*
X91440000Y-71755000D01*
X97790000Y-73025000D02*
X96520000Y-71755000D01*
X105410000Y-73025000D02*
X97790000Y-73025000D01*
X114935000Y-63500000D02*
X105410000Y-73025000D01*
X111442500Y-42227500D02*
X114935000Y-45720000D01*
X114935000Y-45720000D02*
X114935000Y-63500000D01*
X101917500Y-42227500D02*
X111442500Y-42227500D01*
X99060000Y-39370000D02*
X101917500Y-42227500D01*
X99060000Y-36830000D02*
X99060000Y-39370000D01*
X89535000Y-71755000D02*
X91440000Y-71755000D01*
X88265000Y-73025000D02*
X89535000Y-71755000D01*
X73660000Y-71755000D02*
X74930000Y-73025000D01*
X74930000Y-73025000D02*
X88265000Y-73025000D01*
X68580000Y-71755000D02*
X73660000Y-71755000D01*
D39*
%TO.N,/P1.2*%
X103505000Y-59055000D02*
X99060000Y-59055000D01*
%TO.N,/P1.3*%
X103505000Y-61595000D02*
X99060000Y-61595000D01*
%TO.N,/P1.4*%
X103505000Y-64135000D02*
X99060000Y-64135000D01*
%TO.N,/P1.5*%
X103505000Y-66675000D02*
X99060000Y-66675000D01*
%TO.N,/P1.6*%
X103505000Y-69215000D02*
X99060000Y-69215000D01*
%TO.N,/P1.7*%
X103505000Y-71755000D02*
X99060000Y-71755000D01*
D40*
%TO.N,Net-(D1-Pad2)*%
X81280000Y-26035000D02*
X81280000Y-28845000D01*
%TO.N,Net-(D2-Pad2)*%
X83820000Y-26035000D02*
X83820000Y-28845000D01*
%TO.N,Net-(D3-Pad2)*%
X86360000Y-26035000D02*
X86360000Y-28845000D01*
%TO.N,Net-(D4-Pad2)*%
X88900000Y-26035000D02*
X88900000Y-28845000D01*
%TO.N,Net-(D5-Pad2)*%
X91440000Y-26035000D02*
X91440000Y-28845000D01*
%TO.N,Net-(D6-Pad2)*%
X93980000Y-26035000D02*
X93980000Y-28845000D01*
%TO.N,Net-(D7-Pad2)*%
X78740000Y-26035000D02*
X78740000Y-28845000D01*
%TO.N,Net-(D8-Pad2)*%
X96520000Y-26035000D02*
X96520000Y-28845000D01*
%TO.N,Net-(D9-Pad2)*%
X73660000Y-26035000D02*
X73660000Y-28845000D01*
%TO.N,Net-(D10-Pad2)*%
X99060000Y-26035000D02*
X99060000Y-28845000D01*
%TO.N,Net-(DS1-Pad15)*%
X101600000Y-39189273D02*
X102098227Y-39687500D01*
X101600000Y-36830000D02*
X101600000Y-39189273D01*
D39*
%TO.N,/IN0.0*%
X71120000Y-93345000D02*
X71120000Y-97005000D01*
X71120000Y-83915000D02*
X71120000Y-86845000D01*
D40*
X59055000Y-83820000D02*
X62230000Y-83820000D01*
X69700000Y-86845000D02*
X71120000Y-86845000D01*
X66675000Y-83820000D02*
X69700000Y-86845000D01*
X61595000Y-83820000D02*
X66675000Y-83820000D01*
%TO.N,Net-(D11-Pad2)*%
X137795000Y-97060000D02*
X137850000Y-97005000D01*
X75620000Y-101450000D02*
X75620000Y-103450000D01*
X128905000Y-97060000D02*
X128960000Y-97005000D01*
X128960000Y-103505000D02*
X128960000Y-101505000D01*
X120070000Y-103505000D02*
X120070000Y-101505000D01*
X120015000Y-97060000D02*
X120070000Y-97005000D01*
X111125000Y-97060000D02*
X111180000Y-97005000D01*
X111180000Y-103505000D02*
X111180000Y-101505000D01*
X102235000Y-97060000D02*
X102290000Y-97005000D01*
X102290000Y-103600000D02*
X102290000Y-101600000D01*
X93345000Y-97060000D02*
X93400000Y-97005000D01*
X93400000Y-103505000D02*
X93400000Y-101505000D01*
X84455000Y-97060000D02*
X84510000Y-97005000D01*
X84510000Y-103505000D02*
X84510000Y-101505000D01*
X84455000Y-101450000D02*
X84510000Y-101505000D01*
X75620000Y-101450000D02*
X84455000Y-101450000D01*
X93345000Y-101450000D02*
X93400000Y-101505000D01*
X84455000Y-101450000D02*
X93345000Y-101450000D01*
X102140000Y-101450000D02*
X102290000Y-101600000D01*
X93345000Y-101450000D02*
X102140000Y-101450000D01*
X111125000Y-101450000D02*
X111180000Y-101505000D01*
X102140000Y-101450000D02*
X111125000Y-101450000D01*
X120015000Y-101450000D02*
X120070000Y-101505000D01*
X111125000Y-101450000D02*
X120015000Y-101450000D01*
X128905000Y-101450000D02*
X128960000Y-101505000D01*
X120015000Y-101450000D02*
X128905000Y-101450000D01*
X128905000Y-101450000D02*
X137645000Y-101450000D01*
X137850000Y-101655000D02*
X137850000Y-103505000D01*
X137645000Y-101450000D02*
X137850000Y-101655000D01*
%TO.N,Net-(D12-Pad2)*%
X75620000Y-86845000D02*
X75620000Y-88845000D01*
X75620000Y-88845000D02*
X75675000Y-88900000D01*
X75675000Y-88900000D02*
X84455000Y-88900000D01*
X84455000Y-86900000D02*
X84510000Y-86845000D01*
X84455000Y-88900000D02*
X84455000Y-86900000D01*
X93345000Y-86900000D02*
X93400000Y-86845000D01*
X93345000Y-88900000D02*
X93345000Y-86900000D01*
X84455000Y-88900000D02*
X93345000Y-88900000D01*
X93345000Y-88900000D02*
X102235000Y-88900000D01*
X102235000Y-86900000D02*
X102290000Y-86845000D01*
X102235000Y-88900000D02*
X102235000Y-86900000D01*
X102235000Y-88900000D02*
X111125000Y-88900000D01*
X111125000Y-86900000D02*
X111180000Y-86845000D01*
X111125000Y-88900000D02*
X111125000Y-86900000D01*
X111125000Y-88900000D02*
X120015000Y-88900000D01*
X120015000Y-86900000D02*
X120070000Y-86845000D01*
X120015000Y-88900000D02*
X120015000Y-86900000D01*
X120015000Y-88900000D02*
X128905000Y-88900000D01*
X128905000Y-86900000D02*
X128960000Y-86845000D01*
X128905000Y-88900000D02*
X128905000Y-86900000D01*
X128905000Y-88900000D02*
X137795000Y-88900000D01*
X137850000Y-88845000D02*
X137850000Y-86845000D01*
X137795000Y-88900000D02*
X137850000Y-88845000D01*
D39*
%TO.N,/IN0.1*%
X80010000Y-93345000D02*
X80010000Y-97005000D01*
X80010000Y-83915000D02*
X80010000Y-86845000D01*
D40*
X59055000Y-86360000D02*
X61595000Y-86360000D01*
X61595000Y-86360000D02*
X60960000Y-86360000D01*
X80010000Y-90805000D02*
X80010000Y-93345000D01*
X79375000Y-90170000D02*
X80010000Y-90805000D01*
X69850000Y-90170000D02*
X79375000Y-90170000D01*
X66040000Y-86360000D02*
X69850000Y-90170000D01*
X61912500Y-86360000D02*
X66040000Y-86360000D01*
D39*
%TO.N,/IN0.2*%
X88900000Y-93345000D02*
X88900000Y-97005000D01*
X88900000Y-83915000D02*
X88900000Y-86845000D01*
D40*
X59055000Y-88900000D02*
X62230000Y-88900000D01*
X69850000Y-99060000D02*
X88265000Y-99060000D01*
X88265000Y-99060000D02*
X88900000Y-98425000D01*
X88900000Y-98425000D02*
X88900000Y-97005000D01*
X65405000Y-88900000D02*
X69215000Y-92710000D01*
X61595000Y-88900000D02*
X65405000Y-88900000D01*
X69850000Y-99060000D02*
X69215000Y-98425000D01*
X69215000Y-92710000D02*
X69215000Y-98425000D01*
D39*
%TO.N,/IN0.3*%
X97790000Y-93345000D02*
X97790000Y-97005000D01*
X97790000Y-83915000D02*
X97790000Y-86845000D01*
D40*
X59055000Y-91440000D02*
X62230000Y-91440000D01*
X97790000Y-99695000D02*
X97790000Y-97005000D01*
X97155000Y-100330000D02*
X97790000Y-99695000D01*
X69215000Y-100330000D02*
X97155000Y-100330000D01*
X67945000Y-94615000D02*
X67945000Y-99060000D01*
X67945000Y-99060000D02*
X69215000Y-100330000D01*
X64770000Y-91440000D02*
X67945000Y-94615000D01*
X61595000Y-91440000D02*
X64770000Y-91440000D01*
D39*
%TO.N,/IN0.4*%
X106680000Y-93345000D02*
X106680000Y-97005000D01*
X106680000Y-83915000D02*
X106680000Y-86845000D01*
D40*
X106680000Y-105410000D02*
X106680000Y-103505000D01*
X106045000Y-106045000D02*
X106680000Y-105410000D01*
X74930000Y-106045000D02*
X106045000Y-106045000D01*
X73660000Y-104775000D02*
X74930000Y-106045000D01*
X73660000Y-101600000D02*
X73660000Y-104775000D01*
X68580000Y-101600000D02*
X73660000Y-101600000D01*
X66675000Y-99695000D02*
X68580000Y-101600000D01*
X66675000Y-96520000D02*
X66675000Y-99695000D01*
X64135000Y-93980000D02*
X66675000Y-96520000D01*
X59055000Y-93980000D02*
X64135000Y-93980000D01*
D39*
%TO.N,/IN0.5*%
X115570000Y-93345000D02*
X115570000Y-97005000D01*
X115570000Y-83915000D02*
X115570000Y-86845000D01*
D40*
X115570000Y-104775000D02*
X115570000Y-103505000D01*
X113665000Y-107315000D02*
X115570000Y-105410000D01*
X71755000Y-107315000D02*
X113665000Y-107315000D01*
X115570000Y-105410000D02*
X115570000Y-104775000D01*
X65405000Y-100965000D02*
X71755000Y-107315000D01*
X65405000Y-98425000D02*
X65405000Y-100965000D01*
X63500000Y-96520000D02*
X65405000Y-98425000D01*
X59055000Y-96520000D02*
X63500000Y-96520000D01*
D39*
%TO.N,/IN0.6*%
X124460000Y-93345000D02*
X124460000Y-97005000D01*
X124460000Y-83915000D02*
X124460000Y-86845000D01*
D40*
X124460000Y-105410000D02*
X124460000Y-103505000D01*
X121285000Y-108585000D02*
X124460000Y-105410000D01*
X71120000Y-108585000D02*
X121285000Y-108585000D01*
X64135000Y-101600000D02*
X71120000Y-108585000D01*
X64135000Y-99695000D02*
X64135000Y-101600000D01*
X63500000Y-99060000D02*
X64135000Y-99695000D01*
X59055000Y-99060000D02*
X63500000Y-99060000D01*
D39*
%TO.N,/IN0.7*%
X133350000Y-93345000D02*
X133350000Y-97005000D01*
D40*
X59055000Y-101600000D02*
X61912500Y-101600000D01*
X133350000Y-83915000D02*
X133350000Y-86845000D01*
X127635000Y-109855000D02*
X133350000Y-104140000D01*
X70485000Y-109855000D02*
X127635000Y-109855000D01*
X62230000Y-101600000D02*
X70485000Y-109855000D01*
X133350000Y-104140000D02*
X133350000Y-103505000D01*
X61912500Y-101600000D02*
X62230000Y-101600000D01*
D39*
%TO.N,/BUS0*%
X46037500Y-83820000D02*
X51435000Y-83820000D01*
%TO.N,/BUS1*%
X51435000Y-86360000D02*
X46037500Y-86360000D01*
%TO.N,/BUS2*%
X51435000Y-88900000D02*
X46037500Y-88900000D01*
%TO.N,/BUS3*%
X51435000Y-91440000D02*
X46037500Y-91440000D01*
%TO.N,/BUS4*%
X51435000Y-93980000D02*
X46037500Y-93980000D01*
%TO.N,/BUS5*%
X51435000Y-96520000D02*
X46037500Y-96520000D01*
%TO.N,/BUS6*%
X51435000Y-99060000D02*
X46037500Y-99060000D01*
%TO.N,/BUS7*%
X51435000Y-101600000D02*
X46037500Y-101600000D01*
D40*
%TO.N,/IN0.OE*%
X59690000Y-104775000D02*
X59055000Y-104140000D01*
X61595000Y-104775000D02*
X59690000Y-104775000D01*
X67945000Y-111125000D02*
X61595000Y-104775000D01*
X67945000Y-113665000D02*
X67945000Y-111125000D01*
%TO.N,/IN0.C*%
X70485000Y-111760000D02*
X70485000Y-113665000D01*
X62230000Y-103505000D02*
X70485000Y-111760000D01*
X60960000Y-103505000D02*
X62230000Y-103505000D01*
X57150000Y-102870000D02*
X60325000Y-102870000D01*
X55245000Y-100965000D02*
X57150000Y-102870000D01*
X55245000Y-84455000D02*
X55245000Y-100965000D01*
X52070000Y-81280000D02*
X55245000Y-84455000D01*
X60325000Y-102870000D02*
X60960000Y-103505000D01*
X51435000Y-81280000D02*
X52070000Y-81280000D01*
D38*
%TO.N,Net-(D1-Pad1)*%
X73660000Y-23495000D02*
X103475000Y-23495000D01*
D40*
%TO.N,/OUT0*%
X133350000Y-78105000D02*
X136525000Y-81280000D01*
X125412500Y-76200000D02*
X127317500Y-78105000D01*
X97155000Y-75565000D02*
X97790000Y-76200000D01*
X97155000Y-73977500D02*
X97155000Y-75565000D01*
X96202500Y-73025000D02*
X97155000Y-73977500D01*
X97790000Y-76200000D02*
X125412500Y-76200000D01*
X90170000Y-73025000D02*
X96202500Y-73025000D01*
X88900000Y-74295000D02*
X90170000Y-73025000D01*
X136525000Y-81280000D02*
X138430000Y-81280000D01*
X127317500Y-78105000D02*
X133350000Y-78105000D01*
X76200000Y-74295000D02*
X88900000Y-74295000D01*
%TO.N,/OUT1*%
X136525000Y-76200000D02*
X138430000Y-76200000D01*
X134620000Y-74295000D02*
X136525000Y-76200000D01*
X99060000Y-74295000D02*
X134620000Y-74295000D01*
%TO.N,/OUT2*%
X78740000Y-30845000D02*
X78740000Y-36830000D01*
X77517500Y-30845000D02*
X78740000Y-30845000D01*
X77152500Y-30480000D02*
X77517500Y-30845000D01*
X77152500Y-24765000D02*
X77152500Y-30480000D01*
X101600000Y-24765000D02*
X77152500Y-24765000D01*
X102235000Y-25400000D02*
X101600000Y-24765000D01*
X130175000Y-25400000D02*
X102235000Y-25400000D01*
X139700000Y-34925000D02*
X130175000Y-25400000D01*
X139700000Y-70485000D02*
X139700000Y-34925000D01*
X138430000Y-71755000D02*
X139700000Y-70485000D01*
X138430000Y-73660000D02*
X138430000Y-71755000D01*
%TO.N,Net-(DS1-Pad16)*%
X108585000Y-34020000D02*
X108585000Y-36830000D01*
X108585000Y-36830000D02*
X104140000Y-36830000D01*
D39*
%TO.N,Net-(J4-Pad2)*%
X60880000Y-110410000D02*
X60880000Y-111760000D01*
X59127107Y-108657107D02*
X60880000Y-110410000D01*
%TD*%
M02*
