%TF.GenerationSoftware,KiCad,Pcbnew,(5.1.8)-1*%
%TF.CreationDate,2023-02-18T12:33:22+03:00*%
%TF.ProjectId,MUX4x1,4d555834-7831-42e6-9b69-6361645f7063,rev?*%
%TF.SameCoordinates,Original*%
%TF.FileFunction,Copper,L1,Top*%
%TF.FilePolarity,Positive*%
%FSLAX46Y46*%
G04 Gerber Fmt 4.6, Leading zero omitted, Abs format (unit mm)*
G04 Created by KiCad (PCBNEW (5.1.8)-1) date 2023-02-18 12:33:22*
%MOMM*%
%LPD*%
G01*
G04 APERTURE LIST*
%TA.AperFunction,NonConductor*%
%ADD10C,0.300000*%
%TD*%
%TA.AperFunction,ComponentPad*%
%ADD11O,1.900000X1.900000*%
%TD*%
%TA.AperFunction,ComponentPad*%
%ADD12R,1.900000X1.900000*%
%TD*%
%TA.AperFunction,ComponentPad*%
%ADD13O,2.200000X2.200000*%
%TD*%
%TA.AperFunction,ComponentPad*%
%ADD14R,2.200000X2.200000*%
%TD*%
%TA.AperFunction,ComponentPad*%
%ADD15O,1.800000X1.500000*%
%TD*%
%TA.AperFunction,ComponentPad*%
%ADD16R,1.800000X1.500000*%
%TD*%
%TA.AperFunction,ComponentPad*%
%ADD17O,2.000000X1.500000*%
%TD*%
%TA.AperFunction,ComponentPad*%
%ADD18R,2.000000X1.500000*%
%TD*%
%TA.AperFunction,ComponentPad*%
%ADD19R,2.600000X2.600000*%
%TD*%
%TA.AperFunction,ComponentPad*%
%ADD20C,2.600000*%
%TD*%
%TA.AperFunction,ComponentPad*%
%ADD21R,1.600000X1.600000*%
%TD*%
%TA.AperFunction,ComponentPad*%
%ADD22O,1.600000X1.600000*%
%TD*%
%TA.AperFunction,ViaPad*%
%ADD23C,1.500000*%
%TD*%
%TA.AperFunction,Conductor*%
%ADD24C,0.800000*%
%TD*%
%TA.AperFunction,Conductor*%
%ADD25C,0.500000*%
%TD*%
G04 APERTURE END LIST*
D10*
X81387142Y-100353571D02*
X81387142Y-99210714D01*
X81958571Y-99782142D02*
X80815714Y-99782142D01*
X80458571Y-97782142D02*
X80458571Y-98496428D01*
X81172857Y-98567857D01*
X81101428Y-98496428D01*
X81030000Y-98353571D01*
X81030000Y-97996428D01*
X81101428Y-97853571D01*
X81172857Y-97782142D01*
X81315714Y-97710714D01*
X81672857Y-97710714D01*
X81815714Y-97782142D01*
X81887142Y-97853571D01*
X81958571Y-97996428D01*
X81958571Y-98353571D01*
X81887142Y-98496428D01*
X81815714Y-98567857D01*
X80458571Y-97282142D02*
X81958571Y-96782142D01*
X80458571Y-96282142D01*
X124254285Y-64178571D02*
X123397142Y-64178571D01*
X123825714Y-64178571D02*
X123825714Y-62678571D01*
X123682857Y-62892857D01*
X123540000Y-63035714D01*
X123397142Y-63107142D01*
X125111428Y-63321428D02*
X124968571Y-63250000D01*
X124897142Y-63178571D01*
X124825714Y-63035714D01*
X124825714Y-62964285D01*
X124897142Y-62821428D01*
X124968571Y-62750000D01*
X125111428Y-62678571D01*
X125397142Y-62678571D01*
X125540000Y-62750000D01*
X125611428Y-62821428D01*
X125682857Y-62964285D01*
X125682857Y-63035714D01*
X125611428Y-63178571D01*
X125540000Y-63250000D01*
X125397142Y-63321428D01*
X125111428Y-63321428D01*
X124968571Y-63392857D01*
X124897142Y-63464285D01*
X124825714Y-63607142D01*
X124825714Y-63892857D01*
X124897142Y-64035714D01*
X124968571Y-64107142D01*
X125111428Y-64178571D01*
X125397142Y-64178571D01*
X125540000Y-64107142D01*
X125611428Y-64035714D01*
X125682857Y-63892857D01*
X125682857Y-63607142D01*
X125611428Y-63464285D01*
X125540000Y-63392857D01*
X125397142Y-63321428D01*
X126325714Y-64035714D02*
X126397142Y-64107142D01*
X126325714Y-64178571D01*
X126254285Y-64107142D01*
X126325714Y-64035714D01*
X126325714Y-64178571D01*
X127325714Y-62678571D02*
X127468571Y-62678571D01*
X127611428Y-62750000D01*
X127682857Y-62821428D01*
X127754285Y-62964285D01*
X127825714Y-63250000D01*
X127825714Y-63607142D01*
X127754285Y-63892857D01*
X127682857Y-64035714D01*
X127611428Y-64107142D01*
X127468571Y-64178571D01*
X127325714Y-64178571D01*
X127182857Y-64107142D01*
X127111428Y-64035714D01*
X127040000Y-63892857D01*
X126968571Y-63607142D01*
X126968571Y-63250000D01*
X127040000Y-62964285D01*
X127111428Y-62821428D01*
X127182857Y-62750000D01*
X127325714Y-62678571D01*
X128397142Y-62821428D02*
X128468571Y-62750000D01*
X128611428Y-62678571D01*
X128968571Y-62678571D01*
X129111428Y-62750000D01*
X129182857Y-62821428D01*
X129254285Y-62964285D01*
X129254285Y-63107142D01*
X129182857Y-63321428D01*
X128325714Y-64178571D01*
X129254285Y-64178571D01*
X129897142Y-64035714D02*
X129968571Y-64107142D01*
X129897142Y-64178571D01*
X129825714Y-64107142D01*
X129897142Y-64035714D01*
X129897142Y-64178571D01*
X130540000Y-62821428D02*
X130611428Y-62750000D01*
X130754285Y-62678571D01*
X131111428Y-62678571D01*
X131254285Y-62750000D01*
X131325714Y-62821428D01*
X131397142Y-62964285D01*
X131397142Y-63107142D01*
X131325714Y-63321428D01*
X130468571Y-64178571D01*
X131397142Y-64178571D01*
X132325714Y-62678571D02*
X132468571Y-62678571D01*
X132611428Y-62750000D01*
X132682857Y-62821428D01*
X132754285Y-62964285D01*
X132825714Y-63250000D01*
X132825714Y-63607142D01*
X132754285Y-63892857D01*
X132682857Y-64035714D01*
X132611428Y-64107142D01*
X132468571Y-64178571D01*
X132325714Y-64178571D01*
X132182857Y-64107142D01*
X132111428Y-64035714D01*
X132040000Y-63892857D01*
X131968571Y-63607142D01*
X131968571Y-63250000D01*
X132040000Y-62964285D01*
X132111428Y-62821428D01*
X132182857Y-62750000D01*
X132325714Y-62678571D01*
X133397142Y-62821428D02*
X133468571Y-62750000D01*
X133611428Y-62678571D01*
X133968571Y-62678571D01*
X134111428Y-62750000D01*
X134182857Y-62821428D01*
X134254285Y-62964285D01*
X134254285Y-63107142D01*
X134182857Y-63321428D01*
X133325714Y-64178571D01*
X134254285Y-64178571D01*
X134754285Y-62678571D02*
X135682857Y-62678571D01*
X135182857Y-63250000D01*
X135397142Y-63250000D01*
X135540000Y-63321428D01*
X135611428Y-63392857D01*
X135682857Y-63535714D01*
X135682857Y-63892857D01*
X135611428Y-64035714D01*
X135540000Y-64107142D01*
X135397142Y-64178571D01*
X134968571Y-64178571D01*
X134825714Y-64107142D01*
X134754285Y-64035714D01*
X128294285Y-61638571D02*
X128294285Y-60138571D01*
X128794285Y-61210000D01*
X129294285Y-60138571D01*
X129294285Y-61638571D01*
X130008571Y-60138571D02*
X130008571Y-61352857D01*
X130080000Y-61495714D01*
X130151428Y-61567142D01*
X130294285Y-61638571D01*
X130580000Y-61638571D01*
X130722857Y-61567142D01*
X130794285Y-61495714D01*
X130865714Y-61352857D01*
X130865714Y-60138571D01*
X131437142Y-60138571D02*
X132437142Y-61638571D01*
X132437142Y-60138571D02*
X131437142Y-61638571D01*
X133651428Y-60638571D02*
X133651428Y-61638571D01*
X133294285Y-60067142D02*
X132937142Y-61138571D01*
X133865714Y-61138571D01*
X134437142Y-61495714D02*
X134508571Y-61567142D01*
X134437142Y-61638571D01*
X134365714Y-61567142D01*
X134437142Y-61495714D01*
X134437142Y-61638571D01*
X134437142Y-60710000D02*
X134508571Y-60781428D01*
X134437142Y-60852857D01*
X134365714Y-60781428D01*
X134437142Y-60710000D01*
X134437142Y-60852857D01*
X135937142Y-61638571D02*
X135080000Y-61638571D01*
X135508571Y-61638571D02*
X135508571Y-60138571D01*
X135365714Y-60352857D01*
X135222857Y-60495714D01*
X135080000Y-60567142D01*
X115094285Y-60138571D02*
X116094285Y-60138571D01*
X115451428Y-61638571D01*
X117308571Y-60638571D02*
X117308571Y-61638571D01*
X116951428Y-60067142D02*
X116594285Y-61138571D01*
X117522857Y-61138571D01*
X118094285Y-61638571D02*
X118094285Y-60138571D01*
X118094285Y-60852857D02*
X118951428Y-60852857D01*
X118951428Y-61638571D02*
X118951428Y-60138571D01*
X120522857Y-61495714D02*
X120451428Y-61567142D01*
X120237142Y-61638571D01*
X120094285Y-61638571D01*
X119880000Y-61567142D01*
X119737142Y-61424285D01*
X119665714Y-61281428D01*
X119594285Y-60995714D01*
X119594285Y-60781428D01*
X119665714Y-60495714D01*
X119737142Y-60352857D01*
X119880000Y-60210000D01*
X120094285Y-60138571D01*
X120237142Y-60138571D01*
X120451428Y-60210000D01*
X120522857Y-60281428D01*
X121165714Y-61638571D02*
X121165714Y-60138571D01*
X121737142Y-60138571D01*
X121880000Y-60210000D01*
X121951428Y-60281428D01*
X122022857Y-60424285D01*
X122022857Y-60638571D01*
X121951428Y-60781428D01*
X121880000Y-60852857D01*
X121737142Y-60924285D01*
X121165714Y-60924285D01*
X122665714Y-60138571D02*
X122665714Y-61352857D01*
X122737142Y-61495714D01*
X122808571Y-61567142D01*
X122951428Y-61638571D01*
X123237142Y-61638571D01*
X123380000Y-61567142D01*
X123451428Y-61495714D01*
X123522857Y-61352857D01*
X123522857Y-60138571D01*
D11*
%TO.P,J14,3*%
%TO.N,/~E*%
X134620000Y-114300000D03*
%TO.P,J14,2*%
%TO.N,/S1*%
X137160000Y-114300000D03*
D12*
%TO.P,J14,1*%
%TO.N,/S0*%
X139700000Y-114300000D03*
%TD*%
%TO.P,J13,1*%
%TO.N,/~OE*%
X129540000Y-114300000D03*
%TD*%
%TO.P,C2,2*%
%TO.N,GND*%
%TA.AperFunction,SMDPad,CuDef*%
G36*
G01*
X136685000Y-87445000D02*
X137635000Y-87445000D01*
G75*
G02*
X137885000Y-87695000I0J-250000D01*
G01*
X137885000Y-88370000D01*
G75*
G02*
X137635000Y-88620000I-250000J0D01*
G01*
X136685000Y-88620000D01*
G75*
G02*
X136435000Y-88370000I0J250000D01*
G01*
X136435000Y-87695000D01*
G75*
G02*
X136685000Y-87445000I250000J0D01*
G01*
G37*
%TD.AperFunction*%
%TO.P,C2,1*%
%TO.N,VCC*%
%TA.AperFunction,SMDPad,CuDef*%
G36*
G01*
X136685000Y-85370000D02*
X137635000Y-85370000D01*
G75*
G02*
X137885000Y-85620000I0J-250000D01*
G01*
X137885000Y-86295000D01*
G75*
G02*
X137635000Y-86545000I-250000J0D01*
G01*
X136685000Y-86545000D01*
G75*
G02*
X136435000Y-86295000I0J250000D01*
G01*
X136435000Y-85620000D01*
G75*
G02*
X136685000Y-85370000I250000J0D01*
G01*
G37*
%TD.AperFunction*%
%TD*%
%TO.P,C1,2*%
%TO.N,GND*%
%TA.AperFunction,SMDPad,CuDef*%
G36*
G01*
X91282500Y-79275000D02*
X92232500Y-79275000D01*
G75*
G02*
X92482500Y-79525000I0J-250000D01*
G01*
X92482500Y-80200000D01*
G75*
G02*
X92232500Y-80450000I-250000J0D01*
G01*
X91282500Y-80450000D01*
G75*
G02*
X91032500Y-80200000I0J250000D01*
G01*
X91032500Y-79525000D01*
G75*
G02*
X91282500Y-79275000I250000J0D01*
G01*
G37*
%TD.AperFunction*%
%TO.P,C1,1*%
%TO.N,VCC*%
%TA.AperFunction,SMDPad,CuDef*%
G36*
G01*
X91282500Y-77200000D02*
X92232500Y-77200000D01*
G75*
G02*
X92482500Y-77450000I0J-250000D01*
G01*
X92482500Y-78125000D01*
G75*
G02*
X92232500Y-78375000I-250000J0D01*
G01*
X91282500Y-78375000D01*
G75*
G02*
X91032500Y-78125000I0J250000D01*
G01*
X91032500Y-77450000D01*
G75*
G02*
X91282500Y-77200000I250000J0D01*
G01*
G37*
%TD.AperFunction*%
%TD*%
D13*
%TO.P,J12,9*%
%TO.N,/BUS7*%
X121920000Y-121602500D03*
%TO.P,J12,8*%
%TO.N,/BUS6*%
X119380000Y-121602500D03*
%TO.P,J12,7*%
%TO.N,/BUS5*%
X116840000Y-121602500D03*
%TO.P,J12,6*%
%TO.N,/BUS4*%
X114300000Y-121602500D03*
%TO.P,J12,5*%
%TO.N,/BUS3*%
X111760000Y-121602500D03*
%TO.P,J12,4*%
%TO.N,/BUS2*%
X109220000Y-121602500D03*
%TO.P,J12,3*%
%TO.N,/BUS1*%
X106680000Y-121602500D03*
%TO.P,J12,2*%
%TO.N,/BUS0*%
X104140000Y-121602500D03*
D14*
%TO.P,J12,1*%
%TO.N,GND*%
X101600000Y-121602500D03*
%TD*%
D13*
%TO.P,J11,9*%
%TO.N,/D7*%
X156210000Y-81280000D03*
%TO.P,J11,8*%
%TO.N,/D6*%
X156210000Y-78740000D03*
%TO.P,J11,7*%
%TO.N,/D5*%
X156210000Y-76200000D03*
%TO.P,J11,6*%
%TO.N,/D4*%
X156210000Y-73660000D03*
%TO.P,J11,5*%
%TO.N,/D3*%
X156210000Y-71120000D03*
%TO.P,J11,4*%
%TO.N,/D2*%
X156210000Y-68580000D03*
%TO.P,J11,3*%
%TO.N,/D1*%
X156210000Y-66040000D03*
%TO.P,J11,2*%
%TO.N,/D0*%
X156210000Y-63500000D03*
D14*
%TO.P,J11,1*%
%TO.N,GND*%
X156210000Y-60960000D03*
%TD*%
D13*
%TO.P,J10,9*%
%TO.N,/C7*%
X73660000Y-81280000D03*
%TO.P,J10,8*%
%TO.N,/C6*%
X73660000Y-78740000D03*
%TO.P,J10,7*%
%TO.N,/C5*%
X73660000Y-76200000D03*
%TO.P,J10,6*%
%TO.N,/C4*%
X73660000Y-73660000D03*
%TO.P,J10,5*%
%TO.N,/C3*%
X73660000Y-71120000D03*
%TO.P,J10,4*%
%TO.N,/C2*%
X73660000Y-68580000D03*
%TO.P,J10,3*%
%TO.N,/C1*%
X73660000Y-66040000D03*
%TO.P,J10,2*%
%TO.N,/C0*%
X73660000Y-63500000D03*
D14*
%TO.P,J10,1*%
%TO.N,GND*%
X73660000Y-60960000D03*
%TD*%
D13*
%TO.P,J9,9*%
%TO.N,/B7*%
X156210000Y-106680000D03*
%TO.P,J9,8*%
%TO.N,/B6*%
X156210000Y-104140000D03*
%TO.P,J9,7*%
%TO.N,/B5*%
X156210000Y-101600000D03*
%TO.P,J9,6*%
%TO.N,/B4*%
X156210000Y-99060000D03*
%TO.P,J9,5*%
%TO.N,/B3*%
X156210000Y-96520000D03*
%TO.P,J9,4*%
%TO.N,/B2*%
X156210000Y-93980000D03*
%TO.P,J9,3*%
%TO.N,/B1*%
X156210000Y-91440000D03*
%TO.P,J9,2*%
%TO.N,/B0*%
X156210000Y-88900000D03*
D14*
%TO.P,J9,1*%
%TO.N,GND*%
X156210000Y-86360000D03*
%TD*%
D13*
%TO.P,J8,9*%
%TO.N,/A7*%
X73660000Y-106680000D03*
%TO.P,J8,8*%
%TO.N,/A6*%
X73660000Y-104140000D03*
%TO.P,J8,7*%
%TO.N,/A5*%
X73660000Y-101600000D03*
%TO.P,J8,6*%
%TO.N,/A4*%
X73660000Y-99060000D03*
%TO.P,J8,5*%
%TO.N,/A3*%
X73660000Y-96520000D03*
%TO.P,J8,4*%
%TO.N,/A2*%
X73660000Y-93980000D03*
%TO.P,J8,3*%
%TO.N,/A1*%
X73660000Y-91440000D03*
%TO.P,J8,2*%
%TO.N,/A0*%
X73660000Y-88900000D03*
D14*
%TO.P,J8,1*%
%TO.N,GND*%
X73660000Y-86360000D03*
%TD*%
D15*
%TO.P,U2,16*%
%TO.N,VCC*%
X110490000Y-73660000D03*
%TO.P,U2,8*%
%TO.N,GND*%
X102870000Y-91440000D03*
%TO.P,U2,15*%
%TO.N,/~E*%
X110490000Y-76200000D03*
%TO.P,U2,7*%
%TO.N,/O2*%
X102870000Y-88900000D03*
%TO.P,U2,14*%
%TO.N,/S0*%
X110490000Y-78740000D03*
%TO.P,U2,6*%
%TO.N,/A2*%
X102870000Y-86360000D03*
%TO.P,U2,13*%
%TO.N,/D3*%
X110490000Y-81280000D03*
%TO.P,U2,5*%
%TO.N,/B2*%
X102870000Y-83820000D03*
%TO.P,U2,12*%
%TO.N,/C3*%
X110490000Y-83820000D03*
%TO.P,U2,4*%
%TO.N,/C2*%
X102870000Y-81280000D03*
%TO.P,U2,11*%
%TO.N,/B3*%
X110490000Y-86360000D03*
%TO.P,U2,3*%
%TO.N,/D2*%
X102870000Y-78740000D03*
%TO.P,U2,10*%
%TO.N,/A3*%
X110490000Y-88900000D03*
%TO.P,U2,2*%
%TO.N,/S1*%
X102870000Y-76200000D03*
%TO.P,U2,9*%
%TO.N,/O3*%
X110490000Y-91440000D03*
D16*
%TO.P,U2,1*%
%TO.N,/~E*%
X102870000Y-73660000D03*
%TD*%
%TO.P,R1,2*%
%TO.N,GND*%
%TA.AperFunction,SMDPad,CuDef*%
G36*
G01*
X149727499Y-83902500D02*
X150627501Y-83902500D01*
G75*
G02*
X150877500Y-84152499I0J-249999D01*
G01*
X150877500Y-84852501D01*
G75*
G02*
X150627501Y-85102500I-249999J0D01*
G01*
X149727499Y-85102500D01*
G75*
G02*
X149477500Y-84852501I0J249999D01*
G01*
X149477500Y-84152499D01*
G75*
G02*
X149727499Y-83902500I249999J0D01*
G01*
G37*
%TD.AperFunction*%
%TO.P,R1,1*%
%TO.N,/~E*%
%TA.AperFunction,SMDPad,CuDef*%
G36*
G01*
X149727499Y-81902500D02*
X150627501Y-81902500D01*
G75*
G02*
X150877500Y-82152499I0J-249999D01*
G01*
X150877500Y-82852501D01*
G75*
G02*
X150627501Y-83102500I-249999J0D01*
G01*
X149727499Y-83102500D01*
G75*
G02*
X149477500Y-82852501I0J249999D01*
G01*
X149477500Y-82152499D01*
G75*
G02*
X149727499Y-81902500I249999J0D01*
G01*
G37*
%TD.AperFunction*%
%TD*%
D17*
%TO.P,J7,3*%
%TO.N,/~E*%
X145732500Y-74295000D03*
%TO.P,J7,2*%
%TO.N,/S1*%
X145732500Y-76835000D03*
D18*
%TO.P,J7,1*%
%TO.N,/S0*%
X145732500Y-79375000D03*
%TD*%
D19*
%TO.P,J1,1*%
%TO.N,VCC*%
X83185000Y-104775000D03*
D20*
%TO.P,J1,2*%
%TO.N,GND*%
X88185000Y-104775000D03*
%TD*%
D14*
%TO.P,J2,1*%
%TO.N,GND*%
X76835000Y-86360000D03*
D13*
%TO.P,J2,2*%
%TO.N,/A0*%
X76835000Y-88900000D03*
%TO.P,J2,3*%
%TO.N,/A1*%
X76835000Y-91440000D03*
%TO.P,J2,4*%
%TO.N,/A2*%
X76835000Y-93980000D03*
%TO.P,J2,5*%
%TO.N,/A3*%
X76835000Y-96520000D03*
%TO.P,J2,6*%
%TO.N,/A4*%
X76835000Y-99060000D03*
%TO.P,J2,7*%
%TO.N,/A5*%
X76835000Y-101600000D03*
%TO.P,J2,8*%
%TO.N,/A6*%
X76835000Y-104140000D03*
%TO.P,J2,9*%
%TO.N,/A7*%
X76835000Y-106680000D03*
%TD*%
%TO.P,J3,9*%
%TO.N,/B7*%
X153035000Y-106680000D03*
%TO.P,J3,8*%
%TO.N,/B6*%
X153035000Y-104140000D03*
%TO.P,J3,7*%
%TO.N,/B5*%
X153035000Y-101600000D03*
%TO.P,J3,6*%
%TO.N,/B4*%
X153035000Y-99060000D03*
%TO.P,J3,5*%
%TO.N,/B3*%
X153035000Y-96520000D03*
%TO.P,J3,4*%
%TO.N,/B2*%
X153035000Y-93980000D03*
%TO.P,J3,3*%
%TO.N,/B1*%
X153035000Y-91440000D03*
%TO.P,J3,2*%
%TO.N,/B0*%
X153035000Y-88900000D03*
D14*
%TO.P,J3,1*%
%TO.N,GND*%
X153035000Y-86360000D03*
%TD*%
%TO.P,J4,1*%
%TO.N,GND*%
X76835000Y-60960000D03*
D13*
%TO.P,J4,2*%
%TO.N,/C0*%
X76835000Y-63500000D03*
%TO.P,J4,3*%
%TO.N,/C1*%
X76835000Y-66040000D03*
%TO.P,J4,4*%
%TO.N,/C2*%
X76835000Y-68580000D03*
%TO.P,J4,5*%
%TO.N,/C3*%
X76835000Y-71120000D03*
%TO.P,J4,6*%
%TO.N,/C4*%
X76835000Y-73660000D03*
%TO.P,J4,7*%
%TO.N,/C5*%
X76835000Y-76200000D03*
%TO.P,J4,8*%
%TO.N,/C6*%
X76835000Y-78740000D03*
%TO.P,J4,9*%
%TO.N,/C7*%
X76835000Y-81280000D03*
%TD*%
%TO.P,J5,9*%
%TO.N,/D7*%
X153035000Y-81280000D03*
%TO.P,J5,8*%
%TO.N,/D6*%
X153035000Y-78740000D03*
%TO.P,J5,7*%
%TO.N,/D5*%
X153035000Y-76200000D03*
%TO.P,J5,6*%
%TO.N,/D4*%
X153035000Y-73660000D03*
%TO.P,J5,5*%
%TO.N,/D3*%
X153035000Y-71120000D03*
%TO.P,J5,4*%
%TO.N,/D2*%
X153035000Y-68580000D03*
%TO.P,J5,3*%
%TO.N,/D1*%
X153035000Y-66040000D03*
%TO.P,J5,2*%
%TO.N,/D0*%
X153035000Y-63500000D03*
D14*
%TO.P,J5,1*%
%TO.N,GND*%
X153035000Y-60960000D03*
%TD*%
%TO.P,J6,1*%
%TO.N,GND*%
X101600000Y-118745000D03*
D13*
%TO.P,J6,2*%
%TO.N,/BUS0*%
X104140000Y-118745000D03*
%TO.P,J6,3*%
%TO.N,/BUS1*%
X106680000Y-118745000D03*
%TO.P,J6,4*%
%TO.N,/BUS2*%
X109220000Y-118745000D03*
%TO.P,J6,5*%
%TO.N,/BUS3*%
X111760000Y-118745000D03*
%TO.P,J6,6*%
%TO.N,/BUS4*%
X114300000Y-118745000D03*
%TO.P,J6,7*%
%TO.N,/BUS5*%
X116840000Y-118745000D03*
%TO.P,J6,8*%
%TO.N,/BUS6*%
X119380000Y-118745000D03*
%TO.P,J6,9*%
%TO.N,/BUS7*%
X121920000Y-118745000D03*
%TD*%
D16*
%TO.P,U1,1*%
%TO.N,/~E*%
X87630000Y-73660000D03*
D15*
%TO.P,U1,9*%
%TO.N,/O1*%
X95250000Y-91440000D03*
%TO.P,U1,2*%
%TO.N,/S1*%
X87630000Y-76200000D03*
%TO.P,U1,10*%
%TO.N,/A1*%
X95250000Y-88900000D03*
%TO.P,U1,3*%
%TO.N,/D0*%
X87630000Y-78740000D03*
%TO.P,U1,11*%
%TO.N,/B1*%
X95250000Y-86360000D03*
%TO.P,U1,4*%
%TO.N,/C0*%
X87630000Y-81280000D03*
%TO.P,U1,12*%
%TO.N,/C1*%
X95250000Y-83820000D03*
%TO.P,U1,5*%
%TO.N,/B0*%
X87630000Y-83820000D03*
%TO.P,U1,13*%
%TO.N,/D1*%
X95250000Y-81280000D03*
%TO.P,U1,6*%
%TO.N,/A0*%
X87630000Y-86360000D03*
%TO.P,U1,14*%
%TO.N,/S0*%
X95250000Y-78740000D03*
%TO.P,U1,7*%
%TO.N,/O0*%
X87630000Y-88900000D03*
%TO.P,U1,15*%
%TO.N,/~E*%
X95250000Y-76200000D03*
%TO.P,U1,8*%
%TO.N,GND*%
X87630000Y-91440000D03*
%TO.P,U1,16*%
%TO.N,VCC*%
X95250000Y-73660000D03*
%TD*%
D16*
%TO.P,U3,1*%
%TO.N,/~E*%
X118110000Y-73660000D03*
D15*
%TO.P,U3,9*%
%TO.N,/O5*%
X125730000Y-91440000D03*
%TO.P,U3,2*%
%TO.N,/S1*%
X118110000Y-76200000D03*
%TO.P,U3,10*%
%TO.N,/A5*%
X125730000Y-88900000D03*
%TO.P,U3,3*%
%TO.N,/D4*%
X118110000Y-78740000D03*
%TO.P,U3,11*%
%TO.N,/B5*%
X125730000Y-86360000D03*
%TO.P,U3,4*%
%TO.N,/C4*%
X118110000Y-81280000D03*
%TO.P,U3,12*%
%TO.N,/C5*%
X125730000Y-83820000D03*
%TO.P,U3,5*%
%TO.N,/B4*%
X118110000Y-83820000D03*
%TO.P,U3,13*%
%TO.N,/D5*%
X125730000Y-81280000D03*
%TO.P,U3,6*%
%TO.N,/A4*%
X118110000Y-86360000D03*
%TO.P,U3,14*%
%TO.N,/S0*%
X125730000Y-78740000D03*
%TO.P,U3,7*%
%TO.N,/O4*%
X118110000Y-88900000D03*
%TO.P,U3,15*%
%TO.N,/~E*%
X125730000Y-76200000D03*
%TO.P,U3,8*%
%TO.N,GND*%
X118110000Y-91440000D03*
%TO.P,U3,16*%
%TO.N,VCC*%
X125730000Y-73660000D03*
%TD*%
%TO.P,U4,16*%
%TO.N,VCC*%
X140970000Y-73660000D03*
%TO.P,U4,8*%
%TO.N,GND*%
X133350000Y-91440000D03*
%TO.P,U4,15*%
%TO.N,/~E*%
X140970000Y-76200000D03*
%TO.P,U4,7*%
%TO.N,/O6*%
X133350000Y-88900000D03*
%TO.P,U4,14*%
%TO.N,/S0*%
X140970000Y-78740000D03*
%TO.P,U4,6*%
%TO.N,/A6*%
X133350000Y-86360000D03*
%TO.P,U4,13*%
%TO.N,/D7*%
X140970000Y-81280000D03*
%TO.P,U4,5*%
%TO.N,/B6*%
X133350000Y-83820000D03*
%TO.P,U4,12*%
%TO.N,/C7*%
X140970000Y-83820000D03*
%TO.P,U4,4*%
%TO.N,/C6*%
X133350000Y-81280000D03*
%TO.P,U4,11*%
%TO.N,/B7*%
X140970000Y-86360000D03*
%TO.P,U4,3*%
%TO.N,/D6*%
X133350000Y-78740000D03*
%TO.P,U4,10*%
%TO.N,/A7*%
X140970000Y-88900000D03*
%TO.P,U4,2*%
%TO.N,/S1*%
X133350000Y-76200000D03*
%TO.P,U4,9*%
%TO.N,/O7*%
X140970000Y-91440000D03*
D16*
%TO.P,U4,1*%
%TO.N,/~E*%
X133350000Y-73660000D03*
%TD*%
%TO.P,D1,1*%
%TO.N,GND*%
%TA.AperFunction,SMDPad,CuDef*%
G36*
G01*
X152850001Y-116852500D02*
X151949999Y-116852500D01*
G75*
G02*
X151700000Y-116602501I0J249999D01*
G01*
X151700000Y-115952499D01*
G75*
G02*
X151949999Y-115702500I249999J0D01*
G01*
X152850001Y-115702500D01*
G75*
G02*
X153100000Y-115952499I0J-249999D01*
G01*
X153100000Y-116602501D01*
G75*
G02*
X152850001Y-116852500I-249999J0D01*
G01*
G37*
%TD.AperFunction*%
%TO.P,D1,2*%
%TO.N,Net-(D1-Pad2)*%
%TA.AperFunction,SMDPad,CuDef*%
G36*
G01*
X152850001Y-114802500D02*
X151949999Y-114802500D01*
G75*
G02*
X151700000Y-114552501I0J249999D01*
G01*
X151700000Y-113902499D01*
G75*
G02*
X151949999Y-113652500I249999J0D01*
G01*
X152850001Y-113652500D01*
G75*
G02*
X153100000Y-113902499I0J-249999D01*
G01*
X153100000Y-114552501D01*
G75*
G02*
X152850001Y-114802500I-249999J0D01*
G01*
G37*
%TD.AperFunction*%
%TD*%
%TO.P,D2,2*%
%TO.N,Net-(D2-Pad2)*%
%TA.AperFunction,SMDPad,CuDef*%
G36*
G01*
X155390001Y-114802500D02*
X154489999Y-114802500D01*
G75*
G02*
X154240000Y-114552501I0J249999D01*
G01*
X154240000Y-113902499D01*
G75*
G02*
X154489999Y-113652500I249999J0D01*
G01*
X155390001Y-113652500D01*
G75*
G02*
X155640000Y-113902499I0J-249999D01*
G01*
X155640000Y-114552501D01*
G75*
G02*
X155390001Y-114802500I-249999J0D01*
G01*
G37*
%TD.AperFunction*%
%TO.P,D2,1*%
%TO.N,GND*%
%TA.AperFunction,SMDPad,CuDef*%
G36*
G01*
X155390001Y-116852500D02*
X154489999Y-116852500D01*
G75*
G02*
X154240000Y-116602501I0J249999D01*
G01*
X154240000Y-115952499D01*
G75*
G02*
X154489999Y-115702500I249999J0D01*
G01*
X155390001Y-115702500D01*
G75*
G02*
X155640000Y-115952499I0J-249999D01*
G01*
X155640000Y-116602501D01*
G75*
G02*
X155390001Y-116852500I-249999J0D01*
G01*
G37*
%TD.AperFunction*%
%TD*%
%TO.P,R2,2*%
%TO.N,/S0*%
%TA.AperFunction,SMDPad,CuDef*%
G36*
G01*
X152850001Y-110725000D02*
X151949999Y-110725000D01*
G75*
G02*
X151700000Y-110475001I0J249999D01*
G01*
X151700000Y-109774999D01*
G75*
G02*
X151949999Y-109525000I249999J0D01*
G01*
X152850001Y-109525000D01*
G75*
G02*
X153100000Y-109774999I0J-249999D01*
G01*
X153100000Y-110475001D01*
G75*
G02*
X152850001Y-110725000I-249999J0D01*
G01*
G37*
%TD.AperFunction*%
%TO.P,R2,1*%
%TO.N,Net-(D1-Pad2)*%
%TA.AperFunction,SMDPad,CuDef*%
G36*
G01*
X152850001Y-112725000D02*
X151949999Y-112725000D01*
G75*
G02*
X151700000Y-112475001I0J249999D01*
G01*
X151700000Y-111774999D01*
G75*
G02*
X151949999Y-111525000I249999J0D01*
G01*
X152850001Y-111525000D01*
G75*
G02*
X153100000Y-111774999I0J-249999D01*
G01*
X153100000Y-112475001D01*
G75*
G02*
X152850001Y-112725000I-249999J0D01*
G01*
G37*
%TD.AperFunction*%
%TD*%
%TO.P,R3,1*%
%TO.N,Net-(D2-Pad2)*%
%TA.AperFunction,SMDPad,CuDef*%
G36*
G01*
X155390001Y-112725000D02*
X154489999Y-112725000D01*
G75*
G02*
X154240000Y-112475001I0J249999D01*
G01*
X154240000Y-111774999D01*
G75*
G02*
X154489999Y-111525000I249999J0D01*
G01*
X155390001Y-111525000D01*
G75*
G02*
X155640000Y-111774999I0J-249999D01*
G01*
X155640000Y-112475001D01*
G75*
G02*
X155390001Y-112725000I-249999J0D01*
G01*
G37*
%TD.AperFunction*%
%TO.P,R3,2*%
%TO.N,/S1*%
%TA.AperFunction,SMDPad,CuDef*%
G36*
G01*
X155390001Y-110725000D02*
X154489999Y-110725000D01*
G75*
G02*
X154240000Y-110475001I0J249999D01*
G01*
X154240000Y-109774999D01*
G75*
G02*
X154489999Y-109525000I249999J0D01*
G01*
X155390001Y-109525000D01*
G75*
G02*
X155640000Y-109774999I0J-249999D01*
G01*
X155640000Y-110475001D01*
G75*
G02*
X155390001Y-110725000I-249999J0D01*
G01*
G37*
%TD.AperFunction*%
%TD*%
D21*
%TO.P,U5,1*%
%TO.N,Net-(R4-Pad1)*%
X124460000Y-106680000D03*
D22*
%TO.P,U5,11*%
%TO.N,/BUS0*%
X101600000Y-114300000D03*
%TO.P,U5,2*%
%TO.N,/O7*%
X121920000Y-106680000D03*
%TO.P,U5,12*%
%TO.N,/BUS1*%
X104140000Y-114300000D03*
%TO.P,U5,3*%
%TO.N,/O6*%
X119380000Y-106680000D03*
%TO.P,U5,13*%
%TO.N,/BUS2*%
X106680000Y-114300000D03*
%TO.P,U5,4*%
%TO.N,/O5*%
X116840000Y-106680000D03*
%TO.P,U5,14*%
%TO.N,/BUS3*%
X109220000Y-114300000D03*
%TO.P,U5,5*%
%TO.N,/O4*%
X114300000Y-106680000D03*
%TO.P,U5,15*%
%TO.N,/BUS4*%
X111760000Y-114300000D03*
%TO.P,U5,6*%
%TO.N,/O3*%
X111760000Y-106680000D03*
%TO.P,U5,16*%
%TO.N,/BUS5*%
X114300000Y-114300000D03*
%TO.P,U5,7*%
%TO.N,/O2*%
X109220000Y-106680000D03*
%TO.P,U5,17*%
%TO.N,/BUS6*%
X116840000Y-114300000D03*
%TO.P,U5,8*%
%TO.N,/O1*%
X106680000Y-106680000D03*
%TO.P,U5,18*%
%TO.N,/BUS7*%
X119380000Y-114300000D03*
%TO.P,U5,9*%
%TO.N,/O0*%
X104140000Y-106680000D03*
%TO.P,U5,19*%
%TO.N,/~OE*%
X121920000Y-114300000D03*
%TO.P,U5,10*%
%TO.N,GND*%
X101600000Y-106680000D03*
%TO.P,U5,20*%
%TO.N,VCC*%
X124460000Y-114300000D03*
%TD*%
D23*
%TO.N,GND*%
X157480000Y-110172500D03*
%TO.N,/A2*%
X100330000Y-97790000D03*
%TO.N,/A3*%
X107950000Y-99060000D03*
%TO.N,/A4*%
X119380000Y-99695000D03*
%TO.N,/A5*%
X124460000Y-100647500D03*
%TO.N,/A6*%
X130810000Y-102870000D03*
%TO.N,/A7*%
X138430000Y-104140000D03*
%TO.N,/B7*%
X143510000Y-100965000D03*
%TO.N,/B6*%
X135890000Y-102870000D03*
X135890000Y-91440000D03*
%TO.N,/B5*%
X128270000Y-100647500D03*
%TO.N,/B4*%
X121920000Y-99695000D03*
%TO.N,/B3*%
X113030000Y-99060000D03*
%TO.N,/B2*%
X106045000Y-97790000D03*
%TO.N,/B1*%
X97790000Y-96520000D03*
%TO.N,/B0*%
X92710000Y-95885000D03*
X92710000Y-86360000D03*
%TO.N,/C0*%
X79375000Y-83185000D03*
%TO.N,/C1*%
X95250000Y-60960000D03*
%TO.N,/C2*%
X100330000Y-61595000D03*
%TO.N,/C3*%
X107950000Y-63500000D03*
%TO.N,/C4*%
X115570000Y-65405000D03*
%TO.N,/C5*%
X123190000Y-67310000D03*
%TO.N,/C6*%
X130810000Y-69215000D03*
%TO.N,/D6*%
X135890000Y-69215000D03*
%TO.N,/D5*%
X128270000Y-67310000D03*
%TO.N,/D4*%
X120650000Y-65405000D03*
%TO.N,/D3*%
X113030000Y-63500000D03*
%TO.N,/D2*%
X105410000Y-61595000D03*
%TO.N,/D1*%
X97790000Y-60960000D03*
X100330000Y-83820000D03*
%TO.N,/D0*%
X81280000Y-78740000D03*
%TO.N,/O0*%
X90805000Y-91440000D03*
%TO.N,/S1*%
X148590000Y-104775000D03*
X144780000Y-104775000D03*
%TD*%
D24*
%TO.N,VCC*%
X83185000Y-73660000D02*
X85725000Y-71120000D01*
X92710000Y-73660000D02*
X90170000Y-71120000D01*
X95250000Y-73660000D02*
X92710000Y-73660000D01*
X85725000Y-71120000D02*
X90170000Y-71120000D01*
X83185000Y-93980000D02*
X83185000Y-73660000D01*
X83185000Y-104775000D02*
X83185000Y-93980000D01*
D25*
X91757500Y-74612500D02*
X92710000Y-73660000D01*
X91757500Y-77787500D02*
X91757500Y-74612500D01*
X140970000Y-73660000D02*
X139382500Y-73660000D01*
X139382500Y-73660000D02*
X138430000Y-74612500D01*
X138430000Y-74612500D02*
X138430000Y-80645000D01*
X137160000Y-81915000D02*
X137160000Y-85957500D01*
X138430000Y-80645000D02*
X137160000Y-81915000D01*
D24*
X83185000Y-104775000D02*
X83185000Y-107950000D01*
X83185000Y-107950000D02*
X84455000Y-109220000D01*
X124460000Y-111760000D02*
X124460000Y-114300000D01*
X99695000Y-110490000D02*
X98425000Y-109220000D01*
X123190000Y-110490000D02*
X99695000Y-110490000D01*
X84455000Y-109220000D02*
X98425000Y-109220000D01*
X123190000Y-110490000D02*
X124460000Y-111760000D01*
D25*
%TO.N,GND*%
X152400000Y-116277500D02*
X155575000Y-116277500D01*
X150495000Y-86360000D02*
X153035000Y-86360000D01*
X150177500Y-84502500D02*
X150177500Y-85407500D01*
X91757500Y-79862500D02*
X91757500Y-83502500D01*
X91757500Y-83502500D02*
X90487500Y-84772500D01*
X90487500Y-84772500D02*
X90487500Y-88900000D01*
X87947500Y-91440000D02*
X87630000Y-91440000D01*
X90487500Y-88900000D02*
X87947500Y-91440000D01*
X133350000Y-91440000D02*
X135572500Y-89217500D01*
X135572500Y-89217500D02*
X136842500Y-89217500D01*
X137160000Y-88900000D02*
X137160000Y-88032500D01*
X136842500Y-89217500D02*
X137160000Y-88900000D01*
X150495000Y-85725000D02*
X150177500Y-85407500D01*
X150495000Y-86360000D02*
X150495000Y-85725000D01*
X154940000Y-116277500D02*
X156772500Y-116277500D01*
X157480000Y-115570000D02*
X157480000Y-110172500D01*
X156772500Y-116277500D02*
X157480000Y-115570000D01*
D24*
X87630000Y-91440000D02*
X87630000Y-98425000D01*
X88185000Y-98980000D02*
X88185000Y-104775000D01*
X87630000Y-98425000D02*
X88185000Y-98980000D01*
D25*
%TO.N,/A2*%
X102870000Y-86360000D02*
X100330000Y-86360000D01*
X100330000Y-97790000D02*
X100330000Y-96520000D01*
X100330000Y-86360000D02*
X100330000Y-96520000D01*
%TO.N,/A3*%
X110490000Y-88900000D02*
X107950000Y-88900000D01*
X107950000Y-88900000D02*
X107950000Y-99060000D01*
%TO.N,/A4*%
X119380000Y-99060000D02*
X119380000Y-99695000D01*
X120015000Y-98425000D02*
X119380000Y-99060000D01*
X118110000Y-86360000D02*
X120015000Y-86360000D01*
X120015000Y-86360000D02*
X120015000Y-98425000D01*
%TO.N,/A5*%
X125730000Y-88900000D02*
X123190000Y-88900000D01*
X123190000Y-97790000D02*
X124460000Y-99060000D01*
X124460000Y-99060000D02*
X124460000Y-100647500D01*
X123190000Y-88900000D02*
X123190000Y-97790000D01*
%TO.N,/A6*%
X130810000Y-86360000D02*
X133350000Y-86360000D01*
X129540000Y-86360000D02*
X130810000Y-86360000D01*
X129540000Y-96520000D02*
X129540000Y-86360000D01*
X130810000Y-97790000D02*
X129540000Y-96520000D01*
X130810000Y-102870000D02*
X130810000Y-97790000D01*
%TO.N,/A7*%
X139065000Y-88900000D02*
X140970000Y-88900000D01*
X138430000Y-89535000D02*
X139065000Y-88900000D01*
X138430000Y-104140000D02*
X138430000Y-89535000D01*
%TO.N,/B7*%
X140970000Y-86360000D02*
X143510000Y-86360000D01*
X143510000Y-86360000D02*
X143510000Y-100965000D01*
%TO.N,/B6*%
X135890000Y-91440000D02*
X135890000Y-102870000D01*
%TO.N,/B5*%
X125730000Y-86360000D02*
X128270000Y-86360000D01*
X128270000Y-86360000D02*
X128270000Y-100647500D01*
%TO.N,/B4*%
X121285000Y-98425000D02*
X121920000Y-99060000D01*
X121920000Y-99060000D02*
X121920000Y-99695000D01*
X118110000Y-83820000D02*
X121285000Y-83820000D01*
X121285000Y-83820000D02*
X121285000Y-98425000D01*
%TO.N,/B3*%
X110490000Y-86360000D02*
X113030000Y-86360000D01*
X113030000Y-86360000D02*
X113030000Y-99060000D01*
%TO.N,/B2*%
X102870000Y-83820000D02*
X106045000Y-83820000D01*
X106045000Y-95885000D02*
X106045000Y-97790000D01*
X106045000Y-83820000D02*
X106045000Y-95885000D01*
%TO.N,/B1*%
X97790000Y-86360000D02*
X95250000Y-86360000D01*
X97790000Y-86360000D02*
X97790000Y-96520000D01*
%TO.N,/B0*%
X92710000Y-95885000D02*
X92710000Y-86360000D01*
%TO.N,/C0*%
X79375000Y-63500000D02*
X79375000Y-83185000D01*
X79375000Y-63500000D02*
X76835000Y-63500000D01*
%TO.N,/C1*%
X97790000Y-83820000D02*
X95250000Y-83820000D01*
X97790000Y-67945000D02*
X97790000Y-83820000D01*
X95250000Y-65405000D02*
X97790000Y-67945000D01*
X95250000Y-60960000D02*
X95250000Y-65405000D01*
%TO.N,/C2*%
X102870000Y-81280000D02*
X100330000Y-81280000D01*
X100330000Y-81280000D02*
X100330000Y-61595000D01*
%TO.N,/C3*%
X107950000Y-63500000D02*
X107950000Y-83820000D01*
X107950000Y-83820000D02*
X110490000Y-83820000D01*
%TO.N,/C4*%
X118110000Y-81280000D02*
X115570000Y-81280000D01*
X115570000Y-81280000D02*
X115570000Y-65405000D01*
%TO.N,/C5*%
X125730000Y-83820000D02*
X123190000Y-83820000D01*
X123190000Y-83820000D02*
X123190000Y-67310000D01*
%TO.N,/C6*%
X133350000Y-81280000D02*
X130810000Y-81280000D01*
X130810000Y-81280000D02*
X130810000Y-69215000D01*
%TO.N,/D6*%
X133350000Y-78740000D02*
X135890000Y-78740000D01*
X135890000Y-78740000D02*
X135890000Y-69215000D01*
%TO.N,/D5*%
X125730000Y-81280000D02*
X128270000Y-81280000D01*
X128270000Y-81280000D02*
X128270000Y-67310000D01*
%TO.N,/D4*%
X120650000Y-65405000D02*
X120650000Y-78740000D01*
X120650000Y-78740000D02*
X120650000Y-78740000D01*
X118110000Y-78740000D02*
X120650000Y-78740000D01*
%TO.N,/D3*%
X110490000Y-81280000D02*
X113030000Y-81280000D01*
X113030000Y-81280000D02*
X113030000Y-63500000D01*
X113030000Y-63500000D02*
X113030000Y-63500000D01*
%TO.N,/D2*%
X105410000Y-61595000D02*
X105410000Y-78740000D01*
X105410000Y-78740000D02*
X102870000Y-78740000D01*
%TO.N,/D1*%
X99060000Y-82550000D02*
X100330000Y-83820000D01*
X99060000Y-65405000D02*
X99060000Y-82550000D01*
X97790000Y-64135000D02*
X99060000Y-65405000D01*
X97790000Y-60960000D02*
X97790000Y-64135000D01*
%TO.N,/D0*%
X150495000Y-63500000D02*
X153035000Y-63500000D01*
X150495000Y-60325000D02*
X150495000Y-63500000D01*
X149225000Y-59055000D02*
X150495000Y-60325000D01*
X90805000Y-59055000D02*
X149225000Y-59055000D01*
X90170000Y-59690000D02*
X90805000Y-59055000D01*
X90170000Y-66675000D02*
X90170000Y-59690000D01*
X88900000Y-67945000D02*
X90170000Y-66675000D01*
X84455000Y-67945000D02*
X88900000Y-67945000D01*
X81280000Y-71120000D02*
X84455000Y-67945000D01*
X81280000Y-78740000D02*
X81280000Y-71120000D01*
%TO.N,/O0*%
X97790000Y-104140000D02*
X104140000Y-104140000D01*
X90805000Y-91440000D02*
X90805000Y-97155000D01*
X90805000Y-97155000D02*
X97790000Y-104140000D01*
X104140000Y-104140000D02*
X104140000Y-106680000D01*
%TO.N,/O1*%
X95250000Y-91440000D02*
X95250000Y-96520000D01*
X95250000Y-96520000D02*
X101600000Y-102870000D01*
X101600000Y-102870000D02*
X105410000Y-102870000D01*
X105410000Y-102870000D02*
X106680000Y-104140000D01*
X106680000Y-104140000D02*
X106680000Y-106680000D01*
%TO.N,/O2*%
X104140000Y-99060000D02*
X109220000Y-104140000D01*
X104140000Y-95250000D02*
X104140000Y-99060000D01*
X104775000Y-94615000D02*
X104140000Y-95250000D01*
X104775000Y-88900000D02*
X104775000Y-94615000D01*
X102870000Y-88900000D02*
X104775000Y-88900000D01*
X109220000Y-104140000D02*
X109220000Y-106680000D01*
%TO.N,/O3*%
X110490000Y-101600000D02*
X111760000Y-102870000D01*
X110490000Y-91440000D02*
X110490000Y-101600000D01*
X111760000Y-102870000D02*
X111760000Y-106680000D01*
%TO.N,/O4*%
X114935000Y-102235000D02*
X114300000Y-102870000D01*
X114935000Y-88900000D02*
X118110000Y-88900000D01*
X114935000Y-88900000D02*
X114935000Y-102235000D01*
X114300000Y-102870000D02*
X114300000Y-106680000D01*
%TO.N,/O5*%
X125730000Y-97155000D02*
X125730000Y-91440000D01*
X126047500Y-101600000D02*
X126047500Y-97472500D01*
X117475000Y-102235000D02*
X125412500Y-102235000D01*
X126047500Y-97472500D02*
X125730000Y-97155000D01*
X116840000Y-102870000D02*
X117475000Y-102235000D01*
X125412500Y-102235000D02*
X126047500Y-101600000D01*
X116840000Y-102870000D02*
X116840000Y-106680000D01*
%TO.N,/O6*%
X130810000Y-88900000D02*
X133350000Y-88900000D01*
X130810000Y-95567500D02*
X130810000Y-88900000D01*
X133350000Y-98107500D02*
X130810000Y-95567500D01*
X120332500Y-103187500D02*
X127952500Y-103187500D01*
X119380000Y-104140000D02*
X120332500Y-103187500D01*
X127952500Y-103187500D02*
X129222500Y-104457500D01*
X132715000Y-104457500D02*
X133350000Y-103822500D01*
X133350000Y-103822500D02*
X133350000Y-98107500D01*
X129222500Y-104457500D02*
X132715000Y-104457500D01*
X119380000Y-104140000D02*
X119380000Y-106680000D01*
%TO.N,/O7*%
X121920000Y-104775000D02*
X121920000Y-106680000D01*
X122555000Y-104140000D02*
X121920000Y-104775000D01*
X126047500Y-104140000D02*
X122555000Y-104140000D01*
X128587500Y-106680000D02*
X126047500Y-104140000D01*
X138430000Y-106680000D02*
X128587500Y-106680000D01*
X140970000Y-104140000D02*
X138430000Y-106680000D01*
X140970000Y-91440000D02*
X140970000Y-104140000D01*
%TO.N,/~E*%
X150177500Y-75565000D02*
X150177500Y-82502500D01*
X148907500Y-74295000D02*
X150177500Y-75565000D01*
X145732500Y-74295000D02*
X148907500Y-74295000D01*
X142875000Y-104457500D02*
X134620000Y-112712500D01*
X143827500Y-102870000D02*
X142875000Y-103822500D01*
X134620000Y-112712500D02*
X134620000Y-114300000D01*
X145732500Y-101600000D02*
X144462500Y-102870000D01*
X142875000Y-103822500D02*
X142875000Y-104457500D01*
X143510000Y-74930000D02*
X143510000Y-81915000D01*
X144462500Y-102870000D02*
X143827500Y-102870000D01*
X145732500Y-84137500D02*
X145732500Y-101600000D01*
X144145000Y-74295000D02*
X143510000Y-74930000D01*
X143510000Y-81915000D02*
X145732500Y-84137500D01*
X145732500Y-74295000D02*
X144145000Y-74295000D01*
%TO.N,/S1*%
X148590000Y-77470000D02*
X147955000Y-76835000D01*
X151447500Y-108902500D02*
X148590000Y-106045000D01*
X154940000Y-108902500D02*
X151447500Y-108902500D01*
X154940000Y-110125000D02*
X154940000Y-108902500D01*
X137160000Y-114300000D02*
X137160000Y-112395000D01*
X137160000Y-112395000D02*
X144780000Y-104775000D01*
X148590000Y-106045000D02*
X148590000Y-104775000D01*
X148590000Y-104775000D02*
X148590000Y-77470000D01*
X145732500Y-76835000D02*
X147955000Y-76835000D01*
%TO.N,/S0*%
X150447500Y-110125000D02*
X152400000Y-110125000D01*
X147320000Y-106997500D02*
X150447500Y-110125000D01*
X146685000Y-79375000D02*
X147320000Y-80010000D01*
X139700000Y-114300000D02*
X139700000Y-111760000D01*
X139700000Y-111760000D02*
X144462500Y-106997500D01*
X146685000Y-103187500D02*
X147320000Y-102552500D01*
X146685000Y-106997500D02*
X146685000Y-103187500D01*
X147320000Y-80010000D02*
X147320000Y-102552500D01*
X144462500Y-106997500D02*
X146685000Y-106997500D01*
X146685000Y-106997500D02*
X147320000Y-106997500D01*
X145732500Y-79375000D02*
X146685000Y-79375000D01*
%TO.N,Net-(D1-Pad2)*%
X152400000Y-112125000D02*
X152400000Y-114227500D01*
%TO.N,Net-(D2-Pad2)*%
X154940000Y-112125000D02*
X154940000Y-114227500D01*
%TD*%
M02*
