G04 #@! TF.GenerationSoftware,KiCad,Pcbnew,(5.1.8)-1*
G04 #@! TF.CreationDate,2024-08-14T23:45:20+03:00*
G04 #@! TF.ProjectId,RAM,52414d2e-6b69-4636-9164-5f7063625858,rev?*
G04 #@! TF.SameCoordinates,PXc1c960PYc1c960*
G04 #@! TF.FileFunction,Copper,L2,Bot*
G04 #@! TF.FilePolarity,Positive*
%FSLAX46Y46*%
G04 Gerber Fmt 4.6, Leading zero omitted, Abs format (unit mm)*
G04 Created by KiCad (PCBNEW (5.1.8)-1) date 2024-08-14 23:45:20*
%MOMM*%
%LPD*%
G01*
G04 APERTURE LIST*
G04 #@! TA.AperFunction,ComponentPad*
%ADD10O,1.700000X1.700000*%
G04 #@! TD*
G04 #@! TA.AperFunction,ComponentPad*
%ADD11R,1.700000X1.700000*%
G04 #@! TD*
G04 #@! TA.AperFunction,ComponentPad*
%ADD12C,2.600000*%
G04 #@! TD*
G04 #@! TA.AperFunction,ComponentPad*
%ADD13R,2.600000X2.600000*%
G04 #@! TD*
G04 #@! TA.AperFunction,SMDPad,CuDef*
%ADD14R,1.000000X1.500000*%
G04 #@! TD*
G04 #@! TA.AperFunction,ComponentPad*
%ADD15C,2.000000*%
G04 #@! TD*
G04 #@! TA.AperFunction,ComponentPad*
%ADD16C,1.800000*%
G04 #@! TD*
G04 #@! TA.AperFunction,ComponentPad*
%ADD17R,1.800000X1.800000*%
G04 #@! TD*
G04 #@! TA.AperFunction,ComponentPad*
%ADD18O,1.500000X2.000000*%
G04 #@! TD*
G04 #@! TA.AperFunction,ComponentPad*
%ADD19R,1.500000X2.000000*%
G04 #@! TD*
G04 #@! TA.AperFunction,ComponentPad*
%ADD20O,1.800000X1.500000*%
G04 #@! TD*
G04 #@! TA.AperFunction,ComponentPad*
%ADD21R,1.800000X1.500000*%
G04 #@! TD*
G04 #@! TA.AperFunction,ComponentPad*
%ADD22O,2.000000X2.000000*%
G04 #@! TD*
G04 #@! TA.AperFunction,ComponentPad*
%ADD23R,2.000000X2.000000*%
G04 #@! TD*
G04 #@! TA.AperFunction,ViaPad*
%ADD24C,1.500000*%
G04 #@! TD*
G04 #@! TA.AperFunction,Conductor*
%ADD25C,0.500000*%
G04 #@! TD*
G04 #@! TA.AperFunction,Conductor*
%ADD26C,0.600000*%
G04 #@! TD*
G04 APERTURE END LIST*
D10*
X2540000Y-83820000D03*
X2540000Y-81280000D03*
X2540000Y-78740000D03*
X2540000Y-76200000D03*
X2540000Y-73660000D03*
X2540000Y-71120000D03*
X2540000Y-68580000D03*
X2540000Y-66040000D03*
D11*
X2540000Y-63500000D03*
D10*
X2540000Y-58420000D03*
X2540000Y-55880000D03*
X2540000Y-53340000D03*
X2540000Y-50800000D03*
X2540000Y-48260000D03*
X2540000Y-45720000D03*
X2540000Y-43180000D03*
X2540000Y-40640000D03*
D11*
X2540000Y-38100000D03*
D10*
X2540000Y-33020000D03*
X2540000Y-30480000D03*
X2540000Y-27940000D03*
X2540000Y-25400000D03*
X2540000Y-22860000D03*
X2540000Y-20320000D03*
X2540000Y-17780000D03*
X2540000Y-15240000D03*
D11*
X2540000Y-12700000D03*
D12*
X55800000Y-80645000D03*
D13*
X50800000Y-80645000D03*
D10*
X66040000Y-80645000D03*
X63500000Y-80645000D03*
D11*
X60960000Y-80645000D03*
D14*
X43785000Y-51435000D03*
X45085000Y-51435000D03*
X46385000Y-51435000D03*
X46325000Y-31750000D03*
X47625000Y-31750000D03*
X48925000Y-31750000D03*
D15*
X45720000Y-23970000D03*
X45720000Y-13970000D03*
X18575000Y-5715000D03*
X28575000Y-5715000D03*
D16*
X43180000Y-65405000D03*
D17*
X45720000Y-65405000D03*
D16*
X52070000Y-65405000D03*
D17*
X54610000Y-65405000D03*
D16*
X60960000Y-65405000D03*
D17*
X63500000Y-65405000D03*
D18*
X50165000Y-36195000D03*
X83185000Y-51435000D03*
X52705000Y-36195000D03*
X80645000Y-51435000D03*
X55245000Y-36195000D03*
X78105000Y-51435000D03*
X57785000Y-36195000D03*
X75565000Y-51435000D03*
X60325000Y-36195000D03*
X73025000Y-51435000D03*
X62865000Y-36195000D03*
X70485000Y-51435000D03*
X65405000Y-36195000D03*
X67945000Y-51435000D03*
X67945000Y-36195000D03*
X65405000Y-51435000D03*
X70485000Y-36195000D03*
X62865000Y-51435000D03*
X73025000Y-36195000D03*
X60325000Y-51435000D03*
X75565000Y-36195000D03*
X57785000Y-51435000D03*
X78105000Y-36195000D03*
X55245000Y-51435000D03*
X80645000Y-36195000D03*
X52705000Y-51435000D03*
X83185000Y-36195000D03*
D19*
X50165000Y-51435000D03*
D20*
X67945000Y-75565000D03*
X75565000Y-60325000D03*
X67945000Y-73025000D03*
X75565000Y-62865000D03*
X67945000Y-70485000D03*
X75565000Y-65405000D03*
X67945000Y-67945000D03*
X75565000Y-67945000D03*
X67945000Y-65405000D03*
X75565000Y-70485000D03*
X67945000Y-62865000D03*
X75565000Y-73025000D03*
X67945000Y-60325000D03*
D21*
X75565000Y-75565000D03*
D15*
X40005000Y-84930000D03*
X40005000Y-74930000D03*
D22*
X13970000Y-79375000D03*
D18*
X16510000Y-79375000D03*
X19050000Y-79375000D03*
D22*
X21590000Y-79375000D03*
X24130000Y-79375000D03*
X26670000Y-79375000D03*
X29210000Y-79375000D03*
D23*
X31750000Y-79375000D03*
D19*
X31750000Y-10795000D03*
D18*
X13970000Y-18415000D03*
X29210000Y-10795000D03*
X16510000Y-18415000D03*
X26670000Y-10795000D03*
X19050000Y-18415000D03*
X24130000Y-10795000D03*
X21590000Y-18415000D03*
X21590000Y-10795000D03*
X24130000Y-18415000D03*
X19050000Y-10795000D03*
X26670000Y-18415000D03*
X16510000Y-10795000D03*
X29210000Y-18415000D03*
X13970000Y-10795000D03*
X31750000Y-18415000D03*
D19*
X50165000Y-28575000D03*
D18*
X83185000Y-13335000D03*
X52705000Y-28575000D03*
X80645000Y-13335000D03*
X55245000Y-28575000D03*
X78105000Y-13335000D03*
X57785000Y-28575000D03*
X75565000Y-13335000D03*
X60325000Y-28575000D03*
X73025000Y-13335000D03*
X62865000Y-28575000D03*
X70485000Y-13335000D03*
X65405000Y-28575000D03*
X67945000Y-13335000D03*
X67945000Y-28575000D03*
X65405000Y-13335000D03*
X70485000Y-28575000D03*
X62865000Y-13335000D03*
X73025000Y-28575000D03*
X60325000Y-13335000D03*
X75565000Y-28575000D03*
X57785000Y-13335000D03*
X78105000Y-28575000D03*
X55245000Y-13335000D03*
X80645000Y-28575000D03*
X52705000Y-13335000D03*
X83185000Y-28575000D03*
X50165000Y-13335000D03*
X31750000Y-37465000D03*
X13970000Y-29845000D03*
X29210000Y-37465000D03*
X16510000Y-29845000D03*
X26670000Y-37465000D03*
X19050000Y-29845000D03*
X24130000Y-37465000D03*
X21590000Y-29845000D03*
X21590000Y-37465000D03*
X24130000Y-29845000D03*
X19050000Y-37465000D03*
X26670000Y-29845000D03*
X16510000Y-37465000D03*
X29210000Y-29845000D03*
X13970000Y-37465000D03*
D19*
X31750000Y-29845000D03*
X31750000Y-46355000D03*
D18*
X13970000Y-53975000D03*
X29210000Y-46355000D03*
X16510000Y-53975000D03*
X26670000Y-46355000D03*
X19050000Y-53975000D03*
X24130000Y-46355000D03*
X21590000Y-53975000D03*
X21590000Y-46355000D03*
X24130000Y-53975000D03*
X19050000Y-46355000D03*
X26670000Y-53975000D03*
X16510000Y-46355000D03*
X29210000Y-53975000D03*
X13970000Y-46355000D03*
X31750000Y-53975000D03*
X31750000Y-71755000D03*
X13970000Y-64135000D03*
X29210000Y-71755000D03*
X16510000Y-64135000D03*
X26670000Y-71755000D03*
X19050000Y-64135000D03*
X24130000Y-71755000D03*
X21590000Y-64135000D03*
X21590000Y-71755000D03*
X24130000Y-64135000D03*
X19050000Y-71755000D03*
X26670000Y-64135000D03*
X16510000Y-71755000D03*
X29210000Y-64135000D03*
X13970000Y-71755000D03*
D19*
X31750000Y-64135000D03*
D24*
X85090000Y-32385000D03*
X81915000Y-80645000D03*
X81915000Y-92075000D03*
X85725000Y-80645000D03*
X85725000Y-89535000D03*
X89535000Y-79375000D03*
X89535000Y-86995000D03*
X51435000Y-33020000D03*
X70485000Y-33655000D03*
X37465000Y-54610000D03*
X37465000Y-65405000D03*
X39370000Y-56515000D03*
X39370000Y-64135000D03*
X31750000Y-40005000D03*
X24130000Y-42545000D03*
D25*
X16510000Y-10795000D02*
X13970000Y-10795000D01*
X43785000Y-25905000D02*
X45720000Y-23970000D01*
X43785000Y-51435000D02*
X43785000Y-25905000D01*
X20955000Y-35560000D02*
X21590000Y-36195000D01*
X10795000Y-35560000D02*
X20955000Y-35560000D01*
X21590000Y-36195000D02*
X21590000Y-37465000D01*
X2540000Y-33020000D02*
X8255000Y-33020000D01*
X8255000Y-33020000D02*
X10795000Y-35560000D01*
X26670000Y-34925000D02*
X26670000Y-37465000D01*
X11430000Y-34290000D02*
X26035000Y-34290000D01*
X7620000Y-30480000D02*
X11430000Y-34290000D01*
X26035000Y-34290000D02*
X26670000Y-34925000D01*
X2540000Y-30480000D02*
X7620000Y-30480000D01*
X26670000Y-32385000D02*
X26670000Y-29845000D01*
X26035000Y-33020000D02*
X26670000Y-32385000D01*
X12065000Y-33020000D02*
X26035000Y-33020000D01*
X8890000Y-29845000D02*
X12065000Y-33020000D01*
X6985000Y-27940000D02*
X8890000Y-29845000D01*
X2540000Y-27940000D02*
X6985000Y-27940000D01*
X6350000Y-25400000D02*
X2540000Y-25400000D01*
X12700000Y-31750000D02*
X6350000Y-25400000D01*
X20955000Y-31750000D02*
X12700000Y-31750000D01*
X21590000Y-31115000D02*
X20955000Y-31750000D01*
X21590000Y-29845000D02*
X21590000Y-31115000D01*
X21590000Y-16510000D02*
X21590000Y-18415000D01*
X20955000Y-15875000D02*
X21590000Y-16510000D01*
X13335000Y-15875000D02*
X20955000Y-15875000D01*
X6350000Y-22860000D02*
X13335000Y-15875000D01*
X2540000Y-22860000D02*
X6350000Y-22860000D01*
X25400000Y-14605000D02*
X26670000Y-15875000D01*
X26670000Y-15875000D02*
X26670000Y-18415000D01*
X6985000Y-20320000D02*
X12700000Y-14605000D01*
X12700000Y-14605000D02*
X25400000Y-14605000D01*
X2540000Y-20320000D02*
X6985000Y-20320000D01*
X26670000Y-12700000D02*
X26670000Y-10795000D01*
X26035000Y-13335000D02*
X26670000Y-12700000D01*
X12065000Y-13335000D02*
X26035000Y-13335000D01*
X7620000Y-17780000D02*
X12065000Y-13335000D01*
X2540000Y-17780000D02*
X7620000Y-17780000D01*
X13335000Y-8255000D02*
X20955000Y-8255000D01*
X11430000Y-10160000D02*
X13335000Y-8255000D01*
X20955000Y-8255000D02*
X21590000Y-8890000D01*
X11430000Y-12065000D02*
X11430000Y-10160000D01*
X8255000Y-15240000D02*
X11430000Y-12065000D01*
X21590000Y-8890000D02*
X21590000Y-10795000D01*
X2540000Y-15240000D02*
X8255000Y-15240000D01*
X21590000Y-47625000D02*
X21590000Y-46355000D01*
X20955000Y-48260000D02*
X21590000Y-47625000D01*
X13335000Y-48260000D02*
X20955000Y-48260000D01*
X5715000Y-40640000D02*
X13335000Y-48260000D01*
X2540000Y-40640000D02*
X5715000Y-40640000D01*
X26670000Y-48260000D02*
X26670000Y-46355000D01*
X25400000Y-49530000D02*
X26670000Y-48260000D01*
X6350000Y-43180000D02*
X12700000Y-49530000D01*
X12700000Y-49530000D02*
X25400000Y-49530000D01*
X2540000Y-43180000D02*
X6350000Y-43180000D01*
X25400000Y-50800000D02*
X26670000Y-52070000D01*
X12065000Y-50800000D02*
X25400000Y-50800000D01*
X6985000Y-45720000D02*
X12065000Y-50800000D01*
X26670000Y-52070000D02*
X26670000Y-53975000D01*
X2540000Y-45720000D02*
X6985000Y-45720000D01*
X21590000Y-52705000D02*
X21590000Y-53975000D01*
X20955000Y-52070000D02*
X21590000Y-52705000D01*
X11430000Y-52070000D02*
X20955000Y-52070000D01*
X7620000Y-48260000D02*
X11430000Y-52070000D01*
X2540000Y-48260000D02*
X7620000Y-48260000D01*
X21590000Y-65405000D02*
X21590000Y-64135000D01*
X20955000Y-66040000D02*
X21590000Y-65405000D01*
X11430000Y-53975000D02*
X11430000Y-65405000D01*
X12065000Y-66040000D02*
X20955000Y-66040000D01*
X8255000Y-50800000D02*
X11430000Y-53975000D01*
X11430000Y-65405000D02*
X12065000Y-66040000D01*
X2540000Y-50800000D02*
X8255000Y-50800000D01*
X26670000Y-66675000D02*
X26670000Y-64135000D01*
X26035000Y-67310000D02*
X26670000Y-66675000D01*
X11430000Y-67310000D02*
X26035000Y-67310000D01*
X10160000Y-66040000D02*
X11430000Y-67310000D01*
X8255000Y-53340000D02*
X10160000Y-55245000D01*
X10160000Y-55245000D02*
X10160000Y-66040000D01*
X2540000Y-53340000D02*
X8255000Y-53340000D01*
X7620000Y-55880000D02*
X2540000Y-55880000D01*
X8890000Y-57150000D02*
X7620000Y-55880000D01*
X8890000Y-66675000D02*
X8890000Y-57150000D01*
X26035000Y-68580000D02*
X10795000Y-68580000D01*
X10795000Y-68580000D02*
X8890000Y-66675000D01*
X26670000Y-69215000D02*
X26035000Y-68580000D01*
X26670000Y-71755000D02*
X26670000Y-69215000D01*
X21590000Y-70485000D02*
X21590000Y-71755000D01*
X20955000Y-69850000D02*
X21590000Y-70485000D01*
X10160000Y-69850000D02*
X20955000Y-69850000D01*
X7620000Y-59055000D02*
X7620000Y-67310000D01*
X6985000Y-58420000D02*
X7620000Y-59055000D01*
X7620000Y-67310000D02*
X10160000Y-69850000D01*
X2540000Y-58420000D02*
X6985000Y-58420000D01*
X73025000Y-36195000D02*
X73025000Y-33020000D01*
X73025000Y-33020000D02*
X71755000Y-31750000D01*
X71755000Y-31750000D02*
X71755000Y-26035000D01*
X73025000Y-24765000D02*
X73025000Y-13335000D01*
X71755000Y-26035000D02*
X73025000Y-24765000D01*
X85090000Y-32385000D02*
X85090000Y-32385000D01*
X85725000Y-33020000D02*
X85090000Y-32385000D01*
X85725000Y-57150000D02*
X85725000Y-33020000D01*
X95250000Y-66675000D02*
X85725000Y-57150000D01*
X95250000Y-84455000D02*
X95250000Y-66675000D01*
X85090000Y-92075000D02*
X87630000Y-92075000D01*
X79375000Y-97790000D02*
X85090000Y-92075000D01*
X14605000Y-97790000D02*
X79375000Y-97790000D01*
X2540000Y-85725000D02*
X14605000Y-97790000D01*
X87630000Y-92075000D02*
X95250000Y-84455000D01*
X2540000Y-83820000D02*
X2540000Y-85725000D01*
X75565000Y-36195000D02*
X75565000Y-33020000D01*
X75565000Y-33020000D02*
X74295000Y-31750000D01*
X74295000Y-31750000D02*
X74295000Y-26035000D01*
X75565000Y-24765000D02*
X75565000Y-13335000D01*
X74295000Y-26035000D02*
X75565000Y-24765000D01*
X81915000Y-62865000D02*
X81915000Y-80645000D01*
X81915000Y-62230000D02*
X81915000Y-62865000D01*
X74295000Y-45085000D02*
X74295000Y-54610000D01*
X74295000Y-54610000D02*
X81915000Y-62230000D01*
X75565000Y-43815000D02*
X74295000Y-45085000D01*
X75565000Y-36195000D02*
X75565000Y-43815000D01*
X4445000Y-81280000D02*
X2540000Y-81280000D01*
X4762500Y-86042500D02*
X4762500Y-81597500D01*
X15240000Y-96520000D02*
X4762500Y-86042500D01*
X4762500Y-81597500D02*
X4445000Y-81280000D01*
X77470000Y-96520000D02*
X15240000Y-96520000D01*
X81915000Y-92075000D02*
X77470000Y-96520000D01*
X78105000Y-36195000D02*
X78105000Y-33020000D01*
X78105000Y-33020000D02*
X76835000Y-31750000D01*
X76835000Y-31750000D02*
X76835000Y-26035000D01*
X78105000Y-24765000D02*
X78105000Y-13335000D01*
X76835000Y-26035000D02*
X78105000Y-24765000D01*
X85725000Y-80645000D02*
X85725000Y-80645000D01*
X85725000Y-63500000D02*
X85725000Y-80645000D01*
X76835000Y-46355000D02*
X76835000Y-54610000D01*
X78105000Y-45085000D02*
X76835000Y-46355000D01*
X76835000Y-54610000D02*
X85725000Y-63500000D01*
X78105000Y-36195000D02*
X78105000Y-45085000D01*
X5080000Y-78740000D02*
X4445000Y-78740000D01*
X5715000Y-79375000D02*
X5080000Y-78740000D01*
X5715000Y-85090000D02*
X5715000Y-79375000D01*
X15875000Y-95250000D02*
X5715000Y-85090000D01*
X75565000Y-95250000D02*
X15875000Y-95250000D01*
X4445000Y-78740000D02*
X2540000Y-78740000D01*
X81280000Y-89535000D02*
X75565000Y-95250000D01*
X85725000Y-89535000D02*
X81280000Y-89535000D01*
X80645000Y-36195000D02*
X80645000Y-33020000D01*
X79305010Y-31680010D02*
X79305010Y-26104990D01*
X80645000Y-33020000D02*
X79305010Y-31680010D01*
X80645000Y-24765000D02*
X80645000Y-13335000D01*
X79305010Y-26104990D02*
X80645000Y-24765000D01*
X89535000Y-79375000D02*
X89535000Y-79375000D01*
X89535000Y-65405000D02*
X89535000Y-79375000D01*
X89535000Y-64770000D02*
X89535000Y-65405000D01*
X79375000Y-54610000D02*
X89535000Y-64770000D01*
X79375000Y-47625000D02*
X79375000Y-54610000D01*
X80645000Y-46355000D02*
X79375000Y-47625000D01*
X80645000Y-36195000D02*
X80645000Y-46355000D01*
X5715000Y-76200000D02*
X2540000Y-76200000D01*
X6667500Y-84137500D02*
X6667500Y-77152500D01*
X16510000Y-93980000D02*
X6667500Y-84137500D01*
X74930000Y-93980000D02*
X16510000Y-93980000D01*
X81280000Y-87630000D02*
X74930000Y-93980000D01*
X88900000Y-87630000D02*
X81280000Y-87630000D01*
X6667500Y-77152500D02*
X5715000Y-76200000D01*
X89535000Y-86995000D02*
X88900000Y-87630000D01*
X83185000Y-13335000D02*
X83185000Y-24765000D01*
X81984990Y-25965010D02*
X81984990Y-31819990D01*
X83185000Y-24765000D02*
X81984990Y-25965010D01*
X83185000Y-33020000D02*
X83185000Y-36195000D01*
X81984990Y-31819990D02*
X83185000Y-33020000D01*
X83185000Y-47625000D02*
X83185000Y-36195000D01*
X81915000Y-48895000D02*
X83185000Y-47625000D01*
X81915000Y-54610000D02*
X81915000Y-48895000D01*
X93345000Y-80010000D02*
X93345000Y-66040000D01*
X86995000Y-86360000D02*
X93345000Y-80010000D01*
X80645000Y-86360000D02*
X86995000Y-86360000D01*
X93345000Y-66040000D02*
X81915000Y-54610000D01*
X7620000Y-74930000D02*
X7620000Y-83185000D01*
X7620000Y-83185000D02*
X17145000Y-92710000D01*
X6350000Y-73660000D02*
X7620000Y-74930000D01*
X74295000Y-92710000D02*
X80645000Y-86360000D01*
X17145000Y-92710000D02*
X74295000Y-92710000D01*
X2540000Y-73660000D02*
X6350000Y-73660000D01*
X80645000Y-48260000D02*
X80645000Y-51435000D01*
X81915000Y-46990000D02*
X80645000Y-48260000D01*
X81915000Y-33020000D02*
X81915000Y-46990000D01*
X80645000Y-31750000D02*
X81915000Y-33020000D01*
X80645000Y-28575000D02*
X80645000Y-31750000D01*
X5715000Y-71120000D02*
X2540000Y-71120000D01*
X8890000Y-74295000D02*
X5715000Y-71120000D01*
X17780000Y-91440000D02*
X8890000Y-82550000D01*
X80010000Y-85090000D02*
X73660000Y-91440000D01*
X86360000Y-85090000D02*
X80010000Y-85090000D01*
X91440000Y-80010000D02*
X86360000Y-85090000D01*
X73660000Y-91440000D02*
X17780000Y-91440000D01*
X91440000Y-65405000D02*
X91440000Y-80010000D01*
X80645000Y-54610000D02*
X91440000Y-65405000D01*
X8890000Y-82550000D02*
X8890000Y-74295000D01*
X80645000Y-51435000D02*
X80645000Y-54610000D01*
X78105000Y-46990000D02*
X78105000Y-51435000D01*
X79375000Y-45720000D02*
X78105000Y-46990000D01*
X79375000Y-33020000D02*
X79375000Y-45720000D01*
X78105000Y-31750000D02*
X79375000Y-33020000D01*
X78105000Y-28575000D02*
X78105000Y-31750000D01*
X10160000Y-73660000D02*
X5080000Y-68580000D01*
X10160000Y-81915000D02*
X10160000Y-73660000D01*
X18415000Y-90170000D02*
X10160000Y-81915000D01*
X79375000Y-83820000D02*
X73025000Y-90170000D01*
X5080000Y-68580000D02*
X2540000Y-68580000D01*
X73025000Y-90170000D02*
X18415000Y-90170000D01*
X87630000Y-81915000D02*
X85725000Y-83820000D01*
X87630000Y-64135000D02*
X87630000Y-81915000D01*
X85725000Y-83820000D02*
X79375000Y-83820000D01*
X78105000Y-54610000D02*
X87630000Y-64135000D01*
X78105000Y-51435000D02*
X78105000Y-54610000D01*
X75565000Y-45720000D02*
X75565000Y-51435000D01*
X76835000Y-44450000D02*
X75565000Y-45720000D01*
X76835000Y-33020000D02*
X76835000Y-44450000D01*
X75565000Y-31750000D02*
X76835000Y-33020000D01*
X75565000Y-28575000D02*
X75565000Y-31750000D01*
X4445000Y-66040000D02*
X2540000Y-66040000D01*
X11430000Y-73025000D02*
X4445000Y-66040000D01*
X19050000Y-88900000D02*
X11430000Y-81280000D01*
X72390000Y-88900000D02*
X19050000Y-88900000D01*
X78740000Y-82550000D02*
X72390000Y-88900000D01*
X83185000Y-82550000D02*
X78740000Y-82550000D01*
X11430000Y-81280000D02*
X11430000Y-73025000D01*
X83820000Y-81915000D02*
X83185000Y-82550000D01*
X83820000Y-62865000D02*
X83820000Y-81915000D01*
X75565000Y-54610000D02*
X83820000Y-62865000D01*
X75565000Y-51435000D02*
X75565000Y-54610000D01*
X65405000Y-36195000D02*
X65405000Y-33020000D01*
X65405000Y-33020000D02*
X64135000Y-31750000D01*
X64135000Y-31750000D02*
X64135000Y-26035000D01*
X65405000Y-24765000D02*
X65405000Y-13335000D01*
X64135000Y-26035000D02*
X65405000Y-24765000D01*
X65405000Y-38735000D02*
X65405000Y-36195000D01*
X64135000Y-40005000D02*
X65405000Y-38735000D01*
X54610000Y-57150000D02*
X56515000Y-55245000D01*
X54610000Y-65405000D02*
X54610000Y-57150000D01*
X62865000Y-55245000D02*
X64135000Y-53975000D01*
X64135000Y-53975000D02*
X64135000Y-40005000D01*
X56515000Y-55245000D02*
X62865000Y-55245000D01*
X51435000Y-31750000D02*
X51435000Y-31750000D01*
X51435000Y-26035000D02*
X51435000Y-31750000D01*
X52705000Y-24765000D02*
X51435000Y-26035000D01*
X52705000Y-13335000D02*
X52705000Y-24765000D01*
X51435000Y-31750000D02*
X48925000Y-31750000D01*
X51435000Y-31750000D02*
X51435000Y-33020000D01*
D26*
X29210000Y-64135000D02*
X29210000Y-61595000D01*
X29210000Y-61595000D02*
X28575000Y-60960000D01*
X28575000Y-60960000D02*
X19685000Y-60960000D01*
X19050000Y-61595000D02*
X19050000Y-64135000D01*
X19685000Y-60960000D02*
X19050000Y-61595000D01*
D25*
X13970000Y-18415000D02*
X13970000Y-22225000D01*
X13970000Y-22225000D02*
X16510000Y-24765000D01*
X16510000Y-24765000D02*
X16510000Y-29845000D01*
X13970000Y-37465000D02*
X13970000Y-41910000D01*
X16510000Y-44450000D02*
X16510000Y-46355000D01*
X13970000Y-41910000D02*
X16510000Y-44450000D01*
X13970000Y-53975000D02*
X13970000Y-57785000D01*
X16510000Y-60325000D02*
X16510000Y-64135000D01*
X13970000Y-57785000D02*
X16510000Y-60325000D01*
X75565000Y-73025000D02*
X75565000Y-75565000D01*
D26*
X76835000Y-64135000D02*
X78105000Y-65405000D01*
X78105000Y-65405000D02*
X78105000Y-71755000D01*
X78105000Y-71755000D02*
X76835000Y-73025000D01*
X76835000Y-73025000D02*
X75565000Y-73025000D01*
D25*
X16510000Y-74295000D02*
X16510000Y-71755000D01*
X17780000Y-75565000D02*
X16510000Y-74295000D01*
X34925000Y-75565000D02*
X17780000Y-75565000D01*
X72390000Y-64135000D02*
X71120000Y-62865000D01*
X76835000Y-64135000D02*
X72390000Y-64135000D01*
X43180000Y-83820000D02*
X34925000Y-75565000D01*
X70485000Y-83820000D02*
X43180000Y-83820000D01*
X75565000Y-78740000D02*
X70485000Y-83820000D01*
X75565000Y-75565000D02*
X75565000Y-78740000D01*
X67945000Y-62865000D02*
X71120000Y-62865000D01*
X70485000Y-26035000D02*
X70485000Y-28575000D01*
X71755000Y-8255000D02*
X71755000Y-24765000D01*
X71755000Y-24765000D02*
X70485000Y-26035000D01*
X65087500Y-1587500D02*
X71755000Y-8255000D01*
X38417500Y-1587500D02*
X65087500Y-1587500D01*
X31750000Y-8255000D02*
X38417500Y-1587500D01*
X31750000Y-10795000D02*
X31750000Y-8255000D01*
X70485000Y-43180000D02*
X70485000Y-51435000D01*
X71755000Y-41910000D02*
X70485000Y-43180000D01*
X71755000Y-33020000D02*
X71755000Y-41910000D01*
X70485000Y-31750000D02*
X71755000Y-33020000D01*
X70485000Y-28575000D02*
X70485000Y-31750000D01*
X65405000Y-31750000D02*
X65405000Y-28575000D01*
X66675000Y-33020000D02*
X65405000Y-31750000D01*
X66675000Y-39370000D02*
X66675000Y-33020000D01*
X65405000Y-40640000D02*
X66675000Y-39370000D01*
X65405000Y-51435000D02*
X65405000Y-40640000D01*
X66675000Y-24765000D02*
X65405000Y-26035000D01*
X61912500Y-3492500D02*
X66675000Y-8255000D01*
X65405000Y-26035000D02*
X65405000Y-28575000D01*
X66675000Y-8255000D02*
X66675000Y-24765000D01*
X34925000Y-8890000D02*
X40322500Y-3492500D01*
X16510000Y-20955000D02*
X17938750Y-22383750D01*
X40322500Y-3492500D02*
X61912500Y-3492500D01*
X16510000Y-18415000D02*
X16510000Y-20955000D01*
X32226250Y-22383750D02*
X34925000Y-19685000D01*
X34925000Y-19685000D02*
X34925000Y-8890000D01*
X17938750Y-22383750D02*
X32226250Y-22383750D01*
X73025000Y-26035000D02*
X73025000Y-28575000D01*
X74295000Y-24765000D02*
X73025000Y-26035000D01*
X66675000Y-635000D02*
X74295000Y-8255000D01*
X37782500Y-635000D02*
X66675000Y-635000D01*
X30321250Y-8096250D02*
X37782500Y-635000D01*
X74295000Y-8255000D02*
X74295000Y-24765000D01*
X24923750Y-8096250D02*
X30321250Y-8096250D01*
X24130000Y-8890000D02*
X24923750Y-8096250D01*
X24130000Y-10795000D02*
X24130000Y-8890000D01*
X74295000Y-43180000D02*
X73025000Y-44450000D01*
X73025000Y-44450000D02*
X73025000Y-51435000D01*
X74295000Y-33020000D02*
X74295000Y-43180000D01*
X73025000Y-31750000D02*
X74295000Y-33020000D01*
X73025000Y-28575000D02*
X73025000Y-31750000D01*
X67945000Y-26035000D02*
X67945000Y-28575000D01*
X69215000Y-24765000D02*
X67945000Y-26035000D01*
X69215000Y-8255000D02*
X69215000Y-24765000D01*
X39370000Y-2540000D02*
X63500000Y-2540000D01*
X33655000Y-8255000D02*
X39370000Y-2540000D01*
X24130000Y-20320000D02*
X24765000Y-20955000D01*
X63500000Y-2540000D02*
X69215000Y-8255000D01*
X24130000Y-18415000D02*
X24130000Y-20320000D01*
X67945000Y-41910000D02*
X67945000Y-51435000D01*
X69215000Y-40640000D02*
X67945000Y-41910000D01*
X69215000Y-33020000D02*
X69215000Y-40640000D01*
X67945000Y-31750000D02*
X69215000Y-33020000D01*
X67945000Y-28575000D02*
X67945000Y-31750000D01*
X32385000Y-20955000D02*
X33655000Y-19685000D01*
X33655000Y-19685000D02*
X33655000Y-8255000D01*
X24765000Y-20955000D02*
X32385000Y-20955000D01*
X46355000Y-31720000D02*
X46325000Y-31750000D01*
X46355000Y-28575000D02*
X46355000Y-31720000D01*
X46355000Y-28575000D02*
X50165000Y-28575000D01*
X46325000Y-31750000D02*
X46325000Y-46960000D01*
X46355000Y-46990000D02*
X46325000Y-46960000D01*
X46385000Y-47020000D02*
X46355000Y-46990000D01*
X46385000Y-48230000D02*
X46385000Y-47020000D01*
X46385000Y-51435000D02*
X46385000Y-48230000D01*
X46385000Y-48230000D02*
X46385000Y-47595000D01*
X24765000Y-74295000D02*
X24130000Y-73660000D01*
X35560000Y-72390000D02*
X33655000Y-74295000D01*
X33655000Y-74295000D02*
X24765000Y-74295000D01*
X36195000Y-61595000D02*
X35560000Y-62230000D01*
X43815000Y-61595000D02*
X36195000Y-61595000D01*
X51435000Y-53975000D02*
X43815000Y-61595000D01*
X24130000Y-73660000D02*
X24130000Y-71755000D01*
X51435000Y-48895000D02*
X51435000Y-53975000D01*
X35560000Y-62230000D02*
X35560000Y-72390000D01*
X46385000Y-48230000D02*
X50770000Y-48230000D01*
X50800000Y-48260000D02*
X51435000Y-48895000D01*
X50770000Y-48230000D02*
X50800000Y-48260000D01*
X53975000Y-42545000D02*
X52705000Y-43815000D01*
X53975000Y-33020000D02*
X53975000Y-42545000D01*
X52705000Y-43815000D02*
X52705000Y-51435000D01*
X52705000Y-31750000D02*
X53975000Y-33020000D01*
X52705000Y-28575000D02*
X52705000Y-31750000D01*
X24130000Y-62865000D02*
X24130000Y-64135000D01*
X24765000Y-62230000D02*
X24130000Y-62865000D01*
X27305000Y-62230000D02*
X24765000Y-62230000D01*
X27940000Y-62865000D02*
X27305000Y-62230000D01*
X27940000Y-65405000D02*
X27940000Y-62865000D01*
X28575000Y-66040000D02*
X27940000Y-65405000D01*
X34290000Y-65405000D02*
X33655000Y-66040000D01*
X52705000Y-28575000D02*
X52705000Y-26035000D01*
X33655000Y-66040000D02*
X28575000Y-66040000D01*
X42545000Y-23495000D02*
X42545000Y-53340000D01*
X52705000Y-26035000D02*
X53975000Y-24765000D01*
X35560000Y-60325000D02*
X34290000Y-61595000D01*
X53975000Y-24765000D02*
X53975000Y-11430000D01*
X53975000Y-11430000D02*
X51435000Y-11430000D01*
X51435000Y-11430000D02*
X51435000Y-14605000D01*
X34290000Y-61595000D02*
X34290000Y-65405000D01*
X51435000Y-14605000D02*
X42545000Y-23495000D01*
X42545000Y-53340000D02*
X43180000Y-53975000D01*
X40640000Y-60325000D02*
X43180000Y-57785000D01*
X43180000Y-53975000D02*
X43180000Y-57785000D01*
X40640000Y-60325000D02*
X35560000Y-60325000D01*
X56515000Y-42545000D02*
X55245000Y-43815000D01*
X56515000Y-33020000D02*
X56515000Y-42545000D01*
X55245000Y-43815000D02*
X55245000Y-51435000D01*
X55245000Y-31750000D02*
X56515000Y-33020000D01*
X55245000Y-28575000D02*
X55245000Y-31750000D01*
X55245000Y-26035000D02*
X55245000Y-28575000D01*
X56515000Y-24765000D02*
X55245000Y-26035000D01*
X16510000Y-41910000D02*
X19050000Y-44450000D01*
X19050000Y-44450000D02*
X25400000Y-44450000D01*
X25400000Y-44450000D02*
X25717500Y-44132500D01*
X25717500Y-44132500D02*
X36512500Y-44132500D01*
X42545000Y-19685000D02*
X42545000Y-12700000D01*
X36512500Y-44132500D02*
X38735000Y-41910000D01*
X38735000Y-41910000D02*
X38735000Y-23495000D01*
X38735000Y-23495000D02*
X42545000Y-19685000D01*
X16510000Y-37465000D02*
X16510000Y-41910000D01*
X56515000Y-10160000D02*
X56515000Y-24765000D01*
X42545000Y-12700000D02*
X46037500Y-9207500D01*
X55562500Y-9207500D02*
X56515000Y-10160000D01*
X46037500Y-9207500D02*
X55562500Y-9207500D01*
X57785000Y-31750000D02*
X57785000Y-28575000D01*
X59055000Y-33020000D02*
X57785000Y-31750000D01*
X59055000Y-38100000D02*
X59055000Y-33020000D01*
X57785000Y-39370000D02*
X59055000Y-38100000D01*
X57785000Y-51435000D02*
X57785000Y-39370000D01*
X59055000Y-8890000D02*
X59055000Y-24765000D01*
X44132500Y-7302500D02*
X57467500Y-7302500D01*
X40005000Y-11430000D02*
X44132500Y-7302500D01*
X40005000Y-19685000D02*
X40005000Y-11430000D01*
X36195000Y-23495000D02*
X40005000Y-19685000D01*
X57467500Y-7302500D02*
X59055000Y-8890000D01*
X34925000Y-41910000D02*
X36195000Y-40640000D01*
X57785000Y-26035000D02*
X57785000Y-28575000D01*
X36195000Y-40640000D02*
X36195000Y-23495000D01*
X26670000Y-41910000D02*
X34925000Y-41910000D01*
X59055000Y-24765000D02*
X57785000Y-26035000D01*
X24130000Y-39370000D02*
X26670000Y-41910000D01*
X24130000Y-37465000D02*
X24130000Y-39370000D01*
X60325000Y-31750000D02*
X60325000Y-28575000D01*
X61595000Y-33020000D02*
X60325000Y-31750000D01*
X60325000Y-38735000D02*
X61595000Y-37465000D01*
X61595000Y-37465000D02*
X61595000Y-33020000D01*
X60325000Y-51435000D02*
X60325000Y-38735000D01*
X61595000Y-24765000D02*
X60325000Y-26035000D01*
X61595000Y-7620000D02*
X61595000Y-24765000D01*
X59372500Y-5397500D02*
X61595000Y-7620000D01*
X60325000Y-26035000D02*
X60325000Y-28575000D01*
X42227500Y-5397500D02*
X59372500Y-5397500D01*
X37465000Y-10160000D02*
X42227500Y-5397500D01*
X37465000Y-19685000D02*
X37465000Y-10160000D01*
X31750000Y-25400000D02*
X37465000Y-19685000D01*
X31750000Y-29845000D02*
X31750000Y-25400000D01*
X64135000Y-33020000D02*
X62865000Y-31750000D01*
X64135000Y-38100000D02*
X64135000Y-33020000D01*
X62865000Y-31750000D02*
X62865000Y-28575000D01*
X62865000Y-39370000D02*
X64135000Y-38100000D01*
X62865000Y-51435000D02*
X62865000Y-39370000D01*
X28892500Y-26987500D02*
X25082500Y-26987500D01*
X36195000Y-9525000D02*
X36195000Y-19685000D01*
X41275000Y-4445000D02*
X36195000Y-9525000D01*
X60325000Y-4445000D02*
X41275000Y-4445000D01*
X64135000Y-8255000D02*
X60325000Y-4445000D01*
X25082500Y-26987500D02*
X24130000Y-27940000D01*
X64135000Y-24765000D02*
X64135000Y-8255000D01*
X36195000Y-19685000D02*
X28892500Y-26987500D01*
X62865000Y-26035000D02*
X64135000Y-24765000D01*
X24130000Y-27940000D02*
X24130000Y-29845000D01*
X62865000Y-28575000D02*
X62865000Y-26035000D01*
D26*
X70485000Y-13335000D02*
X70485000Y-22860000D01*
D25*
X69215000Y-31750000D02*
X70485000Y-33020000D01*
X70485000Y-33020000D02*
X70485000Y-33655000D01*
X69215000Y-26035000D02*
X69215000Y-31750000D01*
X70485000Y-24765000D02*
X69215000Y-26035000D01*
X70485000Y-22860000D02*
X70485000Y-24765000D01*
X67945000Y-24765000D02*
X67945000Y-13335000D01*
X66675000Y-31750000D02*
X66675000Y-26035000D01*
X67945000Y-33020000D02*
X66675000Y-31750000D01*
X66675000Y-26035000D02*
X67945000Y-24765000D01*
X67945000Y-36195000D02*
X67945000Y-33020000D01*
X33655000Y-56515000D02*
X24765000Y-56515000D01*
X24130000Y-55880000D02*
X24130000Y-53975000D01*
X24765000Y-56515000D02*
X24130000Y-55880000D01*
X67945000Y-40005000D02*
X66675000Y-41275000D01*
X67945000Y-36195000D02*
X67945000Y-40005000D01*
X57785000Y-57785000D02*
X57150000Y-58420000D01*
X57150000Y-58420000D02*
X57150000Y-67945000D01*
X57150000Y-67945000D02*
X56515000Y-68580000D01*
X56515000Y-68580000D02*
X39370000Y-68580000D01*
X39370000Y-68580000D02*
X37465000Y-66675000D01*
X37465000Y-66675000D02*
X37465000Y-65405000D01*
X33655000Y-56515000D02*
X35560000Y-56515000D01*
X35560000Y-56515000D02*
X37465000Y-54610000D01*
X37465000Y-54610000D02*
X37465000Y-54610000D01*
X37465000Y-65405000D02*
X37465000Y-65405000D01*
X63500000Y-57785000D02*
X66675000Y-54610000D01*
X66675000Y-41275000D02*
X66675000Y-54610000D01*
X63500000Y-57785000D02*
X57785000Y-57785000D01*
X62865000Y-24765000D02*
X62865000Y-13335000D01*
X61595000Y-26035000D02*
X62865000Y-24765000D01*
X61595000Y-31750000D02*
X61595000Y-26035000D01*
X62865000Y-33020000D02*
X61595000Y-31750000D01*
X62865000Y-36195000D02*
X62865000Y-33020000D01*
X41910000Y-62865000D02*
X40640000Y-64135000D01*
X45085000Y-62865000D02*
X41910000Y-62865000D01*
X60960000Y-53975000D02*
X53975000Y-53975000D01*
X61595000Y-53340000D02*
X60960000Y-53975000D01*
X61595000Y-39370000D02*
X61595000Y-53340000D01*
X40640000Y-64135000D02*
X39370000Y-64135000D01*
X53975000Y-53975000D02*
X45085000Y-62865000D01*
X62865000Y-38100000D02*
X61595000Y-39370000D01*
X62865000Y-36195000D02*
X62865000Y-38100000D01*
X16510000Y-57150000D02*
X16510000Y-53975000D01*
X17145000Y-57785000D02*
X16510000Y-57150000D01*
X38100000Y-57785000D02*
X17145000Y-57785000D01*
X39370000Y-56515000D02*
X38100000Y-57785000D01*
X60325000Y-13335000D02*
X60325000Y-24765000D01*
X60325000Y-24765000D02*
X59055000Y-26035000D01*
X59055000Y-26035000D02*
X59055000Y-31750000D01*
X59055000Y-31750000D02*
X60325000Y-33020000D01*
X60325000Y-33020000D02*
X60325000Y-36195000D01*
X31750000Y-40005000D02*
X31750000Y-40005000D01*
X43180000Y-6350000D02*
X58420000Y-6350000D01*
X60325000Y-9525000D02*
X60325000Y-13335000D01*
X60325000Y-8255000D02*
X60325000Y-9525000D01*
X38735000Y-10795000D02*
X43180000Y-6350000D01*
X58420000Y-6350000D02*
X60325000Y-8255000D01*
X38735000Y-19685000D02*
X38735000Y-10795000D01*
X34925000Y-23495000D02*
X38735000Y-19685000D01*
X34925000Y-38735000D02*
X34925000Y-23495000D01*
X33655000Y-40005000D02*
X34925000Y-38735000D01*
X31750000Y-40005000D02*
X33655000Y-40005000D01*
X57785000Y-13335000D02*
X57785000Y-24765000D01*
X57785000Y-24765000D02*
X56515000Y-26035000D01*
X56515000Y-26035000D02*
X56515000Y-31750000D01*
X56515000Y-31750000D02*
X57785000Y-33020000D01*
X57785000Y-33020000D02*
X57785000Y-36195000D01*
X24130000Y-42545000D02*
X24130000Y-42545000D01*
X57785000Y-10795000D02*
X57785000Y-13335000D01*
X57785000Y-9525000D02*
X57785000Y-10795000D01*
X56515000Y-8255000D02*
X57785000Y-9525000D01*
X45085000Y-8255000D02*
X56515000Y-8255000D01*
X41275000Y-12065000D02*
X45085000Y-8255000D01*
X41275000Y-19685000D02*
X41275000Y-12065000D01*
X37465000Y-23495000D02*
X41275000Y-19685000D01*
X37465000Y-41275000D02*
X37465000Y-23495000D01*
X26035000Y-43180000D02*
X35560000Y-43180000D01*
X25400000Y-42545000D02*
X26035000Y-43180000D01*
X35560000Y-43180000D02*
X37465000Y-41275000D01*
X24130000Y-42545000D02*
X25400000Y-42545000D01*
X53975000Y-26035000D02*
X55245000Y-24765000D01*
X53975000Y-31750000D02*
X53975000Y-26035000D01*
X55245000Y-33020000D02*
X53975000Y-31750000D01*
X55245000Y-36195000D02*
X55245000Y-33020000D01*
X55245000Y-15875000D02*
X55245000Y-13335000D01*
X55245000Y-21590000D02*
X55245000Y-15875000D01*
X55245000Y-24765000D02*
X55245000Y-21590000D01*
X31750000Y-61595000D02*
X31750000Y-64135000D01*
X41275000Y-22225000D02*
X41275000Y-53975000D01*
X34290000Y-59055000D02*
X31750000Y-61595000D01*
X48260000Y-15240000D02*
X41275000Y-22225000D01*
X48260000Y-11430000D02*
X48260000Y-15240000D01*
X49530000Y-10160000D02*
X48260000Y-11430000D01*
X54610000Y-10160000D02*
X49530000Y-10160000D01*
X55245000Y-10795000D02*
X54610000Y-10160000D01*
X55245000Y-13335000D02*
X55245000Y-10795000D01*
X41275000Y-53975000D02*
X41910000Y-54610000D01*
X40005000Y-59055000D02*
X41910000Y-57150000D01*
X41910000Y-54610000D02*
X41910000Y-57150000D01*
X40005000Y-59055000D02*
X34290000Y-59055000D01*
X67945000Y-65405000D02*
X67945000Y-67945000D01*
X75565000Y-65405000D02*
X67945000Y-65405000D01*
X67945000Y-58420000D02*
X67945000Y-60325000D01*
X69215000Y-57150000D02*
X67945000Y-58420000D01*
X69215000Y-42545000D02*
X69215000Y-57150000D01*
X70485000Y-41275000D02*
X69215000Y-42545000D01*
X70485000Y-36195000D02*
X70485000Y-41275000D01*
X75565000Y-67945000D02*
X75565000Y-70485000D01*
X52705000Y-35560000D02*
X52705000Y-36195000D01*
X51435000Y-34290000D02*
X52705000Y-35560000D01*
X47625000Y-34290000D02*
X51435000Y-34290000D01*
X47625000Y-31750000D02*
X47625000Y-34290000D01*
X45085000Y-51435000D02*
X45085000Y-53340000D01*
X45085000Y-53340000D02*
X50165000Y-53340000D01*
X50165000Y-53340000D02*
X50165000Y-51435000D01*
M02*
