%TF.GenerationSoftware,KiCad,Pcbnew,(5.1.8)-1*%
%TF.CreationDate,2023-06-16T08:46:22+03:00*%
%TF.ProjectId,MUX16bit,4d555831-3662-4697-942e-6b696361645f,rev?*%
%TF.SameCoordinates,Original*%
%TF.FileFunction,Copper,L1,Top*%
%TF.FilePolarity,Positive*%
%FSLAX46Y46*%
G04 Gerber Fmt 4.6, Leading zero omitted, Abs format (unit mm)*
G04 Created by KiCad (PCBNEW (5.1.8)-1) date 2023-06-16 08:46:22*
%MOMM*%
%LPD*%
G01*
G04 APERTURE LIST*
%TA.AperFunction,ComponentPad*%
%ADD10O,1.800000X2.000000*%
%TD*%
%TA.AperFunction,ComponentPad*%
%ADD11R,1.800000X2.000000*%
%TD*%
%TA.AperFunction,ComponentPad*%
%ADD12O,1.500000X2.000000*%
%TD*%
%TA.AperFunction,ComponentPad*%
%ADD13R,1.500000X2.000000*%
%TD*%
%TA.AperFunction,ComponentPad*%
%ADD14C,2.600000*%
%TD*%
%TA.AperFunction,ComponentPad*%
%ADD15R,2.600000X2.600000*%
%TD*%
%TA.AperFunction,ComponentPad*%
%ADD16O,2.000000X2.000000*%
%TD*%
%TA.AperFunction,ComponentPad*%
%ADD17R,2.000000X2.000000*%
%TD*%
%TA.AperFunction,ComponentPad*%
%ADD18R,1.700000X1.700000*%
%TD*%
%TA.AperFunction,ComponentPad*%
%ADD19C,1.524000*%
%TD*%
%TA.AperFunction,ComponentPad*%
%ADD20O,1.600000X1.600000*%
%TD*%
%TA.AperFunction,ComponentPad*%
%ADD21R,1.600000X1.600000*%
%TD*%
G04 APERTURE END LIST*
D10*
%TO.P,J5,17*%
%TO.N,GND*%
X160020000Y-48260000D03*
%TO.P,J5,16*%
%TO.N,/BUS0*%
X160020000Y-50800000D03*
%TO.P,J5,15*%
%TO.N,/BUS1*%
X160020000Y-53340000D03*
%TO.P,J5,14*%
%TO.N,/BUS2*%
X160020000Y-55880000D03*
%TO.P,J5,13*%
%TO.N,/BUS3*%
X160020000Y-58420000D03*
%TO.P,J5,12*%
%TO.N,/BUS4*%
X160020000Y-60960000D03*
%TO.P,J5,11*%
%TO.N,/BUS5*%
X160020000Y-63500000D03*
%TO.P,J5,10*%
%TO.N,/BUS6*%
X160020000Y-66040000D03*
%TO.P,J5,9*%
%TO.N,/BUS7*%
X160020000Y-68580000D03*
%TO.P,J5,8*%
%TO.N,/BUS8*%
X160020000Y-71120000D03*
%TO.P,J5,7*%
%TO.N,/BUS9*%
X160020000Y-73660000D03*
%TO.P,J5,6*%
%TO.N,/BUS10*%
X160020000Y-76200000D03*
%TO.P,J5,5*%
%TO.N,/BUS11*%
X160020000Y-78740000D03*
%TO.P,J5,4*%
%TO.N,/BUS12*%
X160020000Y-81280000D03*
%TO.P,J5,3*%
%TO.N,/BUS13*%
X160020000Y-83820000D03*
%TO.P,J5,2*%
%TO.N,/BUS14*%
X160020000Y-86360000D03*
D11*
%TO.P,J5,1*%
%TO.N,/BUS15*%
X160020000Y-88900000D03*
%TD*%
D12*
%TO.P,J4,17*%
%TO.N,GND*%
X88900000Y-114300000D03*
%TO.P,J4,16*%
%TO.N,/D0*%
X91440000Y-114300000D03*
%TO.P,J4,15*%
%TO.N,/D1*%
X93980000Y-114300000D03*
%TO.P,J4,14*%
%TO.N,/D2*%
X96520000Y-114300000D03*
%TO.P,J4,13*%
%TO.N,/D3*%
X99060000Y-114300000D03*
%TO.P,J4,12*%
%TO.N,/D4*%
X101600000Y-114300000D03*
%TO.P,J4,11*%
%TO.N,/D5*%
X104140000Y-114300000D03*
%TO.P,J4,10*%
%TO.N,/D6*%
X106680000Y-114300000D03*
%TO.P,J4,9*%
%TO.N,/D7*%
X109220000Y-114300000D03*
%TO.P,J4,8*%
%TO.N,/D8*%
X111760000Y-114300000D03*
%TO.P,J4,7*%
%TO.N,/D9*%
X114300000Y-114300000D03*
%TO.P,J4,6*%
%TO.N,/D10*%
X116840000Y-114300000D03*
%TO.P,J4,5*%
%TO.N,/D11*%
X119380000Y-114300000D03*
%TO.P,J4,4*%
%TO.N,/D12*%
X121920000Y-114300000D03*
%TO.P,J4,3*%
%TO.N,/D13*%
X124460000Y-114300000D03*
%TO.P,J4,2*%
%TO.N,/D14*%
X127000000Y-114300000D03*
D13*
%TO.P,J4,1*%
%TO.N,/D15*%
X129540000Y-114300000D03*
%TD*%
D12*
%TO.P,J3,17*%
%TO.N,GND*%
X88900000Y-109220000D03*
%TO.P,J3,16*%
%TO.N,/C0*%
X91440000Y-109220000D03*
%TO.P,J3,15*%
%TO.N,/C1*%
X93980000Y-109220000D03*
%TO.P,J3,14*%
%TO.N,/C2*%
X96520000Y-109220000D03*
%TO.P,J3,13*%
%TO.N,/C3*%
X99060000Y-109220000D03*
%TO.P,J3,12*%
%TO.N,/C4*%
X101600000Y-109220000D03*
%TO.P,J3,11*%
%TO.N,/C5*%
X104140000Y-109220000D03*
%TO.P,J3,10*%
%TO.N,/C6*%
X106680000Y-109220000D03*
%TO.P,J3,9*%
%TO.N,/C7*%
X109220000Y-109220000D03*
%TO.P,J3,8*%
%TO.N,/C8*%
X111760000Y-109220000D03*
%TO.P,J3,7*%
%TO.N,/C9*%
X114300000Y-109220000D03*
%TO.P,J3,6*%
%TO.N,/C10*%
X116840000Y-109220000D03*
%TO.P,J3,5*%
%TO.N,/C11*%
X119380000Y-109220000D03*
%TO.P,J3,4*%
%TO.N,/C12*%
X121920000Y-109220000D03*
%TO.P,J3,3*%
%TO.N,/C13*%
X124460000Y-109220000D03*
%TO.P,J3,2*%
%TO.N,/C14*%
X127000000Y-109220000D03*
D13*
%TO.P,J3,1*%
%TO.N,/C15*%
X129540000Y-109220000D03*
%TD*%
D12*
%TO.P,J2,17*%
%TO.N,GND*%
X88900000Y-30480000D03*
%TO.P,J2,16*%
%TO.N,/B0*%
X91440000Y-30480000D03*
%TO.P,J2,15*%
%TO.N,/B1*%
X93980000Y-30480000D03*
%TO.P,J2,14*%
%TO.N,/B2*%
X96520000Y-30480000D03*
%TO.P,J2,13*%
%TO.N,/B3*%
X99060000Y-30480000D03*
%TO.P,J2,12*%
%TO.N,/B4*%
X101600000Y-30480000D03*
%TO.P,J2,11*%
%TO.N,/B5*%
X104140000Y-30480000D03*
%TO.P,J2,10*%
%TO.N,/B6*%
X106680000Y-30480000D03*
%TO.P,J2,9*%
%TO.N,/B7*%
X109220000Y-30480000D03*
%TO.P,J2,8*%
%TO.N,/B8*%
X111760000Y-30480000D03*
%TO.P,J2,7*%
%TO.N,/B9*%
X114300000Y-30480000D03*
%TO.P,J2,6*%
%TO.N,/B10*%
X116840000Y-30480000D03*
%TO.P,J2,5*%
%TO.N,/B11*%
X119380000Y-30480000D03*
%TO.P,J2,4*%
%TO.N,/B12*%
X121920000Y-30480000D03*
%TO.P,J2,3*%
%TO.N,/B13*%
X124460000Y-30480000D03*
%TO.P,J2,2*%
%TO.N,/B14*%
X127000000Y-30480000D03*
D13*
%TO.P,J2,1*%
%TO.N,/B15*%
X129540000Y-30480000D03*
%TD*%
D12*
%TO.P,J1,17*%
%TO.N,GND*%
X88900000Y-25400000D03*
%TO.P,J1,16*%
%TO.N,/A0*%
X91440000Y-25400000D03*
%TO.P,J1,15*%
%TO.N,/A1*%
X93980000Y-25400000D03*
%TO.P,J1,14*%
%TO.N,/A2*%
X96520000Y-25400000D03*
%TO.P,J1,13*%
%TO.N,/A3*%
X99060000Y-25400000D03*
%TO.P,J1,12*%
%TO.N,/A4*%
X101600000Y-25400000D03*
%TO.P,J1,11*%
%TO.N,/A5*%
X104140000Y-25400000D03*
%TO.P,J1,10*%
%TO.N,/A6*%
X106680000Y-25400000D03*
%TO.P,J1,9*%
%TO.N,/A7*%
X109220000Y-25400000D03*
%TO.P,J1,8*%
%TO.N,/A8*%
X111760000Y-25400000D03*
%TO.P,J1,7*%
%TO.N,/A9*%
X114300000Y-25400000D03*
%TO.P,J1,6*%
%TO.N,/A10*%
X116840000Y-25400000D03*
%TO.P,J1,5*%
%TO.N,/A11*%
X119380000Y-25400000D03*
%TO.P,J1,4*%
%TO.N,/A12*%
X121920000Y-25400000D03*
%TO.P,J1,3*%
%TO.N,/A13*%
X124460000Y-25400000D03*
%TO.P,J1,2*%
%TO.N,/A14*%
X127000000Y-25400000D03*
D13*
%TO.P,J1,1*%
%TO.N,/A15*%
X129540000Y-25400000D03*
%TD*%
D14*
%TO.P,J8,2*%
%TO.N,VCC*%
X152320000Y-109220000D03*
D15*
%TO.P,J8,1*%
%TO.N,GND*%
X147320000Y-109220000D03*
%TD*%
D16*
%TO.P,J7,3*%
%TO.N,/S1*%
X135890000Y-113030000D03*
%TO.P,J7,2*%
%TO.N,/~E*%
X138430000Y-113030000D03*
D17*
%TO.P,J7,1*%
%TO.N,/S0*%
X140970000Y-113030000D03*
%TD*%
D18*
%TO.P,J6,1*%
%TO.N,/~OE*%
X160020000Y-43180000D03*
%TD*%
D19*
%TO.P,U8,15*%
%TO.N,/D14*%
X128270000Y-102870000D03*
%TO.P,U8,14*%
%TO.N,/C14*%
X128270000Y-100330000D03*
%TO.P,U8,13*%
%TO.N,/C15*%
X128270000Y-97790000D03*
%TO.P,U8,12*%
%TO.N,/D15*%
X128270000Y-95250000D03*
%TO.P,U8,11*%
%TO.N,/S1*%
X128270000Y-90170000D03*
%TO.P,U8,10*%
%TO.N,/~E*%
X128270000Y-87630000D03*
%TO.P,U8,9*%
%TO.N,/S0*%
X128270000Y-85090000D03*
%TO.P,U8,8*%
%TO.N,/O15*%
X128270000Y-80010000D03*
%TO.P,U8,7*%
%TO.N,/O14*%
X128270000Y-77470000D03*
%TO.P,U8,6*%
%TO.N,VCC*%
X128270000Y-52070000D03*
%TO.P,U8,5*%
%TO.N,GND*%
X128270000Y-49530000D03*
%TO.P,U8,4*%
%TO.N,/A15*%
X128270000Y-44450000D03*
%TO.P,U8,3*%
%TO.N,/B15*%
X128270000Y-41910000D03*
%TO.P,U8,2*%
%TO.N,/B14*%
X128270000Y-39370000D03*
%TO.P,U8,1*%
%TO.N,/A14*%
X128270000Y-36830000D03*
%TD*%
%TO.P,U7,15*%
%TO.N,/D12*%
X123190000Y-102870000D03*
%TO.P,U7,14*%
%TO.N,/C12*%
X123190000Y-100330000D03*
%TO.P,U7,13*%
%TO.N,/C13*%
X123190000Y-97790000D03*
%TO.P,U7,12*%
%TO.N,/D13*%
X123190000Y-95250000D03*
%TO.P,U7,11*%
%TO.N,/S1*%
X123190000Y-90170000D03*
%TO.P,U7,10*%
%TO.N,/~E*%
X123190000Y-87630000D03*
%TO.P,U7,9*%
%TO.N,/S0*%
X123190000Y-85090000D03*
%TO.P,U7,8*%
%TO.N,/O13*%
X123190000Y-80010000D03*
%TO.P,U7,7*%
%TO.N,/O12*%
X123190000Y-77470000D03*
%TO.P,U7,6*%
%TO.N,VCC*%
X123190000Y-52070000D03*
%TO.P,U7,5*%
%TO.N,GND*%
X123190000Y-49530000D03*
%TO.P,U7,4*%
%TO.N,/A13*%
X123190000Y-44450000D03*
%TO.P,U7,3*%
%TO.N,/B13*%
X123190000Y-41910000D03*
%TO.P,U7,2*%
%TO.N,/B12*%
X123190000Y-39370000D03*
%TO.P,U7,1*%
%TO.N,/A12*%
X123190000Y-36830000D03*
%TD*%
%TO.P,U6,15*%
%TO.N,/D10*%
X118110000Y-102870000D03*
%TO.P,U6,14*%
%TO.N,/C10*%
X118110000Y-100330000D03*
%TO.P,U6,13*%
%TO.N,/C11*%
X118110000Y-97790000D03*
%TO.P,U6,12*%
%TO.N,/D11*%
X118110000Y-95250000D03*
%TO.P,U6,11*%
%TO.N,/S1*%
X118110000Y-90170000D03*
%TO.P,U6,10*%
%TO.N,/~E*%
X118110000Y-87630000D03*
%TO.P,U6,9*%
%TO.N,/S0*%
X118110000Y-85090000D03*
%TO.P,U6,8*%
%TO.N,/O11*%
X118110000Y-80010000D03*
%TO.P,U6,7*%
%TO.N,/O10*%
X118110000Y-77470000D03*
%TO.P,U6,6*%
%TO.N,VCC*%
X118110000Y-52070000D03*
%TO.P,U6,5*%
%TO.N,GND*%
X118110000Y-49530000D03*
%TO.P,U6,4*%
%TO.N,/A11*%
X118110000Y-44450000D03*
%TO.P,U6,3*%
%TO.N,/B11*%
X118110000Y-41910000D03*
%TO.P,U6,2*%
%TO.N,/B10*%
X118110000Y-39370000D03*
%TO.P,U6,1*%
%TO.N,/A10*%
X118110000Y-36830000D03*
%TD*%
%TO.P,U5,15*%
%TO.N,/D8*%
X113030000Y-102870000D03*
%TO.P,U5,14*%
%TO.N,/C8*%
X113030000Y-100330000D03*
%TO.P,U5,13*%
%TO.N,/C9*%
X113030000Y-97790000D03*
%TO.P,U5,12*%
%TO.N,/D9*%
X113030000Y-95250000D03*
%TO.P,U5,11*%
%TO.N,/S1*%
X113030000Y-90170000D03*
%TO.P,U5,10*%
%TO.N,/~E*%
X113030000Y-87630000D03*
%TO.P,U5,9*%
%TO.N,/S0*%
X113030000Y-85090000D03*
%TO.P,U5,8*%
%TO.N,/O9*%
X113030000Y-80010000D03*
%TO.P,U5,7*%
%TO.N,/O8*%
X113030000Y-77470000D03*
%TO.P,U5,6*%
%TO.N,VCC*%
X113030000Y-52070000D03*
%TO.P,U5,5*%
%TO.N,GND*%
X113030000Y-49530000D03*
%TO.P,U5,4*%
%TO.N,/A9*%
X113030000Y-44450000D03*
%TO.P,U5,3*%
%TO.N,/B9*%
X113030000Y-41910000D03*
%TO.P,U5,2*%
%TO.N,/B8*%
X113030000Y-39370000D03*
%TO.P,U5,1*%
%TO.N,/A8*%
X113030000Y-36830000D03*
%TD*%
%TO.P,U4,15*%
%TO.N,/D6*%
X107950000Y-102870000D03*
%TO.P,U4,14*%
%TO.N,/C6*%
X107950000Y-100330000D03*
%TO.P,U4,13*%
%TO.N,/C7*%
X107950000Y-97790000D03*
%TO.P,U4,12*%
%TO.N,/D7*%
X107950000Y-95250000D03*
%TO.P,U4,11*%
%TO.N,/S1*%
X107950000Y-90170000D03*
%TO.P,U4,10*%
%TO.N,/~E*%
X107950000Y-87630000D03*
%TO.P,U4,9*%
%TO.N,/S0*%
X107950000Y-85090000D03*
%TO.P,U4,8*%
%TO.N,/O7*%
X107950000Y-80010000D03*
%TO.P,U4,7*%
%TO.N,/O6*%
X107950000Y-77470000D03*
%TO.P,U4,6*%
%TO.N,VCC*%
X107950000Y-52070000D03*
%TO.P,U4,5*%
%TO.N,GND*%
X107950000Y-49530000D03*
%TO.P,U4,4*%
%TO.N,/A7*%
X107950000Y-44450000D03*
%TO.P,U4,3*%
%TO.N,/B7*%
X107950000Y-41910000D03*
%TO.P,U4,2*%
%TO.N,/B6*%
X107950000Y-39370000D03*
%TO.P,U4,1*%
%TO.N,/A6*%
X107950000Y-36830000D03*
%TD*%
%TO.P,U3,15*%
%TO.N,/D4*%
X102870000Y-102870000D03*
%TO.P,U3,14*%
%TO.N,/C4*%
X102870000Y-100330000D03*
%TO.P,U3,13*%
%TO.N,/C5*%
X102870000Y-97790000D03*
%TO.P,U3,12*%
%TO.N,/D5*%
X102870000Y-95250000D03*
%TO.P,U3,11*%
%TO.N,/S1*%
X102870000Y-90170000D03*
%TO.P,U3,10*%
%TO.N,/~E*%
X102870000Y-87630000D03*
%TO.P,U3,9*%
%TO.N,/S0*%
X102870000Y-85090000D03*
%TO.P,U3,8*%
%TO.N,/O5*%
X102870000Y-80010000D03*
%TO.P,U3,7*%
%TO.N,/O4*%
X102870000Y-77470000D03*
%TO.P,U3,6*%
%TO.N,VCC*%
X102870000Y-52070000D03*
%TO.P,U3,5*%
%TO.N,GND*%
X102870000Y-49530000D03*
%TO.P,U3,4*%
%TO.N,/A5*%
X102870000Y-44450000D03*
%TO.P,U3,3*%
%TO.N,/B5*%
X102870000Y-41910000D03*
%TO.P,U3,2*%
%TO.N,/B4*%
X102870000Y-39370000D03*
%TO.P,U3,1*%
%TO.N,/A4*%
X102870000Y-36830000D03*
%TD*%
%TO.P,U2,15*%
%TO.N,/D2*%
X97790000Y-102870000D03*
%TO.P,U2,14*%
%TO.N,/C2*%
X97790000Y-100330000D03*
%TO.P,U2,13*%
%TO.N,/C3*%
X97790000Y-97790000D03*
%TO.P,U2,12*%
%TO.N,/D3*%
X97790000Y-95250000D03*
%TO.P,U2,11*%
%TO.N,/S1*%
X97790000Y-90170000D03*
%TO.P,U2,10*%
%TO.N,/~E*%
X97790000Y-87630000D03*
%TO.P,U2,9*%
%TO.N,/S0*%
X97790000Y-85090000D03*
%TO.P,U2,8*%
%TO.N,/O3*%
X97790000Y-80010000D03*
%TO.P,U2,7*%
%TO.N,/O2*%
X97790000Y-77470000D03*
%TO.P,U2,6*%
%TO.N,VCC*%
X97790000Y-52070000D03*
%TO.P,U2,5*%
%TO.N,GND*%
X97790000Y-49530000D03*
%TO.P,U2,4*%
%TO.N,/A3*%
X97790000Y-44450000D03*
%TO.P,U2,3*%
%TO.N,/B3*%
X97790000Y-41910000D03*
%TO.P,U2,2*%
%TO.N,/B2*%
X97790000Y-39370000D03*
%TO.P,U2,1*%
%TO.N,/A2*%
X97790000Y-36830000D03*
%TD*%
%TO.P,U1,15*%
%TO.N,/D0*%
X92710000Y-102870000D03*
%TO.P,U1,14*%
%TO.N,/C0*%
X92710000Y-100330000D03*
%TO.P,U1,13*%
%TO.N,/C1*%
X92710000Y-97790000D03*
%TO.P,U1,12*%
%TO.N,/D1*%
X92710000Y-95250000D03*
%TO.P,U1,11*%
%TO.N,/S1*%
X92710000Y-90170000D03*
%TO.P,U1,10*%
%TO.N,/~E*%
X92710000Y-87630000D03*
%TO.P,U1,9*%
%TO.N,/S0*%
X92710000Y-85090000D03*
%TO.P,U1,8*%
%TO.N,/O1*%
X92710000Y-80010000D03*
%TO.P,U1,7*%
%TO.N,/O0*%
X92710000Y-77470000D03*
%TO.P,U1,6*%
%TO.N,VCC*%
X92710000Y-52070000D03*
%TO.P,U1,5*%
%TO.N,GND*%
X92710000Y-49530000D03*
%TO.P,U1,4*%
%TO.N,/A1*%
X92710000Y-44450000D03*
%TO.P,U1,3*%
%TO.N,/B1*%
X92710000Y-41910000D03*
%TO.P,U1,2*%
%TO.N,/B0*%
X92710000Y-39370000D03*
%TO.P,U1,1*%
%TO.N,/A0*%
X92710000Y-36830000D03*
%TD*%
D20*
%TO.P,U10,20*%
%TO.N,VCC*%
X149860000Y-71120000D03*
%TO.P,U10,10*%
%TO.N,GND*%
X142240000Y-93980000D03*
%TO.P,U10,19*%
%TO.N,/~OE*%
X149860000Y-73660000D03*
%TO.P,U10,9*%
%TO.N,/O15*%
X142240000Y-91440000D03*
%TO.P,U10,18*%
%TO.N,/BUS8*%
X149860000Y-76200000D03*
%TO.P,U10,8*%
%TO.N,/O14*%
X142240000Y-88900000D03*
%TO.P,U10,17*%
%TO.N,/BUS9*%
X149860000Y-78740000D03*
%TO.P,U10,7*%
%TO.N,/O13*%
X142240000Y-86360000D03*
%TO.P,U10,16*%
%TO.N,/BUS10*%
X149860000Y-81280000D03*
%TO.P,U10,6*%
%TO.N,/O12*%
X142240000Y-83820000D03*
%TO.P,U10,15*%
%TO.N,/BUS11*%
X149860000Y-83820000D03*
%TO.P,U10,5*%
%TO.N,/O11*%
X142240000Y-81280000D03*
%TO.P,U10,14*%
%TO.N,/BUS12*%
X149860000Y-86360000D03*
%TO.P,U10,4*%
%TO.N,/O10*%
X142240000Y-78740000D03*
%TO.P,U10,13*%
%TO.N,/BUS13*%
X149860000Y-88900000D03*
%TO.P,U10,3*%
%TO.N,/O9*%
X142240000Y-76200000D03*
%TO.P,U10,12*%
%TO.N,/BUS14*%
X149860000Y-91440000D03*
%TO.P,U10,2*%
%TO.N,/O8*%
X142240000Y-73660000D03*
%TO.P,U10,11*%
%TO.N,/BUS15*%
X149860000Y-93980000D03*
D21*
%TO.P,U10,1*%
%TO.N,Net-(R2-Pad1)*%
X142240000Y-71120000D03*
%TD*%
D20*
%TO.P,U9,20*%
%TO.N,VCC*%
X149860000Y-40640000D03*
%TO.P,U9,10*%
%TO.N,GND*%
X142240000Y-63500000D03*
%TO.P,U9,19*%
%TO.N,/~OE*%
X149860000Y-43180000D03*
%TO.P,U9,9*%
%TO.N,/O7*%
X142240000Y-60960000D03*
%TO.P,U9,18*%
%TO.N,/BUS0*%
X149860000Y-45720000D03*
%TO.P,U9,8*%
%TO.N,/O6*%
X142240000Y-58420000D03*
%TO.P,U9,17*%
%TO.N,/BUS1*%
X149860000Y-48260000D03*
%TO.P,U9,7*%
%TO.N,/O5*%
X142240000Y-55880000D03*
%TO.P,U9,16*%
%TO.N,/BUS2*%
X149860000Y-50800000D03*
%TO.P,U9,6*%
%TO.N,/O4*%
X142240000Y-53340000D03*
%TO.P,U9,15*%
%TO.N,/BUS3*%
X149860000Y-53340000D03*
%TO.P,U9,5*%
%TO.N,/O3*%
X142240000Y-50800000D03*
%TO.P,U9,14*%
%TO.N,/BUS4*%
X149860000Y-55880000D03*
%TO.P,U9,4*%
%TO.N,/O2*%
X142240000Y-48260000D03*
%TO.P,U9,13*%
%TO.N,/BUS5*%
X149860000Y-58420000D03*
%TO.P,U9,3*%
%TO.N,/O1*%
X142240000Y-45720000D03*
%TO.P,U9,12*%
%TO.N,/BUS6*%
X149860000Y-60960000D03*
%TO.P,U9,2*%
%TO.N,/O0*%
X142240000Y-43180000D03*
%TO.P,U9,11*%
%TO.N,/BUS7*%
X149860000Y-63500000D03*
D21*
%TO.P,U9,1*%
%TO.N,Net-(R1-Pad1)*%
X142240000Y-40640000D03*
%TD*%
M02*
