M48
METRIC
T1C0.762
T2C0.800
T3C1.000
T4C1.300
T5C3.200
%
G90
G05
T1
X102.87Y-36.83
X102.87Y-39.37
X102.87Y-41.91
X102.87Y-44.45
X102.87Y-49.53
X102.87Y-52.07
X102.87Y-77.47
X102.87Y-80.01
X102.87Y-85.09
X102.87Y-87.63
X102.87Y-90.17
X102.87Y-95.25
X102.87Y-97.79
X102.87Y-100.33
X102.87Y-102.87
X92.71Y-36.83
X92.71Y-39.37
X92.71Y-41.91
X92.71Y-44.45
X92.71Y-49.53
X92.71Y-52.07
X92.71Y-77.47
X92.71Y-80.01
X92.71Y-85.09
X92.71Y-87.63
X92.71Y-90.17
X92.71Y-95.25
X92.71Y-97.79
X92.71Y-100.33
X92.71Y-102.87
X128.27Y-36.83
X128.27Y-39.37
X128.27Y-41.91
X128.27Y-44.45
X128.27Y-49.53
X128.27Y-52.07
X128.27Y-77.47
X128.27Y-80.01
X128.27Y-85.09
X128.27Y-87.63
X128.27Y-90.17
X128.27Y-95.25
X128.27Y-97.79
X128.27Y-100.33
X128.27Y-102.87
X118.11Y-36.83
X118.11Y-39.37
X118.11Y-41.91
X118.11Y-44.45
X118.11Y-49.53
X118.11Y-52.07
X118.11Y-77.47
X118.11Y-80.01
X118.11Y-85.09
X118.11Y-87.63
X118.11Y-90.17
X118.11Y-95.25
X118.11Y-97.79
X118.11Y-100.33
X118.11Y-102.87
X107.95Y-36.83
X107.95Y-39.37
X107.95Y-41.91
X107.95Y-44.45
X107.95Y-49.53
X107.95Y-52.07
X107.95Y-77.47
X107.95Y-80.01
X107.95Y-85.09
X107.95Y-87.63
X107.95Y-90.17
X107.95Y-95.25
X107.95Y-97.79
X107.95Y-100.33
X107.95Y-102.87
X97.79Y-36.83
X97.79Y-39.37
X97.79Y-41.91
X97.79Y-44.45
X97.79Y-49.53
X97.79Y-52.07
X97.79Y-77.47
X97.79Y-80.01
X97.79Y-85.09
X97.79Y-87.63
X97.79Y-90.17
X97.79Y-95.25
X97.79Y-97.79
X97.79Y-100.33
X97.79Y-102.87
X123.19Y-36.83
X123.19Y-39.37
X123.19Y-41.91
X123.19Y-44.45
X123.19Y-49.53
X123.19Y-52.07
X123.19Y-77.47
X123.19Y-80.01
X123.19Y-85.09
X123.19Y-87.63
X123.19Y-90.17
X123.19Y-95.25
X123.19Y-97.79
X123.19Y-100.33
X123.19Y-102.87
X113.03Y-36.83
X113.03Y-39.37
X113.03Y-41.91
X113.03Y-44.45
X113.03Y-49.53
X113.03Y-52.07
X113.03Y-77.47
X113.03Y-80.01
X113.03Y-85.09
X113.03Y-87.63
X113.03Y-90.17
X113.03Y-95.25
X113.03Y-97.79
X113.03Y-100.33
X113.03Y-102.87
T2
X142.24Y-40.64
X142.24Y-43.18
X142.24Y-45.72
X142.24Y-48.26
X142.24Y-50.8
X142.24Y-53.34
X142.24Y-55.88
X142.24Y-58.42
X142.24Y-60.96
X142.24Y-63.5
X149.86Y-40.64
X149.86Y-43.18
X149.86Y-45.72
X149.86Y-48.26
X149.86Y-50.8
X149.86Y-53.34
X149.86Y-55.88
X149.86Y-58.42
X149.86Y-60.96
X149.86Y-63.5
X142.24Y-71.12
X142.24Y-73.66
X142.24Y-76.2
X142.24Y-78.74
X142.24Y-81.28
X142.24Y-83.82
X142.24Y-86.36
X142.24Y-88.9
X142.24Y-91.44
X142.24Y-93.98
X149.86Y-71.12
X149.86Y-73.66
X149.86Y-76.2
X149.86Y-78.74
X149.86Y-81.28
X149.86Y-83.82
X149.86Y-86.36
X149.86Y-88.9
X149.86Y-91.44
X149.86Y-93.98
T3
X88.9Y-109.22
X91.44Y-109.22
X93.98Y-109.22
X96.52Y-109.22
X99.06Y-109.22
X101.6Y-109.22
X104.14Y-109.22
X106.68Y-109.22
X109.22Y-109.22
X111.76Y-109.22
X114.3Y-109.22
X116.84Y-109.22
X119.38Y-109.22
X121.92Y-109.22
X124.46Y-109.22
X127.0Y-109.22
X129.54Y-109.22
X88.9Y-25.4
X91.44Y-25.4
X93.98Y-25.4
X96.52Y-25.4
X99.06Y-25.4
X101.6Y-25.4
X104.14Y-25.4
X106.68Y-25.4
X109.22Y-25.4
X111.76Y-25.4
X114.3Y-25.4
X116.84Y-25.4
X119.38Y-25.4
X121.92Y-25.4
X124.46Y-25.4
X127.0Y-25.4
X129.54Y-25.4
X135.89Y-113.03
X138.43Y-113.03
X140.97Y-113.03
X88.9Y-114.3
X91.44Y-114.3
X93.98Y-114.3
X96.52Y-114.3
X99.06Y-114.3
X101.6Y-114.3
X104.14Y-114.3
X106.68Y-114.3
X109.22Y-114.3
X111.76Y-114.3
X114.3Y-114.3
X116.84Y-114.3
X119.38Y-114.3
X121.92Y-114.3
X124.46Y-114.3
X127.0Y-114.3
X129.54Y-114.3
X88.9Y-30.48
X91.44Y-30.48
X93.98Y-30.48
X96.52Y-30.48
X99.06Y-30.48
X101.6Y-30.48
X104.14Y-30.48
X106.68Y-30.48
X109.22Y-30.48
X111.76Y-30.48
X114.3Y-30.48
X116.84Y-30.48
X119.38Y-30.48
X121.92Y-30.48
X124.46Y-30.48
X127.0Y-30.48
X129.54Y-30.48
X160.02Y-43.18
X160.02Y-48.26
X160.02Y-50.8
X160.02Y-53.34
X160.02Y-55.88
X160.02Y-58.42
X160.02Y-60.96
X160.02Y-63.5
X160.02Y-66.04
X160.02Y-68.58
X160.02Y-71.12
X160.02Y-73.66
X160.02Y-76.2
X160.02Y-78.74
X160.02Y-81.28
X160.02Y-83.82
X160.02Y-86.36
X160.02Y-88.9
T4
X147.32Y-109.22
X152.32Y-109.22
T5
X158.75Y-35.56
X85.09Y-35.56
X158.75Y-104.14
X85.09Y-104.14
T0
M30
