%TF.GenerationSoftware,KiCad,Pcbnew,(5.1.8)-1*%
%TF.CreationDate,2024-06-14T00:40:21+03:00*%
%TF.ProjectId,MUX16bit,4d555831-3662-4697-942e-6b696361645f,rev?*%
%TF.SameCoordinates,Original*%
%TF.FileFunction,Soldermask,Top*%
%TF.FilePolarity,Negative*%
%FSLAX46Y46*%
G04 Gerber Fmt 4.6, Leading zero omitted, Abs format (unit mm)*
G04 Created by KiCad (PCBNEW (5.1.8)-1) date 2024-06-14 00:40:21*
%MOMM*%
%LPD*%
G01*
G04 APERTURE LIST*
%ADD10O,1.600000X1.524000*%
%ADD11O,1.700000X1.500000*%
%ADD12C,3.200000*%
%ADD13O,1.800000X2.000000*%
%ADD14R,1.800000X2.000000*%
%ADD15O,2.000000X1.500000*%
%ADD16R,2.000000X1.500000*%
%ADD17C,2.600000*%
%ADD18R,2.600000X2.600000*%
%ADD19O,2.000000X2.000000*%
%ADD20R,2.000000X2.000000*%
%ADD21R,1.700000X1.700000*%
G04 APERTURE END LIST*
D10*
%TO.C,U8*%
X95250000Y-48260000D03*
X92710000Y-48260000D03*
X90170000Y-48260000D03*
X87630000Y-48260000D03*
X82550000Y-48260000D03*
X80010000Y-48260000D03*
X77470000Y-48260000D03*
X72390000Y-48260000D03*
X69850000Y-48260000D03*
X57150000Y-48260000D03*
X54610000Y-48260000D03*
X49530000Y-48260000D03*
X46990000Y-48260000D03*
X44450000Y-48260000D03*
X41910000Y-48260000D03*
%TD*%
%TO.C,U7*%
X95250000Y-53340000D03*
X92710000Y-53340000D03*
X90170000Y-53340000D03*
X87630000Y-53340000D03*
X82550000Y-53340000D03*
X80010000Y-53340000D03*
X77470000Y-53340000D03*
X72390000Y-53340000D03*
X69850000Y-53340000D03*
X57150000Y-53340000D03*
X54610000Y-53340000D03*
X49530000Y-53340000D03*
X46990000Y-53340000D03*
X44450000Y-53340000D03*
X41910000Y-53340000D03*
%TD*%
%TO.C,U6*%
X95250000Y-58420000D03*
X92710000Y-58420000D03*
X90170000Y-58420000D03*
X87630000Y-58420000D03*
X82550000Y-58420000D03*
X80010000Y-58420000D03*
X77470000Y-58420000D03*
X72390000Y-58420000D03*
X69850000Y-58420000D03*
X57150000Y-58420000D03*
X54610000Y-58420000D03*
X49530000Y-58420000D03*
X46990000Y-58420000D03*
X44450000Y-58420000D03*
X41910000Y-58420000D03*
%TD*%
%TO.C,U5*%
X95250000Y-63500000D03*
X92710000Y-63500000D03*
X90170000Y-63500000D03*
X87630000Y-63500000D03*
X82550000Y-63500000D03*
X80010000Y-63500000D03*
X77470000Y-63500000D03*
X72390000Y-63500000D03*
X69850000Y-63500000D03*
X57150000Y-63500000D03*
X54610000Y-63500000D03*
X49530000Y-63500000D03*
X46990000Y-63500000D03*
X44450000Y-63500000D03*
X41910000Y-63500000D03*
%TD*%
%TO.C,U4*%
X95250000Y-68580000D03*
X92710000Y-68580000D03*
X90170000Y-68580000D03*
X87630000Y-68580000D03*
X82550000Y-68580000D03*
X80010000Y-68580000D03*
X77470000Y-68580000D03*
X72390000Y-68580000D03*
D11*
X69850000Y-68580000D03*
D10*
X57150000Y-68580000D03*
X54610000Y-68580000D03*
X49530000Y-68580000D03*
X46990000Y-68580000D03*
X44450000Y-68580000D03*
X41910000Y-68580000D03*
%TD*%
%TO.C,U3*%
X95250000Y-73660000D03*
X92710000Y-73660000D03*
X90170000Y-73660000D03*
X87630000Y-73660000D03*
X82550000Y-73660000D03*
X80010000Y-73660000D03*
X77470000Y-73660000D03*
X72390000Y-73660000D03*
X69850000Y-73660000D03*
X57150000Y-73660000D03*
X54610000Y-73660000D03*
X49530000Y-73660000D03*
X46990000Y-73660000D03*
X44450000Y-73660000D03*
X41910000Y-73660000D03*
%TD*%
%TO.C,U2*%
X95250000Y-78740000D03*
X92710000Y-78740000D03*
X90170000Y-78740000D03*
X87630000Y-78740000D03*
X82550000Y-78740000D03*
X80010000Y-78740000D03*
X77470000Y-78740000D03*
X72390000Y-78740000D03*
X69850000Y-78740000D03*
X57150000Y-78740000D03*
X54610000Y-78740000D03*
X49530000Y-78740000D03*
X46990000Y-78740000D03*
X44450000Y-78740000D03*
X41910000Y-78740000D03*
%TD*%
%TO.C,U1*%
X95250000Y-83820000D03*
X92710000Y-83820000D03*
X90170000Y-83820000D03*
X87630000Y-83820000D03*
X82550000Y-83820000D03*
X80010000Y-83820000D03*
X77470000Y-83820000D03*
X72390000Y-83820000D03*
X69850000Y-83820000D03*
X57150000Y-83820000D03*
X54610000Y-83820000D03*
X49530000Y-83820000D03*
X46990000Y-83820000D03*
X44450000Y-83820000D03*
X41910000Y-83820000D03*
%TD*%
D12*
%TO.C,H6*%
X87630000Y-106680000D03*
%TD*%
%TO.C,H5*%
X87630000Y-17780000D03*
%TD*%
D13*
%TO.C,J5*%
X15240000Y-87630000D03*
X15240000Y-85090000D03*
X15240000Y-82550000D03*
X15240000Y-80010000D03*
X15240000Y-77470000D03*
X15240000Y-74930000D03*
X15240000Y-72390000D03*
X15240000Y-69850000D03*
X15240000Y-67310000D03*
X15240000Y-64770000D03*
X15240000Y-62230000D03*
X15240000Y-59690000D03*
X15240000Y-57150000D03*
X15240000Y-54610000D03*
X15240000Y-52070000D03*
X15240000Y-49530000D03*
D14*
X15240000Y-46990000D03*
%TD*%
D15*
%TO.C,J4*%
X106680000Y-87630000D03*
X106680000Y-85090000D03*
X106680000Y-82550000D03*
X106680000Y-80010000D03*
X106680000Y-77470000D03*
X106680000Y-74930000D03*
X106680000Y-72390000D03*
X106680000Y-69850000D03*
X106680000Y-67310000D03*
X106680000Y-64770000D03*
X106680000Y-62230000D03*
X106680000Y-59690000D03*
X106680000Y-57150000D03*
X106680000Y-54610000D03*
X106680000Y-52070000D03*
X106680000Y-49530000D03*
D16*
X106680000Y-46990000D03*
%TD*%
D15*
%TO.C,J3*%
X101600000Y-87630000D03*
X101600000Y-85090000D03*
X101600000Y-82550000D03*
X101600000Y-80010000D03*
X101600000Y-77470000D03*
X101600000Y-74930000D03*
X101600000Y-72390000D03*
X101600000Y-69850000D03*
X101600000Y-67310000D03*
X101600000Y-64770000D03*
X101600000Y-62230000D03*
X101600000Y-59690000D03*
X101600000Y-57150000D03*
X101600000Y-54610000D03*
X101600000Y-52070000D03*
X101600000Y-49530000D03*
D16*
X101600000Y-46990000D03*
%TD*%
D15*
%TO.C,J2*%
X35560000Y-87630000D03*
X35560000Y-85090000D03*
X35560000Y-82550000D03*
X35560000Y-80010000D03*
X35560000Y-77470000D03*
X35560000Y-74930000D03*
X35560000Y-72390000D03*
X35560000Y-69850000D03*
X35560000Y-67310000D03*
X35560000Y-64770000D03*
X35560000Y-62230000D03*
X35560000Y-59690000D03*
X35560000Y-57150000D03*
X35560000Y-54610000D03*
X35560000Y-52070000D03*
X35560000Y-49530000D03*
D16*
X35560000Y-46990000D03*
%TD*%
D15*
%TO.C,J1*%
X30480000Y-87630000D03*
X30480000Y-85090000D03*
X30480000Y-82550000D03*
X30480000Y-80010000D03*
X30480000Y-77470000D03*
X30480000Y-74930000D03*
X30480000Y-72390000D03*
X30480000Y-69850000D03*
X30480000Y-67310000D03*
X30480000Y-64770000D03*
X30480000Y-62230000D03*
X30480000Y-59690000D03*
X30480000Y-57150000D03*
X30480000Y-54610000D03*
X30480000Y-52070000D03*
X30480000Y-49530000D03*
D16*
X30480000Y-46990000D03*
%TD*%
D12*
%TO.C,H4*%
X106680000Y-17780000D03*
%TD*%
%TO.C,H3*%
X17780000Y-17780000D03*
%TD*%
%TO.C,H2*%
X106680000Y-106680000D03*
%TD*%
%TO.C,H1*%
X17780000Y-106680000D03*
%TD*%
D17*
%TO.C,J8*%
X71200000Y-19050000D03*
D18*
X76200000Y-19050000D03*
%TD*%
D19*
%TO.C,J7*%
X106680000Y-40640000D03*
X106680000Y-38100000D03*
D20*
X106680000Y-35560000D03*
%TD*%
D21*
%TO.C,J6*%
X15240000Y-27305000D03*
%TD*%
M02*
