%TF.GenerationSoftware,KiCad,Pcbnew,(5.1.8)-1*%
%TF.CreationDate,2023-06-16T08:46:22+03:00*%
%TF.ProjectId,MUX16bit,4d555831-3662-4697-942e-6b696361645f,rev?*%
%TF.SameCoordinates,Original*%
%TF.FileFunction,Legend,Bot*%
%TF.FilePolarity,Positive*%
%FSLAX46Y46*%
G04 Gerber Fmt 4.6, Leading zero omitted, Abs format (unit mm)*
G04 Created by KiCad (PCBNEW (5.1.8)-1) date 2023-06-16 08:46:22*
%MOMM*%
%LPD*%
G01*
G04 APERTURE LIST*
%ADD10C,0.120000*%
%ADD11C,0.150000*%
G04 APERTURE END LIST*
D10*
%TO.C,C2*%
X145908752Y-64235000D02*
X145386248Y-64235000D01*
X145908752Y-62765000D02*
X145386248Y-62765000D01*
%TO.C,C1*%
X145908752Y-94715000D02*
X145386248Y-94715000D01*
X145908752Y-93245000D02*
X145386248Y-93245000D01*
%TO.C,R3*%
X146007064Y-115035000D02*
X145552936Y-115035000D01*
X146007064Y-113565000D02*
X145552936Y-113565000D01*
%TO.C,R2*%
X145552936Y-67210000D02*
X146007064Y-67210000D01*
X145552936Y-68680000D02*
X146007064Y-68680000D01*
%TO.C,R1*%
X145552936Y-36730000D02*
X146007064Y-36730000D01*
X145552936Y-38200000D02*
X146007064Y-38200000D01*
%TO.C,C2*%
D11*
X145814166Y-62177142D02*
X145861785Y-62224761D01*
X146004642Y-62272380D01*
X146099880Y-62272380D01*
X146242738Y-62224761D01*
X146337976Y-62129523D01*
X146385595Y-62034285D01*
X146433214Y-61843809D01*
X146433214Y-61700952D01*
X146385595Y-61510476D01*
X146337976Y-61415238D01*
X146242738Y-61320000D01*
X146099880Y-61272380D01*
X146004642Y-61272380D01*
X145861785Y-61320000D01*
X145814166Y-61367619D01*
X145433214Y-61367619D02*
X145385595Y-61320000D01*
X145290357Y-61272380D01*
X145052261Y-61272380D01*
X144957023Y-61320000D01*
X144909404Y-61367619D01*
X144861785Y-61462857D01*
X144861785Y-61558095D01*
X144909404Y-61700952D01*
X145480833Y-62272380D01*
X144861785Y-62272380D01*
%TO.C,C1*%
X145814166Y-92657142D02*
X145861785Y-92704761D01*
X146004642Y-92752380D01*
X146099880Y-92752380D01*
X146242738Y-92704761D01*
X146337976Y-92609523D01*
X146385595Y-92514285D01*
X146433214Y-92323809D01*
X146433214Y-92180952D01*
X146385595Y-91990476D01*
X146337976Y-91895238D01*
X146242738Y-91800000D01*
X146099880Y-91752380D01*
X146004642Y-91752380D01*
X145861785Y-91800000D01*
X145814166Y-91847619D01*
X144861785Y-92752380D02*
X145433214Y-92752380D01*
X145147500Y-92752380D02*
X145147500Y-91752380D01*
X145242738Y-91895238D01*
X145337976Y-91990476D01*
X145433214Y-92038095D01*
%TO.C,R3*%
X145946666Y-113102380D02*
X146280000Y-112626190D01*
X146518095Y-113102380D02*
X146518095Y-112102380D01*
X146137142Y-112102380D01*
X146041904Y-112150000D01*
X145994285Y-112197619D01*
X145946666Y-112292857D01*
X145946666Y-112435714D01*
X145994285Y-112530952D01*
X146041904Y-112578571D01*
X146137142Y-112626190D01*
X146518095Y-112626190D01*
X145613333Y-112102380D02*
X144994285Y-112102380D01*
X145327619Y-112483333D01*
X145184761Y-112483333D01*
X145089523Y-112530952D01*
X145041904Y-112578571D01*
X144994285Y-112673809D01*
X144994285Y-112911904D01*
X145041904Y-113007142D01*
X145089523Y-113054761D01*
X145184761Y-113102380D01*
X145470476Y-113102380D01*
X145565714Y-113054761D01*
X145613333Y-113007142D01*
%TO.C,R2*%
X148756666Y-68397380D02*
X149090000Y-67921190D01*
X149328095Y-68397380D02*
X149328095Y-67397380D01*
X148947142Y-67397380D01*
X148851904Y-67445000D01*
X148804285Y-67492619D01*
X148756666Y-67587857D01*
X148756666Y-67730714D01*
X148804285Y-67825952D01*
X148851904Y-67873571D01*
X148947142Y-67921190D01*
X149328095Y-67921190D01*
X148375714Y-67492619D02*
X148328095Y-67445000D01*
X148232857Y-67397380D01*
X147994761Y-67397380D01*
X147899523Y-67445000D01*
X147851904Y-67492619D01*
X147804285Y-67587857D01*
X147804285Y-67683095D01*
X147851904Y-67825952D01*
X148423333Y-68397380D01*
X147804285Y-68397380D01*
%TO.C,R1*%
X148756666Y-37917380D02*
X149090000Y-37441190D01*
X149328095Y-37917380D02*
X149328095Y-36917380D01*
X148947142Y-36917380D01*
X148851904Y-36965000D01*
X148804285Y-37012619D01*
X148756666Y-37107857D01*
X148756666Y-37250714D01*
X148804285Y-37345952D01*
X148851904Y-37393571D01*
X148947142Y-37441190D01*
X149328095Y-37441190D01*
X147804285Y-37917380D02*
X148375714Y-37917380D01*
X148090000Y-37917380D02*
X148090000Y-36917380D01*
X148185238Y-37060238D01*
X148280476Y-37155476D01*
X148375714Y-37203095D01*
%TD*%
M02*
