%TF.GenerationSoftware,KiCad,Pcbnew,(5.1.8)-1*%
%TF.CreationDate,2024-03-21T22:44:30+03:00*%
%TF.ProjectId,Reg,5265672e-6b69-4636-9164-5f7063625858,rev?*%
%TF.SameCoordinates,Original*%
%TF.FileFunction,Soldermask,Top*%
%TF.FilePolarity,Negative*%
%FSLAX46Y46*%
G04 Gerber Fmt 4.6, Leading zero omitted, Abs format (unit mm)*
G04 Created by KiCad (PCBNEW (5.1.8)-1) date 2024-03-21 22:44:30*
%MOMM*%
%LPD*%
G01*
G04 APERTURE LIST*
%ADD10R,2.200000X2.200000*%
%ADD11O,1.500000X1.800000*%
%ADD12R,1.500000X1.800000*%
%ADD13O,1.600000X1.600000*%
%ADD14R,1.600000X1.600000*%
%ADD15R,2.100000X2.200000*%
%ADD16O,2.100000X2.200000*%
G04 APERTURE END LIST*
D10*
%TO.C,J5*%
X76200000Y-53340000D03*
%TD*%
D11*
%TO.C,U1*%
X50800000Y-38100000D03*
X73660000Y-45720000D03*
X53340000Y-38100000D03*
X71120000Y-45720000D03*
X55880000Y-38100000D03*
X68580000Y-45720000D03*
X58420000Y-38100000D03*
X66040000Y-45720000D03*
X60960000Y-38100000D03*
X63500000Y-45720000D03*
X63500000Y-38100000D03*
X60960000Y-45720000D03*
X66040000Y-38100000D03*
X58420000Y-45720000D03*
X68580000Y-38100000D03*
X55880000Y-45720000D03*
X71120000Y-38100000D03*
X53340000Y-45720000D03*
X73660000Y-38100000D03*
D12*
X50800000Y-45720000D03*
%TD*%
D13*
%TO.C,U2*%
X86360000Y-38100000D03*
X109220000Y-45720000D03*
X88900000Y-38100000D03*
X106680000Y-45720000D03*
X91440000Y-38100000D03*
X104140000Y-45720000D03*
D11*
X93980000Y-38100000D03*
D13*
X101600000Y-45720000D03*
D11*
X96520000Y-38100000D03*
D13*
X99060000Y-45720000D03*
X99060000Y-38100000D03*
X96520000Y-45720000D03*
X101600000Y-38100000D03*
X93980000Y-45720000D03*
X104140000Y-38100000D03*
X91440000Y-45720000D03*
X106680000Y-38100000D03*
X88900000Y-45720000D03*
X109220000Y-38100000D03*
D14*
X86360000Y-45720000D03*
%TD*%
%TO.C,C2*%
G36*
G01*
X112235000Y-46540000D02*
X111285000Y-46540000D01*
G75*
G02*
X111035000Y-46290000I0J250000D01*
G01*
X111035000Y-45615000D01*
G75*
G02*
X111285000Y-45365000I250000J0D01*
G01*
X112235000Y-45365000D01*
G75*
G02*
X112485000Y-45615000I0J-250000D01*
G01*
X112485000Y-46290000D01*
G75*
G02*
X112235000Y-46540000I-250000J0D01*
G01*
G37*
G36*
G01*
X112235000Y-48615000D02*
X111285000Y-48615000D01*
G75*
G02*
X111035000Y-48365000I0J250000D01*
G01*
X111035000Y-47690000D01*
G75*
G02*
X111285000Y-47440000I250000J0D01*
G01*
X112235000Y-47440000D01*
G75*
G02*
X112485000Y-47690000I0J-250000D01*
G01*
X112485000Y-48365000D01*
G75*
G02*
X112235000Y-48615000I-250000J0D01*
G01*
G37*
%TD*%
%TO.C,R9*%
G36*
G01*
X76650001Y-25508000D02*
X75749999Y-25508000D01*
G75*
G02*
X75500000Y-25258001I0J249999D01*
G01*
X75500000Y-24557999D01*
G75*
G02*
X75749999Y-24308000I249999J0D01*
G01*
X76650001Y-24308000D01*
G75*
G02*
X76900000Y-24557999I0J-249999D01*
G01*
X76900000Y-25258001D01*
G75*
G02*
X76650001Y-25508000I-249999J0D01*
G01*
G37*
G36*
G01*
X76650001Y-27508000D02*
X75749999Y-27508000D01*
G75*
G02*
X75500000Y-27258001I0J249999D01*
G01*
X75500000Y-26557999D01*
G75*
G02*
X75749999Y-26308000I249999J0D01*
G01*
X76650001Y-26308000D01*
G75*
G02*
X76900000Y-26557999I0J-249999D01*
G01*
X76900000Y-27258001D01*
G75*
G02*
X76650001Y-27508000I-249999J0D01*
G01*
G37*
%TD*%
%TO.C,R8*%
G36*
G01*
X79190001Y-25508000D02*
X78289999Y-25508000D01*
G75*
G02*
X78040000Y-25258001I0J249999D01*
G01*
X78040000Y-24557999D01*
G75*
G02*
X78289999Y-24308000I249999J0D01*
G01*
X79190001Y-24308000D01*
G75*
G02*
X79440000Y-24557999I0J-249999D01*
G01*
X79440000Y-25258001D01*
G75*
G02*
X79190001Y-25508000I-249999J0D01*
G01*
G37*
G36*
G01*
X79190001Y-27508000D02*
X78289999Y-27508000D01*
G75*
G02*
X78040000Y-27258001I0J249999D01*
G01*
X78040000Y-26557999D01*
G75*
G02*
X78289999Y-26308000I249999J0D01*
G01*
X79190001Y-26308000D01*
G75*
G02*
X79440000Y-26557999I0J-249999D01*
G01*
X79440000Y-27258001D01*
G75*
G02*
X79190001Y-27508000I-249999J0D01*
G01*
G37*
%TD*%
%TO.C,R7*%
G36*
G01*
X81730001Y-25508000D02*
X80829999Y-25508000D01*
G75*
G02*
X80580000Y-25258001I0J249999D01*
G01*
X80580000Y-24557999D01*
G75*
G02*
X80829999Y-24308000I249999J0D01*
G01*
X81730001Y-24308000D01*
G75*
G02*
X81980000Y-24557999I0J-249999D01*
G01*
X81980000Y-25258001D01*
G75*
G02*
X81730001Y-25508000I-249999J0D01*
G01*
G37*
G36*
G01*
X81730001Y-27508000D02*
X80829999Y-27508000D01*
G75*
G02*
X80580000Y-27258001I0J249999D01*
G01*
X80580000Y-26557999D01*
G75*
G02*
X80829999Y-26308000I249999J0D01*
G01*
X81730001Y-26308000D01*
G75*
G02*
X81980000Y-26557999I0J-249999D01*
G01*
X81980000Y-27258001D01*
G75*
G02*
X81730001Y-27508000I-249999J0D01*
G01*
G37*
%TD*%
%TO.C,R6*%
G36*
G01*
X84270001Y-25508000D02*
X83369999Y-25508000D01*
G75*
G02*
X83120000Y-25258001I0J249999D01*
G01*
X83120000Y-24557999D01*
G75*
G02*
X83369999Y-24308000I249999J0D01*
G01*
X84270001Y-24308000D01*
G75*
G02*
X84520000Y-24557999I0J-249999D01*
G01*
X84520000Y-25258001D01*
G75*
G02*
X84270001Y-25508000I-249999J0D01*
G01*
G37*
G36*
G01*
X84270001Y-27508000D02*
X83369999Y-27508000D01*
G75*
G02*
X83120000Y-27258001I0J249999D01*
G01*
X83120000Y-26557999D01*
G75*
G02*
X83369999Y-26308000I249999J0D01*
G01*
X84270001Y-26308000D01*
G75*
G02*
X84520000Y-26557999I0J-249999D01*
G01*
X84520000Y-27258001D01*
G75*
G02*
X84270001Y-27508000I-249999J0D01*
G01*
G37*
%TD*%
%TO.C,R5*%
G36*
G01*
X86810001Y-25508000D02*
X85909999Y-25508000D01*
G75*
G02*
X85660000Y-25258001I0J249999D01*
G01*
X85660000Y-24557999D01*
G75*
G02*
X85909999Y-24308000I249999J0D01*
G01*
X86810001Y-24308000D01*
G75*
G02*
X87060000Y-24557999I0J-249999D01*
G01*
X87060000Y-25258001D01*
G75*
G02*
X86810001Y-25508000I-249999J0D01*
G01*
G37*
G36*
G01*
X86810001Y-27508000D02*
X85909999Y-27508000D01*
G75*
G02*
X85660000Y-27258001I0J249999D01*
G01*
X85660000Y-26557999D01*
G75*
G02*
X85909999Y-26308000I249999J0D01*
G01*
X86810001Y-26308000D01*
G75*
G02*
X87060000Y-26557999I0J-249999D01*
G01*
X87060000Y-27258001D01*
G75*
G02*
X86810001Y-27508000I-249999J0D01*
G01*
G37*
%TD*%
%TO.C,R4*%
G36*
G01*
X89350001Y-25508000D02*
X88449999Y-25508000D01*
G75*
G02*
X88200000Y-25258001I0J249999D01*
G01*
X88200000Y-24557999D01*
G75*
G02*
X88449999Y-24308000I249999J0D01*
G01*
X89350001Y-24308000D01*
G75*
G02*
X89600000Y-24557999I0J-249999D01*
G01*
X89600000Y-25258001D01*
G75*
G02*
X89350001Y-25508000I-249999J0D01*
G01*
G37*
G36*
G01*
X89350001Y-27508000D02*
X88449999Y-27508000D01*
G75*
G02*
X88200000Y-27258001I0J249999D01*
G01*
X88200000Y-26557999D01*
G75*
G02*
X88449999Y-26308000I249999J0D01*
G01*
X89350001Y-26308000D01*
G75*
G02*
X89600000Y-26557999I0J-249999D01*
G01*
X89600000Y-27258001D01*
G75*
G02*
X89350001Y-27508000I-249999J0D01*
G01*
G37*
%TD*%
%TO.C,R3*%
G36*
G01*
X91890001Y-25508000D02*
X90989999Y-25508000D01*
G75*
G02*
X90740000Y-25258001I0J249999D01*
G01*
X90740000Y-24557999D01*
G75*
G02*
X90989999Y-24308000I249999J0D01*
G01*
X91890001Y-24308000D01*
G75*
G02*
X92140000Y-24557999I0J-249999D01*
G01*
X92140000Y-25258001D01*
G75*
G02*
X91890001Y-25508000I-249999J0D01*
G01*
G37*
G36*
G01*
X91890001Y-27508000D02*
X90989999Y-27508000D01*
G75*
G02*
X90740000Y-27258001I0J249999D01*
G01*
X90740000Y-26557999D01*
G75*
G02*
X90989999Y-26308000I249999J0D01*
G01*
X91890001Y-26308000D01*
G75*
G02*
X92140000Y-26557999I0J-249999D01*
G01*
X92140000Y-27258001D01*
G75*
G02*
X91890001Y-27508000I-249999J0D01*
G01*
G37*
%TD*%
%TO.C,R2*%
G36*
G01*
X94430001Y-25508000D02*
X93529999Y-25508000D01*
G75*
G02*
X93280000Y-25258001I0J249999D01*
G01*
X93280000Y-24557999D01*
G75*
G02*
X93529999Y-24308000I249999J0D01*
G01*
X94430001Y-24308000D01*
G75*
G02*
X94680000Y-24557999I0J-249999D01*
G01*
X94680000Y-25258001D01*
G75*
G02*
X94430001Y-25508000I-249999J0D01*
G01*
G37*
G36*
G01*
X94430001Y-27508000D02*
X93529999Y-27508000D01*
G75*
G02*
X93280000Y-27258001I0J249999D01*
G01*
X93280000Y-26557999D01*
G75*
G02*
X93529999Y-26308000I249999J0D01*
G01*
X94430001Y-26308000D01*
G75*
G02*
X94680000Y-26557999I0J-249999D01*
G01*
X94680000Y-27258001D01*
G75*
G02*
X94430001Y-27508000I-249999J0D01*
G01*
G37*
%TD*%
%TO.C,D8*%
G36*
G01*
X75749999Y-21650000D02*
X76650001Y-21650000D01*
G75*
G02*
X76900000Y-21899999I0J-249999D01*
G01*
X76900000Y-22550001D01*
G75*
G02*
X76650001Y-22800000I-249999J0D01*
G01*
X75749999Y-22800000D01*
G75*
G02*
X75500000Y-22550001I0J249999D01*
G01*
X75500000Y-21899999D01*
G75*
G02*
X75749999Y-21650000I249999J0D01*
G01*
G37*
G36*
G01*
X75749999Y-19600000D02*
X76650001Y-19600000D01*
G75*
G02*
X76900000Y-19849999I0J-249999D01*
G01*
X76900000Y-20500001D01*
G75*
G02*
X76650001Y-20750000I-249999J0D01*
G01*
X75749999Y-20750000D01*
G75*
G02*
X75500000Y-20500001I0J249999D01*
G01*
X75500000Y-19849999D01*
G75*
G02*
X75749999Y-19600000I249999J0D01*
G01*
G37*
%TD*%
%TO.C,D7*%
G36*
G01*
X78289999Y-21650000D02*
X79190001Y-21650000D01*
G75*
G02*
X79440000Y-21899999I0J-249999D01*
G01*
X79440000Y-22550001D01*
G75*
G02*
X79190001Y-22800000I-249999J0D01*
G01*
X78289999Y-22800000D01*
G75*
G02*
X78040000Y-22550001I0J249999D01*
G01*
X78040000Y-21899999D01*
G75*
G02*
X78289999Y-21650000I249999J0D01*
G01*
G37*
G36*
G01*
X78289999Y-19600000D02*
X79190001Y-19600000D01*
G75*
G02*
X79440000Y-19849999I0J-249999D01*
G01*
X79440000Y-20500001D01*
G75*
G02*
X79190001Y-20750000I-249999J0D01*
G01*
X78289999Y-20750000D01*
G75*
G02*
X78040000Y-20500001I0J249999D01*
G01*
X78040000Y-19849999D01*
G75*
G02*
X78289999Y-19600000I249999J0D01*
G01*
G37*
%TD*%
%TO.C,D6*%
G36*
G01*
X80829999Y-21650000D02*
X81730001Y-21650000D01*
G75*
G02*
X81980000Y-21899999I0J-249999D01*
G01*
X81980000Y-22550001D01*
G75*
G02*
X81730001Y-22800000I-249999J0D01*
G01*
X80829999Y-22800000D01*
G75*
G02*
X80580000Y-22550001I0J249999D01*
G01*
X80580000Y-21899999D01*
G75*
G02*
X80829999Y-21650000I249999J0D01*
G01*
G37*
G36*
G01*
X80829999Y-19600000D02*
X81730001Y-19600000D01*
G75*
G02*
X81980000Y-19849999I0J-249999D01*
G01*
X81980000Y-20500001D01*
G75*
G02*
X81730001Y-20750000I-249999J0D01*
G01*
X80829999Y-20750000D01*
G75*
G02*
X80580000Y-20500001I0J249999D01*
G01*
X80580000Y-19849999D01*
G75*
G02*
X80829999Y-19600000I249999J0D01*
G01*
G37*
%TD*%
%TO.C,D5*%
G36*
G01*
X83369999Y-21650000D02*
X84270001Y-21650000D01*
G75*
G02*
X84520000Y-21899999I0J-249999D01*
G01*
X84520000Y-22550001D01*
G75*
G02*
X84270001Y-22800000I-249999J0D01*
G01*
X83369999Y-22800000D01*
G75*
G02*
X83120000Y-22550001I0J249999D01*
G01*
X83120000Y-21899999D01*
G75*
G02*
X83369999Y-21650000I249999J0D01*
G01*
G37*
G36*
G01*
X83369999Y-19600000D02*
X84270001Y-19600000D01*
G75*
G02*
X84520000Y-19849999I0J-249999D01*
G01*
X84520000Y-20500001D01*
G75*
G02*
X84270001Y-20750000I-249999J0D01*
G01*
X83369999Y-20750000D01*
G75*
G02*
X83120000Y-20500001I0J249999D01*
G01*
X83120000Y-19849999D01*
G75*
G02*
X83369999Y-19600000I249999J0D01*
G01*
G37*
%TD*%
%TO.C,D4*%
G36*
G01*
X85909999Y-21650000D02*
X86810001Y-21650000D01*
G75*
G02*
X87060000Y-21899999I0J-249999D01*
G01*
X87060000Y-22550001D01*
G75*
G02*
X86810001Y-22800000I-249999J0D01*
G01*
X85909999Y-22800000D01*
G75*
G02*
X85660000Y-22550001I0J249999D01*
G01*
X85660000Y-21899999D01*
G75*
G02*
X85909999Y-21650000I249999J0D01*
G01*
G37*
G36*
G01*
X85909999Y-19600000D02*
X86810001Y-19600000D01*
G75*
G02*
X87060000Y-19849999I0J-249999D01*
G01*
X87060000Y-20500001D01*
G75*
G02*
X86810001Y-20750000I-249999J0D01*
G01*
X85909999Y-20750000D01*
G75*
G02*
X85660000Y-20500001I0J249999D01*
G01*
X85660000Y-19849999D01*
G75*
G02*
X85909999Y-19600000I249999J0D01*
G01*
G37*
%TD*%
%TO.C,D3*%
G36*
G01*
X88449999Y-21650000D02*
X89350001Y-21650000D01*
G75*
G02*
X89600000Y-21899999I0J-249999D01*
G01*
X89600000Y-22550001D01*
G75*
G02*
X89350001Y-22800000I-249999J0D01*
G01*
X88449999Y-22800000D01*
G75*
G02*
X88200000Y-22550001I0J249999D01*
G01*
X88200000Y-21899999D01*
G75*
G02*
X88449999Y-21650000I249999J0D01*
G01*
G37*
G36*
G01*
X88449999Y-19600000D02*
X89350001Y-19600000D01*
G75*
G02*
X89600000Y-19849999I0J-249999D01*
G01*
X89600000Y-20500001D01*
G75*
G02*
X89350001Y-20750000I-249999J0D01*
G01*
X88449999Y-20750000D01*
G75*
G02*
X88200000Y-20500001I0J249999D01*
G01*
X88200000Y-19849999D01*
G75*
G02*
X88449999Y-19600000I249999J0D01*
G01*
G37*
%TD*%
%TO.C,D2*%
G36*
G01*
X90989999Y-21650000D02*
X91890001Y-21650000D01*
G75*
G02*
X92140000Y-21899999I0J-249999D01*
G01*
X92140000Y-22550001D01*
G75*
G02*
X91890001Y-22800000I-249999J0D01*
G01*
X90989999Y-22800000D01*
G75*
G02*
X90740000Y-22550001I0J249999D01*
G01*
X90740000Y-21899999D01*
G75*
G02*
X90989999Y-21650000I249999J0D01*
G01*
G37*
G36*
G01*
X90989999Y-19600000D02*
X91890001Y-19600000D01*
G75*
G02*
X92140000Y-19849999I0J-249999D01*
G01*
X92140000Y-20500001D01*
G75*
G02*
X91890001Y-20750000I-249999J0D01*
G01*
X90989999Y-20750000D01*
G75*
G02*
X90740000Y-20500001I0J249999D01*
G01*
X90740000Y-19849999D01*
G75*
G02*
X90989999Y-19600000I249999J0D01*
G01*
G37*
%TD*%
%TO.C,D1*%
G36*
G01*
X93529999Y-21650000D02*
X94430001Y-21650000D01*
G75*
G02*
X94680000Y-21899999I0J-249999D01*
G01*
X94680000Y-22550001D01*
G75*
G02*
X94430001Y-22800000I-249999J0D01*
G01*
X93529999Y-22800000D01*
G75*
G02*
X93280000Y-22550001I0J249999D01*
G01*
X93280000Y-21899999D01*
G75*
G02*
X93529999Y-21650000I249999J0D01*
G01*
G37*
G36*
G01*
X93529999Y-19600000D02*
X94430001Y-19600000D01*
G75*
G02*
X94680000Y-19849999I0J-249999D01*
G01*
X94680000Y-20500001D01*
G75*
G02*
X94430001Y-20750000I-249999J0D01*
G01*
X93529999Y-20750000D01*
G75*
G02*
X93280000Y-20500001I0J249999D01*
G01*
X93280000Y-19849999D01*
G75*
G02*
X93529999Y-19600000I249999J0D01*
G01*
G37*
%TD*%
%TO.C,C1*%
G36*
G01*
X76675000Y-48615000D02*
X75725000Y-48615000D01*
G75*
G02*
X75475000Y-48365000I0J250000D01*
G01*
X75475000Y-47690000D01*
G75*
G02*
X75725000Y-47440000I250000J0D01*
G01*
X76675000Y-47440000D01*
G75*
G02*
X76925000Y-47690000I0J-250000D01*
G01*
X76925000Y-48365000D01*
G75*
G02*
X76675000Y-48615000I-250000J0D01*
G01*
G37*
G36*
G01*
X76675000Y-46540000D02*
X75725000Y-46540000D01*
G75*
G02*
X75475000Y-46290000I0J250000D01*
G01*
X75475000Y-45615000D01*
G75*
G02*
X75725000Y-45365000I250000J0D01*
G01*
X76675000Y-45365000D01*
G75*
G02*
X76925000Y-45615000I0J-250000D01*
G01*
X76925000Y-46290000D01*
G75*
G02*
X76675000Y-46540000I-250000J0D01*
G01*
G37*
%TD*%
D15*
%TO.C,J1*%
X71120000Y-53340000D03*
D16*
X68580000Y-53340000D03*
X66040000Y-53340000D03*
X63500000Y-53340000D03*
X60960000Y-53340000D03*
X58420000Y-53340000D03*
X55880000Y-53340000D03*
X53340000Y-53340000D03*
%TD*%
%TO.C,J2*%
X88900000Y-53340000D03*
X91440000Y-53340000D03*
X93980000Y-53340000D03*
X96520000Y-53340000D03*
X99060000Y-53340000D03*
X101600000Y-53340000D03*
X104140000Y-53340000D03*
D15*
X106680000Y-53340000D03*
%TD*%
%TO.C,J3*%
X83820000Y-53340000D03*
D16*
X81280000Y-53340000D03*
%TD*%
D15*
%TO.C,J4*%
X119380000Y-53340000D03*
D16*
X116840000Y-53340000D03*
X114300000Y-53340000D03*
%TD*%
M02*
