G04 #@! TF.GenerationSoftware,KiCad,Pcbnew,(5.1.8)-1*
G04 #@! TF.CreationDate,2022-02-21T20:21:33+03:00*
G04 #@! TF.ProjectId,template,74656d70-6c61-4746-952e-6b696361645f,rev?*
G04 #@! TF.SameCoordinates,Original*
G04 #@! TF.FileFunction,Soldermask,Bot*
G04 #@! TF.FilePolarity,Negative*
%FSLAX46Y46*%
G04 Gerber Fmt 4.6, Leading zero omitted, Abs format (unit mm)*
G04 Created by KiCad (PCBNEW (5.1.8)-1) date 2022-02-21 20:21:33*
%MOMM*%
%LPD*%
G01*
G04 APERTURE LIST*
%ADD10C,0.100000*%
%ADD11O,1.802000X1.802000*%
%ADD12C,1.702000*%
%ADD13O,1.702000X1.702000*%
G04 APERTURE END LIST*
D10*
G36*
X81915000Y-57785000D02*
G01*
X82232500Y-58420000D01*
X81915000Y-59055000D01*
X81280000Y-59372500D01*
X80645000Y-59055000D01*
X80327500Y-58420000D01*
X80645000Y-57785000D01*
X81280000Y-57467500D01*
X81915000Y-57785000D01*
G37*
X81915000Y-57785000D02*
X82232500Y-58420000D01*
X81915000Y-59055000D01*
X81280000Y-59372500D01*
X80645000Y-59055000D01*
X80327500Y-58420000D01*
X80645000Y-57785000D01*
X81280000Y-57467500D01*
X81915000Y-57785000D01*
G36*
X115887500Y-46990000D02*
G01*
X116205000Y-47625000D01*
X115887500Y-48260000D01*
X115252500Y-48577500D01*
X114617500Y-48260000D01*
X114300000Y-47625000D01*
X114617500Y-46990000D01*
X115252500Y-46672500D01*
X115887500Y-46990000D01*
G37*
X115887500Y-46990000D02*
X116205000Y-47625000D01*
X115887500Y-48260000D01*
X115252500Y-48577500D01*
X114617500Y-48260000D01*
X114300000Y-47625000D01*
X114617500Y-46990000D01*
X115252500Y-46672500D01*
X115887500Y-46990000D01*
G36*
X117475000Y-45402500D02*
G01*
X117792500Y-46037500D01*
X117475000Y-46672500D01*
X116840000Y-46990000D01*
X116205000Y-46672500D01*
X115887500Y-46037500D01*
X116205000Y-45402500D01*
X116840000Y-45085000D01*
X117475000Y-45402500D01*
G37*
X117475000Y-45402500D02*
X117792500Y-46037500D01*
X117475000Y-46672500D01*
X116840000Y-46990000D01*
X116205000Y-46672500D01*
X115887500Y-46037500D01*
X116205000Y-45402500D01*
X116840000Y-45085000D01*
X117475000Y-45402500D01*
G36*
X26035000Y-60325000D02*
G01*
X26352500Y-60960000D01*
X26035000Y-61595000D01*
X25400000Y-61912500D01*
X24765000Y-61595000D01*
X24447500Y-60960000D01*
X24765000Y-60325000D01*
X25400000Y-60007500D01*
X26035000Y-60325000D01*
G37*
X26035000Y-60325000D02*
X26352500Y-60960000D01*
X26035000Y-61595000D01*
X25400000Y-61912500D01*
X24765000Y-61595000D01*
X24447500Y-60960000D01*
X24765000Y-60325000D01*
X25400000Y-60007500D01*
X26035000Y-60325000D01*
G36*
X26035000Y-57785000D02*
G01*
X26352500Y-58420000D01*
X26035000Y-59055000D01*
X25400000Y-59372500D01*
X24765000Y-59055000D01*
X24447500Y-58420000D01*
X24765000Y-57785000D01*
X25400000Y-57467500D01*
X26035000Y-57785000D01*
G37*
X26035000Y-57785000D02*
X26352500Y-58420000D01*
X26035000Y-59055000D01*
X25400000Y-59372500D01*
X24765000Y-59055000D01*
X24447500Y-58420000D01*
X24765000Y-57785000D01*
X25400000Y-57467500D01*
X26035000Y-57785000D01*
G36*
X26035000Y-55245000D02*
G01*
X26352500Y-55880000D01*
X26035000Y-56515000D01*
X25400000Y-56832500D01*
X24765000Y-56515000D01*
X24447500Y-55880000D01*
X24765000Y-55245000D01*
X25400000Y-54927500D01*
X26035000Y-55245000D01*
G37*
X26035000Y-55245000D02*
X26352500Y-55880000D01*
X26035000Y-56515000D01*
X25400000Y-56832500D01*
X24765000Y-56515000D01*
X24447500Y-55880000D01*
X24765000Y-55245000D01*
X25400000Y-54927500D01*
X26035000Y-55245000D01*
G36*
X26035000Y-50165000D02*
G01*
X26352500Y-50800000D01*
X26035000Y-51435000D01*
X25400000Y-51752500D01*
X24765000Y-51435000D01*
X24447500Y-50800000D01*
X24765000Y-50165000D01*
X25400000Y-49847500D01*
X26035000Y-50165000D01*
G37*
X26035000Y-50165000D02*
X26352500Y-50800000D01*
X26035000Y-51435000D01*
X25400000Y-51752500D01*
X24765000Y-51435000D01*
X24447500Y-50800000D01*
X24765000Y-50165000D01*
X25400000Y-49847500D01*
X26035000Y-50165000D01*
G36*
X26035000Y-47625000D02*
G01*
X26352500Y-48260000D01*
X26035000Y-48895000D01*
X25400000Y-49212500D01*
X24765000Y-48895000D01*
X24447500Y-48260000D01*
X24765000Y-47625000D01*
X25400000Y-47307500D01*
X26035000Y-47625000D01*
G37*
X26035000Y-47625000D02*
X26352500Y-48260000D01*
X26035000Y-48895000D01*
X25400000Y-49212500D01*
X24765000Y-48895000D01*
X24447500Y-48260000D01*
X24765000Y-47625000D01*
X25400000Y-47307500D01*
X26035000Y-47625000D01*
G36*
X26035000Y-45085000D02*
G01*
X26352500Y-45720000D01*
X26035000Y-46355000D01*
X25400000Y-46672500D01*
X24765000Y-46355000D01*
X24447500Y-45720000D01*
X24765000Y-45085000D01*
X25400000Y-44767500D01*
X26035000Y-45085000D01*
G37*
X26035000Y-45085000D02*
X26352500Y-45720000D01*
X26035000Y-46355000D01*
X25400000Y-46672500D01*
X24765000Y-46355000D01*
X24447500Y-45720000D01*
X24765000Y-45085000D01*
X25400000Y-44767500D01*
X26035000Y-45085000D01*
G36*
X26035000Y-42545000D02*
G01*
X26352500Y-43180000D01*
X26035000Y-43815000D01*
X25400000Y-44132500D01*
X24765000Y-43815000D01*
X24447500Y-43180000D01*
X24765000Y-42545000D01*
X25400000Y-42227500D01*
X26035000Y-42545000D01*
G37*
X26035000Y-42545000D02*
X26352500Y-43180000D01*
X26035000Y-43815000D01*
X25400000Y-44132500D01*
X24765000Y-43815000D01*
X24447500Y-43180000D01*
X24765000Y-42545000D01*
X25400000Y-42227500D01*
X26035000Y-42545000D01*
G36*
X26035000Y-40005000D02*
G01*
X26352500Y-40640000D01*
X26035000Y-41275000D01*
X25400000Y-41592500D01*
X24765000Y-41275000D01*
X24447500Y-40640000D01*
X24765000Y-40005000D01*
X25400000Y-39687500D01*
X26035000Y-40005000D01*
G37*
X26035000Y-40005000D02*
X26352500Y-40640000D01*
X26035000Y-41275000D01*
X25400000Y-41592500D01*
X24765000Y-41275000D01*
X24447500Y-40640000D01*
X24765000Y-40005000D01*
X25400000Y-39687500D01*
X26035000Y-40005000D01*
G36*
X24765000Y-51435000D02*
G01*
X25082500Y-52070000D01*
X24765000Y-52705000D01*
X24130000Y-53022500D01*
X23495000Y-52705000D01*
X23177500Y-52070000D01*
X23495000Y-51435000D01*
X24130000Y-51117500D01*
X24765000Y-51435000D01*
G37*
X24765000Y-51435000D02*
X25082500Y-52070000D01*
X24765000Y-52705000D01*
X24130000Y-53022500D01*
X23495000Y-52705000D01*
X23177500Y-52070000D01*
X23495000Y-51435000D01*
X24130000Y-51117500D01*
X24765000Y-51435000D01*
G36*
X24765000Y-46355000D02*
G01*
X25082500Y-46990000D01*
X24765000Y-47625000D01*
X24130000Y-47942500D01*
X23495000Y-47625000D01*
X23177500Y-46990000D01*
X23495000Y-46355000D01*
X24130000Y-46037500D01*
X24765000Y-46355000D01*
G37*
X24765000Y-46355000D02*
X25082500Y-46990000D01*
X24765000Y-47625000D01*
X24130000Y-47942500D01*
X23495000Y-47625000D01*
X23177500Y-46990000D01*
X23495000Y-46355000D01*
X24130000Y-46037500D01*
X24765000Y-46355000D01*
G36*
X102870000Y-44450000D02*
G01*
X82550000Y-44450000D01*
X82550000Y-39370000D01*
X102870000Y-39370000D01*
X102870000Y-44450000D01*
G37*
X102870000Y-44450000D02*
X82550000Y-44450000D01*
X82550000Y-39370000D01*
X102870000Y-39370000D01*
X102870000Y-44450000D01*
G36*
X80010000Y-62865000D02*
G01*
X26670000Y-62865000D01*
X26670000Y-39370000D01*
X80010000Y-39370000D01*
X80010000Y-62865000D01*
G37*
X80010000Y-62865000D02*
X26670000Y-62865000D01*
X26670000Y-39370000D01*
X80010000Y-39370000D01*
X80010000Y-62865000D01*
G36*
X81915000Y-57785000D02*
G01*
X82232500Y-58420000D01*
X81915000Y-59055000D01*
X81280000Y-59372500D01*
X80645000Y-59055000D01*
X80327500Y-58420000D01*
X80645000Y-57785000D01*
X81280000Y-57467500D01*
X81915000Y-57785000D01*
G37*
X81915000Y-57785000D02*
X82232500Y-58420000D01*
X81915000Y-59055000D01*
X81280000Y-59372500D01*
X80645000Y-59055000D01*
X80327500Y-58420000D01*
X80645000Y-57785000D01*
X81280000Y-57467500D01*
X81915000Y-57785000D01*
G36*
X115887500Y-46990000D02*
G01*
X116205000Y-47625000D01*
X115887500Y-48260000D01*
X115252500Y-48577500D01*
X114617500Y-48260000D01*
X114300000Y-47625000D01*
X114617500Y-46990000D01*
X115252500Y-46672500D01*
X115887500Y-46990000D01*
G37*
X115887500Y-46990000D02*
X116205000Y-47625000D01*
X115887500Y-48260000D01*
X115252500Y-48577500D01*
X114617500Y-48260000D01*
X114300000Y-47625000D01*
X114617500Y-46990000D01*
X115252500Y-46672500D01*
X115887500Y-46990000D01*
G36*
X117475000Y-45402500D02*
G01*
X117792500Y-46037500D01*
X117475000Y-46672500D01*
X116840000Y-46990000D01*
X116205000Y-46672500D01*
X115887500Y-46037500D01*
X116205000Y-45402500D01*
X116840000Y-45085000D01*
X117475000Y-45402500D01*
G37*
X117475000Y-45402500D02*
X117792500Y-46037500D01*
X117475000Y-46672500D01*
X116840000Y-46990000D01*
X116205000Y-46672500D01*
X115887500Y-46037500D01*
X116205000Y-45402500D01*
X116840000Y-45085000D01*
X117475000Y-45402500D01*
G36*
X26035000Y-60325000D02*
G01*
X26352500Y-60960000D01*
X26035000Y-61595000D01*
X25400000Y-61912500D01*
X24765000Y-61595000D01*
X24447500Y-60960000D01*
X24765000Y-60325000D01*
X25400000Y-60007500D01*
X26035000Y-60325000D01*
G37*
X26035000Y-60325000D02*
X26352500Y-60960000D01*
X26035000Y-61595000D01*
X25400000Y-61912500D01*
X24765000Y-61595000D01*
X24447500Y-60960000D01*
X24765000Y-60325000D01*
X25400000Y-60007500D01*
X26035000Y-60325000D01*
G36*
X26035000Y-57785000D02*
G01*
X26352500Y-58420000D01*
X26035000Y-59055000D01*
X25400000Y-59372500D01*
X24765000Y-59055000D01*
X24447500Y-58420000D01*
X24765000Y-57785000D01*
X25400000Y-57467500D01*
X26035000Y-57785000D01*
G37*
X26035000Y-57785000D02*
X26352500Y-58420000D01*
X26035000Y-59055000D01*
X25400000Y-59372500D01*
X24765000Y-59055000D01*
X24447500Y-58420000D01*
X24765000Y-57785000D01*
X25400000Y-57467500D01*
X26035000Y-57785000D01*
G36*
X26035000Y-55245000D02*
G01*
X26352500Y-55880000D01*
X26035000Y-56515000D01*
X25400000Y-56832500D01*
X24765000Y-56515000D01*
X24447500Y-55880000D01*
X24765000Y-55245000D01*
X25400000Y-54927500D01*
X26035000Y-55245000D01*
G37*
X26035000Y-55245000D02*
X26352500Y-55880000D01*
X26035000Y-56515000D01*
X25400000Y-56832500D01*
X24765000Y-56515000D01*
X24447500Y-55880000D01*
X24765000Y-55245000D01*
X25400000Y-54927500D01*
X26035000Y-55245000D01*
G36*
X26035000Y-50165000D02*
G01*
X26352500Y-50800000D01*
X26035000Y-51435000D01*
X25400000Y-51752500D01*
X24765000Y-51435000D01*
X24447500Y-50800000D01*
X24765000Y-50165000D01*
X25400000Y-49847500D01*
X26035000Y-50165000D01*
G37*
X26035000Y-50165000D02*
X26352500Y-50800000D01*
X26035000Y-51435000D01*
X25400000Y-51752500D01*
X24765000Y-51435000D01*
X24447500Y-50800000D01*
X24765000Y-50165000D01*
X25400000Y-49847500D01*
X26035000Y-50165000D01*
G36*
X26035000Y-47625000D02*
G01*
X26352500Y-48260000D01*
X26035000Y-48895000D01*
X25400000Y-49212500D01*
X24765000Y-48895000D01*
X24447500Y-48260000D01*
X24765000Y-47625000D01*
X25400000Y-47307500D01*
X26035000Y-47625000D01*
G37*
X26035000Y-47625000D02*
X26352500Y-48260000D01*
X26035000Y-48895000D01*
X25400000Y-49212500D01*
X24765000Y-48895000D01*
X24447500Y-48260000D01*
X24765000Y-47625000D01*
X25400000Y-47307500D01*
X26035000Y-47625000D01*
G36*
X26035000Y-45085000D02*
G01*
X26352500Y-45720000D01*
X26035000Y-46355000D01*
X25400000Y-46672500D01*
X24765000Y-46355000D01*
X24447500Y-45720000D01*
X24765000Y-45085000D01*
X25400000Y-44767500D01*
X26035000Y-45085000D01*
G37*
X26035000Y-45085000D02*
X26352500Y-45720000D01*
X26035000Y-46355000D01*
X25400000Y-46672500D01*
X24765000Y-46355000D01*
X24447500Y-45720000D01*
X24765000Y-45085000D01*
X25400000Y-44767500D01*
X26035000Y-45085000D01*
G36*
X26035000Y-42545000D02*
G01*
X26352500Y-43180000D01*
X26035000Y-43815000D01*
X25400000Y-44132500D01*
X24765000Y-43815000D01*
X24447500Y-43180000D01*
X24765000Y-42545000D01*
X25400000Y-42227500D01*
X26035000Y-42545000D01*
G37*
X26035000Y-42545000D02*
X26352500Y-43180000D01*
X26035000Y-43815000D01*
X25400000Y-44132500D01*
X24765000Y-43815000D01*
X24447500Y-43180000D01*
X24765000Y-42545000D01*
X25400000Y-42227500D01*
X26035000Y-42545000D01*
G36*
X26035000Y-40005000D02*
G01*
X26352500Y-40640000D01*
X26035000Y-41275000D01*
X25400000Y-41592500D01*
X24765000Y-41275000D01*
X24447500Y-40640000D01*
X24765000Y-40005000D01*
X25400000Y-39687500D01*
X26035000Y-40005000D01*
G37*
X26035000Y-40005000D02*
X26352500Y-40640000D01*
X26035000Y-41275000D01*
X25400000Y-41592500D01*
X24765000Y-41275000D01*
X24447500Y-40640000D01*
X24765000Y-40005000D01*
X25400000Y-39687500D01*
X26035000Y-40005000D01*
G36*
X24765000Y-51435000D02*
G01*
X25082500Y-52070000D01*
X24765000Y-52705000D01*
X24130000Y-53022500D01*
X23495000Y-52705000D01*
X23177500Y-52070000D01*
X23495000Y-51435000D01*
X24130000Y-51117500D01*
X24765000Y-51435000D01*
G37*
X24765000Y-51435000D02*
X25082500Y-52070000D01*
X24765000Y-52705000D01*
X24130000Y-53022500D01*
X23495000Y-52705000D01*
X23177500Y-52070000D01*
X23495000Y-51435000D01*
X24130000Y-51117500D01*
X24765000Y-51435000D01*
G36*
X24765000Y-46355000D02*
G01*
X25082500Y-46990000D01*
X24765000Y-47625000D01*
X24130000Y-47942500D01*
X23495000Y-47625000D01*
X23177500Y-46990000D01*
X23495000Y-46355000D01*
X24130000Y-46037500D01*
X24765000Y-46355000D01*
G37*
X24765000Y-46355000D02*
X25082500Y-46990000D01*
X24765000Y-47625000D01*
X24130000Y-47942500D01*
X23495000Y-47625000D01*
X23177500Y-46990000D01*
X23495000Y-46355000D01*
X24130000Y-46037500D01*
X24765000Y-46355000D01*
G36*
X102870000Y-44450000D02*
G01*
X82550000Y-44450000D01*
X82550000Y-39370000D01*
X102870000Y-39370000D01*
X102870000Y-44450000D01*
G37*
X102870000Y-44450000D02*
X82550000Y-44450000D01*
X82550000Y-39370000D01*
X102870000Y-39370000D01*
X102870000Y-44450000D01*
G36*
X80010000Y-62865000D02*
G01*
X26670000Y-62865000D01*
X26670000Y-39370000D01*
X80010000Y-39370000D01*
X80010000Y-62865000D01*
G37*
X80010000Y-62865000D02*
X26670000Y-62865000D01*
X26670000Y-39370000D01*
X80010000Y-39370000D01*
X80010000Y-62865000D01*
G36*
G01*
X28419752Y-52991000D02*
X27460248Y-52991000D01*
G75*
G02*
X27189000Y-52719752I0J271248D01*
G01*
X27189000Y-51960248D01*
G75*
G02*
X27460248Y-51689000I271248J0D01*
G01*
X28419752Y-51689000D01*
G75*
G02*
X28691000Y-51960248I0J-271248D01*
G01*
X28691000Y-52719752D01*
G75*
G02*
X28419752Y-52991000I-271248J0D01*
G01*
G37*
G36*
G01*
X28419752Y-54991000D02*
X27460248Y-54991000D01*
G75*
G02*
X27189000Y-54719752I0J271248D01*
G01*
X27189000Y-53960248D01*
G75*
G02*
X27460248Y-53689000I271248J0D01*
G01*
X28419752Y-53689000D01*
G75*
G02*
X28691000Y-53960248I0J-271248D01*
G01*
X28691000Y-54719752D01*
G75*
G02*
X28419752Y-54991000I-271248J0D01*
G01*
G37*
G36*
G01*
X110141000Y-40160248D02*
X110141000Y-41119752D01*
G75*
G02*
X109869752Y-41391000I-271248J0D01*
G01*
X109110248Y-41391000D01*
G75*
G02*
X108839000Y-41119752I0J271248D01*
G01*
X108839000Y-40160248D01*
G75*
G02*
X109110248Y-39889000I271248J0D01*
G01*
X109869752Y-39889000D01*
G75*
G02*
X110141000Y-40160248I0J-271248D01*
G01*
G37*
G36*
G01*
X112141000Y-40160248D02*
X112141000Y-41119752D01*
G75*
G02*
X111869752Y-41391000I-271248J0D01*
G01*
X111110248Y-41391000D01*
G75*
G02*
X110839000Y-41119752I0J271248D01*
G01*
X110839000Y-40160248D01*
G75*
G02*
X111110248Y-39889000I271248J0D01*
G01*
X111869752Y-39889000D01*
G75*
G02*
X112141000Y-40160248I0J-271248D01*
G01*
G37*
D11*
X83820000Y-64135000D03*
X86360000Y-64135000D03*
X88900000Y-64135000D03*
X91440000Y-64135000D03*
X93980000Y-64135000D03*
X96520000Y-64135000D03*
X99060000Y-64135000D03*
G36*
G01*
X100750000Y-63234000D02*
X102450000Y-63234000D01*
G75*
G02*
X102501000Y-63285000I0J-51000D01*
G01*
X102501000Y-64985000D01*
G75*
G02*
X102450000Y-65036000I-51000J0D01*
G01*
X100750000Y-65036000D01*
G75*
G02*
X100699000Y-64985000I0J51000D01*
G01*
X100699000Y-63285000D01*
G75*
G02*
X100750000Y-63234000I51000J0D01*
G01*
G37*
X60960000Y-64135000D03*
X63500000Y-64135000D03*
X66040000Y-64135000D03*
X68580000Y-64135000D03*
X71120000Y-64135000D03*
X73660000Y-64135000D03*
X76200000Y-64135000D03*
G36*
G01*
X77890000Y-63234000D02*
X79590000Y-63234000D01*
G75*
G02*
X79641000Y-63285000I0J-51000D01*
G01*
X79641000Y-64985000D01*
G75*
G02*
X79590000Y-65036000I-51000J0D01*
G01*
X77890000Y-65036000D01*
G75*
G02*
X77839000Y-64985000I0J51000D01*
G01*
X77839000Y-63285000D01*
G75*
G02*
X77890000Y-63234000I51000J0D01*
G01*
G37*
X38100000Y-64135000D03*
X40640000Y-64135000D03*
X43180000Y-64135000D03*
X45720000Y-64135000D03*
X48260000Y-64135000D03*
X50800000Y-64135000D03*
X53340000Y-64135000D03*
G36*
G01*
X55030000Y-63234000D02*
X56730000Y-63234000D01*
G75*
G02*
X56781000Y-63285000I0J-51000D01*
G01*
X56781000Y-64985000D01*
G75*
G02*
X56730000Y-65036000I-51000J0D01*
G01*
X55030000Y-65036000D01*
G75*
G02*
X54979000Y-64985000I0J51000D01*
G01*
X54979000Y-63285000D01*
G75*
G02*
X55030000Y-63234000I51000J0D01*
G01*
G37*
D12*
X107950000Y-58420000D03*
X112950000Y-58420000D03*
G36*
G01*
X103340000Y-44869000D02*
X104940000Y-44869000D01*
G75*
G02*
X104991000Y-44920000I0J-51000D01*
G01*
X104991000Y-46520000D01*
G75*
G02*
X104940000Y-46571000I-51000J0D01*
G01*
X103340000Y-46571000D01*
G75*
G02*
X103289000Y-46520000I0J51000D01*
G01*
X103289000Y-44920000D01*
G75*
G02*
X103340000Y-44869000I51000J0D01*
G01*
G37*
D13*
X81280000Y-53340000D03*
X101600000Y-45720000D03*
X83820000Y-53340000D03*
X99060000Y-45720000D03*
X86360000Y-53340000D03*
X96520000Y-45720000D03*
X88900000Y-53340000D03*
X93980000Y-45720000D03*
X91440000Y-53340000D03*
X91440000Y-45720000D03*
X93980000Y-53340000D03*
X88900000Y-45720000D03*
X96520000Y-53340000D03*
X86360000Y-45720000D03*
X99060000Y-53340000D03*
X83820000Y-45720000D03*
X101600000Y-53340000D03*
X81280000Y-45720000D03*
X104140000Y-53340000D03*
G36*
G01*
X115990000Y-63234000D02*
X117690000Y-63234000D01*
G75*
G02*
X117741000Y-63285000I0J-51000D01*
G01*
X117741000Y-64985000D01*
G75*
G02*
X117690000Y-65036000I-51000J0D01*
G01*
X115990000Y-65036000D01*
G75*
G02*
X115939000Y-64985000I0J51000D01*
G01*
X115939000Y-63285000D01*
G75*
G02*
X115990000Y-63234000I51000J0D01*
G01*
G37*
D11*
X114300000Y-64135000D03*
X111760000Y-64135000D03*
X109220000Y-64135000D03*
X106680000Y-64135000D03*
G36*
G01*
X109615000Y-44021500D02*
X110215000Y-44021500D01*
G75*
G02*
X110266000Y-44072500I0J-51000D01*
G01*
X110266000Y-44672500D01*
G75*
G02*
X110215000Y-44723500I-51000J0D01*
G01*
X109615000Y-44723500D01*
G75*
G02*
X109564000Y-44672500I0J51000D01*
G01*
X109564000Y-44072500D01*
G75*
G02*
X109615000Y-44021500I51000J0D01*
G01*
G37*
G36*
G01*
X109615000Y-45521500D02*
X110215000Y-45521500D01*
G75*
G02*
X110266000Y-45572500I0J-51000D01*
G01*
X110266000Y-46172500D01*
G75*
G02*
X110215000Y-46223500I-51000J0D01*
G01*
X109615000Y-46223500D01*
G75*
G02*
X109564000Y-46172500I0J51000D01*
G01*
X109564000Y-45572500D01*
G75*
G02*
X109615000Y-45521500I51000J0D01*
G01*
G37*
G36*
G01*
X111415000Y-45521500D02*
X112015000Y-45521500D01*
G75*
G02*
X112066000Y-45572500I0J-51000D01*
G01*
X112066000Y-46172500D01*
G75*
G02*
X112015000Y-46223500I-51000J0D01*
G01*
X111415000Y-46223500D01*
G75*
G02*
X111364000Y-46172500I0J51000D01*
G01*
X111364000Y-45572500D01*
G75*
G02*
X111415000Y-45521500I51000J0D01*
G01*
G37*
G36*
G01*
X111415000Y-44021500D02*
X112015000Y-44021500D01*
G75*
G02*
X112066000Y-44072500I0J-51000D01*
G01*
X112066000Y-44672500D01*
G75*
G02*
X112015000Y-44723500I-51000J0D01*
G01*
X111415000Y-44723500D01*
G75*
G02*
X111364000Y-44672500I0J51000D01*
G01*
X111364000Y-44072500D01*
G75*
G02*
X111415000Y-44021500I51000J0D01*
G01*
G37*
G36*
G01*
X111415000Y-44871500D02*
X112015000Y-44871500D01*
G75*
G02*
X112066000Y-44922500I0J-51000D01*
G01*
X112066000Y-45322500D01*
G75*
G02*
X112015000Y-45373500I-51000J0D01*
G01*
X111415000Y-45373500D01*
G75*
G02*
X111364000Y-45322500I0J51000D01*
G01*
X111364000Y-44922500D01*
G75*
G02*
X111415000Y-44871500I51000J0D01*
G01*
G37*
M02*
