G04 #@! TF.GenerationSoftware,KiCad,Pcbnew,(5.1.8)-1*
G04 #@! TF.CreationDate,2022-02-21T20:21:33+03:00*
G04 #@! TF.ProjectId,template,74656d70-6c61-4746-952e-6b696361645f,rev?*
G04 #@! TF.SameCoordinates,Original*
G04 #@! TF.FileFunction,Copper,L2,Bot*
G04 #@! TF.FilePolarity,Positive*
%FSLAX46Y46*%
G04 Gerber Fmt 4.6, Leading zero omitted, Abs format (unit mm)*
G04 Created by KiCad (PCBNEW (5.1.8)-1) date 2022-02-21 20:21:33*
%MOMM*%
%LPD*%
G01*
G04 APERTURE LIST*
G04 #@! TA.AperFunction,ComponentPad*
%ADD10O,1.700000X1.700000*%
G04 #@! TD*
G04 #@! TA.AperFunction,ComponentPad*
%ADD11R,1.700000X1.700000*%
G04 #@! TD*
G04 #@! TA.AperFunction,ComponentPad*
%ADD12C,1.600000*%
G04 #@! TD*
G04 #@! TA.AperFunction,ComponentPad*
%ADD13R,1.600000X1.600000*%
G04 #@! TD*
G04 #@! TA.AperFunction,ComponentPad*
%ADD14O,1.600000X1.600000*%
G04 #@! TD*
G04 #@! TA.AperFunction,SMDPad,CuDef*
%ADD15R,0.600000X0.600000*%
G04 #@! TD*
G04 #@! TA.AperFunction,SMDPad,CuDef*
%ADD16R,0.600000X0.400000*%
G04 #@! TD*
G04 #@! TA.AperFunction,ViaPad*
%ADD17C,1.600000*%
G04 #@! TD*
G04 #@! TA.AperFunction,Conductor*
%ADD18C,1.200000*%
G04 #@! TD*
G04 #@! TA.AperFunction,Conductor*
%ADD19C,0.250000*%
G04 #@! TD*
G04 #@! TA.AperFunction,Conductor*
%ADD20C,0.800000*%
G04 #@! TD*
G04 #@! TA.AperFunction,Conductor*
%ADD21C,0.500000*%
G04 #@! TD*
G04 #@! TA.AperFunction,Conductor*
%ADD22C,0.600000*%
G04 #@! TD*
G04 #@! TA.AperFunction,Conductor*
%ADD23C,0.400000*%
G04 #@! TD*
G04 APERTURE END LIST*
G04 #@! TA.AperFunction,SMDPad,CuDef*
G36*
G01*
X28390001Y-52940000D02*
X27489999Y-52940000D01*
G75*
G02*
X27240000Y-52690001I0J249999D01*
G01*
X27240000Y-51989999D01*
G75*
G02*
X27489999Y-51740000I249999J0D01*
G01*
X28390001Y-51740000D01*
G75*
G02*
X28640000Y-51989999I0J-249999D01*
G01*
X28640000Y-52690001D01*
G75*
G02*
X28390001Y-52940000I-249999J0D01*
G01*
G37*
G04 #@! TD.AperFunction*
G04 #@! TA.AperFunction,SMDPad,CuDef*
G36*
G01*
X28390001Y-54940000D02*
X27489999Y-54940000D01*
G75*
G02*
X27240000Y-54690001I0J249999D01*
G01*
X27240000Y-53989999D01*
G75*
G02*
X27489999Y-53740000I249999J0D01*
G01*
X28390001Y-53740000D01*
G75*
G02*
X28640000Y-53989999I0J-249999D01*
G01*
X28640000Y-54690001D01*
G75*
G02*
X28390001Y-54940000I-249999J0D01*
G01*
G37*
G04 #@! TD.AperFunction*
G04 #@! TA.AperFunction,SMDPad,CuDef*
G36*
G01*
X110090000Y-40189999D02*
X110090000Y-41090001D01*
G75*
G02*
X109840001Y-41340000I-249999J0D01*
G01*
X109139999Y-41340000D01*
G75*
G02*
X108890000Y-41090001I0J249999D01*
G01*
X108890000Y-40189999D01*
G75*
G02*
X109139999Y-39940000I249999J0D01*
G01*
X109840001Y-39940000D01*
G75*
G02*
X110090000Y-40189999I0J-249999D01*
G01*
G37*
G04 #@! TD.AperFunction*
G04 #@! TA.AperFunction,SMDPad,CuDef*
G36*
G01*
X112090000Y-40189999D02*
X112090000Y-41090001D01*
G75*
G02*
X111840001Y-41340000I-249999J0D01*
G01*
X111139999Y-41340000D01*
G75*
G02*
X110890000Y-41090001I0J249999D01*
G01*
X110890000Y-40189999D01*
G75*
G02*
X111139999Y-39940000I249999J0D01*
G01*
X111840001Y-39940000D01*
G75*
G02*
X112090000Y-40189999I0J-249999D01*
G01*
G37*
G04 #@! TD.AperFunction*
D10*
X83820000Y-64135000D03*
X86360000Y-64135000D03*
X88900000Y-64135000D03*
X91440000Y-64135000D03*
X93980000Y-64135000D03*
X96520000Y-64135000D03*
X99060000Y-64135000D03*
D11*
X101600000Y-64135000D03*
D10*
X60960000Y-64135000D03*
X63500000Y-64135000D03*
X66040000Y-64135000D03*
X68580000Y-64135000D03*
X71120000Y-64135000D03*
X73660000Y-64135000D03*
X76200000Y-64135000D03*
D11*
X78740000Y-64135000D03*
D10*
X38100000Y-64135000D03*
X40640000Y-64135000D03*
X43180000Y-64135000D03*
X45720000Y-64135000D03*
X48260000Y-64135000D03*
X50800000Y-64135000D03*
X53340000Y-64135000D03*
D11*
X55880000Y-64135000D03*
D12*
X107950000Y-58420000D03*
X112950000Y-58420000D03*
D13*
X104140000Y-45720000D03*
D14*
X81280000Y-53340000D03*
X101600000Y-45720000D03*
X83820000Y-53340000D03*
X99060000Y-45720000D03*
X86360000Y-53340000D03*
X96520000Y-45720000D03*
X88900000Y-53340000D03*
X93980000Y-45720000D03*
X91440000Y-53340000D03*
X91440000Y-45720000D03*
X93980000Y-53340000D03*
X88900000Y-45720000D03*
X96520000Y-53340000D03*
X86360000Y-45720000D03*
X99060000Y-53340000D03*
X83820000Y-45720000D03*
X101600000Y-53340000D03*
X81280000Y-45720000D03*
X104140000Y-53340000D03*
D11*
X116840000Y-64135000D03*
D10*
X114300000Y-64135000D03*
X111760000Y-64135000D03*
X109220000Y-64135000D03*
X106680000Y-64135000D03*
D15*
X109915000Y-44372500D03*
X109915000Y-45872500D03*
X111715000Y-45872500D03*
X111715000Y-44372500D03*
D16*
X111715000Y-45122500D03*
D17*
X76200000Y-53340000D03*
X76200000Y-55880000D03*
X76200000Y-58420000D03*
X73660000Y-55880000D03*
X73660000Y-58420000D03*
X73660000Y-53340000D03*
X71120000Y-55880000D03*
X71120000Y-58420000D03*
X71120000Y-53340000D03*
X68580000Y-55880000D03*
X68580000Y-58420000D03*
X68580000Y-53340000D03*
X66040000Y-55880000D03*
X66040000Y-58420000D03*
X66040000Y-53340000D03*
X63500000Y-55880000D03*
X63500000Y-58420000D03*
X63500000Y-53340000D03*
X60960000Y-55880000D03*
X60960000Y-58420000D03*
X60960000Y-53340000D03*
X58420000Y-55880000D03*
X58420000Y-58420000D03*
X58420000Y-53340000D03*
X55880000Y-55880000D03*
X55880000Y-58420000D03*
X55880000Y-53340000D03*
X53340000Y-55880000D03*
X53340000Y-58420000D03*
X53340000Y-53340000D03*
X50800000Y-55880000D03*
X50800000Y-58420000D03*
X50800000Y-53340000D03*
X48260000Y-55880000D03*
X48260000Y-58420000D03*
X48260000Y-53340000D03*
X45720000Y-55880000D03*
X45720000Y-58420000D03*
X45720000Y-53340000D03*
X43180000Y-55880000D03*
X43180000Y-58420000D03*
X43180000Y-53340000D03*
X40640000Y-55880000D03*
X40640000Y-58420000D03*
X40640000Y-53340000D03*
X38100000Y-55880000D03*
X38100000Y-58420000D03*
X38100000Y-53340000D03*
X35560000Y-55880000D03*
X35560000Y-58420000D03*
X35560000Y-53340000D03*
X33020000Y-55880000D03*
X33020000Y-58420000D03*
X33020000Y-53340000D03*
X78740000Y-58420000D03*
X78740000Y-55880000D03*
X78740000Y-53340000D03*
X76200000Y-43180000D03*
X76200000Y-45720000D03*
X76200000Y-40640000D03*
X78740000Y-43180000D03*
X78740000Y-40640000D03*
X78740000Y-45720000D03*
X50800000Y-45720000D03*
X45720000Y-45720000D03*
X53340000Y-43180000D03*
X40640000Y-45720000D03*
X50800000Y-40640000D03*
X45720000Y-40640000D03*
X48260000Y-43180000D03*
X35560000Y-45720000D03*
X40640000Y-40640000D03*
X43180000Y-43180000D03*
X35560000Y-40640000D03*
X38100000Y-43180000D03*
X38100000Y-45720000D03*
X35560000Y-43180000D03*
X33020000Y-43180000D03*
X33020000Y-40640000D03*
X40640000Y-43180000D03*
X38100000Y-40640000D03*
X43180000Y-45720000D03*
X45720000Y-43180000D03*
X43180000Y-40640000D03*
X48260000Y-45720000D03*
X50800000Y-43180000D03*
X48260000Y-40640000D03*
X53340000Y-40640000D03*
X53340000Y-45720000D03*
X33020000Y-45720000D03*
X73660000Y-45720000D03*
X73660000Y-43180000D03*
X73660000Y-40640000D03*
X71120000Y-45720000D03*
X71120000Y-43180000D03*
X71120000Y-40640000D03*
X68580000Y-45720000D03*
X68580000Y-43180000D03*
X68580000Y-40640000D03*
X66040000Y-45720000D03*
X66040000Y-43180000D03*
X66040000Y-40640000D03*
X63500000Y-45720000D03*
X63500000Y-43180000D03*
X63500000Y-40640000D03*
X60960000Y-45720000D03*
X60960000Y-43180000D03*
X60960000Y-40640000D03*
X58420000Y-45720000D03*
X58420000Y-43180000D03*
X58420000Y-40640000D03*
X55880000Y-45720000D03*
X55880000Y-43180000D03*
X55880000Y-40640000D03*
X27940000Y-43180000D03*
X27940000Y-40640000D03*
X27940000Y-45720000D03*
X27940000Y-58420000D03*
X25400000Y-40640000D03*
X25400000Y-43180000D03*
X25400000Y-45720000D03*
X25400000Y-58420000D03*
X25400000Y-60960000D03*
X27940000Y-60960000D03*
X30480000Y-40640000D03*
X30480000Y-43180000D03*
X30480000Y-45720000D03*
X30480000Y-58420000D03*
X30480000Y-60960000D03*
X30480000Y-53340000D03*
X30480000Y-55880000D03*
X38100000Y-60960000D03*
X40640000Y-60960000D03*
X43180000Y-60960000D03*
X45720000Y-60960000D03*
X48260000Y-60960000D03*
X50800000Y-60960000D03*
X53340000Y-60960000D03*
X55880000Y-60960000D03*
X60960000Y-60960000D03*
X63500000Y-60960000D03*
X66040000Y-60960000D03*
X68580000Y-60960000D03*
X71120000Y-60960000D03*
X73660000Y-60960000D03*
X76200000Y-60960000D03*
X78740000Y-60960000D03*
X116840000Y-46037500D03*
X25400000Y-48260000D03*
X33020000Y-48260000D03*
X81280000Y-50800000D03*
X76200000Y-48260000D03*
X73660000Y-48260000D03*
X71120000Y-48260000D03*
X68580000Y-48260000D03*
X66040000Y-48260000D03*
X63500000Y-48260000D03*
X60960000Y-48260000D03*
X58420000Y-48260000D03*
X55880000Y-48260000D03*
X53340000Y-48260000D03*
X50800000Y-48260000D03*
X48260000Y-48260000D03*
X45720000Y-48260000D03*
X43180000Y-48260000D03*
X40640000Y-48260000D03*
X38100000Y-48260000D03*
X35560000Y-48260000D03*
X27940000Y-48260000D03*
X107710000Y-44372500D03*
X107710000Y-50800000D03*
X30480000Y-48260000D03*
X78740000Y-48260000D03*
X25400000Y-50800000D03*
X33020000Y-50800000D03*
X35560000Y-50800000D03*
X38100000Y-50800000D03*
X40640000Y-50800000D03*
X43180000Y-50800000D03*
X45720000Y-50800000D03*
X48260000Y-50800000D03*
X50800000Y-50800000D03*
X53340000Y-50800000D03*
X55880000Y-50800000D03*
X58420000Y-50800000D03*
X60960000Y-50800000D03*
X63500000Y-50800000D03*
X66040000Y-50800000D03*
X68580000Y-50800000D03*
X71120000Y-50800000D03*
X73660000Y-50800000D03*
X76200000Y-50800000D03*
X81280000Y-48260000D03*
X27940000Y-50800000D03*
X30480000Y-50800000D03*
X78740000Y-50800000D03*
X101600000Y-43180000D03*
X101600000Y-40640000D03*
X99060000Y-43180000D03*
X99060000Y-40640000D03*
X96520000Y-43180000D03*
X96520000Y-40640000D03*
X93980000Y-43180000D03*
X93980000Y-40640000D03*
X91440000Y-43180000D03*
X91440000Y-40640000D03*
X88900000Y-43180000D03*
X88900000Y-40640000D03*
X86360000Y-43180000D03*
X86360000Y-40640000D03*
X83820000Y-43180000D03*
X83820000Y-40640000D03*
X81280000Y-58420000D03*
X115252500Y-47625000D03*
X25400000Y-55880000D03*
X27940000Y-55880000D03*
D18*
X76200000Y-53340000D02*
X76200000Y-55880000D01*
X76200000Y-55880000D02*
X76200000Y-58420000D01*
X73660000Y-55880000D02*
X73660000Y-58420000D01*
X73660000Y-53340000D02*
X73660000Y-55880000D01*
X71120000Y-55880000D02*
X71120000Y-58420000D01*
X71120000Y-53340000D02*
X71120000Y-55880000D01*
X68580000Y-55880000D02*
X68580000Y-58420000D01*
X68580000Y-53340000D02*
X68580000Y-55880000D01*
X66040000Y-55880000D02*
X66040000Y-58420000D01*
X66040000Y-53340000D02*
X66040000Y-55880000D01*
X63500000Y-55880000D02*
X63500000Y-58420000D01*
X63500000Y-53340000D02*
X63500000Y-55880000D01*
X60960000Y-55880000D02*
X60960000Y-58420000D01*
X60960000Y-53340000D02*
X60960000Y-55880000D01*
X58420000Y-55880000D02*
X58420000Y-58420000D01*
X58420000Y-53340000D02*
X58420000Y-55880000D01*
X55880000Y-55880000D02*
X55880000Y-58420000D01*
X55880000Y-53340000D02*
X55880000Y-55880000D01*
X53340000Y-55880000D02*
X53340000Y-58420000D01*
X53340000Y-53340000D02*
X53340000Y-55880000D01*
X50800000Y-55880000D02*
X50800000Y-58420000D01*
X50800000Y-53340000D02*
X50800000Y-55880000D01*
X48260000Y-55880000D02*
X48260000Y-58420000D01*
X48260000Y-53340000D02*
X48260000Y-55880000D01*
X45720000Y-55880000D02*
X45720000Y-58420000D01*
X45720000Y-53340000D02*
X45720000Y-55880000D01*
X43180000Y-55880000D02*
X43180000Y-58420000D01*
X43180000Y-53340000D02*
X43180000Y-55880000D01*
X40640000Y-55880000D02*
X40640000Y-58420000D01*
X40640000Y-53340000D02*
X40640000Y-55880000D01*
X38100000Y-55880000D02*
X38100000Y-58420000D01*
X38100000Y-53340000D02*
X38100000Y-55880000D01*
X35560000Y-55880000D02*
X35560000Y-58420000D01*
X35560000Y-53340000D02*
X35560000Y-55880000D01*
X33020000Y-55880000D02*
X33020000Y-58420000D01*
X33020000Y-53340000D02*
X33020000Y-55880000D01*
X78740000Y-53340000D02*
X78740000Y-55880000D01*
X78740000Y-55880000D02*
X78740000Y-58420000D01*
X48260000Y-40640000D02*
X48260000Y-43180000D01*
X48260000Y-43180000D02*
X48260000Y-45720000D01*
X50800000Y-40640000D02*
X50800000Y-43180000D01*
X50800000Y-43180000D02*
X50800000Y-45720000D01*
X53340000Y-40640000D02*
X53340000Y-43180000D01*
X53340000Y-43180000D02*
X53340000Y-45720000D01*
X55880000Y-40640000D02*
X55880000Y-43180000D01*
X55880000Y-43180000D02*
X55880000Y-45720000D01*
X58420000Y-40640000D02*
X58420000Y-43180000D01*
X58420000Y-43180000D02*
X58420000Y-45720000D01*
X60960000Y-40640000D02*
X60960000Y-43180000D01*
X60960000Y-43180000D02*
X60960000Y-45720000D01*
X63500000Y-40640000D02*
X63500000Y-43180000D01*
X63500000Y-43180000D02*
X63500000Y-45720000D01*
X66040000Y-40640000D02*
X66040000Y-43180000D01*
X66040000Y-43180000D02*
X66040000Y-45720000D01*
X68580000Y-40640000D02*
X68580000Y-43180000D01*
X68580000Y-43180000D02*
X68580000Y-45720000D01*
X71120000Y-40640000D02*
X71120000Y-43180000D01*
X71120000Y-43180000D02*
X71120000Y-45720000D01*
X45720000Y-43180000D02*
X45720000Y-45720000D01*
X45720000Y-40640000D02*
X45720000Y-43180000D01*
X43180000Y-43180000D02*
X43180000Y-45720000D01*
X43180000Y-40640000D02*
X43180000Y-43180000D01*
X40640000Y-43180000D02*
X40640000Y-45720000D01*
X40640000Y-40640000D02*
X40640000Y-43180000D01*
X38100000Y-43180000D02*
X38100000Y-45720000D01*
X38100000Y-40640000D02*
X38100000Y-43180000D01*
X35560000Y-43180000D02*
X35560000Y-45720000D01*
X35560000Y-40640000D02*
X35560000Y-43180000D01*
X33020000Y-43180000D02*
X33020000Y-45720000D01*
X33020000Y-40640000D02*
X33020000Y-43180000D01*
X78740000Y-43180000D02*
X78740000Y-45720000D01*
X78740000Y-40640000D02*
X78740000Y-43180000D01*
X73660000Y-43180000D02*
X73660000Y-45720000D01*
X76200000Y-43180000D02*
X76200000Y-45720000D01*
X76200000Y-40640000D02*
X76200000Y-43180000D01*
X73660000Y-40640000D02*
X73660000Y-43180000D01*
X25400000Y-40640000D02*
X27940000Y-40640000D01*
X25400000Y-43180000D02*
X27940000Y-43180000D01*
X25400000Y-45720000D02*
X27940000Y-45720000D01*
X25400000Y-58420000D02*
X27940000Y-58420000D01*
X25400000Y-60960000D02*
X27940000Y-60960000D01*
D19*
X23812500Y-51435000D02*
X23812500Y-52070000D01*
X23812500Y-52070000D02*
X25082500Y-52070000D01*
X23812500Y-52070000D02*
X23812500Y-52705000D01*
X23495000Y-46990000D02*
X24765000Y-46990000D01*
X24130000Y-46355000D02*
X24130000Y-47625000D01*
D18*
X30480000Y-40640000D02*
X30480000Y-43180000D01*
X30480000Y-43180000D02*
X30480000Y-45720000D01*
X30480000Y-53340000D02*
X30480000Y-55880000D01*
X30480000Y-55880000D02*
X30480000Y-58420000D01*
X38100000Y-64135000D02*
X38100000Y-60960000D01*
X38100000Y-60960000D02*
X38100000Y-60960000D01*
X40640000Y-64135000D02*
X40640000Y-60960000D01*
X40640000Y-60960000D02*
X40640000Y-60960000D01*
X43180000Y-64135000D02*
X43180000Y-60960000D01*
X43180000Y-60960000D02*
X43180000Y-60960000D01*
X45720000Y-64135000D02*
X45720000Y-60960000D01*
X45720000Y-60960000D02*
X45720000Y-60960000D01*
X48260000Y-64135000D02*
X48260000Y-60960000D01*
X48260000Y-60960000D02*
X48260000Y-60960000D01*
X50800000Y-64135000D02*
X50800000Y-60960000D01*
X50800000Y-60960000D02*
X50800000Y-60960000D01*
X53340000Y-64135000D02*
X53340000Y-60960000D01*
X53340000Y-60960000D02*
X53340000Y-60960000D01*
X55880000Y-64135000D02*
X55880000Y-60960000D01*
X55880000Y-60960000D02*
X55880000Y-60960000D01*
X60960000Y-64135000D02*
X60960000Y-60960000D01*
X60960000Y-60960000D02*
X60960000Y-60960000D01*
X63500000Y-64135000D02*
X63500000Y-60960000D01*
X63500000Y-60960000D02*
X63500000Y-60960000D01*
X66040000Y-64135000D02*
X66040000Y-60960000D01*
X66040000Y-60960000D02*
X66040000Y-60960000D01*
X68580000Y-64135000D02*
X68580000Y-60960000D01*
X68580000Y-60960000D02*
X68580000Y-60960000D01*
X71120000Y-64135000D02*
X71120000Y-60960000D01*
X71120000Y-60960000D02*
X71120000Y-60960000D01*
X73660000Y-64135000D02*
X73660000Y-60960000D01*
X73660000Y-60960000D02*
X73660000Y-60960000D01*
X76200000Y-64135000D02*
X76200000Y-60960000D01*
X76200000Y-60960000D02*
X76200000Y-60960000D01*
X78740000Y-64135000D02*
X78740000Y-60960000D01*
X78740000Y-60960000D02*
X78740000Y-60960000D01*
D20*
X83820000Y-53340000D02*
X83820000Y-64135000D01*
X86360000Y-53340000D02*
X86360000Y-64135000D01*
X88900000Y-53340000D02*
X88900000Y-64135000D01*
X91440000Y-53340000D02*
X91440000Y-64135000D01*
X93980000Y-53340000D02*
X93980000Y-64135000D01*
X96520000Y-53340000D02*
X96520000Y-64135000D01*
X99060000Y-53340000D02*
X99060000Y-64135000D01*
X101600000Y-53340000D02*
X101600000Y-64135000D01*
D21*
X111715000Y-44372500D02*
X115175000Y-44372500D01*
X115175000Y-44372500D02*
X116840000Y-46037500D01*
D22*
X116840000Y-48895000D02*
X116840000Y-64135000D01*
X116840000Y-46037500D02*
X116840000Y-48895000D01*
D21*
X116840000Y-46037500D02*
X116840000Y-46037500D01*
X111490000Y-40640000D02*
X114935000Y-40640000D01*
X115175000Y-40880000D02*
X115175000Y-44372500D01*
X114935000Y-40640000D02*
X115175000Y-40880000D01*
D18*
X33020000Y-48260000D02*
X30480000Y-48260000D01*
X27940000Y-48260000D02*
X25400000Y-48260000D01*
X109220000Y-59690000D02*
X107950000Y-58420000D01*
X109220000Y-64135000D02*
X109220000Y-59690000D01*
X104140000Y-54610000D02*
X107950000Y-58420000D01*
X104140000Y-53340000D02*
X104140000Y-54610000D01*
X104140000Y-50800000D02*
X104140000Y-53340000D01*
X33020000Y-48260000D02*
X35560000Y-48260000D01*
X81280000Y-50800000D02*
X104140000Y-50800000D01*
X73660000Y-48260000D02*
X76200000Y-48260000D01*
X71120000Y-48260000D02*
X73660000Y-48260000D01*
X68580000Y-48260000D02*
X71120000Y-48260000D01*
X66040000Y-48260000D02*
X68580000Y-48260000D01*
X63500000Y-48260000D02*
X66040000Y-48260000D01*
X60960000Y-48260000D02*
X63500000Y-48260000D01*
X58420000Y-48260000D02*
X60960000Y-48260000D01*
X55880000Y-48260000D02*
X58420000Y-48260000D01*
X53340000Y-48260000D02*
X55880000Y-48260000D01*
X50800000Y-48260000D02*
X53340000Y-48260000D01*
X48260000Y-48260000D02*
X50800000Y-48260000D01*
X45720000Y-48260000D02*
X48260000Y-48260000D01*
X43180000Y-48260000D02*
X45720000Y-48260000D01*
X40640000Y-48260000D02*
X43180000Y-48260000D01*
X38100000Y-48260000D02*
X40640000Y-48260000D01*
X35560000Y-48260000D02*
X38100000Y-48260000D01*
X30480000Y-48260000D02*
X30480000Y-48260000D01*
D21*
X109915000Y-44372500D02*
X107710000Y-44372500D01*
X107710000Y-44372500D02*
X107710000Y-44372500D01*
D22*
X104140000Y-50800000D02*
X107710000Y-50800000D01*
X107632500Y-50800000D02*
X107632500Y-50800000D01*
D21*
X109490000Y-40640000D02*
X107632500Y-40640000D01*
X107632500Y-44295000D02*
X107710000Y-44372500D01*
X107632500Y-40640000D02*
X107632500Y-44295000D01*
D18*
X30480000Y-48260000D02*
X27940000Y-48260000D01*
X76200000Y-48260000D02*
X78740000Y-48260000D01*
X78740000Y-48260000D02*
X78740000Y-48260000D01*
X33020000Y-50800000D02*
X30480000Y-50800000D01*
X27940000Y-50800000D02*
X25400000Y-50800000D01*
X111760000Y-59610000D02*
X112950000Y-58420000D01*
X111760000Y-64135000D02*
X111760000Y-59610000D01*
D20*
X81280000Y-45720000D02*
X81280000Y-48260000D01*
D18*
X81280000Y-48260000D02*
X111760000Y-48260000D01*
X112950000Y-49450000D02*
X111760000Y-48260000D01*
X112950000Y-58420000D02*
X112950000Y-49450000D01*
X33020000Y-50800000D02*
X33020000Y-50800000D01*
X35560000Y-50800000D02*
X33020000Y-50800000D01*
X38100000Y-50800000D02*
X35560000Y-50800000D01*
X40640000Y-50800000D02*
X38100000Y-50800000D01*
X43180000Y-50800000D02*
X40640000Y-50800000D01*
X45720000Y-50800000D02*
X43180000Y-50800000D01*
X48260000Y-50800000D02*
X45720000Y-50800000D01*
X50800000Y-50800000D02*
X48260000Y-50800000D01*
X53340000Y-50800000D02*
X50800000Y-50800000D01*
X55880000Y-50800000D02*
X53340000Y-50800000D01*
X58420000Y-50800000D02*
X55880000Y-50800000D01*
X60960000Y-50800000D02*
X58420000Y-50800000D01*
X63500000Y-50800000D02*
X60960000Y-50800000D01*
X66040000Y-50800000D02*
X63500000Y-50800000D01*
X68580000Y-50800000D02*
X66040000Y-50800000D01*
X71120000Y-50800000D02*
X68580000Y-50800000D01*
X73660000Y-50800000D02*
X71120000Y-50800000D01*
X76200000Y-50800000D02*
X73660000Y-50800000D01*
X30480000Y-50800000D02*
X30480000Y-50800000D01*
X27940000Y-50800000D02*
X27940000Y-50800000D01*
D21*
X111715000Y-48215000D02*
X111760000Y-48260000D01*
X111715000Y-45872500D02*
X111715000Y-48215000D01*
D18*
X78740000Y-50800000D02*
X78740000Y-50800000D01*
X30480000Y-50800000D02*
X27940000Y-50800000D01*
D21*
X27940000Y-52340000D02*
X27940000Y-50800000D01*
D18*
X76200000Y-50800000D02*
X78740000Y-50800000D01*
X78740000Y-50800000D02*
X81280000Y-48260000D01*
X101600000Y-45720000D02*
X101600000Y-43180000D01*
X101600000Y-43180000D02*
X101600000Y-40640000D01*
X101600000Y-40640000D02*
X101600000Y-40640000D01*
X99060000Y-45720000D02*
X99060000Y-43180000D01*
X99060000Y-43180000D02*
X99060000Y-40640000D01*
X99060000Y-40640000D02*
X99060000Y-40640000D01*
X96520000Y-45720000D02*
X96520000Y-43180000D01*
X96520000Y-43180000D02*
X96520000Y-40640000D01*
X96520000Y-40640000D02*
X96520000Y-40640000D01*
X93980000Y-45720000D02*
X93980000Y-43180000D01*
X93980000Y-43180000D02*
X93980000Y-40640000D01*
X93980000Y-40640000D02*
X93980000Y-40640000D01*
X91440000Y-45720000D02*
X91440000Y-43180000D01*
X91440000Y-43180000D02*
X91440000Y-40640000D01*
X91440000Y-40640000D02*
X91440000Y-40640000D01*
X88900000Y-45720000D02*
X88900000Y-43180000D01*
X88900000Y-43180000D02*
X88900000Y-40640000D01*
X88900000Y-40640000D02*
X88900000Y-40640000D01*
X86360000Y-45720000D02*
X86360000Y-43180000D01*
X86360000Y-43180000D02*
X86360000Y-40640000D01*
X86360000Y-40640000D02*
X86360000Y-40640000D01*
X83820000Y-45720000D02*
X83820000Y-43180000D01*
X83820000Y-43180000D02*
X83820000Y-40640000D01*
X83820000Y-40640000D02*
X83820000Y-40640000D01*
D22*
X81280000Y-53340000D02*
X81280000Y-59055000D01*
X81280000Y-66040000D02*
X81915000Y-66675000D01*
X81915000Y-66675000D02*
X106045000Y-66675000D01*
X106045000Y-66675000D02*
X106680000Y-66040000D01*
X106680000Y-66040000D02*
X106680000Y-64135000D01*
X81280000Y-59055000D02*
X81280000Y-66040000D01*
D21*
X104292500Y-45872500D02*
X104140000Y-45720000D01*
X109915000Y-45872500D02*
X104292500Y-45872500D01*
D20*
X114300000Y-64135000D02*
X114300000Y-60960000D01*
D22*
X115252500Y-60007500D02*
X114300000Y-60960000D01*
X115252500Y-47625000D02*
X115252500Y-60007500D01*
D23*
X112750000Y-45122500D02*
X115252500Y-47625000D01*
X111715000Y-45122500D02*
X112750000Y-45122500D01*
D18*
X25400000Y-55880000D02*
X27940000Y-55880000D01*
D21*
X27940000Y-54340000D02*
X27940000Y-55880000D01*
M02*
