G04 #@! TF.GenerationSoftware,KiCad,Pcbnew,(5.1.8)-1*
G04 #@! TF.CreationDate,2022-05-21T00:46:39+03:00*
G04 #@! TF.ProjectId,template,74656d70-6c61-4746-952e-6b696361645f,rev?*
G04 #@! TF.SameCoordinates,Original*
G04 #@! TF.FileFunction,Legend,Bot*
G04 #@! TF.FilePolarity,Positive*
%FSLAX46Y46*%
G04 Gerber Fmt 4.6, Leading zero omitted, Abs format (unit mm)*
G04 Created by KiCad (PCBNEW (5.1.8)-1) date 2022-05-21 00:46:39*
%MOMM*%
%LPD*%
G01*
G04 APERTURE LIST*
%ADD10C,0.120000*%
%ADD11C,0.150000*%
G04 APERTURE END LIST*
D10*
X28675000Y-53567064D02*
X28675000Y-53112936D01*
X27205000Y-53567064D02*
X27205000Y-53112936D01*
X110717064Y-41375000D02*
X110262936Y-41375000D01*
X110717064Y-39905000D02*
X110262936Y-39905000D01*
D11*
X111490000Y-43997500D02*
X110140000Y-43997500D01*
X111490000Y-46247500D02*
X111490000Y-43997500D01*
X110140000Y-46247500D02*
X111490000Y-46247500D01*
X110140000Y-43997500D02*
X110140000Y-46247500D01*
X26487380Y-53173333D02*
X26011190Y-52840000D01*
X26487380Y-52601904D02*
X25487380Y-52601904D01*
X25487380Y-52982857D01*
X25535000Y-53078095D01*
X25582619Y-53125714D01*
X25677857Y-53173333D01*
X25820714Y-53173333D01*
X25915952Y-53125714D01*
X25963571Y-53078095D01*
X26011190Y-52982857D01*
X26011190Y-52601904D01*
X25582619Y-53554285D02*
X25535000Y-53601904D01*
X25487380Y-53697142D01*
X25487380Y-53935238D01*
X25535000Y-54030476D01*
X25582619Y-54078095D01*
X25677857Y-54125714D01*
X25773095Y-54125714D01*
X25915952Y-54078095D01*
X26487380Y-53506666D01*
X26487380Y-54125714D01*
X110656666Y-39442380D02*
X110990000Y-38966190D01*
X111228095Y-39442380D02*
X111228095Y-38442380D01*
X110847142Y-38442380D01*
X110751904Y-38490000D01*
X110704285Y-38537619D01*
X110656666Y-38632857D01*
X110656666Y-38775714D01*
X110704285Y-38870952D01*
X110751904Y-38918571D01*
X110847142Y-38966190D01*
X111228095Y-38966190D01*
X109704285Y-39442380D02*
X110275714Y-39442380D01*
X109990000Y-39442380D02*
X109990000Y-38442380D01*
X110085238Y-38585238D01*
X110180476Y-38680476D01*
X110275714Y-38728095D01*
X113117380Y-44323095D02*
X113926904Y-44323095D01*
X114022142Y-44370714D01*
X114069761Y-44418333D01*
X114117380Y-44513571D01*
X114117380Y-44704047D01*
X114069761Y-44799285D01*
X114022142Y-44846904D01*
X113926904Y-44894523D01*
X113117380Y-44894523D01*
X113212619Y-45323095D02*
X113165000Y-45370714D01*
X113117380Y-45465952D01*
X113117380Y-45704047D01*
X113165000Y-45799285D01*
X113212619Y-45846904D01*
X113307857Y-45894523D01*
X113403095Y-45894523D01*
X113545952Y-45846904D01*
X114117380Y-45275476D01*
X114117380Y-45894523D01*
M02*
