G04 #@! TF.GenerationSoftware,KiCad,Pcbnew,(5.1.8)-1*
G04 #@! TF.CreationDate,2020-11-07T20:38:09+03:00*
G04 #@! TF.ProjectId,template,74656d70-6c61-4746-952e-6b696361645f,rev?*
G04 #@! TF.SameCoordinates,Original*
G04 #@! TF.FileFunction,Legend,Top*
G04 #@! TF.FilePolarity,Positive*
%FSLAX46Y46*%
G04 Gerber Fmt 4.6, Leading zero omitted, Abs format (unit mm)*
G04 Created by KiCad (PCBNEW (5.1.8)-1) date 2020-11-07 20:38:09*
%MOMM*%
%LPD*%
G01*
G04 APERTURE LIST*
%ADD10C,0.150000*%
%ADD11C,0.200000*%
%ADD12C,0.120000*%
G04 APERTURE END LIST*
D10*
X83772380Y-61682380D02*
X83867619Y-61682380D01*
X83962857Y-61730000D01*
X84010476Y-61777619D01*
X84058095Y-61872857D01*
X84105714Y-62063333D01*
X84105714Y-62301428D01*
X84058095Y-62491904D01*
X84010476Y-62587142D01*
X83962857Y-62634761D01*
X83867619Y-62682380D01*
X83772380Y-62682380D01*
X83677142Y-62634761D01*
X83629523Y-62587142D01*
X83581904Y-62491904D01*
X83534285Y-62301428D01*
X83534285Y-62063333D01*
X83581904Y-61872857D01*
X83629523Y-61777619D01*
X83677142Y-61730000D01*
X83772380Y-61682380D01*
X101266666Y-61364880D02*
X101933333Y-61364880D01*
X101504761Y-62364880D01*
X80311666Y-61999880D02*
X80978333Y-61999880D01*
X80549761Y-62999880D01*
X59642380Y-62317380D02*
X59737619Y-62317380D01*
X59832857Y-62365000D01*
X59880476Y-62412619D01*
X59928095Y-62507857D01*
X59975714Y-62698333D01*
X59975714Y-62936428D01*
X59928095Y-63126904D01*
X59880476Y-63222142D01*
X59832857Y-63269761D01*
X59737619Y-63317380D01*
X59642380Y-63317380D01*
X59547142Y-63269761D01*
X59499523Y-63222142D01*
X59451904Y-63126904D01*
X59404285Y-62936428D01*
X59404285Y-62698333D01*
X59451904Y-62507857D01*
X59499523Y-62412619D01*
X59547142Y-62365000D01*
X59642380Y-62317380D01*
X57451666Y-62317380D02*
X58118333Y-62317380D01*
X57689761Y-63317380D01*
X36782380Y-62317380D02*
X36877619Y-62317380D01*
X36972857Y-62365000D01*
X37020476Y-62412619D01*
X37068095Y-62507857D01*
X37115714Y-62698333D01*
X37115714Y-62936428D01*
X37068095Y-63126904D01*
X37020476Y-63222142D01*
X36972857Y-63269761D01*
X36877619Y-63317380D01*
X36782380Y-63317380D01*
X36687142Y-63269761D01*
X36639523Y-63222142D01*
X36591904Y-63126904D01*
X36544285Y-62936428D01*
X36544285Y-62698333D01*
X36591904Y-62507857D01*
X36639523Y-62412619D01*
X36687142Y-62365000D01*
X36782380Y-62317380D01*
X36266428Y-64063571D02*
X36409285Y-64111190D01*
X36456904Y-64158809D01*
X36504523Y-64254047D01*
X36504523Y-64396904D01*
X36456904Y-64492142D01*
X36409285Y-64539761D01*
X36314047Y-64587380D01*
X35933095Y-64587380D01*
X35933095Y-63587380D01*
X36266428Y-63587380D01*
X36361666Y-63635000D01*
X36409285Y-63682619D01*
X36456904Y-63777857D01*
X36456904Y-63873095D01*
X36409285Y-63968333D01*
X36361666Y-64015952D01*
X36266428Y-64063571D01*
X35933095Y-64063571D01*
X80406904Y-64301666D02*
X80883095Y-64301666D01*
X80311666Y-64587380D02*
X80645000Y-63587380D01*
X80978333Y-64587380D01*
X91241666Y-61047380D02*
X91432142Y-61047380D01*
X91527380Y-61095000D01*
X91622619Y-61190238D01*
X91670238Y-61380714D01*
X91670238Y-61714047D01*
X91622619Y-61904523D01*
X91527380Y-61999761D01*
X91432142Y-62047380D01*
X91241666Y-62047380D01*
X91146428Y-61999761D01*
X91051190Y-61904523D01*
X91003571Y-61714047D01*
X91003571Y-61380714D01*
X91051190Y-61190238D01*
X91146428Y-61095000D01*
X91241666Y-61047380D01*
X92527380Y-61380714D02*
X92527380Y-62047380D01*
X92098809Y-61380714D02*
X92098809Y-61904523D01*
X92146428Y-61999761D01*
X92241666Y-62047380D01*
X92384523Y-62047380D01*
X92479761Y-61999761D01*
X92527380Y-61952142D01*
X92860714Y-61380714D02*
X93241666Y-61380714D01*
X93003571Y-61047380D02*
X93003571Y-61904523D01*
X93051190Y-61999761D01*
X93146428Y-62047380D01*
X93241666Y-62047380D01*
X107132380Y-62269523D02*
X107132380Y-62745714D01*
X106132380Y-62745714D01*
X107132380Y-61507619D02*
X106608571Y-61507619D01*
X106513333Y-61555238D01*
X106465714Y-61650476D01*
X106465714Y-61840952D01*
X106513333Y-61936190D01*
X107084761Y-61507619D02*
X107132380Y-61602857D01*
X107132380Y-61840952D01*
X107084761Y-61936190D01*
X106989523Y-61983809D01*
X106894285Y-61983809D01*
X106799047Y-61936190D01*
X106751428Y-61840952D01*
X106751428Y-61602857D01*
X106703809Y-61507619D01*
X106465714Y-61174285D02*
X106465714Y-60793333D01*
X106132380Y-61031428D02*
X106989523Y-61031428D01*
X107084761Y-60983809D01*
X107132380Y-60888571D01*
X107132380Y-60793333D01*
X107084761Y-60031428D02*
X107132380Y-60126666D01*
X107132380Y-60317142D01*
X107084761Y-60412380D01*
X107037142Y-60460000D01*
X106941904Y-60507619D01*
X106656190Y-60507619D01*
X106560952Y-60460000D01*
X106513333Y-60412380D01*
X106465714Y-60317142D01*
X106465714Y-60126666D01*
X106513333Y-60031428D01*
X107132380Y-59602857D02*
X106132380Y-59602857D01*
X107132380Y-59174285D02*
X106608571Y-59174285D01*
X106513333Y-59221904D01*
X106465714Y-59317142D01*
X106465714Y-59460000D01*
X106513333Y-59555238D01*
X106560952Y-59602857D01*
X113752380Y-62142619D02*
X113752380Y-61952142D01*
X113800000Y-61856904D01*
X113895238Y-61761666D01*
X114085714Y-61714047D01*
X114419047Y-61714047D01*
X114609523Y-61761666D01*
X114704761Y-61856904D01*
X114752380Y-61952142D01*
X114752380Y-62142619D01*
X114704761Y-62237857D01*
X114609523Y-62333095D01*
X114419047Y-62380714D01*
X114085714Y-62380714D01*
X113895238Y-62333095D01*
X113800000Y-62237857D01*
X113752380Y-62142619D01*
X114228571Y-61285476D02*
X114228571Y-60952142D01*
X114752380Y-60809285D02*
X114752380Y-61285476D01*
X113752380Y-61285476D01*
X113752380Y-60809285D01*
X108672380Y-62785476D02*
X109672380Y-62452142D01*
X108672380Y-62118809D01*
X109624761Y-61356904D02*
X109672380Y-61452142D01*
X109672380Y-61642619D01*
X109624761Y-61737857D01*
X109577142Y-61785476D01*
X109481904Y-61833095D01*
X109196190Y-61833095D01*
X109100952Y-61785476D01*
X109053333Y-61737857D01*
X109005714Y-61642619D01*
X109005714Y-61452142D01*
X109053333Y-61356904D01*
X109624761Y-60499761D02*
X109672380Y-60595000D01*
X109672380Y-60785476D01*
X109624761Y-60880714D01*
X109577142Y-60928333D01*
X109481904Y-60975952D01*
X109196190Y-60975952D01*
X109100952Y-60928333D01*
X109053333Y-60880714D01*
X109005714Y-60785476D01*
X109005714Y-60595000D01*
X109053333Y-60499761D01*
X111260000Y-62237857D02*
X111212380Y-62333095D01*
X111212380Y-62475952D01*
X111260000Y-62618809D01*
X111355238Y-62714047D01*
X111450476Y-62761666D01*
X111640952Y-62809285D01*
X111783809Y-62809285D01*
X111974285Y-62761666D01*
X112069523Y-62714047D01*
X112164761Y-62618809D01*
X112212380Y-62475952D01*
X112212380Y-62380714D01*
X112164761Y-62237857D01*
X112117142Y-62190238D01*
X111783809Y-62190238D01*
X111783809Y-62380714D01*
X111545714Y-61761666D02*
X112212380Y-61761666D01*
X111640952Y-61761666D02*
X111593333Y-61714047D01*
X111545714Y-61618809D01*
X111545714Y-61475952D01*
X111593333Y-61380714D01*
X111688571Y-61333095D01*
X112212380Y-61333095D01*
X112212380Y-60428333D02*
X111212380Y-60428333D01*
X112164761Y-60428333D02*
X112212380Y-60523571D01*
X112212380Y-60714047D01*
X112164761Y-60809285D01*
X112117142Y-60856904D01*
X112021904Y-60904523D01*
X111736190Y-60904523D01*
X111640952Y-60856904D01*
X111593333Y-60809285D01*
X111545714Y-60714047D01*
X111545714Y-60523571D01*
X111593333Y-60428333D01*
D11*
X86547142Y-49978571D02*
X87547142Y-49978571D01*
X86904285Y-51478571D01*
X88761428Y-50478571D02*
X88761428Y-51478571D01*
X88404285Y-49907142D02*
X88047142Y-50978571D01*
X88975714Y-50978571D01*
X89547142Y-51478571D02*
X89547142Y-49978571D01*
X89547142Y-50692857D02*
X90404285Y-50692857D01*
X90404285Y-51478571D02*
X90404285Y-49978571D01*
X91975714Y-51335714D02*
X91904285Y-51407142D01*
X91690000Y-51478571D01*
X91547142Y-51478571D01*
X91332857Y-51407142D01*
X91190000Y-51264285D01*
X91118571Y-51121428D01*
X91047142Y-50835714D01*
X91047142Y-50621428D01*
X91118571Y-50335714D01*
X91190000Y-50192857D01*
X91332857Y-50050000D01*
X91547142Y-49978571D01*
X91690000Y-49978571D01*
X91904285Y-50050000D01*
X91975714Y-50121428D01*
X93332857Y-49978571D02*
X92618571Y-49978571D01*
X92547142Y-50692857D01*
X92618571Y-50621428D01*
X92761428Y-50550000D01*
X93118571Y-50550000D01*
X93261428Y-50621428D01*
X93332857Y-50692857D01*
X93404285Y-50835714D01*
X93404285Y-51192857D01*
X93332857Y-51335714D01*
X93261428Y-51407142D01*
X93118571Y-51478571D01*
X92761428Y-51478571D01*
X92618571Y-51407142D01*
X92547142Y-51335714D01*
X93904285Y-49978571D02*
X94904285Y-49978571D01*
X94261428Y-51478571D01*
X95332857Y-49978571D02*
X96261428Y-49978571D01*
X95761428Y-50550000D01*
X95975714Y-50550000D01*
X96118571Y-50621428D01*
X96190000Y-50692857D01*
X96261428Y-50835714D01*
X96261428Y-51192857D01*
X96190000Y-51335714D01*
X96118571Y-51407142D01*
X95975714Y-51478571D01*
X95547142Y-51478571D01*
X95404285Y-51407142D01*
X95332857Y-51335714D01*
D12*
X115570000Y-62865000D02*
X115570000Y-64135000D01*
X114300000Y-62865000D02*
X115570000Y-62865000D01*
X106300000Y-65177929D02*
X106300000Y-65575000D01*
X107060000Y-65177929D02*
X107060000Y-65575000D01*
X106300000Y-74235000D02*
X106300000Y-68235000D01*
X107060000Y-74235000D02*
X106300000Y-74235000D01*
X107060000Y-68235000D02*
X107060000Y-74235000D01*
X107950000Y-65575000D02*
X107950000Y-68235000D01*
X108840000Y-65177929D02*
X108840000Y-65575000D01*
X109600000Y-65177929D02*
X109600000Y-65575000D01*
X108840000Y-74235000D02*
X108840000Y-68235000D01*
X109600000Y-74235000D02*
X108840000Y-74235000D01*
X109600000Y-68235000D02*
X109600000Y-74235000D01*
X110490000Y-65575000D02*
X110490000Y-68235000D01*
X111380000Y-65177929D02*
X111380000Y-65575000D01*
X112140000Y-65177929D02*
X112140000Y-65575000D01*
X111380000Y-74235000D02*
X111380000Y-68235000D01*
X112140000Y-74235000D02*
X111380000Y-74235000D01*
X112140000Y-68235000D02*
X112140000Y-74235000D01*
X113030000Y-65575000D02*
X113030000Y-68235000D01*
X113920000Y-65245000D02*
X113920000Y-65575000D01*
X114680000Y-65245000D02*
X114680000Y-65575000D01*
X114020000Y-68235000D02*
X114020000Y-74235000D01*
X114140000Y-68235000D02*
X114140000Y-74235000D01*
X114260000Y-68235000D02*
X114260000Y-74235000D01*
X114380000Y-68235000D02*
X114380000Y-74235000D01*
X114500000Y-68235000D02*
X114500000Y-74235000D01*
X114620000Y-68235000D02*
X114620000Y-74235000D01*
X113920000Y-74235000D02*
X113920000Y-68235000D01*
X114680000Y-74235000D02*
X113920000Y-74235000D01*
X114680000Y-68235000D02*
X114680000Y-74235000D01*
X115630000Y-68235000D02*
X115630000Y-65575000D01*
X105350000Y-68235000D02*
X115630000Y-68235000D01*
X105350000Y-65575000D02*
X105350000Y-68235000D01*
X115630000Y-65575000D02*
X105350000Y-65575000D01*
X102870000Y-62865000D02*
X102870000Y-64135000D01*
X101600000Y-62865000D02*
X102870000Y-62865000D01*
X83440000Y-65177929D02*
X83440000Y-65575000D01*
X84200000Y-65177929D02*
X84200000Y-65575000D01*
X83440000Y-74235000D02*
X83440000Y-68235000D01*
X84200000Y-74235000D02*
X83440000Y-74235000D01*
X84200000Y-68235000D02*
X84200000Y-74235000D01*
X85090000Y-65575000D02*
X85090000Y-68235000D01*
X85980000Y-65177929D02*
X85980000Y-65575000D01*
X86740000Y-65177929D02*
X86740000Y-65575000D01*
X85980000Y-74235000D02*
X85980000Y-68235000D01*
X86740000Y-74235000D02*
X85980000Y-74235000D01*
X86740000Y-68235000D02*
X86740000Y-74235000D01*
X87630000Y-65575000D02*
X87630000Y-68235000D01*
X88520000Y-65177929D02*
X88520000Y-65575000D01*
X89280000Y-65177929D02*
X89280000Y-65575000D01*
X88520000Y-74235000D02*
X88520000Y-68235000D01*
X89280000Y-74235000D02*
X88520000Y-74235000D01*
X89280000Y-68235000D02*
X89280000Y-74235000D01*
X90170000Y-65575000D02*
X90170000Y-68235000D01*
X91060000Y-65177929D02*
X91060000Y-65575000D01*
X91820000Y-65177929D02*
X91820000Y-65575000D01*
X91060000Y-74235000D02*
X91060000Y-68235000D01*
X91820000Y-74235000D02*
X91060000Y-74235000D01*
X91820000Y-68235000D02*
X91820000Y-74235000D01*
X92710000Y-65575000D02*
X92710000Y-68235000D01*
X93600000Y-65177929D02*
X93600000Y-65575000D01*
X94360000Y-65177929D02*
X94360000Y-65575000D01*
X93600000Y-74235000D02*
X93600000Y-68235000D01*
X94360000Y-74235000D02*
X93600000Y-74235000D01*
X94360000Y-68235000D02*
X94360000Y-74235000D01*
X95250000Y-65575000D02*
X95250000Y-68235000D01*
X96140000Y-65177929D02*
X96140000Y-65575000D01*
X96900000Y-65177929D02*
X96900000Y-65575000D01*
X96140000Y-74235000D02*
X96140000Y-68235000D01*
X96900000Y-74235000D02*
X96140000Y-74235000D01*
X96900000Y-68235000D02*
X96900000Y-74235000D01*
X97790000Y-65575000D02*
X97790000Y-68235000D01*
X98680000Y-65177929D02*
X98680000Y-65575000D01*
X99440000Y-65177929D02*
X99440000Y-65575000D01*
X98680000Y-74235000D02*
X98680000Y-68235000D01*
X99440000Y-74235000D02*
X98680000Y-74235000D01*
X99440000Y-68235000D02*
X99440000Y-74235000D01*
X100330000Y-65575000D02*
X100330000Y-68235000D01*
X101220000Y-65245000D02*
X101220000Y-65575000D01*
X101980000Y-65245000D02*
X101980000Y-65575000D01*
X101320000Y-68235000D02*
X101320000Y-74235000D01*
X101440000Y-68235000D02*
X101440000Y-74235000D01*
X101560000Y-68235000D02*
X101560000Y-74235000D01*
X101680000Y-68235000D02*
X101680000Y-74235000D01*
X101800000Y-68235000D02*
X101800000Y-74235000D01*
X101920000Y-68235000D02*
X101920000Y-74235000D01*
X101220000Y-74235000D02*
X101220000Y-68235000D01*
X101980000Y-74235000D02*
X101220000Y-74235000D01*
X101980000Y-68235000D02*
X101980000Y-74235000D01*
X102930000Y-68235000D02*
X102930000Y-65575000D01*
X82490000Y-68235000D02*
X102930000Y-68235000D01*
X82490000Y-65575000D02*
X82490000Y-68235000D01*
X102930000Y-65575000D02*
X82490000Y-65575000D01*
X80010000Y-62865000D02*
X80010000Y-64135000D01*
X78740000Y-62865000D02*
X80010000Y-62865000D01*
X60580000Y-65177929D02*
X60580000Y-65575000D01*
X61340000Y-65177929D02*
X61340000Y-65575000D01*
X60580000Y-74235000D02*
X60580000Y-68235000D01*
X61340000Y-74235000D02*
X60580000Y-74235000D01*
X61340000Y-68235000D02*
X61340000Y-74235000D01*
X62230000Y-65575000D02*
X62230000Y-68235000D01*
X63120000Y-65177929D02*
X63120000Y-65575000D01*
X63880000Y-65177929D02*
X63880000Y-65575000D01*
X63120000Y-74235000D02*
X63120000Y-68235000D01*
X63880000Y-74235000D02*
X63120000Y-74235000D01*
X63880000Y-68235000D02*
X63880000Y-74235000D01*
X64770000Y-65575000D02*
X64770000Y-68235000D01*
X65660000Y-65177929D02*
X65660000Y-65575000D01*
X66420000Y-65177929D02*
X66420000Y-65575000D01*
X65660000Y-74235000D02*
X65660000Y-68235000D01*
X66420000Y-74235000D02*
X65660000Y-74235000D01*
X66420000Y-68235000D02*
X66420000Y-74235000D01*
X67310000Y-65575000D02*
X67310000Y-68235000D01*
X68200000Y-65177929D02*
X68200000Y-65575000D01*
X68960000Y-65177929D02*
X68960000Y-65575000D01*
X68200000Y-74235000D02*
X68200000Y-68235000D01*
X68960000Y-74235000D02*
X68200000Y-74235000D01*
X68960000Y-68235000D02*
X68960000Y-74235000D01*
X69850000Y-65575000D02*
X69850000Y-68235000D01*
X70740000Y-65177929D02*
X70740000Y-65575000D01*
X71500000Y-65177929D02*
X71500000Y-65575000D01*
X70740000Y-74235000D02*
X70740000Y-68235000D01*
X71500000Y-74235000D02*
X70740000Y-74235000D01*
X71500000Y-68235000D02*
X71500000Y-74235000D01*
X72390000Y-65575000D02*
X72390000Y-68235000D01*
X73280000Y-65177929D02*
X73280000Y-65575000D01*
X74040000Y-65177929D02*
X74040000Y-65575000D01*
X73280000Y-74235000D02*
X73280000Y-68235000D01*
X74040000Y-74235000D02*
X73280000Y-74235000D01*
X74040000Y-68235000D02*
X74040000Y-74235000D01*
X74930000Y-65575000D02*
X74930000Y-68235000D01*
X75820000Y-65177929D02*
X75820000Y-65575000D01*
X76580000Y-65177929D02*
X76580000Y-65575000D01*
X75820000Y-74235000D02*
X75820000Y-68235000D01*
X76580000Y-74235000D02*
X75820000Y-74235000D01*
X76580000Y-68235000D02*
X76580000Y-74235000D01*
X77470000Y-65575000D02*
X77470000Y-68235000D01*
X78360000Y-65245000D02*
X78360000Y-65575000D01*
X79120000Y-65245000D02*
X79120000Y-65575000D01*
X78460000Y-68235000D02*
X78460000Y-74235000D01*
X78580000Y-68235000D02*
X78580000Y-74235000D01*
X78700000Y-68235000D02*
X78700000Y-74235000D01*
X78820000Y-68235000D02*
X78820000Y-74235000D01*
X78940000Y-68235000D02*
X78940000Y-74235000D01*
X79060000Y-68235000D02*
X79060000Y-74235000D01*
X78360000Y-74235000D02*
X78360000Y-68235000D01*
X79120000Y-74235000D02*
X78360000Y-74235000D01*
X79120000Y-68235000D02*
X79120000Y-74235000D01*
X80070000Y-68235000D02*
X80070000Y-65575000D01*
X59630000Y-68235000D02*
X80070000Y-68235000D01*
X59630000Y-65575000D02*
X59630000Y-68235000D01*
X80070000Y-65575000D02*
X59630000Y-65575000D01*
X57150000Y-62865000D02*
X57150000Y-64135000D01*
X55880000Y-62865000D02*
X57150000Y-62865000D01*
X37720000Y-65177929D02*
X37720000Y-65575000D01*
X38480000Y-65177929D02*
X38480000Y-65575000D01*
X37720000Y-74235000D02*
X37720000Y-68235000D01*
X38480000Y-74235000D02*
X37720000Y-74235000D01*
X38480000Y-68235000D02*
X38480000Y-74235000D01*
X39370000Y-65575000D02*
X39370000Y-68235000D01*
X40260000Y-65177929D02*
X40260000Y-65575000D01*
X41020000Y-65177929D02*
X41020000Y-65575000D01*
X40260000Y-74235000D02*
X40260000Y-68235000D01*
X41020000Y-74235000D02*
X40260000Y-74235000D01*
X41020000Y-68235000D02*
X41020000Y-74235000D01*
X41910000Y-65575000D02*
X41910000Y-68235000D01*
X42800000Y-65177929D02*
X42800000Y-65575000D01*
X43560000Y-65177929D02*
X43560000Y-65575000D01*
X42800000Y-74235000D02*
X42800000Y-68235000D01*
X43560000Y-74235000D02*
X42800000Y-74235000D01*
X43560000Y-68235000D02*
X43560000Y-74235000D01*
X44450000Y-65575000D02*
X44450000Y-68235000D01*
X45340000Y-65177929D02*
X45340000Y-65575000D01*
X46100000Y-65177929D02*
X46100000Y-65575000D01*
X45340000Y-74235000D02*
X45340000Y-68235000D01*
X46100000Y-74235000D02*
X45340000Y-74235000D01*
X46100000Y-68235000D02*
X46100000Y-74235000D01*
X46990000Y-65575000D02*
X46990000Y-68235000D01*
X47880000Y-65177929D02*
X47880000Y-65575000D01*
X48640000Y-65177929D02*
X48640000Y-65575000D01*
X47880000Y-74235000D02*
X47880000Y-68235000D01*
X48640000Y-74235000D02*
X47880000Y-74235000D01*
X48640000Y-68235000D02*
X48640000Y-74235000D01*
X49530000Y-65575000D02*
X49530000Y-68235000D01*
X50420000Y-65177929D02*
X50420000Y-65575000D01*
X51180000Y-65177929D02*
X51180000Y-65575000D01*
X50420000Y-74235000D02*
X50420000Y-68235000D01*
X51180000Y-74235000D02*
X50420000Y-74235000D01*
X51180000Y-68235000D02*
X51180000Y-74235000D01*
X52070000Y-65575000D02*
X52070000Y-68235000D01*
X52960000Y-65177929D02*
X52960000Y-65575000D01*
X53720000Y-65177929D02*
X53720000Y-65575000D01*
X52960000Y-74235000D02*
X52960000Y-68235000D01*
X53720000Y-74235000D02*
X52960000Y-74235000D01*
X53720000Y-68235000D02*
X53720000Y-74235000D01*
X54610000Y-65575000D02*
X54610000Y-68235000D01*
X55500000Y-65245000D02*
X55500000Y-65575000D01*
X56260000Y-65245000D02*
X56260000Y-65575000D01*
X55600000Y-68235000D02*
X55600000Y-74235000D01*
X55720000Y-68235000D02*
X55720000Y-74235000D01*
X55840000Y-68235000D02*
X55840000Y-74235000D01*
X55960000Y-68235000D02*
X55960000Y-74235000D01*
X56080000Y-68235000D02*
X56080000Y-74235000D01*
X56200000Y-68235000D02*
X56200000Y-74235000D01*
X55500000Y-74235000D02*
X55500000Y-68235000D01*
X56260000Y-74235000D02*
X55500000Y-74235000D01*
X56260000Y-68235000D02*
X56260000Y-74235000D01*
X57210000Y-68235000D02*
X57210000Y-65575000D01*
X36770000Y-68235000D02*
X57210000Y-68235000D01*
X36770000Y-65575000D02*
X36770000Y-68235000D01*
X57210000Y-65575000D02*
X36770000Y-65575000D01*
X107980000Y-57050000D02*
X112920000Y-57050000D01*
X107980000Y-59790000D02*
X112920000Y-59790000D01*
X107980000Y-57050000D02*
X107980000Y-57365000D01*
X107980000Y-59475000D02*
X107980000Y-59790000D01*
X112920000Y-57050000D02*
X112920000Y-57365000D01*
X112920000Y-59475000D02*
X112920000Y-59790000D01*
X105470000Y-48530000D02*
X105470000Y-46880000D01*
X105470000Y-46880000D02*
X79950000Y-46880000D01*
X79950000Y-46880000D02*
X79950000Y-52180000D01*
X79950000Y-52180000D02*
X105470000Y-52180000D01*
X105470000Y-52180000D02*
X105470000Y-50530000D01*
X105470000Y-50530000D02*
G75*
G02*
X105470000Y-48530000I0J1000000D01*
G01*
D10*
X110283333Y-56277142D02*
X110235714Y-56324761D01*
X110092857Y-56372380D01*
X109997619Y-56372380D01*
X109854761Y-56324761D01*
X109759523Y-56229523D01*
X109711904Y-56134285D01*
X109664285Y-55943809D01*
X109664285Y-55800952D01*
X109711904Y-55610476D01*
X109759523Y-55515238D01*
X109854761Y-55420000D01*
X109997619Y-55372380D01*
X110092857Y-55372380D01*
X110235714Y-55420000D01*
X110283333Y-55467619D01*
X111235714Y-56372380D02*
X110664285Y-56372380D01*
X110950000Y-56372380D02*
X110950000Y-55372380D01*
X110854761Y-55515238D01*
X110759523Y-55610476D01*
X110664285Y-55658095D01*
X105922380Y-50291904D02*
X106731904Y-50291904D01*
X106827142Y-50244285D01*
X106874761Y-50196666D01*
X106922380Y-50101428D01*
X106922380Y-49910952D01*
X106874761Y-49815714D01*
X106827142Y-49768095D01*
X106731904Y-49720476D01*
X105922380Y-49720476D01*
X106922380Y-48720476D02*
X106922380Y-49291904D01*
X106922380Y-49006190D02*
X105922380Y-49006190D01*
X106065238Y-49101428D01*
X106160476Y-49196666D01*
X106208095Y-49291904D01*
M02*
