%TF.GenerationSoftware,KiCad,Pcbnew,(5.1.8)-1*%
%TF.CreationDate,2022-11-12T22:58:33+03:00*%
%TF.ProjectId,Reg,5265672e-6b69-4636-9164-5f7063625858,rev?*%
%TF.SameCoordinates,Original*%
%TF.FileFunction,Legend,Top*%
%TF.FilePolarity,Positive*%
%FSLAX46Y46*%
G04 Gerber Fmt 4.6, Leading zero omitted, Abs format (unit mm)*
G04 Created by KiCad (PCBNEW (5.1.8)-1) date 2022-11-12 22:58:33*
%MOMM*%
%LPD*%
G01*
G04 APERTURE LIST*
%ADD10C,0.150000*%
%ADD11C,0.120000*%
G04 APERTURE END LIST*
D10*
X92376666Y-18502380D02*
X93043333Y-18502380D01*
X92614761Y-19502380D01*
X69802380Y-18502380D02*
X69897619Y-18502380D01*
X69992857Y-18550000D01*
X70040476Y-18597619D01*
X70088095Y-18692857D01*
X70135714Y-18883333D01*
X70135714Y-19121428D01*
X70088095Y-19311904D01*
X70040476Y-19407142D01*
X69992857Y-19454761D01*
X69897619Y-19502380D01*
X69802380Y-19502380D01*
X69707142Y-19454761D01*
X69659523Y-19407142D01*
X69611904Y-19311904D01*
X69564285Y-19121428D01*
X69564285Y-18883333D01*
X69611904Y-18692857D01*
X69659523Y-18597619D01*
X69707142Y-18550000D01*
X69802380Y-18502380D01*
D11*
X110500000Y-39687500D02*
G75*
G02*
X110500000Y-41592500I0J-952500D01*
G01*
X70485000Y-32067500D02*
G75*
G02*
X68580000Y-32067500I-952500J0D01*
G01*
D10*
X118538809Y-49885000D02*
X119538809Y-49885000D01*
X119348333Y-51252380D02*
X119015000Y-50776190D01*
X118776904Y-51252380D02*
X118776904Y-50252380D01*
X119157857Y-50252380D01*
X119253095Y-50300000D01*
X119300714Y-50347619D01*
X119348333Y-50442857D01*
X119348333Y-50585714D01*
X119300714Y-50680952D01*
X119253095Y-50728571D01*
X119157857Y-50776190D01*
X118776904Y-50776190D01*
X119538809Y-49885000D02*
X120443571Y-49885000D01*
X119919761Y-51252380D02*
X119824523Y-51204761D01*
X119776904Y-51157142D01*
X119729285Y-51061904D01*
X119729285Y-50776190D01*
X119776904Y-50680952D01*
X119824523Y-50633333D01*
X119919761Y-50585714D01*
X120062619Y-50585714D01*
X120157857Y-50633333D01*
X120205476Y-50680952D01*
X120253095Y-50776190D01*
X120253095Y-51061904D01*
X120205476Y-51157142D01*
X120157857Y-51204761D01*
X120062619Y-51252380D01*
X119919761Y-51252380D01*
X120443571Y-49885000D02*
X121491190Y-49885000D01*
X120586428Y-50585714D02*
X120776904Y-51252380D01*
X120967380Y-50776190D01*
X121157857Y-51252380D01*
X121348333Y-50585714D01*
X115308214Y-49885000D02*
X116308214Y-49885000D01*
X116117738Y-51157142D02*
X116070119Y-51204761D01*
X115927261Y-51252380D01*
X115832023Y-51252380D01*
X115689166Y-51204761D01*
X115593928Y-51109523D01*
X115546309Y-51014285D01*
X115498690Y-50823809D01*
X115498690Y-50680952D01*
X115546309Y-50490476D01*
X115593928Y-50395238D01*
X115689166Y-50300000D01*
X115832023Y-50252380D01*
X115927261Y-50252380D01*
X116070119Y-50300000D01*
X116117738Y-50347619D01*
X116308214Y-49885000D02*
X117212976Y-49885000D01*
X116689166Y-51252380D02*
X116593928Y-51204761D01*
X116546309Y-51157142D01*
X116498690Y-51061904D01*
X116498690Y-50776190D01*
X116546309Y-50680952D01*
X116593928Y-50633333D01*
X116689166Y-50585714D01*
X116832023Y-50585714D01*
X116927261Y-50633333D01*
X116974880Y-50680952D01*
X117022500Y-50776190D01*
X117022500Y-51061904D01*
X116974880Y-51157142D01*
X116927261Y-51204761D01*
X116832023Y-51252380D01*
X116689166Y-51252380D01*
X117212976Y-49885000D02*
X117736785Y-49885000D01*
X117593928Y-51252380D02*
X117498690Y-51204761D01*
X117451071Y-51109523D01*
X117451071Y-50252380D01*
X112371309Y-49885000D02*
X113371309Y-49885000D01*
X113180833Y-51157142D02*
X113133214Y-51204761D01*
X112990357Y-51252380D01*
X112895119Y-51252380D01*
X112752261Y-51204761D01*
X112657023Y-51109523D01*
X112609404Y-51014285D01*
X112561785Y-50823809D01*
X112561785Y-50680952D01*
X112609404Y-50490476D01*
X112657023Y-50395238D01*
X112752261Y-50300000D01*
X112895119Y-50252380D01*
X112990357Y-50252380D01*
X113133214Y-50300000D01*
X113180833Y-50347619D01*
X113371309Y-49885000D02*
X114323690Y-49885000D01*
X113561785Y-51204761D02*
X113704642Y-51252380D01*
X113942738Y-51252380D01*
X114037976Y-51204761D01*
X114085595Y-51157142D01*
X114133214Y-51061904D01*
X114133214Y-50966666D01*
X114085595Y-50871428D01*
X114037976Y-50823809D01*
X113942738Y-50776190D01*
X113752261Y-50728571D01*
X113657023Y-50680952D01*
X113609404Y-50633333D01*
X113561785Y-50538095D01*
X113561785Y-50442857D01*
X113609404Y-50347619D01*
X113657023Y-50300000D01*
X113752261Y-50252380D01*
X113990357Y-50252380D01*
X114133214Y-50300000D01*
X106584761Y-51982619D02*
X106489523Y-51935000D01*
X106394285Y-51839761D01*
X106251428Y-51696904D01*
X106156190Y-51649285D01*
X106060952Y-51649285D01*
X106108571Y-51887380D02*
X106013333Y-51839761D01*
X105918095Y-51744523D01*
X105870476Y-51554047D01*
X105870476Y-51220714D01*
X105918095Y-51030238D01*
X106013333Y-50935000D01*
X106108571Y-50887380D01*
X106299047Y-50887380D01*
X106394285Y-50935000D01*
X106489523Y-51030238D01*
X106537142Y-51220714D01*
X106537142Y-51554047D01*
X106489523Y-51744523D01*
X106394285Y-51839761D01*
X106299047Y-51887380D01*
X106108571Y-51887380D01*
X107156190Y-50887380D02*
X107251428Y-50887380D01*
X107346666Y-50935000D01*
X107394285Y-50982619D01*
X107441904Y-51077857D01*
X107489523Y-51268333D01*
X107489523Y-51506428D01*
X107441904Y-51696904D01*
X107394285Y-51792142D01*
X107346666Y-51839761D01*
X107251428Y-51887380D01*
X107156190Y-51887380D01*
X107060952Y-51839761D01*
X107013333Y-51792142D01*
X106965714Y-51696904D01*
X106918095Y-51506428D01*
X106918095Y-51268333D01*
X106965714Y-51077857D01*
X107013333Y-50982619D01*
X107060952Y-50935000D01*
X107156190Y-50887380D01*
X88804761Y-51982619D02*
X88709523Y-51935000D01*
X88614285Y-51839761D01*
X88471428Y-51696904D01*
X88376190Y-51649285D01*
X88280952Y-51649285D01*
X88328571Y-51887380D02*
X88233333Y-51839761D01*
X88138095Y-51744523D01*
X88090476Y-51554047D01*
X88090476Y-51220714D01*
X88138095Y-51030238D01*
X88233333Y-50935000D01*
X88328571Y-50887380D01*
X88519047Y-50887380D01*
X88614285Y-50935000D01*
X88709523Y-51030238D01*
X88757142Y-51220714D01*
X88757142Y-51554047D01*
X88709523Y-51744523D01*
X88614285Y-51839761D01*
X88519047Y-51887380D01*
X88328571Y-51887380D01*
X89090476Y-50887380D02*
X89757142Y-50887380D01*
X89328571Y-51887380D01*
X77779642Y-50300000D02*
X77684404Y-50252380D01*
X77541547Y-50252380D01*
X77398690Y-50300000D01*
X77303452Y-50395238D01*
X77255833Y-50490476D01*
X77208214Y-50680952D01*
X77208214Y-50823809D01*
X77255833Y-51014285D01*
X77303452Y-51109523D01*
X77398690Y-51204761D01*
X77541547Y-51252380D01*
X77636785Y-51252380D01*
X77779642Y-51204761D01*
X77827261Y-51157142D01*
X77827261Y-50823809D01*
X77636785Y-50823809D01*
X78255833Y-50585714D02*
X78255833Y-51252380D01*
X78255833Y-50680952D02*
X78303452Y-50633333D01*
X78398690Y-50585714D01*
X78541547Y-50585714D01*
X78636785Y-50633333D01*
X78684404Y-50728571D01*
X78684404Y-51252380D01*
X79589166Y-51252380D02*
X79589166Y-50252380D01*
X79589166Y-51204761D02*
X79493928Y-51252380D01*
X79303452Y-51252380D01*
X79208214Y-51204761D01*
X79160595Y-51157142D01*
X79112976Y-51061904D01*
X79112976Y-50776190D01*
X79160595Y-50680952D01*
X79208214Y-50633333D01*
X79303452Y-50585714D01*
X79493928Y-50585714D01*
X79589166Y-50633333D01*
X80407023Y-50252380D02*
X80740357Y-51252380D01*
X81073690Y-50252380D01*
X81835595Y-51204761D02*
X81740357Y-51252380D01*
X81549880Y-51252380D01*
X81454642Y-51204761D01*
X81407023Y-51157142D01*
X81359404Y-51061904D01*
X81359404Y-50776190D01*
X81407023Y-50680952D01*
X81454642Y-50633333D01*
X81549880Y-50585714D01*
X81740357Y-50585714D01*
X81835595Y-50633333D01*
X82692738Y-51204761D02*
X82597500Y-51252380D01*
X82407023Y-51252380D01*
X82311785Y-51204761D01*
X82264166Y-51157142D01*
X82216547Y-51061904D01*
X82216547Y-50776190D01*
X82264166Y-50680952D01*
X82311785Y-50633333D01*
X82407023Y-50585714D01*
X82597500Y-50585714D01*
X82692738Y-50633333D01*
X70381904Y-51887380D02*
X70381904Y-50887380D01*
X70620000Y-50887380D01*
X70762857Y-50935000D01*
X70858095Y-51030238D01*
X70905714Y-51125476D01*
X70953333Y-51315952D01*
X70953333Y-51458809D01*
X70905714Y-51649285D01*
X70858095Y-51744523D01*
X70762857Y-51839761D01*
X70620000Y-51887380D01*
X70381904Y-51887380D01*
X71286666Y-50887380D02*
X71953333Y-50887380D01*
X71524761Y-51887380D01*
X52601904Y-51887380D02*
X52601904Y-50887380D01*
X52840000Y-50887380D01*
X52982857Y-50935000D01*
X53078095Y-51030238D01*
X53125714Y-51125476D01*
X53173333Y-51315952D01*
X53173333Y-51458809D01*
X53125714Y-51649285D01*
X53078095Y-51744523D01*
X52982857Y-51839761D01*
X52840000Y-51887380D01*
X52601904Y-51887380D01*
X53792380Y-50887380D02*
X53887619Y-50887380D01*
X53982857Y-50935000D01*
X54030476Y-50982619D01*
X54078095Y-51077857D01*
X54125714Y-51268333D01*
X54125714Y-51506428D01*
X54078095Y-51696904D01*
X54030476Y-51792142D01*
X53982857Y-51839761D01*
X53887619Y-51887380D01*
X53792380Y-51887380D01*
X53697142Y-51839761D01*
X53649523Y-51792142D01*
X53601904Y-51696904D01*
X53554285Y-51506428D01*
X53554285Y-51268333D01*
X53601904Y-51077857D01*
X53649523Y-50982619D01*
X53697142Y-50935000D01*
X53792380Y-50887380D01*
D11*
%TO.C,C2*%
X86303752Y-47407500D02*
X85781248Y-47407500D01*
X86303752Y-45937500D02*
X85781248Y-45937500D01*
%TO.C,R9*%
X90905000Y-25262064D02*
X90905000Y-24807936D01*
X89435000Y-25262064D02*
X89435000Y-24807936D01*
%TO.C,R8*%
X88365000Y-25262064D02*
X88365000Y-24807936D01*
X86895000Y-25262064D02*
X86895000Y-24807936D01*
%TO.C,R7*%
X85825000Y-25262064D02*
X85825000Y-24807936D01*
X84355000Y-25262064D02*
X84355000Y-24807936D01*
%TO.C,R6*%
X83285000Y-25262064D02*
X83285000Y-24807936D01*
X81815000Y-25262064D02*
X81815000Y-24807936D01*
%TO.C,R5*%
X80745000Y-25262064D02*
X80745000Y-24807936D01*
X79275000Y-25262064D02*
X79275000Y-24807936D01*
%TO.C,R4*%
X78205000Y-25262064D02*
X78205000Y-24807936D01*
X76735000Y-25262064D02*
X76735000Y-24807936D01*
%TO.C,R3*%
X75665000Y-25262064D02*
X75665000Y-24807936D01*
X74195000Y-25262064D02*
X74195000Y-24807936D01*
%TO.C,R2*%
X73125000Y-25262064D02*
X73125000Y-24807936D01*
X71655000Y-25262064D02*
X71655000Y-24807936D01*
%TO.C,R1*%
X78967064Y-31650000D02*
X78512936Y-31650000D01*
X78967064Y-33120000D02*
X78512936Y-33120000D01*
%TO.C,D8*%
X89210000Y-17435000D02*
X89210000Y-20295000D01*
X91130000Y-17435000D02*
X89210000Y-17435000D01*
X91130000Y-20295000D02*
X91130000Y-17435000D01*
%TO.C,D7*%
X86670000Y-17435000D02*
X86670000Y-20295000D01*
X88590000Y-17435000D02*
X86670000Y-17435000D01*
X88590000Y-20295000D02*
X88590000Y-17435000D01*
%TO.C,D6*%
X84130000Y-17435000D02*
X84130000Y-20295000D01*
X86050000Y-17435000D02*
X84130000Y-17435000D01*
X86050000Y-20295000D02*
X86050000Y-17435000D01*
%TO.C,D5*%
X81590000Y-17435000D02*
X81590000Y-20295000D01*
X83510000Y-17435000D02*
X81590000Y-17435000D01*
X83510000Y-20295000D02*
X83510000Y-17435000D01*
%TO.C,D4*%
X79050000Y-17435000D02*
X79050000Y-20295000D01*
X80970000Y-17435000D02*
X79050000Y-17435000D01*
X80970000Y-20295000D02*
X80970000Y-17435000D01*
%TO.C,D3*%
X76510000Y-17435000D02*
X76510000Y-20295000D01*
X78430000Y-17435000D02*
X76510000Y-17435000D01*
X78430000Y-20295000D02*
X78430000Y-17435000D01*
%TO.C,D2*%
X73970000Y-17435000D02*
X73970000Y-20295000D01*
X75890000Y-17435000D02*
X73970000Y-17435000D01*
X75890000Y-20295000D02*
X75890000Y-17435000D01*
%TO.C,D1*%
X71430000Y-17435000D02*
X71430000Y-20295000D01*
X73350000Y-17435000D02*
X71430000Y-17435000D01*
X73350000Y-20295000D02*
X73350000Y-17435000D01*
%TO.C,C1*%
X70111252Y-47725000D02*
X69588748Y-47725000D01*
X70111252Y-46255000D02*
X69588748Y-46255000D01*
%TO.C,J1*%
X72450000Y-54780000D02*
X52010000Y-54780000D01*
X52010000Y-54780000D02*
X52010000Y-57440000D01*
X52010000Y-57440000D02*
X72450000Y-57440000D01*
X72450000Y-57440000D02*
X72450000Y-54780000D01*
X71500000Y-57440000D02*
X71500000Y-63440000D01*
X71500000Y-63440000D02*
X70740000Y-63440000D01*
X70740000Y-63440000D02*
X70740000Y-57440000D01*
X71440000Y-57440000D02*
X71440000Y-63440000D01*
X71320000Y-57440000D02*
X71320000Y-63440000D01*
X71200000Y-57440000D02*
X71200000Y-63440000D01*
X71080000Y-57440000D02*
X71080000Y-63440000D01*
X70960000Y-57440000D02*
X70960000Y-63440000D01*
X70840000Y-57440000D02*
X70840000Y-63440000D01*
X71500000Y-54450000D02*
X71500000Y-54780000D01*
X70740000Y-54450000D02*
X70740000Y-54780000D01*
X69850000Y-54780000D02*
X69850000Y-57440000D01*
X68960000Y-57440000D02*
X68960000Y-63440000D01*
X68960000Y-63440000D02*
X68200000Y-63440000D01*
X68200000Y-63440000D02*
X68200000Y-57440000D01*
X68960000Y-54382929D02*
X68960000Y-54780000D01*
X68200000Y-54382929D02*
X68200000Y-54780000D01*
X67310000Y-54780000D02*
X67310000Y-57440000D01*
X66420000Y-57440000D02*
X66420000Y-63440000D01*
X66420000Y-63440000D02*
X65660000Y-63440000D01*
X65660000Y-63440000D02*
X65660000Y-57440000D01*
X66420000Y-54382929D02*
X66420000Y-54780000D01*
X65660000Y-54382929D02*
X65660000Y-54780000D01*
X64770000Y-54780000D02*
X64770000Y-57440000D01*
X63880000Y-57440000D02*
X63880000Y-63440000D01*
X63880000Y-63440000D02*
X63120000Y-63440000D01*
X63120000Y-63440000D02*
X63120000Y-57440000D01*
X63880000Y-54382929D02*
X63880000Y-54780000D01*
X63120000Y-54382929D02*
X63120000Y-54780000D01*
X62230000Y-54780000D02*
X62230000Y-57440000D01*
X61340000Y-57440000D02*
X61340000Y-63440000D01*
X61340000Y-63440000D02*
X60580000Y-63440000D01*
X60580000Y-63440000D02*
X60580000Y-57440000D01*
X61340000Y-54382929D02*
X61340000Y-54780000D01*
X60580000Y-54382929D02*
X60580000Y-54780000D01*
X59690000Y-54780000D02*
X59690000Y-57440000D01*
X58800000Y-57440000D02*
X58800000Y-63440000D01*
X58800000Y-63440000D02*
X58040000Y-63440000D01*
X58040000Y-63440000D02*
X58040000Y-57440000D01*
X58800000Y-54382929D02*
X58800000Y-54780000D01*
X58040000Y-54382929D02*
X58040000Y-54780000D01*
X57150000Y-54780000D02*
X57150000Y-57440000D01*
X56260000Y-57440000D02*
X56260000Y-63440000D01*
X56260000Y-63440000D02*
X55500000Y-63440000D01*
X55500000Y-63440000D02*
X55500000Y-57440000D01*
X56260000Y-54382929D02*
X56260000Y-54780000D01*
X55500000Y-54382929D02*
X55500000Y-54780000D01*
X54610000Y-54780000D02*
X54610000Y-57440000D01*
X53720000Y-57440000D02*
X53720000Y-63440000D01*
X53720000Y-63440000D02*
X52960000Y-63440000D01*
X52960000Y-63440000D02*
X52960000Y-57440000D01*
X53720000Y-54382929D02*
X53720000Y-54780000D01*
X52960000Y-54382929D02*
X52960000Y-54780000D01*
X71120000Y-52070000D02*
X72390000Y-52070000D01*
X72390000Y-52070000D02*
X72390000Y-53340000D01*
%TO.C,J2*%
X107950000Y-52070000D02*
X107950000Y-53340000D01*
X106680000Y-52070000D02*
X107950000Y-52070000D01*
X88520000Y-54382929D02*
X88520000Y-54780000D01*
X89280000Y-54382929D02*
X89280000Y-54780000D01*
X88520000Y-63440000D02*
X88520000Y-57440000D01*
X89280000Y-63440000D02*
X88520000Y-63440000D01*
X89280000Y-57440000D02*
X89280000Y-63440000D01*
X90170000Y-54780000D02*
X90170000Y-57440000D01*
X91060000Y-54382929D02*
X91060000Y-54780000D01*
X91820000Y-54382929D02*
X91820000Y-54780000D01*
X91060000Y-63440000D02*
X91060000Y-57440000D01*
X91820000Y-63440000D02*
X91060000Y-63440000D01*
X91820000Y-57440000D02*
X91820000Y-63440000D01*
X92710000Y-54780000D02*
X92710000Y-57440000D01*
X93600000Y-54382929D02*
X93600000Y-54780000D01*
X94360000Y-54382929D02*
X94360000Y-54780000D01*
X93600000Y-63440000D02*
X93600000Y-57440000D01*
X94360000Y-63440000D02*
X93600000Y-63440000D01*
X94360000Y-57440000D02*
X94360000Y-63440000D01*
X95250000Y-54780000D02*
X95250000Y-57440000D01*
X96140000Y-54382929D02*
X96140000Y-54780000D01*
X96900000Y-54382929D02*
X96900000Y-54780000D01*
X96140000Y-63440000D02*
X96140000Y-57440000D01*
X96900000Y-63440000D02*
X96140000Y-63440000D01*
X96900000Y-57440000D02*
X96900000Y-63440000D01*
X97790000Y-54780000D02*
X97790000Y-57440000D01*
X98680000Y-54382929D02*
X98680000Y-54780000D01*
X99440000Y-54382929D02*
X99440000Y-54780000D01*
X98680000Y-63440000D02*
X98680000Y-57440000D01*
X99440000Y-63440000D02*
X98680000Y-63440000D01*
X99440000Y-57440000D02*
X99440000Y-63440000D01*
X100330000Y-54780000D02*
X100330000Y-57440000D01*
X101220000Y-54382929D02*
X101220000Y-54780000D01*
X101980000Y-54382929D02*
X101980000Y-54780000D01*
X101220000Y-63440000D02*
X101220000Y-57440000D01*
X101980000Y-63440000D02*
X101220000Y-63440000D01*
X101980000Y-57440000D02*
X101980000Y-63440000D01*
X102870000Y-54780000D02*
X102870000Y-57440000D01*
X103760000Y-54382929D02*
X103760000Y-54780000D01*
X104520000Y-54382929D02*
X104520000Y-54780000D01*
X103760000Y-63440000D02*
X103760000Y-57440000D01*
X104520000Y-63440000D02*
X103760000Y-63440000D01*
X104520000Y-57440000D02*
X104520000Y-63440000D01*
X105410000Y-54780000D02*
X105410000Y-57440000D01*
X106300000Y-54450000D02*
X106300000Y-54780000D01*
X107060000Y-54450000D02*
X107060000Y-54780000D01*
X106400000Y-57440000D02*
X106400000Y-63440000D01*
X106520000Y-57440000D02*
X106520000Y-63440000D01*
X106640000Y-57440000D02*
X106640000Y-63440000D01*
X106760000Y-57440000D02*
X106760000Y-63440000D01*
X106880000Y-57440000D02*
X106880000Y-63440000D01*
X107000000Y-57440000D02*
X107000000Y-63440000D01*
X106300000Y-63440000D02*
X106300000Y-57440000D01*
X107060000Y-63440000D02*
X106300000Y-63440000D01*
X107060000Y-57440000D02*
X107060000Y-63440000D01*
X108010000Y-57440000D02*
X108010000Y-54780000D01*
X87570000Y-57440000D02*
X108010000Y-57440000D01*
X87570000Y-54780000D02*
X87570000Y-57440000D01*
X108010000Y-54780000D02*
X87570000Y-54780000D01*
%TO.C,J3*%
X82610000Y-54780000D02*
X77410000Y-54780000D01*
X77410000Y-54780000D02*
X77410000Y-57440000D01*
X77410000Y-57440000D02*
X82610000Y-57440000D01*
X82610000Y-57440000D02*
X82610000Y-54780000D01*
X81660000Y-57440000D02*
X81660000Y-63440000D01*
X81660000Y-63440000D02*
X80900000Y-63440000D01*
X80900000Y-63440000D02*
X80900000Y-57440000D01*
X81600000Y-57440000D02*
X81600000Y-63440000D01*
X81480000Y-57440000D02*
X81480000Y-63440000D01*
X81360000Y-57440000D02*
X81360000Y-63440000D01*
X81240000Y-57440000D02*
X81240000Y-63440000D01*
X81120000Y-57440000D02*
X81120000Y-63440000D01*
X81000000Y-57440000D02*
X81000000Y-63440000D01*
X81660000Y-54450000D02*
X81660000Y-54780000D01*
X80900000Y-54450000D02*
X80900000Y-54780000D01*
X80010000Y-54780000D02*
X80010000Y-57440000D01*
X79120000Y-57440000D02*
X79120000Y-63440000D01*
X79120000Y-63440000D02*
X78360000Y-63440000D01*
X78360000Y-63440000D02*
X78360000Y-57440000D01*
X79120000Y-54382929D02*
X79120000Y-54780000D01*
X78360000Y-54382929D02*
X78360000Y-54780000D01*
X81280000Y-52070000D02*
X82550000Y-52070000D01*
X82550000Y-52070000D02*
X82550000Y-53340000D01*
%TO.C,J4*%
X120710000Y-54780000D02*
X112970000Y-54780000D01*
X112970000Y-54780000D02*
X112970000Y-57440000D01*
X112970000Y-57440000D02*
X120710000Y-57440000D01*
X120710000Y-57440000D02*
X120710000Y-54780000D01*
X119760000Y-57440000D02*
X119760000Y-63440000D01*
X119760000Y-63440000D02*
X119000000Y-63440000D01*
X119000000Y-63440000D02*
X119000000Y-57440000D01*
X119700000Y-57440000D02*
X119700000Y-63440000D01*
X119580000Y-57440000D02*
X119580000Y-63440000D01*
X119460000Y-57440000D02*
X119460000Y-63440000D01*
X119340000Y-57440000D02*
X119340000Y-63440000D01*
X119220000Y-57440000D02*
X119220000Y-63440000D01*
X119100000Y-57440000D02*
X119100000Y-63440000D01*
X119760000Y-54450000D02*
X119760000Y-54780000D01*
X119000000Y-54450000D02*
X119000000Y-54780000D01*
X118110000Y-54780000D02*
X118110000Y-57440000D01*
X117220000Y-57440000D02*
X117220000Y-63440000D01*
X117220000Y-63440000D02*
X116460000Y-63440000D01*
X116460000Y-63440000D02*
X116460000Y-57440000D01*
X117220000Y-54382929D02*
X117220000Y-54780000D01*
X116460000Y-54382929D02*
X116460000Y-54780000D01*
X115570000Y-54780000D02*
X115570000Y-57440000D01*
X114680000Y-57440000D02*
X114680000Y-63440000D01*
X114680000Y-63440000D02*
X113920000Y-63440000D01*
X113920000Y-63440000D02*
X113920000Y-57440000D01*
X114680000Y-54382929D02*
X114680000Y-54780000D01*
X113920000Y-54382929D02*
X113920000Y-54780000D01*
X119380000Y-52070000D02*
X120650000Y-52070000D01*
X120650000Y-52070000D02*
X120650000Y-53340000D01*
%TO.C,U1*%
X69850000Y-44935001D02*
X73710000Y-44935001D01*
X73710000Y-44935001D02*
X73710000Y-44700001D01*
X69850000Y-44935001D02*
X65990000Y-44935001D01*
X65990000Y-44935001D02*
X65990000Y-44700001D01*
X69850000Y-31915001D02*
X73710000Y-31915001D01*
X73710000Y-31915001D02*
X73710000Y-32150001D01*
X69850000Y-31915001D02*
X65990000Y-31915001D01*
X65990000Y-31915001D02*
X65990000Y-32150001D01*
X65990000Y-32150001D02*
X64300000Y-32150001D01*
%TO.C,U3*%
X110500000Y-40640000D02*
X110500000Y-44090000D01*
X110500000Y-40640000D02*
X110500000Y-38690000D01*
X119370000Y-40640000D02*
X119370000Y-42590000D01*
X119370000Y-40640000D02*
X119370000Y-38690000D01*
%TO.C,U2*%
X87467500Y-44927500D02*
X91327500Y-44927500D01*
X91327500Y-44927500D02*
X91327500Y-44692500D01*
X87467500Y-44927500D02*
X83607500Y-44927500D01*
X83607500Y-44927500D02*
X83607500Y-44692500D01*
X87467500Y-31907500D02*
X91327500Y-31907500D01*
X91327500Y-31907500D02*
X91327500Y-32142500D01*
X87467500Y-31907500D02*
X83607500Y-31907500D01*
X83607500Y-31907500D02*
X83607500Y-32142500D01*
X83607500Y-32142500D02*
X81917500Y-32142500D01*
%TO.C,C2*%
D10*
X85875833Y-48709642D02*
X85828214Y-48757261D01*
X85685357Y-48804880D01*
X85590119Y-48804880D01*
X85447261Y-48757261D01*
X85352023Y-48662023D01*
X85304404Y-48566785D01*
X85256785Y-48376309D01*
X85256785Y-48233452D01*
X85304404Y-48042976D01*
X85352023Y-47947738D01*
X85447261Y-47852500D01*
X85590119Y-47804880D01*
X85685357Y-47804880D01*
X85828214Y-47852500D01*
X85875833Y-47900119D01*
X86256785Y-47900119D02*
X86304404Y-47852500D01*
X86399642Y-47804880D01*
X86637738Y-47804880D01*
X86732976Y-47852500D01*
X86780595Y-47900119D01*
X86828214Y-47995357D01*
X86828214Y-48090595D01*
X86780595Y-48233452D01*
X86209166Y-48804880D01*
X86828214Y-48804880D01*
%TO.C,R9*%
X90622380Y-28106666D02*
X90146190Y-28440000D01*
X90622380Y-28678095D02*
X89622380Y-28678095D01*
X89622380Y-28297142D01*
X89670000Y-28201904D01*
X89717619Y-28154285D01*
X89812857Y-28106666D01*
X89955714Y-28106666D01*
X90050952Y-28154285D01*
X90098571Y-28201904D01*
X90146190Y-28297142D01*
X90146190Y-28678095D01*
X90622380Y-27630476D02*
X90622380Y-27440000D01*
X90574761Y-27344761D01*
X90527142Y-27297142D01*
X90384285Y-27201904D01*
X90193809Y-27154285D01*
X89812857Y-27154285D01*
X89717619Y-27201904D01*
X89670000Y-27249523D01*
X89622380Y-27344761D01*
X89622380Y-27535238D01*
X89670000Y-27630476D01*
X89717619Y-27678095D01*
X89812857Y-27725714D01*
X90050952Y-27725714D01*
X90146190Y-27678095D01*
X90193809Y-27630476D01*
X90241428Y-27535238D01*
X90241428Y-27344761D01*
X90193809Y-27249523D01*
X90146190Y-27201904D01*
X90050952Y-27154285D01*
%TO.C,R8*%
X88082380Y-28106666D02*
X87606190Y-28440000D01*
X88082380Y-28678095D02*
X87082380Y-28678095D01*
X87082380Y-28297142D01*
X87130000Y-28201904D01*
X87177619Y-28154285D01*
X87272857Y-28106666D01*
X87415714Y-28106666D01*
X87510952Y-28154285D01*
X87558571Y-28201904D01*
X87606190Y-28297142D01*
X87606190Y-28678095D01*
X87510952Y-27535238D02*
X87463333Y-27630476D01*
X87415714Y-27678095D01*
X87320476Y-27725714D01*
X87272857Y-27725714D01*
X87177619Y-27678095D01*
X87130000Y-27630476D01*
X87082380Y-27535238D01*
X87082380Y-27344761D01*
X87130000Y-27249523D01*
X87177619Y-27201904D01*
X87272857Y-27154285D01*
X87320476Y-27154285D01*
X87415714Y-27201904D01*
X87463333Y-27249523D01*
X87510952Y-27344761D01*
X87510952Y-27535238D01*
X87558571Y-27630476D01*
X87606190Y-27678095D01*
X87701428Y-27725714D01*
X87891904Y-27725714D01*
X87987142Y-27678095D01*
X88034761Y-27630476D01*
X88082380Y-27535238D01*
X88082380Y-27344761D01*
X88034761Y-27249523D01*
X87987142Y-27201904D01*
X87891904Y-27154285D01*
X87701428Y-27154285D01*
X87606190Y-27201904D01*
X87558571Y-27249523D01*
X87510952Y-27344761D01*
%TO.C,R7*%
X85542380Y-28106666D02*
X85066190Y-28440000D01*
X85542380Y-28678095D02*
X84542380Y-28678095D01*
X84542380Y-28297142D01*
X84590000Y-28201904D01*
X84637619Y-28154285D01*
X84732857Y-28106666D01*
X84875714Y-28106666D01*
X84970952Y-28154285D01*
X85018571Y-28201904D01*
X85066190Y-28297142D01*
X85066190Y-28678095D01*
X84542380Y-27773333D02*
X84542380Y-27106666D01*
X85542380Y-27535238D01*
%TO.C,R6*%
X83002380Y-28106666D02*
X82526190Y-28440000D01*
X83002380Y-28678095D02*
X82002380Y-28678095D01*
X82002380Y-28297142D01*
X82050000Y-28201904D01*
X82097619Y-28154285D01*
X82192857Y-28106666D01*
X82335714Y-28106666D01*
X82430952Y-28154285D01*
X82478571Y-28201904D01*
X82526190Y-28297142D01*
X82526190Y-28678095D01*
X82002380Y-27249523D02*
X82002380Y-27440000D01*
X82050000Y-27535238D01*
X82097619Y-27582857D01*
X82240476Y-27678095D01*
X82430952Y-27725714D01*
X82811904Y-27725714D01*
X82907142Y-27678095D01*
X82954761Y-27630476D01*
X83002380Y-27535238D01*
X83002380Y-27344761D01*
X82954761Y-27249523D01*
X82907142Y-27201904D01*
X82811904Y-27154285D01*
X82573809Y-27154285D01*
X82478571Y-27201904D01*
X82430952Y-27249523D01*
X82383333Y-27344761D01*
X82383333Y-27535238D01*
X82430952Y-27630476D01*
X82478571Y-27678095D01*
X82573809Y-27725714D01*
%TO.C,R5*%
X80462380Y-28106666D02*
X79986190Y-28440000D01*
X80462380Y-28678095D02*
X79462380Y-28678095D01*
X79462380Y-28297142D01*
X79510000Y-28201904D01*
X79557619Y-28154285D01*
X79652857Y-28106666D01*
X79795714Y-28106666D01*
X79890952Y-28154285D01*
X79938571Y-28201904D01*
X79986190Y-28297142D01*
X79986190Y-28678095D01*
X79462380Y-27201904D02*
X79462380Y-27678095D01*
X79938571Y-27725714D01*
X79890952Y-27678095D01*
X79843333Y-27582857D01*
X79843333Y-27344761D01*
X79890952Y-27249523D01*
X79938571Y-27201904D01*
X80033809Y-27154285D01*
X80271904Y-27154285D01*
X80367142Y-27201904D01*
X80414761Y-27249523D01*
X80462380Y-27344761D01*
X80462380Y-27582857D01*
X80414761Y-27678095D01*
X80367142Y-27725714D01*
%TO.C,R4*%
X77922380Y-28106666D02*
X77446190Y-28440000D01*
X77922380Y-28678095D02*
X76922380Y-28678095D01*
X76922380Y-28297142D01*
X76970000Y-28201904D01*
X77017619Y-28154285D01*
X77112857Y-28106666D01*
X77255714Y-28106666D01*
X77350952Y-28154285D01*
X77398571Y-28201904D01*
X77446190Y-28297142D01*
X77446190Y-28678095D01*
X77255714Y-27249523D02*
X77922380Y-27249523D01*
X76874761Y-27487619D02*
X77589047Y-27725714D01*
X77589047Y-27106666D01*
%TO.C,R3*%
X75382380Y-28106666D02*
X74906190Y-28440000D01*
X75382380Y-28678095D02*
X74382380Y-28678095D01*
X74382380Y-28297142D01*
X74430000Y-28201904D01*
X74477619Y-28154285D01*
X74572857Y-28106666D01*
X74715714Y-28106666D01*
X74810952Y-28154285D01*
X74858571Y-28201904D01*
X74906190Y-28297142D01*
X74906190Y-28678095D01*
X74382380Y-27773333D02*
X74382380Y-27154285D01*
X74763333Y-27487619D01*
X74763333Y-27344761D01*
X74810952Y-27249523D01*
X74858571Y-27201904D01*
X74953809Y-27154285D01*
X75191904Y-27154285D01*
X75287142Y-27201904D01*
X75334761Y-27249523D01*
X75382380Y-27344761D01*
X75382380Y-27630476D01*
X75334761Y-27725714D01*
X75287142Y-27773333D01*
%TO.C,R2*%
X72842380Y-28106666D02*
X72366190Y-28440000D01*
X72842380Y-28678095D02*
X71842380Y-28678095D01*
X71842380Y-28297142D01*
X71890000Y-28201904D01*
X71937619Y-28154285D01*
X72032857Y-28106666D01*
X72175714Y-28106666D01*
X72270952Y-28154285D01*
X72318571Y-28201904D01*
X72366190Y-28297142D01*
X72366190Y-28678095D01*
X71937619Y-27725714D02*
X71890000Y-27678095D01*
X71842380Y-27582857D01*
X71842380Y-27344761D01*
X71890000Y-27249523D01*
X71937619Y-27201904D01*
X72032857Y-27154285D01*
X72128095Y-27154285D01*
X72270952Y-27201904D01*
X72842380Y-27773333D01*
X72842380Y-27154285D01*
%TO.C,R1*%
X78573333Y-30932380D02*
X78240000Y-30456190D01*
X78001904Y-30932380D02*
X78001904Y-29932380D01*
X78382857Y-29932380D01*
X78478095Y-29980000D01*
X78525714Y-30027619D01*
X78573333Y-30122857D01*
X78573333Y-30265714D01*
X78525714Y-30360952D01*
X78478095Y-30408571D01*
X78382857Y-30456190D01*
X78001904Y-30456190D01*
X79525714Y-30932380D02*
X78954285Y-30932380D01*
X79240000Y-30932380D02*
X79240000Y-29932380D01*
X79144761Y-30075238D01*
X79049523Y-30170476D01*
X78954285Y-30218095D01*
%TO.C,D8*%
X90622380Y-22963095D02*
X89622380Y-22963095D01*
X89622380Y-22725000D01*
X89670000Y-22582142D01*
X89765238Y-22486904D01*
X89860476Y-22439285D01*
X90050952Y-22391666D01*
X90193809Y-22391666D01*
X90384285Y-22439285D01*
X90479523Y-22486904D01*
X90574761Y-22582142D01*
X90622380Y-22725000D01*
X90622380Y-22963095D01*
X90050952Y-21820238D02*
X90003333Y-21915476D01*
X89955714Y-21963095D01*
X89860476Y-22010714D01*
X89812857Y-22010714D01*
X89717619Y-21963095D01*
X89670000Y-21915476D01*
X89622380Y-21820238D01*
X89622380Y-21629761D01*
X89670000Y-21534523D01*
X89717619Y-21486904D01*
X89812857Y-21439285D01*
X89860476Y-21439285D01*
X89955714Y-21486904D01*
X90003333Y-21534523D01*
X90050952Y-21629761D01*
X90050952Y-21820238D01*
X90098571Y-21915476D01*
X90146190Y-21963095D01*
X90241428Y-22010714D01*
X90431904Y-22010714D01*
X90527142Y-21963095D01*
X90574761Y-21915476D01*
X90622380Y-21820238D01*
X90622380Y-21629761D01*
X90574761Y-21534523D01*
X90527142Y-21486904D01*
X90431904Y-21439285D01*
X90241428Y-21439285D01*
X90146190Y-21486904D01*
X90098571Y-21534523D01*
X90050952Y-21629761D01*
%TO.C,D7*%
X88082380Y-22963095D02*
X87082380Y-22963095D01*
X87082380Y-22725000D01*
X87130000Y-22582142D01*
X87225238Y-22486904D01*
X87320476Y-22439285D01*
X87510952Y-22391666D01*
X87653809Y-22391666D01*
X87844285Y-22439285D01*
X87939523Y-22486904D01*
X88034761Y-22582142D01*
X88082380Y-22725000D01*
X88082380Y-22963095D01*
X87082380Y-22058333D02*
X87082380Y-21391666D01*
X88082380Y-21820238D01*
%TO.C,D6*%
X85542380Y-22963095D02*
X84542380Y-22963095D01*
X84542380Y-22725000D01*
X84590000Y-22582142D01*
X84685238Y-22486904D01*
X84780476Y-22439285D01*
X84970952Y-22391666D01*
X85113809Y-22391666D01*
X85304285Y-22439285D01*
X85399523Y-22486904D01*
X85494761Y-22582142D01*
X85542380Y-22725000D01*
X85542380Y-22963095D01*
X84542380Y-21534523D02*
X84542380Y-21725000D01*
X84590000Y-21820238D01*
X84637619Y-21867857D01*
X84780476Y-21963095D01*
X84970952Y-22010714D01*
X85351904Y-22010714D01*
X85447142Y-21963095D01*
X85494761Y-21915476D01*
X85542380Y-21820238D01*
X85542380Y-21629761D01*
X85494761Y-21534523D01*
X85447142Y-21486904D01*
X85351904Y-21439285D01*
X85113809Y-21439285D01*
X85018571Y-21486904D01*
X84970952Y-21534523D01*
X84923333Y-21629761D01*
X84923333Y-21820238D01*
X84970952Y-21915476D01*
X85018571Y-21963095D01*
X85113809Y-22010714D01*
%TO.C,D5*%
X83002380Y-22963095D02*
X82002380Y-22963095D01*
X82002380Y-22725000D01*
X82050000Y-22582142D01*
X82145238Y-22486904D01*
X82240476Y-22439285D01*
X82430952Y-22391666D01*
X82573809Y-22391666D01*
X82764285Y-22439285D01*
X82859523Y-22486904D01*
X82954761Y-22582142D01*
X83002380Y-22725000D01*
X83002380Y-22963095D01*
X82002380Y-21486904D02*
X82002380Y-21963095D01*
X82478571Y-22010714D01*
X82430952Y-21963095D01*
X82383333Y-21867857D01*
X82383333Y-21629761D01*
X82430952Y-21534523D01*
X82478571Y-21486904D01*
X82573809Y-21439285D01*
X82811904Y-21439285D01*
X82907142Y-21486904D01*
X82954761Y-21534523D01*
X83002380Y-21629761D01*
X83002380Y-21867857D01*
X82954761Y-21963095D01*
X82907142Y-22010714D01*
%TO.C,D4*%
X80462380Y-22963095D02*
X79462380Y-22963095D01*
X79462380Y-22725000D01*
X79510000Y-22582142D01*
X79605238Y-22486904D01*
X79700476Y-22439285D01*
X79890952Y-22391666D01*
X80033809Y-22391666D01*
X80224285Y-22439285D01*
X80319523Y-22486904D01*
X80414761Y-22582142D01*
X80462380Y-22725000D01*
X80462380Y-22963095D01*
X79795714Y-21534523D02*
X80462380Y-21534523D01*
X79414761Y-21772619D02*
X80129047Y-22010714D01*
X80129047Y-21391666D01*
%TO.C,D3*%
X77922380Y-22963095D02*
X76922380Y-22963095D01*
X76922380Y-22725000D01*
X76970000Y-22582142D01*
X77065238Y-22486904D01*
X77160476Y-22439285D01*
X77350952Y-22391666D01*
X77493809Y-22391666D01*
X77684285Y-22439285D01*
X77779523Y-22486904D01*
X77874761Y-22582142D01*
X77922380Y-22725000D01*
X77922380Y-22963095D01*
X76922380Y-22058333D02*
X76922380Y-21439285D01*
X77303333Y-21772619D01*
X77303333Y-21629761D01*
X77350952Y-21534523D01*
X77398571Y-21486904D01*
X77493809Y-21439285D01*
X77731904Y-21439285D01*
X77827142Y-21486904D01*
X77874761Y-21534523D01*
X77922380Y-21629761D01*
X77922380Y-21915476D01*
X77874761Y-22010714D01*
X77827142Y-22058333D01*
%TO.C,D2*%
X75382380Y-22963095D02*
X74382380Y-22963095D01*
X74382380Y-22725000D01*
X74430000Y-22582142D01*
X74525238Y-22486904D01*
X74620476Y-22439285D01*
X74810952Y-22391666D01*
X74953809Y-22391666D01*
X75144285Y-22439285D01*
X75239523Y-22486904D01*
X75334761Y-22582142D01*
X75382380Y-22725000D01*
X75382380Y-22963095D01*
X74477619Y-22010714D02*
X74430000Y-21963095D01*
X74382380Y-21867857D01*
X74382380Y-21629761D01*
X74430000Y-21534523D01*
X74477619Y-21486904D01*
X74572857Y-21439285D01*
X74668095Y-21439285D01*
X74810952Y-21486904D01*
X75382380Y-22058333D01*
X75382380Y-21439285D01*
%TO.C,D1*%
X72842380Y-22963095D02*
X71842380Y-22963095D01*
X71842380Y-22725000D01*
X71890000Y-22582142D01*
X71985238Y-22486904D01*
X72080476Y-22439285D01*
X72270952Y-22391666D01*
X72413809Y-22391666D01*
X72604285Y-22439285D01*
X72699523Y-22486904D01*
X72794761Y-22582142D01*
X72842380Y-22725000D01*
X72842380Y-22963095D01*
X72842380Y-21439285D02*
X72842380Y-22010714D01*
X72842380Y-21725000D02*
X71842380Y-21725000D01*
X71985238Y-21820238D01*
X72080476Y-21915476D01*
X72128095Y-22010714D01*
%TO.C,C1*%
X69683333Y-49252142D02*
X69635714Y-49299761D01*
X69492857Y-49347380D01*
X69397619Y-49347380D01*
X69254761Y-49299761D01*
X69159523Y-49204523D01*
X69111904Y-49109285D01*
X69064285Y-48918809D01*
X69064285Y-48775952D01*
X69111904Y-48585476D01*
X69159523Y-48490238D01*
X69254761Y-48395000D01*
X69397619Y-48347380D01*
X69492857Y-48347380D01*
X69635714Y-48395000D01*
X69683333Y-48442619D01*
X70635714Y-49347380D02*
X70064285Y-49347380D01*
X70350000Y-49347380D02*
X70350000Y-48347380D01*
X70254761Y-48490238D01*
X70159523Y-48585476D01*
X70064285Y-48633095D01*
%TO.C,U1*%
X69088095Y-30527381D02*
X69088095Y-31336905D01*
X69135714Y-31432143D01*
X69183333Y-31479762D01*
X69278571Y-31527381D01*
X69469047Y-31527381D01*
X69564285Y-31479762D01*
X69611904Y-31432143D01*
X69659523Y-31336905D01*
X69659523Y-30527381D01*
X70659523Y-31527381D02*
X70088095Y-31527381D01*
X70373809Y-31527381D02*
X70373809Y-30527381D01*
X70278571Y-30670239D01*
X70183333Y-30765477D01*
X70088095Y-30813096D01*
%TO.C,U3*%
X109107380Y-41401904D02*
X109916904Y-41401904D01*
X110012142Y-41354285D01*
X110059761Y-41306666D01*
X110107380Y-41211428D01*
X110107380Y-41020952D01*
X110059761Y-40925714D01*
X110012142Y-40878095D01*
X109916904Y-40830476D01*
X109107380Y-40830476D01*
X109107380Y-40449523D02*
X109107380Y-39830476D01*
X109488333Y-40163809D01*
X109488333Y-40020952D01*
X109535952Y-39925714D01*
X109583571Y-39878095D01*
X109678809Y-39830476D01*
X109916904Y-39830476D01*
X110012142Y-39878095D01*
X110059761Y-39925714D01*
X110107380Y-40020952D01*
X110107380Y-40306666D01*
X110059761Y-40401904D01*
X110012142Y-40449523D01*
%TO.C,U2*%
X86705595Y-30519880D02*
X86705595Y-31329404D01*
X86753214Y-31424642D01*
X86800833Y-31472261D01*
X86896071Y-31519880D01*
X87086547Y-31519880D01*
X87181785Y-31472261D01*
X87229404Y-31424642D01*
X87277023Y-31329404D01*
X87277023Y-30519880D01*
X87705595Y-30615119D02*
X87753214Y-30567500D01*
X87848452Y-30519880D01*
X88086547Y-30519880D01*
X88181785Y-30567500D01*
X88229404Y-30615119D01*
X88277023Y-30710357D01*
X88277023Y-30805595D01*
X88229404Y-30948452D01*
X87657976Y-31519880D01*
X88277023Y-31519880D01*
%TD*%
M02*
