%TF.GenerationSoftware,KiCad,Pcbnew,(5.1.8)-1*%
%TF.CreationDate,2022-11-12T22:58:33+03:00*%
%TF.ProjectId,Reg,5265672e-6b69-4636-9164-5f7063625858,rev?*%
%TF.SameCoordinates,Original*%
%TF.FileFunction,Copper,L1,Top*%
%TF.FilePolarity,Positive*%
%FSLAX46Y46*%
G04 Gerber Fmt 4.6, Leading zero omitted, Abs format (unit mm)*
G04 Created by KiCad (PCBNEW (5.1.8)-1) date 2022-11-12 22:58:33*
%MOMM*%
%LPD*%
G01*
G04 APERTURE LIST*
%TA.AperFunction,NonConductor*%
%ADD10C,0.200000*%
%TD*%
%TA.AperFunction,NonConductor*%
%ADD11C,0.300000*%
%TD*%
%TA.AperFunction,ComponentPad*%
%ADD12R,2.100000X2.200000*%
%TD*%
%TA.AperFunction,ComponentPad*%
%ADD13O,2.100000X2.200000*%
%TD*%
%TA.AperFunction,ViaPad*%
%ADD14C,1.500000*%
%TD*%
%TA.AperFunction,Conductor*%
%ADD15C,0.250000*%
%TD*%
%TA.AperFunction,Conductor*%
%ADD16C,0.500000*%
%TD*%
G04 APERTURE END LIST*
D10*
X110588571Y-49676000D02*
X111788571Y-49676000D01*
X111560000Y-51228571D02*
X111502857Y-51285714D01*
X111331428Y-51342857D01*
X111217142Y-51342857D01*
X111045714Y-51285714D01*
X110931428Y-51171428D01*
X110874285Y-51057142D01*
X110817142Y-50828571D01*
X110817142Y-50657142D01*
X110874285Y-50428571D01*
X110931428Y-50314285D01*
X111045714Y-50200000D01*
X111217142Y-50142857D01*
X111331428Y-50142857D01*
X111502857Y-50200000D01*
X111560000Y-50257142D01*
X111788571Y-49676000D02*
X112931428Y-49676000D01*
X112017142Y-51285714D02*
X112188571Y-51342857D01*
X112474285Y-51342857D01*
X112588571Y-51285714D01*
X112645714Y-51228571D01*
X112702857Y-51114285D01*
X112702857Y-51000000D01*
X112645714Y-50885714D01*
X112588571Y-50828571D01*
X112474285Y-50771428D01*
X112245714Y-50714285D01*
X112131428Y-50657142D01*
X112074285Y-50600000D01*
X112017142Y-50485714D01*
X112017142Y-50371428D01*
X112074285Y-50257142D01*
X112131428Y-50200000D01*
X112245714Y-50142857D01*
X112531428Y-50142857D01*
X112702857Y-50200000D01*
X83185000Y-31432500D02*
G75*
G03*
X83185000Y-31432500I-317500J0D01*
G01*
D11*
X98219285Y-25126071D02*
X97362142Y-25126071D01*
X97790714Y-25126071D02*
X97790714Y-23626071D01*
X97647857Y-23840357D01*
X97505000Y-23983214D01*
X97362142Y-24054642D01*
X99647857Y-25126071D02*
X98790714Y-25126071D01*
X99219285Y-25126071D02*
X99219285Y-23626071D01*
X99076428Y-23840357D01*
X98933571Y-23983214D01*
X98790714Y-24054642D01*
X100290714Y-24983214D02*
X100362142Y-25054642D01*
X100290714Y-25126071D01*
X100219285Y-25054642D01*
X100290714Y-24983214D01*
X100290714Y-25126071D01*
X101790714Y-25126071D02*
X100933571Y-25126071D01*
X101362142Y-25126071D02*
X101362142Y-23626071D01*
X101219285Y-23840357D01*
X101076428Y-23983214D01*
X100933571Y-24054642D01*
X103219285Y-25126071D02*
X102362142Y-25126071D01*
X102790714Y-25126071D02*
X102790714Y-23626071D01*
X102647857Y-23840357D01*
X102505000Y-23983214D01*
X102362142Y-24054642D01*
X103862142Y-24983214D02*
X103933571Y-25054642D01*
X103862142Y-25126071D01*
X103790714Y-25054642D01*
X103862142Y-24983214D01*
X103862142Y-25126071D01*
X104505000Y-23768928D02*
X104576428Y-23697500D01*
X104719285Y-23626071D01*
X105076428Y-23626071D01*
X105219285Y-23697500D01*
X105290714Y-23768928D01*
X105362142Y-23911785D01*
X105362142Y-24054642D01*
X105290714Y-24268928D01*
X104433571Y-25126071D01*
X105362142Y-25126071D01*
X106290714Y-23626071D02*
X106433571Y-23626071D01*
X106576428Y-23697500D01*
X106647857Y-23768928D01*
X106719285Y-23911785D01*
X106790714Y-24197500D01*
X106790714Y-24554642D01*
X106719285Y-24840357D01*
X106647857Y-24983214D01*
X106576428Y-25054642D01*
X106433571Y-25126071D01*
X106290714Y-25126071D01*
X106147857Y-25054642D01*
X106076428Y-24983214D01*
X106005000Y-24840357D01*
X105933571Y-24554642D01*
X105933571Y-24197500D01*
X106005000Y-23911785D01*
X106076428Y-23768928D01*
X106147857Y-23697500D01*
X106290714Y-23626071D01*
X107362142Y-23768928D02*
X107433571Y-23697500D01*
X107576428Y-23626071D01*
X107933571Y-23626071D01*
X108076428Y-23697500D01*
X108147857Y-23768928D01*
X108219285Y-23911785D01*
X108219285Y-24054642D01*
X108147857Y-24268928D01*
X107290714Y-25126071D01*
X108219285Y-25126071D01*
X108790714Y-23768928D02*
X108862142Y-23697500D01*
X109005000Y-23626071D01*
X109362142Y-23626071D01*
X109505000Y-23697500D01*
X109576428Y-23768928D01*
X109647857Y-23911785D01*
X109647857Y-24054642D01*
X109576428Y-24268928D01*
X108719285Y-25126071D01*
X109647857Y-25126071D01*
X99219285Y-27118571D02*
X100219285Y-27118571D01*
X99576428Y-28618571D01*
X101433571Y-27618571D02*
X101433571Y-28618571D01*
X101076428Y-27047142D02*
X100719285Y-28118571D01*
X101647857Y-28118571D01*
X102219285Y-28618571D02*
X102219285Y-27118571D01*
X102219285Y-27832857D02*
X103076428Y-27832857D01*
X103076428Y-28618571D02*
X103076428Y-27118571D01*
X104647857Y-28475714D02*
X104576428Y-28547142D01*
X104362142Y-28618571D01*
X104219285Y-28618571D01*
X104005000Y-28547142D01*
X103862142Y-28404285D01*
X103790714Y-28261428D01*
X103719285Y-27975714D01*
X103719285Y-27761428D01*
X103790714Y-27475714D01*
X103862142Y-27332857D01*
X104005000Y-27190000D01*
X104219285Y-27118571D01*
X104362142Y-27118571D01*
X104576428Y-27190000D01*
X104647857Y-27261428D01*
X105290714Y-28618571D02*
X105290714Y-27118571D01*
X105862142Y-27118571D01*
X106005000Y-27190000D01*
X106076428Y-27261428D01*
X106147857Y-27404285D01*
X106147857Y-27618571D01*
X106076428Y-27761428D01*
X106005000Y-27832857D01*
X105862142Y-27904285D01*
X105290714Y-27904285D01*
X106790714Y-27118571D02*
X106790714Y-28332857D01*
X106862142Y-28475714D01*
X106933571Y-28547142D01*
X107076428Y-28618571D01*
X107362142Y-28618571D01*
X107505000Y-28547142D01*
X107576428Y-28475714D01*
X107647857Y-28332857D01*
X107647857Y-27118571D01*
D10*
X109855000Y-43180000D02*
G75*
G03*
X109855000Y-43180000I-317500J0D01*
G01*
X65405000Y-31115000D02*
G75*
G03*
X65405000Y-31115000I-317500J0D01*
G01*
%TO.P,C2,2*%
%TO.N,GND*%
%TA.AperFunction,SMDPad,CuDef*%
G36*
G01*
X85592500Y-46197500D02*
X85592500Y-47147500D01*
G75*
G02*
X85342500Y-47397500I-250000J0D01*
G01*
X84667500Y-47397500D01*
G75*
G02*
X84417500Y-47147500I0J250000D01*
G01*
X84417500Y-46197500D01*
G75*
G02*
X84667500Y-45947500I250000J0D01*
G01*
X85342500Y-45947500D01*
G75*
G02*
X85592500Y-46197500I0J-250000D01*
G01*
G37*
%TD.AperFunction*%
%TO.P,C2,1*%
%TO.N,VCC*%
%TA.AperFunction,SMDPad,CuDef*%
G36*
G01*
X87667500Y-46197500D02*
X87667500Y-47147500D01*
G75*
G02*
X87417500Y-47397500I-250000J0D01*
G01*
X86742500Y-47397500D01*
G75*
G02*
X86492500Y-47147500I0J250000D01*
G01*
X86492500Y-46197500D01*
G75*
G02*
X86742500Y-45947500I250000J0D01*
G01*
X87417500Y-45947500D01*
G75*
G02*
X87667500Y-46197500I0J-250000D01*
G01*
G37*
%TD.AperFunction*%
%TD*%
%TO.P,R9,2*%
%TO.N,Net-(D8-Pad2)*%
%TA.AperFunction,SMDPad,CuDef*%
G36*
G01*
X90620001Y-24635000D02*
X89719999Y-24635000D01*
G75*
G02*
X89470000Y-24385001I0J249999D01*
G01*
X89470000Y-23684999D01*
G75*
G02*
X89719999Y-23435000I249999J0D01*
G01*
X90620001Y-23435000D01*
G75*
G02*
X90870000Y-23684999I0J-249999D01*
G01*
X90870000Y-24385001D01*
G75*
G02*
X90620001Y-24635000I-249999J0D01*
G01*
G37*
%TD.AperFunction*%
%TO.P,R9,1*%
%TO.N,/L7*%
%TA.AperFunction,SMDPad,CuDef*%
G36*
G01*
X90620001Y-26635000D02*
X89719999Y-26635000D01*
G75*
G02*
X89470000Y-26385001I0J249999D01*
G01*
X89470000Y-25684999D01*
G75*
G02*
X89719999Y-25435000I249999J0D01*
G01*
X90620001Y-25435000D01*
G75*
G02*
X90870000Y-25684999I0J-249999D01*
G01*
X90870000Y-26385001D01*
G75*
G02*
X90620001Y-26635000I-249999J0D01*
G01*
G37*
%TD.AperFunction*%
%TD*%
%TO.P,R8,2*%
%TO.N,Net-(D7-Pad2)*%
%TA.AperFunction,SMDPad,CuDef*%
G36*
G01*
X88080001Y-24635000D02*
X87179999Y-24635000D01*
G75*
G02*
X86930000Y-24385001I0J249999D01*
G01*
X86930000Y-23684999D01*
G75*
G02*
X87179999Y-23435000I249999J0D01*
G01*
X88080001Y-23435000D01*
G75*
G02*
X88330000Y-23684999I0J-249999D01*
G01*
X88330000Y-24385001D01*
G75*
G02*
X88080001Y-24635000I-249999J0D01*
G01*
G37*
%TD.AperFunction*%
%TO.P,R8,1*%
%TO.N,/L6*%
%TA.AperFunction,SMDPad,CuDef*%
G36*
G01*
X88080001Y-26635000D02*
X87179999Y-26635000D01*
G75*
G02*
X86930000Y-26385001I0J249999D01*
G01*
X86930000Y-25684999D01*
G75*
G02*
X87179999Y-25435000I249999J0D01*
G01*
X88080001Y-25435000D01*
G75*
G02*
X88330000Y-25684999I0J-249999D01*
G01*
X88330000Y-26385001D01*
G75*
G02*
X88080001Y-26635000I-249999J0D01*
G01*
G37*
%TD.AperFunction*%
%TD*%
%TO.P,R7,2*%
%TO.N,Net-(D6-Pad2)*%
%TA.AperFunction,SMDPad,CuDef*%
G36*
G01*
X85540001Y-24635000D02*
X84639999Y-24635000D01*
G75*
G02*
X84390000Y-24385001I0J249999D01*
G01*
X84390000Y-23684999D01*
G75*
G02*
X84639999Y-23435000I249999J0D01*
G01*
X85540001Y-23435000D01*
G75*
G02*
X85790000Y-23684999I0J-249999D01*
G01*
X85790000Y-24385001D01*
G75*
G02*
X85540001Y-24635000I-249999J0D01*
G01*
G37*
%TD.AperFunction*%
%TO.P,R7,1*%
%TO.N,/L5*%
%TA.AperFunction,SMDPad,CuDef*%
G36*
G01*
X85540001Y-26635000D02*
X84639999Y-26635000D01*
G75*
G02*
X84390000Y-26385001I0J249999D01*
G01*
X84390000Y-25684999D01*
G75*
G02*
X84639999Y-25435000I249999J0D01*
G01*
X85540001Y-25435000D01*
G75*
G02*
X85790000Y-25684999I0J-249999D01*
G01*
X85790000Y-26385001D01*
G75*
G02*
X85540001Y-26635000I-249999J0D01*
G01*
G37*
%TD.AperFunction*%
%TD*%
%TO.P,R6,2*%
%TO.N,Net-(D5-Pad2)*%
%TA.AperFunction,SMDPad,CuDef*%
G36*
G01*
X83000001Y-24635000D02*
X82099999Y-24635000D01*
G75*
G02*
X81850000Y-24385001I0J249999D01*
G01*
X81850000Y-23684999D01*
G75*
G02*
X82099999Y-23435000I249999J0D01*
G01*
X83000001Y-23435000D01*
G75*
G02*
X83250000Y-23684999I0J-249999D01*
G01*
X83250000Y-24385001D01*
G75*
G02*
X83000001Y-24635000I-249999J0D01*
G01*
G37*
%TD.AperFunction*%
%TO.P,R6,1*%
%TO.N,/L4*%
%TA.AperFunction,SMDPad,CuDef*%
G36*
G01*
X83000001Y-26635000D02*
X82099999Y-26635000D01*
G75*
G02*
X81850000Y-26385001I0J249999D01*
G01*
X81850000Y-25684999D01*
G75*
G02*
X82099999Y-25435000I249999J0D01*
G01*
X83000001Y-25435000D01*
G75*
G02*
X83250000Y-25684999I0J-249999D01*
G01*
X83250000Y-26385001D01*
G75*
G02*
X83000001Y-26635000I-249999J0D01*
G01*
G37*
%TD.AperFunction*%
%TD*%
%TO.P,R5,2*%
%TO.N,Net-(D4-Pad2)*%
%TA.AperFunction,SMDPad,CuDef*%
G36*
G01*
X80460001Y-24635000D02*
X79559999Y-24635000D01*
G75*
G02*
X79310000Y-24385001I0J249999D01*
G01*
X79310000Y-23684999D01*
G75*
G02*
X79559999Y-23435000I249999J0D01*
G01*
X80460001Y-23435000D01*
G75*
G02*
X80710000Y-23684999I0J-249999D01*
G01*
X80710000Y-24385001D01*
G75*
G02*
X80460001Y-24635000I-249999J0D01*
G01*
G37*
%TD.AperFunction*%
%TO.P,R5,1*%
%TO.N,/L3*%
%TA.AperFunction,SMDPad,CuDef*%
G36*
G01*
X80460001Y-26635000D02*
X79559999Y-26635000D01*
G75*
G02*
X79310000Y-26385001I0J249999D01*
G01*
X79310000Y-25684999D01*
G75*
G02*
X79559999Y-25435000I249999J0D01*
G01*
X80460001Y-25435000D01*
G75*
G02*
X80710000Y-25684999I0J-249999D01*
G01*
X80710000Y-26385001D01*
G75*
G02*
X80460001Y-26635000I-249999J0D01*
G01*
G37*
%TD.AperFunction*%
%TD*%
%TO.P,R4,2*%
%TO.N,Net-(D3-Pad2)*%
%TA.AperFunction,SMDPad,CuDef*%
G36*
G01*
X77920001Y-24635000D02*
X77019999Y-24635000D01*
G75*
G02*
X76770000Y-24385001I0J249999D01*
G01*
X76770000Y-23684999D01*
G75*
G02*
X77019999Y-23435000I249999J0D01*
G01*
X77920001Y-23435000D01*
G75*
G02*
X78170000Y-23684999I0J-249999D01*
G01*
X78170000Y-24385001D01*
G75*
G02*
X77920001Y-24635000I-249999J0D01*
G01*
G37*
%TD.AperFunction*%
%TO.P,R4,1*%
%TO.N,/L2*%
%TA.AperFunction,SMDPad,CuDef*%
G36*
G01*
X77920001Y-26635000D02*
X77019999Y-26635000D01*
G75*
G02*
X76770000Y-26385001I0J249999D01*
G01*
X76770000Y-25684999D01*
G75*
G02*
X77019999Y-25435000I249999J0D01*
G01*
X77920001Y-25435000D01*
G75*
G02*
X78170000Y-25684999I0J-249999D01*
G01*
X78170000Y-26385001D01*
G75*
G02*
X77920001Y-26635000I-249999J0D01*
G01*
G37*
%TD.AperFunction*%
%TD*%
%TO.P,R3,2*%
%TO.N,Net-(D2-Pad2)*%
%TA.AperFunction,SMDPad,CuDef*%
G36*
G01*
X75380001Y-24635000D02*
X74479999Y-24635000D01*
G75*
G02*
X74230000Y-24385001I0J249999D01*
G01*
X74230000Y-23684999D01*
G75*
G02*
X74479999Y-23435000I249999J0D01*
G01*
X75380001Y-23435000D01*
G75*
G02*
X75630000Y-23684999I0J-249999D01*
G01*
X75630000Y-24385001D01*
G75*
G02*
X75380001Y-24635000I-249999J0D01*
G01*
G37*
%TD.AperFunction*%
%TO.P,R3,1*%
%TO.N,/L1*%
%TA.AperFunction,SMDPad,CuDef*%
G36*
G01*
X75380001Y-26635000D02*
X74479999Y-26635000D01*
G75*
G02*
X74230000Y-26385001I0J249999D01*
G01*
X74230000Y-25684999D01*
G75*
G02*
X74479999Y-25435000I249999J0D01*
G01*
X75380001Y-25435000D01*
G75*
G02*
X75630000Y-25684999I0J-249999D01*
G01*
X75630000Y-26385001D01*
G75*
G02*
X75380001Y-26635000I-249999J0D01*
G01*
G37*
%TD.AperFunction*%
%TD*%
%TO.P,R2,2*%
%TO.N,Net-(D1-Pad2)*%
%TA.AperFunction,SMDPad,CuDef*%
G36*
G01*
X72840001Y-24635000D02*
X71939999Y-24635000D01*
G75*
G02*
X71690000Y-24385001I0J249999D01*
G01*
X71690000Y-23684999D01*
G75*
G02*
X71939999Y-23435000I249999J0D01*
G01*
X72840001Y-23435000D01*
G75*
G02*
X73090000Y-23684999I0J-249999D01*
G01*
X73090000Y-24385001D01*
G75*
G02*
X72840001Y-24635000I-249999J0D01*
G01*
G37*
%TD.AperFunction*%
%TO.P,R2,1*%
%TO.N,/L0*%
%TA.AperFunction,SMDPad,CuDef*%
G36*
G01*
X72840001Y-26635000D02*
X71939999Y-26635000D01*
G75*
G02*
X71690000Y-26385001I0J249999D01*
G01*
X71690000Y-25684999D01*
G75*
G02*
X71939999Y-25435000I249999J0D01*
G01*
X72840001Y-25435000D01*
G75*
G02*
X73090000Y-25684999I0J-249999D01*
G01*
X73090000Y-26385001D01*
G75*
G02*
X72840001Y-26635000I-249999J0D01*
G01*
G37*
%TD.AperFunction*%
%TD*%
%TO.P,R1,2*%
%TO.N,VCC*%
%TA.AperFunction,SMDPad,CuDef*%
G36*
G01*
X78340000Y-31934999D02*
X78340000Y-32835001D01*
G75*
G02*
X78090001Y-33085000I-249999J0D01*
G01*
X77389999Y-33085000D01*
G75*
G02*
X77140000Y-32835001I0J249999D01*
G01*
X77140000Y-31934999D01*
G75*
G02*
X77389999Y-31685000I249999J0D01*
G01*
X78090001Y-31685000D01*
G75*
G02*
X78340000Y-31934999I0J-249999D01*
G01*
G37*
%TD.AperFunction*%
%TO.P,R1,1*%
%TO.N,Net-(R1-Pad1)*%
%TA.AperFunction,SMDPad,CuDef*%
G36*
G01*
X80340000Y-31934999D02*
X80340000Y-32835001D01*
G75*
G02*
X80090001Y-33085000I-249999J0D01*
G01*
X79389999Y-33085000D01*
G75*
G02*
X79140000Y-32835001I0J249999D01*
G01*
X79140000Y-31934999D01*
G75*
G02*
X79389999Y-31685000I249999J0D01*
G01*
X80090001Y-31685000D01*
G75*
G02*
X80340000Y-31934999I0J-249999D01*
G01*
G37*
%TD.AperFunction*%
%TD*%
%TO.P,D8,2*%
%TO.N,Net-(D8-Pad2)*%
%TA.AperFunction,SMDPad,CuDef*%
G36*
G01*
X89719999Y-19745000D02*
X90620001Y-19745000D01*
G75*
G02*
X90870000Y-19994999I0J-249999D01*
G01*
X90870000Y-20645001D01*
G75*
G02*
X90620001Y-20895000I-249999J0D01*
G01*
X89719999Y-20895000D01*
G75*
G02*
X89470000Y-20645001I0J249999D01*
G01*
X89470000Y-19994999D01*
G75*
G02*
X89719999Y-19745000I249999J0D01*
G01*
G37*
%TD.AperFunction*%
%TO.P,D8,1*%
%TO.N,GND*%
%TA.AperFunction,SMDPad,CuDef*%
G36*
G01*
X89719999Y-17695000D02*
X90620001Y-17695000D01*
G75*
G02*
X90870000Y-17944999I0J-249999D01*
G01*
X90870000Y-18595001D01*
G75*
G02*
X90620001Y-18845000I-249999J0D01*
G01*
X89719999Y-18845000D01*
G75*
G02*
X89470000Y-18595001I0J249999D01*
G01*
X89470000Y-17944999D01*
G75*
G02*
X89719999Y-17695000I249999J0D01*
G01*
G37*
%TD.AperFunction*%
%TD*%
%TO.P,D7,2*%
%TO.N,Net-(D7-Pad2)*%
%TA.AperFunction,SMDPad,CuDef*%
G36*
G01*
X87179999Y-19745000D02*
X88080001Y-19745000D01*
G75*
G02*
X88330000Y-19994999I0J-249999D01*
G01*
X88330000Y-20645001D01*
G75*
G02*
X88080001Y-20895000I-249999J0D01*
G01*
X87179999Y-20895000D01*
G75*
G02*
X86930000Y-20645001I0J249999D01*
G01*
X86930000Y-19994999D01*
G75*
G02*
X87179999Y-19745000I249999J0D01*
G01*
G37*
%TD.AperFunction*%
%TO.P,D7,1*%
%TO.N,GND*%
%TA.AperFunction,SMDPad,CuDef*%
G36*
G01*
X87179999Y-17695000D02*
X88080001Y-17695000D01*
G75*
G02*
X88330000Y-17944999I0J-249999D01*
G01*
X88330000Y-18595001D01*
G75*
G02*
X88080001Y-18845000I-249999J0D01*
G01*
X87179999Y-18845000D01*
G75*
G02*
X86930000Y-18595001I0J249999D01*
G01*
X86930000Y-17944999D01*
G75*
G02*
X87179999Y-17695000I249999J0D01*
G01*
G37*
%TD.AperFunction*%
%TD*%
%TO.P,D6,2*%
%TO.N,Net-(D6-Pad2)*%
%TA.AperFunction,SMDPad,CuDef*%
G36*
G01*
X84639999Y-19745000D02*
X85540001Y-19745000D01*
G75*
G02*
X85790000Y-19994999I0J-249999D01*
G01*
X85790000Y-20645001D01*
G75*
G02*
X85540001Y-20895000I-249999J0D01*
G01*
X84639999Y-20895000D01*
G75*
G02*
X84390000Y-20645001I0J249999D01*
G01*
X84390000Y-19994999D01*
G75*
G02*
X84639999Y-19745000I249999J0D01*
G01*
G37*
%TD.AperFunction*%
%TO.P,D6,1*%
%TO.N,GND*%
%TA.AperFunction,SMDPad,CuDef*%
G36*
G01*
X84639999Y-17695000D02*
X85540001Y-17695000D01*
G75*
G02*
X85790000Y-17944999I0J-249999D01*
G01*
X85790000Y-18595001D01*
G75*
G02*
X85540001Y-18845000I-249999J0D01*
G01*
X84639999Y-18845000D01*
G75*
G02*
X84390000Y-18595001I0J249999D01*
G01*
X84390000Y-17944999D01*
G75*
G02*
X84639999Y-17695000I249999J0D01*
G01*
G37*
%TD.AperFunction*%
%TD*%
%TO.P,D5,2*%
%TO.N,Net-(D5-Pad2)*%
%TA.AperFunction,SMDPad,CuDef*%
G36*
G01*
X82099999Y-19745000D02*
X83000001Y-19745000D01*
G75*
G02*
X83250000Y-19994999I0J-249999D01*
G01*
X83250000Y-20645001D01*
G75*
G02*
X83000001Y-20895000I-249999J0D01*
G01*
X82099999Y-20895000D01*
G75*
G02*
X81850000Y-20645001I0J249999D01*
G01*
X81850000Y-19994999D01*
G75*
G02*
X82099999Y-19745000I249999J0D01*
G01*
G37*
%TD.AperFunction*%
%TO.P,D5,1*%
%TO.N,GND*%
%TA.AperFunction,SMDPad,CuDef*%
G36*
G01*
X82099999Y-17695000D02*
X83000001Y-17695000D01*
G75*
G02*
X83250000Y-17944999I0J-249999D01*
G01*
X83250000Y-18595001D01*
G75*
G02*
X83000001Y-18845000I-249999J0D01*
G01*
X82099999Y-18845000D01*
G75*
G02*
X81850000Y-18595001I0J249999D01*
G01*
X81850000Y-17944999D01*
G75*
G02*
X82099999Y-17695000I249999J0D01*
G01*
G37*
%TD.AperFunction*%
%TD*%
%TO.P,D4,2*%
%TO.N,Net-(D4-Pad2)*%
%TA.AperFunction,SMDPad,CuDef*%
G36*
G01*
X79559999Y-19745000D02*
X80460001Y-19745000D01*
G75*
G02*
X80710000Y-19994999I0J-249999D01*
G01*
X80710000Y-20645001D01*
G75*
G02*
X80460001Y-20895000I-249999J0D01*
G01*
X79559999Y-20895000D01*
G75*
G02*
X79310000Y-20645001I0J249999D01*
G01*
X79310000Y-19994999D01*
G75*
G02*
X79559999Y-19745000I249999J0D01*
G01*
G37*
%TD.AperFunction*%
%TO.P,D4,1*%
%TO.N,GND*%
%TA.AperFunction,SMDPad,CuDef*%
G36*
G01*
X79559999Y-17695000D02*
X80460001Y-17695000D01*
G75*
G02*
X80710000Y-17944999I0J-249999D01*
G01*
X80710000Y-18595001D01*
G75*
G02*
X80460001Y-18845000I-249999J0D01*
G01*
X79559999Y-18845000D01*
G75*
G02*
X79310000Y-18595001I0J249999D01*
G01*
X79310000Y-17944999D01*
G75*
G02*
X79559999Y-17695000I249999J0D01*
G01*
G37*
%TD.AperFunction*%
%TD*%
%TO.P,D3,2*%
%TO.N,Net-(D3-Pad2)*%
%TA.AperFunction,SMDPad,CuDef*%
G36*
G01*
X77019999Y-19745000D02*
X77920001Y-19745000D01*
G75*
G02*
X78170000Y-19994999I0J-249999D01*
G01*
X78170000Y-20645001D01*
G75*
G02*
X77920001Y-20895000I-249999J0D01*
G01*
X77019999Y-20895000D01*
G75*
G02*
X76770000Y-20645001I0J249999D01*
G01*
X76770000Y-19994999D01*
G75*
G02*
X77019999Y-19745000I249999J0D01*
G01*
G37*
%TD.AperFunction*%
%TO.P,D3,1*%
%TO.N,GND*%
%TA.AperFunction,SMDPad,CuDef*%
G36*
G01*
X77019999Y-17695000D02*
X77920001Y-17695000D01*
G75*
G02*
X78170000Y-17944999I0J-249999D01*
G01*
X78170000Y-18595001D01*
G75*
G02*
X77920001Y-18845000I-249999J0D01*
G01*
X77019999Y-18845000D01*
G75*
G02*
X76770000Y-18595001I0J249999D01*
G01*
X76770000Y-17944999D01*
G75*
G02*
X77019999Y-17695000I249999J0D01*
G01*
G37*
%TD.AperFunction*%
%TD*%
%TO.P,D2,2*%
%TO.N,Net-(D2-Pad2)*%
%TA.AperFunction,SMDPad,CuDef*%
G36*
G01*
X74479999Y-19745000D02*
X75380001Y-19745000D01*
G75*
G02*
X75630000Y-19994999I0J-249999D01*
G01*
X75630000Y-20645001D01*
G75*
G02*
X75380001Y-20895000I-249999J0D01*
G01*
X74479999Y-20895000D01*
G75*
G02*
X74230000Y-20645001I0J249999D01*
G01*
X74230000Y-19994999D01*
G75*
G02*
X74479999Y-19745000I249999J0D01*
G01*
G37*
%TD.AperFunction*%
%TO.P,D2,1*%
%TO.N,GND*%
%TA.AperFunction,SMDPad,CuDef*%
G36*
G01*
X74479999Y-17695000D02*
X75380001Y-17695000D01*
G75*
G02*
X75630000Y-17944999I0J-249999D01*
G01*
X75630000Y-18595001D01*
G75*
G02*
X75380001Y-18845000I-249999J0D01*
G01*
X74479999Y-18845000D01*
G75*
G02*
X74230000Y-18595001I0J249999D01*
G01*
X74230000Y-17944999D01*
G75*
G02*
X74479999Y-17695000I249999J0D01*
G01*
G37*
%TD.AperFunction*%
%TD*%
%TO.P,D1,2*%
%TO.N,Net-(D1-Pad2)*%
%TA.AperFunction,SMDPad,CuDef*%
G36*
G01*
X71939999Y-19745000D02*
X72840001Y-19745000D01*
G75*
G02*
X73090000Y-19994999I0J-249999D01*
G01*
X73090000Y-20645001D01*
G75*
G02*
X72840001Y-20895000I-249999J0D01*
G01*
X71939999Y-20895000D01*
G75*
G02*
X71690000Y-20645001I0J249999D01*
G01*
X71690000Y-19994999D01*
G75*
G02*
X71939999Y-19745000I249999J0D01*
G01*
G37*
%TD.AperFunction*%
%TO.P,D1,1*%
%TO.N,GND*%
%TA.AperFunction,SMDPad,CuDef*%
G36*
G01*
X71939999Y-17695000D02*
X72840001Y-17695000D01*
G75*
G02*
X73090000Y-17944999I0J-249999D01*
G01*
X73090000Y-18595001D01*
G75*
G02*
X72840001Y-18845000I-249999J0D01*
G01*
X71939999Y-18845000D01*
G75*
G02*
X71690000Y-18595001I0J249999D01*
G01*
X71690000Y-17944999D01*
G75*
G02*
X71939999Y-17695000I249999J0D01*
G01*
G37*
%TD.AperFunction*%
%TD*%
%TO.P,C1,1*%
%TO.N,VCC*%
%TA.AperFunction,SMDPad,CuDef*%
G36*
G01*
X71475000Y-46515000D02*
X71475000Y-47465000D01*
G75*
G02*
X71225000Y-47715000I-250000J0D01*
G01*
X70550000Y-47715000D01*
G75*
G02*
X70300000Y-47465000I0J250000D01*
G01*
X70300000Y-46515000D01*
G75*
G02*
X70550000Y-46265000I250000J0D01*
G01*
X71225000Y-46265000D01*
G75*
G02*
X71475000Y-46515000I0J-250000D01*
G01*
G37*
%TD.AperFunction*%
%TO.P,C1,2*%
%TO.N,GND*%
%TA.AperFunction,SMDPad,CuDef*%
G36*
G01*
X69400000Y-46515000D02*
X69400000Y-47465000D01*
G75*
G02*
X69150000Y-47715000I-250000J0D01*
G01*
X68475000Y-47715000D01*
G75*
G02*
X68225000Y-47465000I0J250000D01*
G01*
X68225000Y-46515000D01*
G75*
G02*
X68475000Y-46265000I250000J0D01*
G01*
X69150000Y-46265000D01*
G75*
G02*
X69400000Y-46515000I0J-250000D01*
G01*
G37*
%TD.AperFunction*%
%TD*%
D12*
%TO.P,J1,1*%
%TO.N,/D7*%
X71120000Y-53340000D03*
D13*
%TO.P,J1,2*%
%TO.N,/D6*%
X68580000Y-53340000D03*
%TO.P,J1,3*%
%TO.N,/D5*%
X66040000Y-53340000D03*
%TO.P,J1,4*%
%TO.N,/D4*%
X63500000Y-53340000D03*
%TO.P,J1,5*%
%TO.N,/D3*%
X60960000Y-53340000D03*
%TO.P,J1,6*%
%TO.N,/D2*%
X58420000Y-53340000D03*
%TO.P,J1,7*%
%TO.N,/D1*%
X55880000Y-53340000D03*
%TO.P,J1,8*%
%TO.N,/D0*%
X53340000Y-53340000D03*
%TD*%
%TO.P,J2,8*%
%TO.N,/Q7*%
X88900000Y-53340000D03*
%TO.P,J2,7*%
%TO.N,/Q6*%
X91440000Y-53340000D03*
%TO.P,J2,6*%
%TO.N,/Q5*%
X93980000Y-53340000D03*
%TO.P,J2,5*%
%TO.N,/Q4*%
X96520000Y-53340000D03*
%TO.P,J2,4*%
%TO.N,/Q3*%
X99060000Y-53340000D03*
%TO.P,J2,3*%
%TO.N,/Q2*%
X101600000Y-53340000D03*
%TO.P,J2,2*%
%TO.N,/Q1*%
X104140000Y-53340000D03*
D12*
%TO.P,J2,1*%
%TO.N,/Q0*%
X106680000Y-53340000D03*
%TD*%
%TO.P,J3,1*%
%TO.N,VCC*%
X81280000Y-53340000D03*
D13*
%TO.P,J3,2*%
%TO.N,GND*%
X78740000Y-53340000D03*
%TD*%
D12*
%TO.P,J4,1*%
%TO.N,/~Row*%
X119380000Y-53340000D03*
D13*
%TO.P,J4,2*%
%TO.N,/~Col*%
X116840000Y-53340000D03*
%TO.P,J4,3*%
%TO.N,/~CS*%
X114300000Y-53340000D03*
%TD*%
%TO.P,U1,1*%
%TO.N,GND*%
%TA.AperFunction,SMDPad,CuDef*%
G36*
G01*
X64300000Y-32860001D02*
X64300000Y-32560001D01*
G75*
G02*
X64450000Y-32410001I150000J0D01*
G01*
X66050000Y-32410001D01*
G75*
G02*
X66200000Y-32560001I0J-150000D01*
G01*
X66200000Y-32860001D01*
G75*
G02*
X66050000Y-33010001I-150000J0D01*
G01*
X64450000Y-33010001D01*
G75*
G02*
X64300000Y-32860001I0J150000D01*
G01*
G37*
%TD.AperFunction*%
%TO.P,U1,2*%
%TO.N,/D0*%
%TA.AperFunction,SMDPad,CuDef*%
G36*
G01*
X64300000Y-34130001D02*
X64300000Y-33830001D01*
G75*
G02*
X64450000Y-33680001I150000J0D01*
G01*
X66050000Y-33680001D01*
G75*
G02*
X66200000Y-33830001I0J-150000D01*
G01*
X66200000Y-34130001D01*
G75*
G02*
X66050000Y-34280001I-150000J0D01*
G01*
X64450000Y-34280001D01*
G75*
G02*
X64300000Y-34130001I0J150000D01*
G01*
G37*
%TD.AperFunction*%
%TO.P,U1,3*%
%TO.N,/D1*%
%TA.AperFunction,SMDPad,CuDef*%
G36*
G01*
X64300000Y-35400001D02*
X64300000Y-35100001D01*
G75*
G02*
X64450000Y-34950001I150000J0D01*
G01*
X66050000Y-34950001D01*
G75*
G02*
X66200000Y-35100001I0J-150000D01*
G01*
X66200000Y-35400001D01*
G75*
G02*
X66050000Y-35550001I-150000J0D01*
G01*
X64450000Y-35550001D01*
G75*
G02*
X64300000Y-35400001I0J150000D01*
G01*
G37*
%TD.AperFunction*%
%TO.P,U1,4*%
%TO.N,/D2*%
%TA.AperFunction,SMDPad,CuDef*%
G36*
G01*
X64300000Y-36670001D02*
X64300000Y-36370001D01*
G75*
G02*
X64450000Y-36220001I150000J0D01*
G01*
X66050000Y-36220001D01*
G75*
G02*
X66200000Y-36370001I0J-150000D01*
G01*
X66200000Y-36670001D01*
G75*
G02*
X66050000Y-36820001I-150000J0D01*
G01*
X64450000Y-36820001D01*
G75*
G02*
X64300000Y-36670001I0J150000D01*
G01*
G37*
%TD.AperFunction*%
%TO.P,U1,5*%
%TO.N,/D3*%
%TA.AperFunction,SMDPad,CuDef*%
G36*
G01*
X64300000Y-37940001D02*
X64300000Y-37640001D01*
G75*
G02*
X64450000Y-37490001I150000J0D01*
G01*
X66050000Y-37490001D01*
G75*
G02*
X66200000Y-37640001I0J-150000D01*
G01*
X66200000Y-37940001D01*
G75*
G02*
X66050000Y-38090001I-150000J0D01*
G01*
X64450000Y-38090001D01*
G75*
G02*
X64300000Y-37940001I0J150000D01*
G01*
G37*
%TD.AperFunction*%
%TO.P,U1,6*%
%TO.N,/D4*%
%TA.AperFunction,SMDPad,CuDef*%
G36*
G01*
X64300000Y-39210001D02*
X64300000Y-38910001D01*
G75*
G02*
X64450000Y-38760001I150000J0D01*
G01*
X66050000Y-38760001D01*
G75*
G02*
X66200000Y-38910001I0J-150000D01*
G01*
X66200000Y-39210001D01*
G75*
G02*
X66050000Y-39360001I-150000J0D01*
G01*
X64450000Y-39360001D01*
G75*
G02*
X64300000Y-39210001I0J150000D01*
G01*
G37*
%TD.AperFunction*%
%TO.P,U1,7*%
%TO.N,/D5*%
%TA.AperFunction,SMDPad,CuDef*%
G36*
G01*
X64300000Y-40480001D02*
X64300000Y-40180001D01*
G75*
G02*
X64450000Y-40030001I150000J0D01*
G01*
X66050000Y-40030001D01*
G75*
G02*
X66200000Y-40180001I0J-150000D01*
G01*
X66200000Y-40480001D01*
G75*
G02*
X66050000Y-40630001I-150000J0D01*
G01*
X64450000Y-40630001D01*
G75*
G02*
X64300000Y-40480001I0J150000D01*
G01*
G37*
%TD.AperFunction*%
%TO.P,U1,8*%
%TO.N,/D6*%
%TA.AperFunction,SMDPad,CuDef*%
G36*
G01*
X64300000Y-41750001D02*
X64300000Y-41450001D01*
G75*
G02*
X64450000Y-41300001I150000J0D01*
G01*
X66050000Y-41300001D01*
G75*
G02*
X66200000Y-41450001I0J-150000D01*
G01*
X66200000Y-41750001D01*
G75*
G02*
X66050000Y-41900001I-150000J0D01*
G01*
X64450000Y-41900001D01*
G75*
G02*
X64300000Y-41750001I0J150000D01*
G01*
G37*
%TD.AperFunction*%
%TO.P,U1,9*%
%TO.N,/D7*%
%TA.AperFunction,SMDPad,CuDef*%
G36*
G01*
X64300000Y-43020001D02*
X64300000Y-42720001D01*
G75*
G02*
X64450000Y-42570001I150000J0D01*
G01*
X66050000Y-42570001D01*
G75*
G02*
X66200000Y-42720001I0J-150000D01*
G01*
X66200000Y-43020001D01*
G75*
G02*
X66050000Y-43170001I-150000J0D01*
G01*
X64450000Y-43170001D01*
G75*
G02*
X64300000Y-43020001I0J150000D01*
G01*
G37*
%TD.AperFunction*%
%TO.P,U1,10*%
%TO.N,GND*%
%TA.AperFunction,SMDPad,CuDef*%
G36*
G01*
X64300000Y-44290001D02*
X64300000Y-43990001D01*
G75*
G02*
X64450000Y-43840001I150000J0D01*
G01*
X66050000Y-43840001D01*
G75*
G02*
X66200000Y-43990001I0J-150000D01*
G01*
X66200000Y-44290001D01*
G75*
G02*
X66050000Y-44440001I-150000J0D01*
G01*
X64450000Y-44440001D01*
G75*
G02*
X64300000Y-44290001I0J150000D01*
G01*
G37*
%TD.AperFunction*%
%TO.P,U1,11*%
%TO.N,Net-(U1-Pad11)*%
%TA.AperFunction,SMDPad,CuDef*%
G36*
G01*
X73500000Y-44290001D02*
X73500000Y-43990001D01*
G75*
G02*
X73650000Y-43840001I150000J0D01*
G01*
X75250000Y-43840001D01*
G75*
G02*
X75400000Y-43990001I0J-150000D01*
G01*
X75400000Y-44290001D01*
G75*
G02*
X75250000Y-44440001I-150000J0D01*
G01*
X73650000Y-44440001D01*
G75*
G02*
X73500000Y-44290001I0J150000D01*
G01*
G37*
%TD.AperFunction*%
%TO.P,U1,12*%
%TO.N,/L7*%
%TA.AperFunction,SMDPad,CuDef*%
G36*
G01*
X73500000Y-43020001D02*
X73500000Y-42720001D01*
G75*
G02*
X73650000Y-42570001I150000J0D01*
G01*
X75250000Y-42570001D01*
G75*
G02*
X75400000Y-42720001I0J-150000D01*
G01*
X75400000Y-43020001D01*
G75*
G02*
X75250000Y-43170001I-150000J0D01*
G01*
X73650000Y-43170001D01*
G75*
G02*
X73500000Y-43020001I0J150000D01*
G01*
G37*
%TD.AperFunction*%
%TO.P,U1,13*%
%TO.N,/L6*%
%TA.AperFunction,SMDPad,CuDef*%
G36*
G01*
X73500000Y-41750001D02*
X73500000Y-41450001D01*
G75*
G02*
X73650000Y-41300001I150000J0D01*
G01*
X75250000Y-41300001D01*
G75*
G02*
X75400000Y-41450001I0J-150000D01*
G01*
X75400000Y-41750001D01*
G75*
G02*
X75250000Y-41900001I-150000J0D01*
G01*
X73650000Y-41900001D01*
G75*
G02*
X73500000Y-41750001I0J150000D01*
G01*
G37*
%TD.AperFunction*%
%TO.P,U1,14*%
%TO.N,/L5*%
%TA.AperFunction,SMDPad,CuDef*%
G36*
G01*
X73500000Y-40480001D02*
X73500000Y-40180001D01*
G75*
G02*
X73650000Y-40030001I150000J0D01*
G01*
X75250000Y-40030001D01*
G75*
G02*
X75400000Y-40180001I0J-150000D01*
G01*
X75400000Y-40480001D01*
G75*
G02*
X75250000Y-40630001I-150000J0D01*
G01*
X73650000Y-40630001D01*
G75*
G02*
X73500000Y-40480001I0J150000D01*
G01*
G37*
%TD.AperFunction*%
%TO.P,U1,15*%
%TO.N,/L4*%
%TA.AperFunction,SMDPad,CuDef*%
G36*
G01*
X73500000Y-39210001D02*
X73500000Y-38910001D01*
G75*
G02*
X73650000Y-38760001I150000J0D01*
G01*
X75250000Y-38760001D01*
G75*
G02*
X75400000Y-38910001I0J-150000D01*
G01*
X75400000Y-39210001D01*
G75*
G02*
X75250000Y-39360001I-150000J0D01*
G01*
X73650000Y-39360001D01*
G75*
G02*
X73500000Y-39210001I0J150000D01*
G01*
G37*
%TD.AperFunction*%
%TO.P,U1,16*%
%TO.N,/L3*%
%TA.AperFunction,SMDPad,CuDef*%
G36*
G01*
X73500000Y-37940001D02*
X73500000Y-37640001D01*
G75*
G02*
X73650000Y-37490001I150000J0D01*
G01*
X75250000Y-37490001D01*
G75*
G02*
X75400000Y-37640001I0J-150000D01*
G01*
X75400000Y-37940001D01*
G75*
G02*
X75250000Y-38090001I-150000J0D01*
G01*
X73650000Y-38090001D01*
G75*
G02*
X73500000Y-37940001I0J150000D01*
G01*
G37*
%TD.AperFunction*%
%TO.P,U1,17*%
%TO.N,/L2*%
%TA.AperFunction,SMDPad,CuDef*%
G36*
G01*
X73500000Y-36670001D02*
X73500000Y-36370001D01*
G75*
G02*
X73650000Y-36220001I150000J0D01*
G01*
X75250000Y-36220001D01*
G75*
G02*
X75400000Y-36370001I0J-150000D01*
G01*
X75400000Y-36670001D01*
G75*
G02*
X75250000Y-36820001I-150000J0D01*
G01*
X73650000Y-36820001D01*
G75*
G02*
X73500000Y-36670001I0J150000D01*
G01*
G37*
%TD.AperFunction*%
%TO.P,U1,18*%
%TO.N,/L1*%
%TA.AperFunction,SMDPad,CuDef*%
G36*
G01*
X73500000Y-35400001D02*
X73500000Y-35100001D01*
G75*
G02*
X73650000Y-34950001I150000J0D01*
G01*
X75250000Y-34950001D01*
G75*
G02*
X75400000Y-35100001I0J-150000D01*
G01*
X75400000Y-35400001D01*
G75*
G02*
X75250000Y-35550001I-150000J0D01*
G01*
X73650000Y-35550001D01*
G75*
G02*
X73500000Y-35400001I0J150000D01*
G01*
G37*
%TD.AperFunction*%
%TO.P,U1,19*%
%TO.N,/L0*%
%TA.AperFunction,SMDPad,CuDef*%
G36*
G01*
X73500000Y-34130001D02*
X73500000Y-33830001D01*
G75*
G02*
X73650000Y-33680001I150000J0D01*
G01*
X75250000Y-33680001D01*
G75*
G02*
X75400000Y-33830001I0J-150000D01*
G01*
X75400000Y-34130001D01*
G75*
G02*
X75250000Y-34280001I-150000J0D01*
G01*
X73650000Y-34280001D01*
G75*
G02*
X73500000Y-34130001I0J150000D01*
G01*
G37*
%TD.AperFunction*%
%TO.P,U1,20*%
%TO.N,VCC*%
%TA.AperFunction,SMDPad,CuDef*%
G36*
G01*
X73500000Y-32860001D02*
X73500000Y-32560001D01*
G75*
G02*
X73650000Y-32410001I150000J0D01*
G01*
X75250000Y-32410001D01*
G75*
G02*
X75400000Y-32560001I0J-150000D01*
G01*
X75400000Y-32860001D01*
G75*
G02*
X75250000Y-33010001I-150000J0D01*
G01*
X73650000Y-33010001D01*
G75*
G02*
X73500000Y-32860001I0J150000D01*
G01*
G37*
%TD.AperFunction*%
%TD*%
%TO.P,U3,1*%
%TO.N,GND*%
%TA.AperFunction,SMDPad,CuDef*%
G36*
G01*
X111275000Y-44090000D02*
X110975000Y-44090000D01*
G75*
G02*
X110825000Y-43940000I0J150000D01*
G01*
X110825000Y-42290000D01*
G75*
G02*
X110975000Y-42140000I150000J0D01*
G01*
X111275000Y-42140000D01*
G75*
G02*
X111425000Y-42290000I0J-150000D01*
G01*
X111425000Y-43940000D01*
G75*
G02*
X111275000Y-44090000I-150000J0D01*
G01*
G37*
%TD.AperFunction*%
%TO.P,U3,2*%
%TA.AperFunction,SMDPad,CuDef*%
G36*
G01*
X112545000Y-44090000D02*
X112245000Y-44090000D01*
G75*
G02*
X112095000Y-43940000I0J150000D01*
G01*
X112095000Y-42290000D01*
G75*
G02*
X112245000Y-42140000I150000J0D01*
G01*
X112545000Y-42140000D01*
G75*
G02*
X112695000Y-42290000I0J-150000D01*
G01*
X112695000Y-43940000D01*
G75*
G02*
X112545000Y-44090000I-150000J0D01*
G01*
G37*
%TD.AperFunction*%
%TO.P,U3,3*%
%TO.N,/~CS*%
%TA.AperFunction,SMDPad,CuDef*%
G36*
G01*
X113815000Y-44090000D02*
X113515000Y-44090000D01*
G75*
G02*
X113365000Y-43940000I0J150000D01*
G01*
X113365000Y-42290000D01*
G75*
G02*
X113515000Y-42140000I150000J0D01*
G01*
X113815000Y-42140000D01*
G75*
G02*
X113965000Y-42290000I0J-150000D01*
G01*
X113965000Y-43940000D01*
G75*
G02*
X113815000Y-44090000I-150000J0D01*
G01*
G37*
%TD.AperFunction*%
%TO.P,U3,4*%
%TO.N,/~Col*%
%TA.AperFunction,SMDPad,CuDef*%
G36*
G01*
X115085000Y-44090000D02*
X114785000Y-44090000D01*
G75*
G02*
X114635000Y-43940000I0J150000D01*
G01*
X114635000Y-42290000D01*
G75*
G02*
X114785000Y-42140000I150000J0D01*
G01*
X115085000Y-42140000D01*
G75*
G02*
X115235000Y-42290000I0J-150000D01*
G01*
X115235000Y-43940000D01*
G75*
G02*
X115085000Y-44090000I-150000J0D01*
G01*
G37*
%TD.AperFunction*%
%TO.P,U3,5*%
%TO.N,/~Row*%
%TA.AperFunction,SMDPad,CuDef*%
G36*
G01*
X116355000Y-44090000D02*
X116055000Y-44090000D01*
G75*
G02*
X115905000Y-43940000I0J150000D01*
G01*
X115905000Y-42290000D01*
G75*
G02*
X116055000Y-42140000I150000J0D01*
G01*
X116355000Y-42140000D01*
G75*
G02*
X116505000Y-42290000I0J-150000D01*
G01*
X116505000Y-43940000D01*
G75*
G02*
X116355000Y-44090000I-150000J0D01*
G01*
G37*
%TD.AperFunction*%
%TO.P,U3,6*%
%TO.N,Net-(U1-Pad11)*%
%TA.AperFunction,SMDPad,CuDef*%
G36*
G01*
X117625000Y-44090000D02*
X117325000Y-44090000D01*
G75*
G02*
X117175000Y-43940000I0J150000D01*
G01*
X117175000Y-42290000D01*
G75*
G02*
X117325000Y-42140000I150000J0D01*
G01*
X117625000Y-42140000D01*
G75*
G02*
X117775000Y-42290000I0J-150000D01*
G01*
X117775000Y-43940000D01*
G75*
G02*
X117625000Y-44090000I-150000J0D01*
G01*
G37*
%TD.AperFunction*%
%TO.P,U3,7*%
%TO.N,GND*%
%TA.AperFunction,SMDPad,CuDef*%
G36*
G01*
X118895000Y-44090000D02*
X118595000Y-44090000D01*
G75*
G02*
X118445000Y-43940000I0J150000D01*
G01*
X118445000Y-42290000D01*
G75*
G02*
X118595000Y-42140000I150000J0D01*
G01*
X118895000Y-42140000D01*
G75*
G02*
X119045000Y-42290000I0J-150000D01*
G01*
X119045000Y-43940000D01*
G75*
G02*
X118895000Y-44090000I-150000J0D01*
G01*
G37*
%TD.AperFunction*%
%TO.P,U3,8*%
%TO.N,Net-(U3-Pad8)*%
%TA.AperFunction,SMDPad,CuDef*%
G36*
G01*
X118895000Y-39140000D02*
X118595000Y-39140000D01*
G75*
G02*
X118445000Y-38990000I0J150000D01*
G01*
X118445000Y-37340000D01*
G75*
G02*
X118595000Y-37190000I150000J0D01*
G01*
X118895000Y-37190000D01*
G75*
G02*
X119045000Y-37340000I0J-150000D01*
G01*
X119045000Y-38990000D01*
G75*
G02*
X118895000Y-39140000I-150000J0D01*
G01*
G37*
%TD.AperFunction*%
%TO.P,U3,9*%
%TO.N,GND*%
%TA.AperFunction,SMDPad,CuDef*%
G36*
G01*
X117625000Y-39140000D02*
X117325000Y-39140000D01*
G75*
G02*
X117175000Y-38990000I0J150000D01*
G01*
X117175000Y-37340000D01*
G75*
G02*
X117325000Y-37190000I150000J0D01*
G01*
X117625000Y-37190000D01*
G75*
G02*
X117775000Y-37340000I0J-150000D01*
G01*
X117775000Y-38990000D01*
G75*
G02*
X117625000Y-39140000I-150000J0D01*
G01*
G37*
%TD.AperFunction*%
%TO.P,U3,10*%
%TA.AperFunction,SMDPad,CuDef*%
G36*
G01*
X116355000Y-39140000D02*
X116055000Y-39140000D01*
G75*
G02*
X115905000Y-38990000I0J150000D01*
G01*
X115905000Y-37340000D01*
G75*
G02*
X116055000Y-37190000I150000J0D01*
G01*
X116355000Y-37190000D01*
G75*
G02*
X116505000Y-37340000I0J-150000D01*
G01*
X116505000Y-38990000D01*
G75*
G02*
X116355000Y-39140000I-150000J0D01*
G01*
G37*
%TD.AperFunction*%
%TO.P,U3,11*%
%TA.AperFunction,SMDPad,CuDef*%
G36*
G01*
X115085000Y-39140000D02*
X114785000Y-39140000D01*
G75*
G02*
X114635000Y-38990000I0J150000D01*
G01*
X114635000Y-37340000D01*
G75*
G02*
X114785000Y-37190000I150000J0D01*
G01*
X115085000Y-37190000D01*
G75*
G02*
X115235000Y-37340000I0J-150000D01*
G01*
X115235000Y-38990000D01*
G75*
G02*
X115085000Y-39140000I-150000J0D01*
G01*
G37*
%TD.AperFunction*%
%TO.P,U3,12*%
%TO.N,Net-(U3-Pad12)*%
%TA.AperFunction,SMDPad,CuDef*%
G36*
G01*
X113815000Y-39140000D02*
X113515000Y-39140000D01*
G75*
G02*
X113365000Y-38990000I0J150000D01*
G01*
X113365000Y-37340000D01*
G75*
G02*
X113515000Y-37190000I150000J0D01*
G01*
X113815000Y-37190000D01*
G75*
G02*
X113965000Y-37340000I0J-150000D01*
G01*
X113965000Y-38990000D01*
G75*
G02*
X113815000Y-39140000I-150000J0D01*
G01*
G37*
%TD.AperFunction*%
%TO.P,U3,13*%
%TO.N,GND*%
%TA.AperFunction,SMDPad,CuDef*%
G36*
G01*
X112545000Y-39140000D02*
X112245000Y-39140000D01*
G75*
G02*
X112095000Y-38990000I0J150000D01*
G01*
X112095000Y-37340000D01*
G75*
G02*
X112245000Y-37190000I150000J0D01*
G01*
X112545000Y-37190000D01*
G75*
G02*
X112695000Y-37340000I0J-150000D01*
G01*
X112695000Y-38990000D01*
G75*
G02*
X112545000Y-39140000I-150000J0D01*
G01*
G37*
%TD.AperFunction*%
%TO.P,U3,14*%
%TO.N,VCC*%
%TA.AperFunction,SMDPad,CuDef*%
G36*
G01*
X111275000Y-39140000D02*
X110975000Y-39140000D01*
G75*
G02*
X110825000Y-38990000I0J150000D01*
G01*
X110825000Y-37340000D01*
G75*
G02*
X110975000Y-37190000I150000J0D01*
G01*
X111275000Y-37190000D01*
G75*
G02*
X111425000Y-37340000I0J-150000D01*
G01*
X111425000Y-38990000D01*
G75*
G02*
X111275000Y-39140000I-150000J0D01*
G01*
G37*
%TD.AperFunction*%
%TD*%
%TO.P,U2,1*%
%TO.N,Net-(R1-Pad1)*%
%TA.AperFunction,SMDPad,CuDef*%
G36*
G01*
X81917500Y-32852500D02*
X81917500Y-32552500D01*
G75*
G02*
X82067500Y-32402500I150000J0D01*
G01*
X83667500Y-32402500D01*
G75*
G02*
X83817500Y-32552500I0J-150000D01*
G01*
X83817500Y-32852500D01*
G75*
G02*
X83667500Y-33002500I-150000J0D01*
G01*
X82067500Y-33002500D01*
G75*
G02*
X81917500Y-32852500I0J150000D01*
G01*
G37*
%TD.AperFunction*%
%TO.P,U2,2*%
%TO.N,/L0*%
%TA.AperFunction,SMDPad,CuDef*%
G36*
G01*
X81917500Y-34122500D02*
X81917500Y-33822500D01*
G75*
G02*
X82067500Y-33672500I150000J0D01*
G01*
X83667500Y-33672500D01*
G75*
G02*
X83817500Y-33822500I0J-150000D01*
G01*
X83817500Y-34122500D01*
G75*
G02*
X83667500Y-34272500I-150000J0D01*
G01*
X82067500Y-34272500D01*
G75*
G02*
X81917500Y-34122500I0J150000D01*
G01*
G37*
%TD.AperFunction*%
%TO.P,U2,3*%
%TO.N,/L1*%
%TA.AperFunction,SMDPad,CuDef*%
G36*
G01*
X81917500Y-35392500D02*
X81917500Y-35092500D01*
G75*
G02*
X82067500Y-34942500I150000J0D01*
G01*
X83667500Y-34942500D01*
G75*
G02*
X83817500Y-35092500I0J-150000D01*
G01*
X83817500Y-35392500D01*
G75*
G02*
X83667500Y-35542500I-150000J0D01*
G01*
X82067500Y-35542500D01*
G75*
G02*
X81917500Y-35392500I0J150000D01*
G01*
G37*
%TD.AperFunction*%
%TO.P,U2,4*%
%TO.N,/L2*%
%TA.AperFunction,SMDPad,CuDef*%
G36*
G01*
X81917500Y-36662500D02*
X81917500Y-36362500D01*
G75*
G02*
X82067500Y-36212500I150000J0D01*
G01*
X83667500Y-36212500D01*
G75*
G02*
X83817500Y-36362500I0J-150000D01*
G01*
X83817500Y-36662500D01*
G75*
G02*
X83667500Y-36812500I-150000J0D01*
G01*
X82067500Y-36812500D01*
G75*
G02*
X81917500Y-36662500I0J150000D01*
G01*
G37*
%TD.AperFunction*%
%TO.P,U2,5*%
%TO.N,/L3*%
%TA.AperFunction,SMDPad,CuDef*%
G36*
G01*
X81917500Y-37932500D02*
X81917500Y-37632500D01*
G75*
G02*
X82067500Y-37482500I150000J0D01*
G01*
X83667500Y-37482500D01*
G75*
G02*
X83817500Y-37632500I0J-150000D01*
G01*
X83817500Y-37932500D01*
G75*
G02*
X83667500Y-38082500I-150000J0D01*
G01*
X82067500Y-38082500D01*
G75*
G02*
X81917500Y-37932500I0J150000D01*
G01*
G37*
%TD.AperFunction*%
%TO.P,U2,6*%
%TO.N,/L4*%
%TA.AperFunction,SMDPad,CuDef*%
G36*
G01*
X81917500Y-39202500D02*
X81917500Y-38902500D01*
G75*
G02*
X82067500Y-38752500I150000J0D01*
G01*
X83667500Y-38752500D01*
G75*
G02*
X83817500Y-38902500I0J-150000D01*
G01*
X83817500Y-39202500D01*
G75*
G02*
X83667500Y-39352500I-150000J0D01*
G01*
X82067500Y-39352500D01*
G75*
G02*
X81917500Y-39202500I0J150000D01*
G01*
G37*
%TD.AperFunction*%
%TO.P,U2,7*%
%TO.N,/L5*%
%TA.AperFunction,SMDPad,CuDef*%
G36*
G01*
X81917500Y-40472500D02*
X81917500Y-40172500D01*
G75*
G02*
X82067500Y-40022500I150000J0D01*
G01*
X83667500Y-40022500D01*
G75*
G02*
X83817500Y-40172500I0J-150000D01*
G01*
X83817500Y-40472500D01*
G75*
G02*
X83667500Y-40622500I-150000J0D01*
G01*
X82067500Y-40622500D01*
G75*
G02*
X81917500Y-40472500I0J150000D01*
G01*
G37*
%TD.AperFunction*%
%TO.P,U2,8*%
%TO.N,/L6*%
%TA.AperFunction,SMDPad,CuDef*%
G36*
G01*
X81917500Y-41742500D02*
X81917500Y-41442500D01*
G75*
G02*
X82067500Y-41292500I150000J0D01*
G01*
X83667500Y-41292500D01*
G75*
G02*
X83817500Y-41442500I0J-150000D01*
G01*
X83817500Y-41742500D01*
G75*
G02*
X83667500Y-41892500I-150000J0D01*
G01*
X82067500Y-41892500D01*
G75*
G02*
X81917500Y-41742500I0J150000D01*
G01*
G37*
%TD.AperFunction*%
%TO.P,U2,9*%
%TO.N,/L7*%
%TA.AperFunction,SMDPad,CuDef*%
G36*
G01*
X81917500Y-43012500D02*
X81917500Y-42712500D01*
G75*
G02*
X82067500Y-42562500I150000J0D01*
G01*
X83667500Y-42562500D01*
G75*
G02*
X83817500Y-42712500I0J-150000D01*
G01*
X83817500Y-43012500D01*
G75*
G02*
X83667500Y-43162500I-150000J0D01*
G01*
X82067500Y-43162500D01*
G75*
G02*
X81917500Y-43012500I0J150000D01*
G01*
G37*
%TD.AperFunction*%
%TO.P,U2,10*%
%TO.N,GND*%
%TA.AperFunction,SMDPad,CuDef*%
G36*
G01*
X81917500Y-44282500D02*
X81917500Y-43982500D01*
G75*
G02*
X82067500Y-43832500I150000J0D01*
G01*
X83667500Y-43832500D01*
G75*
G02*
X83817500Y-43982500I0J-150000D01*
G01*
X83817500Y-44282500D01*
G75*
G02*
X83667500Y-44432500I-150000J0D01*
G01*
X82067500Y-44432500D01*
G75*
G02*
X81917500Y-44282500I0J150000D01*
G01*
G37*
%TD.AperFunction*%
%TO.P,U2,11*%
%TO.N,/Q7*%
%TA.AperFunction,SMDPad,CuDef*%
G36*
G01*
X91117500Y-44282500D02*
X91117500Y-43982500D01*
G75*
G02*
X91267500Y-43832500I150000J0D01*
G01*
X92867500Y-43832500D01*
G75*
G02*
X93017500Y-43982500I0J-150000D01*
G01*
X93017500Y-44282500D01*
G75*
G02*
X92867500Y-44432500I-150000J0D01*
G01*
X91267500Y-44432500D01*
G75*
G02*
X91117500Y-44282500I0J150000D01*
G01*
G37*
%TD.AperFunction*%
%TO.P,U2,12*%
%TO.N,/Q6*%
%TA.AperFunction,SMDPad,CuDef*%
G36*
G01*
X91117500Y-43012500D02*
X91117500Y-42712500D01*
G75*
G02*
X91267500Y-42562500I150000J0D01*
G01*
X92867500Y-42562500D01*
G75*
G02*
X93017500Y-42712500I0J-150000D01*
G01*
X93017500Y-43012500D01*
G75*
G02*
X92867500Y-43162500I-150000J0D01*
G01*
X91267500Y-43162500D01*
G75*
G02*
X91117500Y-43012500I0J150000D01*
G01*
G37*
%TD.AperFunction*%
%TO.P,U2,13*%
%TO.N,/Q5*%
%TA.AperFunction,SMDPad,CuDef*%
G36*
G01*
X91117500Y-41742500D02*
X91117500Y-41442500D01*
G75*
G02*
X91267500Y-41292500I150000J0D01*
G01*
X92867500Y-41292500D01*
G75*
G02*
X93017500Y-41442500I0J-150000D01*
G01*
X93017500Y-41742500D01*
G75*
G02*
X92867500Y-41892500I-150000J0D01*
G01*
X91267500Y-41892500D01*
G75*
G02*
X91117500Y-41742500I0J150000D01*
G01*
G37*
%TD.AperFunction*%
%TO.P,U2,14*%
%TO.N,/Q4*%
%TA.AperFunction,SMDPad,CuDef*%
G36*
G01*
X91117500Y-40472500D02*
X91117500Y-40172500D01*
G75*
G02*
X91267500Y-40022500I150000J0D01*
G01*
X92867500Y-40022500D01*
G75*
G02*
X93017500Y-40172500I0J-150000D01*
G01*
X93017500Y-40472500D01*
G75*
G02*
X92867500Y-40622500I-150000J0D01*
G01*
X91267500Y-40622500D01*
G75*
G02*
X91117500Y-40472500I0J150000D01*
G01*
G37*
%TD.AperFunction*%
%TO.P,U2,15*%
%TO.N,/Q3*%
%TA.AperFunction,SMDPad,CuDef*%
G36*
G01*
X91117500Y-39202500D02*
X91117500Y-38902500D01*
G75*
G02*
X91267500Y-38752500I150000J0D01*
G01*
X92867500Y-38752500D01*
G75*
G02*
X93017500Y-38902500I0J-150000D01*
G01*
X93017500Y-39202500D01*
G75*
G02*
X92867500Y-39352500I-150000J0D01*
G01*
X91267500Y-39352500D01*
G75*
G02*
X91117500Y-39202500I0J150000D01*
G01*
G37*
%TD.AperFunction*%
%TO.P,U2,16*%
%TO.N,/Q2*%
%TA.AperFunction,SMDPad,CuDef*%
G36*
G01*
X91117500Y-37932500D02*
X91117500Y-37632500D01*
G75*
G02*
X91267500Y-37482500I150000J0D01*
G01*
X92867500Y-37482500D01*
G75*
G02*
X93017500Y-37632500I0J-150000D01*
G01*
X93017500Y-37932500D01*
G75*
G02*
X92867500Y-38082500I-150000J0D01*
G01*
X91267500Y-38082500D01*
G75*
G02*
X91117500Y-37932500I0J150000D01*
G01*
G37*
%TD.AperFunction*%
%TO.P,U2,17*%
%TO.N,/Q1*%
%TA.AperFunction,SMDPad,CuDef*%
G36*
G01*
X91117500Y-36662500D02*
X91117500Y-36362500D01*
G75*
G02*
X91267500Y-36212500I150000J0D01*
G01*
X92867500Y-36212500D01*
G75*
G02*
X93017500Y-36362500I0J-150000D01*
G01*
X93017500Y-36662500D01*
G75*
G02*
X92867500Y-36812500I-150000J0D01*
G01*
X91267500Y-36812500D01*
G75*
G02*
X91117500Y-36662500I0J150000D01*
G01*
G37*
%TD.AperFunction*%
%TO.P,U2,18*%
%TO.N,/Q0*%
%TA.AperFunction,SMDPad,CuDef*%
G36*
G01*
X91117500Y-35392500D02*
X91117500Y-35092500D01*
G75*
G02*
X91267500Y-34942500I150000J0D01*
G01*
X92867500Y-34942500D01*
G75*
G02*
X93017500Y-35092500I0J-150000D01*
G01*
X93017500Y-35392500D01*
G75*
G02*
X92867500Y-35542500I-150000J0D01*
G01*
X91267500Y-35542500D01*
G75*
G02*
X91117500Y-35392500I0J150000D01*
G01*
G37*
%TD.AperFunction*%
%TO.P,U2,19*%
%TO.N,/~CS*%
%TA.AperFunction,SMDPad,CuDef*%
G36*
G01*
X91117500Y-34122500D02*
X91117500Y-33822500D01*
G75*
G02*
X91267500Y-33672500I150000J0D01*
G01*
X92867500Y-33672500D01*
G75*
G02*
X93017500Y-33822500I0J-150000D01*
G01*
X93017500Y-34122500D01*
G75*
G02*
X92867500Y-34272500I-150000J0D01*
G01*
X91267500Y-34272500D01*
G75*
G02*
X91117500Y-34122500I0J150000D01*
G01*
G37*
%TD.AperFunction*%
%TO.P,U2,20*%
%TO.N,VCC*%
%TA.AperFunction,SMDPad,CuDef*%
G36*
G01*
X91117500Y-32852500D02*
X91117500Y-32552500D01*
G75*
G02*
X91267500Y-32402500I150000J0D01*
G01*
X92867500Y-32402500D01*
G75*
G02*
X93017500Y-32552500I0J-150000D01*
G01*
X93017500Y-32852500D01*
G75*
G02*
X92867500Y-33002500I-150000J0D01*
G01*
X91267500Y-33002500D01*
G75*
G02*
X91117500Y-32852500I0J150000D01*
G01*
G37*
%TD.AperFunction*%
%TD*%
D14*
%TO.N,VCC*%
X78105000Y-46990000D03*
X81280000Y-46990000D03*
%TO.N,Net-(U1-Pad11)*%
X75247500Y-50482500D03*
X74612500Y-46037500D03*
%TD*%
D15*
%TO.N,*%
X83185000Y-53340000D02*
X84455000Y-53340000D01*
X83820000Y-52705000D02*
X83820000Y-53975000D01*
X76517500Y-52705000D02*
X76517500Y-53975000D01*
X75882500Y-53975000D02*
X77152500Y-53975000D01*
D16*
%TO.N,VCC*%
X71120000Y-47222500D02*
X70887500Y-46990000D01*
X70887500Y-46990000D02*
X70887500Y-33887500D01*
X111125000Y-35560000D02*
X111125000Y-38165000D01*
X72064999Y-32710001D02*
X70887500Y-33887500D01*
X74450000Y-32710001D02*
X72064999Y-32710001D01*
X108267500Y-32702500D02*
X111125000Y-35560000D01*
X92067500Y-32702500D02*
X108267500Y-32702500D01*
X77740000Y-32385000D02*
X76835000Y-32385000D01*
X76509999Y-32710001D02*
X74450000Y-32710001D01*
X76835000Y-32385000D02*
X76509999Y-32710001D01*
X72390000Y-46990000D02*
X73025000Y-47625000D01*
X70887500Y-46990000D02*
X72390000Y-46990000D01*
X73025000Y-47625000D02*
X76835000Y-47625000D01*
X76835000Y-47625000D02*
X77470000Y-46990000D01*
X77470000Y-46990000D02*
X78105000Y-46990000D01*
X78105000Y-46990000D02*
X78105000Y-46990000D01*
X81280000Y-46990000D02*
X81280000Y-46990000D01*
X81280000Y-46990000D02*
X81280000Y-48577500D01*
X81280000Y-48577500D02*
X81280000Y-50165000D01*
X81280000Y-50165000D02*
X81280000Y-53340000D01*
X90487500Y-32702500D02*
X92067500Y-32702500D01*
X90487500Y-38100000D02*
X90487500Y-32702500D01*
X87153750Y-49053750D02*
X87153750Y-41433750D01*
X87153750Y-41433750D02*
X90487500Y-38100000D01*
X86042500Y-50165000D02*
X87153750Y-49053750D01*
X81280000Y-50165000D02*
X86042500Y-50165000D01*
%TO.N,GND*%
X68812500Y-46990000D02*
X68812500Y-44682500D01*
X68270001Y-44140001D02*
X65250000Y-44140001D01*
X68812500Y-44682500D02*
X68270001Y-44140001D01*
X72390000Y-18270000D02*
X90170000Y-18270000D01*
X68254999Y-32710001D02*
X65250000Y-32710001D01*
X68254999Y-44124999D02*
X68270001Y-44140001D01*
X68254999Y-32710001D02*
X68254999Y-44124999D01*
X78740000Y-51435000D02*
X78740000Y-53340000D01*
X68812500Y-48492500D02*
X70717500Y-48492500D01*
X68812500Y-46990000D02*
X68812500Y-48492500D01*
X82867500Y-44132500D02*
X79692500Y-44132500D01*
X78740000Y-49530000D02*
X78740000Y-51435000D01*
X71120000Y-48895000D02*
X70717500Y-48492500D01*
X78740000Y-48895000D02*
X78740000Y-49530000D01*
X79692500Y-47942500D02*
X78740000Y-48895000D01*
X79692500Y-44132500D02*
X79692500Y-47942500D01*
X69850000Y-31115000D02*
X68254999Y-32710001D01*
X69850000Y-19367500D02*
X69850000Y-31115000D01*
X70947500Y-18270000D02*
X69850000Y-19367500D01*
X72390000Y-18270000D02*
X70947500Y-18270000D01*
X82867500Y-44132500D02*
X82867500Y-45720000D01*
X83820000Y-46672500D02*
X85005000Y-46672500D01*
X82867500Y-45720000D02*
X83820000Y-46672500D01*
X114935000Y-38165000D02*
X117475000Y-38165000D01*
X112395000Y-38165000D02*
X112395000Y-35877500D01*
X112395000Y-35877500D02*
X116205000Y-35877500D01*
X116205000Y-35877500D02*
X116205000Y-38165000D01*
X111125000Y-43115000D02*
X112395000Y-43115000D01*
X117475000Y-38165000D02*
X117475000Y-39687500D01*
X118745000Y-40957500D02*
X118745000Y-43115000D01*
X117475000Y-39687500D02*
X118745000Y-40957500D01*
X112395000Y-38165000D02*
X112395000Y-43115000D01*
X73660000Y-55245000D02*
X73660000Y-48895000D01*
X121219990Y-55945010D02*
X74360010Y-55945010D01*
X122237500Y-54927500D02*
X121219990Y-55945010D01*
X122237500Y-42545000D02*
X122237500Y-54927500D01*
X120650000Y-40957500D02*
X122237500Y-42545000D01*
X118745000Y-40957500D02*
X120650000Y-40957500D01*
X73660000Y-48895000D02*
X71120000Y-48895000D01*
X74360010Y-55945010D02*
X73660000Y-55245000D01*
X78740000Y-48895000D02*
X73660000Y-48895000D01*
%TO.N,/D7*%
X65250000Y-42870001D02*
X63809999Y-42870001D01*
X63809999Y-42870001D02*
X63500000Y-43180000D01*
X63500000Y-43180000D02*
X63500000Y-45720000D01*
X63500000Y-45720000D02*
X67310000Y-49530000D01*
X68580000Y-49530000D02*
X71120000Y-52070000D01*
X71120000Y-52070000D02*
X71120000Y-53340000D01*
X67310000Y-49530000D02*
X68580000Y-49530000D01*
%TO.N,/D6*%
X65250000Y-41600001D02*
X63174999Y-41600001D01*
X63174999Y-41600001D02*
X62230000Y-42545000D01*
X62230000Y-42545000D02*
X62230000Y-46355000D01*
X62230000Y-46355000D02*
X66675000Y-50800000D01*
X67310000Y-50800000D02*
X68580000Y-52070000D01*
X66675000Y-50800000D02*
X67310000Y-50800000D01*
X68580000Y-52070000D02*
X68580000Y-53340000D01*
%TO.N,/D5*%
X62539999Y-40330001D02*
X65250000Y-40330001D01*
X60960000Y-41910000D02*
X62539999Y-40330001D01*
X60960000Y-46990000D02*
X60960000Y-41910000D01*
X66040000Y-52070000D02*
X60960000Y-46990000D01*
X66040000Y-53340000D02*
X66040000Y-52070000D01*
%TO.N,/D4*%
X65250000Y-39060001D02*
X61904999Y-39060001D01*
X61904999Y-39060001D02*
X59690000Y-41275000D01*
X59690000Y-41275000D02*
X59690000Y-47625000D01*
X63500000Y-51435000D02*
X63500000Y-53340000D01*
X59690000Y-47625000D02*
X63500000Y-51435000D01*
%TO.N,/D3*%
X65250000Y-37790001D02*
X61269999Y-37790001D01*
X61269999Y-37790001D02*
X58420000Y-40640000D01*
X58420000Y-40640000D02*
X58420000Y-48260000D01*
X60960000Y-50800000D02*
X60960000Y-53340000D01*
X58420000Y-48260000D02*
X60960000Y-50800000D01*
%TO.N,/D2*%
X65250000Y-36520001D02*
X60634999Y-36520001D01*
X60634999Y-36520001D02*
X57150000Y-40005000D01*
X57150000Y-40005000D02*
X57150000Y-49530000D01*
X58420000Y-50800000D02*
X58420000Y-53340000D01*
X57150000Y-49530000D02*
X58420000Y-50800000D01*
%TO.N,/D1*%
X65250000Y-35250001D02*
X59999999Y-35250001D01*
X59999999Y-35250001D02*
X55880000Y-39370000D01*
X55880000Y-39370000D02*
X55880000Y-53340000D01*
%TO.N,/D0*%
X59364999Y-33980001D02*
X65250000Y-33980001D01*
X54610000Y-38735000D02*
X59364999Y-33980001D01*
X54610000Y-49530000D02*
X54610000Y-38735000D01*
X53340000Y-50800000D02*
X54610000Y-49530000D01*
X53340000Y-53340000D02*
X53340000Y-50800000D01*
%TO.N,/Q0*%
X106680000Y-51435000D02*
X106680000Y-53340000D01*
X92067500Y-35242500D02*
X96837500Y-35242500D01*
X106680000Y-45085000D02*
X106680000Y-51435000D01*
X96837500Y-35242500D02*
X106680000Y-45085000D01*
%TO.N,/Q1*%
X92067500Y-36512500D02*
X96202500Y-36512500D01*
X104140000Y-44450000D02*
X104140000Y-53340000D01*
X96202500Y-36512500D02*
X104140000Y-44450000D01*
%TO.N,/Q2*%
X92067500Y-37782500D02*
X95567500Y-37782500D01*
X101600000Y-43815000D02*
X101600000Y-53340000D01*
X95567500Y-37782500D02*
X101600000Y-43815000D01*
%TO.N,/Q3*%
X92067500Y-39052500D02*
X94932500Y-39052500D01*
X99060000Y-43180000D02*
X99060000Y-53340000D01*
X94932500Y-39052500D02*
X99060000Y-43180000D01*
%TO.N,/Q4*%
X92067500Y-40322500D02*
X94297500Y-40322500D01*
X96520000Y-42545000D02*
X96520000Y-53340000D01*
X94297500Y-40322500D02*
X96520000Y-42545000D01*
%TO.N,/Q5*%
X93980000Y-46990000D02*
X93980000Y-53340000D01*
X95250000Y-45720000D02*
X93980000Y-46990000D01*
X95250000Y-42545000D02*
X95250000Y-45720000D01*
X94297500Y-41592500D02*
X95250000Y-42545000D01*
X92067500Y-41592500D02*
X94297500Y-41592500D01*
%TO.N,/Q6*%
X92067500Y-42862500D02*
X93662500Y-42862500D01*
X93662500Y-42862500D02*
X93980000Y-43180000D01*
X93980000Y-43180000D02*
X93980000Y-45085000D01*
X93980000Y-45085000D02*
X93345000Y-45720000D01*
X93345000Y-45720000D02*
X92075000Y-45720000D01*
X91440000Y-46355000D02*
X91440000Y-53340000D01*
X92075000Y-45720000D02*
X91440000Y-46355000D01*
%TO.N,/Q7*%
X92067500Y-44132500D02*
X89852500Y-44132500D01*
X88900000Y-45085000D02*
X88900000Y-53340000D01*
X89852500Y-44132500D02*
X88900000Y-45085000D01*
%TO.N,Net-(U1-Pad11)*%
X74450000Y-45875000D02*
X74612500Y-46037500D01*
X74450000Y-44140001D02*
X74450000Y-45875000D01*
X121350010Y-48194990D02*
X117475000Y-44319980D01*
X117475000Y-44319980D02*
X117475000Y-43115000D01*
X121350010Y-54544990D02*
X121350010Y-48194990D01*
X120650000Y-55245000D02*
X121350010Y-54544990D01*
X75247500Y-55245000D02*
X120650000Y-55245000D01*
X75247500Y-50482500D02*
X75247500Y-55179990D01*
%TO.N,/~Row*%
X119380000Y-48895000D02*
X119380000Y-53340000D01*
X116205000Y-45720000D02*
X119380000Y-48895000D01*
X116205000Y-43115000D02*
X116205000Y-45720000D01*
%TO.N,/~Col*%
X116840000Y-49530000D02*
X116840000Y-53340000D01*
X114935000Y-47625000D02*
X116840000Y-49530000D01*
X114935000Y-43115000D02*
X114935000Y-47625000D01*
%TO.N,/~CS*%
X108585000Y-40640000D02*
X108585000Y-44450000D01*
X114300000Y-50165000D02*
X114300000Y-53340000D01*
X92067500Y-33972500D02*
X103822500Y-33972500D01*
X108585000Y-38735000D02*
X108585000Y-40640000D01*
X103822500Y-33972500D02*
X108585000Y-38735000D01*
X113665000Y-44767500D02*
X111283750Y-47148750D01*
X113665000Y-43115000D02*
X113665000Y-44767500D01*
X111283750Y-47148750D02*
X114300000Y-50165000D01*
X108585000Y-44450000D02*
X111283750Y-47148750D01*
%TO.N,Net-(D1-Pad2)*%
X72390000Y-20320000D02*
X72390000Y-24035000D01*
%TO.N,Net-(D2-Pad2)*%
X74930000Y-20320000D02*
X74930000Y-24035000D01*
%TO.N,Net-(D3-Pad2)*%
X77470000Y-20320000D02*
X77470000Y-24035000D01*
%TO.N,Net-(D4-Pad2)*%
X80010000Y-20320000D02*
X80010000Y-24035000D01*
%TO.N,Net-(D5-Pad2)*%
X82550000Y-20320000D02*
X82550000Y-24035000D01*
%TO.N,Net-(D6-Pad2)*%
X85090000Y-20320000D02*
X85090000Y-24035000D01*
%TO.N,Net-(D7-Pad2)*%
X87630000Y-20320000D02*
X87630000Y-24035000D01*
%TO.N,Net-(D8-Pad2)*%
X90170000Y-20320000D02*
X90170000Y-24035000D01*
%TO.N,Net-(R1-Pad1)*%
X79740000Y-32385000D02*
X80645000Y-32385000D01*
X80962500Y-32702500D02*
X82867500Y-32702500D01*
X80645000Y-32385000D02*
X80962500Y-32702500D01*
%TO.N,/L0*%
X82867500Y-33972500D02*
X84137500Y-33972500D01*
X84137500Y-33972500D02*
X84455000Y-33655000D01*
X82859999Y-33980001D02*
X82867500Y-33972500D01*
X74450000Y-33980001D02*
X82859999Y-33980001D01*
X72390000Y-26035000D02*
X72390000Y-28575000D01*
X72390000Y-28575000D02*
X74295000Y-30480000D01*
X84455000Y-31432500D02*
X83502500Y-30480000D01*
X74295000Y-30480000D02*
X83502500Y-30480000D01*
X84455000Y-33655000D02*
X84455000Y-31432500D01*
%TO.N,/L1*%
X84137500Y-35242500D02*
X85155010Y-34224990D01*
X82867500Y-35242500D02*
X84137500Y-35242500D01*
X82859999Y-35250001D02*
X82867500Y-35242500D01*
X74450000Y-35250001D02*
X82859999Y-35250001D01*
X74930000Y-26035000D02*
X74930000Y-28575000D01*
X74930000Y-28575000D02*
X76134990Y-29779990D01*
X84072490Y-29779990D02*
X85155010Y-30862510D01*
X85155010Y-34224990D02*
X85155010Y-30862510D01*
X76134990Y-29779990D02*
X84072490Y-29779990D01*
%TO.N,/L2*%
X82859999Y-36520001D02*
X82867500Y-36512500D01*
X74450000Y-36520001D02*
X82859999Y-36520001D01*
X85855020Y-34794980D02*
X84137500Y-36512500D01*
X85855020Y-30292520D02*
X85855020Y-34794980D01*
X84642480Y-29079980D02*
X85855020Y-30292520D01*
X78105000Y-29079980D02*
X84642480Y-29079980D01*
X77470000Y-28444980D02*
X78105000Y-29079980D01*
X84137500Y-36512500D02*
X82867500Y-36512500D01*
X77470000Y-26035000D02*
X77470000Y-28444980D01*
%TO.N,/L3*%
X82859999Y-37790001D02*
X82867500Y-37782500D01*
X74450000Y-37790001D02*
X82859999Y-37790001D01*
X84137500Y-37782500D02*
X82867500Y-37782500D01*
X86555030Y-35364970D02*
X84137500Y-37782500D01*
X86555030Y-29722530D02*
X86555030Y-35364970D01*
X85212470Y-28379970D02*
X86555030Y-29722530D01*
X80645000Y-28379970D02*
X85212470Y-28379970D01*
X80010000Y-27744970D02*
X80645000Y-28379970D01*
X80010000Y-26035000D02*
X80010000Y-27744970D01*
%TO.N,/L4*%
X82859999Y-39060001D02*
X82867500Y-39052500D01*
X74450000Y-39060001D02*
X82859999Y-39060001D01*
X84137500Y-39052500D02*
X82867500Y-39052500D01*
X87255040Y-35934960D02*
X84137500Y-39052500D01*
X83185000Y-27679960D02*
X85782460Y-27679960D01*
X87255040Y-29152540D02*
X87255040Y-35934960D01*
X85782460Y-27679960D02*
X87255040Y-29152540D01*
X82550000Y-27044960D02*
X83185000Y-27679960D01*
X82550000Y-26035000D02*
X82550000Y-27044960D01*
%TO.N,/L5*%
X82859999Y-40330001D02*
X82867500Y-40322500D01*
X74450000Y-40330001D02*
X82859999Y-40330001D01*
X84137500Y-40322500D02*
X82867500Y-40322500D01*
X87955050Y-36504950D02*
X84137500Y-40322500D01*
X87955050Y-28567450D02*
X87955050Y-36504950D01*
X87010100Y-27622500D02*
X87955050Y-28567450D01*
X86995000Y-27622500D02*
X87010100Y-27622500D01*
X86367550Y-26979950D02*
X86367550Y-26995050D01*
X85090000Y-26670000D02*
X85399950Y-26979950D01*
X86367550Y-26995050D02*
X86995000Y-27622500D01*
X85399950Y-26979950D02*
X86367550Y-26979950D01*
X85090000Y-26035000D02*
X85090000Y-26670000D01*
%TO.N,/L6*%
X88655060Y-37074940D02*
X88655060Y-31042440D01*
X84137500Y-41592500D02*
X88655060Y-37074940D01*
X82867500Y-41592500D02*
X84137500Y-41592500D01*
X82859999Y-41600001D02*
X82867500Y-41592500D01*
X74450000Y-41600001D02*
X82859999Y-41600001D01*
X87630000Y-26035000D02*
X87630000Y-26670000D01*
X88655060Y-27695060D02*
X88655060Y-31042440D01*
X87630000Y-26670000D02*
X88655060Y-27695060D01*
%TO.N,/L7*%
X82859999Y-42870001D02*
X82867500Y-42862500D01*
X74450000Y-42870001D02*
X82859999Y-42870001D01*
X90170000Y-27305000D02*
X90170000Y-26035000D01*
X89535000Y-27940000D02*
X90170000Y-27305000D01*
X89535000Y-37782500D02*
X89535000Y-27940000D01*
X84455000Y-42862500D02*
X89535000Y-37782500D01*
X82867500Y-42862500D02*
X84455000Y-42862500D01*
%TD*%
M02*
