%TF.GenerationSoftware,KiCad,Pcbnew,(5.1.8)-1*%
%TF.CreationDate,2022-11-12T22:58:33+03:00*%
%TF.ProjectId,Reg,5265672e-6b69-4636-9164-5f7063625858,rev?*%
%TF.SameCoordinates,Original*%
%TF.FileFunction,Soldermask,Top*%
%TF.FilePolarity,Negative*%
%FSLAX46Y46*%
G04 Gerber Fmt 4.6, Leading zero omitted, Abs format (unit mm)*
G04 Created by KiCad (PCBNEW (5.1.8)-1) date 2022-11-12 22:58:33*
%MOMM*%
%LPD*%
G01*
G04 APERTURE LIST*
%ADD10R,2.100000X2.200000*%
%ADD11O,2.100000X2.200000*%
G04 APERTURE END LIST*
%TO.C,C2*%
G36*
G01*
X85592500Y-46197500D02*
X85592500Y-47147500D01*
G75*
G02*
X85342500Y-47397500I-250000J0D01*
G01*
X84667500Y-47397500D01*
G75*
G02*
X84417500Y-47147500I0J250000D01*
G01*
X84417500Y-46197500D01*
G75*
G02*
X84667500Y-45947500I250000J0D01*
G01*
X85342500Y-45947500D01*
G75*
G02*
X85592500Y-46197500I0J-250000D01*
G01*
G37*
G36*
G01*
X87667500Y-46197500D02*
X87667500Y-47147500D01*
G75*
G02*
X87417500Y-47397500I-250000J0D01*
G01*
X86742500Y-47397500D01*
G75*
G02*
X86492500Y-47147500I0J250000D01*
G01*
X86492500Y-46197500D01*
G75*
G02*
X86742500Y-45947500I250000J0D01*
G01*
X87417500Y-45947500D01*
G75*
G02*
X87667500Y-46197500I0J-250000D01*
G01*
G37*
%TD*%
%TO.C,R9*%
G36*
G01*
X90620001Y-24635000D02*
X89719999Y-24635000D01*
G75*
G02*
X89470000Y-24385001I0J249999D01*
G01*
X89470000Y-23684999D01*
G75*
G02*
X89719999Y-23435000I249999J0D01*
G01*
X90620001Y-23435000D01*
G75*
G02*
X90870000Y-23684999I0J-249999D01*
G01*
X90870000Y-24385001D01*
G75*
G02*
X90620001Y-24635000I-249999J0D01*
G01*
G37*
G36*
G01*
X90620001Y-26635000D02*
X89719999Y-26635000D01*
G75*
G02*
X89470000Y-26385001I0J249999D01*
G01*
X89470000Y-25684999D01*
G75*
G02*
X89719999Y-25435000I249999J0D01*
G01*
X90620001Y-25435000D01*
G75*
G02*
X90870000Y-25684999I0J-249999D01*
G01*
X90870000Y-26385001D01*
G75*
G02*
X90620001Y-26635000I-249999J0D01*
G01*
G37*
%TD*%
%TO.C,R8*%
G36*
G01*
X88080001Y-24635000D02*
X87179999Y-24635000D01*
G75*
G02*
X86930000Y-24385001I0J249999D01*
G01*
X86930000Y-23684999D01*
G75*
G02*
X87179999Y-23435000I249999J0D01*
G01*
X88080001Y-23435000D01*
G75*
G02*
X88330000Y-23684999I0J-249999D01*
G01*
X88330000Y-24385001D01*
G75*
G02*
X88080001Y-24635000I-249999J0D01*
G01*
G37*
G36*
G01*
X88080001Y-26635000D02*
X87179999Y-26635000D01*
G75*
G02*
X86930000Y-26385001I0J249999D01*
G01*
X86930000Y-25684999D01*
G75*
G02*
X87179999Y-25435000I249999J0D01*
G01*
X88080001Y-25435000D01*
G75*
G02*
X88330000Y-25684999I0J-249999D01*
G01*
X88330000Y-26385001D01*
G75*
G02*
X88080001Y-26635000I-249999J0D01*
G01*
G37*
%TD*%
%TO.C,R7*%
G36*
G01*
X85540001Y-24635000D02*
X84639999Y-24635000D01*
G75*
G02*
X84390000Y-24385001I0J249999D01*
G01*
X84390000Y-23684999D01*
G75*
G02*
X84639999Y-23435000I249999J0D01*
G01*
X85540001Y-23435000D01*
G75*
G02*
X85790000Y-23684999I0J-249999D01*
G01*
X85790000Y-24385001D01*
G75*
G02*
X85540001Y-24635000I-249999J0D01*
G01*
G37*
G36*
G01*
X85540001Y-26635000D02*
X84639999Y-26635000D01*
G75*
G02*
X84390000Y-26385001I0J249999D01*
G01*
X84390000Y-25684999D01*
G75*
G02*
X84639999Y-25435000I249999J0D01*
G01*
X85540001Y-25435000D01*
G75*
G02*
X85790000Y-25684999I0J-249999D01*
G01*
X85790000Y-26385001D01*
G75*
G02*
X85540001Y-26635000I-249999J0D01*
G01*
G37*
%TD*%
%TO.C,R6*%
G36*
G01*
X83000001Y-24635000D02*
X82099999Y-24635000D01*
G75*
G02*
X81850000Y-24385001I0J249999D01*
G01*
X81850000Y-23684999D01*
G75*
G02*
X82099999Y-23435000I249999J0D01*
G01*
X83000001Y-23435000D01*
G75*
G02*
X83250000Y-23684999I0J-249999D01*
G01*
X83250000Y-24385001D01*
G75*
G02*
X83000001Y-24635000I-249999J0D01*
G01*
G37*
G36*
G01*
X83000001Y-26635000D02*
X82099999Y-26635000D01*
G75*
G02*
X81850000Y-26385001I0J249999D01*
G01*
X81850000Y-25684999D01*
G75*
G02*
X82099999Y-25435000I249999J0D01*
G01*
X83000001Y-25435000D01*
G75*
G02*
X83250000Y-25684999I0J-249999D01*
G01*
X83250000Y-26385001D01*
G75*
G02*
X83000001Y-26635000I-249999J0D01*
G01*
G37*
%TD*%
%TO.C,R5*%
G36*
G01*
X80460001Y-24635000D02*
X79559999Y-24635000D01*
G75*
G02*
X79310000Y-24385001I0J249999D01*
G01*
X79310000Y-23684999D01*
G75*
G02*
X79559999Y-23435000I249999J0D01*
G01*
X80460001Y-23435000D01*
G75*
G02*
X80710000Y-23684999I0J-249999D01*
G01*
X80710000Y-24385001D01*
G75*
G02*
X80460001Y-24635000I-249999J0D01*
G01*
G37*
G36*
G01*
X80460001Y-26635000D02*
X79559999Y-26635000D01*
G75*
G02*
X79310000Y-26385001I0J249999D01*
G01*
X79310000Y-25684999D01*
G75*
G02*
X79559999Y-25435000I249999J0D01*
G01*
X80460001Y-25435000D01*
G75*
G02*
X80710000Y-25684999I0J-249999D01*
G01*
X80710000Y-26385001D01*
G75*
G02*
X80460001Y-26635000I-249999J0D01*
G01*
G37*
%TD*%
%TO.C,R4*%
G36*
G01*
X77920001Y-24635000D02*
X77019999Y-24635000D01*
G75*
G02*
X76770000Y-24385001I0J249999D01*
G01*
X76770000Y-23684999D01*
G75*
G02*
X77019999Y-23435000I249999J0D01*
G01*
X77920001Y-23435000D01*
G75*
G02*
X78170000Y-23684999I0J-249999D01*
G01*
X78170000Y-24385001D01*
G75*
G02*
X77920001Y-24635000I-249999J0D01*
G01*
G37*
G36*
G01*
X77920001Y-26635000D02*
X77019999Y-26635000D01*
G75*
G02*
X76770000Y-26385001I0J249999D01*
G01*
X76770000Y-25684999D01*
G75*
G02*
X77019999Y-25435000I249999J0D01*
G01*
X77920001Y-25435000D01*
G75*
G02*
X78170000Y-25684999I0J-249999D01*
G01*
X78170000Y-26385001D01*
G75*
G02*
X77920001Y-26635000I-249999J0D01*
G01*
G37*
%TD*%
%TO.C,R3*%
G36*
G01*
X75380001Y-24635000D02*
X74479999Y-24635000D01*
G75*
G02*
X74230000Y-24385001I0J249999D01*
G01*
X74230000Y-23684999D01*
G75*
G02*
X74479999Y-23435000I249999J0D01*
G01*
X75380001Y-23435000D01*
G75*
G02*
X75630000Y-23684999I0J-249999D01*
G01*
X75630000Y-24385001D01*
G75*
G02*
X75380001Y-24635000I-249999J0D01*
G01*
G37*
G36*
G01*
X75380001Y-26635000D02*
X74479999Y-26635000D01*
G75*
G02*
X74230000Y-26385001I0J249999D01*
G01*
X74230000Y-25684999D01*
G75*
G02*
X74479999Y-25435000I249999J0D01*
G01*
X75380001Y-25435000D01*
G75*
G02*
X75630000Y-25684999I0J-249999D01*
G01*
X75630000Y-26385001D01*
G75*
G02*
X75380001Y-26635000I-249999J0D01*
G01*
G37*
%TD*%
%TO.C,R2*%
G36*
G01*
X72840001Y-24635000D02*
X71939999Y-24635000D01*
G75*
G02*
X71690000Y-24385001I0J249999D01*
G01*
X71690000Y-23684999D01*
G75*
G02*
X71939999Y-23435000I249999J0D01*
G01*
X72840001Y-23435000D01*
G75*
G02*
X73090000Y-23684999I0J-249999D01*
G01*
X73090000Y-24385001D01*
G75*
G02*
X72840001Y-24635000I-249999J0D01*
G01*
G37*
G36*
G01*
X72840001Y-26635000D02*
X71939999Y-26635000D01*
G75*
G02*
X71690000Y-26385001I0J249999D01*
G01*
X71690000Y-25684999D01*
G75*
G02*
X71939999Y-25435000I249999J0D01*
G01*
X72840001Y-25435000D01*
G75*
G02*
X73090000Y-25684999I0J-249999D01*
G01*
X73090000Y-26385001D01*
G75*
G02*
X72840001Y-26635000I-249999J0D01*
G01*
G37*
%TD*%
%TO.C,R1*%
G36*
G01*
X78340000Y-31934999D02*
X78340000Y-32835001D01*
G75*
G02*
X78090001Y-33085000I-249999J0D01*
G01*
X77389999Y-33085000D01*
G75*
G02*
X77140000Y-32835001I0J249999D01*
G01*
X77140000Y-31934999D01*
G75*
G02*
X77389999Y-31685000I249999J0D01*
G01*
X78090001Y-31685000D01*
G75*
G02*
X78340000Y-31934999I0J-249999D01*
G01*
G37*
G36*
G01*
X80340000Y-31934999D02*
X80340000Y-32835001D01*
G75*
G02*
X80090001Y-33085000I-249999J0D01*
G01*
X79389999Y-33085000D01*
G75*
G02*
X79140000Y-32835001I0J249999D01*
G01*
X79140000Y-31934999D01*
G75*
G02*
X79389999Y-31685000I249999J0D01*
G01*
X80090001Y-31685000D01*
G75*
G02*
X80340000Y-31934999I0J-249999D01*
G01*
G37*
%TD*%
%TO.C,D8*%
G36*
G01*
X89719999Y-19745000D02*
X90620001Y-19745000D01*
G75*
G02*
X90870000Y-19994999I0J-249999D01*
G01*
X90870000Y-20645001D01*
G75*
G02*
X90620001Y-20895000I-249999J0D01*
G01*
X89719999Y-20895000D01*
G75*
G02*
X89470000Y-20645001I0J249999D01*
G01*
X89470000Y-19994999D01*
G75*
G02*
X89719999Y-19745000I249999J0D01*
G01*
G37*
G36*
G01*
X89719999Y-17695000D02*
X90620001Y-17695000D01*
G75*
G02*
X90870000Y-17944999I0J-249999D01*
G01*
X90870000Y-18595001D01*
G75*
G02*
X90620001Y-18845000I-249999J0D01*
G01*
X89719999Y-18845000D01*
G75*
G02*
X89470000Y-18595001I0J249999D01*
G01*
X89470000Y-17944999D01*
G75*
G02*
X89719999Y-17695000I249999J0D01*
G01*
G37*
%TD*%
%TO.C,D7*%
G36*
G01*
X87179999Y-19745000D02*
X88080001Y-19745000D01*
G75*
G02*
X88330000Y-19994999I0J-249999D01*
G01*
X88330000Y-20645001D01*
G75*
G02*
X88080001Y-20895000I-249999J0D01*
G01*
X87179999Y-20895000D01*
G75*
G02*
X86930000Y-20645001I0J249999D01*
G01*
X86930000Y-19994999D01*
G75*
G02*
X87179999Y-19745000I249999J0D01*
G01*
G37*
G36*
G01*
X87179999Y-17695000D02*
X88080001Y-17695000D01*
G75*
G02*
X88330000Y-17944999I0J-249999D01*
G01*
X88330000Y-18595001D01*
G75*
G02*
X88080001Y-18845000I-249999J0D01*
G01*
X87179999Y-18845000D01*
G75*
G02*
X86930000Y-18595001I0J249999D01*
G01*
X86930000Y-17944999D01*
G75*
G02*
X87179999Y-17695000I249999J0D01*
G01*
G37*
%TD*%
%TO.C,D6*%
G36*
G01*
X84639999Y-19745000D02*
X85540001Y-19745000D01*
G75*
G02*
X85790000Y-19994999I0J-249999D01*
G01*
X85790000Y-20645001D01*
G75*
G02*
X85540001Y-20895000I-249999J0D01*
G01*
X84639999Y-20895000D01*
G75*
G02*
X84390000Y-20645001I0J249999D01*
G01*
X84390000Y-19994999D01*
G75*
G02*
X84639999Y-19745000I249999J0D01*
G01*
G37*
G36*
G01*
X84639999Y-17695000D02*
X85540001Y-17695000D01*
G75*
G02*
X85790000Y-17944999I0J-249999D01*
G01*
X85790000Y-18595001D01*
G75*
G02*
X85540001Y-18845000I-249999J0D01*
G01*
X84639999Y-18845000D01*
G75*
G02*
X84390000Y-18595001I0J249999D01*
G01*
X84390000Y-17944999D01*
G75*
G02*
X84639999Y-17695000I249999J0D01*
G01*
G37*
%TD*%
%TO.C,D5*%
G36*
G01*
X82099999Y-19745000D02*
X83000001Y-19745000D01*
G75*
G02*
X83250000Y-19994999I0J-249999D01*
G01*
X83250000Y-20645001D01*
G75*
G02*
X83000001Y-20895000I-249999J0D01*
G01*
X82099999Y-20895000D01*
G75*
G02*
X81850000Y-20645001I0J249999D01*
G01*
X81850000Y-19994999D01*
G75*
G02*
X82099999Y-19745000I249999J0D01*
G01*
G37*
G36*
G01*
X82099999Y-17695000D02*
X83000001Y-17695000D01*
G75*
G02*
X83250000Y-17944999I0J-249999D01*
G01*
X83250000Y-18595001D01*
G75*
G02*
X83000001Y-18845000I-249999J0D01*
G01*
X82099999Y-18845000D01*
G75*
G02*
X81850000Y-18595001I0J249999D01*
G01*
X81850000Y-17944999D01*
G75*
G02*
X82099999Y-17695000I249999J0D01*
G01*
G37*
%TD*%
%TO.C,D4*%
G36*
G01*
X79559999Y-19745000D02*
X80460001Y-19745000D01*
G75*
G02*
X80710000Y-19994999I0J-249999D01*
G01*
X80710000Y-20645001D01*
G75*
G02*
X80460001Y-20895000I-249999J0D01*
G01*
X79559999Y-20895000D01*
G75*
G02*
X79310000Y-20645001I0J249999D01*
G01*
X79310000Y-19994999D01*
G75*
G02*
X79559999Y-19745000I249999J0D01*
G01*
G37*
G36*
G01*
X79559999Y-17695000D02*
X80460001Y-17695000D01*
G75*
G02*
X80710000Y-17944999I0J-249999D01*
G01*
X80710000Y-18595001D01*
G75*
G02*
X80460001Y-18845000I-249999J0D01*
G01*
X79559999Y-18845000D01*
G75*
G02*
X79310000Y-18595001I0J249999D01*
G01*
X79310000Y-17944999D01*
G75*
G02*
X79559999Y-17695000I249999J0D01*
G01*
G37*
%TD*%
%TO.C,D3*%
G36*
G01*
X77019999Y-19745000D02*
X77920001Y-19745000D01*
G75*
G02*
X78170000Y-19994999I0J-249999D01*
G01*
X78170000Y-20645001D01*
G75*
G02*
X77920001Y-20895000I-249999J0D01*
G01*
X77019999Y-20895000D01*
G75*
G02*
X76770000Y-20645001I0J249999D01*
G01*
X76770000Y-19994999D01*
G75*
G02*
X77019999Y-19745000I249999J0D01*
G01*
G37*
G36*
G01*
X77019999Y-17695000D02*
X77920001Y-17695000D01*
G75*
G02*
X78170000Y-17944999I0J-249999D01*
G01*
X78170000Y-18595001D01*
G75*
G02*
X77920001Y-18845000I-249999J0D01*
G01*
X77019999Y-18845000D01*
G75*
G02*
X76770000Y-18595001I0J249999D01*
G01*
X76770000Y-17944999D01*
G75*
G02*
X77019999Y-17695000I249999J0D01*
G01*
G37*
%TD*%
%TO.C,D2*%
G36*
G01*
X74479999Y-19745000D02*
X75380001Y-19745000D01*
G75*
G02*
X75630000Y-19994999I0J-249999D01*
G01*
X75630000Y-20645001D01*
G75*
G02*
X75380001Y-20895000I-249999J0D01*
G01*
X74479999Y-20895000D01*
G75*
G02*
X74230000Y-20645001I0J249999D01*
G01*
X74230000Y-19994999D01*
G75*
G02*
X74479999Y-19745000I249999J0D01*
G01*
G37*
G36*
G01*
X74479999Y-17695000D02*
X75380001Y-17695000D01*
G75*
G02*
X75630000Y-17944999I0J-249999D01*
G01*
X75630000Y-18595001D01*
G75*
G02*
X75380001Y-18845000I-249999J0D01*
G01*
X74479999Y-18845000D01*
G75*
G02*
X74230000Y-18595001I0J249999D01*
G01*
X74230000Y-17944999D01*
G75*
G02*
X74479999Y-17695000I249999J0D01*
G01*
G37*
%TD*%
%TO.C,D1*%
G36*
G01*
X71939999Y-19745000D02*
X72840001Y-19745000D01*
G75*
G02*
X73090000Y-19994999I0J-249999D01*
G01*
X73090000Y-20645001D01*
G75*
G02*
X72840001Y-20895000I-249999J0D01*
G01*
X71939999Y-20895000D01*
G75*
G02*
X71690000Y-20645001I0J249999D01*
G01*
X71690000Y-19994999D01*
G75*
G02*
X71939999Y-19745000I249999J0D01*
G01*
G37*
G36*
G01*
X71939999Y-17695000D02*
X72840001Y-17695000D01*
G75*
G02*
X73090000Y-17944999I0J-249999D01*
G01*
X73090000Y-18595001D01*
G75*
G02*
X72840001Y-18845000I-249999J0D01*
G01*
X71939999Y-18845000D01*
G75*
G02*
X71690000Y-18595001I0J249999D01*
G01*
X71690000Y-17944999D01*
G75*
G02*
X71939999Y-17695000I249999J0D01*
G01*
G37*
%TD*%
%TO.C,C1*%
G36*
G01*
X71475000Y-46515000D02*
X71475000Y-47465000D01*
G75*
G02*
X71225000Y-47715000I-250000J0D01*
G01*
X70550000Y-47715000D01*
G75*
G02*
X70300000Y-47465000I0J250000D01*
G01*
X70300000Y-46515000D01*
G75*
G02*
X70550000Y-46265000I250000J0D01*
G01*
X71225000Y-46265000D01*
G75*
G02*
X71475000Y-46515000I0J-250000D01*
G01*
G37*
G36*
G01*
X69400000Y-46515000D02*
X69400000Y-47465000D01*
G75*
G02*
X69150000Y-47715000I-250000J0D01*
G01*
X68475000Y-47715000D01*
G75*
G02*
X68225000Y-47465000I0J250000D01*
G01*
X68225000Y-46515000D01*
G75*
G02*
X68475000Y-46265000I250000J0D01*
G01*
X69150000Y-46265000D01*
G75*
G02*
X69400000Y-46515000I0J-250000D01*
G01*
G37*
%TD*%
D10*
%TO.C,J1*%
X71120000Y-53340000D03*
D11*
X68580000Y-53340000D03*
X66040000Y-53340000D03*
X63500000Y-53340000D03*
X60960000Y-53340000D03*
X58420000Y-53340000D03*
X55880000Y-53340000D03*
X53340000Y-53340000D03*
%TD*%
%TO.C,J2*%
X88900000Y-53340000D03*
X91440000Y-53340000D03*
X93980000Y-53340000D03*
X96520000Y-53340000D03*
X99060000Y-53340000D03*
X101600000Y-53340000D03*
X104140000Y-53340000D03*
D10*
X106680000Y-53340000D03*
%TD*%
%TO.C,J3*%
X81280000Y-53340000D03*
D11*
X78740000Y-53340000D03*
%TD*%
D10*
%TO.C,J4*%
X119380000Y-53340000D03*
D11*
X116840000Y-53340000D03*
X114300000Y-53340000D03*
%TD*%
%TO.C,U1*%
G36*
G01*
X64300000Y-32860001D02*
X64300000Y-32560001D01*
G75*
G02*
X64450000Y-32410001I150000J0D01*
G01*
X66050000Y-32410001D01*
G75*
G02*
X66200000Y-32560001I0J-150000D01*
G01*
X66200000Y-32860001D01*
G75*
G02*
X66050000Y-33010001I-150000J0D01*
G01*
X64450000Y-33010001D01*
G75*
G02*
X64300000Y-32860001I0J150000D01*
G01*
G37*
G36*
G01*
X64300000Y-34130001D02*
X64300000Y-33830001D01*
G75*
G02*
X64450000Y-33680001I150000J0D01*
G01*
X66050000Y-33680001D01*
G75*
G02*
X66200000Y-33830001I0J-150000D01*
G01*
X66200000Y-34130001D01*
G75*
G02*
X66050000Y-34280001I-150000J0D01*
G01*
X64450000Y-34280001D01*
G75*
G02*
X64300000Y-34130001I0J150000D01*
G01*
G37*
G36*
G01*
X64300000Y-35400001D02*
X64300000Y-35100001D01*
G75*
G02*
X64450000Y-34950001I150000J0D01*
G01*
X66050000Y-34950001D01*
G75*
G02*
X66200000Y-35100001I0J-150000D01*
G01*
X66200000Y-35400001D01*
G75*
G02*
X66050000Y-35550001I-150000J0D01*
G01*
X64450000Y-35550001D01*
G75*
G02*
X64300000Y-35400001I0J150000D01*
G01*
G37*
G36*
G01*
X64300000Y-36670001D02*
X64300000Y-36370001D01*
G75*
G02*
X64450000Y-36220001I150000J0D01*
G01*
X66050000Y-36220001D01*
G75*
G02*
X66200000Y-36370001I0J-150000D01*
G01*
X66200000Y-36670001D01*
G75*
G02*
X66050000Y-36820001I-150000J0D01*
G01*
X64450000Y-36820001D01*
G75*
G02*
X64300000Y-36670001I0J150000D01*
G01*
G37*
G36*
G01*
X64300000Y-37940001D02*
X64300000Y-37640001D01*
G75*
G02*
X64450000Y-37490001I150000J0D01*
G01*
X66050000Y-37490001D01*
G75*
G02*
X66200000Y-37640001I0J-150000D01*
G01*
X66200000Y-37940001D01*
G75*
G02*
X66050000Y-38090001I-150000J0D01*
G01*
X64450000Y-38090001D01*
G75*
G02*
X64300000Y-37940001I0J150000D01*
G01*
G37*
G36*
G01*
X64300000Y-39210001D02*
X64300000Y-38910001D01*
G75*
G02*
X64450000Y-38760001I150000J0D01*
G01*
X66050000Y-38760001D01*
G75*
G02*
X66200000Y-38910001I0J-150000D01*
G01*
X66200000Y-39210001D01*
G75*
G02*
X66050000Y-39360001I-150000J0D01*
G01*
X64450000Y-39360001D01*
G75*
G02*
X64300000Y-39210001I0J150000D01*
G01*
G37*
G36*
G01*
X64300000Y-40480001D02*
X64300000Y-40180001D01*
G75*
G02*
X64450000Y-40030001I150000J0D01*
G01*
X66050000Y-40030001D01*
G75*
G02*
X66200000Y-40180001I0J-150000D01*
G01*
X66200000Y-40480001D01*
G75*
G02*
X66050000Y-40630001I-150000J0D01*
G01*
X64450000Y-40630001D01*
G75*
G02*
X64300000Y-40480001I0J150000D01*
G01*
G37*
G36*
G01*
X64300000Y-41750001D02*
X64300000Y-41450001D01*
G75*
G02*
X64450000Y-41300001I150000J0D01*
G01*
X66050000Y-41300001D01*
G75*
G02*
X66200000Y-41450001I0J-150000D01*
G01*
X66200000Y-41750001D01*
G75*
G02*
X66050000Y-41900001I-150000J0D01*
G01*
X64450000Y-41900001D01*
G75*
G02*
X64300000Y-41750001I0J150000D01*
G01*
G37*
G36*
G01*
X64300000Y-43020001D02*
X64300000Y-42720001D01*
G75*
G02*
X64450000Y-42570001I150000J0D01*
G01*
X66050000Y-42570001D01*
G75*
G02*
X66200000Y-42720001I0J-150000D01*
G01*
X66200000Y-43020001D01*
G75*
G02*
X66050000Y-43170001I-150000J0D01*
G01*
X64450000Y-43170001D01*
G75*
G02*
X64300000Y-43020001I0J150000D01*
G01*
G37*
G36*
G01*
X64300000Y-44290001D02*
X64300000Y-43990001D01*
G75*
G02*
X64450000Y-43840001I150000J0D01*
G01*
X66050000Y-43840001D01*
G75*
G02*
X66200000Y-43990001I0J-150000D01*
G01*
X66200000Y-44290001D01*
G75*
G02*
X66050000Y-44440001I-150000J0D01*
G01*
X64450000Y-44440001D01*
G75*
G02*
X64300000Y-44290001I0J150000D01*
G01*
G37*
G36*
G01*
X73500000Y-44290001D02*
X73500000Y-43990001D01*
G75*
G02*
X73650000Y-43840001I150000J0D01*
G01*
X75250000Y-43840001D01*
G75*
G02*
X75400000Y-43990001I0J-150000D01*
G01*
X75400000Y-44290001D01*
G75*
G02*
X75250000Y-44440001I-150000J0D01*
G01*
X73650000Y-44440001D01*
G75*
G02*
X73500000Y-44290001I0J150000D01*
G01*
G37*
G36*
G01*
X73500000Y-43020001D02*
X73500000Y-42720001D01*
G75*
G02*
X73650000Y-42570001I150000J0D01*
G01*
X75250000Y-42570001D01*
G75*
G02*
X75400000Y-42720001I0J-150000D01*
G01*
X75400000Y-43020001D01*
G75*
G02*
X75250000Y-43170001I-150000J0D01*
G01*
X73650000Y-43170001D01*
G75*
G02*
X73500000Y-43020001I0J150000D01*
G01*
G37*
G36*
G01*
X73500000Y-41750001D02*
X73500000Y-41450001D01*
G75*
G02*
X73650000Y-41300001I150000J0D01*
G01*
X75250000Y-41300001D01*
G75*
G02*
X75400000Y-41450001I0J-150000D01*
G01*
X75400000Y-41750001D01*
G75*
G02*
X75250000Y-41900001I-150000J0D01*
G01*
X73650000Y-41900001D01*
G75*
G02*
X73500000Y-41750001I0J150000D01*
G01*
G37*
G36*
G01*
X73500000Y-40480001D02*
X73500000Y-40180001D01*
G75*
G02*
X73650000Y-40030001I150000J0D01*
G01*
X75250000Y-40030001D01*
G75*
G02*
X75400000Y-40180001I0J-150000D01*
G01*
X75400000Y-40480001D01*
G75*
G02*
X75250000Y-40630001I-150000J0D01*
G01*
X73650000Y-40630001D01*
G75*
G02*
X73500000Y-40480001I0J150000D01*
G01*
G37*
G36*
G01*
X73500000Y-39210001D02*
X73500000Y-38910001D01*
G75*
G02*
X73650000Y-38760001I150000J0D01*
G01*
X75250000Y-38760001D01*
G75*
G02*
X75400000Y-38910001I0J-150000D01*
G01*
X75400000Y-39210001D01*
G75*
G02*
X75250000Y-39360001I-150000J0D01*
G01*
X73650000Y-39360001D01*
G75*
G02*
X73500000Y-39210001I0J150000D01*
G01*
G37*
G36*
G01*
X73500000Y-37940001D02*
X73500000Y-37640001D01*
G75*
G02*
X73650000Y-37490001I150000J0D01*
G01*
X75250000Y-37490001D01*
G75*
G02*
X75400000Y-37640001I0J-150000D01*
G01*
X75400000Y-37940001D01*
G75*
G02*
X75250000Y-38090001I-150000J0D01*
G01*
X73650000Y-38090001D01*
G75*
G02*
X73500000Y-37940001I0J150000D01*
G01*
G37*
G36*
G01*
X73500000Y-36670001D02*
X73500000Y-36370001D01*
G75*
G02*
X73650000Y-36220001I150000J0D01*
G01*
X75250000Y-36220001D01*
G75*
G02*
X75400000Y-36370001I0J-150000D01*
G01*
X75400000Y-36670001D01*
G75*
G02*
X75250000Y-36820001I-150000J0D01*
G01*
X73650000Y-36820001D01*
G75*
G02*
X73500000Y-36670001I0J150000D01*
G01*
G37*
G36*
G01*
X73500000Y-35400001D02*
X73500000Y-35100001D01*
G75*
G02*
X73650000Y-34950001I150000J0D01*
G01*
X75250000Y-34950001D01*
G75*
G02*
X75400000Y-35100001I0J-150000D01*
G01*
X75400000Y-35400001D01*
G75*
G02*
X75250000Y-35550001I-150000J0D01*
G01*
X73650000Y-35550001D01*
G75*
G02*
X73500000Y-35400001I0J150000D01*
G01*
G37*
G36*
G01*
X73500000Y-34130001D02*
X73500000Y-33830001D01*
G75*
G02*
X73650000Y-33680001I150000J0D01*
G01*
X75250000Y-33680001D01*
G75*
G02*
X75400000Y-33830001I0J-150000D01*
G01*
X75400000Y-34130001D01*
G75*
G02*
X75250000Y-34280001I-150000J0D01*
G01*
X73650000Y-34280001D01*
G75*
G02*
X73500000Y-34130001I0J150000D01*
G01*
G37*
G36*
G01*
X73500000Y-32860001D02*
X73500000Y-32560001D01*
G75*
G02*
X73650000Y-32410001I150000J0D01*
G01*
X75250000Y-32410001D01*
G75*
G02*
X75400000Y-32560001I0J-150000D01*
G01*
X75400000Y-32860001D01*
G75*
G02*
X75250000Y-33010001I-150000J0D01*
G01*
X73650000Y-33010001D01*
G75*
G02*
X73500000Y-32860001I0J150000D01*
G01*
G37*
%TD*%
%TO.C,U3*%
G36*
G01*
X111275000Y-44090000D02*
X110975000Y-44090000D01*
G75*
G02*
X110825000Y-43940000I0J150000D01*
G01*
X110825000Y-42290000D01*
G75*
G02*
X110975000Y-42140000I150000J0D01*
G01*
X111275000Y-42140000D01*
G75*
G02*
X111425000Y-42290000I0J-150000D01*
G01*
X111425000Y-43940000D01*
G75*
G02*
X111275000Y-44090000I-150000J0D01*
G01*
G37*
G36*
G01*
X112545000Y-44090000D02*
X112245000Y-44090000D01*
G75*
G02*
X112095000Y-43940000I0J150000D01*
G01*
X112095000Y-42290000D01*
G75*
G02*
X112245000Y-42140000I150000J0D01*
G01*
X112545000Y-42140000D01*
G75*
G02*
X112695000Y-42290000I0J-150000D01*
G01*
X112695000Y-43940000D01*
G75*
G02*
X112545000Y-44090000I-150000J0D01*
G01*
G37*
G36*
G01*
X113815000Y-44090000D02*
X113515000Y-44090000D01*
G75*
G02*
X113365000Y-43940000I0J150000D01*
G01*
X113365000Y-42290000D01*
G75*
G02*
X113515000Y-42140000I150000J0D01*
G01*
X113815000Y-42140000D01*
G75*
G02*
X113965000Y-42290000I0J-150000D01*
G01*
X113965000Y-43940000D01*
G75*
G02*
X113815000Y-44090000I-150000J0D01*
G01*
G37*
G36*
G01*
X115085000Y-44090000D02*
X114785000Y-44090000D01*
G75*
G02*
X114635000Y-43940000I0J150000D01*
G01*
X114635000Y-42290000D01*
G75*
G02*
X114785000Y-42140000I150000J0D01*
G01*
X115085000Y-42140000D01*
G75*
G02*
X115235000Y-42290000I0J-150000D01*
G01*
X115235000Y-43940000D01*
G75*
G02*
X115085000Y-44090000I-150000J0D01*
G01*
G37*
G36*
G01*
X116355000Y-44090000D02*
X116055000Y-44090000D01*
G75*
G02*
X115905000Y-43940000I0J150000D01*
G01*
X115905000Y-42290000D01*
G75*
G02*
X116055000Y-42140000I150000J0D01*
G01*
X116355000Y-42140000D01*
G75*
G02*
X116505000Y-42290000I0J-150000D01*
G01*
X116505000Y-43940000D01*
G75*
G02*
X116355000Y-44090000I-150000J0D01*
G01*
G37*
G36*
G01*
X117625000Y-44090000D02*
X117325000Y-44090000D01*
G75*
G02*
X117175000Y-43940000I0J150000D01*
G01*
X117175000Y-42290000D01*
G75*
G02*
X117325000Y-42140000I150000J0D01*
G01*
X117625000Y-42140000D01*
G75*
G02*
X117775000Y-42290000I0J-150000D01*
G01*
X117775000Y-43940000D01*
G75*
G02*
X117625000Y-44090000I-150000J0D01*
G01*
G37*
G36*
G01*
X118895000Y-44090000D02*
X118595000Y-44090000D01*
G75*
G02*
X118445000Y-43940000I0J150000D01*
G01*
X118445000Y-42290000D01*
G75*
G02*
X118595000Y-42140000I150000J0D01*
G01*
X118895000Y-42140000D01*
G75*
G02*
X119045000Y-42290000I0J-150000D01*
G01*
X119045000Y-43940000D01*
G75*
G02*
X118895000Y-44090000I-150000J0D01*
G01*
G37*
G36*
G01*
X118895000Y-39140000D02*
X118595000Y-39140000D01*
G75*
G02*
X118445000Y-38990000I0J150000D01*
G01*
X118445000Y-37340000D01*
G75*
G02*
X118595000Y-37190000I150000J0D01*
G01*
X118895000Y-37190000D01*
G75*
G02*
X119045000Y-37340000I0J-150000D01*
G01*
X119045000Y-38990000D01*
G75*
G02*
X118895000Y-39140000I-150000J0D01*
G01*
G37*
G36*
G01*
X117625000Y-39140000D02*
X117325000Y-39140000D01*
G75*
G02*
X117175000Y-38990000I0J150000D01*
G01*
X117175000Y-37340000D01*
G75*
G02*
X117325000Y-37190000I150000J0D01*
G01*
X117625000Y-37190000D01*
G75*
G02*
X117775000Y-37340000I0J-150000D01*
G01*
X117775000Y-38990000D01*
G75*
G02*
X117625000Y-39140000I-150000J0D01*
G01*
G37*
G36*
G01*
X116355000Y-39140000D02*
X116055000Y-39140000D01*
G75*
G02*
X115905000Y-38990000I0J150000D01*
G01*
X115905000Y-37340000D01*
G75*
G02*
X116055000Y-37190000I150000J0D01*
G01*
X116355000Y-37190000D01*
G75*
G02*
X116505000Y-37340000I0J-150000D01*
G01*
X116505000Y-38990000D01*
G75*
G02*
X116355000Y-39140000I-150000J0D01*
G01*
G37*
G36*
G01*
X115085000Y-39140000D02*
X114785000Y-39140000D01*
G75*
G02*
X114635000Y-38990000I0J150000D01*
G01*
X114635000Y-37340000D01*
G75*
G02*
X114785000Y-37190000I150000J0D01*
G01*
X115085000Y-37190000D01*
G75*
G02*
X115235000Y-37340000I0J-150000D01*
G01*
X115235000Y-38990000D01*
G75*
G02*
X115085000Y-39140000I-150000J0D01*
G01*
G37*
G36*
G01*
X113815000Y-39140000D02*
X113515000Y-39140000D01*
G75*
G02*
X113365000Y-38990000I0J150000D01*
G01*
X113365000Y-37340000D01*
G75*
G02*
X113515000Y-37190000I150000J0D01*
G01*
X113815000Y-37190000D01*
G75*
G02*
X113965000Y-37340000I0J-150000D01*
G01*
X113965000Y-38990000D01*
G75*
G02*
X113815000Y-39140000I-150000J0D01*
G01*
G37*
G36*
G01*
X112545000Y-39140000D02*
X112245000Y-39140000D01*
G75*
G02*
X112095000Y-38990000I0J150000D01*
G01*
X112095000Y-37340000D01*
G75*
G02*
X112245000Y-37190000I150000J0D01*
G01*
X112545000Y-37190000D01*
G75*
G02*
X112695000Y-37340000I0J-150000D01*
G01*
X112695000Y-38990000D01*
G75*
G02*
X112545000Y-39140000I-150000J0D01*
G01*
G37*
G36*
G01*
X111275000Y-39140000D02*
X110975000Y-39140000D01*
G75*
G02*
X110825000Y-38990000I0J150000D01*
G01*
X110825000Y-37340000D01*
G75*
G02*
X110975000Y-37190000I150000J0D01*
G01*
X111275000Y-37190000D01*
G75*
G02*
X111425000Y-37340000I0J-150000D01*
G01*
X111425000Y-38990000D01*
G75*
G02*
X111275000Y-39140000I-150000J0D01*
G01*
G37*
%TD*%
%TO.C,U2*%
G36*
G01*
X81917500Y-32852500D02*
X81917500Y-32552500D01*
G75*
G02*
X82067500Y-32402500I150000J0D01*
G01*
X83667500Y-32402500D01*
G75*
G02*
X83817500Y-32552500I0J-150000D01*
G01*
X83817500Y-32852500D01*
G75*
G02*
X83667500Y-33002500I-150000J0D01*
G01*
X82067500Y-33002500D01*
G75*
G02*
X81917500Y-32852500I0J150000D01*
G01*
G37*
G36*
G01*
X81917500Y-34122500D02*
X81917500Y-33822500D01*
G75*
G02*
X82067500Y-33672500I150000J0D01*
G01*
X83667500Y-33672500D01*
G75*
G02*
X83817500Y-33822500I0J-150000D01*
G01*
X83817500Y-34122500D01*
G75*
G02*
X83667500Y-34272500I-150000J0D01*
G01*
X82067500Y-34272500D01*
G75*
G02*
X81917500Y-34122500I0J150000D01*
G01*
G37*
G36*
G01*
X81917500Y-35392500D02*
X81917500Y-35092500D01*
G75*
G02*
X82067500Y-34942500I150000J0D01*
G01*
X83667500Y-34942500D01*
G75*
G02*
X83817500Y-35092500I0J-150000D01*
G01*
X83817500Y-35392500D01*
G75*
G02*
X83667500Y-35542500I-150000J0D01*
G01*
X82067500Y-35542500D01*
G75*
G02*
X81917500Y-35392500I0J150000D01*
G01*
G37*
G36*
G01*
X81917500Y-36662500D02*
X81917500Y-36362500D01*
G75*
G02*
X82067500Y-36212500I150000J0D01*
G01*
X83667500Y-36212500D01*
G75*
G02*
X83817500Y-36362500I0J-150000D01*
G01*
X83817500Y-36662500D01*
G75*
G02*
X83667500Y-36812500I-150000J0D01*
G01*
X82067500Y-36812500D01*
G75*
G02*
X81917500Y-36662500I0J150000D01*
G01*
G37*
G36*
G01*
X81917500Y-37932500D02*
X81917500Y-37632500D01*
G75*
G02*
X82067500Y-37482500I150000J0D01*
G01*
X83667500Y-37482500D01*
G75*
G02*
X83817500Y-37632500I0J-150000D01*
G01*
X83817500Y-37932500D01*
G75*
G02*
X83667500Y-38082500I-150000J0D01*
G01*
X82067500Y-38082500D01*
G75*
G02*
X81917500Y-37932500I0J150000D01*
G01*
G37*
G36*
G01*
X81917500Y-39202500D02*
X81917500Y-38902500D01*
G75*
G02*
X82067500Y-38752500I150000J0D01*
G01*
X83667500Y-38752500D01*
G75*
G02*
X83817500Y-38902500I0J-150000D01*
G01*
X83817500Y-39202500D01*
G75*
G02*
X83667500Y-39352500I-150000J0D01*
G01*
X82067500Y-39352500D01*
G75*
G02*
X81917500Y-39202500I0J150000D01*
G01*
G37*
G36*
G01*
X81917500Y-40472500D02*
X81917500Y-40172500D01*
G75*
G02*
X82067500Y-40022500I150000J0D01*
G01*
X83667500Y-40022500D01*
G75*
G02*
X83817500Y-40172500I0J-150000D01*
G01*
X83817500Y-40472500D01*
G75*
G02*
X83667500Y-40622500I-150000J0D01*
G01*
X82067500Y-40622500D01*
G75*
G02*
X81917500Y-40472500I0J150000D01*
G01*
G37*
G36*
G01*
X81917500Y-41742500D02*
X81917500Y-41442500D01*
G75*
G02*
X82067500Y-41292500I150000J0D01*
G01*
X83667500Y-41292500D01*
G75*
G02*
X83817500Y-41442500I0J-150000D01*
G01*
X83817500Y-41742500D01*
G75*
G02*
X83667500Y-41892500I-150000J0D01*
G01*
X82067500Y-41892500D01*
G75*
G02*
X81917500Y-41742500I0J150000D01*
G01*
G37*
G36*
G01*
X81917500Y-43012500D02*
X81917500Y-42712500D01*
G75*
G02*
X82067500Y-42562500I150000J0D01*
G01*
X83667500Y-42562500D01*
G75*
G02*
X83817500Y-42712500I0J-150000D01*
G01*
X83817500Y-43012500D01*
G75*
G02*
X83667500Y-43162500I-150000J0D01*
G01*
X82067500Y-43162500D01*
G75*
G02*
X81917500Y-43012500I0J150000D01*
G01*
G37*
G36*
G01*
X81917500Y-44282500D02*
X81917500Y-43982500D01*
G75*
G02*
X82067500Y-43832500I150000J0D01*
G01*
X83667500Y-43832500D01*
G75*
G02*
X83817500Y-43982500I0J-150000D01*
G01*
X83817500Y-44282500D01*
G75*
G02*
X83667500Y-44432500I-150000J0D01*
G01*
X82067500Y-44432500D01*
G75*
G02*
X81917500Y-44282500I0J150000D01*
G01*
G37*
G36*
G01*
X91117500Y-44282500D02*
X91117500Y-43982500D01*
G75*
G02*
X91267500Y-43832500I150000J0D01*
G01*
X92867500Y-43832500D01*
G75*
G02*
X93017500Y-43982500I0J-150000D01*
G01*
X93017500Y-44282500D01*
G75*
G02*
X92867500Y-44432500I-150000J0D01*
G01*
X91267500Y-44432500D01*
G75*
G02*
X91117500Y-44282500I0J150000D01*
G01*
G37*
G36*
G01*
X91117500Y-43012500D02*
X91117500Y-42712500D01*
G75*
G02*
X91267500Y-42562500I150000J0D01*
G01*
X92867500Y-42562500D01*
G75*
G02*
X93017500Y-42712500I0J-150000D01*
G01*
X93017500Y-43012500D01*
G75*
G02*
X92867500Y-43162500I-150000J0D01*
G01*
X91267500Y-43162500D01*
G75*
G02*
X91117500Y-43012500I0J150000D01*
G01*
G37*
G36*
G01*
X91117500Y-41742500D02*
X91117500Y-41442500D01*
G75*
G02*
X91267500Y-41292500I150000J0D01*
G01*
X92867500Y-41292500D01*
G75*
G02*
X93017500Y-41442500I0J-150000D01*
G01*
X93017500Y-41742500D01*
G75*
G02*
X92867500Y-41892500I-150000J0D01*
G01*
X91267500Y-41892500D01*
G75*
G02*
X91117500Y-41742500I0J150000D01*
G01*
G37*
G36*
G01*
X91117500Y-40472500D02*
X91117500Y-40172500D01*
G75*
G02*
X91267500Y-40022500I150000J0D01*
G01*
X92867500Y-40022500D01*
G75*
G02*
X93017500Y-40172500I0J-150000D01*
G01*
X93017500Y-40472500D01*
G75*
G02*
X92867500Y-40622500I-150000J0D01*
G01*
X91267500Y-40622500D01*
G75*
G02*
X91117500Y-40472500I0J150000D01*
G01*
G37*
G36*
G01*
X91117500Y-39202500D02*
X91117500Y-38902500D01*
G75*
G02*
X91267500Y-38752500I150000J0D01*
G01*
X92867500Y-38752500D01*
G75*
G02*
X93017500Y-38902500I0J-150000D01*
G01*
X93017500Y-39202500D01*
G75*
G02*
X92867500Y-39352500I-150000J0D01*
G01*
X91267500Y-39352500D01*
G75*
G02*
X91117500Y-39202500I0J150000D01*
G01*
G37*
G36*
G01*
X91117500Y-37932500D02*
X91117500Y-37632500D01*
G75*
G02*
X91267500Y-37482500I150000J0D01*
G01*
X92867500Y-37482500D01*
G75*
G02*
X93017500Y-37632500I0J-150000D01*
G01*
X93017500Y-37932500D01*
G75*
G02*
X92867500Y-38082500I-150000J0D01*
G01*
X91267500Y-38082500D01*
G75*
G02*
X91117500Y-37932500I0J150000D01*
G01*
G37*
G36*
G01*
X91117500Y-36662500D02*
X91117500Y-36362500D01*
G75*
G02*
X91267500Y-36212500I150000J0D01*
G01*
X92867500Y-36212500D01*
G75*
G02*
X93017500Y-36362500I0J-150000D01*
G01*
X93017500Y-36662500D01*
G75*
G02*
X92867500Y-36812500I-150000J0D01*
G01*
X91267500Y-36812500D01*
G75*
G02*
X91117500Y-36662500I0J150000D01*
G01*
G37*
G36*
G01*
X91117500Y-35392500D02*
X91117500Y-35092500D01*
G75*
G02*
X91267500Y-34942500I150000J0D01*
G01*
X92867500Y-34942500D01*
G75*
G02*
X93017500Y-35092500I0J-150000D01*
G01*
X93017500Y-35392500D01*
G75*
G02*
X92867500Y-35542500I-150000J0D01*
G01*
X91267500Y-35542500D01*
G75*
G02*
X91117500Y-35392500I0J150000D01*
G01*
G37*
G36*
G01*
X91117500Y-34122500D02*
X91117500Y-33822500D01*
G75*
G02*
X91267500Y-33672500I150000J0D01*
G01*
X92867500Y-33672500D01*
G75*
G02*
X93017500Y-33822500I0J-150000D01*
G01*
X93017500Y-34122500D01*
G75*
G02*
X92867500Y-34272500I-150000J0D01*
G01*
X91267500Y-34272500D01*
G75*
G02*
X91117500Y-34122500I0J150000D01*
G01*
G37*
G36*
G01*
X91117500Y-32852500D02*
X91117500Y-32552500D01*
G75*
G02*
X91267500Y-32402500I150000J0D01*
G01*
X92867500Y-32402500D01*
G75*
G02*
X93017500Y-32552500I0J-150000D01*
G01*
X93017500Y-32852500D01*
G75*
G02*
X92867500Y-33002500I-150000J0D01*
G01*
X91267500Y-33002500D01*
G75*
G02*
X91117500Y-32852500I0J150000D01*
G01*
G37*
%TD*%
M02*
