M48
INCH,TZ
T1C0.0197
T2C0.0315
T3C0.0394
T4C0.0512
T5C0.1260
%
G90
G05
T1
X28000Y-42500
X28575Y-43325
X29368Y-43368
X31000Y-43000
X36136Y-44875
X36250Y-43750
X36750Y-42000
X37190Y-20605
X37500Y-43900
X37623Y-17127
X39407Y-43218
X40610Y-37973
X41521Y-20146
X42250Y-45500
X43106Y-41896
X43484Y-38944
X50500Y-53250
X51000Y-29750
X51000Y-31250
X51250Y-36931
X51250Y-39000
X57545Y-49748
X58000Y-26552
T2
X38500Y-23000
X38500Y-24000
X38500Y-25000
X38500Y-26000
X38500Y-27000
X38500Y-28000
X38500Y-29000
X38500Y-30000
X41500Y-23000
X41500Y-24000
X41500Y-25000
X41500Y-26000
X41500Y-27000
X41500Y-28000
X41500Y-29000
X41500Y-30000
X26000Y-35000
X26000Y-40906
X24500Y-23000
X24500Y-24000
X24500Y-25000
X24500Y-26000
X24500Y-27000
X24500Y-28000
X24500Y-29000
X24500Y-30000
X27500Y-23000
X27500Y-24000
X27500Y-25000
X27500Y-26000
X27500Y-27000
X27500Y-28000
X27500Y-29000
X27500Y-30000
X40000Y-23500
X40000Y-29406
X54000Y-30750
X54000Y-36656
X26000Y-23500
X26000Y-29406
X31500Y-34500
X31500Y-35500
X31500Y-36500
X31500Y-37500
X31500Y-38500
X31500Y-39500
X31500Y-40500
X31500Y-41500
X34500Y-34500
X34500Y-35500
X34500Y-36500
X34500Y-37500
X34500Y-38500
X34500Y-39500
X34500Y-40500
X34500Y-41500
X47000Y-35000
X47000Y-40906
X45500Y-23000
X45500Y-24000
X45500Y-25000
X45500Y-26000
X45500Y-27000
X45500Y-28000
X45500Y-29000
X45500Y-30000
X48500Y-23000
X48500Y-24000
X48500Y-25000
X48500Y-26000
X48500Y-27000
X48500Y-28000
X48500Y-29000
X48500Y-30000
X33000Y-35000
X33000Y-40906
X31500Y-23000
X31500Y-24000
X31500Y-25000
X31500Y-26000
X31500Y-27000
X31500Y-28000
X31500Y-29000
X31500Y-30000
X34500Y-23000
X34500Y-24000
X34500Y-25000
X34500Y-26000
X34500Y-27000
X34500Y-28000
X34500Y-29000
X34500Y-30000
X47000Y-23250
X47000Y-29156
X33000Y-23500
X33000Y-29406
X38500Y-34500
X38500Y-35500
X38500Y-36500
X38500Y-37500
X38500Y-38500
X38500Y-39500
X38500Y-40500
X38500Y-41500
X41500Y-34500
X41500Y-35500
X41500Y-36500
X41500Y-37500
X41500Y-38500
X41500Y-39500
X41500Y-40500
X41500Y-41500
X52500Y-28000
X52500Y-29000
X52500Y-30000
X52500Y-31000
X52500Y-32000
X52500Y-33000
X52500Y-34000
X52500Y-35000
X52500Y-36000
X52500Y-37000
X55500Y-28000
X55500Y-29000
X55500Y-30000
X55500Y-31000
X55500Y-32000
X55500Y-33000
X55500Y-34000
X55500Y-35000
X55500Y-36000
X55500Y-37000
X45500Y-34500
X45500Y-35500
X45500Y-36500
X45500Y-37500
X45500Y-38500
X45500Y-39500
X45500Y-40500
X45500Y-41500
X48500Y-34500
X48500Y-35500
X48500Y-36500
X48500Y-37500
X48500Y-38500
X48500Y-39500
X48500Y-40500
X48500Y-41500
X24500Y-34500
X24500Y-35500
X24500Y-36500
X24500Y-37500
X24500Y-38500
X24500Y-39500
X24500Y-40500
X24500Y-41500
X27500Y-34500
X27500Y-35500
X27500Y-36500
X27500Y-37500
X27500Y-38500
X27500Y-39500
X27500Y-40500
X27500Y-41500
X40000Y-35000
X40000Y-40906
T3
X59500Y-41000
X46000Y-19000
X47000Y-19000
X48000Y-19000
X49000Y-19000
X50000Y-19000
X51000Y-19000
X52000Y-19000
X53000Y-19000
X54000Y-19000
X29000Y-19000
X30000Y-19000
X31000Y-19000
X32000Y-19000
X33000Y-19000
X34000Y-19000
X35000Y-19000
X36000Y-19000
X37000Y-19000
X46000Y-47500
X47000Y-47500
X48000Y-47500
X49000Y-47500
X50000Y-47500
X51000Y-47500
X52000Y-47500
X53000Y-47500
X54000Y-47500
X59500Y-28000
X29000Y-46000
X30000Y-46000
X31000Y-46000
X32000Y-46000
X33000Y-46000
X34000Y-46000
X35000Y-46000
X36000Y-46000
X37000Y-46000
X59500Y-30000
X59500Y-31000
X59500Y-32000
X59500Y-33000
X59500Y-34000
X59500Y-35000
X59500Y-36000
X59500Y-37000
X59500Y-38000
X29000Y-16500
X30000Y-16500
X31000Y-16500
X32000Y-16500
X33000Y-16500
X34000Y-16500
X35000Y-16500
X36000Y-16500
X37000Y-16500
X46000Y-52500
X47000Y-52500
X48000Y-52500
X49000Y-52500
X50000Y-52500
X51000Y-52500
X52000Y-52500
X53000Y-52500
X54000Y-52500
X29000Y-51000
X30000Y-51000
X31000Y-51000
X32000Y-51000
X33000Y-51000
X34000Y-51000
X35000Y-51000
X36000Y-51000
X37000Y-51000
X59500Y-43000
X59500Y-44000
X59500Y-45000
X29000Y-52500
X30000Y-52500
X31000Y-52500
X32000Y-52500
X33000Y-52500
X34000Y-52500
X35000Y-52500
X36000Y-52500
X37000Y-52500
X46000Y-46016
X47000Y-46016
X48000Y-46016
X49000Y-46016
X50000Y-46016
X51000Y-46016
X52000Y-46016
X53000Y-46016
X54000Y-46016
X46000Y-16500
X47000Y-16500
X48000Y-16500
X49000Y-16500
X50000Y-16500
X51000Y-16500
X52000Y-16500
X53000Y-16500
X54000Y-16500
X58000Y-30000
X58000Y-31000
X58000Y-32000
X58000Y-33000
X58000Y-34000
X58000Y-35000
X58000Y-36000
X58000Y-37000
X58000Y-38000
X29000Y-47500
X30000Y-47500
X31000Y-47500
X32000Y-47500
X33000Y-47500
X34000Y-47500
X35000Y-47500
X36000Y-47500
X37000Y-47500
X46000Y-51000
X47000Y-51000
X48000Y-51000
X49000Y-51000
X50000Y-51000
X51000Y-51000
X52000Y-51000
X53000Y-51000
X54000Y-51000
T4
X58000Y-21531
X58000Y-23500
T5
X59000Y-17000
X24000Y-17000
X59000Y-52000
X24000Y-52000
T0
M30
