G04 #@! TF.GenerationSoftware,KiCad,Pcbnew,(5.1.8)-1*
G04 #@! TF.CreationDate,2023-07-12T22:57:59+03:00*
G04 #@! TF.ProjectId,RAM,52414d2e-6b69-4636-9164-5f7063625858,rev?*
G04 #@! TF.SameCoordinates,PX9b0780PY9b0780*
G04 #@! TF.FileFunction,Soldermask,Bot*
G04 #@! TF.FilePolarity,Negative*
%FSLAX46Y46*%
G04 Gerber Fmt 4.6, Leading zero omitted, Abs format (unit mm)*
G04 Created by KiCad (PCBNEW (5.1.8)-1) date 2023-07-12 22:57:59*
%MOMM*%
%LPD*%
G01*
G04 APERTURE LIST*
%ADD10C,2.000000*%
%ADD11O,2.000000X2.000000*%
%ADD12R,2.000000X2.000000*%
%ADD13O,1.500000X2.000000*%
%ADD14R,1.500000X2.000000*%
%ADD15C,1.800000*%
%ADD16R,1.800000X1.800000*%
%ADD17C,3.200000*%
%ADD18O,1.500000X1.800000*%
%ADD19R,1.500000X1.800000*%
%ADD20O,2.000000X1.500000*%
%ADD21R,2.000000X1.500000*%
G04 APERTURE END LIST*
D10*
X53340000Y-33815000D03*
X53340000Y-43815000D03*
X3175000Y-70325000D03*
X3175000Y-60325000D03*
D11*
X78105000Y-40640000D03*
X78105000Y-38100000D03*
X78105000Y-35560000D03*
X78105000Y-33020000D03*
D12*
X78105000Y-30480000D03*
D11*
X8255000Y-49530000D03*
X10795000Y-49530000D03*
X13335000Y-49530000D03*
D13*
X15875000Y-49530000D03*
X18415000Y-49530000D03*
X20955000Y-49530000D03*
X23495000Y-49530000D03*
D14*
X26035000Y-49530000D03*
D11*
X47625000Y-83820000D03*
X50165000Y-83820000D03*
X52705000Y-83820000D03*
X55245000Y-83820000D03*
X57785000Y-83820000D03*
X60325000Y-83820000D03*
X62865000Y-83820000D03*
D12*
X65405000Y-83820000D03*
D11*
X12065000Y-83820000D03*
X14605000Y-83820000D03*
X17145000Y-83820000D03*
X19685000Y-83820000D03*
X22225000Y-83820000D03*
X24765000Y-83820000D03*
X27305000Y-83820000D03*
D12*
X29845000Y-83820000D03*
D15*
X62865000Y-45720000D03*
D16*
X62865000Y-43180000D03*
D15*
X62865000Y-36830000D03*
D16*
X62865000Y-34290000D03*
D15*
X62865000Y-27940000D03*
D16*
X62865000Y-25400000D03*
D17*
X80645000Y-81915000D03*
X80645000Y-3810000D03*
X3810000Y-81915000D03*
X3810000Y-3810000D03*
D13*
X48895000Y-21590000D03*
X15875000Y-6350000D03*
X46355000Y-21590000D03*
X18415000Y-6350000D03*
X43815000Y-21590000D03*
X20955000Y-6350000D03*
X41275000Y-21590000D03*
X23495000Y-6350000D03*
X38735000Y-21590000D03*
X26035000Y-6350000D03*
X36195000Y-21590000D03*
X28575000Y-6350000D03*
X33655000Y-21590000D03*
X31115000Y-6350000D03*
X31115000Y-21590000D03*
X33655000Y-6350000D03*
X28575000Y-21590000D03*
X36195000Y-6350000D03*
X26035000Y-21590000D03*
X38735000Y-6350000D03*
X23495000Y-21590000D03*
X41275000Y-6350000D03*
X20955000Y-21590000D03*
X43815000Y-6350000D03*
X18415000Y-21590000D03*
X46355000Y-6350000D03*
X15875000Y-21590000D03*
D14*
X48895000Y-6350000D03*
D18*
X73025000Y-17780000D03*
X57785000Y-10160000D03*
X70485000Y-17780000D03*
X60325000Y-10160000D03*
X67945000Y-17780000D03*
X62865000Y-10160000D03*
X65405000Y-17780000D03*
X65405000Y-10160000D03*
X62865000Y-17780000D03*
X67945000Y-10160000D03*
X60325000Y-17780000D03*
X70485000Y-10160000D03*
X57785000Y-17780000D03*
D19*
X73025000Y-10160000D03*
D10*
X82390000Y-48895000D03*
X72390000Y-48895000D03*
D11*
X76835000Y-74930000D03*
D20*
X76835000Y-72390000D03*
X76835000Y-69850000D03*
D11*
X76835000Y-67310000D03*
X76835000Y-64770000D03*
X76835000Y-62230000D03*
X76835000Y-59690000D03*
D12*
X76835000Y-57150000D03*
D21*
X8255000Y-57150000D03*
D20*
X15875000Y-74930000D03*
X8255000Y-59690000D03*
X15875000Y-72390000D03*
X8255000Y-62230000D03*
X15875000Y-69850000D03*
X8255000Y-64770000D03*
X15875000Y-67310000D03*
X8255000Y-67310000D03*
X15875000Y-64770000D03*
X8255000Y-69850000D03*
X15875000Y-62230000D03*
X8255000Y-72390000D03*
X15875000Y-59690000D03*
X8255000Y-74930000D03*
X15875000Y-57150000D03*
D14*
X48895000Y-29210000D03*
D13*
X15875000Y-44450000D03*
X46355000Y-29210000D03*
X18415000Y-44450000D03*
X43815000Y-29210000D03*
X20955000Y-44450000D03*
X41275000Y-29210000D03*
X23495000Y-44450000D03*
X38735000Y-29210000D03*
X26035000Y-44450000D03*
X36195000Y-29210000D03*
X28575000Y-44450000D03*
X33655000Y-29210000D03*
X31115000Y-44450000D03*
X31115000Y-29210000D03*
X33655000Y-44450000D03*
X28575000Y-29210000D03*
X36195000Y-44450000D03*
X26035000Y-29210000D03*
X38735000Y-44450000D03*
X23495000Y-29210000D03*
X41275000Y-44450000D03*
X20955000Y-29210000D03*
X43815000Y-44450000D03*
X18415000Y-29210000D03*
X46355000Y-44450000D03*
X15875000Y-29210000D03*
X48895000Y-44450000D03*
D20*
X34925000Y-57150000D03*
X27305000Y-74930000D03*
X34925000Y-59690000D03*
X27305000Y-72390000D03*
X34925000Y-62230000D03*
X27305000Y-69850000D03*
X34925000Y-64770000D03*
X27305000Y-67310000D03*
X34925000Y-67310000D03*
X27305000Y-64770000D03*
X34925000Y-69850000D03*
X27305000Y-62230000D03*
X34925000Y-72390000D03*
X27305000Y-59690000D03*
X34925000Y-74930000D03*
D21*
X27305000Y-57150000D03*
X43815000Y-57150000D03*
D20*
X51435000Y-74930000D03*
X43815000Y-59690000D03*
X51435000Y-72390000D03*
X43815000Y-62230000D03*
X51435000Y-69850000D03*
X43815000Y-64770000D03*
X51435000Y-67310000D03*
X43815000Y-67310000D03*
X51435000Y-64770000D03*
X43815000Y-69850000D03*
X51435000Y-62230000D03*
X43815000Y-72390000D03*
X51435000Y-59690000D03*
X43815000Y-74930000D03*
X51435000Y-57150000D03*
X69215000Y-57150000D03*
X61595000Y-74930000D03*
X69215000Y-59690000D03*
X61595000Y-72390000D03*
X69215000Y-62230000D03*
X61595000Y-69850000D03*
X69215000Y-64770000D03*
X61595000Y-67310000D03*
X69215000Y-67310000D03*
X61595000Y-64770000D03*
X69215000Y-69850000D03*
X61595000Y-62230000D03*
X69215000Y-72390000D03*
X61595000Y-59690000D03*
X69215000Y-74930000D03*
D21*
X61595000Y-57150000D03*
M02*
