G04 #@! TF.GenerationSoftware,KiCad,Pcbnew,(5.1.8)-1*
G04 #@! TF.CreationDate,2024-07-26T23:06:46+03:00*
G04 #@! TF.ProjectId,RAM,52414d2e-6b69-4636-9164-5f7063625858,rev?*
G04 #@! TF.SameCoordinates,PXc1c960PYc1c960*
G04 #@! TF.FileFunction,Soldermask,Bot*
G04 #@! TF.FilePolarity,Negative*
%FSLAX46Y46*%
G04 Gerber Fmt 4.6, Leading zero omitted, Abs format (unit mm)*
G04 Created by KiCad (PCBNEW (5.1.8)-1) date 2024-07-26 23:06:46*
%MOMM*%
%LPD*%
G01*
G04 APERTURE LIST*
%ADD10O,1.700000X1.700000*%
%ADD11R,1.700000X1.700000*%
%ADD12C,2.600000*%
%ADD13R,2.600000X2.600000*%
%ADD14R,1.000000X1.500000*%
%ADD15C,2.000000*%
%ADD16C,1.800000*%
%ADD17R,1.800000X1.800000*%
%ADD18C,3.200000*%
%ADD19O,1.500000X2.000000*%
%ADD20R,1.500000X2.000000*%
%ADD21O,1.800000X1.500000*%
%ADD22R,1.800000X1.500000*%
%ADD23O,2.000000X2.000000*%
%ADD24R,2.000000X2.000000*%
G04 APERTURE END LIST*
D10*
X2540000Y-83820000D03*
X2540000Y-81280000D03*
X2540000Y-78740000D03*
X2540000Y-76200000D03*
X2540000Y-73660000D03*
X2540000Y-71120000D03*
X2540000Y-68580000D03*
X2540000Y-66040000D03*
D11*
X2540000Y-63500000D03*
D10*
X2540000Y-58420000D03*
X2540000Y-55880000D03*
X2540000Y-53340000D03*
X2540000Y-50800000D03*
X2540000Y-48260000D03*
X2540000Y-45720000D03*
X2540000Y-43180000D03*
X2540000Y-40640000D03*
D11*
X2540000Y-38100000D03*
D10*
X2540000Y-33020000D03*
X2540000Y-30480000D03*
X2540000Y-27940000D03*
X2540000Y-25400000D03*
X2540000Y-22860000D03*
X2540000Y-20320000D03*
X2540000Y-17780000D03*
X2540000Y-15240000D03*
D11*
X2540000Y-12700000D03*
D12*
X55800000Y-80645000D03*
D13*
X50800000Y-80645000D03*
D10*
X66040000Y-80645000D03*
X63500000Y-80645000D03*
D11*
X60960000Y-80645000D03*
D14*
X43785000Y-51435000D03*
X45085000Y-51435000D03*
X46385000Y-51435000D03*
X46325000Y-31750000D03*
X47625000Y-31750000D03*
X48925000Y-31750000D03*
D15*
X45720000Y-23970000D03*
X45720000Y-13970000D03*
X18575000Y-5715000D03*
X28575000Y-5715000D03*
D16*
X43180000Y-65405000D03*
D17*
X45720000Y-65405000D03*
D16*
X52070000Y-65405000D03*
D17*
X54610000Y-65405000D03*
D16*
X60960000Y-65405000D03*
D17*
X63500000Y-65405000D03*
D18*
X93980000Y-93980000D03*
X93980000Y-5080000D03*
X5080000Y-93980000D03*
X5080000Y-5080000D03*
D19*
X50165000Y-36195000D03*
X83185000Y-51435000D03*
X52705000Y-36195000D03*
X80645000Y-51435000D03*
X55245000Y-36195000D03*
X78105000Y-51435000D03*
X57785000Y-36195000D03*
X75565000Y-51435000D03*
X60325000Y-36195000D03*
X73025000Y-51435000D03*
X62865000Y-36195000D03*
X70485000Y-51435000D03*
X65405000Y-36195000D03*
X67945000Y-51435000D03*
X67945000Y-36195000D03*
X65405000Y-51435000D03*
X70485000Y-36195000D03*
X62865000Y-51435000D03*
X73025000Y-36195000D03*
X60325000Y-51435000D03*
X75565000Y-36195000D03*
X57785000Y-51435000D03*
X78105000Y-36195000D03*
X55245000Y-51435000D03*
X80645000Y-36195000D03*
X52705000Y-51435000D03*
X83185000Y-36195000D03*
D20*
X50165000Y-51435000D03*
D21*
X67945000Y-75565000D03*
X75565000Y-60325000D03*
X67945000Y-73025000D03*
X75565000Y-62865000D03*
X67945000Y-70485000D03*
X75565000Y-65405000D03*
X67945000Y-67945000D03*
X75565000Y-67945000D03*
X67945000Y-65405000D03*
X75565000Y-70485000D03*
X67945000Y-62865000D03*
X75565000Y-73025000D03*
X67945000Y-60325000D03*
D22*
X75565000Y-75565000D03*
D15*
X40005000Y-84930000D03*
X40005000Y-74930000D03*
D23*
X13970000Y-79375000D03*
D19*
X16510000Y-79375000D03*
X19050000Y-79375000D03*
D23*
X21590000Y-79375000D03*
X24130000Y-79375000D03*
X26670000Y-79375000D03*
X29210000Y-79375000D03*
D24*
X31750000Y-79375000D03*
D20*
X31750000Y-10795000D03*
D19*
X13970000Y-18415000D03*
X29210000Y-10795000D03*
X16510000Y-18415000D03*
X26670000Y-10795000D03*
X19050000Y-18415000D03*
X24130000Y-10795000D03*
X21590000Y-18415000D03*
X21590000Y-10795000D03*
X24130000Y-18415000D03*
X19050000Y-10795000D03*
X26670000Y-18415000D03*
X16510000Y-10795000D03*
X29210000Y-18415000D03*
X13970000Y-10795000D03*
X31750000Y-18415000D03*
D20*
X50165000Y-28575000D03*
D19*
X83185000Y-13335000D03*
X52705000Y-28575000D03*
X80645000Y-13335000D03*
X55245000Y-28575000D03*
X78105000Y-13335000D03*
X57785000Y-28575000D03*
X75565000Y-13335000D03*
X60325000Y-28575000D03*
X73025000Y-13335000D03*
X62865000Y-28575000D03*
X70485000Y-13335000D03*
X65405000Y-28575000D03*
X67945000Y-13335000D03*
X67945000Y-28575000D03*
X65405000Y-13335000D03*
X70485000Y-28575000D03*
X62865000Y-13335000D03*
X73025000Y-28575000D03*
X60325000Y-13335000D03*
X75565000Y-28575000D03*
X57785000Y-13335000D03*
X78105000Y-28575000D03*
X55245000Y-13335000D03*
X80645000Y-28575000D03*
X52705000Y-13335000D03*
X83185000Y-28575000D03*
X50165000Y-13335000D03*
X31750000Y-37465000D03*
X13970000Y-29845000D03*
X29210000Y-37465000D03*
X16510000Y-29845000D03*
X26670000Y-37465000D03*
X19050000Y-29845000D03*
X24130000Y-37465000D03*
X21590000Y-29845000D03*
X21590000Y-37465000D03*
X24130000Y-29845000D03*
X19050000Y-37465000D03*
X26670000Y-29845000D03*
X16510000Y-37465000D03*
X29210000Y-29845000D03*
X13970000Y-37465000D03*
D20*
X31750000Y-29845000D03*
X31750000Y-46355000D03*
D19*
X13970000Y-53975000D03*
X29210000Y-46355000D03*
X16510000Y-53975000D03*
X26670000Y-46355000D03*
X19050000Y-53975000D03*
X24130000Y-46355000D03*
X21590000Y-53975000D03*
X21590000Y-46355000D03*
X24130000Y-53975000D03*
X19050000Y-46355000D03*
X26670000Y-53975000D03*
X16510000Y-46355000D03*
X29210000Y-53975000D03*
X13970000Y-46355000D03*
X31750000Y-53975000D03*
X31750000Y-71755000D03*
X13970000Y-64135000D03*
X29210000Y-71755000D03*
X16510000Y-64135000D03*
X26670000Y-71755000D03*
X19050000Y-64135000D03*
X24130000Y-71755000D03*
X21590000Y-64135000D03*
X21590000Y-71755000D03*
X24130000Y-64135000D03*
X19050000Y-71755000D03*
X26670000Y-64135000D03*
X16510000Y-71755000D03*
X29210000Y-64135000D03*
X13970000Y-71755000D03*
D20*
X31750000Y-64135000D03*
M02*
