G04 #@! TF.GenerationSoftware,KiCad,Pcbnew,(5.1.8)-1*
G04 #@! TF.CreationDate,2024-07-20T23:50:35+03:00*
G04 #@! TF.ProjectId,RAM,52414d2e-6b69-4636-9164-5f7063625858,rev?*
G04 #@! TF.SameCoordinates,PXc1c960PYc1c960*
G04 #@! TF.FileFunction,Soldermask,Bot*
G04 #@! TF.FilePolarity,Negative*
%FSLAX46Y46*%
G04 Gerber Fmt 4.6, Leading zero omitted, Abs format (unit mm)*
G04 Created by KiCad (PCBNEW (5.1.8)-1) date 2024-07-20 23:50:35*
%MOMM*%
%LPD*%
G01*
G04 APERTURE LIST*
%ADD10C,2.000000*%
%ADD11O,2.000000X2.000000*%
%ADD12R,2.000000X2.000000*%
%ADD13O,2.000000X1.500000*%
%ADD14R,2.000000X1.500000*%
%ADD15C,1.800000*%
%ADD16R,1.800000X1.800000*%
%ADD17C,3.200000*%
%ADD18O,1.800000X1.500000*%
%ADD19R,1.800000X1.500000*%
%ADD20O,1.500000X2.000000*%
%ADD21R,1.500000X2.000000*%
G04 APERTURE END LIST*
D10*
X52545000Y-59690000D03*
X42545000Y-59690000D03*
X16035000Y-9525000D03*
X26035000Y-9525000D03*
D11*
X45720000Y-84455000D03*
X48260000Y-84455000D03*
X50800000Y-84455000D03*
X53340000Y-84455000D03*
D12*
X55880000Y-84455000D03*
D11*
X36830000Y-14605000D03*
X36830000Y-17145000D03*
X36830000Y-19685000D03*
D13*
X36830000Y-22225000D03*
X36830000Y-24765000D03*
X36830000Y-27305000D03*
X36830000Y-29845000D03*
D14*
X36830000Y-32385000D03*
D11*
X2540000Y-53975000D03*
X2540000Y-56515000D03*
X2540000Y-59055000D03*
X2540000Y-61595000D03*
X2540000Y-64135000D03*
X2540000Y-66675000D03*
X2540000Y-69215000D03*
D12*
X2540000Y-71755000D03*
D11*
X2540000Y-18415000D03*
X2540000Y-20955000D03*
X2540000Y-23495000D03*
X2540000Y-26035000D03*
X2540000Y-28575000D03*
X2540000Y-31115000D03*
X2540000Y-33655000D03*
D12*
X2540000Y-36195000D03*
D15*
X40640000Y-69215000D03*
D16*
X43180000Y-69215000D03*
D15*
X49530000Y-69215000D03*
D16*
X52070000Y-69215000D03*
D15*
X58420000Y-69215000D03*
D16*
X60960000Y-69215000D03*
D17*
X93980000Y-93980000D03*
X93980000Y-5080000D03*
X5080000Y-93980000D03*
X5080000Y-5080000D03*
D13*
X64770000Y-55245000D03*
X80010000Y-22225000D03*
X64770000Y-52705000D03*
X80010000Y-24765000D03*
X64770000Y-50165000D03*
X80010000Y-27305000D03*
X64770000Y-47625000D03*
X80010000Y-29845000D03*
X64770000Y-45085000D03*
X80010000Y-32385000D03*
X64770000Y-42545000D03*
X80010000Y-34925000D03*
X64770000Y-40005000D03*
X80010000Y-37465000D03*
X64770000Y-37465000D03*
X80010000Y-40005000D03*
X64770000Y-34925000D03*
X80010000Y-42545000D03*
X64770000Y-32385000D03*
X80010000Y-45085000D03*
X64770000Y-29845000D03*
X80010000Y-47625000D03*
X64770000Y-27305000D03*
X80010000Y-50165000D03*
X64770000Y-24765000D03*
X80010000Y-52705000D03*
X64770000Y-22225000D03*
D14*
X80010000Y-55245000D03*
D18*
X68580000Y-79375000D03*
X76200000Y-64135000D03*
X68580000Y-76835000D03*
X76200000Y-66675000D03*
X68580000Y-74295000D03*
X76200000Y-69215000D03*
X68580000Y-71755000D03*
X76200000Y-71755000D03*
X68580000Y-69215000D03*
X76200000Y-74295000D03*
X68580000Y-66675000D03*
X76200000Y-76835000D03*
X68580000Y-64135000D03*
D19*
X76200000Y-79375000D03*
D10*
X37465000Y-88740000D03*
X37465000Y-78740000D03*
D11*
X11430000Y-83185000D03*
D20*
X13970000Y-83185000D03*
X16510000Y-83185000D03*
D11*
X19050000Y-83185000D03*
X21590000Y-83185000D03*
X24130000Y-83185000D03*
X26670000Y-83185000D03*
D12*
X29210000Y-83185000D03*
D21*
X29210000Y-14605000D03*
D20*
X11430000Y-22225000D03*
X26670000Y-14605000D03*
X13970000Y-22225000D03*
X24130000Y-14605000D03*
X16510000Y-22225000D03*
X21590000Y-14605000D03*
X19050000Y-22225000D03*
X19050000Y-14605000D03*
X21590000Y-22225000D03*
X16510000Y-14605000D03*
X24130000Y-22225000D03*
X13970000Y-14605000D03*
X26670000Y-22225000D03*
X11430000Y-14605000D03*
X29210000Y-22225000D03*
D14*
X57150000Y-55245000D03*
D13*
X41910000Y-22225000D03*
X57150000Y-52705000D03*
X41910000Y-24765000D03*
X57150000Y-50165000D03*
X41910000Y-27305000D03*
X57150000Y-47625000D03*
X41910000Y-29845000D03*
X57150000Y-45085000D03*
X41910000Y-32385000D03*
X57150000Y-42545000D03*
X41910000Y-34925000D03*
X57150000Y-40005000D03*
X41910000Y-37465000D03*
X57150000Y-37465000D03*
X41910000Y-40005000D03*
X57150000Y-34925000D03*
X41910000Y-42545000D03*
X57150000Y-32385000D03*
X41910000Y-45085000D03*
X57150000Y-29845000D03*
X41910000Y-47625000D03*
X57150000Y-27305000D03*
X41910000Y-50165000D03*
X57150000Y-24765000D03*
X41910000Y-52705000D03*
X57150000Y-22225000D03*
X41910000Y-55245000D03*
D20*
X29210000Y-41275000D03*
X11430000Y-33655000D03*
X26670000Y-41275000D03*
X13970000Y-33655000D03*
X24130000Y-41275000D03*
X16510000Y-33655000D03*
X21590000Y-41275000D03*
X19050000Y-33655000D03*
X19050000Y-41275000D03*
X21590000Y-33655000D03*
X16510000Y-41275000D03*
X24130000Y-33655000D03*
X13970000Y-41275000D03*
X26670000Y-33655000D03*
X11430000Y-41275000D03*
D21*
X29210000Y-33655000D03*
X29210000Y-50165000D03*
D20*
X11430000Y-57785000D03*
X26670000Y-50165000D03*
X13970000Y-57785000D03*
X24130000Y-50165000D03*
X16510000Y-57785000D03*
X21590000Y-50165000D03*
X19050000Y-57785000D03*
X19050000Y-50165000D03*
X21590000Y-57785000D03*
X16510000Y-50165000D03*
X24130000Y-57785000D03*
X13970000Y-50165000D03*
X26670000Y-57785000D03*
X11430000Y-50165000D03*
X29210000Y-57785000D03*
X29210000Y-75565000D03*
X11430000Y-67945000D03*
X26670000Y-75565000D03*
X13970000Y-67945000D03*
X24130000Y-75565000D03*
X16510000Y-67945000D03*
X21590000Y-75565000D03*
X19050000Y-67945000D03*
X19050000Y-75565000D03*
X21590000Y-67945000D03*
X16510000Y-75565000D03*
X24130000Y-67945000D03*
X13970000Y-75565000D03*
X26670000Y-67945000D03*
X11430000Y-75565000D03*
D21*
X29210000Y-67945000D03*
M02*
