G04 #@! TF.GenerationSoftware,KiCad,Pcbnew,(5.1.8)-1*
G04 #@! TF.CreationDate,2023-07-12T22:57:58+03:00*
G04 #@! TF.ProjectId,RAM,52414d2e-6b69-4636-9164-5f7063625858,rev?*
G04 #@! TF.SameCoordinates,PX9b0780PY9b0780*
G04 #@! TF.FileFunction,Copper,L2,Bot*
G04 #@! TF.FilePolarity,Positive*
%FSLAX46Y46*%
G04 Gerber Fmt 4.6, Leading zero omitted, Abs format (unit mm)*
G04 Created by KiCad (PCBNEW (5.1.8)-1) date 2023-07-12 22:57:58*
%MOMM*%
%LPD*%
G01*
G04 APERTURE LIST*
G04 #@! TA.AperFunction,ComponentPad*
%ADD10C,2.000000*%
G04 #@! TD*
G04 #@! TA.AperFunction,ComponentPad*
%ADD11O,2.000000X2.000000*%
G04 #@! TD*
G04 #@! TA.AperFunction,ComponentPad*
%ADD12R,2.000000X2.000000*%
G04 #@! TD*
G04 #@! TA.AperFunction,ComponentPad*
%ADD13O,1.500000X2.000000*%
G04 #@! TD*
G04 #@! TA.AperFunction,ComponentPad*
%ADD14R,1.500000X2.000000*%
G04 #@! TD*
G04 #@! TA.AperFunction,ComponentPad*
%ADD15C,1.800000*%
G04 #@! TD*
G04 #@! TA.AperFunction,ComponentPad*
%ADD16R,1.800000X1.800000*%
G04 #@! TD*
G04 #@! TA.AperFunction,ComponentPad*
%ADD17O,1.500000X1.800000*%
G04 #@! TD*
G04 #@! TA.AperFunction,ComponentPad*
%ADD18R,1.500000X1.800000*%
G04 #@! TD*
G04 #@! TA.AperFunction,ComponentPad*
%ADD19O,2.000000X1.500000*%
G04 #@! TD*
G04 #@! TA.AperFunction,ComponentPad*
%ADD20R,2.000000X1.500000*%
G04 #@! TD*
G04 #@! TA.AperFunction,ViaPad*
%ADD21C,1.500000*%
G04 #@! TD*
G04 #@! TA.AperFunction,Conductor*
%ADD22C,0.500000*%
G04 #@! TD*
G04 #@! TA.AperFunction,Conductor*
%ADD23C,0.600000*%
G04 #@! TD*
G04 APERTURE END LIST*
D10*
X53340000Y-33815000D03*
X53340000Y-43815000D03*
X3175000Y-70325000D03*
X3175000Y-60325000D03*
D11*
X78105000Y-40640000D03*
X78105000Y-38100000D03*
X78105000Y-35560000D03*
X78105000Y-33020000D03*
D12*
X78105000Y-30480000D03*
D11*
X8255000Y-49530000D03*
X10795000Y-49530000D03*
X13335000Y-49530000D03*
D13*
X15875000Y-49530000D03*
X18415000Y-49530000D03*
X20955000Y-49530000D03*
X23495000Y-49530000D03*
D14*
X26035000Y-49530000D03*
D11*
X47625000Y-83820000D03*
X50165000Y-83820000D03*
X52705000Y-83820000D03*
X55245000Y-83820000D03*
X57785000Y-83820000D03*
X60325000Y-83820000D03*
X62865000Y-83820000D03*
D12*
X65405000Y-83820000D03*
D11*
X12065000Y-83820000D03*
X14605000Y-83820000D03*
X17145000Y-83820000D03*
X19685000Y-83820000D03*
X22225000Y-83820000D03*
X24765000Y-83820000D03*
X27305000Y-83820000D03*
D12*
X29845000Y-83820000D03*
D15*
X62865000Y-45720000D03*
D16*
X62865000Y-43180000D03*
D15*
X62865000Y-36830000D03*
D16*
X62865000Y-34290000D03*
D15*
X62865000Y-27940000D03*
D16*
X62865000Y-25400000D03*
D13*
X48895000Y-21590000D03*
X15875000Y-6350000D03*
X46355000Y-21590000D03*
X18415000Y-6350000D03*
X43815000Y-21590000D03*
X20955000Y-6350000D03*
X41275000Y-21590000D03*
X23495000Y-6350000D03*
X38735000Y-21590000D03*
X26035000Y-6350000D03*
X36195000Y-21590000D03*
X28575000Y-6350000D03*
X33655000Y-21590000D03*
X31115000Y-6350000D03*
X31115000Y-21590000D03*
X33655000Y-6350000D03*
X28575000Y-21590000D03*
X36195000Y-6350000D03*
X26035000Y-21590000D03*
X38735000Y-6350000D03*
X23495000Y-21590000D03*
X41275000Y-6350000D03*
X20955000Y-21590000D03*
X43815000Y-6350000D03*
X18415000Y-21590000D03*
X46355000Y-6350000D03*
X15875000Y-21590000D03*
D14*
X48895000Y-6350000D03*
D17*
X73025000Y-17780000D03*
X57785000Y-10160000D03*
X70485000Y-17780000D03*
X60325000Y-10160000D03*
X67945000Y-17780000D03*
X62865000Y-10160000D03*
X65405000Y-17780000D03*
X65405000Y-10160000D03*
X62865000Y-17780000D03*
X67945000Y-10160000D03*
X60325000Y-17780000D03*
X70485000Y-10160000D03*
X57785000Y-17780000D03*
D18*
X73025000Y-10160000D03*
D10*
X82390000Y-48895000D03*
X72390000Y-48895000D03*
D11*
X76835000Y-74930000D03*
D19*
X76835000Y-72390000D03*
X76835000Y-69850000D03*
D11*
X76835000Y-67310000D03*
X76835000Y-64770000D03*
X76835000Y-62230000D03*
X76835000Y-59690000D03*
D12*
X76835000Y-57150000D03*
D20*
X8255000Y-57150000D03*
D19*
X15875000Y-74930000D03*
X8255000Y-59690000D03*
X15875000Y-72390000D03*
X8255000Y-62230000D03*
X15875000Y-69850000D03*
X8255000Y-64770000D03*
X15875000Y-67310000D03*
X8255000Y-67310000D03*
X15875000Y-64770000D03*
X8255000Y-69850000D03*
X15875000Y-62230000D03*
X8255000Y-72390000D03*
X15875000Y-59690000D03*
X8255000Y-74930000D03*
X15875000Y-57150000D03*
D14*
X48895000Y-29210000D03*
D13*
X15875000Y-44450000D03*
X46355000Y-29210000D03*
X18415000Y-44450000D03*
X43815000Y-29210000D03*
X20955000Y-44450000D03*
X41275000Y-29210000D03*
X23495000Y-44450000D03*
X38735000Y-29210000D03*
X26035000Y-44450000D03*
X36195000Y-29210000D03*
X28575000Y-44450000D03*
X33655000Y-29210000D03*
X31115000Y-44450000D03*
X31115000Y-29210000D03*
X33655000Y-44450000D03*
X28575000Y-29210000D03*
X36195000Y-44450000D03*
X26035000Y-29210000D03*
X38735000Y-44450000D03*
X23495000Y-29210000D03*
X41275000Y-44450000D03*
X20955000Y-29210000D03*
X43815000Y-44450000D03*
X18415000Y-29210000D03*
X46355000Y-44450000D03*
X15875000Y-29210000D03*
X48895000Y-44450000D03*
D19*
X34925000Y-57150000D03*
X27305000Y-74930000D03*
X34925000Y-59690000D03*
X27305000Y-72390000D03*
X34925000Y-62230000D03*
X27305000Y-69850000D03*
X34925000Y-64770000D03*
X27305000Y-67310000D03*
X34925000Y-67310000D03*
X27305000Y-64770000D03*
X34925000Y-69850000D03*
X27305000Y-62230000D03*
X34925000Y-72390000D03*
X27305000Y-59690000D03*
X34925000Y-74930000D03*
D20*
X27305000Y-57150000D03*
X43815000Y-57150000D03*
D19*
X51435000Y-74930000D03*
X43815000Y-59690000D03*
X51435000Y-72390000D03*
X43815000Y-62230000D03*
X51435000Y-69850000D03*
X43815000Y-64770000D03*
X51435000Y-67310000D03*
X43815000Y-67310000D03*
X51435000Y-64770000D03*
X43815000Y-69850000D03*
X51435000Y-62230000D03*
X43815000Y-72390000D03*
X51435000Y-59690000D03*
X43815000Y-74930000D03*
X51435000Y-57150000D03*
X69215000Y-57150000D03*
X61595000Y-74930000D03*
X69215000Y-59690000D03*
X61595000Y-72390000D03*
X69215000Y-62230000D03*
X61595000Y-69850000D03*
X69215000Y-64770000D03*
X61595000Y-67310000D03*
X69215000Y-67310000D03*
X61595000Y-64770000D03*
X69215000Y-69850000D03*
X61595000Y-62230000D03*
X69215000Y-72390000D03*
X61595000Y-59690000D03*
X69215000Y-74930000D03*
D20*
X61595000Y-57150000D03*
D21*
X57785000Y-31115000D03*
X62865000Y-31115000D03*
X50800000Y-11430000D03*
X28575000Y-34925000D03*
X57785000Y-26035000D03*
X46355000Y-51435000D03*
X46990000Y-48895000D03*
X45085000Y-46990000D03*
X40005000Y-64770000D03*
D22*
X8255000Y-72390000D02*
X8255000Y-74930000D01*
X33020000Y-67945000D02*
X33655000Y-67310000D01*
X33020000Y-80010000D02*
X33020000Y-67945000D01*
X30480000Y-82550000D02*
X33020000Y-80010000D01*
X33655000Y-67310000D02*
X34925000Y-67310000D01*
X29845000Y-82550000D02*
X30480000Y-82550000D01*
X29845000Y-83820000D02*
X29845000Y-82550000D01*
X27305000Y-83185000D02*
X27305000Y-83820000D01*
X31750000Y-78740000D02*
X27305000Y-83185000D01*
X31750000Y-62865000D02*
X31750000Y-78740000D01*
X32385000Y-62230000D02*
X31750000Y-62865000D01*
X34925000Y-62230000D02*
X32385000Y-62230000D01*
X30480000Y-62865000D02*
X30480000Y-77470000D01*
X29845000Y-62230000D02*
X30480000Y-62865000D01*
X30480000Y-77470000D02*
X26035000Y-81915000D01*
X27305000Y-62230000D02*
X29845000Y-62230000D01*
X26035000Y-81915000D02*
X25400000Y-81915000D01*
X24765000Y-82550000D02*
X25400000Y-81915000D01*
X24765000Y-82550000D02*
X24765000Y-83820000D01*
X27305000Y-67310000D02*
X28575000Y-67310000D01*
X28575000Y-67310000D02*
X29210000Y-67945000D01*
X29210000Y-67945000D02*
X29210000Y-76200000D01*
X29210000Y-76200000D02*
X25400000Y-80010000D01*
X22225000Y-81915000D02*
X24130000Y-80010000D01*
X25400000Y-80010000D02*
X24130000Y-80010000D01*
X22225000Y-81915000D02*
X22225000Y-83820000D01*
X15875000Y-67310000D02*
X13970000Y-67310000D01*
X13970000Y-67310000D02*
X13335000Y-67945000D01*
X19685000Y-83820000D02*
X19685000Y-81915000D01*
X19685000Y-81915000D02*
X15875000Y-78105000D01*
X15240000Y-78105000D02*
X13335000Y-76200000D01*
X13335000Y-67945000D02*
X13335000Y-76200000D01*
X15875000Y-78105000D02*
X15240000Y-78105000D01*
X17145000Y-81915000D02*
X17145000Y-83820000D01*
X12065000Y-76835000D02*
X17145000Y-81915000D01*
X12065000Y-63500000D02*
X12065000Y-76835000D01*
X13335000Y-62230000D02*
X12065000Y-63500000D01*
X15875000Y-62230000D02*
X13335000Y-62230000D01*
X8255000Y-62230000D02*
X10160000Y-62230000D01*
X10160000Y-62230000D02*
X10795000Y-62865000D01*
X10795000Y-62865000D02*
X10795000Y-77470000D01*
X14605000Y-81280000D02*
X14605000Y-83820000D01*
X10795000Y-77470000D02*
X14605000Y-81280000D01*
X8255000Y-67310000D02*
X6350000Y-67310000D01*
X6350000Y-67310000D02*
X5715000Y-67945000D01*
X5715000Y-67945000D02*
X5715000Y-76835000D01*
X12065000Y-83820000D02*
X12065000Y-80645000D01*
X12065000Y-80645000D02*
X9207500Y-77787500D01*
X9207500Y-77787500D02*
X6667500Y-77787500D01*
X5715000Y-76835000D02*
X6667500Y-77787500D01*
X43815000Y-67310000D02*
X45085000Y-67310000D01*
X45085000Y-67310000D02*
X45720000Y-67945000D01*
X45720000Y-67945000D02*
X45720000Y-80010000D01*
X45720000Y-80010000D02*
X47625000Y-81915000D01*
X47625000Y-81915000D02*
X47625000Y-83820000D01*
X43815000Y-62230000D02*
X45720000Y-62230000D01*
X45720000Y-62230000D02*
X46990000Y-63500000D01*
X46990000Y-63500000D02*
X46990000Y-78105000D01*
X50165000Y-81280000D02*
X50165000Y-83820000D01*
X46990000Y-78105000D02*
X50165000Y-81280000D01*
X52705000Y-81915000D02*
X52705000Y-83820000D01*
X48260000Y-77470000D02*
X52705000Y-81915000D01*
X48260000Y-63500000D02*
X48260000Y-77470000D01*
X49530000Y-62230000D02*
X48260000Y-63500000D01*
X51435000Y-62230000D02*
X49530000Y-62230000D01*
X55245000Y-82550000D02*
X55245000Y-83820000D01*
X49530000Y-76835000D02*
X55245000Y-82550000D01*
X49530000Y-67945000D02*
X49530000Y-76835000D01*
X50165000Y-67310000D02*
X49530000Y-67945000D01*
X51435000Y-67310000D02*
X50165000Y-67310000D01*
X63500000Y-67945000D02*
X62865000Y-67310000D01*
X63500000Y-75565000D02*
X63500000Y-67945000D01*
X62865000Y-67310000D02*
X61595000Y-67310000D01*
X57785000Y-81280000D02*
X63500000Y-75565000D01*
X57785000Y-83820000D02*
X57785000Y-81280000D01*
X60325000Y-80645000D02*
X60325000Y-83820000D01*
X64770000Y-76200000D02*
X60325000Y-80645000D01*
X64770000Y-62865000D02*
X64770000Y-76200000D01*
X64135000Y-62230000D02*
X64770000Y-62865000D01*
X61595000Y-62230000D02*
X64135000Y-62230000D01*
X62865000Y-80645000D02*
X62865000Y-83820000D01*
X66040000Y-77470000D02*
X62865000Y-80645000D01*
X66040000Y-62865000D02*
X66040000Y-77470000D01*
X66675000Y-62230000D02*
X66040000Y-62865000D01*
X69215000Y-62230000D02*
X66675000Y-62230000D01*
X65405000Y-81280000D02*
X65405000Y-83820000D01*
X67310000Y-79375000D02*
X65405000Y-81280000D01*
X67310000Y-67945000D02*
X67310000Y-79375000D01*
X67945000Y-67310000D02*
X67310000Y-67945000D01*
X69215000Y-67310000D02*
X67945000Y-67310000D01*
X26035000Y-44450000D02*
X26035000Y-49530000D01*
X26035000Y-21590000D02*
X26035000Y-24765000D01*
X26035000Y-24765000D02*
X27305000Y-26035000D01*
X27305000Y-26035000D02*
X27305000Y-31750000D01*
X26035000Y-33020000D02*
X26035000Y-44450000D01*
X27305000Y-31750000D02*
X26035000Y-33020000D01*
X23495000Y-44450000D02*
X23495000Y-49530000D01*
X23495000Y-21590000D02*
X23495000Y-24765000D01*
X23495000Y-24765000D02*
X24765000Y-26035000D01*
X24765000Y-26035000D02*
X24765000Y-31750000D01*
X23495000Y-33020000D02*
X23495000Y-44450000D01*
X24765000Y-31750000D02*
X23495000Y-33020000D01*
X20955000Y-44450000D02*
X20955000Y-49530000D01*
X20955000Y-21590000D02*
X20955000Y-24765000D01*
X20955000Y-24765000D02*
X22225000Y-26035000D01*
X22225000Y-26035000D02*
X22225000Y-31750000D01*
X20955000Y-33020000D02*
X20955000Y-44450000D01*
X22225000Y-31750000D02*
X20955000Y-33020000D01*
X18415000Y-44450000D02*
X18415000Y-49530000D01*
X18415000Y-21590000D02*
X18415000Y-24765000D01*
X19754990Y-26104990D02*
X19754990Y-31680010D01*
X18415000Y-24765000D02*
X19754990Y-26104990D01*
X18415000Y-33020000D02*
X18415000Y-44450000D01*
X19754990Y-31680010D02*
X18415000Y-33020000D01*
X15875000Y-44450000D02*
X15875000Y-49530000D01*
X15875000Y-44450000D02*
X15875000Y-33020000D01*
X17075010Y-31819990D02*
X17075010Y-25965010D01*
X15875000Y-33020000D02*
X17075010Y-31819990D01*
X15875000Y-24765000D02*
X15875000Y-21590000D01*
X17075010Y-25965010D02*
X15875000Y-24765000D01*
X18415000Y-26035000D02*
X18415000Y-26315038D01*
X17145000Y-24765000D02*
X18415000Y-26035000D01*
X17145000Y-17780000D02*
X17145000Y-24765000D01*
X18415000Y-16510000D02*
X17145000Y-17780000D01*
X18415000Y-26315038D02*
X18415000Y-29210000D01*
X18415000Y-6350000D02*
X18415000Y-16510000D01*
X13335000Y-50800000D02*
X13335000Y-49530000D01*
X13970000Y-51435000D02*
X13335000Y-50800000D01*
X16510000Y-51435000D02*
X13970000Y-51435000D01*
X17145000Y-50800000D02*
X16510000Y-51435000D01*
X17145000Y-33020000D02*
X17145000Y-50800000D01*
X18415000Y-31750000D02*
X17145000Y-33020000D01*
X18415000Y-29210000D02*
X18415000Y-31750000D01*
X20955000Y-26035000D02*
X20955000Y-29210000D01*
X19685000Y-24765000D02*
X20955000Y-26035000D01*
X19685000Y-17780000D02*
X19685000Y-24765000D01*
X20955000Y-16510000D02*
X19685000Y-17780000D01*
X20955000Y-6350000D02*
X20955000Y-16510000D01*
X10795000Y-51752500D02*
X10795000Y-49530000D01*
X11430000Y-52387500D02*
X10795000Y-51752500D01*
X18415000Y-52387500D02*
X11430000Y-52387500D01*
X19685000Y-51117500D02*
X18415000Y-52387500D01*
X19685000Y-33020000D02*
X19685000Y-51117500D01*
X20955000Y-31750000D02*
X19685000Y-33020000D01*
X20955000Y-29210000D02*
X20955000Y-31750000D01*
X23495000Y-26035000D02*
X23495000Y-29210000D01*
X22225000Y-24765000D02*
X23495000Y-26035000D01*
X22225000Y-17780000D02*
X22225000Y-24765000D01*
X23495000Y-16510000D02*
X22225000Y-17780000D01*
X23495000Y-6350000D02*
X23495000Y-16510000D01*
X23495000Y-31750000D02*
X23495000Y-29210000D01*
X22225000Y-33020000D02*
X23495000Y-31750000D01*
X22225000Y-51117500D02*
X22225000Y-33020000D01*
X20254990Y-53087510D02*
X22225000Y-51117500D01*
X8955010Y-53087510D02*
X20254990Y-53087510D01*
X8255000Y-52387500D02*
X8955010Y-53087510D01*
X8255000Y-49530000D02*
X8255000Y-52387500D01*
X67945000Y-17780000D02*
X70485000Y-17780000D01*
X62865000Y-25400000D02*
X66675000Y-25400000D01*
X71755000Y-30480000D02*
X78105000Y-30480000D01*
X66675000Y-25400000D02*
X71755000Y-30480000D01*
X67945000Y-24130000D02*
X66675000Y-25400000D01*
X67945000Y-17780000D02*
X67945000Y-24130000D01*
X33655000Y-21590000D02*
X33655000Y-24765000D01*
X33655000Y-24765000D02*
X34925000Y-26035000D01*
X34925000Y-26035000D02*
X34925000Y-31750000D01*
X33655000Y-33020000D02*
X33655000Y-44450000D01*
X34925000Y-31750000D02*
X33655000Y-33020000D01*
X71120000Y-33020000D02*
X78105000Y-33020000D01*
X57785000Y-30480000D02*
X57785000Y-30480000D01*
X71120000Y-33020000D02*
X69215000Y-31115000D01*
X69215000Y-31115000D02*
X62865000Y-31115000D01*
X62865000Y-31115000D02*
X62865000Y-31115000D01*
X53340000Y-26670000D02*
X57785000Y-31115000D01*
X53340000Y-4445000D02*
X53340000Y-26670000D01*
X52070000Y-3175000D02*
X53340000Y-4445000D01*
X35560000Y-3175000D02*
X52070000Y-3175000D01*
X34925000Y-3810000D02*
X35560000Y-3175000D01*
X34925000Y-15240000D02*
X34925000Y-3810000D01*
X33655000Y-16510000D02*
X34925000Y-15240000D01*
X33655000Y-21590000D02*
X33655000Y-16510000D01*
X62865000Y-43180000D02*
X69215000Y-43180000D01*
X71755000Y-40640000D02*
X78105000Y-40640000D01*
X69215000Y-43180000D02*
X71755000Y-40640000D01*
D23*
X61595000Y-59690000D02*
X59055000Y-59690000D01*
X59055000Y-59690000D02*
X58420000Y-60325000D01*
X58420000Y-60325000D02*
X58420000Y-69215000D01*
X59055000Y-69850000D02*
X61595000Y-69850000D01*
X58420000Y-69215000D02*
X59055000Y-69850000D01*
D22*
X15875000Y-74930000D02*
X19685000Y-74930000D01*
X19685000Y-74930000D02*
X22225000Y-72390000D01*
X22225000Y-72390000D02*
X27305000Y-72390000D01*
X34925000Y-74930000D02*
X39370000Y-74930000D01*
X41910000Y-72390000D02*
X43815000Y-72390000D01*
X39370000Y-74930000D02*
X41910000Y-72390000D01*
X51435000Y-74930000D02*
X55245000Y-74930000D01*
X57785000Y-72390000D02*
X61595000Y-72390000D01*
X55245000Y-74930000D02*
X57785000Y-72390000D01*
X60325000Y-15240000D02*
X60325000Y-17780000D01*
X71755000Y-72390000D02*
X69215000Y-72390000D01*
X73025000Y-71120000D02*
X71755000Y-72390000D01*
X73025000Y-53975000D02*
X73025000Y-71120000D01*
X71120000Y-52070000D02*
X73025000Y-53975000D01*
X63500000Y-52070000D02*
X71120000Y-52070000D01*
X60325000Y-48895000D02*
X63500000Y-52070000D01*
X60325000Y-17780000D02*
X60325000Y-48895000D01*
X70485000Y-10160000D02*
X73025000Y-10160000D01*
X60325000Y-15240000D02*
X61595000Y-13970000D01*
X61595000Y-13970000D02*
X61595000Y-8890000D01*
D23*
X61595000Y-8890000D02*
X62865000Y-7620000D01*
X62865000Y-7620000D02*
X69215000Y-7620000D01*
X69215000Y-7620000D02*
X70485000Y-8890000D01*
X70485000Y-8890000D02*
X70485000Y-10160000D01*
D22*
X28575000Y-13652500D02*
X28575000Y-6350000D01*
X27305000Y-14922500D02*
X28575000Y-13652500D01*
X27305000Y-24765000D02*
X27305000Y-14922500D01*
X28575000Y-26035000D02*
X27305000Y-24765000D01*
X28575000Y-29210000D02*
X28575000Y-26035000D01*
X8255000Y-55562500D02*
X8255000Y-57150000D01*
X8572500Y-55245000D02*
X8255000Y-55562500D01*
X25717500Y-51435000D02*
X21907500Y-55245000D01*
X27305000Y-51435000D02*
X25717500Y-51435000D01*
X21907500Y-55245000D02*
X8572500Y-55245000D01*
X27305000Y-33020000D02*
X27305000Y-51435000D01*
X28575000Y-31750000D02*
X27305000Y-33020000D01*
X28575000Y-29210000D02*
X28575000Y-31750000D01*
X19367500Y-72390000D02*
X15875000Y-72390000D01*
X20320000Y-71437500D02*
X19367500Y-72390000D01*
X20320000Y-59690000D02*
X20320000Y-71437500D01*
X26511250Y-53498750D02*
X20320000Y-59690000D01*
X30956250Y-53498750D02*
X26511250Y-53498750D01*
X32385000Y-52070000D02*
X30956250Y-53498750D01*
X32385000Y-33020000D02*
X32385000Y-52070000D01*
X33655000Y-31750000D02*
X32385000Y-33020000D01*
X33655000Y-29210000D02*
X33655000Y-31750000D01*
X33655000Y-13970000D02*
X33655000Y-6350000D01*
X32385000Y-15240000D02*
X33655000Y-13970000D01*
X32385000Y-24765000D02*
X32385000Y-15240000D01*
X33655000Y-26035000D02*
X32385000Y-24765000D01*
X33655000Y-29210000D02*
X33655000Y-26035000D01*
X26035000Y-26035000D02*
X26035000Y-29210000D01*
X24765000Y-24765000D02*
X26035000Y-26035000D01*
X24765000Y-17780000D02*
X24765000Y-24765000D01*
X26035000Y-16510000D02*
X24765000Y-17780000D01*
X26035000Y-6350000D02*
X26035000Y-16510000D01*
X21590000Y-53975000D02*
X6032500Y-53975000D01*
X24765000Y-50800000D02*
X21590000Y-53975000D01*
X24765000Y-33020000D02*
X24765000Y-50800000D01*
X26035000Y-31750000D02*
X24765000Y-33020000D01*
X26035000Y-29210000D02*
X26035000Y-31750000D01*
X5556250Y-63976250D02*
X6350000Y-64770000D01*
X5556250Y-54451250D02*
X5556250Y-63976250D01*
X6350000Y-64770000D02*
X8255000Y-64770000D01*
X6032500Y-53975000D02*
X5556250Y-54451250D01*
X31115000Y-6350000D02*
X31115000Y-16510000D01*
X31115000Y-16510000D02*
X29845000Y-17780000D01*
X29845000Y-17780000D02*
X29845000Y-24765000D01*
X29845000Y-24765000D02*
X31115000Y-26035000D01*
X31115000Y-26035000D02*
X31115000Y-29210000D01*
X18415000Y-64770000D02*
X15875000Y-64770000D01*
X19050000Y-64135000D02*
X18415000Y-64770000D01*
X19050000Y-59690000D02*
X19050000Y-64135000D01*
X26193750Y-52546250D02*
X19050000Y-59690000D01*
X29368750Y-52546250D02*
X26193750Y-52546250D01*
X29845000Y-52070000D02*
X29368750Y-52546250D01*
X29845000Y-33020000D02*
X29845000Y-52070000D01*
X31115000Y-31750000D02*
X29845000Y-33020000D01*
X31115000Y-29210000D02*
X31115000Y-31750000D01*
X48895000Y-26670000D02*
X48895000Y-29210000D01*
X71120000Y-64770000D02*
X69215000Y-64770000D01*
X71755000Y-55245000D02*
X71755000Y-64135000D01*
X69850000Y-53340000D02*
X71755000Y-55245000D01*
X62230000Y-53340000D02*
X69850000Y-53340000D01*
X59055000Y-35560000D02*
X59055000Y-50165000D01*
X71755000Y-64135000D02*
X71120000Y-64770000D01*
X52705000Y-29210000D02*
X59055000Y-35560000D01*
X59055000Y-50165000D02*
X62230000Y-53340000D01*
X48895000Y-29210000D02*
X52705000Y-29210000D01*
X50800000Y-24765000D02*
X48895000Y-26670000D01*
X50800000Y-11430000D02*
X50800000Y-24765000D01*
X46355000Y-6350000D02*
X46355000Y-16510000D01*
X46355000Y-16510000D02*
X45085000Y-17780000D01*
X45085000Y-17780000D02*
X45085000Y-24765000D01*
X46355000Y-26035000D02*
X46355000Y-29210000D01*
X45085000Y-24765000D02*
X46355000Y-26035000D01*
X60325000Y-64770000D02*
X61595000Y-64770000D01*
X46355000Y-29210000D02*
X46355000Y-33655000D01*
X62865000Y-60960000D02*
X60325000Y-60960000D01*
X46355000Y-33655000D02*
X47625000Y-34925000D01*
X60325000Y-60960000D02*
X59690000Y-61595000D01*
X47625000Y-34925000D02*
X50800000Y-34925000D01*
X57785000Y-41910000D02*
X57785000Y-51435000D01*
X57785000Y-51435000D02*
X60960000Y-54610000D01*
X60960000Y-54610000D02*
X62865000Y-54610000D01*
X59690000Y-61595000D02*
X59690000Y-64135000D01*
X50800000Y-34925000D02*
X57785000Y-41910000D01*
X62865000Y-54610000D02*
X63500000Y-55245000D01*
X63500000Y-55245000D02*
X63500000Y-60325000D01*
X59690000Y-64135000D02*
X60325000Y-64770000D01*
X63500000Y-60325000D02*
X62865000Y-60960000D01*
X43815000Y-6350000D02*
X43815000Y-16510000D01*
X43815000Y-16510000D02*
X42545000Y-17780000D01*
X42545000Y-17780000D02*
X42545000Y-24765000D01*
X43815000Y-26035000D02*
X43815000Y-29210000D01*
X42545000Y-24765000D02*
X43815000Y-26035000D01*
X39370000Y-72390000D02*
X34925000Y-72390000D01*
X41592500Y-70167500D02*
X39370000Y-72390000D01*
X41592500Y-55562500D02*
X41592500Y-70167500D01*
X42545000Y-54610000D02*
X41592500Y-55562500D01*
X42545000Y-33020000D02*
X42545000Y-54610000D01*
X43815000Y-31750000D02*
X42545000Y-33020000D01*
X43815000Y-29210000D02*
X43815000Y-31750000D01*
X41275000Y-6350000D02*
X41275000Y-16510000D01*
X41275000Y-16510000D02*
X40005000Y-17780000D01*
X40005000Y-17780000D02*
X40005000Y-24765000D01*
X40005000Y-24765000D02*
X41275000Y-26035000D01*
X41275000Y-26035000D02*
X41275000Y-29210000D01*
X41275000Y-31750000D02*
X41275000Y-29210000D01*
X40005000Y-33020000D02*
X41275000Y-31750000D01*
X40005000Y-51435000D02*
X40005000Y-33020000D01*
X38735000Y-52705000D02*
X40005000Y-51435000D01*
X38735000Y-63500000D02*
X38735000Y-52705000D01*
X37465000Y-64770000D02*
X38735000Y-63500000D01*
X34925000Y-64770000D02*
X37465000Y-64770000D01*
X38735000Y-6350000D02*
X38735000Y-16510000D01*
X38735000Y-16510000D02*
X37465000Y-17780000D01*
X37465000Y-17780000D02*
X37465000Y-24765000D01*
X38735000Y-26035000D02*
X38735000Y-29210000D01*
X37465000Y-24765000D02*
X38735000Y-26035000D01*
X38735000Y-31750000D02*
X38735000Y-29210000D01*
X37465000Y-33020000D02*
X38735000Y-31750000D01*
X37465000Y-50800000D02*
X37465000Y-33020000D01*
X31115000Y-57150000D02*
X37465000Y-50800000D01*
X27305000Y-57150000D02*
X31115000Y-57150000D01*
X36195000Y-6350000D02*
X36195000Y-16510000D01*
X36195000Y-16510000D02*
X34925000Y-17780000D01*
X34925000Y-17780000D02*
X34925000Y-24765000D01*
X36195000Y-26035000D02*
X36195000Y-29210000D01*
X34925000Y-24765000D02*
X36195000Y-26035000D01*
X36195000Y-31750000D02*
X36195000Y-29210000D01*
X34925000Y-51435000D02*
X34925000Y-33020000D01*
X31273750Y-55086250D02*
X34925000Y-51435000D01*
X26511250Y-55086250D02*
X31273750Y-55086250D01*
X23812500Y-57785000D02*
X26511250Y-55086250D01*
X23812500Y-64135000D02*
X23812500Y-57785000D01*
X24447500Y-64770000D02*
X23812500Y-64135000D01*
X34925000Y-33020000D02*
X36195000Y-31750000D01*
X27305000Y-64770000D02*
X24447500Y-64770000D01*
D23*
X28575000Y-44450000D02*
X28575000Y-34925000D01*
D22*
X60325000Y-10160000D02*
X60325000Y-12065000D01*
X60325000Y-12065000D02*
X59055000Y-13335000D01*
X59055000Y-13335000D02*
X59055000Y-15875000D01*
X59055000Y-15875000D02*
X59055000Y-22225000D01*
X59055000Y-22225000D02*
X59055000Y-24765000D01*
X59055000Y-24765000D02*
X57785000Y-26035000D01*
X57785000Y-26035000D02*
X57785000Y-26035000D01*
X31115000Y-33020000D02*
X31115000Y-44450000D01*
X32385000Y-26035000D02*
X32385000Y-31750000D01*
X31115000Y-24765000D02*
X32385000Y-26035000D01*
X32385000Y-31750000D02*
X31115000Y-33020000D01*
X31115000Y-21590000D02*
X31115000Y-24765000D01*
X51435000Y-64770000D02*
X53340000Y-64770000D01*
X53340000Y-64770000D02*
X53975000Y-64135000D01*
X53975000Y-64135000D02*
X53975000Y-55245000D01*
X53975000Y-55245000D02*
X50165000Y-51435000D01*
X50165000Y-51435000D02*
X46355000Y-51435000D01*
X46355000Y-51435000D02*
X46355000Y-51435000D01*
X36195000Y-33020000D02*
X36195000Y-44450000D01*
X37465000Y-31750000D02*
X36195000Y-33020000D01*
X37465000Y-26035000D02*
X37465000Y-31750000D01*
X36195000Y-24765000D02*
X37465000Y-26035000D01*
X36195000Y-21590000D02*
X36195000Y-24765000D01*
X55245000Y-54610000D02*
X49530000Y-48895000D01*
X55245000Y-71755000D02*
X55245000Y-54610000D01*
X49530000Y-48895000D02*
X46990000Y-48895000D01*
X54610000Y-72390000D02*
X55245000Y-71755000D01*
X51435000Y-72390000D02*
X54610000Y-72390000D01*
X38735000Y-44450000D02*
X38735000Y-33020000D01*
X38735000Y-33020000D02*
X40005000Y-31750000D01*
X40005000Y-31750000D02*
X40005000Y-26035000D01*
X40005000Y-26035000D02*
X38735000Y-24765000D01*
X38735000Y-24765000D02*
X38735000Y-21590000D01*
X45085000Y-48260000D02*
X45085000Y-46990000D01*
X43815000Y-49530000D02*
X45085000Y-48260000D01*
X43815000Y-57150000D02*
X43815000Y-49530000D01*
X41275000Y-44450000D02*
X41275000Y-33020000D01*
X41275000Y-33020000D02*
X42545000Y-31750000D01*
X42545000Y-31750000D02*
X42545000Y-26035000D01*
X42545000Y-26035000D02*
X41275000Y-24765000D01*
X41275000Y-24765000D02*
X41275000Y-21590000D01*
X41275000Y-44450000D02*
X41275000Y-53340000D01*
X41275000Y-53340000D02*
X40005000Y-54610000D01*
X40005000Y-54610000D02*
X40005000Y-57785000D01*
X40005000Y-57785000D02*
X40005000Y-64770000D01*
X40005000Y-64770000D02*
X40005000Y-64770000D01*
X45085000Y-31750000D02*
X43815000Y-33020000D01*
X45085000Y-26035000D02*
X45085000Y-31750000D01*
X43815000Y-24765000D02*
X45085000Y-26035000D01*
X43815000Y-21590000D02*
X43815000Y-24765000D01*
X43815000Y-41910000D02*
X43815000Y-44450000D01*
X43815000Y-36195000D02*
X43815000Y-41910000D01*
X43815000Y-33020000D02*
X43815000Y-36195000D01*
X60325000Y-57150000D02*
X61595000Y-57150000D01*
X56515000Y-53340000D02*
X60325000Y-57150000D01*
X56515000Y-43180000D02*
X56515000Y-53340000D01*
X49530000Y-36195000D02*
X56515000Y-43180000D01*
X43815000Y-36195000D02*
X49530000Y-36195000D01*
X62865000Y-17780000D02*
X65405000Y-17780000D01*
X62865000Y-10160000D02*
X62865000Y-17780000D01*
X55880000Y-17780000D02*
X57785000Y-17780000D01*
X55245000Y-17145000D02*
X55880000Y-17780000D01*
X55245000Y-2540000D02*
X55245000Y-17145000D01*
X31115000Y-1270000D02*
X53975000Y-1270000D01*
X29845000Y-2540000D02*
X31115000Y-1270000D01*
X29845000Y-14922500D02*
X29845000Y-2540000D01*
X28575000Y-16192500D02*
X29845000Y-14922500D01*
X53975000Y-1270000D02*
X55245000Y-2540000D01*
X28575000Y-21590000D02*
X28575000Y-16192500D01*
X65405000Y-10160000D02*
X67945000Y-10160000D01*
M02*
