G04 #@! TF.GenerationSoftware,KiCad,Pcbnew,(5.1.8)-1*
G04 #@! TF.CreationDate,2024-07-22T20:59:50+03:00*
G04 #@! TF.ProjectId,RAM,52414d2e-6b69-4636-9164-5f7063625858,rev?*
G04 #@! TF.SameCoordinates,PXc1c960PYc1c960*
G04 #@! TF.FileFunction,Copper,L2,Bot*
G04 #@! TF.FilePolarity,Positive*
%FSLAX46Y46*%
G04 Gerber Fmt 4.6, Leading zero omitted, Abs format (unit mm)*
G04 Created by KiCad (PCBNEW (5.1.8)-1) date 2024-07-22 20:59:50*
%MOMM*%
%LPD*%
G01*
G04 APERTURE LIST*
G04 #@! TA.AperFunction,ComponentPad*
%ADD10C,2.600000*%
G04 #@! TD*
G04 #@! TA.AperFunction,ComponentPad*
%ADD11R,2.600000X2.600000*%
G04 #@! TD*
G04 #@! TA.AperFunction,ComponentPad*
%ADD12O,1.700000X1.700000*%
G04 #@! TD*
G04 #@! TA.AperFunction,ComponentPad*
%ADD13R,1.700000X1.700000*%
G04 #@! TD*
G04 #@! TA.AperFunction,ComponentPad*
%ADD14C,2.000000*%
G04 #@! TD*
G04 #@! TA.AperFunction,ComponentPad*
%ADD15O,2.000000X2.000000*%
G04 #@! TD*
G04 #@! TA.AperFunction,ComponentPad*
%ADD16O,2.000000X1.500000*%
G04 #@! TD*
G04 #@! TA.AperFunction,ComponentPad*
%ADD17R,2.000000X1.500000*%
G04 #@! TD*
G04 #@! TA.AperFunction,ComponentPad*
%ADD18R,2.000000X2.000000*%
G04 #@! TD*
G04 #@! TA.AperFunction,ComponentPad*
%ADD19C,1.800000*%
G04 #@! TD*
G04 #@! TA.AperFunction,ComponentPad*
%ADD20R,1.800000X1.800000*%
G04 #@! TD*
G04 #@! TA.AperFunction,ComponentPad*
%ADD21O,1.800000X1.500000*%
G04 #@! TD*
G04 #@! TA.AperFunction,ComponentPad*
%ADD22R,1.800000X1.500000*%
G04 #@! TD*
G04 #@! TA.AperFunction,ComponentPad*
%ADD23O,1.500000X2.000000*%
G04 #@! TD*
G04 #@! TA.AperFunction,ComponentPad*
%ADD24R,1.500000X2.000000*%
G04 #@! TD*
G04 #@! TA.AperFunction,ViaPad*
%ADD25C,1.500000*%
G04 #@! TD*
G04 #@! TA.AperFunction,Conductor*
%ADD26C,0.500000*%
G04 #@! TD*
G04 #@! TA.AperFunction,Conductor*
%ADD27C,0.600000*%
G04 #@! TD*
G04 APERTURE END LIST*
D10*
X55800000Y-80645000D03*
D11*
X50800000Y-80645000D03*
D12*
X68580000Y-78740000D03*
X66040000Y-78740000D03*
D13*
X63500000Y-78740000D03*
D14*
X55085000Y-55880000D03*
X45085000Y-55880000D03*
X18575000Y-5715000D03*
X28575000Y-5715000D03*
D15*
X2540000Y-71120000D03*
X2540000Y-73660000D03*
X2540000Y-76200000D03*
D16*
X2540000Y-78740000D03*
X2540000Y-81280000D03*
X2540000Y-83820000D03*
X2540000Y-86360000D03*
D17*
X2540000Y-88900000D03*
D15*
X2540000Y-45085000D03*
X2540000Y-47625000D03*
X2540000Y-50165000D03*
X2540000Y-52705000D03*
X2540000Y-55245000D03*
X2540000Y-57785000D03*
X2540000Y-60325000D03*
D18*
X2540000Y-62865000D03*
D15*
X2540000Y-17145000D03*
X2540000Y-19685000D03*
X2540000Y-22225000D03*
X2540000Y-24765000D03*
X2540000Y-27305000D03*
X2540000Y-29845000D03*
X2540000Y-32385000D03*
D18*
X2540000Y-34925000D03*
D19*
X43180000Y-65405000D03*
D20*
X45720000Y-65405000D03*
D19*
X52070000Y-65405000D03*
D20*
X54610000Y-65405000D03*
D19*
X60960000Y-65405000D03*
D20*
X63500000Y-65405000D03*
D16*
X67310000Y-51435000D03*
X82550000Y-18415000D03*
X67310000Y-48895000D03*
X82550000Y-20955000D03*
X67310000Y-46355000D03*
X82550000Y-23495000D03*
X67310000Y-43815000D03*
X82550000Y-26035000D03*
X67310000Y-41275000D03*
X82550000Y-28575000D03*
X67310000Y-38735000D03*
X82550000Y-31115000D03*
X67310000Y-36195000D03*
X82550000Y-33655000D03*
X67310000Y-33655000D03*
X82550000Y-36195000D03*
X67310000Y-31115000D03*
X82550000Y-38735000D03*
X67310000Y-28575000D03*
X82550000Y-41275000D03*
X67310000Y-26035000D03*
X82550000Y-43815000D03*
X67310000Y-23495000D03*
X82550000Y-46355000D03*
X67310000Y-20955000D03*
X82550000Y-48895000D03*
X67310000Y-18415000D03*
D17*
X82550000Y-51435000D03*
D21*
X71120000Y-75565000D03*
X78740000Y-60325000D03*
X71120000Y-73025000D03*
X78740000Y-62865000D03*
X71120000Y-70485000D03*
X78740000Y-65405000D03*
X71120000Y-67945000D03*
X78740000Y-67945000D03*
X71120000Y-65405000D03*
X78740000Y-70485000D03*
X71120000Y-62865000D03*
X78740000Y-73025000D03*
X71120000Y-60325000D03*
D22*
X78740000Y-75565000D03*
D14*
X40005000Y-84930000D03*
X40005000Y-74930000D03*
D15*
X13970000Y-79375000D03*
D23*
X16510000Y-79375000D03*
X19050000Y-79375000D03*
D15*
X21590000Y-79375000D03*
X24130000Y-79375000D03*
X26670000Y-79375000D03*
X29210000Y-79375000D03*
D18*
X31750000Y-79375000D03*
D24*
X31750000Y-10795000D03*
D23*
X13970000Y-18415000D03*
X29210000Y-10795000D03*
X16510000Y-18415000D03*
X26670000Y-10795000D03*
X19050000Y-18415000D03*
X24130000Y-10795000D03*
X21590000Y-18415000D03*
X21590000Y-10795000D03*
X24130000Y-18415000D03*
X19050000Y-10795000D03*
X26670000Y-18415000D03*
X16510000Y-10795000D03*
X29210000Y-18415000D03*
X13970000Y-10795000D03*
X31750000Y-18415000D03*
D17*
X59690000Y-51435000D03*
D16*
X44450000Y-18415000D03*
X59690000Y-48895000D03*
X44450000Y-20955000D03*
X59690000Y-46355000D03*
X44450000Y-23495000D03*
X59690000Y-43815000D03*
X44450000Y-26035000D03*
X59690000Y-41275000D03*
X44450000Y-28575000D03*
X59690000Y-38735000D03*
X44450000Y-31115000D03*
X59690000Y-36195000D03*
X44450000Y-33655000D03*
X59690000Y-33655000D03*
X44450000Y-36195000D03*
X59690000Y-31115000D03*
X44450000Y-38735000D03*
X59690000Y-28575000D03*
X44450000Y-41275000D03*
X59690000Y-26035000D03*
X44450000Y-43815000D03*
X59690000Y-23495000D03*
X44450000Y-46355000D03*
X59690000Y-20955000D03*
X44450000Y-48895000D03*
X59690000Y-18415000D03*
X44450000Y-51435000D03*
D23*
X31750000Y-37465000D03*
X13970000Y-29845000D03*
X29210000Y-37465000D03*
X16510000Y-29845000D03*
X26670000Y-37465000D03*
X19050000Y-29845000D03*
X24130000Y-37465000D03*
X21590000Y-29845000D03*
X21590000Y-37465000D03*
X24130000Y-29845000D03*
X19050000Y-37465000D03*
X26670000Y-29845000D03*
X16510000Y-37465000D03*
X29210000Y-29845000D03*
X13970000Y-37465000D03*
D24*
X31750000Y-29845000D03*
X31750000Y-46355000D03*
D23*
X13970000Y-53975000D03*
X29210000Y-46355000D03*
X16510000Y-53975000D03*
X26670000Y-46355000D03*
X19050000Y-53975000D03*
X24130000Y-46355000D03*
X21590000Y-53975000D03*
X21590000Y-46355000D03*
X24130000Y-53975000D03*
X19050000Y-46355000D03*
X26670000Y-53975000D03*
X16510000Y-46355000D03*
X29210000Y-53975000D03*
X13970000Y-46355000D03*
X31750000Y-53975000D03*
X31750000Y-71755000D03*
X13970000Y-64135000D03*
X29210000Y-71755000D03*
X16510000Y-64135000D03*
X26670000Y-71755000D03*
X19050000Y-64135000D03*
X24130000Y-71755000D03*
X21590000Y-64135000D03*
X21590000Y-71755000D03*
X24130000Y-64135000D03*
X19050000Y-71755000D03*
X26670000Y-64135000D03*
X16510000Y-71755000D03*
X29210000Y-64135000D03*
X13970000Y-71755000D03*
D24*
X31750000Y-64135000D03*
D25*
X57785000Y-60325000D03*
X57785000Y-65405000D03*
X77470000Y-53340000D03*
X53975000Y-31115000D03*
X62865000Y-60325000D03*
X37465000Y-48895000D03*
X40005000Y-49530000D03*
X41910000Y-47625000D03*
X24130000Y-42545000D03*
D26*
X16510000Y-10795000D02*
X13970000Y-10795000D01*
X21590000Y-36195000D02*
X21590000Y-37465000D01*
X20955000Y-35560000D02*
X21590000Y-36195000D01*
X10795000Y-35560000D02*
X20955000Y-35560000D01*
X10160000Y-34925000D02*
X10795000Y-35560000D01*
X2540000Y-34925000D02*
X10160000Y-34925000D01*
X3175000Y-32385000D02*
X2540000Y-32385000D01*
X26670000Y-34925000D02*
X26670000Y-37465000D01*
X26035000Y-34290000D02*
X26670000Y-34925000D01*
X11430000Y-34290000D02*
X26035000Y-34290000D01*
X9525000Y-32385000D02*
X11430000Y-34290000D01*
X2540000Y-32385000D02*
X9525000Y-32385000D01*
X26670000Y-32385000D02*
X26670000Y-29845000D01*
X26035000Y-33020000D02*
X26670000Y-32385000D01*
X12065000Y-33020000D02*
X26035000Y-33020000D01*
X8890000Y-29845000D02*
X12065000Y-33020000D01*
X2540000Y-29845000D02*
X8890000Y-29845000D01*
X21590000Y-31115000D02*
X21590000Y-29845000D01*
X20955000Y-31750000D02*
X21590000Y-31115000D01*
X12700000Y-31750000D02*
X20955000Y-31750000D01*
X8255000Y-27305000D02*
X12700000Y-31750000D01*
X2540000Y-27305000D02*
X8255000Y-27305000D01*
X21590000Y-16510000D02*
X21590000Y-18415000D01*
X20955000Y-15875000D02*
X21590000Y-16510000D01*
X10795000Y-17780000D02*
X12700000Y-15875000D01*
X10795000Y-21590000D02*
X10795000Y-17780000D01*
X12700000Y-15875000D02*
X20955000Y-15875000D01*
X7620000Y-24765000D02*
X10795000Y-21590000D01*
X2540000Y-24765000D02*
X7620000Y-24765000D01*
X26670000Y-15875000D02*
X26670000Y-18415000D01*
X25400000Y-14605000D02*
X26670000Y-15875000D01*
X12065000Y-14605000D02*
X25400000Y-14605000D01*
X9525000Y-17145000D02*
X12065000Y-14605000D01*
X9525000Y-20320000D02*
X9525000Y-17145000D01*
X7620000Y-22225000D02*
X9525000Y-20320000D01*
X2540000Y-22225000D02*
X7620000Y-22225000D01*
X6985000Y-19685000D02*
X2540000Y-19685000D01*
X8255000Y-18415000D02*
X6985000Y-19685000D01*
X8255000Y-16510000D02*
X8255000Y-18415000D01*
X11430000Y-13335000D02*
X8255000Y-16510000D01*
X26035000Y-13335000D02*
X11430000Y-13335000D01*
X26670000Y-12700000D02*
X26035000Y-13335000D01*
X26670000Y-10795000D02*
X26670000Y-12700000D01*
X5715000Y-17145000D02*
X2540000Y-17145000D01*
X11112500Y-11747500D02*
X5715000Y-17145000D01*
X11112500Y-9207500D02*
X11112500Y-11747500D01*
X12065000Y-8255000D02*
X11112500Y-9207500D01*
X20955000Y-8255000D02*
X12065000Y-8255000D01*
X21590000Y-8890000D02*
X20955000Y-8255000D01*
X21590000Y-10795000D02*
X21590000Y-8890000D01*
X20955000Y-48260000D02*
X21590000Y-47625000D01*
X12065000Y-48260000D02*
X20955000Y-48260000D01*
X8890000Y-45085000D02*
X12065000Y-48260000D01*
X21590000Y-47625000D02*
X21590000Y-46355000D01*
X2540000Y-45085000D02*
X8890000Y-45085000D01*
X26670000Y-48260000D02*
X26670000Y-46355000D01*
X25400000Y-49530000D02*
X26670000Y-48260000D01*
X11430000Y-49530000D02*
X25400000Y-49530000D01*
X9525000Y-47625000D02*
X11430000Y-49530000D01*
X2540000Y-47625000D02*
X9525000Y-47625000D01*
X10160000Y-50165000D02*
X2540000Y-50165000D01*
X10795000Y-50800000D02*
X10160000Y-50165000D01*
X25400000Y-50800000D02*
X10795000Y-50800000D01*
X26670000Y-52070000D02*
X25400000Y-50800000D01*
X26670000Y-53975000D02*
X26670000Y-52070000D01*
X21590000Y-52705000D02*
X21590000Y-53975000D01*
X20955000Y-52070000D02*
X21590000Y-52705000D01*
X10795000Y-52070000D02*
X20955000Y-52070000D01*
X10160000Y-52705000D02*
X10795000Y-52070000D01*
X2540000Y-52705000D02*
X10160000Y-52705000D01*
X12065000Y-66040000D02*
X20955000Y-66040000D01*
X11430000Y-65405000D02*
X12065000Y-66040000D01*
X11430000Y-56515000D02*
X11430000Y-65405000D01*
X20955000Y-66040000D02*
X21590000Y-65405000D01*
X10160000Y-55245000D02*
X11430000Y-56515000D01*
X21590000Y-65405000D02*
X21590000Y-64135000D01*
X2540000Y-55245000D02*
X10160000Y-55245000D01*
X26035000Y-67310000D02*
X26670000Y-66675000D01*
X11430000Y-67310000D02*
X26035000Y-67310000D01*
X10160000Y-58420000D02*
X10160000Y-66040000D01*
X26670000Y-66675000D02*
X26670000Y-64135000D01*
X9525000Y-57785000D02*
X10160000Y-58420000D01*
X10160000Y-66040000D02*
X11430000Y-67310000D01*
X2540000Y-57785000D02*
X9525000Y-57785000D01*
X26670000Y-69215000D02*
X26670000Y-71755000D01*
X26035000Y-68580000D02*
X26670000Y-69215000D01*
X8890000Y-66675000D02*
X10795000Y-68580000D01*
X8890000Y-60960000D02*
X8890000Y-66675000D01*
X10795000Y-68580000D02*
X26035000Y-68580000D01*
X8255000Y-60325000D02*
X8890000Y-60960000D01*
X2540000Y-60325000D02*
X8255000Y-60325000D01*
X20955000Y-69850000D02*
X21590000Y-70485000D01*
X7620000Y-67310000D02*
X10160000Y-69850000D01*
X10160000Y-69850000D02*
X20955000Y-69850000D01*
X7620000Y-63500000D02*
X7620000Y-67310000D01*
X21590000Y-70485000D02*
X21590000Y-71755000D01*
X6985000Y-62865000D02*
X7620000Y-63500000D01*
X2540000Y-62865000D02*
X6985000Y-62865000D01*
X67310000Y-28575000D02*
X64135000Y-28575000D01*
X64135000Y-28575000D02*
X62865000Y-29845000D01*
X62865000Y-29845000D02*
X57150000Y-29845000D01*
X55880000Y-28575000D02*
X44450000Y-28575000D01*
X57150000Y-29845000D02*
X55880000Y-28575000D01*
X71120000Y-28575000D02*
X67310000Y-28575000D01*
X72390000Y-29845000D02*
X71120000Y-28575000D01*
X87630000Y-78105000D02*
X87630000Y-31750000D01*
X85725000Y-29845000D02*
X72390000Y-29845000D01*
X78105000Y-87630000D02*
X87630000Y-78105000D01*
X19685000Y-87630000D02*
X78105000Y-87630000D01*
X9525000Y-77470000D02*
X19685000Y-87630000D01*
X9525000Y-73660000D02*
X9525000Y-77470000D01*
X87630000Y-31750000D02*
X85725000Y-29845000D01*
X4445000Y-68580000D02*
X9525000Y-73660000D01*
X635000Y-68580000D02*
X4445000Y-68580000D01*
X635000Y-88900000D02*
X635000Y-68580000D01*
X2540000Y-88900000D02*
X635000Y-88900000D01*
X67310000Y-26035000D02*
X64135000Y-26035000D01*
X64135000Y-26035000D02*
X62865000Y-27305000D01*
X62865000Y-27305000D02*
X57150000Y-27305000D01*
X55880000Y-26035000D02*
X44450000Y-26035000D01*
X57150000Y-27305000D02*
X55880000Y-26035000D01*
X5080000Y-86360000D02*
X2540000Y-86360000D01*
X15240000Y-96520000D02*
X5080000Y-86360000D01*
X82550000Y-96520000D02*
X15240000Y-96520000D01*
X89535000Y-12700000D02*
X96520000Y-19685000D01*
X40640000Y-12700000D02*
X89535000Y-12700000D01*
X96520000Y-19685000D02*
X96520000Y-82550000D01*
X39370000Y-13970000D02*
X40640000Y-12700000D01*
X96520000Y-82550000D02*
X82550000Y-96520000D01*
X39370000Y-23495000D02*
X39370000Y-13970000D01*
X41910000Y-26035000D02*
X39370000Y-23495000D01*
X44450000Y-26035000D02*
X41910000Y-26035000D01*
X67310000Y-23495000D02*
X64135000Y-23495000D01*
X64135000Y-23495000D02*
X62865000Y-24765000D01*
X62865000Y-24765000D02*
X57150000Y-24765000D01*
X55880000Y-23495000D02*
X44450000Y-23495000D01*
X57150000Y-24765000D02*
X55880000Y-23495000D01*
X4445000Y-83820000D02*
X2540000Y-83820000D01*
X81915000Y-95250000D02*
X15875000Y-95250000D01*
X95250000Y-20320000D02*
X95250000Y-81915000D01*
X95250000Y-81915000D02*
X81915000Y-95250000D01*
X88900000Y-13970000D02*
X95250000Y-20320000D01*
X15875000Y-95250000D02*
X4445000Y-83820000D01*
X41910000Y-13970000D02*
X88900000Y-13970000D01*
X40640000Y-15240000D02*
X41910000Y-13970000D01*
X40640000Y-21590000D02*
X40640000Y-15240000D01*
X42545000Y-23495000D02*
X40640000Y-21590000D01*
X44450000Y-23495000D02*
X42545000Y-23495000D01*
X67310000Y-20955000D02*
X64135000Y-20955000D01*
X62795010Y-22294990D02*
X57219990Y-22294990D01*
X64135000Y-20955000D02*
X62795010Y-22294990D01*
X55880000Y-20955000D02*
X44450000Y-20955000D01*
X57219990Y-22294990D02*
X55880000Y-20955000D01*
X16510000Y-93980000D02*
X80010000Y-93980000D01*
X3810000Y-81280000D02*
X16510000Y-93980000D01*
X2540000Y-81280000D02*
X3810000Y-81280000D01*
X93980000Y-20955000D02*
X93980000Y-81280000D01*
X88265000Y-15240000D02*
X93980000Y-20955000D01*
X42545000Y-15240000D02*
X88265000Y-15240000D01*
X41910000Y-15875000D02*
X42545000Y-15240000D01*
X41910000Y-20320000D02*
X41910000Y-15875000D01*
X42545000Y-20955000D02*
X41910000Y-20320000D01*
X93980000Y-81280000D02*
X81280000Y-93980000D01*
X44450000Y-20955000D02*
X42545000Y-20955000D01*
X80010000Y-93980000D02*
X81280000Y-93980000D01*
X44450000Y-18415000D02*
X55880000Y-18415000D01*
X57080010Y-19615010D02*
X62934990Y-19615010D01*
X55880000Y-18415000D02*
X57080010Y-19615010D01*
X64135000Y-18415000D02*
X67310000Y-18415000D01*
X62934990Y-19615010D02*
X64135000Y-18415000D01*
X76200000Y-18415000D02*
X67310000Y-18415000D01*
X77470000Y-19685000D02*
X76200000Y-18415000D01*
X90805000Y-19685000D02*
X77470000Y-19685000D01*
X92710000Y-80645000D02*
X92710000Y-21590000D01*
X80645000Y-92710000D02*
X92710000Y-80645000D01*
X4445000Y-80010000D02*
X17145000Y-92710000D01*
X4445000Y-79375000D02*
X4445000Y-80010000D01*
X92710000Y-21590000D02*
X90805000Y-19685000D01*
X3810000Y-78740000D02*
X4445000Y-79375000D01*
X17145000Y-92710000D02*
X80645000Y-92710000D01*
X2540000Y-78740000D02*
X3810000Y-78740000D01*
X91440000Y-80010000D02*
X91440000Y-22225000D01*
X80010000Y-91440000D02*
X91440000Y-80010000D01*
X17780000Y-91440000D02*
X78740000Y-91440000D01*
X5715000Y-79375000D02*
X17780000Y-91440000D01*
X5715000Y-77470000D02*
X5715000Y-79375000D01*
X4445000Y-76200000D02*
X5715000Y-77470000D01*
X2540000Y-76200000D02*
X4445000Y-76200000D01*
X76835000Y-20955000D02*
X82550000Y-20955000D01*
X64135000Y-19685000D02*
X75565000Y-19685000D01*
X75565000Y-19685000D02*
X76835000Y-20955000D01*
X62865000Y-20955000D02*
X64135000Y-19685000D01*
X59690000Y-20955000D02*
X62865000Y-20955000D01*
X90104992Y-20955000D02*
X91440000Y-22290008D01*
X90170000Y-20955000D02*
X91440000Y-22225000D01*
X88900000Y-20955000D02*
X90170000Y-20955000D01*
X82550000Y-20955000D02*
X88900000Y-20955000D01*
X88900000Y-20955000D02*
X90104992Y-20955000D01*
X78740000Y-91440000D02*
X80010000Y-91440000D01*
X75565000Y-23495000D02*
X82550000Y-23495000D01*
X74295000Y-22225000D02*
X75565000Y-23495000D01*
X62865000Y-23495000D02*
X64135000Y-22225000D01*
X64135000Y-22225000D02*
X74295000Y-22225000D01*
X59690000Y-23495000D02*
X62865000Y-23495000D01*
X88900000Y-23495000D02*
X82550000Y-23495000D01*
X90170000Y-24765000D02*
X88900000Y-23495000D01*
X90170000Y-79375000D02*
X90170000Y-24765000D01*
X79375000Y-90170000D02*
X90170000Y-79375000D01*
X18415000Y-90170000D02*
X79375000Y-90170000D01*
X6985000Y-78740000D02*
X18415000Y-90170000D01*
X6985000Y-76200000D02*
X6985000Y-78740000D01*
X4445000Y-73660000D02*
X6985000Y-76200000D01*
X2540000Y-73660000D02*
X4445000Y-73660000D01*
X74295000Y-26035000D02*
X82550000Y-26035000D01*
X73025000Y-24765000D02*
X74295000Y-26035000D01*
X64135000Y-24765000D02*
X73025000Y-24765000D01*
X62865000Y-26035000D02*
X64135000Y-24765000D01*
X59690000Y-26035000D02*
X62865000Y-26035000D01*
X88900000Y-78740000D02*
X88900000Y-28575000D01*
X86360000Y-26035000D02*
X82550000Y-26035000D01*
X88900000Y-28575000D02*
X86360000Y-26035000D01*
X78740000Y-88900000D02*
X88900000Y-78740000D01*
X19050000Y-88900000D02*
X78740000Y-88900000D01*
X8255000Y-74930000D02*
X8255000Y-78105000D01*
X4445000Y-71120000D02*
X8255000Y-74930000D01*
X8255000Y-78105000D02*
X19050000Y-88900000D01*
X2540000Y-71120000D02*
X4445000Y-71120000D01*
X71120000Y-70485000D02*
X71120000Y-73025000D01*
X63500000Y-65405000D02*
X63500000Y-69215000D01*
X64770000Y-70485000D02*
X63500000Y-69215000D01*
X71120000Y-70485000D02*
X64770000Y-70485000D01*
X71120000Y-73025000D02*
X69215000Y-73025000D01*
X68580000Y-73660000D02*
X68580000Y-78740000D01*
X69215000Y-73025000D02*
X68580000Y-73660000D01*
X67310000Y-36195000D02*
X64135000Y-36195000D01*
X64135000Y-36195000D02*
X62865000Y-37465000D01*
X62865000Y-37465000D02*
X57150000Y-37465000D01*
X55880000Y-36195000D02*
X44450000Y-36195000D01*
X57150000Y-37465000D02*
X55880000Y-36195000D01*
X58420000Y-60325000D02*
X58420000Y-60325000D01*
X57785000Y-65405000D02*
X57785000Y-65405000D01*
X62230000Y-55880000D02*
X57785000Y-60325000D01*
X82550000Y-55880000D02*
X62230000Y-55880000D01*
X85090000Y-53340000D02*
X82550000Y-55880000D01*
X84455000Y-37465000D02*
X85090000Y-38100000D01*
X71120000Y-37465000D02*
X84455000Y-37465000D01*
X69850000Y-36195000D02*
X71120000Y-37465000D01*
X85090000Y-38100000D02*
X85090000Y-53340000D01*
X67310000Y-36195000D02*
X69850000Y-36195000D01*
X66040000Y-76200000D02*
X66040000Y-78740000D01*
X57785000Y-67945000D02*
X66040000Y-76200000D01*
X57785000Y-65405000D02*
X57785000Y-67945000D01*
X63500000Y-76200000D02*
X62865000Y-75565000D01*
X63500000Y-78740000D02*
X63500000Y-76200000D01*
X45720000Y-67945000D02*
X53340000Y-75565000D01*
X62865000Y-75565000D02*
X53340000Y-75565000D01*
X45720000Y-67945000D02*
X45720000Y-65405000D01*
D27*
X29210000Y-64135000D02*
X29210000Y-61595000D01*
X29210000Y-61595000D02*
X28575000Y-60960000D01*
X28575000Y-60960000D02*
X19685000Y-60960000D01*
X19050000Y-61595000D02*
X19050000Y-64135000D01*
X19685000Y-60960000D02*
X19050000Y-61595000D01*
D26*
X13970000Y-18415000D02*
X13970000Y-22225000D01*
X13970000Y-22225000D02*
X16510000Y-24765000D01*
X16510000Y-24765000D02*
X16510000Y-29845000D01*
X13970000Y-37465000D02*
X13970000Y-41910000D01*
X16510000Y-44450000D02*
X16510000Y-46355000D01*
X13970000Y-41910000D02*
X16510000Y-44450000D01*
X13970000Y-53975000D02*
X13970000Y-57785000D01*
X16510000Y-60325000D02*
X16510000Y-64135000D01*
X13970000Y-57785000D02*
X16510000Y-60325000D01*
X73660000Y-62865000D02*
X71120000Y-62865000D01*
X16510000Y-74295000D02*
X16510000Y-71755000D01*
X17780000Y-75565000D02*
X16510000Y-74295000D01*
X34925000Y-75565000D02*
X17780000Y-75565000D01*
X36830000Y-73660000D02*
X34925000Y-75565000D01*
X36830000Y-66040000D02*
X36830000Y-73660000D01*
X40005000Y-62865000D02*
X36830000Y-66040000D01*
X71120000Y-62865000D02*
X40005000Y-62865000D01*
X78740000Y-73025000D02*
X78740000Y-75565000D01*
X73660000Y-62865000D02*
X74930000Y-64135000D01*
X74930000Y-64135000D02*
X80010000Y-64135000D01*
D27*
X80010000Y-64135000D02*
X81280000Y-65405000D01*
X81280000Y-65405000D02*
X81280000Y-71755000D01*
X81280000Y-71755000D02*
X80010000Y-73025000D01*
X80010000Y-73025000D02*
X78740000Y-73025000D01*
D26*
X57150000Y-31115000D02*
X59690000Y-31115000D01*
X55880000Y-29845000D02*
X57150000Y-31115000D01*
X39052500Y-29845000D02*
X55880000Y-29845000D01*
X33655000Y-24447500D02*
X39052500Y-29845000D01*
X33655000Y-11112500D02*
X33655000Y-24447500D01*
X33337500Y-10795000D02*
X33655000Y-11112500D01*
X31750000Y-10795000D02*
X33337500Y-10795000D01*
X62865000Y-31115000D02*
X59690000Y-31115000D01*
X64135000Y-29845000D02*
X62865000Y-31115000D01*
X70485000Y-29845000D02*
X64135000Y-29845000D01*
X71755000Y-31115000D02*
X70485000Y-29845000D01*
X82550000Y-31115000D02*
X71755000Y-31115000D01*
X57150000Y-36195000D02*
X59690000Y-36195000D01*
X55880000Y-34925000D02*
X57150000Y-36195000D01*
X41275000Y-34925000D02*
X55880000Y-34925000D01*
X17462500Y-22860000D02*
X29210000Y-22860000D01*
X16510000Y-21907500D02*
X17462500Y-22860000D01*
X29210000Y-22860000D02*
X41275000Y-34925000D01*
X16510000Y-18415000D02*
X16510000Y-21907500D01*
X62865000Y-36195000D02*
X59690000Y-36195000D01*
X64135000Y-34925000D02*
X62865000Y-36195000D01*
X70485000Y-34925000D02*
X64135000Y-34925000D01*
X71755000Y-36195000D02*
X70485000Y-34925000D01*
X82550000Y-36195000D02*
X71755000Y-36195000D01*
X34925000Y-24130000D02*
X34925000Y-8572500D01*
X38100000Y-27305000D02*
X34925000Y-24130000D01*
X57150000Y-28575000D02*
X55880000Y-27305000D01*
X59690000Y-28575000D02*
X57150000Y-28575000D01*
X24923750Y-8096250D02*
X24130000Y-8890000D01*
X34448750Y-8096250D02*
X24923750Y-8096250D01*
X24130000Y-8890000D02*
X24130000Y-10795000D01*
X34925000Y-8572500D02*
X34448750Y-8096250D01*
X38100000Y-27305000D02*
X55880000Y-27305000D01*
X62865000Y-28575000D02*
X59690000Y-28575000D01*
X64135000Y-27305000D02*
X62865000Y-28575000D01*
X71755000Y-27305000D02*
X64135000Y-27305000D01*
X73025000Y-28575000D02*
X71755000Y-27305000D01*
X82550000Y-28575000D02*
X73025000Y-28575000D01*
X57150000Y-33655000D02*
X59690000Y-33655000D01*
X55880000Y-32385000D02*
X57150000Y-33655000D01*
X40005000Y-32385000D02*
X55880000Y-32385000D01*
X29210000Y-21590000D02*
X40005000Y-32385000D01*
X24765000Y-21590000D02*
X29210000Y-21590000D01*
X24130000Y-20955000D02*
X24765000Y-21590000D01*
X24130000Y-18415000D02*
X24130000Y-20955000D01*
X62865000Y-33655000D02*
X59690000Y-33655000D01*
X64135000Y-32385000D02*
X62865000Y-33655000D01*
X69215000Y-32385000D02*
X64135000Y-32385000D01*
X70485000Y-33655000D02*
X69215000Y-32385000D01*
X82550000Y-33655000D02*
X70485000Y-33655000D01*
X62230000Y-51435000D02*
X59690000Y-51435000D01*
X24130000Y-73660000D02*
X24130000Y-71755000D01*
X33655000Y-74295000D02*
X24765000Y-74295000D01*
X35560000Y-72390000D02*
X33655000Y-74295000D01*
X35560000Y-64770000D02*
X35560000Y-72390000D01*
X53340000Y-61595000D02*
X38735000Y-61595000D01*
X24765000Y-74295000D02*
X24130000Y-73660000D01*
X59690000Y-55245000D02*
X53340000Y-61595000D01*
X38735000Y-61595000D02*
X35560000Y-64770000D01*
X59690000Y-51435000D02*
X59690000Y-55245000D01*
X64135000Y-53340000D02*
X62230000Y-51435000D01*
X77470000Y-53340000D02*
X64135000Y-53340000D01*
X24130000Y-62865000D02*
X24130000Y-64135000D01*
X59690000Y-48895000D02*
X55245000Y-48895000D01*
X27940000Y-65405000D02*
X27940000Y-62865000D01*
X55245000Y-48895000D02*
X53975000Y-50165000D01*
X27940000Y-62865000D02*
X27305000Y-62230000D01*
X53975000Y-50165000D02*
X53975000Y-53340000D01*
X46990000Y-60325000D02*
X37465000Y-60325000D01*
X37465000Y-60325000D02*
X34290000Y-63500000D01*
X34290000Y-63500000D02*
X34290000Y-65405000D01*
X27305000Y-62230000D02*
X24765000Y-62230000D01*
X53975000Y-53340000D02*
X46990000Y-60325000D01*
X34290000Y-65405000D02*
X33655000Y-66040000D01*
X33655000Y-66040000D02*
X28575000Y-66040000D01*
X24765000Y-62230000D02*
X24130000Y-62865000D01*
X28575000Y-66040000D02*
X27940000Y-65405000D01*
X62865000Y-48895000D02*
X59690000Y-48895000D01*
X64135000Y-47625000D02*
X62865000Y-48895000D01*
X69215000Y-47625000D02*
X64135000Y-47625000D01*
X70485000Y-48895000D02*
X69215000Y-47625000D01*
X82550000Y-48895000D02*
X70485000Y-48895000D01*
X16510000Y-41910000D02*
X16510000Y-37465000D01*
X18732500Y-44132500D02*
X16510000Y-41910000D01*
X33337500Y-44132500D02*
X18732500Y-44132500D01*
X34290000Y-45085000D02*
X33337500Y-44132500D01*
X55880000Y-45085000D02*
X34290000Y-45085000D01*
X57150000Y-46355000D02*
X55880000Y-45085000D01*
X59690000Y-46355000D02*
X57150000Y-46355000D01*
X62865000Y-46355000D02*
X59690000Y-46355000D01*
X64135000Y-45085000D02*
X62865000Y-46355000D01*
X69215000Y-45085000D02*
X64135000Y-45085000D01*
X70485000Y-46355000D02*
X69215000Y-45085000D01*
X82550000Y-46355000D02*
X70485000Y-46355000D01*
X57150000Y-43815000D02*
X59690000Y-43815000D01*
X55880000Y-42545000D02*
X57150000Y-43815000D01*
X37465000Y-42545000D02*
X55880000Y-42545000D01*
X36195000Y-41275000D02*
X37465000Y-42545000D01*
X25400000Y-41275000D02*
X36195000Y-41275000D01*
X24130000Y-40005000D02*
X25400000Y-41275000D01*
X24130000Y-37465000D02*
X24130000Y-40005000D01*
X62865000Y-43815000D02*
X59690000Y-43815000D01*
X64135000Y-42545000D02*
X62865000Y-43815000D01*
X69215000Y-42545000D02*
X64135000Y-42545000D01*
X70485000Y-43815000D02*
X69215000Y-42545000D01*
X82550000Y-43815000D02*
X70485000Y-43815000D01*
X55880000Y-40005000D02*
X57150000Y-41275000D01*
X40005000Y-40005000D02*
X55880000Y-40005000D01*
X31750000Y-31750000D02*
X40005000Y-40005000D01*
X57150000Y-41275000D02*
X59690000Y-41275000D01*
X31750000Y-29845000D02*
X31750000Y-31750000D01*
X62865000Y-41275000D02*
X59690000Y-41275000D01*
X64135000Y-40005000D02*
X62865000Y-41275000D01*
X69215000Y-40005000D02*
X64135000Y-40005000D01*
X70485000Y-41275000D02*
X69215000Y-40005000D01*
X82550000Y-41275000D02*
X70485000Y-41275000D01*
X57150000Y-38735000D02*
X59690000Y-38735000D01*
X55880000Y-37465000D02*
X57150000Y-38735000D01*
X42227500Y-37465000D02*
X55880000Y-37465000D01*
X31115000Y-26352500D02*
X42227500Y-37465000D01*
X24765000Y-26352500D02*
X31115000Y-26352500D01*
X24130000Y-26987500D02*
X24765000Y-26352500D01*
X24130000Y-29845000D02*
X24130000Y-26987500D01*
X64135000Y-37465000D02*
X62865000Y-38735000D01*
X69215000Y-37465000D02*
X64135000Y-37465000D01*
X62865000Y-38735000D02*
X59690000Y-38735000D01*
X70485000Y-38735000D02*
X69215000Y-37465000D01*
X82550000Y-38735000D02*
X70485000Y-38735000D01*
D27*
X44450000Y-31115000D02*
X53975000Y-31115000D01*
D26*
X78740000Y-62865000D02*
X76835000Y-62865000D01*
X76835000Y-62865000D02*
X75565000Y-61595000D01*
X75565000Y-61595000D02*
X73025000Y-61595000D01*
X73025000Y-61595000D02*
X66675000Y-61595000D01*
X66675000Y-61595000D02*
X64135000Y-61595000D01*
X64135000Y-61595000D02*
X62865000Y-60325000D01*
X62865000Y-60325000D02*
X62865000Y-60325000D01*
X55880000Y-33655000D02*
X44450000Y-33655000D01*
X62865000Y-34925000D02*
X57150000Y-34925000D01*
X64135000Y-33655000D02*
X62865000Y-34925000D01*
X57150000Y-34925000D02*
X55880000Y-33655000D01*
X67310000Y-33655000D02*
X64135000Y-33655000D01*
X24130000Y-53975000D02*
X24130000Y-55880000D01*
X24130000Y-55880000D02*
X24765000Y-56515000D01*
X24765000Y-56515000D02*
X33655000Y-56515000D01*
X33655000Y-56515000D02*
X37465000Y-52705000D01*
X37465000Y-52705000D02*
X37465000Y-48895000D01*
X37465000Y-48895000D02*
X37465000Y-48895000D01*
X55880000Y-38735000D02*
X44450000Y-38735000D01*
X57150000Y-40005000D02*
X55880000Y-38735000D01*
X62865000Y-40005000D02*
X57150000Y-40005000D01*
X64135000Y-38735000D02*
X62865000Y-40005000D01*
X67310000Y-38735000D02*
X64135000Y-38735000D01*
X34290000Y-57785000D02*
X40005000Y-52070000D01*
X17145000Y-57785000D02*
X34290000Y-57785000D01*
X40005000Y-52070000D02*
X40005000Y-49530000D01*
X16510000Y-57150000D02*
X17145000Y-57785000D01*
X16510000Y-53975000D02*
X16510000Y-57150000D01*
X44450000Y-41275000D02*
X55880000Y-41275000D01*
X55880000Y-41275000D02*
X57150000Y-42545000D01*
X57150000Y-42545000D02*
X62865000Y-42545000D01*
X62865000Y-42545000D02*
X64135000Y-41275000D01*
X64135000Y-41275000D02*
X67310000Y-41275000D01*
X40640000Y-47625000D02*
X41910000Y-47625000D01*
X39370000Y-46355000D02*
X40640000Y-47625000D01*
X31750000Y-46355000D02*
X39370000Y-46355000D01*
X44450000Y-43815000D02*
X55880000Y-43815000D01*
X55880000Y-43815000D02*
X57150000Y-45085000D01*
X57150000Y-45085000D02*
X62865000Y-45085000D01*
X62865000Y-45085000D02*
X64135000Y-43815000D01*
X64135000Y-43815000D02*
X67310000Y-43815000D01*
X44450000Y-43815000D02*
X35560000Y-43815000D01*
X35560000Y-43815000D02*
X34290000Y-42545000D01*
X34290000Y-42545000D02*
X31115000Y-42545000D01*
X31115000Y-42545000D02*
X24130000Y-42545000D01*
X24130000Y-42545000D02*
X24130000Y-42545000D01*
X57150000Y-47625000D02*
X55880000Y-46355000D01*
X62865000Y-47625000D02*
X57150000Y-47625000D01*
X64135000Y-46355000D02*
X62865000Y-47625000D01*
X67310000Y-46355000D02*
X64135000Y-46355000D01*
X46990000Y-46355000D02*
X44450000Y-46355000D01*
X52705000Y-46355000D02*
X46990000Y-46355000D01*
X55880000Y-46355000D02*
X52705000Y-46355000D01*
X31750000Y-62865000D02*
X31750000Y-64135000D01*
X35560000Y-59055000D02*
X31750000Y-62865000D01*
X45720000Y-59055000D02*
X35560000Y-59055000D01*
X52705000Y-52070000D02*
X45720000Y-59055000D01*
X52705000Y-46355000D02*
X52705000Y-52070000D01*
X71120000Y-65405000D02*
X71120000Y-67945000D01*
X78740000Y-65405000D02*
X71120000Y-65405000D01*
X71120000Y-58420000D02*
X71120000Y-60325000D01*
X71755000Y-57785000D02*
X71120000Y-58420000D01*
X82550000Y-57785000D02*
X71755000Y-57785000D01*
X86360000Y-53975000D02*
X82550000Y-57785000D01*
X69850000Y-31115000D02*
X71120000Y-32385000D01*
X67310000Y-31115000D02*
X69850000Y-31115000D01*
X85090000Y-32385000D02*
X86360000Y-33655000D01*
X86360000Y-33655000D02*
X86360000Y-53975000D01*
X71120000Y-32385000D02*
X85090000Y-32385000D01*
X78740000Y-67945000D02*
X78740000Y-70485000D01*
M02*
