G04 #@! TF.GenerationSoftware,KiCad,Pcbnew,(5.1.8)-1*
G04 #@! TF.CreationDate,2024-07-22T19:57:12+03:00*
G04 #@! TF.ProjectId,RAM,52414d2e-6b69-4636-9164-5f7063625858,rev?*
G04 #@! TF.SameCoordinates,PXc1c960PYc1c960*
G04 #@! TF.FileFunction,Soldermask,Bot*
G04 #@! TF.FilePolarity,Negative*
%FSLAX46Y46*%
G04 Gerber Fmt 4.6, Leading zero omitted, Abs format (unit mm)*
G04 Created by KiCad (PCBNEW (5.1.8)-1) date 2024-07-22 19:57:12*
%MOMM*%
%LPD*%
G01*
G04 APERTURE LIST*
%ADD10C,2.000000*%
%ADD11O,2.000000X2.000000*%
%ADD12R,2.000000X2.000000*%
%ADD13O,2.000000X1.500000*%
%ADD14R,2.000000X1.500000*%
%ADD15C,1.800000*%
%ADD16R,1.800000X1.800000*%
%ADD17C,3.200000*%
%ADD18O,1.800000X1.500000*%
%ADD19R,1.800000X1.500000*%
%ADD20O,1.500000X2.000000*%
%ADD21R,1.500000X2.000000*%
G04 APERTURE END LIST*
D10*
X55085000Y-55880000D03*
X45085000Y-55880000D03*
X18575000Y-5715000D03*
X28575000Y-5715000D03*
D11*
X48260000Y-80645000D03*
X50800000Y-80645000D03*
X53340000Y-80645000D03*
X55880000Y-80645000D03*
D12*
X58420000Y-80645000D03*
D11*
X2540000Y-71120000D03*
X2540000Y-73660000D03*
X2540000Y-76200000D03*
D13*
X2540000Y-78740000D03*
X2540000Y-81280000D03*
X2540000Y-83820000D03*
X2540000Y-86360000D03*
D14*
X2540000Y-88900000D03*
D11*
X2540000Y-45085000D03*
X2540000Y-47625000D03*
X2540000Y-50165000D03*
X2540000Y-52705000D03*
X2540000Y-55245000D03*
X2540000Y-57785000D03*
X2540000Y-60325000D03*
D12*
X2540000Y-62865000D03*
D11*
X2540000Y-17145000D03*
X2540000Y-19685000D03*
X2540000Y-22225000D03*
X2540000Y-24765000D03*
X2540000Y-27305000D03*
X2540000Y-29845000D03*
X2540000Y-32385000D03*
D12*
X2540000Y-34925000D03*
D15*
X43180000Y-65405000D03*
D16*
X45720000Y-65405000D03*
D15*
X52070000Y-65405000D03*
D16*
X54610000Y-65405000D03*
D15*
X60960000Y-65405000D03*
D16*
X63500000Y-65405000D03*
D17*
X93980000Y-93980000D03*
X93980000Y-5080000D03*
X5080000Y-93980000D03*
X5080000Y-5080000D03*
D13*
X67310000Y-51435000D03*
X82550000Y-18415000D03*
X67310000Y-48895000D03*
X82550000Y-20955000D03*
X67310000Y-46355000D03*
X82550000Y-23495000D03*
X67310000Y-43815000D03*
X82550000Y-26035000D03*
X67310000Y-41275000D03*
X82550000Y-28575000D03*
X67310000Y-38735000D03*
X82550000Y-31115000D03*
X67310000Y-36195000D03*
X82550000Y-33655000D03*
X67310000Y-33655000D03*
X82550000Y-36195000D03*
X67310000Y-31115000D03*
X82550000Y-38735000D03*
X67310000Y-28575000D03*
X82550000Y-41275000D03*
X67310000Y-26035000D03*
X82550000Y-43815000D03*
X67310000Y-23495000D03*
X82550000Y-46355000D03*
X67310000Y-20955000D03*
X82550000Y-48895000D03*
X67310000Y-18415000D03*
D14*
X82550000Y-51435000D03*
D18*
X71120000Y-75565000D03*
X78740000Y-60325000D03*
X71120000Y-73025000D03*
X78740000Y-62865000D03*
X71120000Y-70485000D03*
X78740000Y-65405000D03*
X71120000Y-67945000D03*
X78740000Y-67945000D03*
X71120000Y-65405000D03*
X78740000Y-70485000D03*
X71120000Y-62865000D03*
X78740000Y-73025000D03*
X71120000Y-60325000D03*
D19*
X78740000Y-75565000D03*
D10*
X40005000Y-84930000D03*
X40005000Y-74930000D03*
D11*
X13970000Y-79375000D03*
D20*
X16510000Y-79375000D03*
X19050000Y-79375000D03*
D11*
X21590000Y-79375000D03*
X24130000Y-79375000D03*
X26670000Y-79375000D03*
X29210000Y-79375000D03*
D12*
X31750000Y-79375000D03*
D21*
X31750000Y-10795000D03*
D20*
X13970000Y-18415000D03*
X29210000Y-10795000D03*
X16510000Y-18415000D03*
X26670000Y-10795000D03*
X19050000Y-18415000D03*
X24130000Y-10795000D03*
X21590000Y-18415000D03*
X21590000Y-10795000D03*
X24130000Y-18415000D03*
X19050000Y-10795000D03*
X26670000Y-18415000D03*
X16510000Y-10795000D03*
X29210000Y-18415000D03*
X13970000Y-10795000D03*
X31750000Y-18415000D03*
D14*
X59690000Y-51435000D03*
D13*
X44450000Y-18415000D03*
X59690000Y-48895000D03*
X44450000Y-20955000D03*
X59690000Y-46355000D03*
X44450000Y-23495000D03*
X59690000Y-43815000D03*
X44450000Y-26035000D03*
X59690000Y-41275000D03*
X44450000Y-28575000D03*
X59690000Y-38735000D03*
X44450000Y-31115000D03*
X59690000Y-36195000D03*
X44450000Y-33655000D03*
X59690000Y-33655000D03*
X44450000Y-36195000D03*
X59690000Y-31115000D03*
X44450000Y-38735000D03*
X59690000Y-28575000D03*
X44450000Y-41275000D03*
X59690000Y-26035000D03*
X44450000Y-43815000D03*
X59690000Y-23495000D03*
X44450000Y-46355000D03*
X59690000Y-20955000D03*
X44450000Y-48895000D03*
X59690000Y-18415000D03*
X44450000Y-51435000D03*
D20*
X31750000Y-37465000D03*
X13970000Y-29845000D03*
X29210000Y-37465000D03*
X16510000Y-29845000D03*
X26670000Y-37465000D03*
X19050000Y-29845000D03*
X24130000Y-37465000D03*
X21590000Y-29845000D03*
X21590000Y-37465000D03*
X24130000Y-29845000D03*
X19050000Y-37465000D03*
X26670000Y-29845000D03*
X16510000Y-37465000D03*
X29210000Y-29845000D03*
X13970000Y-37465000D03*
D21*
X31750000Y-29845000D03*
X31750000Y-46355000D03*
D20*
X13970000Y-53975000D03*
X29210000Y-46355000D03*
X16510000Y-53975000D03*
X26670000Y-46355000D03*
X19050000Y-53975000D03*
X24130000Y-46355000D03*
X21590000Y-53975000D03*
X21590000Y-46355000D03*
X24130000Y-53975000D03*
X19050000Y-46355000D03*
X26670000Y-53975000D03*
X16510000Y-46355000D03*
X29210000Y-53975000D03*
X13970000Y-46355000D03*
X31750000Y-53975000D03*
X31750000Y-71755000D03*
X13970000Y-64135000D03*
X29210000Y-71755000D03*
X16510000Y-64135000D03*
X26670000Y-71755000D03*
X19050000Y-64135000D03*
X24130000Y-71755000D03*
X21590000Y-64135000D03*
X21590000Y-71755000D03*
X24130000Y-64135000D03*
X19050000Y-71755000D03*
X26670000Y-64135000D03*
X16510000Y-71755000D03*
X29210000Y-64135000D03*
X13970000Y-71755000D03*
D21*
X31750000Y-64135000D03*
M02*
