G04 #@! TF.GenerationSoftware,KiCad,Pcbnew,(5.1.8)-1*
G04 #@! TF.CreationDate,2024-07-22T19:57:11+03:00*
G04 #@! TF.ProjectId,RAM,52414d2e-6b69-4636-9164-5f7063625858,rev?*
G04 #@! TF.SameCoordinates,PXc1c960PYc1c960*
G04 #@! TF.FileFunction,Soldermask,Top*
G04 #@! TF.FilePolarity,Negative*
%FSLAX46Y46*%
G04 Gerber Fmt 4.6, Leading zero omitted, Abs format (unit mm)*
G04 Created by KiCad (PCBNEW (5.1.8)-1) date 2024-07-22 19:57:11*
%MOMM*%
%LPD*%
G01*
G04 APERTURE LIST*
%ADD10R,0.800000X0.900000*%
%ADD11R,1.000000X1.500000*%
%ADD12C,2.000000*%
%ADD13O,2.000000X2.000000*%
%ADD14R,2.000000X2.000000*%
%ADD15O,2.000000X1.500000*%
%ADD16R,2.000000X1.500000*%
%ADD17C,1.800000*%
%ADD18R,1.800000X1.800000*%
%ADD19C,3.200000*%
%ADD20O,1.800000X1.500000*%
%ADD21R,1.800000X1.500000*%
%ADD22O,1.500000X2.000000*%
%ADD23R,1.500000X2.000000*%
G04 APERTURE END LIST*
D10*
X44450000Y-79740000D03*
X43500000Y-77740000D03*
X45400000Y-77740000D03*
D11*
X83850000Y-55245000D03*
X82550000Y-55245000D03*
X81250000Y-55245000D03*
X73690000Y-55245000D03*
X72390000Y-55245000D03*
X71090000Y-55245000D03*
D12*
X55085000Y-55880000D03*
X45085000Y-55880000D03*
X18575000Y-5715000D03*
X28575000Y-5715000D03*
D13*
X48260000Y-80645000D03*
X50800000Y-80645000D03*
X53340000Y-80645000D03*
X55880000Y-80645000D03*
D14*
X58420000Y-80645000D03*
D13*
X2540000Y-71120000D03*
X2540000Y-73660000D03*
X2540000Y-76200000D03*
D15*
X2540000Y-78740000D03*
X2540000Y-81280000D03*
X2540000Y-83820000D03*
X2540000Y-86360000D03*
D16*
X2540000Y-88900000D03*
D13*
X2540000Y-45085000D03*
X2540000Y-47625000D03*
X2540000Y-50165000D03*
X2540000Y-52705000D03*
X2540000Y-55245000D03*
X2540000Y-57785000D03*
X2540000Y-60325000D03*
D14*
X2540000Y-62865000D03*
D13*
X2540000Y-17145000D03*
X2540000Y-19685000D03*
X2540000Y-22225000D03*
X2540000Y-24765000D03*
X2540000Y-27305000D03*
X2540000Y-29845000D03*
X2540000Y-32385000D03*
D14*
X2540000Y-34925000D03*
D17*
X43180000Y-65405000D03*
D18*
X45720000Y-65405000D03*
D17*
X52070000Y-65405000D03*
D18*
X54610000Y-65405000D03*
D17*
X60960000Y-65405000D03*
D18*
X63500000Y-65405000D03*
D19*
X93980000Y-93980000D03*
X93980000Y-5080000D03*
X5080000Y-93980000D03*
X5080000Y-5080000D03*
D15*
X67310000Y-51435000D03*
X82550000Y-18415000D03*
X67310000Y-48895000D03*
X82550000Y-20955000D03*
X67310000Y-46355000D03*
X82550000Y-23495000D03*
X67310000Y-43815000D03*
X82550000Y-26035000D03*
X67310000Y-41275000D03*
X82550000Y-28575000D03*
X67310000Y-38735000D03*
X82550000Y-31115000D03*
X67310000Y-36195000D03*
X82550000Y-33655000D03*
X67310000Y-33655000D03*
X82550000Y-36195000D03*
X67310000Y-31115000D03*
X82550000Y-38735000D03*
X67310000Y-28575000D03*
X82550000Y-41275000D03*
X67310000Y-26035000D03*
X82550000Y-43815000D03*
X67310000Y-23495000D03*
X82550000Y-46355000D03*
X67310000Y-20955000D03*
X82550000Y-48895000D03*
X67310000Y-18415000D03*
D16*
X82550000Y-51435000D03*
D20*
X71120000Y-75565000D03*
X78740000Y-60325000D03*
X71120000Y-73025000D03*
X78740000Y-62865000D03*
X71120000Y-70485000D03*
X78740000Y-65405000D03*
X71120000Y-67945000D03*
X78740000Y-67945000D03*
X71120000Y-65405000D03*
X78740000Y-70485000D03*
X71120000Y-62865000D03*
X78740000Y-73025000D03*
X71120000Y-60325000D03*
D21*
X78740000Y-75565000D03*
D12*
X40005000Y-84930000D03*
X40005000Y-74930000D03*
D13*
X13970000Y-79375000D03*
D22*
X16510000Y-79375000D03*
X19050000Y-79375000D03*
D13*
X21590000Y-79375000D03*
X24130000Y-79375000D03*
X26670000Y-79375000D03*
X29210000Y-79375000D03*
D14*
X31750000Y-79375000D03*
G36*
G01*
X60775001Y-70355000D02*
X59874999Y-70355000D01*
G75*
G02*
X59625000Y-70105001I0J249999D01*
G01*
X59625000Y-69404999D01*
G75*
G02*
X59874999Y-69155000I249999J0D01*
G01*
X60775001Y-69155000D01*
G75*
G02*
X61025000Y-69404999I0J-249999D01*
G01*
X61025000Y-70105001D01*
G75*
G02*
X60775001Y-70355000I-249999J0D01*
G01*
G37*
G36*
G01*
X60775001Y-72355000D02*
X59874999Y-72355000D01*
G75*
G02*
X59625000Y-72105001I0J249999D01*
G01*
X59625000Y-71404999D01*
G75*
G02*
X59874999Y-71155000I249999J0D01*
G01*
X60775001Y-71155000D01*
G75*
G02*
X61025000Y-71404999I0J-249999D01*
G01*
X61025000Y-72105001D01*
G75*
G02*
X60775001Y-72355000I-249999J0D01*
G01*
G37*
G36*
G01*
X51885001Y-72355000D02*
X50984999Y-72355000D01*
G75*
G02*
X50735000Y-72105001I0J249999D01*
G01*
X50735000Y-71404999D01*
G75*
G02*
X50984999Y-71155000I249999J0D01*
G01*
X51885001Y-71155000D01*
G75*
G02*
X52135000Y-71404999I0J-249999D01*
G01*
X52135000Y-72105001D01*
G75*
G02*
X51885001Y-72355000I-249999J0D01*
G01*
G37*
G36*
G01*
X51885001Y-70355000D02*
X50984999Y-70355000D01*
G75*
G02*
X50735000Y-70105001I0J249999D01*
G01*
X50735000Y-69404999D01*
G75*
G02*
X50984999Y-69155000I249999J0D01*
G01*
X51885001Y-69155000D01*
G75*
G02*
X52135000Y-69404999I0J-249999D01*
G01*
X52135000Y-70105001D01*
G75*
G02*
X51885001Y-70355000I-249999J0D01*
G01*
G37*
G36*
G01*
X42677501Y-70355000D02*
X41777499Y-70355000D01*
G75*
G02*
X41527500Y-70105001I0J249999D01*
G01*
X41527500Y-69404999D01*
G75*
G02*
X41777499Y-69155000I249999J0D01*
G01*
X42677501Y-69155000D01*
G75*
G02*
X42927500Y-69404999I0J-249999D01*
G01*
X42927500Y-70105001D01*
G75*
G02*
X42677501Y-70355000I-249999J0D01*
G01*
G37*
G36*
G01*
X42677501Y-72355000D02*
X41777499Y-72355000D01*
G75*
G02*
X41527500Y-72105001I0J249999D01*
G01*
X41527500Y-71404999D01*
G75*
G02*
X41777499Y-71155000I249999J0D01*
G01*
X42677501Y-71155000D01*
G75*
G02*
X42927500Y-71404999I0J-249999D01*
G01*
X42927500Y-72105001D01*
G75*
G02*
X42677501Y-72355000I-249999J0D01*
G01*
G37*
D23*
X31750000Y-10795000D03*
D22*
X13970000Y-18415000D03*
X29210000Y-10795000D03*
X16510000Y-18415000D03*
X26670000Y-10795000D03*
X19050000Y-18415000D03*
X24130000Y-10795000D03*
X21590000Y-18415000D03*
X21590000Y-10795000D03*
X24130000Y-18415000D03*
X19050000Y-10795000D03*
X26670000Y-18415000D03*
X16510000Y-10795000D03*
X29210000Y-18415000D03*
X13970000Y-10795000D03*
X31750000Y-18415000D03*
D16*
X59690000Y-51435000D03*
D15*
X44450000Y-18415000D03*
X59690000Y-48895000D03*
X44450000Y-20955000D03*
X59690000Y-46355000D03*
X44450000Y-23495000D03*
X59690000Y-43815000D03*
X44450000Y-26035000D03*
X59690000Y-41275000D03*
X44450000Y-28575000D03*
X59690000Y-38735000D03*
X44450000Y-31115000D03*
X59690000Y-36195000D03*
X44450000Y-33655000D03*
X59690000Y-33655000D03*
X44450000Y-36195000D03*
X59690000Y-31115000D03*
X44450000Y-38735000D03*
X59690000Y-28575000D03*
X44450000Y-41275000D03*
X59690000Y-26035000D03*
X44450000Y-43815000D03*
X59690000Y-23495000D03*
X44450000Y-46355000D03*
X59690000Y-20955000D03*
X44450000Y-48895000D03*
X59690000Y-18415000D03*
X44450000Y-51435000D03*
D22*
X31750000Y-37465000D03*
X13970000Y-29845000D03*
X29210000Y-37465000D03*
X16510000Y-29845000D03*
X26670000Y-37465000D03*
X19050000Y-29845000D03*
X24130000Y-37465000D03*
X21590000Y-29845000D03*
X21590000Y-37465000D03*
X24130000Y-29845000D03*
X19050000Y-37465000D03*
X26670000Y-29845000D03*
X16510000Y-37465000D03*
X29210000Y-29845000D03*
X13970000Y-37465000D03*
D23*
X31750000Y-29845000D03*
X31750000Y-46355000D03*
D22*
X13970000Y-53975000D03*
X29210000Y-46355000D03*
X16510000Y-53975000D03*
X26670000Y-46355000D03*
X19050000Y-53975000D03*
X24130000Y-46355000D03*
X21590000Y-53975000D03*
X21590000Y-46355000D03*
X24130000Y-53975000D03*
X19050000Y-46355000D03*
X26670000Y-53975000D03*
X16510000Y-46355000D03*
X29210000Y-53975000D03*
X13970000Y-46355000D03*
X31750000Y-53975000D03*
X31750000Y-71755000D03*
X13970000Y-64135000D03*
X29210000Y-71755000D03*
X16510000Y-64135000D03*
X26670000Y-71755000D03*
X19050000Y-64135000D03*
X24130000Y-71755000D03*
X21590000Y-64135000D03*
X21590000Y-71755000D03*
X24130000Y-64135000D03*
X19050000Y-71755000D03*
X26670000Y-64135000D03*
X16510000Y-71755000D03*
X29210000Y-64135000D03*
X13970000Y-71755000D03*
D23*
X31750000Y-64135000D03*
G36*
G01*
X64585001Y-72355000D02*
X63684999Y-72355000D01*
G75*
G02*
X63435000Y-72105001I0J249999D01*
G01*
X63435000Y-71404999D01*
G75*
G02*
X63684999Y-71155000I249999J0D01*
G01*
X64585001Y-71155000D01*
G75*
G02*
X64835000Y-71404999I0J-249999D01*
G01*
X64835000Y-72105001D01*
G75*
G02*
X64585001Y-72355000I-249999J0D01*
G01*
G37*
G36*
G01*
X64585001Y-70355000D02*
X63684999Y-70355000D01*
G75*
G02*
X63435000Y-70105001I0J249999D01*
G01*
X63435000Y-69404999D01*
G75*
G02*
X63684999Y-69155000I249999J0D01*
G01*
X64585001Y-69155000D01*
G75*
G02*
X64835000Y-69404999I0J-249999D01*
G01*
X64835000Y-70105001D01*
G75*
G02*
X64585001Y-70355000I-249999J0D01*
G01*
G37*
G36*
G01*
X55695001Y-70355000D02*
X54794999Y-70355000D01*
G75*
G02*
X54545000Y-70105001I0J249999D01*
G01*
X54545000Y-69404999D01*
G75*
G02*
X54794999Y-69155000I249999J0D01*
G01*
X55695001Y-69155000D01*
G75*
G02*
X55945000Y-69404999I0J-249999D01*
G01*
X55945000Y-70105001D01*
G75*
G02*
X55695001Y-70355000I-249999J0D01*
G01*
G37*
G36*
G01*
X55695001Y-72355000D02*
X54794999Y-72355000D01*
G75*
G02*
X54545000Y-72105001I0J249999D01*
G01*
X54545000Y-71404999D01*
G75*
G02*
X54794999Y-71155000I249999J0D01*
G01*
X55695001Y-71155000D01*
G75*
G02*
X55945000Y-71404999I0J-249999D01*
G01*
X55945000Y-72105001D01*
G75*
G02*
X55695001Y-72355000I-249999J0D01*
G01*
G37*
G36*
G01*
X46805001Y-72355000D02*
X45904999Y-72355000D01*
G75*
G02*
X45655000Y-72105001I0J249999D01*
G01*
X45655000Y-71404999D01*
G75*
G02*
X45904999Y-71155000I249999J0D01*
G01*
X46805001Y-71155000D01*
G75*
G02*
X47055000Y-71404999I0J-249999D01*
G01*
X47055000Y-72105001D01*
G75*
G02*
X46805001Y-72355000I-249999J0D01*
G01*
G37*
G36*
G01*
X46805001Y-70355000D02*
X45904999Y-70355000D01*
G75*
G02*
X45655000Y-70105001I0J249999D01*
G01*
X45655000Y-69404999D01*
G75*
G02*
X45904999Y-69155000I249999J0D01*
G01*
X46805001Y-69155000D01*
G75*
G02*
X47055000Y-69404999I0J-249999D01*
G01*
X47055000Y-70105001D01*
G75*
G02*
X46805001Y-70355000I-249999J0D01*
G01*
G37*
M02*
