G04 #@! TF.GenerationSoftware,KiCad,Pcbnew,(5.1.8)-1*
G04 #@! TF.CreationDate,2024-07-20T23:50:34+03:00*
G04 #@! TF.ProjectId,RAM,52414d2e-6b69-4636-9164-5f7063625858,rev?*
G04 #@! TF.SameCoordinates,PXc1c960PYc1c960*
G04 #@! TF.FileFunction,Copper,L1,Top*
G04 #@! TF.FilePolarity,Positive*
%FSLAX46Y46*%
G04 Gerber Fmt 4.6, Leading zero omitted, Abs format (unit mm)*
G04 Created by KiCad (PCBNEW (5.1.8)-1) date 2024-07-20 23:50:34*
%MOMM*%
%LPD*%
G01*
G04 APERTURE LIST*
G04 #@! TA.AperFunction,NonConductor*
%ADD10C,0.150000*%
G04 #@! TD*
G04 #@! TA.AperFunction,NonConductor*
%ADD11C,0.400000*%
G04 #@! TD*
G04 #@! TA.AperFunction,NonConductor*
%ADD12C,0.300000*%
G04 #@! TD*
G04 #@! TA.AperFunction,NonConductor*
%ADD13C,0.200000*%
G04 #@! TD*
G04 #@! TA.AperFunction,SMDPad,CuDef*
%ADD14R,0.800000X0.900000*%
G04 #@! TD*
G04 #@! TA.AperFunction,SMDPad,CuDef*
%ADD15R,1.000000X1.500000*%
G04 #@! TD*
G04 #@! TA.AperFunction,ComponentPad*
%ADD16C,2.000000*%
G04 #@! TD*
G04 #@! TA.AperFunction,ComponentPad*
%ADD17O,2.000000X2.000000*%
G04 #@! TD*
G04 #@! TA.AperFunction,ComponentPad*
%ADD18R,2.000000X2.000000*%
G04 #@! TD*
G04 #@! TA.AperFunction,ComponentPad*
%ADD19O,2.000000X1.500000*%
G04 #@! TD*
G04 #@! TA.AperFunction,ComponentPad*
%ADD20R,2.000000X1.500000*%
G04 #@! TD*
G04 #@! TA.AperFunction,ComponentPad*
%ADD21C,1.800000*%
G04 #@! TD*
G04 #@! TA.AperFunction,ComponentPad*
%ADD22R,1.800000X1.800000*%
G04 #@! TD*
G04 #@! TA.AperFunction,ComponentPad*
%ADD23O,1.800000X1.500000*%
G04 #@! TD*
G04 #@! TA.AperFunction,ComponentPad*
%ADD24R,1.800000X1.500000*%
G04 #@! TD*
G04 #@! TA.AperFunction,ComponentPad*
%ADD25O,1.500000X2.000000*%
G04 #@! TD*
G04 #@! TA.AperFunction,ComponentPad*
%ADD26R,1.500000X2.000000*%
G04 #@! TD*
G04 #@! TA.AperFunction,ViaPad*
%ADD27C,1.500000*%
G04 #@! TD*
G04 #@! TA.AperFunction,Conductor*
%ADD28C,0.800000*%
G04 #@! TD*
G04 #@! TA.AperFunction,Conductor*
%ADD29C,1.200000*%
G04 #@! TD*
G04 #@! TA.AperFunction,Conductor*
%ADD30C,1.000000*%
G04 #@! TD*
G04 #@! TA.AperFunction,Conductor*
%ADD31C,0.600000*%
G04 #@! TD*
G04 #@! TA.AperFunction,Conductor*
%ADD32C,0.500000*%
G04 #@! TD*
G04 APERTURE END LIST*
D10*
X46752023Y-89622380D02*
X47085357Y-90622380D01*
X47418690Y-89622380D01*
X48180595Y-90574761D02*
X48085357Y-90622380D01*
X47894880Y-90622380D01*
X47799642Y-90574761D01*
X47752023Y-90527142D01*
X47704404Y-90431904D01*
X47704404Y-90146190D01*
X47752023Y-90050952D01*
X47799642Y-90003333D01*
X47894880Y-89955714D01*
X48085357Y-89955714D01*
X48180595Y-90003333D01*
X49037738Y-90574761D02*
X48942500Y-90622380D01*
X48752023Y-90622380D01*
X48656785Y-90574761D01*
X48609166Y-90527142D01*
X48561547Y-90431904D01*
X48561547Y-90146190D01*
X48609166Y-90050952D01*
X48656785Y-90003333D01*
X48752023Y-89955714D01*
X48942500Y-89955714D01*
X49037738Y-90003333D01*
X50157142Y-89670000D02*
X50061904Y-89622380D01*
X49919047Y-89622380D01*
X49776190Y-89670000D01*
X49680952Y-89765238D01*
X49633333Y-89860476D01*
X49585714Y-90050952D01*
X49585714Y-90193809D01*
X49633333Y-90384285D01*
X49680952Y-90479523D01*
X49776190Y-90574761D01*
X49919047Y-90622380D01*
X50014285Y-90622380D01*
X50157142Y-90574761D01*
X50204761Y-90527142D01*
X50204761Y-90193809D01*
X50014285Y-90193809D01*
X50633333Y-89955714D02*
X50633333Y-90622380D01*
X50633333Y-90050952D02*
X50680952Y-90003333D01*
X50776190Y-89955714D01*
X50919047Y-89955714D01*
X51014285Y-90003333D01*
X51061904Y-90098571D01*
X51061904Y-90622380D01*
X51966666Y-90622380D02*
X51966666Y-89622380D01*
X51966666Y-90574761D02*
X51871428Y-90622380D01*
X51680952Y-90622380D01*
X51585714Y-90574761D01*
X51538095Y-90527142D01*
X51490476Y-90431904D01*
X51490476Y-90146190D01*
X51538095Y-90050952D01*
X51585714Y-90003333D01*
X51680952Y-89955714D01*
X51871428Y-89955714D01*
X51966666Y-90003333D01*
X54903809Y-89255000D02*
X55903809Y-89255000D01*
X55713333Y-90527142D02*
X55665714Y-90574761D01*
X55522857Y-90622380D01*
X55427619Y-90622380D01*
X55284761Y-90574761D01*
X55189523Y-90479523D01*
X55141904Y-90384285D01*
X55094285Y-90193809D01*
X55094285Y-90050952D01*
X55141904Y-89860476D01*
X55189523Y-89765238D01*
X55284761Y-89670000D01*
X55427619Y-89622380D01*
X55522857Y-89622380D01*
X55665714Y-89670000D01*
X55713333Y-89717619D01*
X55903809Y-89255000D02*
X56856190Y-89255000D01*
X56094285Y-90574761D02*
X56237142Y-90622380D01*
X56475238Y-90622380D01*
X56570476Y-90574761D01*
X56618095Y-90527142D01*
X56665714Y-90431904D01*
X56665714Y-90336666D01*
X56618095Y-90241428D01*
X56570476Y-90193809D01*
X56475238Y-90146190D01*
X56284761Y-90098571D01*
X56189523Y-90050952D01*
X56141904Y-90003333D01*
X56094285Y-89908095D01*
X56094285Y-89812857D01*
X56141904Y-89717619D01*
X56189523Y-89670000D01*
X56284761Y-89622380D01*
X56522857Y-89622380D01*
X56665714Y-89670000D01*
X52363809Y-89255000D02*
X53411428Y-89255000D01*
X52792380Y-89622380D02*
X52982857Y-89622380D01*
X53078095Y-89670000D01*
X53173333Y-89765238D01*
X53220952Y-89955714D01*
X53220952Y-90289047D01*
X53173333Y-90479523D01*
X53078095Y-90574761D01*
X52982857Y-90622380D01*
X52792380Y-90622380D01*
X52697142Y-90574761D01*
X52601904Y-90479523D01*
X52554285Y-90289047D01*
X52554285Y-89955714D01*
X52601904Y-89765238D01*
X52697142Y-89670000D01*
X52792380Y-89622380D01*
X53411428Y-89255000D02*
X54316190Y-89255000D01*
X53649523Y-90098571D02*
X53982857Y-90098571D01*
X54125714Y-90622380D02*
X53649523Y-90622380D01*
X53649523Y-89622380D01*
X54125714Y-89622380D01*
X44331071Y-89255000D02*
X45473928Y-89255000D01*
X44473928Y-89622380D02*
X44712023Y-90622380D01*
X44902500Y-89908095D01*
X45092976Y-90622380D01*
X45331071Y-89622380D01*
X45473928Y-89255000D02*
X46473928Y-89255000D01*
X46283452Y-90622380D02*
X45950119Y-90146190D01*
X45712023Y-90622380D02*
X45712023Y-89622380D01*
X46092976Y-89622380D01*
X46188214Y-89670000D01*
X46235833Y-89717619D01*
X46283452Y-89812857D01*
X46283452Y-89955714D01*
X46235833Y-90050952D01*
X46188214Y-90098571D01*
X46092976Y-90146190D01*
X45712023Y-90146190D01*
X28852857Y-86320333D02*
X28805238Y-86272714D01*
X28757619Y-86129857D01*
X28757619Y-86034619D01*
X28805238Y-85891761D01*
X28900476Y-85796523D01*
X28995714Y-85748904D01*
X29186190Y-85701285D01*
X29329047Y-85701285D01*
X29519523Y-85748904D01*
X29614761Y-85796523D01*
X29710000Y-85891761D01*
X29757619Y-86034619D01*
X29757619Y-86129857D01*
X29710000Y-86272714D01*
X29662380Y-86320333D01*
X29757619Y-86653666D02*
X29757619Y-87320333D01*
X28757619Y-86891761D01*
X11072857Y-86193333D02*
X11025238Y-86145714D01*
X10977619Y-86002857D01*
X10977619Y-85907619D01*
X11025238Y-85764761D01*
X11120476Y-85669523D01*
X11215714Y-85621904D01*
X11406190Y-85574285D01*
X11549047Y-85574285D01*
X11739523Y-85621904D01*
X11834761Y-85669523D01*
X11930000Y-85764761D01*
X11977619Y-85907619D01*
X11977619Y-86002857D01*
X11930000Y-86145714D01*
X11882380Y-86193333D01*
X11977619Y-86812380D02*
X11977619Y-86907619D01*
X11930000Y-87002857D01*
X11882380Y-87050476D01*
X11787142Y-87098095D01*
X11596666Y-87145714D01*
X11358571Y-87145714D01*
X11168095Y-87098095D01*
X11072857Y-87050476D01*
X11025238Y-87002857D01*
X10977619Y-86907619D01*
X10977619Y-86812380D01*
X11025238Y-86717142D01*
X11072857Y-86669523D01*
X11168095Y-86621904D01*
X11358571Y-86574285D01*
X11596666Y-86574285D01*
X11787142Y-86621904D01*
X11882380Y-86669523D01*
X11930000Y-86717142D01*
X11977619Y-86812380D01*
X33964619Y-31646904D02*
X34964619Y-31646904D01*
X34964619Y-31885000D01*
X34917000Y-32027857D01*
X34821761Y-32123095D01*
X34726523Y-32170714D01*
X34536047Y-32218333D01*
X34393190Y-32218333D01*
X34202714Y-32170714D01*
X34107476Y-32123095D01*
X34012238Y-32027857D01*
X33964619Y-31885000D01*
X33964619Y-31646904D01*
X34964619Y-32551666D02*
X34964619Y-33218333D01*
X33964619Y-32789761D01*
X33837619Y-13866904D02*
X34837619Y-13866904D01*
X34837619Y-14105000D01*
X34790000Y-14247857D01*
X34694761Y-14343095D01*
X34599523Y-14390714D01*
X34409047Y-14438333D01*
X34266190Y-14438333D01*
X34075714Y-14390714D01*
X33980476Y-14343095D01*
X33885238Y-14247857D01*
X33837619Y-14105000D01*
X33837619Y-13866904D01*
X34837619Y-15057380D02*
X34837619Y-15152619D01*
X34790000Y-15247857D01*
X34742380Y-15295476D01*
X34647142Y-15343095D01*
X34456666Y-15390714D01*
X34218571Y-15390714D01*
X34028095Y-15343095D01*
X33932857Y-15295476D01*
X33885238Y-15247857D01*
X33837619Y-15152619D01*
X33837619Y-15057380D01*
X33885238Y-14962142D01*
X33932857Y-14914523D01*
X34028095Y-14866904D01*
X34218571Y-14819285D01*
X34456666Y-14819285D01*
X34647142Y-14866904D01*
X34742380Y-14914523D01*
X34790000Y-14962142D01*
X34837619Y-15057380D01*
D11*
X43537857Y-8199285D02*
X43966428Y-8342142D01*
X44680714Y-8342142D01*
X44966428Y-8199285D01*
X45109285Y-8056428D01*
X45252142Y-7770714D01*
X45252142Y-7485000D01*
X45109285Y-7199285D01*
X44966428Y-7056428D01*
X44680714Y-6913571D01*
X44109285Y-6770714D01*
X43823571Y-6627857D01*
X43680714Y-6485000D01*
X43537857Y-6199285D01*
X43537857Y-5913571D01*
X43680714Y-5627857D01*
X43823571Y-5485000D01*
X44109285Y-5342142D01*
X44823571Y-5342142D01*
X45252142Y-5485000D01*
X48252142Y-8342142D02*
X47252142Y-6913571D01*
X46537857Y-8342142D02*
X46537857Y-5342142D01*
X47680714Y-5342142D01*
X47966428Y-5485000D01*
X48109285Y-5627857D01*
X48252142Y-5913571D01*
X48252142Y-6342142D01*
X48109285Y-6627857D01*
X47966428Y-6770714D01*
X47680714Y-6913571D01*
X46537857Y-6913571D01*
X49395000Y-7485000D02*
X50823571Y-7485000D01*
X49109285Y-8342142D02*
X50109285Y-5342142D01*
X51109285Y-8342142D01*
X52109285Y-8342142D02*
X52109285Y-5342142D01*
X53109285Y-7485000D01*
X54109285Y-5342142D01*
X54109285Y-8342142D01*
D10*
X4913333Y-70564523D02*
X4913333Y-71040714D01*
X4627619Y-70469285D02*
X5627619Y-70802619D01*
X4627619Y-71135952D01*
X4627619Y-71993095D02*
X4627619Y-71421666D01*
X4627619Y-71707380D02*
X5627619Y-71707380D01*
X5484761Y-71612142D01*
X5389523Y-71516904D01*
X5341904Y-71421666D01*
X5627619Y-72897857D02*
X5627619Y-72421666D01*
X5151428Y-72374047D01*
X5199047Y-72421666D01*
X5246666Y-72516904D01*
X5246666Y-72755000D01*
X5199047Y-72850238D01*
X5151428Y-72897857D01*
X5056190Y-72945476D01*
X4818095Y-72945476D01*
X4722857Y-72897857D01*
X4675238Y-72850238D01*
X4627619Y-72755000D01*
X4627619Y-72516904D01*
X4675238Y-72421666D01*
X4722857Y-72374047D01*
X4913333Y-53260714D02*
X4913333Y-53736904D01*
X4627619Y-53165476D02*
X5627619Y-53498809D01*
X4627619Y-53832142D01*
X5199047Y-54308333D02*
X5246666Y-54213095D01*
X5294285Y-54165476D01*
X5389523Y-54117857D01*
X5437142Y-54117857D01*
X5532380Y-54165476D01*
X5580000Y-54213095D01*
X5627619Y-54308333D01*
X5627619Y-54498809D01*
X5580000Y-54594047D01*
X5532380Y-54641666D01*
X5437142Y-54689285D01*
X5389523Y-54689285D01*
X5294285Y-54641666D01*
X5246666Y-54594047D01*
X5199047Y-54498809D01*
X5199047Y-54308333D01*
X5151428Y-54213095D01*
X5103809Y-54165476D01*
X5008571Y-54117857D01*
X4818095Y-54117857D01*
X4722857Y-54165476D01*
X4675238Y-54213095D01*
X4627619Y-54308333D01*
X4627619Y-54498809D01*
X4675238Y-54594047D01*
X4722857Y-54641666D01*
X4818095Y-54689285D01*
X5008571Y-54689285D01*
X5103809Y-54641666D01*
X5151428Y-54594047D01*
X5199047Y-54498809D01*
D12*
X5381666Y-59388809D02*
X5381666Y-60341190D01*
X4810238Y-59198333D02*
X6810238Y-59865000D01*
X4810238Y-60531666D01*
X4810238Y-61198333D02*
X6810238Y-61198333D01*
X6810238Y-61674523D01*
X6715000Y-61960238D01*
X6524523Y-62150714D01*
X6334047Y-62245952D01*
X5953095Y-62341190D01*
X5667380Y-62341190D01*
X5286428Y-62245952D01*
X5095952Y-62150714D01*
X4905476Y-61960238D01*
X4810238Y-61674523D01*
X4810238Y-61198333D01*
X4810238Y-63198333D02*
X6810238Y-63198333D01*
X6810238Y-63674523D01*
X6715000Y-63960238D01*
X6524523Y-64150714D01*
X6334047Y-64245952D01*
X5953095Y-64341190D01*
X5667380Y-64341190D01*
X5286428Y-64245952D01*
X5095952Y-64150714D01*
X4905476Y-63960238D01*
X4810238Y-63674523D01*
X4810238Y-63198333D01*
X4810238Y-66341190D02*
X5762619Y-65674523D01*
X4810238Y-65198333D02*
X6810238Y-65198333D01*
X6810238Y-65960238D01*
X6715000Y-66150714D01*
X6619761Y-66245952D01*
X6429285Y-66341190D01*
X6143571Y-66341190D01*
X5953095Y-66245952D01*
X5857857Y-66150714D01*
X5762619Y-65960238D01*
X5762619Y-65198333D01*
D10*
X4913333Y-35480714D02*
X4913333Y-35956904D01*
X4627619Y-35385476D02*
X5627619Y-35718809D01*
X4627619Y-36052142D01*
X5627619Y-36290238D02*
X5627619Y-36956904D01*
X4627619Y-36528333D01*
X4913333Y-17700714D02*
X4913333Y-18176904D01*
X4627619Y-17605476D02*
X5627619Y-17938809D01*
X4627619Y-18272142D01*
X5627619Y-18795952D02*
X5627619Y-18891190D01*
X5580000Y-18986428D01*
X5532380Y-19034047D01*
X5437142Y-19081666D01*
X5246666Y-19129285D01*
X5008571Y-19129285D01*
X4818095Y-19081666D01*
X4722857Y-19034047D01*
X4675238Y-18986428D01*
X4627619Y-18891190D01*
X4627619Y-18795952D01*
X4675238Y-18700714D01*
X4722857Y-18653095D01*
X4818095Y-18605476D01*
X5008571Y-18557857D01*
X5246666Y-18557857D01*
X5437142Y-18605476D01*
X5532380Y-18653095D01*
X5580000Y-18700714D01*
X5627619Y-18795952D01*
D12*
X5381666Y-23828809D02*
X5381666Y-24781190D01*
X4810238Y-23638333D02*
X6810238Y-24305000D01*
X4810238Y-24971666D01*
X4810238Y-25638333D02*
X6810238Y-25638333D01*
X6810238Y-26114523D01*
X6715000Y-26400238D01*
X6524523Y-26590714D01*
X6334047Y-26685952D01*
X5953095Y-26781190D01*
X5667380Y-26781190D01*
X5286428Y-26685952D01*
X5095952Y-26590714D01*
X4905476Y-26400238D01*
X4810238Y-26114523D01*
X4810238Y-25638333D01*
X4810238Y-27638333D02*
X6810238Y-27638333D01*
X6810238Y-28114523D01*
X6715000Y-28400238D01*
X6524523Y-28590714D01*
X6334047Y-28685952D01*
X5953095Y-28781190D01*
X5667380Y-28781190D01*
X5286428Y-28685952D01*
X5095952Y-28590714D01*
X4905476Y-28400238D01*
X4810238Y-28114523D01*
X4810238Y-27638333D01*
X4810238Y-30781190D02*
X5762619Y-30114523D01*
X4810238Y-29638333D02*
X6810238Y-29638333D01*
X6810238Y-30400238D01*
X6715000Y-30590714D01*
X6619761Y-30685952D01*
X6429285Y-30781190D01*
X6143571Y-30781190D01*
X5953095Y-30685952D01*
X5857857Y-30590714D01*
X5762619Y-30400238D01*
X5762619Y-29638333D01*
D13*
X35452857Y-57761428D02*
X35452857Y-58904285D01*
X34881428Y-58332857D02*
X36024285Y-58332857D01*
X36381428Y-60332857D02*
X36381428Y-59618571D01*
X35667142Y-59547142D01*
X35738571Y-59618571D01*
X35810000Y-59761428D01*
X35810000Y-60118571D01*
X35738571Y-60261428D01*
X35667142Y-60332857D01*
X35524285Y-60404285D01*
X35167142Y-60404285D01*
X35024285Y-60332857D01*
X34952857Y-60261428D01*
X34881428Y-60118571D01*
X34881428Y-59761428D01*
X34952857Y-59618571D01*
X35024285Y-59547142D01*
X36381428Y-60832857D02*
X34881428Y-61332857D01*
X36381428Y-61832857D01*
D12*
X73232142Y-6306428D02*
X73303571Y-6235000D01*
X73446428Y-6163571D01*
X73803571Y-6163571D01*
X73946428Y-6235000D01*
X74017857Y-6306428D01*
X74089285Y-6449285D01*
X74089285Y-6592142D01*
X74017857Y-6806428D01*
X73160714Y-7663571D01*
X74089285Y-7663571D01*
X75017857Y-6163571D02*
X75160714Y-6163571D01*
X75303571Y-6235000D01*
X75375000Y-6306428D01*
X75446428Y-6449285D01*
X75517857Y-6735000D01*
X75517857Y-7092142D01*
X75446428Y-7377857D01*
X75375000Y-7520714D01*
X75303571Y-7592142D01*
X75160714Y-7663571D01*
X75017857Y-7663571D01*
X74875000Y-7592142D01*
X74803571Y-7520714D01*
X74732142Y-7377857D01*
X74660714Y-7092142D01*
X74660714Y-6735000D01*
X74732142Y-6449285D01*
X74803571Y-6306428D01*
X74875000Y-6235000D01*
X75017857Y-6163571D01*
X76160714Y-7520714D02*
X76232142Y-7592142D01*
X76160714Y-7663571D01*
X76089285Y-7592142D01*
X76160714Y-7520714D01*
X76160714Y-7663571D01*
X77160714Y-6163571D02*
X77303571Y-6163571D01*
X77446428Y-6235000D01*
X77517857Y-6306428D01*
X77589285Y-6449285D01*
X77660714Y-6735000D01*
X77660714Y-7092142D01*
X77589285Y-7377857D01*
X77517857Y-7520714D01*
X77446428Y-7592142D01*
X77303571Y-7663571D01*
X77160714Y-7663571D01*
X77017857Y-7592142D01*
X76946428Y-7520714D01*
X76875000Y-7377857D01*
X76803571Y-7092142D01*
X76803571Y-6735000D01*
X76875000Y-6449285D01*
X76946428Y-6306428D01*
X77017857Y-6235000D01*
X77160714Y-6163571D01*
X78160714Y-6163571D02*
X79160714Y-6163571D01*
X78517857Y-7663571D01*
X79732142Y-7520714D02*
X79803571Y-7592142D01*
X79732142Y-7663571D01*
X79660714Y-7592142D01*
X79732142Y-7520714D01*
X79732142Y-7663571D01*
X80375000Y-6306428D02*
X80446428Y-6235000D01*
X80589285Y-6163571D01*
X80946428Y-6163571D01*
X81089285Y-6235000D01*
X81160714Y-6306428D01*
X81232142Y-6449285D01*
X81232142Y-6592142D01*
X81160714Y-6806428D01*
X80303571Y-7663571D01*
X81232142Y-7663571D01*
X82160714Y-6163571D02*
X82303571Y-6163571D01*
X82446428Y-6235000D01*
X82517857Y-6306428D01*
X82589285Y-6449285D01*
X82660714Y-6735000D01*
X82660714Y-7092142D01*
X82589285Y-7377857D01*
X82517857Y-7520714D01*
X82446428Y-7592142D01*
X82303571Y-7663571D01*
X82160714Y-7663571D01*
X82017857Y-7592142D01*
X81946428Y-7520714D01*
X81875000Y-7377857D01*
X81803571Y-7092142D01*
X81803571Y-6735000D01*
X81875000Y-6449285D01*
X81946428Y-6306428D01*
X82017857Y-6235000D01*
X82160714Y-6163571D01*
X83232142Y-6306428D02*
X83303571Y-6235000D01*
X83446428Y-6163571D01*
X83803571Y-6163571D01*
X83946428Y-6235000D01*
X84017857Y-6306428D01*
X84089285Y-6449285D01*
X84089285Y-6592142D01*
X84017857Y-6806428D01*
X83160714Y-7663571D01*
X84089285Y-7663571D01*
X85375000Y-6663571D02*
X85375000Y-7663571D01*
X85017857Y-6092142D02*
X84660714Y-7163571D01*
X85589285Y-7163571D01*
X61119285Y-6163571D02*
X62119285Y-6163571D01*
X61476428Y-7663571D01*
X63333571Y-6663571D02*
X63333571Y-7663571D01*
X62976428Y-6092142D02*
X62619285Y-7163571D01*
X63547857Y-7163571D01*
X64119285Y-7663571D02*
X64119285Y-6163571D01*
X64119285Y-6877857D02*
X64976428Y-6877857D01*
X64976428Y-7663571D02*
X64976428Y-6163571D01*
X66547857Y-7520714D02*
X66476428Y-7592142D01*
X66262142Y-7663571D01*
X66119285Y-7663571D01*
X65905000Y-7592142D01*
X65762142Y-7449285D01*
X65690714Y-7306428D01*
X65619285Y-7020714D01*
X65619285Y-6806428D01*
X65690714Y-6520714D01*
X65762142Y-6377857D01*
X65905000Y-6235000D01*
X66119285Y-6163571D01*
X66262142Y-6163571D01*
X66476428Y-6235000D01*
X66547857Y-6306428D01*
X67190714Y-7663571D02*
X67190714Y-6163571D01*
X67762142Y-6163571D01*
X67905000Y-6235000D01*
X67976428Y-6306428D01*
X68047857Y-6449285D01*
X68047857Y-6663571D01*
X67976428Y-6806428D01*
X67905000Y-6877857D01*
X67762142Y-6949285D01*
X67190714Y-6949285D01*
X68690714Y-6163571D02*
X68690714Y-7377857D01*
X68762142Y-7520714D01*
X68833571Y-7592142D01*
X68976428Y-7663571D01*
X69262142Y-7663571D01*
X69405000Y-7592142D01*
X69476428Y-7520714D01*
X69547857Y-7377857D01*
X69547857Y-6163571D01*
D14*
X41910000Y-83550000D03*
X40960000Y-81550000D03*
X42860000Y-81550000D03*
D15*
X81310000Y-59055000D03*
X80010000Y-59055000D03*
X78710000Y-59055000D03*
X71150000Y-59055000D03*
X69850000Y-59055000D03*
X68550000Y-59055000D03*
D16*
X52545000Y-59690000D03*
X42545000Y-59690000D03*
X16035000Y-9525000D03*
X26035000Y-9525000D03*
D17*
X45720000Y-84455000D03*
X48260000Y-84455000D03*
X50800000Y-84455000D03*
X53340000Y-84455000D03*
D18*
X55880000Y-84455000D03*
D17*
X36830000Y-14605000D03*
X36830000Y-17145000D03*
X36830000Y-19685000D03*
D19*
X36830000Y-22225000D03*
X36830000Y-24765000D03*
X36830000Y-27305000D03*
X36830000Y-29845000D03*
D20*
X36830000Y-32385000D03*
D17*
X2540000Y-53975000D03*
X2540000Y-56515000D03*
X2540000Y-59055000D03*
X2540000Y-61595000D03*
X2540000Y-64135000D03*
X2540000Y-66675000D03*
X2540000Y-69215000D03*
D18*
X2540000Y-71755000D03*
D17*
X2540000Y-18415000D03*
X2540000Y-20955000D03*
X2540000Y-23495000D03*
X2540000Y-26035000D03*
X2540000Y-28575000D03*
X2540000Y-31115000D03*
X2540000Y-33655000D03*
D18*
X2540000Y-36195000D03*
D21*
X40640000Y-69215000D03*
D22*
X43180000Y-69215000D03*
D21*
X49530000Y-69215000D03*
D22*
X52070000Y-69215000D03*
D21*
X58420000Y-69215000D03*
D22*
X60960000Y-69215000D03*
D19*
X64770000Y-55245000D03*
X80010000Y-22225000D03*
X64770000Y-52705000D03*
X80010000Y-24765000D03*
X64770000Y-50165000D03*
X80010000Y-27305000D03*
X64770000Y-47625000D03*
X80010000Y-29845000D03*
X64770000Y-45085000D03*
X80010000Y-32385000D03*
X64770000Y-42545000D03*
X80010000Y-34925000D03*
X64770000Y-40005000D03*
X80010000Y-37465000D03*
X64770000Y-37465000D03*
X80010000Y-40005000D03*
X64770000Y-34925000D03*
X80010000Y-42545000D03*
X64770000Y-32385000D03*
X80010000Y-45085000D03*
X64770000Y-29845000D03*
X80010000Y-47625000D03*
X64770000Y-27305000D03*
X80010000Y-50165000D03*
X64770000Y-24765000D03*
X80010000Y-52705000D03*
X64770000Y-22225000D03*
D20*
X80010000Y-55245000D03*
D23*
X68580000Y-79375000D03*
X76200000Y-64135000D03*
X68580000Y-76835000D03*
X76200000Y-66675000D03*
X68580000Y-74295000D03*
X76200000Y-69215000D03*
X68580000Y-71755000D03*
X76200000Y-71755000D03*
X68580000Y-69215000D03*
X76200000Y-74295000D03*
X68580000Y-66675000D03*
X76200000Y-76835000D03*
X68580000Y-64135000D03*
D24*
X76200000Y-79375000D03*
D16*
X37465000Y-88740000D03*
X37465000Y-78740000D03*
D17*
X11430000Y-83185000D03*
D25*
X13970000Y-83185000D03*
X16510000Y-83185000D03*
D17*
X19050000Y-83185000D03*
X21590000Y-83185000D03*
X24130000Y-83185000D03*
X26670000Y-83185000D03*
D18*
X29210000Y-83185000D03*
G04 #@! TA.AperFunction,SMDPad,CuDef*
G36*
G01*
X58235001Y-74165000D02*
X57334999Y-74165000D01*
G75*
G02*
X57085000Y-73915001I0J249999D01*
G01*
X57085000Y-73214999D01*
G75*
G02*
X57334999Y-72965000I249999J0D01*
G01*
X58235001Y-72965000D01*
G75*
G02*
X58485000Y-73214999I0J-249999D01*
G01*
X58485000Y-73915001D01*
G75*
G02*
X58235001Y-74165000I-249999J0D01*
G01*
G37*
G04 #@! TD.AperFunction*
G04 #@! TA.AperFunction,SMDPad,CuDef*
G36*
G01*
X58235001Y-76165000D02*
X57334999Y-76165000D01*
G75*
G02*
X57085000Y-75915001I0J249999D01*
G01*
X57085000Y-75214999D01*
G75*
G02*
X57334999Y-74965000I249999J0D01*
G01*
X58235001Y-74965000D01*
G75*
G02*
X58485000Y-75214999I0J-249999D01*
G01*
X58485000Y-75915001D01*
G75*
G02*
X58235001Y-76165000I-249999J0D01*
G01*
G37*
G04 #@! TD.AperFunction*
G04 #@! TA.AperFunction,SMDPad,CuDef*
G36*
G01*
X49345001Y-76165000D02*
X48444999Y-76165000D01*
G75*
G02*
X48195000Y-75915001I0J249999D01*
G01*
X48195000Y-75214999D01*
G75*
G02*
X48444999Y-74965000I249999J0D01*
G01*
X49345001Y-74965000D01*
G75*
G02*
X49595000Y-75214999I0J-249999D01*
G01*
X49595000Y-75915001D01*
G75*
G02*
X49345001Y-76165000I-249999J0D01*
G01*
G37*
G04 #@! TD.AperFunction*
G04 #@! TA.AperFunction,SMDPad,CuDef*
G36*
G01*
X49345001Y-74165000D02*
X48444999Y-74165000D01*
G75*
G02*
X48195000Y-73915001I0J249999D01*
G01*
X48195000Y-73214999D01*
G75*
G02*
X48444999Y-72965000I249999J0D01*
G01*
X49345001Y-72965000D01*
G75*
G02*
X49595000Y-73214999I0J-249999D01*
G01*
X49595000Y-73915001D01*
G75*
G02*
X49345001Y-74165000I-249999J0D01*
G01*
G37*
G04 #@! TD.AperFunction*
G04 #@! TA.AperFunction,SMDPad,CuDef*
G36*
G01*
X40137501Y-74165000D02*
X39237499Y-74165000D01*
G75*
G02*
X38987500Y-73915001I0J249999D01*
G01*
X38987500Y-73214999D01*
G75*
G02*
X39237499Y-72965000I249999J0D01*
G01*
X40137501Y-72965000D01*
G75*
G02*
X40387500Y-73214999I0J-249999D01*
G01*
X40387500Y-73915001D01*
G75*
G02*
X40137501Y-74165000I-249999J0D01*
G01*
G37*
G04 #@! TD.AperFunction*
G04 #@! TA.AperFunction,SMDPad,CuDef*
G36*
G01*
X40137501Y-76165000D02*
X39237499Y-76165000D01*
G75*
G02*
X38987500Y-75915001I0J249999D01*
G01*
X38987500Y-75214999D01*
G75*
G02*
X39237499Y-74965000I249999J0D01*
G01*
X40137501Y-74965000D01*
G75*
G02*
X40387500Y-75214999I0J-249999D01*
G01*
X40387500Y-75915001D01*
G75*
G02*
X40137501Y-76165000I-249999J0D01*
G01*
G37*
G04 #@! TD.AperFunction*
D26*
X29210000Y-14605000D03*
D25*
X11430000Y-22225000D03*
X26670000Y-14605000D03*
X13970000Y-22225000D03*
X24130000Y-14605000D03*
X16510000Y-22225000D03*
X21590000Y-14605000D03*
X19050000Y-22225000D03*
X19050000Y-14605000D03*
X21590000Y-22225000D03*
X16510000Y-14605000D03*
X24130000Y-22225000D03*
X13970000Y-14605000D03*
X26670000Y-22225000D03*
X11430000Y-14605000D03*
X29210000Y-22225000D03*
D20*
X57150000Y-55245000D03*
D19*
X41910000Y-22225000D03*
X57150000Y-52705000D03*
X41910000Y-24765000D03*
X57150000Y-50165000D03*
X41910000Y-27305000D03*
X57150000Y-47625000D03*
X41910000Y-29845000D03*
X57150000Y-45085000D03*
X41910000Y-32385000D03*
X57150000Y-42545000D03*
X41910000Y-34925000D03*
X57150000Y-40005000D03*
X41910000Y-37465000D03*
X57150000Y-37465000D03*
X41910000Y-40005000D03*
X57150000Y-34925000D03*
X41910000Y-42545000D03*
X57150000Y-32385000D03*
X41910000Y-45085000D03*
X57150000Y-29845000D03*
X41910000Y-47625000D03*
X57150000Y-27305000D03*
X41910000Y-50165000D03*
X57150000Y-24765000D03*
X41910000Y-52705000D03*
X57150000Y-22225000D03*
X41910000Y-55245000D03*
D25*
X29210000Y-41275000D03*
X11430000Y-33655000D03*
X26670000Y-41275000D03*
X13970000Y-33655000D03*
X24130000Y-41275000D03*
X16510000Y-33655000D03*
X21590000Y-41275000D03*
X19050000Y-33655000D03*
X19050000Y-41275000D03*
X21590000Y-33655000D03*
X16510000Y-41275000D03*
X24130000Y-33655000D03*
X13970000Y-41275000D03*
X26670000Y-33655000D03*
X11430000Y-41275000D03*
D26*
X29210000Y-33655000D03*
X29210000Y-50165000D03*
D25*
X11430000Y-57785000D03*
X26670000Y-50165000D03*
X13970000Y-57785000D03*
X24130000Y-50165000D03*
X16510000Y-57785000D03*
X21590000Y-50165000D03*
X19050000Y-57785000D03*
X19050000Y-50165000D03*
X21590000Y-57785000D03*
X16510000Y-50165000D03*
X24130000Y-57785000D03*
X13970000Y-50165000D03*
X26670000Y-57785000D03*
X11430000Y-50165000D03*
X29210000Y-57785000D03*
X29210000Y-75565000D03*
X11430000Y-67945000D03*
X26670000Y-75565000D03*
X13970000Y-67945000D03*
X24130000Y-75565000D03*
X16510000Y-67945000D03*
X21590000Y-75565000D03*
X19050000Y-67945000D03*
X19050000Y-75565000D03*
X21590000Y-67945000D03*
X16510000Y-75565000D03*
X24130000Y-67945000D03*
X13970000Y-75565000D03*
X26670000Y-67945000D03*
X11430000Y-75565000D03*
D26*
X29210000Y-67945000D03*
G04 #@! TA.AperFunction,SMDPad,CuDef*
G36*
G01*
X62045001Y-76165000D02*
X61144999Y-76165000D01*
G75*
G02*
X60895000Y-75915001I0J249999D01*
G01*
X60895000Y-75214999D01*
G75*
G02*
X61144999Y-74965000I249999J0D01*
G01*
X62045001Y-74965000D01*
G75*
G02*
X62295000Y-75214999I0J-249999D01*
G01*
X62295000Y-75915001D01*
G75*
G02*
X62045001Y-76165000I-249999J0D01*
G01*
G37*
G04 #@! TD.AperFunction*
G04 #@! TA.AperFunction,SMDPad,CuDef*
G36*
G01*
X62045001Y-74165000D02*
X61144999Y-74165000D01*
G75*
G02*
X60895000Y-73915001I0J249999D01*
G01*
X60895000Y-73214999D01*
G75*
G02*
X61144999Y-72965000I249999J0D01*
G01*
X62045001Y-72965000D01*
G75*
G02*
X62295000Y-73214999I0J-249999D01*
G01*
X62295000Y-73915001D01*
G75*
G02*
X62045001Y-74165000I-249999J0D01*
G01*
G37*
G04 #@! TD.AperFunction*
G04 #@! TA.AperFunction,SMDPad,CuDef*
G36*
G01*
X53155001Y-74165000D02*
X52254999Y-74165000D01*
G75*
G02*
X52005000Y-73915001I0J249999D01*
G01*
X52005000Y-73214999D01*
G75*
G02*
X52254999Y-72965000I249999J0D01*
G01*
X53155001Y-72965000D01*
G75*
G02*
X53405000Y-73214999I0J-249999D01*
G01*
X53405000Y-73915001D01*
G75*
G02*
X53155001Y-74165000I-249999J0D01*
G01*
G37*
G04 #@! TD.AperFunction*
G04 #@! TA.AperFunction,SMDPad,CuDef*
G36*
G01*
X53155001Y-76165000D02*
X52254999Y-76165000D01*
G75*
G02*
X52005000Y-75915001I0J249999D01*
G01*
X52005000Y-75214999D01*
G75*
G02*
X52254999Y-74965000I249999J0D01*
G01*
X53155001Y-74965000D01*
G75*
G02*
X53405000Y-75214999I0J-249999D01*
G01*
X53405000Y-75915001D01*
G75*
G02*
X53155001Y-76165000I-249999J0D01*
G01*
G37*
G04 #@! TD.AperFunction*
G04 #@! TA.AperFunction,SMDPad,CuDef*
G36*
G01*
X44265001Y-76165000D02*
X43364999Y-76165000D01*
G75*
G02*
X43115000Y-75915001I0J249999D01*
G01*
X43115000Y-75214999D01*
G75*
G02*
X43364999Y-74965000I249999J0D01*
G01*
X44265001Y-74965000D01*
G75*
G02*
X44515000Y-75214999I0J-249999D01*
G01*
X44515000Y-75915001D01*
G75*
G02*
X44265001Y-76165000I-249999J0D01*
G01*
G37*
G04 #@! TD.AperFunction*
G04 #@! TA.AperFunction,SMDPad,CuDef*
G36*
G01*
X44265001Y-74165000D02*
X43364999Y-74165000D01*
G75*
G02*
X43115000Y-73915001I0J249999D01*
G01*
X43115000Y-73214999D01*
G75*
G02*
X43364999Y-72965000I249999J0D01*
G01*
X44265001Y-72965000D01*
G75*
G02*
X44515000Y-73214999I0J-249999D01*
G01*
X44515000Y-73915001D01*
G75*
G02*
X44265001Y-74165000I-249999J0D01*
G01*
G37*
G04 #@! TD.AperFunction*
D27*
X55245000Y-64135000D03*
X55245000Y-69215000D03*
X74930000Y-57150000D03*
X51435000Y-34925000D03*
X60325000Y-64135000D03*
X34925000Y-52705000D03*
X37465000Y-53340000D03*
X39370000Y-51435000D03*
X21590000Y-46355000D03*
D28*
X33020000Y-75565000D02*
X29210000Y-75565000D01*
X29210000Y-22225000D02*
X33020000Y-22225000D01*
X29210000Y-57785000D02*
X33020000Y-57785000D01*
X29210000Y-41275000D02*
X33020000Y-41275000D01*
D29*
X33020000Y-22225000D02*
X33020000Y-40005000D01*
X33020000Y-44450000D02*
X33020000Y-57785000D01*
X33020000Y-40005000D02*
X33020000Y-44450000D01*
D28*
X41910000Y-55245000D02*
X33020000Y-55245000D01*
D29*
X33020000Y-70485000D02*
X33020000Y-75565000D01*
X33020000Y-65405000D02*
X33020000Y-70485000D01*
D28*
X57785000Y-75565000D02*
X39687500Y-75565000D01*
X39687500Y-75565000D02*
X33020000Y-75565000D01*
D30*
X33020000Y-75565000D02*
X33020000Y-76835000D01*
X33020000Y-76835000D02*
X35560000Y-79375000D01*
D28*
X64770000Y-55245000D02*
X64770000Y-59055000D01*
D29*
X33020000Y-63500000D02*
X33020000Y-65405000D01*
X33020000Y-57785000D02*
X33020000Y-62865000D01*
X33020000Y-62865000D02*
X33020000Y-63500000D01*
D31*
X61595000Y-75565000D02*
X57785000Y-75565000D01*
D28*
X37465000Y-78740000D02*
X37465000Y-79375000D01*
D30*
X35560000Y-79375000D02*
X37465000Y-79375000D01*
D28*
X64770000Y-59055000D02*
X64770000Y-79375000D01*
D30*
X64770000Y-79375000D02*
X48260000Y-79375000D01*
X68580000Y-79375000D02*
X64770000Y-79375000D01*
D28*
X26035000Y-9525000D02*
X31750000Y-9525000D01*
X33020000Y-10795000D02*
X33020000Y-22225000D01*
X31750000Y-9525000D02*
X33020000Y-10795000D01*
X42545000Y-57785000D02*
X41910000Y-57150000D01*
X42545000Y-59690000D02*
X42545000Y-57785000D01*
X41910000Y-55245000D02*
X41910000Y-57150000D01*
D31*
X40960000Y-79377500D02*
X40957500Y-79375000D01*
X40960000Y-81550000D02*
X40960000Y-79377500D01*
D30*
X40957500Y-79375000D02*
X48260000Y-79375000D01*
X37465000Y-79375000D02*
X40957500Y-79375000D01*
D28*
X8890000Y-33655000D02*
X11430000Y-33655000D01*
D29*
X8890000Y-32385000D02*
X8890000Y-14605000D01*
D28*
X8890000Y-50165000D02*
X11430000Y-50165000D01*
D29*
X8890000Y-50165000D02*
X8890000Y-32385000D01*
D28*
X8890000Y-67945000D02*
X11430000Y-67945000D01*
X11430000Y-14605000D02*
X8890000Y-14605000D01*
X80010000Y-22225000D02*
X80010000Y-17145000D01*
X80010000Y-17145000D02*
X57150000Y-17145000D01*
X57150000Y-17145000D02*
X57150000Y-22225000D01*
D30*
X50800000Y-88265000D02*
X74930000Y-88265000D01*
X74930000Y-88265000D02*
X85090000Y-78105000D01*
X83820000Y-22225000D02*
X80010000Y-22225000D01*
X85090000Y-23495000D02*
X83820000Y-22225000D01*
D29*
X8890000Y-62865000D02*
X8890000Y-50165000D01*
D30*
X8890000Y-67945000D02*
X8890000Y-86995000D01*
D29*
X8890000Y-67945000D02*
X8890000Y-65405000D01*
X8890000Y-65405000D02*
X8890000Y-86995000D01*
X8890000Y-65405000D02*
X8890000Y-62865000D01*
X8890000Y-86995000D02*
X10160000Y-88265000D01*
X10160000Y-88265000D02*
X50800000Y-88265000D01*
X50800000Y-84455000D02*
X50800000Y-88265000D01*
D31*
X76200000Y-64135000D02*
X85090000Y-64135000D01*
D30*
X85090000Y-78105000D02*
X85090000Y-64135000D01*
X85090000Y-55245000D02*
X85090000Y-23495000D01*
D28*
X16035000Y-9525000D02*
X11430000Y-9525000D01*
X8890000Y-12065000D02*
X8890000Y-14605000D01*
X11430000Y-9525000D02*
X8890000Y-12065000D01*
X57150000Y-22225000D02*
X50800000Y-22225000D01*
X50800000Y-22225000D02*
X48260000Y-24765000D01*
X48260000Y-24765000D02*
X48260000Y-45720000D01*
X52545000Y-50005000D02*
X52545000Y-59690000D01*
X48260000Y-45720000D02*
X52545000Y-50005000D01*
D32*
X85090000Y-59055000D02*
X81310000Y-59055000D01*
D30*
X85090000Y-64135000D02*
X85090000Y-59055000D01*
X85090000Y-59055000D02*
X85090000Y-55245000D01*
D31*
X48847500Y-81550000D02*
X42860000Y-81550000D01*
X48847500Y-81550000D02*
X50117500Y-81550000D01*
X50800000Y-82232500D02*
X50800000Y-84455000D01*
X50117500Y-81550000D02*
X50800000Y-82232500D01*
D32*
X61595000Y-73565000D02*
X61595000Y-72390000D01*
X60960000Y-71755000D02*
X60960000Y-69215000D01*
X61595000Y-72390000D02*
X60960000Y-71755000D01*
X52705000Y-73565000D02*
X52705000Y-71755000D01*
X52070000Y-71120000D02*
X52070000Y-69215000D01*
X52705000Y-71755000D02*
X52070000Y-71120000D01*
X55245000Y-64135000D02*
X55245000Y-69215000D01*
X55245000Y-69215000D02*
X52070000Y-69215000D01*
X43815000Y-73565000D02*
X43815000Y-71755000D01*
X43180000Y-71120000D02*
X43180000Y-69215000D01*
X43815000Y-71755000D02*
X43180000Y-71120000D01*
X43180000Y-65405000D02*
X43180000Y-69215000D01*
X46355000Y-62230000D02*
X43180000Y-65405000D01*
X46355000Y-53340000D02*
X46355000Y-62230000D01*
X45720000Y-52705000D02*
X46355000Y-53340000D01*
X41910000Y-52705000D02*
X45720000Y-52705000D01*
X68550000Y-59055000D02*
X68550000Y-54580000D01*
X68550000Y-54580000D02*
X67945000Y-53975000D01*
X67945000Y-53975000D02*
X62865000Y-53975000D01*
X62865000Y-53975000D02*
X62230000Y-54610000D01*
X62230000Y-54610000D02*
X62230000Y-65405000D01*
X62230000Y-65405000D02*
X61595000Y-66040000D01*
X61595000Y-66040000D02*
X59055000Y-66040000D01*
X59055000Y-66040000D02*
X57785000Y-64770000D01*
X57785000Y-64770000D02*
X57785000Y-63500000D01*
X57785000Y-63500000D02*
X55880000Y-61595000D01*
X55880000Y-61595000D02*
X54610000Y-61595000D01*
X54610000Y-61595000D02*
X53975000Y-62230000D01*
X53975000Y-62230000D02*
X46355000Y-62230000D01*
X11430000Y-78105000D02*
X11430000Y-83185000D01*
X12700000Y-76835000D02*
X11430000Y-78105000D01*
X12700000Y-20320000D02*
X12700000Y-76835000D01*
X16510000Y-16510000D02*
X12700000Y-20320000D01*
X16510000Y-14605000D02*
X16510000Y-16510000D01*
X25400000Y-17145000D02*
X26670000Y-15875000D01*
X18415000Y-17145000D02*
X25400000Y-17145000D01*
X15240000Y-20320000D02*
X18415000Y-17145000D01*
X15240000Y-77470000D02*
X15240000Y-20320000D01*
X26670000Y-15875000D02*
X26670000Y-14605000D01*
X13970000Y-78740000D02*
X15240000Y-77470000D01*
X13970000Y-83185000D02*
X13970000Y-78740000D01*
X26670000Y-24130000D02*
X26670000Y-22225000D01*
X20320000Y-30480000D02*
X26670000Y-24130000D01*
X16510000Y-81280000D02*
X20320000Y-77470000D01*
X20320000Y-77470000D02*
X20320000Y-30480000D01*
X16510000Y-83185000D02*
X16510000Y-81280000D01*
X17145000Y-19685000D02*
X16510000Y-20320000D01*
X27940000Y-20320000D02*
X27305000Y-19685000D01*
X27940000Y-24765000D02*
X27940000Y-20320000D01*
X22860000Y-29845000D02*
X27940000Y-24765000D01*
X16510000Y-20320000D02*
X16510000Y-22225000D01*
X22860000Y-77470000D02*
X22860000Y-29845000D01*
X19050000Y-81280000D02*
X22860000Y-77470000D01*
X27305000Y-19685000D02*
X17145000Y-19685000D01*
X19050000Y-83185000D02*
X19050000Y-81280000D01*
X17780000Y-37465000D02*
X16510000Y-36195000D01*
X15240000Y-80010000D02*
X17780000Y-77470000D01*
X15875000Y-85090000D02*
X15240000Y-84455000D01*
X20955000Y-85090000D02*
X15875000Y-85090000D01*
X17780000Y-77470000D02*
X17780000Y-37465000D01*
X21590000Y-84455000D02*
X20955000Y-85090000D01*
X16510000Y-36195000D02*
X16510000Y-33655000D01*
X15240000Y-84455000D02*
X15240000Y-80010000D01*
X21590000Y-83185000D02*
X21590000Y-84455000D01*
X24130000Y-79375000D02*
X24130000Y-83185000D01*
X25400000Y-78105000D02*
X24130000Y-79375000D01*
X25400000Y-36830000D02*
X25400000Y-78105000D01*
X26670000Y-35560000D02*
X25400000Y-36830000D01*
X26670000Y-33655000D02*
X26670000Y-35560000D01*
X26670000Y-84455000D02*
X26670000Y-83185000D01*
X27305000Y-85090000D02*
X26670000Y-84455000D01*
X31115000Y-85090000D02*
X27305000Y-85090000D01*
X31750000Y-84455000D02*
X31115000Y-85090000D01*
X31750000Y-81280000D02*
X31750000Y-84455000D01*
X27940000Y-77470000D02*
X31750000Y-81280000D01*
X27940000Y-45720000D02*
X27940000Y-77470000D01*
X26670000Y-44450000D02*
X27940000Y-45720000D01*
X26670000Y-41275000D02*
X26670000Y-44450000D01*
X26670000Y-75565000D02*
X26670000Y-78105000D01*
X29210000Y-80645000D02*
X29210000Y-83185000D01*
X26670000Y-78105000D02*
X29210000Y-80645000D01*
X26670000Y-67945000D02*
X26670000Y-75565000D01*
X26670000Y-50165000D02*
X26670000Y-57785000D01*
X16510000Y-41275000D02*
X16510000Y-57785000D01*
X26670000Y-57785000D02*
X26670000Y-67945000D01*
X16510000Y-67945000D02*
X16510000Y-75565000D01*
X16510000Y-57785000D02*
X16510000Y-67945000D01*
X57785000Y-73565000D02*
X57785000Y-72390000D01*
X58420000Y-71755000D02*
X58420000Y-69215000D01*
X57785000Y-72390000D02*
X58420000Y-71755000D01*
X48895000Y-73565000D02*
X48895000Y-71755000D01*
X49530000Y-71120000D02*
X49530000Y-69215000D01*
X48895000Y-71755000D02*
X49530000Y-71120000D01*
X39687500Y-73565000D02*
X39687500Y-72072500D01*
X40640000Y-71120000D02*
X40640000Y-69215000D01*
X39687500Y-72072500D02*
X40640000Y-71120000D01*
X74930000Y-59055000D02*
X74930000Y-57150000D01*
X78710000Y-59055000D02*
X74930000Y-59055000D01*
X74930000Y-59055000D02*
X71150000Y-59055000D01*
X74930000Y-57150000D02*
X74930000Y-57150000D01*
X54610000Y-46990000D02*
X54610000Y-58420000D01*
X57150000Y-60960000D02*
X60325000Y-64135000D01*
X51435000Y-43815000D02*
X54610000Y-46990000D01*
X54610000Y-58420000D02*
X57150000Y-60960000D01*
X51435000Y-34925000D02*
X51435000Y-43815000D01*
X34925000Y-52705000D02*
X34925000Y-38735000D01*
X36195000Y-37465000D02*
X41910000Y-37465000D01*
X34925000Y-38735000D02*
X36195000Y-37465000D01*
X37465000Y-43815000D02*
X37465000Y-50800000D01*
X38735000Y-42545000D02*
X37465000Y-43815000D01*
X37465000Y-50800000D02*
X37465000Y-53340000D01*
X41910000Y-42545000D02*
X38735000Y-42545000D01*
X39370000Y-51435000D02*
X39370000Y-45720000D01*
X40005000Y-45085000D02*
X41910000Y-45085000D01*
X39370000Y-45720000D02*
X40005000Y-45085000D01*
X21590000Y-46355000D02*
X21590000Y-50165000D01*
X69850000Y-59055000D02*
X69850000Y-53975000D01*
X68580000Y-52705000D02*
X64770000Y-52705000D01*
X69850000Y-53975000D02*
X68580000Y-52705000D01*
X80010000Y-59055000D02*
X80010000Y-55245000D01*
D31*
X42545000Y-86677500D02*
X41910000Y-86042500D01*
X41910000Y-86042500D02*
X41910000Y-83550000D01*
X47942500Y-86677500D02*
X42545000Y-86677500D01*
X48260000Y-86360000D02*
X47942500Y-86677500D01*
X48260000Y-84455000D02*
X48260000Y-86360000D01*
M02*
