G04 #@! TF.GenerationSoftware,KiCad,Pcbnew,(5.1.8)-1*
G04 #@! TF.CreationDate,2024-07-22T20:59:50+03:00*
G04 #@! TF.ProjectId,RAM,52414d2e-6b69-4636-9164-5f7063625858,rev?*
G04 #@! TF.SameCoordinates,PXc1c960PYc1c960*
G04 #@! TF.FileFunction,Copper,L1,Top*
G04 #@! TF.FilePolarity,Positive*
%FSLAX46Y46*%
G04 Gerber Fmt 4.6, Leading zero omitted, Abs format (unit mm)*
G04 Created by KiCad (PCBNEW (5.1.8)-1) date 2024-07-22 20:59:50*
%MOMM*%
%LPD*%
G01*
G04 APERTURE LIST*
G04 #@! TA.AperFunction,NonConductor*
%ADD10C,0.300000*%
G04 #@! TD*
G04 #@! TA.AperFunction,NonConductor*
%ADD11C,0.150000*%
G04 #@! TD*
G04 #@! TA.AperFunction,NonConductor*
%ADD12C,0.400000*%
G04 #@! TD*
G04 #@! TA.AperFunction,NonConductor*
%ADD13C,0.200000*%
G04 #@! TD*
G04 #@! TA.AperFunction,ComponentPad*
%ADD14C,2.600000*%
G04 #@! TD*
G04 #@! TA.AperFunction,ComponentPad*
%ADD15R,2.600000X2.600000*%
G04 #@! TD*
G04 #@! TA.AperFunction,ComponentPad*
%ADD16O,1.700000X1.700000*%
G04 #@! TD*
G04 #@! TA.AperFunction,ComponentPad*
%ADD17R,1.700000X1.700000*%
G04 #@! TD*
G04 #@! TA.AperFunction,SMDPad,CuDef*
%ADD18R,0.800000X0.900000*%
G04 #@! TD*
G04 #@! TA.AperFunction,SMDPad,CuDef*
%ADD19R,1.000000X1.500000*%
G04 #@! TD*
G04 #@! TA.AperFunction,ComponentPad*
%ADD20C,2.000000*%
G04 #@! TD*
G04 #@! TA.AperFunction,ComponentPad*
%ADD21O,2.000000X2.000000*%
G04 #@! TD*
G04 #@! TA.AperFunction,ComponentPad*
%ADD22O,2.000000X1.500000*%
G04 #@! TD*
G04 #@! TA.AperFunction,ComponentPad*
%ADD23R,2.000000X1.500000*%
G04 #@! TD*
G04 #@! TA.AperFunction,ComponentPad*
%ADD24R,2.000000X2.000000*%
G04 #@! TD*
G04 #@! TA.AperFunction,ComponentPad*
%ADD25C,1.800000*%
G04 #@! TD*
G04 #@! TA.AperFunction,ComponentPad*
%ADD26R,1.800000X1.800000*%
G04 #@! TD*
G04 #@! TA.AperFunction,ComponentPad*
%ADD27O,1.800000X1.500000*%
G04 #@! TD*
G04 #@! TA.AperFunction,ComponentPad*
%ADD28R,1.800000X1.500000*%
G04 #@! TD*
G04 #@! TA.AperFunction,ComponentPad*
%ADD29O,1.500000X2.000000*%
G04 #@! TD*
G04 #@! TA.AperFunction,ComponentPad*
%ADD30R,1.500000X2.000000*%
G04 #@! TD*
G04 #@! TA.AperFunction,ViaPad*
%ADD31C,1.500000*%
G04 #@! TD*
G04 #@! TA.AperFunction,Conductor*
%ADD32C,0.800000*%
G04 #@! TD*
G04 #@! TA.AperFunction,Conductor*
%ADD33C,1.200000*%
G04 #@! TD*
G04 #@! TA.AperFunction,Conductor*
%ADD34C,1.000000*%
G04 #@! TD*
G04 #@! TA.AperFunction,Conductor*
%ADD35C,0.600000*%
G04 #@! TD*
G04 #@! TA.AperFunction,Conductor*
%ADD36C,0.500000*%
G04 #@! TD*
G04 APERTURE END LIST*
D10*
X6080238Y-76375000D02*
X8080238Y-76375000D01*
X8080238Y-76851190D01*
X7985000Y-77136904D01*
X7794523Y-77327380D01*
X7604047Y-77422619D01*
X7223095Y-77517857D01*
X6937380Y-77517857D01*
X6556428Y-77422619D01*
X6365952Y-77327380D01*
X6175476Y-77136904D01*
X6080238Y-76851190D01*
X6080238Y-76375000D01*
X6651666Y-78279761D02*
X6651666Y-79232142D01*
X6080238Y-78089285D02*
X8080238Y-78755952D01*
X6080238Y-79422619D01*
X8080238Y-79803571D02*
X8080238Y-80946428D01*
X6080238Y-80375000D02*
X8080238Y-80375000D01*
X6651666Y-81517857D02*
X6651666Y-82470238D01*
X6080238Y-81327380D02*
X8080238Y-81994047D01*
X6080238Y-82660714D01*
D11*
X48974523Y-86447380D02*
X49307857Y-87447380D01*
X49641190Y-86447380D01*
X50403095Y-87399761D02*
X50307857Y-87447380D01*
X50117380Y-87447380D01*
X50022142Y-87399761D01*
X49974523Y-87352142D01*
X49926904Y-87256904D01*
X49926904Y-86971190D01*
X49974523Y-86875952D01*
X50022142Y-86828333D01*
X50117380Y-86780714D01*
X50307857Y-86780714D01*
X50403095Y-86828333D01*
X51260238Y-87399761D02*
X51165000Y-87447380D01*
X50974523Y-87447380D01*
X50879285Y-87399761D01*
X50831666Y-87352142D01*
X50784047Y-87256904D01*
X50784047Y-86971190D01*
X50831666Y-86875952D01*
X50879285Y-86828333D01*
X50974523Y-86780714D01*
X51165000Y-86780714D01*
X51260238Y-86828333D01*
X55872142Y-86495000D02*
X55776904Y-86447380D01*
X55634047Y-86447380D01*
X55491190Y-86495000D01*
X55395952Y-86590238D01*
X55348333Y-86685476D01*
X55300714Y-86875952D01*
X55300714Y-87018809D01*
X55348333Y-87209285D01*
X55395952Y-87304523D01*
X55491190Y-87399761D01*
X55634047Y-87447380D01*
X55729285Y-87447380D01*
X55872142Y-87399761D01*
X55919761Y-87352142D01*
X55919761Y-87018809D01*
X55729285Y-87018809D01*
X56348333Y-86780714D02*
X56348333Y-87447380D01*
X56348333Y-86875952D02*
X56395952Y-86828333D01*
X56491190Y-86780714D01*
X56634047Y-86780714D01*
X56729285Y-86828333D01*
X56776904Y-86923571D01*
X56776904Y-87447380D01*
X57681666Y-87447380D02*
X57681666Y-86447380D01*
X57681666Y-87399761D02*
X57586428Y-87447380D01*
X57395952Y-87447380D01*
X57300714Y-87399761D01*
X57253095Y-87352142D01*
X57205476Y-87256904D01*
X57205476Y-86971190D01*
X57253095Y-86875952D01*
X57300714Y-86828333D01*
X57395952Y-86780714D01*
X57586428Y-86780714D01*
X57681666Y-86828333D01*
X67603809Y-81000000D02*
X68603809Y-81000000D01*
X68413333Y-82272142D02*
X68365714Y-82319761D01*
X68222857Y-82367380D01*
X68127619Y-82367380D01*
X67984761Y-82319761D01*
X67889523Y-82224523D01*
X67841904Y-82129285D01*
X67794285Y-81938809D01*
X67794285Y-81795952D01*
X67841904Y-81605476D01*
X67889523Y-81510238D01*
X67984761Y-81415000D01*
X68127619Y-81367380D01*
X68222857Y-81367380D01*
X68365714Y-81415000D01*
X68413333Y-81462619D01*
X68603809Y-81000000D02*
X69556190Y-81000000D01*
X68794285Y-82319761D02*
X68937142Y-82367380D01*
X69175238Y-82367380D01*
X69270476Y-82319761D01*
X69318095Y-82272142D01*
X69365714Y-82176904D01*
X69365714Y-82081666D01*
X69318095Y-81986428D01*
X69270476Y-81938809D01*
X69175238Y-81891190D01*
X68984761Y-81843571D01*
X68889523Y-81795952D01*
X68841904Y-81748333D01*
X68794285Y-81653095D01*
X68794285Y-81557857D01*
X68841904Y-81462619D01*
X68889523Y-81415000D01*
X68984761Y-81367380D01*
X69222857Y-81367380D01*
X69365714Y-81415000D01*
X65063809Y-81000000D02*
X66111428Y-81000000D01*
X65492380Y-81367380D02*
X65682857Y-81367380D01*
X65778095Y-81415000D01*
X65873333Y-81510238D01*
X65920952Y-81700714D01*
X65920952Y-82034047D01*
X65873333Y-82224523D01*
X65778095Y-82319761D01*
X65682857Y-82367380D01*
X65492380Y-82367380D01*
X65397142Y-82319761D01*
X65301904Y-82224523D01*
X65254285Y-82034047D01*
X65254285Y-81700714D01*
X65301904Y-81510238D01*
X65397142Y-81415000D01*
X65492380Y-81367380D01*
X66111428Y-81000000D02*
X67016190Y-81000000D01*
X66349523Y-81843571D02*
X66682857Y-81843571D01*
X66825714Y-82367380D02*
X66349523Y-82367380D01*
X66349523Y-81367380D01*
X66825714Y-81367380D01*
X62428571Y-81000000D02*
X63571428Y-81000000D01*
X62571428Y-81367380D02*
X62809523Y-82367380D01*
X63000000Y-81653095D01*
X63190476Y-82367380D01*
X63428571Y-81367380D01*
X63571428Y-81000000D02*
X64571428Y-81000000D01*
X64380952Y-82367380D02*
X64047619Y-81891190D01*
X63809523Y-82367380D02*
X63809523Y-81367380D01*
X64190476Y-81367380D01*
X64285714Y-81415000D01*
X64333333Y-81462619D01*
X64380952Y-81557857D01*
X64380952Y-81700714D01*
X64333333Y-81795952D01*
X64285714Y-81843571D01*
X64190476Y-81891190D01*
X63809523Y-81891190D01*
X31392857Y-82510333D02*
X31345238Y-82462714D01*
X31297619Y-82319857D01*
X31297619Y-82224619D01*
X31345238Y-82081761D01*
X31440476Y-81986523D01*
X31535714Y-81938904D01*
X31726190Y-81891285D01*
X31869047Y-81891285D01*
X32059523Y-81938904D01*
X32154761Y-81986523D01*
X32250000Y-82081761D01*
X32297619Y-82224619D01*
X32297619Y-82319857D01*
X32250000Y-82462714D01*
X32202380Y-82510333D01*
X32297619Y-82843666D02*
X32297619Y-83510333D01*
X31297619Y-83081761D01*
X13612857Y-82383333D02*
X13565238Y-82335714D01*
X13517619Y-82192857D01*
X13517619Y-82097619D01*
X13565238Y-81954761D01*
X13660476Y-81859523D01*
X13755714Y-81811904D01*
X13946190Y-81764285D01*
X14089047Y-81764285D01*
X14279523Y-81811904D01*
X14374761Y-81859523D01*
X14470000Y-81954761D01*
X14517619Y-82097619D01*
X14517619Y-82192857D01*
X14470000Y-82335714D01*
X14422380Y-82383333D01*
X14517619Y-83002380D02*
X14517619Y-83097619D01*
X14470000Y-83192857D01*
X14422380Y-83240476D01*
X14327142Y-83288095D01*
X14136666Y-83335714D01*
X13898571Y-83335714D01*
X13708095Y-83288095D01*
X13612857Y-83240476D01*
X13565238Y-83192857D01*
X13517619Y-83097619D01*
X13517619Y-83002380D01*
X13565238Y-82907142D01*
X13612857Y-82859523D01*
X13708095Y-82811904D01*
X13898571Y-82764285D01*
X14136666Y-82764285D01*
X14327142Y-82811904D01*
X14422380Y-82859523D01*
X14470000Y-82907142D01*
X14517619Y-83002380D01*
X4754619Y-88161904D02*
X5754619Y-88161904D01*
X5754619Y-88400000D01*
X5707000Y-88542857D01*
X5611761Y-88638095D01*
X5516523Y-88685714D01*
X5326047Y-88733333D01*
X5183190Y-88733333D01*
X4992714Y-88685714D01*
X4897476Y-88638095D01*
X4802238Y-88542857D01*
X4754619Y-88400000D01*
X4754619Y-88161904D01*
X5754619Y-89066666D02*
X5754619Y-89733333D01*
X4754619Y-89304761D01*
X4627619Y-70381904D02*
X5627619Y-70381904D01*
X5627619Y-70620000D01*
X5580000Y-70762857D01*
X5484761Y-70858095D01*
X5389523Y-70905714D01*
X5199047Y-70953333D01*
X5056190Y-70953333D01*
X4865714Y-70905714D01*
X4770476Y-70858095D01*
X4675238Y-70762857D01*
X4627619Y-70620000D01*
X4627619Y-70381904D01*
X5627619Y-71572380D02*
X5627619Y-71667619D01*
X5580000Y-71762857D01*
X5532380Y-71810476D01*
X5437142Y-71858095D01*
X5246666Y-71905714D01*
X5008571Y-71905714D01*
X4818095Y-71858095D01*
X4722857Y-71810476D01*
X4675238Y-71762857D01*
X4627619Y-71667619D01*
X4627619Y-71572380D01*
X4675238Y-71477142D01*
X4722857Y-71429523D01*
X4818095Y-71381904D01*
X5008571Y-71334285D01*
X5246666Y-71334285D01*
X5437142Y-71381904D01*
X5532380Y-71429523D01*
X5580000Y-71477142D01*
X5627619Y-71572380D01*
D12*
X43537857Y-8199285D02*
X43966428Y-8342142D01*
X44680714Y-8342142D01*
X44966428Y-8199285D01*
X45109285Y-8056428D01*
X45252142Y-7770714D01*
X45252142Y-7485000D01*
X45109285Y-7199285D01*
X44966428Y-7056428D01*
X44680714Y-6913571D01*
X44109285Y-6770714D01*
X43823571Y-6627857D01*
X43680714Y-6485000D01*
X43537857Y-6199285D01*
X43537857Y-5913571D01*
X43680714Y-5627857D01*
X43823571Y-5485000D01*
X44109285Y-5342142D01*
X44823571Y-5342142D01*
X45252142Y-5485000D01*
X48252142Y-8342142D02*
X47252142Y-6913571D01*
X46537857Y-8342142D02*
X46537857Y-5342142D01*
X47680714Y-5342142D01*
X47966428Y-5485000D01*
X48109285Y-5627857D01*
X48252142Y-5913571D01*
X48252142Y-6342142D01*
X48109285Y-6627857D01*
X47966428Y-6770714D01*
X47680714Y-6913571D01*
X46537857Y-6913571D01*
X49395000Y-7485000D02*
X50823571Y-7485000D01*
X49109285Y-8342142D02*
X50109285Y-5342142D01*
X51109285Y-8342142D01*
X52109285Y-8342142D02*
X52109285Y-5342142D01*
X53109285Y-7485000D01*
X54109285Y-5342142D01*
X54109285Y-8342142D01*
D11*
X4913333Y-61674523D02*
X4913333Y-62150714D01*
X4627619Y-61579285D02*
X5627619Y-61912619D01*
X4627619Y-62245952D01*
X4627619Y-63103095D02*
X4627619Y-62531666D01*
X4627619Y-62817380D02*
X5627619Y-62817380D01*
X5484761Y-62722142D01*
X5389523Y-62626904D01*
X5341904Y-62531666D01*
X5627619Y-64007857D02*
X5627619Y-63531666D01*
X5151428Y-63484047D01*
X5199047Y-63531666D01*
X5246666Y-63626904D01*
X5246666Y-63865000D01*
X5199047Y-63960238D01*
X5151428Y-64007857D01*
X5056190Y-64055476D01*
X4818095Y-64055476D01*
X4722857Y-64007857D01*
X4675238Y-63960238D01*
X4627619Y-63865000D01*
X4627619Y-63626904D01*
X4675238Y-63531666D01*
X4722857Y-63484047D01*
X4913333Y-44370714D02*
X4913333Y-44846904D01*
X4627619Y-44275476D02*
X5627619Y-44608809D01*
X4627619Y-44942142D01*
X5199047Y-45418333D02*
X5246666Y-45323095D01*
X5294285Y-45275476D01*
X5389523Y-45227857D01*
X5437142Y-45227857D01*
X5532380Y-45275476D01*
X5580000Y-45323095D01*
X5627619Y-45418333D01*
X5627619Y-45608809D01*
X5580000Y-45704047D01*
X5532380Y-45751666D01*
X5437142Y-45799285D01*
X5389523Y-45799285D01*
X5294285Y-45751666D01*
X5246666Y-45704047D01*
X5199047Y-45608809D01*
X5199047Y-45418333D01*
X5151428Y-45323095D01*
X5103809Y-45275476D01*
X5008571Y-45227857D01*
X4818095Y-45227857D01*
X4722857Y-45275476D01*
X4675238Y-45323095D01*
X4627619Y-45418333D01*
X4627619Y-45608809D01*
X4675238Y-45704047D01*
X4722857Y-45751666D01*
X4818095Y-45799285D01*
X5008571Y-45799285D01*
X5103809Y-45751666D01*
X5151428Y-45704047D01*
X5199047Y-45608809D01*
D10*
X6651666Y-50498809D02*
X6651666Y-51451190D01*
X6080238Y-50308333D02*
X8080238Y-50975000D01*
X6080238Y-51641666D01*
X6080238Y-52308333D02*
X8080238Y-52308333D01*
X8080238Y-52784523D01*
X7985000Y-53070238D01*
X7794523Y-53260714D01*
X7604047Y-53355952D01*
X7223095Y-53451190D01*
X6937380Y-53451190D01*
X6556428Y-53355952D01*
X6365952Y-53260714D01*
X6175476Y-53070238D01*
X6080238Y-52784523D01*
X6080238Y-52308333D01*
X6080238Y-54308333D02*
X8080238Y-54308333D01*
X8080238Y-54784523D01*
X7985000Y-55070238D01*
X7794523Y-55260714D01*
X7604047Y-55355952D01*
X7223095Y-55451190D01*
X6937380Y-55451190D01*
X6556428Y-55355952D01*
X6365952Y-55260714D01*
X6175476Y-55070238D01*
X6080238Y-54784523D01*
X6080238Y-54308333D01*
X6080238Y-57451190D02*
X7032619Y-56784523D01*
X6080238Y-56308333D02*
X8080238Y-56308333D01*
X8080238Y-57070238D01*
X7985000Y-57260714D01*
X7889761Y-57355952D01*
X7699285Y-57451190D01*
X7413571Y-57451190D01*
X7223095Y-57355952D01*
X7127857Y-57260714D01*
X7032619Y-57070238D01*
X7032619Y-56308333D01*
D11*
X4913333Y-34210714D02*
X4913333Y-34686904D01*
X4627619Y-34115476D02*
X5627619Y-34448809D01*
X4627619Y-34782142D01*
X5627619Y-35020238D02*
X5627619Y-35686904D01*
X4627619Y-35258333D01*
X4913333Y-16430714D02*
X4913333Y-16906904D01*
X4627619Y-16335476D02*
X5627619Y-16668809D01*
X4627619Y-17002142D01*
X5627619Y-17525952D02*
X5627619Y-17621190D01*
X5580000Y-17716428D01*
X5532380Y-17764047D01*
X5437142Y-17811666D01*
X5246666Y-17859285D01*
X5008571Y-17859285D01*
X4818095Y-17811666D01*
X4722857Y-17764047D01*
X4675238Y-17716428D01*
X4627619Y-17621190D01*
X4627619Y-17525952D01*
X4675238Y-17430714D01*
X4722857Y-17383095D01*
X4818095Y-17335476D01*
X5008571Y-17287857D01*
X5246666Y-17287857D01*
X5437142Y-17335476D01*
X5532380Y-17383095D01*
X5580000Y-17430714D01*
X5627619Y-17525952D01*
D10*
X6651666Y-21923809D02*
X6651666Y-22876190D01*
X6080238Y-21733333D02*
X8080238Y-22400000D01*
X6080238Y-23066666D01*
X6080238Y-23733333D02*
X8080238Y-23733333D01*
X8080238Y-24209523D01*
X7985000Y-24495238D01*
X7794523Y-24685714D01*
X7604047Y-24780952D01*
X7223095Y-24876190D01*
X6937380Y-24876190D01*
X6556428Y-24780952D01*
X6365952Y-24685714D01*
X6175476Y-24495238D01*
X6080238Y-24209523D01*
X6080238Y-23733333D01*
X6080238Y-25733333D02*
X8080238Y-25733333D01*
X8080238Y-26209523D01*
X7985000Y-26495238D01*
X7794523Y-26685714D01*
X7604047Y-26780952D01*
X7223095Y-26876190D01*
X6937380Y-26876190D01*
X6556428Y-26780952D01*
X6365952Y-26685714D01*
X6175476Y-26495238D01*
X6080238Y-26209523D01*
X6080238Y-25733333D01*
X6080238Y-28876190D02*
X7032619Y-28209523D01*
X6080238Y-27733333D02*
X8080238Y-27733333D01*
X8080238Y-28495238D01*
X7985000Y-28685714D01*
X7889761Y-28780952D01*
X7699285Y-28876190D01*
X7413571Y-28876190D01*
X7223095Y-28780952D01*
X7127857Y-28685714D01*
X7032619Y-28495238D01*
X7032619Y-27733333D01*
D13*
X37992857Y-53951428D02*
X37992857Y-55094285D01*
X37421428Y-54522857D02*
X38564285Y-54522857D01*
X38921428Y-56522857D02*
X38921428Y-55808571D01*
X38207142Y-55737142D01*
X38278571Y-55808571D01*
X38350000Y-55951428D01*
X38350000Y-56308571D01*
X38278571Y-56451428D01*
X38207142Y-56522857D01*
X38064285Y-56594285D01*
X37707142Y-56594285D01*
X37564285Y-56522857D01*
X37492857Y-56451428D01*
X37421428Y-56308571D01*
X37421428Y-55951428D01*
X37492857Y-55808571D01*
X37564285Y-55737142D01*
X38921428Y-57022857D02*
X37421428Y-57522857D01*
X38921428Y-58022857D01*
D10*
X73232142Y-6306428D02*
X73303571Y-6235000D01*
X73446428Y-6163571D01*
X73803571Y-6163571D01*
X73946428Y-6235000D01*
X74017857Y-6306428D01*
X74089285Y-6449285D01*
X74089285Y-6592142D01*
X74017857Y-6806428D01*
X73160714Y-7663571D01*
X74089285Y-7663571D01*
X74660714Y-6306428D02*
X74732142Y-6235000D01*
X74875000Y-6163571D01*
X75232142Y-6163571D01*
X75375000Y-6235000D01*
X75446428Y-6306428D01*
X75517857Y-6449285D01*
X75517857Y-6592142D01*
X75446428Y-6806428D01*
X74589285Y-7663571D01*
X75517857Y-7663571D01*
X76160714Y-7520714D02*
X76232142Y-7592142D01*
X76160714Y-7663571D01*
X76089285Y-7592142D01*
X76160714Y-7520714D01*
X76160714Y-7663571D01*
X77160714Y-6163571D02*
X77303571Y-6163571D01*
X77446428Y-6235000D01*
X77517857Y-6306428D01*
X77589285Y-6449285D01*
X77660714Y-6735000D01*
X77660714Y-7092142D01*
X77589285Y-7377857D01*
X77517857Y-7520714D01*
X77446428Y-7592142D01*
X77303571Y-7663571D01*
X77160714Y-7663571D01*
X77017857Y-7592142D01*
X76946428Y-7520714D01*
X76875000Y-7377857D01*
X76803571Y-7092142D01*
X76803571Y-6735000D01*
X76875000Y-6449285D01*
X76946428Y-6306428D01*
X77017857Y-6235000D01*
X77160714Y-6163571D01*
X78160714Y-6163571D02*
X79160714Y-6163571D01*
X78517857Y-7663571D01*
X79732142Y-7520714D02*
X79803571Y-7592142D01*
X79732142Y-7663571D01*
X79660714Y-7592142D01*
X79732142Y-7520714D01*
X79732142Y-7663571D01*
X80375000Y-6306428D02*
X80446428Y-6235000D01*
X80589285Y-6163571D01*
X80946428Y-6163571D01*
X81089285Y-6235000D01*
X81160714Y-6306428D01*
X81232142Y-6449285D01*
X81232142Y-6592142D01*
X81160714Y-6806428D01*
X80303571Y-7663571D01*
X81232142Y-7663571D01*
X82160714Y-6163571D02*
X82303571Y-6163571D01*
X82446428Y-6235000D01*
X82517857Y-6306428D01*
X82589285Y-6449285D01*
X82660714Y-6735000D01*
X82660714Y-7092142D01*
X82589285Y-7377857D01*
X82517857Y-7520714D01*
X82446428Y-7592142D01*
X82303571Y-7663571D01*
X82160714Y-7663571D01*
X82017857Y-7592142D01*
X81946428Y-7520714D01*
X81875000Y-7377857D01*
X81803571Y-7092142D01*
X81803571Y-6735000D01*
X81875000Y-6449285D01*
X81946428Y-6306428D01*
X82017857Y-6235000D01*
X82160714Y-6163571D01*
X83232142Y-6306428D02*
X83303571Y-6235000D01*
X83446428Y-6163571D01*
X83803571Y-6163571D01*
X83946428Y-6235000D01*
X84017857Y-6306428D01*
X84089285Y-6449285D01*
X84089285Y-6592142D01*
X84017857Y-6806428D01*
X83160714Y-7663571D01*
X84089285Y-7663571D01*
X85375000Y-6663571D02*
X85375000Y-7663571D01*
X85017857Y-6092142D02*
X84660714Y-7163571D01*
X85589285Y-7163571D01*
X61119285Y-6163571D02*
X62119285Y-6163571D01*
X61476428Y-7663571D01*
X63333571Y-6663571D02*
X63333571Y-7663571D01*
X62976428Y-6092142D02*
X62619285Y-7163571D01*
X63547857Y-7163571D01*
X64119285Y-7663571D02*
X64119285Y-6163571D01*
X64119285Y-6877857D02*
X64976428Y-6877857D01*
X64976428Y-7663571D02*
X64976428Y-6163571D01*
X66547857Y-7520714D02*
X66476428Y-7592142D01*
X66262142Y-7663571D01*
X66119285Y-7663571D01*
X65905000Y-7592142D01*
X65762142Y-7449285D01*
X65690714Y-7306428D01*
X65619285Y-7020714D01*
X65619285Y-6806428D01*
X65690714Y-6520714D01*
X65762142Y-6377857D01*
X65905000Y-6235000D01*
X66119285Y-6163571D01*
X66262142Y-6163571D01*
X66476428Y-6235000D01*
X66547857Y-6306428D01*
X67190714Y-7663571D02*
X67190714Y-6163571D01*
X67762142Y-6163571D01*
X67905000Y-6235000D01*
X67976428Y-6306428D01*
X68047857Y-6449285D01*
X68047857Y-6663571D01*
X67976428Y-6806428D01*
X67905000Y-6877857D01*
X67762142Y-6949285D01*
X67190714Y-6949285D01*
X68690714Y-6163571D02*
X68690714Y-7377857D01*
X68762142Y-7520714D01*
X68833571Y-7592142D01*
X68976428Y-7663571D01*
X69262142Y-7663571D01*
X69405000Y-7592142D01*
X69476428Y-7520714D01*
X69547857Y-7377857D01*
X69547857Y-6163571D01*
D14*
X55800000Y-80645000D03*
D15*
X50800000Y-80645000D03*
D16*
X68580000Y-78740000D03*
X66040000Y-78740000D03*
D17*
X63500000Y-78740000D03*
D18*
X44450000Y-79740000D03*
X43500000Y-77740000D03*
X45400000Y-77740000D03*
D19*
X83850000Y-55245000D03*
X82550000Y-55245000D03*
X81250000Y-55245000D03*
X73690000Y-55245000D03*
X72390000Y-55245000D03*
X71090000Y-55245000D03*
D20*
X55085000Y-55880000D03*
X45085000Y-55880000D03*
X18575000Y-5715000D03*
X28575000Y-5715000D03*
D21*
X2540000Y-71120000D03*
X2540000Y-73660000D03*
X2540000Y-76200000D03*
D22*
X2540000Y-78740000D03*
X2540000Y-81280000D03*
X2540000Y-83820000D03*
X2540000Y-86360000D03*
D23*
X2540000Y-88900000D03*
D21*
X2540000Y-45085000D03*
X2540000Y-47625000D03*
X2540000Y-50165000D03*
X2540000Y-52705000D03*
X2540000Y-55245000D03*
X2540000Y-57785000D03*
X2540000Y-60325000D03*
D24*
X2540000Y-62865000D03*
D21*
X2540000Y-17145000D03*
X2540000Y-19685000D03*
X2540000Y-22225000D03*
X2540000Y-24765000D03*
X2540000Y-27305000D03*
X2540000Y-29845000D03*
X2540000Y-32385000D03*
D24*
X2540000Y-34925000D03*
D25*
X43180000Y-65405000D03*
D26*
X45720000Y-65405000D03*
D25*
X52070000Y-65405000D03*
D26*
X54610000Y-65405000D03*
D25*
X60960000Y-65405000D03*
D26*
X63500000Y-65405000D03*
D22*
X67310000Y-51435000D03*
X82550000Y-18415000D03*
X67310000Y-48895000D03*
X82550000Y-20955000D03*
X67310000Y-46355000D03*
X82550000Y-23495000D03*
X67310000Y-43815000D03*
X82550000Y-26035000D03*
X67310000Y-41275000D03*
X82550000Y-28575000D03*
X67310000Y-38735000D03*
X82550000Y-31115000D03*
X67310000Y-36195000D03*
X82550000Y-33655000D03*
X67310000Y-33655000D03*
X82550000Y-36195000D03*
X67310000Y-31115000D03*
X82550000Y-38735000D03*
X67310000Y-28575000D03*
X82550000Y-41275000D03*
X67310000Y-26035000D03*
X82550000Y-43815000D03*
X67310000Y-23495000D03*
X82550000Y-46355000D03*
X67310000Y-20955000D03*
X82550000Y-48895000D03*
X67310000Y-18415000D03*
D23*
X82550000Y-51435000D03*
D27*
X71120000Y-75565000D03*
X78740000Y-60325000D03*
X71120000Y-73025000D03*
X78740000Y-62865000D03*
X71120000Y-70485000D03*
X78740000Y-65405000D03*
X71120000Y-67945000D03*
X78740000Y-67945000D03*
X71120000Y-65405000D03*
X78740000Y-70485000D03*
X71120000Y-62865000D03*
X78740000Y-73025000D03*
X71120000Y-60325000D03*
D28*
X78740000Y-75565000D03*
D20*
X40005000Y-84930000D03*
X40005000Y-74930000D03*
D21*
X13970000Y-79375000D03*
D29*
X16510000Y-79375000D03*
X19050000Y-79375000D03*
D21*
X21590000Y-79375000D03*
X24130000Y-79375000D03*
X26670000Y-79375000D03*
X29210000Y-79375000D03*
D24*
X31750000Y-79375000D03*
G04 #@! TA.AperFunction,SMDPad,CuDef*
G36*
G01*
X60775001Y-70355000D02*
X59874999Y-70355000D01*
G75*
G02*
X59625000Y-70105001I0J249999D01*
G01*
X59625000Y-69404999D01*
G75*
G02*
X59874999Y-69155000I249999J0D01*
G01*
X60775001Y-69155000D01*
G75*
G02*
X61025000Y-69404999I0J-249999D01*
G01*
X61025000Y-70105001D01*
G75*
G02*
X60775001Y-70355000I-249999J0D01*
G01*
G37*
G04 #@! TD.AperFunction*
G04 #@! TA.AperFunction,SMDPad,CuDef*
G36*
G01*
X60775001Y-72355000D02*
X59874999Y-72355000D01*
G75*
G02*
X59625000Y-72105001I0J249999D01*
G01*
X59625000Y-71404999D01*
G75*
G02*
X59874999Y-71155000I249999J0D01*
G01*
X60775001Y-71155000D01*
G75*
G02*
X61025000Y-71404999I0J-249999D01*
G01*
X61025000Y-72105001D01*
G75*
G02*
X60775001Y-72355000I-249999J0D01*
G01*
G37*
G04 #@! TD.AperFunction*
G04 #@! TA.AperFunction,SMDPad,CuDef*
G36*
G01*
X51885001Y-72355000D02*
X50984999Y-72355000D01*
G75*
G02*
X50735000Y-72105001I0J249999D01*
G01*
X50735000Y-71404999D01*
G75*
G02*
X50984999Y-71155000I249999J0D01*
G01*
X51885001Y-71155000D01*
G75*
G02*
X52135000Y-71404999I0J-249999D01*
G01*
X52135000Y-72105001D01*
G75*
G02*
X51885001Y-72355000I-249999J0D01*
G01*
G37*
G04 #@! TD.AperFunction*
G04 #@! TA.AperFunction,SMDPad,CuDef*
G36*
G01*
X51885001Y-70355000D02*
X50984999Y-70355000D01*
G75*
G02*
X50735000Y-70105001I0J249999D01*
G01*
X50735000Y-69404999D01*
G75*
G02*
X50984999Y-69155000I249999J0D01*
G01*
X51885001Y-69155000D01*
G75*
G02*
X52135000Y-69404999I0J-249999D01*
G01*
X52135000Y-70105001D01*
G75*
G02*
X51885001Y-70355000I-249999J0D01*
G01*
G37*
G04 #@! TD.AperFunction*
G04 #@! TA.AperFunction,SMDPad,CuDef*
G36*
G01*
X42677501Y-70355000D02*
X41777499Y-70355000D01*
G75*
G02*
X41527500Y-70105001I0J249999D01*
G01*
X41527500Y-69404999D01*
G75*
G02*
X41777499Y-69155000I249999J0D01*
G01*
X42677501Y-69155000D01*
G75*
G02*
X42927500Y-69404999I0J-249999D01*
G01*
X42927500Y-70105001D01*
G75*
G02*
X42677501Y-70355000I-249999J0D01*
G01*
G37*
G04 #@! TD.AperFunction*
G04 #@! TA.AperFunction,SMDPad,CuDef*
G36*
G01*
X42677501Y-72355000D02*
X41777499Y-72355000D01*
G75*
G02*
X41527500Y-72105001I0J249999D01*
G01*
X41527500Y-71404999D01*
G75*
G02*
X41777499Y-71155000I249999J0D01*
G01*
X42677501Y-71155000D01*
G75*
G02*
X42927500Y-71404999I0J-249999D01*
G01*
X42927500Y-72105001D01*
G75*
G02*
X42677501Y-72355000I-249999J0D01*
G01*
G37*
G04 #@! TD.AperFunction*
D30*
X31750000Y-10795000D03*
D29*
X13970000Y-18415000D03*
X29210000Y-10795000D03*
X16510000Y-18415000D03*
X26670000Y-10795000D03*
X19050000Y-18415000D03*
X24130000Y-10795000D03*
X21590000Y-18415000D03*
X21590000Y-10795000D03*
X24130000Y-18415000D03*
X19050000Y-10795000D03*
X26670000Y-18415000D03*
X16510000Y-10795000D03*
X29210000Y-18415000D03*
X13970000Y-10795000D03*
X31750000Y-18415000D03*
D23*
X59690000Y-51435000D03*
D22*
X44450000Y-18415000D03*
X59690000Y-48895000D03*
X44450000Y-20955000D03*
X59690000Y-46355000D03*
X44450000Y-23495000D03*
X59690000Y-43815000D03*
X44450000Y-26035000D03*
X59690000Y-41275000D03*
X44450000Y-28575000D03*
X59690000Y-38735000D03*
X44450000Y-31115000D03*
X59690000Y-36195000D03*
X44450000Y-33655000D03*
X59690000Y-33655000D03*
X44450000Y-36195000D03*
X59690000Y-31115000D03*
X44450000Y-38735000D03*
X59690000Y-28575000D03*
X44450000Y-41275000D03*
X59690000Y-26035000D03*
X44450000Y-43815000D03*
X59690000Y-23495000D03*
X44450000Y-46355000D03*
X59690000Y-20955000D03*
X44450000Y-48895000D03*
X59690000Y-18415000D03*
X44450000Y-51435000D03*
D29*
X31750000Y-37465000D03*
X13970000Y-29845000D03*
X29210000Y-37465000D03*
X16510000Y-29845000D03*
X26670000Y-37465000D03*
X19050000Y-29845000D03*
X24130000Y-37465000D03*
X21590000Y-29845000D03*
X21590000Y-37465000D03*
X24130000Y-29845000D03*
X19050000Y-37465000D03*
X26670000Y-29845000D03*
X16510000Y-37465000D03*
X29210000Y-29845000D03*
X13970000Y-37465000D03*
D30*
X31750000Y-29845000D03*
X31750000Y-46355000D03*
D29*
X13970000Y-53975000D03*
X29210000Y-46355000D03*
X16510000Y-53975000D03*
X26670000Y-46355000D03*
X19050000Y-53975000D03*
X24130000Y-46355000D03*
X21590000Y-53975000D03*
X21590000Y-46355000D03*
X24130000Y-53975000D03*
X19050000Y-46355000D03*
X26670000Y-53975000D03*
X16510000Y-46355000D03*
X29210000Y-53975000D03*
X13970000Y-46355000D03*
X31750000Y-53975000D03*
X31750000Y-71755000D03*
X13970000Y-64135000D03*
X29210000Y-71755000D03*
X16510000Y-64135000D03*
X26670000Y-71755000D03*
X19050000Y-64135000D03*
X24130000Y-71755000D03*
X21590000Y-64135000D03*
X21590000Y-71755000D03*
X24130000Y-64135000D03*
X19050000Y-71755000D03*
X26670000Y-64135000D03*
X16510000Y-71755000D03*
X29210000Y-64135000D03*
X13970000Y-71755000D03*
D30*
X31750000Y-64135000D03*
G04 #@! TA.AperFunction,SMDPad,CuDef*
G36*
G01*
X64585001Y-72355000D02*
X63684999Y-72355000D01*
G75*
G02*
X63435000Y-72105001I0J249999D01*
G01*
X63435000Y-71404999D01*
G75*
G02*
X63684999Y-71155000I249999J0D01*
G01*
X64585001Y-71155000D01*
G75*
G02*
X64835000Y-71404999I0J-249999D01*
G01*
X64835000Y-72105001D01*
G75*
G02*
X64585001Y-72355000I-249999J0D01*
G01*
G37*
G04 #@! TD.AperFunction*
G04 #@! TA.AperFunction,SMDPad,CuDef*
G36*
G01*
X64585001Y-70355000D02*
X63684999Y-70355000D01*
G75*
G02*
X63435000Y-70105001I0J249999D01*
G01*
X63435000Y-69404999D01*
G75*
G02*
X63684999Y-69155000I249999J0D01*
G01*
X64585001Y-69155000D01*
G75*
G02*
X64835000Y-69404999I0J-249999D01*
G01*
X64835000Y-70105001D01*
G75*
G02*
X64585001Y-70355000I-249999J0D01*
G01*
G37*
G04 #@! TD.AperFunction*
G04 #@! TA.AperFunction,SMDPad,CuDef*
G36*
G01*
X55695001Y-70355000D02*
X54794999Y-70355000D01*
G75*
G02*
X54545000Y-70105001I0J249999D01*
G01*
X54545000Y-69404999D01*
G75*
G02*
X54794999Y-69155000I249999J0D01*
G01*
X55695001Y-69155000D01*
G75*
G02*
X55945000Y-69404999I0J-249999D01*
G01*
X55945000Y-70105001D01*
G75*
G02*
X55695001Y-70355000I-249999J0D01*
G01*
G37*
G04 #@! TD.AperFunction*
G04 #@! TA.AperFunction,SMDPad,CuDef*
G36*
G01*
X55695001Y-72355000D02*
X54794999Y-72355000D01*
G75*
G02*
X54545000Y-72105001I0J249999D01*
G01*
X54545000Y-71404999D01*
G75*
G02*
X54794999Y-71155000I249999J0D01*
G01*
X55695001Y-71155000D01*
G75*
G02*
X55945000Y-71404999I0J-249999D01*
G01*
X55945000Y-72105001D01*
G75*
G02*
X55695001Y-72355000I-249999J0D01*
G01*
G37*
G04 #@! TD.AperFunction*
G04 #@! TA.AperFunction,SMDPad,CuDef*
G36*
G01*
X46805001Y-72355000D02*
X45904999Y-72355000D01*
G75*
G02*
X45655000Y-72105001I0J249999D01*
G01*
X45655000Y-71404999D01*
G75*
G02*
X45904999Y-71155000I249999J0D01*
G01*
X46805001Y-71155000D01*
G75*
G02*
X47055000Y-71404999I0J-249999D01*
G01*
X47055000Y-72105001D01*
G75*
G02*
X46805001Y-72355000I-249999J0D01*
G01*
G37*
G04 #@! TD.AperFunction*
G04 #@! TA.AperFunction,SMDPad,CuDef*
G36*
G01*
X46805001Y-70355000D02*
X45904999Y-70355000D01*
G75*
G02*
X45655000Y-70105001I0J249999D01*
G01*
X45655000Y-69404999D01*
G75*
G02*
X45904999Y-69155000I249999J0D01*
G01*
X46805001Y-69155000D01*
G75*
G02*
X47055000Y-69404999I0J-249999D01*
G01*
X47055000Y-70105001D01*
G75*
G02*
X46805001Y-70355000I-249999J0D01*
G01*
G37*
G04 #@! TD.AperFunction*
D31*
X57785000Y-60325000D03*
X57785000Y-65405000D03*
X77470000Y-53340000D03*
X53975000Y-31115000D03*
X62865000Y-60325000D03*
X37465000Y-48895000D03*
X40005000Y-49530000D03*
X41910000Y-47625000D03*
X24130000Y-42545000D03*
D32*
X35560000Y-71755000D02*
X31750000Y-71755000D01*
X31750000Y-18415000D02*
X35560000Y-18415000D01*
X31750000Y-53975000D02*
X35560000Y-53975000D01*
X31750000Y-37465000D02*
X35560000Y-37465000D01*
D33*
X35560000Y-18415000D02*
X35560000Y-36195000D01*
X35560000Y-40640000D02*
X35560000Y-53975000D01*
X35560000Y-36195000D02*
X35560000Y-40640000D01*
D32*
X44450000Y-51435000D02*
X35560000Y-51435000D01*
D33*
X35560000Y-66675000D02*
X35560000Y-71755000D01*
X35560000Y-61595000D02*
X35560000Y-66675000D01*
D32*
X60325000Y-71755000D02*
X42227500Y-71755000D01*
X42227500Y-71755000D02*
X35560000Y-71755000D01*
D34*
X35560000Y-71755000D02*
X35560000Y-73025000D01*
X35560000Y-73025000D02*
X38100000Y-75565000D01*
D32*
X67310000Y-51435000D02*
X67310000Y-55245000D01*
D33*
X35560000Y-59690000D02*
X35560000Y-61595000D01*
X35560000Y-53975000D02*
X35560000Y-59055000D01*
X35560000Y-59055000D02*
X35560000Y-59690000D01*
D35*
X64135000Y-71755000D02*
X60325000Y-71755000D01*
D32*
X40005000Y-74930000D02*
X40005000Y-75565000D01*
D34*
X38100000Y-75565000D02*
X40005000Y-75565000D01*
D32*
X67310000Y-55245000D02*
X67310000Y-75565000D01*
D34*
X67310000Y-75565000D02*
X50800000Y-75565000D01*
X71120000Y-75565000D02*
X67310000Y-75565000D01*
D32*
X28575000Y-5715000D02*
X34290000Y-5715000D01*
X35560000Y-6985000D02*
X35560000Y-18415000D01*
X34290000Y-5715000D02*
X35560000Y-6985000D01*
X45085000Y-53975000D02*
X44450000Y-53340000D01*
X45085000Y-55880000D02*
X45085000Y-53975000D01*
X44450000Y-51435000D02*
X44450000Y-53340000D01*
D35*
X43500000Y-75567500D02*
X43497500Y-75565000D01*
X43500000Y-77740000D02*
X43500000Y-75567500D01*
D34*
X43497500Y-75565000D02*
X50800000Y-75565000D01*
X40005000Y-75565000D02*
X43497500Y-75565000D01*
D32*
X11430000Y-29845000D02*
X13970000Y-29845000D01*
D33*
X11430000Y-28575000D02*
X11430000Y-10795000D01*
D32*
X11430000Y-46355000D02*
X13970000Y-46355000D01*
D33*
X11430000Y-46355000D02*
X11430000Y-28575000D01*
D32*
X11430000Y-64135000D02*
X13970000Y-64135000D01*
X13970000Y-10795000D02*
X11430000Y-10795000D01*
X82550000Y-18415000D02*
X82550000Y-13335000D01*
X82550000Y-13335000D02*
X59690000Y-13335000D01*
X59690000Y-13335000D02*
X59690000Y-18415000D01*
D34*
X53340000Y-84455000D02*
X77470000Y-84455000D01*
X77470000Y-84455000D02*
X87630000Y-74295000D01*
X86360000Y-18415000D02*
X82550000Y-18415000D01*
X87630000Y-19685000D02*
X86360000Y-18415000D01*
D33*
X11430000Y-59055000D02*
X11430000Y-46355000D01*
D34*
X11430000Y-64135000D02*
X11430000Y-83185000D01*
D33*
X11430000Y-64135000D02*
X11430000Y-61595000D01*
X11430000Y-61595000D02*
X11430000Y-83185000D01*
X11430000Y-61595000D02*
X11430000Y-59055000D01*
X11430000Y-83185000D02*
X12700000Y-84455000D01*
X12700000Y-84455000D02*
X53340000Y-84455000D01*
X55880000Y-80645000D02*
X55880000Y-84455000D01*
D35*
X78740000Y-60325000D02*
X87630000Y-60325000D01*
D34*
X87630000Y-74295000D02*
X87630000Y-60325000D01*
X87630000Y-51435000D02*
X87630000Y-19685000D01*
D32*
X18575000Y-5715000D02*
X13970000Y-5715000D01*
X11430000Y-8255000D02*
X11430000Y-10795000D01*
X13970000Y-5715000D02*
X11430000Y-8255000D01*
X59690000Y-18415000D02*
X53340000Y-18415000D01*
X53340000Y-18415000D02*
X50800000Y-20955000D01*
X50800000Y-20955000D02*
X50800000Y-41910000D01*
X55085000Y-46195000D02*
X55085000Y-55880000D01*
X50800000Y-41910000D02*
X55085000Y-46195000D01*
D36*
X87630000Y-55245000D02*
X83850000Y-55245000D01*
D34*
X87630000Y-60325000D02*
X87630000Y-55245000D01*
X87630000Y-55245000D02*
X87630000Y-51435000D01*
D35*
X55197500Y-77740000D02*
X45400000Y-77740000D01*
X55880000Y-78422500D02*
X55880000Y-80645000D01*
X55197500Y-77740000D02*
X55880000Y-78422500D01*
D36*
X64135000Y-69755000D02*
X64135000Y-68580000D01*
X63500000Y-67945000D02*
X63500000Y-65405000D01*
X64135000Y-68580000D02*
X63500000Y-67945000D01*
X55245000Y-69755000D02*
X55245000Y-67945000D01*
X54610000Y-67310000D02*
X54610000Y-65405000D01*
X55245000Y-67945000D02*
X54610000Y-67310000D01*
X57785000Y-60325000D02*
X57785000Y-65405000D01*
X57785000Y-65405000D02*
X54610000Y-65405000D01*
X46355000Y-69755000D02*
X46355000Y-67945000D01*
X45720000Y-67310000D02*
X45720000Y-65405000D01*
X46355000Y-67945000D02*
X45720000Y-67310000D01*
X45720000Y-61595000D02*
X45720000Y-65405000D01*
X48895000Y-58420000D02*
X45720000Y-61595000D01*
X48895000Y-49530000D02*
X48895000Y-58420000D01*
X48260000Y-48895000D02*
X48895000Y-49530000D01*
X44450000Y-48895000D02*
X48260000Y-48895000D01*
X71090000Y-55245000D02*
X71090000Y-50770000D01*
X71090000Y-50770000D02*
X70485000Y-50165000D01*
X70485000Y-50165000D02*
X65405000Y-50165000D01*
X65405000Y-50165000D02*
X64770000Y-50800000D01*
X64770000Y-50800000D02*
X64770000Y-61595000D01*
X64770000Y-61595000D02*
X64135000Y-62230000D01*
X64135000Y-62230000D02*
X61595000Y-62230000D01*
X61595000Y-62230000D02*
X60325000Y-60960000D01*
X60325000Y-60960000D02*
X60325000Y-59690000D01*
X60325000Y-59690000D02*
X58420000Y-57785000D01*
X58420000Y-57785000D02*
X57150000Y-57785000D01*
X57150000Y-57785000D02*
X56515000Y-58420000D01*
X56515000Y-58420000D02*
X48895000Y-58420000D01*
X13970000Y-74295000D02*
X13970000Y-79375000D01*
X15240000Y-73025000D02*
X13970000Y-74295000D01*
X15240000Y-16510000D02*
X15240000Y-73025000D01*
X19050000Y-12700000D02*
X15240000Y-16510000D01*
X19050000Y-10795000D02*
X19050000Y-12700000D01*
X27940000Y-13335000D02*
X29210000Y-12065000D01*
X20955000Y-13335000D02*
X27940000Y-13335000D01*
X17780000Y-16510000D02*
X20955000Y-13335000D01*
X17780000Y-73660000D02*
X17780000Y-16510000D01*
X29210000Y-12065000D02*
X29210000Y-10795000D01*
X16510000Y-74930000D02*
X17780000Y-73660000D01*
X16510000Y-79375000D02*
X16510000Y-74930000D01*
X29210000Y-20320000D02*
X29210000Y-18415000D01*
X22860000Y-26670000D02*
X29210000Y-20320000D01*
X19050000Y-77470000D02*
X22860000Y-73660000D01*
X22860000Y-73660000D02*
X22860000Y-26670000D01*
X19050000Y-79375000D02*
X19050000Y-77470000D01*
X19685000Y-15875000D02*
X19050000Y-16510000D01*
X30480000Y-16510000D02*
X29845000Y-15875000D01*
X30480000Y-20955000D02*
X30480000Y-16510000D01*
X25400000Y-26035000D02*
X30480000Y-20955000D01*
X19050000Y-16510000D02*
X19050000Y-18415000D01*
X25400000Y-73660000D02*
X25400000Y-26035000D01*
X21590000Y-77470000D02*
X25400000Y-73660000D01*
X29845000Y-15875000D02*
X19685000Y-15875000D01*
X21590000Y-79375000D02*
X21590000Y-77470000D01*
X20320000Y-33655000D02*
X19050000Y-32385000D01*
X17780000Y-76200000D02*
X20320000Y-73660000D01*
X18415000Y-81280000D02*
X17780000Y-80645000D01*
X23495000Y-81280000D02*
X18415000Y-81280000D01*
X20320000Y-73660000D02*
X20320000Y-33655000D01*
X24130000Y-80645000D02*
X23495000Y-81280000D01*
X19050000Y-32385000D02*
X19050000Y-29845000D01*
X17780000Y-80645000D02*
X17780000Y-76200000D01*
X24130000Y-79375000D02*
X24130000Y-80645000D01*
X26670000Y-75565000D02*
X26670000Y-79375000D01*
X27940000Y-74295000D02*
X26670000Y-75565000D01*
X27940000Y-33020000D02*
X27940000Y-74295000D01*
X29210000Y-31750000D02*
X27940000Y-33020000D01*
X29210000Y-29845000D02*
X29210000Y-31750000D01*
X29210000Y-80645000D02*
X29210000Y-79375000D01*
X29845000Y-81280000D02*
X29210000Y-80645000D01*
X33655000Y-81280000D02*
X29845000Y-81280000D01*
X34290000Y-80645000D02*
X33655000Y-81280000D01*
X34290000Y-77470000D02*
X34290000Y-80645000D01*
X30480000Y-73660000D02*
X34290000Y-77470000D01*
X30480000Y-41910000D02*
X30480000Y-73660000D01*
X29210000Y-40640000D02*
X30480000Y-41910000D01*
X29210000Y-37465000D02*
X29210000Y-40640000D01*
X29210000Y-71755000D02*
X29210000Y-74295000D01*
X31750000Y-76835000D02*
X31750000Y-79375000D01*
X29210000Y-74295000D02*
X31750000Y-76835000D01*
X29210000Y-64135000D02*
X29210000Y-71755000D01*
X29210000Y-46355000D02*
X29210000Y-53975000D01*
X19050000Y-37465000D02*
X19050000Y-53975000D01*
X29210000Y-53975000D02*
X29210000Y-64135000D01*
X19050000Y-64135000D02*
X19050000Y-71755000D01*
X19050000Y-53975000D02*
X19050000Y-64135000D01*
X60325000Y-69755000D02*
X60325000Y-68580000D01*
X60960000Y-67945000D02*
X60960000Y-65405000D01*
X60325000Y-68580000D02*
X60960000Y-67945000D01*
X51435000Y-69755000D02*
X51435000Y-67945000D01*
X52070000Y-67310000D02*
X52070000Y-65405000D01*
X51435000Y-67945000D02*
X52070000Y-67310000D01*
X42227500Y-69755000D02*
X42227500Y-68262500D01*
X43180000Y-67310000D02*
X43180000Y-65405000D01*
X42227500Y-68262500D02*
X43180000Y-67310000D01*
X77470000Y-55245000D02*
X77470000Y-53340000D01*
X81250000Y-55245000D02*
X77470000Y-55245000D01*
X77470000Y-55245000D02*
X73690000Y-55245000D01*
X77470000Y-53340000D02*
X77470000Y-53340000D01*
X57150000Y-43180000D02*
X57150000Y-54610000D01*
X59690000Y-57150000D02*
X62865000Y-60325000D01*
X53975000Y-40005000D02*
X57150000Y-43180000D01*
X57150000Y-54610000D02*
X59690000Y-57150000D01*
X53975000Y-31115000D02*
X53975000Y-40005000D01*
X37465000Y-48895000D02*
X37465000Y-34925000D01*
X38735000Y-33655000D02*
X44450000Y-33655000D01*
X37465000Y-34925000D02*
X38735000Y-33655000D01*
X40005000Y-40005000D02*
X40005000Y-46990000D01*
X41275000Y-38735000D02*
X40005000Y-40005000D01*
X40005000Y-46990000D02*
X40005000Y-49530000D01*
X44450000Y-38735000D02*
X41275000Y-38735000D01*
X41910000Y-47625000D02*
X41910000Y-41910000D01*
X42545000Y-41275000D02*
X44450000Y-41275000D01*
X41910000Y-41910000D02*
X42545000Y-41275000D01*
X24130000Y-42545000D02*
X24130000Y-46355000D01*
X72390000Y-55245000D02*
X72390000Y-50165000D01*
X71120000Y-48895000D02*
X67310000Y-48895000D01*
X72390000Y-50165000D02*
X71120000Y-48895000D01*
X82550000Y-55245000D02*
X82550000Y-51435000D01*
D35*
X45085000Y-82867500D02*
X44450000Y-82232500D01*
X44450000Y-82232500D02*
X44450000Y-79740000D01*
X50482500Y-82867500D02*
X45085000Y-82867500D01*
X50800000Y-82550000D02*
X50482500Y-82867500D01*
X50800000Y-80645000D02*
X50800000Y-82550000D01*
M02*
