M48
METRIC
T1C0.500
T2C0.800
T3C0.900
T4C1.000
T5C3.200
%
G90
G05
T1
X21.59Y-46.355
X34.925Y-52.705
X37.465Y-53.34
X39.37Y-51.435
X51.435Y-34.925
X55.245Y-64.135
X55.245Y-69.215
X60.325Y-64.135
X74.93Y-57.15
T2
X11.43Y-50.165
X11.43Y-57.785
X13.97Y-50.165
X13.97Y-57.785
X16.51Y-50.165
X16.51Y-57.785
X19.05Y-50.165
X19.05Y-57.785
X21.59Y-50.165
X21.59Y-57.785
X24.13Y-50.165
X24.13Y-57.785
X26.67Y-50.165
X26.67Y-57.785
X29.21Y-50.165
X29.21Y-57.785
X41.91Y-22.225
X41.91Y-24.765
X41.91Y-27.305
X41.91Y-29.845
X41.91Y-32.385
X41.91Y-34.925
X41.91Y-37.465
X41.91Y-40.005
X41.91Y-42.545
X41.91Y-45.085
X41.91Y-47.625
X41.91Y-50.165
X41.91Y-52.705
X41.91Y-55.245
X57.15Y-22.225
X57.15Y-24.765
X57.15Y-27.305
X57.15Y-29.845
X57.15Y-32.385
X57.15Y-34.925
X57.15Y-37.465
X57.15Y-40.005
X57.15Y-42.545
X57.15Y-45.085
X57.15Y-47.625
X57.15Y-50.165
X57.15Y-52.705
X57.15Y-55.245
X68.58Y-64.135
X68.58Y-66.675
X68.58Y-69.215
X68.58Y-71.755
X68.58Y-74.295
X68.58Y-76.835
X68.58Y-79.375
X76.2Y-64.135
X76.2Y-66.675
X76.2Y-69.215
X76.2Y-71.755
X76.2Y-74.295
X76.2Y-76.835
X76.2Y-79.375
X11.43Y-14.605
X11.43Y-22.225
X13.97Y-14.605
X13.97Y-22.225
X16.51Y-14.605
X16.51Y-22.225
X19.05Y-14.605
X19.05Y-22.225
X21.59Y-14.605
X21.59Y-22.225
X24.13Y-14.605
X24.13Y-22.225
X26.67Y-14.605
X26.67Y-22.225
X29.21Y-14.605
X29.21Y-22.225
X11.43Y-67.945
X11.43Y-75.565
X13.97Y-67.945
X13.97Y-75.565
X16.51Y-67.945
X16.51Y-75.565
X19.05Y-67.945
X19.05Y-75.565
X21.59Y-67.945
X21.59Y-75.565
X24.13Y-67.945
X24.13Y-75.565
X26.67Y-67.945
X26.67Y-75.565
X29.21Y-67.945
X29.21Y-75.565
X64.77Y-22.225
X64.77Y-24.765
X64.77Y-27.305
X64.77Y-29.845
X64.77Y-32.385
X64.77Y-34.925
X64.77Y-37.465
X64.77Y-40.005
X64.77Y-42.545
X64.77Y-45.085
X64.77Y-47.625
X64.77Y-50.165
X64.77Y-52.705
X64.77Y-55.245
X80.01Y-22.225
X80.01Y-24.765
X80.01Y-27.305
X80.01Y-29.845
X80.01Y-32.385
X80.01Y-34.925
X80.01Y-37.465
X80.01Y-40.005
X80.01Y-42.545
X80.01Y-45.085
X80.01Y-47.625
X80.01Y-50.165
X80.01Y-52.705
X80.01Y-55.245
X11.43Y-33.655
X11.43Y-41.275
X13.97Y-33.655
X13.97Y-41.275
X16.51Y-33.655
X16.51Y-41.275
X19.05Y-33.655
X19.05Y-41.275
X21.59Y-33.655
X21.59Y-41.275
X24.13Y-33.655
X24.13Y-41.275
X26.67Y-33.655
X26.67Y-41.275
X29.21Y-33.655
X29.21Y-41.275
T3
X49.53Y-69.215
X52.07Y-69.215
X40.64Y-69.215
X43.18Y-69.215
X58.42Y-69.215
X60.96Y-69.215
T4
X37.465Y-78.74
X37.465Y-88.74
X45.72Y-84.455
X48.26Y-84.455
X50.8Y-84.455
X53.34Y-84.455
X55.88Y-84.455
X16.035Y-9.525
X26.035Y-9.525
X2.54Y-53.975
X2.54Y-56.515
X2.54Y-59.055
X2.54Y-61.595
X2.54Y-64.135
X2.54Y-66.675
X2.54Y-69.215
X2.54Y-71.755
X42.545Y-59.69
X52.545Y-59.69
X36.83Y-14.605
X36.83Y-17.145
X36.83Y-19.685
X36.83Y-22.225
X36.83Y-24.765
X36.83Y-27.305
X36.83Y-29.845
X36.83Y-32.385
X11.43Y-83.185
X13.97Y-83.185
X16.51Y-83.185
X19.05Y-83.185
X21.59Y-83.185
X24.13Y-83.185
X26.67Y-83.185
X29.21Y-83.185
X2.54Y-18.415
X2.54Y-20.955
X2.54Y-23.495
X2.54Y-26.035
X2.54Y-28.575
X2.54Y-31.115
X2.54Y-33.655
X2.54Y-36.195
T5
X93.98Y-5.08
X5.08Y-5.08
X93.98Y-93.98
X5.08Y-93.98
T0
M30
