M48
METRIC
T1C0.500
T2C0.800
T3C0.900
T4C1.000
T5C3.200
%
G90
G05
T1
X28.575Y-34.925
X40.005Y-64.77
X45.085Y-46.99
X46.355Y-51.435
X46.99Y-48.895
X50.8Y-11.43
X57.785Y-26.035
X57.785Y-31.115
X62.865Y-31.115
T2
X8.255Y-57.15
X8.255Y-59.69
X8.255Y-62.23
X8.255Y-64.77
X8.255Y-67.31
X8.255Y-69.85
X8.255Y-72.39
X8.255Y-74.93
X15.875Y-57.15
X15.875Y-59.69
X15.875Y-62.23
X15.875Y-64.77
X15.875Y-67.31
X15.875Y-69.85
X15.875Y-72.39
X15.875Y-74.93
X15.875Y-29.21
X15.875Y-44.45
X18.415Y-29.21
X18.415Y-44.45
X20.955Y-29.21
X20.955Y-44.45
X23.495Y-29.21
X23.495Y-44.45
X26.035Y-29.21
X26.035Y-44.45
X28.575Y-29.21
X28.575Y-44.45
X31.115Y-29.21
X31.115Y-44.45
X33.655Y-29.21
X33.655Y-44.45
X36.195Y-29.21
X36.195Y-44.45
X38.735Y-29.21
X38.735Y-44.45
X41.275Y-29.21
X41.275Y-44.45
X43.815Y-29.21
X43.815Y-44.45
X46.355Y-29.21
X46.355Y-44.45
X48.895Y-29.21
X48.895Y-44.45
X57.785Y-10.16
X57.785Y-17.78
X60.325Y-10.16
X60.325Y-17.78
X62.865Y-10.16
X62.865Y-17.78
X65.405Y-10.16
X65.405Y-17.78
X67.945Y-10.16
X67.945Y-17.78
X70.485Y-10.16
X70.485Y-17.78
X73.025Y-10.16
X73.025Y-17.78
X15.875Y-6.35
X15.875Y-21.59
X18.415Y-6.35
X18.415Y-21.59
X20.955Y-6.35
X20.955Y-21.59
X23.495Y-6.35
X23.495Y-21.59
X26.035Y-6.35
X26.035Y-21.59
X28.575Y-6.35
X28.575Y-21.59
X31.115Y-6.35
X31.115Y-21.59
X33.655Y-6.35
X33.655Y-21.59
X36.195Y-6.35
X36.195Y-21.59
X38.735Y-6.35
X38.735Y-21.59
X41.275Y-6.35
X41.275Y-21.59
X43.815Y-6.35
X43.815Y-21.59
X46.355Y-6.35
X46.355Y-21.59
X48.895Y-6.35
X48.895Y-21.59
X61.595Y-57.15
X61.595Y-59.69
X61.595Y-62.23
X61.595Y-64.77
X61.595Y-67.31
X61.595Y-69.85
X61.595Y-72.39
X61.595Y-74.93
X69.215Y-57.15
X69.215Y-59.69
X69.215Y-62.23
X69.215Y-64.77
X69.215Y-67.31
X69.215Y-69.85
X69.215Y-72.39
X69.215Y-74.93
X27.305Y-57.15
X27.305Y-59.69
X27.305Y-62.23
X27.305Y-64.77
X27.305Y-67.31
X27.305Y-69.85
X27.305Y-72.39
X27.305Y-74.93
X34.925Y-57.15
X34.925Y-59.69
X34.925Y-62.23
X34.925Y-64.77
X34.925Y-67.31
X34.925Y-69.85
X34.925Y-72.39
X34.925Y-74.93
X43.815Y-57.15
X43.815Y-59.69
X43.815Y-62.23
X43.815Y-64.77
X43.815Y-67.31
X43.815Y-69.85
X43.815Y-72.39
X43.815Y-74.93
X51.435Y-57.15
X51.435Y-59.69
X51.435Y-62.23
X51.435Y-64.77
X51.435Y-67.31
X51.435Y-69.85
X51.435Y-72.39
X51.435Y-74.93
T3
X62.865Y-43.18
X62.865Y-45.72
X62.865Y-25.4
X62.865Y-27.94
X62.865Y-34.29
X62.865Y-36.83
T4
X47.625Y-83.82
X50.165Y-83.82
X52.705Y-83.82
X55.245Y-83.82
X57.785Y-83.82
X60.325Y-83.82
X62.865Y-83.82
X65.405Y-83.82
X78.105Y-30.48
X78.105Y-33.02
X78.105Y-35.56
X78.105Y-38.1
X78.105Y-40.64
X3.175Y-60.325
X3.175Y-70.325
X72.39Y-48.895
X82.39Y-48.895
X76.835Y-57.15
X76.835Y-59.69
X76.835Y-62.23
X76.835Y-64.77
X76.835Y-67.31
X76.835Y-69.85
X76.835Y-72.39
X76.835Y-74.93
X53.34Y-33.815
X53.34Y-43.815
X8.255Y-49.53
X10.795Y-49.53
X13.335Y-49.53
X15.875Y-49.53
X18.415Y-49.53
X20.955Y-49.53
X23.495Y-49.53
X26.035Y-49.53
X12.065Y-83.82
X14.605Y-83.82
X17.145Y-83.82
X19.685Y-83.82
X22.225Y-83.82
X24.765Y-83.82
X27.305Y-83.82
X29.845Y-83.82
T5
X80.645Y-81.915
X80.645Y-3.81
X3.81Y-3.81
X3.81Y-81.915
T0
M30
