M48
METRIC
T1C0.500
T2C0.800
T3C0.900
T4C1.000
T5C1.300
T6C3.200
%
G90
G05
T1
X22.225Y-45.72
X22.86Y-43.18
X38.1Y-45.085
X39.37Y-100.33
X39.37Y-110.49
X39.497Y-43.434
X66.04Y-92.71
X66.04Y-97.79
X70.485Y-100.965
X78.422Y-104.457
X79.375Y-100.965
X97.79Y-95.885
X97.79Y-99.695
T2
X99.06Y-69.85
X99.06Y-72.39
X99.06Y-74.93
X99.06Y-77.47
X99.06Y-80.01
X99.06Y-82.55
X99.06Y-85.09
X99.06Y-87.63
X99.06Y-90.17
X99.06Y-92.71
X106.68Y-69.85
X106.68Y-72.39
X106.68Y-74.93
X106.68Y-77.47
X106.68Y-80.01
X106.68Y-82.55
X106.68Y-85.09
X106.68Y-87.63
X106.68Y-90.17
X106.68Y-92.71
X19.05Y-76.2
X19.05Y-78.74
X19.05Y-81.28
X19.05Y-83.82
X19.05Y-86.36
X19.05Y-88.9
X19.05Y-91.44
X19.05Y-93.98
X19.05Y-96.52
X19.05Y-99.06
X26.67Y-76.2
X26.67Y-78.74
X26.67Y-81.28
X26.67Y-83.82
X26.67Y-86.36
X26.67Y-88.9
X26.67Y-91.44
X26.67Y-93.98
X26.67Y-96.52
X26.67Y-99.06
T3
X77.47Y-19.05
X77.47Y-24.13
X77.47Y-26.67
X77.47Y-29.21
X77.47Y-31.75
X77.47Y-34.29
X77.47Y-36.83
X77.47Y-39.37
X77.47Y-41.91
X77.47Y-46.99
X77.47Y-49.53
X77.47Y-52.07
X77.47Y-54.61
X77.47Y-57.15
X77.47Y-59.69
X77.47Y-62.23
X77.47Y-64.77
X77.47Y-69.85
X77.47Y-72.39
X77.47Y-74.93
X77.47Y-77.47
X77.47Y-80.01
X77.47Y-82.55
X77.47Y-85.09
X77.47Y-87.63
X77.47Y-90.17
X77.47Y-95.25
X77.47Y-97.79
X52.705Y-19.05
X52.705Y-24.13
X52.705Y-26.67
X52.705Y-29.21
X52.705Y-31.75
X52.705Y-34.29
X52.705Y-36.83
X52.705Y-39.37
X52.705Y-41.91
X52.705Y-46.99
X52.705Y-49.53
X52.705Y-52.07
X52.705Y-54.61
X52.705Y-57.15
X52.705Y-59.69
X52.705Y-62.23
X52.705Y-64.77
X52.705Y-69.85
X52.705Y-72.39
X52.705Y-74.93
X52.705Y-77.47
X52.705Y-80.01
X52.705Y-82.55
X52.705Y-85.09
X52.705Y-87.63
X52.705Y-90.17
X52.705Y-95.25
X52.705Y-97.79
X36.195Y-24.13
X36.195Y-26.67
X36.195Y-29.21
X36.195Y-31.75
X36.195Y-34.29
X36.195Y-36.83
X36.195Y-39.37
X36.195Y-41.91
X36.195Y-46.99
X36.195Y-49.53
X36.195Y-52.07
X36.195Y-54.61
X36.195Y-57.15
X36.195Y-59.69
X36.195Y-62.23
X36.195Y-64.77
X36.195Y-69.85
X36.195Y-72.39
X36.195Y-74.93
X36.195Y-77.47
X36.195Y-80.01
X36.195Y-82.55
X36.195Y-85.09
X36.195Y-87.63
X36.195Y-92.71
X36.195Y-95.25
X36.195Y-97.79
X36.195Y-100.33
X36.195Y-102.87
X85.725Y-19.05
X85.725Y-24.13
X85.725Y-26.67
X85.725Y-29.21
X85.725Y-31.75
X85.725Y-34.29
X85.725Y-36.83
X85.725Y-39.37
X85.725Y-41.91
X85.725Y-46.99
X85.725Y-49.53
X85.725Y-52.07
X85.725Y-54.61
X85.725Y-57.15
X85.725Y-59.69
X85.725Y-62.23
X85.725Y-64.77
X85.725Y-69.85
X85.725Y-72.39
X85.725Y-74.93
X85.725Y-77.47
X85.725Y-80.01
X85.725Y-82.55
X85.725Y-85.09
X85.725Y-87.63
X85.725Y-90.17
X85.725Y-95.25
X85.725Y-97.79
X93.98Y-19.05
X93.98Y-24.13
X93.98Y-26.67
X93.98Y-29.21
X93.98Y-31.75
X93.98Y-34.29
X93.98Y-36.83
X93.98Y-39.37
X93.98Y-41.91
X93.98Y-46.99
X93.98Y-49.53
X93.98Y-52.07
X93.98Y-54.61
X93.98Y-57.15
X93.98Y-59.69
X93.98Y-62.23
X93.98Y-64.77
X93.98Y-69.85
X93.98Y-72.39
X93.98Y-74.93
X93.98Y-77.47
X93.98Y-80.01
X93.98Y-82.55
X93.98Y-85.09
X93.98Y-87.63
X93.98Y-90.17
X93.98Y-95.25
X93.98Y-97.79
X69.215Y-19.05
X69.215Y-24.13
X69.215Y-26.67
X69.215Y-29.21
X69.215Y-31.75
X69.215Y-34.29
X69.215Y-36.83
X69.215Y-39.37
X69.215Y-41.91
X69.215Y-46.99
X69.215Y-49.53
X69.215Y-52.07
X69.215Y-54.61
X69.215Y-57.15
X69.215Y-59.69
X69.215Y-62.23
X69.215Y-64.77
X69.215Y-69.85
X69.215Y-72.39
X69.215Y-74.93
X69.215Y-77.47
X69.215Y-80.01
X69.215Y-82.55
X69.215Y-85.09
X69.215Y-87.63
X69.215Y-90.17
X69.215Y-95.25
X69.215Y-97.79
X44.45Y-19.05
X44.45Y-24.13
X44.45Y-26.67
X44.45Y-29.21
X44.45Y-31.75
X44.45Y-34.29
X44.45Y-36.83
X44.45Y-39.37
X44.45Y-41.91
X44.45Y-46.99
X44.45Y-49.53
X44.45Y-52.07
X44.45Y-54.61
X44.45Y-57.15
X44.45Y-59.69
X44.45Y-62.23
X44.45Y-64.77
X44.45Y-69.85
X44.45Y-72.39
X44.45Y-74.93
X44.45Y-77.47
X44.45Y-80.01
X44.45Y-82.55
X44.45Y-85.09
X44.45Y-87.63
X44.45Y-90.17
X44.45Y-95.25
X44.45Y-97.79
X60.96Y-19.05
X60.96Y-24.13
X60.96Y-26.67
X60.96Y-29.21
X60.96Y-31.75
X60.96Y-34.29
X60.96Y-36.83
X60.96Y-39.37
X60.96Y-41.91
X60.96Y-46.99
X60.96Y-49.53
X60.96Y-52.07
X60.96Y-54.61
X60.96Y-57.15
X60.96Y-59.69
X60.96Y-62.23
X60.96Y-64.77
X60.96Y-69.85
X60.96Y-72.39
X60.96Y-74.93
X60.96Y-77.47
X60.96Y-80.01
X60.96Y-82.55
X60.96Y-85.09
X60.96Y-87.63
X60.96Y-90.17
X60.96Y-95.25
X60.96Y-97.79
T4
X15.24Y-76.2
X15.24Y-78.74
X15.24Y-81.28
X15.24Y-83.82
X15.24Y-86.36
X15.24Y-88.9
X15.24Y-91.44
X15.24Y-93.98
X15.24Y-96.52
X109.855Y-72.39
X109.855Y-74.93
X109.855Y-77.47
X109.855Y-80.01
X109.855Y-82.55
X109.855Y-85.09
X109.855Y-87.63
X109.855Y-90.17
X109.855Y-92.71
X29.21Y-107.95
X15.24Y-50.8
X15.24Y-53.34
X15.24Y-55.88
X15.24Y-58.42
X15.24Y-60.96
X15.24Y-63.5
X15.24Y-66.04
X15.24Y-68.58
X15.24Y-71.12
X15.24Y-25.4
X15.24Y-27.94
X15.24Y-30.48
X15.24Y-33.02
X15.24Y-35.56
X15.24Y-38.1
X15.24Y-40.64
X15.24Y-43.18
X15.24Y-45.72
T5
X82.55Y-106.68
X87.55Y-106.68
T6
X17.78Y-106.68
X17.78Y-17.78
X106.68Y-106.68
X106.68Y-17.78
T0
M30
