%TF.GenerationSoftware,KiCad,Pcbnew,(5.1.8)-1*%
%TF.CreationDate,2024-03-21T22:45:28+03:00*%
%TF.ProjectId,Reg,5265672e-6b69-4636-9164-5f7063625858,rev?*%
%TF.SameCoordinates,Original*%
%TF.FileFunction,Soldermask,Bot*%
%TF.FilePolarity,Negative*%
%FSLAX46Y46*%
G04 Gerber Fmt 4.6, Leading zero omitted, Abs format (unit mm)*
G04 Created by KiCad (PCBNEW (5.1.8)-1) date 2024-03-21 22:45:28*
%MOMM*%
%LPD*%
G01*
G04 APERTURE LIST*
%ADD10O,2.000000X2.000000*%
%ADD11R,2.000000X2.000000*%
%ADD12R,1.700000X1.700000*%
%ADD13O,1.600000X1.600000*%
%ADD14C,1.600000*%
%ADD15R,2.100000X2.200000*%
%ADD16O,1.600000X2.200000*%
%ADD17O,2.100000X2.200000*%
%ADD18O,1.700000X1.700000*%
G04 APERTURE END LIST*
%TO.C,C4*%
G36*
G01*
X117025000Y-24607500D02*
X117025000Y-25557500D01*
G75*
G02*
X116775000Y-25807500I-250000J0D01*
G01*
X116100000Y-25807500D01*
G75*
G02*
X115850000Y-25557500I0J250000D01*
G01*
X115850000Y-24607500D01*
G75*
G02*
X116100000Y-24357500I250000J0D01*
G01*
X116775000Y-24357500D01*
G75*
G02*
X117025000Y-24607500I0J-250000D01*
G01*
G37*
G36*
G01*
X119100000Y-24607500D02*
X119100000Y-25557500D01*
G75*
G02*
X118850000Y-25807500I-250000J0D01*
G01*
X118175000Y-25807500D01*
G75*
G02*
X117925000Y-25557500I0J250000D01*
G01*
X117925000Y-24607500D01*
G75*
G02*
X118175000Y-24357500I250000J0D01*
G01*
X118850000Y-24357500D01*
G75*
G02*
X119100000Y-24607500I0J-250000D01*
G01*
G37*
%TD*%
%TO.C,R14*%
G36*
G01*
X116335000Y-29660001D02*
X116335000Y-28759999D01*
G75*
G02*
X116584999Y-28510000I249999J0D01*
G01*
X117285001Y-28510000D01*
G75*
G02*
X117535000Y-28759999I0J-249999D01*
G01*
X117535000Y-29660001D01*
G75*
G02*
X117285001Y-29910000I-249999J0D01*
G01*
X116584999Y-29910000D01*
G75*
G02*
X116335000Y-29660001I0J249999D01*
G01*
G37*
G36*
G01*
X114335000Y-29660001D02*
X114335000Y-28759999D01*
G75*
G02*
X114584999Y-28510000I249999J0D01*
G01*
X115285001Y-28510000D01*
G75*
G02*
X115535000Y-28759999I0J-249999D01*
G01*
X115535000Y-29660001D01*
G75*
G02*
X115285001Y-29910000I-249999J0D01*
G01*
X114584999Y-29910000D01*
G75*
G02*
X114335000Y-29660001I0J249999D01*
G01*
G37*
%TD*%
%TO.C,U5*%
G36*
G01*
X113180000Y-24290000D02*
X112880000Y-24290000D01*
G75*
G02*
X112730000Y-24140000I0J150000D01*
G01*
X112730000Y-22540000D01*
G75*
G02*
X112880000Y-22390000I150000J0D01*
G01*
X113180000Y-22390000D01*
G75*
G02*
X113330000Y-22540000I0J-150000D01*
G01*
X113330000Y-24140000D01*
G75*
G02*
X113180000Y-24290000I-150000J0D01*
G01*
G37*
G36*
G01*
X111910000Y-24290000D02*
X111610000Y-24290000D01*
G75*
G02*
X111460000Y-24140000I0J150000D01*
G01*
X111460000Y-22540000D01*
G75*
G02*
X111610000Y-22390000I150000J0D01*
G01*
X111910000Y-22390000D01*
G75*
G02*
X112060000Y-22540000I0J-150000D01*
G01*
X112060000Y-24140000D01*
G75*
G02*
X111910000Y-24290000I-150000J0D01*
G01*
G37*
G36*
G01*
X110640000Y-24290000D02*
X110340000Y-24290000D01*
G75*
G02*
X110190000Y-24140000I0J150000D01*
G01*
X110190000Y-22540000D01*
G75*
G02*
X110340000Y-22390000I150000J0D01*
G01*
X110640000Y-22390000D01*
G75*
G02*
X110790000Y-22540000I0J-150000D01*
G01*
X110790000Y-24140000D01*
G75*
G02*
X110640000Y-24290000I-150000J0D01*
G01*
G37*
G36*
G01*
X109370000Y-24290000D02*
X109070000Y-24290000D01*
G75*
G02*
X108920000Y-24140000I0J150000D01*
G01*
X108920000Y-22540000D01*
G75*
G02*
X109070000Y-22390000I150000J0D01*
G01*
X109370000Y-22390000D01*
G75*
G02*
X109520000Y-22540000I0J-150000D01*
G01*
X109520000Y-24140000D01*
G75*
G02*
X109370000Y-24290000I-150000J0D01*
G01*
G37*
G36*
G01*
X108100000Y-24290000D02*
X107800000Y-24290000D01*
G75*
G02*
X107650000Y-24140000I0J150000D01*
G01*
X107650000Y-22540000D01*
G75*
G02*
X107800000Y-22390000I150000J0D01*
G01*
X108100000Y-22390000D01*
G75*
G02*
X108250000Y-22540000I0J-150000D01*
G01*
X108250000Y-24140000D01*
G75*
G02*
X108100000Y-24290000I-150000J0D01*
G01*
G37*
G36*
G01*
X106830000Y-24290000D02*
X106530000Y-24290000D01*
G75*
G02*
X106380000Y-24140000I0J150000D01*
G01*
X106380000Y-22540000D01*
G75*
G02*
X106530000Y-22390000I150000J0D01*
G01*
X106830000Y-22390000D01*
G75*
G02*
X106980000Y-22540000I0J-150000D01*
G01*
X106980000Y-24140000D01*
G75*
G02*
X106830000Y-24290000I-150000J0D01*
G01*
G37*
G36*
G01*
X105560000Y-24290000D02*
X105260000Y-24290000D01*
G75*
G02*
X105110000Y-24140000I0J150000D01*
G01*
X105110000Y-22540000D01*
G75*
G02*
X105260000Y-22390000I150000J0D01*
G01*
X105560000Y-22390000D01*
G75*
G02*
X105710000Y-22540000I0J-150000D01*
G01*
X105710000Y-24140000D01*
G75*
G02*
X105560000Y-24290000I-150000J0D01*
G01*
G37*
G36*
G01*
X104290000Y-24290000D02*
X103990000Y-24290000D01*
G75*
G02*
X103840000Y-24140000I0J150000D01*
G01*
X103840000Y-22540000D01*
G75*
G02*
X103990000Y-22390000I150000J0D01*
G01*
X104290000Y-22390000D01*
G75*
G02*
X104440000Y-22540000I0J-150000D01*
G01*
X104440000Y-24140000D01*
G75*
G02*
X104290000Y-24290000I-150000J0D01*
G01*
G37*
G36*
G01*
X103020000Y-24290000D02*
X102720000Y-24290000D01*
G75*
G02*
X102570000Y-24140000I0J150000D01*
G01*
X102570000Y-22540000D01*
G75*
G02*
X102720000Y-22390000I150000J0D01*
G01*
X103020000Y-22390000D01*
G75*
G02*
X103170000Y-22540000I0J-150000D01*
G01*
X103170000Y-24140000D01*
G75*
G02*
X103020000Y-24290000I-150000J0D01*
G01*
G37*
G36*
G01*
X101750000Y-24290000D02*
X101450000Y-24290000D01*
G75*
G02*
X101300000Y-24140000I0J150000D01*
G01*
X101300000Y-22540000D01*
G75*
G02*
X101450000Y-22390000I150000J0D01*
G01*
X101750000Y-22390000D01*
G75*
G02*
X101900000Y-22540000I0J-150000D01*
G01*
X101900000Y-24140000D01*
G75*
G02*
X101750000Y-24290000I-150000J0D01*
G01*
G37*
G36*
G01*
X101750000Y-33490000D02*
X101450000Y-33490000D01*
G75*
G02*
X101300000Y-33340000I0J150000D01*
G01*
X101300000Y-31740000D01*
G75*
G02*
X101450000Y-31590000I150000J0D01*
G01*
X101750000Y-31590000D01*
G75*
G02*
X101900000Y-31740000I0J-150000D01*
G01*
X101900000Y-33340000D01*
G75*
G02*
X101750000Y-33490000I-150000J0D01*
G01*
G37*
G36*
G01*
X103020000Y-33490000D02*
X102720000Y-33490000D01*
G75*
G02*
X102570000Y-33340000I0J150000D01*
G01*
X102570000Y-31740000D01*
G75*
G02*
X102720000Y-31590000I150000J0D01*
G01*
X103020000Y-31590000D01*
G75*
G02*
X103170000Y-31740000I0J-150000D01*
G01*
X103170000Y-33340000D01*
G75*
G02*
X103020000Y-33490000I-150000J0D01*
G01*
G37*
G36*
G01*
X104290000Y-33490000D02*
X103990000Y-33490000D01*
G75*
G02*
X103840000Y-33340000I0J150000D01*
G01*
X103840000Y-31740000D01*
G75*
G02*
X103990000Y-31590000I150000J0D01*
G01*
X104290000Y-31590000D01*
G75*
G02*
X104440000Y-31740000I0J-150000D01*
G01*
X104440000Y-33340000D01*
G75*
G02*
X104290000Y-33490000I-150000J0D01*
G01*
G37*
G36*
G01*
X105560000Y-33490000D02*
X105260000Y-33490000D01*
G75*
G02*
X105110000Y-33340000I0J150000D01*
G01*
X105110000Y-31740000D01*
G75*
G02*
X105260000Y-31590000I150000J0D01*
G01*
X105560000Y-31590000D01*
G75*
G02*
X105710000Y-31740000I0J-150000D01*
G01*
X105710000Y-33340000D01*
G75*
G02*
X105560000Y-33490000I-150000J0D01*
G01*
G37*
G36*
G01*
X106830000Y-33490000D02*
X106530000Y-33490000D01*
G75*
G02*
X106380000Y-33340000I0J150000D01*
G01*
X106380000Y-31740000D01*
G75*
G02*
X106530000Y-31590000I150000J0D01*
G01*
X106830000Y-31590000D01*
G75*
G02*
X106980000Y-31740000I0J-150000D01*
G01*
X106980000Y-33340000D01*
G75*
G02*
X106830000Y-33490000I-150000J0D01*
G01*
G37*
G36*
G01*
X108100000Y-33490000D02*
X107800000Y-33490000D01*
G75*
G02*
X107650000Y-33340000I0J150000D01*
G01*
X107650000Y-31740000D01*
G75*
G02*
X107800000Y-31590000I150000J0D01*
G01*
X108100000Y-31590000D01*
G75*
G02*
X108250000Y-31740000I0J-150000D01*
G01*
X108250000Y-33340000D01*
G75*
G02*
X108100000Y-33490000I-150000J0D01*
G01*
G37*
G36*
G01*
X109370000Y-33490000D02*
X109070000Y-33490000D01*
G75*
G02*
X108920000Y-33340000I0J150000D01*
G01*
X108920000Y-31740000D01*
G75*
G02*
X109070000Y-31590000I150000J0D01*
G01*
X109370000Y-31590000D01*
G75*
G02*
X109520000Y-31740000I0J-150000D01*
G01*
X109520000Y-33340000D01*
G75*
G02*
X109370000Y-33490000I-150000J0D01*
G01*
G37*
G36*
G01*
X110640000Y-33490000D02*
X110340000Y-33490000D01*
G75*
G02*
X110190000Y-33340000I0J150000D01*
G01*
X110190000Y-31740000D01*
G75*
G02*
X110340000Y-31590000I150000J0D01*
G01*
X110640000Y-31590000D01*
G75*
G02*
X110790000Y-31740000I0J-150000D01*
G01*
X110790000Y-33340000D01*
G75*
G02*
X110640000Y-33490000I-150000J0D01*
G01*
G37*
G36*
G01*
X111910000Y-33490000D02*
X111610000Y-33490000D01*
G75*
G02*
X111460000Y-33340000I0J150000D01*
G01*
X111460000Y-31740000D01*
G75*
G02*
X111610000Y-31590000I150000J0D01*
G01*
X111910000Y-31590000D01*
G75*
G02*
X112060000Y-31740000I0J-150000D01*
G01*
X112060000Y-33340000D01*
G75*
G02*
X111910000Y-33490000I-150000J0D01*
G01*
G37*
G36*
G01*
X113180000Y-33490000D02*
X112880000Y-33490000D01*
G75*
G02*
X112730000Y-33340000I0J150000D01*
G01*
X112730000Y-31740000D01*
G75*
G02*
X112880000Y-31590000I150000J0D01*
G01*
X113180000Y-31590000D01*
G75*
G02*
X113330000Y-31740000I0J-150000D01*
G01*
X113330000Y-33340000D01*
G75*
G02*
X113180000Y-33490000I-150000J0D01*
G01*
G37*
%TD*%
D10*
%TO.C,J11*%
X101600000Y-17780000D03*
X104140000Y-17780000D03*
X106680000Y-17780000D03*
X109220000Y-17780000D03*
X111760000Y-17780000D03*
X114300000Y-17780000D03*
X116840000Y-17780000D03*
D11*
X119380000Y-17780000D03*
%TD*%
D12*
%TO.C,J10*%
X113665000Y-35560000D03*
%TD*%
%TO.C,J9*%
X109855000Y-35560000D03*
%TD*%
%TO.C,J8*%
X116205000Y-35560000D03*
%TD*%
D13*
%TO.C,R1*%
X95250000Y-31750000D03*
D14*
X80010000Y-31750000D03*
%TD*%
%TO.C,C3*%
G36*
G01*
X73039861Y-40191498D02*
X73039861Y-40191498D01*
G75*
G02*
X74047920Y-39677867I760845J-247214D01*
G01*
X74047920Y-39677867D01*
G75*
G02*
X74561551Y-40685926I-247214J-760845D01*
G01*
X74561551Y-40685926D01*
G75*
G02*
X73553492Y-41199557I-760845J247214D01*
G01*
X73553492Y-41199557D01*
G75*
G02*
X73039861Y-40191498I247214J760845D01*
G01*
G37*
X61912500Y-36576000D03*
%TD*%
%TO.C,C1*%
G36*
G01*
X73103361Y-27872498D02*
X73103361Y-27872498D01*
G75*
G02*
X74111420Y-27358867I760845J-247214D01*
G01*
X74111420Y-27358867D01*
G75*
G02*
X74625051Y-28366926I-247214J-760845D01*
G01*
X74625051Y-28366926D01*
G75*
G02*
X73616992Y-28880557I-760845J247214D01*
G01*
X73616992Y-28880557D01*
G75*
G02*
X73103361Y-27872498I247214J760845D01*
G01*
G37*
X61976000Y-24257000D03*
%TD*%
D15*
%TO.C,J1*%
X71120000Y-53340000D03*
D16*
X68580000Y-53340000D03*
X66040000Y-53340000D03*
X63500000Y-53340000D03*
X60960000Y-53340000D03*
X58420000Y-53340000D03*
X55880000Y-53340000D03*
X53340000Y-53340000D03*
%TD*%
D17*
%TO.C,J2*%
X88900000Y-53340000D03*
X91440000Y-53340000D03*
X93980000Y-53340000D03*
X96520000Y-53340000D03*
X99060000Y-53340000D03*
X101600000Y-53340000D03*
X104140000Y-53340000D03*
D15*
X106680000Y-53340000D03*
%TD*%
%TO.C,J3*%
X83820000Y-53340000D03*
D17*
X81280000Y-53340000D03*
%TD*%
D15*
%TO.C,J4*%
X119380000Y-53340000D03*
D17*
X116840000Y-53340000D03*
X114300000Y-53340000D03*
%TD*%
D10*
%TO.C,J5*%
X59690000Y-20320000D03*
D11*
X59690000Y-17780000D03*
%TD*%
D12*
%TO.C,J6*%
X69850000Y-47625000D03*
D18*
X69850000Y-45085000D03*
%TD*%
D15*
%TO.C,J7*%
X76200000Y-53340000D03*
%TD*%
M02*
