M48
METRIC
T1C0.500
T2C0.800
T3C1.000
%
G90
G05
T1
X56.515Y-35.56
X59.055Y-27.94
X64.135Y-33.02
X66.04Y-30.48
X70.485Y-32.385
X71.438Y-18.415
X73.025Y-33.02
X75.565Y-46.355
X78.105Y-33.337
X78.105Y-45.085
X78.105Y-48.96
X81.28Y-25.4
X83.82Y-25.4
X86.36Y-25.4
X88.741Y-28.099
X88.9Y-25.4
X90.805Y-28.575
X91.123Y-30.797
X99.695Y-31.115
X115.57Y-26.67
X118.745Y-37.465
T2
X61.976Y-24.257
X73.864Y-28.12
X80.01Y-31.75
X95.25Y-31.75
X61.912Y-36.576
X73.801Y-40.439
T3
X113.665Y-35.56
X88.9Y-53.34
X91.44Y-53.34
X93.98Y-53.34
X96.52Y-53.34
X99.06Y-53.34
X101.6Y-53.34
X104.14Y-53.34
X106.68Y-53.34
X59.69Y-17.78
X59.69Y-20.32
X53.34Y-53.34
X55.88Y-53.34
X58.42Y-53.34
X60.96Y-53.34
X63.5Y-53.34
X66.04Y-53.34
X68.58Y-53.34
X71.12Y-53.34
X101.6Y-17.78
X104.14Y-17.78
X106.68Y-17.78
X109.22Y-17.78
X111.76Y-17.78
X114.3Y-17.78
X116.84Y-17.78
X119.38Y-17.78
X69.85Y-45.085
X69.85Y-47.625
X81.28Y-53.34
X83.82Y-53.34
X116.205Y-35.56
X109.855Y-35.56
X114.3Y-53.34
X116.84Y-53.34
X119.38Y-53.34
X76.2Y-53.34
T0
M30
