M48
METRIC
T1C0.500
T2C0.900
T3C1.000
T4C1.300
T5C3.200
%
G90
G05
T1
X39.37Y-40.64
X40.64Y-96.52
X71.12Y-93.98
X71.12Y-99.06
T2
X53.34Y-22.86
X53.34Y-25.4
X53.34Y-27.94
X53.34Y-30.48
X53.34Y-33.02
X53.34Y-35.56
X53.34Y-38.1
X53.34Y-40.64
X53.34Y-45.72
X53.34Y-48.26
X53.34Y-50.8
X53.34Y-53.34
X53.34Y-55.88
X53.34Y-58.42
X53.34Y-60.96
X53.34Y-63.5
X53.34Y-68.58
X53.34Y-71.12
X53.34Y-73.66
X53.34Y-76.2
X53.34Y-78.74
X53.34Y-81.28
X53.34Y-83.82
X53.34Y-86.36
X53.34Y-91.44
X53.34Y-93.98
X53.34Y-96.52
X53.34Y-99.06
X53.34Y-101.6
X25.4Y-48.26
X25.4Y-50.8
X25.4Y-53.34
X25.4Y-55.88
X25.4Y-58.42
X25.4Y-60.96
X25.4Y-63.5
X25.4Y-66.04
X25.4Y-71.12
X25.4Y-73.66
X25.4Y-76.2
X25.4Y-78.74
X25.4Y-81.28
X25.4Y-83.82
X25.4Y-86.36
X25.4Y-88.9
X25.4Y-93.98
X25.4Y-96.52
X25.4Y-99.06
X25.4Y-101.6
X25.4Y-104.14
X78.74Y-22.86
X78.74Y-25.4
X78.74Y-27.94
X78.74Y-30.48
X78.74Y-33.02
X78.74Y-35.56
X78.74Y-38.1
X78.74Y-40.64
X78.74Y-45.72
X78.74Y-48.26
X78.74Y-50.8
X78.74Y-53.34
X78.74Y-55.88
X78.74Y-58.42
X78.74Y-60.96
X78.74Y-63.5
X78.74Y-68.58
X78.74Y-71.12
X78.74Y-73.66
X78.74Y-76.2
X78.74Y-78.74
X78.74Y-81.28
X78.74Y-83.82
X78.74Y-86.36
X78.74Y-91.44
X78.74Y-93.98
X78.74Y-96.52
X78.74Y-99.06
X78.74Y-101.6
X63.5Y-22.86
X63.5Y-25.4
X63.5Y-27.94
X63.5Y-30.48
X63.5Y-33.02
X63.5Y-35.56
X63.5Y-38.1
X63.5Y-40.64
X63.5Y-45.72
X63.5Y-48.26
X63.5Y-50.8
X63.5Y-53.34
X63.5Y-55.88
X63.5Y-58.42
X63.5Y-60.96
X63.5Y-63.5
X63.5Y-68.58
X63.5Y-71.12
X63.5Y-73.66
X63.5Y-76.2
X63.5Y-78.74
X63.5Y-81.28
X63.5Y-83.82
X63.5Y-86.36
X63.5Y-91.44
X63.5Y-93.98
X63.5Y-96.52
X63.5Y-99.06
X63.5Y-101.6
X109.22Y-24.13
X109.22Y-26.67
X109.22Y-29.21
X109.22Y-31.75
X109.22Y-34.29
X109.22Y-36.83
X109.22Y-39.37
X109.22Y-41.91
X109.22Y-46.99
X109.22Y-49.53
X109.22Y-52.07
X109.22Y-54.61
X109.22Y-57.15
X109.22Y-59.69
X109.22Y-62.23
X109.22Y-64.77
X109.22Y-69.85
X109.22Y-72.39
X109.22Y-74.93
X109.22Y-77.47
X109.22Y-80.01
X109.22Y-82.55
X109.22Y-85.09
X109.22Y-87.63
X109.22Y-92.71
X109.22Y-95.25
X109.22Y-97.79
X109.22Y-100.33
X109.22Y-102.87
X25.4Y-17.78
X25.4Y-20.32
X25.4Y-22.86
X25.4Y-25.4
X25.4Y-27.94
X25.4Y-30.48
X25.4Y-33.02
X25.4Y-35.56
X25.4Y-38.1
X25.4Y-40.64
X43.18Y-17.78
X43.18Y-20.32
X43.18Y-22.86
X43.18Y-25.4
X43.18Y-27.94
X43.18Y-30.48
X43.18Y-33.02
X43.18Y-35.56
X43.18Y-38.1
X43.18Y-40.64
X34.29Y-48.26
X34.29Y-50.8
X34.29Y-53.34
X34.29Y-55.88
X34.29Y-58.42
X34.29Y-60.96
X34.29Y-63.5
X34.29Y-66.04
X34.29Y-71.12
X34.29Y-73.66
X34.29Y-76.2
X34.29Y-78.74
X34.29Y-81.28
X34.29Y-83.82
X34.29Y-86.36
X34.29Y-88.9
X34.29Y-93.98
X34.29Y-96.52
X34.29Y-99.06
X34.29Y-101.6
X34.29Y-104.14
X99.06Y-22.86
X99.06Y-25.4
X99.06Y-27.94
X99.06Y-30.48
X99.06Y-33.02
X99.06Y-35.56
X99.06Y-38.1
X99.06Y-40.64
X99.06Y-45.72
X99.06Y-48.26
X99.06Y-50.8
X99.06Y-53.34
X99.06Y-55.88
X99.06Y-58.42
X99.06Y-60.96
X99.06Y-63.5
X99.06Y-68.58
X99.06Y-71.12
X99.06Y-73.66
X99.06Y-76.2
X99.06Y-78.74
X99.06Y-81.28
X99.06Y-83.82
X99.06Y-86.36
X99.06Y-91.44
X99.06Y-93.98
X99.06Y-96.52
X99.06Y-99.06
X99.06Y-101.6
X43.18Y-48.26
X43.18Y-50.8
X43.18Y-53.34
X43.18Y-55.88
X43.18Y-58.42
X43.18Y-60.96
X43.18Y-63.5
X43.18Y-66.04
X43.18Y-71.12
X43.18Y-73.66
X43.18Y-76.2
X43.18Y-78.74
X43.18Y-81.28
X43.18Y-83.82
X43.18Y-86.36
X43.18Y-88.9
X43.18Y-93.98
X43.18Y-96.52
X43.18Y-99.06
X43.18Y-101.6
X43.18Y-104.14
X88.9Y-22.86
X88.9Y-25.4
X88.9Y-27.94
X88.9Y-30.48
X88.9Y-33.02
X88.9Y-35.56
X88.9Y-38.1
X88.9Y-40.64
X88.9Y-45.72
X88.9Y-48.26
X88.9Y-50.8
X88.9Y-53.34
X88.9Y-55.88
X88.9Y-58.42
X88.9Y-60.96
X88.9Y-63.5
X88.9Y-68.58
X88.9Y-71.12
X88.9Y-73.66
X88.9Y-76.2
X88.9Y-78.74
X88.9Y-81.28
X88.9Y-83.82
X88.9Y-86.36
X88.9Y-91.44
X88.9Y-93.98
X88.9Y-96.52
X88.9Y-99.06
X88.9Y-101.6
T3
X53.34Y-110.49
X100.33Y-110.49
X25.4Y-110.49
X48.26Y-110.49
X40.64Y-110.49
X15.24Y-24.13
X15.24Y-26.67
X15.24Y-29.21
X15.24Y-31.75
X15.24Y-34.29
X15.24Y-36.83
X15.24Y-39.37
X15.24Y-41.91
X15.24Y-44.45
X58.42Y-110.49
X53.34Y-15.557
X15.24Y-74.93
X15.24Y-77.47
X15.24Y-80.01
X15.24Y-82.55
X15.24Y-85.09
X15.24Y-87.63
X15.24Y-90.17
X15.24Y-92.71
X15.24Y-95.25
X30.48Y-110.49
X93.98Y-110.49
X34.29Y-110.49
X81.28Y-110.49
X69.85Y-88.9
X86.36Y-110.49
X48.26Y-15.557
X15.24Y-49.53
X15.24Y-52.07
X15.24Y-54.61
X15.24Y-57.15
X15.24Y-59.69
X15.24Y-62.23
X15.24Y-64.77
X15.24Y-67.31
X15.24Y-69.85
T4
X68.58Y-110.172
X73.58Y-110.172
T5
X106.68Y-107.95
X17.78Y-19.05
X17.78Y-107.95
X106.68Y-19.05
T0
M30
