%TF.GenerationSoftware,KiCad,Pcbnew,(5.1.8)-1*%
%TF.CreationDate,2025-01-07T13:33:42+03:00*%
%TF.ProjectId,Reg,5265672e-6b69-4636-9164-5f7063625858,rev?*%
%TF.SameCoordinates,Original*%
%TF.FileFunction,Copper,L2,Bot*%
%TF.FilePolarity,Positive*%
%FSLAX46Y46*%
G04 Gerber Fmt 4.6, Leading zero omitted, Abs format (unit mm)*
G04 Created by KiCad (PCBNEW (5.1.8)-1) date 2025-01-07 13:33:42*
%MOMM*%
%LPD*%
G01*
G04 APERTURE LIST*
%TA.AperFunction,NonConductor*%
%ADD10C,0.300000*%
%TD*%
%TA.AperFunction,ComponentPad*%
%ADD11O,1.900000X2.000000*%
%TD*%
%TA.AperFunction,ComponentPad*%
%ADD12R,1.900000X2.000000*%
%TD*%
%TA.AperFunction,ComponentPad*%
%ADD13R,1.700000X1.700000*%
%TD*%
%TA.AperFunction,ComponentPad*%
%ADD14C,1.600000*%
%TD*%
%TA.AperFunction,ComponentPad*%
%ADD15R,2.100000X2.200000*%
%TD*%
%TA.AperFunction,ComponentPad*%
%ADD16O,1.600000X2.200000*%
%TD*%
%TA.AperFunction,ComponentPad*%
%ADD17O,2.100000X2.200000*%
%TD*%
%TA.AperFunction,ComponentPad*%
%ADD18O,2.000000X2.000000*%
%TD*%
%TA.AperFunction,ComponentPad*%
%ADD19R,2.000000X2.000000*%
%TD*%
%TA.AperFunction,ComponentPad*%
%ADD20O,1.700000X1.700000*%
%TD*%
%TA.AperFunction,ViaPad*%
%ADD21C,1.500000*%
%TD*%
%TA.AperFunction,Conductor*%
%ADD22C,0.500000*%
%TD*%
G04 APERTURE END LIST*
D10*
X101512142Y-20768571D02*
X101369285Y-20768571D01*
X101226428Y-20840000D01*
X101155000Y-20911428D01*
X101083571Y-21054285D01*
X101012142Y-21340000D01*
X101012142Y-21697142D01*
X101083571Y-21982857D01*
X101155000Y-22125714D01*
X101226428Y-22197142D01*
X101369285Y-22268571D01*
X101512142Y-22268571D01*
X101655000Y-22197142D01*
X101726428Y-22125714D01*
X101797857Y-21982857D01*
X101869285Y-21697142D01*
X101869285Y-21340000D01*
X101797857Y-21054285D01*
X101726428Y-20911428D01*
X101655000Y-20840000D01*
X101512142Y-20768571D01*
X100512142Y-20768571D02*
X99512142Y-20768571D01*
X100155000Y-22268571D01*
X98940714Y-22125714D02*
X98869285Y-22197142D01*
X98940714Y-22268571D01*
X99012142Y-22197142D01*
X98940714Y-22125714D01*
X98940714Y-22268571D01*
X97940714Y-20768571D02*
X97797857Y-20768571D01*
X97655000Y-20840000D01*
X97583571Y-20911428D01*
X97512142Y-21054285D01*
X97440714Y-21340000D01*
X97440714Y-21697142D01*
X97512142Y-21982857D01*
X97583571Y-22125714D01*
X97655000Y-22197142D01*
X97797857Y-22268571D01*
X97940714Y-22268571D01*
X98083571Y-22197142D01*
X98155000Y-22125714D01*
X98226428Y-21982857D01*
X98297857Y-21697142D01*
X98297857Y-21340000D01*
X98226428Y-21054285D01*
X98155000Y-20911428D01*
X98083571Y-20840000D01*
X97940714Y-20768571D01*
X96012142Y-22268571D02*
X96869285Y-22268571D01*
X96440714Y-22268571D02*
X96440714Y-20768571D01*
X96583571Y-20982857D01*
X96726428Y-21125714D01*
X96869285Y-21197142D01*
X95369285Y-22125714D02*
X95297857Y-22197142D01*
X95369285Y-22268571D01*
X95440714Y-22197142D01*
X95369285Y-22125714D01*
X95369285Y-22268571D01*
X94726428Y-20911428D02*
X94655000Y-20840000D01*
X94512142Y-20768571D01*
X94155000Y-20768571D01*
X94012142Y-20840000D01*
X93940714Y-20911428D01*
X93869285Y-21054285D01*
X93869285Y-21197142D01*
X93940714Y-21411428D01*
X94797857Y-22268571D01*
X93869285Y-22268571D01*
X92512142Y-20768571D02*
X93226428Y-20768571D01*
X93297857Y-21482857D01*
X93226428Y-21411428D01*
X93083571Y-21340000D01*
X92726428Y-21340000D01*
X92583571Y-21411428D01*
X92512142Y-21482857D01*
X92440714Y-21625714D01*
X92440714Y-21982857D01*
X92512142Y-22125714D01*
X92583571Y-22197142D01*
X92726428Y-22268571D01*
X93083571Y-22268571D01*
X93226428Y-22197142D01*
X93297857Y-22125714D01*
X113823214Y-20768571D02*
X112823214Y-20768571D01*
X113466071Y-22268571D01*
X111608928Y-21268571D02*
X111608928Y-22268571D01*
X111966071Y-20697142D02*
X112323214Y-21768571D01*
X111394642Y-21768571D01*
X110823214Y-22268571D02*
X110823214Y-20768571D01*
X110823214Y-21482857D02*
X109966071Y-21482857D01*
X109966071Y-22268571D02*
X109966071Y-20768571D01*
X108394642Y-22125714D02*
X108466071Y-22197142D01*
X108680357Y-22268571D01*
X108823214Y-22268571D01*
X109037500Y-22197142D01*
X109180357Y-22054285D01*
X109251785Y-21911428D01*
X109323214Y-21625714D01*
X109323214Y-21411428D01*
X109251785Y-21125714D01*
X109180357Y-20982857D01*
X109037500Y-20840000D01*
X108823214Y-20768571D01*
X108680357Y-20768571D01*
X108466071Y-20840000D01*
X108394642Y-20911428D01*
X107751785Y-22268571D02*
X107751785Y-20768571D01*
X107180357Y-20768571D01*
X107037500Y-20840000D01*
X106966071Y-20911428D01*
X106894642Y-21054285D01*
X106894642Y-21268571D01*
X106966071Y-21411428D01*
X107037500Y-21482857D01*
X107180357Y-21554285D01*
X107751785Y-21554285D01*
X106251785Y-20768571D02*
X106251785Y-21982857D01*
X106180357Y-22125714D01*
X106108928Y-22197142D01*
X105966071Y-22268571D01*
X105680357Y-22268571D01*
X105537500Y-22197142D01*
X105466071Y-22125714D01*
X105394642Y-21982857D01*
X105394642Y-20768571D01*
D11*
%TO.P,J11,8*%
%TO.N,/AQ0*%
X119380000Y-34290000D03*
%TO.P,J11,7*%
%TO.N,/AQ1*%
X119380000Y-31750000D03*
%TO.P,J11,6*%
%TO.N,/AQ2*%
X119380000Y-29210000D03*
%TO.P,J11,5*%
%TO.N,/AQ3*%
X119380000Y-26670000D03*
%TO.P,J11,4*%
%TO.N,/AQ4*%
X119380000Y-24130000D03*
%TO.P,J11,3*%
%TO.N,/AQ5*%
X119380000Y-21590000D03*
%TO.P,J11,2*%
%TO.N,/AQ6*%
X119380000Y-19050000D03*
D12*
%TO.P,J11,1*%
%TO.N,/AQ7*%
X119380000Y-16510000D03*
%TD*%
D13*
%TO.P,J10,1*%
%TO.N,Net-(J10-Pad1)*%
X113665000Y-36830000D03*
%TD*%
%TO.P,J9,1*%
%TO.N,/~MLOAD*%
X109855000Y-36830000D03*
%TD*%
%TO.P,J8,1*%
%TO.N,/MLOAD*%
X116205000Y-36830000D03*
%TD*%
%TO.P,C3,2*%
%TO.N,GND*%
%TA.AperFunction,ComponentPad*%
G36*
G01*
X73039861Y-39810498D02*
X73039861Y-39810498D01*
G75*
G02*
X74047920Y-39296867I760845J-247214D01*
G01*
X74047920Y-39296867D01*
G75*
G02*
X74561551Y-40304926I-247214J-760845D01*
G01*
X74561551Y-40304926D01*
G75*
G02*
X73553492Y-40818557I-760845J247214D01*
G01*
X73553492Y-40818557D01*
G75*
G02*
X73039861Y-39810498I247214J760845D01*
G01*
G37*
%TD.AperFunction*%
D14*
%TO.P,C3,1*%
%TO.N,VCC*%
X61912500Y-36195000D03*
%TD*%
%TO.P,C1,2*%
%TO.N,GND*%
%TA.AperFunction,ComponentPad*%
G36*
G01*
X73103361Y-27872498D02*
X73103361Y-27872498D01*
G75*
G02*
X74111420Y-27358867I760845J-247214D01*
G01*
X74111420Y-27358867D01*
G75*
G02*
X74625051Y-28366926I-247214J-760845D01*
G01*
X74625051Y-28366926D01*
G75*
G02*
X73616992Y-28880557I-760845J247214D01*
G01*
X73616992Y-28880557D01*
G75*
G02*
X73103361Y-27872498I247214J760845D01*
G01*
G37*
%TD.AperFunction*%
%TO.P,C1,1*%
%TO.N,VCC*%
X61976000Y-24257000D03*
%TD*%
D15*
%TO.P,J1,1*%
%TO.N,/D0*%
X71120000Y-53340000D03*
D16*
%TO.P,J1,2*%
%TO.N,/D1*%
X68580000Y-53340000D03*
%TO.P,J1,3*%
%TO.N,/D2*%
X66040000Y-53340000D03*
%TO.P,J1,4*%
%TO.N,/D3*%
X63500000Y-53340000D03*
%TO.P,J1,5*%
%TO.N,/D4*%
X60960000Y-53340000D03*
%TO.P,J1,6*%
%TO.N,/D5*%
X58420000Y-53340000D03*
%TO.P,J1,7*%
%TO.N,/D6*%
X55880000Y-53340000D03*
%TO.P,J1,8*%
%TO.N,/D7*%
X53340000Y-53340000D03*
%TD*%
D17*
%TO.P,J2,8*%
%TO.N,/Q0*%
X88900000Y-53340000D03*
%TO.P,J2,7*%
%TO.N,/Q1*%
X91440000Y-53340000D03*
%TO.P,J2,6*%
%TO.N,/Q2*%
X93980000Y-53340000D03*
%TO.P,J2,5*%
%TO.N,/Q3*%
X96520000Y-53340000D03*
%TO.P,J2,4*%
%TO.N,/Q4*%
X99060000Y-53340000D03*
%TO.P,J2,3*%
%TO.N,/Q5*%
X101600000Y-53340000D03*
%TO.P,J2,2*%
%TO.N,/Q6*%
X104140000Y-53340000D03*
D15*
%TO.P,J2,1*%
%TO.N,/Q7*%
X106680000Y-53340000D03*
%TD*%
%TO.P,J3,1*%
%TO.N,VCC*%
X83820000Y-53340000D03*
D17*
%TO.P,J3,2*%
%TO.N,GND*%
X81280000Y-53340000D03*
%TD*%
D15*
%TO.P,J4,1*%
%TO.N,/~Row*%
X119380000Y-53340000D03*
D17*
%TO.P,J4,2*%
%TO.N,/~Col*%
X116840000Y-53340000D03*
%TO.P,J4,3*%
%TO.N,/~CS*%
X114300000Y-53340000D03*
%TD*%
D18*
%TO.P,J5,2*%
%TO.N,/DownOut*%
X59690000Y-20320000D03*
D19*
%TO.P,J5,1*%
%TO.N,/UpOut*%
X59690000Y-17780000D03*
%TD*%
D13*
%TO.P,J6,1*%
%TO.N,/Down*%
X71120000Y-47942500D03*
D20*
%TO.P,J6,2*%
%TO.N,/Up*%
X71120000Y-45402500D03*
%TD*%
D15*
%TO.P,J7,1*%
%TO.N,/Res*%
X76200000Y-53340000D03*
%TD*%
D21*
%TO.N,VCC*%
X76835000Y-46672500D03*
%TO.N,/D5*%
X59690000Y-27940000D03*
%TO.N,/D4*%
X55880000Y-45720000D03*
%TO.N,Net-(R1-Pad1)*%
X94615000Y-33337500D03*
X82550000Y-33337500D03*
%TO.N,/L1*%
X78740000Y-45085000D03*
X78740000Y-50165000D03*
%TO.N,/L4*%
X72390000Y-33020000D03*
X66040000Y-30480000D03*
%TO.N,/L5*%
X77470000Y-27940000D03*
X77470000Y-33655000D03*
%TO.N,/L6*%
X81915000Y-30480000D03*
X81915000Y-26670000D03*
%TO.N,/Res*%
X64135000Y-33020000D03*
%TO.N,/~LOAD*%
X69850000Y-19050000D03*
X118745000Y-40005000D03*
X69850000Y-32385000D03*
%TD*%
D22*
%TO.N,VCC*%
X83820000Y-55880000D02*
X83820000Y-53340000D01*
X78740000Y-55880000D02*
X83820000Y-55880000D01*
X78740000Y-53022500D02*
X78740000Y-55880000D01*
X78740000Y-52705000D02*
X78740000Y-53022500D01*
X76835000Y-50800000D02*
X78740000Y-52705000D01*
X76835000Y-46355000D02*
X76835000Y-50800000D01*
X64770000Y-39052500D02*
X61912500Y-36195000D01*
X64770000Y-55880000D02*
X64770000Y-39052500D01*
X78740000Y-55880000D02*
X64770000Y-55880000D01*
%TO.N,GND*%
X81280000Y-43815000D02*
X81280000Y-53340000D01*
X77903712Y-40438712D02*
X81280000Y-43815000D01*
X73800706Y-40438712D02*
X77903712Y-40438712D01*
X73864206Y-40375212D02*
X73800706Y-40438712D01*
X73864206Y-28119712D02*
X73864206Y-40375212D01*
%TO.N,/D5*%
X58420000Y-51435000D02*
X58420000Y-53340000D01*
X53975000Y-46990000D02*
X58420000Y-51435000D01*
X53975000Y-33655000D02*
X53975000Y-46990000D01*
X59690000Y-27940000D02*
X53975000Y-33655000D01*
%TO.N,/D4*%
X55880000Y-45720000D02*
X60960000Y-50800000D01*
X60960000Y-53340000D02*
X60960000Y-50800000D01*
%TO.N,Net-(R1-Pad1)*%
X82550000Y-33337500D02*
X94615000Y-33337500D01*
%TO.N,/L1*%
X78740000Y-45085000D02*
X78740000Y-50165000D01*
%TO.N,/L4*%
X69215000Y-34290000D02*
X68580000Y-34290000D01*
X68580000Y-34290000D02*
X66040000Y-31750000D01*
X66040000Y-31750000D02*
X66040000Y-30480000D01*
X66040000Y-30480000D02*
X66040000Y-30480000D01*
X71120000Y-34290000D02*
X72390000Y-33020000D01*
X71120000Y-34290000D02*
X69215000Y-34290000D01*
%TO.N,/L5*%
X77470000Y-27940000D02*
X77470000Y-33655000D01*
%TO.N,/L6*%
X81915000Y-26670000D02*
X81915000Y-30480000D01*
%TO.N,/Res*%
X74295000Y-50165000D02*
X76200000Y-52070000D01*
X76200000Y-52070000D02*
X76200000Y-53340000D01*
X69850000Y-50165000D02*
X74295000Y-50165000D01*
X65405000Y-34290000D02*
X64135000Y-33020000D01*
X66675000Y-35560000D02*
X65405000Y-34290000D01*
X66675000Y-46990000D02*
X66675000Y-35560000D01*
X66675000Y-46990000D02*
X69850000Y-50165000D01*
%TO.N,/~LOAD*%
X69850000Y-25082500D02*
X69850000Y-32385000D01*
X69850000Y-19050000D02*
X69850000Y-25082500D01*
X105410000Y-40005000D02*
X118745000Y-40005000D01*
X100965000Y-35560000D02*
X105410000Y-40005000D01*
X100965000Y-30480000D02*
X100965000Y-35560000D01*
X95567500Y-25082500D02*
X100965000Y-30480000D01*
X69850000Y-25082500D02*
X95567500Y-25082500D01*
%TD*%
M02*
