%TF.GenerationSoftware,KiCad,Pcbnew,(5.1.8)-1*%
%TF.CreationDate,2024-03-21T22:45:28+03:00*%
%TF.ProjectId,Reg,5265672e-6b69-4636-9164-5f7063625858,rev?*%
%TF.SameCoordinates,Original*%
%TF.FileFunction,Legend,Bot*%
%TF.FilePolarity,Positive*%
%FSLAX46Y46*%
G04 Gerber Fmt 4.6, Leading zero omitted, Abs format (unit mm)*
G04 Created by KiCad (PCBNEW (5.1.8)-1) date 2024-03-21 22:45:28*
%MOMM*%
%LPD*%
G01*
G04 APERTURE LIST*
%ADD10C,0.120000*%
%ADD11C,0.250000*%
%ADD12C,0.150000*%
G04 APERTURE END LIST*
D10*
X113825000Y-26987500D02*
G75*
G03*
X113825000Y-28892500I0J-952500D01*
G01*
D11*
X109791190Y-26717738D02*
X109695952Y-26622500D01*
X109505476Y-26527261D01*
X109029285Y-26527261D01*
X108838809Y-26622500D01*
X108743571Y-26717738D01*
X108648333Y-26908214D01*
X108648333Y-27098690D01*
X108743571Y-27384404D01*
X109886428Y-28527261D01*
X108648333Y-28527261D01*
X106934047Y-27193928D02*
X106934047Y-28527261D01*
X107410238Y-26432023D02*
X107886428Y-27860595D01*
X106648333Y-27860595D01*
X104934047Y-26527261D02*
X105886428Y-26527261D01*
X105981666Y-27479642D01*
X105886428Y-27384404D01*
X105695952Y-27289166D01*
X105219761Y-27289166D01*
X105029285Y-27384404D01*
X104934047Y-27479642D01*
X104838809Y-27670119D01*
X104838809Y-28146309D01*
X104934047Y-28336785D01*
X105029285Y-28432023D01*
X105219761Y-28527261D01*
X105695952Y-28527261D01*
X105886428Y-28432023D01*
X105981666Y-28336785D01*
D10*
X113665000Y-47625000D02*
X113665000Y-46990000D01*
X116205000Y-47625000D02*
X113665000Y-47625000D01*
X116205000Y-46990000D02*
X116205000Y-47625000D01*
D12*
X118252380Y-49697142D02*
X118300000Y-49744761D01*
X118442857Y-49792380D01*
X118538095Y-49792380D01*
X118680952Y-49744761D01*
X118776190Y-49649523D01*
X118823809Y-49554285D01*
X118871428Y-49363809D01*
X118871428Y-49220952D01*
X118823809Y-49030476D01*
X118776190Y-48935238D01*
X118680952Y-48840000D01*
X118538095Y-48792380D01*
X118442857Y-48792380D01*
X118300000Y-48840000D01*
X118252380Y-48887619D01*
X117680952Y-49792380D02*
X117776190Y-49744761D01*
X117823809Y-49697142D01*
X117871428Y-49601904D01*
X117871428Y-49316190D01*
X117823809Y-49220952D01*
X117776190Y-49173333D01*
X117680952Y-49125714D01*
X117538095Y-49125714D01*
X117442857Y-49173333D01*
X117395238Y-49220952D01*
X117347619Y-49316190D01*
X117347619Y-49601904D01*
X117395238Y-49697142D01*
X117442857Y-49744761D01*
X117538095Y-49792380D01*
X117680952Y-49792380D01*
X116919047Y-49125714D02*
X116919047Y-49792380D01*
X116919047Y-49220952D02*
X116871428Y-49173333D01*
X116776190Y-49125714D01*
X116633333Y-49125714D01*
X116538095Y-49173333D01*
X116490476Y-49268571D01*
X116490476Y-49792380D01*
X116014285Y-49125714D02*
X116014285Y-49792380D01*
X116014285Y-49220952D02*
X115966666Y-49173333D01*
X115871428Y-49125714D01*
X115728571Y-49125714D01*
X115633333Y-49173333D01*
X115585714Y-49268571D01*
X115585714Y-49792380D01*
X114728571Y-49744761D02*
X114823809Y-49792380D01*
X115014285Y-49792380D01*
X115109523Y-49744761D01*
X115157142Y-49649523D01*
X115157142Y-49268571D01*
X115109523Y-49173333D01*
X115014285Y-49125714D01*
X114823809Y-49125714D01*
X114728571Y-49173333D01*
X114680952Y-49268571D01*
X114680952Y-49363809D01*
X115157142Y-49459047D01*
X113823809Y-49744761D02*
X113919047Y-49792380D01*
X114109523Y-49792380D01*
X114204761Y-49744761D01*
X114252380Y-49697142D01*
X114300000Y-49601904D01*
X114300000Y-49316190D01*
X114252380Y-49220952D01*
X114204761Y-49173333D01*
X114109523Y-49125714D01*
X113919047Y-49125714D01*
X113823809Y-49173333D01*
X113538095Y-49125714D02*
X113157142Y-49125714D01*
X113395238Y-48792380D02*
X113395238Y-49649523D01*
X113347619Y-49744761D01*
X113252380Y-49792380D01*
X113157142Y-49792380D01*
X112204761Y-49125714D02*
X111823809Y-49125714D01*
X112061904Y-48792380D02*
X112061904Y-49649523D01*
X112014285Y-49744761D01*
X111919047Y-49792380D01*
X111823809Y-49792380D01*
X111490476Y-49792380D02*
X111490476Y-48792380D01*
X111061904Y-49792380D02*
X111061904Y-49268571D01*
X111109523Y-49173333D01*
X111204761Y-49125714D01*
X111347619Y-49125714D01*
X111442857Y-49173333D01*
X111490476Y-49220952D01*
X110585714Y-49792380D02*
X110585714Y-49125714D01*
X110585714Y-48792380D02*
X110633333Y-48840000D01*
X110585714Y-48887619D01*
X110538095Y-48840000D01*
X110585714Y-48792380D01*
X110585714Y-48887619D01*
X110157142Y-49744761D02*
X110061904Y-49792380D01*
X109871428Y-49792380D01*
X109776190Y-49744761D01*
X109728571Y-49649523D01*
X109728571Y-49601904D01*
X109776190Y-49506666D01*
X109871428Y-49459047D01*
X110014285Y-49459047D01*
X110109523Y-49411428D01*
X110157142Y-49316190D01*
X110157142Y-49268571D01*
X110109523Y-49173333D01*
X110014285Y-49125714D01*
X109871428Y-49125714D01*
X109776190Y-49173333D01*
X119419047Y-50775714D02*
X119038095Y-50775714D01*
X119276190Y-50442380D02*
X119276190Y-51299523D01*
X119228571Y-51394761D01*
X119133333Y-51442380D01*
X119038095Y-51442380D01*
X118561904Y-51442380D02*
X118657142Y-51394761D01*
X118704761Y-51347142D01*
X118752380Y-51251904D01*
X118752380Y-50966190D01*
X118704761Y-50870952D01*
X118657142Y-50823333D01*
X118561904Y-50775714D01*
X118419047Y-50775714D01*
X118323809Y-50823333D01*
X118276190Y-50870952D01*
X118228571Y-50966190D01*
X118228571Y-51251904D01*
X118276190Y-51347142D01*
X118323809Y-51394761D01*
X118419047Y-51442380D01*
X118561904Y-51442380D01*
X116609523Y-50775714D02*
X116609523Y-51442380D01*
X117038095Y-50775714D02*
X117038095Y-51299523D01*
X116990476Y-51394761D01*
X116895238Y-51442380D01*
X116752380Y-51442380D01*
X116657142Y-51394761D01*
X116609523Y-51347142D01*
X116180952Y-51394761D02*
X116085714Y-51442380D01*
X115895238Y-51442380D01*
X115800000Y-51394761D01*
X115752380Y-51299523D01*
X115752380Y-51251904D01*
X115800000Y-51156666D01*
X115895238Y-51109047D01*
X116038095Y-51109047D01*
X116133333Y-51061428D01*
X116180952Y-50966190D01*
X116180952Y-50918571D01*
X116133333Y-50823333D01*
X116038095Y-50775714D01*
X115895238Y-50775714D01*
X115800000Y-50823333D01*
X114942857Y-51394761D02*
X115038095Y-51442380D01*
X115228571Y-51442380D01*
X115323809Y-51394761D01*
X115371428Y-51299523D01*
X115371428Y-50918571D01*
X115323809Y-50823333D01*
X115228571Y-50775714D01*
X115038095Y-50775714D01*
X114942857Y-50823333D01*
X114895238Y-50918571D01*
X114895238Y-51013809D01*
X115371428Y-51109047D01*
X113942857Y-50075000D02*
X112800000Y-50075000D01*
X113704761Y-51442380D02*
X113704761Y-50442380D01*
X113371428Y-51156666D01*
X113038095Y-50442380D01*
X113038095Y-51442380D01*
X112800000Y-50075000D02*
X111990476Y-50075000D01*
X112085714Y-51442380D02*
X112561904Y-51442380D01*
X112561904Y-50442380D01*
X111990476Y-50075000D02*
X110942857Y-50075000D01*
X111561904Y-50442380D02*
X111371428Y-50442380D01*
X111276190Y-50490000D01*
X111180952Y-50585238D01*
X111133333Y-50775714D01*
X111133333Y-51109047D01*
X111180952Y-51299523D01*
X111276190Y-51394761D01*
X111371428Y-51442380D01*
X111561904Y-51442380D01*
X111657142Y-51394761D01*
X111752380Y-51299523D01*
X111800000Y-51109047D01*
X111800000Y-50775714D01*
X111752380Y-50585238D01*
X111657142Y-50490000D01*
X111561904Y-50442380D01*
X110942857Y-50075000D02*
X110085714Y-50075000D01*
X110752380Y-51156666D02*
X110276190Y-51156666D01*
X110847619Y-51442380D02*
X110514285Y-50442380D01*
X110180952Y-51442380D01*
X110085714Y-50075000D02*
X109085714Y-50075000D01*
X109847619Y-51442380D02*
X109847619Y-50442380D01*
X109609523Y-50442380D01*
X109466666Y-50490000D01*
X109371428Y-50585238D01*
X109323809Y-50680476D01*
X109276190Y-50870952D01*
X109276190Y-51013809D01*
X109323809Y-51204285D01*
X109371428Y-51299523D01*
X109466666Y-51394761D01*
X109609523Y-51442380D01*
X109847619Y-51442380D01*
X107035000Y-40751428D02*
X107035000Y-41894285D01*
X108402380Y-40989523D02*
X107402380Y-40989523D01*
X108116666Y-41322857D01*
X107402380Y-41656190D01*
X108402380Y-41656190D01*
X107035000Y-41894285D02*
X107035000Y-42703809D01*
X108402380Y-42608571D02*
X108402380Y-42132380D01*
X107402380Y-42132380D01*
X107035000Y-42703809D02*
X107035000Y-43751428D01*
X107402380Y-43132380D02*
X107402380Y-43322857D01*
X107450000Y-43418095D01*
X107545238Y-43513333D01*
X107735714Y-43560952D01*
X108069047Y-43560952D01*
X108259523Y-43513333D01*
X108354761Y-43418095D01*
X108402380Y-43322857D01*
X108402380Y-43132380D01*
X108354761Y-43037142D01*
X108259523Y-42941904D01*
X108069047Y-42894285D01*
X107735714Y-42894285D01*
X107545238Y-42941904D01*
X107450000Y-43037142D01*
X107402380Y-43132380D01*
X107035000Y-43751428D02*
X107035000Y-44608571D01*
X108116666Y-43941904D02*
X108116666Y-44418095D01*
X108402380Y-43846666D02*
X107402380Y-44180000D01*
X108402380Y-44513333D01*
X107035000Y-44608571D02*
X107035000Y-45608571D01*
X108402380Y-44846666D02*
X107402380Y-44846666D01*
X107402380Y-45084761D01*
X107450000Y-45227619D01*
X107545238Y-45322857D01*
X107640476Y-45370476D01*
X107830952Y-45418095D01*
X107973809Y-45418095D01*
X108164285Y-45370476D01*
X108259523Y-45322857D01*
X108354761Y-45227619D01*
X108402380Y-45084761D01*
X108402380Y-44846666D01*
X119832380Y-40989523D02*
X118832380Y-40989523D01*
X119546666Y-41322857D01*
X118832380Y-41656190D01*
X119832380Y-41656190D01*
X119832380Y-42608571D02*
X119832380Y-42132380D01*
X118832380Y-42132380D01*
X118832380Y-43132380D02*
X118832380Y-43322857D01*
X118880000Y-43418095D01*
X118975238Y-43513333D01*
X119165714Y-43560952D01*
X119499047Y-43560952D01*
X119689523Y-43513333D01*
X119784761Y-43418095D01*
X119832380Y-43322857D01*
X119832380Y-43132380D01*
X119784761Y-43037142D01*
X119689523Y-42941904D01*
X119499047Y-42894285D01*
X119165714Y-42894285D01*
X118975238Y-42941904D01*
X118880000Y-43037142D01*
X118832380Y-43132380D01*
X119546666Y-43941904D02*
X119546666Y-44418095D01*
X119832380Y-43846666D02*
X118832380Y-44180000D01*
X119832380Y-44513333D01*
X119832380Y-44846666D02*
X118832380Y-44846666D01*
X118832380Y-45084761D01*
X118880000Y-45227619D01*
X118975238Y-45322857D01*
X119070476Y-45370476D01*
X119260952Y-45418095D01*
X119403809Y-45418095D01*
X119594285Y-45370476D01*
X119689523Y-45322857D01*
X119784761Y-45227619D01*
X119832380Y-45084761D01*
X119832380Y-44846666D01*
X67730476Y-48077380D02*
X67730476Y-47077380D01*
X67492380Y-47077380D01*
X67349523Y-47125000D01*
X67254285Y-47220238D01*
X67206666Y-47315476D01*
X67159047Y-47505952D01*
X67159047Y-47648809D01*
X67206666Y-47839285D01*
X67254285Y-47934523D01*
X67349523Y-48029761D01*
X67492380Y-48077380D01*
X67730476Y-48077380D01*
X66587619Y-48077380D02*
X66682857Y-48029761D01*
X66730476Y-47982142D01*
X66778095Y-47886904D01*
X66778095Y-47601190D01*
X66730476Y-47505952D01*
X66682857Y-47458333D01*
X66587619Y-47410714D01*
X66444761Y-47410714D01*
X66349523Y-47458333D01*
X66301904Y-47505952D01*
X66254285Y-47601190D01*
X66254285Y-47886904D01*
X66301904Y-47982142D01*
X66349523Y-48029761D01*
X66444761Y-48077380D01*
X66587619Y-48077380D01*
X65920952Y-47410714D02*
X65730476Y-48077380D01*
X65540000Y-47601190D01*
X65349523Y-48077380D01*
X65159047Y-47410714D01*
X64778095Y-47410714D02*
X64778095Y-48077380D01*
X64778095Y-47505952D02*
X64730476Y-47458333D01*
X64635238Y-47410714D01*
X64492380Y-47410714D01*
X64397142Y-47458333D01*
X64349523Y-47553571D01*
X64349523Y-48077380D01*
X67413095Y-44537380D02*
X67413095Y-45346904D01*
X67365476Y-45442142D01*
X67317857Y-45489761D01*
X67222619Y-45537380D01*
X67032142Y-45537380D01*
X66936904Y-45489761D01*
X66889285Y-45442142D01*
X66841666Y-45346904D01*
X66841666Y-44537380D01*
X66365476Y-44870714D02*
X66365476Y-45870714D01*
X66365476Y-44918333D02*
X66270238Y-44870714D01*
X66079761Y-44870714D01*
X65984523Y-44918333D01*
X65936904Y-44965952D01*
X65889285Y-45061190D01*
X65889285Y-45346904D01*
X65936904Y-45442142D01*
X65984523Y-45489761D01*
X66079761Y-45537380D01*
X66270238Y-45537380D01*
X66365476Y-45489761D01*
X61055000Y-14692380D02*
X61055000Y-15501904D01*
X61007380Y-15597142D01*
X60959761Y-15644761D01*
X60864523Y-15692380D01*
X60674047Y-15692380D01*
X60578809Y-15644761D01*
X60531190Y-15597142D01*
X60483571Y-15501904D01*
X60483571Y-14692380D01*
X60007380Y-15025714D02*
X60007380Y-16025714D01*
X60007380Y-15073333D02*
X59912142Y-15025714D01*
X59721666Y-15025714D01*
X59626428Y-15073333D01*
X59578809Y-15120952D01*
X59531190Y-15216190D01*
X59531190Y-15501904D01*
X59578809Y-15597142D01*
X59626428Y-15644761D01*
X59721666Y-15692380D01*
X59912142Y-15692380D01*
X60007380Y-15644761D01*
X58912142Y-14692380D02*
X58721666Y-14692380D01*
X58626428Y-14740000D01*
X58531190Y-14835238D01*
X58483571Y-15025714D01*
X58483571Y-15359047D01*
X58531190Y-15549523D01*
X58626428Y-15644761D01*
X58721666Y-15692380D01*
X58912142Y-15692380D01*
X59007380Y-15644761D01*
X59102619Y-15549523D01*
X59150238Y-15359047D01*
X59150238Y-15025714D01*
X59102619Y-14835238D01*
X59007380Y-14740000D01*
X58912142Y-14692380D01*
X57626428Y-15025714D02*
X57626428Y-15692380D01*
X58055000Y-15025714D02*
X58055000Y-15549523D01*
X58007380Y-15644761D01*
X57912142Y-15692380D01*
X57769285Y-15692380D01*
X57674047Y-15644761D01*
X57626428Y-15597142D01*
X57293095Y-15025714D02*
X56912142Y-15025714D01*
X57150238Y-14692380D02*
X57150238Y-15549523D01*
X57102619Y-15644761D01*
X57007380Y-15692380D01*
X56912142Y-15692380D01*
X61372380Y-23312380D02*
X61372380Y-22312380D01*
X61134285Y-22312380D01*
X60991428Y-22360000D01*
X60896190Y-22455238D01*
X60848571Y-22550476D01*
X60800952Y-22740952D01*
X60800952Y-22883809D01*
X60848571Y-23074285D01*
X60896190Y-23169523D01*
X60991428Y-23264761D01*
X61134285Y-23312380D01*
X61372380Y-23312380D01*
X60229523Y-23312380D02*
X60324761Y-23264761D01*
X60372380Y-23217142D01*
X60420000Y-23121904D01*
X60420000Y-22836190D01*
X60372380Y-22740952D01*
X60324761Y-22693333D01*
X60229523Y-22645714D01*
X60086666Y-22645714D01*
X59991428Y-22693333D01*
X59943809Y-22740952D01*
X59896190Y-22836190D01*
X59896190Y-23121904D01*
X59943809Y-23217142D01*
X59991428Y-23264761D01*
X60086666Y-23312380D01*
X60229523Y-23312380D01*
X59562857Y-22645714D02*
X59372380Y-23312380D01*
X59181904Y-22836190D01*
X58991428Y-23312380D01*
X58800952Y-22645714D01*
X58420000Y-22645714D02*
X58420000Y-23312380D01*
X58420000Y-22740952D02*
X58372380Y-22693333D01*
X58277142Y-22645714D01*
X58134285Y-22645714D01*
X58039047Y-22693333D01*
X57991428Y-22788571D01*
X57991428Y-23312380D01*
X57324761Y-22312380D02*
X57134285Y-22312380D01*
X57039047Y-22360000D01*
X56943809Y-22455238D01*
X56896190Y-22645714D01*
X56896190Y-22979047D01*
X56943809Y-23169523D01*
X57039047Y-23264761D01*
X57134285Y-23312380D01*
X57324761Y-23312380D01*
X57420000Y-23264761D01*
X57515238Y-23169523D01*
X57562857Y-22979047D01*
X57562857Y-22645714D01*
X57515238Y-22455238D01*
X57420000Y-22360000D01*
X57324761Y-22312380D01*
X56039047Y-22645714D02*
X56039047Y-23312380D01*
X56467619Y-22645714D02*
X56467619Y-23169523D01*
X56420000Y-23264761D01*
X56324761Y-23312380D01*
X56181904Y-23312380D01*
X56086666Y-23264761D01*
X56039047Y-23217142D01*
X55705714Y-22645714D02*
X55324761Y-22645714D01*
X55562857Y-22312380D02*
X55562857Y-23169523D01*
X55515238Y-23264761D01*
X55420000Y-23312380D01*
X55324761Y-23312380D01*
D10*
%TO.C,C4*%
X117736252Y-25817500D02*
X117213748Y-25817500D01*
X117736252Y-24347500D02*
X117213748Y-24347500D01*
%TO.C,R14*%
X115707936Y-29945000D02*
X116162064Y-29945000D01*
X115707936Y-28475000D02*
X116162064Y-28475000D01*
%TO.C,U5*%
X100805000Y-27940000D02*
X100805000Y-24080000D01*
X100805000Y-24080000D02*
X101040000Y-24080000D01*
X100805000Y-27940000D02*
X100805000Y-31800000D01*
X100805000Y-31800000D02*
X101040000Y-31800000D01*
X113825000Y-27940000D02*
X113825000Y-24080000D01*
X113825000Y-24080000D02*
X113590000Y-24080000D01*
X113825000Y-27940000D02*
X113825000Y-31800000D01*
X113825000Y-31800000D02*
X113590000Y-31800000D01*
X113590000Y-31800000D02*
X113590000Y-33490000D01*
%TO.C,J11*%
X120710000Y-16340000D02*
X100270000Y-16340000D01*
X100270000Y-16340000D02*
X100270000Y-13680000D01*
X100270000Y-13680000D02*
X120710000Y-13680000D01*
X120710000Y-13680000D02*
X120710000Y-16340000D01*
X119760000Y-13680000D02*
X119760000Y-7680000D01*
X119760000Y-7680000D02*
X119000000Y-7680000D01*
X119000000Y-7680000D02*
X119000000Y-13680000D01*
X119700000Y-13680000D02*
X119700000Y-7680000D01*
X119580000Y-13680000D02*
X119580000Y-7680000D01*
X119460000Y-13680000D02*
X119460000Y-7680000D01*
X119340000Y-13680000D02*
X119340000Y-7680000D01*
X119220000Y-13680000D02*
X119220000Y-7680000D01*
X119100000Y-13680000D02*
X119100000Y-7680000D01*
X119760000Y-16670000D02*
X119760000Y-16340000D01*
X119000000Y-16670000D02*
X119000000Y-16340000D01*
X118110000Y-16340000D02*
X118110000Y-13680000D01*
X117220000Y-13680000D02*
X117220000Y-7680000D01*
X117220000Y-7680000D02*
X116460000Y-7680000D01*
X116460000Y-7680000D02*
X116460000Y-13680000D01*
X117220000Y-16737071D02*
X117220000Y-16340000D01*
X116460000Y-16737071D02*
X116460000Y-16340000D01*
X115570000Y-16340000D02*
X115570000Y-13680000D01*
X114680000Y-13680000D02*
X114680000Y-7680000D01*
X114680000Y-7680000D02*
X113920000Y-7680000D01*
X113920000Y-7680000D02*
X113920000Y-13680000D01*
X114680000Y-16737071D02*
X114680000Y-16340000D01*
X113920000Y-16737071D02*
X113920000Y-16340000D01*
X113030000Y-16340000D02*
X113030000Y-13680000D01*
X112140000Y-13680000D02*
X112140000Y-7680000D01*
X112140000Y-7680000D02*
X111380000Y-7680000D01*
X111380000Y-7680000D02*
X111380000Y-13680000D01*
X112140000Y-16737071D02*
X112140000Y-16340000D01*
X111380000Y-16737071D02*
X111380000Y-16340000D01*
X110490000Y-16340000D02*
X110490000Y-13680000D01*
X109600000Y-13680000D02*
X109600000Y-7680000D01*
X109600000Y-7680000D02*
X108840000Y-7680000D01*
X108840000Y-7680000D02*
X108840000Y-13680000D01*
X109600000Y-16737071D02*
X109600000Y-16340000D01*
X108840000Y-16737071D02*
X108840000Y-16340000D01*
X107950000Y-16340000D02*
X107950000Y-13680000D01*
X107060000Y-13680000D02*
X107060000Y-7680000D01*
X107060000Y-7680000D02*
X106300000Y-7680000D01*
X106300000Y-7680000D02*
X106300000Y-13680000D01*
X107060000Y-16737071D02*
X107060000Y-16340000D01*
X106300000Y-16737071D02*
X106300000Y-16340000D01*
X105410000Y-16340000D02*
X105410000Y-13680000D01*
X104520000Y-13680000D02*
X104520000Y-7680000D01*
X104520000Y-7680000D02*
X103760000Y-7680000D01*
X103760000Y-7680000D02*
X103760000Y-13680000D01*
X104520000Y-16737071D02*
X104520000Y-16340000D01*
X103760000Y-16737071D02*
X103760000Y-16340000D01*
X102870000Y-16340000D02*
X102870000Y-13680000D01*
X101980000Y-13680000D02*
X101980000Y-7680000D01*
X101980000Y-7680000D02*
X101220000Y-7680000D01*
X101220000Y-7680000D02*
X101220000Y-13680000D01*
X101980000Y-16737071D02*
X101980000Y-16340000D01*
X101220000Y-16737071D02*
X101220000Y-16340000D01*
X119380000Y-19050000D02*
X120650000Y-19050000D01*
X120650000Y-19050000D02*
X120650000Y-17780000D01*
%TO.C,J10*%
X112395000Y-34290000D02*
X112395000Y-35560000D01*
X113665000Y-34290000D02*
X112395000Y-34290000D01*
X114045000Y-36670000D02*
X114045000Y-37000000D01*
X113285000Y-36670000D02*
X113285000Y-37000000D01*
X113945000Y-39660000D02*
X113945000Y-45660000D01*
X113825000Y-39660000D02*
X113825000Y-45660000D01*
X113705000Y-39660000D02*
X113705000Y-45660000D01*
X113585000Y-39660000D02*
X113585000Y-45660000D01*
X113465000Y-39660000D02*
X113465000Y-45660000D01*
X113345000Y-39660000D02*
X113345000Y-45660000D01*
X114045000Y-45660000D02*
X114045000Y-39660000D01*
X113285000Y-45660000D02*
X114045000Y-45660000D01*
X113285000Y-39660000D02*
X113285000Y-45660000D01*
X112335000Y-39660000D02*
X112335000Y-37000000D01*
X114995000Y-39660000D02*
X112335000Y-39660000D01*
X114995000Y-37000000D02*
X114995000Y-39660000D01*
X112335000Y-37000000D02*
X114995000Y-37000000D01*
%TO.C,J9*%
X108585000Y-34290000D02*
X108585000Y-35560000D01*
X109855000Y-34290000D02*
X108585000Y-34290000D01*
X110235000Y-36670000D02*
X110235000Y-37000000D01*
X109475000Y-36670000D02*
X109475000Y-37000000D01*
X110135000Y-39660000D02*
X110135000Y-45660000D01*
X110015000Y-39660000D02*
X110015000Y-45660000D01*
X109895000Y-39660000D02*
X109895000Y-45660000D01*
X109775000Y-39660000D02*
X109775000Y-45660000D01*
X109655000Y-39660000D02*
X109655000Y-45660000D01*
X109535000Y-39660000D02*
X109535000Y-45660000D01*
X110235000Y-45660000D02*
X110235000Y-39660000D01*
X109475000Y-45660000D02*
X110235000Y-45660000D01*
X109475000Y-39660000D02*
X109475000Y-45660000D01*
X108525000Y-39660000D02*
X108525000Y-37000000D01*
X111185000Y-39660000D02*
X108525000Y-39660000D01*
X111185000Y-37000000D02*
X111185000Y-39660000D01*
X108525000Y-37000000D02*
X111185000Y-37000000D01*
%TO.C,J8*%
X114875000Y-37000000D02*
X117535000Y-37000000D01*
X117535000Y-37000000D02*
X117535000Y-39660000D01*
X117535000Y-39660000D02*
X114875000Y-39660000D01*
X114875000Y-39660000D02*
X114875000Y-37000000D01*
X115825000Y-39660000D02*
X115825000Y-45660000D01*
X115825000Y-45660000D02*
X116585000Y-45660000D01*
X116585000Y-45660000D02*
X116585000Y-39660000D01*
X115885000Y-39660000D02*
X115885000Y-45660000D01*
X116005000Y-39660000D02*
X116005000Y-45660000D01*
X116125000Y-39660000D02*
X116125000Y-45660000D01*
X116245000Y-39660000D02*
X116245000Y-45660000D01*
X116365000Y-39660000D02*
X116365000Y-45660000D01*
X116485000Y-39660000D02*
X116485000Y-45660000D01*
X115825000Y-36670000D02*
X115825000Y-37000000D01*
X116585000Y-36670000D02*
X116585000Y-37000000D01*
X116205000Y-34290000D02*
X114935000Y-34290000D01*
X114935000Y-34290000D02*
X114935000Y-35560000D01*
%TO.C,R1*%
X83010000Y-33470000D02*
X83010000Y-30030000D01*
X83010000Y-30030000D02*
X92250000Y-30030000D01*
X92250000Y-30030000D02*
X92250000Y-33470000D01*
X92250000Y-33470000D02*
X83010000Y-33470000D01*
X81050000Y-31750000D02*
X83010000Y-31750000D01*
X94210000Y-31750000D02*
X92250000Y-31750000D01*
%TO.C,C3*%
X72811608Y-40117335D02*
X69777737Y-39131571D01*
X62901599Y-36897378D02*
X65935469Y-37883142D01*
X69338933Y-40482071D02*
X65496665Y-39233642D01*
X70216542Y-37781070D02*
X69338933Y-40482071D01*
X66374273Y-36532642D02*
X70216542Y-37781070D01*
X65496665Y-39233642D02*
X66374273Y-36532642D01*
%TO.C,C1*%
X65560165Y-26914642D02*
X66437773Y-24213642D01*
X66437773Y-24213642D02*
X70280042Y-25462070D01*
X70280042Y-25462070D02*
X69402433Y-28163071D01*
X69402433Y-28163071D02*
X65560165Y-26914642D01*
X62965099Y-24578378D02*
X65998969Y-25564142D01*
X72875108Y-27798335D02*
X69841237Y-26812571D01*
%TO.C,J5*%
X60960000Y-16510000D02*
X59690000Y-16510000D01*
X60960000Y-17780000D02*
X60960000Y-16510000D01*
X58647071Y-20700000D02*
X58250000Y-20700000D01*
X58647071Y-19940000D02*
X58250000Y-19940000D01*
X49590000Y-20700000D02*
X55590000Y-20700000D01*
X49590000Y-19940000D02*
X49590000Y-20700000D01*
X55590000Y-19940000D02*
X49590000Y-19940000D01*
X58250000Y-19050000D02*
X55590000Y-19050000D01*
X58580000Y-18160000D02*
X58250000Y-18160000D01*
X58580000Y-17400000D02*
X58250000Y-17400000D01*
X55590000Y-18060000D02*
X49590000Y-18060000D01*
X55590000Y-17940000D02*
X49590000Y-17940000D01*
X55590000Y-17820000D02*
X49590000Y-17820000D01*
X55590000Y-17700000D02*
X49590000Y-17700000D01*
X55590000Y-17580000D02*
X49590000Y-17580000D01*
X55590000Y-17460000D02*
X49590000Y-17460000D01*
X49590000Y-18160000D02*
X55590000Y-18160000D01*
X49590000Y-17400000D02*
X49590000Y-18160000D01*
X55590000Y-17400000D02*
X49590000Y-17400000D01*
X55590000Y-16450000D02*
X58250000Y-16450000D01*
X55590000Y-21650000D02*
X55590000Y-16450000D01*
X58250000Y-21650000D02*
X55590000Y-21650000D01*
X58250000Y-16450000D02*
X58250000Y-21650000D01*
%TO.C,J6*%
X71290000Y-48955000D02*
X71290000Y-43755000D01*
X71290000Y-43755000D02*
X73950000Y-43755000D01*
X73950000Y-43755000D02*
X73950000Y-48955000D01*
X73950000Y-48955000D02*
X71290000Y-48955000D01*
X73950000Y-48005000D02*
X79950000Y-48005000D01*
X79950000Y-48005000D02*
X79950000Y-47245000D01*
X79950000Y-47245000D02*
X73950000Y-47245000D01*
X73950000Y-47945000D02*
X79950000Y-47945000D01*
X73950000Y-47825000D02*
X79950000Y-47825000D01*
X73950000Y-47705000D02*
X79950000Y-47705000D01*
X73950000Y-47585000D02*
X79950000Y-47585000D01*
X73950000Y-47465000D02*
X79950000Y-47465000D01*
X73950000Y-47345000D02*
X79950000Y-47345000D01*
X70960000Y-48005000D02*
X71290000Y-48005000D01*
X70960000Y-47245000D02*
X71290000Y-47245000D01*
X71290000Y-46355000D02*
X73950000Y-46355000D01*
X73950000Y-45465000D02*
X79950000Y-45465000D01*
X79950000Y-45465000D02*
X79950000Y-44705000D01*
X79950000Y-44705000D02*
X73950000Y-44705000D01*
X70892929Y-45465000D02*
X71290000Y-45465000D01*
X70892929Y-44705000D02*
X71290000Y-44705000D01*
X68580000Y-47625000D02*
X68580000Y-48895000D01*
X68580000Y-48895000D02*
X69850000Y-48895000D01*
%TO.C,C4*%
D12*
X117641666Y-23759642D02*
X117689285Y-23807261D01*
X117832142Y-23854880D01*
X117927380Y-23854880D01*
X118070238Y-23807261D01*
X118165476Y-23712023D01*
X118213095Y-23616785D01*
X118260714Y-23426309D01*
X118260714Y-23283452D01*
X118213095Y-23092976D01*
X118165476Y-22997738D01*
X118070238Y-22902500D01*
X117927380Y-22854880D01*
X117832142Y-22854880D01*
X117689285Y-22902500D01*
X117641666Y-22950119D01*
X116784523Y-23188214D02*
X116784523Y-23854880D01*
X117022619Y-22807261D02*
X117260714Y-23521547D01*
X116641666Y-23521547D01*
%TO.C,R14*%
X116577857Y-31312380D02*
X116911190Y-30836190D01*
X117149285Y-31312380D02*
X117149285Y-30312380D01*
X116768333Y-30312380D01*
X116673095Y-30360000D01*
X116625476Y-30407619D01*
X116577857Y-30502857D01*
X116577857Y-30645714D01*
X116625476Y-30740952D01*
X116673095Y-30788571D01*
X116768333Y-30836190D01*
X117149285Y-30836190D01*
X115625476Y-31312380D02*
X116196904Y-31312380D01*
X115911190Y-31312380D02*
X115911190Y-30312380D01*
X116006428Y-30455238D01*
X116101666Y-30550476D01*
X116196904Y-30598095D01*
X114768333Y-30645714D02*
X114768333Y-31312380D01*
X115006428Y-30264761D02*
X115244523Y-30979047D01*
X114625476Y-30979047D01*
%TO.C,U5*%
X114387380Y-23685595D02*
X115196904Y-23685595D01*
X115292142Y-23733214D01*
X115339761Y-23780833D01*
X115387380Y-23876071D01*
X115387380Y-24066547D01*
X115339761Y-24161785D01*
X115292142Y-24209404D01*
X115196904Y-24257023D01*
X114387380Y-24257023D01*
X114387380Y-25209404D02*
X114387380Y-24733214D01*
X114863571Y-24685595D01*
X114815952Y-24733214D01*
X114768333Y-24828452D01*
X114768333Y-25066547D01*
X114815952Y-25161785D01*
X114863571Y-25209404D01*
X114958809Y-25257023D01*
X115196904Y-25257023D01*
X115292142Y-25209404D01*
X115339761Y-25161785D01*
X115387380Y-25066547D01*
X115387380Y-24828452D01*
X115339761Y-24733214D01*
X115292142Y-24685595D01*
%TO.C,R1*%
X87796666Y-34922380D02*
X88130000Y-34446190D01*
X88368095Y-34922380D02*
X88368095Y-33922380D01*
X87987142Y-33922380D01*
X87891904Y-33970000D01*
X87844285Y-34017619D01*
X87796666Y-34112857D01*
X87796666Y-34255714D01*
X87844285Y-34350952D01*
X87891904Y-34398571D01*
X87987142Y-34446190D01*
X88368095Y-34446190D01*
X86844285Y-34922380D02*
X87415714Y-34922380D01*
X87130000Y-34922380D02*
X87130000Y-33922380D01*
X87225238Y-34065238D01*
X87320476Y-34160476D01*
X87415714Y-34208095D01*
%TO.C,C3*%
X67156928Y-41200078D02*
X67187501Y-41260082D01*
X67308651Y-41349516D01*
X67399228Y-41378946D01*
X67549808Y-41377803D01*
X67669815Y-41316656D01*
X67744534Y-41240794D01*
X67848683Y-41074356D01*
X67892828Y-40938491D01*
X67906400Y-40742622D01*
X67890542Y-40637330D01*
X67829395Y-40517323D01*
X67708245Y-40427889D01*
X67617668Y-40398459D01*
X67467088Y-40399602D01*
X67407084Y-40430175D01*
X67119496Y-40236593D02*
X66530746Y-40045297D01*
X66730044Y-40510610D01*
X66594179Y-40466464D01*
X66488887Y-40482323D01*
X66428884Y-40512896D01*
X66354165Y-40588758D01*
X66280590Y-40815200D01*
X66296448Y-40920492D01*
X66327021Y-40980495D01*
X66402883Y-41055214D01*
X66674613Y-41143504D01*
X66779905Y-41127646D01*
X66839909Y-41097073D01*
%TO.C,C1*%
X67220428Y-28881078D02*
X67251001Y-28941082D01*
X67372151Y-29030516D01*
X67462728Y-29059946D01*
X67613308Y-29058803D01*
X67733315Y-28997656D01*
X67808034Y-28921794D01*
X67912183Y-28755356D01*
X67956328Y-28619491D01*
X67969900Y-28423622D01*
X67954042Y-28318330D01*
X67892895Y-28198323D01*
X67771745Y-28108889D01*
X67681168Y-28079459D01*
X67530588Y-28080602D01*
X67470584Y-28111175D01*
X66285229Y-28677353D02*
X66828690Y-28853934D01*
X66556960Y-28765644D02*
X66865977Y-27814587D01*
X66912408Y-27979883D01*
X66973555Y-28099890D01*
X67049417Y-28174608D01*
%TD*%
M02*
