%TF.GenerationSoftware,KiCad,Pcbnew,(5.1.8)-1*%
%TF.CreationDate,2025-01-07T13:33:42+03:00*%
%TF.ProjectId,Reg,5265672e-6b69-4636-9164-5f7063625858,rev?*%
%TF.SameCoordinates,Original*%
%TF.FileFunction,Legend,Bot*%
%TF.FilePolarity,Positive*%
%FSLAX46Y46*%
G04 Gerber Fmt 4.6, Leading zero omitted, Abs format (unit mm)*
G04 Created by KiCad (PCBNEW (5.1.8)-1) date 2025-01-07 13:33:42*
%MOMM*%
%LPD*%
G01*
G04 APERTURE LIST*
%ADD10C,0.120000*%
%ADD11C,0.150000*%
G04 APERTURE END LIST*
D10*
X113665000Y-48260000D02*
X113665000Y-47625000D01*
X116205000Y-48260000D02*
X113665000Y-48260000D01*
X116205000Y-47625000D02*
X116205000Y-48260000D01*
D11*
X118252380Y-49697142D02*
X118300000Y-49744761D01*
X118442857Y-49792380D01*
X118538095Y-49792380D01*
X118680952Y-49744761D01*
X118776190Y-49649523D01*
X118823809Y-49554285D01*
X118871428Y-49363809D01*
X118871428Y-49220952D01*
X118823809Y-49030476D01*
X118776190Y-48935238D01*
X118680952Y-48840000D01*
X118538095Y-48792380D01*
X118442857Y-48792380D01*
X118300000Y-48840000D01*
X118252380Y-48887619D01*
X117680952Y-49792380D02*
X117776190Y-49744761D01*
X117823809Y-49697142D01*
X117871428Y-49601904D01*
X117871428Y-49316190D01*
X117823809Y-49220952D01*
X117776190Y-49173333D01*
X117680952Y-49125714D01*
X117538095Y-49125714D01*
X117442857Y-49173333D01*
X117395238Y-49220952D01*
X117347619Y-49316190D01*
X117347619Y-49601904D01*
X117395238Y-49697142D01*
X117442857Y-49744761D01*
X117538095Y-49792380D01*
X117680952Y-49792380D01*
X116919047Y-49125714D02*
X116919047Y-49792380D01*
X116919047Y-49220952D02*
X116871428Y-49173333D01*
X116776190Y-49125714D01*
X116633333Y-49125714D01*
X116538095Y-49173333D01*
X116490476Y-49268571D01*
X116490476Y-49792380D01*
X116014285Y-49125714D02*
X116014285Y-49792380D01*
X116014285Y-49220952D02*
X115966666Y-49173333D01*
X115871428Y-49125714D01*
X115728571Y-49125714D01*
X115633333Y-49173333D01*
X115585714Y-49268571D01*
X115585714Y-49792380D01*
X114728571Y-49744761D02*
X114823809Y-49792380D01*
X115014285Y-49792380D01*
X115109523Y-49744761D01*
X115157142Y-49649523D01*
X115157142Y-49268571D01*
X115109523Y-49173333D01*
X115014285Y-49125714D01*
X114823809Y-49125714D01*
X114728571Y-49173333D01*
X114680952Y-49268571D01*
X114680952Y-49363809D01*
X115157142Y-49459047D01*
X113823809Y-49744761D02*
X113919047Y-49792380D01*
X114109523Y-49792380D01*
X114204761Y-49744761D01*
X114252380Y-49697142D01*
X114300000Y-49601904D01*
X114300000Y-49316190D01*
X114252380Y-49220952D01*
X114204761Y-49173333D01*
X114109523Y-49125714D01*
X113919047Y-49125714D01*
X113823809Y-49173333D01*
X113538095Y-49125714D02*
X113157142Y-49125714D01*
X113395238Y-48792380D02*
X113395238Y-49649523D01*
X113347619Y-49744761D01*
X113252380Y-49792380D01*
X113157142Y-49792380D01*
X112204761Y-49125714D02*
X111823809Y-49125714D01*
X112061904Y-48792380D02*
X112061904Y-49649523D01*
X112014285Y-49744761D01*
X111919047Y-49792380D01*
X111823809Y-49792380D01*
X111490476Y-49792380D02*
X111490476Y-48792380D01*
X111061904Y-49792380D02*
X111061904Y-49268571D01*
X111109523Y-49173333D01*
X111204761Y-49125714D01*
X111347619Y-49125714D01*
X111442857Y-49173333D01*
X111490476Y-49220952D01*
X110585714Y-49792380D02*
X110585714Y-49125714D01*
X110585714Y-48792380D02*
X110633333Y-48840000D01*
X110585714Y-48887619D01*
X110538095Y-48840000D01*
X110585714Y-48792380D01*
X110585714Y-48887619D01*
X110157142Y-49744761D02*
X110061904Y-49792380D01*
X109871428Y-49792380D01*
X109776190Y-49744761D01*
X109728571Y-49649523D01*
X109728571Y-49601904D01*
X109776190Y-49506666D01*
X109871428Y-49459047D01*
X110014285Y-49459047D01*
X110109523Y-49411428D01*
X110157142Y-49316190D01*
X110157142Y-49268571D01*
X110109523Y-49173333D01*
X110014285Y-49125714D01*
X109871428Y-49125714D01*
X109776190Y-49173333D01*
X119419047Y-50775714D02*
X119038095Y-50775714D01*
X119276190Y-50442380D02*
X119276190Y-51299523D01*
X119228571Y-51394761D01*
X119133333Y-51442380D01*
X119038095Y-51442380D01*
X118561904Y-51442380D02*
X118657142Y-51394761D01*
X118704761Y-51347142D01*
X118752380Y-51251904D01*
X118752380Y-50966190D01*
X118704761Y-50870952D01*
X118657142Y-50823333D01*
X118561904Y-50775714D01*
X118419047Y-50775714D01*
X118323809Y-50823333D01*
X118276190Y-50870952D01*
X118228571Y-50966190D01*
X118228571Y-51251904D01*
X118276190Y-51347142D01*
X118323809Y-51394761D01*
X118419047Y-51442380D01*
X118561904Y-51442380D01*
X116609523Y-50775714D02*
X116609523Y-51442380D01*
X117038095Y-50775714D02*
X117038095Y-51299523D01*
X116990476Y-51394761D01*
X116895238Y-51442380D01*
X116752380Y-51442380D01*
X116657142Y-51394761D01*
X116609523Y-51347142D01*
X116180952Y-51394761D02*
X116085714Y-51442380D01*
X115895238Y-51442380D01*
X115800000Y-51394761D01*
X115752380Y-51299523D01*
X115752380Y-51251904D01*
X115800000Y-51156666D01*
X115895238Y-51109047D01*
X116038095Y-51109047D01*
X116133333Y-51061428D01*
X116180952Y-50966190D01*
X116180952Y-50918571D01*
X116133333Y-50823333D01*
X116038095Y-50775714D01*
X115895238Y-50775714D01*
X115800000Y-50823333D01*
X114942857Y-51394761D02*
X115038095Y-51442380D01*
X115228571Y-51442380D01*
X115323809Y-51394761D01*
X115371428Y-51299523D01*
X115371428Y-50918571D01*
X115323809Y-50823333D01*
X115228571Y-50775714D01*
X115038095Y-50775714D01*
X114942857Y-50823333D01*
X114895238Y-50918571D01*
X114895238Y-51013809D01*
X115371428Y-51109047D01*
X113942857Y-50075000D02*
X112800000Y-50075000D01*
X113704761Y-51442380D02*
X113704761Y-50442380D01*
X113371428Y-51156666D01*
X113038095Y-50442380D01*
X113038095Y-51442380D01*
X112800000Y-50075000D02*
X111990476Y-50075000D01*
X112085714Y-51442380D02*
X112561904Y-51442380D01*
X112561904Y-50442380D01*
X111990476Y-50075000D02*
X110942857Y-50075000D01*
X111561904Y-50442380D02*
X111371428Y-50442380D01*
X111276190Y-50490000D01*
X111180952Y-50585238D01*
X111133333Y-50775714D01*
X111133333Y-51109047D01*
X111180952Y-51299523D01*
X111276190Y-51394761D01*
X111371428Y-51442380D01*
X111561904Y-51442380D01*
X111657142Y-51394761D01*
X111752380Y-51299523D01*
X111800000Y-51109047D01*
X111800000Y-50775714D01*
X111752380Y-50585238D01*
X111657142Y-50490000D01*
X111561904Y-50442380D01*
X110942857Y-50075000D02*
X110085714Y-50075000D01*
X110752380Y-51156666D02*
X110276190Y-51156666D01*
X110847619Y-51442380D02*
X110514285Y-50442380D01*
X110180952Y-51442380D01*
X110085714Y-50075000D02*
X109085714Y-50075000D01*
X109847619Y-51442380D02*
X109847619Y-50442380D01*
X109609523Y-50442380D01*
X109466666Y-50490000D01*
X109371428Y-50585238D01*
X109323809Y-50680476D01*
X109276190Y-50870952D01*
X109276190Y-51013809D01*
X109323809Y-51204285D01*
X109371428Y-51299523D01*
X109466666Y-51394761D01*
X109609523Y-51442380D01*
X109847619Y-51442380D01*
X107035000Y-41386428D02*
X107035000Y-42529285D01*
X108402380Y-41624523D02*
X107402380Y-41624523D01*
X108116666Y-41957857D01*
X107402380Y-42291190D01*
X108402380Y-42291190D01*
X107035000Y-42529285D02*
X107035000Y-43338809D01*
X108402380Y-43243571D02*
X108402380Y-42767380D01*
X107402380Y-42767380D01*
X107035000Y-43338809D02*
X107035000Y-44386428D01*
X107402380Y-43767380D02*
X107402380Y-43957857D01*
X107450000Y-44053095D01*
X107545238Y-44148333D01*
X107735714Y-44195952D01*
X108069047Y-44195952D01*
X108259523Y-44148333D01*
X108354761Y-44053095D01*
X108402380Y-43957857D01*
X108402380Y-43767380D01*
X108354761Y-43672142D01*
X108259523Y-43576904D01*
X108069047Y-43529285D01*
X107735714Y-43529285D01*
X107545238Y-43576904D01*
X107450000Y-43672142D01*
X107402380Y-43767380D01*
X107035000Y-44386428D02*
X107035000Y-45243571D01*
X108116666Y-44576904D02*
X108116666Y-45053095D01*
X108402380Y-44481666D02*
X107402380Y-44815000D01*
X108402380Y-45148333D01*
X107035000Y-45243571D02*
X107035000Y-46243571D01*
X108402380Y-45481666D02*
X107402380Y-45481666D01*
X107402380Y-45719761D01*
X107450000Y-45862619D01*
X107545238Y-45957857D01*
X107640476Y-46005476D01*
X107830952Y-46053095D01*
X107973809Y-46053095D01*
X108164285Y-46005476D01*
X108259523Y-45957857D01*
X108354761Y-45862619D01*
X108402380Y-45719761D01*
X108402380Y-45481666D01*
X119832380Y-41624523D02*
X118832380Y-41624523D01*
X119546666Y-41957857D01*
X118832380Y-42291190D01*
X119832380Y-42291190D01*
X119832380Y-43243571D02*
X119832380Y-42767380D01*
X118832380Y-42767380D01*
X118832380Y-43767380D02*
X118832380Y-43957857D01*
X118880000Y-44053095D01*
X118975238Y-44148333D01*
X119165714Y-44195952D01*
X119499047Y-44195952D01*
X119689523Y-44148333D01*
X119784761Y-44053095D01*
X119832380Y-43957857D01*
X119832380Y-43767380D01*
X119784761Y-43672142D01*
X119689523Y-43576904D01*
X119499047Y-43529285D01*
X119165714Y-43529285D01*
X118975238Y-43576904D01*
X118880000Y-43672142D01*
X118832380Y-43767380D01*
X119546666Y-44576904D02*
X119546666Y-45053095D01*
X119832380Y-44481666D02*
X118832380Y-44815000D01*
X119832380Y-45148333D01*
X119832380Y-45481666D02*
X118832380Y-45481666D01*
X118832380Y-45719761D01*
X118880000Y-45862619D01*
X118975238Y-45957857D01*
X119070476Y-46005476D01*
X119260952Y-46053095D01*
X119403809Y-46053095D01*
X119594285Y-46005476D01*
X119689523Y-45957857D01*
X119784761Y-45862619D01*
X119832380Y-45719761D01*
X119832380Y-45481666D01*
X68682976Y-48394880D02*
X68682976Y-47394880D01*
X68444880Y-47394880D01*
X68302023Y-47442500D01*
X68206785Y-47537738D01*
X68159166Y-47632976D01*
X68111547Y-47823452D01*
X68111547Y-47966309D01*
X68159166Y-48156785D01*
X68206785Y-48252023D01*
X68302023Y-48347261D01*
X68444880Y-48394880D01*
X68682976Y-48394880D01*
X67540119Y-48394880D02*
X67635357Y-48347261D01*
X67682976Y-48299642D01*
X67730595Y-48204404D01*
X67730595Y-47918690D01*
X67682976Y-47823452D01*
X67635357Y-47775833D01*
X67540119Y-47728214D01*
X67397261Y-47728214D01*
X67302023Y-47775833D01*
X67254404Y-47823452D01*
X67206785Y-47918690D01*
X67206785Y-48204404D01*
X67254404Y-48299642D01*
X67302023Y-48347261D01*
X67397261Y-48394880D01*
X67540119Y-48394880D01*
X66873452Y-47728214D02*
X66682976Y-48394880D01*
X66492500Y-47918690D01*
X66302023Y-48394880D01*
X66111547Y-47728214D01*
X65730595Y-47728214D02*
X65730595Y-48394880D01*
X65730595Y-47823452D02*
X65682976Y-47775833D01*
X65587738Y-47728214D01*
X65444880Y-47728214D01*
X65349642Y-47775833D01*
X65302023Y-47871071D01*
X65302023Y-48394880D01*
X68683095Y-44854880D02*
X68683095Y-45664404D01*
X68635476Y-45759642D01*
X68587857Y-45807261D01*
X68492619Y-45854880D01*
X68302142Y-45854880D01*
X68206904Y-45807261D01*
X68159285Y-45759642D01*
X68111666Y-45664404D01*
X68111666Y-44854880D01*
X67635476Y-45188214D02*
X67635476Y-46188214D01*
X67635476Y-45235833D02*
X67540238Y-45188214D01*
X67349761Y-45188214D01*
X67254523Y-45235833D01*
X67206904Y-45283452D01*
X67159285Y-45378690D01*
X67159285Y-45664404D01*
X67206904Y-45759642D01*
X67254523Y-45807261D01*
X67349761Y-45854880D01*
X67540238Y-45854880D01*
X67635476Y-45807261D01*
X61055000Y-14692380D02*
X61055000Y-15501904D01*
X61007380Y-15597142D01*
X60959761Y-15644761D01*
X60864523Y-15692380D01*
X60674047Y-15692380D01*
X60578809Y-15644761D01*
X60531190Y-15597142D01*
X60483571Y-15501904D01*
X60483571Y-14692380D01*
X60007380Y-15025714D02*
X60007380Y-16025714D01*
X60007380Y-15073333D02*
X59912142Y-15025714D01*
X59721666Y-15025714D01*
X59626428Y-15073333D01*
X59578809Y-15120952D01*
X59531190Y-15216190D01*
X59531190Y-15501904D01*
X59578809Y-15597142D01*
X59626428Y-15644761D01*
X59721666Y-15692380D01*
X59912142Y-15692380D01*
X60007380Y-15644761D01*
X58912142Y-14692380D02*
X58721666Y-14692380D01*
X58626428Y-14740000D01*
X58531190Y-14835238D01*
X58483571Y-15025714D01*
X58483571Y-15359047D01*
X58531190Y-15549523D01*
X58626428Y-15644761D01*
X58721666Y-15692380D01*
X58912142Y-15692380D01*
X59007380Y-15644761D01*
X59102619Y-15549523D01*
X59150238Y-15359047D01*
X59150238Y-15025714D01*
X59102619Y-14835238D01*
X59007380Y-14740000D01*
X58912142Y-14692380D01*
X57626428Y-15025714D02*
X57626428Y-15692380D01*
X58055000Y-15025714D02*
X58055000Y-15549523D01*
X58007380Y-15644761D01*
X57912142Y-15692380D01*
X57769285Y-15692380D01*
X57674047Y-15644761D01*
X57626428Y-15597142D01*
X57293095Y-15025714D02*
X56912142Y-15025714D01*
X57150238Y-14692380D02*
X57150238Y-15549523D01*
X57102619Y-15644761D01*
X57007380Y-15692380D01*
X56912142Y-15692380D01*
X61372380Y-23312380D02*
X61372380Y-22312380D01*
X61134285Y-22312380D01*
X60991428Y-22360000D01*
X60896190Y-22455238D01*
X60848571Y-22550476D01*
X60800952Y-22740952D01*
X60800952Y-22883809D01*
X60848571Y-23074285D01*
X60896190Y-23169523D01*
X60991428Y-23264761D01*
X61134285Y-23312380D01*
X61372380Y-23312380D01*
X60229523Y-23312380D02*
X60324761Y-23264761D01*
X60372380Y-23217142D01*
X60420000Y-23121904D01*
X60420000Y-22836190D01*
X60372380Y-22740952D01*
X60324761Y-22693333D01*
X60229523Y-22645714D01*
X60086666Y-22645714D01*
X59991428Y-22693333D01*
X59943809Y-22740952D01*
X59896190Y-22836190D01*
X59896190Y-23121904D01*
X59943809Y-23217142D01*
X59991428Y-23264761D01*
X60086666Y-23312380D01*
X60229523Y-23312380D01*
X59562857Y-22645714D02*
X59372380Y-23312380D01*
X59181904Y-22836190D01*
X58991428Y-23312380D01*
X58800952Y-22645714D01*
X58420000Y-22645714D02*
X58420000Y-23312380D01*
X58420000Y-22740952D02*
X58372380Y-22693333D01*
X58277142Y-22645714D01*
X58134285Y-22645714D01*
X58039047Y-22693333D01*
X57991428Y-22788571D01*
X57991428Y-23312380D01*
X57324761Y-22312380D02*
X57134285Y-22312380D01*
X57039047Y-22360000D01*
X56943809Y-22455238D01*
X56896190Y-22645714D01*
X56896190Y-22979047D01*
X56943809Y-23169523D01*
X57039047Y-23264761D01*
X57134285Y-23312380D01*
X57324761Y-23312380D01*
X57420000Y-23264761D01*
X57515238Y-23169523D01*
X57562857Y-22979047D01*
X57562857Y-22645714D01*
X57515238Y-22455238D01*
X57420000Y-22360000D01*
X57324761Y-22312380D01*
X56039047Y-22645714D02*
X56039047Y-23312380D01*
X56467619Y-22645714D02*
X56467619Y-23169523D01*
X56420000Y-23264761D01*
X56324761Y-23312380D01*
X56181904Y-23312380D01*
X56086666Y-23264761D01*
X56039047Y-23217142D01*
X55705714Y-22645714D02*
X55324761Y-22645714D01*
X55562857Y-22312380D02*
X55562857Y-23169523D01*
X55515238Y-23264761D01*
X55420000Y-23312380D01*
X55324761Y-23312380D01*
D10*
%TO.C,J10*%
X112395000Y-35560000D02*
X112395000Y-36830000D01*
X113665000Y-35560000D02*
X112395000Y-35560000D01*
X114045000Y-37940000D02*
X114045000Y-38270000D01*
X113285000Y-37940000D02*
X113285000Y-38270000D01*
X113945000Y-40930000D02*
X113945000Y-46930000D01*
X113825000Y-40930000D02*
X113825000Y-46930000D01*
X113705000Y-40930000D02*
X113705000Y-46930000D01*
X113585000Y-40930000D02*
X113585000Y-46930000D01*
X113465000Y-40930000D02*
X113465000Y-46930000D01*
X113345000Y-40930000D02*
X113345000Y-46930000D01*
X114045000Y-46930000D02*
X114045000Y-40930000D01*
X113285000Y-46930000D02*
X114045000Y-46930000D01*
X113285000Y-40930000D02*
X113285000Y-46930000D01*
X112335000Y-40930000D02*
X112335000Y-38270000D01*
X114995000Y-40930000D02*
X112335000Y-40930000D01*
X114995000Y-38270000D02*
X114995000Y-40930000D01*
X112335000Y-38270000D02*
X114995000Y-38270000D01*
%TO.C,J9*%
X108585000Y-35560000D02*
X108585000Y-36830000D01*
X109855000Y-35560000D02*
X108585000Y-35560000D01*
X110235000Y-37940000D02*
X110235000Y-38270000D01*
X109475000Y-37940000D02*
X109475000Y-38270000D01*
X110135000Y-40930000D02*
X110135000Y-46930000D01*
X110015000Y-40930000D02*
X110015000Y-46930000D01*
X109895000Y-40930000D02*
X109895000Y-46930000D01*
X109775000Y-40930000D02*
X109775000Y-46930000D01*
X109655000Y-40930000D02*
X109655000Y-46930000D01*
X109535000Y-40930000D02*
X109535000Y-46930000D01*
X110235000Y-46930000D02*
X110235000Y-40930000D01*
X109475000Y-46930000D02*
X110235000Y-46930000D01*
X109475000Y-40930000D02*
X109475000Y-46930000D01*
X108525000Y-40930000D02*
X108525000Y-38270000D01*
X111185000Y-40930000D02*
X108525000Y-40930000D01*
X111185000Y-38270000D02*
X111185000Y-40930000D01*
X108525000Y-38270000D02*
X111185000Y-38270000D01*
%TO.C,J8*%
X114875000Y-38270000D02*
X117535000Y-38270000D01*
X117535000Y-38270000D02*
X117535000Y-40930000D01*
X117535000Y-40930000D02*
X114875000Y-40930000D01*
X114875000Y-40930000D02*
X114875000Y-38270000D01*
X115825000Y-40930000D02*
X115825000Y-46930000D01*
X115825000Y-46930000D02*
X116585000Y-46930000D01*
X116585000Y-46930000D02*
X116585000Y-40930000D01*
X115885000Y-40930000D02*
X115885000Y-46930000D01*
X116005000Y-40930000D02*
X116005000Y-46930000D01*
X116125000Y-40930000D02*
X116125000Y-46930000D01*
X116245000Y-40930000D02*
X116245000Y-46930000D01*
X116365000Y-40930000D02*
X116365000Y-46930000D01*
X116485000Y-40930000D02*
X116485000Y-46930000D01*
X115825000Y-37940000D02*
X115825000Y-38270000D01*
X116585000Y-37940000D02*
X116585000Y-38270000D01*
X116205000Y-35560000D02*
X114935000Y-35560000D01*
X114935000Y-35560000D02*
X114935000Y-36830000D01*
%TO.C,C3*%
X72811608Y-39736335D02*
X69777737Y-38750571D01*
X62901599Y-36516378D02*
X65935469Y-37502142D01*
X69338933Y-40101071D02*
X65496665Y-38852642D01*
X70216542Y-37400070D02*
X69338933Y-40101071D01*
X66374273Y-36151642D02*
X70216542Y-37400070D01*
X65496665Y-38852642D02*
X66374273Y-36151642D01*
%TO.C,C1*%
X65560165Y-26914642D02*
X66437773Y-24213642D01*
X66437773Y-24213642D02*
X70280042Y-25462070D01*
X70280042Y-25462070D02*
X69402433Y-28163071D01*
X69402433Y-28163071D02*
X65560165Y-26914642D01*
X62965099Y-24578378D02*
X65998969Y-25564142D01*
X72875108Y-27798335D02*
X69841237Y-26812571D01*
%TO.C,J5*%
X60960000Y-16510000D02*
X59690000Y-16510000D01*
X60960000Y-17780000D02*
X60960000Y-16510000D01*
X58647071Y-20700000D02*
X58250000Y-20700000D01*
X58647071Y-19940000D02*
X58250000Y-19940000D01*
X49590000Y-20700000D02*
X55590000Y-20700000D01*
X49590000Y-19940000D02*
X49590000Y-20700000D01*
X55590000Y-19940000D02*
X49590000Y-19940000D01*
X58250000Y-19050000D02*
X55590000Y-19050000D01*
X58580000Y-18160000D02*
X58250000Y-18160000D01*
X58580000Y-17400000D02*
X58250000Y-17400000D01*
X55590000Y-18060000D02*
X49590000Y-18060000D01*
X55590000Y-17940000D02*
X49590000Y-17940000D01*
X55590000Y-17820000D02*
X49590000Y-17820000D01*
X55590000Y-17700000D02*
X49590000Y-17700000D01*
X55590000Y-17580000D02*
X49590000Y-17580000D01*
X55590000Y-17460000D02*
X49590000Y-17460000D01*
X49590000Y-18160000D02*
X55590000Y-18160000D01*
X49590000Y-17400000D02*
X49590000Y-18160000D01*
X55590000Y-17400000D02*
X49590000Y-17400000D01*
X55590000Y-16450000D02*
X58250000Y-16450000D01*
X55590000Y-21650000D02*
X55590000Y-16450000D01*
X58250000Y-21650000D02*
X55590000Y-21650000D01*
X58250000Y-16450000D02*
X58250000Y-21650000D01*
%TO.C,J6*%
X72560000Y-49272500D02*
X72560000Y-44072500D01*
X72560000Y-44072500D02*
X75220000Y-44072500D01*
X75220000Y-44072500D02*
X75220000Y-49272500D01*
X75220000Y-49272500D02*
X72560000Y-49272500D01*
X75220000Y-48322500D02*
X81220000Y-48322500D01*
X81220000Y-48322500D02*
X81220000Y-47562500D01*
X81220000Y-47562500D02*
X75220000Y-47562500D01*
X75220000Y-48262500D02*
X81220000Y-48262500D01*
X75220000Y-48142500D02*
X81220000Y-48142500D01*
X75220000Y-48022500D02*
X81220000Y-48022500D01*
X75220000Y-47902500D02*
X81220000Y-47902500D01*
X75220000Y-47782500D02*
X81220000Y-47782500D01*
X75220000Y-47662500D02*
X81220000Y-47662500D01*
X72230000Y-48322500D02*
X72560000Y-48322500D01*
X72230000Y-47562500D02*
X72560000Y-47562500D01*
X72560000Y-46672500D02*
X75220000Y-46672500D01*
X75220000Y-45782500D02*
X81220000Y-45782500D01*
X81220000Y-45782500D02*
X81220000Y-45022500D01*
X81220000Y-45022500D02*
X75220000Y-45022500D01*
X72162929Y-45782500D02*
X72560000Y-45782500D01*
X72162929Y-45022500D02*
X72560000Y-45022500D01*
X69850000Y-47942500D02*
X69850000Y-49212500D01*
X69850000Y-49212500D02*
X71120000Y-49212500D01*
%TO.C,C3*%
D11*
X67156928Y-40819078D02*
X67187501Y-40879082D01*
X67308651Y-40968516D01*
X67399228Y-40997946D01*
X67549808Y-40996803D01*
X67669815Y-40935656D01*
X67744534Y-40859794D01*
X67848683Y-40693356D01*
X67892828Y-40557491D01*
X67906400Y-40361622D01*
X67890542Y-40256330D01*
X67829395Y-40136323D01*
X67708245Y-40046889D01*
X67617668Y-40017459D01*
X67467088Y-40018602D01*
X67407084Y-40049175D01*
X67119496Y-39855593D02*
X66530746Y-39664297D01*
X66730044Y-40129610D01*
X66594179Y-40085464D01*
X66488887Y-40101323D01*
X66428884Y-40131896D01*
X66354165Y-40207758D01*
X66280590Y-40434200D01*
X66296448Y-40539492D01*
X66327021Y-40599495D01*
X66402883Y-40674214D01*
X66674613Y-40762504D01*
X66779905Y-40746646D01*
X66839909Y-40716073D01*
%TO.C,C1*%
X67220428Y-28881078D02*
X67251001Y-28941082D01*
X67372151Y-29030516D01*
X67462728Y-29059946D01*
X67613308Y-29058803D01*
X67733315Y-28997656D01*
X67808034Y-28921794D01*
X67912183Y-28755356D01*
X67956328Y-28619491D01*
X67969900Y-28423622D01*
X67954042Y-28318330D01*
X67892895Y-28198323D01*
X67771745Y-28108889D01*
X67681168Y-28079459D01*
X67530588Y-28080602D01*
X67470584Y-28111175D01*
X66285229Y-28677353D02*
X66828690Y-28853934D01*
X66556960Y-28765644D02*
X66865977Y-27814587D01*
X66912408Y-27979883D01*
X66973555Y-28099890D01*
X67049417Y-28174608D01*
%TD*%
M02*
