%TF.GenerationSoftware,KiCad,Pcbnew,(5.1.8)-1*%
%TF.CreationDate,2024-07-21T13:54:42+03:00*%
%TF.ProjectId,MUX8x1-v5,4d555838-7831-42d7-9635-2e6b69636164,rev?*%
%TF.SameCoordinates,Original*%
%TF.FileFunction,Legend,Top*%
%TF.FilePolarity,Positive*%
%FSLAX46Y46*%
G04 Gerber Fmt 4.6, Leading zero omitted, Abs format (unit mm)*
G04 Created by KiCad (PCBNEW (5.1.8)-1) date 2024-07-21 13:54:42*
%MOMM*%
%LPD*%
G01*
G04 APERTURE LIST*
%ADD10C,0.300000*%
%ADD11C,0.500000*%
%ADD12C,0.150000*%
%ADD13C,0.250000*%
%ADD14C,0.120000*%
G04 APERTURE END LIST*
D10*
X33227142Y-67901428D02*
X33298571Y-67830000D01*
X33441428Y-67758571D01*
X33798571Y-67758571D01*
X33941428Y-67830000D01*
X34012857Y-67901428D01*
X34084285Y-68044285D01*
X34084285Y-68187142D01*
X34012857Y-68401428D01*
X33155714Y-69258571D01*
X34084285Y-69258571D01*
X35512857Y-69258571D02*
X34655714Y-69258571D01*
X35084285Y-69258571D02*
X35084285Y-67758571D01*
X34941428Y-67972857D01*
X34798571Y-68115714D01*
X34655714Y-68187142D01*
X36155714Y-69115714D02*
X36227142Y-69187142D01*
X36155714Y-69258571D01*
X36084285Y-69187142D01*
X36155714Y-69115714D01*
X36155714Y-69258571D01*
X37155714Y-67758571D02*
X37298571Y-67758571D01*
X37441428Y-67830000D01*
X37512857Y-67901428D01*
X37584285Y-68044285D01*
X37655714Y-68330000D01*
X37655714Y-68687142D01*
X37584285Y-68972857D01*
X37512857Y-69115714D01*
X37441428Y-69187142D01*
X37298571Y-69258571D01*
X37155714Y-69258571D01*
X37012857Y-69187142D01*
X36941428Y-69115714D01*
X36870000Y-68972857D01*
X36798571Y-68687142D01*
X36798571Y-68330000D01*
X36870000Y-68044285D01*
X36941428Y-67901428D01*
X37012857Y-67830000D01*
X37155714Y-67758571D01*
X38155714Y-67758571D02*
X39155714Y-67758571D01*
X38512857Y-69258571D01*
X39727142Y-69115714D02*
X39798571Y-69187142D01*
X39727142Y-69258571D01*
X39655714Y-69187142D01*
X39727142Y-69115714D01*
X39727142Y-69258571D01*
X40370000Y-67901428D02*
X40441428Y-67830000D01*
X40584285Y-67758571D01*
X40941428Y-67758571D01*
X41084285Y-67830000D01*
X41155714Y-67901428D01*
X41227142Y-68044285D01*
X41227142Y-68187142D01*
X41155714Y-68401428D01*
X40298571Y-69258571D01*
X41227142Y-69258571D01*
X42155714Y-67758571D02*
X42298571Y-67758571D01*
X42441428Y-67830000D01*
X42512857Y-67901428D01*
X42584285Y-68044285D01*
X42655714Y-68330000D01*
X42655714Y-68687142D01*
X42584285Y-68972857D01*
X42512857Y-69115714D01*
X42441428Y-69187142D01*
X42298571Y-69258571D01*
X42155714Y-69258571D01*
X42012857Y-69187142D01*
X41941428Y-69115714D01*
X41870000Y-68972857D01*
X41798571Y-68687142D01*
X41798571Y-68330000D01*
X41870000Y-68044285D01*
X41941428Y-67901428D01*
X42012857Y-67830000D01*
X42155714Y-67758571D01*
X43227142Y-67901428D02*
X43298571Y-67830000D01*
X43441428Y-67758571D01*
X43798571Y-67758571D01*
X43941428Y-67830000D01*
X44012857Y-67901428D01*
X44084285Y-68044285D01*
X44084285Y-68187142D01*
X44012857Y-68401428D01*
X43155714Y-69258571D01*
X44084285Y-69258571D01*
X45370000Y-68258571D02*
X45370000Y-69258571D01*
X45012857Y-67687142D02*
X44655714Y-68758571D01*
X45584285Y-68758571D01*
D11*
X31798571Y-64857142D02*
X31798571Y-61857142D01*
X32798571Y-64000000D01*
X33798571Y-61857142D01*
X33798571Y-64857142D01*
X35227142Y-61857142D02*
X35227142Y-64285714D01*
X35370000Y-64571428D01*
X35512857Y-64714285D01*
X35798571Y-64857142D01*
X36370000Y-64857142D01*
X36655714Y-64714285D01*
X36798571Y-64571428D01*
X36941428Y-64285714D01*
X36941428Y-61857142D01*
X38084285Y-61857142D02*
X40084285Y-64857142D01*
X40084285Y-61857142D02*
X38084285Y-64857142D01*
X41655714Y-63142857D02*
X41370000Y-63000000D01*
X41227142Y-62857142D01*
X41084285Y-62571428D01*
X41084285Y-62428571D01*
X41227142Y-62142857D01*
X41370000Y-62000000D01*
X41655714Y-61857142D01*
X42227142Y-61857142D01*
X42512857Y-62000000D01*
X42655714Y-62142857D01*
X42798571Y-62428571D01*
X42798571Y-62571428D01*
X42655714Y-62857142D01*
X42512857Y-63000000D01*
X42227142Y-63142857D01*
X41655714Y-63142857D01*
X41370000Y-63285714D01*
X41227142Y-63428571D01*
X41084285Y-63714285D01*
X41084285Y-64285714D01*
X41227142Y-64571428D01*
X41370000Y-64714285D01*
X41655714Y-64857142D01*
X42227142Y-64857142D01*
X42512857Y-64714285D01*
X42655714Y-64571428D01*
X42798571Y-64285714D01*
X42798571Y-63714285D01*
X42655714Y-63428571D01*
X42512857Y-63285714D01*
X42227142Y-63142857D01*
X44084285Y-64571428D02*
X44227142Y-64714285D01*
X44084285Y-64857142D01*
X43941428Y-64714285D01*
X44084285Y-64571428D01*
X44084285Y-64857142D01*
X44084285Y-63000000D02*
X44227142Y-63142857D01*
X44084285Y-63285714D01*
X43941428Y-63142857D01*
X44084285Y-63000000D01*
X44084285Y-63285714D01*
X47084285Y-64857142D02*
X45370000Y-64857142D01*
X46227142Y-64857142D02*
X46227142Y-61857142D01*
X45941428Y-62285714D01*
X45655714Y-62571428D01*
X45370000Y-62714285D01*
D12*
X162552142Y-123960000D02*
X162456904Y-123912380D01*
X162314047Y-123912380D01*
X162171190Y-123960000D01*
X162075952Y-124055238D01*
X162028333Y-124150476D01*
X161980714Y-124340952D01*
X161980714Y-124483809D01*
X162028333Y-124674285D01*
X162075952Y-124769523D01*
X162171190Y-124864761D01*
X162314047Y-124912380D01*
X162409285Y-124912380D01*
X162552142Y-124864761D01*
X162599761Y-124817142D01*
X162599761Y-124483809D01*
X162409285Y-124483809D01*
X163028333Y-124245714D02*
X163028333Y-124912380D01*
X163028333Y-124340952D02*
X163075952Y-124293333D01*
X163171190Y-124245714D01*
X163314047Y-124245714D01*
X163409285Y-124293333D01*
X163456904Y-124388571D01*
X163456904Y-124912380D01*
X164361666Y-124912380D02*
X164361666Y-123912380D01*
X164361666Y-124864761D02*
X164266428Y-124912380D01*
X164075952Y-124912380D01*
X163980714Y-124864761D01*
X163933095Y-124817142D01*
X163885476Y-124721904D01*
X163885476Y-124436190D01*
X163933095Y-124340952D01*
X163980714Y-124293333D01*
X164075952Y-124245714D01*
X164266428Y-124245714D01*
X164361666Y-124293333D01*
X134612142Y-123960000D02*
X134516904Y-123912380D01*
X134374047Y-123912380D01*
X134231190Y-123960000D01*
X134135952Y-124055238D01*
X134088333Y-124150476D01*
X134040714Y-124340952D01*
X134040714Y-124483809D01*
X134088333Y-124674285D01*
X134135952Y-124769523D01*
X134231190Y-124864761D01*
X134374047Y-124912380D01*
X134469285Y-124912380D01*
X134612142Y-124864761D01*
X134659761Y-124817142D01*
X134659761Y-124483809D01*
X134469285Y-124483809D01*
X135088333Y-124245714D02*
X135088333Y-124912380D01*
X135088333Y-124340952D02*
X135135952Y-124293333D01*
X135231190Y-124245714D01*
X135374047Y-124245714D01*
X135469285Y-124293333D01*
X135516904Y-124388571D01*
X135516904Y-124912380D01*
X136421666Y-124912380D02*
X136421666Y-123912380D01*
X136421666Y-124864761D02*
X136326428Y-124912380D01*
X136135952Y-124912380D01*
X136040714Y-124864761D01*
X135993095Y-124817142D01*
X135945476Y-124721904D01*
X135945476Y-124436190D01*
X135993095Y-124340952D01*
X136040714Y-124293333D01*
X136135952Y-124245714D01*
X136326428Y-124245714D01*
X136421666Y-124293333D01*
X91432142Y-123960000D02*
X91336904Y-123912380D01*
X91194047Y-123912380D01*
X91051190Y-123960000D01*
X90955952Y-124055238D01*
X90908333Y-124150476D01*
X90860714Y-124340952D01*
X90860714Y-124483809D01*
X90908333Y-124674285D01*
X90955952Y-124769523D01*
X91051190Y-124864761D01*
X91194047Y-124912380D01*
X91289285Y-124912380D01*
X91432142Y-124864761D01*
X91479761Y-124817142D01*
X91479761Y-124483809D01*
X91289285Y-124483809D01*
X91908333Y-124245714D02*
X91908333Y-124912380D01*
X91908333Y-124340952D02*
X91955952Y-124293333D01*
X92051190Y-124245714D01*
X92194047Y-124245714D01*
X92289285Y-124293333D01*
X92336904Y-124388571D01*
X92336904Y-124912380D01*
X93241666Y-124912380D02*
X93241666Y-123912380D01*
X93241666Y-124864761D02*
X93146428Y-124912380D01*
X92955952Y-124912380D01*
X92860714Y-124864761D01*
X92813095Y-124817142D01*
X92765476Y-124721904D01*
X92765476Y-124436190D01*
X92813095Y-124340952D01*
X92860714Y-124293333D01*
X92955952Y-124245714D01*
X93146428Y-124245714D01*
X93241666Y-124293333D01*
X63492142Y-123960000D02*
X63396904Y-123912380D01*
X63254047Y-123912380D01*
X63111190Y-123960000D01*
X63015952Y-124055238D01*
X62968333Y-124150476D01*
X62920714Y-124340952D01*
X62920714Y-124483809D01*
X62968333Y-124674285D01*
X63015952Y-124769523D01*
X63111190Y-124864761D01*
X63254047Y-124912380D01*
X63349285Y-124912380D01*
X63492142Y-124864761D01*
X63539761Y-124817142D01*
X63539761Y-124483809D01*
X63349285Y-124483809D01*
X63968333Y-124245714D02*
X63968333Y-124912380D01*
X63968333Y-124340952D02*
X64015952Y-124293333D01*
X64111190Y-124245714D01*
X64254047Y-124245714D01*
X64349285Y-124293333D01*
X64396904Y-124388571D01*
X64396904Y-124912380D01*
X65301666Y-124912380D02*
X65301666Y-123912380D01*
X65301666Y-124864761D02*
X65206428Y-124912380D01*
X65015952Y-124912380D01*
X64920714Y-124864761D01*
X64873095Y-124817142D01*
X64825476Y-124721904D01*
X64825476Y-124436190D01*
X64873095Y-124340952D01*
X64920714Y-124293333D01*
X65015952Y-124245714D01*
X65206428Y-124245714D01*
X65301666Y-124293333D01*
X63492142Y-35060000D02*
X63396904Y-35012380D01*
X63254047Y-35012380D01*
X63111190Y-35060000D01*
X63015952Y-35155238D01*
X62968333Y-35250476D01*
X62920714Y-35440952D01*
X62920714Y-35583809D01*
X62968333Y-35774285D01*
X63015952Y-35869523D01*
X63111190Y-35964761D01*
X63254047Y-36012380D01*
X63349285Y-36012380D01*
X63492142Y-35964761D01*
X63539761Y-35917142D01*
X63539761Y-35583809D01*
X63349285Y-35583809D01*
X63968333Y-35345714D02*
X63968333Y-36012380D01*
X63968333Y-35440952D02*
X64015952Y-35393333D01*
X64111190Y-35345714D01*
X64254047Y-35345714D01*
X64349285Y-35393333D01*
X64396904Y-35488571D01*
X64396904Y-36012380D01*
X65301666Y-36012380D02*
X65301666Y-35012380D01*
X65301666Y-35964761D02*
X65206428Y-36012380D01*
X65015952Y-36012380D01*
X64920714Y-35964761D01*
X64873095Y-35917142D01*
X64825476Y-35821904D01*
X64825476Y-35536190D01*
X64873095Y-35440952D01*
X64920714Y-35393333D01*
X65015952Y-35345714D01*
X65206428Y-35345714D01*
X65301666Y-35393333D01*
X91432142Y-35060000D02*
X91336904Y-35012380D01*
X91194047Y-35012380D01*
X91051190Y-35060000D01*
X90955952Y-35155238D01*
X90908333Y-35250476D01*
X90860714Y-35440952D01*
X90860714Y-35583809D01*
X90908333Y-35774285D01*
X90955952Y-35869523D01*
X91051190Y-35964761D01*
X91194047Y-36012380D01*
X91289285Y-36012380D01*
X91432142Y-35964761D01*
X91479761Y-35917142D01*
X91479761Y-35583809D01*
X91289285Y-35583809D01*
X91908333Y-35345714D02*
X91908333Y-36012380D01*
X91908333Y-35440952D02*
X91955952Y-35393333D01*
X92051190Y-35345714D01*
X92194047Y-35345714D01*
X92289285Y-35393333D01*
X92336904Y-35488571D01*
X92336904Y-36012380D01*
X93241666Y-36012380D02*
X93241666Y-35012380D01*
X93241666Y-35964761D02*
X93146428Y-36012380D01*
X92955952Y-36012380D01*
X92860714Y-35964761D01*
X92813095Y-35917142D01*
X92765476Y-35821904D01*
X92765476Y-35536190D01*
X92813095Y-35440952D01*
X92860714Y-35393333D01*
X92955952Y-35345714D01*
X93146428Y-35345714D01*
X93241666Y-35393333D01*
X134612142Y-35060000D02*
X134516904Y-35012380D01*
X134374047Y-35012380D01*
X134231190Y-35060000D01*
X134135952Y-35155238D01*
X134088333Y-35250476D01*
X134040714Y-35440952D01*
X134040714Y-35583809D01*
X134088333Y-35774285D01*
X134135952Y-35869523D01*
X134231190Y-35964761D01*
X134374047Y-36012380D01*
X134469285Y-36012380D01*
X134612142Y-35964761D01*
X134659761Y-35917142D01*
X134659761Y-35583809D01*
X134469285Y-35583809D01*
X135088333Y-35345714D02*
X135088333Y-36012380D01*
X135088333Y-35440952D02*
X135135952Y-35393333D01*
X135231190Y-35345714D01*
X135374047Y-35345714D01*
X135469285Y-35393333D01*
X135516904Y-35488571D01*
X135516904Y-36012380D01*
X136421666Y-36012380D02*
X136421666Y-35012380D01*
X136421666Y-35964761D02*
X136326428Y-36012380D01*
X136135952Y-36012380D01*
X136040714Y-35964761D01*
X135993095Y-35917142D01*
X135945476Y-35821904D01*
X135945476Y-35536190D01*
X135993095Y-35440952D01*
X136040714Y-35393333D01*
X136135952Y-35345714D01*
X136326428Y-35345714D01*
X136421666Y-35393333D01*
X162552142Y-35060000D02*
X162456904Y-35012380D01*
X162314047Y-35012380D01*
X162171190Y-35060000D01*
X162075952Y-35155238D01*
X162028333Y-35250476D01*
X161980714Y-35440952D01*
X161980714Y-35583809D01*
X162028333Y-35774285D01*
X162075952Y-35869523D01*
X162171190Y-35964761D01*
X162314047Y-36012380D01*
X162409285Y-36012380D01*
X162552142Y-35964761D01*
X162599761Y-35917142D01*
X162599761Y-35583809D01*
X162409285Y-35583809D01*
X163028333Y-35345714D02*
X163028333Y-36012380D01*
X163028333Y-35440952D02*
X163075952Y-35393333D01*
X163171190Y-35345714D01*
X163314047Y-35345714D01*
X163409285Y-35393333D01*
X163456904Y-35488571D01*
X163456904Y-36012380D01*
X164361666Y-36012380D02*
X164361666Y-35012380D01*
X164361666Y-35964761D02*
X164266428Y-36012380D01*
X164075952Y-36012380D01*
X163980714Y-35964761D01*
X163933095Y-35917142D01*
X163885476Y-35821904D01*
X163885476Y-35536190D01*
X163933095Y-35440952D01*
X163980714Y-35393333D01*
X164075952Y-35345714D01*
X164266428Y-35345714D01*
X164361666Y-35393333D01*
X168410000Y-97162857D02*
X168362380Y-97258095D01*
X168362380Y-97400952D01*
X168410000Y-97543809D01*
X168505238Y-97639047D01*
X168600476Y-97686666D01*
X168790952Y-97734285D01*
X168933809Y-97734285D01*
X169124285Y-97686666D01*
X169219523Y-97639047D01*
X169314761Y-97543809D01*
X169362380Y-97400952D01*
X169362380Y-97305714D01*
X169314761Y-97162857D01*
X169267142Y-97115238D01*
X168933809Y-97115238D01*
X168933809Y-97305714D01*
X168695714Y-96686666D02*
X169362380Y-96686666D01*
X168790952Y-96686666D02*
X168743333Y-96639047D01*
X168695714Y-96543809D01*
X168695714Y-96400952D01*
X168743333Y-96305714D01*
X168838571Y-96258095D01*
X169362380Y-96258095D01*
X169362380Y-95353333D02*
X168362380Y-95353333D01*
X169314761Y-95353333D02*
X169362380Y-95448571D01*
X169362380Y-95639047D01*
X169314761Y-95734285D01*
X169267142Y-95781904D01*
X169171904Y-95829523D01*
X168886190Y-95829523D01*
X168790952Y-95781904D01*
X168743333Y-95734285D01*
X168695714Y-95639047D01*
X168695714Y-95448571D01*
X168743333Y-95353333D01*
X168862380Y-98512380D02*
X168957619Y-98512380D01*
X169052857Y-98560000D01*
X169100476Y-98607619D01*
X169148095Y-98702857D01*
X169195714Y-98893333D01*
X169195714Y-99131428D01*
X169148095Y-99321904D01*
X169100476Y-99417142D01*
X169052857Y-99464761D01*
X168957619Y-99512380D01*
X168862380Y-99512380D01*
X168767142Y-99464761D01*
X168719523Y-99417142D01*
X168671904Y-99321904D01*
X168624285Y-99131428D01*
X168624285Y-98893333D01*
X168671904Y-98702857D01*
X168719523Y-98607619D01*
X168767142Y-98560000D01*
X168862380Y-98512380D01*
X168576666Y-116292380D02*
X169243333Y-116292380D01*
X168814761Y-117292380D01*
X168362380Y-107680000D02*
X168362380Y-107489523D01*
X168410000Y-107394285D01*
X168505238Y-107299047D01*
X168695714Y-107251428D01*
X169029047Y-107251428D01*
X169219523Y-107299047D01*
X169314761Y-107394285D01*
X169362380Y-107489523D01*
X169362380Y-107680000D01*
X169314761Y-107775238D01*
X169219523Y-107870476D01*
X169029047Y-107918095D01*
X168695714Y-107918095D01*
X168505238Y-107870476D01*
X168410000Y-107775238D01*
X168362380Y-107680000D01*
X168362380Y-106822857D02*
X169171904Y-106822857D01*
X169267142Y-106775238D01*
X169314761Y-106727619D01*
X169362380Y-106632380D01*
X169362380Y-106441904D01*
X169314761Y-106346666D01*
X169267142Y-106299047D01*
X169171904Y-106251428D01*
X168362380Y-106251428D01*
X168362380Y-105918095D02*
X168362380Y-105346666D01*
X169362380Y-105632380D02*
X168362380Y-105632380D01*
X60912380Y-35012380D02*
X61007619Y-35012380D01*
X61102857Y-35060000D01*
X61150476Y-35107619D01*
X61198095Y-35202857D01*
X61245714Y-35393333D01*
X61245714Y-35631428D01*
X61198095Y-35821904D01*
X61150476Y-35917142D01*
X61102857Y-35964761D01*
X61007619Y-36012380D01*
X60912380Y-36012380D01*
X60817142Y-35964761D01*
X60769523Y-35917142D01*
X60721904Y-35821904D01*
X60674285Y-35631428D01*
X60674285Y-35393333D01*
X60721904Y-35202857D01*
X60769523Y-35107619D01*
X60817142Y-35060000D01*
X60912380Y-35012380D01*
X42846666Y-35012380D02*
X43513333Y-35012380D01*
X43084761Y-36012380D01*
X88852380Y-35012380D02*
X88947619Y-35012380D01*
X89042857Y-35060000D01*
X89090476Y-35107619D01*
X89138095Y-35202857D01*
X89185714Y-35393333D01*
X89185714Y-35631428D01*
X89138095Y-35821904D01*
X89090476Y-35917142D01*
X89042857Y-35964761D01*
X88947619Y-36012380D01*
X88852380Y-36012380D01*
X88757142Y-35964761D01*
X88709523Y-35917142D01*
X88661904Y-35821904D01*
X88614285Y-35631428D01*
X88614285Y-35393333D01*
X88661904Y-35202857D01*
X88709523Y-35107619D01*
X88757142Y-35060000D01*
X88852380Y-35012380D01*
X70786666Y-35012380D02*
X71453333Y-35012380D01*
X71024761Y-36012380D01*
X132032380Y-35012380D02*
X132127619Y-35012380D01*
X132222857Y-35060000D01*
X132270476Y-35107619D01*
X132318095Y-35202857D01*
X132365714Y-35393333D01*
X132365714Y-35631428D01*
X132318095Y-35821904D01*
X132270476Y-35917142D01*
X132222857Y-35964761D01*
X132127619Y-36012380D01*
X132032380Y-36012380D01*
X131937142Y-35964761D01*
X131889523Y-35917142D01*
X131841904Y-35821904D01*
X131794285Y-35631428D01*
X131794285Y-35393333D01*
X131841904Y-35202857D01*
X131889523Y-35107619D01*
X131937142Y-35060000D01*
X132032380Y-35012380D01*
X113966666Y-35012380D02*
X114633333Y-35012380D01*
X114204761Y-36012380D01*
X159972380Y-35012380D02*
X160067619Y-35012380D01*
X160162857Y-35060000D01*
X160210476Y-35107619D01*
X160258095Y-35202857D01*
X160305714Y-35393333D01*
X160305714Y-35631428D01*
X160258095Y-35821904D01*
X160210476Y-35917142D01*
X160162857Y-35964761D01*
X160067619Y-36012380D01*
X159972380Y-36012380D01*
X159877142Y-35964761D01*
X159829523Y-35917142D01*
X159781904Y-35821904D01*
X159734285Y-35631428D01*
X159734285Y-35393333D01*
X159781904Y-35202857D01*
X159829523Y-35107619D01*
X159877142Y-35060000D01*
X159972380Y-35012380D01*
X141906666Y-35012380D02*
X142573333Y-35012380D01*
X142144761Y-36012380D01*
X159972380Y-123912380D02*
X160067619Y-123912380D01*
X160162857Y-123960000D01*
X160210476Y-124007619D01*
X160258095Y-124102857D01*
X160305714Y-124293333D01*
X160305714Y-124531428D01*
X160258095Y-124721904D01*
X160210476Y-124817142D01*
X160162857Y-124864761D01*
X160067619Y-124912380D01*
X159972380Y-124912380D01*
X159877142Y-124864761D01*
X159829523Y-124817142D01*
X159781904Y-124721904D01*
X159734285Y-124531428D01*
X159734285Y-124293333D01*
X159781904Y-124102857D01*
X159829523Y-124007619D01*
X159877142Y-123960000D01*
X159972380Y-123912380D01*
X141906666Y-123912380D02*
X142573333Y-123912380D01*
X142144761Y-124912380D01*
X132032380Y-123912380D02*
X132127619Y-123912380D01*
X132222857Y-123960000D01*
X132270476Y-124007619D01*
X132318095Y-124102857D01*
X132365714Y-124293333D01*
X132365714Y-124531428D01*
X132318095Y-124721904D01*
X132270476Y-124817142D01*
X132222857Y-124864761D01*
X132127619Y-124912380D01*
X132032380Y-124912380D01*
X131937142Y-124864761D01*
X131889523Y-124817142D01*
X131841904Y-124721904D01*
X131794285Y-124531428D01*
X131794285Y-124293333D01*
X131841904Y-124102857D01*
X131889523Y-124007619D01*
X131937142Y-123960000D01*
X132032380Y-123912380D01*
X113966666Y-123912380D02*
X114633333Y-123912380D01*
X114204761Y-124912380D01*
X88852380Y-123912380D02*
X88947619Y-123912380D01*
X89042857Y-123960000D01*
X89090476Y-124007619D01*
X89138095Y-124102857D01*
X89185714Y-124293333D01*
X89185714Y-124531428D01*
X89138095Y-124721904D01*
X89090476Y-124817142D01*
X89042857Y-124864761D01*
X88947619Y-124912380D01*
X88852380Y-124912380D01*
X88757142Y-124864761D01*
X88709523Y-124817142D01*
X88661904Y-124721904D01*
X88614285Y-124531428D01*
X88614285Y-124293333D01*
X88661904Y-124102857D01*
X88709523Y-124007619D01*
X88757142Y-123960000D01*
X88852380Y-123912380D01*
X70786666Y-123912380D02*
X71453333Y-123912380D01*
X71024761Y-124912380D01*
X42846666Y-123912380D02*
X43513333Y-123912380D01*
X43084761Y-124912380D01*
X60912380Y-123912380D02*
X61007619Y-123912380D01*
X61102857Y-123960000D01*
X61150476Y-124007619D01*
X61198095Y-124102857D01*
X61245714Y-124293333D01*
X61245714Y-124531428D01*
X61198095Y-124721904D01*
X61150476Y-124817142D01*
X61102857Y-124864761D01*
X61007619Y-124912380D01*
X60912380Y-124912380D01*
X60817142Y-124864761D01*
X60769523Y-124817142D01*
X60721904Y-124721904D01*
X60674285Y-124531428D01*
X60674285Y-124293333D01*
X60721904Y-124102857D01*
X60769523Y-124007619D01*
X60817142Y-123960000D01*
X60912380Y-123912380D01*
D13*
X151749047Y-123904285D02*
X151653809Y-123999523D01*
X151368095Y-124094761D01*
X151177619Y-124094761D01*
X150891904Y-123999523D01*
X150701428Y-123809047D01*
X150606190Y-123618571D01*
X150510952Y-123237619D01*
X150510952Y-122951904D01*
X150606190Y-122570952D01*
X150701428Y-122380476D01*
X150891904Y-122190000D01*
X151177619Y-122094761D01*
X151368095Y-122094761D01*
X151653809Y-122190000D01*
X151749047Y-122285238D01*
X122713809Y-123523333D02*
X123666190Y-123523333D01*
X122523333Y-124094761D02*
X123190000Y-122094761D01*
X123856666Y-124094761D01*
X80152857Y-123047142D02*
X80438571Y-123142380D01*
X80533809Y-123237619D01*
X80629047Y-123428095D01*
X80629047Y-123713809D01*
X80533809Y-123904285D01*
X80438571Y-123999523D01*
X80248095Y-124094761D01*
X79486190Y-124094761D01*
X79486190Y-122094761D01*
X80152857Y-122094761D01*
X80343333Y-122190000D01*
X80438571Y-122285238D01*
X80533809Y-122475714D01*
X80533809Y-122666190D01*
X80438571Y-122856666D01*
X80343333Y-122951904D01*
X80152857Y-123047142D01*
X79486190Y-123047142D01*
X51546190Y-124094761D02*
X51546190Y-122094761D01*
X52022380Y-122094761D01*
X52308095Y-122190000D01*
X52498571Y-122380476D01*
X52593809Y-122570952D01*
X52689047Y-122951904D01*
X52689047Y-123237619D01*
X52593809Y-123618571D01*
X52498571Y-123809047D01*
X52308095Y-123999523D01*
X52022380Y-124094761D01*
X51546190Y-124094761D01*
X122761428Y-36687142D02*
X123428095Y-36687142D01*
X123713809Y-37734761D02*
X122761428Y-37734761D01*
X122761428Y-35734761D01*
X123713809Y-35734761D01*
X151653809Y-35830000D02*
X151463333Y-35734761D01*
X151177619Y-35734761D01*
X150891904Y-35830000D01*
X150701428Y-36020476D01*
X150606190Y-36210952D01*
X150510952Y-36591904D01*
X150510952Y-36877619D01*
X150606190Y-37258571D01*
X150701428Y-37449047D01*
X150891904Y-37639523D01*
X151177619Y-37734761D01*
X151368095Y-37734761D01*
X151653809Y-37639523D01*
X151749047Y-37544285D01*
X151749047Y-36877619D01*
X151368095Y-36877619D01*
X51498571Y-37734761D02*
X51498571Y-35734761D01*
X51498571Y-36687142D02*
X52641428Y-36687142D01*
X52641428Y-37734761D02*
X52641428Y-35734761D01*
X80295714Y-36687142D02*
X79629047Y-36687142D01*
X79629047Y-37734761D02*
X79629047Y-35734761D01*
X80581428Y-35734761D01*
D14*
%TO.C,J20*%
X170755000Y-69910000D02*
X173415000Y-69910000D01*
X170755000Y-69850000D02*
X170755000Y-69910000D01*
X173415000Y-69850000D02*
X173415000Y-69910000D01*
X170755000Y-69850000D02*
X173415000Y-69850000D01*
X170755000Y-68580000D02*
X170755000Y-67250000D01*
X170755000Y-67250000D02*
X172085000Y-67250000D01*
%TO.C,J11*%
X140910000Y-125670000D02*
X140910000Y-128330000D01*
X161290000Y-125670000D02*
X140910000Y-125670000D01*
X161290000Y-128330000D02*
X140910000Y-128330000D01*
X161290000Y-125670000D02*
X161290000Y-128330000D01*
X162560000Y-125670000D02*
X163890000Y-125670000D01*
X163890000Y-125670000D02*
X163890000Y-127000000D01*
%TO.C,U9*%
X161560000Y-92650000D02*
X159910000Y-92650000D01*
X159910000Y-92650000D02*
X159910000Y-118170000D01*
X159910000Y-118170000D02*
X165210000Y-118170000D01*
X165210000Y-118170000D02*
X165210000Y-92650000D01*
X165210000Y-92650000D02*
X163560000Y-92650000D01*
X157420000Y-92590000D02*
X157420000Y-118230000D01*
X157420000Y-118230000D02*
X167700000Y-118230000D01*
X167700000Y-118230000D02*
X167700000Y-92590000D01*
X167700000Y-92590000D02*
X157420000Y-92590000D01*
X163560000Y-92650000D02*
G75*
G02*
X161560000Y-92650000I-1000000J0D01*
G01*
%TO.C,U8*%
X34788531Y-95233186D02*
X33359589Y-96058186D01*
X33359589Y-96058186D02*
X43579589Y-113759745D01*
X43579589Y-113759745D02*
X48169524Y-111109745D01*
X48169524Y-111109745D02*
X37949524Y-93408186D01*
X37949524Y-93408186D02*
X36520582Y-94233186D01*
X31173186Y-97251225D02*
X41453186Y-115056707D01*
X41453186Y-115056707D02*
X50355927Y-109916707D01*
X50355927Y-109916707D02*
X40075927Y-92111225D01*
X40075927Y-92111225D02*
X31173186Y-97251225D01*
X36520583Y-94233186D02*
G75*
G02*
X34788531Y-95233186I-866026J-500000D01*
G01*
%TO.C,U7*%
X52568531Y-88565686D02*
X51139589Y-89390686D01*
X51139589Y-89390686D02*
X61359589Y-107092245D01*
X61359589Y-107092245D02*
X65949524Y-104442245D01*
X65949524Y-104442245D02*
X55729524Y-86740686D01*
X55729524Y-86740686D02*
X54300582Y-87565686D01*
X48953186Y-90583725D02*
X59233186Y-108389207D01*
X59233186Y-108389207D02*
X68135927Y-103249207D01*
X68135927Y-103249207D02*
X57855927Y-85443725D01*
X57855927Y-85443725D02*
X48953186Y-90583725D01*
X54300583Y-87565686D02*
G75*
G02*
X52568531Y-88565686I-866026J-500000D01*
G01*
%TO.C,U6*%
X70348531Y-81898186D02*
X68919589Y-82723186D01*
X68919589Y-82723186D02*
X79139589Y-100424745D01*
X79139589Y-100424745D02*
X83729524Y-97774745D01*
X83729524Y-97774745D02*
X73509524Y-80073186D01*
X73509524Y-80073186D02*
X72080582Y-80898186D01*
X66733186Y-83916225D02*
X77013186Y-101721707D01*
X77013186Y-101721707D02*
X85915927Y-96581707D01*
X85915927Y-96581707D02*
X75635927Y-78776225D01*
X75635927Y-78776225D02*
X66733186Y-83916225D01*
X72080583Y-80898186D02*
G75*
G02*
X70348531Y-81898186I-866026J-500000D01*
G01*
%TO.C,U5*%
X88128531Y-75230686D02*
X86699589Y-76055686D01*
X86699589Y-76055686D02*
X96919589Y-93757245D01*
X96919589Y-93757245D02*
X101509524Y-91107245D01*
X101509524Y-91107245D02*
X91289524Y-73405686D01*
X91289524Y-73405686D02*
X89860582Y-74230686D01*
X84513186Y-77248725D02*
X94793186Y-95054207D01*
X94793186Y-95054207D02*
X103695927Y-89914207D01*
X103695927Y-89914207D02*
X93415927Y-72108725D01*
X93415927Y-72108725D02*
X84513186Y-77248725D01*
X89860583Y-74230686D02*
G75*
G02*
X88128531Y-75230686I-866026J-500000D01*
G01*
%TO.C,U4*%
X105908531Y-68563186D02*
X104479589Y-69388186D01*
X104479589Y-69388186D02*
X114699589Y-87089745D01*
X114699589Y-87089745D02*
X119289524Y-84439745D01*
X119289524Y-84439745D02*
X109069524Y-66738186D01*
X109069524Y-66738186D02*
X107640582Y-67563186D01*
X102293186Y-70581225D02*
X112573186Y-88386707D01*
X112573186Y-88386707D02*
X121475927Y-83246707D01*
X121475927Y-83246707D02*
X111195927Y-65441225D01*
X111195927Y-65441225D02*
X102293186Y-70581225D01*
X107640583Y-67563186D02*
G75*
G02*
X105908531Y-68563186I-866026J-500000D01*
G01*
%TO.C,U3*%
X123688531Y-61895686D02*
X122259589Y-62720686D01*
X122259589Y-62720686D02*
X132479589Y-80422245D01*
X132479589Y-80422245D02*
X137069524Y-77772245D01*
X137069524Y-77772245D02*
X126849524Y-60070686D01*
X126849524Y-60070686D02*
X125420582Y-60895686D01*
X120073186Y-63913725D02*
X130353186Y-81719207D01*
X130353186Y-81719207D02*
X139255927Y-76579207D01*
X139255927Y-76579207D02*
X128975927Y-58773725D01*
X128975927Y-58773725D02*
X120073186Y-63913725D01*
X125420583Y-60895686D02*
G75*
G02*
X123688531Y-61895686I-866026J-500000D01*
G01*
%TO.C,U2*%
X141468531Y-55228186D02*
X140039589Y-56053186D01*
X140039589Y-56053186D02*
X150259589Y-73754745D01*
X150259589Y-73754745D02*
X154849524Y-71104745D01*
X154849524Y-71104745D02*
X144629524Y-53403186D01*
X144629524Y-53403186D02*
X143200582Y-54228186D01*
X137853186Y-57246225D02*
X148133186Y-75051707D01*
X148133186Y-75051707D02*
X157035927Y-69911707D01*
X157035927Y-69911707D02*
X146755927Y-52106225D01*
X146755927Y-52106225D02*
X137853186Y-57246225D01*
X143200583Y-54228186D02*
G75*
G02*
X141468531Y-55228186I-866026J-500000D01*
G01*
%TO.C,U1*%
X159248531Y-48560686D02*
X157819589Y-49385686D01*
X157819589Y-49385686D02*
X168039589Y-67087245D01*
X168039589Y-67087245D02*
X172629524Y-64437245D01*
X172629524Y-64437245D02*
X162409524Y-46735686D01*
X162409524Y-46735686D02*
X160980582Y-47560686D01*
X155633186Y-50578725D02*
X165913186Y-68384207D01*
X165913186Y-68384207D02*
X174815927Y-63244207D01*
X174815927Y-63244207D02*
X164535927Y-45438725D01*
X164535927Y-45438725D02*
X155633186Y-50578725D01*
X160980583Y-47560686D02*
G75*
G02*
X159248531Y-48560686I-866026J-500000D01*
G01*
%TO.C,R6*%
X172857936Y-71020000D02*
X173312064Y-71020000D01*
X172857936Y-72490000D02*
X173312064Y-72490000D01*
%TO.C,R5*%
X172857936Y-73560000D02*
X173312064Y-73560000D01*
X172857936Y-75030000D02*
X173312064Y-75030000D01*
%TO.C,R4*%
X172857936Y-76100000D02*
X173312064Y-76100000D01*
X172857936Y-77570000D02*
X173312064Y-77570000D01*
%TO.C,J21*%
X170120000Y-118170000D02*
X172780000Y-118170000D01*
X170120000Y-97790000D02*
X170120000Y-118170000D01*
X172780000Y-97790000D02*
X172780000Y-118170000D01*
X170120000Y-97790000D02*
X172780000Y-97790000D01*
X170120000Y-96520000D02*
X170120000Y-95190000D01*
X170120000Y-95190000D02*
X171450000Y-95190000D01*
%TO.C,J16*%
X41850000Y-31690000D02*
X41850000Y-34350000D01*
X62230000Y-31690000D02*
X41850000Y-31690000D01*
X62230000Y-34350000D02*
X41850000Y-34350000D01*
X62230000Y-31690000D02*
X62230000Y-34350000D01*
X63500000Y-31690000D02*
X64830000Y-31690000D01*
X64830000Y-31690000D02*
X64830000Y-33020000D01*
%TO.C,J15*%
X41850000Y-125670000D02*
X41850000Y-128330000D01*
X62230000Y-125670000D02*
X41850000Y-125670000D01*
X62230000Y-128330000D02*
X41850000Y-128330000D01*
X62230000Y-125670000D02*
X62230000Y-128330000D01*
X63500000Y-125670000D02*
X64830000Y-125670000D01*
X64830000Y-125670000D02*
X64830000Y-127000000D01*
%TO.C,J13*%
X170755000Y-48955000D02*
X173415000Y-48955000D01*
X170755000Y-48895000D02*
X170755000Y-48955000D01*
X173415000Y-48895000D02*
X173415000Y-48955000D01*
X170755000Y-48895000D02*
X173415000Y-48895000D01*
X170755000Y-47625000D02*
X170755000Y-46295000D01*
X170755000Y-46295000D02*
X172085000Y-46295000D01*
%TO.C,J12*%
X140910000Y-31690000D02*
X140910000Y-34350000D01*
X161290000Y-31690000D02*
X140910000Y-31690000D01*
X161290000Y-34350000D02*
X140910000Y-34350000D01*
X161290000Y-31690000D02*
X161290000Y-34350000D01*
X162560000Y-31690000D02*
X163890000Y-31690000D01*
X163890000Y-31690000D02*
X163890000Y-33020000D01*
%TO.C,J10*%
X173295000Y-60385000D02*
X175955000Y-60385000D01*
X173295000Y-55245000D02*
X173295000Y-60385000D01*
X175955000Y-55245000D02*
X175955000Y-60385000D01*
X173295000Y-55245000D02*
X175955000Y-55245000D01*
X173295000Y-53975000D02*
X173295000Y-52645000D01*
X173295000Y-52645000D02*
X174625000Y-52645000D01*
%TO.C,J9*%
X174400000Y-81360000D02*
G75*
G03*
X174400000Y-81360000I-1680000J0D01*
G01*
X176820000Y-88920000D02*
X176820000Y-78800000D01*
X175320000Y-88920000D02*
X175320000Y-78800000D01*
X170419000Y-88920000D02*
X170419000Y-78800000D01*
X167459000Y-88920000D02*
X167459000Y-78800000D01*
X177380000Y-88920000D02*
X177380000Y-78800000D01*
X167459000Y-88920000D02*
X177380000Y-88920000D01*
X167459000Y-78800000D02*
X177380000Y-78800000D01*
X171651000Y-80085000D02*
X171697000Y-80132000D01*
X173959000Y-82394000D02*
X173994000Y-82429000D01*
X171445000Y-80290000D02*
X171481000Y-80325000D01*
X173743000Y-82587000D02*
X173789000Y-82634000D01*
X176880000Y-89160000D02*
X177620000Y-89160000D01*
X177620000Y-89160000D02*
X177620000Y-88660000D01*
X174400253Y-86331195D02*
G75*
G02*
X174255000Y-87044000I-1680253J-28805D01*
G01*
X173403042Y-87895426D02*
G75*
G02*
X172036000Y-87895000I-683042J1535426D01*
G01*
X171184574Y-87043042D02*
G75*
G02*
X171185000Y-85676000I1535426J683042D01*
G01*
X172036958Y-84824574D02*
G75*
G02*
X173404000Y-84825000I683042J-1535426D01*
G01*
X174254756Y-85676682D02*
G75*
G02*
X174400000Y-86360000I-1534756J-683318D01*
G01*
%TO.C,J7*%
X171390000Y-92770000D02*
X174050000Y-92770000D01*
X171390000Y-92710000D02*
X171390000Y-92770000D01*
X174050000Y-92710000D02*
X174050000Y-92770000D01*
X171390000Y-92710000D02*
X174050000Y-92710000D01*
X171390000Y-91440000D02*
X171390000Y-90110000D01*
X171390000Y-90110000D02*
X172720000Y-90110000D01*
%TO.C,J6*%
X69790000Y-31690000D02*
X69790000Y-34350000D01*
X90170000Y-31690000D02*
X69790000Y-31690000D01*
X90170000Y-34350000D02*
X69790000Y-34350000D01*
X90170000Y-31690000D02*
X90170000Y-34350000D01*
X91440000Y-31690000D02*
X92770000Y-31690000D01*
X92770000Y-31690000D02*
X92770000Y-33020000D01*
%TO.C,J5*%
X69790000Y-125670000D02*
X69790000Y-128330000D01*
X90170000Y-125670000D02*
X69790000Y-125670000D01*
X90170000Y-128330000D02*
X69790000Y-128330000D01*
X90170000Y-125670000D02*
X90170000Y-128330000D01*
X91440000Y-125670000D02*
X92770000Y-125670000D01*
X92770000Y-125670000D02*
X92770000Y-127000000D01*
%TO.C,J3*%
X173930000Y-118170000D02*
X176590000Y-118170000D01*
X173930000Y-97790000D02*
X173930000Y-118170000D01*
X176590000Y-97790000D02*
X176590000Y-118170000D01*
X173930000Y-97790000D02*
X176590000Y-97790000D01*
X173930000Y-96520000D02*
X173930000Y-95190000D01*
X173930000Y-95190000D02*
X175260000Y-95190000D01*
%TO.C,J2*%
X112970000Y-31690000D02*
X112970000Y-34350000D01*
X133350000Y-31690000D02*
X112970000Y-31690000D01*
X133350000Y-34350000D02*
X112970000Y-34350000D01*
X133350000Y-31690000D02*
X133350000Y-34350000D01*
X134620000Y-31690000D02*
X135950000Y-31690000D01*
X135950000Y-31690000D02*
X135950000Y-33020000D01*
%TO.C,J1*%
X112970000Y-125670000D02*
X112970000Y-128330000D01*
X133350000Y-125670000D02*
X112970000Y-125670000D01*
X133350000Y-128330000D02*
X112970000Y-128330000D01*
X133350000Y-125670000D02*
X133350000Y-128330000D01*
X134620000Y-125670000D02*
X135950000Y-125670000D01*
X135950000Y-125670000D02*
X135950000Y-127000000D01*
%TO.C,D3*%
X169520000Y-70795000D02*
X166660000Y-70795000D01*
X166660000Y-70795000D02*
X166660000Y-72715000D01*
X166660000Y-72715000D02*
X169520000Y-72715000D01*
%TO.C,D2*%
X169520000Y-73335000D02*
X166660000Y-73335000D01*
X166660000Y-73335000D02*
X166660000Y-75255000D01*
X166660000Y-75255000D02*
X169520000Y-75255000D01*
%TO.C,D1*%
X169520000Y-75875000D02*
X166660000Y-75875000D01*
X166660000Y-75875000D02*
X166660000Y-77795000D01*
X166660000Y-77795000D02*
X169520000Y-77795000D01*
%TO.C,C9*%
X42278762Y-102407903D02*
X39386238Y-104077903D01*
X39386238Y-104077903D02*
X42056238Y-108702478D01*
X42056238Y-108702478D02*
X44948762Y-107032478D01*
X44948762Y-107032478D02*
X42278762Y-102407903D01*
X38937500Y-99960666D02*
X40832500Y-103242903D01*
X45397500Y-111149715D02*
X43502500Y-107867478D01*
%TO.C,C8*%
X59741262Y-95740403D02*
X56848738Y-97410403D01*
X56848738Y-97410403D02*
X59518738Y-102034978D01*
X59518738Y-102034978D02*
X62411262Y-100364978D01*
X62411262Y-100364978D02*
X59741262Y-95740403D01*
X56400000Y-93293166D02*
X58295000Y-96575403D01*
X62860000Y-104482215D02*
X60965000Y-101199978D01*
%TO.C,C7*%
X77521262Y-89072903D02*
X74628738Y-90742903D01*
X74628738Y-90742903D02*
X77298738Y-95367478D01*
X77298738Y-95367478D02*
X80191262Y-93697478D01*
X80191262Y-93697478D02*
X77521262Y-89072903D01*
X74180000Y-86625666D02*
X76075000Y-89907903D01*
X80640000Y-97814715D02*
X78745000Y-94532478D01*
%TO.C,C6*%
X95618762Y-82405403D02*
X92726238Y-84075403D01*
X92726238Y-84075403D02*
X95396238Y-88699978D01*
X95396238Y-88699978D02*
X98288762Y-87029978D01*
X98288762Y-87029978D02*
X95618762Y-82405403D01*
X92277500Y-79958166D02*
X94172500Y-83240403D01*
X98737500Y-91147215D02*
X96842500Y-87864978D01*
%TO.C,C5*%
X113081262Y-75737903D02*
X110188738Y-77407903D01*
X110188738Y-77407903D02*
X112858738Y-82032478D01*
X112858738Y-82032478D02*
X115751262Y-80362478D01*
X115751262Y-80362478D02*
X113081262Y-75737903D01*
X109740000Y-73290666D02*
X111635000Y-76572903D01*
X116200000Y-84479715D02*
X114305000Y-81197478D01*
%TO.C,C4*%
X131178762Y-69070403D02*
X128286238Y-70740403D01*
X128286238Y-70740403D02*
X130956238Y-75364978D01*
X130956238Y-75364978D02*
X133848762Y-73694978D01*
X133848762Y-73694978D02*
X131178762Y-69070403D01*
X127837500Y-66623166D02*
X129732500Y-69905403D01*
X134297500Y-77812215D02*
X132402500Y-74529978D01*
%TO.C,C3*%
X148641262Y-62402903D02*
X145748738Y-64072903D01*
X145748738Y-64072903D02*
X148418738Y-68697478D01*
X148418738Y-68697478D02*
X151311262Y-67027478D01*
X151311262Y-67027478D02*
X148641262Y-62402903D01*
X145300000Y-59955666D02*
X147195000Y-63237903D01*
X151760000Y-71144715D02*
X149865000Y-67862478D01*
%TO.C,C2*%
X166421262Y-55735403D02*
X163528738Y-57405403D01*
X163528738Y-57405403D02*
X166198738Y-62029978D01*
X166198738Y-62029978D02*
X169091262Y-60359978D01*
X169091262Y-60359978D02*
X166421262Y-55735403D01*
X163080000Y-53288166D02*
X164975000Y-56570403D01*
X169540000Y-64477215D02*
X167645000Y-61194978D01*
%TO.C,C1*%
X164230000Y-102937500D02*
X160890000Y-102937500D01*
X160890000Y-102937500D02*
X160890000Y-108277500D01*
X160890000Y-108277500D02*
X164230000Y-108277500D01*
X164230000Y-108277500D02*
X164230000Y-102937500D01*
X162560000Y-99147500D02*
X162560000Y-102937500D01*
X162560000Y-112067500D02*
X162560000Y-108277500D01*
%TO.C,J20*%
D12*
X171275476Y-65702380D02*
X171275476Y-66416666D01*
X171227857Y-66559523D01*
X171132619Y-66654761D01*
X170989761Y-66702380D01*
X170894523Y-66702380D01*
X171704047Y-65797619D02*
X171751666Y-65750000D01*
X171846904Y-65702380D01*
X172085000Y-65702380D01*
X172180238Y-65750000D01*
X172227857Y-65797619D01*
X172275476Y-65892857D01*
X172275476Y-65988095D01*
X172227857Y-66130952D01*
X171656428Y-66702380D01*
X172275476Y-66702380D01*
X172894523Y-65702380D02*
X172989761Y-65702380D01*
X173085000Y-65750000D01*
X173132619Y-65797619D01*
X173180238Y-65892857D01*
X173227857Y-66083333D01*
X173227857Y-66321428D01*
X173180238Y-66511904D01*
X173132619Y-66607142D01*
X173085000Y-66654761D01*
X172989761Y-66702380D01*
X172894523Y-66702380D01*
X172799285Y-66654761D01*
X172751666Y-66607142D01*
X172704047Y-66511904D01*
X172656428Y-66321428D01*
X172656428Y-66083333D01*
X172704047Y-65892857D01*
X172751666Y-65797619D01*
X172799285Y-65750000D01*
X172894523Y-65702380D01*
%TO.C,U9*%
X161798095Y-91102380D02*
X161798095Y-91911904D01*
X161845714Y-92007142D01*
X161893333Y-92054761D01*
X161988571Y-92102380D01*
X162179047Y-92102380D01*
X162274285Y-92054761D01*
X162321904Y-92007142D01*
X162369523Y-91911904D01*
X162369523Y-91102380D01*
X162893333Y-92102380D02*
X163083809Y-92102380D01*
X163179047Y-92054761D01*
X163226666Y-92007142D01*
X163321904Y-91864285D01*
X163369523Y-91673809D01*
X163369523Y-91292857D01*
X163321904Y-91197619D01*
X163274285Y-91150000D01*
X163179047Y-91102380D01*
X162988571Y-91102380D01*
X162893333Y-91150000D01*
X162845714Y-91197619D01*
X162798095Y-91292857D01*
X162798095Y-91530952D01*
X162845714Y-91626190D01*
X162893333Y-91673809D01*
X162988571Y-91721428D01*
X163179047Y-91721428D01*
X163274285Y-91673809D01*
X163321904Y-91626190D01*
X163369523Y-91530952D01*
%TO.C,U8*%
X34220918Y-93773861D02*
X34625680Y-94474929D01*
X34714538Y-94533598D01*
X34779587Y-94551028D01*
X34885875Y-94544648D01*
X35050833Y-94449410D01*
X35109502Y-94360552D01*
X35126931Y-94295503D01*
X35120552Y-94189215D01*
X34715790Y-93488147D01*
X35466186Y-93549777D02*
X35359898Y-93556156D01*
X35294849Y-93538726D01*
X35205991Y-93480057D01*
X35182182Y-93438818D01*
X35175802Y-93332530D01*
X35193232Y-93267481D01*
X35251901Y-93178623D01*
X35416858Y-93083385D01*
X35523146Y-93077005D01*
X35588195Y-93094435D01*
X35677053Y-93153104D01*
X35700863Y-93194343D01*
X35707243Y-93300631D01*
X35689813Y-93365680D01*
X35631144Y-93454538D01*
X35466186Y-93549777D01*
X35407517Y-93638635D01*
X35390088Y-93703684D01*
X35396467Y-93809972D01*
X35491705Y-93974929D01*
X35580564Y-94033598D01*
X35645613Y-94051028D01*
X35751901Y-94044648D01*
X35916858Y-93949410D01*
X35975527Y-93860552D01*
X35992957Y-93795503D01*
X35986577Y-93689215D01*
X35891339Y-93524258D01*
X35802481Y-93465588D01*
X35737432Y-93448159D01*
X35631144Y-93454538D01*
%TO.C,U7*%
X52000918Y-87106361D02*
X52405680Y-87807429D01*
X52494538Y-87866098D01*
X52559587Y-87883528D01*
X52665875Y-87877148D01*
X52830833Y-87781910D01*
X52889502Y-87693052D01*
X52906931Y-87628003D01*
X52900552Y-87521715D01*
X52495790Y-86820647D01*
X52825704Y-86630170D02*
X53403054Y-86296837D01*
X53531901Y-87377148D01*
%TO.C,U6*%
X69780918Y-80438861D02*
X70185680Y-81139929D01*
X70274538Y-81198598D01*
X70339587Y-81216028D01*
X70445875Y-81209648D01*
X70610833Y-81114410D01*
X70669502Y-81025552D01*
X70686931Y-80960503D01*
X70680552Y-80854215D01*
X70275790Y-80153147D01*
X71059337Y-79700766D02*
X70894379Y-79796004D01*
X70835710Y-79884862D01*
X70818280Y-79949911D01*
X70807230Y-80121248D01*
X70861229Y-80310015D01*
X71051705Y-80639929D01*
X71140564Y-80698598D01*
X71205613Y-80716028D01*
X71311901Y-80709648D01*
X71476858Y-80614410D01*
X71535527Y-80525552D01*
X71552957Y-80460503D01*
X71546577Y-80354215D01*
X71427529Y-80148018D01*
X71338671Y-80089349D01*
X71273622Y-80071919D01*
X71167334Y-80078299D01*
X71002377Y-80173537D01*
X70943708Y-80262396D01*
X70926278Y-80327444D01*
X70932658Y-80433733D01*
%TO.C,U5*%
X87560918Y-73771361D02*
X87965680Y-74472429D01*
X88054538Y-74531098D01*
X88119587Y-74548528D01*
X88225875Y-74542148D01*
X88390833Y-74446910D01*
X88449502Y-74358052D01*
X88466931Y-74293003D01*
X88460552Y-74186715D01*
X88055790Y-73485647D01*
X88880576Y-73009456D02*
X88468183Y-73247551D01*
X88665039Y-73683754D01*
X88682469Y-73618705D01*
X88741138Y-73529847D01*
X88947334Y-73410799D01*
X89053622Y-73404419D01*
X89118671Y-73421849D01*
X89207529Y-73480518D01*
X89326577Y-73686715D01*
X89332957Y-73793003D01*
X89315527Y-73858052D01*
X89256858Y-73946910D01*
X89050661Y-74065958D01*
X88944373Y-74072337D01*
X88879324Y-74054908D01*
%TO.C,U4*%
X105340918Y-67103861D02*
X105745680Y-67804929D01*
X105834538Y-67863598D01*
X105899587Y-67881028D01*
X106005875Y-67874648D01*
X106170833Y-67779410D01*
X106229502Y-67690552D01*
X106246931Y-67625503D01*
X106240552Y-67519215D01*
X105835790Y-66818147D01*
X106786003Y-66654441D02*
X107119337Y-67231791D01*
X106389331Y-66443574D02*
X106540277Y-67181211D01*
X107076388Y-66871687D01*
%TO.C,U3*%
X123120918Y-60436361D02*
X123525680Y-61137429D01*
X123614538Y-61196098D01*
X123679587Y-61213528D01*
X123785875Y-61207148D01*
X123950833Y-61111910D01*
X124009502Y-61023052D01*
X124026931Y-60958003D01*
X124020552Y-60851715D01*
X123615790Y-60150647D01*
X123945704Y-59960170D02*
X124481815Y-59650647D01*
X124383616Y-60147228D01*
X124507334Y-60075799D01*
X124613622Y-60069419D01*
X124678671Y-60086849D01*
X124767529Y-60145518D01*
X124886577Y-60351715D01*
X124892957Y-60458003D01*
X124875527Y-60523052D01*
X124816858Y-60611910D01*
X124569422Y-60754767D01*
X124463134Y-60761147D01*
X124398085Y-60743717D01*
%TO.C,U2*%
X140900918Y-53768861D02*
X141305680Y-54469929D01*
X141394538Y-54528598D01*
X141459587Y-54546028D01*
X141565875Y-54539648D01*
X141730833Y-54444410D01*
X141789502Y-54355552D01*
X141806931Y-54290503D01*
X141800552Y-54184215D01*
X141395790Y-53483147D01*
X141814563Y-53351339D02*
X141831992Y-53286291D01*
X141890661Y-53197432D01*
X142096858Y-53078385D01*
X142203146Y-53072005D01*
X142268195Y-53089435D01*
X142357053Y-53148104D01*
X142404672Y-53230582D01*
X142434862Y-53378110D01*
X142225704Y-54158696D01*
X142761815Y-53849172D01*
%TO.C,U1*%
X158680918Y-47101361D02*
X159085680Y-47802429D01*
X159174538Y-47861098D01*
X159239587Y-47878528D01*
X159345875Y-47872148D01*
X159510833Y-47776910D01*
X159569502Y-47688052D01*
X159586931Y-47623003D01*
X159580552Y-47516715D01*
X159175790Y-46815647D01*
X160541815Y-47181672D02*
X160046944Y-47467386D01*
X160294379Y-47324529D02*
X159794379Y-46458504D01*
X159783329Y-46629841D01*
X159748470Y-46759938D01*
X159689801Y-46848797D01*
%TO.C,R6*%
X176347380Y-71921666D02*
X175871190Y-72255000D01*
X176347380Y-72493095D02*
X175347380Y-72493095D01*
X175347380Y-72112142D01*
X175395000Y-72016904D01*
X175442619Y-71969285D01*
X175537857Y-71921666D01*
X175680714Y-71921666D01*
X175775952Y-71969285D01*
X175823571Y-72016904D01*
X175871190Y-72112142D01*
X175871190Y-72493095D01*
X175347380Y-71064523D02*
X175347380Y-71255000D01*
X175395000Y-71350238D01*
X175442619Y-71397857D01*
X175585476Y-71493095D01*
X175775952Y-71540714D01*
X176156904Y-71540714D01*
X176252142Y-71493095D01*
X176299761Y-71445476D01*
X176347380Y-71350238D01*
X176347380Y-71159761D01*
X176299761Y-71064523D01*
X176252142Y-71016904D01*
X176156904Y-70969285D01*
X175918809Y-70969285D01*
X175823571Y-71016904D01*
X175775952Y-71064523D01*
X175728333Y-71159761D01*
X175728333Y-71350238D01*
X175775952Y-71445476D01*
X175823571Y-71493095D01*
X175918809Y-71540714D01*
%TO.C,R5*%
X176347380Y-74461666D02*
X175871190Y-74795000D01*
X176347380Y-75033095D02*
X175347380Y-75033095D01*
X175347380Y-74652142D01*
X175395000Y-74556904D01*
X175442619Y-74509285D01*
X175537857Y-74461666D01*
X175680714Y-74461666D01*
X175775952Y-74509285D01*
X175823571Y-74556904D01*
X175871190Y-74652142D01*
X175871190Y-75033095D01*
X175347380Y-73556904D02*
X175347380Y-74033095D01*
X175823571Y-74080714D01*
X175775952Y-74033095D01*
X175728333Y-73937857D01*
X175728333Y-73699761D01*
X175775952Y-73604523D01*
X175823571Y-73556904D01*
X175918809Y-73509285D01*
X176156904Y-73509285D01*
X176252142Y-73556904D01*
X176299761Y-73604523D01*
X176347380Y-73699761D01*
X176347380Y-73937857D01*
X176299761Y-74033095D01*
X176252142Y-74080714D01*
%TO.C,R4*%
X176347380Y-77001666D02*
X175871190Y-77335000D01*
X176347380Y-77573095D02*
X175347380Y-77573095D01*
X175347380Y-77192142D01*
X175395000Y-77096904D01*
X175442619Y-77049285D01*
X175537857Y-77001666D01*
X175680714Y-77001666D01*
X175775952Y-77049285D01*
X175823571Y-77096904D01*
X175871190Y-77192142D01*
X175871190Y-77573095D01*
X175680714Y-76144523D02*
X176347380Y-76144523D01*
X175299761Y-76382619D02*
X176014047Y-76620714D01*
X176014047Y-76001666D01*
%TO.C,J21*%
X170640476Y-93642380D02*
X170640476Y-94356666D01*
X170592857Y-94499523D01*
X170497619Y-94594761D01*
X170354761Y-94642380D01*
X170259523Y-94642380D01*
X171069047Y-93737619D02*
X171116666Y-93690000D01*
X171211904Y-93642380D01*
X171450000Y-93642380D01*
X171545238Y-93690000D01*
X171592857Y-93737619D01*
X171640476Y-93832857D01*
X171640476Y-93928095D01*
X171592857Y-94070952D01*
X171021428Y-94642380D01*
X171640476Y-94642380D01*
X172592857Y-94642380D02*
X172021428Y-94642380D01*
X172307142Y-94642380D02*
X172307142Y-93642380D01*
X172211904Y-93785238D01*
X172116666Y-93880476D01*
X172021428Y-93928095D01*
%TO.C,J13*%
X171275476Y-44747380D02*
X171275476Y-45461666D01*
X171227857Y-45604523D01*
X171132619Y-45699761D01*
X170989761Y-45747380D01*
X170894523Y-45747380D01*
X172275476Y-45747380D02*
X171704047Y-45747380D01*
X171989761Y-45747380D02*
X171989761Y-44747380D01*
X171894523Y-44890238D01*
X171799285Y-44985476D01*
X171704047Y-45033095D01*
X172608809Y-44747380D02*
X173227857Y-44747380D01*
X172894523Y-45128333D01*
X173037380Y-45128333D01*
X173132619Y-45175952D01*
X173180238Y-45223571D01*
X173227857Y-45318809D01*
X173227857Y-45556904D01*
X173180238Y-45652142D01*
X173132619Y-45699761D01*
X173037380Y-45747380D01*
X172751666Y-45747380D01*
X172656428Y-45699761D01*
X172608809Y-45652142D01*
%TO.C,J10*%
X173815476Y-51097380D02*
X173815476Y-51811666D01*
X173767857Y-51954523D01*
X173672619Y-52049761D01*
X173529761Y-52097380D01*
X173434523Y-52097380D01*
X174815476Y-52097380D02*
X174244047Y-52097380D01*
X174529761Y-52097380D02*
X174529761Y-51097380D01*
X174434523Y-51240238D01*
X174339285Y-51335476D01*
X174244047Y-51383095D01*
X175434523Y-51097380D02*
X175529761Y-51097380D01*
X175625000Y-51145000D01*
X175672619Y-51192619D01*
X175720238Y-51287857D01*
X175767857Y-51478333D01*
X175767857Y-51716428D01*
X175720238Y-51906904D01*
X175672619Y-52002142D01*
X175625000Y-52049761D01*
X175529761Y-52097380D01*
X175434523Y-52097380D01*
X175339285Y-52049761D01*
X175291666Y-52002142D01*
X175244047Y-51906904D01*
X175196428Y-51716428D01*
X175196428Y-51478333D01*
X175244047Y-51287857D01*
X175291666Y-51192619D01*
X175339285Y-51145000D01*
X175434523Y-51097380D01*
%TO.C,J9*%
X165912380Y-84193333D02*
X166626666Y-84193333D01*
X166769523Y-84240952D01*
X166864761Y-84336190D01*
X166912380Y-84479047D01*
X166912380Y-84574285D01*
X166912380Y-83669523D02*
X166912380Y-83479047D01*
X166864761Y-83383809D01*
X166817142Y-83336190D01*
X166674285Y-83240952D01*
X166483809Y-83193333D01*
X166102857Y-83193333D01*
X166007619Y-83240952D01*
X165960000Y-83288571D01*
X165912380Y-83383809D01*
X165912380Y-83574285D01*
X165960000Y-83669523D01*
X166007619Y-83717142D01*
X166102857Y-83764761D01*
X166340952Y-83764761D01*
X166436190Y-83717142D01*
X166483809Y-83669523D01*
X166531428Y-83574285D01*
X166531428Y-83383809D01*
X166483809Y-83288571D01*
X166436190Y-83240952D01*
X166340952Y-83193333D01*
%TO.C,J7*%
X172386666Y-88562380D02*
X172386666Y-89276666D01*
X172339047Y-89419523D01*
X172243809Y-89514761D01*
X172100952Y-89562380D01*
X172005714Y-89562380D01*
X172767619Y-88562380D02*
X173434285Y-88562380D01*
X173005714Y-89562380D01*
%TO.C,J3*%
X174926666Y-93642380D02*
X174926666Y-94356666D01*
X174879047Y-94499523D01*
X174783809Y-94594761D01*
X174640952Y-94642380D01*
X174545714Y-94642380D01*
X175307619Y-93642380D02*
X175926666Y-93642380D01*
X175593333Y-94023333D01*
X175736190Y-94023333D01*
X175831428Y-94070952D01*
X175879047Y-94118571D01*
X175926666Y-94213809D01*
X175926666Y-94451904D01*
X175879047Y-94547142D01*
X175831428Y-94594761D01*
X175736190Y-94642380D01*
X175450476Y-94642380D01*
X175355238Y-94594761D01*
X175307619Y-94547142D01*
%TO.C,D3*%
X166187380Y-72493095D02*
X165187380Y-72493095D01*
X165187380Y-72255000D01*
X165235000Y-72112142D01*
X165330238Y-72016904D01*
X165425476Y-71969285D01*
X165615952Y-71921666D01*
X165758809Y-71921666D01*
X165949285Y-71969285D01*
X166044523Y-72016904D01*
X166139761Y-72112142D01*
X166187380Y-72255000D01*
X166187380Y-72493095D01*
X165187380Y-71588333D02*
X165187380Y-70969285D01*
X165568333Y-71302619D01*
X165568333Y-71159761D01*
X165615952Y-71064523D01*
X165663571Y-71016904D01*
X165758809Y-70969285D01*
X165996904Y-70969285D01*
X166092142Y-71016904D01*
X166139761Y-71064523D01*
X166187380Y-71159761D01*
X166187380Y-71445476D01*
X166139761Y-71540714D01*
X166092142Y-71588333D01*
%TO.C,D2*%
X166187380Y-75033095D02*
X165187380Y-75033095D01*
X165187380Y-74795000D01*
X165235000Y-74652142D01*
X165330238Y-74556904D01*
X165425476Y-74509285D01*
X165615952Y-74461666D01*
X165758809Y-74461666D01*
X165949285Y-74509285D01*
X166044523Y-74556904D01*
X166139761Y-74652142D01*
X166187380Y-74795000D01*
X166187380Y-75033095D01*
X165282619Y-74080714D02*
X165235000Y-74033095D01*
X165187380Y-73937857D01*
X165187380Y-73699761D01*
X165235000Y-73604523D01*
X165282619Y-73556904D01*
X165377857Y-73509285D01*
X165473095Y-73509285D01*
X165615952Y-73556904D01*
X166187380Y-74128333D01*
X166187380Y-73509285D01*
%TO.C,D1*%
X166187380Y-77573095D02*
X165187380Y-77573095D01*
X165187380Y-77335000D01*
X165235000Y-77192142D01*
X165330238Y-77096904D01*
X165425476Y-77049285D01*
X165615952Y-77001666D01*
X165758809Y-77001666D01*
X165949285Y-77049285D01*
X166044523Y-77096904D01*
X166139761Y-77192142D01*
X166187380Y-77335000D01*
X166187380Y-77573095D01*
X166187380Y-76049285D02*
X166187380Y-76620714D01*
X166187380Y-76335000D02*
X165187380Y-76335000D01*
X165330238Y-76430238D01*
X165425476Y-76525476D01*
X165473095Y-76620714D01*
%TO.C,C9*%
X41517371Y-105444233D02*
X41452323Y-105426804D01*
X41339655Y-105326895D01*
X41292036Y-105244417D01*
X41261846Y-105096889D01*
X41296706Y-104966791D01*
X41355375Y-104877933D01*
X41496523Y-104741456D01*
X41620241Y-104670027D01*
X41809007Y-104616028D01*
X41915295Y-104609649D01*
X42045393Y-104644508D01*
X42158061Y-104744417D01*
X42205680Y-104826895D01*
X42235869Y-104974423D01*
X42218440Y-105039471D01*
X41672988Y-105904245D02*
X41768226Y-106069203D01*
X41857084Y-106127872D01*
X41922133Y-106145302D01*
X42093470Y-106156352D01*
X42282237Y-106102353D01*
X42612151Y-105911877D01*
X42670821Y-105823018D01*
X42688250Y-105757969D01*
X42681871Y-105651681D01*
X42586632Y-105486724D01*
X42497774Y-105428055D01*
X42432725Y-105410625D01*
X42326437Y-105417005D01*
X42120241Y-105536053D01*
X42061572Y-105624911D01*
X42044142Y-105689960D01*
X42050521Y-105796248D01*
X42145760Y-105961205D01*
X42234618Y-106019874D01*
X42299667Y-106037304D01*
X42405955Y-106030924D01*
%TO.C,C8*%
X59297371Y-99094233D02*
X59232323Y-99076804D01*
X59119655Y-98976895D01*
X59072036Y-98894417D01*
X59041846Y-98746889D01*
X59076706Y-98616791D01*
X59135375Y-98527933D01*
X59276523Y-98391456D01*
X59400241Y-98320027D01*
X59589007Y-98266028D01*
X59695295Y-98259649D01*
X59825393Y-98294508D01*
X59938061Y-98394417D01*
X59985680Y-98476895D01*
X60015869Y-98624423D01*
X59998440Y-98689471D01*
X59995479Y-99351010D02*
X59989099Y-99244722D01*
X60006529Y-99179673D01*
X60065198Y-99090814D01*
X60106437Y-99067005D01*
X60212725Y-99060625D01*
X60277774Y-99078055D01*
X60366632Y-99136724D01*
X60461871Y-99301681D01*
X60468250Y-99407969D01*
X60450821Y-99473018D01*
X60392151Y-99561877D01*
X60350912Y-99585686D01*
X60244624Y-99592066D01*
X60179575Y-99574636D01*
X60090717Y-99515967D01*
X59995479Y-99351010D01*
X59906620Y-99292341D01*
X59841572Y-99274911D01*
X59735283Y-99281291D01*
X59570326Y-99376529D01*
X59511657Y-99465387D01*
X59494227Y-99530436D01*
X59500607Y-99636724D01*
X59595845Y-99801681D01*
X59684704Y-99860350D01*
X59749752Y-99877780D01*
X59856040Y-99871400D01*
X60020998Y-99776162D01*
X60079667Y-99687304D01*
X60097097Y-99622255D01*
X60090717Y-99515967D01*
%TO.C,C7*%
X77077371Y-92109233D02*
X77012323Y-92091804D01*
X76899655Y-91991895D01*
X76852036Y-91909417D01*
X76821846Y-91761889D01*
X76856706Y-91631791D01*
X76915375Y-91542933D01*
X77056523Y-91406456D01*
X77180241Y-91335027D01*
X77369007Y-91281028D01*
X77475295Y-91274649D01*
X77605393Y-91309508D01*
X77718061Y-91409417D01*
X77765680Y-91491895D01*
X77795869Y-91639423D01*
X77778440Y-91704471D01*
X78027585Y-91945528D02*
X78360918Y-92522878D01*
X77280607Y-92651724D01*
%TO.C,C6*%
X94857371Y-85759233D02*
X94792323Y-85741804D01*
X94679655Y-85641895D01*
X94632036Y-85559417D01*
X94601846Y-85411889D01*
X94636706Y-85281791D01*
X94695375Y-85192933D01*
X94836523Y-85056456D01*
X94960241Y-84985027D01*
X95149007Y-84931028D01*
X95255295Y-84924649D01*
X95385393Y-84959508D01*
X95498061Y-85059417D01*
X95545680Y-85141895D01*
X95575869Y-85289423D01*
X95558440Y-85354471D01*
X96069490Y-86049160D02*
X95974252Y-85884203D01*
X95885393Y-85825534D01*
X95820344Y-85808104D01*
X95649007Y-85797054D01*
X95460241Y-85851053D01*
X95130326Y-86041529D01*
X95071657Y-86130387D01*
X95054227Y-86195436D01*
X95060607Y-86301724D01*
X95155845Y-86466681D01*
X95244704Y-86525350D01*
X95309752Y-86542780D01*
X95416040Y-86536400D01*
X95622237Y-86417353D01*
X95680906Y-86328494D01*
X95698336Y-86263446D01*
X95691956Y-86157157D01*
X95596718Y-85992200D01*
X95507860Y-85933531D01*
X95442811Y-85916101D01*
X95336523Y-85922481D01*
%TO.C,C5*%
X112637371Y-78774233D02*
X112572323Y-78756804D01*
X112459655Y-78656895D01*
X112412036Y-78574417D01*
X112381846Y-78426889D01*
X112416706Y-78296791D01*
X112475375Y-78207933D01*
X112616523Y-78071456D01*
X112740241Y-78000027D01*
X112929007Y-77946028D01*
X113035295Y-77939649D01*
X113165393Y-77974508D01*
X113278061Y-78074417D01*
X113325680Y-78156895D01*
X113355869Y-78304423D01*
X113338440Y-78369471D01*
X113873299Y-79105399D02*
X113635204Y-78693006D01*
X113199001Y-78889862D01*
X113264050Y-78907292D01*
X113352908Y-78965961D01*
X113471956Y-79172157D01*
X113478336Y-79278446D01*
X113460906Y-79343494D01*
X113402237Y-79432353D01*
X113196040Y-79551400D01*
X113089752Y-79557780D01*
X113024704Y-79540350D01*
X112935845Y-79481681D01*
X112816798Y-79275485D01*
X112810418Y-79169197D01*
X112827848Y-79104148D01*
%TO.C,C4*%
X130417371Y-72424233D02*
X130352323Y-72406804D01*
X130239655Y-72306895D01*
X130192036Y-72224417D01*
X130161846Y-72076889D01*
X130196706Y-71946791D01*
X130255375Y-71857933D01*
X130396523Y-71721456D01*
X130520241Y-71650027D01*
X130709007Y-71596028D01*
X130815295Y-71589649D01*
X130945393Y-71624508D01*
X131058061Y-71724417D01*
X131105680Y-71806895D01*
X131135869Y-71954423D01*
X131118440Y-72019471D01*
X131340814Y-72880827D02*
X130763464Y-73214160D01*
X131551681Y-72484154D02*
X130814044Y-72635100D01*
X131123568Y-73171211D01*
%TO.C,C3*%
X148197371Y-65439233D02*
X148132323Y-65421804D01*
X148019655Y-65321895D01*
X147972036Y-65239417D01*
X147941846Y-65091889D01*
X147976706Y-64961791D01*
X148035375Y-64872933D01*
X148176523Y-64736456D01*
X148300241Y-64665027D01*
X148489007Y-64611028D01*
X148595295Y-64604649D01*
X148725393Y-64639508D01*
X148838061Y-64739417D01*
X148885680Y-64821895D01*
X148915869Y-64969423D01*
X148898440Y-65034471D01*
X149147585Y-65275528D02*
X149457109Y-65811639D01*
X148960528Y-65713440D01*
X149031956Y-65837157D01*
X149038336Y-65943446D01*
X149020906Y-66008494D01*
X148962237Y-66097353D01*
X148756040Y-66216400D01*
X148649752Y-66222780D01*
X148584704Y-66205350D01*
X148495845Y-66146681D01*
X148352988Y-65899245D01*
X148346608Y-65792957D01*
X148364038Y-65727908D01*
%TO.C,C2*%
X165977371Y-59089233D02*
X165912323Y-59071804D01*
X165799655Y-58971895D01*
X165752036Y-58889417D01*
X165721846Y-58741889D01*
X165756706Y-58611791D01*
X165815375Y-58522933D01*
X165956523Y-58386456D01*
X166080241Y-58315027D01*
X166269007Y-58261028D01*
X166375295Y-58254649D01*
X166505393Y-58289508D01*
X166618061Y-58389417D01*
X166665680Y-58471895D01*
X166695869Y-58619423D01*
X166678440Y-58684471D01*
X166868916Y-59014386D02*
X166933965Y-59031816D01*
X167022823Y-59090485D01*
X167141871Y-59296681D01*
X167148250Y-59402969D01*
X167130821Y-59468018D01*
X167072151Y-59556877D01*
X166989673Y-59604496D01*
X166842145Y-59634685D01*
X166061559Y-59425528D01*
X166371083Y-59961639D01*
%TO.C,C1*%
X162917142Y-105774166D02*
X162964761Y-105821785D01*
X163012380Y-105964642D01*
X163012380Y-106059880D01*
X162964761Y-106202738D01*
X162869523Y-106297976D01*
X162774285Y-106345595D01*
X162583809Y-106393214D01*
X162440952Y-106393214D01*
X162250476Y-106345595D01*
X162155238Y-106297976D01*
X162060000Y-106202738D01*
X162012380Y-106059880D01*
X162012380Y-105964642D01*
X162060000Y-105821785D01*
X162107619Y-105774166D01*
X163012380Y-104821785D02*
X163012380Y-105393214D01*
X163012380Y-105107500D02*
X162012380Y-105107500D01*
X162155238Y-105202738D01*
X162250476Y-105297976D01*
X162298095Y-105393214D01*
%TD*%
M02*
