M48
INCH,TZ
T1C0.0197
T2C0.0315
T3C0.0394
%
G90
G05
T1
X26096Y-28250
X29500Y-28125
X30250Y-29625
X32969Y-29000
X36838Y-29875
T2
X33500Y-24000
X33500Y-27000
X34500Y-24000
X34500Y-27000
X35500Y-24000
X35500Y-27000
X36500Y-24000
X36500Y-27000
X37500Y-24000
X37500Y-27000
X38500Y-24000
X38500Y-27000
X39500Y-24000
X39500Y-27000
X40500Y-24000
X40500Y-27000
X22500Y-24000
X22500Y-27000
X23500Y-24000
X23500Y-27000
X24500Y-24000
X24500Y-27000
X25500Y-24000
X25500Y-27000
X26500Y-24000
X26500Y-27000
X27500Y-24000
X27500Y-27000
X28500Y-24000
X28500Y-27000
X29500Y-24000
X29500Y-27000
T3
X29000Y-32000
X30000Y-32000
X31000Y-32000
X32000Y-32000
X33000Y-32000
X34000Y-32000
X35000Y-32000
X36000Y-32000
X47000Y-32000
X48000Y-32000
X49000Y-32000
X50000Y-32000
X20000Y-32000
X21000Y-32000
X22000Y-32000
X23000Y-32000
X24000Y-32000
X25000Y-32000
X26000Y-32000
X27000Y-32000
X38000Y-32000
X39000Y-32000
X40000Y-32000
X41000Y-32000
X42000Y-32000
X43000Y-32000
X44000Y-32000
X45000Y-32000
T0
M30
