%TF.GenerationSoftware,KiCad,Pcbnew,(5.1.8)-1*%
%TF.CreationDate,2022-10-09T15:02:05+03:00*%
%TF.ProjectId,MUX4x1,4d555834-7831-42e6-9b69-6361645f7063,rev?*%
%TF.SameCoordinates,Original*%
%TF.FileFunction,Copper,L1,Top*%
%TF.FilePolarity,Positive*%
%FSLAX46Y46*%
G04 Gerber Fmt 4.6, Leading zero omitted, Abs format (unit mm)*
G04 Created by KiCad (PCBNEW (5.1.8)-1) date 2022-10-09 15:02:05*
%MOMM*%
%LPD*%
G01*
G04 APERTURE LIST*
%TA.AperFunction,NonConductor*%
%ADD10C,0.300000*%
%TD*%
%TA.AperFunction,ComponentPad*%
%ADD11O,2.200000X2.200000*%
%TD*%
%TA.AperFunction,ComponentPad*%
%ADD12R,2.200000X2.200000*%
%TD*%
%TA.AperFunction,ComponentPad*%
%ADD13O,1.800000X1.500000*%
%TD*%
%TA.AperFunction,ComponentPad*%
%ADD14R,1.800000X1.500000*%
%TD*%
%TA.AperFunction,ComponentPad*%
%ADD15O,2.000000X1.500000*%
%TD*%
%TA.AperFunction,ComponentPad*%
%ADD16R,2.000000X1.500000*%
%TD*%
%TA.AperFunction,ComponentPad*%
%ADD17R,2.600000X2.600000*%
%TD*%
%TA.AperFunction,ComponentPad*%
%ADD18C,2.600000*%
%TD*%
%TA.AperFunction,ViaPad*%
%ADD19C,1.500000*%
%TD*%
%TA.AperFunction,Conductor*%
%ADD20C,0.800000*%
%TD*%
%TA.AperFunction,Conductor*%
%ADD21C,0.500000*%
%TD*%
G04 APERTURE END LIST*
D10*
X81387142Y-100353571D02*
X81387142Y-99210714D01*
X81958571Y-99782142D02*
X80815714Y-99782142D01*
X80458571Y-97782142D02*
X80458571Y-98496428D01*
X81172857Y-98567857D01*
X81101428Y-98496428D01*
X81030000Y-98353571D01*
X81030000Y-97996428D01*
X81101428Y-97853571D01*
X81172857Y-97782142D01*
X81315714Y-97710714D01*
X81672857Y-97710714D01*
X81815714Y-97782142D01*
X81887142Y-97853571D01*
X81958571Y-97996428D01*
X81958571Y-98353571D01*
X81887142Y-98496428D01*
X81815714Y-98567857D01*
X80458571Y-97282142D02*
X81958571Y-96782142D01*
X80458571Y-96282142D01*
X84066785Y-67758571D02*
X84209642Y-67758571D01*
X84352500Y-67830000D01*
X84423928Y-67901428D01*
X84495357Y-68044285D01*
X84566785Y-68330000D01*
X84566785Y-68687142D01*
X84495357Y-68972857D01*
X84423928Y-69115714D01*
X84352500Y-69187142D01*
X84209642Y-69258571D01*
X84066785Y-69258571D01*
X83923928Y-69187142D01*
X83852500Y-69115714D01*
X83781071Y-68972857D01*
X83709642Y-68687142D01*
X83709642Y-68330000D01*
X83781071Y-68044285D01*
X83852500Y-67901428D01*
X83923928Y-67830000D01*
X84066785Y-67758571D01*
X85281071Y-69258571D02*
X85566785Y-69258571D01*
X85709642Y-69187142D01*
X85781071Y-69115714D01*
X85923928Y-68901428D01*
X85995357Y-68615714D01*
X85995357Y-68044285D01*
X85923928Y-67901428D01*
X85852500Y-67830000D01*
X85709642Y-67758571D01*
X85423928Y-67758571D01*
X85281071Y-67830000D01*
X85209642Y-67901428D01*
X85138214Y-68044285D01*
X85138214Y-68401428D01*
X85209642Y-68544285D01*
X85281071Y-68615714D01*
X85423928Y-68687142D01*
X85709642Y-68687142D01*
X85852500Y-68615714D01*
X85923928Y-68544285D01*
X85995357Y-68401428D01*
X86638214Y-69115714D02*
X86709642Y-69187142D01*
X86638214Y-69258571D01*
X86566785Y-69187142D01*
X86638214Y-69115714D01*
X86638214Y-69258571D01*
X88138214Y-69258571D02*
X87281071Y-69258571D01*
X87709642Y-69258571D02*
X87709642Y-67758571D01*
X87566785Y-67972857D01*
X87423928Y-68115714D01*
X87281071Y-68187142D01*
X89066785Y-67758571D02*
X89209642Y-67758571D01*
X89352500Y-67830000D01*
X89423928Y-67901428D01*
X89495357Y-68044285D01*
X89566785Y-68330000D01*
X89566785Y-68687142D01*
X89495357Y-68972857D01*
X89423928Y-69115714D01*
X89352500Y-69187142D01*
X89209642Y-69258571D01*
X89066785Y-69258571D01*
X88923928Y-69187142D01*
X88852500Y-69115714D01*
X88781071Y-68972857D01*
X88709642Y-68687142D01*
X88709642Y-68330000D01*
X88781071Y-68044285D01*
X88852500Y-67901428D01*
X88923928Y-67830000D01*
X89066785Y-67758571D01*
X90209642Y-69115714D02*
X90281071Y-69187142D01*
X90209642Y-69258571D01*
X90138214Y-69187142D01*
X90209642Y-69115714D01*
X90209642Y-69258571D01*
X90852500Y-67901428D02*
X90923928Y-67830000D01*
X91066785Y-67758571D01*
X91423928Y-67758571D01*
X91566785Y-67830000D01*
X91638214Y-67901428D01*
X91709642Y-68044285D01*
X91709642Y-68187142D01*
X91638214Y-68401428D01*
X90781071Y-69258571D01*
X91709642Y-69258571D01*
X92638214Y-67758571D02*
X92781071Y-67758571D01*
X92923928Y-67830000D01*
X92995357Y-67901428D01*
X93066785Y-68044285D01*
X93138214Y-68330000D01*
X93138214Y-68687142D01*
X93066785Y-68972857D01*
X92995357Y-69115714D01*
X92923928Y-69187142D01*
X92781071Y-69258571D01*
X92638214Y-69258571D01*
X92495357Y-69187142D01*
X92423928Y-69115714D01*
X92352500Y-68972857D01*
X92281071Y-68687142D01*
X92281071Y-68330000D01*
X92352500Y-68044285D01*
X92423928Y-67901428D01*
X92495357Y-67830000D01*
X92638214Y-67758571D01*
X93709642Y-67901428D02*
X93781071Y-67830000D01*
X93923928Y-67758571D01*
X94281071Y-67758571D01*
X94423928Y-67830000D01*
X94495357Y-67901428D01*
X94566785Y-68044285D01*
X94566785Y-68187142D01*
X94495357Y-68401428D01*
X93638214Y-69258571D01*
X94566785Y-69258571D01*
X95138214Y-67901428D02*
X95209642Y-67830000D01*
X95352500Y-67758571D01*
X95709642Y-67758571D01*
X95852500Y-67830000D01*
X95923928Y-67901428D01*
X95995357Y-68044285D01*
X95995357Y-68187142D01*
X95923928Y-68401428D01*
X95066785Y-69258571D01*
X95995357Y-69258571D01*
X88606785Y-66401071D02*
X88606785Y-64901071D01*
X89106785Y-65972500D01*
X89606785Y-64901071D01*
X89606785Y-66401071D01*
X90321071Y-64901071D02*
X90321071Y-66115357D01*
X90392500Y-66258214D01*
X90463928Y-66329642D01*
X90606785Y-66401071D01*
X90892500Y-66401071D01*
X91035357Y-66329642D01*
X91106785Y-66258214D01*
X91178214Y-66115357D01*
X91178214Y-64901071D01*
X91749642Y-64901071D02*
X92749642Y-66401071D01*
X92749642Y-64901071D02*
X91749642Y-66401071D01*
X93963928Y-65401071D02*
X93963928Y-66401071D01*
X93606785Y-64829642D02*
X93249642Y-65901071D01*
X94178214Y-65901071D01*
X94749642Y-66258214D02*
X94821071Y-66329642D01*
X94749642Y-66401071D01*
X94678214Y-66329642D01*
X94749642Y-66258214D01*
X94749642Y-66401071D01*
X94749642Y-65472500D02*
X94821071Y-65543928D01*
X94749642Y-65615357D01*
X94678214Y-65543928D01*
X94749642Y-65472500D01*
X94749642Y-65615357D01*
X96249642Y-66401071D02*
X95392500Y-66401071D01*
X95821071Y-66401071D02*
X95821071Y-64901071D01*
X95678214Y-65115357D01*
X95535357Y-65258214D01*
X95392500Y-65329642D01*
X88106785Y-62043571D02*
X89106785Y-62043571D01*
X88463928Y-63543571D01*
X90321071Y-62543571D02*
X90321071Y-63543571D01*
X89963928Y-61972142D02*
X89606785Y-63043571D01*
X90535357Y-63043571D01*
X91106785Y-63543571D02*
X91106785Y-62043571D01*
X91106785Y-62757857D02*
X91963928Y-62757857D01*
X91963928Y-63543571D02*
X91963928Y-62043571D01*
X93535357Y-63400714D02*
X93463928Y-63472142D01*
X93249642Y-63543571D01*
X93106785Y-63543571D01*
X92892500Y-63472142D01*
X92749642Y-63329285D01*
X92678214Y-63186428D01*
X92606785Y-62900714D01*
X92606785Y-62686428D01*
X92678214Y-62400714D01*
X92749642Y-62257857D01*
X92892500Y-62115000D01*
X93106785Y-62043571D01*
X93249642Y-62043571D01*
X93463928Y-62115000D01*
X93535357Y-62186428D01*
X94178214Y-63543571D02*
X94178214Y-62043571D01*
X94749642Y-62043571D01*
X94892500Y-62115000D01*
X94963928Y-62186428D01*
X95035357Y-62329285D01*
X95035357Y-62543571D01*
X94963928Y-62686428D01*
X94892500Y-62757857D01*
X94749642Y-62829285D01*
X94178214Y-62829285D01*
X95678214Y-62043571D02*
X95678214Y-63257857D01*
X95749642Y-63400714D01*
X95821071Y-63472142D01*
X95963928Y-63543571D01*
X96249642Y-63543571D01*
X96392500Y-63472142D01*
X96463928Y-63400714D01*
X96535357Y-63257857D01*
X96535357Y-62043571D01*
D11*
%TO.P,J11,9*%
%TO.N,/D7*%
X156210000Y-60960000D03*
%TO.P,J11,8*%
%TO.N,/D6*%
X156210000Y-63500000D03*
%TO.P,J11,7*%
%TO.N,/D5*%
X156210000Y-66040000D03*
%TO.P,J11,6*%
%TO.N,/D4*%
X156210000Y-68580000D03*
%TO.P,J11,5*%
%TO.N,/D3*%
X156210000Y-71120000D03*
%TO.P,J11,4*%
%TO.N,/D2*%
X156210000Y-73660000D03*
%TO.P,J11,3*%
%TO.N,/D1*%
X156210000Y-76200000D03*
%TO.P,J11,2*%
%TO.N,/D0*%
X156210000Y-78740000D03*
D12*
%TO.P,J11,1*%
%TO.N,GND*%
X156210000Y-81280000D03*
%TD*%
D11*
%TO.P,J10,9*%
%TO.N,/C7*%
X73660000Y-60960000D03*
%TO.P,J10,8*%
%TO.N,/C6*%
X73660000Y-63500000D03*
%TO.P,J10,7*%
%TO.N,/C5*%
X73660000Y-66040000D03*
%TO.P,J10,6*%
%TO.N,/C4*%
X73660000Y-68580000D03*
%TO.P,J10,5*%
%TO.N,/C3*%
X73660000Y-71120000D03*
%TO.P,J10,4*%
%TO.N,/C2*%
X73660000Y-73660000D03*
%TO.P,J10,3*%
%TO.N,/C1*%
X73660000Y-76200000D03*
%TO.P,J10,2*%
%TO.N,/C0*%
X73660000Y-78740000D03*
D12*
%TO.P,J10,1*%
%TO.N,GND*%
X73660000Y-81280000D03*
%TD*%
D11*
%TO.P,J9,9*%
%TO.N,/B7*%
X156210000Y-106680000D03*
%TO.P,J9,8*%
%TO.N,/B6*%
X156210000Y-104140000D03*
%TO.P,J9,7*%
%TO.N,/B5*%
X156210000Y-101600000D03*
%TO.P,J9,6*%
%TO.N,/B4*%
X156210000Y-99060000D03*
%TO.P,J9,5*%
%TO.N,/B3*%
X156210000Y-96520000D03*
%TO.P,J9,4*%
%TO.N,/B2*%
X156210000Y-93980000D03*
%TO.P,J9,3*%
%TO.N,/B1*%
X156210000Y-91440000D03*
%TO.P,J9,2*%
%TO.N,/B0*%
X156210000Y-88900000D03*
D12*
%TO.P,J9,1*%
%TO.N,GND*%
X156210000Y-86360000D03*
%TD*%
D11*
%TO.P,J8,9*%
%TO.N,/A7*%
X73660000Y-106680000D03*
%TO.P,J8,8*%
%TO.N,/A6*%
X73660000Y-104140000D03*
%TO.P,J8,7*%
%TO.N,/A5*%
X73660000Y-101600000D03*
%TO.P,J8,6*%
%TO.N,/A4*%
X73660000Y-99060000D03*
%TO.P,J8,5*%
%TO.N,/A3*%
X73660000Y-96520000D03*
%TO.P,J8,4*%
%TO.N,/A2*%
X73660000Y-93980000D03*
%TO.P,J8,3*%
%TO.N,/A1*%
X73660000Y-91440000D03*
%TO.P,J8,2*%
%TO.N,/A0*%
X73660000Y-88900000D03*
D12*
%TO.P,J8,1*%
%TO.N,GND*%
X73660000Y-86360000D03*
%TD*%
D13*
%TO.P,U2,16*%
%TO.N,VCC*%
X110490000Y-73660000D03*
%TO.P,U2,8*%
%TO.N,GND*%
X102870000Y-91440000D03*
%TO.P,U2,15*%
%TO.N,/~E*%
X110490000Y-76200000D03*
%TO.P,U2,7*%
%TO.N,/O2*%
X102870000Y-88900000D03*
%TO.P,U2,14*%
%TO.N,/S0*%
X110490000Y-78740000D03*
%TO.P,U2,6*%
%TO.N,/A2*%
X102870000Y-86360000D03*
%TO.P,U2,13*%
%TO.N,/D3*%
X110490000Y-81280000D03*
%TO.P,U2,5*%
%TO.N,/B2*%
X102870000Y-83820000D03*
%TO.P,U2,12*%
%TO.N,/C3*%
X110490000Y-83820000D03*
%TO.P,U2,4*%
%TO.N,/C2*%
X102870000Y-81280000D03*
%TO.P,U2,11*%
%TO.N,/B3*%
X110490000Y-86360000D03*
%TO.P,U2,3*%
%TO.N,/D2*%
X102870000Y-78740000D03*
%TO.P,U2,10*%
%TO.N,/A3*%
X110490000Y-88900000D03*
%TO.P,U2,2*%
%TO.N,/S1*%
X102870000Y-76200000D03*
%TO.P,U2,9*%
%TO.N,/O3*%
X110490000Y-91440000D03*
D14*
%TO.P,U2,1*%
%TO.N,/~E*%
X102870000Y-73660000D03*
%TD*%
D15*
%TO.P,J7,3*%
%TO.N,/~E*%
X144780000Y-74295000D03*
%TO.P,J7,2*%
%TO.N,/S1*%
X144780000Y-76835000D03*
D16*
%TO.P,J7,1*%
%TO.N,/S0*%
X144780000Y-79375000D03*
%TD*%
D17*
%TO.P,J1,1*%
%TO.N,VCC*%
X83185000Y-104775000D03*
D18*
%TO.P,J1,2*%
%TO.N,GND*%
X88185000Y-104775000D03*
%TD*%
D12*
%TO.P,J2,1*%
%TO.N,GND*%
X76835000Y-86360000D03*
D11*
%TO.P,J2,2*%
%TO.N,/A0*%
X76835000Y-88900000D03*
%TO.P,J2,3*%
%TO.N,/A1*%
X76835000Y-91440000D03*
%TO.P,J2,4*%
%TO.N,/A2*%
X76835000Y-93980000D03*
%TO.P,J2,5*%
%TO.N,/A3*%
X76835000Y-96520000D03*
%TO.P,J2,6*%
%TO.N,/A4*%
X76835000Y-99060000D03*
%TO.P,J2,7*%
%TO.N,/A5*%
X76835000Y-101600000D03*
%TO.P,J2,8*%
%TO.N,/A6*%
X76835000Y-104140000D03*
%TO.P,J2,9*%
%TO.N,/A7*%
X76835000Y-106680000D03*
%TD*%
%TO.P,J3,9*%
%TO.N,/B7*%
X153035000Y-106680000D03*
%TO.P,J3,8*%
%TO.N,/B6*%
X153035000Y-104140000D03*
%TO.P,J3,7*%
%TO.N,/B5*%
X153035000Y-101600000D03*
%TO.P,J3,6*%
%TO.N,/B4*%
X153035000Y-99060000D03*
%TO.P,J3,5*%
%TO.N,/B3*%
X153035000Y-96520000D03*
%TO.P,J3,4*%
%TO.N,/B2*%
X153035000Y-93980000D03*
%TO.P,J3,3*%
%TO.N,/B1*%
X153035000Y-91440000D03*
%TO.P,J3,2*%
%TO.N,/B0*%
X153035000Y-88900000D03*
D12*
%TO.P,J3,1*%
%TO.N,GND*%
X153035000Y-86360000D03*
%TD*%
%TO.P,J4,1*%
%TO.N,GND*%
X76835000Y-81280000D03*
D11*
%TO.P,J4,2*%
%TO.N,/C0*%
X76835000Y-78740000D03*
%TO.P,J4,3*%
%TO.N,/C1*%
X76835000Y-76200000D03*
%TO.P,J4,4*%
%TO.N,/C2*%
X76835000Y-73660000D03*
%TO.P,J4,5*%
%TO.N,/C3*%
X76835000Y-71120000D03*
%TO.P,J4,6*%
%TO.N,/C4*%
X76835000Y-68580000D03*
%TO.P,J4,7*%
%TO.N,/C5*%
X76835000Y-66040000D03*
%TO.P,J4,8*%
%TO.N,/C6*%
X76835000Y-63500000D03*
%TO.P,J4,9*%
%TO.N,/C7*%
X76835000Y-60960000D03*
%TD*%
%TO.P,J5,9*%
%TO.N,/D7*%
X153035000Y-60960000D03*
%TO.P,J5,8*%
%TO.N,/D6*%
X153035000Y-63500000D03*
%TO.P,J5,7*%
%TO.N,/D5*%
X153035000Y-66040000D03*
%TO.P,J5,6*%
%TO.N,/D4*%
X153035000Y-68580000D03*
%TO.P,J5,5*%
%TO.N,/D3*%
X153035000Y-71120000D03*
%TO.P,J5,4*%
%TO.N,/D2*%
X153035000Y-73660000D03*
%TO.P,J5,3*%
%TO.N,/D1*%
X153035000Y-76200000D03*
%TO.P,J5,2*%
%TO.N,/D0*%
X153035000Y-78740000D03*
D12*
%TO.P,J5,1*%
%TO.N,GND*%
X153035000Y-81280000D03*
%TD*%
%TO.P,J6,1*%
%TO.N,GND*%
X101600000Y-106680000D03*
D11*
%TO.P,J6,2*%
%TO.N,/O0*%
X104140000Y-106680000D03*
%TO.P,J6,3*%
%TO.N,/O1*%
X106680000Y-106680000D03*
%TO.P,J6,4*%
%TO.N,/O2*%
X109220000Y-106680000D03*
%TO.P,J6,5*%
%TO.N,/O3*%
X111760000Y-106680000D03*
%TO.P,J6,6*%
%TO.N,/O4*%
X114300000Y-106680000D03*
%TO.P,J6,7*%
%TO.N,/O5*%
X116840000Y-106680000D03*
%TO.P,J6,8*%
%TO.N,/O6*%
X119380000Y-106680000D03*
%TO.P,J6,9*%
%TO.N,/O7*%
X121920000Y-106680000D03*
%TD*%
D14*
%TO.P,U1,1*%
%TO.N,/~E*%
X87630000Y-73660000D03*
D13*
%TO.P,U1,9*%
%TO.N,/O1*%
X95250000Y-91440000D03*
%TO.P,U1,2*%
%TO.N,/S1*%
X87630000Y-76200000D03*
%TO.P,U1,10*%
%TO.N,/A1*%
X95250000Y-88900000D03*
%TO.P,U1,3*%
%TO.N,/D0*%
X87630000Y-78740000D03*
%TO.P,U1,11*%
%TO.N,/B1*%
X95250000Y-86360000D03*
%TO.P,U1,4*%
%TO.N,/C0*%
X87630000Y-81280000D03*
%TO.P,U1,12*%
%TO.N,/C1*%
X95250000Y-83820000D03*
%TO.P,U1,5*%
%TO.N,/B0*%
X87630000Y-83820000D03*
%TO.P,U1,13*%
%TO.N,/D1*%
X95250000Y-81280000D03*
%TO.P,U1,6*%
%TO.N,/A0*%
X87630000Y-86360000D03*
%TO.P,U1,14*%
%TO.N,/S0*%
X95250000Y-78740000D03*
%TO.P,U1,7*%
%TO.N,/O0*%
X87630000Y-88900000D03*
%TO.P,U1,15*%
%TO.N,/~E*%
X95250000Y-76200000D03*
%TO.P,U1,8*%
%TO.N,GND*%
X87630000Y-91440000D03*
%TO.P,U1,16*%
%TO.N,VCC*%
X95250000Y-73660000D03*
%TD*%
D14*
%TO.P,U3,1*%
%TO.N,/~E*%
X118110000Y-73660000D03*
D13*
%TO.P,U3,9*%
%TO.N,/O5*%
X125730000Y-91440000D03*
%TO.P,U3,2*%
%TO.N,/S1*%
X118110000Y-76200000D03*
%TO.P,U3,10*%
%TO.N,/A5*%
X125730000Y-88900000D03*
%TO.P,U3,3*%
%TO.N,/D4*%
X118110000Y-78740000D03*
%TO.P,U3,11*%
%TO.N,/B5*%
X125730000Y-86360000D03*
%TO.P,U3,4*%
%TO.N,/C4*%
X118110000Y-81280000D03*
%TO.P,U3,12*%
%TO.N,/C5*%
X125730000Y-83820000D03*
%TO.P,U3,5*%
%TO.N,/B4*%
X118110000Y-83820000D03*
%TO.P,U3,13*%
%TO.N,/D5*%
X125730000Y-81280000D03*
%TO.P,U3,6*%
%TO.N,/A4*%
X118110000Y-86360000D03*
%TO.P,U3,14*%
%TO.N,/S0*%
X125730000Y-78740000D03*
%TO.P,U3,7*%
%TO.N,/O4*%
X118110000Y-88900000D03*
%TO.P,U3,15*%
%TO.N,/~E*%
X125730000Y-76200000D03*
%TO.P,U3,8*%
%TO.N,GND*%
X118110000Y-91440000D03*
%TO.P,U3,16*%
%TO.N,VCC*%
X125730000Y-73660000D03*
%TD*%
%TO.P,U4,16*%
%TO.N,VCC*%
X140970000Y-73660000D03*
%TO.P,U4,8*%
%TO.N,GND*%
X133350000Y-91440000D03*
%TO.P,U4,15*%
%TO.N,/~E*%
X140970000Y-76200000D03*
%TO.P,U4,7*%
%TO.N,/O6*%
X133350000Y-88900000D03*
%TO.P,U4,14*%
%TO.N,/S0*%
X140970000Y-78740000D03*
%TO.P,U4,6*%
%TO.N,/A6*%
X133350000Y-86360000D03*
%TO.P,U4,13*%
%TO.N,/D7*%
X140970000Y-81280000D03*
%TO.P,U4,5*%
%TO.N,/B6*%
X133350000Y-83820000D03*
%TO.P,U4,12*%
%TO.N,/C7*%
X140970000Y-83820000D03*
%TO.P,U4,4*%
%TO.N,/C6*%
X133350000Y-81280000D03*
%TO.P,U4,11*%
%TO.N,/B7*%
X140970000Y-86360000D03*
%TO.P,U4,3*%
%TO.N,/D6*%
X133350000Y-78740000D03*
%TO.P,U4,10*%
%TO.N,/A7*%
X140970000Y-88900000D03*
%TO.P,U4,2*%
%TO.N,/S1*%
X133350000Y-76200000D03*
%TO.P,U4,9*%
%TO.N,/O7*%
X140970000Y-91440000D03*
D14*
%TO.P,U4,1*%
%TO.N,/~E*%
X133350000Y-73660000D03*
%TD*%
%TO.P,D1,1*%
%TO.N,GND*%
%TA.AperFunction,SMDPad,CuDef*%
G36*
G01*
X146500001Y-99390000D02*
X145599999Y-99390000D01*
G75*
G02*
X145350000Y-99140001I0J249999D01*
G01*
X145350000Y-98489999D01*
G75*
G02*
X145599999Y-98240000I249999J0D01*
G01*
X146500001Y-98240000D01*
G75*
G02*
X146750000Y-98489999I0J-249999D01*
G01*
X146750000Y-99140001D01*
G75*
G02*
X146500001Y-99390000I-249999J0D01*
G01*
G37*
%TD.AperFunction*%
%TO.P,D1,2*%
%TO.N,Net-(D1-Pad2)*%
%TA.AperFunction,SMDPad,CuDef*%
G36*
G01*
X146500001Y-97340000D02*
X145599999Y-97340000D01*
G75*
G02*
X145350000Y-97090001I0J249999D01*
G01*
X145350000Y-96439999D01*
G75*
G02*
X145599999Y-96190000I249999J0D01*
G01*
X146500001Y-96190000D01*
G75*
G02*
X146750000Y-96439999I0J-249999D01*
G01*
X146750000Y-97090001D01*
G75*
G02*
X146500001Y-97340000I-249999J0D01*
G01*
G37*
%TD.AperFunction*%
%TD*%
%TO.P,D2,2*%
%TO.N,Net-(D2-Pad2)*%
%TA.AperFunction,SMDPad,CuDef*%
G36*
G01*
X149040001Y-97340000D02*
X148139999Y-97340000D01*
G75*
G02*
X147890000Y-97090001I0J249999D01*
G01*
X147890000Y-96439999D01*
G75*
G02*
X148139999Y-96190000I249999J0D01*
G01*
X149040001Y-96190000D01*
G75*
G02*
X149290000Y-96439999I0J-249999D01*
G01*
X149290000Y-97090001D01*
G75*
G02*
X149040001Y-97340000I-249999J0D01*
G01*
G37*
%TD.AperFunction*%
%TO.P,D2,1*%
%TO.N,GND*%
%TA.AperFunction,SMDPad,CuDef*%
G36*
G01*
X149040001Y-99390000D02*
X148139999Y-99390000D01*
G75*
G02*
X147890000Y-99140001I0J249999D01*
G01*
X147890000Y-98489999D01*
G75*
G02*
X148139999Y-98240000I249999J0D01*
G01*
X149040001Y-98240000D01*
G75*
G02*
X149290000Y-98489999I0J-249999D01*
G01*
X149290000Y-99140001D01*
G75*
G02*
X149040001Y-99390000I-249999J0D01*
G01*
G37*
%TD.AperFunction*%
%TD*%
%TO.P,R2,2*%
%TO.N,/S0*%
%TA.AperFunction,SMDPad,CuDef*%
G36*
G01*
X146500001Y-92310000D02*
X145599999Y-92310000D01*
G75*
G02*
X145350000Y-92060001I0J249999D01*
G01*
X145350000Y-91359999D01*
G75*
G02*
X145599999Y-91110000I249999J0D01*
G01*
X146500001Y-91110000D01*
G75*
G02*
X146750000Y-91359999I0J-249999D01*
G01*
X146750000Y-92060001D01*
G75*
G02*
X146500001Y-92310000I-249999J0D01*
G01*
G37*
%TD.AperFunction*%
%TO.P,R2,1*%
%TO.N,Net-(D1-Pad2)*%
%TA.AperFunction,SMDPad,CuDef*%
G36*
G01*
X146500001Y-94310000D02*
X145599999Y-94310000D01*
G75*
G02*
X145350000Y-94060001I0J249999D01*
G01*
X145350000Y-93359999D01*
G75*
G02*
X145599999Y-93110000I249999J0D01*
G01*
X146500001Y-93110000D01*
G75*
G02*
X146750000Y-93359999I0J-249999D01*
G01*
X146750000Y-94060001D01*
G75*
G02*
X146500001Y-94310000I-249999J0D01*
G01*
G37*
%TD.AperFunction*%
%TD*%
%TO.P,R3,1*%
%TO.N,Net-(D2-Pad2)*%
%TA.AperFunction,SMDPad,CuDef*%
G36*
G01*
X149040001Y-94310000D02*
X148139999Y-94310000D01*
G75*
G02*
X147890000Y-94060001I0J249999D01*
G01*
X147890000Y-93359999D01*
G75*
G02*
X148139999Y-93110000I249999J0D01*
G01*
X149040001Y-93110000D01*
G75*
G02*
X149290000Y-93359999I0J-249999D01*
G01*
X149290000Y-94060001D01*
G75*
G02*
X149040001Y-94310000I-249999J0D01*
G01*
G37*
%TD.AperFunction*%
%TO.P,R3,2*%
%TO.N,/S1*%
%TA.AperFunction,SMDPad,CuDef*%
G36*
G01*
X149040001Y-92310000D02*
X148139999Y-92310000D01*
G75*
G02*
X147890000Y-92060001I0J249999D01*
G01*
X147890000Y-91359999D01*
G75*
G02*
X148139999Y-91110000I249999J0D01*
G01*
X149040001Y-91110000D01*
G75*
G02*
X149290000Y-91359999I0J-249999D01*
G01*
X149290000Y-92060001D01*
G75*
G02*
X149040001Y-92310000I-249999J0D01*
G01*
G37*
%TD.AperFunction*%
%TD*%
D19*
%TO.N,/A2*%
X100330000Y-97790000D03*
X100330000Y-86360000D03*
%TO.N,/A3*%
X107950000Y-99060000D03*
X107950000Y-88900000D03*
%TO.N,/A4*%
X119380000Y-100330000D03*
X120015000Y-86360000D03*
%TO.N,/A5*%
X124460000Y-101600000D03*
X123190000Y-88900000D03*
%TO.N,/A6*%
X130810000Y-102870000D03*
X130810000Y-86360000D03*
%TO.N,/A7*%
X138430000Y-104140000D03*
X138430000Y-88900000D03*
%TO.N,/B7*%
X143510000Y-100965000D03*
X143510000Y-86360000D03*
%TO.N,/B6*%
X135890000Y-102870000D03*
X135890000Y-83820000D03*
%TO.N,/B5*%
X128270000Y-101600000D03*
X128270000Y-86360000D03*
%TO.N,/B4*%
X121920000Y-100330000D03*
X121285000Y-83820000D03*
%TO.N,/B3*%
X113030000Y-99060000D03*
X113030000Y-86360000D03*
%TO.N,/B2*%
X106045000Y-97790000D03*
X106045000Y-83820000D03*
%TO.N,/B1*%
X97790000Y-96520000D03*
X97790000Y-86360000D03*
%TO.N,/B0*%
X92710000Y-95885000D03*
X92710000Y-86360000D03*
%TO.N,/C2*%
X99695000Y-67310000D03*
X99695000Y-81280000D03*
%TO.N,/C3*%
X107950000Y-66040000D03*
X107950000Y-83820000D03*
%TO.N,/C4*%
X115570000Y-64770000D03*
X115570000Y-81280000D03*
%TO.N,/C5*%
X123190000Y-63500000D03*
X123190000Y-83820000D03*
%TO.N,/C6*%
X130810000Y-62230000D03*
X130810000Y-81280000D03*
%TO.N,/C7*%
X138430000Y-60960000D03*
X138430000Y-83820000D03*
%TO.N,/D7*%
X142875000Y-60960000D03*
X142875000Y-81280000D03*
%TO.N,/D6*%
X135890000Y-62230000D03*
X135890000Y-78740000D03*
%TO.N,/D5*%
X128270000Y-63500000D03*
X128270000Y-81280000D03*
%TO.N,/D4*%
X120650000Y-64770000D03*
X120650000Y-78740000D03*
%TO.N,/D3*%
X113030000Y-66040000D03*
X113030000Y-81280000D03*
%TO.N,/D2*%
X105410000Y-67310000D03*
X105410000Y-78740000D03*
%TO.N,/D1*%
X97790000Y-68580000D03*
X97790000Y-81280000D03*
%TO.N,/O0*%
X90170000Y-88900000D03*
%TO.N,/O2*%
X104775000Y-88900000D03*
%TO.N,/O4*%
X114935000Y-88900000D03*
%TO.N,/O6*%
X130810000Y-88900000D03*
%TD*%
D20*
%TO.N,VCC*%
X95250000Y-71120000D02*
X95250000Y-73660000D01*
X85725000Y-71120000D02*
X95250000Y-71120000D01*
X83185000Y-73660000D02*
X85725000Y-71120000D01*
X83185000Y-104775000D02*
X83185000Y-73660000D01*
%TO.N,GND*%
X87630000Y-97155000D02*
X87630000Y-91440000D01*
X97155000Y-106680000D02*
X87630000Y-97155000D01*
X101600000Y-106680000D02*
X97155000Y-106680000D01*
D21*
X146050000Y-98815000D02*
X149225000Y-98815000D01*
X148590000Y-98815000D02*
X150105000Y-98815000D01*
X150105000Y-98815000D02*
X150495000Y-98425000D01*
X150495000Y-98425000D02*
X150495000Y-86995000D01*
X150495000Y-86995000D02*
X151130000Y-86360000D01*
X151130000Y-86360000D02*
X153035000Y-86360000D01*
%TO.N,/A2*%
X100330000Y-97790000D02*
X100330000Y-96520000D01*
X100330000Y-86360000D02*
X100330000Y-96520000D01*
%TO.N,/A3*%
X107950000Y-88900000D02*
X107950000Y-99060000D01*
%TO.N,/A4*%
X119380000Y-99060000D02*
X119380000Y-100330000D01*
X120015000Y-98425000D02*
X119380000Y-99060000D01*
X120015000Y-86360000D02*
X120015000Y-98425000D01*
%TO.N,/A5*%
X123190000Y-97790000D02*
X124460000Y-99060000D01*
X124460000Y-99060000D02*
X124460000Y-101600000D01*
X123190000Y-88900000D02*
X123190000Y-97790000D01*
%TO.N,/A6*%
X129540000Y-96520000D02*
X130810000Y-97790000D01*
X130810000Y-97790000D02*
X130810000Y-102870000D01*
X129540000Y-87630000D02*
X130810000Y-86360000D01*
X129540000Y-87630000D02*
X129540000Y-96520000D01*
%TO.N,/A7*%
X138430000Y-88900000D02*
X138430000Y-104140000D01*
%TO.N,/B7*%
X143510000Y-86360000D02*
X143510000Y-100965000D01*
%TO.N,/B6*%
X135890000Y-83820000D02*
X135890000Y-102870000D01*
%TO.N,/B5*%
X128270000Y-86360000D02*
X128270000Y-101600000D01*
%TO.N,/B4*%
X121285000Y-98425000D02*
X121920000Y-99060000D01*
X121920000Y-99060000D02*
X121920000Y-100330000D01*
X121285000Y-83820000D02*
X121285000Y-98425000D01*
%TO.N,/B3*%
X113030000Y-86360000D02*
X113030000Y-99060000D01*
%TO.N,/B2*%
X106045000Y-95885000D02*
X106045000Y-97790000D01*
X106045000Y-83820000D02*
X106045000Y-95885000D01*
%TO.N,/B1*%
X97790000Y-86360000D02*
X97790000Y-96520000D01*
%TO.N,/B0*%
X92710000Y-95885000D02*
X92710000Y-86360000D01*
%TO.N,/C2*%
X99695000Y-67310000D02*
X99695000Y-81280000D01*
%TO.N,/C3*%
X107950000Y-66040000D02*
X107950000Y-83820000D01*
%TO.N,/C4*%
X115570000Y-81280000D02*
X115570000Y-64770000D01*
%TO.N,/C5*%
X123190000Y-83820000D02*
X123190000Y-63500000D01*
%TO.N,/C6*%
X130810000Y-81280000D02*
X130810000Y-62230000D01*
%TO.N,/C7*%
X138430000Y-83820000D02*
X138430000Y-60960000D01*
%TO.N,/D7*%
X142875000Y-80962500D02*
X142875000Y-61040010D01*
X142875000Y-81280000D02*
X142875000Y-80962500D01*
%TO.N,/D6*%
X135890000Y-78740000D02*
X135890000Y-62230000D01*
%TO.N,/D5*%
X128270000Y-81280000D02*
X128270000Y-63500000D01*
%TO.N,/D4*%
X120650000Y-78740000D02*
X120650000Y-64770000D01*
%TO.N,/D3*%
X113030000Y-81280000D02*
X113030000Y-66040000D01*
%TO.N,/D2*%
X105410000Y-67310000D02*
X105410000Y-78740000D01*
%TO.N,/D1*%
X97790000Y-81280000D02*
X97790000Y-68580000D01*
%TO.N,/O0*%
X104140000Y-104140000D02*
X104140000Y-106680000D01*
X90170000Y-96520000D02*
X97790000Y-104140000D01*
X97790000Y-104140000D02*
X104140000Y-104140000D01*
X90170000Y-88900000D02*
X90170000Y-96520000D01*
%TO.N,/O1*%
X95250000Y-91440000D02*
X95250000Y-96520000D01*
X95250000Y-96520000D02*
X101600000Y-102870000D01*
X101600000Y-102870000D02*
X105410000Y-102870000D01*
X106680000Y-104140000D02*
X106680000Y-106680000D01*
X105410000Y-102870000D02*
X106680000Y-104140000D01*
%TO.N,/O2*%
X109220000Y-104140000D02*
X109220000Y-106680000D01*
X104140000Y-99060000D02*
X109220000Y-104140000D01*
X104140000Y-95250000D02*
X104140000Y-99060000D01*
X104775000Y-94615000D02*
X104140000Y-95250000D01*
X104775000Y-88900000D02*
X104775000Y-94615000D01*
%TO.N,/O3*%
X111760000Y-102870000D02*
X111760000Y-106680000D01*
X110490000Y-101600000D02*
X111760000Y-102870000D01*
X110490000Y-91440000D02*
X110490000Y-101600000D01*
%TO.N,/O4*%
X114300000Y-106680000D02*
X114300000Y-102870000D01*
X114935000Y-102235000D02*
X114300000Y-102870000D01*
X114935000Y-88900000D02*
X114935000Y-102235000D01*
%TO.N,/O5*%
X125730000Y-100330000D02*
X125730000Y-91440000D01*
X125095000Y-103505000D02*
X126047500Y-102552500D01*
X126047500Y-100647500D02*
X125730000Y-100330000D01*
X123507500Y-103505000D02*
X125095000Y-103505000D01*
X126047500Y-102552500D02*
X126047500Y-100647500D01*
X122872500Y-102870000D02*
X123507500Y-103505000D01*
X116840000Y-102870000D02*
X122872500Y-102870000D01*
X116840000Y-106680000D02*
X116840000Y-102870000D01*
%TO.N,/O6*%
X119380000Y-104140000D02*
X119380000Y-106680000D01*
X122237500Y-104140000D02*
X119380000Y-104140000D01*
X122872500Y-104775000D02*
X122237500Y-104140000D01*
X132715000Y-104775000D02*
X122872500Y-104775000D01*
X133350000Y-104140000D02*
X132715000Y-104775000D01*
X133350000Y-98107500D02*
X133350000Y-104140000D01*
X130810000Y-95567500D02*
X133350000Y-98107500D01*
X130810000Y-88900000D02*
X130810000Y-95567500D01*
%TO.N,/O7*%
X140970000Y-91440000D02*
X140970000Y-105410000D01*
X139700000Y-106680000D02*
X121920000Y-106680000D01*
X140970000Y-105410000D02*
X139700000Y-106680000D01*
%TO.N,/S1*%
X147955000Y-76835000D02*
X144780000Y-76835000D01*
X149225000Y-83185000D02*
X149225000Y-78105000D01*
X148590000Y-83820000D02*
X149225000Y-83185000D01*
X149225000Y-78105000D02*
X147955000Y-76835000D01*
X148590000Y-91710000D02*
X148590000Y-83820000D01*
%TO.N,/S0*%
X146685000Y-79375000D02*
X144780000Y-79375000D01*
X147320000Y-80010000D02*
X146685000Y-79375000D01*
X147320000Y-82550000D02*
X147320000Y-80010000D01*
X146050000Y-83820000D02*
X147320000Y-82550000D01*
X146050000Y-91710000D02*
X146050000Y-83820000D01*
%TO.N,Net-(D1-Pad2)*%
X146050000Y-93710000D02*
X146050000Y-96765000D01*
%TO.N,Net-(D2-Pad2)*%
X148590000Y-93710000D02*
X148590000Y-96765000D01*
%TD*%
M02*
