M48
METRIC
T1C0.500
T2C0.800
T3C0.900
T4C1.000
T5C1.300
T6C3.200
%
G90
G05
T1
X79.375Y-83.185
X81.28Y-78.74
X90.805Y-91.44
X92.71Y-86.36
X92.71Y-95.885
X95.25Y-60.96
X97.79Y-60.96
X97.79Y-96.52
X100.33Y-61.595
X100.33Y-83.82
X100.33Y-97.79
X105.41Y-61.595
X106.045Y-97.79
X107.95Y-63.5
X107.95Y-99.06
X113.03Y-63.5
X113.03Y-99.06
X115.57Y-65.405
X119.38Y-99.695
X120.65Y-65.405
X121.92Y-99.695
X123.19Y-67.31
X124.46Y-100.647
X128.27Y-67.31
X128.27Y-100.647
X130.81Y-69.215
X130.81Y-102.87
X135.89Y-69.215
X135.89Y-91.44
X135.89Y-102.87
X138.43Y-104.14
X142.875Y-100.965
X144.78Y-106.68
X148.59Y-106.68
X157.48Y-110.172
T2
X133.35Y-73.66
X133.35Y-76.2
X133.35Y-78.74
X133.35Y-81.28
X133.35Y-83.82
X133.35Y-86.36
X133.35Y-88.9
X133.35Y-91.44
X140.97Y-73.66
X140.97Y-76.2
X140.97Y-78.74
X140.97Y-81.28
X140.97Y-83.82
X140.97Y-86.36
X140.97Y-88.9
X140.97Y-91.44
X102.87Y-73.66
X102.87Y-76.2
X102.87Y-78.74
X102.87Y-81.28
X102.87Y-83.82
X102.87Y-86.36
X102.87Y-88.9
X102.87Y-91.44
X110.49Y-73.66
X110.49Y-76.2
X110.49Y-78.74
X110.49Y-81.28
X110.49Y-83.82
X110.49Y-86.36
X110.49Y-88.9
X110.49Y-91.44
X101.6Y-106.68
X101.6Y-114.3
X104.14Y-106.68
X104.14Y-114.3
X106.68Y-106.68
X106.68Y-114.3
X109.22Y-106.68
X109.22Y-114.3
X111.76Y-106.68
X111.76Y-114.3
X114.3Y-106.68
X114.3Y-114.3
X116.84Y-106.68
X116.84Y-114.3
X119.38Y-106.68
X119.38Y-114.3
X121.92Y-106.68
X121.92Y-114.3
X124.46Y-106.68
X124.46Y-114.3
X118.11Y-73.66
X118.11Y-76.2
X118.11Y-78.74
X118.11Y-81.28
X118.11Y-83.82
X118.11Y-86.36
X118.11Y-88.9
X118.11Y-91.44
X125.73Y-73.66
X125.73Y-76.2
X125.73Y-78.74
X125.73Y-81.28
X125.73Y-83.82
X125.73Y-86.36
X125.73Y-88.9
X125.73Y-91.44
X87.63Y-73.66
X87.63Y-76.2
X87.63Y-78.74
X87.63Y-81.28
X87.63Y-83.82
X87.63Y-86.36
X87.63Y-88.9
X87.63Y-91.44
X95.25Y-73.66
X95.25Y-76.2
X95.25Y-78.74
X95.25Y-81.28
X95.25Y-83.82
X95.25Y-86.36
X95.25Y-88.9
X95.25Y-91.44
T3
X73.66Y-60.96
X73.66Y-63.5
X73.66Y-66.04
X73.66Y-68.58
X73.66Y-71.12
X73.66Y-73.66
X73.66Y-76.2
X73.66Y-78.74
X73.66Y-81.28
X153.035Y-86.36
X153.035Y-88.9
X153.035Y-91.44
X153.035Y-93.98
X153.035Y-96.52
X153.035Y-99.06
X153.035Y-101.6
X153.035Y-104.14
X153.035Y-106.68
X73.66Y-86.36
X73.66Y-88.9
X73.66Y-91.44
X73.66Y-93.98
X73.66Y-96.52
X73.66Y-99.06
X73.66Y-101.6
X73.66Y-104.14
X73.66Y-106.68
X153.035Y-60.96
X153.035Y-63.5
X153.035Y-66.04
X153.035Y-68.58
X153.035Y-71.12
X153.035Y-73.66
X153.035Y-76.2
X153.035Y-78.74
X153.035Y-81.28
X156.21Y-60.96
X156.21Y-63.5
X156.21Y-66.04
X156.21Y-68.58
X156.21Y-71.12
X156.21Y-73.66
X156.21Y-76.2
X156.21Y-78.74
X156.21Y-81.28
X76.835Y-86.36
X76.835Y-88.9
X76.835Y-91.44
X76.835Y-93.98
X76.835Y-96.52
X76.835Y-99.06
X76.835Y-101.6
X76.835Y-104.14
X76.835Y-106.68
X156.21Y-86.36
X156.21Y-88.9
X156.21Y-91.44
X156.21Y-93.98
X156.21Y-96.52
X156.21Y-99.06
X156.21Y-101.6
X156.21Y-104.14
X156.21Y-106.68
X76.835Y-60.96
X76.835Y-63.5
X76.835Y-66.04
X76.835Y-68.58
X76.835Y-71.12
X76.835Y-73.66
X76.835Y-76.2
X76.835Y-78.74
X76.835Y-81.28
T4
X146.05Y-74.295
X146.05Y-76.835
X146.05Y-79.375
X146.05Y-81.915
X101.6Y-118.745
X104.14Y-118.745
X106.68Y-118.745
X109.22Y-118.745
X111.76Y-118.745
X114.3Y-118.745
X116.84Y-118.745
X119.38Y-118.745
X121.92Y-118.745
X132.715Y-114.3
X135.255Y-114.3
X137.795Y-114.3
X140.335Y-114.3
X101.6Y-121.602
X104.14Y-121.602
X106.68Y-121.602
X109.22Y-121.602
X111.76Y-121.602
X114.3Y-121.602
X116.84Y-121.602
X119.38Y-121.602
X121.92Y-121.602
X129.54Y-114.3
T5
X83.185Y-104.775
X88.185Y-104.775
T6
X146.05Y-62.23
X83.82Y-113.665
X146.05Y-113.665
X83.82Y-62.23
T0
M30
