%TF.GenerationSoftware,KiCad,Pcbnew,(5.1.8)-1*%
%TF.CreationDate,2023-07-01T01:21:54+03:00*%
%TF.ProjectId,MUX4x1,4d555834-7831-42e6-9b69-6361645f7063,rev?*%
%TF.SameCoordinates,Original*%
%TF.FileFunction,Soldermask,Bot*%
%TF.FilePolarity,Negative*%
%FSLAX46Y46*%
G04 Gerber Fmt 4.6, Leading zero omitted, Abs format (unit mm)*
G04 Created by KiCad (PCBNEW (5.1.8)-1) date 2023-07-01 01:21:54*
%MOMM*%
%LPD*%
G01*
G04 APERTURE LIST*
%ADD10O,2.000000X2.000000*%
%ADD11R,2.000000X2.000000*%
%ADD12C,3.200000*%
%ADD13O,2.200000X2.200000*%
%ADD14R,2.200000X2.200000*%
%ADD15O,1.800000X1.500000*%
%ADD16R,1.800000X1.500000*%
%ADD17R,2.600000X2.600000*%
%ADD18C,2.600000*%
%ADD19R,1.600000X1.600000*%
%ADD20O,1.600000X1.600000*%
G04 APERTURE END LIST*
%TO.C,R6*%
G36*
G01*
X133165001Y-110598000D02*
X132264999Y-110598000D01*
G75*
G02*
X132015000Y-110348001I0J249999D01*
G01*
X132015000Y-109647999D01*
G75*
G02*
X132264999Y-109398000I249999J0D01*
G01*
X133165001Y-109398000D01*
G75*
G02*
X133415000Y-109647999I0J-249999D01*
G01*
X133415000Y-110348001D01*
G75*
G02*
X133165001Y-110598000I-249999J0D01*
G01*
G37*
G36*
G01*
X133165001Y-112598000D02*
X132264999Y-112598000D01*
G75*
G02*
X132015000Y-112348001I0J249999D01*
G01*
X132015000Y-111647999D01*
G75*
G02*
X132264999Y-111398000I249999J0D01*
G01*
X133165001Y-111398000D01*
G75*
G02*
X133415000Y-111647999I0J-249999D01*
G01*
X133415000Y-112348001D01*
G75*
G02*
X133165001Y-112598000I-249999J0D01*
G01*
G37*
%TD*%
D10*
%TO.C,J14*%
X132715000Y-114300000D03*
X135255000Y-114300000D03*
X137795000Y-114300000D03*
D11*
X140335000Y-114300000D03*
%TD*%
D10*
%TO.C,J7*%
X146050000Y-74295000D03*
X146050000Y-76835000D03*
X146050000Y-79375000D03*
D11*
X146050000Y-81915000D03*
%TD*%
D12*
%TO.C,H4*%
X146050000Y-62230000D03*
%TD*%
%TO.C,R5*%
G36*
G01*
X129089999Y-111525000D02*
X129990001Y-111525000D01*
G75*
G02*
X130240000Y-111774999I0J-249999D01*
G01*
X130240000Y-112475001D01*
G75*
G02*
X129990001Y-112725000I-249999J0D01*
G01*
X129089999Y-112725000D01*
G75*
G02*
X128840000Y-112475001I0J249999D01*
G01*
X128840000Y-111774999D01*
G75*
G02*
X129089999Y-111525000I249999J0D01*
G01*
G37*
G36*
G01*
X129089999Y-109525000D02*
X129990001Y-109525000D01*
G75*
G02*
X130240000Y-109774999I0J-249999D01*
G01*
X130240000Y-110475001D01*
G75*
G02*
X129990001Y-110725000I-249999J0D01*
G01*
X129089999Y-110725000D01*
G75*
G02*
X128840000Y-110475001I0J249999D01*
G01*
X128840000Y-109774999D01*
G75*
G02*
X129089999Y-109525000I249999J0D01*
G01*
G37*
%TD*%
D11*
%TO.C,J13*%
X129540000Y-114300000D03*
%TD*%
%TO.C,C3*%
G36*
G01*
X120835000Y-110015000D02*
X120835000Y-110965000D01*
G75*
G02*
X120585000Y-111215000I-250000J0D01*
G01*
X119910000Y-111215000D01*
G75*
G02*
X119660000Y-110965000I0J250000D01*
G01*
X119660000Y-110015000D01*
G75*
G02*
X119910000Y-109765000I250000J0D01*
G01*
X120585000Y-109765000D01*
G75*
G02*
X120835000Y-110015000I0J-250000D01*
G01*
G37*
G36*
G01*
X122910000Y-110015000D02*
X122910000Y-110965000D01*
G75*
G02*
X122660000Y-111215000I-250000J0D01*
G01*
X121985000Y-111215000D01*
G75*
G02*
X121735000Y-110965000I0J250000D01*
G01*
X121735000Y-110015000D01*
G75*
G02*
X121985000Y-109765000I250000J0D01*
G01*
X122660000Y-109765000D01*
G75*
G02*
X122910000Y-110015000I0J-250000D01*
G01*
G37*
%TD*%
D12*
%TO.C,H3*%
X83820000Y-113665000D03*
%TD*%
D13*
%TO.C,J12*%
X121920000Y-121602500D03*
X119380000Y-121602500D03*
X116840000Y-121602500D03*
X114300000Y-121602500D03*
X111760000Y-121602500D03*
X109220000Y-121602500D03*
X106680000Y-121602500D03*
X104140000Y-121602500D03*
D14*
X101600000Y-121602500D03*
%TD*%
D13*
%TO.C,J11*%
X156210000Y-81280000D03*
X156210000Y-78740000D03*
X156210000Y-76200000D03*
X156210000Y-73660000D03*
X156210000Y-71120000D03*
X156210000Y-68580000D03*
X156210000Y-66040000D03*
X156210000Y-63500000D03*
D14*
X156210000Y-60960000D03*
%TD*%
D13*
%TO.C,J10*%
X73660000Y-81280000D03*
X73660000Y-78740000D03*
X73660000Y-76200000D03*
X73660000Y-73660000D03*
X73660000Y-71120000D03*
X73660000Y-68580000D03*
X73660000Y-66040000D03*
X73660000Y-63500000D03*
D14*
X73660000Y-60960000D03*
%TD*%
D13*
%TO.C,J9*%
X156210000Y-106680000D03*
X156210000Y-104140000D03*
X156210000Y-101600000D03*
X156210000Y-99060000D03*
X156210000Y-96520000D03*
X156210000Y-93980000D03*
X156210000Y-91440000D03*
X156210000Y-88900000D03*
D14*
X156210000Y-86360000D03*
%TD*%
D13*
%TO.C,J8*%
X73660000Y-106680000D03*
X73660000Y-104140000D03*
X73660000Y-101600000D03*
X73660000Y-99060000D03*
X73660000Y-96520000D03*
X73660000Y-93980000D03*
X73660000Y-91440000D03*
X73660000Y-88900000D03*
D14*
X73660000Y-86360000D03*
%TD*%
D15*
%TO.C,U2*%
X110490000Y-73660000D03*
X102870000Y-91440000D03*
X110490000Y-76200000D03*
X102870000Y-88900000D03*
X110490000Y-78740000D03*
X102870000Y-86360000D03*
X110490000Y-81280000D03*
X102870000Y-83820000D03*
X110490000Y-83820000D03*
X102870000Y-81280000D03*
X110490000Y-86360000D03*
X102870000Y-78740000D03*
X110490000Y-88900000D03*
X102870000Y-76200000D03*
X110490000Y-91440000D03*
D16*
X102870000Y-73660000D03*
%TD*%
%TO.C,R1*%
G36*
G01*
X135705001Y-110598000D02*
X134804999Y-110598000D01*
G75*
G02*
X134555000Y-110348001I0J249999D01*
G01*
X134555000Y-109647999D01*
G75*
G02*
X134804999Y-109398000I249999J0D01*
G01*
X135705001Y-109398000D01*
G75*
G02*
X135955000Y-109647999I0J-249999D01*
G01*
X135955000Y-110348001D01*
G75*
G02*
X135705001Y-110598000I-249999J0D01*
G01*
G37*
G36*
G01*
X135705001Y-112598000D02*
X134804999Y-112598000D01*
G75*
G02*
X134555000Y-112348001I0J249999D01*
G01*
X134555000Y-111647999D01*
G75*
G02*
X134804999Y-111398000I249999J0D01*
G01*
X135705001Y-111398000D01*
G75*
G02*
X135955000Y-111647999I0J-249999D01*
G01*
X135955000Y-112348001D01*
G75*
G02*
X135705001Y-112598000I-249999J0D01*
G01*
G37*
%TD*%
D12*
%TO.C,H1*%
X83820000Y-62230000D03*
%TD*%
%TO.C,H2*%
X146050000Y-113665000D03*
%TD*%
D17*
%TO.C,J1*%
X83185000Y-104775000D03*
D18*
X88185000Y-104775000D03*
%TD*%
D14*
%TO.C,J2*%
X76835000Y-86360000D03*
D13*
X76835000Y-88900000D03*
X76835000Y-91440000D03*
X76835000Y-93980000D03*
X76835000Y-96520000D03*
X76835000Y-99060000D03*
X76835000Y-101600000D03*
X76835000Y-104140000D03*
X76835000Y-106680000D03*
%TD*%
%TO.C,J3*%
X153035000Y-106680000D03*
X153035000Y-104140000D03*
X153035000Y-101600000D03*
X153035000Y-99060000D03*
X153035000Y-96520000D03*
X153035000Y-93980000D03*
X153035000Y-91440000D03*
X153035000Y-88900000D03*
D14*
X153035000Y-86360000D03*
%TD*%
%TO.C,J4*%
X76835000Y-60960000D03*
D13*
X76835000Y-63500000D03*
X76835000Y-66040000D03*
X76835000Y-68580000D03*
X76835000Y-71120000D03*
X76835000Y-73660000D03*
X76835000Y-76200000D03*
X76835000Y-78740000D03*
X76835000Y-81280000D03*
%TD*%
%TO.C,J5*%
X153035000Y-81280000D03*
X153035000Y-78740000D03*
X153035000Y-76200000D03*
X153035000Y-73660000D03*
X153035000Y-71120000D03*
X153035000Y-68580000D03*
X153035000Y-66040000D03*
X153035000Y-63500000D03*
D14*
X153035000Y-60960000D03*
%TD*%
%TO.C,J6*%
X101600000Y-118745000D03*
D13*
X104140000Y-118745000D03*
X106680000Y-118745000D03*
X109220000Y-118745000D03*
X111760000Y-118745000D03*
X114300000Y-118745000D03*
X116840000Y-118745000D03*
X119380000Y-118745000D03*
X121920000Y-118745000D03*
%TD*%
D16*
%TO.C,U1*%
X87630000Y-73660000D03*
D15*
X95250000Y-91440000D03*
X87630000Y-76200000D03*
X95250000Y-88900000D03*
X87630000Y-78740000D03*
X95250000Y-86360000D03*
X87630000Y-81280000D03*
X95250000Y-83820000D03*
X87630000Y-83820000D03*
X95250000Y-81280000D03*
X87630000Y-86360000D03*
X95250000Y-78740000D03*
X87630000Y-88900000D03*
X95250000Y-76200000D03*
X87630000Y-91440000D03*
X95250000Y-73660000D03*
%TD*%
D16*
%TO.C,U3*%
X118110000Y-73660000D03*
D15*
X125730000Y-91440000D03*
X118110000Y-76200000D03*
X125730000Y-88900000D03*
X118110000Y-78740000D03*
X125730000Y-86360000D03*
X118110000Y-81280000D03*
X125730000Y-83820000D03*
X118110000Y-83820000D03*
X125730000Y-81280000D03*
X118110000Y-86360000D03*
X125730000Y-78740000D03*
X118110000Y-88900000D03*
X125730000Y-76200000D03*
X118110000Y-91440000D03*
X125730000Y-73660000D03*
%TD*%
%TO.C,U4*%
X140970000Y-73660000D03*
X133350000Y-91440000D03*
X140970000Y-76200000D03*
X133350000Y-88900000D03*
X140970000Y-78740000D03*
X133350000Y-86360000D03*
X140970000Y-81280000D03*
X133350000Y-83820000D03*
X140970000Y-83820000D03*
X133350000Y-81280000D03*
X140970000Y-86360000D03*
X133350000Y-78740000D03*
X140970000Y-88900000D03*
X133350000Y-76200000D03*
X140970000Y-91440000D03*
D16*
X133350000Y-73660000D03*
%TD*%
%TO.C,R4*%
G36*
G01*
X124009999Y-108890000D02*
X124910001Y-108890000D01*
G75*
G02*
X125160000Y-109139999I0J-249999D01*
G01*
X125160000Y-109840001D01*
G75*
G02*
X124910001Y-110090000I-249999J0D01*
G01*
X124009999Y-110090000D01*
G75*
G02*
X123760000Y-109840001I0J249999D01*
G01*
X123760000Y-109139999D01*
G75*
G02*
X124009999Y-108890000I249999J0D01*
G01*
G37*
G36*
G01*
X124009999Y-110890000D02*
X124910001Y-110890000D01*
G75*
G02*
X125160000Y-111139999I0J-249999D01*
G01*
X125160000Y-111840001D01*
G75*
G02*
X124910001Y-112090000I-249999J0D01*
G01*
X124009999Y-112090000D01*
G75*
G02*
X123760000Y-111840001I0J249999D01*
G01*
X123760000Y-111139999D01*
G75*
G02*
X124009999Y-110890000I249999J0D01*
G01*
G37*
%TD*%
D19*
%TO.C,U5*%
X124460000Y-106680000D03*
D20*
X101600000Y-114300000D03*
X121920000Y-106680000D03*
X104140000Y-114300000D03*
X119380000Y-106680000D03*
X106680000Y-114300000D03*
X116840000Y-106680000D03*
X109220000Y-114300000D03*
X114300000Y-106680000D03*
X111760000Y-114300000D03*
X111760000Y-106680000D03*
X114300000Y-114300000D03*
X109220000Y-106680000D03*
X116840000Y-114300000D03*
X106680000Y-106680000D03*
X119380000Y-114300000D03*
X104140000Y-106680000D03*
X121920000Y-114300000D03*
X101600000Y-106680000D03*
X124460000Y-114300000D03*
%TD*%
M02*
