%TF.GenerationSoftware,KiCad,Pcbnew,(5.1.8)-1*%
%TF.CreationDate,2025-01-30T23:00:43+03:00*%
%TF.ProjectId,Reg,5265672e-6b69-4636-9164-5f7063625858,rev?*%
%TF.SameCoordinates,Original*%
%TF.FileFunction,Copper,L2,Bot*%
%TF.FilePolarity,Positive*%
%FSLAX46Y46*%
G04 Gerber Fmt 4.6, Leading zero omitted, Abs format (unit mm)*
G04 Created by KiCad (PCBNEW (5.1.8)-1) date 2025-01-30 23:00:43*
%MOMM*%
%LPD*%
G01*
G04 APERTURE LIST*
%TA.AperFunction,NonConductor*%
%ADD10C,0.200000*%
%TD*%
%TA.AperFunction,ComponentPad*%
%ADD11R,2.200000X2.200000*%
%TD*%
%TA.AperFunction,ComponentPad*%
%ADD12O,1.500000X1.800000*%
%TD*%
%TA.AperFunction,ComponentPad*%
%ADD13R,1.500000X1.800000*%
%TD*%
%TA.AperFunction,ComponentPad*%
%ADD14O,1.600000X1.600000*%
%TD*%
%TA.AperFunction,ComponentPad*%
%ADD15R,1.600000X1.600000*%
%TD*%
%TA.AperFunction,ComponentPad*%
%ADD16R,2.100000X2.200000*%
%TD*%
%TA.AperFunction,ComponentPad*%
%ADD17O,2.100000X2.200000*%
%TD*%
%TA.AperFunction,ComponentPad*%
%ADD18O,2.000000X2.200000*%
%TD*%
%TA.AperFunction,ViaPad*%
%ADD19C,1.500000*%
%TD*%
%TA.AperFunction,Conductor*%
%ADD20C,0.600000*%
%TD*%
%TA.AperFunction,Conductor*%
%ADD21C,0.500000*%
%TD*%
G04 APERTURE END LIST*
D10*
X111442500Y-38735000D02*
G75*
G03*
X111442500Y-38735000I-317500J0D01*
G01*
D11*
%TO.P,J5,1*%
%TO.N,/Res*%
X76200000Y-53340000D03*
%TD*%
D12*
%TO.P,U1,20*%
%TO.N,VCC*%
X53340000Y-38100000D03*
%TO.P,U1,10*%
%TO.N,GND*%
X76200000Y-45720000D03*
%TO.P,U1,19*%
%TO.N,/L7*%
X55880000Y-38100000D03*
%TO.P,U1,9*%
%TO.N,/L1*%
X73660000Y-45720000D03*
%TO.P,U1,18*%
%TO.N,/D7*%
X58420000Y-38100000D03*
%TO.P,U1,8*%
%TO.N,/D1*%
X71120000Y-45720000D03*
%TO.P,U1,17*%
%TO.N,/D4*%
X60960000Y-38100000D03*
%TO.P,U1,7*%
%TO.N,/D2*%
X68580000Y-45720000D03*
%TO.P,U1,16*%
%TO.N,/L4*%
X63500000Y-38100000D03*
%TO.P,U1,6*%
%TO.N,/L2*%
X66040000Y-45720000D03*
%TO.P,U1,15*%
%TO.N,/L3*%
X66040000Y-38100000D03*
%TO.P,U1,5*%
%TO.N,/L5*%
X63500000Y-45720000D03*
%TO.P,U1,14*%
%TO.N,/D3*%
X68580000Y-38100000D03*
%TO.P,U1,4*%
%TO.N,/D5*%
X60960000Y-45720000D03*
%TO.P,U1,13*%
%TO.N,/D0*%
X71120000Y-38100000D03*
%TO.P,U1,3*%
%TO.N,/D6*%
X58420000Y-45720000D03*
%TO.P,U1,12*%
%TO.N,/L0*%
X73660000Y-38100000D03*
%TO.P,U1,2*%
%TO.N,/L6*%
X55880000Y-45720000D03*
%TO.P,U1,11*%
%TO.N,Net-(U1-Pad11)*%
X76200000Y-38100000D03*
D13*
%TO.P,U1,1*%
%TO.N,Net-(U1-Pad1)*%
X53340000Y-45720000D03*
%TD*%
D14*
%TO.P,U2,20*%
%TO.N,VCC*%
X83820000Y-38100000D03*
%TO.P,U2,10*%
%TO.N,GND*%
X106680000Y-45720000D03*
%TO.P,U2,19*%
%TO.N,/~CS*%
X86360000Y-38100000D03*
%TO.P,U2,9*%
%TO.N,/Q7*%
X104140000Y-45720000D03*
%TO.P,U2,18*%
%TO.N,/L0*%
X88900000Y-38100000D03*
%TO.P,U2,8*%
%TO.N,/Q6*%
X101600000Y-45720000D03*
D12*
%TO.P,U2,17*%
%TO.N,/L1*%
X91440000Y-38100000D03*
D14*
%TO.P,U2,7*%
%TO.N,/Q5*%
X99060000Y-45720000D03*
D12*
%TO.P,U2,16*%
%TO.N,/L2*%
X93980000Y-38100000D03*
D14*
%TO.P,U2,6*%
%TO.N,/Q4*%
X96520000Y-45720000D03*
%TO.P,U2,15*%
%TO.N,/L3*%
X96520000Y-38100000D03*
%TO.P,U2,5*%
%TO.N,/Q3*%
X93980000Y-45720000D03*
%TO.P,U2,14*%
%TO.N,/L4*%
X99060000Y-38100000D03*
%TO.P,U2,4*%
%TO.N,/Q2*%
X91440000Y-45720000D03*
%TO.P,U2,13*%
%TO.N,/L5*%
X101600000Y-38100000D03*
%TO.P,U2,3*%
%TO.N,/Q1*%
X88900000Y-45720000D03*
%TO.P,U2,12*%
%TO.N,/L6*%
X104140000Y-38100000D03*
%TO.P,U2,2*%
%TO.N,/Q0*%
X86360000Y-45720000D03*
%TO.P,U2,11*%
%TO.N,/L7*%
X106680000Y-38100000D03*
D15*
%TO.P,U2,1*%
%TO.N,GND*%
X83820000Y-45720000D03*
%TD*%
D16*
%TO.P,J1,1*%
%TO.N,/D0*%
X71120000Y-53340000D03*
D17*
%TO.P,J1,2*%
%TO.N,/D1*%
X68580000Y-53340000D03*
%TO.P,J1,3*%
%TO.N,/D2*%
X66040000Y-53340000D03*
%TO.P,J1,4*%
%TO.N,/D3*%
X63500000Y-53340000D03*
%TO.P,J1,5*%
%TO.N,/D4*%
X60960000Y-53340000D03*
%TO.P,J1,6*%
%TO.N,/D5*%
X58420000Y-53340000D03*
%TO.P,J1,7*%
%TO.N,/D6*%
X55880000Y-53340000D03*
D18*
%TO.P,J1,8*%
%TO.N,/D7*%
X53340000Y-53340000D03*
%TD*%
D17*
%TO.P,J2,8*%
%TO.N,/Q0*%
X88900000Y-53340000D03*
%TO.P,J2,7*%
%TO.N,/Q1*%
X91440000Y-53340000D03*
%TO.P,J2,6*%
%TO.N,/Q2*%
X93980000Y-53340000D03*
%TO.P,J2,5*%
%TO.N,/Q3*%
X96520000Y-53340000D03*
%TO.P,J2,4*%
%TO.N,/Q4*%
X99060000Y-53340000D03*
%TO.P,J2,3*%
%TO.N,/Q5*%
X101600000Y-53340000D03*
%TO.P,J2,2*%
%TO.N,/Q6*%
X104140000Y-53340000D03*
D16*
%TO.P,J2,1*%
%TO.N,/Q7*%
X106680000Y-53340000D03*
%TD*%
%TO.P,J3,1*%
%TO.N,VCC*%
X83820000Y-53340000D03*
D17*
%TO.P,J3,2*%
%TO.N,GND*%
X81280000Y-53340000D03*
%TD*%
D16*
%TO.P,J4,1*%
%TO.N,/~Row*%
X119380000Y-53340000D03*
D17*
%TO.P,J4,2*%
%TO.N,/~Col*%
X116840000Y-53340000D03*
%TO.P,J4,3*%
%TO.N,/~CS*%
X114300000Y-53340000D03*
%TD*%
%TO.P,U3,1*%
%TO.N,/Res*%
%TA.AperFunction,SMDPad,CuDef*%
G36*
G01*
X112245000Y-37825000D02*
X112545000Y-37825000D01*
G75*
G02*
X112695000Y-37975000I0J-150000D01*
G01*
X112695000Y-39625000D01*
G75*
G02*
X112545000Y-39775000I-150000J0D01*
G01*
X112245000Y-39775000D01*
G75*
G02*
X112095000Y-39625000I0J150000D01*
G01*
X112095000Y-37975000D01*
G75*
G02*
X112245000Y-37825000I150000J0D01*
G01*
G37*
%TD.AperFunction*%
%TO.P,U3,2*%
%TA.AperFunction,SMDPad,CuDef*%
G36*
G01*
X113515000Y-37825000D02*
X113815000Y-37825000D01*
G75*
G02*
X113965000Y-37975000I0J-150000D01*
G01*
X113965000Y-39625000D01*
G75*
G02*
X113815000Y-39775000I-150000J0D01*
G01*
X113515000Y-39775000D01*
G75*
G02*
X113365000Y-39625000I0J150000D01*
G01*
X113365000Y-37975000D01*
G75*
G02*
X113515000Y-37825000I150000J0D01*
G01*
G37*
%TD.AperFunction*%
%TO.P,U3,3*%
%TO.N,GND*%
%TA.AperFunction,SMDPad,CuDef*%
G36*
G01*
X114785000Y-37825000D02*
X115085000Y-37825000D01*
G75*
G02*
X115235000Y-37975000I0J-150000D01*
G01*
X115235000Y-39625000D01*
G75*
G02*
X115085000Y-39775000I-150000J0D01*
G01*
X114785000Y-39775000D01*
G75*
G02*
X114635000Y-39625000I0J150000D01*
G01*
X114635000Y-37975000D01*
G75*
G02*
X114785000Y-37825000I150000J0D01*
G01*
G37*
%TD.AperFunction*%
%TO.P,U3,4*%
%TA.AperFunction,SMDPad,CuDef*%
G36*
G01*
X116055000Y-37825000D02*
X116355000Y-37825000D01*
G75*
G02*
X116505000Y-37975000I0J-150000D01*
G01*
X116505000Y-39625000D01*
G75*
G02*
X116355000Y-39775000I-150000J0D01*
G01*
X116055000Y-39775000D01*
G75*
G02*
X115905000Y-39625000I0J150000D01*
G01*
X115905000Y-37975000D01*
G75*
G02*
X116055000Y-37825000I150000J0D01*
G01*
G37*
%TD.AperFunction*%
%TO.P,U3,5*%
%TA.AperFunction,SMDPad,CuDef*%
G36*
G01*
X117325000Y-37825000D02*
X117625000Y-37825000D01*
G75*
G02*
X117775000Y-37975000I0J-150000D01*
G01*
X117775000Y-39625000D01*
G75*
G02*
X117625000Y-39775000I-150000J0D01*
G01*
X117325000Y-39775000D01*
G75*
G02*
X117175000Y-39625000I0J150000D01*
G01*
X117175000Y-37975000D01*
G75*
G02*
X117325000Y-37825000I150000J0D01*
G01*
G37*
%TD.AperFunction*%
%TO.P,U3,6*%
%TO.N,Net-(U3-Pad6)*%
%TA.AperFunction,SMDPad,CuDef*%
G36*
G01*
X118595000Y-37825000D02*
X118895000Y-37825000D01*
G75*
G02*
X119045000Y-37975000I0J-150000D01*
G01*
X119045000Y-39625000D01*
G75*
G02*
X118895000Y-39775000I-150000J0D01*
G01*
X118595000Y-39775000D01*
G75*
G02*
X118445000Y-39625000I0J150000D01*
G01*
X118445000Y-37975000D01*
G75*
G02*
X118595000Y-37825000I150000J0D01*
G01*
G37*
%TD.AperFunction*%
%TO.P,U3,7*%
%TO.N,GND*%
%TA.AperFunction,SMDPad,CuDef*%
G36*
G01*
X119865000Y-37825000D02*
X120165000Y-37825000D01*
G75*
G02*
X120315000Y-37975000I0J-150000D01*
G01*
X120315000Y-39625000D01*
G75*
G02*
X120165000Y-39775000I-150000J0D01*
G01*
X119865000Y-39775000D01*
G75*
G02*
X119715000Y-39625000I0J150000D01*
G01*
X119715000Y-37975000D01*
G75*
G02*
X119865000Y-37825000I150000J0D01*
G01*
G37*
%TD.AperFunction*%
%TO.P,U3,8*%
%TO.N,Net-(U1-Pad11)*%
%TA.AperFunction,SMDPad,CuDef*%
G36*
G01*
X119865000Y-42775000D02*
X120165000Y-42775000D01*
G75*
G02*
X120315000Y-42925000I0J-150000D01*
G01*
X120315000Y-44575000D01*
G75*
G02*
X120165000Y-44725000I-150000J0D01*
G01*
X119865000Y-44725000D01*
G75*
G02*
X119715000Y-44575000I0J150000D01*
G01*
X119715000Y-42925000D01*
G75*
G02*
X119865000Y-42775000I150000J0D01*
G01*
G37*
%TD.AperFunction*%
%TO.P,U3,9*%
%TO.N,/~Row*%
%TA.AperFunction,SMDPad,CuDef*%
G36*
G01*
X118595000Y-42775000D02*
X118895000Y-42775000D01*
G75*
G02*
X119045000Y-42925000I0J-150000D01*
G01*
X119045000Y-44575000D01*
G75*
G02*
X118895000Y-44725000I-150000J0D01*
G01*
X118595000Y-44725000D01*
G75*
G02*
X118445000Y-44575000I0J150000D01*
G01*
X118445000Y-42925000D01*
G75*
G02*
X118595000Y-42775000I150000J0D01*
G01*
G37*
%TD.AperFunction*%
%TO.P,U3,10*%
%TO.N,/~Col*%
%TA.AperFunction,SMDPad,CuDef*%
G36*
G01*
X117325000Y-42775000D02*
X117625000Y-42775000D01*
G75*
G02*
X117775000Y-42925000I0J-150000D01*
G01*
X117775000Y-44575000D01*
G75*
G02*
X117625000Y-44725000I-150000J0D01*
G01*
X117325000Y-44725000D01*
G75*
G02*
X117175000Y-44575000I0J150000D01*
G01*
X117175000Y-42925000D01*
G75*
G02*
X117325000Y-42775000I150000J0D01*
G01*
G37*
%TD.AperFunction*%
%TO.P,U3,11*%
%TO.N,/~CS*%
%TA.AperFunction,SMDPad,CuDef*%
G36*
G01*
X116055000Y-42775000D02*
X116355000Y-42775000D01*
G75*
G02*
X116505000Y-42925000I0J-150000D01*
G01*
X116505000Y-44575000D01*
G75*
G02*
X116355000Y-44725000I-150000J0D01*
G01*
X116055000Y-44725000D01*
G75*
G02*
X115905000Y-44575000I0J150000D01*
G01*
X115905000Y-42925000D01*
G75*
G02*
X116055000Y-42775000I150000J0D01*
G01*
G37*
%TD.AperFunction*%
%TO.P,U3,12*%
%TO.N,Net-(U1-Pad1)*%
%TA.AperFunction,SMDPad,CuDef*%
G36*
G01*
X114785000Y-42775000D02*
X115085000Y-42775000D01*
G75*
G02*
X115235000Y-42925000I0J-150000D01*
G01*
X115235000Y-44575000D01*
G75*
G02*
X115085000Y-44725000I-150000J0D01*
G01*
X114785000Y-44725000D01*
G75*
G02*
X114635000Y-44575000I0J150000D01*
G01*
X114635000Y-42925000D01*
G75*
G02*
X114785000Y-42775000I150000J0D01*
G01*
G37*
%TD.AperFunction*%
%TO.P,U3,13*%
%TO.N,/Res*%
%TA.AperFunction,SMDPad,CuDef*%
G36*
G01*
X113515000Y-42775000D02*
X113815000Y-42775000D01*
G75*
G02*
X113965000Y-42925000I0J-150000D01*
G01*
X113965000Y-44575000D01*
G75*
G02*
X113815000Y-44725000I-150000J0D01*
G01*
X113515000Y-44725000D01*
G75*
G02*
X113365000Y-44575000I0J150000D01*
G01*
X113365000Y-42925000D01*
G75*
G02*
X113515000Y-42775000I150000J0D01*
G01*
G37*
%TD.AperFunction*%
%TO.P,U3,14*%
%TO.N,VCC*%
%TA.AperFunction,SMDPad,CuDef*%
G36*
G01*
X112245000Y-42775000D02*
X112545000Y-42775000D01*
G75*
G02*
X112695000Y-42925000I0J-150000D01*
G01*
X112695000Y-44575000D01*
G75*
G02*
X112545000Y-44725000I-150000J0D01*
G01*
X112245000Y-44725000D01*
G75*
G02*
X112095000Y-44575000I0J150000D01*
G01*
X112095000Y-42925000D01*
G75*
G02*
X112245000Y-42775000I150000J0D01*
G01*
G37*
%TD.AperFunction*%
%TD*%
D19*
%TO.N,VCC*%
X106680000Y-48260000D03*
%TO.N,Net-(U1-Pad11)*%
X71755000Y-23495000D03*
%TO.N,/L2*%
X87630000Y-36195000D03*
%TO.N,/L3*%
X86360000Y-34290000D03*
%TO.N,/L4*%
X83820000Y-32385000D03*
%TO.N,/L5*%
X81280000Y-30480000D03*
%TO.N,/L6*%
X78740000Y-28575000D03*
%TO.N,/L7*%
X74295000Y-26670000D03*
%TD*%
D20*
%TO.N,VCC*%
X112330000Y-43815000D02*
X112395000Y-43750000D01*
D21*
X106680000Y-48260000D02*
X106680000Y-48260000D01*
X112395000Y-45720000D02*
X112395000Y-43750000D01*
D20*
X109855000Y-48260000D02*
X112395000Y-45720000D01*
X106680000Y-48260000D02*
X109855000Y-48260000D01*
%TO.N,GND*%
X83820000Y-43815000D02*
X83820000Y-45720000D01*
X83820000Y-43815000D02*
X106680000Y-43815000D01*
X81280000Y-45720000D02*
X81280000Y-53340000D01*
X106680000Y-43815000D02*
X106680000Y-45720000D01*
D21*
X120015000Y-36830000D02*
X120015000Y-38800000D01*
D20*
X108585000Y-41910000D02*
X108585000Y-36830000D01*
X106680000Y-43815000D02*
X108585000Y-41910000D01*
D21*
X114935000Y-36195000D02*
X114935000Y-38800000D01*
X116205000Y-36195000D02*
X116205000Y-38800000D01*
X117475000Y-36195000D02*
X117475000Y-38800000D01*
D20*
X76200000Y-45720000D02*
X81280000Y-45720000D01*
X83820000Y-45720000D02*
X81280000Y-45720000D01*
X109220000Y-36195000D02*
X108585000Y-36830000D01*
X117475000Y-36195000D02*
X109220000Y-36195000D01*
X119380000Y-36195000D02*
X120015000Y-36830000D01*
X117475000Y-36195000D02*
X119380000Y-36195000D01*
D21*
%TO.N,/D7*%
X58420000Y-41910000D02*
X57150000Y-43180000D01*
X58420000Y-38100000D02*
X58420000Y-41910000D01*
D20*
X53340000Y-53340000D02*
X53340000Y-52070000D01*
X53340000Y-52070000D02*
X57150000Y-48260000D01*
D21*
X57150000Y-43180000D02*
X57150000Y-48260000D01*
D20*
%TO.N,/D6*%
X58420000Y-45720000D02*
X58420000Y-48895000D01*
X55880000Y-51435000D02*
X55880000Y-53340000D01*
X58420000Y-48895000D02*
X55880000Y-51435000D01*
%TO.N,/D5*%
X60960000Y-45720000D02*
X60960000Y-48895000D01*
X58420000Y-51435000D02*
X58420000Y-53340000D01*
X60960000Y-48895000D02*
X58420000Y-51435000D01*
D21*
%TO.N,/D4*%
X62230000Y-43180000D02*
X62230000Y-49530000D01*
X60960000Y-41910000D02*
X62230000Y-43180000D01*
X60960000Y-38100000D02*
X60960000Y-41910000D01*
D20*
X60960000Y-51435000D02*
X62230000Y-50165000D01*
X60960000Y-53340000D02*
X60960000Y-51435000D01*
X62230000Y-50165000D02*
X62230000Y-49530000D01*
D21*
%TO.N,/D3*%
X68580000Y-41910000D02*
X67310000Y-43180000D01*
X68580000Y-38100000D02*
X68580000Y-41910000D01*
D20*
X63500000Y-51435000D02*
X67310000Y-47625000D01*
X63500000Y-53340000D02*
X63500000Y-51435000D01*
D21*
X67310000Y-43180000D02*
X67310000Y-47625000D01*
D20*
%TO.N,/D2*%
X68580000Y-45720000D02*
X68580000Y-48895000D01*
X66040000Y-51435000D02*
X66040000Y-53340000D01*
X68580000Y-48895000D02*
X66040000Y-51435000D01*
%TO.N,/D1*%
X71120000Y-45720000D02*
X71120000Y-48895000D01*
X68580000Y-51435000D02*
X68580000Y-53340000D01*
X71120000Y-48895000D02*
X68580000Y-51435000D01*
D21*
%TO.N,/D0*%
X72390000Y-43180000D02*
X72390000Y-49530000D01*
X71120000Y-41910000D02*
X72390000Y-43180000D01*
X71120000Y-38100000D02*
X71120000Y-41910000D01*
D20*
X71120000Y-50800000D02*
X72390000Y-49530000D01*
X71120000Y-53340000D02*
X71120000Y-50800000D01*
%TO.N,/Q0*%
X86360000Y-45720000D02*
X86360000Y-48260000D01*
X88900000Y-50800000D02*
X88900000Y-53340000D01*
X86360000Y-48260000D02*
X88900000Y-50800000D01*
%TO.N,/Q1*%
X88900000Y-45720000D02*
X88900000Y-48260000D01*
X91440000Y-50800000D02*
X91440000Y-53340000D01*
X88900000Y-48260000D02*
X91440000Y-50800000D01*
%TO.N,/Q2*%
X91440000Y-45720000D02*
X91440000Y-48260000D01*
X91440000Y-48260000D02*
X93980000Y-50800000D01*
X93980000Y-50800000D02*
X93980000Y-53340000D01*
%TO.N,/Q3*%
X93980000Y-45720000D02*
X93980000Y-48260000D01*
X96520000Y-50800000D02*
X96520000Y-53340000D01*
X93980000Y-48260000D02*
X96520000Y-50800000D01*
%TO.N,/Q4*%
X96520000Y-45720000D02*
X96520000Y-48260000D01*
X99060000Y-50800000D02*
X99060000Y-53340000D01*
X96520000Y-48260000D02*
X99060000Y-50800000D01*
%TO.N,/Q5*%
X99060000Y-45720000D02*
X99060000Y-48260000D01*
X101600000Y-50800000D02*
X101600000Y-53340000D01*
X99060000Y-48260000D02*
X101600000Y-50800000D01*
%TO.N,/Q6*%
X101600000Y-45720000D02*
X101600000Y-48260000D01*
X104140000Y-50800000D02*
X104140000Y-53340000D01*
X101600000Y-48260000D02*
X104140000Y-50800000D01*
%TO.N,/Q7*%
X104140000Y-45720000D02*
X104140000Y-48260000D01*
X106680000Y-50800000D02*
X106680000Y-53340000D01*
X104140000Y-48260000D02*
X106680000Y-50800000D01*
D21*
%TO.N,Net-(U1-Pad11)*%
X120715000Y-43750000D02*
X120967500Y-43497500D01*
X120015000Y-43750000D02*
X120715000Y-43750000D01*
D20*
X109537500Y-23495000D02*
X71755000Y-23495000D01*
D21*
X120967500Y-43497500D02*
X120967500Y-36195000D01*
X73660000Y-23495000D02*
X73660000Y-23495000D01*
D20*
X120967500Y-34925000D02*
X120808750Y-34766250D01*
X120967500Y-36195000D02*
X120967500Y-34925000D01*
X120808750Y-34766250D02*
X109537500Y-23495000D01*
D21*
%TO.N,/~Row*%
X118745000Y-49530000D02*
X118745000Y-43750000D01*
X119380000Y-50165000D02*
X118745000Y-49530000D01*
X119380000Y-53340000D02*
X119380000Y-50165000D01*
%TO.N,/~Col*%
X117475000Y-43750000D02*
X117475000Y-49530000D01*
X116840000Y-50165000D02*
X117475000Y-49530000D01*
X116840000Y-53340000D02*
X116840000Y-50165000D01*
%TO.N,/~CS*%
X116205000Y-43750000D02*
X116205000Y-48260000D01*
X114300000Y-50165000D02*
X116205000Y-48260000D01*
X114300000Y-53340000D02*
X114300000Y-50165000D01*
D20*
%TO.N,/L0*%
X88900000Y-38100000D02*
X88900000Y-40005000D01*
X73660000Y-38100000D02*
X73660000Y-40005000D01*
X73660000Y-40005000D02*
X88900000Y-40005000D01*
%TO.N,/L1*%
X91440000Y-41275000D02*
X91440000Y-38100000D01*
X91440000Y-41910000D02*
X91440000Y-41275000D01*
X73660000Y-45720000D02*
X73660000Y-41910000D01*
X73660000Y-41910000D02*
X91440000Y-41910000D01*
D21*
%TO.N,/L2*%
X66040000Y-41910000D02*
X66040000Y-45720000D01*
X67310000Y-40640000D02*
X66040000Y-41910000D01*
D20*
X93980000Y-36195000D02*
X93980000Y-38100000D01*
D21*
X67310000Y-36195000D02*
X67310000Y-40640000D01*
D20*
X93980000Y-36195000D02*
X67310000Y-36195000D01*
%TO.N,/L3*%
X96520000Y-34290000D02*
X96520000Y-38100000D01*
X66040000Y-34925000D02*
X66675000Y-34290000D01*
X66675000Y-34290000D02*
X96520000Y-34290000D01*
X66040000Y-34925000D02*
X66040000Y-38100000D01*
%TO.N,/L4*%
X99060000Y-33020000D02*
X98425000Y-32385000D01*
X99060000Y-38100000D02*
X99060000Y-33020000D01*
X63500000Y-34925000D02*
X66040000Y-32385000D01*
X66040000Y-32385000D02*
X98425000Y-32385000D01*
X63500000Y-34925000D02*
X63500000Y-38100000D01*
D21*
%TO.N,/L5*%
X62230000Y-40640000D02*
X62230000Y-36195000D01*
X63500000Y-41910000D02*
X62230000Y-40640000D01*
X63500000Y-45720000D02*
X63500000Y-41910000D01*
D20*
X101600000Y-33020000D02*
X101600000Y-38100000D01*
X99060000Y-30480000D02*
X101600000Y-33020000D01*
X62230000Y-33020000D02*
X64770000Y-30480000D01*
X64770000Y-30480000D02*
X99060000Y-30480000D01*
X62230000Y-36195000D02*
X62230000Y-33020000D01*
D21*
%TO.N,/L6*%
X57150000Y-40640000D02*
X57150000Y-36195000D01*
X55880000Y-41910000D02*
X57150000Y-40640000D01*
X55880000Y-45720000D02*
X55880000Y-41910000D01*
D20*
X104140000Y-33020000D02*
X99695000Y-28575000D01*
X104140000Y-38100000D02*
X104140000Y-33020000D01*
X57150000Y-34925000D02*
X63500000Y-28575000D01*
X63500000Y-28575000D02*
X99695000Y-28575000D01*
X57150000Y-36195000D02*
X57150000Y-34925000D01*
%TO.N,/L7*%
X106680000Y-33020000D02*
X106680000Y-38100000D01*
X100330000Y-26670000D02*
X106680000Y-33020000D01*
X62230000Y-26670000D02*
X100330000Y-26670000D01*
X55880000Y-33020000D02*
X62230000Y-26670000D01*
X55880000Y-38100000D02*
X55880000Y-33020000D01*
D21*
%TO.N,/Res*%
X112395000Y-38800000D02*
X112395000Y-41275000D01*
X112395000Y-41275000D02*
X113665000Y-41275000D01*
X113665000Y-41275000D02*
X113665000Y-43750000D01*
X113665000Y-38800000D02*
X113665000Y-41275000D01*
X113665000Y-46355000D02*
X113665000Y-43750000D01*
X110490000Y-49530000D02*
X113665000Y-46355000D01*
X110490000Y-53975000D02*
X110490000Y-49530000D01*
X109220000Y-55245000D02*
X110490000Y-53975000D01*
X76200000Y-55245000D02*
X109220000Y-55245000D01*
X76200000Y-53340000D02*
X76200000Y-55245000D01*
%TO.N,Net-(U1-Pad1)*%
X110363000Y-56007000D02*
X109982000Y-56007000D01*
X73660000Y-56007000D02*
X109982000Y-56007000D01*
X111125000Y-55245000D02*
X110363000Y-56007000D01*
X110490000Y-55880000D02*
X111125000Y-55245000D01*
D20*
X52070000Y-55880000D02*
X73660000Y-55880000D01*
X53340000Y-45720000D02*
X53340000Y-49530000D01*
D21*
X114935000Y-46990000D02*
X114935000Y-43750000D01*
X111760000Y-50165000D02*
X114935000Y-46990000D01*
X111760000Y-54610000D02*
X111760000Y-50165000D01*
X111125000Y-55245000D02*
X111760000Y-54610000D01*
D20*
X51593750Y-51276250D02*
X51593750Y-55403750D01*
X51593750Y-55403750D02*
X52070000Y-55880000D01*
X53340000Y-49530000D02*
X51593750Y-51276250D01*
%TD*%
M02*
