M48
METRIC
T1C0.500
T2C0.800
T3C1.000
%
G90
G05
T1
X71.755Y-23.495
X74.295Y-26.67
X78.74Y-28.575
X81.28Y-30.48
X83.82Y-32.385
X86.36Y-34.29
X87.63Y-36.195
X106.68Y-48.26
T2
X53.34Y-38.1
X53.34Y-45.72
X55.88Y-38.1
X55.88Y-45.72
X58.42Y-38.1
X58.42Y-45.72
X60.96Y-38.1
X60.96Y-45.72
X63.5Y-38.1
X63.5Y-45.72
X66.04Y-38.1
X66.04Y-45.72
X68.58Y-38.1
X68.58Y-45.72
X71.12Y-38.1
X71.12Y-45.72
X73.66Y-38.1
X73.66Y-45.72
X76.2Y-38.1
X76.2Y-45.72
X83.82Y-38.1
X83.82Y-45.72
X86.36Y-38.1
X86.36Y-45.72
X88.9Y-38.1
X88.9Y-45.72
X91.44Y-38.1
X91.44Y-45.72
X93.98Y-38.1
X93.98Y-45.72
X96.52Y-38.1
X96.52Y-45.72
X99.06Y-38.1
X99.06Y-45.72
X101.6Y-38.1
X101.6Y-45.72
X104.14Y-38.1
X104.14Y-45.72
X106.68Y-38.1
X106.68Y-45.72
T3
X88.9Y-53.34
X91.44Y-53.34
X93.98Y-53.34
X96.52Y-53.34
X99.06Y-53.34
X101.6Y-53.34
X104.14Y-53.34
X106.68Y-53.34
X114.3Y-53.34
X116.84Y-53.34
X119.38Y-53.34
X81.28Y-53.34
X83.82Y-53.34
X53.34Y-53.34
X55.88Y-53.34
X58.42Y-53.34
X60.96Y-53.34
X63.5Y-53.34
X66.04Y-53.34
X68.58Y-53.34
X71.12Y-53.34
X76.2Y-53.34
T0
M30
