%TF.GenerationSoftware,KiCad,Pcbnew,(5.1.8)-1*%
%TF.CreationDate,2022-11-12T22:57:05+03:00*%
%TF.ProjectId,MUX4x1,4d555834-7831-42e6-9b69-6361645f7063,rev?*%
%TF.SameCoordinates,Original*%
%TF.FileFunction,Soldermask,Top*%
%TF.FilePolarity,Negative*%
%FSLAX46Y46*%
G04 Gerber Fmt 4.6, Leading zero omitted, Abs format (unit mm)*
G04 Created by KiCad (PCBNEW (5.1.8)-1) date 2022-11-12 22:57:05*
%MOMM*%
%LPD*%
G01*
G04 APERTURE LIST*
%ADD10O,2.200000X2.200000*%
%ADD11R,2.200000X2.200000*%
%ADD12O,1.800000X1.500000*%
%ADD13R,1.800000X1.500000*%
%ADD14O,2.000000X1.500000*%
%ADD15R,2.000000X1.500000*%
%ADD16C,3.200000*%
%ADD17R,2.600000X2.600000*%
%ADD18C,2.600000*%
G04 APERTURE END LIST*
%TO.C,C2*%
G36*
G01*
X136685000Y-87445000D02*
X137635000Y-87445000D01*
G75*
G02*
X137885000Y-87695000I0J-250000D01*
G01*
X137885000Y-88370000D01*
G75*
G02*
X137635000Y-88620000I-250000J0D01*
G01*
X136685000Y-88620000D01*
G75*
G02*
X136435000Y-88370000I0J250000D01*
G01*
X136435000Y-87695000D01*
G75*
G02*
X136685000Y-87445000I250000J0D01*
G01*
G37*
G36*
G01*
X136685000Y-85370000D02*
X137635000Y-85370000D01*
G75*
G02*
X137885000Y-85620000I0J-250000D01*
G01*
X137885000Y-86295000D01*
G75*
G02*
X137635000Y-86545000I-250000J0D01*
G01*
X136685000Y-86545000D01*
G75*
G02*
X136435000Y-86295000I0J250000D01*
G01*
X136435000Y-85620000D01*
G75*
G02*
X136685000Y-85370000I250000J0D01*
G01*
G37*
%TD*%
%TO.C,C1*%
G36*
G01*
X91282500Y-79275000D02*
X92232500Y-79275000D01*
G75*
G02*
X92482500Y-79525000I0J-250000D01*
G01*
X92482500Y-80200000D01*
G75*
G02*
X92232500Y-80450000I-250000J0D01*
G01*
X91282500Y-80450000D01*
G75*
G02*
X91032500Y-80200000I0J250000D01*
G01*
X91032500Y-79525000D01*
G75*
G02*
X91282500Y-79275000I250000J0D01*
G01*
G37*
G36*
G01*
X91282500Y-77200000D02*
X92232500Y-77200000D01*
G75*
G02*
X92482500Y-77450000I0J-250000D01*
G01*
X92482500Y-78125000D01*
G75*
G02*
X92232500Y-78375000I-250000J0D01*
G01*
X91282500Y-78375000D01*
G75*
G02*
X91032500Y-78125000I0J250000D01*
G01*
X91032500Y-77450000D01*
G75*
G02*
X91282500Y-77200000I250000J0D01*
G01*
G37*
%TD*%
D10*
%TO.C,J12*%
X121920000Y-108902500D03*
X119380000Y-108902500D03*
X116840000Y-108902500D03*
X114300000Y-108902500D03*
X111760000Y-108902500D03*
X109220000Y-108902500D03*
X106680000Y-108902500D03*
X104140000Y-108902500D03*
D11*
X101600000Y-108902500D03*
%TD*%
D10*
%TO.C,J11*%
X156210000Y-81280000D03*
X156210000Y-78740000D03*
X156210000Y-76200000D03*
X156210000Y-73660000D03*
X156210000Y-71120000D03*
X156210000Y-68580000D03*
X156210000Y-66040000D03*
X156210000Y-63500000D03*
D11*
X156210000Y-60960000D03*
%TD*%
D10*
%TO.C,J10*%
X73660000Y-81280000D03*
X73660000Y-78740000D03*
X73660000Y-76200000D03*
X73660000Y-73660000D03*
X73660000Y-71120000D03*
X73660000Y-68580000D03*
X73660000Y-66040000D03*
X73660000Y-63500000D03*
D11*
X73660000Y-60960000D03*
%TD*%
D10*
%TO.C,J9*%
X156210000Y-106680000D03*
X156210000Y-104140000D03*
X156210000Y-101600000D03*
X156210000Y-99060000D03*
X156210000Y-96520000D03*
X156210000Y-93980000D03*
X156210000Y-91440000D03*
X156210000Y-88900000D03*
D11*
X156210000Y-86360000D03*
%TD*%
D10*
%TO.C,J8*%
X73660000Y-106680000D03*
X73660000Y-104140000D03*
X73660000Y-101600000D03*
X73660000Y-99060000D03*
X73660000Y-96520000D03*
X73660000Y-93980000D03*
X73660000Y-91440000D03*
X73660000Y-88900000D03*
D11*
X73660000Y-86360000D03*
%TD*%
D12*
%TO.C,U2*%
X110490000Y-73660000D03*
X102870000Y-91440000D03*
X110490000Y-76200000D03*
X102870000Y-88900000D03*
X110490000Y-78740000D03*
X102870000Y-86360000D03*
X110490000Y-81280000D03*
X102870000Y-83820000D03*
X110490000Y-83820000D03*
X102870000Y-81280000D03*
X110490000Y-86360000D03*
X102870000Y-78740000D03*
X110490000Y-88900000D03*
X102870000Y-76200000D03*
X110490000Y-91440000D03*
D13*
X102870000Y-73660000D03*
%TD*%
%TO.C,R1*%
G36*
G01*
X149727499Y-83902500D02*
X150627501Y-83902500D01*
G75*
G02*
X150877500Y-84152499I0J-249999D01*
G01*
X150877500Y-84852501D01*
G75*
G02*
X150627501Y-85102500I-249999J0D01*
G01*
X149727499Y-85102500D01*
G75*
G02*
X149477500Y-84852501I0J249999D01*
G01*
X149477500Y-84152499D01*
G75*
G02*
X149727499Y-83902500I249999J0D01*
G01*
G37*
G36*
G01*
X149727499Y-81902500D02*
X150627501Y-81902500D01*
G75*
G02*
X150877500Y-82152499I0J-249999D01*
G01*
X150877500Y-82852501D01*
G75*
G02*
X150627501Y-83102500I-249999J0D01*
G01*
X149727499Y-83102500D01*
G75*
G02*
X149477500Y-82852501I0J249999D01*
G01*
X149477500Y-82152499D01*
G75*
G02*
X149727499Y-81902500I249999J0D01*
G01*
G37*
%TD*%
D14*
%TO.C,J7*%
X144780000Y-74295000D03*
X144780000Y-76835000D03*
D15*
X144780000Y-79375000D03*
%TD*%
D16*
%TO.C,H1*%
X83820000Y-62230000D03*
%TD*%
%TO.C,H2*%
X146050000Y-105410000D03*
%TD*%
D17*
%TO.C,J1*%
X83185000Y-104775000D03*
D18*
X88185000Y-104775000D03*
%TD*%
D11*
%TO.C,J2*%
X76835000Y-86360000D03*
D10*
X76835000Y-88900000D03*
X76835000Y-91440000D03*
X76835000Y-93980000D03*
X76835000Y-96520000D03*
X76835000Y-99060000D03*
X76835000Y-101600000D03*
X76835000Y-104140000D03*
X76835000Y-106680000D03*
%TD*%
%TO.C,J3*%
X153035000Y-106680000D03*
X153035000Y-104140000D03*
X153035000Y-101600000D03*
X153035000Y-99060000D03*
X153035000Y-96520000D03*
X153035000Y-93980000D03*
X153035000Y-91440000D03*
X153035000Y-88900000D03*
D11*
X153035000Y-86360000D03*
%TD*%
%TO.C,J4*%
X76835000Y-60960000D03*
D10*
X76835000Y-63500000D03*
X76835000Y-66040000D03*
X76835000Y-68580000D03*
X76835000Y-71120000D03*
X76835000Y-73660000D03*
X76835000Y-76200000D03*
X76835000Y-78740000D03*
X76835000Y-81280000D03*
%TD*%
%TO.C,J5*%
X153035000Y-81280000D03*
X153035000Y-78740000D03*
X153035000Y-76200000D03*
X153035000Y-73660000D03*
X153035000Y-71120000D03*
X153035000Y-68580000D03*
X153035000Y-66040000D03*
X153035000Y-63500000D03*
D11*
X153035000Y-60960000D03*
%TD*%
%TO.C,J6*%
X101600000Y-106045000D03*
D10*
X104140000Y-106045000D03*
X106680000Y-106045000D03*
X109220000Y-106045000D03*
X111760000Y-106045000D03*
X114300000Y-106045000D03*
X116840000Y-106045000D03*
X119380000Y-106045000D03*
X121920000Y-106045000D03*
%TD*%
D13*
%TO.C,U1*%
X87630000Y-73660000D03*
D12*
X95250000Y-91440000D03*
X87630000Y-76200000D03*
X95250000Y-88900000D03*
X87630000Y-78740000D03*
X95250000Y-86360000D03*
X87630000Y-81280000D03*
X95250000Y-83820000D03*
X87630000Y-83820000D03*
X95250000Y-81280000D03*
X87630000Y-86360000D03*
X95250000Y-78740000D03*
X87630000Y-88900000D03*
X95250000Y-76200000D03*
X87630000Y-91440000D03*
X95250000Y-73660000D03*
%TD*%
D13*
%TO.C,U3*%
X118110000Y-73660000D03*
D12*
X125730000Y-91440000D03*
X118110000Y-76200000D03*
X125730000Y-88900000D03*
X118110000Y-78740000D03*
X125730000Y-86360000D03*
X118110000Y-81280000D03*
X125730000Y-83820000D03*
X118110000Y-83820000D03*
X125730000Y-81280000D03*
X118110000Y-86360000D03*
X125730000Y-78740000D03*
X118110000Y-88900000D03*
X125730000Y-76200000D03*
X118110000Y-91440000D03*
X125730000Y-73660000D03*
%TD*%
%TO.C,U4*%
X140970000Y-73660000D03*
X133350000Y-91440000D03*
X140970000Y-76200000D03*
X133350000Y-88900000D03*
X140970000Y-78740000D03*
X133350000Y-86360000D03*
X140970000Y-81280000D03*
X133350000Y-83820000D03*
X140970000Y-83820000D03*
X133350000Y-81280000D03*
X140970000Y-86360000D03*
X133350000Y-78740000D03*
X140970000Y-88900000D03*
X133350000Y-76200000D03*
X140970000Y-91440000D03*
D13*
X133350000Y-73660000D03*
%TD*%
%TO.C,D1*%
G36*
G01*
X146500001Y-99390000D02*
X145599999Y-99390000D01*
G75*
G02*
X145350000Y-99140001I0J249999D01*
G01*
X145350000Y-98489999D01*
G75*
G02*
X145599999Y-98240000I249999J0D01*
G01*
X146500001Y-98240000D01*
G75*
G02*
X146750000Y-98489999I0J-249999D01*
G01*
X146750000Y-99140001D01*
G75*
G02*
X146500001Y-99390000I-249999J0D01*
G01*
G37*
G36*
G01*
X146500001Y-97340000D02*
X145599999Y-97340000D01*
G75*
G02*
X145350000Y-97090001I0J249999D01*
G01*
X145350000Y-96439999D01*
G75*
G02*
X145599999Y-96190000I249999J0D01*
G01*
X146500001Y-96190000D01*
G75*
G02*
X146750000Y-96439999I0J-249999D01*
G01*
X146750000Y-97090001D01*
G75*
G02*
X146500001Y-97340000I-249999J0D01*
G01*
G37*
%TD*%
%TO.C,D2*%
G36*
G01*
X149040001Y-97340000D02*
X148139999Y-97340000D01*
G75*
G02*
X147890000Y-97090001I0J249999D01*
G01*
X147890000Y-96439999D01*
G75*
G02*
X148139999Y-96190000I249999J0D01*
G01*
X149040001Y-96190000D01*
G75*
G02*
X149290000Y-96439999I0J-249999D01*
G01*
X149290000Y-97090001D01*
G75*
G02*
X149040001Y-97340000I-249999J0D01*
G01*
G37*
G36*
G01*
X149040001Y-99390000D02*
X148139999Y-99390000D01*
G75*
G02*
X147890000Y-99140001I0J249999D01*
G01*
X147890000Y-98489999D01*
G75*
G02*
X148139999Y-98240000I249999J0D01*
G01*
X149040001Y-98240000D01*
G75*
G02*
X149290000Y-98489999I0J-249999D01*
G01*
X149290000Y-99140001D01*
G75*
G02*
X149040001Y-99390000I-249999J0D01*
G01*
G37*
%TD*%
%TO.C,R2*%
G36*
G01*
X146500001Y-92310000D02*
X145599999Y-92310000D01*
G75*
G02*
X145350000Y-92060001I0J249999D01*
G01*
X145350000Y-91359999D01*
G75*
G02*
X145599999Y-91110000I249999J0D01*
G01*
X146500001Y-91110000D01*
G75*
G02*
X146750000Y-91359999I0J-249999D01*
G01*
X146750000Y-92060001D01*
G75*
G02*
X146500001Y-92310000I-249999J0D01*
G01*
G37*
G36*
G01*
X146500001Y-94310000D02*
X145599999Y-94310000D01*
G75*
G02*
X145350000Y-94060001I0J249999D01*
G01*
X145350000Y-93359999D01*
G75*
G02*
X145599999Y-93110000I249999J0D01*
G01*
X146500001Y-93110000D01*
G75*
G02*
X146750000Y-93359999I0J-249999D01*
G01*
X146750000Y-94060001D01*
G75*
G02*
X146500001Y-94310000I-249999J0D01*
G01*
G37*
%TD*%
%TO.C,R3*%
G36*
G01*
X149040001Y-94310000D02*
X148139999Y-94310000D01*
G75*
G02*
X147890000Y-94060001I0J249999D01*
G01*
X147890000Y-93359999D01*
G75*
G02*
X148139999Y-93110000I249999J0D01*
G01*
X149040001Y-93110000D01*
G75*
G02*
X149290000Y-93359999I0J-249999D01*
G01*
X149290000Y-94060001D01*
G75*
G02*
X149040001Y-94310000I-249999J0D01*
G01*
G37*
G36*
G01*
X149040001Y-92310000D02*
X148139999Y-92310000D01*
G75*
G02*
X147890000Y-92060001I0J249999D01*
G01*
X147890000Y-91359999D01*
G75*
G02*
X148139999Y-91110000I249999J0D01*
G01*
X149040001Y-91110000D01*
G75*
G02*
X149290000Y-91359999I0J-249999D01*
G01*
X149290000Y-92060001D01*
G75*
G02*
X149040001Y-92310000I-249999J0D01*
G01*
G37*
%TD*%
M02*
