%TF.GenerationSoftware,KiCad,Pcbnew,(5.1.8)-1*%
%TF.CreationDate,2024-08-14T23:36:35+03:00*%
%TF.ProjectId,MUL8x8,4d554c38-7838-42e6-9b69-6361645f7063,rev?*%
%TF.SameCoordinates,Original*%
%TF.FileFunction,Legend,Top*%
%TF.FilePolarity,Positive*%
%FSLAX46Y46*%
G04 Gerber Fmt 4.6, Leading zero omitted, Abs format (unit mm)*
G04 Created by KiCad (PCBNEW (5.1.8)-1) date 2024-08-14 23:36:35*
%MOMM*%
%LPD*%
G01*
G04 APERTURE LIST*
%ADD10C,0.250000*%
%ADD11C,0.150000*%
%ADD12C,0.400000*%
%ADD13C,0.120000*%
G04 APERTURE END LIST*
D10*
X106585000Y-95069761D02*
X106965952Y-95069761D01*
X107156428Y-95165000D01*
X107346904Y-95355476D01*
X107442142Y-95736428D01*
X107442142Y-96403095D01*
X107346904Y-96784047D01*
X107156428Y-96974523D01*
X106965952Y-97069761D01*
X106585000Y-97069761D01*
X106394523Y-96974523D01*
X106204047Y-96784047D01*
X106108809Y-96403095D01*
X106108809Y-95736428D01*
X106204047Y-95355476D01*
X106394523Y-95165000D01*
X106585000Y-95069761D01*
X108299285Y-95069761D02*
X108299285Y-96688809D01*
X108394523Y-96879285D01*
X108489761Y-96974523D01*
X108680238Y-97069761D01*
X109061190Y-97069761D01*
X109251666Y-96974523D01*
X109346904Y-96879285D01*
X109442142Y-96688809D01*
X109442142Y-95069761D01*
X110108809Y-95069761D02*
X111251666Y-95069761D01*
X110680238Y-97069761D02*
X110680238Y-95069761D01*
X108013571Y-100319761D02*
X108013571Y-98319761D01*
X108013571Y-99272142D02*
X109156428Y-99272142D01*
X109156428Y-100319761D02*
X109156428Y-98319761D01*
X13240000Y-100784761D02*
X13620952Y-100784761D01*
X13811428Y-100880000D01*
X14001904Y-101070476D01*
X14097142Y-101451428D01*
X14097142Y-102118095D01*
X14001904Y-102499047D01*
X13811428Y-102689523D01*
X13620952Y-102784761D01*
X13240000Y-102784761D01*
X13049523Y-102689523D01*
X12859047Y-102499047D01*
X12763809Y-102118095D01*
X12763809Y-101451428D01*
X12859047Y-101070476D01*
X13049523Y-100880000D01*
X13240000Y-100784761D01*
X14954285Y-100784761D02*
X14954285Y-102403809D01*
X15049523Y-102594285D01*
X15144761Y-102689523D01*
X15335238Y-102784761D01*
X15716190Y-102784761D01*
X15906666Y-102689523D01*
X16001904Y-102594285D01*
X16097142Y-102403809D01*
X16097142Y-100784761D01*
X16763809Y-100784761D02*
X17906666Y-100784761D01*
X17335238Y-102784761D02*
X17335238Y-100784761D01*
X15859047Y-106034761D02*
X14906666Y-106034761D01*
X14906666Y-104034761D01*
X19192857Y-35417142D02*
X19478571Y-35512380D01*
X19573809Y-35607619D01*
X19669047Y-35798095D01*
X19669047Y-36083809D01*
X19573809Y-36274285D01*
X19478571Y-36369523D01*
X19288095Y-36464761D01*
X18526190Y-36464761D01*
X18526190Y-34464761D01*
X19192857Y-34464761D01*
X19383333Y-34560000D01*
X19478571Y-34655238D01*
X19573809Y-34845714D01*
X19573809Y-35036190D01*
X19478571Y-35226666D01*
X19383333Y-35321904D01*
X19192857Y-35417142D01*
X18526190Y-35417142D01*
X17938809Y-61293333D02*
X18891190Y-61293333D01*
X17748333Y-61864761D02*
X18415000Y-59864761D01*
X19081666Y-61864761D01*
D11*
X76827142Y-108720000D02*
X76731904Y-108672380D01*
X76589047Y-108672380D01*
X76446190Y-108720000D01*
X76350952Y-108815238D01*
X76303333Y-108910476D01*
X76255714Y-109100952D01*
X76255714Y-109243809D01*
X76303333Y-109434285D01*
X76350952Y-109529523D01*
X76446190Y-109624761D01*
X76589047Y-109672380D01*
X76684285Y-109672380D01*
X76827142Y-109624761D01*
X76874761Y-109577142D01*
X76874761Y-109243809D01*
X76684285Y-109243809D01*
X77303333Y-109005714D02*
X77303333Y-109672380D01*
X77303333Y-109100952D02*
X77350952Y-109053333D01*
X77446190Y-109005714D01*
X77589047Y-109005714D01*
X77684285Y-109053333D01*
X77731904Y-109148571D01*
X77731904Y-109672380D01*
X78636666Y-109672380D02*
X78636666Y-108672380D01*
X78636666Y-109624761D02*
X78541428Y-109672380D01*
X78350952Y-109672380D01*
X78255714Y-109624761D01*
X78208095Y-109577142D01*
X78160476Y-109481904D01*
X78160476Y-109196190D01*
X78208095Y-109100952D01*
X78255714Y-109053333D01*
X78350952Y-109005714D01*
X78541428Y-109005714D01*
X78636666Y-109053333D01*
X90884523Y-108672380D02*
X91217857Y-109672380D01*
X91551190Y-108672380D01*
X92313095Y-109624761D02*
X92217857Y-109672380D01*
X92027380Y-109672380D01*
X91932142Y-109624761D01*
X91884523Y-109577142D01*
X91836904Y-109481904D01*
X91836904Y-109196190D01*
X91884523Y-109100952D01*
X91932142Y-109053333D01*
X92027380Y-109005714D01*
X92217857Y-109005714D01*
X92313095Y-109053333D01*
X93170238Y-109624761D02*
X93075000Y-109672380D01*
X92884523Y-109672380D01*
X92789285Y-109624761D01*
X92741666Y-109577142D01*
X92694047Y-109481904D01*
X92694047Y-109196190D01*
X92741666Y-109100952D01*
X92789285Y-109053333D01*
X92884523Y-109005714D01*
X93075000Y-109005714D01*
X93170238Y-109053333D01*
X70802857Y-104862380D02*
X71469523Y-104862380D01*
X71040952Y-105862380D01*
X72279047Y-105195714D02*
X72279047Y-105862380D01*
X72040952Y-104814761D02*
X71802857Y-105529047D01*
X72421904Y-105529047D01*
X72802857Y-105862380D02*
X72802857Y-104862380D01*
X72802857Y-105338571D02*
X73374285Y-105338571D01*
X73374285Y-105862380D02*
X73374285Y-104862380D01*
X74421904Y-105767142D02*
X74374285Y-105814761D01*
X74231428Y-105862380D01*
X74136190Y-105862380D01*
X73993333Y-105814761D01*
X73898095Y-105719523D01*
X73850476Y-105624285D01*
X73802857Y-105433809D01*
X73802857Y-105290952D01*
X73850476Y-105100476D01*
X73898095Y-105005238D01*
X73993333Y-104910000D01*
X74136190Y-104862380D01*
X74231428Y-104862380D01*
X74374285Y-104910000D01*
X74421904Y-104957619D01*
X74850476Y-105862380D02*
X74850476Y-104862380D01*
X75231428Y-104862380D01*
X75326666Y-104910000D01*
X75374285Y-104957619D01*
X75421904Y-105052857D01*
X75421904Y-105195714D01*
X75374285Y-105290952D01*
X75326666Y-105338571D01*
X75231428Y-105386190D01*
X74850476Y-105386190D01*
X75850476Y-104862380D02*
X75850476Y-105671904D01*
X75898095Y-105767142D01*
X75945714Y-105814761D01*
X76040952Y-105862380D01*
X76231428Y-105862380D01*
X76326666Y-105814761D01*
X76374285Y-105767142D01*
X76421904Y-105671904D01*
X76421904Y-104862380D01*
D10*
X31925000Y-106820000D02*
X34210714Y-106820000D01*
X32401190Y-109489761D02*
X32401190Y-107489761D01*
X33067857Y-108918333D01*
X33734523Y-107489761D01*
X33734523Y-109489761D01*
X34210714Y-106820000D02*
X36305952Y-106820000D01*
X34686904Y-107489761D02*
X34686904Y-109108809D01*
X34782142Y-109299285D01*
X34877380Y-109394523D01*
X35067857Y-109489761D01*
X35448809Y-109489761D01*
X35639285Y-109394523D01*
X35734523Y-109299285D01*
X35829761Y-109108809D01*
X35829761Y-107489761D01*
X36305952Y-106820000D02*
X37925000Y-106820000D01*
X37734523Y-109489761D02*
X36782142Y-109489761D01*
X36782142Y-107489761D01*
X21955238Y-95821190D02*
X21860000Y-95725952D01*
X21764761Y-95535476D01*
X21764761Y-95059285D01*
X21860000Y-94868809D01*
X21955238Y-94773571D01*
X22145714Y-94678333D01*
X22336190Y-94678333D01*
X22621904Y-94773571D01*
X23764761Y-95916428D01*
X23764761Y-94678333D01*
X22431428Y-92964047D02*
X23764761Y-92964047D01*
X21669523Y-93440238D02*
X23098095Y-93916428D01*
X23098095Y-92678333D01*
X21764761Y-90964047D02*
X21764761Y-91916428D01*
X22717142Y-92011666D01*
X22621904Y-91916428D01*
X22526666Y-91725952D01*
X22526666Y-91249761D01*
X22621904Y-91059285D01*
X22717142Y-90964047D01*
X22907619Y-90868809D01*
X23383809Y-90868809D01*
X23574285Y-90964047D01*
X23669523Y-91059285D01*
X23764761Y-91249761D01*
X23764761Y-91725952D01*
X23669523Y-91916428D01*
X23574285Y-92011666D01*
X101965238Y-90106190D02*
X101870000Y-90010952D01*
X101774761Y-89820476D01*
X101774761Y-89344285D01*
X101870000Y-89153809D01*
X101965238Y-89058571D01*
X102155714Y-88963333D01*
X102346190Y-88963333D01*
X102631904Y-89058571D01*
X103774761Y-90201428D01*
X103774761Y-88963333D01*
X102441428Y-87249047D02*
X103774761Y-87249047D01*
X101679523Y-87725238D02*
X103108095Y-88201428D01*
X103108095Y-86963333D01*
X101774761Y-85249047D02*
X101774761Y-86201428D01*
X102727142Y-86296666D01*
X102631904Y-86201428D01*
X102536666Y-86010952D01*
X102536666Y-85534761D01*
X102631904Y-85344285D01*
X102727142Y-85249047D01*
X102917619Y-85153809D01*
X103393809Y-85153809D01*
X103584285Y-85249047D01*
X103679523Y-85344285D01*
X103774761Y-85534761D01*
X103774761Y-86010952D01*
X103679523Y-86201428D01*
X103584285Y-86296666D01*
D12*
X48785000Y-106132142D02*
X48785000Y-103132142D01*
X49785000Y-105275000D01*
X50785000Y-103132142D01*
X50785000Y-106132142D01*
X52213571Y-103132142D02*
X52213571Y-105560714D01*
X52356428Y-105846428D01*
X52499285Y-105989285D01*
X52785000Y-106132142D01*
X53356428Y-106132142D01*
X53642142Y-105989285D01*
X53785000Y-105846428D01*
X53927857Y-105560714D01*
X53927857Y-103132142D01*
X56785000Y-106132142D02*
X55356428Y-106132142D01*
X55356428Y-103132142D01*
X60499285Y-104417857D02*
X60213571Y-104275000D01*
X60070714Y-104132142D01*
X59927857Y-103846428D01*
X59927857Y-103703571D01*
X60070714Y-103417857D01*
X60213571Y-103275000D01*
X60499285Y-103132142D01*
X61070714Y-103132142D01*
X61356428Y-103275000D01*
X61499285Y-103417857D01*
X61642142Y-103703571D01*
X61642142Y-103846428D01*
X61499285Y-104132142D01*
X61356428Y-104275000D01*
X61070714Y-104417857D01*
X60499285Y-104417857D01*
X60213571Y-104560714D01*
X60070714Y-104703571D01*
X59927857Y-104989285D01*
X59927857Y-105560714D01*
X60070714Y-105846428D01*
X60213571Y-105989285D01*
X60499285Y-106132142D01*
X61070714Y-106132142D01*
X61356428Y-105989285D01*
X61499285Y-105846428D01*
X61642142Y-105560714D01*
X61642142Y-104989285D01*
X61499285Y-104703571D01*
X61356428Y-104560714D01*
X61070714Y-104417857D01*
X62642142Y-106132142D02*
X64213571Y-104132142D01*
X62642142Y-104132142D02*
X64213571Y-106132142D01*
X65785000Y-104417857D02*
X65499285Y-104275000D01*
X65356428Y-104132142D01*
X65213571Y-103846428D01*
X65213571Y-103703571D01*
X65356428Y-103417857D01*
X65499285Y-103275000D01*
X65785000Y-103132142D01*
X66356428Y-103132142D01*
X66642142Y-103275000D01*
X66785000Y-103417857D01*
X66927857Y-103703571D01*
X66927857Y-103846428D01*
X66785000Y-104132142D01*
X66642142Y-104275000D01*
X66356428Y-104417857D01*
X65785000Y-104417857D01*
X65499285Y-104560714D01*
X65356428Y-104703571D01*
X65213571Y-104989285D01*
X65213571Y-105560714D01*
X65356428Y-105846428D01*
X65499285Y-105989285D01*
X65785000Y-106132142D01*
X66356428Y-106132142D01*
X66642142Y-105989285D01*
X66785000Y-105846428D01*
X66927857Y-105560714D01*
X66927857Y-104989285D01*
X66785000Y-104703571D01*
X66642142Y-104560714D01*
X66356428Y-104417857D01*
D13*
%TO.C,U10*%
X101870000Y-68520000D02*
X100220000Y-68520000D01*
X100220000Y-68520000D02*
X100220000Y-94040000D01*
X100220000Y-94040000D02*
X105520000Y-94040000D01*
X105520000Y-94040000D02*
X105520000Y-68520000D01*
X105520000Y-68520000D02*
X103870000Y-68520000D01*
X97730000Y-68460000D02*
X97730000Y-94100000D01*
X97730000Y-94100000D02*
X108010000Y-94100000D01*
X108010000Y-94100000D02*
X108010000Y-68460000D01*
X108010000Y-68460000D02*
X97730000Y-68460000D01*
X103870000Y-68520000D02*
G75*
G02*
X101870000Y-68520000I-1000000J0D01*
G01*
%TO.C,U9*%
X21860000Y-74870000D02*
X20210000Y-74870000D01*
X20210000Y-74870000D02*
X20210000Y-100390000D01*
X20210000Y-100390000D02*
X25510000Y-100390000D01*
X25510000Y-100390000D02*
X25510000Y-74870000D01*
X25510000Y-74870000D02*
X23860000Y-74870000D01*
X17720000Y-74810000D02*
X17720000Y-100450000D01*
X17720000Y-100450000D02*
X28000000Y-100450000D01*
X28000000Y-100450000D02*
X28000000Y-74810000D01*
X28000000Y-74810000D02*
X17720000Y-74810000D01*
X23860000Y-74870000D02*
G75*
G02*
X21860000Y-74870000I-1000000J0D01*
G01*
%TO.C,J6*%
X89230000Y-106680000D02*
G75*
G03*
X89230000Y-106680000I-1680000J0D01*
G01*
X79990000Y-110780000D02*
X90110000Y-110780000D01*
X79990000Y-109280000D02*
X90110000Y-109280000D01*
X79990000Y-104379000D02*
X90110000Y-104379000D01*
X79990000Y-101419000D02*
X90110000Y-101419000D01*
X79990000Y-111340000D02*
X90110000Y-111340000D01*
X79990000Y-101419000D02*
X79990000Y-111340000D01*
X90110000Y-101419000D02*
X90110000Y-111340000D01*
X88825000Y-105611000D02*
X88778000Y-105657000D01*
X86516000Y-107919000D02*
X86481000Y-107954000D01*
X88620000Y-105405000D02*
X88585000Y-105441000D01*
X86323000Y-107703000D02*
X86276000Y-107749000D01*
X79750000Y-110840000D02*
X79750000Y-111580000D01*
X79750000Y-111580000D02*
X80250000Y-111580000D01*
X82578805Y-108360253D02*
G75*
G02*
X81866000Y-108215000I-28805J1680253D01*
G01*
X81014574Y-107363042D02*
G75*
G02*
X81015000Y-105996000I1535426J683042D01*
G01*
X81866958Y-105144574D02*
G75*
G02*
X83234000Y-105145000I683042J-1535426D01*
G01*
X84085426Y-105996958D02*
G75*
G02*
X84085000Y-107364000I-1535426J-683042D01*
G01*
X83233318Y-108214756D02*
G75*
G02*
X82550000Y-108360000I-683318J1534756D01*
G01*
%TO.C,J5*%
X27880000Y-109280000D02*
X30540000Y-109280000D01*
X27880000Y-109220000D02*
X27880000Y-109280000D01*
X30540000Y-109220000D02*
X30540000Y-109280000D01*
X27880000Y-109220000D02*
X30540000Y-109220000D01*
X27880000Y-107950000D02*
X27880000Y-106620000D01*
X27880000Y-106620000D02*
X29210000Y-106620000D01*
%TO.C,J4*%
X108525000Y-94040000D02*
X111185000Y-94040000D01*
X108525000Y-73660000D02*
X108525000Y-94040000D01*
X111185000Y-73660000D02*
X111185000Y-94040000D01*
X108525000Y-73660000D02*
X111185000Y-73660000D01*
X108525000Y-72390000D02*
X108525000Y-71060000D01*
X108525000Y-71060000D02*
X109855000Y-71060000D01*
%TO.C,J3*%
X13910000Y-97850000D02*
X16570000Y-97850000D01*
X13910000Y-77470000D02*
X13910000Y-97850000D01*
X16570000Y-77470000D02*
X16570000Y-97850000D01*
X13910000Y-77470000D02*
X16570000Y-77470000D01*
X13910000Y-76200000D02*
X13910000Y-74870000D01*
X13910000Y-74870000D02*
X15240000Y-74870000D01*
%TO.C,J2*%
X13910000Y-47050000D02*
X16570000Y-47050000D01*
X13910000Y-26670000D02*
X13910000Y-47050000D01*
X16570000Y-26670000D02*
X16570000Y-47050000D01*
X13910000Y-26670000D02*
X16570000Y-26670000D01*
X13910000Y-25400000D02*
X13910000Y-24070000D01*
X13910000Y-24070000D02*
X15240000Y-24070000D01*
%TO.C,J1*%
X13910000Y-72450000D02*
X16570000Y-72450000D01*
X13910000Y-52070000D02*
X13910000Y-72450000D01*
X16570000Y-52070000D02*
X16570000Y-72450000D01*
X13910000Y-52070000D02*
X16570000Y-52070000D01*
X13910000Y-50800000D02*
X13910000Y-49470000D01*
X13910000Y-49470000D02*
X15240000Y-49470000D01*
D11*
%TO.C,U8*%
X31115000Y-105410000D02*
X31115000Y-21590000D01*
X38735000Y-105410000D02*
X31115000Y-105410000D01*
X38735000Y-21590000D02*
X38735000Y-105410000D01*
X31115000Y-21590000D02*
X38735000Y-21590000D01*
%TO.C,U7*%
X88900000Y-100330000D02*
X88900000Y-16510000D01*
X96520000Y-100330000D02*
X88900000Y-100330000D01*
X96520000Y-16510000D02*
X96520000Y-100330000D01*
X88900000Y-16510000D02*
X96520000Y-16510000D01*
%TO.C,U6*%
X80645000Y-100330000D02*
X80645000Y-16510000D01*
X88265000Y-100330000D02*
X80645000Y-100330000D01*
X88265000Y-16510000D02*
X88265000Y-100330000D01*
X80645000Y-16510000D02*
X88265000Y-16510000D01*
%TO.C,U5*%
X72390000Y-100330000D02*
X72390000Y-16510000D01*
X80010000Y-100330000D02*
X72390000Y-100330000D01*
X80010000Y-16510000D02*
X80010000Y-100330000D01*
X72390000Y-16510000D02*
X80010000Y-16510000D01*
%TO.C,U4*%
X64135000Y-100330000D02*
X64135000Y-16510000D01*
X71755000Y-100330000D02*
X64135000Y-100330000D01*
X71755000Y-16510000D02*
X71755000Y-100330000D01*
X64135000Y-16510000D02*
X71755000Y-16510000D01*
%TO.C,U3*%
X55880000Y-100330000D02*
X55880000Y-16510000D01*
X63500000Y-100330000D02*
X55880000Y-100330000D01*
X63500000Y-16510000D02*
X63500000Y-100330000D01*
X55880000Y-16510000D02*
X63500000Y-16510000D01*
%TO.C,U2*%
X47625000Y-100330000D02*
X47625000Y-16510000D01*
X55245000Y-100330000D02*
X47625000Y-100330000D01*
X55245000Y-16510000D02*
X55245000Y-100330000D01*
X47625000Y-16510000D02*
X55245000Y-16510000D01*
%TO.C,U1*%
X39370000Y-100330000D02*
X39370000Y-16510000D01*
X46990000Y-100330000D02*
X39370000Y-100330000D01*
X46990000Y-16510000D02*
X46990000Y-100330000D01*
X39370000Y-16510000D02*
X46990000Y-16510000D01*
%TO.C,U10*%
X101631904Y-66972380D02*
X101631904Y-67781904D01*
X101679523Y-67877142D01*
X101727142Y-67924761D01*
X101822380Y-67972380D01*
X102012857Y-67972380D01*
X102108095Y-67924761D01*
X102155714Y-67877142D01*
X102203333Y-67781904D01*
X102203333Y-66972380D01*
X103203333Y-67972380D02*
X102631904Y-67972380D01*
X102917619Y-67972380D02*
X102917619Y-66972380D01*
X102822380Y-67115238D01*
X102727142Y-67210476D01*
X102631904Y-67258095D01*
X103822380Y-66972380D02*
X103917619Y-66972380D01*
X104012857Y-67020000D01*
X104060476Y-67067619D01*
X104108095Y-67162857D01*
X104155714Y-67353333D01*
X104155714Y-67591428D01*
X104108095Y-67781904D01*
X104060476Y-67877142D01*
X104012857Y-67924761D01*
X103917619Y-67972380D01*
X103822380Y-67972380D01*
X103727142Y-67924761D01*
X103679523Y-67877142D01*
X103631904Y-67781904D01*
X103584285Y-67591428D01*
X103584285Y-67353333D01*
X103631904Y-67162857D01*
X103679523Y-67067619D01*
X103727142Y-67020000D01*
X103822380Y-66972380D01*
%TO.C,U9*%
X22098095Y-73322380D02*
X22098095Y-74131904D01*
X22145714Y-74227142D01*
X22193333Y-74274761D01*
X22288571Y-74322380D01*
X22479047Y-74322380D01*
X22574285Y-74274761D01*
X22621904Y-74227142D01*
X22669523Y-74131904D01*
X22669523Y-73322380D01*
X23193333Y-74322380D02*
X23383809Y-74322380D01*
X23479047Y-74274761D01*
X23526666Y-74227142D01*
X23621904Y-74084285D01*
X23669523Y-73893809D01*
X23669523Y-73512857D01*
X23621904Y-73417619D01*
X23574285Y-73370000D01*
X23479047Y-73322380D01*
X23288571Y-73322380D01*
X23193333Y-73370000D01*
X23145714Y-73417619D01*
X23098095Y-73512857D01*
X23098095Y-73750952D01*
X23145714Y-73846190D01*
X23193333Y-73893809D01*
X23288571Y-73941428D01*
X23479047Y-73941428D01*
X23574285Y-73893809D01*
X23621904Y-73846190D01*
X23669523Y-73750952D01*
%TO.C,U8*%
X32893095Y-22312380D02*
X32893095Y-23121904D01*
X32940714Y-23217142D01*
X32988333Y-23264761D01*
X33083571Y-23312380D01*
X33274047Y-23312380D01*
X33369285Y-23264761D01*
X33416904Y-23217142D01*
X33464523Y-23121904D01*
X33464523Y-22312380D01*
X34083571Y-22740952D02*
X33988333Y-22693333D01*
X33940714Y-22645714D01*
X33893095Y-22550476D01*
X33893095Y-22502857D01*
X33940714Y-22407619D01*
X33988333Y-22360000D01*
X34083571Y-22312380D01*
X34274047Y-22312380D01*
X34369285Y-22360000D01*
X34416904Y-22407619D01*
X34464523Y-22502857D01*
X34464523Y-22550476D01*
X34416904Y-22645714D01*
X34369285Y-22693333D01*
X34274047Y-22740952D01*
X34083571Y-22740952D01*
X33988333Y-22788571D01*
X33940714Y-22836190D01*
X33893095Y-22931428D01*
X33893095Y-23121904D01*
X33940714Y-23217142D01*
X33988333Y-23264761D01*
X34083571Y-23312380D01*
X34274047Y-23312380D01*
X34369285Y-23264761D01*
X34416904Y-23217142D01*
X34464523Y-23121904D01*
X34464523Y-22931428D01*
X34416904Y-22836190D01*
X34369285Y-22788571D01*
X34274047Y-22740952D01*
%TO.C,U7*%
X90043095Y-17867380D02*
X90043095Y-18676904D01*
X90090714Y-18772142D01*
X90138333Y-18819761D01*
X90233571Y-18867380D01*
X90424047Y-18867380D01*
X90519285Y-18819761D01*
X90566904Y-18772142D01*
X90614523Y-18676904D01*
X90614523Y-17867380D01*
X90995476Y-17867380D02*
X91662142Y-17867380D01*
X91233571Y-18867380D01*
%TO.C,U6*%
X81788095Y-17867380D02*
X81788095Y-18676904D01*
X81835714Y-18772142D01*
X81883333Y-18819761D01*
X81978571Y-18867380D01*
X82169047Y-18867380D01*
X82264285Y-18819761D01*
X82311904Y-18772142D01*
X82359523Y-18676904D01*
X82359523Y-17867380D01*
X83264285Y-17867380D02*
X83073809Y-17867380D01*
X82978571Y-17915000D01*
X82930952Y-17962619D01*
X82835714Y-18105476D01*
X82788095Y-18295952D01*
X82788095Y-18676904D01*
X82835714Y-18772142D01*
X82883333Y-18819761D01*
X82978571Y-18867380D01*
X83169047Y-18867380D01*
X83264285Y-18819761D01*
X83311904Y-18772142D01*
X83359523Y-18676904D01*
X83359523Y-18438809D01*
X83311904Y-18343571D01*
X83264285Y-18295952D01*
X83169047Y-18248333D01*
X82978571Y-18248333D01*
X82883333Y-18295952D01*
X82835714Y-18343571D01*
X82788095Y-18438809D01*
%TO.C,U5*%
X73533095Y-17867380D02*
X73533095Y-18676904D01*
X73580714Y-18772142D01*
X73628333Y-18819761D01*
X73723571Y-18867380D01*
X73914047Y-18867380D01*
X74009285Y-18819761D01*
X74056904Y-18772142D01*
X74104523Y-18676904D01*
X74104523Y-17867380D01*
X75056904Y-17867380D02*
X74580714Y-17867380D01*
X74533095Y-18343571D01*
X74580714Y-18295952D01*
X74675952Y-18248333D01*
X74914047Y-18248333D01*
X75009285Y-18295952D01*
X75056904Y-18343571D01*
X75104523Y-18438809D01*
X75104523Y-18676904D01*
X75056904Y-18772142D01*
X75009285Y-18819761D01*
X74914047Y-18867380D01*
X74675952Y-18867380D01*
X74580714Y-18819761D01*
X74533095Y-18772142D01*
%TO.C,U4*%
X65278095Y-17867380D02*
X65278095Y-18676904D01*
X65325714Y-18772142D01*
X65373333Y-18819761D01*
X65468571Y-18867380D01*
X65659047Y-18867380D01*
X65754285Y-18819761D01*
X65801904Y-18772142D01*
X65849523Y-18676904D01*
X65849523Y-17867380D01*
X66754285Y-18200714D02*
X66754285Y-18867380D01*
X66516190Y-17819761D02*
X66278095Y-18534047D01*
X66897142Y-18534047D01*
%TO.C,U3*%
X57023095Y-17867380D02*
X57023095Y-18676904D01*
X57070714Y-18772142D01*
X57118333Y-18819761D01*
X57213571Y-18867380D01*
X57404047Y-18867380D01*
X57499285Y-18819761D01*
X57546904Y-18772142D01*
X57594523Y-18676904D01*
X57594523Y-17867380D01*
X57975476Y-17867380D02*
X58594523Y-17867380D01*
X58261190Y-18248333D01*
X58404047Y-18248333D01*
X58499285Y-18295952D01*
X58546904Y-18343571D01*
X58594523Y-18438809D01*
X58594523Y-18676904D01*
X58546904Y-18772142D01*
X58499285Y-18819761D01*
X58404047Y-18867380D01*
X58118333Y-18867380D01*
X58023095Y-18819761D01*
X57975476Y-18772142D01*
%TO.C,U2*%
X48768095Y-17867380D02*
X48768095Y-18676904D01*
X48815714Y-18772142D01*
X48863333Y-18819761D01*
X48958571Y-18867380D01*
X49149047Y-18867380D01*
X49244285Y-18819761D01*
X49291904Y-18772142D01*
X49339523Y-18676904D01*
X49339523Y-17867380D01*
X49768095Y-17962619D02*
X49815714Y-17915000D01*
X49910952Y-17867380D01*
X50149047Y-17867380D01*
X50244285Y-17915000D01*
X50291904Y-17962619D01*
X50339523Y-18057857D01*
X50339523Y-18153095D01*
X50291904Y-18295952D01*
X49720476Y-18867380D01*
X50339523Y-18867380D01*
%TO.C,U1*%
X40513095Y-17867380D02*
X40513095Y-18676904D01*
X40560714Y-18772142D01*
X40608333Y-18819761D01*
X40703571Y-18867380D01*
X40894047Y-18867380D01*
X40989285Y-18819761D01*
X41036904Y-18772142D01*
X41084523Y-18676904D01*
X41084523Y-17867380D01*
X42084523Y-18867380D02*
X41513095Y-18867380D01*
X41798809Y-18867380D02*
X41798809Y-17867380D01*
X41703571Y-18010238D01*
X41608333Y-18105476D01*
X41513095Y-18153095D01*
%TD*%
M02*
