%TF.GenerationSoftware,KiCad,Pcbnew,(5.1.8)-1*%
%TF.CreationDate,2024-08-14T23:36:35+03:00*%
%TF.ProjectId,MUL8x8,4d554c38-7838-42e6-9b69-6361645f7063,rev?*%
%TF.SameCoordinates,Original*%
%TF.FileFunction,Soldermask,Bot*%
%TF.FilePolarity,Negative*%
%FSLAX46Y46*%
G04 Gerber Fmt 4.6, Leading zero omitted, Abs format (unit mm)*
G04 Created by KiCad (PCBNEW (5.1.8)-1) date 2024-08-14 23:36:35*
%MOMM*%
%LPD*%
G01*
G04 APERTURE LIST*
%ADD10O,1.800000X1.500000*%
%ADD11R,1.800000X1.500000*%
%ADD12R,0.800000X0.900000*%
%ADD13C,2.600000*%
%ADD14R,2.600000X2.600000*%
%ADD15R,1.700000X1.700000*%
%ADD16O,1.700000X1.700000*%
%ADD17O,2.200000X1.600000*%
%ADD18C,3.200000*%
G04 APERTURE END LIST*
%TO.C,R3*%
G36*
G01*
X102635000Y-70300001D02*
X102635000Y-69399999D01*
G75*
G02*
X102884999Y-69150000I249999J0D01*
G01*
X103585001Y-69150000D01*
G75*
G02*
X103835000Y-69399999I0J-249999D01*
G01*
X103835000Y-70300001D01*
G75*
G02*
X103585001Y-70550000I-249999J0D01*
G01*
X102884999Y-70550000D01*
G75*
G02*
X102635000Y-70300001I0J249999D01*
G01*
G37*
G36*
G01*
X100635000Y-70300001D02*
X100635000Y-69399999D01*
G75*
G02*
X100884999Y-69150000I249999J0D01*
G01*
X101585001Y-69150000D01*
G75*
G02*
X101835000Y-69399999I0J-249999D01*
G01*
X101835000Y-70300001D01*
G75*
G02*
X101585001Y-70550000I-249999J0D01*
G01*
X100884999Y-70550000D01*
G75*
G02*
X100635000Y-70300001I0J249999D01*
G01*
G37*
%TD*%
D10*
%TO.C,U10*%
X106680000Y-69850000D03*
X99060000Y-92710000D03*
X106680000Y-72390000D03*
X99060000Y-90170000D03*
X106680000Y-74930000D03*
X99060000Y-87630000D03*
X106680000Y-77470000D03*
X99060000Y-85090000D03*
X106680000Y-80010000D03*
X99060000Y-82550000D03*
X106680000Y-82550000D03*
X99060000Y-80010000D03*
X106680000Y-85090000D03*
X99060000Y-77470000D03*
X106680000Y-87630000D03*
X99060000Y-74930000D03*
X106680000Y-90170000D03*
X99060000Y-72390000D03*
X106680000Y-92710000D03*
D11*
X99060000Y-69850000D03*
%TD*%
D10*
%TO.C,U9*%
X26670000Y-76200000D03*
X19050000Y-99060000D03*
X26670000Y-78740000D03*
X19050000Y-96520000D03*
X26670000Y-81280000D03*
X19050000Y-93980000D03*
X26670000Y-83820000D03*
X19050000Y-91440000D03*
X26670000Y-86360000D03*
X19050000Y-88900000D03*
X26670000Y-88900000D03*
X19050000Y-86360000D03*
X26670000Y-91440000D03*
X19050000Y-83820000D03*
X26670000Y-93980000D03*
X19050000Y-81280000D03*
X26670000Y-96520000D03*
X19050000Y-78740000D03*
X26670000Y-99060000D03*
D11*
X19050000Y-76200000D03*
%TD*%
%TO.C,R2*%
G36*
G01*
X33470001Y-99930000D02*
X32569999Y-99930000D01*
G75*
G02*
X32320000Y-99680001I0J249999D01*
G01*
X32320000Y-98979999D01*
G75*
G02*
X32569999Y-98730000I249999J0D01*
G01*
X33470001Y-98730000D01*
G75*
G02*
X33720000Y-98979999I0J-249999D01*
G01*
X33720000Y-99680001D01*
G75*
G02*
X33470001Y-99930000I-249999J0D01*
G01*
G37*
G36*
G01*
X33470001Y-101930000D02*
X32569999Y-101930000D01*
G75*
G02*
X32320000Y-101680001I0J249999D01*
G01*
X32320000Y-100979999D01*
G75*
G02*
X32569999Y-100730000I249999J0D01*
G01*
X33470001Y-100730000D01*
G75*
G02*
X33720000Y-100979999I0J-249999D01*
G01*
X33720000Y-101680001D01*
G75*
G02*
X33470001Y-101930000I-249999J0D01*
G01*
G37*
%TD*%
%TO.C,R1*%
G36*
G01*
X41725001Y-93580000D02*
X40824999Y-93580000D01*
G75*
G02*
X40575000Y-93330001I0J249999D01*
G01*
X40575000Y-92629999D01*
G75*
G02*
X40824999Y-92380000I249999J0D01*
G01*
X41725001Y-92380000D01*
G75*
G02*
X41975000Y-92629999I0J-249999D01*
G01*
X41975000Y-93330001D01*
G75*
G02*
X41725001Y-93580000I-249999J0D01*
G01*
G37*
G36*
G01*
X41725001Y-95580000D02*
X40824999Y-95580000D01*
G75*
G02*
X40575000Y-95330001I0J249999D01*
G01*
X40575000Y-94629999D01*
G75*
G02*
X40824999Y-94380000I249999J0D01*
G01*
X41725001Y-94380000D01*
G75*
G02*
X41975000Y-94629999I0J-249999D01*
G01*
X41975000Y-95330001D01*
G75*
G02*
X41725001Y-95580000I-249999J0D01*
G01*
G37*
%TD*%
D12*
%TO.C,Q1*%
X92710000Y-105140000D03*
X93660000Y-103140000D03*
X91760000Y-103140000D03*
%TD*%
D13*
%TO.C,J6*%
X87550000Y-106680000D03*
D14*
X82550000Y-106680000D03*
%TD*%
D15*
%TO.C,J5*%
X29210000Y-107950000D03*
%TD*%
D16*
%TO.C,J4*%
X109855000Y-92710000D03*
X109855000Y-90170000D03*
X109855000Y-87630000D03*
X109855000Y-85090000D03*
X109855000Y-82550000D03*
X109855000Y-80010000D03*
X109855000Y-77470000D03*
X109855000Y-74930000D03*
D15*
X109855000Y-72390000D03*
%TD*%
D16*
%TO.C,J3*%
X15240000Y-96520000D03*
X15240000Y-93980000D03*
X15240000Y-91440000D03*
X15240000Y-88900000D03*
X15240000Y-86360000D03*
X15240000Y-83820000D03*
X15240000Y-81280000D03*
X15240000Y-78740000D03*
D15*
X15240000Y-76200000D03*
%TD*%
D16*
%TO.C,J2*%
X15240000Y-45720000D03*
X15240000Y-43180000D03*
X15240000Y-40640000D03*
X15240000Y-38100000D03*
X15240000Y-35560000D03*
X15240000Y-33020000D03*
X15240000Y-30480000D03*
X15240000Y-27940000D03*
D15*
X15240000Y-25400000D03*
%TD*%
D16*
%TO.C,J1*%
X15240000Y-71120000D03*
X15240000Y-68580000D03*
X15240000Y-66040000D03*
X15240000Y-63500000D03*
X15240000Y-60960000D03*
X15240000Y-58420000D03*
X15240000Y-55880000D03*
X15240000Y-53340000D03*
D15*
X15240000Y-50800000D03*
%TD*%
D17*
%TO.C,U8*%
X36195000Y-102870000D03*
X36195000Y-100330000D03*
X36195000Y-97790000D03*
X36195000Y-95250000D03*
X36195000Y-92710000D03*
X36195000Y-87630000D03*
X36195000Y-85090000D03*
X36195000Y-82550000D03*
X36195000Y-80010000D03*
X36195000Y-77470000D03*
X36195000Y-74930000D03*
X36195000Y-72390000D03*
X36195000Y-69850000D03*
X36195000Y-64770000D03*
X36195000Y-62230000D03*
X36195000Y-59690000D03*
X36195000Y-57150000D03*
X36195000Y-54610000D03*
X36195000Y-52070000D03*
X36195000Y-49530000D03*
X36195000Y-46990000D03*
X36195000Y-41910000D03*
X36195000Y-39370000D03*
X36195000Y-36830000D03*
X36195000Y-34290000D03*
X36195000Y-31750000D03*
X36195000Y-29210000D03*
X36195000Y-26670000D03*
X36195000Y-24130000D03*
%TD*%
%TO.C,U7*%
X93980000Y-97790000D03*
X93980000Y-95250000D03*
X93980000Y-90170000D03*
X93980000Y-87630000D03*
X93980000Y-85090000D03*
X93980000Y-82550000D03*
X93980000Y-80010000D03*
X93980000Y-77470000D03*
X93980000Y-74930000D03*
X93980000Y-72390000D03*
X93980000Y-69850000D03*
X93980000Y-64770000D03*
X93980000Y-62230000D03*
X93980000Y-59690000D03*
X93980000Y-57150000D03*
X93980000Y-54610000D03*
X93980000Y-52070000D03*
X93980000Y-49530000D03*
X93980000Y-46990000D03*
X93980000Y-41910000D03*
X93980000Y-39370000D03*
X93980000Y-36830000D03*
X93980000Y-34290000D03*
X93980000Y-31750000D03*
X93980000Y-29210000D03*
X93980000Y-26670000D03*
X93980000Y-24130000D03*
X93980000Y-19050000D03*
%TD*%
%TO.C,U6*%
X85725000Y-97790000D03*
X85725000Y-95250000D03*
X85725000Y-90170000D03*
X85725000Y-87630000D03*
X85725000Y-85090000D03*
X85725000Y-82550000D03*
X85725000Y-80010000D03*
X85725000Y-77470000D03*
X85725000Y-74930000D03*
X85725000Y-72390000D03*
X85725000Y-69850000D03*
X85725000Y-64770000D03*
X85725000Y-62230000D03*
X85725000Y-59690000D03*
X85725000Y-57150000D03*
X85725000Y-54610000D03*
X85725000Y-52070000D03*
X85725000Y-49530000D03*
X85725000Y-46990000D03*
X85725000Y-41910000D03*
X85725000Y-39370000D03*
X85725000Y-36830000D03*
X85725000Y-34290000D03*
X85725000Y-31750000D03*
X85725000Y-29210000D03*
X85725000Y-26670000D03*
X85725000Y-24130000D03*
X85725000Y-19050000D03*
%TD*%
%TO.C,U5*%
X77470000Y-97790000D03*
X77470000Y-95250000D03*
X77470000Y-90170000D03*
X77470000Y-87630000D03*
X77470000Y-85090000D03*
X77470000Y-82550000D03*
X77470000Y-80010000D03*
X77470000Y-77470000D03*
X77470000Y-74930000D03*
X77470000Y-72390000D03*
X77470000Y-69850000D03*
X77470000Y-64770000D03*
X77470000Y-62230000D03*
X77470000Y-59690000D03*
X77470000Y-57150000D03*
X77470000Y-54610000D03*
X77470000Y-52070000D03*
X77470000Y-49530000D03*
X77470000Y-46990000D03*
X77470000Y-41910000D03*
X77470000Y-39370000D03*
X77470000Y-36830000D03*
X77470000Y-34290000D03*
X77470000Y-31750000D03*
X77470000Y-29210000D03*
X77470000Y-26670000D03*
X77470000Y-24130000D03*
X77470000Y-19050000D03*
%TD*%
%TO.C,U4*%
X69215000Y-97790000D03*
X69215000Y-95250000D03*
X69215000Y-90170000D03*
X69215000Y-87630000D03*
X69215000Y-85090000D03*
X69215000Y-82550000D03*
X69215000Y-80010000D03*
X69215000Y-77470000D03*
X69215000Y-74930000D03*
X69215000Y-72390000D03*
X69215000Y-69850000D03*
X69215000Y-64770000D03*
X69215000Y-62230000D03*
X69215000Y-59690000D03*
X69215000Y-57150000D03*
X69215000Y-54610000D03*
X69215000Y-52070000D03*
X69215000Y-49530000D03*
X69215000Y-46990000D03*
X69215000Y-41910000D03*
X69215000Y-39370000D03*
X69215000Y-36830000D03*
X69215000Y-34290000D03*
X69215000Y-31750000D03*
X69215000Y-29210000D03*
X69215000Y-26670000D03*
X69215000Y-24130000D03*
X69215000Y-19050000D03*
%TD*%
%TO.C,U3*%
X60960000Y-97790000D03*
X60960000Y-95250000D03*
X60960000Y-90170000D03*
X60960000Y-87630000D03*
X60960000Y-85090000D03*
X60960000Y-82550000D03*
X60960000Y-80010000D03*
X60960000Y-77470000D03*
X60960000Y-74930000D03*
X60960000Y-72390000D03*
X60960000Y-69850000D03*
X60960000Y-64770000D03*
X60960000Y-62230000D03*
X60960000Y-59690000D03*
X60960000Y-57150000D03*
X60960000Y-54610000D03*
X60960000Y-52070000D03*
X60960000Y-49530000D03*
X60960000Y-46990000D03*
X60960000Y-41910000D03*
X60960000Y-39370000D03*
X60960000Y-36830000D03*
X60960000Y-34290000D03*
X60960000Y-31750000D03*
X60960000Y-29210000D03*
X60960000Y-26670000D03*
X60960000Y-24130000D03*
X60960000Y-19050000D03*
%TD*%
%TO.C,U2*%
X52705000Y-97790000D03*
X52705000Y-95250000D03*
X52705000Y-90170000D03*
X52705000Y-87630000D03*
X52705000Y-85090000D03*
X52705000Y-82550000D03*
X52705000Y-80010000D03*
X52705000Y-77470000D03*
X52705000Y-74930000D03*
X52705000Y-72390000D03*
X52705000Y-69850000D03*
X52705000Y-64770000D03*
X52705000Y-62230000D03*
X52705000Y-59690000D03*
X52705000Y-57150000D03*
X52705000Y-54610000D03*
X52705000Y-52070000D03*
X52705000Y-49530000D03*
X52705000Y-46990000D03*
X52705000Y-41910000D03*
X52705000Y-39370000D03*
X52705000Y-36830000D03*
X52705000Y-34290000D03*
X52705000Y-31750000D03*
X52705000Y-29210000D03*
X52705000Y-26670000D03*
X52705000Y-24130000D03*
X52705000Y-19050000D03*
%TD*%
%TO.C,U1*%
X44450000Y-97790000D03*
X44450000Y-95250000D03*
X44450000Y-90170000D03*
X44450000Y-87630000D03*
X44450000Y-85090000D03*
X44450000Y-82550000D03*
X44450000Y-80010000D03*
X44450000Y-77470000D03*
X44450000Y-74930000D03*
X44450000Y-72390000D03*
X44450000Y-69850000D03*
X44450000Y-64770000D03*
X44450000Y-62230000D03*
X44450000Y-59690000D03*
X44450000Y-57150000D03*
X44450000Y-54610000D03*
X44450000Y-52070000D03*
X44450000Y-49530000D03*
X44450000Y-46990000D03*
X44450000Y-41910000D03*
X44450000Y-39370000D03*
X44450000Y-36830000D03*
X44450000Y-34290000D03*
X44450000Y-31750000D03*
X44450000Y-29210000D03*
X44450000Y-26670000D03*
X44450000Y-24130000D03*
X44450000Y-19050000D03*
%TD*%
D18*
%TO.C,H4*%
X106680000Y-106680000D03*
%TD*%
%TO.C,H3*%
X17780000Y-106680000D03*
%TD*%
%TO.C,H2*%
X106680000Y-17780000D03*
%TD*%
%TO.C,H1*%
X17780000Y-17780000D03*
%TD*%
M02*
