%TF.GenerationSoftware,KiCad,Pcbnew,(5.1.8)-1*%
%TF.CreationDate,2025-07-04T22:22:32+03:00*%
%TF.ProjectId,MUX8x1-1bit,4d555838-7831-42d3-9162-69742e6b6963,rev?*%
%TF.SameCoordinates,Original*%
%TF.FileFunction,Copper,L2,Bot*%
%TF.FilePolarity,Positive*%
%FSLAX46Y46*%
G04 Gerber Fmt 4.6, Leading zero omitted, Abs format (unit mm)*
G04 Created by KiCad (PCBNEW (5.1.8)-1) date 2025-07-04 22:22:32*
%MOMM*%
%LPD*%
G01*
G04 APERTURE LIST*
%TA.AperFunction,ComponentPad*%
%ADD10R,1.700000X1.700000*%
%TD*%
%TA.AperFunction,ComponentPad*%
%ADD11O,1.800000X1.500000*%
%TD*%
%TA.AperFunction,ComponentPad*%
%ADD12O,1.700000X1.700000*%
%TD*%
%TA.AperFunction,ViaPad*%
%ADD13C,1.500000*%
%TD*%
%TA.AperFunction,Conductor*%
%ADD14C,0.600000*%
%TD*%
%TA.AperFunction,Conductor*%
%ADD15C,0.500000*%
%TD*%
G04 APERTURE END LIST*
D10*
%TO.P,J16,1*%
%TO.N,GND*%
X142240000Y-52070000D03*
%TD*%
%TO.P,J15,1*%
%TO.N,VCC*%
X142240000Y-21590000D03*
%TD*%
%TO.P,J14,1*%
%TO.N,/O1*%
X118110000Y-33655000D03*
%TD*%
%TO.P,J13,1*%
%TO.N,/~E1*%
X142240000Y-31750000D03*
%TD*%
D11*
%TO.P,J12,3*%
%TO.N,/S1.2*%
X142240000Y-29210000D03*
%TO.P,J12,2*%
%TO.N,/S1.1*%
X142240000Y-26670000D03*
D10*
%TO.P,J12,1*%
%TO.N,/S1.0*%
X142240000Y-24130000D03*
%TD*%
%TO.P,J11,1*%
%TO.N,/O0*%
X118110000Y-50165000D03*
%TD*%
%TO.P,J10,1*%
%TO.N,/~E0*%
X142240000Y-46990000D03*
%TD*%
D12*
%TO.P,J9,3*%
%TO.N,/S0.2*%
X142240000Y-44450000D03*
%TO.P,J9,2*%
%TO.N,/S0.1*%
X142240000Y-41910000D03*
D10*
%TO.P,J9,1*%
%TO.N,/S0.0*%
X142240000Y-39370000D03*
%TD*%
%TO.P,J8,1*%
%TO.N,/D7*%
X142240000Y-55880000D03*
%TD*%
%TO.P,J7,1*%
%TO.N,/D6*%
X124460000Y-55880000D03*
%TD*%
%TO.P,J6,1*%
%TO.N,/D5*%
X106680000Y-55880000D03*
%TD*%
%TO.P,J5,1*%
%TO.N,/D4*%
X88900000Y-55880000D03*
%TD*%
%TO.P,J4,1*%
%TO.N,/D3*%
X71120000Y-55880000D03*
%TD*%
%TO.P,J3,1*%
%TO.N,/D2*%
X53340000Y-55880000D03*
%TD*%
%TO.P,J2,1*%
%TO.N,/D1*%
X35560000Y-55880000D03*
%TD*%
%TO.P,J1,1*%
%TO.N,/D0*%
X17780000Y-55880000D03*
%TD*%
D13*
%TO.N,GND*%
X77470000Y-40640000D03*
X77470000Y-54610000D03*
%TO.N,VCC*%
X76835000Y-36830000D03*
X76835000Y-29210000D03*
%TO.N,/D3*%
X71120000Y-30480000D03*
%TO.N,/D4*%
X90805000Y-34925000D03*
X79375000Y-38735000D03*
%TO.N,/D5*%
X85090000Y-45085000D03*
%TO.N,/D6*%
X83820000Y-46990000D03*
%TO.N,/~E1*%
X81280000Y-40640000D03*
%TO.N,/O1*%
X81915000Y-38735000D03*
%TD*%
D14*
%TO.N,GND*%
X77470000Y-40640000D02*
X77470000Y-54610000D01*
X144145000Y-50800000D02*
X142875000Y-52070000D01*
X144145000Y-28575000D02*
X144145000Y-50800000D01*
X139700000Y-27940000D02*
X143510000Y-27940000D01*
X142875000Y-52070000D02*
X142240000Y-52070000D01*
X139065000Y-27305000D02*
X139700000Y-27940000D01*
X75565000Y-27305000D02*
X139065000Y-27305000D01*
X74295000Y-28575000D02*
X75565000Y-27305000D01*
X143510000Y-27940000D02*
X144145000Y-28575000D01*
X74295000Y-39370000D02*
X74295000Y-28575000D01*
X75565000Y-40640000D02*
X74295000Y-39370000D01*
X77470000Y-40640000D02*
X75565000Y-40640000D01*
%TO.N,VCC*%
X76835000Y-29210000D02*
X76835000Y-36830000D01*
D15*
%TO.N,/D3*%
X71120000Y-30480000D02*
X71120000Y-55880000D01*
%TO.N,/D4*%
X90805000Y-34925000D02*
X85090000Y-34925000D01*
X83185000Y-34925000D02*
X79375000Y-38735000D01*
X85090000Y-34925000D02*
X83185000Y-34925000D01*
X85090000Y-55880000D02*
X88900000Y-55880000D01*
X79375000Y-50165000D02*
X85090000Y-55880000D01*
X79375000Y-38735000D02*
X79375000Y-50165000D01*
%TO.N,/D5*%
X106680000Y-50165000D02*
X106680000Y-55880000D01*
X85090000Y-45085000D02*
X87630000Y-47625000D01*
X88900000Y-48895000D02*
X87630000Y-47625000D01*
X105410000Y-48895000D02*
X88900000Y-48895000D01*
X105410000Y-48895000D02*
X106680000Y-50165000D01*
%TO.N,/D6*%
X117475000Y-55880000D02*
X124460000Y-55880000D01*
X114935000Y-57912000D02*
X117475000Y-55880000D01*
X103505000Y-57912000D02*
X114935000Y-57912000D01*
X102235000Y-56642000D02*
X103505000Y-57912000D01*
X102235000Y-52070000D02*
X102235000Y-56642000D01*
X83820000Y-46990000D02*
X86360000Y-49530000D01*
X100965000Y-50800000D02*
X87630000Y-50800000D01*
X87630000Y-50800000D02*
X86360000Y-49530000D01*
X100965000Y-50800000D02*
X102235000Y-52070000D01*
%TO.N,/~E1*%
X130810000Y-31750000D02*
X142240000Y-31750000D01*
X125095000Y-31750000D02*
X130810000Y-31750000D01*
X109855000Y-46990000D02*
X125095000Y-31750000D01*
X89535000Y-46990000D02*
X109855000Y-46990000D01*
X87630000Y-45085000D02*
X89535000Y-46990000D01*
X87630000Y-43815000D02*
X87630000Y-45085000D01*
X84455000Y-40640000D02*
X87630000Y-43815000D01*
X81280000Y-40640000D02*
X84455000Y-40640000D01*
%TO.N,/O1*%
X81915000Y-38735000D02*
X85725000Y-38735000D01*
X85725000Y-38735000D02*
X106045000Y-38735000D01*
X111125000Y-33655000D02*
X118110000Y-33655000D01*
X106045000Y-38735000D02*
X111125000Y-33655000D01*
%TD*%
M02*
