%TF.GenerationSoftware,KiCad,Pcbnew,(5.1.8)-1*%
%TF.CreationDate,2024-08-14T23:24:58+03:00*%
%TF.ProjectId,ROM,524f4d2e-6b69-4636-9164-5f7063625858,rev?*%
%TF.SameCoordinates,Original*%
%TF.FileFunction,Legend,Bot*%
%TF.FilePolarity,Positive*%
%FSLAX46Y46*%
G04 Gerber Fmt 4.6, Leading zero omitted, Abs format (unit mm)*
G04 Created by KiCad (PCBNEW (5.1.8)-1) date 2024-08-14 23:24:58*
%MOMM*%
%LPD*%
G01*
G04 APERTURE LIST*
%ADD10C,0.150000*%
%ADD11C,0.120000*%
G04 APERTURE END LIST*
D10*
X115490476Y-22947380D02*
X115966666Y-22947380D01*
X116014285Y-23423571D01*
X115966666Y-23375952D01*
X115871428Y-23328333D01*
X115633333Y-23328333D01*
X115538095Y-23375952D01*
X115490476Y-23423571D01*
X115442857Y-23518809D01*
X115442857Y-23756904D01*
X115490476Y-23852142D01*
X115538095Y-23899761D01*
X115633333Y-23947380D01*
X115871428Y-23947380D01*
X115966666Y-23899761D01*
X116014285Y-23852142D01*
X115061904Y-23042619D02*
X115014285Y-22995000D01*
X114919047Y-22947380D01*
X114680952Y-22947380D01*
X114585714Y-22995000D01*
X114538095Y-23042619D01*
X114490476Y-23137857D01*
X114490476Y-23233095D01*
X114538095Y-23375952D01*
X115109523Y-23947380D01*
X114490476Y-23947380D01*
X113871428Y-22947380D02*
X113776190Y-22947380D01*
X113680952Y-22995000D01*
X113633333Y-23042619D01*
X113585714Y-23137857D01*
X113538095Y-23328333D01*
X113538095Y-23566428D01*
X113585714Y-23756904D01*
X113633333Y-23852142D01*
X113680952Y-23899761D01*
X113776190Y-23947380D01*
X113871428Y-23947380D01*
X113966666Y-23899761D01*
X114014285Y-23852142D01*
X114061904Y-23756904D01*
X114109523Y-23566428D01*
X114109523Y-23328333D01*
X114061904Y-23137857D01*
X114014285Y-23042619D01*
X113966666Y-22995000D01*
X113871428Y-22947380D01*
X113204761Y-22947380D02*
X112585714Y-22947380D01*
X112919047Y-23328333D01*
X112776190Y-23328333D01*
X112680952Y-23375952D01*
X112633333Y-23423571D01*
X112585714Y-23518809D01*
X112585714Y-23756904D01*
X112633333Y-23852142D01*
X112680952Y-23899761D01*
X112776190Y-23947380D01*
X113061904Y-23947380D01*
X113157142Y-23899761D01*
X113204761Y-23852142D01*
D11*
%TO.C,Q1*%
X113540000Y-21900000D02*
X113540000Y-20970000D01*
X113540000Y-18740000D02*
X113540000Y-19670000D01*
X113540000Y-18740000D02*
X115700000Y-18740000D01*
X113540000Y-21900000D02*
X115000000Y-21900000D01*
%TO.C,R6*%
X149125000Y-30707064D02*
X149125000Y-30252936D01*
X150595000Y-30707064D02*
X150595000Y-30252936D01*
%TO.C,R5*%
X141425436Y-27087500D02*
X141879564Y-27087500D01*
X141425436Y-25617500D02*
X141879564Y-25617500D01*
%TO.C,R4*%
X88085436Y-24547500D02*
X88539564Y-24547500D01*
X88085436Y-23077500D02*
X88539564Y-23077500D01*
%TO.C,R3*%
X98245436Y-79157500D02*
X98699564Y-79157500D01*
X98245436Y-77687500D02*
X98699564Y-77687500D01*
%TO.C,R2*%
X45185000Y-61637936D02*
X45185000Y-62092064D01*
X43715000Y-61637936D02*
X43715000Y-62092064D01*
%TO.C,R1*%
X19785000Y-61637936D02*
X19785000Y-62092064D01*
X18315000Y-61637936D02*
X18315000Y-62092064D01*
%TO.C,Q1*%
D10*
X114395238Y-18367619D02*
X114490476Y-18320000D01*
X114585714Y-18224761D01*
X114728571Y-18081904D01*
X114823809Y-18034285D01*
X114919047Y-18034285D01*
X114871428Y-18272380D02*
X114966666Y-18224761D01*
X115061904Y-18129523D01*
X115109523Y-17939047D01*
X115109523Y-17605714D01*
X115061904Y-17415238D01*
X114966666Y-17320000D01*
X114871428Y-17272380D01*
X114680952Y-17272380D01*
X114585714Y-17320000D01*
X114490476Y-17415238D01*
X114442857Y-17605714D01*
X114442857Y-17939047D01*
X114490476Y-18129523D01*
X114585714Y-18224761D01*
X114680952Y-18272380D01*
X114871428Y-18272380D01*
X113490476Y-18272380D02*
X114061904Y-18272380D01*
X113776190Y-18272380D02*
X113776190Y-17272380D01*
X113871428Y-17415238D01*
X113966666Y-17510476D01*
X114061904Y-17558095D01*
%TO.C,R6*%
X150312380Y-33488333D02*
X149836190Y-33155000D01*
X150312380Y-32916904D02*
X149312380Y-32916904D01*
X149312380Y-33297857D01*
X149360000Y-33393095D01*
X149407619Y-33440714D01*
X149502857Y-33488333D01*
X149645714Y-33488333D01*
X149740952Y-33440714D01*
X149788571Y-33393095D01*
X149836190Y-33297857D01*
X149836190Y-32916904D01*
X149312380Y-34345476D02*
X149312380Y-34155000D01*
X149360000Y-34059761D01*
X149407619Y-34012142D01*
X149550476Y-33916904D01*
X149740952Y-33869285D01*
X150121904Y-33869285D01*
X150217142Y-33916904D01*
X150264761Y-33964523D01*
X150312380Y-34059761D01*
X150312380Y-34250238D01*
X150264761Y-34345476D01*
X150217142Y-34393095D01*
X150121904Y-34440714D01*
X149883809Y-34440714D01*
X149788571Y-34393095D01*
X149740952Y-34345476D01*
X149693333Y-34250238D01*
X149693333Y-34059761D01*
X149740952Y-33964523D01*
X149788571Y-33916904D01*
X149883809Y-33869285D01*
%TO.C,R5*%
X141549166Y-24899880D02*
X141882500Y-24423690D01*
X142120595Y-24899880D02*
X142120595Y-23899880D01*
X141739642Y-23899880D01*
X141644404Y-23947500D01*
X141596785Y-23995119D01*
X141549166Y-24090357D01*
X141549166Y-24233214D01*
X141596785Y-24328452D01*
X141644404Y-24376071D01*
X141739642Y-24423690D01*
X142120595Y-24423690D01*
X140644404Y-23899880D02*
X141120595Y-23899880D01*
X141168214Y-24376071D01*
X141120595Y-24328452D01*
X141025357Y-24280833D01*
X140787261Y-24280833D01*
X140692023Y-24328452D01*
X140644404Y-24376071D01*
X140596785Y-24471309D01*
X140596785Y-24709404D01*
X140644404Y-24804642D01*
X140692023Y-24852261D01*
X140787261Y-24899880D01*
X141025357Y-24899880D01*
X141120595Y-24852261D01*
X141168214Y-24804642D01*
%TO.C,R4*%
X88796666Y-22359880D02*
X89130000Y-21883690D01*
X89368095Y-22359880D02*
X89368095Y-21359880D01*
X88987142Y-21359880D01*
X88891904Y-21407500D01*
X88844285Y-21455119D01*
X88796666Y-21550357D01*
X88796666Y-21693214D01*
X88844285Y-21788452D01*
X88891904Y-21836071D01*
X88987142Y-21883690D01*
X89368095Y-21883690D01*
X87939523Y-21693214D02*
X87939523Y-22359880D01*
X88177619Y-21312261D02*
X88415714Y-22026547D01*
X87796666Y-22026547D01*
%TO.C,R3*%
X98639166Y-76969880D02*
X98972500Y-76493690D01*
X99210595Y-76969880D02*
X99210595Y-75969880D01*
X98829642Y-75969880D01*
X98734404Y-76017500D01*
X98686785Y-76065119D01*
X98639166Y-76160357D01*
X98639166Y-76303214D01*
X98686785Y-76398452D01*
X98734404Y-76446071D01*
X98829642Y-76493690D01*
X99210595Y-76493690D01*
X98305833Y-75969880D02*
X97686785Y-75969880D01*
X98020119Y-76350833D01*
X97877261Y-76350833D01*
X97782023Y-76398452D01*
X97734404Y-76446071D01*
X97686785Y-76541309D01*
X97686785Y-76779404D01*
X97734404Y-76874642D01*
X97782023Y-76922261D01*
X97877261Y-76969880D01*
X98162976Y-76969880D01*
X98258214Y-76922261D01*
X98305833Y-76874642D01*
%TO.C,R2*%
X43252380Y-61698333D02*
X42776190Y-61365000D01*
X43252380Y-61126904D02*
X42252380Y-61126904D01*
X42252380Y-61507857D01*
X42300000Y-61603095D01*
X42347619Y-61650714D01*
X42442857Y-61698333D01*
X42585714Y-61698333D01*
X42680952Y-61650714D01*
X42728571Y-61603095D01*
X42776190Y-61507857D01*
X42776190Y-61126904D01*
X42347619Y-62079285D02*
X42300000Y-62126904D01*
X42252380Y-62222142D01*
X42252380Y-62460238D01*
X42300000Y-62555476D01*
X42347619Y-62603095D01*
X42442857Y-62650714D01*
X42538095Y-62650714D01*
X42680952Y-62603095D01*
X43252380Y-62031666D01*
X43252380Y-62650714D01*
%TO.C,R1*%
X17852380Y-61698333D02*
X17376190Y-61365000D01*
X17852380Y-61126904D02*
X16852380Y-61126904D01*
X16852380Y-61507857D01*
X16900000Y-61603095D01*
X16947619Y-61650714D01*
X17042857Y-61698333D01*
X17185714Y-61698333D01*
X17280952Y-61650714D01*
X17328571Y-61603095D01*
X17376190Y-61507857D01*
X17376190Y-61126904D01*
X17852380Y-62650714D02*
X17852380Y-62079285D01*
X17852380Y-62365000D02*
X16852380Y-62365000D01*
X16995238Y-62269761D01*
X17090476Y-62174523D01*
X17138095Y-62079285D01*
%TD*%
M02*
