%TF.GenerationSoftware,KiCad,Pcbnew,(5.1.8)-1*%
%TF.CreationDate,2022-05-21T00:33:48+03:00*%
%TF.ProjectId,MUX,4d55582e-6b69-4636-9164-5f7063625858,rev?*%
%TF.SameCoordinates,Original*%
%TF.FileFunction,Soldermask,Bot*%
%TF.FilePolarity,Negative*%
%FSLAX46Y46*%
G04 Gerber Fmt 4.6, Leading zero omitted, Abs format (unit mm)*
G04 Created by KiCad (PCBNEW (5.1.8)-1) date 2022-05-21 00:33:48*
%MOMM*%
%LPD*%
G01*
G04 APERTURE LIST*
%ADD10R,1.700000X1.700000*%
%ADD11O,1.700000X1.700000*%
%ADD12R,1.600000X1.600000*%
%ADD13O,1.600000X1.600000*%
%ADD14R,2.600000X2.600000*%
%ADD15C,2.600000*%
%ADD16O,1.500000X2.000000*%
%ADD17C,3.200000*%
G04 APERTURE END LIST*
D10*
%TO.C,J1*%
X17780000Y-187960000D03*
D11*
X20320000Y-187960000D03*
X22860000Y-187960000D03*
X25400000Y-187960000D03*
X27940000Y-187960000D03*
X30480000Y-187960000D03*
X33020000Y-187960000D03*
X35560000Y-187960000D03*
%TD*%
D10*
%TO.C,J2*%
X121920000Y-30480000D03*
D11*
X119380000Y-30480000D03*
X116840000Y-30480000D03*
X114300000Y-30480000D03*
X111760000Y-30480000D03*
X109220000Y-30480000D03*
X106680000Y-30480000D03*
X104140000Y-30480000D03*
%TD*%
%TO.C,J3*%
X60960000Y-187960000D03*
X58420000Y-187960000D03*
X55880000Y-187960000D03*
X53340000Y-187960000D03*
X50800000Y-187960000D03*
X48260000Y-187960000D03*
X45720000Y-187960000D03*
D10*
X43180000Y-187960000D03*
%TD*%
D11*
%TO.C,J4*%
X129540000Y-30480000D03*
X132080000Y-30480000D03*
X134620000Y-30480000D03*
X137160000Y-30480000D03*
X139700000Y-30480000D03*
X142240000Y-30480000D03*
X144780000Y-30480000D03*
D10*
X147320000Y-30480000D03*
%TD*%
%TO.C,J5*%
X17780000Y-30480000D03*
D11*
X20320000Y-30480000D03*
X22860000Y-30480000D03*
X25400000Y-30480000D03*
X27940000Y-30480000D03*
X30480000Y-30480000D03*
X33020000Y-30480000D03*
X35560000Y-30480000D03*
%TD*%
D10*
%TO.C,J6*%
X121920000Y-187960000D03*
D11*
X119380000Y-187960000D03*
X116840000Y-187960000D03*
X114300000Y-187960000D03*
X111760000Y-187960000D03*
X109220000Y-187960000D03*
X106680000Y-187960000D03*
X104140000Y-187960000D03*
%TD*%
%TO.C,J7*%
X60960000Y-30480000D03*
X58420000Y-30480000D03*
X55880000Y-30480000D03*
X53340000Y-30480000D03*
X50800000Y-30480000D03*
X48260000Y-30480000D03*
X45720000Y-30480000D03*
D10*
X43180000Y-30480000D03*
%TD*%
D11*
%TO.C,J8*%
X129540000Y-187960000D03*
X132080000Y-187960000D03*
X134620000Y-187960000D03*
X137160000Y-187960000D03*
X139700000Y-187960000D03*
X142240000Y-187960000D03*
X144780000Y-187960000D03*
D10*
X147320000Y-187960000D03*
%TD*%
D12*
%TO.C,U1*%
X68580000Y-35560000D03*
D13*
X76200000Y-53340000D03*
X68580000Y-38100000D03*
X76200000Y-50800000D03*
X68580000Y-40640000D03*
X76200000Y-48260000D03*
X68580000Y-43180000D03*
X76200000Y-45720000D03*
X68580000Y-45720000D03*
X76200000Y-43180000D03*
X68580000Y-48260000D03*
X76200000Y-40640000D03*
X68580000Y-50800000D03*
X76200000Y-38100000D03*
X68580000Y-53340000D03*
X76200000Y-35560000D03*
%TD*%
%TO.C,U2*%
X96520000Y-58420000D03*
X88900000Y-76200000D03*
X96520000Y-60960000D03*
X88900000Y-73660000D03*
X96520000Y-63500000D03*
X88900000Y-71120000D03*
X96520000Y-66040000D03*
X88900000Y-68580000D03*
X96520000Y-68580000D03*
X88900000Y-66040000D03*
X96520000Y-71120000D03*
X88900000Y-63500000D03*
X96520000Y-73660000D03*
X88900000Y-60960000D03*
X96520000Y-76200000D03*
D12*
X88900000Y-58420000D03*
%TD*%
%TO.C,U3*%
X68580000Y-71120000D03*
D13*
X76200000Y-88900000D03*
X68580000Y-73660000D03*
X76200000Y-86360000D03*
X68580000Y-76200000D03*
X76200000Y-83820000D03*
X68580000Y-78740000D03*
X76200000Y-81280000D03*
X68580000Y-81280000D03*
X76200000Y-78740000D03*
X68580000Y-83820000D03*
X76200000Y-76200000D03*
X68580000Y-86360000D03*
X76200000Y-73660000D03*
X68580000Y-88900000D03*
X76200000Y-71120000D03*
%TD*%
%TO.C,U4*%
X96520000Y-93980000D03*
X88900000Y-111760000D03*
X96520000Y-96520000D03*
X88900000Y-109220000D03*
X96520000Y-99060000D03*
X88900000Y-106680000D03*
X96520000Y-101600000D03*
X88900000Y-104140000D03*
X96520000Y-104140000D03*
X88900000Y-101600000D03*
X96520000Y-106680000D03*
X88900000Y-99060000D03*
X96520000Y-109220000D03*
X88900000Y-96520000D03*
X96520000Y-111760000D03*
D12*
X88900000Y-93980000D03*
%TD*%
%TO.C,U5*%
X68580000Y-106680000D03*
D13*
X76200000Y-124460000D03*
X68580000Y-109220000D03*
X76200000Y-121920000D03*
X68580000Y-111760000D03*
X76200000Y-119380000D03*
X68580000Y-114300000D03*
X76200000Y-116840000D03*
X68580000Y-116840000D03*
X76200000Y-114300000D03*
X68580000Y-119380000D03*
X76200000Y-111760000D03*
X68580000Y-121920000D03*
X76200000Y-109220000D03*
X68580000Y-124460000D03*
X76200000Y-106680000D03*
%TD*%
%TO.C,U6*%
X96520000Y-129540000D03*
X88900000Y-147320000D03*
X96520000Y-132080000D03*
X88900000Y-144780000D03*
X96520000Y-134620000D03*
X88900000Y-142240000D03*
X96520000Y-137160000D03*
X88900000Y-139700000D03*
X96520000Y-139700000D03*
X88900000Y-137160000D03*
X96520000Y-142240000D03*
X88900000Y-134620000D03*
X96520000Y-144780000D03*
X88900000Y-132080000D03*
X96520000Y-147320000D03*
D12*
X88900000Y-129540000D03*
%TD*%
%TO.C,U7*%
X68580000Y-142240000D03*
D13*
X76200000Y-160020000D03*
X68580000Y-144780000D03*
X76200000Y-157480000D03*
X68580000Y-147320000D03*
X76200000Y-154940000D03*
X68580000Y-149860000D03*
X76200000Y-152400000D03*
X68580000Y-152400000D03*
X76200000Y-149860000D03*
X68580000Y-154940000D03*
X76200000Y-147320000D03*
X68580000Y-157480000D03*
X76200000Y-144780000D03*
X68580000Y-160020000D03*
X76200000Y-142240000D03*
%TD*%
%TO.C,U8*%
X96520000Y-165100000D03*
X88900000Y-182880000D03*
X96520000Y-167640000D03*
X88900000Y-180340000D03*
X96520000Y-170180000D03*
X88900000Y-177800000D03*
X96520000Y-172720000D03*
X88900000Y-175260000D03*
X96520000Y-175260000D03*
X88900000Y-172720000D03*
X96520000Y-177800000D03*
X88900000Y-170180000D03*
X96520000Y-180340000D03*
X88900000Y-167640000D03*
X96520000Y-182880000D03*
D12*
X88900000Y-165100000D03*
%TD*%
D14*
%TO.C,J9*%
X69850000Y-184150000D03*
D15*
X74850000Y-184150000D03*
%TD*%
D10*
%TO.C,J10*%
X90170000Y-187960000D03*
D11*
X92710000Y-187960000D03*
X95250000Y-187960000D03*
%TD*%
D10*
%TO.C,J11*%
X76200000Y-30480000D03*
D11*
X78740000Y-30480000D03*
X81280000Y-30480000D03*
D16*
X83820000Y-30480000D03*
X86360000Y-30480000D03*
D11*
X88900000Y-30480000D03*
X91440000Y-30480000D03*
X93980000Y-30480000D03*
%TD*%
D17*
%TO.C,H1*%
X39370000Y-44450000D03*
%TD*%
%TO.C,H2*%
X39370000Y-105410000D03*
%TD*%
%TO.C,H3*%
X39370000Y-179070000D03*
%TD*%
%TO.C,H4*%
X125730000Y-44450000D03*
%TD*%
%TO.C,H5*%
X125730000Y-105410000D03*
%TD*%
%TO.C,H6*%
X125730000Y-179070000D03*
%TD*%
D10*
%TO.C,J12*%
X17780000Y-184150000D03*
D11*
X20320000Y-184150000D03*
X22860000Y-184150000D03*
X25400000Y-184150000D03*
X27940000Y-184150000D03*
X30480000Y-184150000D03*
X33020000Y-184150000D03*
X35560000Y-184150000D03*
%TD*%
D10*
%TO.C,J13*%
X121920000Y-34290000D03*
D11*
X119380000Y-34290000D03*
X116840000Y-34290000D03*
X114300000Y-34290000D03*
X111760000Y-34290000D03*
X109220000Y-34290000D03*
X106680000Y-34290000D03*
X104140000Y-34290000D03*
%TD*%
%TO.C,J14*%
X60960000Y-184150000D03*
X58420000Y-184150000D03*
X55880000Y-184150000D03*
X53340000Y-184150000D03*
X50800000Y-184150000D03*
X48260000Y-184150000D03*
X45720000Y-184150000D03*
D10*
X43180000Y-184150000D03*
%TD*%
D11*
%TO.C,J15*%
X129540000Y-34290000D03*
X132080000Y-34290000D03*
X134620000Y-34290000D03*
X137160000Y-34290000D03*
X139700000Y-34290000D03*
X142240000Y-34290000D03*
X144780000Y-34290000D03*
D10*
X147320000Y-34290000D03*
%TD*%
%TO.C,J16*%
X17780000Y-34290000D03*
D11*
X20320000Y-34290000D03*
X22860000Y-34290000D03*
X25400000Y-34290000D03*
X27940000Y-34290000D03*
X30480000Y-34290000D03*
X33020000Y-34290000D03*
X35560000Y-34290000D03*
%TD*%
D10*
%TO.C,J17*%
X121920000Y-184150000D03*
D11*
X119380000Y-184150000D03*
X116840000Y-184150000D03*
X114300000Y-184150000D03*
X111760000Y-184150000D03*
X109220000Y-184150000D03*
X106680000Y-184150000D03*
X104140000Y-184150000D03*
%TD*%
%TO.C,J18*%
X60960000Y-34290000D03*
X58420000Y-34290000D03*
X55880000Y-34290000D03*
X53340000Y-34290000D03*
X50800000Y-34290000D03*
X48260000Y-34290000D03*
X45720000Y-34290000D03*
D10*
X43180000Y-34290000D03*
%TD*%
D11*
%TO.C,J19*%
X129540000Y-184150000D03*
X132080000Y-184150000D03*
X134620000Y-184150000D03*
X137160000Y-184150000D03*
X139700000Y-184150000D03*
X142240000Y-184150000D03*
X144780000Y-184150000D03*
D10*
X147320000Y-184150000D03*
%TD*%
M02*
