M48
METRIC
T1C0.500
T2C0.800
T3C1.000
T4C1.300
T5C3.200
%
G90
G05
T1
X38.1Y-121.92
X41.91Y-123.19
X42.545Y-119.38
X43.18Y-40.64
X44.45Y-116.84
X44.767Y-80.01
X45.72Y-40.64
X48.26Y-40.64
X48.26Y-86.36
X48.26Y-95.885
X49.53Y-102.235
X50.8Y-40.64
X50.8Y-101.6
X50.8Y-114.935
X52.07Y-100.965
X53.34Y-40.64
X53.34Y-100.33
X55.88Y-40.64
X58.42Y-40.64
X60.96Y-40.64
X60.96Y-71.755
X62.23Y-89.535
X62.865Y-108.585
X63.182Y-75.882
X63.182Y-85.09
X63.5Y-90.805
X64.135Y-93.345
X65.405Y-79.375
X65.405Y-95.885
X67.31Y-95.25
X69.215Y-94.615
X71.12Y-93.98
X71.12Y-123.19
X73.025Y-64.77
X73.66Y-116.84
X76.2Y-111.76
X78.74Y-60.96
X78.74Y-68.58
X78.74Y-79.375
X80.645Y-81.915
X81.28Y-57.15
X81.915Y-86.995
X82.55Y-73.66
X82.55Y-78.105
X83.82Y-51.435
X84.455Y-99.06
X86.36Y-44.45
X88.9Y-38.1
X93.345Y-105.41
X97.79Y-59.69
X97.79Y-72.39
X98.311Y-75.565
X99.535Y-81.28
X100.33Y-67.31
X100.33Y-71.755
X102.235Y-81.28
X103.505Y-78.105
X104.14Y-80.645
X104.14Y-91.44
X104.14Y-93.345
X104.14Y-100.965
X106.68Y-80.01
X109.22Y-119.38
X111.125Y-53.975
X114.935Y-66.04
X114.935Y-111.125
X116.205Y-116.205
X117.475Y-60.96
X117.475Y-65.405
X117.475Y-74.453
X119.38Y-45.72
X119.38Y-92.075
X120.015Y-107.95
X124.46Y-104.14
X126.365Y-93.98
X129.54Y-99.695
X132.715Y-59.055
X135.255Y-53.975
X135.255Y-58.42
X137.16Y-111.76
X137.16Y-115.57
X137.795Y-40.64
X139.7Y-121.92
X140.335Y-40.64
X140.335Y-81.915
X141.605Y-107.95
X143.51Y-104.14
X144.78Y-83.82
X144.78Y-121.92
X147.32Y-87.63
X147.32Y-106.68
X147.32Y-121.92
X149.86Y-121.92
X151.13Y-53.975
X151.13Y-109.22
X152.4Y-77.47
X152.4Y-121.92
X153.035Y-47.625
X153.035Y-52.07
X154.94Y-121.92
X155.575Y-111.76
X156.21Y-79.375
X156.21Y-81.915
X157.48Y-121.92
X160.02Y-121.92
X162.56Y-37.465
X164.465Y-117.475
X170.498Y-62.23
T2
X109.22Y-72.39
X116.72Y-85.38
X55.88Y-92.392
X63.38Y-105.383
X50.8Y-91.123
X52.07Y-93.322
X53.34Y-95.522
X54.61Y-97.722
X55.88Y-99.921
X57.15Y-102.121
X57.399Y-87.312
X58.42Y-104.321
X58.669Y-89.512
X59.69Y-106.52
X59.939Y-91.712
X61.209Y-93.912
X62.479Y-96.111
X63.749Y-98.311
X65.019Y-100.511
X66.289Y-102.71
X127.317Y-65.722
X134.817Y-78.713
X144.78Y-59.055
X152.28Y-72.045
X91.757Y-79.057
X99.257Y-92.048
X86.36Y-77.787
X87.63Y-79.987
X88.9Y-82.187
X90.17Y-84.387
X91.44Y-86.586
X92.71Y-88.786
X92.959Y-73.977
X93.98Y-90.986
X94.229Y-76.177
X95.25Y-93.185
X95.499Y-78.377
X96.769Y-80.577
X98.039Y-82.776
X99.309Y-84.976
X100.579Y-87.176
X101.849Y-89.375
X121.92Y-64.453
X123.19Y-66.652
X124.46Y-68.852
X125.73Y-71.052
X127.0Y-73.251
X128.27Y-75.451
X128.519Y-60.642
X129.54Y-77.651
X129.789Y-62.842
X130.81Y-79.85
X131.059Y-65.042
X132.329Y-67.242
X133.599Y-69.441
X134.869Y-71.641
X136.139Y-73.841
X137.409Y-76.04
X139.7Y-57.785
X140.97Y-59.985
X142.24Y-62.184
X143.51Y-64.384
X144.78Y-66.584
X146.05Y-68.784
X146.299Y-53.975
X147.32Y-70.983
X147.569Y-56.175
X148.59Y-73.183
X148.839Y-58.374
X150.109Y-60.574
X151.379Y-62.774
X152.649Y-64.974
X153.919Y-67.173
X155.189Y-69.373
X33.02Y-97.79
X34.29Y-99.99
X35.56Y-102.189
X36.83Y-104.389
X38.1Y-106.589
X39.37Y-108.789
X39.619Y-93.98
X40.64Y-110.988
X40.889Y-96.18
X41.91Y-113.188
X42.159Y-98.379
X43.429Y-100.579
X44.699Y-102.779
X45.969Y-104.979
X47.239Y-107.178
X48.509Y-109.378
X157.48Y-51.117
X158.75Y-53.317
X160.02Y-55.517
X161.29Y-57.717
X162.56Y-59.916
X163.83Y-62.116
X164.079Y-47.307
X165.1Y-64.316
X165.349Y-49.507
X166.37Y-66.515
X166.619Y-51.707
X167.889Y-53.907
X169.159Y-56.106
X170.429Y-58.306
X171.699Y-60.506
X172.969Y-62.705
X162.56Y-52.387
X170.06Y-65.378
X38.417Y-99.06
X45.917Y-112.05
X73.66Y-85.725
X81.16Y-98.715
X104.14Y-71.12
X105.41Y-73.32
X106.68Y-75.519
X107.95Y-77.719
X109.22Y-79.919
X110.49Y-82.119
X110.739Y-67.31
X111.76Y-84.318
X112.009Y-69.51
X113.03Y-86.518
X113.279Y-71.709
X114.549Y-73.909
X115.819Y-76.109
X117.089Y-78.309
X118.359Y-80.508
X119.629Y-82.708
X162.56Y-95.567
X162.56Y-110.567
X158.75Y-91.44
X158.75Y-93.98
X158.75Y-96.52
X158.75Y-99.06
X158.75Y-101.6
X158.75Y-104.14
X158.75Y-106.68
X158.75Y-109.22
X158.75Y-111.76
X158.75Y-114.3
X166.37Y-91.44
X166.37Y-93.98
X166.37Y-96.52
X166.37Y-99.06
X166.37Y-101.6
X166.37Y-104.14
X166.37Y-106.68
X166.37Y-109.22
X166.37Y-111.76
X166.37Y-114.3
X68.58Y-84.455
X69.85Y-86.655
X71.12Y-88.854
X72.39Y-91.054
X73.66Y-93.254
X74.93Y-95.454
X75.179Y-80.645
X76.2Y-97.653
X76.449Y-82.845
X77.47Y-99.853
X77.719Y-85.044
X78.989Y-87.244
X80.259Y-89.444
X81.529Y-91.644
X82.799Y-93.843
X84.069Y-96.043
T3
X71.12Y-127.0
X73.66Y-127.0
X76.2Y-127.0
X78.74Y-127.0
X81.28Y-127.0
X83.82Y-127.0
X86.36Y-127.0
X88.9Y-127.0
X91.44Y-127.0
X142.24Y-127.0
X144.78Y-127.0
X147.32Y-127.0
X149.86Y-127.0
X152.4Y-127.0
X154.94Y-127.0
X157.48Y-127.0
X160.02Y-127.0
X162.56Y-127.0
X71.12Y-33.02
X73.66Y-33.02
X76.2Y-33.02
X78.74Y-33.02
X81.28Y-33.02
X83.82Y-33.02
X86.36Y-33.02
X88.9Y-33.02
X91.44Y-33.02
X142.24Y-33.02
X144.78Y-33.02
X147.32Y-33.02
X149.86Y-33.02
X152.4Y-33.02
X154.94Y-33.02
X157.48Y-33.02
X160.02Y-33.02
X162.56Y-33.02
X174.625Y-53.975
X174.625Y-56.515
X174.625Y-59.055
X171.45Y-96.52
X171.45Y-99.06
X171.45Y-101.6
X171.45Y-104.14
X171.45Y-106.68
X171.45Y-109.22
X171.45Y-111.76
X171.45Y-114.3
X171.45Y-116.84
X43.18Y-33.02
X45.72Y-33.02
X48.26Y-33.02
X50.8Y-33.02
X53.34Y-33.02
X55.88Y-33.02
X58.42Y-33.02
X60.96Y-33.02
X63.5Y-33.02
X114.3Y-127.0
X116.84Y-127.0
X119.38Y-127.0
X121.92Y-127.0
X124.46Y-127.0
X127.0Y-127.0
X129.54Y-127.0
X132.08Y-127.0
X134.62Y-127.0
X43.18Y-127.0
X45.72Y-127.0
X48.26Y-127.0
X50.8Y-127.0
X53.34Y-127.0
X55.88Y-127.0
X58.42Y-127.0
X60.96Y-127.0
X63.5Y-127.0
X172.72Y-91.44
X114.3Y-33.02
X116.84Y-33.02
X119.38Y-33.02
X121.92Y-33.02
X124.46Y-33.02
X127.0Y-33.02
X129.54Y-33.02
X132.08Y-33.02
X134.62Y-33.02
X172.085Y-47.625
X175.26Y-96.52
X175.26Y-99.06
X175.26Y-101.6
X175.26Y-104.14
X175.26Y-106.68
X175.26Y-109.22
X175.26Y-111.76
X175.26Y-114.3
X175.26Y-116.84
X172.085Y-68.58
T4
X172.72Y-81.36
X172.72Y-86.36
T5
X33.02Y-35.56
X33.02Y-124.46
X102.87Y-124.46
X102.87Y-35.56
X172.72Y-35.56
X172.72Y-124.46
T0
M30
