%TF.GenerationSoftware,KiCad,Pcbnew,(5.1.8)-1*%
%TF.CreationDate,2024-07-22T00:29:45+03:00*%
%TF.ProjectId,ALU,414c552e-6b69-4636-9164-5f7063625858,rev?*%
%TF.SameCoordinates,Original*%
%TF.FileFunction,Legend,Bot*%
%TF.FilePolarity,Positive*%
%FSLAX46Y46*%
G04 Gerber Fmt 4.6, Leading zero omitted, Abs format (unit mm)*
G04 Created by KiCad (PCBNEW (5.1.8)-1) date 2024-07-22 00:29:45*
%MOMM*%
%LPD*%
G01*
G04 APERTURE LIST*
%ADD10C,0.120000*%
%ADD11C,0.150000*%
G04 APERTURE END LIST*
D10*
%TO.C,Q1*%
X66800000Y-103195000D02*
X66800000Y-104125000D01*
X66800000Y-106355000D02*
X66800000Y-105425000D01*
X66800000Y-106355000D02*
X64640000Y-106355000D01*
X66800000Y-103195000D02*
X65340000Y-103195000D01*
%TO.C,C1*%
X64035000Y-93718748D02*
X64035000Y-94241252D01*
X65505000Y-93718748D02*
X65505000Y-94241252D01*
%TO.C,Q1*%
D11*
X66135238Y-107822619D02*
X66230476Y-107775000D01*
X66325714Y-107679761D01*
X66468571Y-107536904D01*
X66563809Y-107489285D01*
X66659047Y-107489285D01*
X66611428Y-107727380D02*
X66706666Y-107679761D01*
X66801904Y-107584523D01*
X66849523Y-107394047D01*
X66849523Y-107060714D01*
X66801904Y-106870238D01*
X66706666Y-106775000D01*
X66611428Y-106727380D01*
X66420952Y-106727380D01*
X66325714Y-106775000D01*
X66230476Y-106870238D01*
X66182857Y-107060714D01*
X66182857Y-107394047D01*
X66230476Y-107584523D01*
X66325714Y-107679761D01*
X66420952Y-107727380D01*
X66611428Y-107727380D01*
X65230476Y-107727380D02*
X65801904Y-107727380D01*
X65516190Y-107727380D02*
X65516190Y-106727380D01*
X65611428Y-106870238D01*
X65706666Y-106965476D01*
X65801904Y-107013095D01*
%TO.C,C1*%
X63447142Y-93813333D02*
X63494761Y-93765714D01*
X63542380Y-93622857D01*
X63542380Y-93527619D01*
X63494761Y-93384761D01*
X63399523Y-93289523D01*
X63304285Y-93241904D01*
X63113809Y-93194285D01*
X62970952Y-93194285D01*
X62780476Y-93241904D01*
X62685238Y-93289523D01*
X62590000Y-93384761D01*
X62542380Y-93527619D01*
X62542380Y-93622857D01*
X62590000Y-93765714D01*
X62637619Y-93813333D01*
X63542380Y-94765714D02*
X63542380Y-94194285D01*
X63542380Y-94480000D02*
X62542380Y-94480000D01*
X62685238Y-94384761D01*
X62780476Y-94289523D01*
X62828095Y-94194285D01*
%TD*%
M02*
