%TF.GenerationSoftware,KiCad,Pcbnew,(5.1.8)-1*%
%TF.CreationDate,2024-07-24T23:50:51+03:00*%
%TF.ProjectId,ALU,414c552e-6b69-4636-9164-5f7063625858,rev?*%
%TF.SameCoordinates,Original*%
%TF.FileFunction,Copper,L1,Top*%
%TF.FilePolarity,Positive*%
%FSLAX46Y46*%
G04 Gerber Fmt 4.6, Leading zero omitted, Abs format (unit mm)*
G04 Created by KiCad (PCBNEW (5.1.8)-1) date 2024-07-24 23:50:51*
%MOMM*%
%LPD*%
G01*
G04 APERTURE LIST*
%TA.AperFunction,NonConductor*%
%ADD10C,0.300000*%
%TD*%
%TA.AperFunction,ComponentPad*%
%ADD11C,2.200000*%
%TD*%
%TA.AperFunction,ComponentPad*%
%ADD12R,1.700000X1.700000*%
%TD*%
%TA.AperFunction,ComponentPad*%
%ADD13O,2.200000X2.000000*%
%TD*%
%TA.AperFunction,ComponentPad*%
%ADD14R,2.600000X2.600000*%
%TD*%
%TA.AperFunction,ComponentPad*%
%ADD15C,2.600000*%
%TD*%
%TA.AperFunction,ComponentPad*%
%ADD16R,2.100000X2.000000*%
%TD*%
%TA.AperFunction,ComponentPad*%
%ADD17O,2.100000X2.000000*%
%TD*%
%TA.AperFunction,ViaPad*%
%ADD18C,1.600000*%
%TD*%
%TA.AperFunction,ViaPad*%
%ADD19C,1.500000*%
%TD*%
%TA.AperFunction,Conductor*%
%ADD20C,0.800000*%
%TD*%
G04 APERTURE END LIST*
D10*
X91805714Y-15831428D02*
X91877142Y-15760000D01*
X92020000Y-15688571D01*
X92377142Y-15688571D01*
X92520000Y-15760000D01*
X92591428Y-15831428D01*
X92662857Y-15974285D01*
X92662857Y-16117142D01*
X92591428Y-16331428D01*
X91734285Y-17188571D01*
X92662857Y-17188571D01*
X93948571Y-16188571D02*
X93948571Y-17188571D01*
X93591428Y-15617142D02*
X93234285Y-16688571D01*
X94162857Y-16688571D01*
X94734285Y-17045714D02*
X94805714Y-17117142D01*
X94734285Y-17188571D01*
X94662857Y-17117142D01*
X94734285Y-17045714D01*
X94734285Y-17188571D01*
X95734285Y-15688571D02*
X95877142Y-15688571D01*
X96020000Y-15760000D01*
X96091428Y-15831428D01*
X96162857Y-15974285D01*
X96234285Y-16260000D01*
X96234285Y-16617142D01*
X96162857Y-16902857D01*
X96091428Y-17045714D01*
X96020000Y-17117142D01*
X95877142Y-17188571D01*
X95734285Y-17188571D01*
X95591428Y-17117142D01*
X95520000Y-17045714D01*
X95448571Y-16902857D01*
X95377142Y-16617142D01*
X95377142Y-16260000D01*
X95448571Y-15974285D01*
X95520000Y-15831428D01*
X95591428Y-15760000D01*
X95734285Y-15688571D01*
X96734285Y-15688571D02*
X97734285Y-15688571D01*
X97091428Y-17188571D01*
X98305714Y-17045714D02*
X98377142Y-17117142D01*
X98305714Y-17188571D01*
X98234285Y-17117142D01*
X98305714Y-17045714D01*
X98305714Y-17188571D01*
X98948571Y-15831428D02*
X99020000Y-15760000D01*
X99162857Y-15688571D01*
X99520000Y-15688571D01*
X99662857Y-15760000D01*
X99734285Y-15831428D01*
X99805714Y-15974285D01*
X99805714Y-16117142D01*
X99734285Y-16331428D01*
X98877142Y-17188571D01*
X99805714Y-17188571D01*
X101091428Y-16188571D02*
X101091428Y-17188571D01*
X100734285Y-15617142D02*
X100377142Y-16688571D01*
X101305714Y-16688571D01*
X76994285Y-15688571D02*
X77994285Y-15688571D01*
X77351428Y-17188571D01*
X79208571Y-16188571D02*
X79208571Y-17188571D01*
X78851428Y-15617142D02*
X78494285Y-16688571D01*
X79422857Y-16688571D01*
X79994285Y-17188571D02*
X79994285Y-15688571D01*
X79994285Y-16402857D02*
X80851428Y-16402857D01*
X80851428Y-17188571D02*
X80851428Y-15688571D01*
X82422857Y-17045714D02*
X82351428Y-17117142D01*
X82137142Y-17188571D01*
X81994285Y-17188571D01*
X81780000Y-17117142D01*
X81637142Y-16974285D01*
X81565714Y-16831428D01*
X81494285Y-16545714D01*
X81494285Y-16331428D01*
X81565714Y-16045714D01*
X81637142Y-15902857D01*
X81780000Y-15760000D01*
X81994285Y-15688571D01*
X82137142Y-15688571D01*
X82351428Y-15760000D01*
X82422857Y-15831428D01*
X83065714Y-17188571D02*
X83065714Y-15688571D01*
X83637142Y-15688571D01*
X83780000Y-15760000D01*
X83851428Y-15831428D01*
X83922857Y-15974285D01*
X83922857Y-16188571D01*
X83851428Y-16331428D01*
X83780000Y-16402857D01*
X83637142Y-16474285D01*
X83065714Y-16474285D01*
X84565714Y-15688571D02*
X84565714Y-16902857D01*
X84637142Y-17045714D01*
X84708571Y-17117142D01*
X84851428Y-17188571D01*
X85137142Y-17188571D01*
X85280000Y-17117142D01*
X85351428Y-17045714D01*
X85422857Y-16902857D01*
X85422857Y-15688571D01*
D11*
%TO.P,U9,21*%
%TO.N,Net-(U9-Pad21)*%
X25400000Y-104140000D03*
%TO.P,U9,20*%
%TO.N,/~RSRV*%
X25400000Y-101600000D03*
%TO.P,U9,19*%
%TO.N,GND*%
X25400000Y-99060000D03*
%TO.P,U9,18*%
%TO.N,VCC*%
X25400000Y-96520000D03*
%TO.P,U9,17*%
%TO.N,/Latch*%
X25400000Y-93980000D03*
%TO.P,U9,16*%
%TO.N,/O7*%
X25400000Y-88900000D03*
%TO.P,U9,15*%
%TO.N,/O6*%
X25400000Y-86360000D03*
%TO.P,U9,14*%
%TO.N,/O5*%
X25400000Y-83820000D03*
%TO.P,U9,13*%
%TO.N,/O4*%
X25400000Y-81280000D03*
%TO.P,U9,12*%
%TO.N,/O3*%
X25400000Y-78740000D03*
%TO.P,U9,11*%
%TO.N,/O2*%
X25400000Y-76200000D03*
%TO.P,U9,10*%
%TO.N,/O1*%
X25400000Y-73660000D03*
%TO.P,U9,9*%
%TO.N,/O0*%
X25400000Y-71120000D03*
%TO.P,U9,8*%
%TO.N,/A7*%
X25400000Y-66040000D03*
%TO.P,U9,7*%
%TO.N,/A6*%
X25400000Y-63500000D03*
%TO.P,U9,6*%
%TO.N,/A5*%
X25400000Y-60960000D03*
%TO.P,U9,5*%
%TO.N,/A4*%
X25400000Y-58420000D03*
%TO.P,U9,4*%
%TO.N,/A3*%
X25400000Y-55880000D03*
%TO.P,U9,3*%
%TO.N,/A2*%
X25400000Y-53340000D03*
%TO.P,U9,2*%
%TO.N,/A1*%
X25400000Y-50800000D03*
%TO.P,U9,1*%
%TO.N,/A0*%
X25400000Y-48260000D03*
%TD*%
D12*
%TO.P,J14,1*%
%TO.N,/INVH*%
X53340000Y-15557500D03*
%TD*%
%TO.P,J13,1*%
%TO.N,/INVL*%
X48260000Y-15557500D03*
%TD*%
%TO.P,J12,1*%
%TO.N,/~RSRV*%
X25400000Y-110490000D03*
%TD*%
D13*
%TO.P,U10,20*%
%TO.N,VCC*%
X43180000Y-17780000D03*
D11*
%TO.P,U10,19*%
%TO.N,/B0*%
X43180000Y-20320000D03*
%TO.P,U10,18*%
%TO.N,/B1*%
X43180000Y-22860000D03*
%TO.P,U10,17*%
%TO.N,/B2*%
X43180000Y-25400000D03*
%TO.P,U10,16*%
%TO.N,/B3*%
X43180000Y-27940000D03*
%TO.P,U10,15*%
%TO.N,/B4*%
X43180000Y-30480000D03*
%TO.P,U10,14*%
%TO.N,/B5*%
X43180000Y-33020000D03*
%TO.P,U10,13*%
%TO.N,/B6*%
X43180000Y-35560000D03*
%TO.P,U10,12*%
%TO.N,/B7*%
X43180000Y-38100000D03*
%TO.P,U10,11*%
%TO.N,/INVH*%
X43180000Y-40640000D03*
%TO.P,U10,10*%
%TO.N,GND*%
X25400000Y-40640000D03*
%TO.P,U10,9*%
%TO.N,/B7'*%
X25400000Y-38100000D03*
%TO.P,U10,8*%
%TO.N,/B6'*%
X25400000Y-35560000D03*
%TO.P,U10,7*%
%TO.N,/B5'*%
X25400000Y-33020000D03*
%TO.P,U10,6*%
%TO.N,/B4'*%
X25400000Y-30480000D03*
%TO.P,U10,5*%
%TO.N,/B3'*%
X25400000Y-27940000D03*
%TO.P,U10,4*%
%TO.N,/B2'*%
X25400000Y-25400000D03*
%TO.P,U10,3*%
%TO.N,/B1'*%
X25400000Y-22860000D03*
%TO.P,U10,2*%
%TO.N,/B0'*%
X25400000Y-20320000D03*
%TO.P,U10,1*%
%TO.N,/INVL*%
X25400000Y-17780000D03*
%TD*%
D12*
%TO.P,J11,1*%
%TO.N,/~SWAP*%
X40640000Y-110490000D03*
%TD*%
D11*
%TO.P,U8,21*%
%TO.N,Net-(U8-Pad21)*%
X43180000Y-104140000D03*
%TO.P,U8,20*%
%TO.N,/~SWAP*%
X43180000Y-101600000D03*
%TO.P,U8,19*%
%TO.N,GND*%
X43180000Y-99060000D03*
%TO.P,U8,18*%
%TO.N,VCC*%
X43180000Y-96520000D03*
%TO.P,U8,17*%
%TO.N,/Latch*%
X43180000Y-93980000D03*
%TO.P,U8,16*%
%TO.N,/O7*%
X43180000Y-88900000D03*
%TO.P,U8,15*%
%TO.N,/O6*%
X43180000Y-86360000D03*
%TO.P,U8,14*%
%TO.N,/O5*%
X43180000Y-83820000D03*
%TO.P,U8,13*%
%TO.N,/O4*%
X43180000Y-81280000D03*
%TO.P,U8,12*%
%TO.N,/O3*%
X43180000Y-78740000D03*
%TO.P,U8,11*%
%TO.N,/O2*%
X43180000Y-76200000D03*
%TO.P,U8,10*%
%TO.N,/O1*%
X43180000Y-73660000D03*
%TO.P,U8,9*%
%TO.N,/O0*%
X43180000Y-71120000D03*
%TO.P,U8,8*%
%TO.N,/A7*%
X43180000Y-66040000D03*
%TO.P,U8,7*%
%TO.N,/A6*%
X43180000Y-63500000D03*
%TO.P,U8,6*%
%TO.N,/A5*%
X43180000Y-60960000D03*
%TO.P,U8,5*%
%TO.N,/A4*%
X43180000Y-58420000D03*
%TO.P,U8,4*%
%TO.N,/A3*%
X43180000Y-55880000D03*
%TO.P,U8,3*%
%TO.N,/A2*%
X43180000Y-53340000D03*
%TO.P,U8,2*%
%TO.N,/A1*%
X43180000Y-50800000D03*
%TO.P,U8,1*%
%TO.N,/A0*%
X43180000Y-48260000D03*
%TD*%
D12*
%TO.P,J6,1*%
%TO.N,/UseCF2*%
X30480000Y-110490000D03*
%TD*%
%TO.P,J5,1*%
%TO.N,/~LSRx*%
X34290000Y-110490000D03*
%TD*%
D11*
%TO.P,U5,29*%
%TO.N,Net-(U5-Pad29)*%
X99060000Y-101600000D03*
%TO.P,U5,28*%
%TO.N,/CMP.Expand*%
X99060000Y-99060000D03*
%TO.P,U5,27*%
%TO.N,GND*%
X99060000Y-96520000D03*
%TO.P,U5,26*%
%TO.N,VCC*%
X99060000Y-93980000D03*
%TO.P,U5,25*%
%TO.N,/Latch*%
X99060000Y-91440000D03*
%TO.P,U5,24*%
%TO.N,/O7*%
X99060000Y-86360000D03*
%TO.P,U5,23*%
%TO.N,/O6*%
X99060000Y-83820000D03*
%TO.P,U5,22*%
%TO.N,/O5*%
X99060000Y-81280000D03*
%TO.P,U5,21*%
%TO.N,/O4*%
X99060000Y-78740000D03*
%TO.P,U5,20*%
%TO.N,/O3*%
X99060000Y-76200000D03*
%TO.P,U5,19*%
%TO.N,/O2*%
X99060000Y-73660000D03*
%TO.P,U5,18*%
%TO.N,/O1*%
X99060000Y-71120000D03*
%TO.P,U5,17*%
%TO.N,/O0*%
X99060000Y-68580000D03*
%TO.P,U5,16*%
%TO.N,/A7*%
X99060000Y-63500000D03*
%TO.P,U5,15*%
%TO.N,/A6*%
X99060000Y-60960000D03*
%TO.P,U5,14*%
%TO.N,/A5*%
X99060000Y-58420000D03*
%TO.P,U5,13*%
%TO.N,/A4*%
X99060000Y-55880000D03*
%TO.P,U5,12*%
%TO.N,/A3*%
X99060000Y-53340000D03*
%TO.P,U5,11*%
%TO.N,/A2*%
X99060000Y-50800000D03*
%TO.P,U5,10*%
%TO.N,/A1*%
X99060000Y-48260000D03*
%TO.P,U5,9*%
%TO.N,/A0*%
X99060000Y-45720000D03*
%TO.P,U5,8*%
%TO.N,/B7*%
X99060000Y-40640000D03*
%TO.P,U5,7*%
%TO.N,/B6*%
X99060000Y-38100000D03*
%TO.P,U5,6*%
%TO.N,/B5*%
X99060000Y-35560000D03*
%TO.P,U5,5*%
%TO.N,/B4*%
X99060000Y-33020000D03*
%TO.P,U5,4*%
%TO.N,/B3*%
X99060000Y-30480000D03*
%TO.P,U5,3*%
%TO.N,/B2*%
X99060000Y-27940000D03*
%TO.P,U5,2*%
%TO.N,/B1*%
X99060000Y-25400000D03*
%TO.P,U5,1*%
%TO.N,/B0*%
X99060000Y-22860000D03*
%TD*%
D14*
%TO.P,J7,1*%
%TO.N,GND*%
X68580000Y-110172500D03*
D15*
%TO.P,J7,2*%
%TO.N,Net-(J7-Pad2)*%
X73580000Y-110172500D03*
%TD*%
D11*
%TO.P,U1,1*%
%TO.N,/B0*%
X53340000Y-22860000D03*
%TO.P,U1,2*%
%TO.N,/B1*%
X53340000Y-25400000D03*
%TO.P,U1,3*%
%TO.N,/B2*%
X53340000Y-27940000D03*
%TO.P,U1,4*%
%TO.N,/B3*%
X53340000Y-30480000D03*
%TO.P,U1,5*%
%TO.N,/B4*%
X53340000Y-33020000D03*
%TO.P,U1,6*%
%TO.N,/B5*%
X53340000Y-35560000D03*
%TO.P,U1,7*%
%TO.N,/B6*%
X53340000Y-38100000D03*
%TO.P,U1,8*%
%TO.N,/B7*%
X53340000Y-40640000D03*
%TO.P,U1,9*%
%TO.N,/A0*%
X53340000Y-45720000D03*
%TO.P,U1,10*%
%TO.N,/A1*%
X53340000Y-48260000D03*
%TO.P,U1,11*%
%TO.N,/A2*%
X53340000Y-50800000D03*
%TO.P,U1,12*%
%TO.N,/A3*%
X53340000Y-53340000D03*
%TO.P,U1,13*%
%TO.N,/A4*%
X53340000Y-55880000D03*
%TO.P,U1,14*%
%TO.N,/A5*%
X53340000Y-58420000D03*
%TO.P,U1,15*%
%TO.N,/A6*%
X53340000Y-60960000D03*
%TO.P,U1,16*%
%TO.N,/A7*%
X53340000Y-63500000D03*
%TO.P,U1,17*%
%TO.N,/O0*%
X53340000Y-68580000D03*
%TO.P,U1,18*%
%TO.N,/O1*%
X53340000Y-71120000D03*
%TO.P,U1,19*%
%TO.N,/O2*%
X53340000Y-73660000D03*
%TO.P,U1,20*%
%TO.N,/O3*%
X53340000Y-76200000D03*
%TO.P,U1,21*%
%TO.N,/O4*%
X53340000Y-78740000D03*
%TO.P,U1,22*%
%TO.N,/O5*%
X53340000Y-81280000D03*
%TO.P,U1,23*%
%TO.N,/O6*%
X53340000Y-83820000D03*
%TO.P,U1,24*%
%TO.N,/O7*%
X53340000Y-86360000D03*
%TO.P,U1,25*%
%TO.N,/Latch*%
X53340000Y-91440000D03*
%TO.P,U1,26*%
%TO.N,VCC*%
X53340000Y-93980000D03*
%TO.P,U1,27*%
%TO.N,GND*%
X53340000Y-96520000D03*
%TO.P,U1,28*%
%TO.N,/UseCF*%
X53340000Y-99060000D03*
%TO.P,U1,29*%
%TO.N,/~ADDx*%
X53340000Y-101600000D03*
%TD*%
%TO.P,U2,29*%
%TO.N,Net-(U2-Pad29)*%
X63500000Y-101600000D03*
%TO.P,U2,28*%
%TO.N,/~AND*%
X63500000Y-99060000D03*
%TO.P,U2,27*%
%TO.N,GND*%
X63500000Y-96520000D03*
%TO.P,U2,26*%
%TO.N,VCC*%
X63500000Y-93980000D03*
%TO.P,U2,25*%
%TO.N,/Latch*%
X63500000Y-91440000D03*
%TO.P,U2,24*%
%TO.N,/O7*%
X63500000Y-86360000D03*
%TO.P,U2,23*%
%TO.N,/O6*%
X63500000Y-83820000D03*
%TO.P,U2,22*%
%TO.N,/O5*%
X63500000Y-81280000D03*
%TO.P,U2,21*%
%TO.N,/O4*%
X63500000Y-78740000D03*
%TO.P,U2,20*%
%TO.N,/O3*%
X63500000Y-76200000D03*
%TO.P,U2,19*%
%TO.N,/O2*%
X63500000Y-73660000D03*
%TO.P,U2,18*%
%TO.N,/O1*%
X63500000Y-71120000D03*
%TO.P,U2,17*%
%TO.N,/O0*%
X63500000Y-68580000D03*
%TO.P,U2,16*%
%TO.N,/A7*%
X63500000Y-63500000D03*
%TO.P,U2,15*%
%TO.N,/A6*%
X63500000Y-60960000D03*
%TO.P,U2,14*%
%TO.N,/A5*%
X63500000Y-58420000D03*
%TO.P,U2,13*%
%TO.N,/A4*%
X63500000Y-55880000D03*
%TO.P,U2,12*%
%TO.N,/A3*%
X63500000Y-53340000D03*
%TO.P,U2,11*%
%TO.N,/A2*%
X63500000Y-50800000D03*
%TO.P,U2,10*%
%TO.N,/A1*%
X63500000Y-48260000D03*
%TO.P,U2,9*%
%TO.N,/A0*%
X63500000Y-45720000D03*
%TO.P,U2,8*%
%TO.N,/B7*%
X63500000Y-40640000D03*
%TO.P,U2,7*%
%TO.N,/B6*%
X63500000Y-38100000D03*
%TO.P,U2,6*%
%TO.N,/B5*%
X63500000Y-35560000D03*
%TO.P,U2,5*%
%TO.N,/B4*%
X63500000Y-33020000D03*
%TO.P,U2,4*%
%TO.N,/B3*%
X63500000Y-30480000D03*
%TO.P,U2,3*%
%TO.N,/B2*%
X63500000Y-27940000D03*
%TO.P,U2,2*%
%TO.N,/B1*%
X63500000Y-25400000D03*
%TO.P,U2,1*%
%TO.N,/B0*%
X63500000Y-22860000D03*
%TD*%
%TO.P,U3,1*%
%TO.N,/B0*%
X78740000Y-22860000D03*
%TO.P,U3,2*%
%TO.N,/B1*%
X78740000Y-25400000D03*
%TO.P,U3,3*%
%TO.N,/B2*%
X78740000Y-27940000D03*
%TO.P,U3,4*%
%TO.N,/B3*%
X78740000Y-30480000D03*
%TO.P,U3,5*%
%TO.N,/B4*%
X78740000Y-33020000D03*
%TO.P,U3,6*%
%TO.N,/B5*%
X78740000Y-35560000D03*
%TO.P,U3,7*%
%TO.N,/B6*%
X78740000Y-38100000D03*
%TO.P,U3,8*%
%TO.N,/B7*%
X78740000Y-40640000D03*
%TO.P,U3,9*%
%TO.N,/A0*%
X78740000Y-45720000D03*
%TO.P,U3,10*%
%TO.N,/A1*%
X78740000Y-48260000D03*
%TO.P,U3,11*%
%TO.N,/A2*%
X78740000Y-50800000D03*
%TO.P,U3,12*%
%TO.N,/A3*%
X78740000Y-53340000D03*
%TO.P,U3,13*%
%TO.N,/A4*%
X78740000Y-55880000D03*
%TO.P,U3,14*%
%TO.N,/A5*%
X78740000Y-58420000D03*
%TO.P,U3,15*%
%TO.N,/A6*%
X78740000Y-60960000D03*
%TO.P,U3,16*%
%TO.N,/A7*%
X78740000Y-63500000D03*
%TO.P,U3,17*%
%TO.N,/O0*%
X78740000Y-68580000D03*
%TO.P,U3,18*%
%TO.N,/O1*%
X78740000Y-71120000D03*
%TO.P,U3,19*%
%TO.N,/O2*%
X78740000Y-73660000D03*
%TO.P,U3,20*%
%TO.N,/O3*%
X78740000Y-76200000D03*
%TO.P,U3,21*%
%TO.N,/O4*%
X78740000Y-78740000D03*
%TO.P,U3,22*%
%TO.N,/O5*%
X78740000Y-81280000D03*
%TO.P,U3,23*%
%TO.N,/O6*%
X78740000Y-83820000D03*
%TO.P,U3,24*%
%TO.N,/O7*%
X78740000Y-86360000D03*
%TO.P,U3,25*%
%TO.N,/Latch*%
X78740000Y-91440000D03*
%TO.P,U3,26*%
%TO.N,VCC*%
X78740000Y-93980000D03*
%TO.P,U3,27*%
%TO.N,GND*%
X78740000Y-96520000D03*
%TO.P,U3,28*%
%TO.N,/~OR*%
X78740000Y-99060000D03*
%TO.P,U3,29*%
%TO.N,Net-(U3-Pad29)*%
X78740000Y-101600000D03*
%TD*%
%TO.P,U4,1*%
%TO.N,/B0*%
X88900000Y-22860000D03*
%TO.P,U4,2*%
%TO.N,/B1*%
X88900000Y-25400000D03*
%TO.P,U4,3*%
%TO.N,/B2*%
X88900000Y-27940000D03*
%TO.P,U4,4*%
%TO.N,/B3*%
X88900000Y-30480000D03*
%TO.P,U4,5*%
%TO.N,/B4*%
X88900000Y-33020000D03*
%TO.P,U4,6*%
%TO.N,/B5*%
X88900000Y-35560000D03*
%TO.P,U4,7*%
%TO.N,/B6*%
X88900000Y-38100000D03*
%TO.P,U4,8*%
%TO.N,/B7*%
X88900000Y-40640000D03*
%TO.P,U4,9*%
%TO.N,/A0*%
X88900000Y-45720000D03*
%TO.P,U4,10*%
%TO.N,/A1*%
X88900000Y-48260000D03*
%TO.P,U4,11*%
%TO.N,/A2*%
X88900000Y-50800000D03*
%TO.P,U4,12*%
%TO.N,/A3*%
X88900000Y-53340000D03*
%TO.P,U4,13*%
%TO.N,/A4*%
X88900000Y-55880000D03*
%TO.P,U4,14*%
%TO.N,/A5*%
X88900000Y-58420000D03*
%TO.P,U4,15*%
%TO.N,/A6*%
X88900000Y-60960000D03*
%TO.P,U4,16*%
%TO.N,/A7*%
X88900000Y-63500000D03*
%TO.P,U4,17*%
%TO.N,/O0*%
X88900000Y-68580000D03*
%TO.P,U4,18*%
%TO.N,/O1*%
X88900000Y-71120000D03*
%TO.P,U4,19*%
%TO.N,/O2*%
X88900000Y-73660000D03*
%TO.P,U4,20*%
%TO.N,/O3*%
X88900000Y-76200000D03*
%TO.P,U4,21*%
%TO.N,/O4*%
X88900000Y-78740000D03*
%TO.P,U4,22*%
%TO.N,/O5*%
X88900000Y-81280000D03*
%TO.P,U4,23*%
%TO.N,/O6*%
X88900000Y-83820000D03*
%TO.P,U4,24*%
%TO.N,/O7*%
X88900000Y-86360000D03*
%TO.P,U4,25*%
%TO.N,/Latch*%
X88900000Y-91440000D03*
%TO.P,U4,26*%
%TO.N,VCC*%
X88900000Y-93980000D03*
%TO.P,U4,27*%
%TO.N,GND*%
X88900000Y-96520000D03*
%TO.P,U4,28*%
%TO.N,/~XOR*%
X88900000Y-99060000D03*
%TO.P,U4,29*%
%TO.N,Net-(U4-Pad29)*%
X88900000Y-101600000D03*
%TD*%
D16*
%TO.P,J4,1*%
%TO.N,/Latch*%
X69850000Y-88900000D03*
%TD*%
D12*
%TO.P,J25,1*%
%TO.N,/~MOV*%
X100330000Y-110490000D03*
%TD*%
%TO.P,J26,1*%
%TO.N,/~XOR*%
X86360000Y-110490000D03*
%TD*%
%TO.P,J27,1*%
%TO.N,/~OR*%
X81280000Y-110490000D03*
%TD*%
%TO.P,J28,1*%
%TO.N,/~AND*%
X58420000Y-110490000D03*
%TD*%
%TO.P,J30,1*%
%TO.N,/~ADDx*%
X53340000Y-110490000D03*
%TD*%
%TO.P,J31,1*%
%TO.N,/UseCF*%
X48260000Y-110490000D03*
%TD*%
%TO.P,J41,1*%
%TO.N,/CMP.Expand*%
X93980000Y-110490000D03*
%TD*%
D11*
%TO.P,U6,29*%
%TO.N,Net-(U6-Pad29)*%
X109220000Y-102870000D03*
%TO.P,U6,28*%
%TO.N,/~MOV*%
X109220000Y-100330000D03*
%TO.P,U6,27*%
%TO.N,GND*%
X109220000Y-97790000D03*
%TO.P,U6,26*%
%TO.N,VCC*%
X109220000Y-95250000D03*
%TO.P,U6,25*%
%TO.N,/Latch*%
X109220000Y-92710000D03*
%TO.P,U6,24*%
%TO.N,/O7*%
X109220000Y-87630000D03*
%TO.P,U6,23*%
%TO.N,/O6*%
X109220000Y-85090000D03*
%TO.P,U6,22*%
%TO.N,/O5*%
X109220000Y-82550000D03*
%TO.P,U6,21*%
%TO.N,/O4*%
X109220000Y-80010000D03*
%TO.P,U6,20*%
%TO.N,/O3*%
X109220000Y-77470000D03*
%TO.P,U6,19*%
%TO.N,/O2*%
X109220000Y-74930000D03*
%TO.P,U6,18*%
%TO.N,/O1*%
X109220000Y-72390000D03*
%TO.P,U6,17*%
%TO.N,/O0*%
X109220000Y-69850000D03*
%TO.P,U6,16*%
%TO.N,/A7*%
X109220000Y-64770000D03*
%TO.P,U6,15*%
%TO.N,/A6*%
X109220000Y-62230000D03*
%TO.P,U6,14*%
%TO.N,/A5*%
X109220000Y-59690000D03*
%TO.P,U6,13*%
%TO.N,/A4*%
X109220000Y-57150000D03*
%TO.P,U6,12*%
%TO.N,/A3*%
X109220000Y-54610000D03*
%TO.P,U6,11*%
%TO.N,/A2*%
X109220000Y-52070000D03*
%TO.P,U6,10*%
%TO.N,/A1*%
X109220000Y-49530000D03*
%TO.P,U6,9*%
%TO.N,/A0*%
X109220000Y-46990000D03*
%TO.P,U6,8*%
%TO.N,/B7*%
X109220000Y-41910000D03*
%TO.P,U6,7*%
%TO.N,/B6*%
X109220000Y-39370000D03*
%TO.P,U6,6*%
%TO.N,/B5*%
X109220000Y-36830000D03*
%TO.P,U6,5*%
%TO.N,/B4*%
X109220000Y-34290000D03*
%TO.P,U6,4*%
%TO.N,/B3*%
X109220000Y-31750000D03*
%TO.P,U6,3*%
%TO.N,/B2*%
X109220000Y-29210000D03*
%TO.P,U6,2*%
%TO.N,/B1*%
X109220000Y-26670000D03*
%TO.P,U6,1*%
%TO.N,/B0*%
X109220000Y-24130000D03*
%TD*%
%TO.P,U7,1*%
%TO.N,/A0*%
X34290000Y-48260000D03*
%TO.P,U7,2*%
%TO.N,/A1*%
X34290000Y-50800000D03*
%TO.P,U7,3*%
%TO.N,/A2*%
X34290000Y-53340000D03*
%TO.P,U7,4*%
%TO.N,/A3*%
X34290000Y-55880000D03*
%TO.P,U7,5*%
%TO.N,/A4*%
X34290000Y-58420000D03*
%TO.P,U7,6*%
%TO.N,/A5*%
X34290000Y-60960000D03*
%TO.P,U7,7*%
%TO.N,/A6*%
X34290000Y-63500000D03*
%TO.P,U7,8*%
%TO.N,/A7*%
X34290000Y-66040000D03*
%TO.P,U7,9*%
%TO.N,/O0*%
X34290000Y-71120000D03*
%TO.P,U7,10*%
%TO.N,/O1*%
X34290000Y-73660000D03*
%TO.P,U7,11*%
%TO.N,/O2*%
X34290000Y-76200000D03*
%TO.P,U7,12*%
%TO.N,/O3*%
X34290000Y-78740000D03*
%TO.P,U7,13*%
%TO.N,/O4*%
X34290000Y-81280000D03*
%TO.P,U7,14*%
%TO.N,/O5*%
X34290000Y-83820000D03*
%TO.P,U7,15*%
%TO.N,/O6*%
X34290000Y-86360000D03*
%TO.P,U7,16*%
%TO.N,/O7*%
X34290000Y-88900000D03*
%TO.P,U7,17*%
%TO.N,/Latch*%
X34290000Y-93980000D03*
%TO.P,U7,18*%
%TO.N,VCC*%
X34290000Y-96520000D03*
%TO.P,U7,19*%
%TO.N,GND*%
X34290000Y-99060000D03*
%TO.P,U7,20*%
%TO.N,/UseCF2*%
X34290000Y-101600000D03*
%TO.P,U7,21*%
%TO.N,/~LSRx*%
X34290000Y-104140000D03*
%TD*%
D16*
%TO.P,J1,1*%
%TO.N,GND*%
X15240000Y-24130000D03*
D17*
%TO.P,J1,2*%
%TO.N,/B0'*%
X15240000Y-26670000D03*
%TO.P,J1,3*%
%TO.N,/B1'*%
X15240000Y-29210000D03*
%TO.P,J1,4*%
%TO.N,/B2'*%
X15240000Y-31750000D03*
%TO.P,J1,5*%
%TO.N,/B3'*%
X15240000Y-34290000D03*
%TO.P,J1,6*%
%TO.N,/B4'*%
X15240000Y-36830000D03*
%TO.P,J1,7*%
%TO.N,/B5'*%
X15240000Y-39370000D03*
%TO.P,J1,8*%
%TO.N,/B6'*%
X15240000Y-41910000D03*
%TO.P,J1,9*%
%TO.N,/B7'*%
X15240000Y-44450000D03*
%TD*%
%TO.P,J2,9*%
%TO.N,/A7*%
X15240000Y-69850000D03*
%TO.P,J2,8*%
%TO.N,/A6*%
X15240000Y-67310000D03*
%TO.P,J2,7*%
%TO.N,/A5*%
X15240000Y-64770000D03*
%TO.P,J2,6*%
%TO.N,/A4*%
X15240000Y-62230000D03*
%TO.P,J2,5*%
%TO.N,/A3*%
X15240000Y-59690000D03*
%TO.P,J2,4*%
%TO.N,/A2*%
X15240000Y-57150000D03*
%TO.P,J2,3*%
%TO.N,/A1*%
X15240000Y-54610000D03*
%TO.P,J2,2*%
%TO.N,/A0*%
X15240000Y-52070000D03*
D16*
%TO.P,J2,1*%
%TO.N,GND*%
X15240000Y-49530000D03*
%TD*%
%TO.P,J3,1*%
%TO.N,GND*%
X15240000Y-74930000D03*
D17*
%TO.P,J3,2*%
%TO.N,/O0*%
X15240000Y-77470000D03*
%TO.P,J3,3*%
%TO.N,/O1*%
X15240000Y-80010000D03*
%TO.P,J3,4*%
%TO.N,/O2*%
X15240000Y-82550000D03*
%TO.P,J3,5*%
%TO.N,/O3*%
X15240000Y-85090000D03*
%TO.P,J3,6*%
%TO.N,/O4*%
X15240000Y-87630000D03*
%TO.P,J3,7*%
%TO.N,/O5*%
X15240000Y-90170000D03*
%TO.P,J3,8*%
%TO.N,/O6*%
X15240000Y-92710000D03*
%TO.P,J3,9*%
%TO.N,/O7*%
X15240000Y-95250000D03*
%TD*%
D18*
%TO.N,VCC*%
X71120000Y-93980000D03*
X71120000Y-99060000D03*
X40640000Y-96520000D03*
D19*
X39370000Y-40640000D03*
%TD*%
D20*
%TO.N,VCC*%
X71120000Y-93980000D02*
X71120000Y-99060000D01*
X40640000Y-44450000D02*
X40640000Y-96520000D01*
X39370000Y-43180000D02*
X40640000Y-44450000D01*
X39370000Y-40640000D02*
X39370000Y-43180000D01*
%TD*%
M02*
