%TF.GenerationSoftware,KiCad,Pcbnew,(5.1.8)-1*%
%TF.CreationDate,2024-07-25T00:43:57+03:00*%
%TF.ProjectId,ALU,414c552e-6b69-4636-9164-5f7063625858,rev?*%
%TF.SameCoordinates,Original*%
%TF.FileFunction,Legend,Top*%
%TF.FilePolarity,Positive*%
%FSLAX46Y46*%
G04 Gerber Fmt 4.6, Leading zero omitted, Abs format (unit mm)*
G04 Created by KiCad (PCBNEW (5.1.8)-1) date 2024-07-25 00:43:57*
%MOMM*%
%LPD*%
G01*
G04 APERTURE LIST*
%ADD10C,0.300000*%
%ADD11C,0.400000*%
%ADD12C,0.150000*%
%ADD13C,0.200000*%
%ADD14C,0.120000*%
G04 APERTURE END LIST*
D10*
X91805714Y-15831428D02*
X91877142Y-15760000D01*
X92020000Y-15688571D01*
X92377142Y-15688571D01*
X92520000Y-15760000D01*
X92591428Y-15831428D01*
X92662857Y-15974285D01*
X92662857Y-16117142D01*
X92591428Y-16331428D01*
X91734285Y-17188571D01*
X92662857Y-17188571D01*
X94020000Y-15688571D02*
X93305714Y-15688571D01*
X93234285Y-16402857D01*
X93305714Y-16331428D01*
X93448571Y-16260000D01*
X93805714Y-16260000D01*
X93948571Y-16331428D01*
X94020000Y-16402857D01*
X94091428Y-16545714D01*
X94091428Y-16902857D01*
X94020000Y-17045714D01*
X93948571Y-17117142D01*
X93805714Y-17188571D01*
X93448571Y-17188571D01*
X93305714Y-17117142D01*
X93234285Y-17045714D01*
X94734285Y-17045714D02*
X94805714Y-17117142D01*
X94734285Y-17188571D01*
X94662857Y-17117142D01*
X94734285Y-17045714D01*
X94734285Y-17188571D01*
X95734285Y-15688571D02*
X95877142Y-15688571D01*
X96020000Y-15760000D01*
X96091428Y-15831428D01*
X96162857Y-15974285D01*
X96234285Y-16260000D01*
X96234285Y-16617142D01*
X96162857Y-16902857D01*
X96091428Y-17045714D01*
X96020000Y-17117142D01*
X95877142Y-17188571D01*
X95734285Y-17188571D01*
X95591428Y-17117142D01*
X95520000Y-17045714D01*
X95448571Y-16902857D01*
X95377142Y-16617142D01*
X95377142Y-16260000D01*
X95448571Y-15974285D01*
X95520000Y-15831428D01*
X95591428Y-15760000D01*
X95734285Y-15688571D01*
X96734285Y-15688571D02*
X97734285Y-15688571D01*
X97091428Y-17188571D01*
X98305714Y-17045714D02*
X98377142Y-17117142D01*
X98305714Y-17188571D01*
X98234285Y-17117142D01*
X98305714Y-17045714D01*
X98305714Y-17188571D01*
X98948571Y-15831428D02*
X99020000Y-15760000D01*
X99162857Y-15688571D01*
X99520000Y-15688571D01*
X99662857Y-15760000D01*
X99734285Y-15831428D01*
X99805714Y-15974285D01*
X99805714Y-16117142D01*
X99734285Y-16331428D01*
X98877142Y-17188571D01*
X99805714Y-17188571D01*
X101091428Y-16188571D02*
X101091428Y-17188571D01*
X100734285Y-15617142D02*
X100377142Y-16688571D01*
X101305714Y-16688571D01*
X76994285Y-15688571D02*
X77994285Y-15688571D01*
X77351428Y-17188571D01*
X79208571Y-16188571D02*
X79208571Y-17188571D01*
X78851428Y-15617142D02*
X78494285Y-16688571D01*
X79422857Y-16688571D01*
X79994285Y-17188571D02*
X79994285Y-15688571D01*
X79994285Y-16402857D02*
X80851428Y-16402857D01*
X80851428Y-17188571D02*
X80851428Y-15688571D01*
X82422857Y-17045714D02*
X82351428Y-17117142D01*
X82137142Y-17188571D01*
X81994285Y-17188571D01*
X81780000Y-17117142D01*
X81637142Y-16974285D01*
X81565714Y-16831428D01*
X81494285Y-16545714D01*
X81494285Y-16331428D01*
X81565714Y-16045714D01*
X81637142Y-15902857D01*
X81780000Y-15760000D01*
X81994285Y-15688571D01*
X82137142Y-15688571D01*
X82351428Y-15760000D01*
X82422857Y-15831428D01*
X83065714Y-17188571D02*
X83065714Y-15688571D01*
X83637142Y-15688571D01*
X83780000Y-15760000D01*
X83851428Y-15831428D01*
X83922857Y-15974285D01*
X83922857Y-16188571D01*
X83851428Y-16331428D01*
X83780000Y-16402857D01*
X83637142Y-16474285D01*
X83065714Y-16474285D01*
X84565714Y-15688571D02*
X84565714Y-16902857D01*
X84637142Y-17045714D01*
X84708571Y-17117142D01*
X84851428Y-17188571D01*
X85137142Y-17188571D01*
X85280000Y-17117142D01*
X85351428Y-17045714D01*
X85422857Y-16902857D01*
X85422857Y-15688571D01*
D11*
X61270000Y-17010000D02*
X62698571Y-17010000D01*
X60984285Y-17867142D02*
X61984285Y-14867142D01*
X62984285Y-17867142D01*
X65412857Y-17867142D02*
X63984285Y-17867142D01*
X63984285Y-14867142D01*
X66412857Y-14867142D02*
X66412857Y-17295714D01*
X66555714Y-17581428D01*
X66698571Y-17724285D01*
X66984285Y-17867142D01*
X67555714Y-17867142D01*
X67841428Y-17724285D01*
X67984285Y-17581428D01*
X68127142Y-17295714D01*
X68127142Y-14867142D01*
D12*
X51863809Y-18232380D02*
X51863809Y-17232380D01*
X52340000Y-18232380D02*
X52340000Y-17232380D01*
X52911428Y-18232380D01*
X52911428Y-17232380D01*
X53244761Y-17232380D02*
X53578095Y-18232380D01*
X53911428Y-17232380D01*
X54244761Y-18232380D02*
X54244761Y-17232380D01*
X54244761Y-17708571D02*
X54816190Y-17708571D01*
X54816190Y-18232380D02*
X54816190Y-17232380D01*
X46902857Y-18232380D02*
X46902857Y-17232380D01*
X47379047Y-18232380D02*
X47379047Y-17232380D01*
X47950476Y-18232380D01*
X47950476Y-17232380D01*
X48283809Y-17232380D02*
X48617142Y-18232380D01*
X48950476Y-17232380D01*
X49760000Y-18232380D02*
X49283809Y-18232380D01*
X49283809Y-17232380D01*
X23495238Y-107035000D02*
X24495238Y-107035000D01*
X24304761Y-108402380D02*
X23971428Y-107926190D01*
X23733333Y-108402380D02*
X23733333Y-107402380D01*
X24114285Y-107402380D01*
X24209523Y-107450000D01*
X24257142Y-107497619D01*
X24304761Y-107592857D01*
X24304761Y-107735714D01*
X24257142Y-107830952D01*
X24209523Y-107878571D01*
X24114285Y-107926190D01*
X23733333Y-107926190D01*
X24495238Y-107035000D02*
X25447619Y-107035000D01*
X24685714Y-108354761D02*
X24828571Y-108402380D01*
X25066666Y-108402380D01*
X25161904Y-108354761D01*
X25209523Y-108307142D01*
X25257142Y-108211904D01*
X25257142Y-108116666D01*
X25209523Y-108021428D01*
X25161904Y-107973809D01*
X25066666Y-107926190D01*
X24876190Y-107878571D01*
X24780952Y-107830952D01*
X24733333Y-107783333D01*
X24685714Y-107688095D01*
X24685714Y-107592857D01*
X24733333Y-107497619D01*
X24780952Y-107450000D01*
X24876190Y-107402380D01*
X25114285Y-107402380D01*
X25257142Y-107450000D01*
X25447619Y-107035000D02*
X26447619Y-107035000D01*
X26257142Y-108402380D02*
X25923809Y-107926190D01*
X25685714Y-108402380D02*
X25685714Y-107402380D01*
X26066666Y-107402380D01*
X26161904Y-107450000D01*
X26209523Y-107497619D01*
X26257142Y-107592857D01*
X26257142Y-107735714D01*
X26209523Y-107830952D01*
X26161904Y-107878571D01*
X26066666Y-107926190D01*
X25685714Y-107926190D01*
X26447619Y-107035000D02*
X27304761Y-107035000D01*
X26542857Y-107402380D02*
X26876190Y-108402380D01*
X27209523Y-107402380D01*
X28432380Y-107402380D02*
X28432380Y-108211904D01*
X28480000Y-108307142D01*
X28527619Y-108354761D01*
X28622857Y-108402380D01*
X28813333Y-108402380D01*
X28908571Y-108354761D01*
X28956190Y-108307142D01*
X29003809Y-108211904D01*
X29003809Y-107402380D01*
X29432380Y-108354761D02*
X29527619Y-108402380D01*
X29718095Y-108402380D01*
X29813333Y-108354761D01*
X29860952Y-108259523D01*
X29860952Y-108211904D01*
X29813333Y-108116666D01*
X29718095Y-108069047D01*
X29575238Y-108069047D01*
X29480000Y-108021428D01*
X29432380Y-107926190D01*
X29432380Y-107878571D01*
X29480000Y-107783333D01*
X29575238Y-107735714D01*
X29718095Y-107735714D01*
X29813333Y-107783333D01*
X30670476Y-108354761D02*
X30575238Y-108402380D01*
X30384761Y-108402380D01*
X30289523Y-108354761D01*
X30241904Y-108259523D01*
X30241904Y-107878571D01*
X30289523Y-107783333D01*
X30384761Y-107735714D01*
X30575238Y-107735714D01*
X30670476Y-107783333D01*
X30718095Y-107878571D01*
X30718095Y-107973809D01*
X30241904Y-108069047D01*
X31718095Y-108307142D02*
X31670476Y-108354761D01*
X31527619Y-108402380D01*
X31432380Y-108402380D01*
X31289523Y-108354761D01*
X31194285Y-108259523D01*
X31146666Y-108164285D01*
X31099047Y-107973809D01*
X31099047Y-107830952D01*
X31146666Y-107640476D01*
X31194285Y-107545238D01*
X31289523Y-107450000D01*
X31432380Y-107402380D01*
X31527619Y-107402380D01*
X31670476Y-107450000D01*
X31718095Y-107497619D01*
X32480000Y-107878571D02*
X32146666Y-107878571D01*
X32146666Y-108402380D02*
X32146666Y-107402380D01*
X32622857Y-107402380D01*
X33139285Y-107035000D02*
X33948809Y-107035000D01*
X33853571Y-108402380D02*
X33377380Y-108402380D01*
X33377380Y-107402380D01*
X33948809Y-107035000D02*
X34901190Y-107035000D01*
X34139285Y-108354761D02*
X34282142Y-108402380D01*
X34520238Y-108402380D01*
X34615476Y-108354761D01*
X34663095Y-108307142D01*
X34710714Y-108211904D01*
X34710714Y-108116666D01*
X34663095Y-108021428D01*
X34615476Y-107973809D01*
X34520238Y-107926190D01*
X34329761Y-107878571D01*
X34234523Y-107830952D01*
X34186904Y-107783333D01*
X34139285Y-107688095D01*
X34139285Y-107592857D01*
X34186904Y-107497619D01*
X34234523Y-107450000D01*
X34329761Y-107402380D01*
X34567857Y-107402380D01*
X34710714Y-107450000D01*
X34901190Y-107035000D02*
X35901190Y-107035000D01*
X35710714Y-108402380D02*
X35377380Y-107926190D01*
X35139285Y-108402380D02*
X35139285Y-107402380D01*
X35520238Y-107402380D01*
X35615476Y-107450000D01*
X35663095Y-107497619D01*
X35710714Y-107592857D01*
X35710714Y-107735714D01*
X35663095Y-107830952D01*
X35615476Y-107878571D01*
X35520238Y-107926190D01*
X35139285Y-107926190D01*
X35901190Y-107035000D02*
X36710714Y-107035000D01*
X36044047Y-108402380D02*
X36567857Y-107735714D01*
X36044047Y-107735714D02*
X36567857Y-108402380D01*
X38663809Y-107035000D02*
X39616190Y-107035000D01*
X38854285Y-108354761D02*
X38997142Y-108402380D01*
X39235238Y-108402380D01*
X39330476Y-108354761D01*
X39378095Y-108307142D01*
X39425714Y-108211904D01*
X39425714Y-108116666D01*
X39378095Y-108021428D01*
X39330476Y-107973809D01*
X39235238Y-107926190D01*
X39044761Y-107878571D01*
X38949523Y-107830952D01*
X38901904Y-107783333D01*
X38854285Y-107688095D01*
X38854285Y-107592857D01*
X38901904Y-107497619D01*
X38949523Y-107450000D01*
X39044761Y-107402380D01*
X39282857Y-107402380D01*
X39425714Y-107450000D01*
X39616190Y-107035000D02*
X40759047Y-107035000D01*
X39759047Y-107402380D02*
X39997142Y-108402380D01*
X40187619Y-107688095D01*
X40378095Y-108402380D01*
X40616190Y-107402380D01*
X40759047Y-107035000D02*
X41616190Y-107035000D01*
X40949523Y-108116666D02*
X41425714Y-108116666D01*
X40854285Y-108402380D02*
X41187619Y-107402380D01*
X41520952Y-108402380D01*
X41616190Y-107035000D02*
X42616190Y-107035000D01*
X41854285Y-108402380D02*
X41854285Y-107402380D01*
X42235238Y-107402380D01*
X42330476Y-107450000D01*
X42378095Y-107497619D01*
X42425714Y-107592857D01*
X42425714Y-107735714D01*
X42378095Y-107830952D01*
X42330476Y-107878571D01*
X42235238Y-107926190D01*
X41854285Y-107926190D01*
X46212380Y-107402380D02*
X46212380Y-108211904D01*
X46260000Y-108307142D01*
X46307619Y-108354761D01*
X46402857Y-108402380D01*
X46593333Y-108402380D01*
X46688571Y-108354761D01*
X46736190Y-108307142D01*
X46783809Y-108211904D01*
X46783809Y-107402380D01*
X47212380Y-108354761D02*
X47307619Y-108402380D01*
X47498095Y-108402380D01*
X47593333Y-108354761D01*
X47640952Y-108259523D01*
X47640952Y-108211904D01*
X47593333Y-108116666D01*
X47498095Y-108069047D01*
X47355238Y-108069047D01*
X47260000Y-108021428D01*
X47212380Y-107926190D01*
X47212380Y-107878571D01*
X47260000Y-107783333D01*
X47355238Y-107735714D01*
X47498095Y-107735714D01*
X47593333Y-107783333D01*
X48450476Y-108354761D02*
X48355238Y-108402380D01*
X48164761Y-108402380D01*
X48069523Y-108354761D01*
X48021904Y-108259523D01*
X48021904Y-107878571D01*
X48069523Y-107783333D01*
X48164761Y-107735714D01*
X48355238Y-107735714D01*
X48450476Y-107783333D01*
X48498095Y-107878571D01*
X48498095Y-107973809D01*
X48021904Y-108069047D01*
X49498095Y-108307142D02*
X49450476Y-108354761D01*
X49307619Y-108402380D01*
X49212380Y-108402380D01*
X49069523Y-108354761D01*
X48974285Y-108259523D01*
X48926666Y-108164285D01*
X48879047Y-107973809D01*
X48879047Y-107830952D01*
X48926666Y-107640476D01*
X48974285Y-107545238D01*
X49069523Y-107450000D01*
X49212380Y-107402380D01*
X49307619Y-107402380D01*
X49450476Y-107450000D01*
X49498095Y-107497619D01*
X50260000Y-107878571D02*
X49926666Y-107878571D01*
X49926666Y-108402380D02*
X49926666Y-107402380D01*
X50402857Y-107402380D01*
X51506666Y-107035000D02*
X52363809Y-107035000D01*
X51697142Y-108116666D02*
X52173333Y-108116666D01*
X51601904Y-108402380D02*
X51935238Y-107402380D01*
X52268571Y-108402380D01*
X52363809Y-107035000D02*
X53363809Y-107035000D01*
X52601904Y-108402380D02*
X52601904Y-107402380D01*
X52840000Y-107402380D01*
X52982857Y-107450000D01*
X53078095Y-107545238D01*
X53125714Y-107640476D01*
X53173333Y-107830952D01*
X53173333Y-107973809D01*
X53125714Y-108164285D01*
X53078095Y-108259523D01*
X52982857Y-108354761D01*
X52840000Y-108402380D01*
X52601904Y-108402380D01*
X53363809Y-107035000D02*
X54363809Y-107035000D01*
X53601904Y-108402380D02*
X53601904Y-107402380D01*
X53840000Y-107402380D01*
X53982857Y-107450000D01*
X54078095Y-107545238D01*
X54125714Y-107640476D01*
X54173333Y-107830952D01*
X54173333Y-107973809D01*
X54125714Y-108164285D01*
X54078095Y-108259523D01*
X53982857Y-108354761D01*
X53840000Y-108402380D01*
X53601904Y-108402380D01*
X54363809Y-107035000D02*
X55173333Y-107035000D01*
X54506666Y-108402380D02*
X55030476Y-107735714D01*
X54506666Y-107735714D02*
X55030476Y-108402380D01*
X56967619Y-107035000D02*
X57824761Y-107035000D01*
X57158095Y-108116666D02*
X57634285Y-108116666D01*
X57062857Y-108402380D02*
X57396190Y-107402380D01*
X57729523Y-108402380D01*
X57824761Y-107035000D02*
X58872380Y-107035000D01*
X58062857Y-108402380D02*
X58062857Y-107402380D01*
X58634285Y-108402380D01*
X58634285Y-107402380D01*
X58872380Y-107035000D02*
X59872380Y-107035000D01*
X59110476Y-108402380D02*
X59110476Y-107402380D01*
X59348571Y-107402380D01*
X59491428Y-107450000D01*
X59586666Y-107545238D01*
X59634285Y-107640476D01*
X59681904Y-107830952D01*
X59681904Y-107973809D01*
X59634285Y-108164285D01*
X59586666Y-108259523D01*
X59491428Y-108354761D01*
X59348571Y-108402380D01*
X59110476Y-108402380D01*
X80256190Y-107035000D02*
X81303809Y-107035000D01*
X80684761Y-107402380D02*
X80875238Y-107402380D01*
X80970476Y-107450000D01*
X81065714Y-107545238D01*
X81113333Y-107735714D01*
X81113333Y-108069047D01*
X81065714Y-108259523D01*
X80970476Y-108354761D01*
X80875238Y-108402380D01*
X80684761Y-108402380D01*
X80589523Y-108354761D01*
X80494285Y-108259523D01*
X80446666Y-108069047D01*
X80446666Y-107735714D01*
X80494285Y-107545238D01*
X80589523Y-107450000D01*
X80684761Y-107402380D01*
X81303809Y-107035000D02*
X82303809Y-107035000D01*
X82113333Y-108402380D02*
X81780000Y-107926190D01*
X81541904Y-108402380D02*
X81541904Y-107402380D01*
X81922857Y-107402380D01*
X82018095Y-107450000D01*
X82065714Y-107497619D01*
X82113333Y-107592857D01*
X82113333Y-107735714D01*
X82065714Y-107830952D01*
X82018095Y-107878571D01*
X81922857Y-107926190D01*
X81541904Y-107926190D01*
X84860000Y-107035000D02*
X85812380Y-107035000D01*
X85002857Y-107402380D02*
X85669523Y-108402380D01*
X85669523Y-107402380D02*
X85002857Y-108402380D01*
X85812380Y-107035000D02*
X86860000Y-107035000D01*
X86240952Y-107402380D02*
X86431428Y-107402380D01*
X86526666Y-107450000D01*
X86621904Y-107545238D01*
X86669523Y-107735714D01*
X86669523Y-108069047D01*
X86621904Y-108259523D01*
X86526666Y-108354761D01*
X86431428Y-108402380D01*
X86240952Y-108402380D01*
X86145714Y-108354761D01*
X86050476Y-108259523D01*
X86002857Y-108069047D01*
X86002857Y-107735714D01*
X86050476Y-107545238D01*
X86145714Y-107450000D01*
X86240952Y-107402380D01*
X86860000Y-107035000D02*
X87860000Y-107035000D01*
X87669523Y-108402380D02*
X87336190Y-107926190D01*
X87098095Y-108402380D02*
X87098095Y-107402380D01*
X87479047Y-107402380D01*
X87574285Y-107450000D01*
X87621904Y-107497619D01*
X87669523Y-107592857D01*
X87669523Y-107735714D01*
X87621904Y-107830952D01*
X87574285Y-107878571D01*
X87479047Y-107926190D01*
X87098095Y-107926190D01*
X92980000Y-106847142D02*
X92932380Y-106894761D01*
X92789523Y-106942380D01*
X92694285Y-106942380D01*
X92551428Y-106894761D01*
X92456190Y-106799523D01*
X92408571Y-106704285D01*
X92360952Y-106513809D01*
X92360952Y-106370952D01*
X92408571Y-106180476D01*
X92456190Y-106085238D01*
X92551428Y-105990000D01*
X92694285Y-105942380D01*
X92789523Y-105942380D01*
X92932380Y-105990000D01*
X92980000Y-106037619D01*
X93408571Y-106942380D02*
X93408571Y-105942380D01*
X93741904Y-106656666D01*
X94075238Y-105942380D01*
X94075238Y-106942380D01*
X94551428Y-106942380D02*
X94551428Y-105942380D01*
X94932380Y-105942380D01*
X95027619Y-105990000D01*
X95075238Y-106037619D01*
X95122857Y-106132857D01*
X95122857Y-106275714D01*
X95075238Y-106370952D01*
X95027619Y-106418571D01*
X94932380Y-106466190D01*
X94551428Y-106466190D01*
X95551428Y-106847142D02*
X95599047Y-106894761D01*
X95551428Y-106942380D01*
X95503809Y-106894761D01*
X95551428Y-106847142D01*
X95551428Y-106942380D01*
X91551428Y-108068571D02*
X91884761Y-108068571D01*
X92027619Y-108592380D02*
X91551428Y-108592380D01*
X91551428Y-107592380D01*
X92027619Y-107592380D01*
X92360952Y-108592380D02*
X92884761Y-107925714D01*
X92360952Y-107925714D02*
X92884761Y-108592380D01*
X93265714Y-107925714D02*
X93265714Y-108925714D01*
X93265714Y-107973333D02*
X93360952Y-107925714D01*
X93551428Y-107925714D01*
X93646666Y-107973333D01*
X93694285Y-108020952D01*
X93741904Y-108116190D01*
X93741904Y-108401904D01*
X93694285Y-108497142D01*
X93646666Y-108544761D01*
X93551428Y-108592380D01*
X93360952Y-108592380D01*
X93265714Y-108544761D01*
X94599047Y-108592380D02*
X94599047Y-108068571D01*
X94551428Y-107973333D01*
X94456190Y-107925714D01*
X94265714Y-107925714D01*
X94170476Y-107973333D01*
X94599047Y-108544761D02*
X94503809Y-108592380D01*
X94265714Y-108592380D01*
X94170476Y-108544761D01*
X94122857Y-108449523D01*
X94122857Y-108354285D01*
X94170476Y-108259047D01*
X94265714Y-108211428D01*
X94503809Y-108211428D01*
X94599047Y-108163809D01*
X95075238Y-107925714D02*
X95075238Y-108592380D01*
X95075238Y-108020952D02*
X95122857Y-107973333D01*
X95218095Y-107925714D01*
X95360952Y-107925714D01*
X95456190Y-107973333D01*
X95503809Y-108068571D01*
X95503809Y-108592380D01*
X96408571Y-108592380D02*
X96408571Y-107592380D01*
X96408571Y-108544761D02*
X96313333Y-108592380D01*
X96122857Y-108592380D01*
X96027619Y-108544761D01*
X95980000Y-108497142D01*
X95932380Y-108401904D01*
X95932380Y-108116190D01*
X95980000Y-108020952D01*
X96027619Y-107973333D01*
X96122857Y-107925714D01*
X96313333Y-107925714D01*
X96408571Y-107973333D01*
X98806190Y-107035000D02*
X99949047Y-107035000D01*
X99044285Y-108402380D02*
X99044285Y-107402380D01*
X99377619Y-108116666D01*
X99710952Y-107402380D01*
X99710952Y-108402380D01*
X99949047Y-107035000D02*
X100996666Y-107035000D01*
X100377619Y-107402380D02*
X100568095Y-107402380D01*
X100663333Y-107450000D01*
X100758571Y-107545238D01*
X100806190Y-107735714D01*
X100806190Y-108069047D01*
X100758571Y-108259523D01*
X100663333Y-108354761D01*
X100568095Y-108402380D01*
X100377619Y-108402380D01*
X100282380Y-108354761D01*
X100187142Y-108259523D01*
X100139523Y-108069047D01*
X100139523Y-107735714D01*
X100187142Y-107545238D01*
X100282380Y-107450000D01*
X100377619Y-107402380D01*
X100996666Y-107035000D02*
X101853809Y-107035000D01*
X101091904Y-107402380D02*
X101425238Y-108402380D01*
X101758571Y-107402380D01*
D13*
X17280000Y-46168571D02*
X18280000Y-46168571D01*
X17637142Y-47668571D01*
X17280000Y-71568571D02*
X18280000Y-71568571D01*
X17637142Y-73068571D01*
X17280000Y-96968571D02*
X18280000Y-96968571D01*
X17637142Y-98468571D01*
X17708571Y-79188571D02*
X17851428Y-79188571D01*
X17994285Y-79260000D01*
X18065714Y-79331428D01*
X18137142Y-79474285D01*
X18208571Y-79760000D01*
X18208571Y-80117142D01*
X18137142Y-80402857D01*
X18065714Y-80545714D01*
X17994285Y-80617142D01*
X17851428Y-80688571D01*
X17708571Y-80688571D01*
X17565714Y-80617142D01*
X17494285Y-80545714D01*
X17422857Y-80402857D01*
X17351428Y-80117142D01*
X17351428Y-79760000D01*
X17422857Y-79474285D01*
X17494285Y-79331428D01*
X17565714Y-79260000D01*
X17708571Y-79188571D01*
X17708571Y-53788571D02*
X17851428Y-53788571D01*
X17994285Y-53860000D01*
X18065714Y-53931428D01*
X18137142Y-54074285D01*
X18208571Y-54360000D01*
X18208571Y-54717142D01*
X18137142Y-55002857D01*
X18065714Y-55145714D01*
X17994285Y-55217142D01*
X17851428Y-55288571D01*
X17708571Y-55288571D01*
X17565714Y-55217142D01*
X17494285Y-55145714D01*
X17422857Y-55002857D01*
X17351428Y-54717142D01*
X17351428Y-54360000D01*
X17422857Y-54074285D01*
X17494285Y-53931428D01*
X17565714Y-53860000D01*
X17708571Y-53788571D01*
X17708571Y-28388571D02*
X17851428Y-28388571D01*
X17994285Y-28460000D01*
X18065714Y-28531428D01*
X18137142Y-28674285D01*
X18208571Y-28960000D01*
X18208571Y-29317142D01*
X18137142Y-29602857D01*
X18065714Y-29745714D01*
X17994285Y-29817142D01*
X17851428Y-29888571D01*
X17708571Y-29888571D01*
X17565714Y-29817142D01*
X17494285Y-29745714D01*
X17422857Y-29602857D01*
X17351428Y-29317142D01*
X17351428Y-28960000D01*
X17422857Y-28674285D01*
X17494285Y-28531428D01*
X17565714Y-28460000D01*
X17708571Y-28388571D01*
X18085714Y-25920000D02*
X17942857Y-25848571D01*
X17728571Y-25848571D01*
X17514285Y-25920000D01*
X17371428Y-26062857D01*
X17300000Y-26205714D01*
X17228571Y-26491428D01*
X17228571Y-26705714D01*
X17300000Y-26991428D01*
X17371428Y-27134285D01*
X17514285Y-27277142D01*
X17728571Y-27348571D01*
X17871428Y-27348571D01*
X18085714Y-27277142D01*
X18157142Y-27205714D01*
X18157142Y-26705714D01*
X17871428Y-26705714D01*
X18800000Y-26348571D02*
X18800000Y-27348571D01*
X18800000Y-26491428D02*
X18871428Y-26420000D01*
X19014285Y-26348571D01*
X19228571Y-26348571D01*
X19371428Y-26420000D01*
X19442857Y-26562857D01*
X19442857Y-27348571D01*
X20800000Y-27348571D02*
X20800000Y-25848571D01*
X20800000Y-27277142D02*
X20657142Y-27348571D01*
X20371428Y-27348571D01*
X20228571Y-27277142D01*
X20157142Y-27205714D01*
X20085714Y-27062857D01*
X20085714Y-26634285D01*
X20157142Y-26491428D01*
X20228571Y-26420000D01*
X20371428Y-26348571D01*
X20657142Y-26348571D01*
X20800000Y-26420000D01*
X17450714Y-51320000D02*
X17307857Y-51248571D01*
X17093571Y-51248571D01*
X16879285Y-51320000D01*
X16736428Y-51462857D01*
X16665000Y-51605714D01*
X16593571Y-51891428D01*
X16593571Y-52105714D01*
X16665000Y-52391428D01*
X16736428Y-52534285D01*
X16879285Y-52677142D01*
X17093571Y-52748571D01*
X17236428Y-52748571D01*
X17450714Y-52677142D01*
X17522142Y-52605714D01*
X17522142Y-52105714D01*
X17236428Y-52105714D01*
X18165000Y-51748571D02*
X18165000Y-52748571D01*
X18165000Y-51891428D02*
X18236428Y-51820000D01*
X18379285Y-51748571D01*
X18593571Y-51748571D01*
X18736428Y-51820000D01*
X18807857Y-51962857D01*
X18807857Y-52748571D01*
X20165000Y-52748571D02*
X20165000Y-51248571D01*
X20165000Y-52677142D02*
X20022142Y-52748571D01*
X19736428Y-52748571D01*
X19593571Y-52677142D01*
X19522142Y-52605714D01*
X19450714Y-52462857D01*
X19450714Y-52034285D01*
X19522142Y-51891428D01*
X19593571Y-51820000D01*
X19736428Y-51748571D01*
X20022142Y-51748571D01*
X20165000Y-51820000D01*
X17450714Y-76720000D02*
X17307857Y-76648571D01*
X17093571Y-76648571D01*
X16879285Y-76720000D01*
X16736428Y-76862857D01*
X16665000Y-77005714D01*
X16593571Y-77291428D01*
X16593571Y-77505714D01*
X16665000Y-77791428D01*
X16736428Y-77934285D01*
X16879285Y-78077142D01*
X17093571Y-78148571D01*
X17236428Y-78148571D01*
X17450714Y-78077142D01*
X17522142Y-78005714D01*
X17522142Y-77505714D01*
X17236428Y-77505714D01*
X18165000Y-77148571D02*
X18165000Y-78148571D01*
X18165000Y-77291428D02*
X18236428Y-77220000D01*
X18379285Y-77148571D01*
X18593571Y-77148571D01*
X18736428Y-77220000D01*
X18807857Y-77362857D01*
X18807857Y-78148571D01*
X20165000Y-78148571D02*
X20165000Y-76648571D01*
X20165000Y-78077142D02*
X20022142Y-78148571D01*
X19736428Y-78148571D01*
X19593571Y-78077142D01*
X19522142Y-78005714D01*
X19450714Y-77862857D01*
X19450714Y-77434285D01*
X19522142Y-77291428D01*
X19593571Y-77220000D01*
X19736428Y-77148571D01*
X20022142Y-77148571D01*
X20165000Y-77220000D01*
D10*
X23129761Y-52990476D02*
X22177380Y-53657142D01*
X23129761Y-54133333D02*
X21129761Y-54133333D01*
X21129761Y-53371428D01*
X21225000Y-53180952D01*
X21320238Y-53085714D01*
X21510714Y-52990476D01*
X21796428Y-52990476D01*
X21986904Y-53085714D01*
X22082142Y-53180952D01*
X22177380Y-53371428D01*
X22177380Y-54133333D01*
X23034523Y-52228571D02*
X23129761Y-51942857D01*
X23129761Y-51466666D01*
X23034523Y-51276190D01*
X22939285Y-51180952D01*
X22748809Y-51085714D01*
X22558333Y-51085714D01*
X22367857Y-51180952D01*
X22272619Y-51276190D01*
X22177380Y-51466666D01*
X22082142Y-51847619D01*
X21986904Y-52038095D01*
X21891666Y-52133333D01*
X21701190Y-52228571D01*
X21510714Y-52228571D01*
X21320238Y-52133333D01*
X21225000Y-52038095D01*
X21129761Y-51847619D01*
X21129761Y-51371428D01*
X21225000Y-51085714D01*
X23129761Y-49085714D02*
X22177380Y-49752380D01*
X23129761Y-50228571D02*
X21129761Y-50228571D01*
X21129761Y-49466666D01*
X21225000Y-49276190D01*
X21320238Y-49180952D01*
X21510714Y-49085714D01*
X21796428Y-49085714D01*
X21986904Y-49180952D01*
X22082142Y-49276190D01*
X22177380Y-49466666D01*
X22177380Y-50228571D01*
X21129761Y-48514285D02*
X23129761Y-47847619D01*
X21129761Y-47180952D01*
X32385238Y-30114761D02*
X32385238Y-28114761D01*
X33337619Y-30114761D02*
X33337619Y-28114761D01*
X34480476Y-30114761D01*
X34480476Y-28114761D01*
X35147142Y-28114761D02*
X35813809Y-30114761D01*
X36480476Y-28114761D01*
X31924523Y-54371428D02*
X32019761Y-54085714D01*
X32019761Y-53609523D01*
X31924523Y-53419047D01*
X31829285Y-53323809D01*
X31638809Y-53228571D01*
X31448333Y-53228571D01*
X31257857Y-53323809D01*
X31162619Y-53419047D01*
X31067380Y-53609523D01*
X30972142Y-53990476D01*
X30876904Y-54180952D01*
X30781666Y-54276190D01*
X30591190Y-54371428D01*
X30400714Y-54371428D01*
X30210238Y-54276190D01*
X30115000Y-54180952D01*
X30019761Y-53990476D01*
X30019761Y-53514285D01*
X30115000Y-53228571D01*
X30019761Y-52561904D02*
X32019761Y-52085714D01*
X30591190Y-51704761D01*
X32019761Y-51323809D01*
X30019761Y-50847619D01*
X31448333Y-50180952D02*
X31448333Y-49228571D01*
X32019761Y-50371428D02*
X30019761Y-49704761D01*
X32019761Y-49038095D01*
X32019761Y-48371428D02*
X30019761Y-48371428D01*
X30019761Y-47609523D01*
X30115000Y-47419047D01*
X30210238Y-47323809D01*
X30400714Y-47228571D01*
X30686428Y-47228571D01*
X30876904Y-47323809D01*
X30972142Y-47419047D01*
X31067380Y-47609523D01*
X31067380Y-48371428D01*
D13*
X17593571Y-89765000D02*
X17593571Y-89479285D01*
X17665000Y-89336428D01*
X17807857Y-89193571D01*
X18093571Y-89122142D01*
X18593571Y-89122142D01*
X18879285Y-89193571D01*
X19022142Y-89336428D01*
X19093571Y-89479285D01*
X19093571Y-89765000D01*
X19022142Y-89907857D01*
X18879285Y-90050714D01*
X18593571Y-90122142D01*
X18093571Y-90122142D01*
X17807857Y-90050714D01*
X17665000Y-89907857D01*
X17593571Y-89765000D01*
X17593571Y-88479285D02*
X18807857Y-88479285D01*
X18950714Y-88407857D01*
X19022142Y-88336428D01*
X19093571Y-88193571D01*
X19093571Y-87907857D01*
X19022142Y-87765000D01*
X18950714Y-87693571D01*
X18807857Y-87622142D01*
X17593571Y-87622142D01*
X17593571Y-87122142D02*
X17593571Y-86265000D01*
X19093571Y-86693571D02*
X17593571Y-86693571D01*
D10*
X107584761Y-34956428D02*
X105584761Y-34956428D01*
X107013333Y-34289761D01*
X105584761Y-33623095D01*
X107584761Y-33623095D01*
X105584761Y-32289761D02*
X105584761Y-31908809D01*
X105680000Y-31718333D01*
X105870476Y-31527857D01*
X106251428Y-31432619D01*
X106918095Y-31432619D01*
X107299047Y-31527857D01*
X107489523Y-31718333D01*
X107584761Y-31908809D01*
X107584761Y-32289761D01*
X107489523Y-32480238D01*
X107299047Y-32670714D01*
X106918095Y-32765952D01*
X106251428Y-32765952D01*
X105870476Y-32670714D01*
X105680000Y-32480238D01*
X105584761Y-32289761D01*
X105584761Y-30861190D02*
X107584761Y-30194523D01*
X105584761Y-29527857D01*
D12*
X68540476Y-91892380D02*
X68064285Y-91892380D01*
X68064285Y-90892380D01*
X69302380Y-91892380D02*
X69302380Y-91368571D01*
X69254761Y-91273333D01*
X69159523Y-91225714D01*
X68969047Y-91225714D01*
X68873809Y-91273333D01*
X69302380Y-91844761D02*
X69207142Y-91892380D01*
X68969047Y-91892380D01*
X68873809Y-91844761D01*
X68826190Y-91749523D01*
X68826190Y-91654285D01*
X68873809Y-91559047D01*
X68969047Y-91511428D01*
X69207142Y-91511428D01*
X69302380Y-91463809D01*
X69635714Y-91225714D02*
X70016666Y-91225714D01*
X69778571Y-90892380D02*
X69778571Y-91749523D01*
X69826190Y-91844761D01*
X69921428Y-91892380D01*
X70016666Y-91892380D01*
X70778571Y-91844761D02*
X70683333Y-91892380D01*
X70492857Y-91892380D01*
X70397619Y-91844761D01*
X70350000Y-91797142D01*
X70302380Y-91701904D01*
X70302380Y-91416190D01*
X70350000Y-91320952D01*
X70397619Y-91273333D01*
X70492857Y-91225714D01*
X70683333Y-91225714D01*
X70778571Y-91273333D01*
X71207142Y-91892380D02*
X71207142Y-90892380D01*
X71635714Y-91892380D02*
X71635714Y-91368571D01*
X71588095Y-91273333D01*
X71492857Y-91225714D01*
X71350000Y-91225714D01*
X71254761Y-91273333D01*
X71207142Y-91320952D01*
D13*
X19022142Y-40028571D02*
X19093571Y-39814285D01*
X19093571Y-39457142D01*
X19022142Y-39314285D01*
X18950714Y-39242857D01*
X18807857Y-39171428D01*
X18665000Y-39171428D01*
X18522142Y-39242857D01*
X18450714Y-39314285D01*
X18379285Y-39457142D01*
X18307857Y-39742857D01*
X18236428Y-39885714D01*
X18165000Y-39957142D01*
X18022142Y-40028571D01*
X17879285Y-40028571D01*
X17736428Y-39957142D01*
X17665000Y-39885714D01*
X17593571Y-39742857D01*
X17593571Y-39385714D01*
X17665000Y-39171428D01*
X19093571Y-37671428D02*
X18379285Y-38171428D01*
X19093571Y-38528571D02*
X17593571Y-38528571D01*
X17593571Y-37957142D01*
X17665000Y-37814285D01*
X17736428Y-37742857D01*
X17879285Y-37671428D01*
X18093571Y-37671428D01*
X18236428Y-37742857D01*
X18307857Y-37814285D01*
X18379285Y-37957142D01*
X18379285Y-38528571D01*
X18950714Y-36171428D02*
X19022142Y-36242857D01*
X19093571Y-36457142D01*
X19093571Y-36600000D01*
X19022142Y-36814285D01*
X18879285Y-36957142D01*
X18736428Y-37028571D01*
X18450714Y-37100000D01*
X18236428Y-37100000D01*
X17950714Y-37028571D01*
X17807857Y-36957142D01*
X17665000Y-36814285D01*
X17593571Y-36600000D01*
X17593571Y-36457142D01*
X17665000Y-36242857D01*
X17736428Y-36171428D01*
X18458571Y-65178571D02*
X16958571Y-65178571D01*
X16958571Y-64821428D01*
X17030000Y-64607142D01*
X17172857Y-64464285D01*
X17315714Y-64392857D01*
X17601428Y-64321428D01*
X17815714Y-64321428D01*
X18101428Y-64392857D01*
X18244285Y-64464285D01*
X18387142Y-64607142D01*
X18458571Y-64821428D01*
X18458571Y-65178571D01*
X18387142Y-63750000D02*
X18458571Y-63535714D01*
X18458571Y-63178571D01*
X18387142Y-63035714D01*
X18315714Y-62964285D01*
X18172857Y-62892857D01*
X18030000Y-62892857D01*
X17887142Y-62964285D01*
X17815714Y-63035714D01*
X17744285Y-63178571D01*
X17672857Y-63464285D01*
X17601428Y-63607142D01*
X17530000Y-63678571D01*
X17387142Y-63750000D01*
X17244285Y-63750000D01*
X17101428Y-63678571D01*
X17030000Y-63607142D01*
X16958571Y-63464285D01*
X16958571Y-63107142D01*
X17030000Y-62892857D01*
X16958571Y-62464285D02*
X16958571Y-61607142D01*
X18458571Y-62035714D02*
X16958571Y-62035714D01*
X63385000Y-110819285D02*
X63313571Y-110962142D01*
X63313571Y-111176428D01*
X63385000Y-111390714D01*
X63527857Y-111533571D01*
X63670714Y-111605000D01*
X63956428Y-111676428D01*
X64170714Y-111676428D01*
X64456428Y-111605000D01*
X64599285Y-111533571D01*
X64742142Y-111390714D01*
X64813571Y-111176428D01*
X64813571Y-111033571D01*
X64742142Y-110819285D01*
X64670714Y-110747857D01*
X64170714Y-110747857D01*
X64170714Y-111033571D01*
X63813571Y-110105000D02*
X64813571Y-110105000D01*
X63956428Y-110105000D02*
X63885000Y-110033571D01*
X63813571Y-109890714D01*
X63813571Y-109676428D01*
X63885000Y-109533571D01*
X64027857Y-109462142D01*
X64813571Y-109462142D01*
X64813571Y-108105000D02*
X63313571Y-108105000D01*
X64742142Y-108105000D02*
X64813571Y-108247857D01*
X64813571Y-108533571D01*
X64742142Y-108676428D01*
X64670714Y-108747857D01*
X64527857Y-108819285D01*
X64099285Y-108819285D01*
X63956428Y-108747857D01*
X63885000Y-108676428D01*
X63813571Y-108533571D01*
X63813571Y-108247857D01*
X63885000Y-108105000D01*
X76648571Y-111640714D02*
X78148571Y-111140714D01*
X76648571Y-110640714D01*
X78077142Y-109497857D02*
X78148571Y-109640714D01*
X78148571Y-109926428D01*
X78077142Y-110069285D01*
X78005714Y-110140714D01*
X77862857Y-110212142D01*
X77434285Y-110212142D01*
X77291428Y-110140714D01*
X77220000Y-110069285D01*
X77148571Y-109926428D01*
X77148571Y-109640714D01*
X77220000Y-109497857D01*
X78077142Y-108212142D02*
X78148571Y-108355000D01*
X78148571Y-108640714D01*
X78077142Y-108783571D01*
X78005714Y-108855000D01*
X77862857Y-108926428D01*
X77434285Y-108926428D01*
X77291428Y-108855000D01*
X77220000Y-108783571D01*
X77148571Y-108640714D01*
X77148571Y-108355000D01*
X77220000Y-108212142D01*
D10*
X40909761Y-52133333D02*
X40909761Y-53085714D01*
X38909761Y-53085714D01*
X40814523Y-51561904D02*
X40909761Y-51276190D01*
X40909761Y-50800000D01*
X40814523Y-50609523D01*
X40719285Y-50514285D01*
X40528809Y-50419047D01*
X40338333Y-50419047D01*
X40147857Y-50514285D01*
X40052619Y-50609523D01*
X39957380Y-50800000D01*
X39862142Y-51180952D01*
X39766904Y-51371428D01*
X39671666Y-51466666D01*
X39481190Y-51561904D01*
X39290714Y-51561904D01*
X39100238Y-51466666D01*
X39005000Y-51371428D01*
X38909761Y-51180952D01*
X38909761Y-50704761D01*
X39005000Y-50419047D01*
X40909761Y-48419047D02*
X39957380Y-49085714D01*
X40909761Y-49561904D02*
X38909761Y-49561904D01*
X38909761Y-48800000D01*
X39005000Y-48609523D01*
X39100238Y-48514285D01*
X39290714Y-48419047D01*
X39576428Y-48419047D01*
X39766904Y-48514285D01*
X39862142Y-48609523D01*
X39957380Y-48800000D01*
X39957380Y-49561904D01*
X96599285Y-33273809D02*
X96694523Y-33369047D01*
X96789761Y-33654761D01*
X96789761Y-33845238D01*
X96694523Y-34130952D01*
X96504047Y-34321428D01*
X96313571Y-34416666D01*
X95932619Y-34511904D01*
X95646904Y-34511904D01*
X95265952Y-34416666D01*
X95075476Y-34321428D01*
X94885000Y-34130952D01*
X94789761Y-33845238D01*
X94789761Y-33654761D01*
X94885000Y-33369047D01*
X94980238Y-33273809D01*
X96789761Y-32416666D02*
X94789761Y-32416666D01*
X96218333Y-31750000D01*
X94789761Y-31083333D01*
X96789761Y-31083333D01*
X96789761Y-30130952D02*
X94789761Y-30130952D01*
X94789761Y-29369047D01*
X94885000Y-29178571D01*
X94980238Y-29083333D01*
X95170714Y-28988095D01*
X95456428Y-28988095D01*
X95646904Y-29083333D01*
X95742142Y-29178571D01*
X95837380Y-29369047D01*
X95837380Y-30130952D01*
X84629761Y-34464285D02*
X86629761Y-33130952D01*
X84629761Y-33130952D02*
X86629761Y-34464285D01*
X84629761Y-31988095D02*
X84629761Y-31607142D01*
X84725000Y-31416666D01*
X84915476Y-31226190D01*
X85296428Y-31130952D01*
X85963095Y-31130952D01*
X86344047Y-31226190D01*
X86534523Y-31416666D01*
X86629761Y-31607142D01*
X86629761Y-31988095D01*
X86534523Y-32178571D01*
X86344047Y-32369047D01*
X85963095Y-32464285D01*
X85296428Y-32464285D01*
X84915476Y-32369047D01*
X84725000Y-32178571D01*
X84629761Y-31988095D01*
X86629761Y-29130952D02*
X85677380Y-29797619D01*
X86629761Y-30273809D02*
X84629761Y-30273809D01*
X84629761Y-29511904D01*
X84725000Y-29321428D01*
X84820238Y-29226190D01*
X85010714Y-29130952D01*
X85296428Y-29130952D01*
X85486904Y-29226190D01*
X85582142Y-29321428D01*
X85677380Y-29511904D01*
X85677380Y-30273809D01*
X74469761Y-32940476D02*
X74469761Y-32559523D01*
X74565000Y-32369047D01*
X74755476Y-32178571D01*
X75136428Y-32083333D01*
X75803095Y-32083333D01*
X76184047Y-32178571D01*
X76374523Y-32369047D01*
X76469761Y-32559523D01*
X76469761Y-32940476D01*
X76374523Y-33130952D01*
X76184047Y-33321428D01*
X75803095Y-33416666D01*
X75136428Y-33416666D01*
X74755476Y-33321428D01*
X74565000Y-33130952D01*
X74469761Y-32940476D01*
X76469761Y-30083333D02*
X75517380Y-30750000D01*
X76469761Y-31226190D02*
X74469761Y-31226190D01*
X74469761Y-30464285D01*
X74565000Y-30273809D01*
X74660238Y-30178571D01*
X74850714Y-30083333D01*
X75136428Y-30083333D01*
X75326904Y-30178571D01*
X75422142Y-30273809D01*
X75517380Y-30464285D01*
X75517380Y-31226190D01*
X60658333Y-34273809D02*
X60658333Y-33321428D01*
X61229761Y-34464285D02*
X59229761Y-33797619D01*
X61229761Y-33130952D01*
X61229761Y-32464285D02*
X59229761Y-32464285D01*
X61229761Y-31321428D01*
X59229761Y-31321428D01*
X61229761Y-30369047D02*
X59229761Y-30369047D01*
X59229761Y-29892857D01*
X59325000Y-29607142D01*
X59515476Y-29416666D01*
X59705952Y-29321428D01*
X60086904Y-29226190D01*
X60372619Y-29226190D01*
X60753571Y-29321428D01*
X60944047Y-29416666D01*
X61134523Y-29607142D01*
X61229761Y-29892857D01*
X61229761Y-30369047D01*
X50498333Y-34226190D02*
X50498333Y-33273809D01*
X51069761Y-34416666D02*
X49069761Y-33750000D01*
X51069761Y-33083333D01*
X51069761Y-32416666D02*
X49069761Y-32416666D01*
X49069761Y-31940476D01*
X49165000Y-31654761D01*
X49355476Y-31464285D01*
X49545952Y-31369047D01*
X49926904Y-31273809D01*
X50212619Y-31273809D01*
X50593571Y-31369047D01*
X50784047Y-31464285D01*
X50974523Y-31654761D01*
X51069761Y-31940476D01*
X51069761Y-32416666D01*
X51069761Y-30416666D02*
X49069761Y-30416666D01*
X49069761Y-29940476D01*
X49165000Y-29654761D01*
X49355476Y-29464285D01*
X49545952Y-29369047D01*
X49926904Y-29273809D01*
X50212619Y-29273809D01*
X50593571Y-29369047D01*
X50784047Y-29464285D01*
X50974523Y-29654761D01*
X51069761Y-29940476D01*
X51069761Y-30416666D01*
D12*
%TO.C,U9*%
X20320000Y-44450000D02*
X27940000Y-44450000D01*
X27940000Y-44450000D02*
X27940000Y-106680000D01*
X27940000Y-106680000D02*
X20320000Y-106680000D01*
X20320000Y-106680000D02*
X20320000Y-44450000D01*
D14*
%TO.C,J14*%
X52010000Y-16887500D02*
X54670000Y-16887500D01*
X52010000Y-16827500D02*
X52010000Y-16887500D01*
X54670000Y-16827500D02*
X54670000Y-16887500D01*
X52010000Y-16827500D02*
X54670000Y-16827500D01*
X52010000Y-15557500D02*
X52010000Y-14227500D01*
X52010000Y-14227500D02*
X53340000Y-14227500D01*
%TO.C,J13*%
X46930000Y-16887500D02*
X49590000Y-16887500D01*
X46930000Y-16827500D02*
X46930000Y-16887500D01*
X49590000Y-16827500D02*
X49590000Y-16887500D01*
X46930000Y-16827500D02*
X49590000Y-16827500D01*
X46930000Y-15557500D02*
X46930000Y-14227500D01*
X46930000Y-14227500D02*
X48260000Y-14227500D01*
%TO.C,J12*%
X24070000Y-111820000D02*
X26730000Y-111820000D01*
X24070000Y-111760000D02*
X24070000Y-111820000D01*
X26730000Y-111760000D02*
X26730000Y-111820000D01*
X24070000Y-111760000D02*
X26730000Y-111760000D01*
X24070000Y-110490000D02*
X24070000Y-109160000D01*
X24070000Y-109160000D02*
X25400000Y-109160000D01*
D12*
%TO.C,U10*%
X22860000Y-15240000D02*
X45720000Y-15240000D01*
X45720000Y-15240000D02*
X45720000Y-43180000D01*
X45720000Y-43180000D02*
X22860000Y-43180000D01*
X22860000Y-43180000D02*
X22860000Y-15240000D01*
D14*
%TO.C,J11*%
X39310000Y-109160000D02*
X40640000Y-109160000D01*
X39310000Y-110490000D02*
X39310000Y-109160000D01*
X39310000Y-111760000D02*
X41970000Y-111760000D01*
X41970000Y-111760000D02*
X41970000Y-111820000D01*
X39310000Y-111760000D02*
X39310000Y-111820000D01*
X39310000Y-111820000D02*
X41970000Y-111820000D01*
D12*
%TO.C,U8*%
X38100000Y-44450000D02*
X45720000Y-44450000D01*
X45720000Y-44450000D02*
X45720000Y-106680000D01*
X45720000Y-106680000D02*
X38100000Y-106680000D01*
X38100000Y-106680000D02*
X38100000Y-44450000D01*
D14*
%TO.C,J6*%
X29150000Y-111820000D02*
X31810000Y-111820000D01*
X29150000Y-111760000D02*
X29150000Y-111820000D01*
X31810000Y-111760000D02*
X31810000Y-111820000D01*
X29150000Y-111760000D02*
X31810000Y-111760000D01*
X29150000Y-110490000D02*
X29150000Y-109160000D01*
X29150000Y-109160000D02*
X30480000Y-109160000D01*
%TO.C,J5*%
X32960000Y-111820000D02*
X35620000Y-111820000D01*
X32960000Y-111760000D02*
X32960000Y-111820000D01*
X35620000Y-111760000D02*
X35620000Y-111820000D01*
X32960000Y-111760000D02*
X35620000Y-111760000D01*
X32960000Y-110490000D02*
X32960000Y-109160000D01*
X32960000Y-109160000D02*
X34290000Y-109160000D01*
D12*
%TO.C,U5*%
X93980000Y-104140000D02*
X93980000Y-20320000D01*
X101600000Y-104140000D02*
X93980000Y-104140000D01*
X101600000Y-20320000D02*
X101600000Y-104140000D01*
X93980000Y-20320000D02*
X101600000Y-20320000D01*
D14*
%TO.C,J7*%
X75260000Y-110172500D02*
G75*
G03*
X75260000Y-110172500I-1680000J0D01*
G01*
X66020000Y-114272500D02*
X76140000Y-114272500D01*
X66020000Y-112772500D02*
X76140000Y-112772500D01*
X66020000Y-107871500D02*
X76140000Y-107871500D01*
X66020000Y-104911500D02*
X76140000Y-104911500D01*
X66020000Y-114832500D02*
X76140000Y-114832500D01*
X66020000Y-104911500D02*
X66020000Y-114832500D01*
X76140000Y-104911500D02*
X76140000Y-114832500D01*
X74855000Y-109103500D02*
X74808000Y-109149500D01*
X72546000Y-111411500D02*
X72511000Y-111446500D01*
X74650000Y-108897500D02*
X74615000Y-108933500D01*
X72353000Y-111195500D02*
X72306000Y-111241500D01*
X65780000Y-114332500D02*
X65780000Y-115072500D01*
X65780000Y-115072500D02*
X66280000Y-115072500D01*
X69263318Y-111707256D02*
G75*
G02*
X68580000Y-111852500I-683318J1534756D01*
G01*
X70115426Y-109489458D02*
G75*
G02*
X70115000Y-110856500I-1535426J-683042D01*
G01*
X67896958Y-108637074D02*
G75*
G02*
X69264000Y-108637500I683042J-1535426D01*
G01*
X67044574Y-110855542D02*
G75*
G02*
X67045000Y-109488500I1535426J683042D01*
G01*
X68608805Y-111852753D02*
G75*
G02*
X67896000Y-111707500I-28805J1680253D01*
G01*
D12*
%TO.C,U1*%
X48260000Y-20320000D02*
X55880000Y-20320000D01*
X55880000Y-20320000D02*
X55880000Y-104140000D01*
X55880000Y-104140000D02*
X48260000Y-104140000D01*
X48260000Y-104140000D02*
X48260000Y-20320000D01*
%TO.C,U2*%
X58420000Y-104140000D02*
X58420000Y-20320000D01*
X66040000Y-104140000D02*
X58420000Y-104140000D01*
X66040000Y-20320000D02*
X66040000Y-104140000D01*
X58420000Y-20320000D02*
X66040000Y-20320000D01*
%TO.C,U3*%
X73660000Y-20320000D02*
X81280000Y-20320000D01*
X81280000Y-20320000D02*
X81280000Y-104140000D01*
X81280000Y-104140000D02*
X73660000Y-104140000D01*
X73660000Y-104140000D02*
X73660000Y-20320000D01*
%TO.C,U4*%
X83820000Y-20320000D02*
X91440000Y-20320000D01*
X91440000Y-20320000D02*
X91440000Y-104140000D01*
X91440000Y-104140000D02*
X83820000Y-104140000D01*
X83820000Y-104140000D02*
X83820000Y-20320000D01*
D14*
%TO.C,J4*%
X68520000Y-87570000D02*
X69850000Y-87570000D01*
X68520000Y-88900000D02*
X68520000Y-87570000D01*
X68520000Y-90170000D02*
X71180000Y-90170000D01*
X71180000Y-90170000D02*
X71180000Y-90230000D01*
X68520000Y-90170000D02*
X68520000Y-90230000D01*
X68520000Y-90230000D02*
X71180000Y-90230000D01*
%TO.C,J25*%
X99000000Y-111820000D02*
X101660000Y-111820000D01*
X99000000Y-111760000D02*
X99000000Y-111820000D01*
X101660000Y-111760000D02*
X101660000Y-111820000D01*
X99000000Y-111760000D02*
X101660000Y-111760000D01*
X99000000Y-110490000D02*
X99000000Y-109160000D01*
X99000000Y-109160000D02*
X100330000Y-109160000D01*
%TO.C,J26*%
X85030000Y-109160000D02*
X86360000Y-109160000D01*
X85030000Y-110490000D02*
X85030000Y-109160000D01*
X85030000Y-111760000D02*
X87690000Y-111760000D01*
X87690000Y-111760000D02*
X87690000Y-111820000D01*
X85030000Y-111760000D02*
X85030000Y-111820000D01*
X85030000Y-111820000D02*
X87690000Y-111820000D01*
%TO.C,J27*%
X79950000Y-109160000D02*
X81280000Y-109160000D01*
X79950000Y-110490000D02*
X79950000Y-109160000D01*
X79950000Y-111760000D02*
X82610000Y-111760000D01*
X82610000Y-111760000D02*
X82610000Y-111820000D01*
X79950000Y-111760000D02*
X79950000Y-111820000D01*
X79950000Y-111820000D02*
X82610000Y-111820000D01*
%TO.C,J28*%
X57090000Y-111820000D02*
X59750000Y-111820000D01*
X57090000Y-111760000D02*
X57090000Y-111820000D01*
X59750000Y-111760000D02*
X59750000Y-111820000D01*
X57090000Y-111760000D02*
X59750000Y-111760000D01*
X57090000Y-110490000D02*
X57090000Y-109160000D01*
X57090000Y-109160000D02*
X58420000Y-109160000D01*
%TO.C,J30*%
X52010000Y-109160000D02*
X53340000Y-109160000D01*
X52010000Y-110490000D02*
X52010000Y-109160000D01*
X52010000Y-111760000D02*
X54670000Y-111760000D01*
X54670000Y-111760000D02*
X54670000Y-111820000D01*
X52010000Y-111760000D02*
X52010000Y-111820000D01*
X52010000Y-111820000D02*
X54670000Y-111820000D01*
%TO.C,J31*%
X46930000Y-111820000D02*
X49590000Y-111820000D01*
X46930000Y-111760000D02*
X46930000Y-111820000D01*
X49590000Y-111760000D02*
X49590000Y-111820000D01*
X46930000Y-111760000D02*
X49590000Y-111760000D01*
X46930000Y-110490000D02*
X46930000Y-109160000D01*
X46930000Y-109160000D02*
X48260000Y-109160000D01*
%TO.C,J41*%
X92650000Y-109160000D02*
X93980000Y-109160000D01*
X92650000Y-110490000D02*
X92650000Y-109160000D01*
X92650000Y-111760000D02*
X95310000Y-111760000D01*
X95310000Y-111760000D02*
X95310000Y-111820000D01*
X92650000Y-111760000D02*
X92650000Y-111820000D01*
X92650000Y-111820000D02*
X95310000Y-111820000D01*
D12*
%TO.C,U6*%
X104140000Y-105410000D02*
X104140000Y-21590000D01*
X111760000Y-105410000D02*
X104140000Y-105410000D01*
X111760000Y-21590000D02*
X111760000Y-105410000D01*
X104140000Y-21590000D02*
X111760000Y-21590000D01*
%TO.C,U7*%
X29210000Y-106680000D02*
X29210000Y-44450000D01*
X36830000Y-106680000D02*
X29210000Y-106680000D01*
X36830000Y-44450000D02*
X36830000Y-106680000D01*
X29210000Y-44450000D02*
X36830000Y-44450000D01*
D14*
%TO.C,J1*%
X13910000Y-25340000D02*
X15240000Y-25340000D01*
X13910000Y-26670000D02*
X13910000Y-25340000D01*
X13910000Y-27940000D02*
X16570000Y-27940000D01*
X16570000Y-27940000D02*
X16570000Y-48320000D01*
X13910000Y-27940000D02*
X13910000Y-48320000D01*
X13910000Y-48320000D02*
X16570000Y-48320000D01*
%TO.C,J2*%
X13910000Y-73720000D02*
X16570000Y-73720000D01*
X13910000Y-53340000D02*
X13910000Y-73720000D01*
X16570000Y-53340000D02*
X16570000Y-73720000D01*
X13910000Y-53340000D02*
X16570000Y-53340000D01*
X13910000Y-52070000D02*
X13910000Y-50740000D01*
X13910000Y-50740000D02*
X15240000Y-50740000D01*
%TO.C,J3*%
X13910000Y-76140000D02*
X15240000Y-76140000D01*
X13910000Y-77470000D02*
X13910000Y-76140000D01*
X13910000Y-78740000D02*
X16570000Y-78740000D01*
X16570000Y-78740000D02*
X16570000Y-99120000D01*
X13910000Y-78740000D02*
X13910000Y-99120000D01*
X13910000Y-99120000D02*
X16570000Y-99120000D01*
%TO.C,U9*%
D12*
X23368095Y-45172380D02*
X23368095Y-45981904D01*
X23415714Y-46077142D01*
X23463333Y-46124761D01*
X23558571Y-46172380D01*
X23749047Y-46172380D01*
X23844285Y-46124761D01*
X23891904Y-46077142D01*
X23939523Y-45981904D01*
X23939523Y-45172380D01*
X24463333Y-46172380D02*
X24653809Y-46172380D01*
X24749047Y-46124761D01*
X24796666Y-46077142D01*
X24891904Y-45934285D01*
X24939523Y-45743809D01*
X24939523Y-45362857D01*
X24891904Y-45267619D01*
X24844285Y-45220000D01*
X24749047Y-45172380D01*
X24558571Y-45172380D01*
X24463333Y-45220000D01*
X24415714Y-45267619D01*
X24368095Y-45362857D01*
X24368095Y-45600952D01*
X24415714Y-45696190D01*
X24463333Y-45743809D01*
X24558571Y-45791428D01*
X24749047Y-45791428D01*
X24844285Y-45743809D01*
X24891904Y-45696190D01*
X24939523Y-45600952D01*
%TO.C,U10*%
X33051904Y-17732380D02*
X33051904Y-18541904D01*
X33099523Y-18637142D01*
X33147142Y-18684761D01*
X33242380Y-18732380D01*
X33432857Y-18732380D01*
X33528095Y-18684761D01*
X33575714Y-18637142D01*
X33623333Y-18541904D01*
X33623333Y-17732380D01*
X34623333Y-18732380D02*
X34051904Y-18732380D01*
X34337619Y-18732380D02*
X34337619Y-17732380D01*
X34242380Y-17875238D01*
X34147142Y-17970476D01*
X34051904Y-18018095D01*
X35242380Y-17732380D02*
X35337619Y-17732380D01*
X35432857Y-17780000D01*
X35480476Y-17827619D01*
X35528095Y-17922857D01*
X35575714Y-18113333D01*
X35575714Y-18351428D01*
X35528095Y-18541904D01*
X35480476Y-18637142D01*
X35432857Y-18684761D01*
X35337619Y-18732380D01*
X35242380Y-18732380D01*
X35147142Y-18684761D01*
X35099523Y-18637142D01*
X35051904Y-18541904D01*
X35004285Y-18351428D01*
X35004285Y-18113333D01*
X35051904Y-17922857D01*
X35099523Y-17827619D01*
X35147142Y-17780000D01*
X35242380Y-17732380D01*
%TO.C,U8*%
X41148095Y-45172380D02*
X41148095Y-45981904D01*
X41195714Y-46077142D01*
X41243333Y-46124761D01*
X41338571Y-46172380D01*
X41529047Y-46172380D01*
X41624285Y-46124761D01*
X41671904Y-46077142D01*
X41719523Y-45981904D01*
X41719523Y-45172380D01*
X42338571Y-45600952D02*
X42243333Y-45553333D01*
X42195714Y-45505714D01*
X42148095Y-45410476D01*
X42148095Y-45362857D01*
X42195714Y-45267619D01*
X42243333Y-45220000D01*
X42338571Y-45172380D01*
X42529047Y-45172380D01*
X42624285Y-45220000D01*
X42671904Y-45267619D01*
X42719523Y-45362857D01*
X42719523Y-45410476D01*
X42671904Y-45505714D01*
X42624285Y-45553333D01*
X42529047Y-45600952D01*
X42338571Y-45600952D01*
X42243333Y-45648571D01*
X42195714Y-45696190D01*
X42148095Y-45791428D01*
X42148095Y-45981904D01*
X42195714Y-46077142D01*
X42243333Y-46124761D01*
X42338571Y-46172380D01*
X42529047Y-46172380D01*
X42624285Y-46124761D01*
X42671904Y-46077142D01*
X42719523Y-45981904D01*
X42719523Y-45791428D01*
X42671904Y-45696190D01*
X42624285Y-45648571D01*
X42529047Y-45600952D01*
%TO.C,U5*%
X94488095Y-21042380D02*
X94488095Y-21851904D01*
X94535714Y-21947142D01*
X94583333Y-21994761D01*
X94678571Y-22042380D01*
X94869047Y-22042380D01*
X94964285Y-21994761D01*
X95011904Y-21947142D01*
X95059523Y-21851904D01*
X95059523Y-21042380D01*
X96011904Y-21042380D02*
X95535714Y-21042380D01*
X95488095Y-21518571D01*
X95535714Y-21470952D01*
X95630952Y-21423333D01*
X95869047Y-21423333D01*
X95964285Y-21470952D01*
X96011904Y-21518571D01*
X96059523Y-21613809D01*
X96059523Y-21851904D01*
X96011904Y-21947142D01*
X95964285Y-21994761D01*
X95869047Y-22042380D01*
X95630952Y-22042380D01*
X95535714Y-21994761D01*
X95488095Y-21947142D01*
%TO.C,U1*%
X49403095Y-21042380D02*
X49403095Y-21851904D01*
X49450714Y-21947142D01*
X49498333Y-21994761D01*
X49593571Y-22042380D01*
X49784047Y-22042380D01*
X49879285Y-21994761D01*
X49926904Y-21947142D01*
X49974523Y-21851904D01*
X49974523Y-21042380D01*
X50974523Y-22042380D02*
X50403095Y-22042380D01*
X50688809Y-22042380D02*
X50688809Y-21042380D01*
X50593571Y-21185238D01*
X50498333Y-21280476D01*
X50403095Y-21328095D01*
%TO.C,U2*%
X59093095Y-21042380D02*
X59093095Y-21851904D01*
X59140714Y-21947142D01*
X59188333Y-21994761D01*
X59283571Y-22042380D01*
X59474047Y-22042380D01*
X59569285Y-21994761D01*
X59616904Y-21947142D01*
X59664523Y-21851904D01*
X59664523Y-21042380D01*
X60093095Y-21137619D02*
X60140714Y-21090000D01*
X60235952Y-21042380D01*
X60474047Y-21042380D01*
X60569285Y-21090000D01*
X60616904Y-21137619D01*
X60664523Y-21232857D01*
X60664523Y-21328095D01*
X60616904Y-21470952D01*
X60045476Y-22042380D01*
X60664523Y-22042380D01*
%TO.C,U3*%
X74803095Y-21042380D02*
X74803095Y-21851904D01*
X74850714Y-21947142D01*
X74898333Y-21994761D01*
X74993571Y-22042380D01*
X75184047Y-22042380D01*
X75279285Y-21994761D01*
X75326904Y-21947142D01*
X75374523Y-21851904D01*
X75374523Y-21042380D01*
X75755476Y-21042380D02*
X76374523Y-21042380D01*
X76041190Y-21423333D01*
X76184047Y-21423333D01*
X76279285Y-21470952D01*
X76326904Y-21518571D01*
X76374523Y-21613809D01*
X76374523Y-21851904D01*
X76326904Y-21947142D01*
X76279285Y-21994761D01*
X76184047Y-22042380D01*
X75898333Y-22042380D01*
X75803095Y-21994761D01*
X75755476Y-21947142D01*
%TO.C,U4*%
X84328095Y-21042380D02*
X84328095Y-21851904D01*
X84375714Y-21947142D01*
X84423333Y-21994761D01*
X84518571Y-22042380D01*
X84709047Y-22042380D01*
X84804285Y-21994761D01*
X84851904Y-21947142D01*
X84899523Y-21851904D01*
X84899523Y-21042380D01*
X85804285Y-21375714D02*
X85804285Y-22042380D01*
X85566190Y-20994761D02*
X85328095Y-21709047D01*
X85947142Y-21709047D01*
%TO.C,U6*%
X105843094Y-23582380D02*
X105843094Y-24391904D01*
X105890713Y-24487142D01*
X105938332Y-24534761D01*
X106033570Y-24582380D01*
X106224046Y-24582380D01*
X106319284Y-24534761D01*
X106366903Y-24487142D01*
X106414522Y-24391904D01*
X106414522Y-23582380D01*
X107319284Y-23582380D02*
X107128808Y-23582380D01*
X107033570Y-23630000D01*
X106985951Y-23677619D01*
X106890713Y-23820476D01*
X106843094Y-24010952D01*
X106843094Y-24391904D01*
X106890713Y-24487142D01*
X106938332Y-24534761D01*
X107033570Y-24582380D01*
X107224046Y-24582380D01*
X107319284Y-24534761D01*
X107366903Y-24487142D01*
X107414522Y-24391904D01*
X107414522Y-24153809D01*
X107366903Y-24058571D01*
X107319284Y-24010952D01*
X107224046Y-23963333D01*
X107033570Y-23963333D01*
X106938332Y-24010952D01*
X106890713Y-24058571D01*
X106843094Y-24153809D01*
%TO.C,U7*%
X32258095Y-45172380D02*
X32258095Y-45981904D01*
X32305714Y-46077142D01*
X32353333Y-46124761D01*
X32448571Y-46172380D01*
X32639047Y-46172380D01*
X32734285Y-46124761D01*
X32781904Y-46077142D01*
X32829523Y-45981904D01*
X32829523Y-45172380D01*
X33210476Y-45172380D02*
X33877142Y-45172380D01*
X33448571Y-46172380D01*
%TD*%
M02*
