%TF.GenerationSoftware,KiCad,Pcbnew,(5.1.8)-1*%
%TF.CreationDate,2024-06-20T22:43:38+03:00*%
%TF.ProjectId,MUX16bit,4d555831-3662-4697-942e-6b696361645f,rev?*%
%TF.SameCoordinates,Original*%
%TF.FileFunction,Legend,Bot*%
%TF.FilePolarity,Positive*%
%FSLAX46Y46*%
G04 Gerber Fmt 4.6, Leading zero omitted, Abs format (unit mm)*
G04 Created by KiCad (PCBNEW (5.1.8)-1) date 2024-06-20 22:43:38*
%MOMM*%
%LPD*%
G01*
G04 APERTURE LIST*
%ADD10C,0.120000*%
%ADD11C,0.150000*%
G04 APERTURE END LIST*
D10*
%TO.C,Q1*%
X97480000Y-24640000D02*
X97480000Y-26100000D01*
X100640000Y-24640000D02*
X100640000Y-26800000D01*
X100640000Y-24640000D02*
X99710000Y-24640000D01*
X97480000Y-24640000D02*
X98410000Y-24640000D01*
%TO.C,C2*%
X53163748Y-65305000D02*
X53686252Y-65305000D01*
X53163748Y-66775000D02*
X53686252Y-66775000D01*
%TO.C,C1*%
X53078748Y-34825000D02*
X53601252Y-34825000D01*
X53078748Y-36295000D02*
X53601252Y-36295000D01*
%TO.C,R3*%
X83047064Y-72490000D02*
X82592936Y-72490000D01*
X83047064Y-71020000D02*
X82592936Y-71020000D01*
%TO.C,R2*%
X129947936Y-23395000D02*
X130402064Y-23395000D01*
X129947936Y-24865000D02*
X130402064Y-24865000D01*
%TO.C,R1*%
X130312936Y-51335000D02*
X130767064Y-51335000D01*
X130312936Y-52805000D02*
X130767064Y-52805000D01*
%TO.C,Q1*%
D11*
X102107619Y-25304761D02*
X102060000Y-25209523D01*
X101964761Y-25114285D01*
X101821904Y-24971428D01*
X101774285Y-24876190D01*
X101774285Y-24780952D01*
X102012380Y-24828571D02*
X101964761Y-24733333D01*
X101869523Y-24638095D01*
X101679047Y-24590476D01*
X101345714Y-24590476D01*
X101155238Y-24638095D01*
X101060000Y-24733333D01*
X101012380Y-24828571D01*
X101012380Y-25019047D01*
X101060000Y-25114285D01*
X101155238Y-25209523D01*
X101345714Y-25257142D01*
X101679047Y-25257142D01*
X101869523Y-25209523D01*
X101964761Y-25114285D01*
X102012380Y-25019047D01*
X102012380Y-24828571D01*
X102012380Y-26209523D02*
X102012380Y-25638095D01*
X102012380Y-25923809D02*
X101012380Y-25923809D01*
X101155238Y-25828571D01*
X101250476Y-25733333D01*
X101298095Y-25638095D01*
%TO.C,C2*%
X56681666Y-66397142D02*
X56729285Y-66444761D01*
X56872142Y-66492380D01*
X56967380Y-66492380D01*
X57110238Y-66444761D01*
X57205476Y-66349523D01*
X57253095Y-66254285D01*
X57300714Y-66063809D01*
X57300714Y-65920952D01*
X57253095Y-65730476D01*
X57205476Y-65635238D01*
X57110238Y-65540000D01*
X56967380Y-65492380D01*
X56872142Y-65492380D01*
X56729285Y-65540000D01*
X56681666Y-65587619D01*
X56300714Y-65587619D02*
X56253095Y-65540000D01*
X56157857Y-65492380D01*
X55919761Y-65492380D01*
X55824523Y-65540000D01*
X55776904Y-65587619D01*
X55729285Y-65682857D01*
X55729285Y-65778095D01*
X55776904Y-65920952D01*
X56348333Y-66492380D01*
X55729285Y-66492380D01*
%TO.C,C1*%
X56364166Y-35917142D02*
X56411785Y-35964761D01*
X56554642Y-36012380D01*
X56649880Y-36012380D01*
X56792738Y-35964761D01*
X56887976Y-35869523D01*
X56935595Y-35774285D01*
X56983214Y-35583809D01*
X56983214Y-35440952D01*
X56935595Y-35250476D01*
X56887976Y-35155238D01*
X56792738Y-35060000D01*
X56649880Y-35012380D01*
X56554642Y-35012380D01*
X56411785Y-35060000D01*
X56364166Y-35107619D01*
X55411785Y-36012380D02*
X55983214Y-36012380D01*
X55697500Y-36012380D02*
X55697500Y-35012380D01*
X55792738Y-35155238D01*
X55887976Y-35250476D01*
X55983214Y-35298095D01*
%TO.C,R3*%
X82986666Y-70557380D02*
X83320000Y-70081190D01*
X83558095Y-70557380D02*
X83558095Y-69557380D01*
X83177142Y-69557380D01*
X83081904Y-69605000D01*
X83034285Y-69652619D01*
X82986666Y-69747857D01*
X82986666Y-69890714D01*
X83034285Y-69985952D01*
X83081904Y-70033571D01*
X83177142Y-70081190D01*
X83558095Y-70081190D01*
X82653333Y-69557380D02*
X82034285Y-69557380D01*
X82367619Y-69938333D01*
X82224761Y-69938333D01*
X82129523Y-69985952D01*
X82081904Y-70033571D01*
X82034285Y-70128809D01*
X82034285Y-70366904D01*
X82081904Y-70462142D01*
X82129523Y-70509761D01*
X82224761Y-70557380D01*
X82510476Y-70557380D01*
X82605714Y-70509761D01*
X82653333Y-70462142D01*
%TO.C,R2*%
X130341666Y-26487380D02*
X130675000Y-26011190D01*
X130913095Y-26487380D02*
X130913095Y-25487380D01*
X130532142Y-25487380D01*
X130436904Y-25535000D01*
X130389285Y-25582619D01*
X130341666Y-25677857D01*
X130341666Y-25820714D01*
X130389285Y-25915952D01*
X130436904Y-25963571D01*
X130532142Y-26011190D01*
X130913095Y-26011190D01*
X129960714Y-25582619D02*
X129913095Y-25535000D01*
X129817857Y-25487380D01*
X129579761Y-25487380D01*
X129484523Y-25535000D01*
X129436904Y-25582619D01*
X129389285Y-25677857D01*
X129389285Y-25773095D01*
X129436904Y-25915952D01*
X130008333Y-26487380D01*
X129389285Y-26487380D01*
%TO.C,R1*%
X130341666Y-54427380D02*
X130675000Y-53951190D01*
X130913095Y-54427380D02*
X130913095Y-53427380D01*
X130532142Y-53427380D01*
X130436904Y-53475000D01*
X130389285Y-53522619D01*
X130341666Y-53617857D01*
X130341666Y-53760714D01*
X130389285Y-53855952D01*
X130436904Y-53903571D01*
X130532142Y-53951190D01*
X130913095Y-53951190D01*
X129389285Y-54427380D02*
X129960714Y-54427380D01*
X129675000Y-54427380D02*
X129675000Y-53427380D01*
X129770238Y-53570238D01*
X129865476Y-53665476D01*
X129960714Y-53713095D01*
%TD*%
M02*
