%TF.GenerationSoftware,KiCad,Pcbnew,(5.1.8)-1*%
%TF.CreationDate,2022-06-07T22:38:19+03:00*%
%TF.ProjectId,MUX,4d55582e-6b69-4636-9164-5f7063625858,rev?*%
%TF.SameCoordinates,Original*%
%TF.FileFunction,Soldermask,Top*%
%TF.FilePolarity,Negative*%
%FSLAX46Y46*%
G04 Gerber Fmt 4.6, Leading zero omitted, Abs format (unit mm)*
G04 Created by KiCad (PCBNEW (5.1.8)-1) date 2022-06-07 22:38:19*
%MOMM*%
%LPD*%
G01*
G04 APERTURE LIST*
%ADD10R,1.700000X1.700000*%
%ADD11O,1.700000X1.700000*%
%ADD12R,1.600000X1.600000*%
%ADD13O,1.600000X1.600000*%
%ADD14O,1.500000X1.800000*%
%ADD15R,2.600000X2.600000*%
%ADD16C,2.600000*%
%ADD17C,3.200000*%
G04 APERTURE END LIST*
D10*
%TO.C,J1*%
X39370000Y-35560000D03*
D11*
X41910000Y-35560000D03*
X44450000Y-35560000D03*
X46990000Y-35560000D03*
X49530000Y-35560000D03*
X52070000Y-35560000D03*
X54610000Y-35560000D03*
X57150000Y-35560000D03*
%TD*%
D10*
%TO.C,J2*%
X130810000Y-35560000D03*
D11*
X133350000Y-35560000D03*
X135890000Y-35560000D03*
X138430000Y-35560000D03*
X140970000Y-35560000D03*
X143510000Y-35560000D03*
X146050000Y-35560000D03*
X148590000Y-35560000D03*
%TD*%
%TO.C,J3*%
X57150000Y-177800000D03*
X54610000Y-177800000D03*
X52070000Y-177800000D03*
X49530000Y-177800000D03*
X46990000Y-177800000D03*
X44450000Y-177800000D03*
X41910000Y-177800000D03*
D10*
X39370000Y-177800000D03*
%TD*%
D11*
%TO.C,J4*%
X148590000Y-177800000D03*
X146050000Y-177800000D03*
X143510000Y-177800000D03*
X140970000Y-177800000D03*
X138430000Y-177800000D03*
X135890000Y-177800000D03*
X133350000Y-177800000D03*
D10*
X130810000Y-177800000D03*
%TD*%
%TO.C,J5*%
X62230000Y-30480000D03*
D11*
X64770000Y-30480000D03*
X67310000Y-30480000D03*
X69850000Y-30480000D03*
X72390000Y-30480000D03*
X74930000Y-30480000D03*
X77470000Y-30480000D03*
X80010000Y-30480000D03*
%TD*%
D10*
%TO.C,J6*%
X153670000Y-30480000D03*
D11*
X156210000Y-30480000D03*
X158750000Y-30480000D03*
X161290000Y-30480000D03*
X163830000Y-30480000D03*
X166370000Y-30480000D03*
X168910000Y-30480000D03*
X171450000Y-30480000D03*
%TD*%
%TO.C,J7*%
X80010000Y-177800000D03*
X77470000Y-177800000D03*
X74930000Y-177800000D03*
X72390000Y-177800000D03*
X69850000Y-177800000D03*
X67310000Y-177800000D03*
X64770000Y-177800000D03*
D10*
X62230000Y-177800000D03*
%TD*%
D11*
%TO.C,J8*%
X171450000Y-172720000D03*
X168910000Y-172720000D03*
X166370000Y-172720000D03*
X163830000Y-172720000D03*
X161290000Y-172720000D03*
X158750000Y-172720000D03*
X156210000Y-172720000D03*
D10*
X153670000Y-172720000D03*
%TD*%
D12*
%TO.C,U1*%
X101600000Y-50800000D03*
D13*
X83820000Y-58420000D03*
X99060000Y-50800000D03*
X86360000Y-58420000D03*
X96520000Y-50800000D03*
X88900000Y-58420000D03*
X93980000Y-50800000D03*
D14*
X91440000Y-58420000D03*
D13*
X91440000Y-50800000D03*
D14*
X93980000Y-58420000D03*
D13*
X88900000Y-50800000D03*
X96520000Y-58420000D03*
X86360000Y-50800000D03*
X99060000Y-58420000D03*
X83820000Y-50800000D03*
X101600000Y-58420000D03*
%TD*%
%TO.C,U2*%
X124460000Y-58420000D03*
X106680000Y-50800000D03*
X121920000Y-58420000D03*
X109220000Y-50800000D03*
X119380000Y-58420000D03*
X111760000Y-50800000D03*
D14*
X116840000Y-58420000D03*
D13*
X114300000Y-50800000D03*
D14*
X114300000Y-58420000D03*
D13*
X116840000Y-50800000D03*
X111760000Y-58420000D03*
X119380000Y-50800000D03*
X109220000Y-58420000D03*
X121920000Y-50800000D03*
X106680000Y-58420000D03*
D12*
X124460000Y-50800000D03*
%TD*%
%TO.C,U3*%
X101600000Y-83820000D03*
D13*
X83820000Y-91440000D03*
X99060000Y-83820000D03*
X86360000Y-91440000D03*
X96520000Y-83820000D03*
X88900000Y-91440000D03*
D14*
X93980000Y-83820000D03*
X91440000Y-91440000D03*
X91440000Y-83820000D03*
X93980000Y-91440000D03*
X88900000Y-83820000D03*
D13*
X96520000Y-91440000D03*
D14*
X86360000Y-83820000D03*
D13*
X99060000Y-91440000D03*
D14*
X83820000Y-83820000D03*
D13*
X101600000Y-91440000D03*
%TD*%
%TO.C,U4*%
X124460000Y-91440000D03*
D14*
X106680000Y-83820000D03*
D13*
X121920000Y-91440000D03*
D14*
X109220000Y-83820000D03*
D13*
X119380000Y-91440000D03*
D14*
X111760000Y-83820000D03*
X116840000Y-91440000D03*
X114300000Y-83820000D03*
X114300000Y-91440000D03*
X116840000Y-83820000D03*
D13*
X111760000Y-91440000D03*
X119380000Y-83820000D03*
X109220000Y-91440000D03*
X121920000Y-83820000D03*
X106680000Y-91440000D03*
D12*
X124460000Y-83820000D03*
%TD*%
%TO.C,U5*%
X101600000Y-116840000D03*
D13*
X83820000Y-124460000D03*
X99060000Y-116840000D03*
X86360000Y-124460000D03*
X96520000Y-116840000D03*
X88900000Y-124460000D03*
D14*
X93980000Y-116840000D03*
X91440000Y-124460000D03*
X91440000Y-116840000D03*
X93980000Y-124460000D03*
X88900000Y-116840000D03*
D13*
X96520000Y-124460000D03*
D14*
X86360000Y-116840000D03*
D13*
X99060000Y-124460000D03*
D14*
X83820000Y-116840000D03*
D13*
X101600000Y-124460000D03*
%TD*%
%TO.C,U6*%
X124460000Y-124460000D03*
D14*
X106680000Y-116840000D03*
D13*
X121920000Y-124460000D03*
D14*
X109220000Y-116840000D03*
D13*
X119380000Y-124460000D03*
D14*
X111760000Y-116840000D03*
X116840000Y-124460000D03*
X114300000Y-116840000D03*
X114300000Y-124460000D03*
X116840000Y-116840000D03*
D13*
X111760000Y-124460000D03*
X119380000Y-116840000D03*
X109220000Y-124460000D03*
X121920000Y-116840000D03*
X106680000Y-124460000D03*
D12*
X124460000Y-116840000D03*
%TD*%
%TO.C,U7*%
X101600000Y-149860000D03*
D13*
X83820000Y-157480000D03*
X99060000Y-149860000D03*
X86360000Y-157480000D03*
X96520000Y-149860000D03*
X88900000Y-157480000D03*
D14*
X93980000Y-149860000D03*
X91440000Y-157480000D03*
X91440000Y-149860000D03*
X93980000Y-157480000D03*
X88900000Y-149860000D03*
D13*
X96520000Y-157480000D03*
D14*
X86360000Y-149860000D03*
D13*
X99060000Y-157480000D03*
D14*
X83820000Y-149860000D03*
D13*
X101600000Y-157480000D03*
%TD*%
%TO.C,U8*%
X124460000Y-157480000D03*
D14*
X106680000Y-149860000D03*
D13*
X121920000Y-157480000D03*
D14*
X109220000Y-149860000D03*
D13*
X119380000Y-157480000D03*
D14*
X111760000Y-149860000D03*
X116840000Y-157480000D03*
X114300000Y-149860000D03*
X114300000Y-157480000D03*
X116840000Y-149860000D03*
D13*
X111760000Y-157480000D03*
X119380000Y-149860000D03*
X109220000Y-157480000D03*
X121920000Y-149860000D03*
X106680000Y-157480000D03*
D12*
X124460000Y-149860000D03*
%TD*%
D15*
%TO.C,J9*%
X176530000Y-123825000D03*
D16*
X176530000Y-118825000D03*
%TD*%
D10*
%TO.C,J10*%
X111760000Y-177800000D03*
D11*
X109220000Y-177800000D03*
X106680000Y-177800000D03*
%TD*%
D10*
%TO.C,J11*%
X175260000Y-88900000D03*
D11*
X175260000Y-91440000D03*
X175260000Y-93980000D03*
X175260000Y-96520000D03*
X175260000Y-99060000D03*
X175260000Y-101600000D03*
X175260000Y-104140000D03*
X175260000Y-106680000D03*
%TD*%
%TO.C,C1*%
G36*
G01*
X80485000Y-56235000D02*
X79535000Y-56235000D01*
G75*
G02*
X79285000Y-55985000I0J250000D01*
G01*
X79285000Y-55310000D01*
G75*
G02*
X79535000Y-55060000I250000J0D01*
G01*
X80485000Y-55060000D01*
G75*
G02*
X80735000Y-55310000I0J-250000D01*
G01*
X80735000Y-55985000D01*
G75*
G02*
X80485000Y-56235000I-250000J0D01*
G01*
G37*
G36*
G01*
X80485000Y-54160000D02*
X79535000Y-54160000D01*
G75*
G02*
X79285000Y-53910000I0J250000D01*
G01*
X79285000Y-53235000D01*
G75*
G02*
X79535000Y-52985000I250000J0D01*
G01*
X80485000Y-52985000D01*
G75*
G02*
X80735000Y-53235000I0J-250000D01*
G01*
X80735000Y-53910000D01*
G75*
G02*
X80485000Y-54160000I-250000J0D01*
G01*
G37*
%TD*%
%TO.C,C2*%
G36*
G01*
X80485000Y-87180000D02*
X79535000Y-87180000D01*
G75*
G02*
X79285000Y-86930000I0J250000D01*
G01*
X79285000Y-86255000D01*
G75*
G02*
X79535000Y-86005000I250000J0D01*
G01*
X80485000Y-86005000D01*
G75*
G02*
X80735000Y-86255000I0J-250000D01*
G01*
X80735000Y-86930000D01*
G75*
G02*
X80485000Y-87180000I-250000J0D01*
G01*
G37*
G36*
G01*
X80485000Y-89255000D02*
X79535000Y-89255000D01*
G75*
G02*
X79285000Y-89005000I0J250000D01*
G01*
X79285000Y-88330000D01*
G75*
G02*
X79535000Y-88080000I250000J0D01*
G01*
X80485000Y-88080000D01*
G75*
G02*
X80735000Y-88330000I0J-250000D01*
G01*
X80735000Y-89005000D01*
G75*
G02*
X80485000Y-89255000I-250000J0D01*
G01*
G37*
%TD*%
%TO.C,C3*%
G36*
G01*
X80485000Y-122275000D02*
X79535000Y-122275000D01*
G75*
G02*
X79285000Y-122025000I0J250000D01*
G01*
X79285000Y-121350000D01*
G75*
G02*
X79535000Y-121100000I250000J0D01*
G01*
X80485000Y-121100000D01*
G75*
G02*
X80735000Y-121350000I0J-250000D01*
G01*
X80735000Y-122025000D01*
G75*
G02*
X80485000Y-122275000I-250000J0D01*
G01*
G37*
G36*
G01*
X80485000Y-120200000D02*
X79535000Y-120200000D01*
G75*
G02*
X79285000Y-119950000I0J250000D01*
G01*
X79285000Y-119275000D01*
G75*
G02*
X79535000Y-119025000I250000J0D01*
G01*
X80485000Y-119025000D01*
G75*
G02*
X80735000Y-119275000I0J-250000D01*
G01*
X80735000Y-119950000D01*
G75*
G02*
X80485000Y-120200000I-250000J0D01*
G01*
G37*
%TD*%
%TO.C,C4*%
G36*
G01*
X80485000Y-153220000D02*
X79535000Y-153220000D01*
G75*
G02*
X79285000Y-152970000I0J250000D01*
G01*
X79285000Y-152295000D01*
G75*
G02*
X79535000Y-152045000I250000J0D01*
G01*
X80485000Y-152045000D01*
G75*
G02*
X80735000Y-152295000I0J-250000D01*
G01*
X80735000Y-152970000D01*
G75*
G02*
X80485000Y-153220000I-250000J0D01*
G01*
G37*
G36*
G01*
X80485000Y-155295000D02*
X79535000Y-155295000D01*
G75*
G02*
X79285000Y-155045000I0J250000D01*
G01*
X79285000Y-154370000D01*
G75*
G02*
X79535000Y-154120000I250000J0D01*
G01*
X80485000Y-154120000D01*
G75*
G02*
X80735000Y-154370000I0J-250000D01*
G01*
X80735000Y-155045000D01*
G75*
G02*
X80485000Y-155295000I-250000J0D01*
G01*
G37*
%TD*%
%TO.C,C5*%
G36*
G01*
X104615000Y-56235000D02*
X103665000Y-56235000D01*
G75*
G02*
X103415000Y-55985000I0J250000D01*
G01*
X103415000Y-55310000D01*
G75*
G02*
X103665000Y-55060000I250000J0D01*
G01*
X104615000Y-55060000D01*
G75*
G02*
X104865000Y-55310000I0J-250000D01*
G01*
X104865000Y-55985000D01*
G75*
G02*
X104615000Y-56235000I-250000J0D01*
G01*
G37*
G36*
G01*
X104615000Y-54160000D02*
X103665000Y-54160000D01*
G75*
G02*
X103415000Y-53910000I0J250000D01*
G01*
X103415000Y-53235000D01*
G75*
G02*
X103665000Y-52985000I250000J0D01*
G01*
X104615000Y-52985000D01*
G75*
G02*
X104865000Y-53235000I0J-250000D01*
G01*
X104865000Y-53910000D01*
G75*
G02*
X104615000Y-54160000I-250000J0D01*
G01*
G37*
%TD*%
%TO.C,C6*%
G36*
G01*
X104615000Y-87180000D02*
X103665000Y-87180000D01*
G75*
G02*
X103415000Y-86930000I0J250000D01*
G01*
X103415000Y-86255000D01*
G75*
G02*
X103665000Y-86005000I250000J0D01*
G01*
X104615000Y-86005000D01*
G75*
G02*
X104865000Y-86255000I0J-250000D01*
G01*
X104865000Y-86930000D01*
G75*
G02*
X104615000Y-87180000I-250000J0D01*
G01*
G37*
G36*
G01*
X104615000Y-89255000D02*
X103665000Y-89255000D01*
G75*
G02*
X103415000Y-89005000I0J250000D01*
G01*
X103415000Y-88330000D01*
G75*
G02*
X103665000Y-88080000I250000J0D01*
G01*
X104615000Y-88080000D01*
G75*
G02*
X104865000Y-88330000I0J-250000D01*
G01*
X104865000Y-89005000D01*
G75*
G02*
X104615000Y-89255000I-250000J0D01*
G01*
G37*
%TD*%
%TO.C,C7*%
G36*
G01*
X127475000Y-123142500D02*
X126525000Y-123142500D01*
G75*
G02*
X126275000Y-122892500I0J250000D01*
G01*
X126275000Y-122217500D01*
G75*
G02*
X126525000Y-121967500I250000J0D01*
G01*
X127475000Y-121967500D01*
G75*
G02*
X127725000Y-122217500I0J-250000D01*
G01*
X127725000Y-122892500D01*
G75*
G02*
X127475000Y-123142500I-250000J0D01*
G01*
G37*
G36*
G01*
X127475000Y-121067500D02*
X126525000Y-121067500D01*
G75*
G02*
X126275000Y-120817500I0J250000D01*
G01*
X126275000Y-120142500D01*
G75*
G02*
X126525000Y-119892500I250000J0D01*
G01*
X127475000Y-119892500D01*
G75*
G02*
X127725000Y-120142500I0J-250000D01*
G01*
X127725000Y-120817500D01*
G75*
G02*
X127475000Y-121067500I-250000J0D01*
G01*
G37*
%TD*%
%TO.C,C8*%
G36*
G01*
X104615000Y-153220000D02*
X103665000Y-153220000D01*
G75*
G02*
X103415000Y-152970000I0J250000D01*
G01*
X103415000Y-152295000D01*
G75*
G02*
X103665000Y-152045000I250000J0D01*
G01*
X104615000Y-152045000D01*
G75*
G02*
X104865000Y-152295000I0J-250000D01*
G01*
X104865000Y-152970000D01*
G75*
G02*
X104615000Y-153220000I-250000J0D01*
G01*
G37*
G36*
G01*
X104615000Y-155295000D02*
X103665000Y-155295000D01*
G75*
G02*
X103415000Y-155045000I0J250000D01*
G01*
X103415000Y-154370000D01*
G75*
G02*
X103665000Y-154120000I250000J0D01*
G01*
X104615000Y-154120000D01*
G75*
G02*
X104865000Y-154370000I0J-250000D01*
G01*
X104865000Y-155045000D01*
G75*
G02*
X104615000Y-155295000I-250000J0D01*
G01*
G37*
%TD*%
D17*
%TO.C,H1*%
X34290000Y-33020000D03*
%TD*%
%TO.C,H2*%
X105410000Y-104140000D03*
%TD*%
%TO.C,H3*%
X34290000Y-175260000D03*
%TD*%
%TO.C,H4*%
X176530000Y-33020000D03*
%TD*%
%TO.C,H5*%
X176530000Y-175260000D03*
%TD*%
D10*
%TO.C,J12*%
X39370000Y-30480000D03*
D11*
X41910000Y-30480000D03*
X44450000Y-30480000D03*
X46990000Y-30480000D03*
X49530000Y-30480000D03*
X52070000Y-30480000D03*
X54610000Y-30480000D03*
X57150000Y-30480000D03*
%TD*%
D10*
%TO.C,J13*%
X130810000Y-30480000D03*
D11*
X133350000Y-30480000D03*
X135890000Y-30480000D03*
X138430000Y-30480000D03*
X140970000Y-30480000D03*
X143510000Y-30480000D03*
X146050000Y-30480000D03*
X148590000Y-30480000D03*
%TD*%
%TO.C,J14*%
X57150000Y-172720000D03*
X54610000Y-172720000D03*
X52070000Y-172720000D03*
X49530000Y-172720000D03*
X46990000Y-172720000D03*
X44450000Y-172720000D03*
X41910000Y-172720000D03*
D10*
X39370000Y-172720000D03*
%TD*%
D11*
%TO.C,J15*%
X148590000Y-172720000D03*
X146050000Y-172720000D03*
X143510000Y-172720000D03*
X140970000Y-172720000D03*
X138430000Y-172720000D03*
X135890000Y-172720000D03*
X133350000Y-172720000D03*
D10*
X130810000Y-172720000D03*
%TD*%
%TO.C,J16*%
X62230000Y-35560000D03*
D11*
X64770000Y-35560000D03*
X67310000Y-35560000D03*
X69850000Y-35560000D03*
X72390000Y-35560000D03*
X74930000Y-35560000D03*
X77470000Y-35560000D03*
X80010000Y-35560000D03*
%TD*%
D10*
%TO.C,J17*%
X153670000Y-35560000D03*
D11*
X156210000Y-35560000D03*
X158750000Y-35560000D03*
X161290000Y-35560000D03*
X163830000Y-35560000D03*
X166370000Y-35560000D03*
X168910000Y-35560000D03*
X171450000Y-35560000D03*
%TD*%
%TO.C,J18*%
X80010000Y-172720000D03*
X77470000Y-172720000D03*
X74930000Y-172720000D03*
X72390000Y-172720000D03*
X69850000Y-172720000D03*
X67310000Y-172720000D03*
X64770000Y-172720000D03*
D10*
X62230000Y-172720000D03*
%TD*%
D11*
%TO.C,J19*%
X171450000Y-177800000D03*
X168910000Y-177800000D03*
X166370000Y-177800000D03*
X163830000Y-177800000D03*
X161290000Y-177800000D03*
X158750000Y-177800000D03*
X156210000Y-177800000D03*
D10*
X153670000Y-177800000D03*
%TD*%
%TO.C,J20*%
X92710000Y-177800000D03*
%TD*%
%TO.C,J21*%
X179070000Y-88900000D03*
D11*
X179070000Y-91440000D03*
X179070000Y-93980000D03*
X179070000Y-96520000D03*
X179070000Y-99060000D03*
X179070000Y-101600000D03*
X179070000Y-104140000D03*
X179070000Y-106680000D03*
%TD*%
M02*
