M48
INCH,TZ
T1C0.0197
T2C0.0315
T3C0.0394
T4C0.0512
T5C0.1260
%
G90
G05
T1
X15500Y-15500
X15500Y-16500
X16500Y-16000
X16500Y-17000
X17500Y-28500
X17500Y-29500
X18500Y-29000
X18500Y-30000
X19500Y-41500
X19500Y-42500
X20500Y-42000
X20500Y-43000
X21500Y-54500
X21500Y-55500
X22500Y-55000
X22500Y-56000
X24500Y-17500
X24500Y-18500
X25500Y-18000
X25500Y-19000
X26500Y-30500
X26500Y-31500
X27500Y-31000
X27500Y-32000
X28500Y-43500
X28500Y-44500
X29500Y-44000
X29500Y-45000
X30500Y-56500
X30500Y-57500
X31500Y-57000
X31500Y-58000
X32250Y-46750
X33000Y-69500
X34000Y-68500
X35000Y-67500
X36000Y-27500
X36000Y-40500
X36000Y-53500
X36000Y-66500
X36500Y-21375
X36500Y-34375
X36500Y-47125
X36500Y-60375
X37000Y-15500
X37000Y-26500
X37000Y-28500
X37000Y-39500
X37000Y-41500
X37000Y-52500
X37000Y-54500
X37000Y-65500
X38000Y-16500
X38000Y-25500
X38000Y-29500
X38000Y-38500
X38000Y-42500
X38000Y-51500
X38000Y-55500
X38000Y-64500
X38000Y-69500
X39000Y-17500
X39000Y-24500
X39000Y-30500
X39000Y-37500
X39000Y-43500
X39000Y-50500
X39000Y-56500
X39000Y-63500
X39250Y-47500
X40000Y-18500
X40000Y-31500
X40000Y-44500
X40000Y-48250
X40000Y-57500
X42000Y-47500
X43000Y-68500
X44000Y-67500
X45000Y-27000
X45000Y-40000
X45000Y-53000
X45000Y-66000
X45250Y-44500
X45250Y-57750
X45500Y-21375
X45500Y-34375
X45500Y-69250
X46000Y-16000
X46000Y-26000
X46000Y-29000
X46000Y-39000
X46000Y-42000
X46000Y-52000
X46000Y-55000
X46000Y-65000
X47000Y-17000
X47000Y-25000
X47000Y-30000
X47000Y-38000
X47000Y-42750
X47000Y-51000
X47000Y-56000
X47000Y-64000
X48000Y-18000
X48000Y-24000
X48000Y-31000
X48000Y-37000
X48000Y-43500
X48000Y-50000
X48000Y-57000
X48000Y-63000
X49000Y-19000
X49000Y-32000
X49000Y-44250
X49000Y-48250
X49000Y-58000
X51500Y-24500
X51500Y-25500
X52500Y-24000
X52500Y-25000
X53500Y-37500
X53500Y-38500
X54500Y-37000
X54500Y-38000
X55500Y-50500
X55500Y-51500
X56500Y-50000
X56500Y-51000
X57500Y-63500
X57500Y-64500
X58500Y-63000
X58500Y-64000
X60500Y-26500
X60500Y-27500
X61500Y-26000
X61500Y-27000
X62500Y-39500
X62500Y-40500
X63500Y-39000
X63500Y-40000
X64500Y-52500
X64500Y-53500
X65500Y-52000
X65500Y-53000
X66500Y-65500
X66500Y-66500
X67500Y-37000
X67500Y-40750
X67500Y-65000
X67500Y-66000
T2
X42000Y-20000
X42000Y-23000
X43000Y-20000
X43000Y-23000
X44000Y-20000
X44000Y-23000
X45000Y-20000
X45000Y-23000
X46000Y-20000
X46000Y-23000
X47000Y-20000
X47000Y-23000
X48000Y-20000
X48000Y-23000
X49000Y-20000
X49000Y-23000
X42000Y-33000
X42000Y-36000
X43000Y-33000
X43000Y-36000
X44000Y-33000
X44000Y-36000
X45000Y-33000
X45000Y-36000
X46000Y-33000
X46000Y-36000
X47000Y-33000
X47000Y-36000
X48000Y-33000
X48000Y-36000
X49000Y-33000
X49000Y-36000
X42000Y-46000
X42000Y-49000
X43000Y-46000
X43000Y-49000
X44000Y-46000
X44000Y-49000
X45000Y-46000
X45000Y-49000
X46000Y-46000
X46000Y-49000
X47000Y-46000
X47000Y-49000
X48000Y-46000
X48000Y-49000
X49000Y-46000
X49000Y-49000
X42000Y-59000
X42000Y-62000
X43000Y-59000
X43000Y-62000
X44000Y-59000
X44000Y-62000
X45000Y-59000
X45000Y-62000
X46000Y-59000
X46000Y-62000
X47000Y-59000
X47000Y-62000
X48000Y-59000
X48000Y-62000
X49000Y-59000
X49000Y-62000
X33000Y-20000
X33000Y-23000
X34000Y-20000
X34000Y-23000
X35000Y-20000
X35000Y-23000
X36000Y-20000
X36000Y-23000
X37000Y-20000
X37000Y-23000
X38000Y-20000
X38000Y-23000
X39000Y-20000
X39000Y-23000
X40000Y-20000
X40000Y-23000
X33000Y-33000
X33000Y-36000
X34000Y-33000
X34000Y-36000
X35000Y-33000
X35000Y-36000
X36000Y-33000
X36000Y-36000
X37000Y-33000
X37000Y-36000
X38000Y-33000
X38000Y-36000
X39000Y-33000
X39000Y-36000
X40000Y-33000
X40000Y-36000
X33000Y-46000
X33000Y-49000
X34000Y-46000
X34000Y-49000
X35000Y-46000
X35000Y-49000
X36000Y-46000
X36000Y-49000
X37000Y-46000
X37000Y-49000
X38000Y-46000
X38000Y-49000
X39000Y-46000
X39000Y-49000
X40000Y-46000
X40000Y-49000
X33000Y-59000
X33000Y-62000
X34000Y-59000
X34000Y-62000
X35000Y-59000
X35000Y-62000
X36000Y-59000
X36000Y-62000
X37000Y-59000
X37000Y-62000
X38000Y-59000
X38000Y-62000
X39000Y-59000
X39000Y-62000
X40000Y-59000
X40000Y-62000
T3
X51500Y-70000
X52500Y-70000
X53500Y-70000
X54500Y-70000
X55500Y-70000
X56500Y-70000
X57500Y-70000
X58500Y-70000
X24500Y-14000
X25500Y-14000
X26500Y-14000
X27500Y-14000
X28500Y-14000
X29500Y-14000
X30500Y-14000
X31500Y-14000
X15500Y-12000
X16500Y-12000
X17500Y-12000
X18500Y-12000
X19500Y-12000
X20500Y-12000
X21500Y-12000
X22500Y-12000
X69000Y-35000
X69000Y-36000
X69000Y-37000
X69000Y-38000
X69000Y-39000
X69000Y-40000
X69000Y-41000
X69000Y-42000
X60500Y-12000
X61500Y-12000
X62500Y-12000
X63500Y-12000
X64500Y-12000
X65500Y-12000
X66500Y-12000
X67500Y-12000
X24500Y-68000
X25500Y-68000
X26500Y-68000
X27500Y-68000
X28500Y-68000
X29500Y-68000
X30500Y-68000
X31500Y-68000
X15500Y-68000
X16500Y-68000
X17500Y-68000
X18500Y-68000
X19500Y-68000
X20500Y-68000
X21500Y-68000
X22500Y-68000
X60500Y-68000
X61500Y-68000
X62500Y-68000
X63500Y-68000
X64500Y-68000
X65500Y-68000
X66500Y-68000
X67500Y-68000
X36500Y-70000
X15500Y-14000
X16500Y-14000
X17500Y-14000
X18500Y-14000
X19500Y-14000
X20500Y-14000
X21500Y-14000
X22500Y-14000
X15500Y-70000
X16500Y-70000
X17500Y-70000
X18500Y-70000
X19500Y-70000
X20500Y-70000
X21500Y-70000
X22500Y-70000
X70500Y-35000
X70500Y-36000
X70500Y-37000
X70500Y-38000
X70500Y-39000
X70500Y-40000
X70500Y-41000
X70500Y-42000
X51500Y-68000
X52500Y-68000
X53500Y-68000
X54500Y-68000
X55500Y-68000
X56500Y-68000
X57500Y-68000
X58500Y-68000
X24500Y-12000
X25500Y-12000
X26500Y-12000
X27500Y-12000
X28500Y-12000
X29500Y-12000
X30500Y-12000
X31500Y-12000
X60500Y-14000
X61500Y-14000
X62500Y-14000
X63500Y-14000
X64500Y-14000
X65500Y-14000
X66500Y-14000
X67500Y-14000
X51500Y-12000
X52500Y-12000
X53500Y-12000
X54500Y-12000
X55500Y-12000
X56500Y-12000
X57500Y-12000
X58500Y-12000
X24500Y-70000
X25500Y-70000
X26500Y-70000
X27500Y-70000
X28500Y-70000
X29500Y-70000
X30500Y-70000
X31500Y-70000
X60500Y-70000
X61500Y-70000
X62500Y-70000
X63500Y-70000
X64500Y-70000
X65500Y-70000
X66500Y-70000
X67500Y-70000
X51500Y-14000
X52500Y-14000
X53500Y-14000
X54500Y-14000
X55500Y-14000
X56500Y-14000
X57500Y-14000
X58500Y-14000
X42000Y-70000
X43000Y-70000
X44000Y-70000
T4
X69500Y-46781
X69500Y-48750
T5
X69500Y-69000
X69500Y-13000
X13500Y-69000
X41500Y-41000
X13500Y-13000
T0
M30
