G04 #@! TF.GenerationSoftware,KiCad,Pcbnew,(5.1.8)-1*
G04 #@! TF.CreationDate,2023-05-14T15:25:30+03:00*
G04 #@! TF.ProjectId,MOV,4d4f562e-6b69-4636-9164-5f7063625858,rev?*
G04 #@! TF.SameCoordinates,PX3a22d00PY2626d88*
G04 #@! TF.FileFunction,Copper,L1,Top*
G04 #@! TF.FilePolarity,Positive*
%FSLAX46Y46*%
G04 Gerber Fmt 4.6, Leading zero omitted, Abs format (unit mm)*
G04 Created by KiCad (PCBNEW (5.1.8)-1) date 2023-05-14 15:25:30*
%MOMM*%
%LPD*%
G01*
G04 APERTURE LIST*
G04 #@! TA.AperFunction,NonConductor*
%ADD10C,0.300000*%
G04 #@! TD*
G04 #@! TA.AperFunction,NonConductor*
%ADD11C,0.250000*%
G04 #@! TD*
G04 #@! TA.AperFunction,ComponentPad*
%ADD12O,2.200000X2.300000*%
G04 #@! TD*
G04 #@! TA.AperFunction,ComponentPad*
%ADD13R,2.200000X2.300000*%
G04 #@! TD*
G04 #@! TA.AperFunction,Conductor*
%ADD14C,0.500000*%
G04 #@! TD*
G04 #@! TA.AperFunction,Conductor*
%ADD15C,0.400000*%
G04 #@! TD*
G04 APERTURE END LIST*
D10*
X6953571Y-5349761D02*
X6953571Y-3349761D01*
X7620238Y-4778333D01*
X8286904Y-3349761D01*
X8286904Y-5349761D01*
X9620238Y-3349761D02*
X10001190Y-3349761D01*
X10191666Y-3445000D01*
X10382142Y-3635476D01*
X10477380Y-4016428D01*
X10477380Y-4683095D01*
X10382142Y-5064047D01*
X10191666Y-5254523D01*
X10001190Y-5349761D01*
X9620238Y-5349761D01*
X9429761Y-5254523D01*
X9239285Y-5064047D01*
X9144047Y-4683095D01*
X9144047Y-4016428D01*
X9239285Y-3635476D01*
X9429761Y-3445000D01*
X9620238Y-3349761D01*
X11048809Y-3349761D02*
X11715476Y-5349761D01*
X12382142Y-3349761D01*
X36624285Y-5123571D02*
X35767142Y-5123571D01*
X36195714Y-5123571D02*
X36195714Y-3623571D01*
X36052857Y-3837857D01*
X35910000Y-3980714D01*
X35767142Y-4052142D01*
X38052857Y-5123571D02*
X37195714Y-5123571D01*
X37624285Y-5123571D02*
X37624285Y-3623571D01*
X37481428Y-3837857D01*
X37338571Y-3980714D01*
X37195714Y-4052142D01*
X38695714Y-4980714D02*
X38767142Y-5052142D01*
X38695714Y-5123571D01*
X38624285Y-5052142D01*
X38695714Y-4980714D01*
X38695714Y-5123571D01*
X40195714Y-5123571D02*
X39338571Y-5123571D01*
X39767142Y-5123571D02*
X39767142Y-3623571D01*
X39624285Y-3837857D01*
X39481428Y-3980714D01*
X39338571Y-4052142D01*
X40767142Y-3766428D02*
X40838571Y-3695000D01*
X40981428Y-3623571D01*
X41338571Y-3623571D01*
X41481428Y-3695000D01*
X41552857Y-3766428D01*
X41624285Y-3909285D01*
X41624285Y-4052142D01*
X41552857Y-4266428D01*
X40695714Y-5123571D01*
X41624285Y-5123571D01*
X42267142Y-4980714D02*
X42338571Y-5052142D01*
X42267142Y-5123571D01*
X42195714Y-5052142D01*
X42267142Y-4980714D01*
X42267142Y-5123571D01*
X42910000Y-3766428D02*
X42981428Y-3695000D01*
X43124285Y-3623571D01*
X43481428Y-3623571D01*
X43624285Y-3695000D01*
X43695714Y-3766428D01*
X43767142Y-3909285D01*
X43767142Y-4052142D01*
X43695714Y-4266428D01*
X42838571Y-5123571D01*
X43767142Y-5123571D01*
X44695714Y-3623571D02*
X44838571Y-3623571D01*
X44981428Y-3695000D01*
X45052857Y-3766428D01*
X45124285Y-3909285D01*
X45195714Y-4195000D01*
X45195714Y-4552142D01*
X45124285Y-4837857D01*
X45052857Y-4980714D01*
X44981428Y-5052142D01*
X44838571Y-5123571D01*
X44695714Y-5123571D01*
X44552857Y-5052142D01*
X44481428Y-4980714D01*
X44410000Y-4837857D01*
X44338571Y-4552142D01*
X44338571Y-4195000D01*
X44410000Y-3909285D01*
X44481428Y-3766428D01*
X44552857Y-3695000D01*
X44695714Y-3623571D01*
X45767142Y-3766428D02*
X45838571Y-3695000D01*
X45981428Y-3623571D01*
X46338571Y-3623571D01*
X46481428Y-3695000D01*
X46552857Y-3766428D01*
X46624285Y-3909285D01*
X46624285Y-4052142D01*
X46552857Y-4266428D01*
X45695714Y-5123571D01*
X46624285Y-5123571D01*
X47195714Y-3766428D02*
X47267142Y-3695000D01*
X47410000Y-3623571D01*
X47767142Y-3623571D01*
X47910000Y-3695000D01*
X47981428Y-3766428D01*
X48052857Y-3909285D01*
X48052857Y-4052142D01*
X47981428Y-4266428D01*
X47124285Y-5123571D01*
X48052857Y-5123571D01*
X21114285Y-3623571D02*
X22114285Y-3623571D01*
X21471428Y-5123571D01*
X23328571Y-4123571D02*
X23328571Y-5123571D01*
X22971428Y-3552142D02*
X22614285Y-4623571D01*
X23542857Y-4623571D01*
X24114285Y-5123571D02*
X24114285Y-3623571D01*
X24114285Y-4337857D02*
X24971428Y-4337857D01*
X24971428Y-5123571D02*
X24971428Y-3623571D01*
X26542857Y-4980714D02*
X26471428Y-5052142D01*
X26257142Y-5123571D01*
X26114285Y-5123571D01*
X25900000Y-5052142D01*
X25757142Y-4909285D01*
X25685714Y-4766428D01*
X25614285Y-4480714D01*
X25614285Y-4266428D01*
X25685714Y-3980714D01*
X25757142Y-3837857D01*
X25900000Y-3695000D01*
X26114285Y-3623571D01*
X26257142Y-3623571D01*
X26471428Y-3695000D01*
X26542857Y-3766428D01*
X27185714Y-5123571D02*
X27185714Y-3623571D01*
X27757142Y-3623571D01*
X27900000Y-3695000D01*
X27971428Y-3766428D01*
X28042857Y-3909285D01*
X28042857Y-4123571D01*
X27971428Y-4266428D01*
X27900000Y-4337857D01*
X27757142Y-4409285D01*
X27185714Y-4409285D01*
X28685714Y-3623571D02*
X28685714Y-4837857D01*
X28757142Y-4980714D01*
X28828571Y-5052142D01*
X28971428Y-5123571D01*
X29257142Y-5123571D01*
X29400000Y-5052142D01*
X29471428Y-4980714D01*
X29542857Y-4837857D01*
X29542857Y-3623571D01*
D11*
X65354905Y-4826000D02*
G75*
G03*
X65354905Y-4826000I-457905J0D01*
G01*
D12*
X71120000Y-24130000D03*
X73660000Y-24130000D03*
X76200000Y-24130000D03*
D13*
X78740000Y-24130000D03*
D12*
X48260000Y-24130000D03*
X50800000Y-24130000D03*
X53340000Y-24130000D03*
X55880000Y-24130000D03*
X58420000Y-24130000D03*
X60960000Y-24130000D03*
X63500000Y-24130000D03*
D13*
X66040000Y-24130000D03*
D12*
X25400000Y-24130000D03*
X27940000Y-24130000D03*
X30480000Y-24130000D03*
X33020000Y-24130000D03*
X35560000Y-24130000D03*
X38100000Y-24130000D03*
X40640000Y-24130000D03*
D13*
X43180000Y-24130000D03*
D12*
X2540000Y-24130000D03*
X5080000Y-24130000D03*
X7620000Y-24130000D03*
X10160000Y-24130000D03*
X12700000Y-24130000D03*
X15240000Y-24130000D03*
X17780000Y-24130000D03*
D13*
X20320000Y-24130000D03*
G04 #@! TA.AperFunction,SMDPad,CuDef*
G36*
G01*
X62715000Y-5245000D02*
X63015000Y-5245000D01*
G75*
G02*
X63165000Y-5395000I0J-150000D01*
G01*
X63165000Y-6995000D01*
G75*
G02*
X63015000Y-7145000I-150000J0D01*
G01*
X62715000Y-7145000D01*
G75*
G02*
X62565000Y-6995000I0J150000D01*
G01*
X62565000Y-5395000D01*
G75*
G02*
X62715000Y-5245000I150000J0D01*
G01*
G37*
G04 #@! TD.AperFunction*
G04 #@! TA.AperFunction,SMDPad,CuDef*
G36*
G01*
X61445000Y-5245000D02*
X61745000Y-5245000D01*
G75*
G02*
X61895000Y-5395000I0J-150000D01*
G01*
X61895000Y-6995000D01*
G75*
G02*
X61745000Y-7145000I-150000J0D01*
G01*
X61445000Y-7145000D01*
G75*
G02*
X61295000Y-6995000I0J150000D01*
G01*
X61295000Y-5395000D01*
G75*
G02*
X61445000Y-5245000I150000J0D01*
G01*
G37*
G04 #@! TD.AperFunction*
G04 #@! TA.AperFunction,SMDPad,CuDef*
G36*
G01*
X60175000Y-5245000D02*
X60475000Y-5245000D01*
G75*
G02*
X60625000Y-5395000I0J-150000D01*
G01*
X60625000Y-6995000D01*
G75*
G02*
X60475000Y-7145000I-150000J0D01*
G01*
X60175000Y-7145000D01*
G75*
G02*
X60025000Y-6995000I0J150000D01*
G01*
X60025000Y-5395000D01*
G75*
G02*
X60175000Y-5245000I150000J0D01*
G01*
G37*
G04 #@! TD.AperFunction*
G04 #@! TA.AperFunction,SMDPad,CuDef*
G36*
G01*
X58905000Y-5245000D02*
X59205000Y-5245000D01*
G75*
G02*
X59355000Y-5395000I0J-150000D01*
G01*
X59355000Y-6995000D01*
G75*
G02*
X59205000Y-7145000I-150000J0D01*
G01*
X58905000Y-7145000D01*
G75*
G02*
X58755000Y-6995000I0J150000D01*
G01*
X58755000Y-5395000D01*
G75*
G02*
X58905000Y-5245000I150000J0D01*
G01*
G37*
G04 #@! TD.AperFunction*
G04 #@! TA.AperFunction,SMDPad,CuDef*
G36*
G01*
X57635000Y-5245000D02*
X57935000Y-5245000D01*
G75*
G02*
X58085000Y-5395000I0J-150000D01*
G01*
X58085000Y-6995000D01*
G75*
G02*
X57935000Y-7145000I-150000J0D01*
G01*
X57635000Y-7145000D01*
G75*
G02*
X57485000Y-6995000I0J150000D01*
G01*
X57485000Y-5395000D01*
G75*
G02*
X57635000Y-5245000I150000J0D01*
G01*
G37*
G04 #@! TD.AperFunction*
G04 #@! TA.AperFunction,SMDPad,CuDef*
G36*
G01*
X56365000Y-5245000D02*
X56665000Y-5245000D01*
G75*
G02*
X56815000Y-5395000I0J-150000D01*
G01*
X56815000Y-6995000D01*
G75*
G02*
X56665000Y-7145000I-150000J0D01*
G01*
X56365000Y-7145000D01*
G75*
G02*
X56215000Y-6995000I0J150000D01*
G01*
X56215000Y-5395000D01*
G75*
G02*
X56365000Y-5245000I150000J0D01*
G01*
G37*
G04 #@! TD.AperFunction*
G04 #@! TA.AperFunction,SMDPad,CuDef*
G36*
G01*
X55095000Y-5245000D02*
X55395000Y-5245000D01*
G75*
G02*
X55545000Y-5395000I0J-150000D01*
G01*
X55545000Y-6995000D01*
G75*
G02*
X55395000Y-7145000I-150000J0D01*
G01*
X55095000Y-7145000D01*
G75*
G02*
X54945000Y-6995000I0J150000D01*
G01*
X54945000Y-5395000D01*
G75*
G02*
X55095000Y-5245000I150000J0D01*
G01*
G37*
G04 #@! TD.AperFunction*
G04 #@! TA.AperFunction,SMDPad,CuDef*
G36*
G01*
X53825000Y-5245000D02*
X54125000Y-5245000D01*
G75*
G02*
X54275000Y-5395000I0J-150000D01*
G01*
X54275000Y-6995000D01*
G75*
G02*
X54125000Y-7145000I-150000J0D01*
G01*
X53825000Y-7145000D01*
G75*
G02*
X53675000Y-6995000I0J150000D01*
G01*
X53675000Y-5395000D01*
G75*
G02*
X53825000Y-5245000I150000J0D01*
G01*
G37*
G04 #@! TD.AperFunction*
G04 #@! TA.AperFunction,SMDPad,CuDef*
G36*
G01*
X52555000Y-5245000D02*
X52855000Y-5245000D01*
G75*
G02*
X53005000Y-5395000I0J-150000D01*
G01*
X53005000Y-6995000D01*
G75*
G02*
X52855000Y-7145000I-150000J0D01*
G01*
X52555000Y-7145000D01*
G75*
G02*
X52405000Y-6995000I0J150000D01*
G01*
X52405000Y-5395000D01*
G75*
G02*
X52555000Y-5245000I150000J0D01*
G01*
G37*
G04 #@! TD.AperFunction*
G04 #@! TA.AperFunction,SMDPad,CuDef*
G36*
G01*
X51285000Y-5245000D02*
X51585000Y-5245000D01*
G75*
G02*
X51735000Y-5395000I0J-150000D01*
G01*
X51735000Y-6995000D01*
G75*
G02*
X51585000Y-7145000I-150000J0D01*
G01*
X51285000Y-7145000D01*
G75*
G02*
X51135000Y-6995000I0J150000D01*
G01*
X51135000Y-5395000D01*
G75*
G02*
X51285000Y-5245000I150000J0D01*
G01*
G37*
G04 #@! TD.AperFunction*
G04 #@! TA.AperFunction,SMDPad,CuDef*
G36*
G01*
X51285000Y-14445000D02*
X51585000Y-14445000D01*
G75*
G02*
X51735000Y-14595000I0J-150000D01*
G01*
X51735000Y-16195000D01*
G75*
G02*
X51585000Y-16345000I-150000J0D01*
G01*
X51285000Y-16345000D01*
G75*
G02*
X51135000Y-16195000I0J150000D01*
G01*
X51135000Y-14595000D01*
G75*
G02*
X51285000Y-14445000I150000J0D01*
G01*
G37*
G04 #@! TD.AperFunction*
G04 #@! TA.AperFunction,SMDPad,CuDef*
G36*
G01*
X52555000Y-14445000D02*
X52855000Y-14445000D01*
G75*
G02*
X53005000Y-14595000I0J-150000D01*
G01*
X53005000Y-16195000D01*
G75*
G02*
X52855000Y-16345000I-150000J0D01*
G01*
X52555000Y-16345000D01*
G75*
G02*
X52405000Y-16195000I0J150000D01*
G01*
X52405000Y-14595000D01*
G75*
G02*
X52555000Y-14445000I150000J0D01*
G01*
G37*
G04 #@! TD.AperFunction*
G04 #@! TA.AperFunction,SMDPad,CuDef*
G36*
G01*
X53825000Y-14445000D02*
X54125000Y-14445000D01*
G75*
G02*
X54275000Y-14595000I0J-150000D01*
G01*
X54275000Y-16195000D01*
G75*
G02*
X54125000Y-16345000I-150000J0D01*
G01*
X53825000Y-16345000D01*
G75*
G02*
X53675000Y-16195000I0J150000D01*
G01*
X53675000Y-14595000D01*
G75*
G02*
X53825000Y-14445000I150000J0D01*
G01*
G37*
G04 #@! TD.AperFunction*
G04 #@! TA.AperFunction,SMDPad,CuDef*
G36*
G01*
X55095000Y-14445000D02*
X55395000Y-14445000D01*
G75*
G02*
X55545000Y-14595000I0J-150000D01*
G01*
X55545000Y-16195000D01*
G75*
G02*
X55395000Y-16345000I-150000J0D01*
G01*
X55095000Y-16345000D01*
G75*
G02*
X54945000Y-16195000I0J150000D01*
G01*
X54945000Y-14595000D01*
G75*
G02*
X55095000Y-14445000I150000J0D01*
G01*
G37*
G04 #@! TD.AperFunction*
G04 #@! TA.AperFunction,SMDPad,CuDef*
G36*
G01*
X56365000Y-14445000D02*
X56665000Y-14445000D01*
G75*
G02*
X56815000Y-14595000I0J-150000D01*
G01*
X56815000Y-16195000D01*
G75*
G02*
X56665000Y-16345000I-150000J0D01*
G01*
X56365000Y-16345000D01*
G75*
G02*
X56215000Y-16195000I0J150000D01*
G01*
X56215000Y-14595000D01*
G75*
G02*
X56365000Y-14445000I150000J0D01*
G01*
G37*
G04 #@! TD.AperFunction*
G04 #@! TA.AperFunction,SMDPad,CuDef*
G36*
G01*
X57635000Y-14445000D02*
X57935000Y-14445000D01*
G75*
G02*
X58085000Y-14595000I0J-150000D01*
G01*
X58085000Y-16195000D01*
G75*
G02*
X57935000Y-16345000I-150000J0D01*
G01*
X57635000Y-16345000D01*
G75*
G02*
X57485000Y-16195000I0J150000D01*
G01*
X57485000Y-14595000D01*
G75*
G02*
X57635000Y-14445000I150000J0D01*
G01*
G37*
G04 #@! TD.AperFunction*
G04 #@! TA.AperFunction,SMDPad,CuDef*
G36*
G01*
X58905000Y-14445000D02*
X59205000Y-14445000D01*
G75*
G02*
X59355000Y-14595000I0J-150000D01*
G01*
X59355000Y-16195000D01*
G75*
G02*
X59205000Y-16345000I-150000J0D01*
G01*
X58905000Y-16345000D01*
G75*
G02*
X58755000Y-16195000I0J150000D01*
G01*
X58755000Y-14595000D01*
G75*
G02*
X58905000Y-14445000I150000J0D01*
G01*
G37*
G04 #@! TD.AperFunction*
G04 #@! TA.AperFunction,SMDPad,CuDef*
G36*
G01*
X60175000Y-14445000D02*
X60475000Y-14445000D01*
G75*
G02*
X60625000Y-14595000I0J-150000D01*
G01*
X60625000Y-16195000D01*
G75*
G02*
X60475000Y-16345000I-150000J0D01*
G01*
X60175000Y-16345000D01*
G75*
G02*
X60025000Y-16195000I0J150000D01*
G01*
X60025000Y-14595000D01*
G75*
G02*
X60175000Y-14445000I150000J0D01*
G01*
G37*
G04 #@! TD.AperFunction*
G04 #@! TA.AperFunction,SMDPad,CuDef*
G36*
G01*
X61445000Y-14445000D02*
X61745000Y-14445000D01*
G75*
G02*
X61895000Y-14595000I0J-150000D01*
G01*
X61895000Y-16195000D01*
G75*
G02*
X61745000Y-16345000I-150000J0D01*
G01*
X61445000Y-16345000D01*
G75*
G02*
X61295000Y-16195000I0J150000D01*
G01*
X61295000Y-14595000D01*
G75*
G02*
X61445000Y-14445000I150000J0D01*
G01*
G37*
G04 #@! TD.AperFunction*
G04 #@! TA.AperFunction,SMDPad,CuDef*
G36*
G01*
X62715000Y-14445000D02*
X63015000Y-14445000D01*
G75*
G02*
X63165000Y-14595000I0J-150000D01*
G01*
X63165000Y-16195000D01*
G75*
G02*
X63015000Y-16345000I-150000J0D01*
G01*
X62715000Y-16345000D01*
G75*
G02*
X62565000Y-16195000I0J150000D01*
G01*
X62565000Y-14595000D01*
G75*
G02*
X62715000Y-14445000I150000J0D01*
G01*
G37*
G04 #@! TD.AperFunction*
G04 #@! TA.AperFunction,SMDPad,CuDef*
G36*
G01*
X67467500Y-7784500D02*
X66517500Y-7784500D01*
G75*
G02*
X66267500Y-7534500I0J250000D01*
G01*
X66267500Y-6859500D01*
G75*
G02*
X66517500Y-6609500I250000J0D01*
G01*
X67467500Y-6609500D01*
G75*
G02*
X67717500Y-6859500I0J-250000D01*
G01*
X67717500Y-7534500D01*
G75*
G02*
X67467500Y-7784500I-250000J0D01*
G01*
G37*
G04 #@! TD.AperFunction*
G04 #@! TA.AperFunction,SMDPad,CuDef*
G36*
G01*
X67467500Y-5709500D02*
X66517500Y-5709500D01*
G75*
G02*
X66267500Y-5459500I0J250000D01*
G01*
X66267500Y-4784500D01*
G75*
G02*
X66517500Y-4534500I250000J0D01*
G01*
X67467500Y-4534500D01*
G75*
G02*
X67717500Y-4784500I0J-250000D01*
G01*
X67717500Y-5459500D01*
G75*
G02*
X67467500Y-5709500I-250000J0D01*
G01*
G37*
G04 #@! TD.AperFunction*
G04 #@! TA.AperFunction,SMDPad,CuDef*
G36*
G01*
X77285001Y-14935000D02*
X76384999Y-14935000D01*
G75*
G02*
X76135000Y-14685001I0J249999D01*
G01*
X76135000Y-14034999D01*
G75*
G02*
X76384999Y-13785000I249999J0D01*
G01*
X77285001Y-13785000D01*
G75*
G02*
X77535000Y-14034999I0J-249999D01*
G01*
X77535000Y-14685001D01*
G75*
G02*
X77285001Y-14935000I-249999J0D01*
G01*
G37*
G04 #@! TD.AperFunction*
G04 #@! TA.AperFunction,SMDPad,CuDef*
G36*
G01*
X77285001Y-12885000D02*
X76384999Y-12885000D01*
G75*
G02*
X76135000Y-12635001I0J249999D01*
G01*
X76135000Y-11984999D01*
G75*
G02*
X76384999Y-11735000I249999J0D01*
G01*
X77285001Y-11735000D01*
G75*
G02*
X77535000Y-11984999I0J-249999D01*
G01*
X77535000Y-12635001D01*
G75*
G02*
X77285001Y-12885000I-249999J0D01*
G01*
G37*
G04 #@! TD.AperFunction*
G04 #@! TA.AperFunction,SMDPad,CuDef*
G36*
G01*
X76384999Y-16545000D02*
X77285001Y-16545000D01*
G75*
G02*
X77535000Y-16794999I0J-249999D01*
G01*
X77535000Y-17495001D01*
G75*
G02*
X77285001Y-17745000I-249999J0D01*
G01*
X76384999Y-17745000D01*
G75*
G02*
X76135000Y-17495001I0J249999D01*
G01*
X76135000Y-16794999D01*
G75*
G02*
X76384999Y-16545000I249999J0D01*
G01*
G37*
G04 #@! TD.AperFunction*
G04 #@! TA.AperFunction,SMDPad,CuDef*
G36*
G01*
X76384999Y-18545000D02*
X77285001Y-18545000D01*
G75*
G02*
X77535000Y-18794999I0J-249999D01*
G01*
X77535000Y-19495001D01*
G75*
G02*
X77285001Y-19745000I-249999J0D01*
G01*
X76384999Y-19745000D01*
G75*
G02*
X76135000Y-19495001I0J249999D01*
G01*
X76135000Y-18794999D01*
G75*
G02*
X76384999Y-18545000I249999J0D01*
G01*
G37*
G04 #@! TD.AperFunction*
D14*
X5080000Y-19367500D02*
X5080000Y-24130000D01*
X5080000Y-18097500D02*
X5080000Y-19367500D01*
X14414500Y-8763000D02*
X5080000Y-18097500D01*
X52832000Y-8763000D02*
X14414500Y-8763000D01*
X53975000Y-7620000D02*
X52832000Y-8763000D01*
X53975000Y-6195000D02*
X53975000Y-7620000D01*
X7620000Y-19050000D02*
X7620000Y-24130000D01*
X17145000Y-9525000D02*
X7620000Y-19050000D01*
X53975000Y-9525000D02*
X17145000Y-9525000D01*
X55245000Y-8255000D02*
X53975000Y-9525000D01*
X55245000Y-6195000D02*
X55245000Y-8255000D01*
X56515000Y-8572500D02*
X56515000Y-6195000D01*
X19240500Y-10287000D02*
X54800500Y-10287000D01*
X10160000Y-19367500D02*
X19240500Y-10287000D01*
X54800500Y-10287000D02*
X56515000Y-8572500D01*
X10160000Y-24130000D02*
X10160000Y-19367500D01*
X12700000Y-19685000D02*
X12700000Y-24130000D01*
X21209000Y-11176000D02*
X12700000Y-19685000D01*
X55499000Y-11176000D02*
X21209000Y-11176000D01*
X57785000Y-8890000D02*
X55499000Y-11176000D01*
X57785000Y-6195000D02*
X57785000Y-8890000D01*
X15240000Y-19685000D02*
X15240000Y-24130000D01*
X22860000Y-12065000D02*
X15240000Y-19685000D01*
X56197500Y-12065000D02*
X22860000Y-12065000D01*
X59055000Y-9207500D02*
X56197500Y-12065000D01*
X59055000Y-6195000D02*
X59055000Y-9207500D01*
X60325000Y-6195000D02*
X60325000Y-5636700D01*
X17780000Y-19685000D02*
X17780000Y-24130000D01*
X24512510Y-12952490D02*
X17780000Y-19685000D01*
X56897510Y-12952490D02*
X24512510Y-12952490D01*
X60325000Y-9525000D02*
X56897510Y-12952490D01*
X60325000Y-6195000D02*
X60325000Y-9525000D01*
X53975000Y-15395000D02*
X53975000Y-17797400D01*
X53975000Y-17797400D02*
X50800000Y-20972400D01*
X50800000Y-20972400D02*
X50800000Y-24130000D01*
X55245000Y-15395000D02*
X55245000Y-19067400D01*
X55245000Y-19067400D02*
X53340000Y-20972400D01*
X53340000Y-20972400D02*
X53340000Y-24130000D01*
X55880000Y-24130000D02*
X55880000Y-22530000D01*
X56515000Y-15395000D02*
X56515000Y-21895000D01*
X56515000Y-21895000D02*
X55880000Y-22530000D01*
X58420000Y-24130000D02*
X58420000Y-22530000D01*
X57785000Y-15395000D02*
X57785000Y-21895000D01*
X57785000Y-21895000D02*
X58420000Y-22530000D01*
X60960000Y-24130000D02*
X60960000Y-22530000D01*
X59055000Y-15395000D02*
X59055000Y-20625000D01*
X59055000Y-20625000D02*
X60960000Y-22530000D01*
X63500000Y-24130000D02*
X63500000Y-22530000D01*
X60325000Y-15395000D02*
X60325000Y-19355000D01*
X60325000Y-19355000D02*
X63500000Y-22530000D01*
X73660000Y-19685000D02*
X73660000Y-24130000D01*
X73660000Y-18097500D02*
X73660000Y-19685000D01*
X70957500Y-15395000D02*
X73660000Y-18097500D01*
X70640000Y-15395000D02*
X70957500Y-15395000D01*
X62865000Y-15395000D02*
X70640000Y-15395000D01*
X70730000Y-15305000D02*
X70640000Y-15395000D01*
X70730000Y-12700000D02*
X70730000Y-15305000D01*
X66992500Y-7197000D02*
X66992500Y-11747500D01*
X66992500Y-11747500D02*
X70485000Y-15240000D01*
X71120000Y-12310000D02*
X70730000Y-12700000D01*
X76835000Y-12310000D02*
X71120000Y-12310000D01*
X76200000Y-25717500D02*
X76200000Y-24130000D01*
X76517500Y-26035000D02*
X76200000Y-25717500D01*
X80645000Y-26035000D02*
X76517500Y-26035000D01*
X80645000Y-22225000D02*
X80645000Y-26035000D01*
X80327500Y-21907500D02*
X80645000Y-22225000D01*
X80327500Y-7937500D02*
X80327500Y-21907500D01*
X75565000Y-3175000D02*
X80327500Y-7937500D01*
X51435000Y-3810000D02*
X52070000Y-3175000D01*
X51435000Y-6195000D02*
X51435000Y-3810000D01*
X66992500Y-5122000D02*
X66992500Y-3175000D01*
X66992500Y-3175000D02*
X75565000Y-3175000D01*
X52070000Y-3175000D02*
X66992500Y-3175000D01*
X2540000Y-17462500D02*
X2540000Y-24130000D01*
X12001500Y-8001000D02*
X2540000Y-17462500D01*
X52006500Y-8001000D02*
X12001500Y-8001000D01*
X52705000Y-7302500D02*
X52006500Y-8001000D01*
X52705000Y-6195000D02*
X52705000Y-7302500D01*
X20320000Y-20002500D02*
X20320000Y-24130000D01*
X26670000Y-13652500D02*
X20320000Y-20002500D01*
X58102500Y-13652500D02*
X26670000Y-13652500D01*
X61595000Y-10160000D02*
X58102500Y-13652500D01*
X61595000Y-6195000D02*
X61595000Y-10160000D01*
X52705000Y-15395000D02*
X52705000Y-17223600D01*
X52705000Y-17223600D02*
X48260000Y-21668600D01*
X48260000Y-21668600D02*
X48260000Y-24130000D01*
X66040000Y-24130000D02*
X66040000Y-22530000D01*
X61595000Y-15395000D02*
X61595000Y-18085000D01*
X61595000Y-18085000D02*
X66040000Y-22530000D01*
X71120000Y-25400000D02*
X71120000Y-24130000D01*
X71120000Y-25717500D02*
X71120000Y-25400000D01*
X70802500Y-26035000D02*
X71120000Y-25717500D01*
X51435000Y-15395000D02*
X51435000Y-16827500D01*
X51435000Y-16827500D02*
X46355000Y-21907500D01*
X46355000Y-25400000D02*
X46990000Y-26035000D01*
X46990000Y-26035000D02*
X70802500Y-26035000D01*
X46355000Y-21907500D02*
X46355000Y-25400000D01*
X78740000Y-22530000D02*
X78740000Y-24130000D01*
X75092500Y-6195000D02*
X78740000Y-9842500D01*
X77200000Y-19050000D02*
X78740000Y-19050000D01*
X78740000Y-12700000D02*
X78740000Y-22530000D01*
X78740000Y-9842500D02*
X78740000Y-12700000D01*
X75092500Y-6195000D02*
X68425000Y-6195000D01*
D15*
X68425000Y-6195000D02*
X65250000Y-6195000D01*
D14*
X65250000Y-6195000D02*
X62865000Y-6195000D01*
X76835000Y-14360000D02*
X76835000Y-17145000D01*
M02*
