%TF.GenerationSoftware,KiCad,Pcbnew,(5.1.8)-1*%
%TF.CreationDate,2024-01-21T21:17:12+03:00*%
%TF.ProjectId,MUX8x1-v5,4d555838-7831-42d7-9635-2e6b69636164,rev?*%
%TF.SameCoordinates,Original*%
%TF.FileFunction,Legend,Top*%
%TF.FilePolarity,Positive*%
%FSLAX46Y46*%
G04 Gerber Fmt 4.6, Leading zero omitted, Abs format (unit mm)*
G04 Created by KiCad (PCBNEW (5.1.8)-1) date 2024-01-21 21:17:12*
%MOMM*%
%LPD*%
G01*
G04 APERTURE LIST*
%ADD10C,0.500000*%
%ADD11C,0.300000*%
%ADD12C,0.150000*%
%ADD13C,0.250000*%
%ADD14C,0.120000*%
G04 APERTURE END LIST*
D10*
X31290714Y-63587142D02*
X31290714Y-60587142D01*
X32290714Y-62730000D01*
X33290714Y-60587142D01*
X33290714Y-63587142D01*
X34719285Y-60587142D02*
X34719285Y-63015714D01*
X34862142Y-63301428D01*
X35005000Y-63444285D01*
X35290714Y-63587142D01*
X35862142Y-63587142D01*
X36147857Y-63444285D01*
X36290714Y-63301428D01*
X36433571Y-63015714D01*
X36433571Y-60587142D01*
X37576428Y-60587142D02*
X39576428Y-63587142D01*
X39576428Y-60587142D02*
X37576428Y-63587142D01*
X43433571Y-61872857D02*
X43147857Y-61730000D01*
X43005000Y-61587142D01*
X42862142Y-61301428D01*
X42862142Y-61158571D01*
X43005000Y-60872857D01*
X43147857Y-60730000D01*
X43433571Y-60587142D01*
X44005000Y-60587142D01*
X44290714Y-60730000D01*
X44433571Y-60872857D01*
X44576428Y-61158571D01*
X44576428Y-61301428D01*
X44433571Y-61587142D01*
X44290714Y-61730000D01*
X44005000Y-61872857D01*
X43433571Y-61872857D01*
X43147857Y-62015714D01*
X43005000Y-62158571D01*
X42862142Y-62444285D01*
X42862142Y-63015714D01*
X43005000Y-63301428D01*
X43147857Y-63444285D01*
X43433571Y-63587142D01*
X44005000Y-63587142D01*
X44290714Y-63444285D01*
X44433571Y-63301428D01*
X44576428Y-63015714D01*
X44576428Y-62444285D01*
X44433571Y-62158571D01*
X44290714Y-62015714D01*
X44005000Y-61872857D01*
X45862142Y-63301428D02*
X46005000Y-63444285D01*
X45862142Y-63587142D01*
X45719285Y-63444285D01*
X45862142Y-63301428D01*
X45862142Y-63587142D01*
X45862142Y-61730000D02*
X46005000Y-61872857D01*
X45862142Y-62015714D01*
X45719285Y-61872857D01*
X45862142Y-61730000D01*
X45862142Y-62015714D01*
X48862142Y-63587142D02*
X47147857Y-63587142D01*
X48005000Y-63587142D02*
X48005000Y-60587142D01*
X47719285Y-61015714D01*
X47433571Y-61301428D01*
X47147857Y-61444285D01*
D11*
X35084285Y-55693571D02*
X36084285Y-55693571D01*
X35441428Y-57193571D01*
X37298571Y-56193571D02*
X37298571Y-57193571D01*
X36941428Y-55622142D02*
X36584285Y-56693571D01*
X37512857Y-56693571D01*
X38084285Y-57193571D02*
X38084285Y-55693571D01*
X38084285Y-56407857D02*
X38941428Y-56407857D01*
X38941428Y-57193571D02*
X38941428Y-55693571D01*
X40512857Y-57050714D02*
X40441428Y-57122142D01*
X40227142Y-57193571D01*
X40084285Y-57193571D01*
X39870000Y-57122142D01*
X39727142Y-56979285D01*
X39655714Y-56836428D01*
X39584285Y-56550714D01*
X39584285Y-56336428D01*
X39655714Y-56050714D01*
X39727142Y-55907857D01*
X39870000Y-55765000D01*
X40084285Y-55693571D01*
X40227142Y-55693571D01*
X40441428Y-55765000D01*
X40512857Y-55836428D01*
X41155714Y-57193571D02*
X41155714Y-55693571D01*
X41727142Y-55693571D01*
X41870000Y-55765000D01*
X41941428Y-55836428D01*
X42012857Y-55979285D01*
X42012857Y-56193571D01*
X41941428Y-56336428D01*
X41870000Y-56407857D01*
X41727142Y-56479285D01*
X41155714Y-56479285D01*
X42655714Y-55693571D02*
X42655714Y-56907857D01*
X42727142Y-57050714D01*
X42798571Y-57122142D01*
X42941428Y-57193571D01*
X43227142Y-57193571D01*
X43370000Y-57122142D01*
X43441428Y-57050714D01*
X43512857Y-56907857D01*
X43512857Y-55693571D01*
D12*
X174601309Y-90525000D02*
X175648928Y-90525000D01*
X175029880Y-90892380D02*
X175220357Y-90892380D01*
X175315595Y-90940000D01*
X175410833Y-91035238D01*
X175458452Y-91225714D01*
X175458452Y-91559047D01*
X175410833Y-91749523D01*
X175315595Y-91844761D01*
X175220357Y-91892380D01*
X175029880Y-91892380D01*
X174934642Y-91844761D01*
X174839404Y-91749523D01*
X174791785Y-91559047D01*
X174791785Y-91225714D01*
X174839404Y-91035238D01*
X174934642Y-90940000D01*
X175029880Y-90892380D01*
X175648928Y-90525000D02*
X176553690Y-90525000D01*
X175887023Y-91368571D02*
X176220357Y-91368571D01*
X176363214Y-91892380D02*
X175887023Y-91892380D01*
X175887023Y-90892380D01*
X176363214Y-90892380D01*
X164131785Y-88336428D02*
X164893690Y-88336428D01*
X164512738Y-88717380D02*
X164512738Y-87955476D01*
X165846071Y-87717380D02*
X165369880Y-87717380D01*
X165322261Y-88193571D01*
X165369880Y-88145952D01*
X165465119Y-88098333D01*
X165703214Y-88098333D01*
X165798452Y-88145952D01*
X165846071Y-88193571D01*
X165893690Y-88288809D01*
X165893690Y-88526904D01*
X165846071Y-88622142D01*
X165798452Y-88669761D01*
X165703214Y-88717380D01*
X165465119Y-88717380D01*
X165369880Y-88669761D01*
X165322261Y-88622142D01*
X166179404Y-87717380D02*
X166512738Y-88717380D01*
X166846071Y-87717380D01*
X164457142Y-80780000D02*
X164361904Y-80732380D01*
X164219047Y-80732380D01*
X164076190Y-80780000D01*
X163980952Y-80875238D01*
X163933333Y-80970476D01*
X163885714Y-81160952D01*
X163885714Y-81303809D01*
X163933333Y-81494285D01*
X163980952Y-81589523D01*
X164076190Y-81684761D01*
X164219047Y-81732380D01*
X164314285Y-81732380D01*
X164457142Y-81684761D01*
X164504761Y-81637142D01*
X164504761Y-81303809D01*
X164314285Y-81303809D01*
X164933333Y-81065714D02*
X164933333Y-81732380D01*
X164933333Y-81160952D02*
X164980952Y-81113333D01*
X165076190Y-81065714D01*
X165219047Y-81065714D01*
X165314285Y-81113333D01*
X165361904Y-81208571D01*
X165361904Y-81732380D01*
X166266666Y-81732380D02*
X166266666Y-80732380D01*
X166266666Y-81684761D02*
X166171428Y-81732380D01*
X165980952Y-81732380D01*
X165885714Y-81684761D01*
X165838095Y-81637142D01*
X165790476Y-81541904D01*
X165790476Y-81256190D01*
X165838095Y-81160952D01*
X165885714Y-81113333D01*
X165980952Y-81065714D01*
X166171428Y-81065714D01*
X166266666Y-81113333D01*
X163917261Y-72516904D02*
X163964880Y-72374047D01*
X163964880Y-72135952D01*
X163917261Y-72040714D01*
X163869642Y-71993095D01*
X163774404Y-71945476D01*
X163679166Y-71945476D01*
X163583928Y-71993095D01*
X163536309Y-72040714D01*
X163488690Y-72135952D01*
X163441071Y-72326428D01*
X163393452Y-72421666D01*
X163345833Y-72469285D01*
X163250595Y-72516904D01*
X163155357Y-72516904D01*
X163060119Y-72469285D01*
X163012500Y-72421666D01*
X162964880Y-72326428D01*
X162964880Y-72088333D01*
X163012500Y-71945476D01*
X163060119Y-71564523D02*
X163012500Y-71516904D01*
X162964880Y-71421666D01*
X162964880Y-71183571D01*
X163012500Y-71088333D01*
X163060119Y-71040714D01*
X163155357Y-70993095D01*
X163250595Y-70993095D01*
X163393452Y-71040714D01*
X163964880Y-71612142D01*
X163964880Y-70993095D01*
X163917261Y-75056904D02*
X163964880Y-74914047D01*
X163964880Y-74675952D01*
X163917261Y-74580714D01*
X163869642Y-74533095D01*
X163774404Y-74485476D01*
X163679166Y-74485476D01*
X163583928Y-74533095D01*
X163536309Y-74580714D01*
X163488690Y-74675952D01*
X163441071Y-74866428D01*
X163393452Y-74961666D01*
X163345833Y-75009285D01*
X163250595Y-75056904D01*
X163155357Y-75056904D01*
X163060119Y-75009285D01*
X163012500Y-74961666D01*
X162964880Y-74866428D01*
X162964880Y-74628333D01*
X163012500Y-74485476D01*
X163964880Y-73533095D02*
X163964880Y-74104523D01*
X163964880Y-73818809D02*
X162964880Y-73818809D01*
X163107738Y-73914047D01*
X163202976Y-74009285D01*
X163250595Y-74104523D01*
X163917261Y-77596904D02*
X163964880Y-77454047D01*
X163964880Y-77215952D01*
X163917261Y-77120714D01*
X163869642Y-77073095D01*
X163774404Y-77025476D01*
X163679166Y-77025476D01*
X163583928Y-77073095D01*
X163536309Y-77120714D01*
X163488690Y-77215952D01*
X163441071Y-77406428D01*
X163393452Y-77501666D01*
X163345833Y-77549285D01*
X163250595Y-77596904D01*
X163155357Y-77596904D01*
X163060119Y-77549285D01*
X163012500Y-77501666D01*
X162964880Y-77406428D01*
X162964880Y-77168333D01*
X163012500Y-77025476D01*
X162964880Y-76406428D02*
X162964880Y-76311190D01*
X163012500Y-76215952D01*
X163060119Y-76168333D01*
X163155357Y-76120714D01*
X163345833Y-76073095D01*
X163583928Y-76073095D01*
X163774404Y-76120714D01*
X163869642Y-76168333D01*
X163917261Y-76215952D01*
X163964880Y-76311190D01*
X163964880Y-76406428D01*
X163917261Y-76501666D01*
X163869642Y-76549285D01*
X163774404Y-76596904D01*
X163583928Y-76644523D01*
X163345833Y-76644523D01*
X163155357Y-76596904D01*
X163060119Y-76549285D01*
X163012500Y-76501666D01*
X162964880Y-76406428D01*
X177252261Y-59816904D02*
X177299880Y-59674047D01*
X177299880Y-59435952D01*
X177252261Y-59340714D01*
X177204642Y-59293095D01*
X177109404Y-59245476D01*
X177014166Y-59245476D01*
X176918928Y-59293095D01*
X176871309Y-59340714D01*
X176823690Y-59435952D01*
X176776071Y-59626428D01*
X176728452Y-59721666D01*
X176680833Y-59769285D01*
X176585595Y-59816904D01*
X176490357Y-59816904D01*
X176395119Y-59769285D01*
X176347500Y-59721666D01*
X176299880Y-59626428D01*
X176299880Y-59388333D01*
X176347500Y-59245476D01*
X176395119Y-58864523D02*
X176347500Y-58816904D01*
X176299880Y-58721666D01*
X176299880Y-58483571D01*
X176347500Y-58388333D01*
X176395119Y-58340714D01*
X176490357Y-58293095D01*
X176585595Y-58293095D01*
X176728452Y-58340714D01*
X177299880Y-58912142D01*
X177299880Y-58293095D01*
X177252261Y-57276904D02*
X177299880Y-57134047D01*
X177299880Y-56895952D01*
X177252261Y-56800714D01*
X177204642Y-56753095D01*
X177109404Y-56705476D01*
X177014166Y-56705476D01*
X176918928Y-56753095D01*
X176871309Y-56800714D01*
X176823690Y-56895952D01*
X176776071Y-57086428D01*
X176728452Y-57181666D01*
X176680833Y-57229285D01*
X176585595Y-57276904D01*
X176490357Y-57276904D01*
X176395119Y-57229285D01*
X176347500Y-57181666D01*
X176299880Y-57086428D01*
X176299880Y-56848333D01*
X176347500Y-56705476D01*
X177299880Y-55753095D02*
X177299880Y-56324523D01*
X177299880Y-56038809D02*
X176299880Y-56038809D01*
X176442738Y-56134047D01*
X176537976Y-56229285D01*
X176585595Y-56324523D01*
X177252261Y-54736904D02*
X177299880Y-54594047D01*
X177299880Y-54355952D01*
X177252261Y-54260714D01*
X177204642Y-54213095D01*
X177109404Y-54165476D01*
X177014166Y-54165476D01*
X176918928Y-54213095D01*
X176871309Y-54260714D01*
X176823690Y-54355952D01*
X176776071Y-54546428D01*
X176728452Y-54641666D01*
X176680833Y-54689285D01*
X176585595Y-54736904D01*
X176490357Y-54736904D01*
X176395119Y-54689285D01*
X176347500Y-54641666D01*
X176299880Y-54546428D01*
X176299880Y-54308333D01*
X176347500Y-54165476D01*
X176299880Y-53546428D02*
X176299880Y-53451190D01*
X176347500Y-53355952D01*
X176395119Y-53308333D01*
X176490357Y-53260714D01*
X176680833Y-53213095D01*
X176918928Y-53213095D01*
X177109404Y-53260714D01*
X177204642Y-53308333D01*
X177252261Y-53355952D01*
X177299880Y-53451190D01*
X177299880Y-53546428D01*
X177252261Y-53641666D01*
X177204642Y-53689285D01*
X177109404Y-53736904D01*
X176918928Y-53784523D01*
X176680833Y-53784523D01*
X176490357Y-53736904D01*
X176395119Y-53689285D01*
X176347500Y-53641666D01*
X176299880Y-53546428D01*
X174085357Y-46710000D02*
X174990119Y-46710000D01*
X174323452Y-47553571D02*
X174656785Y-47553571D01*
X174799642Y-48077380D02*
X174323452Y-48077380D01*
X174323452Y-47077380D01*
X174799642Y-47077380D01*
X174990119Y-46710000D02*
X175799642Y-46710000D01*
X175704404Y-48077380D02*
X175228214Y-48077380D01*
X175228214Y-47077380D01*
X173966309Y-67665000D02*
X174871071Y-67665000D01*
X174204404Y-68508571D02*
X174537738Y-68508571D01*
X174680595Y-69032380D02*
X174204404Y-69032380D01*
X174204404Y-68032380D01*
X174680595Y-68032380D01*
X174871071Y-67665000D02*
X175918690Y-67665000D01*
X175109166Y-69032380D02*
X175109166Y-68032380D01*
X175109166Y-68508571D02*
X175680595Y-68508571D01*
X175680595Y-69032380D02*
X175680595Y-68032380D01*
X168362380Y-105775000D02*
X168362380Y-105584523D01*
X168410000Y-105489285D01*
X168505238Y-105394047D01*
X168695714Y-105346428D01*
X169029047Y-105346428D01*
X169219523Y-105394047D01*
X169314761Y-105489285D01*
X169362380Y-105584523D01*
X169362380Y-105775000D01*
X169314761Y-105870238D01*
X169219523Y-105965476D01*
X169029047Y-106013095D01*
X168695714Y-106013095D01*
X168505238Y-105965476D01*
X168410000Y-105870238D01*
X168362380Y-105775000D01*
X168362380Y-104917857D02*
X169171904Y-104917857D01*
X169267142Y-104870238D01*
X169314761Y-104822619D01*
X169362380Y-104727380D01*
X169362380Y-104536904D01*
X169314761Y-104441666D01*
X169267142Y-104394047D01*
X169171904Y-104346428D01*
X168362380Y-104346428D01*
X168362380Y-104013095D02*
X168362380Y-103441666D01*
X169362380Y-103727380D02*
X168362380Y-103727380D01*
X168576666Y-95972380D02*
X169243333Y-95972380D01*
X168814761Y-96972380D01*
X168862380Y-113752380D02*
X168957619Y-113752380D01*
X169052857Y-113800000D01*
X169100476Y-113847619D01*
X169148095Y-113942857D01*
X169195714Y-114133333D01*
X169195714Y-114371428D01*
X169148095Y-114561904D01*
X169100476Y-114657142D01*
X169052857Y-114704761D01*
X168957619Y-114752380D01*
X168862380Y-114752380D01*
X168767142Y-114704761D01*
X168719523Y-114657142D01*
X168671904Y-114561904D01*
X168624285Y-114371428D01*
X168624285Y-114133333D01*
X168671904Y-113942857D01*
X168719523Y-113847619D01*
X168767142Y-113800000D01*
X168862380Y-113752380D01*
X172712142Y-118880000D02*
X172616904Y-118832380D01*
X172474047Y-118832380D01*
X172331190Y-118880000D01*
X172235952Y-118975238D01*
X172188333Y-119070476D01*
X172140714Y-119260952D01*
X172140714Y-119403809D01*
X172188333Y-119594285D01*
X172235952Y-119689523D01*
X172331190Y-119784761D01*
X172474047Y-119832380D01*
X172569285Y-119832380D01*
X172712142Y-119784761D01*
X172759761Y-119737142D01*
X172759761Y-119403809D01*
X172569285Y-119403809D01*
X173188333Y-119165714D02*
X173188333Y-119832380D01*
X173188333Y-119260952D02*
X173235952Y-119213333D01*
X173331190Y-119165714D01*
X173474047Y-119165714D01*
X173569285Y-119213333D01*
X173616904Y-119308571D01*
X173616904Y-119832380D01*
X174521666Y-119832380D02*
X174521666Y-118832380D01*
X174521666Y-119784761D02*
X174426428Y-119832380D01*
X174235952Y-119832380D01*
X174140714Y-119784761D01*
X174093095Y-119737142D01*
X174045476Y-119641904D01*
X174045476Y-119356190D01*
X174093095Y-119260952D01*
X174140714Y-119213333D01*
X174235952Y-119165714D01*
X174426428Y-119165714D01*
X174521666Y-119213333D01*
X60912380Y-35012380D02*
X61007619Y-35012380D01*
X61102857Y-35060000D01*
X61150476Y-35107619D01*
X61198095Y-35202857D01*
X61245714Y-35393333D01*
X61245714Y-35631428D01*
X61198095Y-35821904D01*
X61150476Y-35917142D01*
X61102857Y-35964761D01*
X61007619Y-36012380D01*
X60912380Y-36012380D01*
X60817142Y-35964761D01*
X60769523Y-35917142D01*
X60721904Y-35821904D01*
X60674285Y-35631428D01*
X60674285Y-35393333D01*
X60721904Y-35202857D01*
X60769523Y-35107619D01*
X60817142Y-35060000D01*
X60912380Y-35012380D01*
X42846666Y-35012380D02*
X43513333Y-35012380D01*
X43084761Y-36012380D01*
X88852380Y-35012380D02*
X88947619Y-35012380D01*
X89042857Y-35060000D01*
X89090476Y-35107619D01*
X89138095Y-35202857D01*
X89185714Y-35393333D01*
X89185714Y-35631428D01*
X89138095Y-35821904D01*
X89090476Y-35917142D01*
X89042857Y-35964761D01*
X88947619Y-36012380D01*
X88852380Y-36012380D01*
X88757142Y-35964761D01*
X88709523Y-35917142D01*
X88661904Y-35821904D01*
X88614285Y-35631428D01*
X88614285Y-35393333D01*
X88661904Y-35202857D01*
X88709523Y-35107619D01*
X88757142Y-35060000D01*
X88852380Y-35012380D01*
X70786666Y-35012380D02*
X71453333Y-35012380D01*
X71024761Y-36012380D01*
X132032380Y-35012380D02*
X132127619Y-35012380D01*
X132222857Y-35060000D01*
X132270476Y-35107619D01*
X132318095Y-35202857D01*
X132365714Y-35393333D01*
X132365714Y-35631428D01*
X132318095Y-35821904D01*
X132270476Y-35917142D01*
X132222857Y-35964761D01*
X132127619Y-36012380D01*
X132032380Y-36012380D01*
X131937142Y-35964761D01*
X131889523Y-35917142D01*
X131841904Y-35821904D01*
X131794285Y-35631428D01*
X131794285Y-35393333D01*
X131841904Y-35202857D01*
X131889523Y-35107619D01*
X131937142Y-35060000D01*
X132032380Y-35012380D01*
X113966666Y-35012380D02*
X114633333Y-35012380D01*
X114204761Y-36012380D01*
X159972380Y-35012380D02*
X160067619Y-35012380D01*
X160162857Y-35060000D01*
X160210476Y-35107619D01*
X160258095Y-35202857D01*
X160305714Y-35393333D01*
X160305714Y-35631428D01*
X160258095Y-35821904D01*
X160210476Y-35917142D01*
X160162857Y-35964761D01*
X160067619Y-36012380D01*
X159972380Y-36012380D01*
X159877142Y-35964761D01*
X159829523Y-35917142D01*
X159781904Y-35821904D01*
X159734285Y-35631428D01*
X159734285Y-35393333D01*
X159781904Y-35202857D01*
X159829523Y-35107619D01*
X159877142Y-35060000D01*
X159972380Y-35012380D01*
X141906666Y-35012380D02*
X142573333Y-35012380D01*
X142144761Y-36012380D01*
X159972380Y-123912380D02*
X160067619Y-123912380D01*
X160162857Y-123960000D01*
X160210476Y-124007619D01*
X160258095Y-124102857D01*
X160305714Y-124293333D01*
X160305714Y-124531428D01*
X160258095Y-124721904D01*
X160210476Y-124817142D01*
X160162857Y-124864761D01*
X160067619Y-124912380D01*
X159972380Y-124912380D01*
X159877142Y-124864761D01*
X159829523Y-124817142D01*
X159781904Y-124721904D01*
X159734285Y-124531428D01*
X159734285Y-124293333D01*
X159781904Y-124102857D01*
X159829523Y-124007619D01*
X159877142Y-123960000D01*
X159972380Y-123912380D01*
X141906666Y-123912380D02*
X142573333Y-123912380D01*
X142144761Y-124912380D01*
X132032380Y-123912380D02*
X132127619Y-123912380D01*
X132222857Y-123960000D01*
X132270476Y-124007619D01*
X132318095Y-124102857D01*
X132365714Y-124293333D01*
X132365714Y-124531428D01*
X132318095Y-124721904D01*
X132270476Y-124817142D01*
X132222857Y-124864761D01*
X132127619Y-124912380D01*
X132032380Y-124912380D01*
X131937142Y-124864761D01*
X131889523Y-124817142D01*
X131841904Y-124721904D01*
X131794285Y-124531428D01*
X131794285Y-124293333D01*
X131841904Y-124102857D01*
X131889523Y-124007619D01*
X131937142Y-123960000D01*
X132032380Y-123912380D01*
X113966666Y-123912380D02*
X114633333Y-123912380D01*
X114204761Y-124912380D01*
X88852380Y-123912380D02*
X88947619Y-123912380D01*
X89042857Y-123960000D01*
X89090476Y-124007619D01*
X89138095Y-124102857D01*
X89185714Y-124293333D01*
X89185714Y-124531428D01*
X89138095Y-124721904D01*
X89090476Y-124817142D01*
X89042857Y-124864761D01*
X88947619Y-124912380D01*
X88852380Y-124912380D01*
X88757142Y-124864761D01*
X88709523Y-124817142D01*
X88661904Y-124721904D01*
X88614285Y-124531428D01*
X88614285Y-124293333D01*
X88661904Y-124102857D01*
X88709523Y-124007619D01*
X88757142Y-123960000D01*
X88852380Y-123912380D01*
X70786666Y-123912380D02*
X71453333Y-123912380D01*
X71024761Y-124912380D01*
X42846666Y-123912380D02*
X43513333Y-123912380D01*
X43084761Y-124912380D01*
X60912380Y-123912380D02*
X61007619Y-123912380D01*
X61102857Y-123960000D01*
X61150476Y-124007619D01*
X61198095Y-124102857D01*
X61245714Y-124293333D01*
X61245714Y-124531428D01*
X61198095Y-124721904D01*
X61150476Y-124817142D01*
X61102857Y-124864761D01*
X61007619Y-124912380D01*
X60912380Y-124912380D01*
X60817142Y-124864761D01*
X60769523Y-124817142D01*
X60721904Y-124721904D01*
X60674285Y-124531428D01*
X60674285Y-124293333D01*
X60721904Y-124102857D01*
X60769523Y-124007619D01*
X60817142Y-123960000D01*
X60912380Y-123912380D01*
D13*
X151749047Y-123904285D02*
X151653809Y-123999523D01*
X151368095Y-124094761D01*
X151177619Y-124094761D01*
X150891904Y-123999523D01*
X150701428Y-123809047D01*
X150606190Y-123618571D01*
X150510952Y-123237619D01*
X150510952Y-122951904D01*
X150606190Y-122570952D01*
X150701428Y-122380476D01*
X150891904Y-122190000D01*
X151177619Y-122094761D01*
X151368095Y-122094761D01*
X151653809Y-122190000D01*
X151749047Y-122285238D01*
X122713809Y-123523333D02*
X123666190Y-123523333D01*
X122523333Y-124094761D02*
X123190000Y-122094761D01*
X123856666Y-124094761D01*
X80152857Y-123047142D02*
X80438571Y-123142380D01*
X80533809Y-123237619D01*
X80629047Y-123428095D01*
X80629047Y-123713809D01*
X80533809Y-123904285D01*
X80438571Y-123999523D01*
X80248095Y-124094761D01*
X79486190Y-124094761D01*
X79486190Y-122094761D01*
X80152857Y-122094761D01*
X80343333Y-122190000D01*
X80438571Y-122285238D01*
X80533809Y-122475714D01*
X80533809Y-122666190D01*
X80438571Y-122856666D01*
X80343333Y-122951904D01*
X80152857Y-123047142D01*
X79486190Y-123047142D01*
X51546190Y-124094761D02*
X51546190Y-122094761D01*
X52022380Y-122094761D01*
X52308095Y-122190000D01*
X52498571Y-122380476D01*
X52593809Y-122570952D01*
X52689047Y-122951904D01*
X52689047Y-123237619D01*
X52593809Y-123618571D01*
X52498571Y-123809047D01*
X52308095Y-123999523D01*
X52022380Y-124094761D01*
X51546190Y-124094761D01*
X122761428Y-36687142D02*
X123428095Y-36687142D01*
X123713809Y-37734761D02*
X122761428Y-37734761D01*
X122761428Y-35734761D01*
X123713809Y-35734761D01*
X151653809Y-35830000D02*
X151463333Y-35734761D01*
X151177619Y-35734761D01*
X150891904Y-35830000D01*
X150701428Y-36020476D01*
X150606190Y-36210952D01*
X150510952Y-36591904D01*
X150510952Y-36877619D01*
X150606190Y-37258571D01*
X150701428Y-37449047D01*
X150891904Y-37639523D01*
X151177619Y-37734761D01*
X151368095Y-37734761D01*
X151653809Y-37639523D01*
X151749047Y-37544285D01*
X151749047Y-36877619D01*
X151368095Y-36877619D01*
X51498571Y-37734761D02*
X51498571Y-35734761D01*
X51498571Y-36687142D02*
X52641428Y-36687142D01*
X52641428Y-37734761D02*
X52641428Y-35734761D01*
X80295714Y-36687142D02*
X79629047Y-36687142D01*
X79629047Y-37734761D02*
X79629047Y-35734761D01*
X80581428Y-35734761D01*
D14*
%TO.C,Q1*%
X163520000Y-86485000D02*
X164450000Y-86485000D01*
X166680000Y-86485000D02*
X165750000Y-86485000D01*
X166680000Y-86485000D02*
X166680000Y-84325000D01*
X163520000Y-86485000D02*
X163520000Y-85025000D01*
%TO.C,J20*%
X170755000Y-67250000D02*
X172085000Y-67250000D01*
X170755000Y-68580000D02*
X170755000Y-67250000D01*
X170755000Y-69850000D02*
X173415000Y-69850000D01*
X173415000Y-69850000D02*
X173415000Y-69910000D01*
X170755000Y-69850000D02*
X170755000Y-69910000D01*
X170755000Y-69910000D02*
X173415000Y-69910000D01*
%TO.C,J11*%
X163890000Y-125670000D02*
X163890000Y-127000000D01*
X162560000Y-125670000D02*
X163890000Y-125670000D01*
X161290000Y-125670000D02*
X161290000Y-128330000D01*
X161290000Y-128330000D02*
X140910000Y-128330000D01*
X161290000Y-125670000D02*
X140910000Y-125670000D01*
X140910000Y-125670000D02*
X140910000Y-128330000D01*
%TO.C,U9*%
X167700000Y-90050000D02*
X157420000Y-90050000D01*
X167700000Y-115690000D02*
X167700000Y-90050000D01*
X157420000Y-115690000D02*
X167700000Y-115690000D01*
X157420000Y-90050000D02*
X157420000Y-115690000D01*
X165210000Y-90110000D02*
X163560000Y-90110000D01*
X165210000Y-115630000D02*
X165210000Y-90110000D01*
X159910000Y-115630000D02*
X165210000Y-115630000D01*
X159910000Y-90110000D02*
X159910000Y-115630000D01*
X161560000Y-90110000D02*
X159910000Y-90110000D01*
X163560000Y-90110000D02*
G75*
G02*
X161560000Y-90110000I-1000000J0D01*
G01*
%TO.C,U8*%
X40075927Y-92111225D02*
X31173186Y-97251225D01*
X50355927Y-109916707D02*
X40075927Y-92111225D01*
X41453186Y-115056707D02*
X50355927Y-109916707D01*
X31173186Y-97251225D02*
X41453186Y-115056707D01*
X37949524Y-93408186D02*
X36520582Y-94233186D01*
X48169524Y-111109745D02*
X37949524Y-93408186D01*
X43579589Y-113759745D02*
X48169524Y-111109745D01*
X33359589Y-96058186D02*
X43579589Y-113759745D01*
X34788531Y-95233186D02*
X33359589Y-96058186D01*
X36520583Y-94233186D02*
G75*
G02*
X34788531Y-95233186I-866026J-500000D01*
G01*
%TO.C,U7*%
X57855927Y-85443725D02*
X48953186Y-90583725D01*
X68135927Y-103249207D02*
X57855927Y-85443725D01*
X59233186Y-108389207D02*
X68135927Y-103249207D01*
X48953186Y-90583725D02*
X59233186Y-108389207D01*
X55729524Y-86740686D02*
X54300582Y-87565686D01*
X65949524Y-104442245D02*
X55729524Y-86740686D01*
X61359589Y-107092245D02*
X65949524Y-104442245D01*
X51139589Y-89390686D02*
X61359589Y-107092245D01*
X52568531Y-88565686D02*
X51139589Y-89390686D01*
X54300583Y-87565686D02*
G75*
G02*
X52568531Y-88565686I-866026J-500000D01*
G01*
%TO.C,U6*%
X75635927Y-78776225D02*
X66733186Y-83916225D01*
X85915927Y-96581707D02*
X75635927Y-78776225D01*
X77013186Y-101721707D02*
X85915927Y-96581707D01*
X66733186Y-83916225D02*
X77013186Y-101721707D01*
X73509524Y-80073186D02*
X72080582Y-80898186D01*
X83729524Y-97774745D02*
X73509524Y-80073186D01*
X79139589Y-100424745D02*
X83729524Y-97774745D01*
X68919589Y-82723186D02*
X79139589Y-100424745D01*
X70348531Y-81898186D02*
X68919589Y-82723186D01*
X72080583Y-80898186D02*
G75*
G02*
X70348531Y-81898186I-866026J-500000D01*
G01*
%TO.C,U5*%
X93415927Y-72108725D02*
X84513186Y-77248725D01*
X103695927Y-89914207D02*
X93415927Y-72108725D01*
X94793186Y-95054207D02*
X103695927Y-89914207D01*
X84513186Y-77248725D02*
X94793186Y-95054207D01*
X91289524Y-73405686D02*
X89860582Y-74230686D01*
X101509524Y-91107245D02*
X91289524Y-73405686D01*
X96919589Y-93757245D02*
X101509524Y-91107245D01*
X86699589Y-76055686D02*
X96919589Y-93757245D01*
X88128531Y-75230686D02*
X86699589Y-76055686D01*
X89860583Y-74230686D02*
G75*
G02*
X88128531Y-75230686I-866026J-500000D01*
G01*
%TO.C,U4*%
X111195927Y-65441225D02*
X102293186Y-70581225D01*
X121475927Y-83246707D02*
X111195927Y-65441225D01*
X112573186Y-88386707D02*
X121475927Y-83246707D01*
X102293186Y-70581225D02*
X112573186Y-88386707D01*
X109069524Y-66738186D02*
X107640582Y-67563186D01*
X119289524Y-84439745D02*
X109069524Y-66738186D01*
X114699589Y-87089745D02*
X119289524Y-84439745D01*
X104479589Y-69388186D02*
X114699589Y-87089745D01*
X105908531Y-68563186D02*
X104479589Y-69388186D01*
X107640583Y-67563186D02*
G75*
G02*
X105908531Y-68563186I-866026J-500000D01*
G01*
%TO.C,U3*%
X128975927Y-58773725D02*
X120073186Y-63913725D01*
X139255927Y-76579207D02*
X128975927Y-58773725D01*
X130353186Y-81719207D02*
X139255927Y-76579207D01*
X120073186Y-63913725D02*
X130353186Y-81719207D01*
X126849524Y-60070686D02*
X125420582Y-60895686D01*
X137069524Y-77772245D02*
X126849524Y-60070686D01*
X132479589Y-80422245D02*
X137069524Y-77772245D01*
X122259589Y-62720686D02*
X132479589Y-80422245D01*
X123688531Y-61895686D02*
X122259589Y-62720686D01*
X125420583Y-60895686D02*
G75*
G02*
X123688531Y-61895686I-866026J-500000D01*
G01*
%TO.C,U2*%
X146755927Y-52106225D02*
X137853186Y-57246225D01*
X157035927Y-69911707D02*
X146755927Y-52106225D01*
X148133186Y-75051707D02*
X157035927Y-69911707D01*
X137853186Y-57246225D02*
X148133186Y-75051707D01*
X144629524Y-53403186D02*
X143200582Y-54228186D01*
X154849524Y-71104745D02*
X144629524Y-53403186D01*
X150259589Y-73754745D02*
X154849524Y-71104745D01*
X140039589Y-56053186D02*
X150259589Y-73754745D01*
X141468531Y-55228186D02*
X140039589Y-56053186D01*
X143200583Y-54228186D02*
G75*
G02*
X141468531Y-55228186I-866026J-500000D01*
G01*
%TO.C,U1*%
X164535927Y-45438725D02*
X155633186Y-50578725D01*
X174815927Y-63244207D02*
X164535927Y-45438725D01*
X165913186Y-68384207D02*
X174815927Y-63244207D01*
X155633186Y-50578725D02*
X165913186Y-68384207D01*
X162409524Y-46735686D02*
X160980582Y-47560686D01*
X172629524Y-64437245D02*
X162409524Y-46735686D01*
X168039589Y-67087245D02*
X172629524Y-64437245D01*
X157819589Y-49385686D02*
X168039589Y-67087245D01*
X159248531Y-48560686D02*
X157819589Y-49385686D01*
X160980583Y-47560686D02*
G75*
G02*
X159248531Y-48560686I-866026J-500000D01*
G01*
%TO.C,R6*%
X172857936Y-72490000D02*
X173312064Y-72490000D01*
X172857936Y-71020000D02*
X173312064Y-71020000D01*
%TO.C,R5*%
X172857936Y-75030000D02*
X173312064Y-75030000D01*
X172857936Y-73560000D02*
X173312064Y-73560000D01*
%TO.C,R4*%
X172857936Y-77570000D02*
X173312064Y-77570000D01*
X172857936Y-76100000D02*
X173312064Y-76100000D01*
%TO.C,J21*%
X172780000Y-118170000D02*
X171450000Y-118170000D01*
X172780000Y-116840000D02*
X172780000Y-118170000D01*
X172780000Y-115570000D02*
X170120000Y-115570000D01*
X170120000Y-115570000D02*
X170120000Y-95190000D01*
X172780000Y-115570000D02*
X172780000Y-95190000D01*
X172780000Y-95190000D02*
X170120000Y-95190000D01*
%TO.C,J16*%
X64830000Y-31690000D02*
X64830000Y-33020000D01*
X63500000Y-31690000D02*
X64830000Y-31690000D01*
X62230000Y-31690000D02*
X62230000Y-34350000D01*
X62230000Y-34350000D02*
X41850000Y-34350000D01*
X62230000Y-31690000D02*
X41850000Y-31690000D01*
X41850000Y-31690000D02*
X41850000Y-34350000D01*
%TO.C,J15*%
X64830000Y-125670000D02*
X64830000Y-127000000D01*
X63500000Y-125670000D02*
X64830000Y-125670000D01*
X62230000Y-125670000D02*
X62230000Y-128330000D01*
X62230000Y-128330000D02*
X41850000Y-128330000D01*
X62230000Y-125670000D02*
X41850000Y-125670000D01*
X41850000Y-125670000D02*
X41850000Y-128330000D01*
%TO.C,J13*%
X170755000Y-46295000D02*
X172085000Y-46295000D01*
X170755000Y-47625000D02*
X170755000Y-46295000D01*
X170755000Y-48895000D02*
X173415000Y-48895000D01*
X173415000Y-48895000D02*
X173415000Y-48955000D01*
X170755000Y-48895000D02*
X170755000Y-48955000D01*
X170755000Y-48955000D02*
X173415000Y-48955000D01*
%TO.C,J12*%
X163890000Y-31690000D02*
X163890000Y-33020000D01*
X162560000Y-31690000D02*
X163890000Y-31690000D01*
X161290000Y-31690000D02*
X161290000Y-34350000D01*
X161290000Y-34350000D02*
X140910000Y-34350000D01*
X161290000Y-31690000D02*
X140910000Y-31690000D01*
X140910000Y-31690000D02*
X140910000Y-34350000D01*
%TO.C,J10*%
X173295000Y-52645000D02*
X174625000Y-52645000D01*
X173295000Y-53975000D02*
X173295000Y-52645000D01*
X173295000Y-55245000D02*
X175955000Y-55245000D01*
X175955000Y-55245000D02*
X175955000Y-60385000D01*
X173295000Y-55245000D02*
X173295000Y-60385000D01*
X173295000Y-60385000D02*
X175955000Y-60385000D01*
%TO.C,J9*%
X177620000Y-89160000D02*
X177620000Y-88660000D01*
X176880000Y-89160000D02*
X177620000Y-89160000D01*
X173743000Y-82587000D02*
X173789000Y-82634000D01*
X171445000Y-80290000D02*
X171481000Y-80325000D01*
X173959000Y-82394000D02*
X173994000Y-82429000D01*
X171651000Y-80085000D02*
X171697000Y-80132000D01*
X167459000Y-78800000D02*
X177380000Y-78800000D01*
X167459000Y-88920000D02*
X177380000Y-88920000D01*
X177380000Y-88920000D02*
X177380000Y-78800000D01*
X167459000Y-88920000D02*
X167459000Y-78800000D01*
X170419000Y-88920000D02*
X170419000Y-78800000D01*
X175320000Y-88920000D02*
X175320000Y-78800000D01*
X176820000Y-88920000D02*
X176820000Y-78800000D01*
X174400000Y-81360000D02*
G75*
G03*
X174400000Y-81360000I-1680000J0D01*
G01*
X174400253Y-86331195D02*
G75*
G02*
X174255000Y-87044000I-1680253J-28805D01*
G01*
X173403042Y-87895426D02*
G75*
G02*
X172036000Y-87895000I-683042J1535426D01*
G01*
X171184574Y-87043042D02*
G75*
G02*
X171185000Y-85676000I1535426J683042D01*
G01*
X172036958Y-84824574D02*
G75*
G02*
X173404000Y-84825000I683042J-1535426D01*
G01*
X174254756Y-85676682D02*
G75*
G02*
X174400000Y-86360000I-1534756J-683318D01*
G01*
%TO.C,J7*%
X171390000Y-90110000D02*
X172720000Y-90110000D01*
X171390000Y-91440000D02*
X171390000Y-90110000D01*
X171390000Y-92710000D02*
X174050000Y-92710000D01*
X174050000Y-92710000D02*
X174050000Y-92770000D01*
X171390000Y-92710000D02*
X171390000Y-92770000D01*
X171390000Y-92770000D02*
X174050000Y-92770000D01*
%TO.C,J6*%
X92770000Y-31690000D02*
X92770000Y-33020000D01*
X91440000Y-31690000D02*
X92770000Y-31690000D01*
X90170000Y-31690000D02*
X90170000Y-34350000D01*
X90170000Y-34350000D02*
X69790000Y-34350000D01*
X90170000Y-31690000D02*
X69790000Y-31690000D01*
X69790000Y-31690000D02*
X69790000Y-34350000D01*
%TO.C,J5*%
X92770000Y-125670000D02*
X92770000Y-127000000D01*
X91440000Y-125670000D02*
X92770000Y-125670000D01*
X90170000Y-125670000D02*
X90170000Y-128330000D01*
X90170000Y-128330000D02*
X69790000Y-128330000D01*
X90170000Y-125670000D02*
X69790000Y-125670000D01*
X69790000Y-125670000D02*
X69790000Y-128330000D01*
%TO.C,J3*%
X176590000Y-118170000D02*
X175260000Y-118170000D01*
X176590000Y-116840000D02*
X176590000Y-118170000D01*
X176590000Y-115570000D02*
X173930000Y-115570000D01*
X173930000Y-115570000D02*
X173930000Y-95190000D01*
X176590000Y-115570000D02*
X176590000Y-95190000D01*
X176590000Y-95190000D02*
X173930000Y-95190000D01*
%TO.C,J2*%
X135950000Y-31690000D02*
X135950000Y-33020000D01*
X134620000Y-31690000D02*
X135950000Y-31690000D01*
X133350000Y-31690000D02*
X133350000Y-34350000D01*
X133350000Y-34350000D02*
X112970000Y-34350000D01*
X133350000Y-31690000D02*
X112970000Y-31690000D01*
X112970000Y-31690000D02*
X112970000Y-34350000D01*
%TO.C,J1*%
X135950000Y-125670000D02*
X135950000Y-127000000D01*
X134620000Y-125670000D02*
X135950000Y-125670000D01*
X133350000Y-125670000D02*
X133350000Y-128330000D01*
X133350000Y-128330000D02*
X112970000Y-128330000D01*
X133350000Y-125670000D02*
X112970000Y-125670000D01*
X112970000Y-125670000D02*
X112970000Y-128330000D01*
%TO.C,D3*%
X166660000Y-72715000D02*
X169520000Y-72715000D01*
X166660000Y-70795000D02*
X166660000Y-72715000D01*
X169520000Y-70795000D02*
X166660000Y-70795000D01*
%TO.C,D2*%
X166660000Y-75255000D02*
X169520000Y-75255000D01*
X166660000Y-73335000D02*
X166660000Y-75255000D01*
X169520000Y-73335000D02*
X166660000Y-73335000D01*
%TO.C,D1*%
X166660000Y-77795000D02*
X169520000Y-77795000D01*
X166660000Y-75875000D02*
X166660000Y-77795000D01*
X169520000Y-75875000D02*
X166660000Y-75875000D01*
%TO.C,C9*%
X45397500Y-111149715D02*
X43502500Y-107867478D01*
X38937500Y-99960666D02*
X40832500Y-103242903D01*
X44948762Y-107032478D02*
X42278762Y-102407903D01*
X42056238Y-108702478D02*
X44948762Y-107032478D01*
X39386238Y-104077903D02*
X42056238Y-108702478D01*
X42278762Y-102407903D02*
X39386238Y-104077903D01*
%TO.C,C8*%
X62860000Y-104482215D02*
X60965000Y-101199978D01*
X56400000Y-93293166D02*
X58295000Y-96575403D01*
X62411262Y-100364978D02*
X59741262Y-95740403D01*
X59518738Y-102034978D02*
X62411262Y-100364978D01*
X56848738Y-97410403D02*
X59518738Y-102034978D01*
X59741262Y-95740403D02*
X56848738Y-97410403D01*
%TO.C,C7*%
X80640000Y-97814715D02*
X78745000Y-94532478D01*
X74180000Y-86625666D02*
X76075000Y-89907903D01*
X80191262Y-93697478D02*
X77521262Y-89072903D01*
X77298738Y-95367478D02*
X80191262Y-93697478D01*
X74628738Y-90742903D02*
X77298738Y-95367478D01*
X77521262Y-89072903D02*
X74628738Y-90742903D01*
%TO.C,C6*%
X98737500Y-91147215D02*
X96842500Y-87864978D01*
X92277500Y-79958166D02*
X94172500Y-83240403D01*
X98288762Y-87029978D02*
X95618762Y-82405403D01*
X95396238Y-88699978D02*
X98288762Y-87029978D01*
X92726238Y-84075403D02*
X95396238Y-88699978D01*
X95618762Y-82405403D02*
X92726238Y-84075403D01*
%TO.C,C5*%
X116200000Y-84479715D02*
X114305000Y-81197478D01*
X109740000Y-73290666D02*
X111635000Y-76572903D01*
X115751262Y-80362478D02*
X113081262Y-75737903D01*
X112858738Y-82032478D02*
X115751262Y-80362478D01*
X110188738Y-77407903D02*
X112858738Y-82032478D01*
X113081262Y-75737903D02*
X110188738Y-77407903D01*
%TO.C,C4*%
X134297500Y-77812215D02*
X132402500Y-74529978D01*
X127837500Y-66623166D02*
X129732500Y-69905403D01*
X133848762Y-73694978D02*
X131178762Y-69070403D01*
X130956238Y-75364978D02*
X133848762Y-73694978D01*
X128286238Y-70740403D02*
X130956238Y-75364978D01*
X131178762Y-69070403D02*
X128286238Y-70740403D01*
%TO.C,C3*%
X151760000Y-71144715D02*
X149865000Y-67862478D01*
X145300000Y-59955666D02*
X147195000Y-63237903D01*
X151311262Y-67027478D02*
X148641262Y-62402903D01*
X148418738Y-68697478D02*
X151311262Y-67027478D01*
X145748738Y-64072903D02*
X148418738Y-68697478D01*
X148641262Y-62402903D02*
X145748738Y-64072903D01*
%TO.C,C2*%
X169540000Y-64477215D02*
X167645000Y-61194978D01*
X163080000Y-53288166D02*
X164975000Y-56570403D01*
X169091262Y-60359978D02*
X166421262Y-55735403D01*
X166198738Y-62029978D02*
X169091262Y-60359978D01*
X163528738Y-57405403D02*
X166198738Y-62029978D01*
X166421262Y-55735403D02*
X163528738Y-57405403D01*
%TO.C,C1*%
X162560000Y-109527500D02*
X162560000Y-105737500D01*
X162560000Y-96607500D02*
X162560000Y-100397500D01*
X164230000Y-105737500D02*
X164230000Y-100397500D01*
X160890000Y-105737500D02*
X164230000Y-105737500D01*
X160890000Y-100397500D02*
X160890000Y-105737500D01*
X164230000Y-100397500D02*
X160890000Y-100397500D01*
%TO.C,Q1*%
D12*
X162472619Y-85502738D02*
X162425000Y-85597976D01*
X162329761Y-85693214D01*
X162186904Y-85836071D01*
X162139285Y-85931309D01*
X162139285Y-86026547D01*
X162377380Y-85978928D02*
X162329761Y-86074166D01*
X162234523Y-86169404D01*
X162044047Y-86217023D01*
X161710714Y-86217023D01*
X161520238Y-86169404D01*
X161425000Y-86074166D01*
X161377380Y-85978928D01*
X161377380Y-85788452D01*
X161425000Y-85693214D01*
X161520238Y-85597976D01*
X161710714Y-85550357D01*
X162044047Y-85550357D01*
X162234523Y-85597976D01*
X162329761Y-85693214D01*
X162377380Y-85788452D01*
X162377380Y-85978928D01*
X162377380Y-84597976D02*
X162377380Y-85169404D01*
X162377380Y-84883690D02*
X161377380Y-84883690D01*
X161520238Y-84978928D01*
X161615476Y-85074166D01*
X161663095Y-85169404D01*
%TO.C,U9*%
X161798095Y-88562380D02*
X161798095Y-89371904D01*
X161845714Y-89467142D01*
X161893333Y-89514761D01*
X161988571Y-89562380D01*
X162179047Y-89562380D01*
X162274285Y-89514761D01*
X162321904Y-89467142D01*
X162369523Y-89371904D01*
X162369523Y-88562380D01*
X162893333Y-89562380D02*
X163083809Y-89562380D01*
X163179047Y-89514761D01*
X163226666Y-89467142D01*
X163321904Y-89324285D01*
X163369523Y-89133809D01*
X163369523Y-88752857D01*
X163321904Y-88657619D01*
X163274285Y-88610000D01*
X163179047Y-88562380D01*
X162988571Y-88562380D01*
X162893333Y-88610000D01*
X162845714Y-88657619D01*
X162798095Y-88752857D01*
X162798095Y-88990952D01*
X162845714Y-89086190D01*
X162893333Y-89133809D01*
X162988571Y-89181428D01*
X163179047Y-89181428D01*
X163274285Y-89133809D01*
X163321904Y-89086190D01*
X163369523Y-88990952D01*
%TO.C,U8*%
X34220918Y-93773861D02*
X34625680Y-94474929D01*
X34714538Y-94533598D01*
X34779587Y-94551028D01*
X34885875Y-94544648D01*
X35050833Y-94449410D01*
X35109502Y-94360552D01*
X35126931Y-94295503D01*
X35120552Y-94189215D01*
X34715790Y-93488147D01*
X35466186Y-93549777D02*
X35359898Y-93556156D01*
X35294849Y-93538726D01*
X35205991Y-93480057D01*
X35182182Y-93438818D01*
X35175802Y-93332530D01*
X35193232Y-93267481D01*
X35251901Y-93178623D01*
X35416858Y-93083385D01*
X35523146Y-93077005D01*
X35588195Y-93094435D01*
X35677053Y-93153104D01*
X35700863Y-93194343D01*
X35707243Y-93300631D01*
X35689813Y-93365680D01*
X35631144Y-93454538D01*
X35466186Y-93549777D01*
X35407517Y-93638635D01*
X35390088Y-93703684D01*
X35396467Y-93809972D01*
X35491705Y-93974929D01*
X35580564Y-94033598D01*
X35645613Y-94051028D01*
X35751901Y-94044648D01*
X35916858Y-93949410D01*
X35975527Y-93860552D01*
X35992957Y-93795503D01*
X35986577Y-93689215D01*
X35891339Y-93524258D01*
X35802481Y-93465588D01*
X35737432Y-93448159D01*
X35631144Y-93454538D01*
%TO.C,U7*%
X52000918Y-87106361D02*
X52405680Y-87807429D01*
X52494538Y-87866098D01*
X52559587Y-87883528D01*
X52665875Y-87877148D01*
X52830833Y-87781910D01*
X52889502Y-87693052D01*
X52906931Y-87628003D01*
X52900552Y-87521715D01*
X52495790Y-86820647D01*
X52825704Y-86630170D02*
X53403054Y-86296837D01*
X53531901Y-87377148D01*
%TO.C,U6*%
X69780918Y-80438861D02*
X70185680Y-81139929D01*
X70274538Y-81198598D01*
X70339587Y-81216028D01*
X70445875Y-81209648D01*
X70610833Y-81114410D01*
X70669502Y-81025552D01*
X70686931Y-80960503D01*
X70680552Y-80854215D01*
X70275790Y-80153147D01*
X71059337Y-79700766D02*
X70894379Y-79796004D01*
X70835710Y-79884862D01*
X70818280Y-79949911D01*
X70807230Y-80121248D01*
X70861229Y-80310015D01*
X71051705Y-80639929D01*
X71140564Y-80698598D01*
X71205613Y-80716028D01*
X71311901Y-80709648D01*
X71476858Y-80614410D01*
X71535527Y-80525552D01*
X71552957Y-80460503D01*
X71546577Y-80354215D01*
X71427529Y-80148018D01*
X71338671Y-80089349D01*
X71273622Y-80071919D01*
X71167334Y-80078299D01*
X71002377Y-80173537D01*
X70943708Y-80262396D01*
X70926278Y-80327444D01*
X70932658Y-80433733D01*
%TO.C,U5*%
X87560918Y-73771361D02*
X87965680Y-74472429D01*
X88054538Y-74531098D01*
X88119587Y-74548528D01*
X88225875Y-74542148D01*
X88390833Y-74446910D01*
X88449502Y-74358052D01*
X88466931Y-74293003D01*
X88460552Y-74186715D01*
X88055790Y-73485647D01*
X88880576Y-73009456D02*
X88468183Y-73247551D01*
X88665039Y-73683754D01*
X88682469Y-73618705D01*
X88741138Y-73529847D01*
X88947334Y-73410799D01*
X89053622Y-73404419D01*
X89118671Y-73421849D01*
X89207529Y-73480518D01*
X89326577Y-73686715D01*
X89332957Y-73793003D01*
X89315527Y-73858052D01*
X89256858Y-73946910D01*
X89050661Y-74065958D01*
X88944373Y-74072337D01*
X88879324Y-74054908D01*
%TO.C,U4*%
X105340918Y-67103861D02*
X105745680Y-67804929D01*
X105834538Y-67863598D01*
X105899587Y-67881028D01*
X106005875Y-67874648D01*
X106170833Y-67779410D01*
X106229502Y-67690552D01*
X106246931Y-67625503D01*
X106240552Y-67519215D01*
X105835790Y-66818147D01*
X106786003Y-66654441D02*
X107119337Y-67231791D01*
X106389331Y-66443574D02*
X106540277Y-67181211D01*
X107076388Y-66871687D01*
%TO.C,U3*%
X123120918Y-60436361D02*
X123525680Y-61137429D01*
X123614538Y-61196098D01*
X123679587Y-61213528D01*
X123785875Y-61207148D01*
X123950833Y-61111910D01*
X124009502Y-61023052D01*
X124026931Y-60958003D01*
X124020552Y-60851715D01*
X123615790Y-60150647D01*
X123945704Y-59960170D02*
X124481815Y-59650647D01*
X124383616Y-60147228D01*
X124507334Y-60075799D01*
X124613622Y-60069419D01*
X124678671Y-60086849D01*
X124767529Y-60145518D01*
X124886577Y-60351715D01*
X124892957Y-60458003D01*
X124875527Y-60523052D01*
X124816858Y-60611910D01*
X124569422Y-60754767D01*
X124463134Y-60761147D01*
X124398085Y-60743717D01*
%TO.C,U2*%
X140900918Y-53768861D02*
X141305680Y-54469929D01*
X141394538Y-54528598D01*
X141459587Y-54546028D01*
X141565875Y-54539648D01*
X141730833Y-54444410D01*
X141789502Y-54355552D01*
X141806931Y-54290503D01*
X141800552Y-54184215D01*
X141395790Y-53483147D01*
X141814563Y-53351339D02*
X141831992Y-53286291D01*
X141890661Y-53197432D01*
X142096858Y-53078385D01*
X142203146Y-53072005D01*
X142268195Y-53089435D01*
X142357053Y-53148104D01*
X142404672Y-53230582D01*
X142434862Y-53378110D01*
X142225704Y-54158696D01*
X142761815Y-53849172D01*
%TO.C,U1*%
X158680918Y-47101361D02*
X159085680Y-47802429D01*
X159174538Y-47861098D01*
X159239587Y-47878528D01*
X159345875Y-47872148D01*
X159510833Y-47776910D01*
X159569502Y-47688052D01*
X159586931Y-47623003D01*
X159580552Y-47516715D01*
X159175790Y-46815647D01*
X160541815Y-47181672D02*
X160046944Y-47467386D01*
X160294379Y-47324529D02*
X159794379Y-46458504D01*
X159783329Y-46629841D01*
X159748470Y-46759938D01*
X159689801Y-46848797D01*
%TO.C,R6*%
X176347380Y-71921666D02*
X175871190Y-72255000D01*
X176347380Y-72493095D02*
X175347380Y-72493095D01*
X175347380Y-72112142D01*
X175395000Y-72016904D01*
X175442619Y-71969285D01*
X175537857Y-71921666D01*
X175680714Y-71921666D01*
X175775952Y-71969285D01*
X175823571Y-72016904D01*
X175871190Y-72112142D01*
X175871190Y-72493095D01*
X175347380Y-71064523D02*
X175347380Y-71255000D01*
X175395000Y-71350238D01*
X175442619Y-71397857D01*
X175585476Y-71493095D01*
X175775952Y-71540714D01*
X176156904Y-71540714D01*
X176252142Y-71493095D01*
X176299761Y-71445476D01*
X176347380Y-71350238D01*
X176347380Y-71159761D01*
X176299761Y-71064523D01*
X176252142Y-71016904D01*
X176156904Y-70969285D01*
X175918809Y-70969285D01*
X175823571Y-71016904D01*
X175775952Y-71064523D01*
X175728333Y-71159761D01*
X175728333Y-71350238D01*
X175775952Y-71445476D01*
X175823571Y-71493095D01*
X175918809Y-71540714D01*
%TO.C,R5*%
X176347380Y-74461666D02*
X175871190Y-74795000D01*
X176347380Y-75033095D02*
X175347380Y-75033095D01*
X175347380Y-74652142D01*
X175395000Y-74556904D01*
X175442619Y-74509285D01*
X175537857Y-74461666D01*
X175680714Y-74461666D01*
X175775952Y-74509285D01*
X175823571Y-74556904D01*
X175871190Y-74652142D01*
X175871190Y-75033095D01*
X175347380Y-73556904D02*
X175347380Y-74033095D01*
X175823571Y-74080714D01*
X175775952Y-74033095D01*
X175728333Y-73937857D01*
X175728333Y-73699761D01*
X175775952Y-73604523D01*
X175823571Y-73556904D01*
X175918809Y-73509285D01*
X176156904Y-73509285D01*
X176252142Y-73556904D01*
X176299761Y-73604523D01*
X176347380Y-73699761D01*
X176347380Y-73937857D01*
X176299761Y-74033095D01*
X176252142Y-74080714D01*
%TO.C,R4*%
X176347380Y-77001666D02*
X175871190Y-77335000D01*
X176347380Y-77573095D02*
X175347380Y-77573095D01*
X175347380Y-77192142D01*
X175395000Y-77096904D01*
X175442619Y-77049285D01*
X175537857Y-77001666D01*
X175680714Y-77001666D01*
X175775952Y-77049285D01*
X175823571Y-77096904D01*
X175871190Y-77192142D01*
X175871190Y-77573095D01*
X175680714Y-76144523D02*
X176347380Y-76144523D01*
X175299761Y-76382619D02*
X176014047Y-76620714D01*
X176014047Y-76001666D01*
%TO.C,D3*%
X166187380Y-72493095D02*
X165187380Y-72493095D01*
X165187380Y-72255000D01*
X165235000Y-72112142D01*
X165330238Y-72016904D01*
X165425476Y-71969285D01*
X165615952Y-71921666D01*
X165758809Y-71921666D01*
X165949285Y-71969285D01*
X166044523Y-72016904D01*
X166139761Y-72112142D01*
X166187380Y-72255000D01*
X166187380Y-72493095D01*
X165187380Y-71588333D02*
X165187380Y-70969285D01*
X165568333Y-71302619D01*
X165568333Y-71159761D01*
X165615952Y-71064523D01*
X165663571Y-71016904D01*
X165758809Y-70969285D01*
X165996904Y-70969285D01*
X166092142Y-71016904D01*
X166139761Y-71064523D01*
X166187380Y-71159761D01*
X166187380Y-71445476D01*
X166139761Y-71540714D01*
X166092142Y-71588333D01*
%TO.C,D2*%
X166187380Y-75033095D02*
X165187380Y-75033095D01*
X165187380Y-74795000D01*
X165235000Y-74652142D01*
X165330238Y-74556904D01*
X165425476Y-74509285D01*
X165615952Y-74461666D01*
X165758809Y-74461666D01*
X165949285Y-74509285D01*
X166044523Y-74556904D01*
X166139761Y-74652142D01*
X166187380Y-74795000D01*
X166187380Y-75033095D01*
X165282619Y-74080714D02*
X165235000Y-74033095D01*
X165187380Y-73937857D01*
X165187380Y-73699761D01*
X165235000Y-73604523D01*
X165282619Y-73556904D01*
X165377857Y-73509285D01*
X165473095Y-73509285D01*
X165615952Y-73556904D01*
X166187380Y-74128333D01*
X166187380Y-73509285D01*
%TO.C,D1*%
X166187380Y-77573095D02*
X165187380Y-77573095D01*
X165187380Y-77335000D01*
X165235000Y-77192142D01*
X165330238Y-77096904D01*
X165425476Y-77049285D01*
X165615952Y-77001666D01*
X165758809Y-77001666D01*
X165949285Y-77049285D01*
X166044523Y-77096904D01*
X166139761Y-77192142D01*
X166187380Y-77335000D01*
X166187380Y-77573095D01*
X166187380Y-76049285D02*
X166187380Y-76620714D01*
X166187380Y-76335000D02*
X165187380Y-76335000D01*
X165330238Y-76430238D01*
X165425476Y-76525476D01*
X165473095Y-76620714D01*
%TO.C,C9*%
X44087159Y-104254424D02*
X44022111Y-104236995D01*
X43909443Y-104137086D01*
X43861824Y-104054608D01*
X43831634Y-103907080D01*
X43866494Y-103776982D01*
X43925163Y-103688124D01*
X44066311Y-103551647D01*
X44190029Y-103480218D01*
X44378795Y-103426219D01*
X44485083Y-103419840D01*
X44615181Y-103454699D01*
X44727849Y-103554608D01*
X44775468Y-103637086D01*
X44805657Y-103784614D01*
X44788228Y-103849662D01*
X44242776Y-104714436D02*
X44338014Y-104879394D01*
X44426872Y-104938063D01*
X44491921Y-104955493D01*
X44663258Y-104966543D01*
X44852025Y-104912544D01*
X45181939Y-104722068D01*
X45240609Y-104633209D01*
X45258038Y-104568160D01*
X45251659Y-104461872D01*
X45156420Y-104296915D01*
X45067562Y-104238246D01*
X45002513Y-104220816D01*
X44896225Y-104227196D01*
X44690029Y-104346244D01*
X44631360Y-104435102D01*
X44613930Y-104500151D01*
X44620309Y-104606439D01*
X44715548Y-104771396D01*
X44804406Y-104830065D01*
X44869455Y-104847495D01*
X44975743Y-104841115D01*
%TO.C,C8*%
X61549659Y-97586924D02*
X61484611Y-97569495D01*
X61371943Y-97469586D01*
X61324324Y-97387108D01*
X61294134Y-97239580D01*
X61328994Y-97109482D01*
X61387663Y-97020624D01*
X61528811Y-96884147D01*
X61652529Y-96812718D01*
X61841295Y-96758719D01*
X61947583Y-96752340D01*
X62077681Y-96787199D01*
X62190349Y-96887108D01*
X62237968Y-96969586D01*
X62268157Y-97117114D01*
X62250728Y-97182162D01*
X62247767Y-97843701D02*
X62241387Y-97737413D01*
X62258817Y-97672364D01*
X62317486Y-97583505D01*
X62358725Y-97559696D01*
X62465013Y-97553316D01*
X62530062Y-97570746D01*
X62618920Y-97629415D01*
X62714159Y-97794372D01*
X62720538Y-97900660D01*
X62703109Y-97965709D01*
X62644439Y-98054568D01*
X62603200Y-98078377D01*
X62496912Y-98084757D01*
X62431863Y-98067327D01*
X62343005Y-98008658D01*
X62247767Y-97843701D01*
X62158908Y-97785032D01*
X62093860Y-97767602D01*
X61987571Y-97773982D01*
X61822614Y-97869220D01*
X61763945Y-97958078D01*
X61746515Y-98023127D01*
X61752895Y-98129415D01*
X61848133Y-98294372D01*
X61936992Y-98353041D01*
X62002040Y-98370471D01*
X62108328Y-98364091D01*
X62273286Y-98268853D01*
X62331955Y-98179995D01*
X62349385Y-98114946D01*
X62343005Y-98008658D01*
%TO.C,C7*%
X79329659Y-90919424D02*
X79264611Y-90901995D01*
X79151943Y-90802086D01*
X79104324Y-90719608D01*
X79074134Y-90572080D01*
X79108994Y-90441982D01*
X79167663Y-90353124D01*
X79308811Y-90216647D01*
X79432529Y-90145218D01*
X79621295Y-90091219D01*
X79727583Y-90084840D01*
X79857681Y-90119699D01*
X79970349Y-90219608D01*
X80017968Y-90302086D01*
X80048157Y-90449614D01*
X80030728Y-90514662D01*
X80279873Y-90755719D02*
X80613206Y-91333069D01*
X79532895Y-91461915D01*
%TO.C,C6*%
X97427159Y-84251924D02*
X97362111Y-84234495D01*
X97249443Y-84134586D01*
X97201824Y-84052108D01*
X97171634Y-83904580D01*
X97206494Y-83774482D01*
X97265163Y-83685624D01*
X97406311Y-83549147D01*
X97530029Y-83477718D01*
X97718795Y-83423719D01*
X97825083Y-83417340D01*
X97955181Y-83452199D01*
X98067849Y-83552108D01*
X98115468Y-83634586D01*
X98145657Y-83782114D01*
X98128228Y-83847162D01*
X98639278Y-84541851D02*
X98544040Y-84376894D01*
X98455181Y-84318225D01*
X98390132Y-84300795D01*
X98218795Y-84289745D01*
X98030029Y-84343744D01*
X97700114Y-84534220D01*
X97641445Y-84623078D01*
X97624015Y-84688127D01*
X97630395Y-84794415D01*
X97725633Y-84959372D01*
X97814492Y-85018041D01*
X97879540Y-85035471D01*
X97985828Y-85029091D01*
X98192025Y-84910044D01*
X98250694Y-84821185D01*
X98268124Y-84756137D01*
X98261744Y-84649848D01*
X98166506Y-84484891D01*
X98077648Y-84426222D01*
X98012599Y-84408792D01*
X97906311Y-84415172D01*
%TO.C,C5*%
X114889659Y-77584424D02*
X114824611Y-77566995D01*
X114711943Y-77467086D01*
X114664324Y-77384608D01*
X114634134Y-77237080D01*
X114668994Y-77106982D01*
X114727663Y-77018124D01*
X114868811Y-76881647D01*
X114992529Y-76810218D01*
X115181295Y-76756219D01*
X115287583Y-76749840D01*
X115417681Y-76784699D01*
X115530349Y-76884608D01*
X115577968Y-76967086D01*
X115608157Y-77114614D01*
X115590728Y-77179662D01*
X116125587Y-77915590D02*
X115887492Y-77503197D01*
X115451289Y-77700053D01*
X115516338Y-77717483D01*
X115605196Y-77776152D01*
X115724244Y-77982348D01*
X115730624Y-78088637D01*
X115713194Y-78153685D01*
X115654525Y-78242544D01*
X115448328Y-78361591D01*
X115342040Y-78367971D01*
X115276992Y-78350541D01*
X115188133Y-78291872D01*
X115069086Y-78085676D01*
X115062706Y-77979388D01*
X115080136Y-77914339D01*
%TO.C,C4*%
X132987159Y-70916924D02*
X132922111Y-70899495D01*
X132809443Y-70799586D01*
X132761824Y-70717108D01*
X132731634Y-70569580D01*
X132766494Y-70439482D01*
X132825163Y-70350624D01*
X132966311Y-70214147D01*
X133090029Y-70142718D01*
X133278795Y-70088719D01*
X133385083Y-70082340D01*
X133515181Y-70117199D01*
X133627849Y-70217108D01*
X133675468Y-70299586D01*
X133705657Y-70447114D01*
X133688228Y-70512162D01*
X133910602Y-71373518D02*
X133333252Y-71706851D01*
X134121469Y-70976845D02*
X133383832Y-71127791D01*
X133693356Y-71663902D01*
%TO.C,C3*%
X150449659Y-64249424D02*
X150384611Y-64231995D01*
X150271943Y-64132086D01*
X150224324Y-64049608D01*
X150194134Y-63902080D01*
X150228994Y-63771982D01*
X150287663Y-63683124D01*
X150428811Y-63546647D01*
X150552529Y-63475218D01*
X150741295Y-63421219D01*
X150847583Y-63414840D01*
X150977681Y-63449699D01*
X151090349Y-63549608D01*
X151137968Y-63632086D01*
X151168157Y-63779614D01*
X151150728Y-63844662D01*
X151399873Y-64085719D02*
X151709397Y-64621830D01*
X151212816Y-64523631D01*
X151284244Y-64647348D01*
X151290624Y-64753637D01*
X151273194Y-64818685D01*
X151214525Y-64907544D01*
X151008328Y-65026591D01*
X150902040Y-65032971D01*
X150836992Y-65015541D01*
X150748133Y-64956872D01*
X150605276Y-64709436D01*
X150598896Y-64603148D01*
X150616326Y-64538099D01*
%TO.C,C2*%
X168229659Y-57581924D02*
X168164611Y-57564495D01*
X168051943Y-57464586D01*
X168004324Y-57382108D01*
X167974134Y-57234580D01*
X168008994Y-57104482D01*
X168067663Y-57015624D01*
X168208811Y-56879147D01*
X168332529Y-56807718D01*
X168521295Y-56753719D01*
X168627583Y-56747340D01*
X168757681Y-56782199D01*
X168870349Y-56882108D01*
X168917968Y-56964586D01*
X168948157Y-57112114D01*
X168930728Y-57177162D01*
X169121204Y-57507077D02*
X169186253Y-57524507D01*
X169275111Y-57583176D01*
X169394159Y-57789372D01*
X169400538Y-57895660D01*
X169383109Y-57960709D01*
X169324439Y-58049568D01*
X169241961Y-58097187D01*
X169094433Y-58127376D01*
X168313847Y-57918219D01*
X168623371Y-58454330D01*
%TO.C,C1*%
X162917142Y-103234166D02*
X162964761Y-103281785D01*
X163012380Y-103424642D01*
X163012380Y-103519880D01*
X162964761Y-103662738D01*
X162869523Y-103757976D01*
X162774285Y-103805595D01*
X162583809Y-103853214D01*
X162440952Y-103853214D01*
X162250476Y-103805595D01*
X162155238Y-103757976D01*
X162060000Y-103662738D01*
X162012380Y-103519880D01*
X162012380Y-103424642D01*
X162060000Y-103281785D01*
X162107619Y-103234166D01*
X163012380Y-102281785D02*
X163012380Y-102853214D01*
X163012380Y-102567500D02*
X162012380Y-102567500D01*
X162155238Y-102662738D01*
X162250476Y-102757976D01*
X162298095Y-102853214D01*
%TD*%
M02*
