%TF.GenerationSoftware,KiCad,Pcbnew,(5.1.8)-1*%
%TF.CreationDate,2023-02-14T21:38:17+03:00*%
%TF.ProjectId,MUX8x1-v3,4d555838-7831-42d7-9633-2e6b69636164,rev?*%
%TF.SameCoordinates,Original*%
%TF.FileFunction,Legend,Bot*%
%TF.FilePolarity,Positive*%
%FSLAX46Y46*%
G04 Gerber Fmt 4.6, Leading zero omitted, Abs format (unit mm)*
G04 Created by KiCad (PCBNEW (5.1.8)-1) date 2023-02-14 21:38:17*
%MOMM*%
%LPD*%
G01*
G04 APERTURE LIST*
%ADD10C,0.120000*%
%ADD11C,0.150000*%
G04 APERTURE END LIST*
D10*
%TO.C,R2*%
X168952936Y-55145000D02*
X169407064Y-55145000D01*
X168952936Y-56615000D02*
X169407064Y-56615000D01*
%TO.C,R1*%
X33555000Y-74972936D02*
X33555000Y-75427064D01*
X35025000Y-74972936D02*
X35025000Y-75427064D01*
%TO.C,R2*%
D11*
X172251666Y-56332380D02*
X172585000Y-55856190D01*
X172823095Y-56332380D02*
X172823095Y-55332380D01*
X172442142Y-55332380D01*
X172346904Y-55380000D01*
X172299285Y-55427619D01*
X172251666Y-55522857D01*
X172251666Y-55665714D01*
X172299285Y-55760952D01*
X172346904Y-55808571D01*
X172442142Y-55856190D01*
X172823095Y-55856190D01*
X171870714Y-55427619D02*
X171823095Y-55380000D01*
X171727857Y-55332380D01*
X171489761Y-55332380D01*
X171394523Y-55380000D01*
X171346904Y-55427619D01*
X171299285Y-55522857D01*
X171299285Y-55618095D01*
X171346904Y-55760952D01*
X171918333Y-56332380D01*
X171299285Y-56332380D01*
%TO.C,R1*%
X33092380Y-75033333D02*
X32616190Y-74700000D01*
X33092380Y-74461904D02*
X32092380Y-74461904D01*
X32092380Y-74842857D01*
X32140000Y-74938095D01*
X32187619Y-74985714D01*
X32282857Y-75033333D01*
X32425714Y-75033333D01*
X32520952Y-74985714D01*
X32568571Y-74938095D01*
X32616190Y-74842857D01*
X32616190Y-74461904D01*
X33092380Y-75985714D02*
X33092380Y-75414285D01*
X33092380Y-75700000D02*
X32092380Y-75700000D01*
X32235238Y-75604761D01*
X32330476Y-75509523D01*
X32378095Y-75414285D01*
%TD*%
M02*
