M48
INCH,TZ
T1C0.0197
T2C0.0315
T3C0.0394
T4C0.0512
T5C0.1260
%
G90
G05
T1
X17750Y-18750
X24078Y-34422
X24750Y-31750
X29250Y-33500
X29250Y-34500
X29518Y-22508
X30000Y-18750
X30750Y-31250
X30750Y-34250
X32000Y-36250
X32090Y-18500
X33500Y-37250
X35750Y-34750
X36040Y-30768
X36500Y-31750
X39877Y-24032
X40500Y-21918
X42750Y-31750
X45875Y-18750
X45875Y-19625
X46750Y-35250
X48001Y-37499
X48375Y-31875
X49000Y-22875
X53250Y-31292
X56040Y-27000
X68625Y-20500
T2
X52500Y-23500
X52500Y-29406
X39000Y-23000
X39000Y-24000
X39000Y-25000
X39000Y-26000
X39000Y-27000
X39000Y-28000
X39000Y-29000
X39000Y-30000
X42000Y-23000
X42000Y-24000
X42000Y-25000
X42000Y-26000
X42000Y-27000
X42000Y-28000
X42000Y-29000
X42000Y-30000
X22500Y-23500
X22500Y-29406
X51000Y-23000
X51000Y-24000
X51000Y-25000
X51000Y-26000
X51000Y-27000
X51000Y-28000
X51000Y-29000
X51000Y-30000
X54000Y-23000
X54000Y-24000
X54000Y-25000
X54000Y-26000
X54000Y-27000
X54000Y-28000
X54000Y-29000
X54000Y-30000
X34500Y-23500
X34500Y-29406
X21000Y-23000
X21000Y-24000
X21000Y-25000
X21000Y-26000
X21000Y-27000
X21000Y-28000
X21000Y-29000
X21000Y-30000
X24000Y-23000
X24000Y-24000
X24000Y-25000
X24000Y-26000
X24000Y-27000
X24000Y-28000
X24000Y-29000
X24000Y-30000
X65000Y-23000
X65000Y-24000
X65000Y-25000
X65000Y-26000
X65000Y-27000
X65000Y-28000
X65000Y-29000
X65000Y-30000
X65000Y-31000
X65000Y-32000
X68000Y-23000
X68000Y-24000
X68000Y-25000
X68000Y-26000
X68000Y-27000
X68000Y-28000
X68000Y-29000
X68000Y-30000
X68000Y-31000
X68000Y-32000
X57000Y-23000
X57000Y-24000
X57000Y-25000
X57000Y-26000
X57000Y-27000
X57000Y-28000
X57000Y-29000
X57000Y-30000
X60000Y-23000
X60000Y-24000
X60000Y-25000
X60000Y-26000
X60000Y-27000
X60000Y-28000
X60000Y-29000
X60000Y-30000
X58500Y-23500
X58500Y-29406
X33000Y-23000
X33000Y-24000
X33000Y-25000
X33000Y-26000
X33000Y-27000
X33000Y-28000
X33000Y-29000
X33000Y-30000
X36000Y-23000
X36000Y-24000
X36000Y-25000
X36000Y-26000
X36000Y-27000
X36000Y-28000
X36000Y-29000
X36000Y-30000
X46500Y-23500
X46500Y-29406
X66500Y-25500
X66500Y-31406
X45000Y-23000
X45000Y-24000
X45000Y-25000
X45000Y-26000
X45000Y-27000
X45000Y-28000
X45000Y-29000
X45000Y-30000
X48000Y-23000
X48000Y-24000
X48000Y-25000
X48000Y-26000
X48000Y-27000
X48000Y-28000
X48000Y-29000
X48000Y-30000
X28500Y-23500
X28500Y-29406
X40500Y-23500
X40500Y-29406
X16500Y-23500
X16500Y-29406
X27000Y-23000
X27000Y-24000
X27000Y-25000
X27000Y-26000
X27000Y-27000
X27000Y-28000
X27000Y-29000
X27000Y-30000
X30000Y-23000
X30000Y-24000
X30000Y-25000
X30000Y-26000
X30000Y-27000
X30000Y-28000
X30000Y-29000
X30000Y-30000
X15000Y-23000
X15000Y-24000
X15000Y-25000
X15000Y-26000
X15000Y-27000
X15000Y-28000
X15000Y-29000
X15000Y-30000
X18000Y-23000
X18000Y-24000
X18000Y-25000
X18000Y-26000
X18000Y-27000
X18000Y-28000
X18000Y-29000
X18000Y-30000
T3
X15000Y-39000
X16000Y-39000
X17000Y-39000
X18000Y-39000
X19000Y-39000
X20000Y-39000
X21000Y-39000
X22000Y-39000
X23000Y-39000
X39000Y-39000
X40000Y-39000
X41000Y-39000
X42000Y-39000
X43000Y-39000
X44000Y-39000
X45000Y-39000
X46000Y-39000
X47000Y-39000
X60000Y-32000
X61000Y-32000
X62000Y-32000
X51000Y-15016
X52000Y-15016
X53000Y-15016
X54000Y-15016
X55000Y-15016
X56000Y-15016
X57000Y-15016
X58000Y-15016
X59000Y-15016
X72500Y-25000
X72500Y-26000
X72500Y-27000
X72500Y-28000
X72500Y-29000
X72500Y-30000
X72500Y-31000
X72500Y-32000
X72500Y-33000
X71000Y-25000
X71000Y-26000
X71000Y-27000
X71000Y-28000
X71000Y-29000
X71000Y-30000
X71000Y-31000
X71000Y-32000
X71000Y-33000
X27000Y-39000
X28000Y-39000
X29000Y-39000
X30000Y-39000
X31000Y-39000
X32000Y-39000
X33000Y-39000
X34000Y-39000
X35000Y-39000
X51000Y-39000
X52000Y-39000
X53000Y-39000
X54000Y-39000
X55000Y-39000
X56000Y-39000
X57000Y-39000
X58000Y-39000
X59000Y-39000
X39000Y-16500
X40000Y-16500
X41000Y-16500
X42000Y-16500
X43000Y-16500
X44000Y-16500
X45000Y-16500
X46000Y-16500
X47000Y-16500
X39000Y-37500
X40000Y-37500
X41000Y-37500
X42000Y-37500
X43000Y-37500
X44000Y-37500
X45000Y-37500
X46000Y-37500
X47000Y-37500
X27000Y-15000
X28000Y-15000
X29000Y-15000
X30000Y-15000
X31000Y-15000
X32000Y-15000
X33000Y-15000
X34000Y-15000
X35000Y-15000
X12000Y-29000
X51000Y-16500
X52000Y-16500
X53000Y-16500
X54000Y-16500
X55000Y-16500
X56000Y-16500
X57000Y-16500
X58000Y-16500
X59000Y-16500
X51000Y-37500
X52000Y-37500
X53000Y-37500
X54000Y-37500
X55000Y-37500
X56000Y-37500
X57000Y-37500
X58000Y-37500
X59000Y-37500
X71000Y-23000
X39000Y-15000
X40000Y-15000
X41000Y-15000
X42000Y-15000
X43000Y-15000
X44000Y-15000
X45000Y-15000
X46000Y-15000
X47000Y-15000
X15000Y-15000
X16000Y-15000
X17000Y-15000
X18000Y-15000
X19000Y-15000
X20000Y-15000
X21000Y-15000
X22000Y-15000
X23000Y-15000
T4
X62000Y-38500
X63969Y-38500
T5
X67500Y-39000
X12000Y-39000
X67500Y-15000
X12000Y-15000
T0
M30
