%TF.GenerationSoftware,KiCad,Pcbnew,(5.1.8)-1*%
%TF.CreationDate,2022-11-23T21:50:43+03:00*%
%TF.ProjectId,MUX8x1-v3,4d555838-7831-42d7-9633-2e6b69636164,rev?*%
%TF.SameCoordinates,Original*%
%TF.FileFunction,Soldermask,Bot*%
%TF.FilePolarity,Negative*%
%FSLAX46Y46*%
G04 Gerber Fmt 4.6, Leading zero omitted, Abs format (unit mm)*
G04 Created by KiCad (PCBNEW (5.1.8)-1) date 2022-11-23 21:50:43*
%MOMM*%
%LPD*%
G01*
G04 APERTURE LIST*
%ADD10O,1.700000X1.700000*%
%ADD11R,1.700000X1.700000*%
%ADD12O,1.500000X1.800000*%
%ADD13O,1.600000X1.600000*%
%ADD14C,1.600000*%
%ADD15O,1.800000X1.500000*%
%ADD16R,1.800000X1.500000*%
%ADD17C,2.600000*%
%ADD18R,2.600000X2.600000*%
%ADD19C,3.200000*%
G04 APERTURE END LIST*
D10*
%TO.C,J21*%
X171450000Y-78740000D03*
X171450000Y-76200000D03*
X171450000Y-73660000D03*
X171450000Y-71120000D03*
X171450000Y-68580000D03*
X171450000Y-66040000D03*
X171450000Y-63500000D03*
X171450000Y-60960000D03*
D11*
X171450000Y-58420000D03*
%TD*%
D10*
%TO.C,J19*%
X167640000Y-78740000D03*
X167640000Y-76200000D03*
X167640000Y-73660000D03*
X167640000Y-71120000D03*
X167640000Y-68580000D03*
X167640000Y-66040000D03*
X167640000Y-63500000D03*
X167640000Y-60960000D03*
D11*
X167640000Y-58420000D03*
%TD*%
D10*
%TO.C,J18*%
X149860000Y-95250000D03*
X147320000Y-95250000D03*
X144780000Y-95250000D03*
X142240000Y-95250000D03*
X139700000Y-95250000D03*
X137160000Y-95250000D03*
X134620000Y-95250000D03*
X132080000Y-95250000D03*
D11*
X129540000Y-95250000D03*
%TD*%
D10*
%TO.C,J16*%
X149860000Y-99060000D03*
X147320000Y-99060000D03*
X144780000Y-99060000D03*
X142240000Y-99060000D03*
X139700000Y-99060000D03*
X137160000Y-99060000D03*
X134620000Y-99060000D03*
X132080000Y-99060000D03*
D11*
X129540000Y-99060000D03*
%TD*%
D10*
%TO.C,J15*%
X58420000Y-38100000D03*
X55880000Y-38100000D03*
X53340000Y-38100000D03*
X50800000Y-38100000D03*
X48260000Y-38100000D03*
X45720000Y-38100000D03*
X43180000Y-38100000D03*
X40640000Y-38100000D03*
D11*
X38100000Y-38100000D03*
%TD*%
D10*
%TO.C,J14*%
X119380000Y-99060000D03*
X116840000Y-99060000D03*
X114300000Y-99060000D03*
X111760000Y-99060000D03*
X109220000Y-99060000D03*
X106680000Y-99060000D03*
X104140000Y-99060000D03*
X101600000Y-99060000D03*
D11*
X99060000Y-99060000D03*
%TD*%
D10*
%TO.C,J12*%
X119380000Y-95250000D03*
X116840000Y-95250000D03*
X114300000Y-95250000D03*
X111760000Y-95250000D03*
X109220000Y-95250000D03*
X106680000Y-95250000D03*
X104140000Y-95250000D03*
X101600000Y-95250000D03*
D11*
X99060000Y-95250000D03*
%TD*%
D10*
%TO.C,J11*%
X88900000Y-38100000D03*
X86360000Y-38100000D03*
X83820000Y-38100000D03*
X81280000Y-38100000D03*
X78740000Y-38100000D03*
X76200000Y-38100000D03*
X73660000Y-38100000D03*
X71120000Y-38100000D03*
D11*
X68580000Y-38100000D03*
%TD*%
D10*
%TO.C,J8*%
X149860000Y-38140000D03*
X147320000Y-38140000D03*
X144780000Y-38140000D03*
X142240000Y-38140000D03*
X139700000Y-38140000D03*
X137160000Y-38140000D03*
X134620000Y-38140000D03*
X132080000Y-38140000D03*
D11*
X129540000Y-38140000D03*
%TD*%
D10*
%TO.C,J6*%
X149860000Y-41910000D03*
X147320000Y-41910000D03*
X144780000Y-41910000D03*
X142240000Y-41910000D03*
X139700000Y-41910000D03*
X137160000Y-41910000D03*
X134620000Y-41910000D03*
X132080000Y-41910000D03*
D11*
X129540000Y-41910000D03*
%TD*%
D10*
%TO.C,J5*%
X88900000Y-99060000D03*
X86360000Y-99060000D03*
X83820000Y-99060000D03*
X81280000Y-99060000D03*
X78740000Y-99060000D03*
X76200000Y-99060000D03*
X73660000Y-99060000D03*
X71120000Y-99060000D03*
D11*
X68580000Y-99060000D03*
%TD*%
D10*
%TO.C,J4*%
X119380000Y-38100000D03*
X116840000Y-38100000D03*
D12*
X114300000Y-38100000D03*
X111760000Y-38100000D03*
D10*
X109220000Y-38100000D03*
X106680000Y-38100000D03*
X104140000Y-38100000D03*
X101600000Y-38100000D03*
D11*
X99060000Y-38100000D03*
%TD*%
D10*
%TO.C,J2*%
X119380000Y-41910000D03*
X116840000Y-41910000D03*
D12*
X114300000Y-41910000D03*
X111760000Y-41910000D03*
D10*
X109220000Y-41910000D03*
X106680000Y-41910000D03*
X104140000Y-41910000D03*
X101600000Y-41910000D03*
D11*
X99060000Y-41910000D03*
%TD*%
D10*
%TO.C,J1*%
X58420000Y-99060000D03*
X55880000Y-99060000D03*
X53340000Y-99060000D03*
X50800000Y-99060000D03*
X48260000Y-99060000D03*
X45720000Y-99060000D03*
X43180000Y-99060000D03*
X40640000Y-99060000D03*
D11*
X38100000Y-99060000D03*
%TD*%
D13*
%TO.C,C8*%
X148590000Y-74690000D03*
D14*
X148590000Y-59690000D03*
%TD*%
D13*
%TO.C,C7*%
X133350000Y-74690000D03*
D14*
X133350000Y-59690000D03*
%TD*%
D13*
%TO.C,C6*%
X118110000Y-74690000D03*
D14*
X118110000Y-59690000D03*
%TD*%
D13*
%TO.C,C5*%
X102870000Y-74690000D03*
D14*
X102870000Y-59690000D03*
%TD*%
D13*
%TO.C,C4*%
X87630000Y-74690000D03*
D14*
X87630000Y-59690000D03*
%TD*%
D13*
%TO.C,C3*%
X72390000Y-74690000D03*
D14*
X72390000Y-59690000D03*
%TD*%
D13*
%TO.C,C2*%
X57150000Y-74690000D03*
D14*
X57150000Y-59690000D03*
%TD*%
D13*
%TO.C,C1*%
X41910000Y-74690000D03*
D14*
X41910000Y-59690000D03*
%TD*%
D15*
%TO.C,U8*%
X152400000Y-58420000D03*
X144780000Y-76200000D03*
X152400000Y-60960000D03*
X144780000Y-73660000D03*
X152400000Y-63500000D03*
X144780000Y-71120000D03*
X152400000Y-66040000D03*
X144780000Y-68580000D03*
X152400000Y-68580000D03*
X144780000Y-66040000D03*
X152400000Y-71120000D03*
X144780000Y-63500000D03*
X152400000Y-73660000D03*
X144780000Y-60960000D03*
X152400000Y-76200000D03*
D16*
X144780000Y-58420000D03*
%TD*%
D15*
%TO.C,U7*%
X137160000Y-58420000D03*
X129540000Y-76200000D03*
X137160000Y-60960000D03*
X129540000Y-73660000D03*
X137160000Y-63500000D03*
X129540000Y-71120000D03*
X137160000Y-66040000D03*
X129540000Y-68580000D03*
X137160000Y-68580000D03*
X129540000Y-66040000D03*
X137160000Y-71120000D03*
X129540000Y-63500000D03*
X137160000Y-73660000D03*
X129540000Y-60960000D03*
X137160000Y-76200000D03*
D16*
X129540000Y-58420000D03*
%TD*%
D15*
%TO.C,U6*%
X121920000Y-58420000D03*
X114300000Y-76200000D03*
X121920000Y-60960000D03*
X114300000Y-73660000D03*
X121920000Y-63500000D03*
X114300000Y-71120000D03*
X121920000Y-66040000D03*
X114300000Y-68580000D03*
X121920000Y-68580000D03*
X114300000Y-66040000D03*
X121920000Y-71120000D03*
X114300000Y-63500000D03*
X121920000Y-73660000D03*
X114300000Y-60960000D03*
X121920000Y-76200000D03*
D16*
X114300000Y-58420000D03*
%TD*%
D15*
%TO.C,U5*%
X106680000Y-58420000D03*
X99060000Y-76200000D03*
X106680000Y-60960000D03*
X99060000Y-73660000D03*
X106680000Y-63500000D03*
X99060000Y-71120000D03*
X106680000Y-66040000D03*
X99060000Y-68580000D03*
X106680000Y-68580000D03*
X99060000Y-66040000D03*
X106680000Y-71120000D03*
X99060000Y-63500000D03*
X106680000Y-73660000D03*
X99060000Y-60960000D03*
X106680000Y-76200000D03*
D16*
X99060000Y-58420000D03*
%TD*%
D15*
%TO.C,U4*%
X91440000Y-58420000D03*
X83820000Y-76200000D03*
X91440000Y-60960000D03*
X83820000Y-73660000D03*
X91440000Y-63500000D03*
X83820000Y-71120000D03*
X91440000Y-66040000D03*
X83820000Y-68580000D03*
X91440000Y-68580000D03*
X83820000Y-66040000D03*
X91440000Y-71120000D03*
X83820000Y-63500000D03*
X91440000Y-73660000D03*
X83820000Y-60960000D03*
X91440000Y-76200000D03*
D16*
X83820000Y-58420000D03*
%TD*%
D15*
%TO.C,U3*%
X76200000Y-58420000D03*
X68580000Y-76200000D03*
X76200000Y-60960000D03*
X68580000Y-73660000D03*
X76200000Y-63500000D03*
X68580000Y-71120000D03*
X76200000Y-66040000D03*
X68580000Y-68580000D03*
X76200000Y-68580000D03*
X68580000Y-66040000D03*
X76200000Y-71120000D03*
X68580000Y-63500000D03*
X76200000Y-73660000D03*
X68580000Y-60960000D03*
X76200000Y-76200000D03*
D16*
X68580000Y-58420000D03*
%TD*%
D15*
%TO.C,U2*%
X60960000Y-58420000D03*
X53340000Y-76200000D03*
X60960000Y-60960000D03*
X53340000Y-73660000D03*
X60960000Y-63500000D03*
X53340000Y-71120000D03*
X60960000Y-66040000D03*
X53340000Y-68580000D03*
X60960000Y-68580000D03*
X53340000Y-66040000D03*
X60960000Y-71120000D03*
X53340000Y-63500000D03*
X60960000Y-73660000D03*
X53340000Y-60960000D03*
X60960000Y-76200000D03*
D16*
X53340000Y-58420000D03*
%TD*%
D15*
%TO.C,U1*%
X45720000Y-58420000D03*
X38100000Y-76200000D03*
X45720000Y-60960000D03*
X38100000Y-73660000D03*
X45720000Y-63500000D03*
X38100000Y-71120000D03*
X45720000Y-66040000D03*
X38100000Y-68580000D03*
X45720000Y-68580000D03*
X38100000Y-66040000D03*
X45720000Y-71120000D03*
X38100000Y-63500000D03*
X45720000Y-73660000D03*
X38100000Y-60960000D03*
X45720000Y-76200000D03*
D16*
X38100000Y-58420000D03*
%TD*%
%TO.C,R1*%
G36*
G01*
X33839999Y-75600000D02*
X34740001Y-75600000D01*
G75*
G02*
X34990000Y-75849999I0J-249999D01*
G01*
X34990000Y-76550001D01*
G75*
G02*
X34740001Y-76800000I-249999J0D01*
G01*
X33839999Y-76800000D01*
G75*
G02*
X33590000Y-76550001I0J249999D01*
G01*
X33590000Y-75849999D01*
G75*
G02*
X33839999Y-75600000I249999J0D01*
G01*
G37*
G36*
G01*
X33839999Y-73600000D02*
X34740001Y-73600000D01*
G75*
G02*
X34990000Y-73849999I0J-249999D01*
G01*
X34990000Y-74550001D01*
G75*
G02*
X34740001Y-74800000I-249999J0D01*
G01*
X33839999Y-74800000D01*
G75*
G02*
X33590000Y-74550001I0J249999D01*
G01*
X33590000Y-73849999D01*
G75*
G02*
X33839999Y-73600000I249999J0D01*
G01*
G37*
%TD*%
D11*
%TO.C,J20*%
X30480000Y-73660000D03*
%TD*%
D15*
%TO.C,J10*%
X157480000Y-76200000D03*
X157480000Y-73660000D03*
D16*
X157480000Y-71120000D03*
%TD*%
D17*
%TO.C,J9*%
X162480000Y-96520000D03*
D18*
X157480000Y-96520000D03*
%TD*%
D19*
%TO.C,H4*%
X168910000Y-99060000D03*
%TD*%
%TO.C,H3*%
X168910000Y-38100000D03*
%TD*%
%TO.C,H2*%
X30480000Y-99060000D03*
%TD*%
%TO.C,H1*%
X30480000Y-38100000D03*
%TD*%
M02*
