%TF.GenerationSoftware,KiCad,Pcbnew,(5.1.8)-1*%
%TF.CreationDate,2022-11-23T21:50:43+03:00*%
%TF.ProjectId,MUX8x1-v3,4d555838-7831-42d7-9633-2e6b69636164,rev?*%
%TF.SameCoordinates,Original*%
%TF.FileFunction,Copper,L2,Inr*%
%TF.FilePolarity,Positive*%
%FSLAX46Y46*%
G04 Gerber Fmt 4.6, Leading zero omitted, Abs format (unit mm)*
G04 Created by KiCad (PCBNEW (5.1.8)-1) date 2022-11-23 21:50:43*
%MOMM*%
%LPD*%
G01*
G04 APERTURE LIST*
%TA.AperFunction,ComponentPad*%
%ADD10O,1.700000X1.700000*%
%TD*%
%TA.AperFunction,ComponentPad*%
%ADD11R,1.700000X1.700000*%
%TD*%
%TA.AperFunction,ComponentPad*%
%ADD12O,1.500000X1.800000*%
%TD*%
%TA.AperFunction,ComponentPad*%
%ADD13O,1.600000X1.600000*%
%TD*%
%TA.AperFunction,ComponentPad*%
%ADD14C,1.600000*%
%TD*%
%TA.AperFunction,ComponentPad*%
%ADD15O,1.800000X1.500000*%
%TD*%
%TA.AperFunction,ComponentPad*%
%ADD16R,1.800000X1.500000*%
%TD*%
%TA.AperFunction,ComponentPad*%
%ADD17C,2.600000*%
%TD*%
%TA.AperFunction,ComponentPad*%
%ADD18R,2.600000X2.600000*%
%TD*%
%TA.AperFunction,ViaPad*%
%ADD19C,2.000000*%
%TD*%
%TA.AperFunction,ViaPad*%
%ADD20C,1.200000*%
%TD*%
G04 APERTURE END LIST*
D10*
%TO.N,/O7*%
%TO.C,J21*%
X171450000Y-78740000D03*
%TO.N,/O6*%
X171450000Y-76200000D03*
%TO.N,/O5*%
X171450000Y-73660000D03*
%TO.N,/O4*%
X171450000Y-71120000D03*
%TO.N,/O3*%
X171450000Y-68580000D03*
%TO.N,/O2*%
X171450000Y-66040000D03*
%TO.N,/O1*%
X171450000Y-63500000D03*
%TO.N,/O0*%
X171450000Y-60960000D03*
D11*
%TO.N,GND*%
X171450000Y-58420000D03*
%TD*%
D10*
%TO.N,/O7*%
%TO.C,J19*%
X167640000Y-78740000D03*
%TO.N,/O6*%
X167640000Y-76200000D03*
%TO.N,/O5*%
X167640000Y-73660000D03*
%TO.N,/O4*%
X167640000Y-71120000D03*
%TO.N,/O3*%
X167640000Y-68580000D03*
%TO.N,/O2*%
X167640000Y-66040000D03*
%TO.N,/O1*%
X167640000Y-63500000D03*
%TO.N,/O0*%
X167640000Y-60960000D03*
D11*
%TO.N,GND*%
X167640000Y-58420000D03*
%TD*%
D10*
%TO.N,/H7*%
%TO.C,J18*%
X149860000Y-95250000D03*
%TO.N,/H6*%
X147320000Y-95250000D03*
%TO.N,/H5*%
X144780000Y-95250000D03*
%TO.N,/H4*%
X142240000Y-95250000D03*
%TO.N,/H3*%
X139700000Y-95250000D03*
%TO.N,/H2*%
X137160000Y-95250000D03*
%TO.N,/H1*%
X134620000Y-95250000D03*
%TO.N,/H0*%
X132080000Y-95250000D03*
D11*
%TO.N,GND*%
X129540000Y-95250000D03*
%TD*%
D10*
%TO.N,/H7*%
%TO.C,J16*%
X149860000Y-99060000D03*
%TO.N,/H6*%
X147320000Y-99060000D03*
%TO.N,/H5*%
X144780000Y-99060000D03*
%TO.N,/H4*%
X142240000Y-99060000D03*
%TO.N,/H3*%
X139700000Y-99060000D03*
%TO.N,/H2*%
X137160000Y-99060000D03*
%TO.N,/H1*%
X134620000Y-99060000D03*
%TO.N,/H0*%
X132080000Y-99060000D03*
D11*
%TO.N,GND*%
X129540000Y-99060000D03*
%TD*%
D10*
%TO.N,/D7*%
%TO.C,J15*%
X58420000Y-38100000D03*
%TO.N,/D6*%
X55880000Y-38100000D03*
%TO.N,/D5*%
X53340000Y-38100000D03*
%TO.N,/D4*%
X50800000Y-38100000D03*
%TO.N,/D3*%
X48260000Y-38100000D03*
%TO.N,/D2*%
X45720000Y-38100000D03*
%TO.N,/D1*%
X43180000Y-38100000D03*
%TO.N,/D0*%
X40640000Y-38100000D03*
D11*
%TO.N,GND*%
X38100000Y-38100000D03*
%TD*%
D10*
%TO.N,/G7*%
%TO.C,J14*%
X119380000Y-99060000D03*
%TO.N,/G6*%
X116840000Y-99060000D03*
%TO.N,/G5*%
X114300000Y-99060000D03*
%TO.N,/G4*%
X111760000Y-99060000D03*
%TO.N,/G3*%
X109220000Y-99060000D03*
%TO.N,/G2*%
X106680000Y-99060000D03*
%TO.N,/G1*%
X104140000Y-99060000D03*
%TO.N,/G0*%
X101600000Y-99060000D03*
D11*
%TO.N,GND*%
X99060000Y-99060000D03*
%TD*%
D10*
%TO.N,/G7*%
%TO.C,J12*%
X119380000Y-95250000D03*
%TO.N,/G6*%
X116840000Y-95250000D03*
%TO.N,/G5*%
X114300000Y-95250000D03*
%TO.N,/G4*%
X111760000Y-95250000D03*
%TO.N,/G3*%
X109220000Y-95250000D03*
%TO.N,/G2*%
X106680000Y-95250000D03*
%TO.N,/G1*%
X104140000Y-95250000D03*
%TO.N,/G0*%
X101600000Y-95250000D03*
D11*
%TO.N,GND*%
X99060000Y-95250000D03*
%TD*%
D10*
%TO.N,/C7*%
%TO.C,J11*%
X88900000Y-38100000D03*
%TO.N,/C6*%
X86360000Y-38100000D03*
%TO.N,/C5*%
X83820000Y-38100000D03*
%TO.N,/C4*%
X81280000Y-38100000D03*
%TO.N,/C3*%
X78740000Y-38100000D03*
%TO.N,/C2*%
X76200000Y-38100000D03*
%TO.N,/C1*%
X73660000Y-38100000D03*
%TO.N,/C0*%
X71120000Y-38100000D03*
D11*
%TO.N,GND*%
X68580000Y-38100000D03*
%TD*%
D10*
%TO.N,/F7*%
%TO.C,J8*%
X149860000Y-38140000D03*
%TO.N,/F6*%
X147320000Y-38140000D03*
%TO.N,/F5*%
X144780000Y-38140000D03*
%TO.N,/F4*%
X142240000Y-38140000D03*
%TO.N,/F3*%
X139700000Y-38140000D03*
%TO.N,/F2*%
X137160000Y-38140000D03*
%TO.N,/F1*%
X134620000Y-38140000D03*
%TO.N,/F0*%
X132080000Y-38140000D03*
D11*
%TO.N,GND*%
X129540000Y-38140000D03*
%TD*%
D10*
%TO.N,/F7*%
%TO.C,J6*%
X149860000Y-41910000D03*
%TO.N,/F6*%
X147320000Y-41910000D03*
%TO.N,/F5*%
X144780000Y-41910000D03*
%TO.N,/F4*%
X142240000Y-41910000D03*
%TO.N,/F3*%
X139700000Y-41910000D03*
%TO.N,/F2*%
X137160000Y-41910000D03*
%TO.N,/F1*%
X134620000Y-41910000D03*
%TO.N,/F0*%
X132080000Y-41910000D03*
D11*
%TO.N,GND*%
X129540000Y-41910000D03*
%TD*%
D10*
%TO.N,/B7*%
%TO.C,J5*%
X88900000Y-99060000D03*
%TO.N,/B6*%
X86360000Y-99060000D03*
%TO.N,/B5*%
X83820000Y-99060000D03*
%TO.N,/B4*%
X81280000Y-99060000D03*
%TO.N,/B3*%
X78740000Y-99060000D03*
%TO.N,/B2*%
X76200000Y-99060000D03*
%TO.N,/B1*%
X73660000Y-99060000D03*
%TO.N,/B0*%
X71120000Y-99060000D03*
D11*
%TO.N,GND*%
X68580000Y-99060000D03*
%TD*%
D10*
%TO.N,/E7*%
%TO.C,J4*%
X119380000Y-38100000D03*
%TO.N,/E6*%
X116840000Y-38100000D03*
D12*
%TO.N,/E5*%
X114300000Y-38100000D03*
%TO.N,/E4*%
X111760000Y-38100000D03*
D10*
%TO.N,/E3*%
X109220000Y-38100000D03*
%TO.N,/E2*%
X106680000Y-38100000D03*
%TO.N,/E1*%
X104140000Y-38100000D03*
%TO.N,/E0*%
X101600000Y-38100000D03*
D11*
%TO.N,GND*%
X99060000Y-38100000D03*
%TD*%
D10*
%TO.N,/E7*%
%TO.C,J2*%
X119380000Y-41910000D03*
%TO.N,/E6*%
X116840000Y-41910000D03*
D12*
%TO.N,/E5*%
X114300000Y-41910000D03*
%TO.N,/E4*%
X111760000Y-41910000D03*
D10*
%TO.N,/E3*%
X109220000Y-41910000D03*
%TO.N,/E2*%
X106680000Y-41910000D03*
%TO.N,/E1*%
X104140000Y-41910000D03*
%TO.N,/E0*%
X101600000Y-41910000D03*
D11*
%TO.N,GND*%
X99060000Y-41910000D03*
%TD*%
D10*
%TO.N,/A7*%
%TO.C,J1*%
X58420000Y-99060000D03*
%TO.N,/A6*%
X55880000Y-99060000D03*
%TO.N,/A5*%
X53340000Y-99060000D03*
%TO.N,/A4*%
X50800000Y-99060000D03*
%TO.N,/A3*%
X48260000Y-99060000D03*
%TO.N,/A2*%
X45720000Y-99060000D03*
%TO.N,/A1*%
X43180000Y-99060000D03*
%TO.N,/A0*%
X40640000Y-99060000D03*
D11*
%TO.N,GND*%
X38100000Y-99060000D03*
%TD*%
D13*
%TO.N,GND*%
%TO.C,C8*%
X148590000Y-74690000D03*
D14*
%TO.N,VCC*%
X148590000Y-59690000D03*
%TD*%
D13*
%TO.N,GND*%
%TO.C,C7*%
X133350000Y-74690000D03*
D14*
%TO.N,VCC*%
X133350000Y-59690000D03*
%TD*%
D13*
%TO.N,GND*%
%TO.C,C6*%
X118110000Y-74690000D03*
D14*
%TO.N,VCC*%
X118110000Y-59690000D03*
%TD*%
D13*
%TO.N,GND*%
%TO.C,C5*%
X102870000Y-74690000D03*
D14*
%TO.N,VCC*%
X102870000Y-59690000D03*
%TD*%
D13*
%TO.N,GND*%
%TO.C,C4*%
X87630000Y-74690000D03*
D14*
%TO.N,VCC*%
X87630000Y-59690000D03*
%TD*%
D13*
%TO.N,GND*%
%TO.C,C3*%
X72390000Y-74690000D03*
D14*
%TO.N,VCC*%
X72390000Y-59690000D03*
%TD*%
D13*
%TO.N,GND*%
%TO.C,C2*%
X57150000Y-74690000D03*
D14*
%TO.N,VCC*%
X57150000Y-59690000D03*
%TD*%
D13*
%TO.N,GND*%
%TO.C,C1*%
X41910000Y-74690000D03*
D14*
%TO.N,VCC*%
X41910000Y-59690000D03*
%TD*%
D15*
%TO.N,VCC*%
%TO.C,U8*%
X152400000Y-58420000D03*
%TO.N,GND*%
X144780000Y-76200000D03*
%TO.N,/E7*%
X152400000Y-60960000D03*
%TO.N,/~E*%
X144780000Y-73660000D03*
%TO.N,/F7*%
X152400000Y-63500000D03*
%TO.N,Net-(U8-Pad6)*%
X144780000Y-71120000D03*
%TO.N,/G7*%
X152400000Y-66040000D03*
%TO.N,/O7*%
X144780000Y-68580000D03*
%TO.N,/H7*%
X152400000Y-68580000D03*
%TO.N,/A7*%
X144780000Y-66040000D03*
%TO.N,/S0*%
X152400000Y-71120000D03*
%TO.N,/B7*%
X144780000Y-63500000D03*
%TO.N,/S1*%
X152400000Y-73660000D03*
%TO.N,/C7*%
X144780000Y-60960000D03*
%TO.N,/S2*%
X152400000Y-76200000D03*
D16*
%TO.N,/D7*%
X144780000Y-58420000D03*
%TD*%
D15*
%TO.N,VCC*%
%TO.C,U7*%
X137160000Y-58420000D03*
%TO.N,GND*%
X129540000Y-76200000D03*
%TO.N,/E6*%
X137160000Y-60960000D03*
%TO.N,/~E*%
X129540000Y-73660000D03*
%TO.N,/F6*%
X137160000Y-63500000D03*
%TO.N,Net-(U7-Pad6)*%
X129540000Y-71120000D03*
%TO.N,/G6*%
X137160000Y-66040000D03*
%TO.N,/O6*%
X129540000Y-68580000D03*
%TO.N,/H6*%
X137160000Y-68580000D03*
%TO.N,/A6*%
X129540000Y-66040000D03*
%TO.N,/S0*%
X137160000Y-71120000D03*
%TO.N,/B6*%
X129540000Y-63500000D03*
%TO.N,/S1*%
X137160000Y-73660000D03*
%TO.N,/C6*%
X129540000Y-60960000D03*
%TO.N,/S2*%
X137160000Y-76200000D03*
D16*
%TO.N,/D6*%
X129540000Y-58420000D03*
%TD*%
D15*
%TO.N,VCC*%
%TO.C,U6*%
X121920000Y-58420000D03*
%TO.N,GND*%
X114300000Y-76200000D03*
%TO.N,/E5*%
X121920000Y-60960000D03*
%TO.N,/~E*%
X114300000Y-73660000D03*
%TO.N,/F5*%
X121920000Y-63500000D03*
%TO.N,Net-(U6-Pad6)*%
X114300000Y-71120000D03*
%TO.N,/G5*%
X121920000Y-66040000D03*
%TO.N,/O5*%
X114300000Y-68580000D03*
%TO.N,/H5*%
X121920000Y-68580000D03*
%TO.N,/A5*%
X114300000Y-66040000D03*
%TO.N,/S0*%
X121920000Y-71120000D03*
%TO.N,/B5*%
X114300000Y-63500000D03*
%TO.N,/S1*%
X121920000Y-73660000D03*
%TO.N,/C5*%
X114300000Y-60960000D03*
%TO.N,/S2*%
X121920000Y-76200000D03*
D16*
%TO.N,/D5*%
X114300000Y-58420000D03*
%TD*%
D15*
%TO.N,VCC*%
%TO.C,U5*%
X106680000Y-58420000D03*
%TO.N,GND*%
X99060000Y-76200000D03*
%TO.N,/E4*%
X106680000Y-60960000D03*
%TO.N,/~E*%
X99060000Y-73660000D03*
%TO.N,/F4*%
X106680000Y-63500000D03*
%TO.N,Net-(U5-Pad6)*%
X99060000Y-71120000D03*
%TO.N,/G4*%
X106680000Y-66040000D03*
%TO.N,/O4*%
X99060000Y-68580000D03*
%TO.N,/H4*%
X106680000Y-68580000D03*
%TO.N,/A4*%
X99060000Y-66040000D03*
%TO.N,/S0*%
X106680000Y-71120000D03*
%TO.N,/B4*%
X99060000Y-63500000D03*
%TO.N,/S1*%
X106680000Y-73660000D03*
%TO.N,/C4*%
X99060000Y-60960000D03*
%TO.N,/S2*%
X106680000Y-76200000D03*
D16*
%TO.N,/D4*%
X99060000Y-58420000D03*
%TD*%
D15*
%TO.N,VCC*%
%TO.C,U4*%
X91440000Y-58420000D03*
%TO.N,GND*%
X83820000Y-76200000D03*
%TO.N,/E3*%
X91440000Y-60960000D03*
%TO.N,/~E*%
X83820000Y-73660000D03*
%TO.N,/F3*%
X91440000Y-63500000D03*
%TO.N,Net-(U4-Pad6)*%
X83820000Y-71120000D03*
%TO.N,/G3*%
X91440000Y-66040000D03*
%TO.N,/O3*%
X83820000Y-68580000D03*
%TO.N,/H3*%
X91440000Y-68580000D03*
%TO.N,/A3*%
X83820000Y-66040000D03*
%TO.N,/S0*%
X91440000Y-71120000D03*
%TO.N,/B3*%
X83820000Y-63500000D03*
%TO.N,/S1*%
X91440000Y-73660000D03*
%TO.N,/C3*%
X83820000Y-60960000D03*
%TO.N,/S2*%
X91440000Y-76200000D03*
D16*
%TO.N,/D3*%
X83820000Y-58420000D03*
%TD*%
D15*
%TO.N,VCC*%
%TO.C,U3*%
X76200000Y-58420000D03*
%TO.N,GND*%
X68580000Y-76200000D03*
%TO.N,/E2*%
X76200000Y-60960000D03*
%TO.N,/~E*%
X68580000Y-73660000D03*
%TO.N,/F2*%
X76200000Y-63500000D03*
%TO.N,Net-(U3-Pad6)*%
X68580000Y-71120000D03*
%TO.N,/G2*%
X76200000Y-66040000D03*
%TO.N,/O2*%
X68580000Y-68580000D03*
%TO.N,/H2*%
X76200000Y-68580000D03*
%TO.N,/A2*%
X68580000Y-66040000D03*
%TO.N,/S0*%
X76200000Y-71120000D03*
%TO.N,/B2*%
X68580000Y-63500000D03*
%TO.N,/S1*%
X76200000Y-73660000D03*
%TO.N,/C2*%
X68580000Y-60960000D03*
%TO.N,/S2*%
X76200000Y-76200000D03*
D16*
%TO.N,/D2*%
X68580000Y-58420000D03*
%TD*%
D15*
%TO.N,VCC*%
%TO.C,U2*%
X60960000Y-58420000D03*
%TO.N,GND*%
X53340000Y-76200000D03*
%TO.N,/E1*%
X60960000Y-60960000D03*
%TO.N,/~E*%
X53340000Y-73660000D03*
%TO.N,/F1*%
X60960000Y-63500000D03*
%TO.N,Net-(U2-Pad6)*%
X53340000Y-71120000D03*
%TO.N,/G1*%
X60960000Y-66040000D03*
%TO.N,/O1*%
X53340000Y-68580000D03*
%TO.N,/H1*%
X60960000Y-68580000D03*
%TO.N,/A1*%
X53340000Y-66040000D03*
%TO.N,/S0*%
X60960000Y-71120000D03*
%TO.N,/B1*%
X53340000Y-63500000D03*
%TO.N,/S1*%
X60960000Y-73660000D03*
%TO.N,/C1*%
X53340000Y-60960000D03*
%TO.N,/S2*%
X60960000Y-76200000D03*
D16*
%TO.N,/D1*%
X53340000Y-58420000D03*
%TD*%
D15*
%TO.N,VCC*%
%TO.C,U1*%
X45720000Y-58420000D03*
%TO.N,GND*%
X38100000Y-76200000D03*
%TO.N,/E0*%
X45720000Y-60960000D03*
%TO.N,/~E*%
X38100000Y-73660000D03*
%TO.N,/F0*%
X45720000Y-63500000D03*
%TO.N,Net-(U1-Pad6)*%
X38100000Y-71120000D03*
%TO.N,/G0*%
X45720000Y-66040000D03*
%TO.N,/O0*%
X38100000Y-68580000D03*
%TO.N,/H0*%
X45720000Y-68580000D03*
%TO.N,/A0*%
X38100000Y-66040000D03*
%TO.N,/S0*%
X45720000Y-71120000D03*
%TO.N,/B0*%
X38100000Y-63500000D03*
%TO.N,/S1*%
X45720000Y-73660000D03*
%TO.N,/C0*%
X38100000Y-60960000D03*
%TO.N,/S2*%
X45720000Y-76200000D03*
D16*
%TO.N,/D0*%
X38100000Y-58420000D03*
%TD*%
D11*
%TO.N,/~E*%
%TO.C,J20*%
X30480000Y-73660000D03*
%TD*%
D15*
%TO.N,/S2*%
%TO.C,J10*%
X157480000Y-76200000D03*
%TO.N,/S1*%
X157480000Y-73660000D03*
D16*
%TO.N,/S0*%
X157480000Y-71120000D03*
%TD*%
D17*
%TO.N,GND*%
%TO.C,J9*%
X162480000Y-96520000D03*
D18*
%TO.N,VCC*%
X157480000Y-96520000D03*
%TD*%
D19*
%TO.N,GND*%
X171450000Y-54610000D03*
X144780000Y-80010000D03*
X129540000Y-80010000D03*
X114300000Y-80010000D03*
X99060000Y-80010000D03*
X83820000Y-80010000D03*
X68580000Y-80010000D03*
X53340000Y-80010000D03*
X38100000Y-80010000D03*
X38100000Y-95250000D03*
X68580000Y-95250000D03*
X95250000Y-99060000D03*
X125730000Y-99060000D03*
X125730000Y-41910000D03*
X95250000Y-41910000D03*
X68580000Y-41910000D03*
X38100000Y-41910000D03*
X170180000Y-88900000D03*
%TO.N,VCC*%
X157480000Y-88900000D03*
X151130000Y-53340000D03*
X138430000Y-53340000D03*
X123190000Y-53340000D03*
X109220000Y-53340000D03*
X92710000Y-53340000D03*
X77470000Y-53340000D03*
X59690000Y-53340000D03*
X45720000Y-53340000D03*
X153670000Y-53340000D03*
X135890000Y-53340000D03*
X120650000Y-53340000D03*
X104140000Y-53340000D03*
X90170000Y-53340000D03*
X74930000Y-53340000D03*
X62230000Y-53340000D03*
D20*
%TO.N,/A6*%
X121047400Y-95492800D03*
%TO.N,/A5*%
X118812900Y-88501900D03*
%TO.N,/A4*%
X86160600Y-93622200D03*
%TO.N,/A3*%
X80277400Y-88482200D03*
%TO.N,/E2*%
X81507700Y-48395900D03*
%TO.N,/B6*%
X118813500Y-91283200D03*
%TO.N,/F3*%
X124390300Y-57219700D03*
%TO.N,/F2*%
X119702800Y-51652700D03*
%TO.N,/F1*%
X121368200Y-50515400D03*
%TO.N,/C6*%
X104111300Y-55672600D03*
%TO.N,/C5*%
X101288200Y-61040800D03*
%TO.N,/C0*%
X58707800Y-48938500D03*
%TO.N,/G3*%
X93975900Y-84526300D03*
%TO.N,/G2*%
X80588500Y-84595800D03*
%TO.N,/G1*%
X72886000Y-86381400D03*
%TO.N,/G0*%
X68229700Y-87431800D03*
%TO.N,/D6*%
X74023800Y-49446300D03*
%TO.N,/D4*%
X74976200Y-57170000D03*
%TO.N,/H6*%
X142756400Y-68993800D03*
%TO.N,/H5*%
X123777100Y-80592000D03*
%TO.N,/H4*%
X115436200Y-83238000D03*
%TO.N,/H3*%
X93293600Y-79361700D03*
%TO.N,/H2*%
X79502200Y-78515100D03*
%TO.N,/H1*%
X65446900Y-78506000D03*
%TO.N,/O6*%
X134829700Y-78150300D03*
%TO.N,/O3*%
X91542700Y-78150400D03*
%TO.N,/O2*%
X73692200Y-83476000D03*
%TD*%
M02*
