%TF.GenerationSoftware,KiCad,Pcbnew,(5.1.8)-1*%
%TF.CreationDate,2022-11-23T21:50:43+03:00*%
%TF.ProjectId,MUX8x1-v3,4d555838-7831-42d7-9633-2e6b69636164,rev?*%
%TF.SameCoordinates,Original*%
%TF.FileFunction,Copper,L1,Top*%
%TF.FilePolarity,Positive*%
%FSLAX46Y46*%
G04 Gerber Fmt 4.6, Leading zero omitted, Abs format (unit mm)*
G04 Created by KiCad (PCBNEW (5.1.8)-1) date 2022-11-23 21:50:43*
%MOMM*%
%LPD*%
G01*
G04 APERTURE LIST*
%TA.AperFunction,ComponentPad*%
%ADD10O,1.700000X1.700000*%
%TD*%
%TA.AperFunction,ComponentPad*%
%ADD11R,1.700000X1.700000*%
%TD*%
%TA.AperFunction,ComponentPad*%
%ADD12O,1.500000X1.800000*%
%TD*%
%TA.AperFunction,ComponentPad*%
%ADD13O,1.600000X1.600000*%
%TD*%
%TA.AperFunction,ComponentPad*%
%ADD14C,1.600000*%
%TD*%
%TA.AperFunction,ComponentPad*%
%ADD15O,1.800000X1.500000*%
%TD*%
%TA.AperFunction,ComponentPad*%
%ADD16R,1.800000X1.500000*%
%TD*%
%TA.AperFunction,ComponentPad*%
%ADD17C,2.600000*%
%TD*%
%TA.AperFunction,ComponentPad*%
%ADD18R,2.600000X2.600000*%
%TD*%
%TA.AperFunction,ViaPad*%
%ADD19C,2.000000*%
%TD*%
%TA.AperFunction,ViaPad*%
%ADD20C,1.200000*%
%TD*%
%TA.AperFunction,Conductor*%
%ADD21C,0.500000*%
%TD*%
G04 APERTURE END LIST*
D10*
%TO.P,J21,9*%
%TO.N,/O7*%
X171450000Y-78740000D03*
%TO.P,J21,8*%
%TO.N,/O6*%
X171450000Y-76200000D03*
%TO.P,J21,7*%
%TO.N,/O5*%
X171450000Y-73660000D03*
%TO.P,J21,6*%
%TO.N,/O4*%
X171450000Y-71120000D03*
%TO.P,J21,5*%
%TO.N,/O3*%
X171450000Y-68580000D03*
%TO.P,J21,4*%
%TO.N,/O2*%
X171450000Y-66040000D03*
%TO.P,J21,3*%
%TO.N,/O1*%
X171450000Y-63500000D03*
%TO.P,J21,2*%
%TO.N,/O0*%
X171450000Y-60960000D03*
D11*
%TO.P,J21,1*%
%TO.N,GND*%
X171450000Y-58420000D03*
%TD*%
D10*
%TO.P,J19,9*%
%TO.N,/O7*%
X167640000Y-78740000D03*
%TO.P,J19,8*%
%TO.N,/O6*%
X167640000Y-76200000D03*
%TO.P,J19,7*%
%TO.N,/O5*%
X167640000Y-73660000D03*
%TO.P,J19,6*%
%TO.N,/O4*%
X167640000Y-71120000D03*
%TO.P,J19,5*%
%TO.N,/O3*%
X167640000Y-68580000D03*
%TO.P,J19,4*%
%TO.N,/O2*%
X167640000Y-66040000D03*
%TO.P,J19,3*%
%TO.N,/O1*%
X167640000Y-63500000D03*
%TO.P,J19,2*%
%TO.N,/O0*%
X167640000Y-60960000D03*
D11*
%TO.P,J19,1*%
%TO.N,GND*%
X167640000Y-58420000D03*
%TD*%
D10*
%TO.P,J18,9*%
%TO.N,/H7*%
X149860000Y-95250000D03*
%TO.P,J18,8*%
%TO.N,/H6*%
X147320000Y-95250000D03*
%TO.P,J18,7*%
%TO.N,/H5*%
X144780000Y-95250000D03*
%TO.P,J18,6*%
%TO.N,/H4*%
X142240000Y-95250000D03*
%TO.P,J18,5*%
%TO.N,/H3*%
X139700000Y-95250000D03*
%TO.P,J18,4*%
%TO.N,/H2*%
X137160000Y-95250000D03*
%TO.P,J18,3*%
%TO.N,/H1*%
X134620000Y-95250000D03*
%TO.P,J18,2*%
%TO.N,/H0*%
X132080000Y-95250000D03*
D11*
%TO.P,J18,1*%
%TO.N,GND*%
X129540000Y-95250000D03*
%TD*%
D10*
%TO.P,J16,9*%
%TO.N,/H7*%
X149860000Y-99060000D03*
%TO.P,J16,8*%
%TO.N,/H6*%
X147320000Y-99060000D03*
%TO.P,J16,7*%
%TO.N,/H5*%
X144780000Y-99060000D03*
%TO.P,J16,6*%
%TO.N,/H4*%
X142240000Y-99060000D03*
%TO.P,J16,5*%
%TO.N,/H3*%
X139700000Y-99060000D03*
%TO.P,J16,4*%
%TO.N,/H2*%
X137160000Y-99060000D03*
%TO.P,J16,3*%
%TO.N,/H1*%
X134620000Y-99060000D03*
%TO.P,J16,2*%
%TO.N,/H0*%
X132080000Y-99060000D03*
D11*
%TO.P,J16,1*%
%TO.N,GND*%
X129540000Y-99060000D03*
%TD*%
D10*
%TO.P,J15,9*%
%TO.N,/D7*%
X58420000Y-38100000D03*
%TO.P,J15,8*%
%TO.N,/D6*%
X55880000Y-38100000D03*
%TO.P,J15,7*%
%TO.N,/D5*%
X53340000Y-38100000D03*
%TO.P,J15,6*%
%TO.N,/D4*%
X50800000Y-38100000D03*
%TO.P,J15,5*%
%TO.N,/D3*%
X48260000Y-38100000D03*
%TO.P,J15,4*%
%TO.N,/D2*%
X45720000Y-38100000D03*
%TO.P,J15,3*%
%TO.N,/D1*%
X43180000Y-38100000D03*
%TO.P,J15,2*%
%TO.N,/D0*%
X40640000Y-38100000D03*
D11*
%TO.P,J15,1*%
%TO.N,GND*%
X38100000Y-38100000D03*
%TD*%
D10*
%TO.P,J14,9*%
%TO.N,/G7*%
X119380000Y-99060000D03*
%TO.P,J14,8*%
%TO.N,/G6*%
X116840000Y-99060000D03*
%TO.P,J14,7*%
%TO.N,/G5*%
X114300000Y-99060000D03*
%TO.P,J14,6*%
%TO.N,/G4*%
X111760000Y-99060000D03*
%TO.P,J14,5*%
%TO.N,/G3*%
X109220000Y-99060000D03*
%TO.P,J14,4*%
%TO.N,/G2*%
X106680000Y-99060000D03*
%TO.P,J14,3*%
%TO.N,/G1*%
X104140000Y-99060000D03*
%TO.P,J14,2*%
%TO.N,/G0*%
X101600000Y-99060000D03*
D11*
%TO.P,J14,1*%
%TO.N,GND*%
X99060000Y-99060000D03*
%TD*%
D10*
%TO.P,J12,9*%
%TO.N,/G7*%
X119380000Y-95250000D03*
%TO.P,J12,8*%
%TO.N,/G6*%
X116840000Y-95250000D03*
%TO.P,J12,7*%
%TO.N,/G5*%
X114300000Y-95250000D03*
%TO.P,J12,6*%
%TO.N,/G4*%
X111760000Y-95250000D03*
%TO.P,J12,5*%
%TO.N,/G3*%
X109220000Y-95250000D03*
%TO.P,J12,4*%
%TO.N,/G2*%
X106680000Y-95250000D03*
%TO.P,J12,3*%
%TO.N,/G1*%
X104140000Y-95250000D03*
%TO.P,J12,2*%
%TO.N,/G0*%
X101600000Y-95250000D03*
D11*
%TO.P,J12,1*%
%TO.N,GND*%
X99060000Y-95250000D03*
%TD*%
D10*
%TO.P,J11,9*%
%TO.N,/C7*%
X88900000Y-38100000D03*
%TO.P,J11,8*%
%TO.N,/C6*%
X86360000Y-38100000D03*
%TO.P,J11,7*%
%TO.N,/C5*%
X83820000Y-38100000D03*
%TO.P,J11,6*%
%TO.N,/C4*%
X81280000Y-38100000D03*
%TO.P,J11,5*%
%TO.N,/C3*%
X78740000Y-38100000D03*
%TO.P,J11,4*%
%TO.N,/C2*%
X76200000Y-38100000D03*
%TO.P,J11,3*%
%TO.N,/C1*%
X73660000Y-38100000D03*
%TO.P,J11,2*%
%TO.N,/C0*%
X71120000Y-38100000D03*
D11*
%TO.P,J11,1*%
%TO.N,GND*%
X68580000Y-38100000D03*
%TD*%
D10*
%TO.P,J8,9*%
%TO.N,/F7*%
X149860000Y-38140000D03*
%TO.P,J8,8*%
%TO.N,/F6*%
X147320000Y-38140000D03*
%TO.P,J8,7*%
%TO.N,/F5*%
X144780000Y-38140000D03*
%TO.P,J8,6*%
%TO.N,/F4*%
X142240000Y-38140000D03*
%TO.P,J8,5*%
%TO.N,/F3*%
X139700000Y-38140000D03*
%TO.P,J8,4*%
%TO.N,/F2*%
X137160000Y-38140000D03*
%TO.P,J8,3*%
%TO.N,/F1*%
X134620000Y-38140000D03*
%TO.P,J8,2*%
%TO.N,/F0*%
X132080000Y-38140000D03*
D11*
%TO.P,J8,1*%
%TO.N,GND*%
X129540000Y-38140000D03*
%TD*%
D10*
%TO.P,J6,9*%
%TO.N,/F7*%
X149860000Y-41910000D03*
%TO.P,J6,8*%
%TO.N,/F6*%
X147320000Y-41910000D03*
%TO.P,J6,7*%
%TO.N,/F5*%
X144780000Y-41910000D03*
%TO.P,J6,6*%
%TO.N,/F4*%
X142240000Y-41910000D03*
%TO.P,J6,5*%
%TO.N,/F3*%
X139700000Y-41910000D03*
%TO.P,J6,4*%
%TO.N,/F2*%
X137160000Y-41910000D03*
%TO.P,J6,3*%
%TO.N,/F1*%
X134620000Y-41910000D03*
%TO.P,J6,2*%
%TO.N,/F0*%
X132080000Y-41910000D03*
D11*
%TO.P,J6,1*%
%TO.N,GND*%
X129540000Y-41910000D03*
%TD*%
D10*
%TO.P,J5,9*%
%TO.N,/B7*%
X88900000Y-99060000D03*
%TO.P,J5,8*%
%TO.N,/B6*%
X86360000Y-99060000D03*
%TO.P,J5,7*%
%TO.N,/B5*%
X83820000Y-99060000D03*
%TO.P,J5,6*%
%TO.N,/B4*%
X81280000Y-99060000D03*
%TO.P,J5,5*%
%TO.N,/B3*%
X78740000Y-99060000D03*
%TO.P,J5,4*%
%TO.N,/B2*%
X76200000Y-99060000D03*
%TO.P,J5,3*%
%TO.N,/B1*%
X73660000Y-99060000D03*
%TO.P,J5,2*%
%TO.N,/B0*%
X71120000Y-99060000D03*
D11*
%TO.P,J5,1*%
%TO.N,GND*%
X68580000Y-99060000D03*
%TD*%
D10*
%TO.P,J4,9*%
%TO.N,/E7*%
X119380000Y-38100000D03*
%TO.P,J4,8*%
%TO.N,/E6*%
X116840000Y-38100000D03*
D12*
%TO.P,J4,7*%
%TO.N,/E5*%
X114300000Y-38100000D03*
%TO.P,J4,6*%
%TO.N,/E4*%
X111760000Y-38100000D03*
D10*
%TO.P,J4,5*%
%TO.N,/E3*%
X109220000Y-38100000D03*
%TO.P,J4,4*%
%TO.N,/E2*%
X106680000Y-38100000D03*
%TO.P,J4,3*%
%TO.N,/E1*%
X104140000Y-38100000D03*
%TO.P,J4,2*%
%TO.N,/E0*%
X101600000Y-38100000D03*
D11*
%TO.P,J4,1*%
%TO.N,GND*%
X99060000Y-38100000D03*
%TD*%
D10*
%TO.P,J2,9*%
%TO.N,/E7*%
X119380000Y-41910000D03*
%TO.P,J2,8*%
%TO.N,/E6*%
X116840000Y-41910000D03*
D12*
%TO.P,J2,7*%
%TO.N,/E5*%
X114300000Y-41910000D03*
%TO.P,J2,6*%
%TO.N,/E4*%
X111760000Y-41910000D03*
D10*
%TO.P,J2,5*%
%TO.N,/E3*%
X109220000Y-41910000D03*
%TO.P,J2,4*%
%TO.N,/E2*%
X106680000Y-41910000D03*
%TO.P,J2,3*%
%TO.N,/E1*%
X104140000Y-41910000D03*
%TO.P,J2,2*%
%TO.N,/E0*%
X101600000Y-41910000D03*
D11*
%TO.P,J2,1*%
%TO.N,GND*%
X99060000Y-41910000D03*
%TD*%
D10*
%TO.P,J1,9*%
%TO.N,/A7*%
X58420000Y-99060000D03*
%TO.P,J1,8*%
%TO.N,/A6*%
X55880000Y-99060000D03*
%TO.P,J1,7*%
%TO.N,/A5*%
X53340000Y-99060000D03*
%TO.P,J1,6*%
%TO.N,/A4*%
X50800000Y-99060000D03*
%TO.P,J1,5*%
%TO.N,/A3*%
X48260000Y-99060000D03*
%TO.P,J1,4*%
%TO.N,/A2*%
X45720000Y-99060000D03*
%TO.P,J1,3*%
%TO.N,/A1*%
X43180000Y-99060000D03*
%TO.P,J1,2*%
%TO.N,/A0*%
X40640000Y-99060000D03*
D11*
%TO.P,J1,1*%
%TO.N,GND*%
X38100000Y-99060000D03*
%TD*%
D13*
%TO.P,C8,2*%
%TO.N,GND*%
X148590000Y-74690000D03*
D14*
%TO.P,C8,1*%
%TO.N,VCC*%
X148590000Y-59690000D03*
%TD*%
D13*
%TO.P,C7,2*%
%TO.N,GND*%
X133350000Y-74690000D03*
D14*
%TO.P,C7,1*%
%TO.N,VCC*%
X133350000Y-59690000D03*
%TD*%
D13*
%TO.P,C6,2*%
%TO.N,GND*%
X118110000Y-74690000D03*
D14*
%TO.P,C6,1*%
%TO.N,VCC*%
X118110000Y-59690000D03*
%TD*%
D13*
%TO.P,C5,2*%
%TO.N,GND*%
X102870000Y-74690000D03*
D14*
%TO.P,C5,1*%
%TO.N,VCC*%
X102870000Y-59690000D03*
%TD*%
D13*
%TO.P,C4,2*%
%TO.N,GND*%
X87630000Y-74690000D03*
D14*
%TO.P,C4,1*%
%TO.N,VCC*%
X87630000Y-59690000D03*
%TD*%
D13*
%TO.P,C3,2*%
%TO.N,GND*%
X72390000Y-74690000D03*
D14*
%TO.P,C3,1*%
%TO.N,VCC*%
X72390000Y-59690000D03*
%TD*%
D13*
%TO.P,C2,2*%
%TO.N,GND*%
X57150000Y-74690000D03*
D14*
%TO.P,C2,1*%
%TO.N,VCC*%
X57150000Y-59690000D03*
%TD*%
D13*
%TO.P,C1,2*%
%TO.N,GND*%
X41910000Y-74690000D03*
D14*
%TO.P,C1,1*%
%TO.N,VCC*%
X41910000Y-59690000D03*
%TD*%
D15*
%TO.P,U8,16*%
%TO.N,VCC*%
X152400000Y-58420000D03*
%TO.P,U8,8*%
%TO.N,GND*%
X144780000Y-76200000D03*
%TO.P,U8,15*%
%TO.N,/E7*%
X152400000Y-60960000D03*
%TO.P,U8,7*%
%TO.N,/~E*%
X144780000Y-73660000D03*
%TO.P,U8,14*%
%TO.N,/F7*%
X152400000Y-63500000D03*
%TO.P,U8,6*%
%TO.N,Net-(U8-Pad6)*%
X144780000Y-71120000D03*
%TO.P,U8,13*%
%TO.N,/G7*%
X152400000Y-66040000D03*
%TO.P,U8,5*%
%TO.N,/O7*%
X144780000Y-68580000D03*
%TO.P,U8,12*%
%TO.N,/H7*%
X152400000Y-68580000D03*
%TO.P,U8,4*%
%TO.N,/A7*%
X144780000Y-66040000D03*
%TO.P,U8,11*%
%TO.N,/S0*%
X152400000Y-71120000D03*
%TO.P,U8,3*%
%TO.N,/B7*%
X144780000Y-63500000D03*
%TO.P,U8,10*%
%TO.N,/S1*%
X152400000Y-73660000D03*
%TO.P,U8,2*%
%TO.N,/C7*%
X144780000Y-60960000D03*
%TO.P,U8,9*%
%TO.N,/S2*%
X152400000Y-76200000D03*
D16*
%TO.P,U8,1*%
%TO.N,/D7*%
X144780000Y-58420000D03*
%TD*%
D15*
%TO.P,U7,16*%
%TO.N,VCC*%
X137160000Y-58420000D03*
%TO.P,U7,8*%
%TO.N,GND*%
X129540000Y-76200000D03*
%TO.P,U7,15*%
%TO.N,/E6*%
X137160000Y-60960000D03*
%TO.P,U7,7*%
%TO.N,/~E*%
X129540000Y-73660000D03*
%TO.P,U7,14*%
%TO.N,/F6*%
X137160000Y-63500000D03*
%TO.P,U7,6*%
%TO.N,Net-(U7-Pad6)*%
X129540000Y-71120000D03*
%TO.P,U7,13*%
%TO.N,/G6*%
X137160000Y-66040000D03*
%TO.P,U7,5*%
%TO.N,/O6*%
X129540000Y-68580000D03*
%TO.P,U7,12*%
%TO.N,/H6*%
X137160000Y-68580000D03*
%TO.P,U7,4*%
%TO.N,/A6*%
X129540000Y-66040000D03*
%TO.P,U7,11*%
%TO.N,/S0*%
X137160000Y-71120000D03*
%TO.P,U7,3*%
%TO.N,/B6*%
X129540000Y-63500000D03*
%TO.P,U7,10*%
%TO.N,/S1*%
X137160000Y-73660000D03*
%TO.P,U7,2*%
%TO.N,/C6*%
X129540000Y-60960000D03*
%TO.P,U7,9*%
%TO.N,/S2*%
X137160000Y-76200000D03*
D16*
%TO.P,U7,1*%
%TO.N,/D6*%
X129540000Y-58420000D03*
%TD*%
D15*
%TO.P,U6,16*%
%TO.N,VCC*%
X121920000Y-58420000D03*
%TO.P,U6,8*%
%TO.N,GND*%
X114300000Y-76200000D03*
%TO.P,U6,15*%
%TO.N,/E5*%
X121920000Y-60960000D03*
%TO.P,U6,7*%
%TO.N,/~E*%
X114300000Y-73660000D03*
%TO.P,U6,14*%
%TO.N,/F5*%
X121920000Y-63500000D03*
%TO.P,U6,6*%
%TO.N,Net-(U6-Pad6)*%
X114300000Y-71120000D03*
%TO.P,U6,13*%
%TO.N,/G5*%
X121920000Y-66040000D03*
%TO.P,U6,5*%
%TO.N,/O5*%
X114300000Y-68580000D03*
%TO.P,U6,12*%
%TO.N,/H5*%
X121920000Y-68580000D03*
%TO.P,U6,4*%
%TO.N,/A5*%
X114300000Y-66040000D03*
%TO.P,U6,11*%
%TO.N,/S0*%
X121920000Y-71120000D03*
%TO.P,U6,3*%
%TO.N,/B5*%
X114300000Y-63500000D03*
%TO.P,U6,10*%
%TO.N,/S1*%
X121920000Y-73660000D03*
%TO.P,U6,2*%
%TO.N,/C5*%
X114300000Y-60960000D03*
%TO.P,U6,9*%
%TO.N,/S2*%
X121920000Y-76200000D03*
D16*
%TO.P,U6,1*%
%TO.N,/D5*%
X114300000Y-58420000D03*
%TD*%
D15*
%TO.P,U5,16*%
%TO.N,VCC*%
X106680000Y-58420000D03*
%TO.P,U5,8*%
%TO.N,GND*%
X99060000Y-76200000D03*
%TO.P,U5,15*%
%TO.N,/E4*%
X106680000Y-60960000D03*
%TO.P,U5,7*%
%TO.N,/~E*%
X99060000Y-73660000D03*
%TO.P,U5,14*%
%TO.N,/F4*%
X106680000Y-63500000D03*
%TO.P,U5,6*%
%TO.N,Net-(U5-Pad6)*%
X99060000Y-71120000D03*
%TO.P,U5,13*%
%TO.N,/G4*%
X106680000Y-66040000D03*
%TO.P,U5,5*%
%TO.N,/O4*%
X99060000Y-68580000D03*
%TO.P,U5,12*%
%TO.N,/H4*%
X106680000Y-68580000D03*
%TO.P,U5,4*%
%TO.N,/A4*%
X99060000Y-66040000D03*
%TO.P,U5,11*%
%TO.N,/S0*%
X106680000Y-71120000D03*
%TO.P,U5,3*%
%TO.N,/B4*%
X99060000Y-63500000D03*
%TO.P,U5,10*%
%TO.N,/S1*%
X106680000Y-73660000D03*
%TO.P,U5,2*%
%TO.N,/C4*%
X99060000Y-60960000D03*
%TO.P,U5,9*%
%TO.N,/S2*%
X106680000Y-76200000D03*
D16*
%TO.P,U5,1*%
%TO.N,/D4*%
X99060000Y-58420000D03*
%TD*%
D15*
%TO.P,U4,16*%
%TO.N,VCC*%
X91440000Y-58420000D03*
%TO.P,U4,8*%
%TO.N,GND*%
X83820000Y-76200000D03*
%TO.P,U4,15*%
%TO.N,/E3*%
X91440000Y-60960000D03*
%TO.P,U4,7*%
%TO.N,/~E*%
X83820000Y-73660000D03*
%TO.P,U4,14*%
%TO.N,/F3*%
X91440000Y-63500000D03*
%TO.P,U4,6*%
%TO.N,Net-(U4-Pad6)*%
X83820000Y-71120000D03*
%TO.P,U4,13*%
%TO.N,/G3*%
X91440000Y-66040000D03*
%TO.P,U4,5*%
%TO.N,/O3*%
X83820000Y-68580000D03*
%TO.P,U4,12*%
%TO.N,/H3*%
X91440000Y-68580000D03*
%TO.P,U4,4*%
%TO.N,/A3*%
X83820000Y-66040000D03*
%TO.P,U4,11*%
%TO.N,/S0*%
X91440000Y-71120000D03*
%TO.P,U4,3*%
%TO.N,/B3*%
X83820000Y-63500000D03*
%TO.P,U4,10*%
%TO.N,/S1*%
X91440000Y-73660000D03*
%TO.P,U4,2*%
%TO.N,/C3*%
X83820000Y-60960000D03*
%TO.P,U4,9*%
%TO.N,/S2*%
X91440000Y-76200000D03*
D16*
%TO.P,U4,1*%
%TO.N,/D3*%
X83820000Y-58420000D03*
%TD*%
D15*
%TO.P,U3,16*%
%TO.N,VCC*%
X76200000Y-58420000D03*
%TO.P,U3,8*%
%TO.N,GND*%
X68580000Y-76200000D03*
%TO.P,U3,15*%
%TO.N,/E2*%
X76200000Y-60960000D03*
%TO.P,U3,7*%
%TO.N,/~E*%
X68580000Y-73660000D03*
%TO.P,U3,14*%
%TO.N,/F2*%
X76200000Y-63500000D03*
%TO.P,U3,6*%
%TO.N,Net-(U3-Pad6)*%
X68580000Y-71120000D03*
%TO.P,U3,13*%
%TO.N,/G2*%
X76200000Y-66040000D03*
%TO.P,U3,5*%
%TO.N,/O2*%
X68580000Y-68580000D03*
%TO.P,U3,12*%
%TO.N,/H2*%
X76200000Y-68580000D03*
%TO.P,U3,4*%
%TO.N,/A2*%
X68580000Y-66040000D03*
%TO.P,U3,11*%
%TO.N,/S0*%
X76200000Y-71120000D03*
%TO.P,U3,3*%
%TO.N,/B2*%
X68580000Y-63500000D03*
%TO.P,U3,10*%
%TO.N,/S1*%
X76200000Y-73660000D03*
%TO.P,U3,2*%
%TO.N,/C2*%
X68580000Y-60960000D03*
%TO.P,U3,9*%
%TO.N,/S2*%
X76200000Y-76200000D03*
D16*
%TO.P,U3,1*%
%TO.N,/D2*%
X68580000Y-58420000D03*
%TD*%
D15*
%TO.P,U2,16*%
%TO.N,VCC*%
X60960000Y-58420000D03*
%TO.P,U2,8*%
%TO.N,GND*%
X53340000Y-76200000D03*
%TO.P,U2,15*%
%TO.N,/E1*%
X60960000Y-60960000D03*
%TO.P,U2,7*%
%TO.N,/~E*%
X53340000Y-73660000D03*
%TO.P,U2,14*%
%TO.N,/F1*%
X60960000Y-63500000D03*
%TO.P,U2,6*%
%TO.N,Net-(U2-Pad6)*%
X53340000Y-71120000D03*
%TO.P,U2,13*%
%TO.N,/G1*%
X60960000Y-66040000D03*
%TO.P,U2,5*%
%TO.N,/O1*%
X53340000Y-68580000D03*
%TO.P,U2,12*%
%TO.N,/H1*%
X60960000Y-68580000D03*
%TO.P,U2,4*%
%TO.N,/A1*%
X53340000Y-66040000D03*
%TO.P,U2,11*%
%TO.N,/S0*%
X60960000Y-71120000D03*
%TO.P,U2,3*%
%TO.N,/B1*%
X53340000Y-63500000D03*
%TO.P,U2,10*%
%TO.N,/S1*%
X60960000Y-73660000D03*
%TO.P,U2,2*%
%TO.N,/C1*%
X53340000Y-60960000D03*
%TO.P,U2,9*%
%TO.N,/S2*%
X60960000Y-76200000D03*
D16*
%TO.P,U2,1*%
%TO.N,/D1*%
X53340000Y-58420000D03*
%TD*%
D15*
%TO.P,U1,16*%
%TO.N,VCC*%
X45720000Y-58420000D03*
%TO.P,U1,8*%
%TO.N,GND*%
X38100000Y-76200000D03*
%TO.P,U1,15*%
%TO.N,/E0*%
X45720000Y-60960000D03*
%TO.P,U1,7*%
%TO.N,/~E*%
X38100000Y-73660000D03*
%TO.P,U1,14*%
%TO.N,/F0*%
X45720000Y-63500000D03*
%TO.P,U1,6*%
%TO.N,Net-(U1-Pad6)*%
X38100000Y-71120000D03*
%TO.P,U1,13*%
%TO.N,/G0*%
X45720000Y-66040000D03*
%TO.P,U1,5*%
%TO.N,/O0*%
X38100000Y-68580000D03*
%TO.P,U1,12*%
%TO.N,/H0*%
X45720000Y-68580000D03*
%TO.P,U1,4*%
%TO.N,/A0*%
X38100000Y-66040000D03*
%TO.P,U1,11*%
%TO.N,/S0*%
X45720000Y-71120000D03*
%TO.P,U1,3*%
%TO.N,/B0*%
X38100000Y-63500000D03*
%TO.P,U1,10*%
%TO.N,/S1*%
X45720000Y-73660000D03*
%TO.P,U1,2*%
%TO.N,/C0*%
X38100000Y-60960000D03*
%TO.P,U1,9*%
%TO.N,/S2*%
X45720000Y-76200000D03*
D16*
%TO.P,U1,1*%
%TO.N,/D0*%
X38100000Y-58420000D03*
%TD*%
D11*
%TO.P,J20,1*%
%TO.N,/~E*%
X30480000Y-73660000D03*
%TD*%
D15*
%TO.P,J10,3*%
%TO.N,/S2*%
X157480000Y-76200000D03*
%TO.P,J10,2*%
%TO.N,/S1*%
X157480000Y-73660000D03*
D16*
%TO.P,J10,1*%
%TO.N,/S0*%
X157480000Y-71120000D03*
%TD*%
D17*
%TO.P,J9,2*%
%TO.N,GND*%
X162480000Y-96520000D03*
D18*
%TO.P,J9,1*%
%TO.N,VCC*%
X157480000Y-96520000D03*
%TD*%
D19*
%TO.N,GND*%
X171450000Y-54610000D03*
X144780000Y-80010000D03*
X129540000Y-80010000D03*
X114300000Y-80010000D03*
X99060000Y-80010000D03*
X83820000Y-80010000D03*
X68580000Y-80010000D03*
X53340000Y-80010000D03*
X38100000Y-80010000D03*
X38100000Y-95250000D03*
X68580000Y-95250000D03*
X95250000Y-99060000D03*
X125730000Y-99060000D03*
X125730000Y-41910000D03*
X95250000Y-41910000D03*
X68580000Y-41910000D03*
X38100000Y-41910000D03*
X170180000Y-88900000D03*
%TO.N,VCC*%
X157480000Y-88900000D03*
X151130000Y-53340000D03*
X138430000Y-53340000D03*
X123190000Y-53340000D03*
X109220000Y-53340000D03*
X92710000Y-53340000D03*
X77470000Y-53340000D03*
X59690000Y-53340000D03*
X45720000Y-53340000D03*
X153670000Y-53340000D03*
X135890000Y-53340000D03*
X120650000Y-53340000D03*
X104140000Y-53340000D03*
X90170000Y-53340000D03*
X74930000Y-53340000D03*
X62230000Y-53340000D03*
D20*
%TO.N,/A6*%
X121047400Y-95492800D03*
%TO.N,/A5*%
X118812900Y-88501900D03*
%TO.N,/A4*%
X86160600Y-93622200D03*
%TO.N,/A3*%
X80277400Y-88482200D03*
%TO.N,/E2*%
X81507700Y-48395900D03*
%TO.N,/B6*%
X118813500Y-91283200D03*
%TO.N,/F3*%
X124390300Y-57219700D03*
%TO.N,/F2*%
X119702800Y-51652700D03*
%TO.N,/F1*%
X121368200Y-50515400D03*
%TO.N,/C6*%
X104111300Y-55672600D03*
%TO.N,/C5*%
X101288200Y-61040800D03*
%TO.N,/C0*%
X58707800Y-48938500D03*
%TO.N,/G3*%
X93975900Y-84526300D03*
%TO.N,/G2*%
X80588500Y-84595800D03*
%TO.N,/G1*%
X72886000Y-86381400D03*
%TO.N,/G0*%
X68229700Y-87431800D03*
%TO.N,/D6*%
X74023800Y-49446300D03*
%TO.N,/D4*%
X74976200Y-57170000D03*
%TO.N,/H6*%
X142756400Y-68993800D03*
%TO.N,/H5*%
X123777100Y-80592000D03*
%TO.N,/H4*%
X115436200Y-83238000D03*
%TO.N,/H3*%
X93293600Y-79361700D03*
%TO.N,/H2*%
X79502200Y-78515100D03*
%TO.N,/H1*%
X65446900Y-78506000D03*
%TO.N,/O6*%
X134829700Y-78150300D03*
%TO.N,/O3*%
X91542700Y-78150400D03*
%TO.N,/O2*%
X73692200Y-83476000D03*
%TD*%
D21*
%TO.N,/A6*%
X55880000Y-99060000D02*
X57581300Y-97358700D01*
X57581300Y-97358700D02*
X86959200Y-97358700D01*
X86959200Y-97358700D02*
X87659500Y-96658400D01*
X87659500Y-96658400D02*
X119881800Y-96658400D01*
X119881800Y-96658400D02*
X121047400Y-95492800D01*
%TO.N,/A5*%
X53340000Y-99060000D02*
X55550700Y-101270700D01*
X55550700Y-101270700D02*
X120048600Y-101270700D01*
X120048600Y-101270700D02*
X122851100Y-98468200D01*
X122851100Y-98468200D02*
X122851100Y-92540100D01*
X122851100Y-92540100D02*
X118812900Y-88501900D01*
%TO.N,/A4*%
X50800000Y-99060000D02*
X56237800Y-93622200D01*
X56237800Y-93622200D02*
X86160600Y-93622200D01*
%TO.N,/A3*%
X48260000Y-99060000D02*
X58837800Y-88482200D01*
X58837800Y-88482200D02*
X80277400Y-88482200D01*
%TO.N,/A2*%
X45720000Y-97710000D02*
X45720000Y-99060000D01*
X34290000Y-86280000D02*
X45720000Y-97710000D01*
X34290000Y-71437500D02*
X34290000Y-86280000D01*
X35850200Y-69877300D02*
X34290000Y-71437500D01*
X39540900Y-69877300D02*
X35850200Y-69877300D01*
X44628200Y-64790000D02*
X39540900Y-69877300D01*
X66675000Y-66040000D02*
X65425000Y-64790000D01*
X68580000Y-66040000D02*
X66675000Y-66040000D01*
X65425000Y-64790000D02*
X44628200Y-64790000D01*
%TO.N,/E7*%
X155575000Y-60960000D02*
X152400000Y-60960000D01*
X157162500Y-59372500D02*
X155575000Y-60960000D01*
X157162500Y-51435000D02*
X157162500Y-59372500D01*
X153832700Y-48105200D02*
X157162500Y-51435000D01*
X120730000Y-39016700D02*
X129818500Y-48105200D01*
X129818500Y-48105200D02*
X153832700Y-48105200D01*
X120730000Y-38100000D02*
X120730000Y-39016700D01*
X119380000Y-38100000D02*
X120730000Y-38100000D01*
%TO.N,/E6*%
X119720900Y-43520900D02*
X118450900Y-43520900D01*
X118450900Y-43520900D02*
X116840000Y-41910000D01*
X137160000Y-60960000D02*
X135572500Y-60960000D01*
X135096250Y-60483750D02*
X135096250Y-58896250D01*
X135572500Y-60960000D02*
X135096250Y-60483750D01*
X135096250Y-58896250D02*
X119720900Y-43520900D01*
%TO.N,/E2*%
X106680000Y-41910000D02*
X100194100Y-48395900D01*
X100194100Y-48395900D02*
X81507700Y-48395900D01*
%TO.N,/E1*%
X74594400Y-47325600D02*
X98724400Y-47325600D01*
X98724400Y-47325600D02*
X104140000Y-41910000D01*
X60960000Y-60960000D02*
X62230000Y-60960000D01*
X63023750Y-60166250D02*
X63023750Y-58896250D01*
X62230000Y-60960000D02*
X63023750Y-60166250D01*
X63023750Y-58896250D02*
X74594400Y-47325600D01*
%TO.N,/E0*%
X99897500Y-43612500D02*
X101600000Y-41910000D01*
X74455200Y-43612500D02*
X99897500Y-43612500D01*
X61769100Y-55757300D02*
X62310400Y-55757300D01*
X62310400Y-55757300D02*
X74455200Y-43612500D01*
X58743700Y-58782700D02*
X61769100Y-55757300D01*
X58743700Y-60953800D02*
X58743700Y-58782700D01*
X57487500Y-62210000D02*
X58743700Y-60953800D01*
X49232500Y-62210000D02*
X57487500Y-62210000D01*
X47982500Y-60960000D02*
X49232500Y-62210000D01*
X45720000Y-60960000D02*
X47982500Y-60960000D01*
%TO.N,/B6*%
X118813500Y-91283200D02*
X122150700Y-94620400D01*
X122150700Y-94620400D02*
X122150700Y-98173400D01*
X122150700Y-98173400D02*
X119807100Y-100517000D01*
X119807100Y-100517000D02*
X94576700Y-100517000D01*
X94576700Y-100517000D02*
X91768500Y-97708800D01*
X91768500Y-97708800D02*
X87711200Y-97708800D01*
X87711200Y-97708800D02*
X86360000Y-99060000D01*
%TO.N,/F3*%
X100202700Y-59620400D02*
X102603400Y-57219700D01*
X102603400Y-57219700D02*
X124390300Y-57219700D01*
X91440000Y-63500000D02*
X93345000Y-63500000D01*
X93345000Y-63500000D02*
X97224600Y-59620400D01*
X97224600Y-59620400D02*
X100202700Y-59620400D01*
%TO.N,/F2*%
X86828900Y-51652700D02*
X119702800Y-51652700D01*
X82621500Y-55860100D02*
X86828900Y-51652700D01*
X74773500Y-55860100D02*
X82621500Y-55860100D01*
X73925800Y-56707800D02*
X74773500Y-55860100D01*
X73925800Y-62495800D02*
X73925800Y-56707800D01*
X74930000Y-63500000D02*
X73925800Y-62495800D01*
X76200000Y-63500000D02*
X74930000Y-63500000D01*
%TO.N,/F1*%
X73944600Y-50515400D02*
X121368200Y-50515400D01*
X60960000Y-63500000D02*
X62547500Y-63500000D01*
X64135000Y-61912500D02*
X64135000Y-60325000D01*
X62547500Y-63500000D02*
X64135000Y-61912500D01*
X64135000Y-60325000D02*
X73944600Y-50515400D01*
%TO.N,/F0*%
X45720000Y-63500000D02*
X44269600Y-62049600D01*
X44269600Y-62049600D02*
X44269600Y-53596800D01*
X44269600Y-53596800D02*
X36647800Y-45975000D01*
X36647800Y-45975000D02*
X36647800Y-37199500D01*
X36647800Y-37199500D02*
X37794300Y-36053000D01*
X37794300Y-36053000D02*
X129993000Y-36053000D01*
X129993000Y-36053000D02*
X132080000Y-38140000D01*
%TO.N,/C7*%
X88900000Y-38100000D02*
X90250000Y-38100000D01*
X144780000Y-60960000D02*
X143380000Y-60960000D01*
X143380000Y-60960000D02*
X139239800Y-56819800D01*
X139239800Y-56819800D02*
X136128800Y-56819800D01*
X136128800Y-56819800D02*
X119768600Y-40459600D01*
X119768600Y-40459600D02*
X92609600Y-40459600D01*
X92609600Y-40459600D02*
X90250000Y-38100000D01*
%TO.N,/C6*%
X124808900Y-56124400D02*
X112563900Y-56124400D01*
X112563900Y-56124400D02*
X112366500Y-56321800D01*
X112366500Y-56321800D02*
X104760500Y-56321800D01*
X104760500Y-56321800D02*
X104111300Y-55672600D01*
X129540000Y-60960000D02*
X127635000Y-60960000D01*
X126893500Y-60218500D02*
X126893500Y-58209000D01*
X127635000Y-60960000D02*
X126893500Y-60218500D01*
X126893500Y-58209000D02*
X124808900Y-56124400D01*
%TO.N,/C5*%
X104650200Y-59710000D02*
X103319400Y-61040800D01*
X103319400Y-61040800D02*
X101288200Y-61040800D01*
X111442500Y-60960000D02*
X110192500Y-59710000D01*
X114300000Y-60960000D02*
X111442500Y-60960000D01*
X110192500Y-59710000D02*
X104650200Y-59710000D01*
%TO.N,/C1*%
X73660000Y-38100000D02*
X73660000Y-39450000D01*
X55999400Y-58066200D02*
X55999400Y-54966400D01*
X55999400Y-54966400D02*
X65969400Y-44996400D01*
X65969400Y-44996400D02*
X68113600Y-44996400D01*
X68113600Y-44996400D02*
X73660000Y-39450000D01*
X53340000Y-60960000D02*
X54610000Y-60960000D01*
X55127800Y-60442200D02*
X55127800Y-58937800D01*
X54610000Y-60960000D02*
X55127800Y-60442200D01*
X55127800Y-58937800D02*
X55999400Y-58066200D01*
%TO.N,/C0*%
X71120000Y-38100000D02*
X69537700Y-39682300D01*
X69537700Y-39682300D02*
X67964000Y-39682300D01*
X67964000Y-39682300D02*
X58707800Y-48938500D01*
%TO.N,/G3*%
X109220000Y-95250000D02*
X104056400Y-90086400D01*
X104056400Y-90086400D02*
X99536000Y-90086400D01*
X99536000Y-90086400D02*
X93975900Y-84526300D01*
%TO.N,/G2*%
X106680000Y-95250000D02*
X102564800Y-91134800D01*
X102564800Y-91134800D02*
X97147000Y-91134800D01*
X97147000Y-91134800D02*
X90608000Y-84595800D01*
X90608000Y-84595800D02*
X80588500Y-84595800D01*
%TO.N,/G1*%
X72886000Y-86381400D02*
X87295600Y-86381400D01*
X87295600Y-86381400D02*
X93840400Y-92926200D01*
X93840400Y-92926200D02*
X101816200Y-92926200D01*
X101816200Y-92926200D02*
X104140000Y-95250000D01*
%TO.N,/G0*%
X68229700Y-87431800D02*
X81499800Y-87431800D01*
X81499800Y-87431800D02*
X87883600Y-93815600D01*
X87883600Y-93815600D02*
X100165600Y-93815600D01*
X100165600Y-93815600D02*
X101600000Y-95250000D01*
%TO.N,/D7*%
X144780000Y-57170000D02*
X143379400Y-55769400D01*
X143379400Y-55769400D02*
X136239000Y-55769400D01*
X136239000Y-55769400D02*
X120228800Y-39759200D01*
X120228800Y-39759200D02*
X95308700Y-39759200D01*
X95308700Y-39759200D02*
X92349200Y-36799700D01*
X92349200Y-36799700D02*
X61070300Y-36799700D01*
X61070300Y-36799700D02*
X59770000Y-38100000D01*
X58420000Y-38100000D02*
X59770000Y-38100000D01*
X144780000Y-58420000D02*
X144780000Y-57170000D01*
%TO.N,/D6*%
X129540000Y-57170000D02*
X121816300Y-49446300D01*
X121816300Y-49446300D02*
X74023800Y-49446300D01*
X129540000Y-58420000D02*
X129540000Y-57170000D01*
%TO.N,/D4*%
X99060000Y-57170000D02*
X74976200Y-57170000D01*
X99060000Y-58420000D02*
X99060000Y-57170000D01*
%TO.N,/D1*%
X43180000Y-38100000D02*
X43180000Y-39450000D01*
X53340000Y-58420000D02*
X53340000Y-49610000D01*
X53340000Y-49610000D02*
X43180000Y-39450000D01*
%TO.N,/H6*%
X137160000Y-68580000D02*
X142342600Y-68580000D01*
X142342600Y-68580000D02*
X142756400Y-68993800D01*
%TO.N,/H5*%
X123777100Y-80592000D02*
X125648700Y-82463600D01*
X125648700Y-82463600D02*
X131993600Y-82463600D01*
X131993600Y-82463600D02*
X144780000Y-95250000D01*
%TO.N,/H4*%
X115436200Y-83238000D02*
X130228000Y-83238000D01*
X130228000Y-83238000D02*
X142240000Y-95250000D01*
%TO.N,/H3*%
X139700000Y-95250000D02*
X128761500Y-84311500D01*
X128761500Y-84311500D02*
X100115000Y-84311500D01*
X100115000Y-84311500D02*
X95165200Y-79361700D01*
X95165200Y-79361700D02*
X93293600Y-79361700D01*
%TO.N,/H2*%
X137160000Y-95250000D02*
X126921800Y-85011800D01*
X126921800Y-85011800D02*
X99824800Y-85011800D01*
X99824800Y-85011800D02*
X96188100Y-81375100D01*
X96188100Y-81375100D02*
X90041500Y-81375100D01*
X90041500Y-81375100D02*
X87181500Y-78515100D01*
X87181500Y-78515100D02*
X79502200Y-78515100D01*
%TO.N,/H1*%
X134620000Y-95250000D02*
X125082100Y-85712100D01*
X125082100Y-85712100D02*
X98790000Y-85712100D01*
X98790000Y-85712100D02*
X95153300Y-82075400D01*
X95153300Y-82075400D02*
X89751300Y-82075400D01*
X89751300Y-82075400D02*
X89387900Y-81712000D01*
X89387900Y-81712000D02*
X78881400Y-81712000D01*
X78881400Y-81712000D02*
X75675400Y-78506000D01*
X75675400Y-78506000D02*
X65446900Y-78506000D01*
%TO.N,/H0*%
X123242400Y-86412400D02*
X132080000Y-95250000D01*
X98499800Y-86412400D02*
X123242400Y-86412400D01*
X94863100Y-82775700D02*
X98499800Y-86412400D01*
X89286100Y-82775700D02*
X94863100Y-82775700D01*
X88922800Y-82412400D02*
X89286100Y-82775700D01*
X35560000Y-81597500D02*
X36374900Y-82412400D01*
X35560000Y-72707500D02*
X35560000Y-81597500D01*
X36374900Y-82412400D02*
X88922800Y-82412400D01*
X35907900Y-72359600D02*
X35560000Y-72707500D01*
X41940400Y-72359600D02*
X35907900Y-72359600D01*
X45720000Y-68580000D02*
X41940400Y-72359600D01*
%TO.N,/S2*%
X106680000Y-77250000D02*
X106830400Y-77400400D01*
X106830400Y-77400400D02*
X121920000Y-77400400D01*
X121920000Y-76200000D02*
X121920000Y-77400400D01*
X106680000Y-77250000D02*
X106480000Y-77450000D01*
X106480000Y-77450000D02*
X94090000Y-77450000D01*
X94090000Y-77450000D02*
X92840000Y-76200000D01*
X137209600Y-77450000D02*
X137160000Y-77400400D01*
X91440000Y-76200000D02*
X92840000Y-76200000D01*
X45720000Y-76200000D02*
X45720000Y-77450000D01*
X45720000Y-77450000D02*
X60960000Y-77450000D01*
X60960000Y-76200000D02*
X60960000Y-77450000D01*
X76200000Y-77400200D02*
X76150200Y-77450000D01*
X76150200Y-77450000D02*
X60960000Y-77450000D01*
X76200000Y-77400200D02*
X76200200Y-77400400D01*
X76200200Y-77400400D02*
X88839600Y-77400400D01*
X88839600Y-77400400D02*
X90040000Y-76200000D01*
X76200000Y-77250000D02*
X76200000Y-77400200D01*
X152400000Y-76200000D02*
X157480000Y-76200000D01*
X137160000Y-76200000D02*
X137160000Y-77400400D01*
X106680000Y-76200000D02*
X106680000Y-77250000D01*
X91440000Y-76200000D02*
X90040000Y-76200000D01*
X76200000Y-76200000D02*
X76200000Y-77250000D01*
X150812500Y-76200000D02*
X149562500Y-77450000D01*
X152400000Y-76200000D02*
X150812500Y-76200000D01*
X149562500Y-77450000D02*
X137209600Y-77450000D01*
X121920000Y-77450000D02*
X121920000Y-77400400D01*
X132060000Y-77450000D02*
X121920000Y-77450000D01*
X132430200Y-77079800D02*
X132060000Y-77450000D01*
X135457200Y-77079800D02*
X132430200Y-77079800D01*
X135777800Y-77400400D02*
X135457200Y-77079800D01*
X137160000Y-77400400D02*
X135777800Y-77400400D01*
%TO.N,/S1*%
X157480000Y-73660000D02*
X152400000Y-73660000D01*
X151407500Y-73660000D02*
X150157500Y-72410000D01*
X152400000Y-73660000D02*
X151407500Y-73660000D01*
X92531700Y-73660000D02*
X93732100Y-72459600D01*
X91440000Y-73660000D02*
X92531700Y-73660000D01*
X90487500Y-73660000D02*
X89237500Y-72410000D01*
X91440000Y-73660000D02*
X90487500Y-73660000D01*
X47347500Y-73660000D02*
X48597500Y-72410000D01*
X45720000Y-73660000D02*
X47347500Y-73660000D01*
X107771700Y-73660000D02*
X108972100Y-72459600D01*
X106680000Y-73660000D02*
X107771700Y-73660000D01*
X105905800Y-73660000D02*
X104705400Y-72459600D01*
X106680000Y-73660000D02*
X105905800Y-73660000D01*
X93732100Y-72459600D02*
X104705400Y-72459600D01*
X137160000Y-73660000D02*
X138112500Y-73660000D01*
X138112500Y-73660000D02*
X139362500Y-72410000D01*
X150157500Y-72410000D02*
X139362500Y-72410000D01*
X135890000Y-73660000D02*
X134689600Y-72459600D01*
X137160000Y-73660000D02*
X135890000Y-73660000D01*
X123329200Y-73660000D02*
X124529600Y-72459600D01*
X121920000Y-73660000D02*
X123329200Y-73660000D01*
X124529600Y-72459600D02*
X134689600Y-72459600D01*
X120510800Y-73660000D02*
X119310400Y-72459600D01*
X121920000Y-73660000D02*
X120510800Y-73660000D01*
X108972100Y-72459600D02*
X119310400Y-72459600D01*
X78145000Y-73660000D02*
X79395000Y-72410000D01*
X76200000Y-73660000D02*
X78145000Y-73660000D01*
X79395000Y-72410000D02*
X89237500Y-72410000D01*
X74930000Y-73660000D02*
X73680000Y-72410000D01*
X76200000Y-73660000D02*
X74930000Y-73660000D01*
X62230000Y-73660000D02*
X63480000Y-72410000D01*
X60960000Y-73660000D02*
X62230000Y-73660000D01*
X73680000Y-72410000D02*
X63480000Y-72410000D01*
X59967500Y-73660000D02*
X58717500Y-72410000D01*
X60960000Y-73660000D02*
X59967500Y-73660000D01*
X48597500Y-72410000D02*
X58717500Y-72410000D01*
%TO.N,/S0*%
X142147200Y-69870000D02*
X142328500Y-70051300D01*
X142328500Y-70051300D02*
X143480800Y-70051300D01*
X143480800Y-70051300D02*
X143662100Y-69870000D01*
X157480000Y-71120000D02*
X152400000Y-71120000D01*
X151447500Y-71120000D02*
X150197500Y-69870000D01*
X152400000Y-71120000D02*
X151447500Y-71120000D01*
X143662100Y-69870000D02*
X150197500Y-69870000D01*
X92392500Y-71120000D02*
X93642500Y-69870000D01*
X91440000Y-71120000D02*
X92392500Y-71120000D01*
X90487500Y-71120000D02*
X89262300Y-69894800D01*
X91440000Y-71120000D02*
X90487500Y-71120000D01*
X47347500Y-71120000D02*
X48597500Y-69870000D01*
X45720000Y-71120000D02*
X47347500Y-71120000D01*
X107990000Y-71120000D02*
X109240000Y-69870000D01*
X106680000Y-71120000D02*
X107990000Y-71120000D01*
X105727500Y-71120000D02*
X104477500Y-69870000D01*
X106680000Y-71120000D02*
X105727500Y-71120000D01*
X93642500Y-69870000D02*
X104477500Y-69870000D01*
X138430000Y-71120000D02*
X139680000Y-69870000D01*
X137160000Y-71120000D02*
X138430000Y-71120000D01*
X139680000Y-69870000D02*
X142147200Y-69870000D01*
X137160000Y-71120000D02*
X136485000Y-71120000D01*
X135572500Y-71120000D02*
X134322500Y-69870000D01*
X137160000Y-71120000D02*
X135572500Y-71120000D01*
X123507500Y-71120000D02*
X124757500Y-69870000D01*
X121920000Y-71120000D02*
X123507500Y-71120000D01*
X124757500Y-69870000D02*
X134322500Y-69870000D01*
X120332500Y-71120000D02*
X119082500Y-69870000D01*
X121920000Y-71120000D02*
X120332500Y-71120000D01*
X109240000Y-69870000D02*
X119082500Y-69870000D01*
X78105000Y-71120000D02*
X79330200Y-69894800D01*
X76200000Y-71120000D02*
X78105000Y-71120000D01*
X89262300Y-69894800D02*
X79330200Y-69894800D01*
X74612500Y-71120000D02*
X73387300Y-69894800D01*
X76200000Y-71120000D02*
X74612500Y-71120000D01*
X62002100Y-71120000D02*
X63227300Y-69894800D01*
X60960000Y-71120000D02*
X62002100Y-71120000D01*
X73387300Y-69894800D02*
X63227300Y-69894800D01*
X60007500Y-71120000D02*
X58757500Y-69870000D01*
X60960000Y-71120000D02*
X60007500Y-71120000D01*
X48597500Y-69870000D02*
X58757500Y-69870000D01*
%TO.N,/O7*%
X167640000Y-78740000D02*
X171450000Y-78740000D01*
%TO.N,/O6*%
X166290000Y-76200000D02*
X164339700Y-78150300D01*
X164339700Y-78150300D02*
X134829700Y-78150300D01*
X167640000Y-76200000D02*
X166290000Y-76200000D01*
X171450000Y-76200000D02*
X167640000Y-76200000D01*
%TO.N,/O5*%
X167640000Y-73660000D02*
X166290000Y-73660000D01*
X159960000Y-67330000D02*
X166290000Y-73660000D01*
X171450000Y-73660000D02*
X168990000Y-73660000D01*
X167640000Y-73660000D02*
X168990000Y-73660000D01*
X118110000Y-68580000D02*
X119360000Y-67330000D01*
X114300000Y-68580000D02*
X118110000Y-68580000D01*
X119360000Y-67330000D02*
X159960000Y-67330000D01*
%TO.N,/O4*%
X167640000Y-71120000D02*
X166290000Y-71120000D01*
X159965200Y-64795200D02*
X166290000Y-71120000D01*
X99060000Y-68580000D02*
X101282500Y-68580000D01*
X101282500Y-68580000D02*
X102844800Y-67017700D01*
X102895200Y-65747700D02*
X103847700Y-64795200D01*
X102844800Y-65747700D02*
X102895200Y-65747700D01*
X103847700Y-64795200D02*
X159965200Y-64795200D01*
X102844800Y-67017700D02*
X102844800Y-65747700D01*
%TO.N,/O3*%
X168990000Y-68580000D02*
X171450000Y-68580000D01*
X167640000Y-68580000D02*
X168990000Y-68580000D01*
X172750400Y-69880400D02*
X171450000Y-68580000D01*
X172750400Y-79307500D02*
X172750400Y-69880400D01*
X171202500Y-80855400D02*
X172750400Y-79307500D01*
X153562900Y-80855400D02*
X171202500Y-80855400D01*
X152949100Y-81469200D02*
X153562900Y-80855400D01*
X133975400Y-81469200D02*
X152949100Y-81469200D01*
X130656600Y-78150400D02*
X133975400Y-81469200D01*
X91542700Y-78150400D02*
X130656600Y-78150400D01*
%TO.N,/O2*%
X171450000Y-66040000D02*
X173511500Y-68101500D01*
X173511500Y-68101500D02*
X173511500Y-79536900D01*
X173511500Y-79536900D02*
X171173000Y-81875400D01*
X171173000Y-81875400D02*
X166555900Y-81875400D01*
X166555900Y-81875400D02*
X151832300Y-96599000D01*
X151832300Y-96599000D02*
X128476200Y-96599000D01*
X128476200Y-96599000D02*
X119328800Y-87451600D01*
X119328800Y-87451600D02*
X98548500Y-87451600D01*
X98548500Y-87451600D02*
X94572900Y-83476000D01*
X94572900Y-83476000D02*
X73692200Y-83476000D01*
X171450000Y-66040000D02*
X168990000Y-66040000D01*
X167640000Y-66040000D02*
X168990000Y-66040000D01*
%TO.N,/O1*%
X167640000Y-63500000D02*
X166290000Y-63500000D01*
X85070000Y-67330000D02*
X87699700Y-64700300D01*
X87699700Y-64700300D02*
X100027300Y-64700300D01*
X100027300Y-64700300D02*
X102467100Y-62260500D01*
X102467100Y-62260500D02*
X165050500Y-62260500D01*
X165050500Y-62260500D02*
X166290000Y-63500000D01*
X171450000Y-63500000D02*
X167640000Y-63500000D01*
X55880000Y-68580000D02*
X57130000Y-67330000D01*
X53340000Y-68580000D02*
X55880000Y-68580000D01*
X57130000Y-67330000D02*
X85070000Y-67330000D01*
%TO.N,/O0*%
X171450000Y-60960000D02*
X167640000Y-60960000D01*
X163500900Y-56820900D02*
X167640000Y-60960000D01*
X163500900Y-49870800D02*
X163500900Y-56820900D01*
X148961400Y-35331300D02*
X163500900Y-49870800D01*
X37517700Y-35331300D02*
X148961400Y-35331300D01*
X35933200Y-36915800D02*
X37517700Y-35331300D01*
X35933200Y-67365700D02*
X35933200Y-36915800D01*
X37147500Y-68580000D02*
X35933200Y-67365700D01*
X38100000Y-68580000D02*
X37147500Y-68580000D01*
%TO.N,/~E*%
X99060000Y-73660000D02*
X100460000Y-73660000D01*
X100460000Y-73660000D02*
X100710000Y-73410000D01*
X100710000Y-73410000D02*
X103442200Y-73410000D01*
X103442200Y-73410000D02*
X104942200Y-74910000D01*
X129540000Y-73660000D02*
X129540000Y-74910000D01*
X114300000Y-73660000D02*
X115700000Y-73660000D01*
X115700000Y-73660000D02*
X115950000Y-73410000D01*
X115950000Y-73410000D02*
X118682200Y-73410000D01*
X118682200Y-73410000D02*
X120182200Y-74910000D01*
X120182200Y-74910000D02*
X129540000Y-74910000D01*
X38100000Y-73660000D02*
X39500000Y-73660000D01*
X39500000Y-73660000D02*
X39744300Y-73415700D01*
X39744300Y-73415700D02*
X42484300Y-73415700D01*
X42484300Y-73415700D02*
X43978600Y-74910000D01*
X129540000Y-73660000D02*
X130940000Y-73660000D01*
X130940000Y-73660000D02*
X131190000Y-73410000D01*
X131190000Y-73410000D02*
X133922200Y-73410000D01*
X133922200Y-73410000D02*
X135422200Y-74910000D01*
X83820000Y-73660000D02*
X85220000Y-73660000D01*
X85220000Y-73660000D02*
X85470000Y-73410000D01*
X85470000Y-73410000D02*
X88202200Y-73410000D01*
X88202200Y-73410000D02*
X89702200Y-74910000D01*
X68580000Y-73660000D02*
X69980000Y-73660000D01*
X69980000Y-73660000D02*
X70200400Y-73439600D01*
X70200400Y-73439600D02*
X72965400Y-73439600D01*
X72965400Y-73439600D02*
X74435800Y-74910000D01*
X54740000Y-73660000D02*
X55014800Y-73385200D01*
X55014800Y-73385200D02*
X57625400Y-73385200D01*
X57625400Y-73385200D02*
X59150200Y-74910000D01*
X53340000Y-73660000D02*
X54740000Y-73660000D01*
X112395000Y-73660000D02*
X111145000Y-74910000D01*
X114300000Y-73660000D02*
X112395000Y-73660000D01*
X104942200Y-74910000D02*
X111145000Y-74910000D01*
X81875000Y-73660000D02*
X80625000Y-74910000D01*
X83820000Y-73660000D02*
X81875000Y-73660000D01*
X74435800Y-74910000D02*
X80625000Y-74910000D01*
X66952500Y-73660000D02*
X65702500Y-74910000D01*
X68580000Y-73660000D02*
X66952500Y-73660000D01*
X59150200Y-74910000D02*
X65702500Y-74910000D01*
X51077500Y-73660000D02*
X49827500Y-74910000D01*
X53340000Y-73660000D02*
X51077500Y-73660000D01*
X43978600Y-74910000D02*
X49827500Y-74910000D01*
X97432500Y-73660000D02*
X96182500Y-74910000D01*
X99060000Y-73660000D02*
X97432500Y-73660000D01*
X89702200Y-74910000D02*
X96182500Y-74910000D01*
X142875000Y-73660000D02*
X141625000Y-74910000D01*
X144780000Y-73660000D02*
X142875000Y-73660000D01*
X135422200Y-74910000D02*
X141625000Y-74910000D01*
%TD*%
M02*
