M48
INCH,TZ
T1C0.0197
T2C0.0315
T3C0.0394
T4C0.0512
T5C0.1260
%
G90
G05
T1
X23113Y-19267
X25766Y-30908
X26862Y-34422
X28695Y-34008
X29013Y-32865
X29143Y-19467
X29518Y-22508
X31300Y-30911
X31605Y-34836
X31728Y-33305
X32090Y-19054
X33921Y-36859
X36040Y-30768
X36730Y-31245
X36998Y-33278
X39877Y-24032
X40989Y-21918
X45447Y-32771
X46777Y-34843
X46777Y-35938
X47127Y-20336
X47656Y-37596
X47783Y-19888
X48731Y-31729
X48973Y-22527
X53083Y-30768
X56203Y-27163
T2
X39000Y-23000
X39000Y-24000
X39000Y-25000
X39000Y-26000
X39000Y-27000
X39000Y-28000
X39000Y-29000
X39000Y-30000
X42000Y-23000
X42000Y-24000
X42000Y-25000
X42000Y-26000
X42000Y-27000
X42000Y-28000
X42000Y-29000
X42000Y-30000
X28500Y-23500
X28500Y-29406
X27000Y-23000
X27000Y-24000
X27000Y-25000
X27000Y-26000
X27000Y-27000
X27000Y-28000
X27000Y-29000
X27000Y-30000
X30000Y-23000
X30000Y-24000
X30000Y-25000
X30000Y-26000
X30000Y-27000
X30000Y-28000
X30000Y-29000
X30000Y-30000
X40500Y-23500
X40500Y-29406
X15000Y-23000
X15000Y-24000
X15000Y-25000
X15000Y-26000
X15000Y-27000
X15000Y-28000
X15000Y-29000
X15000Y-30000
X18000Y-23000
X18000Y-24000
X18000Y-25000
X18000Y-26000
X18000Y-27000
X18000Y-28000
X18000Y-29000
X18000Y-30000
X52500Y-23500
X52500Y-29406
X57000Y-23000
X57000Y-24000
X57000Y-25000
X57000Y-26000
X57000Y-27000
X57000Y-28000
X57000Y-29000
X57000Y-30000
X60000Y-23000
X60000Y-24000
X60000Y-25000
X60000Y-26000
X60000Y-27000
X60000Y-28000
X60000Y-29000
X60000Y-30000
X45000Y-23000
X45000Y-24000
X45000Y-25000
X45000Y-26000
X45000Y-27000
X45000Y-28000
X45000Y-29000
X45000Y-30000
X48000Y-23000
X48000Y-24000
X48000Y-25000
X48000Y-26000
X48000Y-27000
X48000Y-28000
X48000Y-29000
X48000Y-30000
X22500Y-23500
X22500Y-29406
X33000Y-23000
X33000Y-24000
X33000Y-25000
X33000Y-26000
X33000Y-27000
X33000Y-28000
X33000Y-29000
X33000Y-30000
X36000Y-23000
X36000Y-24000
X36000Y-25000
X36000Y-26000
X36000Y-27000
X36000Y-28000
X36000Y-29000
X36000Y-30000
X34500Y-23500
X34500Y-29406
X21000Y-23000
X21000Y-24000
X21000Y-25000
X21000Y-26000
X21000Y-27000
X21000Y-28000
X21000Y-29000
X21000Y-30000
X24000Y-23000
X24000Y-24000
X24000Y-25000
X24000Y-26000
X24000Y-27000
X24000Y-28000
X24000Y-29000
X24000Y-30000
X46500Y-23500
X46500Y-29406
X58500Y-23500
X58500Y-29406
X16500Y-23500
X16500Y-29406
X51000Y-23000
X51000Y-24000
X51000Y-25000
X51000Y-26000
X51000Y-27000
X51000Y-28000
X51000Y-29000
X51000Y-30000
X54000Y-23000
X54000Y-24000
X54000Y-25000
X54000Y-26000
X54000Y-27000
X54000Y-28000
X54000Y-29000
X54000Y-30000
T3
X15000Y-16500
X15000Y-31500
X15000Y-37500
X18000Y-21000
X21000Y-31500
X23500Y-21000
X24500Y-21000
X27000Y-16500
X27000Y-31500
X27000Y-37500
X29500Y-21000
X30500Y-21000
X33000Y-31500
X35500Y-21000
X36500Y-21000
X37500Y-16500
X37500Y-39000
X39000Y-31500
X41000Y-21000
X43000Y-21000
X45000Y-31500
X47500Y-21000
X48500Y-21000
X49500Y-16500
X49500Y-39000
X51000Y-31500
X53500Y-21000
X54500Y-21000
X57000Y-31500
X59500Y-21000
X60500Y-21000
X62000Y-35000
X67000Y-35000
X67500Y-21500
X27000Y-15000
X28000Y-15000
X29000Y-15000
X30000Y-15000
X31000Y-15000
X32000Y-15000
X33000Y-15000
X34000Y-15000
X35000Y-15000
X15000Y-39000
X16000Y-39000
X17000Y-39000
X18000Y-39000
X19000Y-39000
X20000Y-39000
X21000Y-39000
X22000Y-39000
X23000Y-39000
X12000Y-29000
X51000Y-37500
X52000Y-37500
X53000Y-37500
X54000Y-37500
X55000Y-37500
X56000Y-37500
X57000Y-37500
X58000Y-37500
X59000Y-37500
X51000Y-16500
X52000Y-16500
X53000Y-16500
X54000Y-16500
X55000Y-16500
X56000Y-16500
X57000Y-16500
X58000Y-16500
X59000Y-16500
X27000Y-39000
X28000Y-39000
X29000Y-39000
X30000Y-39000
X31000Y-39000
X32000Y-39000
X33000Y-39000
X34000Y-39000
X35000Y-39000
X15000Y-15000
X16000Y-15000
X17000Y-15000
X18000Y-15000
X19000Y-15000
X20000Y-15000
X21000Y-15000
X22000Y-15000
X23000Y-15000
X67500Y-23000
X67500Y-24000
X67500Y-25000
X67500Y-26000
X67500Y-27000
X67500Y-28000
X67500Y-29000
X67500Y-30000
X67500Y-31000
X39000Y-15000
X40000Y-15000
X41000Y-15000
X42000Y-15000
X43000Y-15000
X44000Y-15000
X45000Y-15000
X46000Y-15000
X47000Y-15000
X39000Y-37500
X40000Y-37500
X41000Y-37500
X42000Y-37500
X43000Y-37500
X44000Y-37500
X45000Y-37500
X46000Y-37500
X47000Y-37500
X39000Y-16500
X40000Y-16500
X41000Y-16500
X42000Y-16500
X43000Y-16500
X44000Y-16500
X45000Y-16500
X46000Y-16500
X47000Y-16500
X66000Y-23000
X66000Y-24000
X66000Y-25000
X66000Y-26000
X66000Y-27000
X66000Y-28000
X66000Y-29000
X66000Y-30000
X66000Y-31000
X51000Y-15016
X52000Y-15016
X53000Y-15016
X54000Y-15016
X55000Y-15016
X56000Y-15016
X57000Y-15016
X58000Y-15016
X59000Y-15016
X62000Y-28000
X62000Y-29000
X62000Y-30000
X51000Y-39000
X52000Y-39000
X53000Y-39000
X54000Y-39000
X55000Y-39000
X56000Y-39000
X57000Y-39000
X58000Y-39000
X59000Y-39000
X39000Y-39000
X40000Y-39000
X41000Y-39000
X42000Y-39000
X43000Y-39000
X44000Y-39000
X45000Y-39000
X46000Y-39000
X47000Y-39000
T4
X62000Y-38000
X63969Y-38000
T5
X66500Y-15000
X12000Y-15000
X66500Y-39000
X12000Y-39000
T0
M30
