%TF.GenerationSoftware,KiCad,Pcbnew,(5.1.8)-1*%
%TF.CreationDate,2024-08-14T23:48:38+03:00*%
%TF.ProjectId,PwrBus,50777242-7573-42e6-9b69-6361645f7063,rev?*%
%TF.SameCoordinates,Original*%
%TF.FileFunction,Legend,Top*%
%TF.FilePolarity,Positive*%
%FSLAX46Y46*%
G04 Gerber Fmt 4.6, Leading zero omitted, Abs format (unit mm)*
G04 Created by KiCad (PCBNEW (5.1.8)-1) date 2024-08-14 23:48:38*
%MOMM*%
%LPD*%
G01*
G04 APERTURE LIST*
%ADD10C,0.120000*%
%ADD11C,0.200000*%
%ADD12C,0.150000*%
G04 APERTURE END LIST*
D10*
X111760000Y-12700000D02*
X111760000Y-38100000D01*
D11*
X153011428Y-31857142D02*
X154154285Y-31857142D01*
X153582857Y-32428571D02*
X153582857Y-31285714D01*
X155582857Y-30928571D02*
X154868571Y-30928571D01*
X154797142Y-31642857D01*
X154868571Y-31571428D01*
X155011428Y-31500000D01*
X155368571Y-31500000D01*
X155511428Y-31571428D01*
X155582857Y-31642857D01*
X155654285Y-31785714D01*
X155654285Y-32142857D01*
X155582857Y-32285714D01*
X155511428Y-32357142D01*
X155368571Y-32428571D01*
X155011428Y-32428571D01*
X154868571Y-32357142D01*
X154797142Y-32285714D01*
X156082857Y-30928571D02*
X156582857Y-32428571D01*
X157082857Y-30928571D01*
X142851428Y-33127142D02*
X143994285Y-33127142D01*
X143422857Y-33698571D02*
X143422857Y-32555714D01*
X145422857Y-32198571D02*
X144708571Y-32198571D01*
X144637142Y-32912857D01*
X144708571Y-32841428D01*
X144851428Y-32770000D01*
X145208571Y-32770000D01*
X145351428Y-32841428D01*
X145422857Y-32912857D01*
X145494285Y-33055714D01*
X145494285Y-33412857D01*
X145422857Y-33555714D01*
X145351428Y-33627142D01*
X145208571Y-33698571D01*
X144851428Y-33698571D01*
X144708571Y-33627142D01*
X144637142Y-33555714D01*
X145922857Y-32198571D02*
X146422857Y-33698571D01*
X146922857Y-32198571D01*
X125706428Y-33127142D02*
X126849285Y-33127142D01*
X126277857Y-33698571D02*
X126277857Y-32555714D01*
X128277857Y-32198571D02*
X127563571Y-32198571D01*
X127492142Y-32912857D01*
X127563571Y-32841428D01*
X127706428Y-32770000D01*
X128063571Y-32770000D01*
X128206428Y-32841428D01*
X128277857Y-32912857D01*
X128349285Y-33055714D01*
X128349285Y-33412857D01*
X128277857Y-33555714D01*
X128206428Y-33627142D01*
X128063571Y-33698571D01*
X127706428Y-33698571D01*
X127563571Y-33627142D01*
X127492142Y-33555714D01*
X128777857Y-32198571D02*
X129277857Y-33698571D01*
X129777857Y-32198571D01*
X115546428Y-33127142D02*
X116689285Y-33127142D01*
X116117857Y-33698571D02*
X116117857Y-32555714D01*
X118117857Y-32198571D02*
X117403571Y-32198571D01*
X117332142Y-32912857D01*
X117403571Y-32841428D01*
X117546428Y-32770000D01*
X117903571Y-32770000D01*
X118046428Y-32841428D01*
X118117857Y-32912857D01*
X118189285Y-33055714D01*
X118189285Y-33412857D01*
X118117857Y-33555714D01*
X118046428Y-33627142D01*
X117903571Y-33698571D01*
X117546428Y-33698571D01*
X117403571Y-33627142D01*
X117332142Y-33555714D01*
X118617857Y-32198571D02*
X119117857Y-33698571D01*
X119617857Y-32198571D01*
X97766428Y-33127142D02*
X98909285Y-33127142D01*
X98337857Y-33698571D02*
X98337857Y-32555714D01*
X100337857Y-32198571D02*
X99623571Y-32198571D01*
X99552142Y-32912857D01*
X99623571Y-32841428D01*
X99766428Y-32770000D01*
X100123571Y-32770000D01*
X100266428Y-32841428D01*
X100337857Y-32912857D01*
X100409285Y-33055714D01*
X100409285Y-33412857D01*
X100337857Y-33555714D01*
X100266428Y-33627142D01*
X100123571Y-33698571D01*
X99766428Y-33698571D01*
X99623571Y-33627142D01*
X99552142Y-33555714D01*
X100837857Y-32198571D02*
X101337857Y-33698571D01*
X101837857Y-32198571D01*
X84431428Y-33127142D02*
X85574285Y-33127142D01*
X85002857Y-33698571D02*
X85002857Y-32555714D01*
X87002857Y-32198571D02*
X86288571Y-32198571D01*
X86217142Y-32912857D01*
X86288571Y-32841428D01*
X86431428Y-32770000D01*
X86788571Y-32770000D01*
X86931428Y-32841428D01*
X87002857Y-32912857D01*
X87074285Y-33055714D01*
X87074285Y-33412857D01*
X87002857Y-33555714D01*
X86931428Y-33627142D01*
X86788571Y-33698571D01*
X86431428Y-33698571D01*
X86288571Y-33627142D01*
X86217142Y-33555714D01*
X87502857Y-32198571D02*
X88002857Y-33698571D01*
X88502857Y-32198571D01*
X67286428Y-33127142D02*
X68429285Y-33127142D01*
X67857857Y-33698571D02*
X67857857Y-32555714D01*
X69857857Y-32198571D02*
X69143571Y-32198571D01*
X69072142Y-32912857D01*
X69143571Y-32841428D01*
X69286428Y-32770000D01*
X69643571Y-32770000D01*
X69786428Y-32841428D01*
X69857857Y-32912857D01*
X69929285Y-33055714D01*
X69929285Y-33412857D01*
X69857857Y-33555714D01*
X69786428Y-33627142D01*
X69643571Y-33698571D01*
X69286428Y-33698571D01*
X69143571Y-33627142D01*
X69072142Y-33555714D01*
X70357857Y-32198571D02*
X70857857Y-33698571D01*
X71357857Y-32198571D01*
X54586428Y-33127142D02*
X55729285Y-33127142D01*
X55157857Y-33698571D02*
X55157857Y-32555714D01*
X57157857Y-32198571D02*
X56443571Y-32198571D01*
X56372142Y-32912857D01*
X56443571Y-32841428D01*
X56586428Y-32770000D01*
X56943571Y-32770000D01*
X57086428Y-32841428D01*
X57157857Y-32912857D01*
X57229285Y-33055714D01*
X57229285Y-33412857D01*
X57157857Y-33555714D01*
X57086428Y-33627142D01*
X56943571Y-33698571D01*
X56586428Y-33698571D01*
X56443571Y-33627142D01*
X56372142Y-33555714D01*
X57657857Y-32198571D02*
X58157857Y-33698571D01*
X58657857Y-32198571D01*
X27281428Y-35032142D02*
X28424285Y-35032142D01*
X27852857Y-35603571D02*
X27852857Y-34460714D01*
X29852857Y-34103571D02*
X29138571Y-34103571D01*
X29067142Y-34817857D01*
X29138571Y-34746428D01*
X29281428Y-34675000D01*
X29638571Y-34675000D01*
X29781428Y-34746428D01*
X29852857Y-34817857D01*
X29924285Y-34960714D01*
X29924285Y-35317857D01*
X29852857Y-35460714D01*
X29781428Y-35532142D01*
X29638571Y-35603571D01*
X29281428Y-35603571D01*
X29138571Y-35532142D01*
X29067142Y-35460714D01*
X30352857Y-34103571D02*
X30852857Y-35603571D01*
X31352857Y-34103571D01*
X16486428Y-32492142D02*
X17629285Y-32492142D01*
X17057857Y-33063571D02*
X17057857Y-31920714D01*
X19057857Y-31563571D02*
X18343571Y-31563571D01*
X18272142Y-32277857D01*
X18343571Y-32206428D01*
X18486428Y-32135000D01*
X18843571Y-32135000D01*
X18986428Y-32206428D01*
X19057857Y-32277857D01*
X19129285Y-32420714D01*
X19129285Y-32777857D01*
X19057857Y-32920714D01*
X18986428Y-32992142D01*
X18843571Y-33063571D01*
X18486428Y-33063571D01*
X18343571Y-32992142D01*
X18272142Y-32920714D01*
X19557857Y-31563571D02*
X20057857Y-33063571D01*
X20557857Y-31563571D01*
X18085714Y-17030000D02*
X17942857Y-16958571D01*
X17728571Y-16958571D01*
X17514285Y-17030000D01*
X17371428Y-17172857D01*
X17300000Y-17315714D01*
X17228571Y-17601428D01*
X17228571Y-17815714D01*
X17300000Y-18101428D01*
X17371428Y-18244285D01*
X17514285Y-18387142D01*
X17728571Y-18458571D01*
X17871428Y-18458571D01*
X18085714Y-18387142D01*
X18157142Y-18315714D01*
X18157142Y-17815714D01*
X17871428Y-17815714D01*
X18800000Y-17458571D02*
X18800000Y-18458571D01*
X18800000Y-17601428D02*
X18871428Y-17530000D01*
X19014285Y-17458571D01*
X19228571Y-17458571D01*
X19371428Y-17530000D01*
X19442857Y-17672857D01*
X19442857Y-18458571D01*
X20800000Y-18458571D02*
X20800000Y-16958571D01*
X20800000Y-18387142D02*
X20657142Y-18458571D01*
X20371428Y-18458571D01*
X20228571Y-18387142D01*
X20157142Y-18315714D01*
X20085714Y-18172857D01*
X20085714Y-17744285D01*
X20157142Y-17601428D01*
X20228571Y-17530000D01*
X20371428Y-17458571D01*
X20657142Y-17458571D01*
X20800000Y-17530000D01*
X154610714Y-17030000D02*
X154467857Y-16958571D01*
X154253571Y-16958571D01*
X154039285Y-17030000D01*
X153896428Y-17172857D01*
X153825000Y-17315714D01*
X153753571Y-17601428D01*
X153753571Y-17815714D01*
X153825000Y-18101428D01*
X153896428Y-18244285D01*
X154039285Y-18387142D01*
X154253571Y-18458571D01*
X154396428Y-18458571D01*
X154610714Y-18387142D01*
X154682142Y-18315714D01*
X154682142Y-17815714D01*
X154396428Y-17815714D01*
X155325000Y-17458571D02*
X155325000Y-18458571D01*
X155325000Y-17601428D02*
X155396428Y-17530000D01*
X155539285Y-17458571D01*
X155753571Y-17458571D01*
X155896428Y-17530000D01*
X155967857Y-17672857D01*
X155967857Y-18458571D01*
X157325000Y-18458571D02*
X157325000Y-16958571D01*
X157325000Y-18387142D02*
X157182142Y-18458571D01*
X156896428Y-18458571D01*
X156753571Y-18387142D01*
X156682142Y-18315714D01*
X156610714Y-18172857D01*
X156610714Y-17744285D01*
X156682142Y-17601428D01*
X156753571Y-17530000D01*
X156896428Y-17458571D01*
X157182142Y-17458571D01*
X157325000Y-17530000D01*
X134925714Y-17030000D02*
X134782857Y-16958571D01*
X134568571Y-16958571D01*
X134354285Y-17030000D01*
X134211428Y-17172857D01*
X134140000Y-17315714D01*
X134068571Y-17601428D01*
X134068571Y-17815714D01*
X134140000Y-18101428D01*
X134211428Y-18244285D01*
X134354285Y-18387142D01*
X134568571Y-18458571D01*
X134711428Y-18458571D01*
X134925714Y-18387142D01*
X134997142Y-18315714D01*
X134997142Y-17815714D01*
X134711428Y-17815714D01*
X135640000Y-17458571D02*
X135640000Y-18458571D01*
X135640000Y-17601428D02*
X135711428Y-17530000D01*
X135854285Y-17458571D01*
X136068571Y-17458571D01*
X136211428Y-17530000D01*
X136282857Y-17672857D01*
X136282857Y-18458571D01*
X137640000Y-18458571D02*
X137640000Y-16958571D01*
X137640000Y-18387142D02*
X137497142Y-18458571D01*
X137211428Y-18458571D01*
X137068571Y-18387142D01*
X136997142Y-18315714D01*
X136925714Y-18172857D01*
X136925714Y-17744285D01*
X136997142Y-17601428D01*
X137068571Y-17530000D01*
X137211428Y-17458571D01*
X137497142Y-17458571D01*
X137640000Y-17530000D01*
X117780714Y-17030000D02*
X117637857Y-16958571D01*
X117423571Y-16958571D01*
X117209285Y-17030000D01*
X117066428Y-17172857D01*
X116995000Y-17315714D01*
X116923571Y-17601428D01*
X116923571Y-17815714D01*
X116995000Y-18101428D01*
X117066428Y-18244285D01*
X117209285Y-18387142D01*
X117423571Y-18458571D01*
X117566428Y-18458571D01*
X117780714Y-18387142D01*
X117852142Y-18315714D01*
X117852142Y-17815714D01*
X117566428Y-17815714D01*
X118495000Y-17458571D02*
X118495000Y-18458571D01*
X118495000Y-17601428D02*
X118566428Y-17530000D01*
X118709285Y-17458571D01*
X118923571Y-17458571D01*
X119066428Y-17530000D01*
X119137857Y-17672857D01*
X119137857Y-18458571D01*
X120495000Y-18458571D02*
X120495000Y-16958571D01*
X120495000Y-18387142D02*
X120352142Y-18458571D01*
X120066428Y-18458571D01*
X119923571Y-18387142D01*
X119852142Y-18315714D01*
X119780714Y-18172857D01*
X119780714Y-17744285D01*
X119852142Y-17601428D01*
X119923571Y-17530000D01*
X120066428Y-17458571D01*
X120352142Y-17458571D01*
X120495000Y-17530000D01*
X105080714Y-17030000D02*
X104937857Y-16958571D01*
X104723571Y-16958571D01*
X104509285Y-17030000D01*
X104366428Y-17172857D01*
X104295000Y-17315714D01*
X104223571Y-17601428D01*
X104223571Y-17815714D01*
X104295000Y-18101428D01*
X104366428Y-18244285D01*
X104509285Y-18387142D01*
X104723571Y-18458571D01*
X104866428Y-18458571D01*
X105080714Y-18387142D01*
X105152142Y-18315714D01*
X105152142Y-17815714D01*
X104866428Y-17815714D01*
X105795000Y-17458571D02*
X105795000Y-18458571D01*
X105795000Y-17601428D02*
X105866428Y-17530000D01*
X106009285Y-17458571D01*
X106223571Y-17458571D01*
X106366428Y-17530000D01*
X106437857Y-17672857D01*
X106437857Y-18458571D01*
X107795000Y-18458571D02*
X107795000Y-16958571D01*
X107795000Y-18387142D02*
X107652142Y-18458571D01*
X107366428Y-18458571D01*
X107223571Y-18387142D01*
X107152142Y-18315714D01*
X107080714Y-18172857D01*
X107080714Y-17744285D01*
X107152142Y-17601428D01*
X107223571Y-17530000D01*
X107366428Y-17458571D01*
X107652142Y-17458571D01*
X107795000Y-17530000D01*
X87300714Y-17030000D02*
X87157857Y-16958571D01*
X86943571Y-16958571D01*
X86729285Y-17030000D01*
X86586428Y-17172857D01*
X86515000Y-17315714D01*
X86443571Y-17601428D01*
X86443571Y-17815714D01*
X86515000Y-18101428D01*
X86586428Y-18244285D01*
X86729285Y-18387142D01*
X86943571Y-18458571D01*
X87086428Y-18458571D01*
X87300714Y-18387142D01*
X87372142Y-18315714D01*
X87372142Y-17815714D01*
X87086428Y-17815714D01*
X88015000Y-17458571D02*
X88015000Y-18458571D01*
X88015000Y-17601428D02*
X88086428Y-17530000D01*
X88229285Y-17458571D01*
X88443571Y-17458571D01*
X88586428Y-17530000D01*
X88657857Y-17672857D01*
X88657857Y-18458571D01*
X90015000Y-18458571D02*
X90015000Y-16958571D01*
X90015000Y-18387142D02*
X89872142Y-18458571D01*
X89586428Y-18458571D01*
X89443571Y-18387142D01*
X89372142Y-18315714D01*
X89300714Y-18172857D01*
X89300714Y-17744285D01*
X89372142Y-17601428D01*
X89443571Y-17530000D01*
X89586428Y-17458571D01*
X89872142Y-17458571D01*
X90015000Y-17530000D01*
X74600714Y-17030000D02*
X74457857Y-16958571D01*
X74243571Y-16958571D01*
X74029285Y-17030000D01*
X73886428Y-17172857D01*
X73815000Y-17315714D01*
X73743571Y-17601428D01*
X73743571Y-17815714D01*
X73815000Y-18101428D01*
X73886428Y-18244285D01*
X74029285Y-18387142D01*
X74243571Y-18458571D01*
X74386428Y-18458571D01*
X74600714Y-18387142D01*
X74672142Y-18315714D01*
X74672142Y-17815714D01*
X74386428Y-17815714D01*
X75315000Y-17458571D02*
X75315000Y-18458571D01*
X75315000Y-17601428D02*
X75386428Y-17530000D01*
X75529285Y-17458571D01*
X75743571Y-17458571D01*
X75886428Y-17530000D01*
X75957857Y-17672857D01*
X75957857Y-18458571D01*
X77315000Y-18458571D02*
X77315000Y-16958571D01*
X77315000Y-18387142D02*
X77172142Y-18458571D01*
X76886428Y-18458571D01*
X76743571Y-18387142D01*
X76672142Y-18315714D01*
X76600714Y-18172857D01*
X76600714Y-17744285D01*
X76672142Y-17601428D01*
X76743571Y-17530000D01*
X76886428Y-17458571D01*
X77172142Y-17458571D01*
X77315000Y-17530000D01*
X56185714Y-17030000D02*
X56042857Y-16958571D01*
X55828571Y-16958571D01*
X55614285Y-17030000D01*
X55471428Y-17172857D01*
X55400000Y-17315714D01*
X55328571Y-17601428D01*
X55328571Y-17815714D01*
X55400000Y-18101428D01*
X55471428Y-18244285D01*
X55614285Y-18387142D01*
X55828571Y-18458571D01*
X55971428Y-18458571D01*
X56185714Y-18387142D01*
X56257142Y-18315714D01*
X56257142Y-17815714D01*
X55971428Y-17815714D01*
X56900000Y-17458571D02*
X56900000Y-18458571D01*
X56900000Y-17601428D02*
X56971428Y-17530000D01*
X57114285Y-17458571D01*
X57328571Y-17458571D01*
X57471428Y-17530000D01*
X57542857Y-17672857D01*
X57542857Y-18458571D01*
X58900000Y-18458571D02*
X58900000Y-16958571D01*
X58900000Y-18387142D02*
X58757142Y-18458571D01*
X58471428Y-18458571D01*
X58328571Y-18387142D01*
X58257142Y-18315714D01*
X58185714Y-18172857D01*
X58185714Y-17744285D01*
X58257142Y-17601428D01*
X58328571Y-17530000D01*
X58471428Y-17458571D01*
X58757142Y-17458571D01*
X58900000Y-17530000D01*
X46660714Y-17030000D02*
X46517857Y-16958571D01*
X46303571Y-16958571D01*
X46089285Y-17030000D01*
X45946428Y-17172857D01*
X45875000Y-17315714D01*
X45803571Y-17601428D01*
X45803571Y-17815714D01*
X45875000Y-18101428D01*
X45946428Y-18244285D01*
X46089285Y-18387142D01*
X46303571Y-18458571D01*
X46446428Y-18458571D01*
X46660714Y-18387142D01*
X46732142Y-18315714D01*
X46732142Y-17815714D01*
X46446428Y-17815714D01*
X47375000Y-17458571D02*
X47375000Y-18458571D01*
X47375000Y-17601428D02*
X47446428Y-17530000D01*
X47589285Y-17458571D01*
X47803571Y-17458571D01*
X47946428Y-17530000D01*
X48017857Y-17672857D01*
X48017857Y-18458571D01*
X49375000Y-18458571D02*
X49375000Y-16958571D01*
X49375000Y-18387142D02*
X49232142Y-18458571D01*
X48946428Y-18458571D01*
X48803571Y-18387142D01*
X48732142Y-18315714D01*
X48660714Y-18172857D01*
X48660714Y-17744285D01*
X48732142Y-17601428D01*
X48803571Y-17530000D01*
X48946428Y-17458571D01*
X49232142Y-17458571D01*
X49375000Y-17530000D01*
X27610714Y-17030000D02*
X27467857Y-16958571D01*
X27253571Y-16958571D01*
X27039285Y-17030000D01*
X26896428Y-17172857D01*
X26825000Y-17315714D01*
X26753571Y-17601428D01*
X26753571Y-17815714D01*
X26825000Y-18101428D01*
X26896428Y-18244285D01*
X27039285Y-18387142D01*
X27253571Y-18458571D01*
X27396428Y-18458571D01*
X27610714Y-18387142D01*
X27682142Y-18315714D01*
X27682142Y-17815714D01*
X27396428Y-17815714D01*
X28325000Y-17458571D02*
X28325000Y-18458571D01*
X28325000Y-17601428D02*
X28396428Y-17530000D01*
X28539285Y-17458571D01*
X28753571Y-17458571D01*
X28896428Y-17530000D01*
X28967857Y-17672857D01*
X28967857Y-18458571D01*
X30325000Y-18458571D02*
X30325000Y-16958571D01*
X30325000Y-18387142D02*
X30182142Y-18458571D01*
X29896428Y-18458571D01*
X29753571Y-18387142D01*
X29682142Y-18315714D01*
X29610714Y-18172857D01*
X29610714Y-17744285D01*
X29682142Y-17601428D01*
X29753571Y-17530000D01*
X29896428Y-17458571D01*
X30182142Y-17458571D01*
X30325000Y-17530000D01*
D10*
%TO.C,D1*%
X38060000Y-26670000D02*
G75*
G03*
X38060000Y-26670000I-2500000J0D01*
G01*
X37105000Y-24110000D02*
X34015000Y-24110000D01*
X35560462Y-29660000D02*
G75*
G02*
X34015170Y-24110000I-462J2990000D01*
G01*
X35559538Y-29660000D02*
G75*
G03*
X37104830Y-24110000I462J2990000D01*
G01*
%TO.C,J10*%
X161110000Y-30740000D02*
X161110000Y-30240000D01*
X160370000Y-30740000D02*
X161110000Y-30740000D01*
X157233000Y-24167000D02*
X157279000Y-24214000D01*
X154935000Y-21870000D02*
X154971000Y-21905000D01*
X157449000Y-23974000D02*
X157484000Y-24009000D01*
X155141000Y-21665000D02*
X155187000Y-21712000D01*
X150949000Y-20380000D02*
X160870000Y-20380000D01*
X150949000Y-30500000D02*
X160870000Y-30500000D01*
X160870000Y-30500000D02*
X160870000Y-20380000D01*
X150949000Y-30500000D02*
X150949000Y-20380000D01*
X153909000Y-30500000D02*
X153909000Y-20380000D01*
X158810000Y-30500000D02*
X158810000Y-20380000D01*
X160310000Y-30500000D02*
X160310000Y-20380000D01*
X157890000Y-22940000D02*
G75*
G03*
X157890000Y-22940000I-1680000J0D01*
G01*
X157890253Y-27911195D02*
G75*
G02*
X157745000Y-28624000I-1680253J-28805D01*
G01*
X156893042Y-29475426D02*
G75*
G02*
X155526000Y-29475000I-683042J1535426D01*
G01*
X154674574Y-28623042D02*
G75*
G02*
X154675000Y-27256000I1535426J683042D01*
G01*
X155526958Y-26404574D02*
G75*
G02*
X156894000Y-26405000I683042J-1535426D01*
G01*
X157744756Y-27256682D02*
G75*
G02*
X157890000Y-27940000I-1534756J-683318D01*
G01*
%TO.C,J9*%
X131140000Y-17780000D02*
G75*
G03*
X131140000Y-17780000I-1680000J0D01*
G01*
X121900000Y-21880000D02*
X132020000Y-21880000D01*
X121900000Y-20380000D02*
X132020000Y-20380000D01*
X121900000Y-15479000D02*
X132020000Y-15479000D01*
X121900000Y-12519000D02*
X132020000Y-12519000D01*
X121900000Y-22440000D02*
X132020000Y-22440000D01*
X121900000Y-12519000D02*
X121900000Y-22440000D01*
X132020000Y-12519000D02*
X132020000Y-22440000D01*
X130735000Y-16711000D02*
X130688000Y-16757000D01*
X128426000Y-19019000D02*
X128391000Y-19054000D01*
X130530000Y-16505000D02*
X130495000Y-16541000D01*
X128233000Y-18803000D02*
X128186000Y-18849000D01*
X121660000Y-21940000D02*
X121660000Y-22680000D01*
X121660000Y-22680000D02*
X122160000Y-22680000D01*
X124488805Y-19460253D02*
G75*
G02*
X123776000Y-19315000I-28805J1680253D01*
G01*
X122924574Y-18463042D02*
G75*
G02*
X122925000Y-17096000I1535426J683042D01*
G01*
X123776958Y-16244574D02*
G75*
G02*
X125144000Y-16245000I683042J-1535426D01*
G01*
X125995426Y-17096958D02*
G75*
G02*
X125995000Y-18464000I-1535426J-683042D01*
G01*
X125143318Y-19314756D02*
G75*
G02*
X124460000Y-19460000I-683318J1534756D01*
G01*
%TO.C,J8*%
X142570000Y-33020000D02*
G75*
G03*
X142570000Y-33020000I-1680000J0D01*
G01*
X133330000Y-37120000D02*
X143450000Y-37120000D01*
X133330000Y-35620000D02*
X143450000Y-35620000D01*
X133330000Y-30719000D02*
X143450000Y-30719000D01*
X133330000Y-27759000D02*
X143450000Y-27759000D01*
X133330000Y-37680000D02*
X143450000Y-37680000D01*
X133330000Y-27759000D02*
X133330000Y-37680000D01*
X143450000Y-27759000D02*
X143450000Y-37680000D01*
X142165000Y-31951000D02*
X142118000Y-31997000D01*
X139856000Y-34259000D02*
X139821000Y-34294000D01*
X141960000Y-31745000D02*
X141925000Y-31781000D01*
X139663000Y-34043000D02*
X139616000Y-34089000D01*
X133090000Y-37180000D02*
X133090000Y-37920000D01*
X133090000Y-37920000D02*
X133590000Y-37920000D01*
X135918805Y-34700253D02*
G75*
G02*
X135206000Y-34555000I-28805J1680253D01*
G01*
X134354574Y-33703042D02*
G75*
G02*
X134355000Y-32336000I1535426J683042D01*
G01*
X135206958Y-31484574D02*
G75*
G02*
X136574000Y-31485000I683042J-1535426D01*
G01*
X137425426Y-32336958D02*
G75*
G02*
X137425000Y-33704000I-1535426J-683042D01*
G01*
X136573318Y-34554756D02*
G75*
G02*
X135890000Y-34700000I-683318J1534756D01*
G01*
%TO.C,J7*%
X102495000Y-12880000D02*
X101995000Y-12880000D01*
X102495000Y-13620000D02*
X102495000Y-12880000D01*
X95922000Y-16757000D02*
X95969000Y-16711000D01*
X93625000Y-19055000D02*
X93660000Y-19019000D01*
X95729000Y-16541000D02*
X95764000Y-16506000D01*
X93420000Y-18849000D02*
X93467000Y-18803000D01*
X92135000Y-23041000D02*
X92135000Y-13120000D01*
X102255000Y-23041000D02*
X102255000Y-13120000D01*
X102255000Y-13120000D02*
X92135000Y-13120000D01*
X102255000Y-23041000D02*
X92135000Y-23041000D01*
X102255000Y-20081000D02*
X92135000Y-20081000D01*
X102255000Y-15180000D02*
X92135000Y-15180000D01*
X102255000Y-13680000D02*
X92135000Y-13680000D01*
X96375000Y-17780000D02*
G75*
G03*
X96375000Y-17780000I-1680000J0D01*
G01*
X99666195Y-16099747D02*
G75*
G02*
X100379000Y-16245000I28805J-1680253D01*
G01*
X101230426Y-17096958D02*
G75*
G02*
X101230000Y-18464000I-1535426J-683042D01*
G01*
X100378042Y-19315426D02*
G75*
G02*
X99011000Y-19315000I-683042J1535426D01*
G01*
X98159574Y-18463042D02*
G75*
G02*
X98160000Y-17096000I1535426J683042D01*
G01*
X99011682Y-16245244D02*
G75*
G02*
X99695000Y-16100000I683318J-1534756D01*
G01*
%TO.C,J6*%
X113925000Y-28120000D02*
X113425000Y-28120000D01*
X113925000Y-28860000D02*
X113925000Y-28120000D01*
X107352000Y-31997000D02*
X107399000Y-31951000D01*
X105055000Y-34295000D02*
X105090000Y-34259000D01*
X107159000Y-31781000D02*
X107194000Y-31746000D01*
X104850000Y-34089000D02*
X104897000Y-34043000D01*
X103565000Y-38281000D02*
X103565000Y-28360000D01*
X113685000Y-38281000D02*
X113685000Y-28360000D01*
X113685000Y-28360000D02*
X103565000Y-28360000D01*
X113685000Y-38281000D02*
X103565000Y-38281000D01*
X113685000Y-35321000D02*
X103565000Y-35321000D01*
X113685000Y-30420000D02*
X103565000Y-30420000D01*
X113685000Y-28920000D02*
X103565000Y-28920000D01*
X107805000Y-33020000D02*
G75*
G03*
X107805000Y-33020000I-1680000J0D01*
G01*
X111096195Y-31339747D02*
G75*
G02*
X111809000Y-31485000I28805J-1680253D01*
G01*
X112660426Y-32336958D02*
G75*
G02*
X112660000Y-33704000I-1535426J-683042D01*
G01*
X111808042Y-34555426D02*
G75*
G02*
X110441000Y-34555000I-683042J1535426D01*
G01*
X109589574Y-33703042D02*
G75*
G02*
X109590000Y-32336000I1535426J683042D01*
G01*
X110441682Y-31485244D02*
G75*
G02*
X111125000Y-31340000I683318J-1534756D01*
G01*
%TO.C,J5*%
X61335000Y-22680000D02*
X61835000Y-22680000D01*
X61335000Y-21940000D02*
X61335000Y-22680000D01*
X67908000Y-18803000D02*
X67861000Y-18849000D01*
X70205000Y-16505000D02*
X70170000Y-16541000D01*
X68101000Y-19019000D02*
X68066000Y-19054000D01*
X70410000Y-16711000D02*
X70363000Y-16757000D01*
X71695000Y-12519000D02*
X71695000Y-22440000D01*
X61575000Y-12519000D02*
X61575000Y-22440000D01*
X61575000Y-22440000D02*
X71695000Y-22440000D01*
X61575000Y-12519000D02*
X71695000Y-12519000D01*
X61575000Y-15479000D02*
X71695000Y-15479000D01*
X61575000Y-20380000D02*
X71695000Y-20380000D01*
X61575000Y-21880000D02*
X71695000Y-21880000D01*
X70815000Y-17780000D02*
G75*
G03*
X70815000Y-17780000I-1680000J0D01*
G01*
X64163805Y-19460253D02*
G75*
G02*
X63451000Y-19315000I-28805J1680253D01*
G01*
X62599574Y-18463042D02*
G75*
G02*
X62600000Y-17096000I1535426J683042D01*
G01*
X63451958Y-16244574D02*
G75*
G02*
X64819000Y-16245000I683042J-1535426D01*
G01*
X65670426Y-17096958D02*
G75*
G02*
X65670000Y-18464000I-1535426J-683042D01*
G01*
X64818318Y-19314756D02*
G75*
G02*
X64135000Y-19460000I-683318J1534756D01*
G01*
%TO.C,J4*%
X72765000Y-37920000D02*
X73265000Y-37920000D01*
X72765000Y-37180000D02*
X72765000Y-37920000D01*
X79338000Y-34043000D02*
X79291000Y-34089000D01*
X81635000Y-31745000D02*
X81600000Y-31781000D01*
X79531000Y-34259000D02*
X79496000Y-34294000D01*
X81840000Y-31951000D02*
X81793000Y-31997000D01*
X83125000Y-27759000D02*
X83125000Y-37680000D01*
X73005000Y-27759000D02*
X73005000Y-37680000D01*
X73005000Y-37680000D02*
X83125000Y-37680000D01*
X73005000Y-27759000D02*
X83125000Y-27759000D01*
X73005000Y-30719000D02*
X83125000Y-30719000D01*
X73005000Y-35620000D02*
X83125000Y-35620000D01*
X73005000Y-37120000D02*
X83125000Y-37120000D01*
X82245000Y-33020000D02*
G75*
G03*
X82245000Y-33020000I-1680000J0D01*
G01*
X75593805Y-34700253D02*
G75*
G02*
X74881000Y-34555000I-28805J1680253D01*
G01*
X74029574Y-33703042D02*
G75*
G02*
X74030000Y-32336000I1535426J683042D01*
G01*
X74881958Y-31484574D02*
G75*
G02*
X76249000Y-31485000I683042J-1535426D01*
G01*
X77100426Y-32336958D02*
G75*
G02*
X77100000Y-33704000I-1535426J-683042D01*
G01*
X76248318Y-34554756D02*
G75*
G02*
X75565000Y-34700000I-683318J1534756D01*
G01*
%TO.C,J3*%
X42805000Y-12880000D02*
X42305000Y-12880000D01*
X42805000Y-13620000D02*
X42805000Y-12880000D01*
X36232000Y-16757000D02*
X36279000Y-16711000D01*
X33935000Y-19055000D02*
X33970000Y-19019000D01*
X36039000Y-16541000D02*
X36074000Y-16506000D01*
X33730000Y-18849000D02*
X33777000Y-18803000D01*
X32445000Y-23041000D02*
X32445000Y-13120000D01*
X42565000Y-23041000D02*
X42565000Y-13120000D01*
X42565000Y-13120000D02*
X32445000Y-13120000D01*
X42565000Y-23041000D02*
X32445000Y-23041000D01*
X42565000Y-20081000D02*
X32445000Y-20081000D01*
X42565000Y-15180000D02*
X32445000Y-15180000D01*
X42565000Y-13680000D02*
X32445000Y-13680000D01*
X36685000Y-17780000D02*
G75*
G03*
X36685000Y-17780000I-1680000J0D01*
G01*
X39976195Y-16099747D02*
G75*
G02*
X40689000Y-16245000I28805J-1680253D01*
G01*
X41540426Y-17096958D02*
G75*
G02*
X41540000Y-18464000I-1535426J-683042D01*
G01*
X40688042Y-19315426D02*
G75*
G02*
X39321000Y-19315000I-683042J1535426D01*
G01*
X38469574Y-18463042D02*
G75*
G02*
X38470000Y-17096000I1535426J683042D01*
G01*
X39321682Y-16245244D02*
G75*
G02*
X40005000Y-16100000I683318J-1534756D01*
G01*
%TO.C,J2*%
X53600000Y-28120000D02*
X53100000Y-28120000D01*
X53600000Y-28860000D02*
X53600000Y-28120000D01*
X47027000Y-31997000D02*
X47074000Y-31951000D01*
X44730000Y-34295000D02*
X44765000Y-34259000D01*
X46834000Y-31781000D02*
X46869000Y-31746000D01*
X44525000Y-34089000D02*
X44572000Y-34043000D01*
X43240000Y-38281000D02*
X43240000Y-28360000D01*
X53360000Y-38281000D02*
X53360000Y-28360000D01*
X53360000Y-28360000D02*
X43240000Y-28360000D01*
X53360000Y-38281000D02*
X43240000Y-38281000D01*
X53360000Y-35321000D02*
X43240000Y-35321000D01*
X53360000Y-30420000D02*
X43240000Y-30420000D01*
X53360000Y-28920000D02*
X43240000Y-28920000D01*
X47480000Y-33020000D02*
G75*
G03*
X47480000Y-33020000I-1680000J0D01*
G01*
X50771195Y-31339747D02*
G75*
G02*
X51484000Y-31485000I28805J-1680253D01*
G01*
X52335426Y-32336958D02*
G75*
G02*
X52335000Y-33704000I-1535426J-683042D01*
G01*
X51483042Y-34555426D02*
G75*
G02*
X50116000Y-34555000I-683042J1535426D01*
G01*
X49264574Y-33703042D02*
G75*
G02*
X49265000Y-32336000I1535426J683042D01*
G01*
X50116682Y-31485244D02*
G75*
G02*
X50800000Y-31340000I683318J-1534756D01*
G01*
%TO.C,J1*%
X20095000Y-27860000D02*
G75*
G03*
X20095000Y-27860000I-1680000J0D01*
G01*
X14315000Y-20300000D02*
X14315000Y-30420000D01*
X15815000Y-20300000D02*
X15815000Y-30420000D01*
X20716000Y-20300000D02*
X20716000Y-30420000D01*
X23676000Y-20300000D02*
X23676000Y-30420000D01*
X13755000Y-20300000D02*
X13755000Y-30420000D01*
X23676000Y-20300000D02*
X13755000Y-20300000D01*
X23676000Y-30420000D02*
X13755000Y-30420000D01*
X19484000Y-29135000D02*
X19438000Y-29088000D01*
X17176000Y-26826000D02*
X17141000Y-26791000D01*
X19690000Y-28930000D02*
X19654000Y-28895000D01*
X17392000Y-26633000D02*
X17346000Y-26586000D01*
X14255000Y-20060000D02*
X13515000Y-20060000D01*
X13515000Y-20060000D02*
X13515000Y-20560000D01*
X16734747Y-22888805D02*
G75*
G02*
X16880000Y-22176000I1680253J28805D01*
G01*
X17731958Y-21324574D02*
G75*
G02*
X19099000Y-21325000I683042J-1535426D01*
G01*
X19950426Y-22176958D02*
G75*
G02*
X19950000Y-23544000I-1535426J-683042D01*
G01*
X19098042Y-24395426D02*
G75*
G02*
X17731000Y-24395000I-683042J1535426D01*
G01*
X16880244Y-23543318D02*
G75*
G02*
X16735000Y-22860000I1534756J683318D01*
G01*
%TO.C,D1*%
D12*
X39972380Y-27408095D02*
X38972380Y-27408095D01*
X38972380Y-27170000D01*
X39020000Y-27027142D01*
X39115238Y-26931904D01*
X39210476Y-26884285D01*
X39400952Y-26836666D01*
X39543809Y-26836666D01*
X39734285Y-26884285D01*
X39829523Y-26931904D01*
X39924761Y-27027142D01*
X39972380Y-27170000D01*
X39972380Y-27408095D01*
X39972380Y-25884285D02*
X39972380Y-26455714D01*
X39972380Y-26170000D02*
X38972380Y-26170000D01*
X39115238Y-26265238D01*
X39210476Y-26360476D01*
X39258095Y-26455714D01*
%TD*%
M02*
