%TF.GenerationSoftware,KiCad,Pcbnew,(5.1.8)-1*%
%TF.CreationDate,2024-03-21T22:44:30+03:00*%
%TF.ProjectId,Reg,5265672e-6b69-4636-9164-5f7063625858,rev?*%
%TF.SameCoordinates,Original*%
%TF.FileFunction,Legend,Bot*%
%TF.FilePolarity,Positive*%
%FSLAX46Y46*%
G04 Gerber Fmt 4.6, Leading zero omitted, Abs format (unit mm)*
G04 Created by KiCad (PCBNEW (5.1.8)-1) date 2024-03-21 22:44:30*
%MOMM*%
%LPD*%
G01*
G04 APERTURE LIST*
%ADD10C,0.250000*%
%ADD11C,0.120000*%
%ADD12C,0.150000*%
G04 APERTURE END LIST*
D10*
X118998809Y-34655238D02*
X118903571Y-34560000D01*
X118713095Y-34464761D01*
X118236904Y-34464761D01*
X118046428Y-34560000D01*
X117951190Y-34655238D01*
X117855952Y-34845714D01*
X117855952Y-35036190D01*
X117951190Y-35321904D01*
X119094047Y-36464761D01*
X117855952Y-36464761D01*
X117189285Y-34464761D02*
X115855952Y-34464761D01*
X116713095Y-36464761D01*
D11*
X113040000Y-42227500D02*
G75*
G03*
X113040000Y-40322500I0J952500D01*
G01*
%TO.C,U3*%
X121910000Y-41275000D02*
X121910000Y-43225000D01*
X121910000Y-41275000D02*
X121910000Y-39325000D01*
X113040000Y-41275000D02*
X113040000Y-43225000D01*
X113040000Y-41275000D02*
X113040000Y-37825000D01*
D12*
X111647380Y-40513095D02*
X112456904Y-40513095D01*
X112552142Y-40560714D01*
X112599761Y-40608333D01*
X112647380Y-40703571D01*
X112647380Y-40894047D01*
X112599761Y-40989285D01*
X112552142Y-41036904D01*
X112456904Y-41084523D01*
X111647380Y-41084523D01*
X111647380Y-41465476D02*
X111647380Y-42084523D01*
X112028333Y-41751190D01*
X112028333Y-41894047D01*
X112075952Y-41989285D01*
X112123571Y-42036904D01*
X112218809Y-42084523D01*
X112456904Y-42084523D01*
X112552142Y-42036904D01*
X112599761Y-41989285D01*
X112647380Y-41894047D01*
X112647380Y-41608333D01*
X112599761Y-41513095D01*
X112552142Y-41465476D01*
%TD*%
M02*
