%TF.GenerationSoftware,KiCad,Pcbnew,(5.1.8)-1*%
%TF.CreationDate,2024-07-21T00:44:15+03:00*%
%TF.ProjectId,PwrBus,50777242-7573-42e6-9b69-6361645f7063,rev?*%
%TF.SameCoordinates,Original*%
%TF.FileFunction,Legend,Bot*%
%TF.FilePolarity,Positive*%
%FSLAX46Y46*%
G04 Gerber Fmt 4.6, Leading zero omitted, Abs format (unit mm)*
G04 Created by KiCad (PCBNEW (5.1.8)-1) date 2024-07-21 00:44:15*
%MOMM*%
%LPD*%
G01*
G04 APERTURE LIST*
%ADD10C,0.120000*%
%ADD11C,0.150000*%
G04 APERTURE END LIST*
D10*
%TO.C,R1*%
X37565000Y-32342064D02*
X37565000Y-31887936D01*
X36095000Y-32342064D02*
X36095000Y-31887936D01*
%TO.C,Q1*%
X22735000Y-35870000D02*
X22735000Y-34940000D01*
X22735000Y-32710000D02*
X22735000Y-33640000D01*
X22735000Y-32710000D02*
X24895000Y-32710000D01*
X22735000Y-35870000D02*
X24195000Y-35870000D01*
%TO.C,R1*%
D11*
X38932380Y-31948333D02*
X38456190Y-31615000D01*
X38932380Y-31376904D02*
X37932380Y-31376904D01*
X37932380Y-31757857D01*
X37980000Y-31853095D01*
X38027619Y-31900714D01*
X38122857Y-31948333D01*
X38265714Y-31948333D01*
X38360952Y-31900714D01*
X38408571Y-31853095D01*
X38456190Y-31757857D01*
X38456190Y-31376904D01*
X38932380Y-32900714D02*
X38932380Y-32329285D01*
X38932380Y-32615000D02*
X37932380Y-32615000D01*
X38075238Y-32519761D01*
X38170476Y-32424523D01*
X38218095Y-32329285D01*
%TO.C,Q1*%
X23590238Y-32337619D02*
X23685476Y-32290000D01*
X23780714Y-32194761D01*
X23923571Y-32051904D01*
X24018809Y-32004285D01*
X24114047Y-32004285D01*
X24066428Y-32242380D02*
X24161666Y-32194761D01*
X24256904Y-32099523D01*
X24304523Y-31909047D01*
X24304523Y-31575714D01*
X24256904Y-31385238D01*
X24161666Y-31290000D01*
X24066428Y-31242380D01*
X23875952Y-31242380D01*
X23780714Y-31290000D01*
X23685476Y-31385238D01*
X23637857Y-31575714D01*
X23637857Y-31909047D01*
X23685476Y-32099523D01*
X23780714Y-32194761D01*
X23875952Y-32242380D01*
X24066428Y-32242380D01*
X22685476Y-32242380D02*
X23256904Y-32242380D01*
X22971190Y-32242380D02*
X22971190Y-31242380D01*
X23066428Y-31385238D01*
X23161666Y-31480476D01*
X23256904Y-31528095D01*
%TD*%
M02*
