M48
METRIC
T1C0.900
T2C1.300
T3C3.200
%
G90
G05
T1
X36.83Y-25.4
X36.83Y-27.94
T2
X64.135Y-17.78
X69.135Y-17.78
X133.985Y-33.02
X138.985Y-33.02
X106.125Y-33.02
X111.125Y-33.02
X94.695Y-17.78
X99.695Y-17.78
X19.05Y-22.86
X19.05Y-27.86
X75.565Y-33.02
X80.565Y-33.02
X156.21Y-22.94
X156.21Y-27.94
X36.275Y-17.78
X41.275Y-17.78
X125.095Y-17.78
X130.095Y-17.78
X45.8Y-33.02
X50.8Y-33.02
T3
X146.05Y-25.4
X118.11Y-25.4
X29.21Y-25.4
X57.15Y-25.4
X87.63Y-25.4
T0
M30
