M48
METRIC
T1C0.900
T2C1.300
T3C3.200
%
G90
G05
T1
X35.56Y-25.4
X35.56Y-27.94
T2
X102.87Y-33.02
X107.87Y-33.02
X45.8Y-33.02
X50.8Y-33.02
X156.21Y-22.94
X156.21Y-27.94
X18.415Y-22.86
X18.415Y-27.86
X106.125Y-33.02
X111.125Y-33.02
X35.005Y-17.78
X40.005Y-17.78
X64.135Y-17.78
X69.135Y-17.78
X135.89Y-33.02
X140.89Y-33.02
X94.695Y-17.78
X99.695Y-17.78
X75.565Y-33.02
X80.565Y-33.02
X124.46Y-17.78
X129.46Y-17.78
T3
X57.785Y-25.4
X27.94Y-25.4
X117.475Y-25.4
X87.63Y-25.4
X147.32Y-25.4
T0
M30
